<svg id="btn_cart" xmlns="http://www.w3.org/2000/svg" width="160" height="35" viewBox="0 0 160 35">
  <g id="グループ_5" data-name="グループ 5" transform="translate(-1546.35 -44.072)">
    <g id="グループ_4" data-name="グループ 4">
      <g id="グループ_3" data-name="グループ 3">
        <path id="パス_12" data-name="パス 12" d="M1591.116,65.817c-1.375,0-3.333-.374-3.454-2.673h1.485c.066,1.287,1.243,1.43,1.838,1.43.374,0,1.969-.044,1.969-1.177,0-.584-.352-.8-1.078-.969L1589.94,62a2.363,2.363,0,0,1-2.157-2.343c0-1.727,1.661-2.4,3.235-2.4a3.6,3.6,0,0,1,2.42.792,2.509,2.509,0,0,1,.792,1.738h-1.485c-.055-1.21-1.342-1.276-1.75-1.276-.263,0-1.76.022-1.76,1.067,0,.462.275.825,1.133,1.012l2.091.462a2.277,2.277,0,0,1,2.013,2.178C1594.472,64.706,1593.24,65.817,1591.116,65.817Z" fill="#595959"/>
        <path id="パス_13" data-name="パス 13" d="M1601.234,65.553V61.9h-3.664v3.653h-1.485V57.522h1.485v3.124h3.664V57.522h1.485v8.031Z" fill="#595959"/>
        <path id="パス_14" data-name="パス 14" d="M1608.417,65.817a3.932,3.932,0,0,1-4.015-4.28,4.029,4.029,0,1,1,8.042,0A3.941,3.941,0,0,1,1608.417,65.817Zm0-7.217c-1.375,0-2.453,1.034-2.453,2.937s1.067,2.949,2.453,2.949c1.452,0,2.465-1.123,2.465-2.949S1609.859,58.6,1608.417,58.6Z" fill="#595959"/>
        <path id="パス_15" data-name="パス 15" d="M1617.818,62.693h-2.212v2.86h-1.485V57.522h3.7a2.528,2.528,0,0,1,2.739,2.541A2.6,2.6,0,0,1,1617.818,62.693Zm-.221-3.917h-1.991v2.662h1.991a1.271,1.271,0,0,0,1.4-1.386C1618.995,59.084,1618.379,58.776,1617.6,58.776Z" fill="#595959"/>
        <path id="パス_16" data-name="パス 16" d="M1625.634,62.693h-2.211v2.86h-1.485V57.522h3.7a2.529,2.529,0,0,1,2.74,2.541A2.6,2.6,0,0,1,1625.634,62.693Zm-.22-3.917h-1.991v2.662h1.991a1.271,1.271,0,0,0,1.4-1.386C1626.812,59.084,1626.195,58.776,1625.414,58.776Z" fill="#595959"/>
        <path id="パス_17" data-name="パス 17" d="M1629.676,65.553V57.522h1.486v8.031Z" fill="#595959"/>
        <path id="パス_18" data-name="パス 18" d="M1638.162,65.553l-3.168-5.116-.6-1.32.154,1.793v4.643h-1.43V57.522h1.584l3.168,5.115.6,1.321-.153-1.794V57.522h1.43v8.031Z" fill="#595959"/>
        <path id="パス_19" data-name="パス 19" d="M1648.168,65.553l-.132-.847-.033-.55a2.691,2.691,0,0,1-2.762,1.661c-2.42,0-3.795-1.914-3.795-4.17,0-1.507.693-4.389,4.07-4.389a3.992,3.992,0,0,1,2.828,1.023,2.449,2.449,0,0,1,.748,1.738h-1.584a1.886,1.886,0,0,0-2-1.452c-1.662,0-2.465,1.353-2.465,2.937,0,2.4,1.43,3.037,2.487,3.037a2.38,2.38,0,0,0,1.661-.65,2.056,2.056,0,0,0,.627-1.4h-2.123V61.24h3.52v4.313Z" fill="#595959"/>
        <path id="パス_20" data-name="パス 20" d="M1658.573,65.817c-2.662,0-3.839-2-3.839-4.2,0-2.123,1.088-4.356,3.949-4.356a3.151,3.151,0,0,1,3.41,2.794h-1.573a1.739,1.739,0,0,0-1.8-1.485c-1.254,0-2.409,1.012-2.409,3.025,0,1.882,1.012,2.927,2.244,2.927a2.092,2.092,0,0,0,1.463-.594,1.581,1.581,0,0,0,.506-1.079h1.573A3.306,3.306,0,0,1,1658.573,65.817Z" fill="#595959"/>
        <path id="パス_21" data-name="パス 21" d="M1669.095,65.553l-.594-1.728h-3.378l-.594,1.728h-1.639l3.08-8.031h1.684l3.08,8.031Zm-2.1-6.062-.175-.7-.187.7-1.068,3.091h2.509Z" fill="#595959"/>
        <path id="パス_22" data-name="パス 22" d="M1676.933,65.553c-.165-.154-.264-.275-.264-.858v-.969c0-.572-.176-1.32-1.035-1.32h-2.057v3.147h-1.485V57.522h3.785a2.234,2.234,0,0,1,2.475,2.178,2.065,2.065,0,0,1-.495,1.375,1.947,1.947,0,0,1-1.254.649c.781.11,1.54.341,1.54,1.849v.814c0,.8.3,1.012.517,1.166Zm-1.255-6.777h-2.1v2.376h1.86a1.174,1.174,0,0,0,1.331-1.254A1.016,1.016,0,0,0,1675.678,58.776Z" fill="#595959"/>
        <path id="パス_23" data-name="パス 23" d="M1683.774,58.776v6.777h-1.486V58.776h-2.86V57.522h7.206v1.254Z" fill="#595959"/>
      </g>
    </g>
    <g id="パス_24" data-name="パス 24" fill="none" stroke-miterlimit="10">
      <path d="M1563.631,79.072H1689.07a17.391,17.391,0,0,0,17.28-17.5h0a17.391,17.391,0,0,0-17.28-17.5H1563.631a17.392,17.392,0,0,0-17.281,17.5h0A17.392,17.392,0,0,0,1563.631,79.072Z" stroke="none"/>
      <path d="M 1689.069946289062 78.07827758789062 C 1693.417724609375 78.07827758789062 1697.505859375 76.3629150390625 1700.58154296875 73.2481689453125 C 1703.660522460938 70.12999725341797 1705.356201171875 65.98332214355469 1705.356201171875 61.57199859619141 C 1705.356201171875 57.16067123413086 1703.660522460938 53.01399993896484 1700.58154296875 49.89582443237305 C 1697.505859375 46.78108596801758 1693.417724609375 45.06571578979492 1689.069946289062 45.06571578979492 L 1563.630981445312 45.06571578979492 C 1559.282836914062 45.06571578979492 1555.1943359375 46.78108596801758 1552.118530273438 49.89584732055664 C 1549.039428710938 53.01397705078125 1547.34375 57.16065216064453 1547.34375 61.57199859619141 C 1547.34375 65.98334503173828 1549.039428710938 70.13002014160156 1552.118530273438 73.24815368652344 C 1555.1943359375 76.3629150390625 1559.282836914062 78.07827758789062 1563.630981445312 78.07827758789062 L 1689.069946289062 78.07827758789062 M 1689.069946289062 79.07199859619141 L 1563.630981445312 79.07199859619141 C 1554.087036132812 79.07199859619141 1546.349975585938 71.23699951171875 1546.349975585938 61.57199859619141 C 1546.349975585938 51.90699768066406 1554.087036132812 44.07199859619141 1563.630981445312 44.07199859619141 L 1689.069946289062 44.07199859619141 C 1698.613037109375 44.07199859619141 1706.349975585938 51.90699768066406 1706.349975585938 61.57199859619141 C 1706.349975585938 71.23699951171875 1698.613037109375 79.07199859619141 1689.069946289062 79.07199859619141 Z" stroke="none" fill="#666"/>
    </g>
  </g>
  <g id="グループ_6" data-name="グループ 6" transform="translate(-1546.35 -44.072)">
    <path id="パス_25" data-name="パス 25" d="M1581.543,56.937a.5.5,0,0,0-.388-.185h-12.266l-.683-2.327a.5.5,0,0,0-.48-.359h-2.343a.5.5,0,0,0,0,1h1.969l2.866,9.755-.733.144a.5.5,0,0,0-.4.491v1.513a.5.5,0,0,0,.5.5h9.253a.5.5,0,0,0,0-1h-8.753v-.6l9.875-1.948a.5.5,0,0,0,.393-.387l1.294-6.177A.5.5,0,0,0,1581.543,56.937Z" fill="#595959"/>
    <path id="パス_26" data-name="パス 26" d="M1570.778,67.848a.952.952,0,1,0,.953.952A.952.952,0,0,0,1570.778,67.848Z" fill="#595959"/>
    <path id="パス_27" data-name="パス 27" d="M1577.688,67.848a.952.952,0,1,0,.952.952A.952.952,0,0,0,1577.688,67.848Z" fill="#595959"/>
  </g>
</svg>
