<svg id="btn_line" xmlns="http://www.w3.org/2000/svg" width="37.992" height="37.991" viewBox="0 0 37.992 37.991">
  <g id="グループ_501" data-name="グループ 501" transform="translate(-1840.994 -44.096)">
    <g id="グループ_500" data-name="グループ 500">
      <g id="グループ_499" data-name="グループ 499">
        <path id="パス_2187" data-name="パス 2187" d="M1863.573,58.094a.7.7,0,0,0-.773.153.843.843,0,0,0-.246.653q0,1.474,0,2.948v.244c-.058-.071-.088-.1-.115-.142l-1.763-2.4-.842-1.151a.743.743,0,0,0-.767-.341.687.687,0,0,0-.568.5,1.414,1.414,0,0,0-.052.4q0,2.586,0,5.173a1.287,1.287,0,0,0,.05.382.752.752,0,0,0,.806.511.792.792,0,0,0,.644-.753c.006-.648,0-1.3,0-1.946,0-.437,0-.875,0-1.367l2.72,3.706a.752.752,0,0,0,1.392-.465q0-2.66,0-5.322a.93.93,0,0,0,0-.129A.742.742,0,0,0,1863.573,58.094Z" fill="#4d4d4d" fill-rule="evenodd"/>
        <path id="パス_2188" data-name="パス 2188" d="M1854.574,63.532c-.649-.006-1.3,0-1.969,0v-.244q0-2.233,0-4.47a.751.751,0,0,0-.789-.77.738.738,0,0,0-.7.8q0,2.689,0,5.379c0,.043,0,.086.005.13a.74.74,0,0,0,.7.667c.941.005,1.88.007,2.819,0a.747.747,0,0,0,.681-.9A.711.711,0,0,0,1854.574,63.532Z" fill="#4d4d4d" fill-rule="evenodd"/>
        <path id="パス_2189" data-name="パス 2189" d="M1856.957,58.084a.76.76,0,0,0-1,.78q-.01,2.667,0,5.338a.992.992,0,0,0,.095.408.748.748,0,0,0,.8.4.8.8,0,0,0,.608-.765c0-.9,0-1.805,0-2.707V58.849A.785.785,0,0,0,1856.957,58.084Z" fill="#4d4d4d" fill-rule="evenodd"/>
        <path id="パス_2190" data-name="パス 2190" d="M1866.668,59.529c.606,0,1.211,0,1.817,0a.725.725,0,0,0,.712-.739.716.716,0,0,0-.712-.741q-1.391,0-2.782,0a.705.705,0,0,0-.7.706q0,2.772,0,5.543a.722.722,0,0,0,.71.723c.927,0,1.854,0,2.781,0a.737.737,0,0,0,.706-.715.706.706,0,0,0-.678-.767c-.612-.011-1.224,0-1.836-.007h-.209V62.274h.195c.594,0,1.187,0,1.78,0a.735.735,0,0,0,.748-.707.71.71,0,0,0-.712-.776c-.6-.009-1.2,0-1.8-.006h-.211V59.529Z" fill="#4d4d4d" fill-rule="evenodd"/>
      </g>
      <path id="パス_2191" data-name="パス 2191" d="M1859.95,60.951v1.367c0,.649,0,1.3,0,1.946a.792.792,0,0,1-.644.753.752.752,0,0,1-.806-.511,1.287,1.287,0,0,1-.05-.382q0-2.588,0-5.173a1.413,1.413,0,0,1,.051-.4.687.687,0,0,1,.568-.5.743.743,0,0,1,.767.341q.42.576.842,1.151l1.763,2.4c.027.037.057.071.115.142v-.244q0-1.474,0-2.948a.843.843,0,0,1,.246-.653.7.7,0,0,1,.773-.153.742.742,0,0,1,.485.647.93.93,0,0,1,0,.129q0,2.663,0,5.322a.752.752,0,0,1-1.392.465Z" fill="#4d4d4d" fill-rule="evenodd"/>
      <path id="パス_2192" data-name="パス 2192" d="M1866.476,59.529v1.257h.211c.6,0,1.2,0,1.8.005a.709.709,0,0,1,.712.775.735.735,0,0,1-.748.708c-.593,0-1.186,0-1.78,0h-.195V63.53h.209c.612,0,1.224,0,1.836.007a.706.706,0,0,1,.678.767.737.737,0,0,1-.706.715q-1.391,0-2.781,0a.722.722,0,0,1-.71-.723q0-2.772,0-5.543a.7.7,0,0,1,.7-.706q1.392,0,2.782,0a.716.716,0,0,1,.712.741.725.725,0,0,1-.712.739c-.606,0-1.211,0-1.817,0Z" fill="#4d4d4d" fill-rule="evenodd"/>
      <path id="パス_2193" data-name="パス 2193" d="M1852.6,63.53c.672,0,1.32,0,1.969,0a.711.711,0,0,1,.746.581.746.746,0,0,1-.681.9c-.939.008-1.879.006-2.819,0a.74.74,0,0,1-.7-.667c0-.044-.005-.087-.005-.13q0-2.689,0-5.379a.739.739,0,0,1,.7-.8.751.751,0,0,1,.789.77q0,2.235,0,4.47Z" fill="#4d4d4d" fill-rule="evenodd"/>
      <path id="パス_2194" data-name="パス 2194" d="M1857.465,61.537q0,1.353,0,2.707a.8.8,0,0,1-.608.765.748.748,0,0,1-.8-.4.989.989,0,0,1-.1-.408q-.009-2.669,0-5.338a.76.76,0,0,1,1-.78.787.787,0,0,1,.508.765Z" fill="#4d4d4d" fill-rule="evenodd"/>
    </g>
  </g>
  <path id="パス_2195" data-name="パス 2195" d="M1878.986,77.635q0-14.544,0-29.088a4.466,4.466,0,0,0-4.452-4.451h-29.087a4.465,4.465,0,0,0-4.452,4.45q0,14.545,0,29.089a4.466,4.466,0,0,0,4.452,4.452h29.087A4.465,4.465,0,0,0,1878.986,77.635Zm-7.228-10.565a20.07,20.07,0,0,1-2.939,3.1,51.277,51.277,0,0,1-7.421,5.287c-.537.319-1.113.572-1.677.843a1.115,1.115,0,0,1-.426.1c-.364.015-.551-.164-.509-.592.039-.4.115-.792.182-1.187a4.454,4.454,0,0,0,.069-1.343.841.841,0,0,0-.49-.652,3.443,3.443,0,0,0-1.158-.335,15.591,15.591,0,0,1-3.535-.956,13.524,13.524,0,0,1-3.787-2.248,10.525,10.525,0,0,1-3.646-5.827,8.7,8.7,0,0,1-.189-2.517,9.7,9.7,0,0,1,2.184-5.475,13.027,13.027,0,0,1,5.078-3.8,16.572,16.572,0,0,1,14.091.529,12.039,12.039,0,0,1,4.912,4.628,9.026,9.026,0,0,1,1.274,4.275A9.712,9.712,0,0,1,1871.758,67.07Z" transform="translate(-1840.994 -44.096)" fill="#4d4d4d"/>
</svg>
