<svg id="btn_cart" xmlns="http://www.w3.org/2000/svg" width="55.73" height="52.121" viewBox="0 0 55.73 52.121">
  <path id="パス_2148" data-name="パス 2148" d="M701.353,53.717a1.666,1.666,0,0,0-1.29-.615H659.306l-2.27-7.731a1.661,1.661,0,0,0-1.594-1.192h-7.788a1.661,1.661,0,0,0,0,3.323H654.2l9.521,32.411-2.434.479a1.662,1.662,0,0,0-1.34,1.63v5.03a1.66,1.66,0,0,0,1.661,1.661h30.747a1.661,1.661,0,1,0,0-3.323H663.269v-2l32.814-6.471a1.658,1.658,0,0,0,1.3-1.288l4.3-20.525A1.666,1.666,0,0,0,701.353,53.717Z" transform="translate(-645.993 -44.179)" fill="#595959"/>
  <path id="パス_2149" data-name="パス 2149" d="M665.583,89.972a3.164,3.164,0,1,0,3.164,3.164A3.165,3.165,0,0,0,665.583,89.972Z" transform="translate(-645.993 -44.179)" fill="#595959"/>
  <path id="パス_2150" data-name="パス 2150" d="M688.542,89.972a3.164,3.164,0,1,0,3.164,3.164A3.165,3.165,0,0,0,688.542,89.972Z" transform="translate(-645.993 -44.179)" fill="#595959"/>
</svg>
