<svg id="faq_a" xmlns="http://www.w3.org/2000/svg" width="41.924" height="41.924" viewBox="0 0 41.924 41.924">
  <circle id="楕円形_3" data-name="楕円形 3" cx="20.962" cy="20.962" r="20.962" fill="#ece8de"/>
  <g id="グループ_520" data-name="グループ 520" transform="translate(-537.834 -1585.858)">
    <path id="パス_2250" data-name="パス 2250" d="M562.362,1612.015a10.153,10.153,0,0,0-.42-1.575l-.6-1.635h-4.8l-.6,1.635a7.424,7.424,0,0,0-.45,1.575h-2.46a16.6,16.6,0,0,0,.795-1.77l3.3-8.654a8.815,8.815,0,0,0,.481-1.515h2.609a9.936,9.936,0,0,0,.51,1.515l3.33,8.654a15.658,15.658,0,0,0,.765,1.77Zm-3.164-9.374c-.061-.165-.106-.345-.271-.84-.24.7-.24.7-.285.84l-1.559,4.44H560.8Z" fill="#333"/>
  </g>
  <g id="楕円形_4" data-name="楕円形 4" fill="none" stroke="#333" stroke-miterlimit="10" stroke-width="1">
    <circle cx="20.962" cy="20.962" r="20.962" stroke="none"/>
    <circle cx="20.962" cy="20.962" r="20.462" fill="none"/>
  </g>
</svg>
