<svg id="faq_others" xmlns="http://www.w3.org/2000/svg" width="137" height="46" viewBox="0 0 137 46">
  <rect id="長方形_57" data-name="長方形 57" width="137" height="46" fill="red" opacity="0"/>
  <g id="グループ_517" data-name="グループ 517" transform="translate(-891.039 -2534.808)">
    <g id="グループ_516" data-name="グループ 516">
      <path id="パス_2246" data-name="パス 2246" d="M920.716,2545.927c0,.6-.24,1.04-1.52,1.88a111,111,0,0,0-9.239,8,30.171,30.171,0,0,0-3.719,4.32c0,.159.16.239.36.239.88,0,5.8-1.879,7.119-2.4,4.279-1.64,6.439-2.44,8.079-2.44.88,0,3.72.52,3.72,1.96,0,1-1.521,1.28-2.08,1.28-.241,0-1.281-.08-1.481-.08-3.2,0-10.838,1.56-10.838,7.278,0,3.76,2.52,4.36,7.159,5.439,2,.48,2.4,1.68,2.4,2.04,0,.84-1.24,1.28-2.64,1.28-.28,0-8.518-.48-8.518-7.239a9.843,9.843,0,0,1,1.759-5.559,15.523,15.523,0,0,0,.96-1.239c0-.04-.04-.12-.16-.12a13.168,13.168,0,0,0-3,1.6c-2.16,1.56-2.72,1.96-3.96,1.96-1.64,0-2.079-1.96-2.079-2.32,0-.759.359-1.119,1.52-2.159.359-.28,7.358-8.559,8.837-10.038,1.241-1.241,3.68-3.76,3.68-4.68a.672.672,0,0,0-.68-.68,4.676,4.676,0,0,0-2.559,1.44c-1.08,1.12-1.52,1.6-3,1.6-2.16,0-2.8-3.4-2.8-3.52s.04-.32.28-.32c.119,0,1.68.28,1.959.28a4.934,4.934,0,0,0,1.4-.2c3.919-1,4.359-1.12,5.318-1.12A3.625,3.625,0,0,1,920.716,2545.927Z" fill="#333"/>
      <path id="パス_2247" data-name="パス 2247" d="M954.333,2546.647c0,.12.08.28.08.439a30.681,30.681,0,0,1,.4,4.32c0,2.68-.6,6.4-4.119,11.718-3.2,4.879-5.238,5.839-6.839,5.839-2.639,0-5-4.119-5-9a14.092,14.092,0,0,1,4.44-10.2,16.546,16.546,0,0,1,12.758-5.2,13.031,13.031,0,0,1,6.439,1.28,12.535,12.535,0,0,1,6.958,11.638,14.915,14.915,0,0,1-10.078,14.078,24.617,24.617,0,0,1-6.639,1.48c-.16,0-.4-.04-.4-.281,0-.119.08-.159,1.08-.559,4.159-1.64,12.838-5.08,12.838-15.038,0-1.56-.16-11.078-11.078-11.078C954.373,2546.087,954.333,2546.407,954.333,2546.647Zm-13,12.278c0,2.6,1.04,6.159,3.479,6.159,1.161,0,2.121-.48,4.879-4.64,2.12-3.239,3.92-7.678,3.92-11.638,0-2.4-.16-2.6-.679-2.6C949.134,2546.207,941.335,2551.366,941.335,2558.925Z" fill="#333"/>
      <path id="パス_2248" data-name="パス 2248" d="M983.6,2553.646c-.161.16-3.44,3.439-3.84,3.439a.213.213,0,0,1-.2-.2c0-.16.039-.24.519-.84a69.882,69.882,0,0,0,8.439-14.677c.519-1.4.559-1.56.759-1.56.281,0,3.36,2.08,3.36,2.719,0,.28-.04.32-1.36.96-.6.32-3.92,5.479-3.96,5.559a.448.448,0,0,0-.039.2c0,.44.48.72.8.88.2.12.521.32.521.68,0,.32-.161.48-.68,1-.36.4-.36,1.12-.36,4.839,0,10.678.08,11.4.2,17.077,0,.12.04.48.04.64a2.12,2.12,0,0,1-1.88,2.28c-1.04,0-1.04-.96-1.04-1.44,0-1.76.24-15.477.24-18.077,0-.64,0-4.2-.439-4.359C984.439,2552.686,984.2,2552.966,983.6,2553.646Zm24.515-3.2a2.1,2.1,0,0,0,1.24-1.16c.28-.44.72-1.159,1.16-1.159.32,0,3.04,1.119,3.04,1.879a.7.7,0,0,1-.241.48c-.12.12-.6.48-.679.6-.4.44-.4.52-.4,4.439,0,2.12,0,8.519-.479,9.958a3.969,3.969,0,0,1-2.84,2.72.46.46,0,0,1-.4-.2,4.8,4.8,0,0,0-2.08-1.959c-.2-.121-1.48-.52-1.48-.76,0-.2.2-.2.88-.2,2.559,0,3.319,0,3.679-1.48.28-1.2.28-4.959.28-10.119,0-1.079,0-2.279-.56-2.279a1.24,1.24,0,0,0-.44.08l-3.48,1.36a1.525,1.525,0,0,0-1.079,1.08c-.12.679-.12,7.438-.12,8.558,0,.84.04,4.839.04,5.759a1.816,1.816,0,0,1-1.8,1.84c-.839,0-.839-.92-.839-1.28,0-.8.159-4.759.159-5.679,0-1.08-.039-6.439-.039-7.639,0-.32,0-.96-.4-.96a1.966,1.966,0,0,0-.519.12l-2.84,1.12a1.359,1.359,0,0,0-.8,1.36c-.04,1.12-.08,8.759-.08,10.6,0,4.918.56,5.318,7.4,5.318,4.8,0,6.679-.319,7.8-1.159,1.04-.76,2.08-3.52,2.6-5.159.2-.72.24-.88.479-.88s.241.12.241.96c0,.319-.039,1.959-.039,2.319a4.7,4.7,0,0,0,.4,1.88c.6.679.68.76.68,1.079,0,.761-1.04,1.96-2.64,2.6-2.2.88-6.919.88-8.719.88-9.357,0-10.6-.72-10.717-5.119-.041-1.12-.041-7.159-.041-8.6,0-4.319,0-4.439-.559-4.439a37.1,37.1,0,0,0-4.2,1.76.535.535,0,0,1-.36-.12l-1.04-.6c-.12-.08-.239-.12-.239-.2s0-.12.319-.2c.84-.24,3-.96,3.88-1.28,2.119-.72,2.119-.84,2.119-2.479,0-.32-.08-5.479-.16-6.52,0-.2-.119-1.2-.119-1.439,0-.32.119-.44.4-.44.16,0,1.759.48,2.6.68.4.12,1.08.28,1.08.84a.793.793,0,0,1-.24.48,5.078,5.078,0,0,0-.68.759c-.24.48-.24.88-.24,4.32,0,1.559,0,1.719.48,1.719a1.022,1.022,0,0,0,.44-.08l2.52-1c1.319-.52,1.319-.8,1.319-4.36,0-1.239-.119-7.358-.119-8.758,0-.44.119-.48.359-.48s3.48.52,3.48,1.12a.932.932,0,0,1-.281.52c-.719.639-.8.72-.92,1.039-.159.56-.159,7.479-.159,8.4,0,.2,0,.8.6.8a4.126,4.126,0,0,0,.479-.12Z" fill="#333"/>
    </g>
  </g>
</svg>
