<svg id="faq_q" xmlns="http://www.w3.org/2000/svg" width="41.924" height="41.924" viewBox="0 0 41.924 41.924">
  <circle id="楕円形_1" data-name="楕円形 1" cx="20.962" cy="20.962" r="20.962" fill="#f6f7f2"/>
  <g id="楕円形_2" data-name="楕円形 2" fill="none" stroke="#333" stroke-miterlimit="10" stroke-width="1">
    <circle cx="20.962" cy="20.962" r="20.962" stroke="none"/>
    <circle cx="20.962" cy="20.962" r="20.462" fill="none"/>
  </g>
  <g id="グループ_518" data-name="グループ 518" transform="translate(-537.834 -1598.441)">
    <path id="パス_2249" data-name="パス 2249" d="M563.1,1625.313a13.945,13.945,0,0,0-1.425-1.516,5.142,5.142,0,0,1-2.76.706,5.288,5.288,0,0,1-3.9-1.5,6.508,6.508,0,0,1-1.7-4.68c0-3.78,2.236-6.255,5.64-6.255s5.565,2.415,5.565,6.18a7.747,7.747,0,0,1-.48,2.775,5.506,5.506,0,0,1-1.125,1.77l.42.4a12.132,12.132,0,0,0,.975.84Zm-2.775-5.1a14.749,14.749,0,0,0,1.17,1.216,4.614,4.614,0,0,0,.93-3.21,4.863,4.863,0,0,0-1.2-3.495,3.183,3.183,0,0,0-2.311-.915,3.235,3.235,0,0,0-2.324.915,4.954,4.954,0,0,0-1.2,3.57c0,2.714,1.394,4.47,3.554,4.47a2.881,2.881,0,0,0,1.35-.3,12.219,12.219,0,0,0-1.2-1.049Z" fill="#333"/>
  </g>
</svg>
