<svg id="faq_products" xmlns="http://www.w3.org/2000/svg" width="255" height="46" viewBox="0 0 255 46">
  <rect id="長方形_54" data-name="長方形 54" width="255" height="46" fill="red" opacity="0"/>
  <g id="グループ_511" data-name="グループ 511" transform="translate(-833.492 -423.031)">
    <g id="グループ_510" data-name="グループ 510">
      <path id="パス_2224" data-name="パス 2224" d="M862.689,440.869a2.156,2.156,0,0,0,2.2-1.2c2.319-3.12,2.6-4.4,2.6-4.679,0-.56-.4-.56-.8-.56h-16c-.92,0-3.679,0-5.08.12-.119,0-.718.08-.84.08s-.2-.08-.359-.24l-.76-.92c-.16-.2-.16-.2-.16-.28s.04-.08.12-.08c.281,0,1.52.12,1.8.12,1.8.08,3.6.16,5.44.16h7.318c1.119,0,1.119-.72,1.119-1.88a16.551,16.551,0,0,0-.159-2.319,4.654,4.654,0,0,1-.16-.72.44.44,0,0,1,.519-.44c.2,0,3.92.56,3.92,1.32,0,.28-.8,1.16-.88,1.36a2.07,2.07,0,0,0-.16,1.04c0,.879,0,1.639,1.2,1.639h7.68c1.919,0,2.2,0,3-1.12.24-.32.88-1.16,1.4-1.16.84,0,3.2,2.4,3.2,2.76,0,.56-.681.56-1.8.56h-6.68c-.439,0-.519,0-.519.16,0,.12.08.16.8.56.481.24.88.48.88.84,0,.44-.439.559-.88.68-.679.2-.719.24-3.8,2.959-.92.8-1.04.88-1.04,1,0,.24.16.24.639.24h6.039c.88,0,1.04-.08,1.361-.48.679-.88.759-.96.959-.96.32,0,3.279,1.92,3.279,2.6,0,.2-.039.44-.68.84-.8.519-.959.959-.959,3,0,1.4.2,7.559.2,8.8,0,5.878-.119,7.4-.8,8.318a3.617,3.617,0,0,1-2.72,1.2c-.56,0-.56-.08-.64-.96-.08-1.04-.719-1.24-2.479-1.84-.76-.239-.84-.279-.84-.48s.2-.279.48-.279,1.48.12,1.719.12c1.16,0,1.8,0,2.12-.84s.32-8.319.32-9.919c0-1.4-.039-7-.16-7.359-.16-.679-.639-.719-1.16-.719h-6.278c-1.2,0-1.2.48-1.2,1.959,0,2.64,0,2.84,2.159,2.84,1.68,0,2.64,0,3.12-1.76.239-.96.279-1.08.48-1.08.16,0,.439.281.56,1.2a2.4,2.4,0,0,0,.56,1.4c.439.4.479.48.479.64a2.225,2.225,0,0,1-1.439,1.68,7.355,7.355,0,0,1-3.28.4c-4.279,0-5.239-.2-5.239-4.16,0-2.8,0-3.119-1.28-3.119h-2.44c-.04,0-.16.04-.16.12a11.224,11.224,0,0,1,1.361,2.159c0,.24-.04.28-1.12.52-.52.12-1.879,2.2-2.2,2.56a12.627,12.627,0,0,1-5.638,3.759c-.2,0-.361-.12-.361-.24s1.56-1.4,1.84-1.68c.52-.56,3.279-3.759,3.279-6.278,0-.88-.639-.92-1.08-.92h-5.119c-1.159,0-1.159.679-1.159,1.4,0,.159-.041,12.117-.041,14.4,0,.72.16,3.839.16,4.479,0,.68,0,2.08-2.039,2.08-1.12,0-1.12-.68-1.12-1.08,0-.28.16-2.64.16-3.16.159-6.718.159-9,.159-10.558,0-1.439,0-4.759-.2-7.918,0-.28-.24-1.52-.24-1.8,0-.2.24-.2.28-.2a10.982,10.982,0,0,1,1.96.92,3.643,3.643,0,0,0,1.879.4h4.319c.281,0,.56,0,.56-.48a11.664,11.664,0,0,0-1.159-3.119,15.072,15.072,0,0,1-1.52-2.52c0-.12.159-.12.2-.12.72,0,4.959,1.959,4.959,3.8a3.523,3.523,0,0,1-.44,1.64c-.239.4-.28.44-.28.56,0,.24.24.24.52.24Zm-4.679,18.2c-.84,0-.96.24-1.04.76-.079.719-.2,1.76-1.8,1.76-.72,0-.959-.241-.959-.96,0-.8.08-4.72.08-5.6,0-.6-.16-3.559-.16-3.679,0-.2,0-.28.279-.28.4,0,.521.08,1.72.52a4.549,4.549,0,0,0,1.72.28h5.718a1.788,1.788,0,0,0,1.361-.36c.16-.12.84-.8,1.04-.8.08,0,2.718.96,2.718,1.84,0,.28-.079.36-.839,1-.24.16-.36.4-.36,1.28,0,.039.08,4.2.08,5,0,1.159-1.48,1.239-1.759,1.239-1.121,0-1.121-.439-1.161-1.359,0-.64-.639-.64-1.039-.64Zm-.04-6.119c-1.159,0-1.159.6-1.159,1.8,0,2.919,0,3.239,1.159,3.239h5.719c1.16,0,1.2-.48,1.2-2.8,0-1.68,0-2.24-1.161-2.24Z" fill="#333"/>
      <path id="パス_2225" data-name="パス 2225" d="M892.151,460.706c-.44,0-1.12,0-1.2.759s-.2,2.16-2.079,2.16c-.88,0-1.16-.56-1.16-1.44,0-1.2.24-7.038.24-8.358,0-.48,0-2.96-.12-4.24-.04-.319-.2-1.839-.2-1.959,0-.28.04-.36.28-.36a9.212,9.212,0,0,1,2.52.92,3.268,3.268,0,0,0,1.639.319h5.159c1.84,0,2.081.04,2.4-.479.52-.8.559-.88.88-.88s3.08,1.4,3.08,2.239c0,.321-.4.6-.881,1-.56.48-.56,1.28-.56,2.4,0,1.04.121,6.2.121,7.359,0,.919,0,2.439-1.72,2.439-1.04,0-1.12-.72-1.2-1.32-.08-.559-.6-.559-1.12-.559Zm6.24-1.04a1,1,0,0,0,1.08-1.12v-7.759c0-1.2-.681-1.2-1.4-1.2h-6.238c-1,0-1.2.44-1.2,1.32,0,1.08.239,5.959.239,6.959,0,1.16,0,1.8,1.16,1.8Zm10.118-28.915c1.84,0,2.04,0,2.359-.48.6-.92.68-1.04,1.04-1.04.4,0,2.72,1.6,2.72,2.319,0,.4-.12.48-.8.88-.44.28-.44.72-.44,1.16,0,1.16.24,6.479.24,7.239,0,.8,0,2.159-1.8,2.159-.36,0-1-.079-1.08-.639-.08-.88-.12-1.04-1.08-1.04h-11.8c-.6,0-.8.04-.96.64-.239.8-.4,1.439-1.76,1.439-1.279,0-1.319-.6-1.319-1.159,0-.8.2-4.68.2-5.559a45.934,45.934,0,0,0-.24-5.919,9.286,9.286,0,0,1-.4-1.12c0-.2.2-.24.32-.24a11.771,11.771,0,0,1,3.119,1.12,3.217,3.217,0,0,0,1.4.24Zm1.159,9.518c1.08,0,1.16-.64,1.16-1.28,0-.4-.04-6-.08-6.279-.08-.88-.84-.88-1.2-.88H898.03c-1.2,0-1.239.64-1.239,1.52,0,1.96,0,4.84.08,5.919.039,1,.8,1,1.239,1Zm.08,20.437a.919.919,0,0,0-1.079.92c-.04.879-.12,2-1.96,2-.84,0-1.16-.56-1.16-1.44,0-1.2.28-7.078.28-8.438,0-.32,0-3.12-.12-4.36-.04-.28-.24-1.719-.24-2.039,0-.28.08-.32.32-.32a6,6,0,0,1,2.279.8,3.8,3.8,0,0,0,1.84.4h4.8c1.88,0,2.08,0,2.4-.52.48-.76.56-.84.8-.84.159,0,3.32,1.44,3.32,2.439,0,.361-.081.44-.96,1.12-.48.4-.48,1.2-.48,1.96,0,1.12.16,6.559.16,7.759,0,.96,0,2.559-2.08,2.559-.96,0-.96-.52-1-1.2,0-.08-.04-.8-.96-.8Zm-.08-11.438c-1.2,0-1.2.6-1.2,1.639,0,1,.12,5.359.12,6.279,0,2.16,0,2.48,1.159,2.48h6.119c1,0,1.16-.44,1.16-1.44,0-1.16-.12-6.279-.12-7.319s0-1.639-1.16-1.639Z" fill="#333"/>
      <path id="パス_2226" data-name="パス 2226" d="M935.923,452.347c.68,0,1.04-.64,1.92-3.119.239-.681.36-1,.559-1s.2.4.2.48c0,.44-.92,5.119-.92,6.079a7.139,7.139,0,0,0,.639,2.079,4.3,4.3,0,0,1,.481,1.76,1.34,1.34,0,0,1-1.321,1.359c-2.479,0-4.319-6.8-4.319-10.638,0-2.559.32-3.719,1.68-8.718a13.573,13.573,0,0,0,.68-4.159,9.8,9.8,0,0,0-.4-2.84,5.069,5.069,0,0,1-.24-.72c0-.12.16-.2.32-.2,1.84,0,3.52,3.64,3.52,5.08,0,.439,0,.479-.76,1.839-.441.84-3.08,6.719-3.08,10.318C934.883,451.147,935.283,452.347,935.923,452.347Zm23.236,4c0,1.56-1.2,2.04-6.8,2.04-3.919,0-5.4-1-6.239-1.8-.2-.2-1.24-1.24-1.24-2,0-.08,0-.4.2-.4a5.966,5.966,0,0,1,.96.56,9.858,9.858,0,0,0,4.279.679,33.339,33.339,0,0,0,3.48-.12c.559-.039,3.359-.32,3.519-.32C958.839,454.986,959.159,455.866,959.159,456.346Zm-1.88-19.476c0,1.959-4.439,1.959-4.919,1.959-4.519,0-7-2.439-7-2.959,0-.08.04-.2.281-.2.12,0,.6.16,1.119.28a13.742,13.742,0,0,0,2.719.24,16.156,16.156,0,0,0,4.4-.6c1.2-.44,1.319-.48,1.72-.44A2,2,0,0,1,957.279,436.87Z" fill="#333"/>
      <path id="パス_2227" data-name="パス 2227" d="M968.384,441.789a.56.56,0,0,1,.6-.64c.4,0,2.079.479,2.44.479,1,0,1.519-.239,6.438-2.239,1.92-.76,7.4-3,11.2-3a9.973,9.973,0,0,1,10.2,9.878c.04,7.279-7.439,11.6-16.037,11.6-.361,0-.96,0-.96-.52,0-.32.16-.32,1.639-.52,9.878-1.4,12.279-8.438,12.279-12a6.49,6.49,0,0,0-6.48-6.679c-3.8,0-9.518,3.04-13,5.439-2,1.4-2.6,1.64-3.68,1.64C970.623,445.228,968.384,442.948,968.384,441.789Z" fill="#333"/>
      <path id="パス_2228" data-name="パス 2228" d="M1016.219,439.469a5.466,5.466,0,0,1-.481,1.6,14.141,14.141,0,0,0-.959,5.159c0,4.039,2.079,6.959,3.32,6.959.679,0,.839-.2,2.04-2.2.239-.4.919-1.359,1.239-1.359.12,0,.2.159.2.319a4.8,4.8,0,0,1-.12.8,11.238,11.238,0,0,0-.521,3.04,5.393,5.393,0,0,0,.241,1.6,10.036,10.036,0,0,1,.32,1.32c0,.8-.84,1.24-1.52,1.24-2.56,0-7.6-4.2-7.6-11.838,0-1.12.56-6.039.56-7.079a11.093,11.093,0,0,0-.28-2.319,5.372,5.372,0,0,1-.319-1.36c0-.12.159-.16.239-.16C1014.419,435.19,1016.219,438.389,1016.219,439.469Zm19.516.92a9.953,9.953,0,0,1,3.56,7.639c0,.76-.08,2.639-2,2.639-1.959,0-1.959-2.16-1.959-2.679,0-3.32,0-5-2.12-7.119-.32-.32-1.92-1.56-1.92-1.8,0-.12.16-.2.36-.2A7.781,7.781,0,0,1,1035.735,440.389Z" fill="#333"/>
      <path id="パス_2229" data-name="パス 2229" d="M1051.22,437.949c1.719,0,2.319-.159,7.8-1.719,3.559-1,12.678-3.6,15.357-3.6,1.4,0,3.2.56,3.2,1.92a1.588,1.588,0,0,1-1.6,1.48c-.521,0-2.8-.44-3.281-.44-5.078,0-10.758,4.679-10.758,15,0,6.719,2.52,7.159,4.879,7.159.6,0,3.48-.24,3.8-.24,1.239,0,2,.52,2,1.48,0,2.12-4.4,2.12-4.638,2.12-8.2,0-8.2-6.68-8.2-8.559,0-1.76.04-10.238,5.839-15.4a7.166,7.166,0,0,0,.96-.839c0-.08-.16-.08-.24-.08-2.28,0-10.6,3.559-11.878,4.279a2.9,2.9,0,0,1-1.4.52c-2,0-3.879-2.68-3.4-3.239C1049.819,437.589,1051.02,437.949,1051.22,437.949Z" fill="#333"/>
    </g>
  </g>
</svg>
