<svg id="faq_plan" xmlns="http://www.w3.org/2000/svg" width="409" height="46" viewBox="0 0 409 46">
  <rect id="長方形_55" data-name="長方形 55" width="409" height="46" fill="red" opacity="0"/>
  <g id="グループ_513" data-name="グループ 513" transform="translate(-755.046 -1493.175)">
    <g id="グループ_512" data-name="グループ 512">
      <path id="パス_2230" data-name="パス 2230" d="M773.8,1513.253c-3.519,0-4.639.079-5.039.119-.16,0-.72.08-.84.08-.159,0-.239-.08-.36-.24l-.76-.919c-.16-.2-.2-.2-.2-.281,0-.04.081-.079.161-.079.279,0,1.519.119,1.759.119,1.959.08,3.6.16,5.479.16h10.838c1.72,0,2.12,0,2.56-.679.959-1.44,1.039-1.6,1.44-1.6.679,0,3.439,2,3.439,2.719,0,.6-.72.6-2.16.6H782.4c-1.119,0-1.119.4-1.119,3.719,0,3.119,0,3.439,1.119,3.439h2.76c1.72,0,2.08,0,2.52-.68.759-1.16.839-1.32,1.2-1.32.479,0,2.879,2.04,2.879,2.56,0,.24-.24.44-.6.48a11.814,11.814,0,0,1-1.479.04h-7.16c-1.239,0-1.239.24-1.239,2.639,0,1.36,0,5.879.119,6.08.16.319.481.319.96.359.321.04,2.4.161,4.44.161a49.424,49.424,0,0,0,10.678-1.241,7.767,7.767,0,0,1,1.24-.44c.04,0,.12,0,.12.161,0,.24-2.44,1.96-2.84,2.439a13.337,13.337,0,0,0-.64,1.6c-.28.52-1.88.56-2.439.56-16.037,0-17.957-2.28-20.557-5.319a9.359,9.359,0,0,1-1.719-2.88c-.081-.24-.161-.36-.28-.36-.16,0-.24.16-.6.72-3.72,5.959-7.2,6.839-7.479,6.839-.16,0-.24-.08-.24-.16,0-.04.6-.64.68-.72,4.679-5,6.678-11.2,6.838-14.077.121-1.8.121-1.96.4-1.96.24,0,3.439.92,3.439,1.48,0,.239-.8.88-.88,1.039-.28.6-.96,3.36-1.16,3.92,0,.04-.679,2.039-.679,2.119,0,2,5.159,5.519,7.319,5.519.519,0,.519-.559.519-.84,0-2.239.08-12.277.08-14.317,0-1,0-1.559-1.2-1.559Zm-6-7.24c-.52,0-.76.04-1,.72-.76,2.4-2,3.32-2.959,3.32-.64,0-1.321-.32-1.321-1.12,0-.56.161-.76,1.161-1.8a10.81,10.81,0,0,0,2-3.559c.16-.48.24-.68.4-.68.279,0,.6.64.84,1.4.159.6.4.68.919.68h9.518c.96,0,1.08-.56,1.08-1.24,0-.64-.08-2.4-.12-3.04-.04-.319-.28-1.8-.28-2.119,0-.2.12-.2.16-.2s2.72.6,4.08.92a.507.507,0,0,1,.279.4c0,.2-.919.92-1.04,1.161a10.714,10.714,0,0,0-.2,2.559c0,1.44.321,1.56,1.24,1.56H790.4c1.079,0,1.281-.08,1.8-.48.52-.44.96-.84,1.4-.84.28,0,3.679,2.039,3.679,3.12,0,.8-.92.8-1.16.8-.28,0-1.72-.12-2.079-.12a4.951,4.951,0,0,0-2.28.56,5.36,5.36,0,0,1-1.159.6.106.106,0,0,1-.121-.12c0-.32.96-1.8.96-2.2,0-.281-.24-.281-.8-.281Z" fill="#333"/>
      <path id="パス_2231" data-name="パス 2231" d="M811.917,1522.411c-1.239,0-3.04,0-4.439.12-.121,0-.72.08-.84.08-.16,0-.24-.08-.361-.24l-.8-.92c-.16-.2-.16-.2-.16-.28s.08-.08.16-.08c.56,0,3.28.24,3.919.24a.95.95,0,0,0,1.081-.88c.04-.32.12-12.478.12-13.637,0-.681-.2-1.161-1.12-1.161-.281,0-1.72.161-1.96.161-.121,0-.2-.081-.36-.24l-.76-.92c-.16-.2-.16-.2-.16-.28s.08-.08.119-.08c.441,0,2.6.16,3.08.16,1.2,0,1.2-.52,1.2-1.56,0-.76,0-1.6-.039-2.32,0-.239-.08-1.439-.08-1.479,0-.28.239-.321.4-.321.08,0,3.239.48,3.239,1.121,0,.2-.279.359-.8.759a8.233,8.233,0,0,0-.239,2.6c0,1.32.6,1.32,1.4,1.32h3c.88,0,1.52,0,1.52-1.2,0-.56-.12-3.479-.12-4.12a.318.318,0,0,1,.359-.359c.04,0,3.28.64,3.28,1.319,0,.161-.6.641-.68.8a8.654,8.654,0,0,0-.279,2.76c0,.36,0,.68.319.68.36,0,.681-.4.84-.56.64-.88.72-.96,1.04-.96a5.52,5.52,0,0,1,2.439,2.239c0,.44-.759.44-1.839.44h-1.44c-1.439,0-1.479.281-1.479,2v13.038c0,.2,0,.6.319.6a1.083,1.083,0,0,0,.76-.56c.68-1.2.759-1.32,1.24-1.32.6,0,2.319,2.2,2.319,2.52,0,.52-.519.52-1.479.52Zm3.319,3.919c0,.4-.279.52-1.119.92-.881.4-6.84,7.079-8.558,7.079-.161,0-.241-.08-.241-.16,0-.04,2.44-2.8,2.84-3.4a29.225,29.225,0,0,0,3.4-5.759c.16-.48.28-.88.48-.88a5.849,5.849,0,0,1,1.64.84C815.076,1525.89,815.236,1526.01,815.236,1526.33Zm2.16-16.237c1.68,0,1.68-.32,1.68-2.96,0-1.44-.4-1.52-1.68-1.52h-2.6c-1.68,0-1.68.321-1.68,2.96,0,1.44.4,1.52,1.68,1.52Zm0,5.719c.959,0,1.68,0,1.68-1.2v-2.48c0-1-.84-1-1.68-1h-2.6c-.96,0-1.68,0-1.68,1.2,0,.279,0,2.359.039,2.439,0,1.04.8,1.04,1.641,1.04Zm-2.759,1.04c-.96,0-1.481.04-1.481,1.359v1.8c0,1.32.441,1.36,1.481,1.36h2.92c.959,0,1.479-.04,1.479-1.36v-1.759c0-1.36-.44-1.4-1.479-1.4Zm9.438,13.157c0,.76-.44,1.64-1.32,1.64-.92,0-1.239-.88-1.88-2.639a8.812,8.812,0,0,0-2.2-3.52c-.16-.16-.68-.68-.68-.8a.147.147,0,0,1,.16-.16,17.119,17.119,0,0,1,2.76,1.36C821.915,1526.45,824.075,1527.65,824.075,1530.009Zm11.758-29.4a2.254,2.254,0,0,0,1-.12c.2-.119,1.04-.959,1.319-.959.321,0,2.84,1.079,2.84,1.839a.816.816,0,0,1-.32.6c-.56.48-.6.56-.72.76a59.5,59.5,0,0,0-.239,6.8c0,2.439.119,13.918.2,18.557,0,.32.12,1.919.12,2.279a3.465,3.465,0,0,1-3.359,3.8c-.521,0-.64-.08-1-.64a6.889,6.889,0,0,0-3.119-2.48c-.04,0-.76-.359-.521-.44.2-.08,2.561,0,3.04,0,1.56,0,1.88-.2,2.04-.919.119-.6.119-7.279.119-8.479,0-1.52-.24-1.68-1.559-1.68h-4.56c-1.6,0-1.559.16-1.638,1.84-.241,6.4-4.52,13.078-5.4,13.078a.181.181,0,0,1-.2-.16,9.54,9.54,0,0,1,.4-.96c2.879-6.479,2.879-13.4,2.879-19.2,0-7.479-.24-10.238-.6-12.558-.04-.32-.321-1.88-.321-1.96,0-.159.12-.239.281-.239a32.027,32.027,0,0,1,3.119,1.159,6.059,6.059,0,0,0,1.2.08Zm-.04,8.879c1.04,0,1.479-.08,1.479-1.32v-5.119c0-1.36-.519-1.36-1.559-1.36h-4.559c-1.12,0-1.56.08-1.56,1.44,0,.72.08,4.239.08,5.039,0,1.32.519,1.32,1.639,1.32Zm-.12,9c.92,0,1.559,0,1.559-1.2.04-1.44.04-3.92.04-5.4,0-1.32-.6-1.36-1.519-1.36h-4.44c-1.04,0-1.639,0-1.639,1.32,0,.759-.04,4.559-.04,5.4,0,1.2.52,1.239,1.479,1.239Z" fill="#333"/>
      <path id="パス_2232" data-name="パス 2232" d="M856.977,1510.853c-.24.759-.28,9.558-.28,11.118,0,1.76.08,9.478.08,11.038,0,1.2-.84,1.68-1.92,1.68-.879,0-1.04-.52-1.04-1.16,0-.4.2-2.32.2-2.68.16-2.759.24-6.719.24-9.4,0-2.12-.04-6.679-.08-8.959,0-.239,0-.8-.241-.8-.12,0-.439.44-.6.641-.8,1.119-3.24,3.679-3.6,3.679-.16,0-.24-.08-.24-.28,0-.12,1.64-2.64,1.92-3.16a47.469,47.469,0,0,0,5.6-13.557c.08-.76.08-.84.36-.84.16,0,3.84,1.4,3.84,2.28,0,.439-.441.639-.84.8a1.378,1.378,0,0,0-.92.84,58.944,58.944,0,0,1-3.08,5.519,2.185,2.185,0,0,0-.359.76c0,.28.2.36.479.48a2.484,2.484,0,0,1,1.239.8C857.736,1509.893,857.057,1510.653,856.977,1510.853Zm18.357,8.958c-1.08,0-1.16.56-1.2,1.24a19.027,19.027,0,0,1-.72,5.119,16.186,16.186,0,0,0-.68,1.96c0,.44.161.519,1.8,1.12a31.023,31.023,0,0,0,10.478,1.839c.2,0,1.2-.08,1.44-.08.08,0,.239,0,.239.12,0,.2-.519.44-.8.56a4.246,4.246,0,0,0-1.8,1.6c-.44.88-.56,1.12-1.2,1.12-2.76,0-8.439-2.44-10.239-3.52-1-.6-1.12-.679-1.359-.679a4.767,4.767,0,0,0-1.481.96,17.065,17.065,0,0,1-9.637,3.6c-.16,0-.6,0-.6-.28,0-.2.16-.24,1-.4,3.24-.64,8.839-4.319,8.839-5.559,0-.28-.08-.36-.8-1.2a21.042,21.042,0,0,1-3.2-5.719.335.335,0,0,1,.359-.36c.2,0,.4.32.8,1,1,1.6,3.079,4.6,3.8,4.6.76,0,1.239-4.2,1.239-5.679,0-.72-.04-1.36-1.079-1.36h-4.24c-.64,0-.879.12-1.039.36a2.244,2.244,0,0,1-1.96,1.28c-.92,0-.92-.96-.92-1.48,0-.72.12-4.319.12-5.119,0-2.039-.04-4.12-.24-6.879,0-.28-.16-1.639-.16-1.96,0-.4.16-.4.28-.4a8.179,8.179,0,0,1,2.159.761,3.954,3.954,0,0,0,2.24.6h3.719c1.2,0,1.2-.44,1.2-2.519,0-1.6,0-2.24-1.12-2.24h-2.119c-1.12,0-3.119,0-4.719.08-.121,0-1.08.12-1.16.12-.12,0-.2-.08-.36-.24l-.76-.92c-.16-.16-.16-.2-.16-.28s.08-.08.12-.08c.28,0,1.48.12,1.76.12,1.16.08,3.239.16,5.479.16h9.638c2.04,0,2.16,0,2.84-1.08.88-1.479,1-1.6,1.359-1.6.721,0,3.28,2.479,3.28,3.159,0,.56-.76.56-2.16.56h-8.158c-1.24,0-1.24.48-1.24,2.16,0,2.04,0,2.6,1.2,2.6h3.639a1.624,1.624,0,0,0,1.2-.4c.68-.759.72-.8.92-.8.32,0,3,1.559,3,2.079,0,.28-.239.44-.64.64a.807.807,0,0,0-.559.92c0,1.319.04,2.92.08,4.239.04.88.24,5.12.24,6.079,0,1.52-1.68,1.84-2.08,1.84-.44,0-.72-.2-.84-.96-.12-.8-.88-.8-1.2-.8Zm-4.8-6.959c1.159,0,1.159-.28,1.159-2.959,0-1.32,0-1.88-1.159-1.88h-4.279c-1.2,0-1.2.28-1.2,2.96,0,1.32,0,1.879,1.2,1.879Zm.039,5.92c1.12,0,1.12-.561,1.12-1.84,0-2.72,0-3.04-1.12-3.04h-4.359c-1.079,0-1.079.52-1.079,1.72,0,2.839,0,3.16,1.159,3.16Zm4.88-10.759c-1.24,0-1.24.52-1.24,1.8,0,2.239,0,2.52.28,2.759a1.157,1.157,0,0,0,.96.28h3.72c1.239,0,1.239-.519,1.239-1.8,0-2.08,0-2.52-.28-2.76a1.157,1.157,0,0,0-.959-.28Zm.04,5.879c-1.28,0-1.28.64-1.28,1.68,0,2.879,0,3.2,1.28,3.2h3.68c1.279,0,1.279-.641,1.279-1.681,0-2.879,0-3.2-1.279-3.2Z" fill="#333"/>
      <path id="パス_2233" data-name="パス 2233" d="M896.649,1507.093a9.424,9.424,0,0,0,3.32.84c1.639,0,13.357-1.119,15.077-1.88,1.24-.559,1.4-.639,1.68-.639.879,0,1.52.56,2.759,1.639,1.8,1.6,2.04,2.04,2.04,2.6,0,.52-.2.72-.92,1.44a6.618,6.618,0,0,0-1.56,2.519c-6.278,13.038-20.236,18.637-20.636,18.637a.266.266,0,0,1-.28-.24c0-.16.12-.24.519-.52,6.959-4.879,12.6-10.158,15.8-15.837a22.6,22.6,0,0,0,2.72-6.759c0-.68-.68-.72-.88-.72-.4,0-11.958,1.92-14.4,2.88a14.678,14.678,0,0,1-2,.88c-.92,0-4.119-2-4.119-4.2,0-.76.12-.88.359-.88C896.209,1506.853,896.569,1507.093,896.649,1507.093Zm32.2-2.679a3.86,3.86,0,1,1-7.719,0,3.8,3.8,0,0,1,3.92-3.8A3.722,3.722,0,0,1,928.844,1504.414Zm-6.4.12a2.542,2.542,0,0,0,5.078-.04,2.674,2.674,0,0,0-2.558-2.52A2.573,2.573,0,0,0,922.445,1504.534Z" fill="#333"/>
      <path id="パス_2234" data-name="パス 2234" d="M942.68,1530.529c12.478-6.718,15.757-15.357,15.757-16.2,0-.48-.279-.76-.839-.76-1.36,0-11.4,1.76-13.159,2.28a17.012,17.012,0,0,1-1.838.68c-1.72,0-4.56-3.44-4.56-4.56a.224.224,0,0,1,.24-.2,5.714,5.714,0,0,1,.72.319,11.219,11.219,0,0,0,3.959.681c3.28,0,11.238-1.041,12.718-1.2.08,0,2.719-.239,2.759-.239a6.883,6.883,0,0,1,1.161-.44c.679,0,3.519,2.36,3.519,3.279,0,.6-.16.76-1.08,1.52a11.213,11.213,0,0,0-2.16,2.839c-3.159,4.8-5.639,7.8-11.277,10.679a28.276,28.276,0,0,1-7.08,2.6.319.319,0,0,1-.36-.32.429.429,0,0,1,.08-.24C941.32,1531.17,942.44,1530.649,942.68,1530.529Zm1-26.155a9.83,9.83,0,0,0,2.12.16,38.252,38.252,0,0,0,6.4-.44c.6-.12,3.36-.8,3.919-.8.68,0,2.44.36,2.44,1.52,0,1.239-1.4,1.359-3.72,1.56-.64.079-9.238.839-9.518.839-2.12,0-3.32-2.719-3.32-3,0-.2.08-.28.24-.28C942.48,1503.934,943.44,1504.334,943.68,1504.374Z" fill="#333"/>
      <path id="パス_2235" data-name="パス 2235" d="M985.907,1524.57a27.928,27.928,0,0,0-3.919,3.28c-.76.92-.84,1-1.44,1-2.159,0-5.119-2.56-5.119-4.16,0-.28.04-2.119.4-2.119a9.94,9.94,0,0,1,1.2.76,6.641,6.641,0,0,0,2.72.92c1.96,0,12.558-7.08,19.2-13.638.64-.64,1.76-1.76,1.84-1.76a.257.257,0,0,1,.2.2C1000.984,1509.413,996.306,1516.892,985.907,1524.57Zm-3.279-13.157c-1.08,0-1.48-.64-2.8-2.64a8.986,8.986,0,0,0-3.64-3.279c-.159-.08-.359-.2-.359-.36s.319-.36.88-.36c4.279,0,7.639,2.279,7.639,4.639A1.767,1.767,0,0,1,982.628,1511.413Z" fill="#333"/>
      <path id="パス_2236" data-name="パス 2236" d="M1015.853,1522.69c.679,0,1.04-.639,1.919-3.119.24-.68.361-1,.56-1s.2.4.2.48c0,.44-.92,5.119-.92,6.079a7.132,7.132,0,0,0,.64,2.08,4.314,4.314,0,0,1,.48,1.76,1.339,1.339,0,0,1-1.32,1.359c-2.479,0-4.319-6.8-4.319-10.638,0-2.56.32-3.719,1.679-8.718a13.562,13.562,0,0,0,.681-4.159,9.8,9.8,0,0,0-.4-2.84,5.075,5.075,0,0,1-.241-.72c0-.12.161-.2.321-.2,1.84,0,3.519,3.639,3.519,5.079,0,.44,0,.48-.759,1.84-.441.84-3.081,6.718-3.081,10.318C1014.812,1521.491,1015.213,1522.69,1015.853,1522.69Zm23.236,4c0,1.56-1.2,2.04-6.8,2.04-3.919,0-5.4-1-6.239-1.8-.2-.2-1.24-1.24-1.24-2,0-.08,0-.4.2-.4a5.964,5.964,0,0,1,.96.56,9.842,9.842,0,0,0,4.279.68,33.32,33.32,0,0,0,3.479-.12c.56-.04,3.36-.32,3.52-.32C1038.769,1525.33,1039.089,1526.21,1039.089,1526.69Zm-1.88-19.477c0,1.96-4.439,1.96-4.919,1.96-4.52,0-7-2.44-7-2.96,0-.08.04-.2.28-.2.12,0,.6.16,1.119.281a13.73,13.73,0,0,0,2.72.239,16.206,16.206,0,0,0,4.4-.6c1.2-.44,1.319-.48,1.719-.44A1.994,1.994,0,0,1,1037.209,1507.213Z" fill="#333"/>
      <path id="パス_2237" data-name="パス 2237" d="M1048.313,1512.132a.56.56,0,0,1,.6-.639c.4,0,2.079.479,2.439.479,1,0,1.52-.24,6.439-2.239,1.92-.76,7.4-3,11.2-3a9.973,9.973,0,0,1,10.2,9.879c.04,7.279-7.438,11.6-16.037,11.6-.36,0-.96,0-.96-.52,0-.32.161-.32,1.64-.52,9.878-1.4,12.278-8.438,12.278-12a6.489,6.489,0,0,0-6.479-6.679c-3.8,0-9.519,3.04-13,5.439-2,1.4-2.6,1.64-3.68,1.64C1050.553,1515.572,1048.313,1513.292,1048.313,1512.132Z" fill="#333"/>
      <path id="パス_2238" data-name="パス 2238" d="M1096.148,1509.813a5.493,5.493,0,0,1-.479,1.6,14.12,14.12,0,0,0-.96,5.159c0,4.039,2.08,6.958,3.319,6.958.68,0,.84-.2,2.04-2.2.24-.4.92-1.36,1.24-1.36.12,0,.2.16.2.32a4.793,4.793,0,0,1-.12.8,11.184,11.184,0,0,0-.52,3.039,5.435,5.435,0,0,0,.239,1.6,9.91,9.91,0,0,1,.321,1.32c0,.8-.84,1.24-1.52,1.24-2.559,0-7.6-4.2-7.6-11.838,0-1.12.559-6.039.559-7.079a11.189,11.189,0,0,0-.279-2.32,5.4,5.4,0,0,1-.32-1.36c0-.119.16-.159.24-.159C1094.349,1505.534,1096.148,1508.733,1096.148,1509.813Zm19.517.919a9.957,9.957,0,0,1,3.56,7.64c0,.759-.08,2.639-2,2.639-1.959,0-1.959-2.16-1.959-2.679,0-3.32,0-5-2.121-7.12-.319-.319-1.918-1.559-1.918-1.8,0-.12.159-.2.359-.2A7.788,7.788,0,0,1,1115.665,1510.732Z" fill="#333"/>
      <path id="パス_2239" data-name="パス 2239" d="M1131.149,1508.293c1.72,0,2.32-.16,7.8-1.72,3.56-1,12.679-3.6,15.358-3.6,1.4,0,3.2.56,3.2,1.92a1.589,1.589,0,0,1-1.6,1.48c-.52,0-2.8-.44-3.28-.44-5.078,0-10.758,4.679-10.758,15,0,6.719,2.52,7.159,4.879,7.159.6,0,3.48-.24,3.8-.24,1.239,0,2,.52,2,1.48,0,2.119-4.4,2.119-4.639,2.119-8.2,0-8.2-6.679-8.2-8.558,0-1.76.04-10.239,5.839-15.4a7.159,7.159,0,0,0,.96-.84c0-.08-.16-.08-.24-.08-2.281,0-10.6,3.56-11.878,4.28a2.907,2.907,0,0,1-1.4.52c-2,0-3.879-2.68-3.4-3.24C1129.749,1507.933,1130.949,1508.293,1131.149,1508.293Z" fill="#333"/>
    </g>
  </g>
</svg>
