<svg id="faq_delivery" xmlns="http://www.w3.org/2000/svg" width="255" height="46" viewBox="0 0 255 46">
  <rect id="長方形_56" data-name="長方形 56" width="255" height="46" fill="red" opacity="0"/>
  <g id="グループ_515" data-name="グループ 515" transform="translate(-834.738 -2057.026)">
    <g id="グループ_514" data-name="グループ 514">
      <path id="パス_2240" data-name="パス 2240" d="M858.016,2072.464a1.586,1.586,0,0,0,.879-.2c.161-.12.84-.88,1.041-.88.16,0,2.439,1.48,2.439,1.96,0,.16-.72.76-.8.92a17.945,17.945,0,0,0-.28,4.039c0,1.8.2,10.718.24,12.718.04.84.32,4.919.32,5.8a1.67,1.67,0,0,1-1.839,1.72c-.92,0-.92-.2-.92-2.12,0-1.28-.64-1.28-1.28-1.28h-9.439c-.959,0-1,.6-1.119,1.76a1.724,1.724,0,0,1-1.84,1.879c-.92,0-.92-.6-.92-1,0-.12.04-1.28.04-1.44.2-5.239.28-7.159.28-17.437a43.644,43.644,0,0,0-.16-5.919c-.04-.2-.24-1.08-.24-1.28a.324.324,0,0,1,.32-.36,4.269,4.269,0,0,1,1.36.56,3.114,3.114,0,0,0,1.8.56c1.4,0,1.92,0,1.92-1.32,0-5.039-.2-5.039-1.16-5.039-.72,0-1.88.04-2.6.08-.16,0-1.04.12-1.08.12-.16,0-.2-.08-.36-.24l-.72-.92c-.12-.2-.16-.2-.16-.28s.08-.08.16-.08c.241,0,1.36.12,1.6.12,1.08.04,3,.16,5.119.16h5.159c1.68,0,1.84,0,2.36-.68.88-1.159.96-1.279,1.4-1.279.4,0,2.92,1.759,2.92,2.479,0,.52-.76.52-1.96.52h-3.239c-1.2,0-1.2.4-1.2,2.44,0,3.8,0,3.919,1,3.919Zm-10.718,1.56c-.16.32-.16,7.438-.16,8.678,0,.84,0,.96.2.96a6.6,6.6,0,0,0,1.68-2.72,21.552,21.552,0,0,0,.759-6.238c0-.6-.04-1.16-1-1.16C847.9,2073.544,847.537,2073.544,847.3,2074.024Zm10.678,14.157c1.24,0,1.24-.639,1.24-1.8,0-.4-.04-3.119-.04-3.2a.391.391,0,0,0-.4-.36,2.934,2.934,0,0,0-.559.16,7.647,7.647,0,0,1-1.64.16c-2.639,0-2.639-.68-2.639-3.839v-5.32c-.121-.439-.48-.439-1.2-.439-.759,0-.759.2-.84,2.08-.119,3.039-.719,5.6-4.159,8.638-.4.32-.559.48-.559,1.88,0,1.559,0,2.039,1.2,2.039Zm0,5.919c1.24,0,1.24-.24,1.24-3.719,0-1.04-.64-1.16-1.2-1.16h-9.6c-1.2,0-1.2.68-1.2,1.76,0,2.8,0,3.119,1.239,3.119Zm-4.2-21.836a13.355,13.355,0,0,0,.2-3c0-2.6,0-2.92-.44-3.08-.2-.08-.2-.08-.681-.08a.775.775,0,0,0-.8.44c-.08.2-.12,4.359-.12,4.879s0,1.04.839,1.04C853.377,2072.464,853.576,2072.464,853.776,2072.264Zm3.32,1.28c-.6,0-1.039.16-1.039,1.04v5.2c0,.44.039,1.039.759,1.039s.879-.759.879-1.279c.041-.4.121-.68.241-.68s.28.72.32,1.08c.08.24.2.68.559.68.281,0,.281-.32.281-.52,0-.8-.08-4.68-.08-5.6,0-.679-.281-.959-1.04-.959Zm10.8,4.479c-1.161,0-1.161.76-1.161,1.44v12.318c0,3.039.241,3.359,5.2,3.359.639,0,2.679,0,3.638-.72.6-.439.681-.76,1.76-3.6.121-.32.2-.52.32-.52.281,0,.441,2.559.6,3,.08.281,1,1.48,1,1.8,0,.52-.68,1.32-2.159,1.88a18.271,18.271,0,0,1-5,.56c-7.44,0-8.119-.48-8.119-6.279,0-1.04.12-6.2.12-7.4,0-1.12-.12-5.4-.16-6.319,0-.24-.24-1.36-.24-1.6s.2-.279.36-.279a6.771,6.771,0,0,1,1.639.8,3.8,3.8,0,0,0,2.281.52h5.558c.92,0,1.12-.32,1.2-.959v-7.959c0-1.12-.039-1.84-1.2-1.84h-2.8c-.96,0-3.678,0-5.079.12-.12,0-.679.08-.84.08-.12,0-.2-.08-.359-.24l-.76-.92c-.16-.2-.16-.2-.16-.28s.08-.08.119-.08c.281,0,1.481.12,1.76.12,1.16.08,3.24.16,5.52.16h2.759a1.172,1.172,0,0,0,1.16-.52c.36-.559.6-.88.919-.88.4,0,2.84,1.6,2.84,2.12,0,.2-.759.76-.92.92-.239.24-.239.68-.239,1.84,0,1.319.119,7.878.119,9.358,0,.6,0,2.12-2.119,2.12-.84,0-.84-.76-.84-1.32,0-.8-.32-.8-.92-.8Z" fill="#333"/>
      <path id="パス_2241" data-name="パス 2241" d="M888.534,2078.583c-.16-.2-.16-.2-.16-.28s.08-.08.12-.08c.68,0,3.92.24,4.64.24a1.541,1.541,0,0,0,1.359-.64,10,10,0,0,1,1.2-1.12c.2,0,2.56,1.4,2.56,2.12,0,.2-.16.32-.28.44a3.848,3.848,0,0,0-1,.84c-.04.24-.04,4.6-.04,5.279,0,5.039.04,5.479.96,6.679,1.759,2.239,5.239,2.879,11.2,2.879,6.479,0,9.878-.4,13.2-1.28.52-.119,2.839-1.039,3.079-1.039a.086.086,0,0,1,.08.08c0,.079-.08.28-.479.6a5.433,5.433,0,0,0-1.8,2.88c-.119.6-.159.8-.48,1-.879.52-7.918.56-9.558.56-9.278,0-14.438-.76-16.277-6.039-.4-1.16-.44-1.28-.72-1.28a.147.147,0,0,0-.12.04c-.2.12-5.079,5.719-5.2,6.519-.121.64-.24,1.28-.839,1.28-.8,0-2.121-2.88-2.121-3.08,0-.28.161-.36,1.56-.92a17.4,17.4,0,0,0,4.319-2.959c.68-.72.76-.84.76-6.719a32.327,32.327,0,0,0-.16-4.559c-.2-.44-.84-.44-1.2-.44-.56,0-3.36.16-3.48.16s-.2-.08-.36-.24Zm6.959-5.839c-.68,0-.96-.64-1.64-2.48a14.068,14.068,0,0,0-4-5.239c-.119-.08-.639-.48-.639-.64,0-.12.24-.12.28-.12a12.97,12.97,0,0,1,4.639,1.8c3.2,1.959,2.96,4.759,2.84,5.239A1.883,1.883,0,0,1,895.493,2072.744Zm10.6,8c-3.52,0-4.68.04-5.039.079-.16,0-.721.12-.84.12-.16,0-.24-.12-.36-.279l-.8-.92c-.12-.16-.16-.2-.16-.24,0-.08.04-.12.16-.12.279,0,1.479.12,1.759.16,1.959.08,3.6.12,5.479.12h.76c1.04,0,1.16,0,1.16-4.119,0-1.561,0-2.12-1.08-2.12-1.48,0-3,0-4.4.12-.121,0-.72.08-.839.08-.161,0-.241-.08-.361-.24l-.76-.92c-.16-.2-.2-.2-.2-.28,0-.04.08-.08.16-.08.28,0,1.52.12,1.76.12,1.959.12,3.6.16,5.479.16h5.84c1.638,0,1.759.04,2.558-.76.96-.96,1.32-1.32,1.76-1.32.52,0,2.72,2.28,2.72,2.6,0,.52-.8.52-2.16.52h-6.718c-.441,0-1,0-1.16.72-.041.16-.2,4.239-.2,4.4,0,.76.281,1.12,1.16,1.12h3.919c1.121,0,1.561,0,1.92-.24.44-.24,1.72-2.12,2.161-2.12.479,0,2.958,2.32,2.958,2.88s-.839.56-2.119.56h-9c-.44,0-.84,0-1.04.32a7.063,7.063,0,0,0-.4,1.8c0,.36.2.44.92.64,1.72.44,9.637,2.76,9.637,6.919,0,1.2-.719,1.88-1.359,1.88-.6,0-.68,0-2.72-2.88a16.389,16.389,0,0,0-5.758-5.119c-.481-.24-.6-.32-.76-.32-.24,0-.32.16-.92,1.36a13.082,13.082,0,0,1-9.119,7.159c-.28,0-.4-.161-.4-.24,0-.2,1.68-1.12,2-1.36,2.839-2.04,4.679-3.919,5.759-7.559a7.854,7.854,0,0,0,.36-1.8c0-.8-.52-.8-.84-.8Zm-.76-9.519c-.761,0-1.08-.88-1.76-2.72a14.2,14.2,0,0,0-2.92-4.838c-.12-.121-.439-.361-.439-.6,0-.12.119-.2.279-.2,1.24,0,6.6,3.119,6.6,6.478a1.693,1.693,0,0,1-.079.56A1.974,1.974,0,0,1,905.332,2071.224Zm14.518-6.479c0,.28-.122.32-1,.52a1.719,1.719,0,0,0-1.08.88c-1.56,2.16-5.32,5.879-5.919,5.879-.121,0-.361,0-.361-.24,0-.16,1.6-2.4,1.88-2.84a20.983,20.983,0,0,0,2.6-5.879c.08-.639.12-1.039.44-1.039a.905.905,0,0,1,.48.2C919.85,2064.265,919.85,2064.385,919.85,2064.745Z" fill="#333"/>
      <path id="パス_2242" data-name="パス 2242" d="M938.461,2086.821c.68,0,1.04-.639,1.92-3.119.24-.68.359-1,.559-1s.2.4.2.48c0,.44-.92,5.119-.92,6.079a7.14,7.14,0,0,0,.639,2.08,4.3,4.3,0,0,1,.481,1.76,1.34,1.34,0,0,1-1.321,1.359c-2.479,0-4.319-6.8-4.319-10.638,0-2.56.32-3.719,1.68-8.718a13.581,13.581,0,0,0,.68-4.16,9.8,9.8,0,0,0-.4-2.839,5.061,5.061,0,0,1-.24-.72c0-.12.16-.2.32-.2,1.84,0,3.52,3.639,3.52,5.079,0,.44,0,.48-.76,1.84-.44.839-3.08,6.718-3.08,10.318C937.421,2085.622,937.821,2086.821,938.461,2086.821Zm23.236,4c0,1.559-1.2,2.039-6.8,2.039-3.92,0-5.4-1-6.239-1.8-.2-.2-1.239-1.24-1.239-2,0-.08,0-.4.2-.4a5.937,5.937,0,0,1,.96.56,9.843,9.843,0,0,0,4.279.68,33.373,33.373,0,0,0,3.48-.12c.56-.04,3.359-.32,3.519-.32C961.377,2089.461,961.7,2090.341,961.7,2090.821Zm-1.88-19.477c0,1.96-4.439,1.96-4.919,1.96-4.519,0-7-2.44-7-2.96,0-.08.04-.2.281-.2.119,0,.6.16,1.119.28a13.671,13.671,0,0,0,2.72.24,16.206,16.206,0,0,0,4.4-.6c1.2-.44,1.32-.48,1.72-.44A1.993,1.993,0,0,1,959.817,2071.344Z" fill="#333"/>
      <path id="パス_2243" data-name="パス 2243" d="M970.922,2076.263a.559.559,0,0,1,.6-.639c.4,0,2.081.479,2.44.479,1,0,1.52-.24,6.439-2.239,1.92-.76,7.4-3,11.2-3a9.973,9.973,0,0,1,10.2,9.879c.04,7.279-7.439,11.6-16.037,11.6-.361,0-.96,0-.96-.519,0-.32.16-.32,1.639-.52,9.879-1.4,12.278-8.439,12.278-12a6.489,6.489,0,0,0-6.479-6.679c-3.8,0-9.518,3.04-13,5.439-2,1.4-2.6,1.64-3.678,1.64C973.162,2079.7,970.922,2077.423,970.922,2076.263Z" fill="#333"/>
      <path id="パス_2244" data-name="パス 2244" d="M1018.757,2073.944a5.481,5.481,0,0,1-.48,1.6,14.119,14.119,0,0,0-.96,5.159c0,4.039,2.079,6.958,3.32,6.958.679,0,.84-.2,2.039-2.2.24-.4.92-1.36,1.24-1.36.12,0,.2.16.2.32a4.792,4.792,0,0,1-.12.8,11.2,11.2,0,0,0-.519,3.039,5.4,5.4,0,0,0,.239,1.6,10.033,10.033,0,0,1,.32,1.32c0,.8-.84,1.239-1.52,1.239-2.559,0-7.6-4.2-7.6-11.837,0-1.12.56-6.039.56-7.079a11.1,11.1,0,0,0-.281-2.32,5.449,5.449,0,0,1-.32-1.36c0-.119.16-.159.24-.159C1016.957,2069.665,1018.757,2072.864,1018.757,2073.944Zm19.516.919a9.955,9.955,0,0,1,3.56,7.64c0,.759-.08,2.639-2,2.639-1.96,0-1.96-2.16-1.96-2.68,0-3.319,0-5-2.119-7.119-.32-.319-1.92-1.559-1.92-1.8,0-.12.16-.2.36-.2A7.786,7.786,0,0,1,1038.273,2074.863Z" fill="#333"/>
      <path id="パス_2245" data-name="パス 2245" d="M1053.758,2072.424c1.72,0,2.319-.16,7.8-1.72,3.558-1,12.677-3.6,15.357-3.6,1.4,0,3.2.56,3.2,1.919a1.587,1.587,0,0,1-1.6,1.48c-.521,0-2.8-.439-3.28-.439-5.08,0-10.758,4.679-10.758,15,0,6.719,2.519,7.159,4.879,7.159.6,0,3.479-.24,3.8-.24,1.241,0,2,.52,2,1.48,0,2.119-4.4,2.119-4.639,2.119-8.2,0-8.2-6.679-8.2-8.558,0-1.76.039-10.239,5.839-15.4a7.238,7.238,0,0,0,.96-.84c0-.08-.16-.08-.24-.08-2.279,0-10.6,3.56-11.878,4.279a2.892,2.892,0,0,1-1.4.52c-2,0-3.88-2.679-3.4-3.239C1052.357,2072.064,1053.558,2072.424,1053.758,2072.424Z" fill="#333"/>
    </g>
  </g>
</svg>
