<svg id="faq_ttl" xmlns="http://www.w3.org/2000/svg" width="150" height="93.256" viewBox="0 0 150 93.256">
  <g id="グループ_504" data-name="グループ 504" transform="translate(-885.648 -252.693)">
    <g id="グループ_503" data-name="グループ 503">
      <path id="パス_2204" data-name="パス 2204" d="M915.072,300.946a6.487,6.487,0,0,1-.211.756,9.355,9.355,0,0,0-.126.967c0,.182.015.224.169.224a2.229,2.229,0,0,0,.588-.112,6.229,6.229,0,0,1,.924-.351c.365,0,.883.393.883.617s-.336.546-1.485.546c-.028,0-.938,0-.966.014-.113.028-.141.112-.141.378s.169,3.768.211,3.923c.056.21.14.251.868.56.868.378,1.779.77,1.779,1.218a.533.533,0,0,1-.5.561,4.44,4.44,0,0,1-1.289-.672,1.982,1.982,0,0,0-.8-.351c-.14,0-.168.042-.351.435a2.33,2.33,0,0,1-2.171,1.246c-1.288,0-2.409-.84-2.409-1.639,0-.91,1.345-1.513,2.941-1.513.127,0,.631.042.729.042.211,0,.295-.028.295-.35,0-.35-.141-2.675-.141-3.025,0-.113-.014-2.97-.056-3.46a1.6,1.6,0,0,0-.378-.841.311.311,0,0,1-.084-.168c0-.056.1-.056.126-.056A1.661,1.661,0,0,1,915.072,300.946Zm-2.563,7.536c-.141,0-1.835.014-1.835.784,0,.267.475.686,1.484.686,1.528,0,1.779-1.036,1.737-1.162C913.839,308.608,913.125,308.482,912.509,308.482Z" fill="#333"/>
      <path id="パス_2205" data-name="パス 2205" d="M927.024,299.685c.337,0,1.724.714,1.724,1.233,0,.378-3.755,4.006-3.755,4.608a1.122,1.122,0,0,0,.421.771c1.246,1.359,3.151,3.418,3.151,4.384a.6.6,0,0,1-.6.658c-.434,0-.518-.266-.813-1.092a15.89,15.89,0,0,0-2.325-3.544c-.434-.532-.546-.743-.546-1.037,0-.378.182-.8,1.135-1.989,1.387-1.737,1.9-2.465,1.9-2.983a1.334,1.334,0,0,0-.349-.813c-.042-.07-.071-.126-.042-.168C926.94,299.685,926.982,299.685,927.024,299.685Z" fill="#333"/>
      <path id="パス_2206" data-name="パス 2206" d="M938.4,309.056a3.8,3.8,0,0,1-2.1,1.023c-.63,0-.686-.715-.686-.967,0-1.513,1.345-3.123,3.053-4.3.435-.308.575-.434.575-1.429,0-.224-.042-.294-.308-.294-.029,0-.533.028-.63.028a1.86,1.86,0,0,1-1.793-1.022c0-.084.055-.141.168-.141.084,0,.5.126.588.141a8.149,8.149,0,0,0,.953.055c.252,0,1.064,0,1.148-.21a5.413,5.413,0,0,0,.126-1.036c0-.141-.139-.855-.139-.883,0-.07.069-.084.125-.084.028,0,1.233.252,1.233.56,0,.015-.21.463-.225.491a1.872,1.872,0,0,0-.2.686c0,.112.015.14.183.14.294,0,1.583-.462,1.848-.462a.543.543,0,0,1,.589.462c0,.449-.505.574-1.7.868-.826.2-1.036.253-1.12.365a1.819,1.819,0,0,0-.155.686c0,.322.071.35.239.35a1.762,1.762,0,0,0,.406-.07,7.659,7.659,0,0,1,1.751-.266,3.013,3.013,0,0,1,3.18,3.208c0,3.039-2.788,3.824-4.091,4.174a4.568,4.568,0,0,1-.967.168c-.084,0-.14-.028-.14-.1s.113-.1.281-.154c2.815-.952,3.851-2.423,3.851-3.992a2.452,2.452,0,0,0-2.31-2.7c-.673,0-.7.084-.953.911a7.014,7.014,0,0,1-.966,1.9.73.73,0,0,0-.155.5c0,.113.042.617.042.715,0,.378-.14.7-.448.7-.238,0-.336-.168-.434-.322s-.112-.2-.155-.2A6.437,6.437,0,0,0,938.4,309.056Zm.631-1.667c.056-.14.084-1.611.084-1.765,0-.084,0-.322-.1-.322-.519,0-2.494,2.354-2.494,3.4,0,.2.071.336.294.308A4.865,4.865,0,0,0,939.029,307.389Zm1.582-2.8c-.728,0-.728.476-.728.966,0,.126,0,.672.168.672.211,0,.771-1.106.771-1.47a.3.3,0,0,0-.043-.14C940.752,304.588,940.654,304.588,940.611,304.588Z" fill="#333"/>
      <path id="パス_2207" data-name="パス 2207" d="M958.362,307.627a2.217,2.217,0,0,0-2.367-2.129c-1.849,0-3.04,1.919-3.292,2.353-.28.477-.42.743-.8.743a.385.385,0,0,1-.4-.393c0-.35.112-.658,1.106-1.82a46.043,46.043,0,0,0,3.166-4.217c.462-.658.659-.952.659-1.106,0-.1-.1-.2-.267-.2-.518,0-1.345.7-1.583.9-.56.463-.756.505-.994.505-.658,0-1.093-.9-1.093-.967,0-.042.042-.042.336-.042a6.789,6.789,0,0,0,2.171-.5c.869-.379.967-.421,1.275-.421.561,0,1.471.351,1.471.967,0,.406-.322.63-.994,1.092a8.548,8.548,0,0,0-2.242,2.872c0,.042.043.1.084.1.085-.028.266-.1.35-.126a3.4,3.4,0,0,1,1.234-.224,3.023,3.023,0,0,1,3.151,2.914,3.314,3.314,0,0,1-3.5,3.025c-1.387,0-2.382-.742-2.382-1.443a1.349,1.349,0,0,1,1.387-1.134,2.072,2.072,0,0,1,1.6.9c.2.252.279.378.475.378A2.071,2.071,0,0,0,958.362,307.627Zm-3.6,1.261a.573.573,0,0,0-.589.49c0,.365.6.658,1.205.658a.231.231,0,0,0,.238-.252A.953.953,0,0,0,954.763,308.888Z" fill="#333"/>
      <path id="パス_2208" data-name="パス 2208" d="M969.906,309c.183,0,.742-.056,1.331-.126.21-.028,1.12-.168,1.3-.168.476,0,.91.35.91.658,0,.757-2.381.827-3.165.827-1.877,0-4.343-.407-4.343-2.493,0-.449.155-.645.2-.645s.055.028.154.35c.322,1.107,1.681,1.569,2.759,1.569C969.137,308.972,969.767,309,969.906,309Zm-2.157-7.662a11.31,11.31,0,0,0,2.256-.252,3.006,3.006,0,0,1,.7-.112,1.473,1.473,0,0,1,1.3.952c0,.211-.1.253-1.037.462a4.137,4.137,0,0,0-1.653.925c-.112.1-.126.112-.181.112a.045.045,0,0,1-.043-.042c0-.112.617-.854.617-1.022,0-.1-.043-.1-.477-.113-1.638-.027-2.647-.756-2.647-.952,0-.042.069-.056.1-.056s.084.014.448.07A5.312,5.312,0,0,0,967.749,301.338Zm5.939,1.765a1.152,1.152,0,0,1,.6.8c0,.266-.168.547-.393.547-.181,0-.279-.057-.755-.575a3.707,3.707,0,0,0-1.024-.77c-.069-.056-.224-.154-.224-.21s.113-.126.239-.126A2.518,2.518,0,0,1,973.688,303.1Zm2.074-.336c0,.154-.113.42-.365.42-.294,0-.461-.21-.728-.518a3.54,3.54,0,0,0-1.219-.785c-.153-.056-.181-.112-.181-.154,0-.1.28-.168.518-.168C975.033,301.562,975.762,302.206,975.762,302.767Z" fill="#333"/>
      <path id="パス_2209" data-name="パス 2209" d="M982.107,302.011c-.476,0-.491.084-.546.671a3.215,3.215,0,0,1-1.85,2.564.029.029,0,0,1-.027-.028,2.458,2.458,0,0,1,.181-.28,4.286,4.286,0,0,0,.953-2.984,16.333,16.333,0,0,0-.112-1.821,3.766,3.766,0,0,1-.1-.378c0-.042.015-.084.057-.084a6.009,6.009,0,0,1,.6.2,2.006,2.006,0,0,0,.7.126,9.7,9.7,0,0,0,2.4-.5,3.966,3.966,0,0,1,.6-.28,2.824,2.824,0,0,1,.812.77c0,.1-.056.1-.533.14-1.2.084-1.344.084-2.605.112-.911.029-1.008.029-1.008.547,0,.784,0,.868.462.868h1.5c.616,0,.686,0,.924-.238.084-.07.35-.336.421-.336.041,0,.812.518.812.742,0,.2-.28.2-.784.2h-.519c-.406,0-.462.153-.462.461,0,.168.041.953.041,1.121,0,.519,0,.84-.7.84-.181,0-.28-.042-.28-.308,0-.153.07-.882.07-1.036,0-.967,0-1.078-.49-1.078Zm3.1,8.222c0,.112-.069.14-.574.28-.35.1-2.129.729-2.549.855a10.7,10.7,0,0,1-2.2.476c-.042,0-.141,0-.141-.084,0-.057.029-.07.364-.183a15.878,15.878,0,0,0,3.754-1.765c.168-.21.183-.237.267-.237A2.757,2.757,0,0,1,985.2,310.233Zm-2-.827a.4.4,0,0,0-.392.169.831.831,0,0,1-.686.406c-.211,0-.252-.169-.252-.406,0-.281.027-1.709.027-2.032,0-1.317-.027-2-.042-2.479,0-.084-.028-.5-.028-.56,0-.113.015-.113.127-.113.279,0,.378.057.77.323a.98.98,0,0,0,.574.168h5.59c.195,0,.223-.014.307-.1s.2-.2.309-.2a1.129,1.129,0,0,1,.406.21c.532.378.588.42.588.546a.169.169,0,0,1-.069.126c-.252.154-.295.168-.323.364-.014.1-.014,2.046-.014,2.312,0,.14.056.84.056.994a.741.741,0,0,1-.7.7.306.306,0,0,1-.322-.2c-.057-.168-.07-.238-.449-.238Zm5.575-1.765c.42,0,.42-.182.42-.63,0-.35-.294-.35-.42-.35h-5.588c-.252,0-.42.056-.42.392,0,.406,0,.588.42.588Zm-5.533.365c-.237,0-.475,0-.475.364,0,.6.055.672.49.672h5.434c.42,0,.491-.084.491-.518s-.084-.518-.491-.518Zm-.028-2.746c-.42,0-.434.182-.434.546,0,.294,0,.491.434.491h5.561c.42,0,.42-.182.42-.6,0-.266-.042-.434-.42-.434Zm4.679-3.249c-.406,0-.491.168-.546.532a3.185,3.185,0,0,1-2,2.2c-.015,0-.071,0-.071-.028s.421-.462.491-.547a3.807,3.807,0,0,0,.868-2.927,3.491,3.491,0,0,0-.111-.911c-.015-.084-.127-.476-.127-.532s.056-.042.084-.042c.07,0,1.023.252,1.218.252a13.93,13.93,0,0,0,2.158-.476c.112-.042.616-.364.644-.364.141,0,.883.7.883.9,0,.126-.056.126-.561.126s-2.927.071-3.011.071c-.365.027-.392.237-.392.532,0,.658,0,.854.476.854h2.086c.645,0,.715,0,.925-.238.267-.294.365-.406.505-.406a3.135,3.135,0,0,1,1.008.812c0,.2-.294.2-.784.2h-1.317c-.35,0-.532.042-.532.476,0,.224.07,1.274.07,1.428,0,.463-.574.56-.728.56-.238,0-.225-.266-.225-.462v-1.4c0-.336,0-.6-.517-.6Zm.028,7.788c.1,0,.98.195,1.359.294,1.582.434,2.086.77,2.086,1.457a.338.338,0,0,1-.363.364c-.168,0-.322-.07-.673-.364a15.938,15.938,0,0,0-2.283-1.556c-.056-.027-.21-.126-.21-.168C987.836,309.8,987.878,309.8,987.92,309.8Z" fill="#333"/>
      <path id="パス_2210" data-name="パス 2210" d="M1000.248,300.063a.387.387,0,0,0,.35-.14c.238-.21.322-.294.434-.294.224,0,.925.616.925.868,0,.057-.281.225-.322.266-.1.1-.1.141-.1.645,0,.35.056,2.1.056,2.3s0,.911-.658.911c-.308,0-.35-.225-.392-.42s-.253-.2-.435-.2h-1.7c-.447,0-.447.1-.447.967,0,.742.013,3.95.041,4.973,0,.14.043.84.043.994a.8.8,0,0,1-.757.911c-.238,0-.364-.141-.364-.476,0-.071.013-.211.013-.253.141-4.776.155-5.309.155-9.651,0-.266-.112-1.555-.112-1.681,0-.056,0-.14.056-.14a1.917,1.917,0,0,1,.784.322.667.667,0,0,0,.406.1Zm-1.92.365c-.238,0-.363.013-.363.28v.784c0,.294.125.308.363.308h1.9c.183,0,.337-.014.365-.2v-.812c0-.322-.056-.364-.365-.364Zm.015,1.736c-.239,0-.378,0-.378.308v.953c.041.21.168.21.378.21h1.862c.238,0,.379,0,.379-.308v-.966c-.028-.2-.168-.2-.379-.2Zm5.085,4.035a.36.36,0,0,0,.349-.141c.2-.252.252-.336.393-.336s.854.5.854.785c0,.084-.084.154-.21.28a.39.39,0,0,0-.112.266c-.015.28.014,1.681.014,2,0,.35-.014.519-.126.659a1.054,1.054,0,0,1-.616.364c-.224,0-.281-.225-.281-.393,0-.336-.21-.336-.448-.336h-1.778c-.421,0-.421.07-.449.462a.81.81,0,0,1-.729.7c-.252,0-.322-.21-.322-.519,0-.1.014-.476.028-.6.028-.6.057-.98.057-1.541,0-.35.013-1.176-.029-1.554-.013-.084-.056-.392-.056-.434,0-.057.014-.113.07-.113.084,0,.127,0,.826.323a.865.865,0,0,0,.463.126Zm-.155,2.773c.21,0,.407,0,.462-.168a6.02,6.02,0,0,0,.042-.9c0-.168-.013-1.079-.042-1.163-.069-.168-.238-.168-.462-.168h-1.793c-.406,0-.49.042-.49.434v1.7c0,.238.2.266.49.266Zm3.278-8.909a.331.331,0,0,0,.336-.14c.28-.322.308-.364.406-.364s.925.462.925.714c0,.084-.084.168-.168.239a.579.579,0,0,0-.224.532v6.4c0,.364.027,2.172.027,2.578a1.693,1.693,0,0,1-.349,1.316,1.941,1.941,0,0,1-.883.448c-.07,0-.182-.055-.182-.126a.743.743,0,0,0-.2-.56c-.125-.126-.868-.49-.868-.56,0-.042.057-.07.154-.07.126,0,.687.028.827.028.575,0,.575-.112.575-1.149,0-.7.027-4.16.027-4.944,0-.407-.154-.407-.462-.407h-1.808c-.2,0-.363,0-.419.2a.643.643,0,0,1-.645.448c-.111,0-.336-.028-.35-.448,0-.113.014-2.326.014-2.76,0-.21-.07-1.261-.07-1.5,0-.07.028-.224.154-.224a1.851,1.851,0,0,1,.673.252.893.893,0,0,0,.392.1Zm0,1.737c.322,0,.406-.014.406-.406a3.743,3.743,0,0,0-.027-.84c-.043-.126-.155-.126-.379-.126h-1.933c-.337,0-.406.013-.406.406a3.42,3.42,0,0,0,.028.826c.041.14.154.14.378.14Zm.013,1.821c.282,0,.393,0,.393-.308v-.826c0-.323-.111-.323-.393-.323h-1.946c-.28,0-.392,0-.392.323v.826c0,.308.112.308.392.308Z" fill="#333"/>
    </g>
  </g>
  <g id="グループ_506" data-name="グループ 506" transform="translate(-885.648 -252.693)">
    <g id="グループ_505" data-name="グループ 505">
      <path id="パス_2211" data-name="パス 2211" d="M919.82,266.85c2.76,0,3.919-1,3.919-3.839,0-.68,0-1.2.64-1.2s.641.6.641.76v10.4c0,.279,0,.879-.641.879s-.64-.6-.64-1c0-2.079,0-4.719-3.919-4.719h-4.759a.992.992,0,0,0-.92.56c-.16.32-.16,6.519-.16,7.4,0,3.8,0,5.239,3.28,5.239,1.12,0,1.519,0,1.519.64s-.559.64-1.079.64H907.422c-.64,0-1.239,0-1.239-.64s.639-.64,1.04-.64c1.439,0,3.159,0,3.558-2.08.121-.64.121-.68.121-11.318,0-1.879,0-10.4-.121-11.118-.359-2-2.239-2.04-3.079-2.04-1.12,0-1.519,0-1.519-.639,0-.681.559-.681,1.239-.681h19.237c2.239,0,2.64.121,3.4,2.28.2.56,1.519,4.32,1.519,4.559a.711.711,0,0,1-.72.721c-.28,0-.28,0-1.239-1.44a9.745,9.745,0,0,0-8.279-4.8H916.9c-2.919,0-2.919,1.8-2.919,5.119,0,.52,0,5.72.04,6.08a.972.972,0,0,0,1.04.879Z" fill="#333"/>
      <path id="パス_2212" data-name="パス 2212" d="M961.007,282.608c-.44,0-.96-.12-.96-.64,0-.64.64-.64,1.6-.64a1.757,1.757,0,0,0,1.641-1.76,21.651,21.651,0,0,0-1.48-4.679c-.88-2.24-1-2.52-2.32-2.52h-8.678c-1.48,0-1.64.4-2.28,2.2a31.9,31.9,0,0,0-1.439,5.2c0,1.56,1.279,1.56,2.239,1.56.48,0,.92.08.92.64,0,.64-.6.64-.92.64H941.65c-.32,0-.839-.04-.839-.6,0-.68.439-.68,1.359-.68a3.362,3.362,0,0,0,3.04-1.6c.919-1.239,3.879-10.638,4.759-13.478.519-1.6,3.08-9.438,3.6-11.237.4-1.4.64-2.32,3.48-2.32a.912.912,0,0,1,.88.64,26.487,26.487,0,0,1,1.319,3.6c2.8,8.679,3.04,9.639,5.56,17.037,2.279,6.8,2.559,7.359,4.838,7.359.521,0,.92.24.92.68,0,.6-.639.6-.92.6Zm-1.88-11.558c.44,0,1-.2,1-.64,0-.84-3.8-11.958-4.52-14.118-.239-.68-.319-1.04-.6-1.04-.24,0-.28.12-.72,1.44-1.12,3.239-4.239,13.4-4.239,13.758,0,.6.6.6,1.12.6Z" fill="#333"/>
      <path id="パス_2213" data-name="パス 2213" d="M1009.385,268.09c0,6.279-2.639,10.8-5.679,12.918-1.04.72-1.159.8-1.159,1.2,0,.639,2,3.439,4.4,3.439a3.28,3.28,0,0,0,1.12-.2,3.99,3.99,0,0,1,1-.519.513.513,0,0,1,.48.479c0,.48-2.039,2.28-4.639,2.28-1.76,0-3.32-.6-4.559-3.36-.361-.759-.56-1.239-1.2-1.239-.039,0-.639.08-1.279.12-.639.079-1.279.16-1.519.16-7.679,0-13.078-6.279-13.078-15.318,0-8.918,5.239-15.357,13.078-15.357C1004.1,252.693,1009.385,259.092,1009.385,268.09Zm-22.317.08c0,6.359,2.16,9.958,2.561,9.958.2,0,.239-.079.319-.639a4.082,4.082,0,0,1,4.2-3.52c3.4,0,5.44,2.84,6.28,4.4.76,1.36.88,1.52,1.159,1.52.56,0,4-3.279,4-11.878,0-5.279-1.6-14-9.238-14C987.189,254.013,987.068,266.29,987.068,268.17Zm12,12.878c0-.64-1.359-5.8-4.919-5.8a2.906,2.906,0,0,0-2.919,3.16c0,2.719,3.16,3.639,5.12,3.639C997.827,282.048,999.066,281.888,999.066,281.048Z" fill="#333"/>
    </g>
  </g>
  <line id="線_83" data-name="線 83" x2="150" transform="translate(0 92.756)" fill="none" stroke="#333" stroke-miterlimit="10" stroke-width="1"/>
</svg>
