<svg id="faq_ttl_sp" xmlns="http://www.w3.org/2000/svg" width="745" height="130" viewBox="0 0 745 130">
  <rect id="長方形_27" data-name="長方形 27" width="745" height="130" fill="#ffc946" opacity="0"/>
  <g id="グループ_344" data-name="グループ 344" transform="translate(2547.707 -1644.155)">
    <line id="線_81" data-name="線 81" x2="231.185" transform="translate(-2284.663 1769.355)" fill="none" stroke="#333" stroke-miterlimit="10" stroke-width="1"/>
  </g>
  <g id="グループ_507" data-name="グループ 507" transform="translate(301.061 77.127)">
    <g id="グループ_507-2" data-name="グループ 507" transform="translate(0)">
      <path id="パス_2214" data-name="パス 2214" d="M917.74,301.5a9.941,9.941,0,0,1-.323,1.157,14.307,14.307,0,0,0-.193,1.48c0,.279.023.343.259.343a3.413,3.413,0,0,0,.9-.171,9.527,9.527,0,0,1,1.414-.537c.559,0,1.351.6,1.351.944,0,.321-.514.836-2.273.836-.043,0-1.436,0-1.478.021-.173.043-.216.171-.216.578s.259,5.767.323,6c.086.321.214.384,1.328.857,1.328.579,2.723,1.178,2.723,1.864a.816.816,0,0,1-.771.859,6.8,6.8,0,0,1-1.973-1.028,3.033,3.033,0,0,0-1.221-.537c-.214,0-.257.064-.537.666a3.566,3.566,0,0,1-3.323,1.907c-1.971,0-3.687-1.286-3.687-2.508,0-1.393,2.058-2.316,4.5-2.316.194,0,.966.064,1.116.064.323,0,.452-.043.452-.536,0-.536-.216-4.094-.216-4.63,0-.173-.021-4.546-.086-5.3a2.439,2.439,0,0,0-.578-1.287.476.476,0,0,1-.129-.257c0-.086.15-.086.193-.086A2.542,2.542,0,0,1,917.74,301.5Zm-3.923,11.534c-.216,0-2.808.021-2.808,1.2,0,.409.727,1.05,2.271,1.05,2.339,0,2.723-1.586,2.658-1.778C915.853,313.23,914.76,313.037,913.817,313.037Z" transform="translate(-910.043 -298.781)" fill="#333"/>
      <path id="パス_2215" data-name="パス 2215" d="M928.48,299.685c.516,0,2.639,1.093,2.639,1.887,0,.578-5.747,6.131-5.747,7.052a1.717,1.717,0,0,0,.644,1.18c1.907,2.08,4.823,5.231,4.823,6.71a.911.911,0,0,1-.921,1.007c-.664,0-.793-.407-1.244-1.671-.663-1.887-3-4.738-3.558-5.424-.664-.814-.836-1.137-.836-1.587,0-.578.279-1.221,1.737-3.044,2.123-2.658,2.914-3.773,2.914-4.565a2.042,2.042,0,0,0-.534-1.244c-.064-.107-.109-.193-.064-.257C928.352,299.685,928.416,299.685,928.48,299.685Z" transform="translate(-902.491 -298.892)" fill="#333"/>
      <path id="パス_2216" data-name="パス 2216" d="M939.876,313.893a5.822,5.822,0,0,1-3.216,1.566c-.964,0-1.05-1.094-1.05-1.48,0-2.316,2.058-4.78,4.672-6.581.666-.471.88-.664.88-2.187,0-.343-.064-.45-.471-.45-.044,0-.816.043-.964.043a2.847,2.847,0,0,1-2.744-1.564c0-.129.084-.216.257-.216.129,0,.771.193.9.216a12.472,12.472,0,0,0,1.458.084c.386,0,1.629,0,1.757-.321a8.284,8.284,0,0,0,.193-1.586c0-.216-.213-1.309-.213-1.351,0-.107.106-.129.191-.129.043,0,1.887.386,1.887.857,0,.023-.321.709-.344.751a2.863,2.863,0,0,0-.3,1.05c0,.171.023.214.28.214.45,0,2.423-.707,2.828-.707a.83.83,0,0,1,.9.707c0,.687-.773.879-2.594,1.328-1.264.3-1.586.387-1.714.559a2.784,2.784,0,0,0-.237,1.05c0,.493.109.536.366.536a2.7,2.7,0,0,0,.621-.107,11.722,11.722,0,0,1,2.68-.407,4.611,4.611,0,0,1,4.867,4.91c0,4.651-4.267,5.853-6.261,6.388a6.991,6.991,0,0,1-1.48.257c-.129,0-.214-.043-.214-.15,0-.086.173-.15.43-.236,4.308-1.457,5.894-3.708,5.894-6.11,0-2.7-1.8-4.138-3.535-4.138-1.03,0-1.073.129-1.459,1.394A10.733,10.733,0,0,1,942.665,311a1.117,1.117,0,0,0-.237.771c0,.173.064.944.064,1.094,0,.578-.214,1.071-.686,1.071-.364,0-.514-.257-.664-.493-.15-.257-.171-.3-.237-.3A9.863,9.863,0,0,0,939.876,313.893Zm.966-2.551c.086-.214.129-2.466.129-2.7,0-.129,0-.493-.15-.493-.794,0-3.817,3.6-3.817,5.21,0,.3.109.514.45.471A7.446,7.446,0,0,0,940.842,311.342Zm2.421-4.287c-1.114,0-1.114.728-1.114,1.478,0,.193,0,1.029.257,1.029.323,0,1.18-1.693,1.18-2.25a.465.465,0,0,0-.066-.214C943.479,307.055,943.329,307.055,943.263,307.055Z" transform="translate(-896.48 -298.759)" fill="#333"/>
      <path id="パス_2217" data-name="パス 2217" d="M962,311.5a3.393,3.393,0,0,0-3.623-3.258c-2.83,0-4.653,2.937-5.038,3.6-.429.73-.643,1.137-1.223,1.137a.589.589,0,0,1-.62-.6c0-.536.172-1.007,1.693-2.785a70.458,70.458,0,0,0,4.846-6.454c.707-1.007,1.009-1.457,1.009-1.693,0-.15-.151-.3-.409-.3-.793,0-2.059,1.071-2.423,1.371-.857.709-1.157.773-1.521.773-1.007,0-1.673-1.373-1.673-1.48,0-.064.064-.064.514-.064a10.389,10.389,0,0,0,3.323-.771c1.33-.58,1.48-.644,1.951-.644.859,0,2.251.537,2.251,1.48,0,.621-.493.964-1.521,1.671a13.082,13.082,0,0,0-3.431,4.4c0,.064.066.15.129.15.13-.043.407-.15.536-.193a5.2,5.2,0,0,1,1.889-.343,4.627,4.627,0,0,1,4.823,4.46c0,2.723-2.639,4.63-5.36,4.63-2.123,0-3.646-1.136-3.646-2.208a2.064,2.064,0,0,1,2.123-1.736,3.171,3.171,0,0,1,2.446,1.371c.3.386.427.579.727.579C960.5,314.585,962,313.278,962,311.5Zm-5.508,1.93a.876.876,0,0,0-.9.75c0,.559.921,1.007,1.844,1.007a.354.354,0,0,0,.364-.386A1.459,1.459,0,0,0,956.494,313.428Z" transform="translate(-888.052 -298.551)" fill="#333"/>
      <path id="パス_2218" data-name="パス 2218" d="M972.009,313.258c.28,0,1.136-.086,2.037-.193.321-.043,1.714-.257,1.994-.257.729,0,1.393.536,1.393,1.007,0,1.159-3.644,1.266-4.844,1.266-2.873,0-6.647-.623-6.647-3.815,0-.687.237-.987.3-.987.084,0,.084.043.236.536.493,1.694,2.573,2.4,4.223,2.4C970.832,313.215,971.8,313.258,972.009,313.258Zm-3.3-11.726a17.308,17.308,0,0,0,3.453-.386,4.6,4.6,0,0,1,1.071-.171,2.254,2.254,0,0,1,1.994,1.457c0,.323-.15.387-1.587.707a6.33,6.33,0,0,0-2.53,1.416c-.172.15-.193.171-.277.171a.069.069,0,0,1-.066-.064c0-.171.944-1.307.944-1.564,0-.15-.066-.15-.73-.173-2.507-.041-4.051-1.157-4.051-1.457,0-.064.106-.086.15-.086.064,0,.129.021.686.107A8.13,8.13,0,0,0,968.708,301.531Zm9.089,2.7a1.763,1.763,0,0,1,.923,1.221c0,.407-.257.837-.6.837-.277,0-.427-.087-1.156-.88a5.674,5.674,0,0,0-1.567-1.178c-.106-.086-.343-.236-.343-.321,0-.064.173-.193.366-.193A3.854,3.854,0,0,1,977.8,304.232Zm3.174-.514c0,.236-.173.643-.559.643-.45,0-.705-.321-1.114-.793a5.417,5.417,0,0,0-1.866-1.2c-.234-.086-.277-.171-.277-.236,0-.15.428-.257.793-.257C979.855,301.874,980.971,302.86,980.971,303.718Z" transform="translate(-880.39 -298.208)" fill="#333"/>
      <path id="パス_2219" data-name="パス 2219" d="M983.392,303.52c-.729,0-.751.129-.836,1.027-.257,2.317-2.294,3.924-2.831,3.924a.045.045,0,0,1-.041-.043,3.747,3.747,0,0,1,.277-.429,6.559,6.559,0,0,0,1.458-4.567,25.008,25.008,0,0,0-.171-2.787,5.772,5.772,0,0,1-.151-.578c0-.064.023-.129.087-.129a9.2,9.2,0,0,1,.923.3,3.07,3.07,0,0,0,1.071.193,14.844,14.844,0,0,0,3.665-.771,6.072,6.072,0,0,1,.923-.429,4.322,4.322,0,0,1,1.243,1.178c0,.15-.086.15-.816.214-1.843.129-2.057.129-3.987.171-1.394.044-1.543.044-1.543.837,0,1.2,0,1.328.707,1.328h2.294c.943,0,1.05,0,1.414-.364.129-.107.536-.514.644-.514.063,0,1.243.793,1.243,1.136,0,.3-.429.3-1.2.3h-.794c-.621,0-.707.234-.707.706,0,.257.063,1.459.063,1.716,0,.794,0,1.286-1.071,1.286-.277,0-.429-.064-.429-.471,0-.234.107-1.35.107-1.586,0-1.48,0-1.65-.75-1.65Zm4.737,12.584c0,.171-.106.214-.879.429-.536.15-3.258,1.116-3.9,1.309a16.383,16.383,0,0,1-3.365.728c-.064,0-.216,0-.216-.129,0-.087.044-.107.557-.28a24.3,24.3,0,0,0,5.745-2.7c.257-.321.28-.363.409-.363A4.219,4.219,0,0,1,988.129,316.1Zm-3.066-1.266a.612.612,0,0,0-.6.259,1.271,1.271,0,0,1-1.05.621c-.323,0-.386-.259-.386-.621,0-.43.041-2.616.041-3.11,0-2.016-.041-3.066-.064-3.794,0-.129-.043-.771-.043-.857,0-.173.023-.173.194-.173.427,0,.578.087,1.179.494a1.5,1.5,0,0,0,.878.257h8.555c.3,0,.341-.021.47-.15.109-.107.3-.3.473-.3a1.727,1.727,0,0,1,.621.321c.814.578.9.643.9.836a.259.259,0,0,1-.106.193c-.386.236-.451.257-.494.557-.021.15-.021,3.131-.021,3.538,0,.214.086,1.286.086,1.521a1.135,1.135,0,0,1-1.071,1.073.468.468,0,0,1-.493-.3c-.087-.257-.107-.364-.687-.364Zm8.532-2.7c.643,0,.643-.279.643-.964,0-.536-.45-.536-.643-.536h-8.552c-.386,0-.643.086-.643.6,0,.621,0,.9.643.9Zm-8.468.559c-.363,0-.727,0-.727.557,0,.921.084,1.028.75,1.028h8.317c.643,0,.751-.129.751-.793s-.129-.793-.751-.793Zm-.043-4.2c-.643,0-.664.279-.664.836,0,.45,0,.751.664.751H993.6c.643,0,.643-.279.643-.923,0-.407-.064-.664-.643-.664Zm7.161-4.973c-.621,0-.752.257-.836.814a4.874,4.874,0,0,1-3.066,3.366c-.023,0-.109,0-.109-.043,0-.021.644-.707.752-.837.986-1.2,1.328-2.1,1.328-4.48a5.344,5.344,0,0,0-.17-1.394c-.023-.129-.194-.729-.194-.814,0-.064.086-.064.129-.064.107,0,1.566.386,1.864.386a21.322,21.322,0,0,0,3.3-.728c.171-.064.943-.557.986-.557.216,0,1.351,1.071,1.351,1.371,0,.193-.086.193-.859.193s-4.479.109-4.608.109c-.559.041-.6.363-.6.814,0,1.007,0,1.307.729,1.307h3.193c.987,0,1.094,0,1.416-.364.409-.45.559-.621.773-.621a4.8,4.8,0,0,1,1.543,1.243c0,.3-.45.3-1.2.3h-2.016c-.536,0-.814.064-.814.729,0,.343.107,1.95.107,2.186,0,.709-.879.857-1.114.857-.364,0-.344-.407-.344-.707v-2.143c0-.514,0-.921-.791-.921Zm.043,11.919c.15,0,1.5.3,2.08.45,2.421.664,3.193,1.178,3.193,2.23a.517.517,0,0,1-.556.557c-.257,0-.493-.107-1.03-.557a24.4,24.4,0,0,0-3.494-2.381c-.086-.041-.321-.193-.321-.257C992.16,315.439,992.225,315.439,992.289,315.439Z" transform="translate(-873.101 -299.167)" fill="#333"/>
      <path id="パス_2220" data-name="パス 2220" d="M1002.009,300.33a.592.592,0,0,0,.536-.214c.364-.321.493-.45.664-.45.343,0,1.416.943,1.416,1.328,0,.087-.43.344-.493.407-.152.152-.152.216-.152.987,0,.536.086,3.216.086,3.516,0,.28,0,1.394-1.007,1.394-.471,0-.536-.344-.6-.643s-.387-.3-.666-.3H999.2c-.684,0-.684.15-.684,1.48,0,1.136.02,6.045.063,7.611,0,.214.066,1.286.066,1.521a1.229,1.229,0,0,1-1.159,1.394c-.364,0-.557-.216-.557-.728,0-.109.02-.323.02-.387.216-7.31.237-8.125.237-14.771,0-.407-.171-2.38-.171-2.573,0-.086,0-.214.086-.214a2.934,2.934,0,0,1,1.2.493,1.022,1.022,0,0,0,.621.15Zm-2.938.559c-.364,0-.556.02-.556.429v1.2c0,.45.191.471.556.471h2.915c.28,0,.516-.021.559-.3v-1.243c0-.493-.086-.557-.559-.557Zm.023,2.657c-.366,0-.578,0-.578.471v1.459c.063.321.257.321.578.321h2.85c.364,0,.58,0,.58-.471v-1.478c-.043-.3-.257-.3-.58-.3Zm7.782,6.175a.551.551,0,0,0,.534-.216c.3-.386.386-.514.6-.514.236,0,1.307.771,1.307,1.2,0,.129-.129.236-.321.429a.6.6,0,0,0-.171.407c-.023.429.021,2.573.021,3.066,0,.536-.021.794-.193,1.009a1.613,1.613,0,0,1-.943.557c-.343,0-.43-.344-.43-.6,0-.514-.321-.514-.686-.514h-2.721c-.644,0-.644.107-.687.707a1.24,1.24,0,0,1-1.116,1.073c-.386,0-.493-.321-.493-.794,0-.148.021-.728.043-.921.043-.921.087-1.5.087-2.358,0-.536.02-1.8-.044-2.378-.02-.129-.086-.6-.086-.664,0-.087.021-.173.107-.173.129,0,.194,0,1.264.494a1.324,1.324,0,0,0,.709.193Zm-.237,4.244c.321,0,.623,0,.707-.257a9.205,9.205,0,0,0,.064-1.371c0-.257-.02-1.651-.064-1.78-.105-.257-.364-.257-.707-.257h-2.744c-.621,0-.75.064-.75.664v2.594c0,.364.3.407.75.407Zm5.017-13.635a.506.506,0,0,0,.514-.214c.428-.493.471-.557.621-.557.171,0,1.416.707,1.416,1.093,0,.129-.129.257-.257.366a.887.887,0,0,0-.343.814v9.8c0,.557.041,3.324.041,3.946a2.591,2.591,0,0,1-.534,2.014,2.972,2.972,0,0,1-1.351.686c-.107,0-.279-.084-.279-.193a1.136,1.136,0,0,0-.3-.857c-.191-.193-1.328-.75-1.328-.857,0-.064.087-.107.236-.107.193,0,1.051.043,1.266.043.88,0,.88-.171.88-1.759,0-1.071.041-6.367.041-7.567,0-.623-.236-.623-.707-.623H1008.8c-.3,0-.556,0-.641.3a.984.984,0,0,1-.987.686c-.17,0-.514-.043-.536-.686,0-.173.021-3.56.021-4.224,0-.321-.107-1.93-.107-2.294,0-.107.043-.343.236-.343a2.833,2.833,0,0,1,1.03.386,1.366,1.366,0,0,0,.6.15Zm0,2.658c.493,0,.621-.021.621-.621a5.733,5.733,0,0,0-.041-1.286c-.066-.193-.237-.193-.58-.193H1008.7c-.516,0-.621.02-.621.621a5.238,5.238,0,0,0,.043,1.264c.063.214.236.214.578.214Zm.02,2.787c.432,0,.6,0,.6-.471V304.04c0-.494-.17-.494-.6-.494H1008.7c-.428,0-.6,0-.6.494V305.3c0,.471.171.471.6.471Z" transform="translate(-863.953 -298.959)" fill="#333"/>
    </g>
  </g>
  <g id="グループ_508" data-name="グループ 508" transform="translate(298 6)">
    <g id="グループ_509" data-name="グループ 509" transform="translate(0 0)">
      <path id="パス_2221" data-name="パス 2221" d="M927.054,273.957c4.224,0,6-1.53,6-5.875,0-1.041,0-1.837.98-1.837s.981.918.981,1.163v15.915c0,.427,0,1.345-.981,1.345s-.98-.918-.98-1.53c0-3.182,0-7.222-6-7.222H919.77a1.517,1.517,0,0,0-1.408.857c-.245.49-.245,9.977-.245,11.324,0,5.814,0,8.018,5.02,8.018,1.714,0,2.325,0,2.325.979s-.856.979-1.651.979H908.079c-.979,0-1.9,0-1.9-.979s.978-.979,1.592-.979c2.2,0,4.835,0,5.445-3.183.185-.979.185-1.041.185-17.322,0-2.876,0-15.914-.185-17.016-.549-3.061-3.427-3.122-4.712-3.122-1.714,0-2.325,0-2.325-.978,0-1.042.856-1.042,1.9-1.042h29.442c3.427,0,4.04.185,5.2,3.489.306.857,2.325,6.612,2.325,6.977a1.088,1.088,0,0,1-1.1,1.1c-.428,0-.428,0-1.9-2.2-2.938-4.469-7.224-7.346-12.671-7.346h-6.8c-4.468,0-4.468,2.755-4.468,7.835,0,.8,0,8.754.061,9.305a1.487,1.487,0,0,0,1.592,1.345Z" transform="translate(-906.183 -252.29)" fill="#333"/>
      <path id="パス_2222" data-name="パス 2222" d="M971.72,298.477c-.673,0-1.469-.184-1.469-.98,0-.979.98-.979,2.447-.979a2.688,2.688,0,0,0,2.511-2.694c0-1.347-1.592-5.569-2.265-7.161-1.347-3.428-1.531-3.857-3.551-3.857H956.113c-2.265,0-2.51.612-3.49,3.367-.551,1.653-2.2,6.549-2.2,7.957,0,2.388,1.958,2.388,3.427,2.388.735,0,1.408.122,1.408.979,0,.98-.92.98-1.408.98H942.1c-.49,0-1.284-.061-1.284-.918,0-1.041.672-1.041,2.08-1.041a5.145,5.145,0,0,0,4.653-2.449c1.406-1.9,5.937-16.281,7.283-20.628.794-2.447,4.714-14.445,5.508-17.2.614-2.143.98-3.551,5.326-3.551a1.4,1.4,0,0,1,1.347.98,40.54,40.54,0,0,1,2.019,5.508c4.285,13.283,4.653,14.752,8.509,26.075,3.488,10.406,3.917,11.263,7.4,11.263.8,0,1.408.367,1.408,1.041,0,.918-.978.918-1.408.918Zm-2.877-17.689c.673,0,1.531-.306,1.531-.979,0-1.286-5.814-18.3-6.918-21.607-.366-1.041-.488-1.592-.917-1.592-.367,0-.428.184-1.1,2.2-1.714,4.957-6.488,20.505-6.488,21.056,0,.918.917.918,1.714.918Z" transform="translate(-887.814 -252.693)" fill="#333"/>
      <path id="パス_2223" data-name="パス 2223" d="M1023.238,276.258c0,9.61-4.039,16.526-8.692,19.771-1.592,1.1-1.774,1.224-1.774,1.837,0,.978,3.059,5.263,6.731,5.263a5.019,5.019,0,0,0,1.714-.306,6.107,6.107,0,0,1,1.531-.794.785.785,0,0,1,.735.733c0,.735-3.121,3.49-7.1,3.49-2.694,0-5.081-.918-6.977-5.142-.552-1.162-.857-1.9-1.838-1.9-.06,0-.978.122-1.957.184-.978.121-1.958.245-2.325.245-11.752,0-20.015-9.61-20.015-23.444,0-13.649,8.018-23.5,20.015-23.5C1015.157,252.693,1023.238,262.487,1023.238,276.258Zm-34.156.122c0,9.732,3.306,15.24,3.92,15.24.3,0,.366-.121.488-.978a6.247,6.247,0,0,1,6.427-5.387c5.2,0,8.326,4.347,9.611,6.733,1.163,2.081,1.347,2.326,1.774,2.326.857,0,6.122-5.018,6.122-18.179,0-8.079-2.449-21.422-14.139-21.422C989.268,254.713,989.083,273.5,989.083,276.38Zm18.363,19.709c0-.98-2.08-8.875-7.528-8.875-3.182,0-4.467,2.571-4.467,4.836,0,4.161,4.836,5.569,7.836,5.569C1005.549,297.62,1007.445,297.375,1007.445,296.09Z" transform="translate(-865.291 -252.693)" fill="#333"/>
    </g>
  </g>
</svg>
