<svg id="footer_btn_line" xmlns="http://www.w3.org/2000/svg" width="31.947" height="31.947" viewBox="0 0 31.947 31.947">
  <rect id="長方形_3" data-name="長方形 3" width="31.947" height="31.947" fill="#25ff0d" opacity="0"/>
  <g id="グループ_19" data-name="グループ 19" transform="translate(-1364.903 -5225.487)">
    <g id="グループ_18" data-name="グループ 18">
      <g id="グループ_17" data-name="グループ 17">
        <g id="グループ_16" data-name="グループ 16">
          <path id="パス_77" data-name="パス 77" d="M1382.84,5238.722a.381.381,0,0,0-.424.084.461.461,0,0,0-.135.358v1.749c-.031-.039-.048-.058-.063-.078l-.966-1.317q-.231-.315-.461-.631a.409.409,0,0,0-.421-.187.377.377,0,0,0-.311.273.76.76,0,0,0-.028.219q0,1.417,0,2.834a.707.707,0,0,0,.028.21.411.411,0,0,0,.441.28.435.435,0,0,0,.353-.413c0-.355,0-.711,0-1.066,0-.24,0-.48,0-.749l1.491,2.03a.412.412,0,0,0,.762-.254q0-1.458,0-2.917a.534.534,0,0,0,0-.07A.406.406,0,0,0,1382.84,5238.722Z" fill="#595959" fill-rule="evenodd"/>
          <path id="パス_78" data-name="パス 78" d="M1377.908,5241.7c-.355,0-.71,0-1.078,0v-2.583a.412.412,0,0,0-.433-.422.4.4,0,0,0-.383.436q0,1.475,0,2.947,0,.036,0,.072a.4.4,0,0,0,.382.365c.516,0,1.03,0,1.545,0a.409.409,0,0,0,.373-.5A.389.389,0,0,0,1377.908,5241.7Z" fill="#595959" fill-rule="evenodd"/>
          <path id="パス_79" data-name="パス 79" d="M1379.214,5238.717a.416.416,0,0,0-.549.427q-.006,1.463,0,2.925a.544.544,0,0,0,.052.224.41.41,0,0,0,.44.218.435.435,0,0,0,.333-.419c0-.494,0-.989,0-1.483s0-.982,0-1.473A.428.428,0,0,0,1379.214,5238.717Z" fill="#595959" fill-rule="evenodd"/>
          <path id="パス_80" data-name="パス 80" d="M1384.536,5239.508c.331,0,.663,0,.995,0a.4.4,0,0,0,.391-.4.394.394,0,0,0-.391-.406q-.762,0-1.524,0a.386.386,0,0,0-.386.386q0,1.52,0,3.038a.4.4,0,0,0,.39.4c.507,0,1.016,0,1.523,0a.4.4,0,0,0,.387-.392.386.386,0,0,0-.371-.42c-.335-.006-.671,0-1.006,0h-.115v-.688h1.082a.4.4,0,0,0,.41-.388.388.388,0,0,0-.39-.425c-.328-.005-.657,0-.985,0h-.116v-.689Z" fill="#595959" fill-rule="evenodd"/>
        </g>
        <path id="パス_81" data-name="パス 81" d="M1380.854,5240.288v.749c0,.355,0,.711,0,1.066a.434.434,0,0,1-.353.413.413.413,0,0,1-.441-.281.7.7,0,0,1-.028-.209q0-1.417,0-2.834a.76.76,0,0,1,.028-.219.377.377,0,0,1,.312-.273.408.408,0,0,1,.42.187c.153.211.307.42.461.631l.966,1.317c.015.02.032.039.063.078v-.134c0-.538,0-1.077,0-1.615a.461.461,0,0,1,.135-.358.385.385,0,0,1,.424-.084.406.406,0,0,1,.265.355.534.534,0,0,1,0,.07q0,1.46,0,2.917a.412.412,0,0,1-.762.254Z" fill="#595959" fill-rule="evenodd"/>
        <path id="パス_82" data-name="パス 82" d="M1384.43,5239.508v.689h.116c.328,0,.657,0,.985,0a.388.388,0,0,1,.39.425.4.4,0,0,1-.41.388h-1.082v.688h.115c.335,0,.671,0,1.006,0a.386.386,0,0,1,.371.42.4.4,0,0,1-.387.392c-.507,0-1.016,0-1.523,0a.4.4,0,0,1-.39-.4q0-1.52,0-3.038a.386.386,0,0,1,.386-.386q.762,0,1.524,0a.394.394,0,0,1,.391.406.4.4,0,0,1-.391.4c-.332,0-.664,0-.995,0Z" fill="#595959" fill-rule="evenodd"/>
        <path id="パス_83" data-name="パス 83" d="M1376.83,5241.7c.368,0,.723,0,1.078,0a.39.39,0,0,1,.409.318.409.409,0,0,1-.373.5c-.515,0-1.029,0-1.545,0a.4.4,0,0,1-.382-.365q0-.036,0-.072,0-1.473,0-2.947a.4.4,0,0,1,.383-.436.412.412,0,0,1,.433.422v2.583Z" fill="#595959" fill-rule="evenodd"/>
        <path id="パス_84" data-name="パス 84" d="M1379.492,5240.609c0,.494,0,.989,0,1.483a.435.435,0,0,1-.333.419.41.41,0,0,1-.44-.218.544.544,0,0,1-.052-.224q-.006-1.462,0-2.925a.416.416,0,0,1,.549-.427.427.427,0,0,1,.278.419C1379.493,5239.627,1379.492,5240.118,1379.492,5240.609Z" fill="#595959" fill-rule="evenodd"/>
      </g>
    </g>
    <path id="パス_85" data-name="パス 85" d="M1391.285,5249.43v-15.939a2.447,2.447,0,0,0-2.44-2.439h-15.938a2.447,2.447,0,0,0-2.44,2.438q0,7.969,0,15.94a2.447,2.447,0,0,0,2.439,2.439h15.939A2.446,2.446,0,0,0,1391.285,5249.43Zm-3.961-5.789a10.954,10.954,0,0,1-1.61,1.7,27.975,27.975,0,0,1-4.067,2.9c-.294.175-.609.314-.918.462a.614.614,0,0,1-.234.057c-.2.008-.3-.09-.279-.325.022-.218.063-.434.1-.65a2.424,2.424,0,0,0,.038-.736.461.461,0,0,0-.268-.357,1.893,1.893,0,0,0-.635-.184,8.535,8.535,0,0,1-1.937-.523,7.447,7.447,0,0,1-2.075-1.232,5.766,5.766,0,0,1-2-3.194,4.764,4.764,0,0,1-.1-1.378,5.312,5.312,0,0,1,1.2-3,7.131,7.131,0,0,1,2.783-2.081,8.665,8.665,0,0,1,3.057-.711,8.754,8.754,0,0,1,4.664,1,6.607,6.607,0,0,1,2.692,2.537,4.959,4.959,0,0,1,.7,2.342A5.32,5.32,0,0,1,1387.324,5243.641Z" fill="#595959"/>
  </g>
</svg>
