<svg xmlns="http://www.w3.org/2000/svg" width="177.39" height="28.101" viewBox="0 0 177.39 28.101">
  <g id="footer_logo" transform="translate(0)">
    <g id="グループ_14" data-name="グループ 14" transform="translate(-467.723 -4925.893)">
      <g id="グループ_13" data-name="グループ 13">
        <path id="パス_66" data-name="パス 66" d="M504.339,4938.5h3.049v9.883h1.691V4938.5h3.033v-1.417h-7.772Z" fill="#595959"/>
        <path id="パス_67" data-name="パス 67" d="M523.136,4941.9l-.24-.111c-1.156-.53-1.992-.914-1.992-2a1.531,1.531,0,0,1,1.722-1.529,1.976,1.976,0,0,1,1.73,1.016l1.324-.684c-.445-1.14-1.578-1.766-3.2-1.766a3.051,3.051,0,0,0-3.365,3.059c0,1.628.961,2.371,3.113,3.421.123.06.242.116.357.171,1,.475,1.729.819,1.729,1.879a1.728,1.728,0,0,1-1.9,1.786,2.136,2.136,0,0,1-2.269-1.537l-1.338.618a3.262,3.262,0,0,0,3.526,2.466c2.293,0,3.718-1.326,3.718-3.461C526.055,4943.563,525.029,4942.775,523.136,4941.9Z" fill="#595959"/>
        <path id="パス_68" data-name="パス 68" d="M541.378,4943.959c0,2.123-.99,3.2-2.942,3.2s-2.941-1.076-2.941-3.2v-6.877H533.82v7.055c0,3.062,1.51,4.551,4.616,4.551s4.632-1.489,4.632-4.551v-7.055h-1.69Z" fill="#595959"/>
        <path id="パス_69" data-name="パス 69" d="M555.8,4937.082c-3.117,0-4.632,1.489-4.632,4.551v7.055h1.69v-6.878c0-2.122.99-3.2,2.942-3.2s2.941,1.076,2.941,3.2v6.878h1.675v-7.055C560.42,4938.571,558.91,4937.082,555.8,4937.082Z" fill="#595959"/>
        <path id="パス_70" data-name="パス 70" d="M573.215,4937.082c-3.117,0-4.632,1.489-4.632,4.551v7.055h1.69v-3.258h5.883v3.258h1.675v-7.055C577.831,4938.571,576.321,4937.082,573.215,4937.082Zm-2.942,6.963v-2.235c0-2.122.99-3.2,2.942-3.2s2.941,1.076,2.941,3.2v2.235Z" fill="#595959"/>
        <path id="パス_71" data-name="パス 71" d="M595.775,4942.682H591.4v1.4h2.759v.245c0,1.765-1.348,2.862-3.518,2.862a4.235,4.235,0,0,1-3.112-1.228,4.483,4.483,0,0,1-1.21-3.222,4.158,4.158,0,0,1,4.3-4.385,3.736,3.736,0,0,1,2.949,1.3l1.228-.925a5.2,5.2,0,0,0-4.208-1.906,6.14,6.14,0,0,0-4.322,1.66,5.727,5.727,0,0,0-1.723,4.271,6.037,6.037,0,0,0,1.66,4.288,5.83,5.83,0,0,0,4.385,1.644c3.31,0,5.209-1.828,5.209-5.017,0-.186-.009-.422-.02-.721Q595.78,4942.823,595.775,4942.682Z" fill="#595959"/>
        <path id="パス_72" data-name="パス 72" d="M610.715,4943.959c0,2.123-.99,3.2-2.941,3.2s-2.942-1.076-2.942-3.2v-6.877h-1.675v7.055c0,3.062,1.51,4.551,4.617,4.551s4.631-1.489,4.631-4.551v-7.055h-1.69Z" fill="#595959"/>
        <path id="パス_73" data-name="パス 73" d="M619.653,4938.5H622.7v9.883h1.691V4938.5h3.033v-1.417h-7.772Z" fill="#595959"/>
        <path id="パス_74" data-name="パス 74" d="M643.341,4938.549a6.176,6.176,0,0,0-8.561,0,5.787,5.787,0,0,0-1.755,4.206,5.725,5.725,0,0,0,1.755,4.192,6.136,6.136,0,0,0,8.561,0h0a5.729,5.729,0,0,0,1.772-4.192A5.8,5.8,0,0,0,643.341,4938.549Zm-1.259,7.3a4.14,4.14,0,0,1-3.013,1.277,4.215,4.215,0,0,1-3.03-1.277,4.328,4.328,0,0,1-1.244-3.093,4.407,4.407,0,0,1,1.244-3.109,4.214,4.214,0,0,1,3.03-1.276,4.142,4.142,0,0,1,3.014,1.277,4.413,4.413,0,0,1,1.259,3.108A4.332,4.332,0,0,1,642.082,4945.849Z" fill="#595959"/>
      </g>
    </g>
    <g id="グループ_15" data-name="グループ 15" transform="translate(-467.723 -4925.893)">
      <path id="パス_75" data-name="パス 75" d="M495.9,4936.5a10.6,10.6,0,0,0-20.075-4.744,11.918,11.918,0,0,1,1.931-.24,9.073,9.073,0,1,1,8.007,14c-.156.008-.309.024-.467.024a9.055,9.055,0,0,1-9.044-9.045c0-.192.017-.38.029-.57a7.758,7.758,0,0,0-1.587.625,10.611,10.611,0,0,0,10.428,10.541c.058,0,.115.009.174.009a10.693,10.693,0,0,0,1.308-.089,10.54,10.54,0,0,0,1.812-.381,10.347,10.347,0,0,0,1.508-.608A10.606,10.606,0,0,0,495.9,4936.5Z" fill="#595959"/>
      <path id="パス_76" data-name="パス 76" d="M485.882,4948.317a9.009,9.009,0,1,1,1.49-4.928h.013a8.982,8.982,0,0,0,1.524-.446,10.587,10.587,0,1,0-1.048,5.078h-.012A12.39,12.39,0,0,1,485.882,4948.317Z" fill="#595959"/>
    </g>
  </g>
</svg>
