<svg id="footer_btn_note" xmlns="http://www.w3.org/2000/svg" width="31.947" height="31.947" viewBox="0 0 31.947 31.947">
  <rect id="長方形_5" data-name="長方形 5" width="31.947" height="31.947" fill="#25ff0d" opacity="0"/>
  <g id="グループ_23" data-name="グループ 23" transform="translate(-1430.673 -5225.486)">
    <path id="パス_89" data-name="パス 89" d="M1438.818,5251.827a1.1,1.1,0,0,1-1.016-1.167v-13.607a1.828,1.828,0,0,1,.3-1.248c.393-.415,3.928-4.32,3.928-4.32a1.389,1.389,0,0,1,1.062-.392h11.228a1.089,1.089,0,0,1,1.178,1.085v18.413a1.106,1.106,0,0,1-1.178,1.236Zm1.121-2.16h13.411v-16.38h-9.957l-3.454,3.743Z" fill="#595959"/>
    <path id="パス_90" data-name="パス 90" d="M1446.372,5235.621c0-.02,0-.039,0-.059a.982.982,0,1,0-1.965,0l0,2.074h-1.947a.982.982,0,1,0,0,1.965h2.932a.982.982,0,0,0,.983-.982.811.811,0,0,0-.007-.111Z" fill="#595959"/>
  </g>
</svg>
