<svg id="footer_btn_instagram" xmlns="http://www.w3.org/2000/svg" width="31.947" height="31.947" viewBox="0 0 31.947 31.947">
  <rect id="長方形_4" data-name="長方形 4" width="31.947" height="31.947" fill="#25ff0d" opacity="0"/>
  <g id="グループ_21" data-name="グループ 21" transform="translate(-1397.839 -5225.482)">
    <path id="パス_86" data-name="パス 86" d="M1418.157,5251.854h-8.688a6.045,6.045,0,0,1-6.038-6.038v-8.722a6.044,6.044,0,0,1,6.038-6.037h8.688a6.044,6.044,0,0,1,6.037,6.037v8.722A6.044,6.044,0,0,1,1418.157,5251.854Zm-8.688-18.9a4.14,4.14,0,0,0-4.135,4.135v8.722a4.14,4.14,0,0,0,4.135,4.135h8.688a4.14,4.14,0,0,0,4.135-4.135v-8.722a4.14,4.14,0,0,0-4.135-4.135Z" fill="#595959"/>
    <path id="パス_87" data-name="パス 87" d="M1413.813,5246.774a5.318,5.318,0,1,1,5.318-5.319A5.324,5.324,0,0,1,1413.813,5246.774Zm0-8.774a3.455,3.455,0,1,0,3.455,3.455A3.459,3.459,0,0,0,1413.813,5238Z" fill="#595959"/>
    <path id="パス_88" data-name="パス 88" d="M1420.658,5235.93a1.268,1.268,0,1,1-1.268-1.268A1.269,1.269,0,0,1,1420.658,5235.93Z" fill="#595959"/>
  </g>
</svg>
