<svg id="garelly_h" xmlns="http://www.w3.org/2000/svg" width="262.09" height="55.676" viewBox="0 0 262.09 55.676">
  <g id="グループ_37" data-name="グループ 37" transform="translate(-830.514 -3913.499)">
    <path id="パス_169" data-name="パス 169" d="M884.391,3969.175c-3.089,0-5.234-2.529-5.234-6.13s2.129-6.147,5.234-6.147c3.074,0,5.218,2.529,5.218,6.147C889.609,3966.63,887.48,3969.175,884.391,3969.175Zm3.7-6.274c0-1.473-.417-5.475-3.7-5.475-3.585,0-3.713,4.706-3.713,5.763,0,1.536.464,5.458,3.713,5.458C887.961,3968.647,888.089,3963.989,888.089,3962.9Z" fill="#333"/>
    <path id="パス_170" data-name="パス 170" d="M902.85,3957.09c0,.016,1.04,2.529,1.04,2.706a.3.3,0,0,1-.3.288c-.144,0-.176-.048-.512-.513a4.25,4.25,0,0,0-3.457-2.145c-2.513,0-3.81,3.074-3.81,5.843,0,3.713,2.177,5.17,4.082,5.17a3.918,3.918,0,0,0,3.457-2.273c.368-.624.368-.64.5-.64a.249.249,0,0,1,.24.256,5.3,5.3,0,0,1-.912,1.616,4.666,4.666,0,0,1-3.761,1.777c-3.378,0-5.027-2.737-5.027-5.875,0-3.745,2.321-6.4,5.027-6.4a5.541,5.541,0,0,1,1.36.192,7.816,7.816,0,0,0,.96.256.66.66,0,0,0,.433-.16c.256-.256.288-.288.416-.288A.367.367,0,0,1,902.85,3957.09Z" fill="#333"/>
    <path id="パス_171" data-name="パス 171" d="M915.936,3962.644c.432,0,.432-.1.432-2.209,0-2.32,0-2.721-1.489-2.721-.128,0-.416,0-.416-.272,0-.24.288-.24.432-.24h4.082c.112,0,.416,0,.416.257s-.208.271-.7.271a1.014,1.014,0,0,0-.976.593c-.129.336-.144.384-.144,6.179a25.615,25.615,0,0,0,.128,3.249c.224.608.88.608,1.184.608.24,0,.512,0,.512.256s-.3.256-.416.256H914.9c-.16,0-.432,0-.432-.241s.288-.255.464-.255a1.558,1.558,0,0,0,1.121-.321c.32-.319.32-.336.32-3.264,0-1.49,0-1.618-.432-1.618H911.63a.427.427,0,0,0-.368.193c-.064.176-.064,1.761-.064,2.064,0,2.625,0,2.946,1.5,2.946.112,0,.4,0,.4.272,0,.224-.289.224-.433.224h-4.081c-.1,0-.417,0-.417-.256s.209-.256.705-.256a1.018,1.018,0,0,0,1.04-.817c.064-.384.064-4.273.064-6.322a22.94,22.94,0,0,0-.112-2.882c-.208-.608-.88-.608-1.184-.608-.24,0-.513,0-.513-.271s.3-.257.417-.257h4.081c.161,0,.433,0,.433.24,0,.272-.272.272-.465.272-1.44,0-1.44.481-1.44,2.53,0,.288,0,2.048.064,2.192a.387.387,0,0,0,.368.208Z" fill="#333"/>
    <path id="パス_172" data-name="パス 172" d="M932.019,3968.871c-.176,0-.384-.048-.384-.256,0-.256.256-.256.64-.256a.7.7,0,0,0,.656-.7,8.653,8.653,0,0,0-.592-1.873c-.352-.9-.4-1.009-.928-1.009h-3.474c-.592,0-.656.16-.912.881a12.765,12.765,0,0,0-.576,2.081c0,.624.512.624.9.624.192,0,.368.032.368.256,0,.256-.24.256-.368.256h-3.073c-.128,0-.336-.016-.336-.241,0-.271.176-.271.544-.271a1.348,1.348,0,0,0,1.217-.641,47.5,47.5,0,0,0,1.9-5.394c.208-.64,1.233-3.777,1.441-4.5.16-.561.256-.929,1.392-.929a.365.365,0,0,1,.352.256,10.565,10.565,0,0,1,.529,1.44c1.12,3.474,1.216,3.859,2.224,6.82.913,2.72,1.025,2.945,1.937,2.945.209,0,.368.1.368.271,0,.241-.256.241-.368.241Zm-.753-4.626c.177,0,.4-.08.4-.256,0-.336-1.521-4.786-1.809-5.651-.1-.271-.128-.416-.24-.416-.1,0-.112.048-.288.577-.448,1.3-1.7,5.362-1.7,5.506,0,.24.24.24.448.24Z" fill="#333"/>
    <path id="パス_173" data-name="パス 173" d="M958.579,3963.861c.128,0,.369,0,.369.256a.249.249,0,0,1-.272.256.894.894,0,0,0-.8.448c-.192.3-.208.576-.208,3.042,0,.528-.064.528-.672.528a2.9,2.9,0,0,0-.961.288,5.165,5.165,0,0,1-2.161.5c-3.185,0-4.961-2.609-4.961-6.05,0-3.618,1.984-6.227,4.753-6.227a4.99,4.99,0,0,1,1.537.288,2.807,2.807,0,0,0,.752.16.534.534,0,0,0,.368-.16c.256-.224.3-.288.449-.288.24,0,.272.112.592,1.072.1.273.656,1.921.656,2a.281.281,0,0,1-.288.273c-.128,0-.16-.048-.416-.5a4.481,4.481,0,0,0-3.586-2.322c-2.16,0-3.377,2.849-3.377,5.634,0,2.945,1.345,5.6,3.665,5.6a2.535,2.535,0,0,0,1.825-.737,2.3,2.3,0,0,0,.609-1.921c0-1.5-.464-1.616-1.665-1.616-.1,0-.336,0-.336-.272,0-.256.24-.256.432-.256Z" fill="#333"/>
    <path id="パス_174" data-name="パス 174" d="M970.745,3968.871c-.176,0-.384-.048-.384-.256,0-.256.256-.256.64-.256a.7.7,0,0,0,.656-.7,8.653,8.653,0,0,0-.592-1.873c-.352-.9-.4-1.009-.928-1.009h-3.474c-.592,0-.656.16-.912.881a12.771,12.771,0,0,0-.576,2.081c0,.624.512.624.9.624.192,0,.368.032.368.256,0,.256-.24.256-.368.256H963c-.128,0-.336-.016-.336-.241,0-.271.176-.271.544-.271a1.346,1.346,0,0,0,1.216-.641,47.3,47.3,0,0,0,1.905-5.394c.208-.64,1.233-3.777,1.441-4.5.16-.561.256-.929,1.392-.929a.364.364,0,0,1,.352.256,10.565,10.565,0,0,1,.529,1.44c1.12,3.474,1.216,3.859,2.225,6.82.912,2.72,1.024,2.945,1.936,2.945.209,0,.368.1.368.271,0,.241-.256.241-.368.241Zm-.752-4.626c.176,0,.4-.08.4-.256,0-.336-1.521-4.786-1.809-5.651-.1-.271-.128-.416-.24-.416-.1,0-.112.048-.288.577-.448,1.3-1.7,5.362-1.7,5.506,0,.24.24.24.448.24Z" fill="#333"/>
    <path id="パス_175" data-name="パス 175" d="M983.835,3957.2c.768,0,4.417.08,4.417,2.769a3.116,3.116,0,0,1-2.128,2.8c-.561.273-.625.3-.625.481a28.364,28.364,0,0,0,1.665,3.825,1.994,1.994,0,0,0,1.889,1.281c.16,0,.48,0,.48.256,0,.223-.32.256-.4.256h-2a.784.784,0,0,1-.752-.464c-.1-.16-1.233-2.642-1.409-3.041-.88-1.938-.992-2.194-1.552-2.194h-.881c-.112,0-.32.065-.368.193-.064.16-.064,2.272-.064,2.64,0,1.938,0,2.354,1.472,2.354.113,0,.337,0,.337.256s-.288.256-.464.256H979.5c-.16,0-.4-.033-.4-.256,0-.256.224-.256.448-.256,1.1,0,1.265-.513,1.313-1.1.032-.544.032-4.947.032-5.7a25.517,25.517,0,0,0-.129-3.233c-.208-.593-.9-.593-1.264-.593-.1,0-.432,0-.432-.288,0-.24.288-.24.48-.24Zm-.577.528c-1.152,0-1.152.721-1.152,2.369,0,2.514,0,2.562.432,2.562h1.3c1.568,0,2.9-.864,2.9-2.53,0-1.12-.608-2.4-2.689-2.4Z" fill="#333"/>
    <path id="パス_176" data-name="パス 176" d="M999.328,3968.359a4.16,4.16,0,0,0,3.825-1.985c.4-.624.432-.688.56-.688a.254.254,0,0,1,.272.256c0,.08-.576,1.6-.672,1.841-.4,1.04-.416,1.088-1.456,1.088h-7.539c-.272,0-.5,0-.5-.256s.159-.256.608-.256a1.061,1.061,0,0,0,1.216-.833c.048-.271.064-3.953.064-4.417,0-.641,0-4.274-.048-4.562-.16-.817-.848-.817-1.489-.817-.112,0-.351,0-.351-.256,0-.272.224-.272.5-.272h7.3c.992,0,1.072.032,1.392.816.1.225.688,1.7.688,1.81a.249.249,0,0,1-.256.239c-.1,0-.128-.031-.5-.544a3.9,3.9,0,0,0-3.073-1.793h-1.777a1.108,1.108,0,0,0-.96.417c-.192.288-.192.432-.192,1.7,0,.208,0,2.385.048,2.513a.442.442,0,0,0,.384.208h1.408c1.809,0,1.809-1.088,1.809-1.792,0-.049,0-.32.256-.32.272,0,.256.271.256.4-.016.592,0,3.457,0,4.1,0,.079,0,.336-.256.336s-.256-.208-.256-.529c0-1.36-.912-1.68-1.809-1.68h-1.408a.385.385,0,0,0-.416.368c-.016.128-.016,2.768-.016,3.009,0,1.121,0,1.9,1.152,1.9Z" fill="#333"/>
    <path id="パス_177" data-name="パス 177" d="M1012.591,3968.359a4.728,4.728,0,0,0,4.034-2.177c.3-.448.336-.5.448-.5a.224.224,0,0,1,.24.239c0,.1-.608,1.665-.7,1.921-.4,1.009-.464,1.025-1.505,1.025H1008.4c-.241,0-.465,0-.465-.256s.176-.256.576-.256a1.061,1.061,0,0,0,1.217-.833c.048-.271.048-3.953.048-4.417,0-.641,0-4.274-.048-4.562-.144-.817-.848-.817-1.44-.817-.113,0-.353,0-.353-.256,0-.272.224-.272.465-.272h3.969c.256,0,.48,0,.48.272,0,.256-.176.256-.576.256a1.071,1.071,0,0,0-1.216.817c-.048.288-.048,3.7-.048,4.45a42.491,42.491,0,0,0,.048,4.529,1.024,1.024,0,0,0,1.1.833Z" fill="#333"/>
    <path id="パス_178" data-name="パス 178" d="M1025.9,3968.359a4.728,4.728,0,0,0,4.034-2.177c.3-.448.336-.5.448-.5a.224.224,0,0,1,.24.239c0,.1-.608,1.665-.7,1.921-.4,1.009-.464,1.025-1.505,1.025h-6.706c-.241,0-.465,0-.465-.256s.176-.256.577-.256a1.061,1.061,0,0,0,1.216-.833c.048-.271.048-3.953.048-4.417,0-.641,0-4.274-.048-4.562-.144-.817-.848-.817-1.44-.817-.113,0-.353,0-.353-.256,0-.272.224-.272.465-.272h3.969c.256,0,.48,0,.48.272,0,.256-.176.256-.576.256a1.071,1.071,0,0,0-1.216.817c-.048.288-.048,3.7-.048,4.45a42.491,42.491,0,0,0,.048,4.529,1.024,1.024,0,0,0,1.1.833Z" fill="#333"/>
    <path id="パス_179" data-name="パス 179" d="M1044.144,3957.2a.269.269,0,0,1,.272.272c0,.256-.24.256-.384.256a2.185,2.185,0,0,0-1.809,1.137c-.72,1.249-2.433,4.193-2.689,4.849-.16.385-.16.513-.16,1.761,0,1.938.016,2.161.176,2.417.272.417.688.465,1.216.465.545,0,.689,0,.689.256s-.24.256-.432.256h-4.562c-.192,0-.432,0-.432-.256s.256-.256.336-.256c1.552,0,1.745-.16,1.745-1.761,0-2.241.016-2.481-.417-3.265-.224-.416-1.424-2.53-1.664-2.946-1.009-1.808-1.457-2.608-2.417-2.657-.192,0-.417-.016-.417-.256,0-.272.241-.272.417-.272h3.777c.192,0,.433,0,.433.272,0,.256-.257.256-.337.256-.5,0-1.024,0-1.024.576,0,.273.048.368.528,1.217.288.528,1.585,2.817,1.841,3.281.064.128.176.336.288.336s.224-.239.288-.351c.352-.624,2.129-3.682,2.257-4.034a1.6,1.6,0,0,0,.08-.432c0-.593-.784-.593-1.056-.593-.417,0-.593,0-.593-.256,0-.272.24-.272.416-.272Z" fill="#333"/>
  </g>
  <g id="グループ_39" data-name="グループ 39" transform="translate(-830.514 -3913.499)">
    <g id="グループ_38" data-name="グループ 38">
      <path id="パス_180" data-name="パス 180" d="M844.025,3923.755c0,1.155-2.66,2.205-3.5,2.554-.49.176-.525.316-.6,1.54-.07.771-.07,3.606-.07,3.781,0,.21,0,.63.315.63.105,0,2.975-1.19,3.535-1.4,3.466-1.3,5.041-1.4,5.951-1.4a5.359,5.359,0,0,1,5.39,5.286c0,4.62-4.865,6.72-7.735,6.72-2,0-3.606-1.015-3.606-2.836a3.118,3.118,0,0,1,1.751-2.764.186.186,0,0,1,.174.175c0,.1-.069.174-.139.28a1.445,1.445,0,0,0-.316.944c0,1.681,1.926,1.681,2.276,1.681,2.31,0,5.25-1.54,5.25-4.341a3.626,3.626,0,0,0-3.36-3.85c-.98,0-3.151.455-7.246,2.625-1.96,1.05-2.17,1.156-2.17,1.75,0,.385.1,1.96.1,2.311,0,1.609-.525,3.92-1.785,3.92-.945,0-1.33-.735-1.61-1.3-1.12-2.17-1.3-2.17-1.751-2.17a2.916,2.916,0,0,0-.875.21,6.914,6.914,0,0,1-1.33.7c-.385,0-2.17-1.051-2.17-2.206,0-.63.385-1.364,1.015-1.364.21,0,1.225.175,1.435.175.945,0,1.575-.175,3.641-1.191,1.785-.875,1.995-.98,1.995-1.96,0-.8-.035-3.78-.07-4.376,0-.245-.105-.769-.49-.769a8.278,8.278,0,0,0-1.61.314,7.482,7.482,0,0,1-2.486.665c-1.19,0-2.52-2.415-2.52-2.66a.248.248,0,0,1,.28-.245c.105,0,.525.141.63.141a10.285,10.285,0,0,0,1.61.175,15.3,15.3,0,0,0,4.446-1.05,26.193,26.193,0,0,0,.35-3.816,3.44,3.44,0,0,0-1.155-2.8,3.544,3.544,0,0,1-.49-.559c0-.316.56-.386.77-.386,2.345,0,3.6,1.716,3.6,2.381a14.16,14.16,0,0,1-.735,1.82,18.708,18.708,0,0,0-.35,2.275c0,.14.07.386.28.386.245,0,1.225-.386,1.225-.875,0-.071-.175-.42-.175-.491,0-.035.07-.1.14-.14C842.345,3922.179,844.025,3922.67,844.025,3923.755Zm-7.98,13.406c0,.525.945,1.645,1.47,1.645.49,0,.98-.98.98-2.695,0-.141,0-.49-.1-.561C838.285,3935.55,836.045,3936.671,836.045,3937.161Zm23-10.886c0,.734-.42,1.68-1.155,1.68-.21,0-1.015-.071-1.19-.071-.175.036-.91.246-1.05.246a.164.164,0,0,1-.175-.175,2.423,2.423,0,0,1,.105-.281,1.837,1.837,0,0,0,.14-.629c0-1.4-1.75-1.89-2.941-1.89a3.039,3.039,0,0,0-1.365.35.779.779,0,0,1-.35.1c-.1,0-.14-.034-.14-.14a4.477,4.477,0,0,1,3.78-2.205C857.4,3923.264,859.042,3924.665,859.042,3926.275Z" fill="#333"/>
      <path id="パス_181" data-name="パス 181" d="M893.229,3926.94a30.863,30.863,0,0,0,8.471,2.765c.14,0,.735.1.735.245,0,.1-.49.245-.63.28a6.062,6.062,0,0,0-2.66,1.89c-.105.14-.49.876-.665.876-.21,0-7.806-3.676-11.236-9.277-.666-1.12-.77-1.225-1.016-1.225s-.315.07-1.084.875a41.588,41.588,0,0,1-10.362,8.156,30.278,30.278,0,0,1-5.495,2.24c-.1,0-.175-.07-.175-.1s3.745-2.346,4.06-2.556c4.726-2.975,9.731-8.331,10.221-10.956.035-.28.07-.385.315-.385.175,0,3.011,1.085,3.186,1.19.105.035.455.175.455.525a2.188,2.188,0,0,1-.14.49C887.279,3922.494,890.289,3925.434,893.229,3926.94Zm-16.871-8.717c-2.591,0-3.781.071-4.446.106-.1,0-.63.07-.735.07s-.175-.07-.315-.21l-.665-.806c-.14-.174-.14-.174-.14-.245s.035-.069.1-.069c.245,0,1.33.1,1.54.1,1.715.071,3.185.141,4.83.141h1.015c.736,0,.946-.351.946-.945a5.69,5.69,0,0,0-.28-1.856,5.3,5.3,0,0,1-.21-.7c0-.175.175-.245.385-.245.245,0,1.82.386,2.205.49,1.05.28,1.26.35,1.26.665,0,.21-.035.281-.525.91a.857.857,0,0,0-.245.63c0,.84.28,1.051,1.225,1.051h5.776c.315,0,1.05,0,1.05-.945a14.527,14.527,0,0,0-.1-1.575c-.035-.175-.21-.911-.21-1.051,0-.175.21-.244.385-.244.245,0,2.625.559,3.01.665s.6.244.6.559c0,.21-.14.351-.525.63a1.126,1.126,0,0,0-.455.981c0,.98.56.98,1.12.98h1.786c1.54,0,1.715,0,2.24-.6.98-1.155,1.085-1.295,1.4-1.295.21,0,3.255,1.856,3.255,2.311,0,.489-.7.489-1.855.489h-6.826c-1.085,0-1.085.561-1.085,1.4,0,.21.035,1.4.035,1.575,0,1.295-1.05,1.505-1.785,1.505-.8,0-.945-.14-.945-1.33v-2.415c-.1-.665-.525-.736-1.085-.736h-5.6c-.8,0-1.295,0-1.295.981,0,.35.105,1.89.105,2.2,0,.665-.105.98-.42,1.19a2.479,2.479,0,0,1-1.33.49c-.6,0-.875-.385-.875-1.084,0-.281.035-1.611.035-1.856,0-1.365,0-1.926-1.085-1.926Zm2.485,17.888a18.006,18.006,0,0,1,2.7,1.644.873.873,0,0,1,.28.526c0,.42-.28.49-1.12.7-.1.035-3.115,2.38-3.675,2.8a21.546,21.546,0,0,1-5.321,3.046.112.112,0,0,1-.105-.106c0-.07,1.855-1.679,2.1-1.924,2.906-2.766,4.691-5.532,5.006-6.652A.216.216,0,0,1,878.843,3936.111Zm1.61-1.856c-2.73,0-3.746.036-4.446.105-.1,0-.63.07-.735.07s-.175-.07-.315-.21l-.665-.8c-.14-.176-.14-.176-.14-.245,0-.036.035-.071.105-.071.245,0,1.33.106,1.54.106,1.716.1,3.186.139,4.831.139h2.625c.35,0,1.05,0,1.05-.945,0-.42-.21-3.255-.28-3.6,0-.07-.21-.42-.21-.491s.07-.21.35-.21c.245,0,2.7.526,3.046.631.49.1.665.42.665.595,0,.21-.07.28-.6.735-.491.42-.491.63-.491,1.68,0,1.261,0,1.61,1.051,1.61h1.54c1.54,0,1.715,0,2.24-.594.98-1.156,1.085-1.3,1.4-1.3.21,0,3.256,1.89,3.256,2.31,0,.49-.7.49-1.856.49H887.8c-1.05,0-1.05.63-1.05,1.75,0,2.486,0,3.886.07,5.952.035.594.035,1.434.035,1.854,0,1.12-.281,1.785-1.786,1.785-.77,0-.84-.63-.84-1.224,0-.455.105-2.556.105-3.011.035-1.33.035-2.625.035-4.235a21.2,21.2,0,0,0-.07-2.38c-.175-.491-.735-.491-1.015-.491Zm9.346,2.941c0-.106.175-.141.315-.141,1.295,0,9.276,2.206,9.276,5.112,0,1.12-.63,2-1.505,2-.665,0-.8-.176-1.89-1.785a16.635,16.635,0,0,0-6.021-5.041C889.939,3937.336,889.8,3937.231,889.8,3937.2Z" fill="#333"/>
      <path id="パス_182" data-name="パス 182" d="M931.957,3942.026c0,.665-.246,1.33-.771,1.33-1.54,0-2.1-3.045-2.38-4.516-.175-.875-.945-4.69-1.12-5.5-.1-.63-.28-1.085-.91-1.085-.14,0-4.306.98-6.021,1.54a18.615,18.615,0,0,1-2.135.911c-.525,0-4.025-1.54-4.025-2.591,0-.28.245-.35.42-.35.315,0,1.785.14,2.1.14a39.858,39.858,0,0,0,8.506-1.19c.91-.175,1.12-.315,1.12-.91a19.547,19.547,0,0,0-.735-3.5c-.245-.875-.385-1.224-.91-1.224a45.534,45.534,0,0,0-4.866,1.33c-.8,0-3.185-1.26-3.185-1.891,0-.245.42-.245.735-.245a32.506,32.506,0,0,0,5.391-.595c1.225-.28,1.75-.49,1.75-1.155,0-.14-.42-3.465-1.961-4.8a14.394,14.394,0,0,1-1.61-1.261c0-.21,1.05-.594,1.821-.594.7,0,3.15.769,3.255,1.469.07.49.14,2.521.21,2.941.315,2.275.7,2.275,1.19,2.275a21.259,21.259,0,0,0,3.045-.945c1.505-.665,1.68-.735,2.17-.735,1.121,0,2.066.735,2.066,1.295,0,.7-.665.84-3.221,1.33-2.835.56-3.15.665-3.535.77-.63.21-.665.49-.665.876a22.743,22.743,0,0,0,.63,3.149c.315,1.191.455,1.506,1.085,1.506a23.564,23.564,0,0,0,4.481-1.33,7.153,7.153,0,0,1,3.465-.875c1.855,0,2.625.944,2.625,1.54,0,1.05-1.435,1.085-2.7,1.085a36.982,36.982,0,0,0-6.3,1.015c-1.47.315-1.54.525-1.54,1.19C929.436,3933.345,931.957,3940.486,931.957,3942.026Zm8.89-20.372c0,.42-.42,1.33-1.085,1.33-.49,0-.805-.314-1.75-1.68a9.673,9.673,0,0,0-2.31-2.275c-.105-.106-.455-.42-.455-.561,0-.174.315-.245.63-.245C938.4,3918.223,940.847,3920.079,940.847,3921.654Zm3.186-3.255c0,.385-.28,1.05-.91,1.05-.736,0-1.191-.595-1.786-1.4a8.932,8.932,0,0,0-2.94-2.1c-.35-.176-.455-.316-.455-.421,0-.35,1.12-.35,1.33-.35C941.162,3915.178,944.033,3916.4,944.033,3918.4Z" fill="#333"/>
      <path id="パス_183" data-name="パス 183" d="M977.709,3928.549c0,.561-.49.736-1.12.946a7.869,7.869,0,0,0-2.485,1.54,15.762,15.762,0,0,1-3.186,1.89.182.182,0,0,1-.175-.174c0-.386,3.046-3.641,3.046-4.516,0-.245-.245-.28-.385-.28-.175,0-4.376,1.014-4.866,1.12-1.26.315-1.4.349-1.4.91a80.722,80.722,0,0,0,3.01,9.346c.8,2.065.98,2.591.98,3.22,0,.736-.35,1.47-.735,1.47a3.631,3.631,0,0,1-2.1-1.96c-.175-.559-2.065-8.716-2.555-10.326-.42-1.4-.49-1.575-.98-1.575a21.037,21.037,0,0,0-3.956,1.12c-1.435.6-1.575.665-1.785.665-.35,0-.525-.1-2.065-1.155a1.4,1.4,0,0,1-.7-1.26c0-.21.035-.875.315-.875.1,0,.63.21.77.245a5.545,5.545,0,0,0,1.855.28,26.109,26.109,0,0,0,4.9-.631.636.636,0,0,0,.49-.559,6.789,6.789,0,0,0-1.715-3.921c-.14-.1-.7-.455-.806-.524a.277.277,0,0,1-.07-.176c0-.56,1.436-.56,1.751-.56,1.435,0,2.59.28,2.59,1.4,0,1.714,0,3.6.8,3.6a34.154,34.154,0,0,0,5.181-1.086,17.767,17.767,0,0,1,2.065-.909C975.4,3925.82,977.709,3927.639,977.709,3928.549Z" fill="#333"/>
      <path id="パス_184" data-name="パス 184" d="M998.025,3941.676c10.921-5.88,13.791-13.441,13.791-14.176,0-.42-.245-.665-.735-.665-1.19,0-9.976,1.54-11.516,2a14.93,14.93,0,0,1-1.611.594c-1.505,0-3.99-3.009-3.99-3.99a.2.2,0,0,1,.21-.175,4.949,4.949,0,0,1,.63.281,9.833,9.833,0,0,0,3.466.594c2.87,0,9.836-.91,11.131-1.049.07,0,2.38-.21,2.415-.21a5.932,5.932,0,0,1,1.015-.386c.6,0,3.081,2.065,3.081,2.871,0,.524-.141.665-.945,1.33a9.779,9.779,0,0,0-1.891,2.485c-2.765,4.2-4.935,6.826-9.871,9.346a24.752,24.752,0,0,1-6.2,2.276.28.28,0,0,1-.315-.281.369.369,0,0,1,.071-.21C996.834,3942.236,997.815,3941.781,998.025,3941.676Zm.875-22.892a8.654,8.654,0,0,0,1.855.139,33.484,33.484,0,0,0,5.6-.384c.526-.1,2.941-.7,3.431-.7.595,0,2.135.316,2.135,1.331,0,1.085-1.225,1.19-3.255,1.365-.56.07-8.086.735-8.331.735-1.855,0-2.905-2.381-2.905-2.625,0-.176.07-.245.21-.245C997.85,3918.4,998.69,3918.749,998.9,3918.784Z" fill="#333"/>
      <path id="パス_185" data-name="パス 185" d="M1034.351,3918.013c.84,0,2.765,1.226,2.765,1.821,0,.174-.069.98-.069,1.155,0,4.06.069,7.211.1,8.051.034.42.21,2.17.21,2.52,0,.91-.806,1.785-1.331,1.785-.77,0-1.575-1.855-1.575-2.765,0-.28.175-1.47.175-1.75.07-1.575.07-2.941.07-3.571,0-3.92-.175-4.725-1.26-5.985-.28-.315-.455-.525-.455-.806C1032.986,3918.223,1033.546,3918.013,1034.351,3918.013Zm9.626-.979c-.42-.561-.455-.63-.455-.7,0-.106,0-.21,1.015-.21,2.1,0,3.851.875,3.851,1.785a13.727,13.727,0,0,1-.35,1.4c-.14.945-.175,6.2-.281,7.42a22.144,22.144,0,0,1-8.75,16.242,13.973,13.973,0,0,1-3.151,2.066c-.14,0-.21-.071-.21-.175,0-.141,2.276-2.381,2.7-2.836,6.755-7.211,7-13.3,7-20.3A6.693,6.693,0,0,0,1043.977,3917.034Z" fill="#333"/>
      <path id="パス_186" data-name="パス 186" d="M1089.384,3927.955c.21,0,.595-.035.77-.035,2.135,0,2.45,1.294,2.45,1.54,0,.98-1.435,1.085-2.905,1.085-.8,0-4.306-.07-5.006-.07-4.83,0-12.846.455-13.686.63-.42.07-2.31.63-2.731.63-1.505,0-3.115-2.17-3.115-3.36,0-.21.1-.42.28-.42s1.015.384,1.19.42a19.126,19.126,0,0,0,4.271.315C1072.057,3928.69,1084.273,3928.235,1089.384,3927.955Z" fill="#333"/>
    </g>
  </g>
</svg>
