<svg id="garelly_h_sp" xmlns="http://www.w3.org/2000/svg" width="745" height="100" viewBox="0 0 745 100">
  <rect id="長方形_24" data-name="長方形 24" width="745" height="100" fill="#ffc946" opacity="0"/>
  <g id="グループ_330" data-name="グループ 330" transform="translate(-1385.947 -2764.881)">
    <g id="グループ_327" data-name="グループ 327">
      <g id="グループ_326" data-name="グループ 326">
        <path id="パス_1469" data-name="パス 1469" d="M1650.773,2858.17c-4.438,0-7.52-3.632-7.52-8.806s3.059-8.83,7.52-8.83c4.415,0,7.5,3.632,7.5,8.83C1658.269,2854.514,1655.211,2858.17,1650.773,2858.17Zm5.312-9.013c0-2.116-.6-7.865-5.312-7.865-5.151,0-5.335,6.761-5.335,8.279,0,2.207.667,7.842,5.335,7.842C1655.9,2857.413,1656.085,2850.72,1656.085,2849.157Z" fill="#333"/>
        <path id="パス_1470" data-name="パス 1470" d="M1677.249,2840.809c0,.023,1.495,3.634,1.495,3.887a.431.431,0,0,1-.437.414c-.207,0-.253-.069-.736-.736-1.954-2.76-4-3.082-4.967-3.082-3.61,0-5.473,4.415-5.473,8.394,0,5.334,3.128,7.427,5.864,7.427,1.61,0,3.449-.69,4.967-3.265.529-.9.529-.92.713-.92a.358.358,0,0,1,.345.367,7.592,7.592,0,0,1-1.311,2.323,6.7,6.7,0,0,1-5.4,2.552c-4.852,0-7.221-3.931-7.221-8.439,0-5.381,3.334-9.2,7.221-9.2a7.968,7.968,0,0,1,1.954.275,11.224,11.224,0,0,0,1.38.368.953.953,0,0,0,.621-.229c.367-.368.413-.414.6-.414A.525.525,0,0,1,1677.249,2840.809Z" fill="#333"/>
        <path id="パス_1471" data-name="パス 1471" d="M1696.006,2848.79c.621,0,.621-.139.621-3.174,0-3.334,0-3.909-2.139-3.909-.184,0-.6,0-.6-.392,0-.344.413-.344.62-.344h5.864c.161,0,.6,0,.6.367,0,.391-.3.391-1.012.391a1.456,1.456,0,0,0-1.4.852c-.185.482-.208.55-.208,8.875a36.556,36.556,0,0,0,.185,4.668c.321.875,1.264.875,1.7.875.345,0,.736,0,.736.367s-.437.368-.6.368h-5.864c-.23,0-.62,0-.62-.345,0-.368.413-.368.667-.368a2.244,2.244,0,0,0,1.609-.46c.46-.46.46-.482.46-4.691,0-2.139,0-2.323-.621-2.323h-6.186a.617.617,0,0,0-.529.277c-.091.253-.091,2.529-.091,2.966,0,3.771,0,4.231,2.161,4.231.161,0,.575,0,.575.392,0,.321-.414.321-.621.321h-5.864c-.138,0-.6,0-.6-.368s.3-.367,1.012-.367a1.463,1.463,0,0,0,1.495-1.174c.092-.551.092-6.139.092-9.082a32.921,32.921,0,0,0-.161-4.14c-.3-.874-1.265-.874-1.7-.874-.344,0-.736,0-.736-.391,0-.367.437-.367.6-.367h5.864c.23,0,.621,0,.621.344,0,.392-.391.392-.667.392-2.069,0-2.069.689-2.069,3.632,0,.414,0,2.944.091,3.151a.556.556,0,0,0,.529.3Z" fill="#333"/>
        <path id="パス_1472" data-name="パス 1472" d="M1719.075,2857.734c-.253,0-.552-.069-.552-.368,0-.367.368-.367.919-.367a1.01,1.01,0,0,0,.943-1.012,12.461,12.461,0,0,0-.85-2.692c-.506-1.287-.576-1.448-1.334-1.448h-4.99c-.851,0-.943.23-1.311,1.265a18.36,18.36,0,0,0-.828,2.989c0,.9.736.9,1.288.9.276,0,.529.044.529.367,0,.368-.345.368-.529.368h-4.415c-.184,0-.483-.023-.483-.345,0-.39.253-.39.782-.39a1.936,1.936,0,0,0,1.748-.92c.528-.713,2.23-6.118,2.736-7.75.3-.92,1.77-5.426,2.069-6.461.23-.8.368-1.334,2-1.334a.525.525,0,0,1,.506.367,15.241,15.241,0,0,1,.759,2.07c1.609,4.99,1.747,5.541,3.2,9.8,1.311,3.909,1.472,4.232,2.782,4.232.3,0,.529.137.529.39,0,.345-.367.345-.529.345Zm-1.081-6.646c.253,0,.575-.115.575-.368,0-.483-2.185-6.876-2.6-8.117-.138-.391-.184-.6-.345-.6-.138,0-.161.07-.414.827-.644,1.864-2.437,7.705-2.437,7.912,0,.344.345.344.644.344Z" fill="#333"/>
        <path id="パス_1473" data-name="パス 1473" d="M1757.253,2850.537c.184,0,.53,0,.53.368a.356.356,0,0,1-.391.367,1.287,1.287,0,0,0-1.15.644c-.276.437-.3.829-.3,4.37,0,.757-.092.757-.966.757a4.189,4.189,0,0,0-1.38.414,7.4,7.4,0,0,1-3.1.713c-4.576,0-7.128-3.748-7.128-8.691,0-5.2,2.851-8.945,6.829-8.945a7.18,7.18,0,0,1,2.208.414,4.076,4.076,0,0,0,1.08.229.772.772,0,0,0,.529-.229c.368-.323.437-.414.644-.414.345,0,.391.161.851,1.541.138.39.943,2.758.943,2.874a.4.4,0,0,1-.414.39c-.184,0-.23-.069-.6-.712a6.439,6.439,0,0,0-5.151-3.335c-3.1,0-4.852,4.093-4.852,8.095,0,4.231,1.932,8.048,5.266,8.048a3.647,3.647,0,0,0,2.621-1.058,3.311,3.311,0,0,0,.874-2.759c0-2.162-.667-2.323-2.391-2.323-.138,0-.483,0-.483-.39,0-.368.345-.368.621-.368Z" fill="#333"/>
        <path id="パス_1474" data-name="パス 1474" d="M1774.685,2857.734c-.252,0-.551-.069-.551-.368,0-.367.368-.367.92-.367a1.01,1.01,0,0,0,.943-1.012,12.473,12.473,0,0,0-.852-2.692c-.505-1.287-.574-1.448-1.333-1.448h-4.99c-.851,0-.943.23-1.311,1.265a18.352,18.352,0,0,0-.827,2.989c0,.9.735.9,1.287.9.276,0,.529.044.529.367,0,.368-.345.368-.529.368h-4.415c-.184,0-.483-.023-.483-.345,0-.39.253-.39.782-.39a1.933,1.933,0,0,0,1.747-.92c.529-.713,2.231-6.118,2.737-7.75.3-.92,1.771-5.426,2.07-6.461.23-.8.367-1.334,2-1.334a.525.525,0,0,1,.506.367,15.258,15.258,0,0,1,.759,2.07c1.61,4.99,1.747,5.541,3.2,9.8,1.311,3.909,1.472,4.232,2.783,4.232.3,0,.529.137.529.39,0,.345-.369.345-.529.345Zm-1.08-6.646c.253,0,.575-.115.575-.368,0-.483-2.185-6.876-2.6-8.117-.138-.391-.184-.6-.345-.6-.137,0-.16.07-.413.827-.644,1.864-2.438,7.705-2.438,7.912,0,.344.345.344.644.344Z" fill="#333"/>
        <path id="パス_1475" data-name="パス 1475" d="M1793.456,2840.971c1.1,0,6.347.114,6.347,3.978,0,2.344-1.77,3.4-3.058,4.024-.805.391-.9.437-.9.69a40.8,40.8,0,0,0,2.392,5.5,2.863,2.863,0,0,0,2.713,1.84c.23,0,.69,0,.69.367,0,.322-.46.368-.575.368h-2.874a1.127,1.127,0,0,1-1.081-.667c-.138-.231-1.771-3.794-2.024-4.369-1.264-2.782-1.426-3.151-2.23-3.151h-1.265c-.161,0-.46.092-.529.277-.092.229-.092,3.264-.092,3.794,0,2.783,0,3.381,2.116,3.381.161,0,.483,0,.483.367s-.414.368-.667.368h-5.68c-.23,0-.575-.046-.575-.368,0-.367.322-.367.644-.367,1.587,0,1.817-.737,1.886-1.587.046-.783.046-7.106.046-8.187a36.739,36.739,0,0,0-.185-4.644c-.3-.852-1.287-.852-1.816-.852-.138,0-.621,0-.621-.414,0-.344.414-.344.69-.344Zm-.827.758c-1.656,0-1.656,1.035-1.656,3.4,0,3.61,0,3.679.621,3.679h1.862c2.254,0,4.163-1.241,4.163-3.634,0-1.609-.874-3.449-3.863-3.449Z" fill="#333"/>
        <path id="パス_1476" data-name="パス 1476" d="M1815.681,2857a5.978,5.978,0,0,0,5.5-2.852c.575-.9.621-.989.805-.989a.367.367,0,0,1,.391.368c0,.115-.828,2.3-.966,2.644-.575,1.5-.6,1.564-2.093,1.564h-10.83c-.391,0-.713,0-.713-.368s.23-.367.874-.367a1.525,1.525,0,0,0,1.747-1.2c.069-.39.092-5.679.092-6.346,0-.92,0-6.14-.069-6.553-.23-1.174-1.218-1.174-2.138-1.174-.161,0-.506,0-.506-.367,0-.391.322-.391.713-.391h10.486c1.425,0,1.54.045,2,1.172.138.322.989,2.438.989,2.6a.358.358,0,0,1-.368.344c-.138,0-.184-.045-.713-.781a5.594,5.594,0,0,0-4.415-2.576h-2.552a1.6,1.6,0,0,0-1.38.6c-.276.414-.276.621-.276,2.437,0,.3,0,3.427.069,3.611a.637.637,0,0,0,.552.3h2.023c2.6,0,2.6-1.564,2.6-2.576,0-.068,0-.459.368-.459.391,0,.368.391.368.574-.023.851,0,4.967,0,5.887,0,.115,0,.482-.368.482s-.368-.3-.368-.757c0-1.955-1.311-2.415-2.6-2.415h-2.023a.553.553,0,0,0-.6.528c-.023.185-.023,3.978-.023,4.324,0,1.61,0,2.737,1.656,2.737Z" fill="#333"/>
        <path id="パス_1477" data-name="パス 1477" d="M1834.7,2857a6.8,6.8,0,0,0,5.795-3.128c.436-.644.482-.713.643-.713a.322.322,0,0,1,.345.344c0,.139-.874,2.392-1.012,2.76-.575,1.449-.666,1.472-2.161,1.472h-9.635c-.345,0-.667,0-.667-.368s.253-.367.828-.367a1.527,1.527,0,0,0,1.748-1.2c.068-.39.068-5.679.068-6.346,0-.92,0-6.14-.068-6.553-.208-1.174-1.219-1.174-2.07-1.174-.161,0-.506,0-.506-.367,0-.391.322-.391.667-.391h5.7c.368,0,.689,0,.689.391,0,.367-.253.367-.827.367a1.541,1.541,0,0,0-1.748,1.174c-.069.413-.069,5.31-.069,6.392,0,6.117,0,6.139.069,6.507a1.472,1.472,0,0,0,1.587,1.2Z" fill="#333"/>
        <path id="パス_1478" data-name="パス 1478" d="M1853.778,2857a6.793,6.793,0,0,0,5.8-3.128c.437-.644.483-.713.644-.713a.322.322,0,0,1,.345.344c0,.139-.874,2.392-1.012,2.76-.574,1.449-.667,1.472-2.161,1.472h-9.635c-.345,0-.667,0-.667-.368s.253-.367.827-.367a1.527,1.527,0,0,0,1.749-1.2c.068-.39.068-5.679.068-6.346,0-.92,0-6.14-.068-6.553-.208-1.174-1.219-1.174-2.07-1.174-.161,0-.506,0-.506-.367,0-.391.322-.391.667-.391h5.7c.369,0,.69,0,.69.391,0,.367-.253.367-.827.367a1.541,1.541,0,0,0-1.748,1.174c-.069.413-.069,5.31-.069,6.392,0,6.117,0,6.139.069,6.507a1.472,1.472,0,0,0,1.587,1.2Z" fill="#333"/>
        <path id="パス_1479" data-name="パス 1479" d="M1879.916,2840.971a.386.386,0,0,1,.391.391c0,.367-.345.367-.552.367a3.141,3.141,0,0,0-2.6,1.633c-1.034,1.794-3.495,6.025-3.863,6.968-.23.551-.23.735-.23,2.529,0,2.782.023,3.1.253,3.472.391.6.989.668,1.748.668.782,0,.989,0,.989.367s-.346.368-.621.368h-6.554c-.276,0-.621,0-.621-.368s.368-.367.483-.367c2.231,0,2.507-.231,2.507-2.53,0-3.22.022-3.564-.6-4.691-.322-.6-2.047-3.633-2.392-4.232-1.448-2.6-2.092-3.748-3.472-3.817-.276,0-.6-.022-.6-.367,0-.391.345-.391.6-.391h5.427c.276,0,.621,0,.621.391,0,.367-.368.367-.483.367-.713,0-1.472,0-1.472.828,0,.391.069.529.759,1.748.414.758,2.276,4.047,2.644,4.713.092.185.253.483.414.483s.322-.344.414-.5c.506-.9,3.058-5.289,3.242-5.794a2.31,2.31,0,0,0,.116-.621c0-.852-1.127-.852-1.518-.852-.6,0-.851,0-.851-.367,0-.391.345-.391.6-.391Z" fill="#333"/>
      </g>
    </g>
    <g id="グループ_329" data-name="グループ 329">
      <g id="グループ_328" data-name="グループ 328">
        <path id="パス_1480" data-name="パス 1480" d="M1575.517,2787.706c0,1.814-4.179,3.464-5.5,4.014-.77.275-.825.5-.935,2.419-.11,1.211-.11,5.665-.11,5.94,0,.33,0,.99.495.99.165,0,4.674-1.869,5.554-2.2,5.445-2.036,7.919-2.2,9.349-2.2a8.42,8.42,0,0,1,8.469,8.3c0,7.26-7.644,10.559-12.154,10.559-3.134,0-5.664-1.595-5.664-4.454,0-2.585,2.255-4.345,2.75-4.345a.3.3,0,0,1,.275.275c0,.164-.11.275-.22.44a2.273,2.273,0,0,0-.495,1.484c0,2.641,3.025,2.641,3.575,2.641,3.629,0,8.249-2.42,8.249-6.82,0-3.905-2.915-6.049-5.28-6.049-1.54,0-4.949.714-11.383,4.125-3.08,1.65-3.41,1.814-3.41,2.75,0,.6.165,3.079.165,3.628,0,2.53-.825,6.16-2.805,6.16-1.484,0-2.089-1.156-2.529-2.035-1.76-3.41-2.035-3.41-2.75-3.41a4.628,4.628,0,0,0-1.375.33,10.883,10.883,0,0,1-2.089,1.1c-.6,0-3.41-1.649-3.41-3.465,0-.989.6-2.144,1.595-2.144.33,0,1.924.275,2.255.275,1.484,0,2.474-.275,5.719-1.869,2.8-1.375,3.135-1.541,3.135-3.08,0-1.265-.056-5.94-.111-6.874,0-.386-.164-1.21-.769-1.21a12.873,12.873,0,0,0-2.53.495c-2.8.935-3.08,1.045-3.9,1.045-1.871,0-3.96-3.795-3.96-4.18a.39.39,0,0,1,.44-.385c.165,0,.825.22.99.22a15.979,15.979,0,0,0,2.53.276,24.007,24.007,0,0,0,6.983-1.651c.275-.385.55-5.389.55-5.994a5.4,5.4,0,0,0-1.814-4.4,5.5,5.5,0,0,1-.77-.88c0-.494.88-.6,1.21-.6,3.684,0,5.664,2.7,5.664,3.739a22.093,22.093,0,0,1-1.155,2.86,29.384,29.384,0,0,0-.55,3.574c0,.221.11.606.44.606.385,0,1.925-.606,1.925-1.375,0-.11-.275-.661-.275-.77,0-.055.11-.165.22-.221C1572.878,2785.231,1575.517,2786,1575.517,2787.706Zm-12.538,21.062c0,.824,1.485,2.584,2.309,2.584.771,0,1.541-1.539,1.541-4.234,0-.22,0-.77-.166-.879C1566.5,2806.239,1562.979,2808,1562.979,2808.768Zm36.13-17.1c0,1.155-.66,2.64-1.815,2.64-.33,0-1.594-.11-1.869-.11-.275.054-1.43.385-1.65.385a.257.257,0,0,1-.275-.275,3.792,3.792,0,0,1,.165-.44,2.9,2.9,0,0,0,.22-.99c0-2.2-2.75-2.97-4.619-2.97a4.763,4.763,0,0,0-2.145.551,1.241,1.241,0,0,1-.55.164c-.165,0-.22-.055-.22-.219a7.032,7.032,0,0,1,5.939-3.465C1596.524,2786.936,1599.109,2789.135,1599.109,2791.665Z" fill="#333"/>
        <path id="パス_1481" data-name="パス 1481" d="M1652.362,2792.709a48.433,48.433,0,0,0,13.308,4.345c.22,0,1.155.165,1.155.386,0,.164-.77.385-.99.439a9.531,9.531,0,0,0-4.18,2.969c-.164.221-.769,1.375-1.044,1.375-.33,0-12.264-5.773-17.653-14.572-1.045-1.76-1.21-1.925-1.595-1.925s-.495.11-1.705,1.374a65.385,65.385,0,0,1-16.278,12.815c-1.869.989-7.589,3.519-8.633,3.519-.166,0-.275-.11-.275-.166s5.884-3.684,6.379-4.014c7.424-4.674,15.288-13.088,16.058-17.213.055-.439.109-.6.495-.6.275,0,4.729,1.705,5,1.87.165.056.715.275.715.825a3.454,3.454,0,0,1-.22.77C1643.013,2785.726,1647.742,2790.345,1652.362,2792.709Zm-26.507-13.693c-4.069,0-5.939.11-6.984.166-.165,0-.99.109-1.155.109s-.275-.109-.495-.33l-1.044-1.264c-.221-.275-.221-.275-.221-.385s.056-.11.166-.11c.384,0,2.089.165,2.419.165,2.695.11,5,.219,7.589.219h1.595c1.155,0,1.485-.548,1.485-1.484a8.933,8.933,0,0,0-.44-2.914,8.317,8.317,0,0,1-.33-1.1c0-.274.275-.384.605-.384.385,0,2.859.6,3.464.77,1.65.44,1.98.549,1.98,1.045,0,.329-.055.439-.825,1.43a1.341,1.341,0,0,0-.385.989c0,1.319.44,1.649,1.925,1.649h9.074c.495,0,1.65,0,1.65-1.484a23.1,23.1,0,0,0-.165-2.475c-.056-.275-.33-1.429-.33-1.65,0-.274.33-.385.6-.385.384,0,4.124.881,4.729,1.045s.935.385.935.881c0,.329-.22.549-.825.989a1.764,1.764,0,0,0-.715,1.54c0,1.539.88,1.539,1.76,1.539h2.8c2.42,0,2.7,0,3.52-.934,1.54-1.815,1.705-2.034,2.2-2.034.329,0,5.114,2.914,5.114,3.629,0,.769-1.1.769-2.915.769h-10.723c-1.7,0-1.7.881-1.7,2.2,0,.33.055,2.2.055,2.475,0,2.035-1.65,2.364-2.8,2.364-1.264,0-1.485-.219-1.485-2.089v-3.8c-.165-1.045-.824-1.155-1.7-1.155h-8.8c-1.265,0-2.035,0-2.035,1.541,0,.549.165,2.969.165,3.464,0,1.045-.165,1.54-.66,1.87a3.906,3.906,0,0,1-2.09.77c-.934,0-1.374-.606-1.374-1.7,0-.44.054-2.53.054-2.915,0-2.144,0-3.025-1.7-3.025Zm3.905,28.1a28.2,28.2,0,0,1,4.234,2.585,1.359,1.359,0,0,1,.44.825c0,.66-.44.769-1.76,1.1-.165.055-4.894,3.74-5.774,4.4-4.949,3.519-8.084,4.784-8.359,4.784a.175.175,0,0,1-.165-.165c0-.11,2.915-2.64,3.3-3.024,4.564-4.344,7.369-8.69,7.863-10.45A.339.339,0,0,1,1629.76,2807.118Zm2.529-2.914c-4.289,0-5.884.054-6.984.164-.165,0-.99.111-1.155.111s-.275-.111-.494-.33l-1.045-1.266c-.22-.275-.22-.275-.22-.384,0-.055.055-.11.165-.11.384,0,2.089.164,2.42.164,2.694.166,5,.221,7.588.221h4.125c.55,0,1.649,0,1.649-1.485,0-.66-.329-5.115-.44-5.665,0-.11-.329-.66-.329-.77s.11-.329.55-.329c.384,0,4.234.825,4.784.989.77.166,1.045.66,1.045.936,0,.33-.11.439-.935,1.154-.77.66-.77.99-.77,2.64,0,1.979,0,2.53,1.65,2.53h2.419c2.42,0,2.695,0,3.52-.936,1.54-1.814,1.7-2.034,2.2-2.034.33,0,5.114,2.97,5.114,3.63,0,.77-1.1.77-2.915.77h-10.393c-1.65,0-1.65.99-1.65,2.75,0,3.9,0,6.1.11,9.347.055.936.055,2.256.055,2.915,0,1.76-.44,2.8-2.805,2.8-1.21,0-1.32-.989-1.32-1.925,0-.715.165-4.014.165-4.729.056-2.089.056-4.124.056-6.654a33.028,33.028,0,0,0-.111-3.74c-.275-.769-1.154-.769-1.594-.769Zm14.684,4.619c0-.165.274-.22.494-.22,2.035,0,14.573,3.464,14.573,8.028,0,1.76-.989,3.135-2.364,3.135-1.045,0-1.265-.275-2.97-2.805-2.584-3.9-6.379-6.159-9.459-7.919C1647.192,2809.042,1646.973,2808.877,1646.973,2808.823Z" fill="#333"/>
        <path id="パス_1482" data-name="パス 1482" d="M1712.791,2816.412c0,1.045-.385,2.089-1.21,2.089-2.419,0-3.3-4.784-3.739-7.094-.275-1.374-1.485-7.368-1.76-8.633-.165-.99-.44-1.7-1.43-1.7-.22,0-6.764,1.539-9.459,2.42a29.376,29.376,0,0,1-3.354,1.429c-.825,0-6.324-2.419-6.324-4.07,0-.439.384-.549.66-.549.494,0,2.8.22,3.3.22,4.18,0,7.479-.66,13.363-1.87,1.43-.275,1.76-.494,1.76-1.43a30.68,30.68,0,0,0-1.155-5.5c-.385-1.375-.6-1.925-1.429-1.925-1.266,0-7.479,2.09-7.644,2.09-1.266,0-5.005-1.98-5.005-2.969,0-.386.66-.386,1.155-.386a51.121,51.121,0,0,0,8.469-.934c1.925-.44,2.749-.77,2.749-1.815,0-.22-.659-5.445-3.079-7.534a22.82,22.82,0,0,1-2.53-1.98c0-.33,1.65-.935,2.86-.935,1.1,0,4.949,1.209,5.114,2.31.11.77.22,3.96.33,4.619.495,3.575,1.1,3.575,1.87,3.575a33.458,33.458,0,0,0,4.784-1.485c2.365-1.045,2.64-1.155,3.41-1.155,1.759,0,3.244,1.155,3.244,2.035,0,1.1-1.045,1.32-5.059,2.09-4.455.88-4.949,1.045-5.554,1.209-.99.33-1.045.77-1.045,1.375a35.787,35.787,0,0,0,.99,4.949c.495,1.87.715,2.365,1.7,2.365a36.846,36.846,0,0,0,7.039-2.09,11.25,11.25,0,0,1,5.445-1.375c2.914,0,4.124,1.486,4.124,2.42,0,1.651-2.254,1.7-4.234,1.7a58.006,58.006,0,0,0-9.9,1.6c-2.31.495-2.42.825-2.42,1.87C1708.831,2802.774,1712.791,2813.993,1712.791,2816.412Zm13.968-32.006c0,.66-.66,2.09-1.705,2.09-.769,0-1.265-.5-2.749-2.64-.77-1.154-1.155-1.484-3.63-3.574-.165-.165-.715-.66-.715-.88,0-.276.495-.386.99-.386C1722.91,2779.016,1726.759,2781.931,1726.759,2784.406Zm5.005-5.115c0,.606-.44,1.651-1.431,1.651-1.154,0-1.869-.936-2.8-2.2a14.055,14.055,0,0,0-4.619-3.3c-.55-.275-.715-.494-.715-.66,0-.549,1.76-.549,2.09-.549C1727.254,2774.233,1731.764,2776.157,1731.764,2779.291Z" fill="#333"/>
        <path id="パス_1483" data-name="パス 1483" d="M1784.1,2795.24c0,.88-.77,1.155-1.76,1.484-1.155.386-1.43.6-3.9,2.42-.935.66-4.29,2.97-5.005,2.97a.287.287,0,0,1-.275-.276c0-.6,4.785-5.718,4.785-7.093,0-.385-.385-.44-.6-.44-.275,0-6.874,1.594-7.644,1.76-1.98.494-2.2.549-2.2,1.43s2.86,9.953,4.73,14.682c1.264,3.245,1.539,4.07,1.539,5.06,0,1.154-.55,2.309-1.155,2.309a5.714,5.714,0,0,1-3.3-3.079c-.275-.881-3.245-13.693-4.015-16.223-.66-2.2-.77-2.475-1.54-2.475a33.032,33.032,0,0,0-6.213,1.76c-2.255.934-2.475,1.045-2.805,1.045-.55,0-.825-.165-3.245-1.815a2.2,2.2,0,0,1-1.1-1.979c0-.33.055-1.375.495-1.375.165,0,.99.33,1.21.385a8.733,8.733,0,0,0,2.915.439,41.2,41.2,0,0,0,7.7-.989,1,1,0,0,0,.77-.88c0-.88-.88-4.675-2.695-6.159-.22-.165-1.1-.715-1.265-.826a.418.418,0,0,1-.11-.275c0-.879,2.255-.879,2.75-.879,2.255,0,4.069.44,4.069,2.2,0,2.7,0,5.664,1.265,5.664a53.461,53.461,0,0,0,8.139-1.705,28.042,28.042,0,0,1,3.244-1.429C1780.467,2790.95,1784.1,2793.809,1784.1,2795.24Z" fill="#333"/>
        <path id="パス_1484" data-name="パス 1484" d="M1815.374,2815.862c17.158-9.238,21.667-21.117,21.667-22.272,0-.66-.385-1.045-1.155-1.045-1.87,0-15.673,2.419-18.093,3.135a23.386,23.386,0,0,1-2.529.934c-2.365,0-6.269-4.729-6.269-6.269a.307.307,0,0,1,.33-.274,7.913,7.913,0,0,1,.989.439,15.438,15.438,0,0,0,5.445.935c4.509,0,15.453-1.43,17.488-1.65.109,0,3.739-.33,3.794-.33a9.523,9.523,0,0,1,1.595-.6c.935,0,4.839,3.245,4.839,4.51,0,.825-.22,1.045-1.485,2.089-.935.77-1.485,1.595-2.97,3.905-4.344,6.6-7.753,10.723-15.507,14.683a38.877,38.877,0,0,1-9.734,3.575.439.439,0,0,1-.495-.44.589.589,0,0,1,.11-.33C1813.5,2816.742,1815.044,2816.027,1815.374,2815.862Zm1.374-35.965a13.52,13.52,0,0,0,2.915.22,52.691,52.691,0,0,0,8.8-.6c.825-.166,4.619-1.1,5.389-1.1.935,0,3.355.495,3.355,2.089,0,1.706-1.925,1.871-5.114,2.145-.88.11-12.7,1.155-13.089,1.155-2.914,0-4.564-3.74-4.564-4.125,0-.274.11-.385.33-.385C1815.1,2779.291,1816.418,2779.842,1816.748,2779.9Z" fill="#333"/>
        <path id="パス_1485" data-name="パス 1485" d="M1871.732,2778.687c1.32,0,4.345,1.925,4.345,2.859,0,.275-.11,1.54-.11,1.816,0,6.379.11,11.328.164,12.647.055.66.33,3.409.33,3.96,0,1.43-1.264,2.8-2.089,2.8-1.21,0-2.475-2.915-2.475-4.345,0-.44.275-2.309.275-2.749.11-2.475.11-4.62.11-5.609,0-6.16-.275-7.425-1.98-9.405-.44-.5-.715-.824-.715-1.264C1869.587,2779.016,1870.467,2778.687,1871.732,2778.687Zm15.123-1.54c-.66-.88-.715-.99-.715-1.1,0-.165,0-.33,1.595-.33,3.3,0,6.049,1.375,6.049,2.8a21.372,21.372,0,0,1-.55,2.2c-.22,1.486-.275,9.735-.44,11.658-.33,3.906-1.375,15.674-13.748,25.518-1.595,1.265-4.344,3.244-4.949,3.244-.22,0-.33-.109-.33-.275,0-.22,3.574-3.74,4.234-4.454,10.614-11.329,11-20.9,11-31.9C1889,2780.227,1888.01,2778.8,1886.855,2777.147Z" fill="#333"/>
        <path id="パス_1486" data-name="パス 1486" d="M1957.545,2794.3c.33,0,.935-.056,1.21-.056,3.354,0,3.849,2.036,3.849,2.42,0,1.54-2.254,1.705-4.564,1.705-1.265,0-6.764-.11-7.864-.11-7.589,0-20.182.715-21.5.99-.66.11-3.63.99-4.29.99-2.364,0-4.894-3.41-4.894-5.28,0-.329.165-.659.44-.659s1.595.6,1.87.659a29.887,29.887,0,0,0,6.709.495C1930.324,2795.459,1949.516,2794.745,1957.545,2794.3Z" fill="#333"/>
      </g>
    </g>
  </g>
</svg>
