<svg id="instagram_txt_w" xmlns="http://www.w3.org/2000/svg" width="120.506" height="16.727" viewBox="0 0 120.506 16.727">
  <g id="グループ_63" data-name="グループ 63" transform="translate(-589.314 -4591.477)">
    <g id="グループ_62" data-name="グループ 62">
      <g id="グループ_61" data-name="グループ 61">
        <path id="パス_249" data-name="パス 249" d="M618.687,4594.941a8.156,8.156,0,0,0-.117,1.456v6.968a8.047,8.047,0,0,0,.117,1.456h-1.235a7.862,7.862,0,0,0,.1-1.456V4596.4a7.781,7.781,0,0,0-.1-1.456Z" fill="#fff"/>
        <path id="パス_250" data-name="パス 250" d="M623.844,4594.941a6.766,6.766,0,0,0,.663,1.17l4.108,6.149c.143.221.533.858.845,1.417-.052-1.04-.078-1.612-.078-1.729v-5.512a8.23,8.23,0,0,0-.1-1.5h1.209a8.142,8.142,0,0,0-.1,1.5v6.929a7.429,7.429,0,0,0,.1,1.456H629.07a8.809,8.809,0,0,0-.676-1.17l-4.173-6.266c-.1-.156-.533-.9-.715-1.248.052.611.078,1.248.078,1.586v5.551a8.3,8.3,0,0,0,.1,1.547h-1.209a8.3,8.3,0,0,0,.1-1.547V4596.4a8.142,8.142,0,0,0-.1-1.456Z" fill="#fff"/>
        <path id="パス_251" data-name="パス 251" d="M639.9,4597.5a2.124,2.124,0,0,0-.455-1.079,2.413,2.413,0,0,0-1.925-.754c-1.338,0-2.274.715-2.274,1.768a1.529,1.529,0,0,0,1.13,1.469,9.512,9.512,0,0,0,1.86.468c2.08.442,2.912,1.235,2.912,2.743,0,1.833-1.261,2.873-3.5,2.873a3.71,3.71,0,0,1-3.133-1.235,3.341,3.341,0,0,1-.612-1.716l1.132-.143a2.019,2.019,0,0,0,.4,1.287,2.635,2.635,0,0,0,2.172.9c1.547,0,2.483-.728,2.483-1.937a1.485,1.485,0,0,0-.754-1.391,6.39,6.39,0,0,0-2.146-.637,5.916,5.916,0,0,1-1.768-.6,2.222,2.222,0,0,1-1.209-2.054c0-1.638,1.313-2.691,3.329-2.691a3.428,3.428,0,0,1,2.873,1.2,3.005,3.005,0,0,1,.572,1.378Z" fill="#fff"/>
        <path id="パス_252" data-name="パス 252" d="M648.318,4603.352a7.929,7.929,0,0,0,.1,1.469H647.2a7.748,7.748,0,0,0,.1-1.469v-7.5h-2.028a9.353,9.353,0,0,0-1.495.091v-1.092a9.176,9.176,0,0,0,1.482.091h5.07a9.16,9.16,0,0,0,1.535-.091v1.092a9.374,9.374,0,0,0-1.535-.091h-2.014Z" fill="#fff"/>
        <path id="パス_253" data-name="パス 253" d="M660.836,4604.821a9.33,9.33,0,0,0-.4-1.326l-.676-1.677H655.22l-.676,1.677a7.267,7.267,0,0,0-.4,1.326h-1.352a8.3,8.3,0,0,0,.7-1.495l2.912-7.176a7.378,7.378,0,0,0,.416-1.209h1.313a7.029,7.029,0,0,0,.442,1.209l2.912,7.176a12.912,12.912,0,0,0,.689,1.495Zm-3.068-8.19c-.039-.1-.039-.117-.286-.832-.065.2-.117.338-.143.429-.078.208-.117.351-.143.4l-1.664,4.29h3.913Z" fill="#fff"/>
        <path id="パス_254" data-name="パス 254" d="M670.809,4600.752a7.028,7.028,0,0,0-1.339.078v-1.053a7.985,7.985,0,0,0,1.417.078h.377a13.512,13.512,0,0,0,1.378-.052,8.912,8.912,0,0,0-.091,1.469v1.2a8.339,8.339,0,0,0,.091,1.443,6.76,6.76,0,0,1-1.768.806,7.507,7.507,0,0,1-1.937.247,4.349,4.349,0,0,1-2.964-.962,5.454,5.454,0,0,1-1.6-4.147c0-3.133,1.768-5.122,4.538-5.122a3.956,3.956,0,0,1,2.782.962,3.7,3.7,0,0,1,.949,1.482l-1.014.338a2.617,2.617,0,0,0-2.73-1.872c-2.145,0-3.459,1.6-3.459,4.212a4.747,4.747,0,0,0,1.093,3.3,3.155,3.155,0,0,0,2.418.936,4.638,4.638,0,0,0,2.626-.728v-2.613Z" fill="#fff"/>
        <path id="パス_255" data-name="パス 255" d="M682.874,4604.821a9.065,9.065,0,0,0-.767-2.223c-.754-1.781-1.261-2.288-2.3-2.288H677.4v3.042a7.833,7.833,0,0,0,.1,1.469H676.3a7.862,7.862,0,0,0,.1-1.456V4596.4a9.311,9.311,0,0,0-.1-1.5c.455.026.819.039,1.417.039h2.86c1.885,0,2.925.884,2.925,2.5a2.347,2.347,0,0,1-.78,1.911,2.676,2.676,0,0,1-1.4.65c.533.156.858.507,1.326,1.43.312.611.624,1.287,1.027,2.184a11.9,11.9,0,0,0,.585,1.209Zm-2.392-5.408a2.075,2.075,0,0,0,1.469-.559,1.716,1.716,0,0,0,.494-1.313c0-1.1-.65-1.7-1.885-1.7H677.4v3.575Z" fill="#fff"/>
        <path id="パス_256" data-name="パス 256" d="M695.116,4604.821a9.33,9.33,0,0,0-.4-1.326l-.676-1.677H689.5l-.676,1.677a7.271,7.271,0,0,0-.4,1.326h-1.352a8.3,8.3,0,0,0,.7-1.495l2.912-7.176a7.386,7.386,0,0,0,.416-1.209h1.313a7.026,7.026,0,0,0,.442,1.209l2.912,7.176a12.92,12.92,0,0,0,.689,1.495Zm-3.068-8.19c-.039-.1-.039-.117-.286-.832-.065.2-.117.338-.143.429-.078.208-.117.351-.143.4l-1.664,4.29h3.913Z" fill="#fff"/>
        <path id="パス_257" data-name="パス 257" d="M701.11,4597.658a11.988,11.988,0,0,1-.585-1.612c.039.559.091,1.365.091,1.677v5.564a8.241,8.241,0,0,0,.1,1.534h-1.183a8.6,8.6,0,0,0,.1-1.534v-6.8a8.947,8.947,0,0,0-.1-1.547h1.508a6.228,6.228,0,0,0,.429,1.287l3.211,7.163,3.2-7.163a6.593,6.593,0,0,0,.442-1.287h1.495a8.95,8.95,0,0,0-.1,1.547v6.8a8.32,8.32,0,0,0,.1,1.534h-1.183a8.69,8.69,0,0,0,.1-1.534v-5.642c0-.364.039-1.066.091-1.6a8.472,8.472,0,0,1-.559,1.586l-2.652,5.837a7.372,7.372,0,0,0-.494,1.352H704.2a6.717,6.717,0,0,0-.481-1.365Z" fill="#fff"/>
      </g>
    </g>
  </g>
  <g id="グループ_65" data-name="グループ 65" transform="translate(-589.314 -4591.477)">
    <g id="グループ_64" data-name="グループ 64">
      <path id="パス_258" data-name="パス 258" d="M601.157,4608.2H594.17a4.861,4.861,0,0,1-4.856-4.856v-7.015a4.861,4.861,0,0,1,4.856-4.856h6.987a4.862,4.862,0,0,1,4.856,4.856v7.015A4.862,4.862,0,0,1,601.157,4608.2Zm-6.987-15.2a3.33,3.33,0,0,0-3.326,3.325v7.015a3.329,3.329,0,0,0,3.326,3.326h6.987a3.329,3.329,0,0,0,3.325-3.326v-7.015a3.329,3.329,0,0,0-3.325-3.325Z" fill="#fff"/>
      <path id="パス_259" data-name="パス 259" d="M597.664,4604.118a4.278,4.278,0,1,1,4.277-4.277A4.283,4.283,0,0,1,597.664,4604.118Zm0-7.056a2.779,2.779,0,1,0,2.778,2.779A2.781,2.781,0,0,0,597.664,4597.062Z" fill="#fff"/>
      <path id="パス_260" data-name="パス 260" d="M603.169,4595.4a1.02,1.02,0,1,1-1.02-1.02A1.02,1.02,0,0,1,603.169,4595.4Z" fill="#fff"/>
    </g>
  </g>
</svg>
