<svg id="instagram_txt" xmlns="http://www.w3.org/2000/svg" width="120.506" height="16.727" viewBox="0 0 120.506 16.727">
  <g id="グループ_57" data-name="グループ 57" transform="translate(-890.832 -4592.958)">
    <g id="グループ_56" data-name="グループ 56">
      <g id="グループ_55" data-name="グループ 55">
        <path id="パス_237" data-name="パス 237" d="M920.205,4596.422a8.156,8.156,0,0,0-.117,1.456v6.968a8.047,8.047,0,0,0,.117,1.456H918.97a7.862,7.862,0,0,0,.1-1.456v-6.968a7.781,7.781,0,0,0-.1-1.456Z" fill="#595959"/>
        <path id="パス_238" data-name="パス 238" d="M925.362,4596.422a6.8,6.8,0,0,0,.663,1.17l4.108,6.149c.143.221.533.858.845,1.417-.052-1.04-.078-1.612-.078-1.729v-5.512a8.223,8.223,0,0,0-.1-1.5h1.209a8.142,8.142,0,0,0-.1,1.5v6.929a7.426,7.426,0,0,0,.1,1.456h-1.417a8.809,8.809,0,0,0-.676-1.17l-4.173-6.266c-.1-.156-.533-.9-.715-1.248.052.611.078,1.248.078,1.586v5.551a8.3,8.3,0,0,0,.1,1.547H924a8.3,8.3,0,0,0,.1-1.547v-6.877a8.135,8.135,0,0,0-.1-1.456Z" fill="#595959"/>
        <path id="パス_239" data-name="パス 239" d="M941.415,4598.983a2.132,2.132,0,0,0-.455-1.08,2.414,2.414,0,0,0-1.924-.753c-1.339,0-2.275.715-2.275,1.768a1.531,1.531,0,0,0,1.131,1.469,9.581,9.581,0,0,0,1.859.468c2.081.442,2.912,1.235,2.912,2.743,0,1.833-1.26,2.873-3.5,2.873a3.711,3.711,0,0,1-3.133-1.235,3.35,3.35,0,0,1-.611-1.716l1.131-.143a2.025,2.025,0,0,0,.4,1.287,2.633,2.633,0,0,0,2.171.9c1.548,0,2.483-.728,2.483-1.937a1.483,1.483,0,0,0-.754-1.391,6.38,6.38,0,0,0-2.145-.637,5.906,5.906,0,0,1-1.768-.6,2.22,2.22,0,0,1-1.209-2.055c0-1.637,1.313-2.69,3.328-2.69a3.424,3.424,0,0,1,2.873,1.2,2.985,2.985,0,0,1,.572,1.378Z" fill="#595959"/>
        <path id="パス_240" data-name="パス 240" d="M949.835,4604.833a8.011,8.011,0,0,0,.1,1.469h-1.222a7.748,7.748,0,0,0,.1-1.469v-7.5h-2.028a9.488,9.488,0,0,0-1.5.09v-1.091a9.177,9.177,0,0,0,1.482.091h5.07a9.146,9.146,0,0,0,1.534-.091v1.091a9.484,9.484,0,0,0-1.534-.09h-2.015Z" fill="#595959"/>
        <path id="パス_241" data-name="パス 241" d="M962.354,4606.3a9.33,9.33,0,0,0-.4-1.326l-.676-1.677h-4.537l-.676,1.677a7.279,7.279,0,0,0-.4,1.326h-1.352a8.275,8.275,0,0,0,.7-1.495l2.912-7.177a7.351,7.351,0,0,0,.416-1.208h1.313a7,7,0,0,0,.442,1.208l2.912,7.177a12.912,12.912,0,0,0,.689,1.495Zm-3.068-8.191c-.039-.1-.039-.116-.286-.832-.065.2-.117.339-.143.43-.078.208-.117.351-.143.4l-1.664,4.291h3.913Z" fill="#595959"/>
        <path id="パス_242" data-name="パス 242" d="M972.327,4602.233a7.022,7.022,0,0,0-1.339.078v-1.053a7.932,7.932,0,0,0,1.416.078h.377a13.39,13.39,0,0,0,1.379-.052,8.912,8.912,0,0,0-.091,1.469v1.2a8.337,8.337,0,0,0,.091,1.443,6.782,6.782,0,0,1-1.769.806,7.529,7.529,0,0,1-1.937.247,4.351,4.351,0,0,1-2.964-.962,5.457,5.457,0,0,1-1.6-4.147c0-3.133,1.768-5.123,4.537-5.123a3.957,3.957,0,0,1,2.783.963,3.7,3.7,0,0,1,.949,1.482l-1.014.338a2.618,2.618,0,0,0-2.731-1.872c-2.145,0-3.458,1.6-3.458,4.212a4.742,4.742,0,0,0,1.093,3.3,3.149,3.149,0,0,0,2.417.936,4.634,4.634,0,0,0,2.626-.728v-2.613Z" fill="#595959"/>
        <path id="パス_243" data-name="パス 243" d="M984.392,4606.3a9.065,9.065,0,0,0-.767-2.223c-.754-1.781-1.261-2.288-2.3-2.288h-2.4v3.042a7.833,7.833,0,0,0,.1,1.469h-1.209a7.862,7.862,0,0,0,.1-1.456v-6.968a9.315,9.315,0,0,0-.1-1.5c.455.027.819.04,1.417.04h2.86c1.885,0,2.925.884,2.925,2.5a2.347,2.347,0,0,1-.78,1.911,2.672,2.672,0,0,1-1.4.65c.533.156.858.507,1.326,1.43.312.611.624,1.287,1.027,2.184a11.853,11.853,0,0,0,.585,1.209ZM982,4600.894a2.075,2.075,0,0,0,1.469-.559,1.716,1.716,0,0,0,.494-1.313c0-1.1-.65-1.7-1.885-1.7h-3.159v3.576Z" fill="#595959"/>
        <path id="パス_244" data-name="パス 244" d="M996.634,4606.3a9.322,9.322,0,0,0-.4-1.326l-.676-1.677h-4.537l-.676,1.677a7.278,7.278,0,0,0-.4,1.326h-1.352a8.278,8.278,0,0,0,.7-1.495l2.912-7.177a7.352,7.352,0,0,0,.416-1.208h1.313a7,7,0,0,0,.442,1.208l2.912,7.177a12.92,12.92,0,0,0,.689,1.495Zm-3.068-8.191c-.039-.1-.039-.116-.286-.832-.065.2-.117.339-.143.43-.078.208-.117.351-.143.4l-1.664,4.291h3.913Z" fill="#595959"/>
        <path id="パス_245" data-name="パス 245" d="M1002.628,4599.139a12.012,12.012,0,0,1-.585-1.613c.039.56.091,1.366.091,1.678v5.564a8.234,8.234,0,0,0,.1,1.534h-1.183a8.6,8.6,0,0,0,.1-1.534v-6.8a8.935,8.935,0,0,0-.1-1.547h1.508a6.247,6.247,0,0,0,.429,1.287l3.211,7.163,3.2-7.163a6.615,6.615,0,0,0,.442-1.287h1.495a8.856,8.856,0,0,0-.1,1.547v6.8a8.234,8.234,0,0,0,.1,1.534h-1.183a8.7,8.7,0,0,0,.1-1.534v-5.642c0-.364.039-1.066.091-1.6a8.531,8.531,0,0,1-.559,1.587l-2.652,5.837a7.372,7.372,0,0,0-.494,1.352h-.923a6.717,6.717,0,0,0-.481-1.365Z" fill="#595959"/>
      </g>
    </g>
  </g>
  <g id="グループ_59" data-name="グループ 59" transform="translate(-890.832 -4592.958)">
    <g id="グループ_58" data-name="グループ 58">
      <path id="パス_246" data-name="パス 246" d="M902.675,4609.685h-6.987a4.862,4.862,0,0,1-4.856-4.856v-7.015a4.862,4.862,0,0,1,4.856-4.856h6.987a4.862,4.862,0,0,1,4.856,4.856v7.015A4.862,4.862,0,0,1,902.675,4609.685Zm-6.987-15.2a3.33,3.33,0,0,0-3.326,3.326v7.015a3.329,3.329,0,0,0,3.326,3.325h6.987a3.328,3.328,0,0,0,3.325-3.325v-7.015a3.329,3.329,0,0,0-3.325-3.326Z" fill="#595959"/>
      <path id="パス_247" data-name="パス 247" d="M899.181,4605.6a4.278,4.278,0,1,1,4.277-4.277A4.282,4.282,0,0,1,899.181,4605.6Zm0-7.056a2.779,2.779,0,1,0,2.779,2.779A2.781,2.781,0,0,0,899.181,4598.543Z" fill="#595959"/>
      <path id="パス_248" data-name="パス 248" d="M904.687,4596.877a1.02,1.02,0,1,1-1.02-1.019A1.02,1.02,0,0,1,904.687,4596.877Z" fill="#595959"/>
    </g>
  </g>
</svg>
