<svg xmlns="http://www.w3.org/2000/svg" width="218.254" height="390.123" viewBox="0 0 218.254 390.123">
  <g id="lead" transform="translate(0.424)">
    <g id="グループ_12" data-name="グループ 12" transform="translate(-268.45 -162.587)">
      <path id="パス_42" data-name="パス 42" d="M480.731,189.526V187.1h-13.14v2.43h-2.28V164.717h17.7v24.809Zm0-22.739h-13.14v8.04h13.14Zm0,10.11h-13.14v8.129h13.14Z" fill="#333"/>
      <path id="パス_43" data-name="パス 43" d="M467.921,211.1a16.578,16.578,0,0,0-2.67-2.88l1.41-1.38a13.81,13.81,0,0,1,3.03,3.18l-1.05,1.08h4.05v-5.19c.75.03,1.11,0,1.83.06.75.06,1.29.15,1.29.45s-.87.54-.87.87v3.81h4.14l-1.17-1.08a11.212,11.212,0,0,0,2.579-3.57,9.936,9.936,0,0,1,1.44.9c.39.33.69.69.571.9-.12.18-.511.06-.781.45s-1.2,1.71-1.769,2.4h6.329v6.39h-2.129v-4.41h-20.37V218H461.5v-6.9Zm15.779,12.69v5.819c0,1.14.06,2.37-4.17,2.61l-1.259-2.49c1.23.06,2.1.09,2.1.09,1.26,0,1.289-.6,1.289-1.17v-2.97h-6.839v8.01h-2.13v-8.01h-6.66v6.57H463.9v-8.459h8.79v-2.1h-6v-6.75H480.61v6.75h-5.789v2.1Zm-5.13-7.05h-9.839v3.15h9.839Z" fill="#333"/>
      <path id="パス_44" data-name="パス 44" d="M475.721,272.866c5.61-1.47,8.1-5.669,8.1-9.959a8.819,8.819,0,0,0-4.679-7.47,9.293,9.293,0,0,0-4.02-.87,40.466,40.466,0,0,1-4.65,14.88c-.72,1.38-1.98,3.659-3.51,3.659-2.94,0-5.249-4.919-5.249-8.339a12.457,12.457,0,0,1,12.6-12.27c6.87,0,11.729,4.32,11.729,10.68,0,5.759-4.019,10.019-9.059,11.729Zm-8.19-15.9c-1.56,1.44-3.75,4.29-3.75,7.65s2.07,5.519,3.06,5.519c.84,0,1.56-1.2,2.01-1.949,1.2-1.95,3.9-9.18,3.75-13.53A9.694,9.694,0,0,0,467.531,256.967Z" fill="#333"/>
      <path id="パス_45" data-name="パス 45" d="M472.661,293.117s1.29.09,1.77.15c.45.03,1.05-.06,1.05.36,0,.36-.54.27-.54.63v5.52h10.77v12.63H483.43v-1.68h-8.489v9.9h-2.28v-9.9h-8.339v1.529h-2.281V299.777h10.62Zm0,8.73h-8.339v6.81h8.339Zm10.769,0h-8.489v6.81h8.489Z" fill="#333"/>
      <path id="パス_46" data-name="パス 46" d="M466.961,340.037a35.1,35.1,0,0,0-2.16,11.67,41.655,41.655,0,0,0,.51,6.12h.06l1.47-4.47,1.74,1.23a37.791,37.791,0,0,0-1.92,6.959l-1.92.27a22.965,22.965,0,0,1-1.859-8.909,43.845,43.845,0,0,1,1.23-10.98c.269-1.05.48-2.22.569-2.82Zm6.33,13.56a10.614,10.614,0,0,0,.18,2.31c.57,1.709,2.1,2.129,4.26,2.129a20.915,20.915,0,0,0,7.65-1.23v2.34a32.635,32.635,0,0,1-7.26.81c-1.8,0-4.08.06-5.31-1.259-1.32-1.351-1.44-3.27-1.44-4.77Zm-.75-12.39a31.755,31.755,0,0,0,4.65.27,26.949,26.949,0,0,0,6.81-1.2l.119,2.31a52.166,52.166,0,0,1-6.959.81c-1.53,0-3.39.03-4.38-.09Z" fill="#333"/>
      <path id="パス_47" data-name="パス 47" d="M401.37,166.337H375.422v-1.83H403.17v9.9h-1.8Z" fill="#333"/>
      <path id="パス_48" data-name="パス 48" d="M387.661,193.667a33.267,33.267,0,0,0-.57,5.13,32.4,32.4,0,0,0,5.34-1.35l.179,2.28a50.6,50.6,0,0,1-5.549,1.08v4.65a20.775,20.775,0,0,1,6.719-1.59,5.926,5.926,0,0,1,6.03,6.119c0,5.01-3.749,6-5.729,6a5.238,5.238,0,0,1-3.48-1.29l1.23-1.71a4.4,4.4,0,0,0,2.31.78,3.589,3.589,0,0,0,3.6-3.869c0-3.39-3.179-4.26-4.679-4.26a17.651,17.651,0,0,0-6,1.5v1.08c0,3.659.09,6.749.09,7.109,0,.45-.66.99-1.74.99-1.53,0-3.24-2.7-4.95-4.109a.781.781,0,0,0-.42-.21.476.476,0,0,0-.24.089l-.959.57-1.891-1.92c2.7-1.379,5.64-3.089,8.04-4.319v-5.31a45.332,45.332,0,0,1-4.53.39l-.84-2.22a50.146,50.146,0,0,0,5.37-.18,55.947,55.947,0,0,0-.15-6.12Zm-5.94,17.04a7.59,7.59,0,0,0,2.82,2.189c.45,0,.45-1.41.45-2.579v-1.98A22.307,22.307,0,0,0,381.721,210.707Zm13.95-12.81a23.2,23.2,0,0,1,5.4,3.33l-1.109,1.68a17.267,17.267,0,0,0-5.46-3.39Z" fill="#333"/>
      <path id="パス_49" data-name="パス 49" d="M375.151,249.047c6.48-1.65,12.09-6.54,13.17-8.85,0,0,1.5.51,1.92.6.39.12.96.18.96.6,0,.45-.33.21-.39.51,1.53,2.85,7.32,5.28,11.7,6.27l-1.379,2.01c-6.33-1.95-9.48-4.41-12.15-7.17-5.37,5.19-9.389,6.9-12,7.83Zm17.7-9.54H384.9v2.73h-2.13v-2.73h-7.23v-1.98h7.23v-2.58s1.35.12,1.86.18c.57.09.9.06.9.36,0,.39-.63.18-.63.6v1.44h7.95v-2.76s1.38.06,1.98.12c.6.09.869.09.869.36,0,.48-.719.42-.719.72v1.56h7.379v1.98h-7.379v2.94h-2.13ZM375.962,258.8a25.072,25.072,0,0,0,8.4-5.429s1.02.84,1.5,1.2c.24.181.69.57.51.84-.21.3-.96-.03-1.23.21a33.378,33.378,0,0,1-7.29,5.01Zm12.029-6.329h-7.44v-1.98h7.44v-4.65s1.26.12,1.89.21,1.02.09,1.02.39c0,.36-.63.39-.63.75v3.3h7.32v1.98h-7.32v9.449h-2.28Zm5.34.99a44.466,44.466,0,0,1,7.829,5.339l-1.71,1.62a41.626,41.626,0,0,0-7.5-5.339Z" fill="#333"/>
      <path id="パス_50" data-name="パス 50" d="M376.322,279.167v8.07H402.33v1.89H374.462v-9.96Z" fill="#333"/>
      <path id="パス_51" data-name="パス 51" d="M377.342,317.057a56.612,56.612,0,0,0,6.269-1.59,32.472,32.472,0,0,0,.48-6.24l2.7,1.02-.84,4.5a12.986,12.986,0,0,1,2.49-.24c1.56,0,4.35.99,4.35,5.37,0,4.5-1.38,11.639-5.37,11.639a13.667,13.667,0,0,1-2.28-.18l-.93-2.4a22.285,22.285,0,0,0,2.85.21c1.05,0,1.68-.63,2.28-2.069a18.366,18.366,0,0,0,1.23-6.63c0-1.38-.15-4.02-2.43-4.02a9.429,9.429,0,0,0-2.55.39,45.875,45.875,0,0,1-6.06,14.909l-2.25-1.17c3-3.27,5.43-9.989,5.97-13.169-1.53.51-3.69,1.5-4.889,1.8Zm16.379-5.67c4.11,3.57,5.55,6.33,5.55,8.13,0,2.43-2.1,2.7-3.42,3l-1.08-2.4c2.219.09,2.13-.78,2.13-.99a1.935,1.935,0,0,0-.181-.93,16.862,16.862,0,0,0-4.439-5.37Zm5.249,1.44a18.89,18.89,0,0,0-2.849-2.58l1.44-1.2a24.029,24.029,0,0,1,3.03,2.55Zm1.621-5.73a16.281,16.281,0,0,1,2.819,2.49l-1.41,1.23a25.687,25.687,0,0,0-2.61-2.49Z" fill="#333"/>
      <path id="パス_52" data-name="パス 52" d="M387.031,374.416a5.269,5.269,0,0,1-.45-1.32,9.735,9.735,0,0,1-5.16,1.83c-1.74,0-3.12-1.56-3.12-3.719,0-3.36,2.7-6.87,6.96-8.7a36.7,36.7,0,0,1,.12-3.75c-.33,0-.69.03-1.11.03a31,31,0,0,1-3.39-.15l-.54-2.07a21.112,21.112,0,0,0,4.17.3c.33,0,.69,0,1.02-.03.21-1.71.51-3.51.84-5.46l2.31.63a38.424,38.424,0,0,0-1.02,4.56,35.765,35.765,0,0,0,8.309-2.04l-.15,2.25a69.768,69.768,0,0,1-8.369,1.74c-.12,1.08-.21,2.28-.27,3.3a20.838,20.838,0,0,1,3.66-.57,9.666,9.666,0,0,1,1.32,0c.18-.69.33-1.41.449-2.13l2.1.93a10.023,10.023,0,0,1-.42,1.56c3.54.96,5.46,3.66,5.46,6.57,0,5.009-4.71,7.409-8.31,8.249l-1.8-1.95c6.36-.66,8.039-4.17,8.039-6.359,0-2.88-2.129-4.17-4.049-4.74-.99,2.46-3.12,6.45-5.22,8.249l.51,1.56Zm-1.77-10.109c-3.51,1.8-4.89,5.039-4.89,6.659,0,1.17.69,1.89,2.1,1.89a6.11,6.11,0,0,0,3.63-1.649A41.749,41.749,0,0,1,385.261,364.307Zm6.39-1.29h-.42a16.8,16.8,0,0,0-4.05.48,44.01,44.01,0,0,0,.75,5.939A21.083,21.083,0,0,0,391.651,363.017Z" fill="#333"/>
      <path id="パス_53" data-name="パス 53" d="M381.571,397.427a39.906,39.906,0,0,0,12.66-1.77l.99,1.65c-2.34,1.89-5.22,5.22-7.98,7.59l.06.06a8.492,8.492,0,0,1,3.69-.9c1.71,0,7.439.66,7.439,6.75,0,5.639-5.7,8.1-9.449,8.1-2.73,0-5.94-1.17-5.94-3.9,0-1.17.81-3.419,4.47-3.419a6.57,6.57,0,0,1,5.82,4.169,6.213,6.213,0,0,0,2.88-4.859c0-2.43-1.56-4.77-5.34-4.77-4.26,0-8.19,3.15-10.68,5.759l-1.92-1.529a83.806,83.806,0,0,0,12.39-11.79l-.06-.06a46.838,46.838,0,0,1-8.31,1.14Zm5.46,16.079c-.69,0-1.92.451-1.92,1.5s1.92,1.98,3.6,1.98a11.393,11.393,0,0,0,2.55-.33A4.645,4.645,0,0,0,387.031,413.506Z" fill="#333"/>
      <path id="パス_54" data-name="パス 54" d="M398.64,461.086a62.735,62.735,0,0,1-8.7.66c-8.58,0-10.829-2.22-10.829-5.039,0-1.92,1.319-3.18,3.149-4.92l1.56,1.41c-1.71,1.44-2.49,2.04-2.49,3.51,0,1.769,2.88,2.969,7.2,2.969a45.152,45.152,0,0,0,10.229-1.29Zm-17.159-20.729a42.257,42.257,0,0,0,7.92.72,44.871,44.871,0,0,0,5.85-.39,7.444,7.444,0,0,1,1.14,2.25,81.87,81.87,0,0,0-6.9,4.56l-1.5-1.35c1.71-1.11,3.72-2.61,4.8-3.18l-.06-.06a17.206,17.206,0,0,1-3.09.24,43.113,43.113,0,0,1-7.89-.66Z" fill="#333"/>
      <path id="パス_55" data-name="パス 55" d="M386.671,482.027c.21,1.92-.21,8.58,2.55,9.36l8.249-3.66.42,2.55c-4.169,1.56-15.389,4.68-15.389,9.81,0,1.049-.48,4.229,5.52,4.229a67.621,67.621,0,0,0,10.08-1.109v2.609a68.374,68.374,0,0,1-10.14.72c-7.59,0-7.68-5.16-7.68-5.64-.06-4.8,3.57-6.719,6.66-8.459-2.76-2.76-2.16-6.15-3.03-10.26Z" fill="#333"/>
      <path id="パス_56" data-name="パス 56" d="M390.721,547.366c5.61-1.47,8.1-5.67,8.1-9.959a8.819,8.819,0,0,0-4.679-7.47,9.293,9.293,0,0,0-4.02-.87,40.459,40.459,0,0,1-4.65,14.879c-.72,1.38-1.98,3.66-3.51,3.66-2.94,0-5.249-4.92-5.249-8.339a12.457,12.457,0,0,1,12.6-12.27c6.87,0,11.729,4.32,11.729,10.68,0,5.759-4.019,10.019-9.059,11.729Zm-8.19-15.9c-1.56,1.44-3.75,4.29-3.75,7.65s2.07,5.519,3.06,5.519c.84,0,1.56-1.2,2.01-1.95,1.2-1.95,3.9-9.179,3.75-13.529A9.694,9.694,0,0,0,382.531,531.467Z" fill="#333"/>
      <path id="パス_57" data-name="パス 57" d="M306.831,181.547c1.44,1.709,6.779,4.619,10.229,5.579l-1.53,1.89c-3.9-.99-9.509-5.16-10.649-6.9h-.06V189.5h-2.04v-7.439h-.06c-1.35,2.159-7.8,6.569-10.56,7.289l-1.92-1.74a20.617,20.617,0,0,0,10.11-6.059H290.3v-1.8h12.48v-2.34h-3.81v-11.16h2.19a16.641,16.641,0,0,0,2.13-3.66l2.01.93c.24.12.51.33.33.54-.18.24-.66.09-.9.42l-1.32,1.77h5.159v11.16h-3.749v2.34H317.39v1.8Zm-9.3-8.73a57.138,57.138,0,0,1-4.41,3.72c-.21.21-.42,1.17-.72,1.26-.3.12-.51-.09-.689-.54l-.841-1.98a40.516,40.516,0,0,0,6.15-4.53Zm-5.04-8.55a34.114,34.114,0,0,1,4.23,3.51l-1.32,1.86a26.187,26.187,0,0,0-4.019-3.54Zm8.43,6.69h5.7v-3h-5.7Zm0,4.74h5.7v-3.12h-5.7Zm9.93-4.26a31.052,31.052,0,0,1,5.369,3.6l-1.259,1.86a42.041,42.041,0,0,0-5.16-3.66Zm-.841-3.54a24.4,24.4,0,0,0,4.5-3.78l1.44,1.71a32.094,32.094,0,0,1-4.38,3.72Z" fill="#333"/>
      <path id="パス_58" data-name="パス 58" d="M300.411,208.7c-.12,1.02-.75,3.72-.75,17.13a3.842,3.842,0,0,0,3.93,4.229c4.56,0,8.129-5.58,9.419-8.609l1.891,1.92c-4.23,7.169-8.4,8.759-11.64,8.759-4.38,0-5.37-4.44-5.37-4.98,0-1.949-.24-11.969-.06-15.029,0-1.44-.12-2.73-.15-3.96Z" fill="#333"/>
      <path id="パス_59" data-name="パス 59" d="M307.191,253.307a94.8,94.8,0,0,0-4.14,8.85,24.177,24.177,0,0,1,6.99,1.89,35.355,35.355,0,0,0,.96-6.48l2.069.75a31.385,31.385,0,0,1-1.169,6.6,40.647,40.647,0,0,1,4.109,2.55l-1.169,2.189a19.4,19.4,0,0,0-3.6-2.819,16.054,16.054,0,0,1-6.149,8.039l-2.01-1.32a14.064,14.064,0,0,0,6.42-7.709,19.626,19.626,0,0,0-7.23-1.95c-1.59,3.51-3.21,6.81-4.53,8.249a3.01,3.01,0,0,1-2.25,1.02c-.9,0-3.149-.66-3.149-3.69,0-2.849,2.159-7.349,8.519-7.439a77.416,77.416,0,0,0,3.3-7.47,41.142,41.142,0,0,1-6.3.87l-1.17-2.07c2.46.06,6.33.24,9.06-1.26Zm-12.78,15.9c-.089.99.33,1.589,1.05,1.589.69,0,1.02-.33,1.62-1.29a55.678,55.678,0,0,0,2.94-5.549C296.841,264.287,294.651,266.057,294.411,269.207Z" fill="#333"/>
      <path id="パス_60" data-name="パス 60" d="M312.051,318.706a39.85,39.85,0,0,1-6.69.6c-4.26,0-6.72-1.68-6.72-4.77,0-3.389,3.09-5.669,6.66-7.5-.21-1.83-.81-2.4-1.83-2.4-2.67,0-5.37,3.93-6.81,6.06l-1.98-1.11a26.447,26.447,0,0,0,5.64-8.79,25.539,25.539,0,0,1-3,.18c-.57,0-1.11,0-1.59-.03l-.51-2.34a21.037,21.037,0,0,0,3.27.3c.36,0,1.44-.06,2.58-.15a25.958,25.958,0,0,0,1.23-4.68l2.52.42c-.3.99-.81,2.46-1.38,3.96a25.231,25.231,0,0,0,6.839-2.01l.151,2.22a75.207,75.207,0,0,1-7.77,1.8l-1.44,3.48.06.06a3.518,3.518,0,0,1,2.52-1.14c2.1,0,2.91,1.47,3.21,3.3,2.1-.96,4.439-1.89,6.149-2.85l.45,2.22c-2.37.84-4.649,1.65-6.479,2.52.06,1.83.15,4.289.15,6.18h-2.16c.09-.96.21-2.28.24-5.25-2.82,1.62-4.65,3.389-4.65,5.22s1.23,3.179,4.68,3.179a20.647,20.647,0,0,0,6.48-.96Z" fill="#333"/>
      <path id="パス_61" data-name="パス 61" d="M302.031,360.916a5.269,5.269,0,0,1-.45-1.32,9.735,9.735,0,0,1-5.16,1.83c-1.74,0-3.12-1.56-3.12-3.719,0-3.36,2.7-6.87,6.96-8.7a36.7,36.7,0,0,1,.12-3.75c-.33,0-.69.03-1.11.03a31,31,0,0,1-3.39-.15l-.54-2.07a21.112,21.112,0,0,0,4.17.3c.33,0,.69,0,1.02-.03.21-1.71.51-3.51.84-5.46l2.31.63a38.424,38.424,0,0,0-1.02,4.56,35.765,35.765,0,0,0,8.309-2.04l-.15,2.25a69.768,69.768,0,0,1-8.369,1.74c-.12,1.08-.21,2.28-.27,3.3a20.838,20.838,0,0,1,3.66-.57,9.666,9.666,0,0,1,1.32,0c.18-.69.33-1.41.449-2.13l2.1.93a10.023,10.023,0,0,1-.42,1.56c3.54.96,5.46,3.66,5.46,6.57,0,5.009-4.71,7.409-8.31,8.249l-1.8-1.95c6.36-.66,8.039-4.17,8.039-6.359,0-2.88-2.129-4.17-4.049-4.74-.99,2.46-3.12,6.45-5.22,8.249l.51,1.56Zm-1.77-10.109c-3.51,1.8-4.89,5.039-4.89,6.659,0,1.17.69,1.89,2.1,1.89a6.11,6.11,0,0,0,3.63-1.649A41.749,41.749,0,0,1,300.261,350.807Zm6.39-1.29h-.42a16.8,16.8,0,0,0-4.05.48,44.01,44.01,0,0,0,.75,5.939A21.083,21.083,0,0,0,306.651,349.517Z" fill="#333"/>
      <path id="パス_62" data-name="パス 62" d="M303.171,382.007c-.3,1.17-.81,2.64-1.44,4.35a27.942,27.942,0,0,0,4.41-.96l-.39,2.25c-.87.15-2.85.42-4.71.63a90.875,90.875,0,0,1-5.82,12.449l-2.22-.9c2.37-2.82,4.44-7.32,5.88-11.34a23.6,23.6,0,0,1-4.65-.06l-.06-2.1a14.988,14.988,0,0,0,5.31.3,30.6,30.6,0,0,0,1.44-5.79Zm6,9.93a4.683,4.683,0,0,0-1.351,2.25c0,1.29.391,3.06.54,5.85a28.968,28.968,0,0,1,4.681,1.949l-.81,2.13a22.634,22.634,0,0,0-3.96-2.04c-.36,3.18-2.16,4.38-4.32,4.38-4.02,0-5.67-2.31-5.67-4.05,0-1.8,1.86-3.27,4.5-3.27a12.465,12.465,0,0,1,3.39.33c-.06-2.309-.42-3.9-.42-5.219a4.211,4.211,0,0,1,1.92-3.63Zm-5.46,12.6a2.252,2.252,0,0,0,2.46-2.22c.03-.27,0-.63,0-.93a13.5,13.5,0,0,0-3.18-.48c-1.47,0-2.82.45-2.79,1.74C300.2,403.816,302.121,404.536,303.711,404.536Zm4.35-17.879a38.254,38.254,0,0,1,6.96,2.91l-.9,1.98a35.154,35.154,0,0,0-6.809-3.18Z" fill="#333"/>
      <path id="パス_63" data-name="パス 63" d="M303.831,425.927c-.27,1.23-.75,2.94-1.32,4.89a29.158,29.158,0,0,0,5.1-1.44v2.22a34.367,34.367,0,0,1-5.789,1.38c-1.83,5.67-4.41,12.48-6.51,15.569l-2.369-.66c2.729-3.66,5.129-9.569,6.659-14.609-1.05.12-2.4.21-3.63.24-.48,0-.93,0-1.35-.03l-.24-2.22a12.167,12.167,0,0,0,2.52.18c.36,0,1.68-.09,3.3-.3a25.241,25.241,0,0,0,1.11-6.27Zm1.26,17.22a4.283,4.283,0,0,0-.33,1.889c0,1.32,1.95,1.92,4.019,1.92a20.091,20.091,0,0,0,6.181-.81l-.27,2.28a30.842,30.842,0,0,1-5.581.6c-4.229,0-6.419-1.44-6.419-3.63a9.4,9.4,0,0,1,.63-3Zm1.08-8.1c1.26-.15,3.569-.33,4.68-.33a14.513,14.513,0,0,1,4.229.51l-.059,2.07a21.5,21.5,0,0,0-4.77-.51,15.126,15.126,0,0,0-4.17.39Z" fill="#333"/>
      <path id="パス_64" data-name="パス 64" d="M296.961,470.537a35.1,35.1,0,0,0-2.16,11.67,41.655,41.655,0,0,0,.51,6.12h.06l1.47-4.47,1.74,1.23a37.791,37.791,0,0,0-1.92,6.959l-1.92.27a22.965,22.965,0,0,1-1.859-8.909,43.845,43.845,0,0,1,1.23-10.98c.269-1.05.48-2.22.569-2.82Zm6.33,13.56a10.614,10.614,0,0,0,.18,2.31c.57,1.709,2.1,2.129,4.26,2.129a20.915,20.915,0,0,0,7.65-1.23v2.34a32.635,32.635,0,0,1-7.26.81c-1.8,0-4.08.06-5.31-1.259-1.32-1.351-1.44-3.27-1.44-4.77Zm-.75-12.39a31.755,31.755,0,0,0,4.65.27,26.949,26.949,0,0,0,6.81-1.2l.119,2.31a52.166,52.166,0,0,1-6.959.81c-1.53,0-3.39.03-4.38-.09Z" fill="#333"/>
      <path id="パス_65" data-name="パス 65" d="M307.851,516.647a4.56,4.56,0,1,1,4.559,4.62A4.59,4.59,0,0,1,307.851,516.647Zm7.95,0a3.405,3.405,0,1,0-3.391,3.45A3.419,3.419,0,0,0,315.8,516.647Z" fill="#333"/>
    </g>
    <line id="線_1" data-name="線 1" y2="206.361" transform="translate(184.031 2.131)" fill="none" stroke="#333" stroke-miterlimit="10" stroke-width="0.848"/>
    <line id="線_2" data-name="線 2" y2="387.992" transform="translate(89.32 2.131)" fill="none" stroke="#333" stroke-miterlimit="10" stroke-width="0.848"/>
    <line id="線_3" data-name="線 3" y2="360.404" transform="translate(0 2.131)" fill="none" stroke="#333" stroke-miterlimit="10" stroke-width="0.848"/>
  </g>
</svg>
