<svg id="lineup_reset_name" xmlns="http://www.w3.org/2000/svg" width="195.81" height="131.928" viewBox="0 0 195.81 131.928">
  <g id="グループ_167" data-name="グループ 167" transform="translate(-866.93 -1065.448)">
    <path id="パス_854" data-name="パス 854" d="M868.412,1070.35c.912,0,3,1.329,3,1.975,0,.19-.076,1.064-.076,1.254,0,4.407.076,7.827.114,8.739.038.456.227,2.355.227,2.735,0,.988-.874,1.938-1.443,1.938-.836,0-1.71-2.014-1.71-3,0-.3.19-1.6.19-1.9.076-1.71.076-3.192.076-3.876,0-4.255-.19-5.129-1.368-6.5-.3-.342-.494-.569-.494-.873C866.93,1070.577,867.538,1070.35,868.412,1070.35Zm10.449-1.064c-.456-.608-.494-.684-.494-.76,0-.114,0-.228,1.1-.228,2.28,0,4.18.95,4.18,1.938a15.086,15.086,0,0,1-.38,1.519c-.152,1.026-.19,6.725-.3,8.055a24.039,24.039,0,0,1-9.5,17.63,15.138,15.138,0,0,1-3.42,2.241c-.152,0-.228-.076-.228-.19,0-.152,2.47-2.583,2.926-3.077,7.333-7.827,7.6-14.438,7.6-22.037C880.342,1071.413,879.659,1070.426,878.861,1069.286Z" fill="#333"/>
    <path id="パス_855" data-name="パス 855" d="M905.193,1080.8a8.41,8.41,0,0,0,1.405.114c1.521,0,2.166-.19,7.942-1.71,1.025-.266,1.1-.57,1.1-2.583,0-4.1-.456-4.75-1.368-6.117a7.563,7.563,0,0,1-.456-.722c0-.342,1.406-.646,1.748-.646.456,0,.874.19,2.622,1.671.113.114.8.76.8,1.14a11.448,11.448,0,0,1-.723,1.71,31.876,31.876,0,0,0-.569,3.648.671.671,0,0,0,.76.721,46.01,46.01,0,0,0,5.7-1.6,10.777,10.777,0,0,1,1.634-.8c1.025,0,5.091,2.925,5.091,4.483,0,.266-.19.57-.684.57-.152,0-.874-.076-1.025-.076-.8,0-1.216.266-2.584,1.1a31.63,31.63,0,0,1-2.85,1.709.218.218,0,0,1-.228-.227c0-.038.646-1.1.722-1.254a6.513,6.513,0,0,0,1.064-3.154c0-.228-.038-.76-.456-.76-.076,0-5.776,1.862-6.269,2.014a1.427,1.427,0,0,0-1.178,1.634c0,3.191,0,6.611.076,7.333.3,3,2.431,3.343,4.711,3.343a32.225,32.225,0,0,0,4.179-.38,14.33,14.33,0,0,1,3.155-.532,1.472,1.472,0,0,1,1.595,1.216c0,2.432-6.383,2.432-8.434,2.432-6.574,0-7.372-1.71-7.372-8.017,0-.76.077-4.065.077-4.711,0-.608-.229-.874-.761-.874a27.685,27.685,0,0,0-3.571,1.064c-2.242,1.178-2.47,1.291-3.306,1.291-1.938,0-3.457-2.887-3.457-3.039,0-.114.152-.152.227-.152A2.219,2.219,0,0,1,905.193,1080.8Z" fill="#333"/>
    <path id="パス_856" data-name="パス 856" d="M956.108,1086.155a1.382,1.382,0,0,1-1.292,1.444c-.836,0-1.1-.874-1.368-1.71a13.6,13.6,0,0,0-2.2-3.837c-.191-.266-.267-.38-.267-.494,0-.228.229-.342.494-.342C952.385,1081.216,956.108,1083.116,956.108,1086.155Zm11.74-7.827a2.42,2.42,0,0,1-.076-.342.257.257,0,0,1,.266-.265,8.473,8.473,0,0,1,1.71.949c.607.3,2.128,1.216,2.128,2.318,0,.3-.153.342-.8.722a30.96,30.96,0,0,0-1.939,3.267,33.26,33.26,0,0,1-15.463,13.412.245.245,0,0,1-.228-.228,16.227,16.227,0,0,1,2.128-1.595c8.093-6.193,12.538-13.336,12.538-16.6A3.853,3.853,0,0,0,967.848,1078.328Zm-5.927,3.686c0,1.1-.608,1.937-1.292,1.937-.836,0-1.026-.949-1.14-1.6a11.944,11.944,0,0,0-1.405-3.61,4.239,4.239,0,0,1-.418-.836c0-.114.189-.228.38-.189A4.813,4.813,0,0,1,961.921,1082.014Z" fill="#333"/>
    <path id="パス_857" data-name="パス 857" d="M995.757,1068.564c1.369,0,4.1,1.216,4.1,2.431a11.009,11.009,0,0,1-.456,1.6,49.289,49.289,0,0,0-.342,5.281c0,.836.152.95,1.254,1.216,2.318.532,8.206,3.306,8.206,6.155a1.3,1.3,0,0,1-1.367,1.33c-.95,0-1.065-.152-3.609-3.457-1.065-1.406-2.85-3.192-4.028-3.192-.38,0-.532,0-.532,2.812,0,4.027.038,6.041.19,9.46.038.418.076,1.368.076,1.938,0,.95,0,3.458-1.1,3.458-1.14,0-2.128-2.584-2.128-3.572,0-.152.152-.95.152-1.1a78.612,78.612,0,0,0,.342-8.814c0-10.867,0-12.083-.456-13.3a4.211,4.211,0,0,0-1.292-1.747l-.075-.152C994.732,1068.564,995.719,1068.564,995.757,1068.564Z" fill="#333"/>
    <path id="パス_858" data-name="パス 858" d="M1052.748,1080.038a33.483,33.483,0,0,0,9.194,3c.152,0,.8.114.8.266,0,.113-.531.266-.684.3a6.576,6.576,0,0,0-2.887,2.051c-.114.152-.532.95-.722.95-.228,0-8.473-3.989-12.2-10.068-.722-1.216-.836-1.33-1.1-1.33s-.342.076-1.178.95a45.119,45.119,0,0,1-11.246,8.852c-1.292.684-5.243,2.432-5.965,2.432-.114,0-.19-.076-.19-.114s4.065-2.546,4.407-2.774c5.129-3.229,10.563-9.042,11.095-11.892.037-.3.075-.418.342-.418.189,0,3.267,1.178,3.457,1.292.114.038.494.19.494.57a2.378,2.378,0,0,1-.152.532C1046.289,1075.213,1049.556,1078.4,1052.748,1080.038Zm-18.314-9.461c-2.811,0-4.1.076-4.825.114-.113,0-.684.076-.8.076s-.189-.076-.342-.227l-.721-.874c-.153-.19-.153-.19-.153-.266s.038-.076.115-.076c.265,0,1.443.114,1.671.114,1.862.076,3.458.152,5.244.152h1.1c.8,0,1.027-.38,1.027-1.026a6.175,6.175,0,0,0-.305-2.014,5.783,5.783,0,0,1-.228-.76c0-.19.19-.266.418-.266.266,0,1.976.418,2.394.532,1.14.3,1.368.38,1.368.722,0,.228-.038.3-.57.988a.929.929,0,0,0-.266.684c0,.912.3,1.14,1.329,1.14h6.27c.342,0,1.139,0,1.139-1.026a15.8,15.8,0,0,0-.114-1.71c-.038-.19-.227-.988-.227-1.14,0-.19.227-.266.418-.266.265,0,2.849.608,3.267.722s.646.266.646.608c0,.228-.152.38-.57.684a1.218,1.218,0,0,0-.494,1.064c0,1.064.608,1.064,1.216,1.064h1.937c1.672,0,1.863,0,2.432-.646,1.064-1.254,1.178-1.406,1.52-1.406.228,0,3.534,2.014,3.534,2.507,0,.532-.76.532-2.014.532h-7.409c-1.178,0-1.178.608-1.178,1.52,0,.228.038,1.52.038,1.71,0,1.406-1.139,1.634-1.937,1.634-.874,0-1.026-.152-1.026-1.444v-2.622c-.115-.722-.571-.8-1.178-.8h-6.079c-.874,0-1.407,0-1.407,1.064,0,.38.115,2.052.115,2.394,0,.722-.115,1.064-.456,1.292a2.7,2.7,0,0,1-1.444.532c-.646,0-.95-.418-.95-1.178,0-.3.038-1.748.038-2.014,0-1.482,0-2.09-1.178-2.09Zm2.7,19.416a19.388,19.388,0,0,1,2.925,1.785.939.939,0,0,1,.305.57c0,.456-.305.532-1.216.76-.114.038-3.382,2.584-3.989,3.04a23.36,23.36,0,0,1-5.776,3.305.121.121,0,0,1-.114-.114c0-.076,2.014-1.824,2.28-2.089,3.154-3,5.091-6,5.433-7.22A.233.233,0,0,1,1037.132,1089.993Zm1.748-2.014c-2.963,0-4.066.038-4.826.114-.113,0-.683.076-.8.076s-.189-.076-.341-.228l-.722-.874c-.152-.19-.152-.19-.152-.266,0-.038.038-.076.114-.076.266,0,1.443.114,1.672.114,1.861.114,3.457.152,5.243.152h2.85c.379,0,1.139,0,1.139-1.026,0-.456-.227-3.533-.3-3.913,0-.076-.229-.456-.229-.532s.076-.228.38-.228c.267,0,2.926.57,3.306.684.532.114.722.456.722.646,0,.228-.076.3-.646.8-.533.457-.533.685-.533,1.824,0,1.368,0,1.748,1.141,1.748h1.671c1.672,0,1.862,0,2.432-.646,1.064-1.254,1.178-1.405,1.52-1.405.228,0,3.533,2.051,3.533,2.507,0,.532-.759.532-2.013.532h-7.181c-1.141,0-1.141.684-1.141,1.9,0,2.7,0,4.217.077,6.459.038.646.038,1.558.038,2.013,0,1.216-.3,1.938-1.938,1.938-.836,0-.912-.684-.912-1.33,0-.494.114-2.773.114-3.267.038-1.444.038-2.85.038-4.6a23.01,23.01,0,0,0-.076-2.584c-.189-.532-.8-.532-1.1-.532Zm10.144,3.191c0-.114.191-.151.343-.151,1.405,0,10.068,2.393,10.068,5.547,0,1.216-.684,2.165-1.634,2.165-.722,0-.874-.19-2.051-1.937a18.058,18.058,0,0,0-6.535-5.472C1049.176,1091.322,1049.024,1091.209,1049.024,1091.17Z" fill="#333"/>
  </g>
  <g id="グループ_168" data-name="グループ 168" transform="translate(-866.93 -1065.448)">
    <path id="パス_859" data-name="パス 859" d="M872.518,1122.748c-.324,0-.72-.108-.72-.576,0-.576.594-.576.72-.576h2.719c.72,0,.72.486.72.576,0,.576-.522.576-.72.576Z" fill="#333"/>
    <path id="パス_860" data-name="パス 860" d="M883.807,1115.223c-1.585,0-2.106.037-2.287.054-.054,0-.324.037-.378.037s-.09-.037-.162-.108l-.342-.415c-.072-.09-.072-.09-.072-.126s.018-.036.054-.036c.126,0,.684.054.792.054.883.036,1.638.072,2.485.072h8.643c.918,0,.971,0,1.3-.522.36-.558.4-.63.594-.63a6.033,6.033,0,0,1,2.035,1.368c0,.252-.342.252-.955.252h-6.427c-.613,0-.685.091-1.117.865-.2.342-1.476,2.592-1.476,2.719,0,.162.216.162.54.162h4.5a.716.716,0,0,0,.7-.27c.2-.27.324-.451.559-.451.324,0,1.6.811,1.6,1.081,0,.126-.126.27-.414.558-.2.2-.216.306-.234,1.152-.036.847-.036,4.88-.036,6.014,0,.234.036,1.224.036,1.44a1.11,1.11,0,0,1-1.008,1.207c-.414,0-.505-.306-.505-.576,0-.522,0-.721-.576-.721h-6.338c-.521,0-.54.2-.576.558-.035.523-.648.721-.954.721a.438.438,0,0,1-.487-.5c0-.252.055-1.369.055-1.6.054-1.89.054-2.106.054-3.115,0-.882,0-4.5-.036-5.185,0-.144-.073-.829-.073-.973,0-.09,0-.144.109-.144.18,0,.27.054,1.1.522a2.211,2.211,0,0,0,.828.289c.414,0,.486-.252.648-.955a18.983,18.983,0,0,0,.432-2.394c0-.4-.27-.4-.54-.4Zm1.548,4.232c-.594,0-.594.018-.594,1.962,0,1.693,0,1.747.594,1.747h6.428a.606.606,0,0,0,.469-.144,10.016,10.016,0,0,0,.143-2.125c0-1.3,0-1.44-.594-1.44Zm.019,4.2c-.559,0-.6.234-.6.63v3.223c0,.414.379.414.6.414h6.319c.505,0,.576-.18.6-.522.053-.756.053-1.962.053-2.935,0-.576,0-.81-.593-.81Z" fill="#333"/>
    <path id="パス_861" data-name="パス 861" d="M905.773,1118.14a.623.623,0,0,0,.54-.2c.072-.072.342-.522.45-.522a7.677,7.677,0,0,1,1.008.594c.324.2.433.252.433.415,0,.09-.09.179-.433.36-.269.126-.288.216-.45,1.008a29.892,29.892,0,0,1-1.044,4.159,8.57,8.57,0,0,0-.342,1.026.447.447,0,0,0,.18.378c1.387,1.171,1.387,1.729,1.387,2.017,0,.486-.252.864-.666.864-.325,0-.451-.216-.667-.738-.108-.234-.7-1.35-.865-1.35a10.7,10.7,0,0,0-.918,1.08,6.49,6.49,0,0,1-2.539,1.711c-.036,0-.09-.018-.09-.054,0-.054.829-.739.973-.883a7.744,7.744,0,0,0,1.891-2.718c0-.307-.955-1.243-1.045-1.243a.138.138,0,0,0-.144.126c-.126.45-.36.864-.936.864-.27,0-.468-.09-.468-.378,0-.108,1.3-4.735,1.3-5.653a.343.343,0,0,0-.324-.36c-.126,0-.72.072-.81.072-.055,0-.091-.054-.144-.127l-.361-.414c-.071-.072-.071-.09-.071-.126s.036-.036.054-.036c.2,0,1.152.09,1.368.09a.556.556,0,0,0,.522-.522,27.552,27.552,0,0,0,.361-3.8c0-.324,0-.378.162-.378.035,0,.773.306.864.342.828.342.918.378.918.594a.242.242,0,0,1-.145.216c-.035.036-.252.144-.3.18a18.3,18.3,0,0,0-.756,3.043c0,.36.342.36.54.36Zm-.847.487c-.467,0-.5.18-.54.5-.072.342-.738,3.835-.738,4.087,0,.306.108.36.216.432a12.559,12.559,0,0,0,1.081.684c.18,0,.216-.108.521-1.062a30.845,30.845,0,0,0,.739-4.195c0-.45-.378-.45-.522-.45Zm6.663-.433c.5,0,.54-.27.54-.576,0-.558,0-3.115-.037-3.4-.017-.126-.179-.63-.179-.72,0-.126.09-.162.216-.162.108,0,1.747.27,1.747.594,0,.108-.073.18-.307.342a.469.469,0,0,0-.2.4c-.018.667-.054,2.845-.054,2.917,0,.324.018.612.559.612h.593c.756,0,.882,0,1.08-.378.216-.4.307-.558.487-.558.216,0,1.368.936,1.368,1.171,0,.251-.09.251-.954.251h-2.593a.482.482,0,0,0-.522.307c-.018.126-.018,2.79-.018,3.115,0,.306,0,.7.468.7,1.062,0,1.171,0,1.4-.306.4-.486.433-.54.559-.54.179,0,1.332.864,1.332,1.08,0,.252-.36.252-.954.252H913.84c-.523,0-.523.288-.523.792s0,3.835.036,3.943a.439.439,0,0,0,.487.306h.45c.756,0,.845,0,.99-.126.162-.144.72-1.044.918-1.044a12.644,12.644,0,0,1,1.566,1.116c.145.126.18.181.18.288,0,.252-.378.252-.954.252H910.8c-.4,0-1.639,0-2.269.037-.055,0-.324.054-.379.054s-.09-.054-.161-.126l-.343-.415c-.072-.072-.072-.09-.072-.108a.048.048,0,0,1,.055-.054c.126,0,.683.054.792.072.828.037,1.638.054,2.466.054h.666c.252,0,.451-.072.523-.306.054-.2.054-3.709.054-4.069,0-.666-.144-.666-.9-.666a14.427,14.427,0,0,0-1.71.054c-.036,0-.217.036-.252.036-.072,0-.091-.054-.162-.126l-.343-.414c-.071-.072-.089-.09-.089-.108,0-.036.036-.054.072-.054.2,0,1.116.072,1.314.09.54.018,1.387.036,1.6.036.468,0,.468-.108.468-1.963,0-.324,0-1.836-.054-1.945a.5.5,0,0,0-.469-.216h-1.313c-.4,0-.469.127-.757.7a8.8,8.8,0,0,1-2.089,2.953c-.054,0-.018-.126,0-.162a17.208,17.208,0,0,0,2-6.734c.018-.451.036-.5.144-.5.126,0,1.621.667,1.621.937,0,.144-.055.18-.342.36a6.373,6.373,0,0,0-.685,1.764c0,.036.018.2.252.2Z" fill="#333"/>
    <path id="パス_862" data-name="パス 862" d="M928.676,1128.746c-.2,0-.45,0-.522.306a.906.906,0,0,1-1.026.774c-.468,0-.468-.252-.468-.4,0-.18.072-1.315.09-1.567.053-.846.053-3.187.053-4.1,0-.666,0-.738-.162-.738a4.372,4.372,0,0,0-.5.252,8.434,8.434,0,0,1-2.629,1.1c-.089,0-.126-.054-.126-.108,0-.09.073-.126.613-.414a18.718,18.718,0,0,0,5.006-4.321,4.1,4.1,0,0,0,.467-.793c0-.144-.126-.161-.45-.161h-2.07c-.414,0-1.639.017-2.269.054-.072,0-.342.036-.4.036s-.09-.036-.145-.109l-.359-.414c-.072-.072-.072-.09-.072-.126,0-.018.017-.036.053-.036.126,0,.685.054.811.072.81.036,1.62.054,2.467.054h.414c.216,0,.342,0,.342-.144,0-.054-.5-1.944-.991-2.25-.179-.126-.3-.126-.755-.162-.739-.054-.811-.054-.811-.181s.054-.125.612-.2a63.229,63.229,0,0,0,9.039-1.548c.162-.036.9-.342,1.063-.342.359,0,1.53,1.206,1.53,1.386,0,.072-.072.162-.234.162-.073,0-.4-.054-.468-.054-.108,0-.828.036-.828.18,0,.072.431.379.485.414.4.253.45.307.45.487,0,.126-.017.126-.486.324a12.776,12.776,0,0,0-2.143,1.836c0,.09.055.09.289.09h1.585c.612,0,.7,0,1.043-.432.361-.432.649-.792.775-.792a6.625,6.625,0,0,1,1.837,1.495c0,.2-.54.2-1.063.2h-5.582c-.143,0-.216.017-.216.107a9.449,9.449,0,0,0,6.68,3.944c.666.108.775.126.775.2,0,.126-.216.162-.361.2a2.027,2.027,0,0,0-1.259.936c-.09.18-.163.36-.307.36a1.586,1.586,0,0,1-.846-.45c-.181-.144-.217-.162-.27-.162-.144,0-.325.18-.378.252-.324.324-.324.612-.324,1.26,0,.6.089,3.151.089,3.674,0,.306-.036.414-.2.522a1.677,1.677,0,0,1-.847.306c-.341,0-.36-.126-.432-.63-.035-.271-.306-.342-.522-.342Zm5.707-5.51a1.065,1.065,0,0,0,.775-.216c.108-.09.433-.378.433-.522,0-.072-.019-.09-.252-.288a10.971,10.971,0,0,1-2.593-2.9,5,5,0,0,0-.324-.522c-.073,0-.073.036-.073.216-.017.432.018,2.466.018,2.935a.843.843,0,0,1-.234.684,1.125,1.125,0,0,1-.666.306c-.468,0-.468-.342-.468-.522,0-.415.144-2.467.144-2.935,0-.234,0-.342-.126-.342-.072,0-.4.36-.432.414a15.778,15.778,0,0,1-2.575,2.52c-.415.307-.468.343-.468.415s.053.108.45.414a1.22,1.22,0,0,0,.99.342Zm-3.709-5.132c.289,0,.451-.108.487-.36.018-.072.018-.27.018-2.034,0-.2-.054-.36-.288-.36-.126,0-2.359.18-2.809.2-.378.017-.414.017-.414.09,0,.017.342.252.45.342a1.791,1.791,0,0,1,.864,1.458c0,.072-.054.414-.054.486,0,.18.09.18.432.18Zm-2.07,5.6c-.54,0-.54.324-.54.792,0,1.008,0,1.207.54,1.207h1.927c.521,0,.521-.325.521-.793,0-.954,0-1.206-.54-1.206Zm0,2.467c-.522,0-.522.252-.522,1.08,0,.792,0,1.026.54,1.026h1.89c.523,0,.54-.216.54-1.278,0-.5,0-.828-.521-.828Zm4.213-2.467c-.521,0-.521.252-.521,1.278,0,.4,0,.721.521.721h2.017c.522,0,.522-.343.522-.7,0-1.081-.036-1.3-.54-1.3Zm1.982,4.573c.521,0,.557-.18.557-1.26,0-.576,0-.846-.557-.846h-1.946c-.54,0-.54.288-.54.7,0,1.26,0,1.4.559,1.4Zm-1.6-10.173a.725.725,0,0,0,.72-.414,7.588,7.588,0,0,0,1.134-2.521c0-.108-.036-.18-.162-.18-.089,0-.81.072-1.548.144-.846.073-.937.09-.991.234-.017.073-.017,1.423-.017,2.143,0,.324.017.594.54.594Z" fill="#333"/>
    <path id="パス_863" data-name="パス 863" d="M958.236,1120.265a15.928,15.928,0,0,0,4.357,1.423c.073,0,.378.054.378.126,0,.053-.252.126-.324.144a3.116,3.116,0,0,0-1.368.972c-.054.072-.252.45-.342.45a14.759,14.759,0,0,1-5.78-4.772c-.342-.576-.4-.63-.522-.63s-.163.036-.558.451a21.42,21.42,0,0,1-5.33,4.2,15.607,15.607,0,0,1-2.826,1.152c-.055,0-.091-.036-.091-.054s1.926-1.206,2.089-1.314c2.43-1.531,5.005-4.286,5.257-5.636.018-.144.037-.2.163-.2.089,0,1.548.558,1.638.612.054.018.234.09.234.27a1.126,1.126,0,0,1-.072.252A9.141,9.141,0,0,0,958.236,1120.265Zm-8.679-4.483c-1.332,0-1.944.036-2.286.054-.055,0-.324.036-.379.036s-.09-.036-.162-.108l-.342-.414c-.072-.09-.072-.09-.072-.127s.019-.035.055-.035c.126,0,.683.054.792.054.882.035,1.638.072,2.484.072h.523c.378,0,.486-.181.486-.487a2.9,2.9,0,0,0-.145-.954,2.9,2.9,0,0,1-.107-.36c0-.09.09-.126.2-.126.127,0,.937.2,1.135.252.54.144.649.18.649.342,0,.108-.019.144-.271.468a.44.44,0,0,0-.126.324c0,.433.144.541.63.541h2.972c.162,0,.54,0,.54-.487a7.431,7.431,0,0,0-.055-.81c-.018-.09-.108-.468-.108-.54,0-.09.108-.126.2-.126.126,0,1.349.288,1.548.342s.306.126.306.288c0,.108-.072.18-.27.324a.577.577,0,0,0-.235.5c0,.505.288.505.576.505h.919c.792,0,.882,0,1.153-.307.5-.594.557-.666.719-.666.109,0,1.675.954,1.675,1.189,0,.252-.36.252-.954.252h-3.512c-.557,0-.557.288-.557.72,0,.108.017.72.017.81,0,.666-.54.774-.918.774-.414,0-.486-.072-.486-.684v-1.242c-.054-.342-.269-.378-.557-.378h-2.881c-.414,0-.667,0-.667.5,0,.18.054.972.054,1.134,0,.342-.054.5-.215.612a1.284,1.284,0,0,1-.685.252c-.307,0-.45-.2-.45-.558,0-.144.017-.828.017-.954,0-.7,0-.99-.557-.99Zm1.279,9.2a9.222,9.222,0,0,1,1.386.847.441.441,0,0,1,.144.27c0,.216-.144.252-.576.36-.054.018-1.6,1.224-1.891,1.44a11.047,11.047,0,0,1-2.736,1.567.057.057,0,0,1-.054-.054c0-.036.954-.865,1.08-.991a10.376,10.376,0,0,0,2.574-3.42A.108.108,0,0,1,950.836,1124.982Zm.828-.954c-1.4,0-1.927.018-2.286.054-.055,0-.325.036-.378.036s-.091-.036-.162-.108l-.343-.414c-.071-.09-.071-.09-.071-.126,0-.018.017-.036.053-.036.126,0,.684.054.792.054.883.054,1.639.072,2.485.072h1.35c.181,0,.54,0,.54-.486,0-.216-.107-1.675-.143-1.855,0-.036-.109-.216-.109-.252s.036-.108.181-.108c.126,0,1.386.27,1.566.324.252.054.342.216.342.306,0,.108-.036.144-.306.378-.252.217-.252.324-.252.865,0,.648,0,.828.541.828h.792c.792,0,.881,0,1.152-.306.5-.594.558-.666.72-.666.108,0,1.674.972,1.674,1.188,0,.252-.36.252-.954.252h-3.4c-.54,0-.54.324-.54.9,0,1.279,0,2,.036,3.061.018.306.018.739.018.955,0,.576-.144.918-.918.918-.4,0-.432-.324-.432-.63,0-.234.054-1.315.054-1.549.017-.684.017-1.35.017-2.179a10.9,10.9,0,0,0-.036-1.224c-.09-.252-.378-.252-.521-.252Zm4.807,1.513c0-.054.09-.072.162-.072.666,0,4.772,1.134,4.772,2.628,0,.576-.324,1.027-.774,1.027-.342,0-.415-.09-.973-.919a8.546,8.546,0,0,0-3.1-2.592C956.544,1125.613,956.471,1125.559,956.471,1125.541Z" fill="#333"/>
    <path id="パス_864" data-name="パス 864" d="M969.233,1117.294a4.238,4.238,0,0,0,1.494.378,46.624,46.624,0,0,0,6.788-.846c.559-.252.63-.288.756-.288.4,0,.685.252,1.243.738.81.72.918.918.918,1.17,0,.234-.09.325-.414.649a2.98,2.98,0,0,0-.7,1.134,18.319,18.319,0,0,1-9.291,8.39.12.12,0,0,1-.126-.107c0-.072.054-.109.234-.235a23.428,23.428,0,0,0,7.112-7.13,10.139,10.139,0,0,0,1.224-3.043c0-.306-.3-.324-.4-.324a59.133,59.133,0,0,0-6.483,1.3,6.428,6.428,0,0,1-.9.4c-.414,0-1.854-.9-1.854-1.891,0-.342.053-.4.162-.4C969.035,1117.186,969.2,1117.294,969.233,1117.294Zm13.2-.072c0,.252-.233.684-.557.684-.288,0-.433-.18-.918-.864a5.361,5.361,0,0,0-1.171-1.17c-.072-.054-.252-.217-.252-.288s.162-.126.324-.126C981.135,1115.458,982.43,1116.394,982.43,1117.222Zm1.369-1.368c0,.2-.144.54-.468.54-.4,0-.613-.324-.918-.739a4.5,4.5,0,0,0-1.494-1.1c-.181-.09-.235-.162-.235-.216,0-.18.54-.18.685-.18C982.125,1114.161,983.8,1114.7,983.8,1115.854Z" fill="#333"/>
    <path id="パス_865" data-name="パス 865" d="M992.808,1119.437a18.162,18.162,0,0,0-.143,3.385c0,.522,0,.954.593.954.775,0,5.384-1.944,8.553-4.7.252-.216.288-.252.414-.252a.141.141,0,0,1,.144.144,22.631,22.631,0,0,1-7.076,5.4c-2.088,1.08-2.233,1.189-2.611,1.657-.09.126-.126.144-.2.144-.143,0-1.224-.882-1.224-1.369,0-.09.144-.81.162-.846a13.741,13.741,0,0,0,.09-2.323c0-2.376,0-2.862-.468-3.709a3.459,3.459,0,0,1-.4-.7c0-.072.108-.09.18-.09.2,0,2.268.36,2.268,1.1C993.1,1118.375,992.844,1119.239,992.808,1119.437Z" fill="#333"/>
    <path id="パス_866" data-name="パス 866" d="M1014.274,1125.162a12.521,12.521,0,0,0-1.764,1.477c-.342.414-.379.45-.649.45-.972,0-2.3-1.153-2.3-1.873,0-.126.019-.954.181-.954a4.475,4.475,0,0,1,.54.342,2.978,2.978,0,0,0,1.225.414c.881,0,5.653-3.186,8.642-6.14.288-.288.792-.792.828-.792a.116.116,0,0,1,.09.09C1021.062,1118.338,1018.956,1121.7,1014.274,1125.162Zm-1.476-5.923c-.487,0-.667-.288-1.26-1.189a4.062,4.062,0,0,0-1.639-1.476c-.072-.036-.162-.09-.162-.162s.144-.162.4-.162c1.927,0,3.44,1.026,3.44,2.088A.8.8,0,0,1,1012.8,1119.239Z" fill="#333"/>
    <path id="パス_867" data-name="パス 867" d="M1030.535,1114.863c.648,0,1.944.577,1.944,1.153,0,.126-.18.648-.2.756a22.844,22.844,0,0,0-.181,2.521c0,.378.09.45.6.558,1.152.27,3.907,1.584,3.907,2.917a.63.63,0,0,1-.667.63c-.431,0-.45-.036-1.692-1.639-.5-.648-1.351-1.512-1.908-1.512-.2,0-.252,0-.252,1.332,0,1.909.017,2.863.09,4.484.017.2.036.648.036.918,0,.432,0,1.638-.523,1.638-.557,0-1.008-1.224-1.008-1.692,0-.072.072-.45.072-.522a24.16,24.16,0,0,0,.162-4.177c0-5.33,0-5.726-.216-6.3a2.009,2.009,0,0,0-.63-.829.133.133,0,0,1-.036-.072C1030.067,1114.881,1030.517,1114.863,1030.535,1114.863Zm7.58,3.079c0,.234-.2.685-.558.685-.27,0-.432-.181-.9-.865a5.051,5.051,0,0,0-1.171-1.17c-.071-.054-.252-.216-.252-.288,0-.09.162-.126.324-.126C1036.837,1116.178,1038.115,1117.132,1038.115,1117.942Zm1.459-2.052c0,.2-.145.54-.469.54-.4,0-.611-.288-.935-.7a4.546,4.546,0,0,0-1.549-1.027c-.18-.072-.235-.162-.235-.2,0-.108.217-.216.685-.216C1038.367,1114.287,1039.574,1115.007,1039.574,1115.89Z" fill="#333"/>
    <path id="パス_868" data-name="パス 868" d="M1045.209,1122.748c-.324,0-.721-.108-.721-.576,0-.576.595-.576.721-.576h2.718c.72,0,.72.486.72.576,0,.576-.522.576-.72.576Z" fill="#333"/>
  </g>
  <g id="グループ_170" data-name="グループ 170" transform="translate(-866.93 -1065.448)">
    <g id="グループ_169" data-name="グループ 169">
      <path id="パス_869" data-name="パス 869" d="M905.3,1154.649h-1.6l-3.111-4.469h-.546v4.469h-1.316v-10.561h1.6a5.574,5.574,0,0,1,2.787.49,2.922,2.922,0,0,1,1.387,2.521,2.873,2.873,0,0,1-2.536,2.955Zm-5.253-5.56h.42c1.345,0,2.8-.253,2.8-1.934,0-1.652-1.568-1.891-2.871-1.891h-.351Z" fill="#333"/>
      <path id="パス_870" data-name="パス 870" d="M911.661,1144.088h5.673v1.2h-4.357v2.956h4.231v1.2h-4.231v3.992h4.357v1.205h-5.673Z" fill="#333"/>
      <path id="パス_871" data-name="パス 871" d="M928.734,1146.091a1.809,1.809,0,0,0-1.7-.995,1.666,1.666,0,0,0-1.765,1.5c0,.827.813,1.26,1.471,1.512l.757.295c1.5.588,2.619,1.414,2.619,3.18a3.256,3.256,0,0,1-3.376,3.292,3.291,3.291,0,0,1-3.264-2.956l1.331-.281a2,2,0,1,0,3.992-.055c0-1.135-.911-1.625-1.821-2l-.728-.309c-1.205-.518-2.3-1.205-2.3-2.675a2.88,2.88,0,0,1,3.109-2.732,3.012,3.012,0,0,1,2.718,1.6Z" fill="#333"/>
      <path id="パス_872" data-name="パス 872" d="M936.861,1144.088h5.673v1.2h-4.357v2.956h4.231v1.2h-4.231v3.992h4.357v1.205h-5.673Z" fill="#333"/>
      <path id="パス_873" data-name="パス 873" d="M952.521,1154.649H951.2v-9.357H948.7v-1.2h6.331v1.2h-2.507Z" fill="#333"/>
      <path id="パス_874" data-name="パス 874" d="M971.2,1144.088h1.289c1.988,0,3.865.518,3.865,2.9a2.271,2.271,0,0,1-1.133,2v.028a2.719,2.719,0,0,1,2.115,2.675c0,2.115-1.808,2.956-3.671,2.956H971.2Zm1.316,4.678h.337c1.246,0,2.269-.253,2.269-1.765,0-1.485-1.008-1.737-2.241-1.737h-.365Zm0,4.706h1.009c1.219,0,2.493-.364,2.493-1.863,0-1.484-1.512-1.793-2.689-1.793h-.813Z" fill="#333"/>
      <path id="パス_875" data-name="パス 875" d="M994.476,1149.368a5.533,5.533,0,0,1-11.065,0,5.533,5.533,0,0,1,11.065,0Zm-1.316,0a4.217,4.217,0,1,0-8.433,0,4.217,4.217,0,1,0,8.433,0Z" fill="#333"/>
      <path id="パス_876" data-name="パス 876" d="M1001.179,1144.088h2.186c3.235,0,5.925,1.709,5.925,5.224,0,3.6-2.634,5.337-5.967,5.337h-2.144Zm1.317,9.356h.463c2.689,0,5.014-1.008,5.014-4.076s-2.325-4.076-5.014-4.076h-.463Z" fill="#333"/>
      <path id="パス_877" data-name="パス 877" d="M1014.258,1144.088h1.513l2.592,4.51,2.591-4.51h1.512l-3.445,5.966v4.6h-1.316v-4.6Z" fill="#333"/>
    </g>
  </g>
  <g id="グループ_171" data-name="グループ 171" transform="translate(-866.93 -1065.448)">
    <path id="パス_878" data-name="パス 878" d="M896.174,1175.566a2.4,2.4,0,0,0-1.168-.189,4.742,4.742,0,0,0-1.2.269,3.993,3.993,0,0,1,2.739.738,2.7,2.7,0,0,1,.914,2.511,8.185,8.185,0,0,1-.819,2.874,22.4,22.4,0,0,1-1.517,2.632q-.7,1.047-1.585,2.134a14.668,14.668,0,0,1-1.96,1.988,12.571,12.571,0,0,1-2.3,1.53,6.692,6.692,0,0,1-2.565.738,4.764,4.764,0,0,1-1.275-.066,1.984,1.984,0,0,1-1.115-.6,2.134,2.134,0,0,1-.591-1.262,5.409,5.409,0,0,1,.027-1.423,9.747,9.747,0,0,1,.927-2.807,24.6,24.6,0,0,1,1.49-2.564,20.342,20.342,0,0,1,1.719-2.43,27.1,27.1,0,0,1,2.014-2.189,21.131,21.131,0,0,1,2.188-1.8,6.206,6.206,0,0,1,2.565-1.1,5.75,5.75,0,0,1,1.034-.081,1.428,1.428,0,0,1,.953.3.444.444,0,0,1,.175.309.5.5,0,0,1-.068.308.477.477,0,0,1-.241.2A.435.435,0,0,1,896.174,1175.566Zm-5.1,1.771a17.185,17.185,0,0,0-2.162,2.109,27.061,27.061,0,0,0-1.84,2.4,19.588,19.588,0,0,0-1.49,2.564,10.985,10.985,0,0,0-.927,2.807,5.248,5.248,0,0,0-.08.6,3.075,3.075,0,0,0,.014.658,2.172,2.172,0,0,0,.161.6,1.086,1.086,0,0,0,.388.47,1.689,1.689,0,0,0,1.035.31,5.53,5.53,0,0,0,1.06-.122,7.426,7.426,0,0,0,2.686-1.127,19.136,19.136,0,0,0,2.283-1.8,17.344,17.344,0,0,0,2-2.2,14.63,14.63,0,0,0,1.544-2.525q.242-.483.537-1.168a7.141,7.141,0,0,0,.443-1.41,4.082,4.082,0,0,0,.054-1.4,1.807,1.807,0,0,0-.6-1.128,1.739,1.739,0,0,0-1.208-.47,7.035,7.035,0,0,0-1.343.094.44.44,0,0,1-.43-.135.575.575,0,0,1-.161-.483,10.431,10.431,0,0,0-1.061.671Q891.448,1177.042,891.072,1177.337Z" fill="#333"/>
    <path id="パス_879" data-name="パス 879" d="M895.4,1186.253q.564-.294,1.114-.591t1.2-.67a1.3,1.3,0,0,1,.308-.967,1.062,1.062,0,0,1,.927-.43.545.545,0,0,1,.483.376.651.651,0,0,1-.107.617,1.8,1.8,0,0,1-.564.537.89.89,0,0,0,.456.108,2.475,2.475,0,0,0,1.182-.2,7.941,7.941,0,0,0,1.1-.551q.483-.162.618.107a.642.642,0,0,1-.107.645c-.09.143-.194.327-.31.551a5.039,5.039,0,0,0-.295.684,2.343,2.343,0,0,0-.135.672.607.607,0,0,0,.2.51c.089.107.327.107.711,0s.9-.286,1.545-.537c.215-.089.434-.193.657-.309s.453-.229.686-.336a1.431,1.431,0,0,0,.241-.121,1.285,1.285,0,0,1,.309-.134.453.453,0,0,1,.268,0c.081.027.121.121.121.282a.318.318,0,0,1-.121.242,1.435,1.435,0,0,1-.268.188,1.8,1.8,0,0,1-.309.134l-.241.081-1.128.51-.739.4a6.067,6.067,0,0,1-.9.4,2.636,2.636,0,0,1-.885.162.772.772,0,0,1-.672-.349.874.874,0,0,1-.161-.417,1.552,1.552,0,0,1,.013-.456,4.139,4.139,0,0,1,.108-.457c.045-.152.085-.3.121-.443l.215-.886q-.135.027-.551.134a5.359,5.359,0,0,1-.9.148,4.591,4.591,0,0,1-.926-.014.9.9,0,0,1-.659-.348q-.456.241-.751.4c-.2.107-.4.224-.6.349s-.372.224-.5.295a1.646,1.646,0,0,0-.376.2.319.319,0,0,1-.376.041.338.338,0,0,1-.161-.3A.279.279,0,0,1,895.4,1186.253Z" fill="#333"/>
    <path id="パス_880" data-name="パス 880" d="M908.194,1184.964q.107-.053.5-.215a4.453,4.453,0,0,1,.765-.241,1.44,1.44,0,0,1,.644-.014q.269.067.189.5a1.328,1.328,0,0,1-.229.483,1.821,1.821,0,0,0-.255.483,6.086,6.086,0,0,0-.308.86.9.9,0,0,0,.094.832,2.519,2.519,0,0,0,1.006-.108c.368-.107.7-.215,1.007-.322a4.853,4.853,0,0,0,.511-.269c.25-.142.514-.282.792-.416a4.414,4.414,0,0,1,.766-.3c.232-.063.376-.04.429.067q.108.189-.135.4a2.554,2.554,0,0,1-.6.389c-.241.117-.487.225-.738.322s-.412.166-.484.2q-.59.3-1.2.577a4.77,4.77,0,0,1-1.248.389.732.732,0,0,1-.779-.241,1.44,1.44,0,0,1-.215-.819,4.391,4.391,0,0,1,.148-1.075q.147-.576.309-1.06c-.412.161-.816.308-1.209.443a10.679,10.679,0,0,0-1.154.47c-.323.143-.645.305-.967.483a.407.407,0,0,1-.47-.147q-.174-.228.147-.39Zm3.142-5.425a1.554,1.554,0,0,1,.416-.6,2.476,2.476,0,0,1,.631-.417,3.974,3.974,0,0,1,.739-.255c.259-.063.506-.111.738-.147a9.6,9.6,0,0,1,1.906.08,1.465,1.465,0,0,1,.364.053c.133.036.191.135.173.3a.4.4,0,0,1-.133.229.271.271,0,0,1-.243.066,6.479,6.479,0,0,0-1.624-.12,2.88,2.88,0,0,0-1.517.5.873.873,0,0,0-.376.43.97.97,0,0,1-.322.429.422.422,0,0,1-.564,0A.44.44,0,0,1,911.336,1179.539Z" fill="#333"/>
    <path id="パス_881" data-name="パス 881" d="M913.709,1186.28q.7-.348,1.369-.671t1.37-.591a9.406,9.406,0,0,1,1.49-.4,8.575,8.575,0,0,1,1.544-.135.654.654,0,0,1,.457.147c.108.1.116.265.027.5a.527.527,0,0,1-.484.269,9.457,9.457,0,0,0-1.409,0,4.366,4.366,0,0,0-1.357.322,2.316,2.316,0,0,0-.456.242,2.838,2.838,0,0,0-.443.363,1.117,1.117,0,0,0-.282.443.646.646,0,0,0,.054.51.971.971,0,0,0,.819.537,2.757,2.757,0,0,0,1.651-.241l.484-.243a1.739,1.739,0,0,1,.388-.147.413.413,0,0,1,.364.121.566.566,0,0,1,.012.617q-.174.35-.281.591l-.376.886q.724-.751,1.53-1.437a12.258,12.258,0,0,1,1.719-1.221c.054-.036.125-.089.215-.162a2.559,2.559,0,0,1,.3-.2,1.26,1.26,0,0,1,.322-.134.307.307,0,0,1,.269.04c.125.09.17.179.134.269a.845.845,0,0,1-.188.269q-.7.376-1.343.805a12.656,12.656,0,0,0-1.263.966,16.309,16.309,0,0,0-1.329,1.263,15.46,15.46,0,0,0-1.168,1.4l-.7,1.612q-.322.805-.644,1.637t-.7,1.639c-.053.107-.121.236-.2.389a3.6,3.6,0,0,1-.268.429,1.177,1.177,0,0,1-.35.323.686.686,0,0,1-.443.094.488.488,0,0,1-.416-.3,1.068,1.068,0,0,1-.054-.537,3.4,3.4,0,0,1,.135-.59,5.083,5.083,0,0,1,.174-.484,13.833,13.833,0,0,1,1.276-2.349,24.793,24.793,0,0,1,1.624-2.163l.913-2.6a6.9,6.9,0,0,1-1.033.2,4.442,4.442,0,0,1-1.034.014,2.3,2.3,0,0,1-.873-.269,1.454,1.454,0,0,1-.551-1.826c-.143.09-.291.184-.442.282a.46.46,0,0,1-.39.094.289.289,0,0,1-.322-.228A.271.271,0,0,1,913.709,1186.28Z" fill="#333"/>
    <path id="パス_882" data-name="パス 882" d="M925.452,1184.964q.106-.053.5-.215a4.453,4.453,0,0,1,.765-.241,1.44,1.44,0,0,1,.644-.014q.269.067.189.5a1.344,1.344,0,0,1-.229.483,1.823,1.823,0,0,0-.255.483,6.086,6.086,0,0,0-.308.86.9.9,0,0,0,.093.832,2.522,2.522,0,0,0,1.007-.108q.551-.16,1.007-.322a4.847,4.847,0,0,0,.511-.269c.25-.142.513-.282.792-.416a4.437,4.437,0,0,1,.765-.3c.233-.063.376-.04.43.067q.107.189-.135.4a2.554,2.554,0,0,1-.6.389c-.241.117-.488.225-.739.322s-.412.166-.483.2q-.59.3-1.2.577a4.793,4.793,0,0,1-1.248.389.734.734,0,0,1-.78-.241,1.447,1.447,0,0,1-.214-.819,4.341,4.341,0,0,1,.148-1.075q.147-.576.309-1.06-.62.242-1.209.443a10.694,10.694,0,0,0-1.155.47c-.322.143-.644.305-.966.483a.407.407,0,0,1-.47-.147c-.116-.152-.068-.282.147-.39Zm3.141-5.425a1.567,1.567,0,0,1,.417-.6,2.476,2.476,0,0,1,.631-.417,3.974,3.974,0,0,1,.739-.255c.258-.063.505-.111.738-.147a9.6,9.6,0,0,1,1.906.08,1.458,1.458,0,0,1,.363.053.238.238,0,0,1,.174.3.4.4,0,0,1-.134.229.268.268,0,0,1-.242.066,6.479,6.479,0,0,0-1.624-.12,2.88,2.88,0,0,0-1.517.5.872.872,0,0,0-.376.43.972.972,0,0,1-.323.429.421.421,0,0,1-.563,0A.442.442,0,0,1,928.593,1179.539Z" fill="#333"/>
    <path id="パス_883" data-name="パス 883" d="M930.841,1186.28l1.021-.55q.724-.39,1.49-.738a6.815,6.815,0,0,1,1.41-.484c.43-.09.7-.017.806.215a.531.531,0,0,1-.067.523,2.268,2.268,0,0,0-.255.47l-.322.752a6.571,6.571,0,0,1,.7-.376l.7-.322q.858-.456,1.772-.967a8.639,8.639,0,0,1,1.853-.778,1.314,1.314,0,0,1,.618-.014.773.773,0,0,1,.416.241.688.688,0,0,1,.148.457,1.109,1.109,0,0,1-.215.6,4.444,4.444,0,0,1-.524.671q-.282.3-.577.644a1.5,1.5,0,0,1-.188.215c-.09.09-.184.192-.282.309s-.188.233-.269.349a.883.883,0,0,0-.148.309,1.026,1.026,0,0,0,.47,0,4.208,4.208,0,0,0,.565-.148q.281-.093.537-.2l.389-.161,1.1-.483c.071-.036.165-.09.282-.161s.237-.139.363-.2.246-.12.362-.174a.728.728,0,0,1,.282-.08.213.213,0,0,1,.241.242.42.42,0,0,1-.215.376c-.161.09-.331.174-.509.255l-.565.254q-.376.216-.724.376c-.234.108-.475.224-.726.35-.142.071-.371.174-.685.309a4.85,4.85,0,0,1-.939.295,1.568,1.568,0,0,1-.819-.027q-.349-.122-.349-.658a.887.887,0,0,1,.134-.483,3.324,3.324,0,0,1,.308-.416c.117-.135.243-.264.376-.39s.256-.241.364-.349a6.058,6.058,0,0,0,.537-.564,2.191,2.191,0,0,0,.483-.806,5.662,5.662,0,0,0-1.464.376,14.814,14.814,0,0,0-1.356.618q-.78.376-1.611.846a6.261,6.261,0,0,0-1.451,1.114.508.508,0,0,1-.563.068.437.437,0,0,1-.2-.2.5.5,0,0,1-.014-.349.838.838,0,0,1,.4-.43,4.759,4.759,0,0,0,.269-.5,1.669,1.669,0,0,1,.188-.335c.036-.125.072-.256.108-.389a3.266,3.266,0,0,0,.08-.417q-.3.081-.591.188c-.2.072-.348.126-.456.161q-.376.162-.752.309c-.251.1-.5.211-.752.336q-.215.108-.39.214a2.166,2.166,0,0,1-.389.189.428.428,0,0,1-.309.04.5.5,0,0,1-.227-.121.233.233,0,0,1-.068-.2C930.649,1186.4,930.716,1186.334,930.841,1186.28Z" fill="#333"/>
    <path id="パス_884" data-name="パス 884" d="M943.06,1186.28c.214-.107.488-.246.819-.416s.684-.335,1.06-.5.739-.313,1.088-.457.64-.258.873-.348q.188-.081.671-.242c.322-.108.662-.2,1.02-.295a7.829,7.829,0,0,1,1.007-.189,1.1,1.1,0,0,1,.686.081c.215.2.255.376.12.537a.815.815,0,0,1-.5.3l-1.209.135a2.735,2.735,0,0,0-.631.255q-.255.148-.577.362c-.09.073-.246.22-.47.444s-.443.465-.658.724a4.324,4.324,0,0,0-.511.752q-.187.363,0,.525a.613.613,0,0,0,.525.053,4.094,4.094,0,0,0,.738-.242q.375-.16.7-.336a4.018,4.018,0,0,0,.43-.255,5.836,5.836,0,0,0,1.262-1.02.355.355,0,0,1,.523-.068.455.455,0,0,1,.175.551.726.726,0,0,1-.188.322l-.255.255a.944.944,0,0,0-.2.336c-.071.126-.09.22-.053.283a.266.266,0,0,0,.188.121,2.979,2.979,0,0,0,.939-.054,10.515,10.515,0,0,0,1.168-.3,11.636,11.636,0,0,0,1.2-.443q.59-.255,1.02-.47a1.089,1.089,0,0,0,.295-.148,2.281,2.281,0,0,1,.39-.2,1.045,1.045,0,0,1,.39-.081.278.278,0,0,1,.268.161.22.22,0,0,1-.014.3.952.952,0,0,1-.335.228c-.144.063-.287.121-.43.175a3.366,3.366,0,0,0-.323.134q-.456.216-.913.416l-.939.416c-.215.09-.447.2-.7.323a6.037,6.037,0,0,1-.779.322,4.245,4.245,0,0,1-.819.187,1.533,1.533,0,0,1-.766-.08.8.8,0,0,1-.537-.523,1.377,1.377,0,0,1,.028-.712l-.726.43q-.457.267-.953.55a2.589,2.589,0,0,1-1.034.335,1.4,1.4,0,0,1-.86-.214.889.889,0,0,1-.4-.751,1.582,1.582,0,0,1,.215-.686,5.831,5.831,0,0,1,.551-.859,6.377,6.377,0,0,1,.738-.819,3.7,3.7,0,0,1,.752-.564,5.2,5.2,0,0,0-.6.242q-.416.188-.939.456c-.35.18-.717.362-1.1.551s-.738.362-1.06.523a.319.319,0,0,1-.269.04.362.362,0,0,1-.2-.133.305.305,0,0,1-.054-.215A.273.273,0,0,1,943.06,1186.28Z" fill="#333"/>
    <path id="パス_885" data-name="パス 885" d="M954.893,1186.253a16.926,16.926,0,0,0,1.612-.832q.777-.456,1.557-.994a14.514,14.514,0,0,1,.832-1.45q.457-.7.887-1.369.456-.618.913-1.249t.939-1.249q.4-.537.873-1.087a4.032,4.032,0,0,1,1.088-.9,2.25,2.25,0,0,1,.725-.227.5.5,0,0,1,.591.389.864.864,0,0,1,.014.578,2.44,2.44,0,0,1-.283.563,6.022,6.022,0,0,1-.4.537c-.144.171-.26.318-.35.443a21.468,21.468,0,0,1-2.4,2.861,25.21,25.21,0,0,1-2.86,2.457c-.09.215-.193.442-.309.685a6.465,6.465,0,0,0-.309.765,4.473,4.473,0,0,0-.188.792,2.037,2.037,0,0,0,.027.738q.3-.053.538-.08c.142-.018.277-.031.4-.041a.742.742,0,0,0,.242-.04,12.15,12.15,0,0,0,1.584-.429q.779-.269,1.531-.591a2.233,2.233,0,0,0,.51-.215.485.485,0,0,1,.511-.027c.2.144.223.273.08.389a1.766,1.766,0,0,1-.4.256l-3.115,1.154q-.456.162-.886.336a2.769,2.769,0,0,1-.886.2.868.868,0,0,1-.645-.122.9.9,0,0,1-.336-.456,1.555,1.555,0,0,1-.067-.618,3.451,3.451,0,0,1,.107-.631,9.305,9.305,0,0,1,.484-1.289,20.815,20.815,0,0,1-2.31,1.317.418.418,0,0,1-.442-.175C954.63,1186.491,954.678,1186.361,954.893,1186.253Zm5.451-3.678a20.817,20.817,0,0,0,2.31-2.552,9.12,9.12,0,0,0,.913-1.289c.036-.089.09-.2.161-.335a3.734,3.734,0,0,0,.189-.417,2.924,2.924,0,0,0-.712.51c-.225.215-.407.394-.551.538a14.218,14.218,0,0,0-1.154,1.3q-.539.684-1.075,1.41-.3.431-.564.845t-.51.847c.161-.125.326-.265.5-.417S960.183,1182.718,960.344,1182.575Z" fill="#333"/>
    <path id="パス_886" data-name="パス 886" d="M973.609,1181.017a18.5,18.5,0,0,1,2.471-1.84q1.315-.819,2.659-1.518.939-.483,1.933-.913a19.944,19.944,0,0,1,2.041-.751l.268-.322q.483-.511,1.034-.994a3.88,3.88,0,0,1,1.2-.725,3.43,3.43,0,0,1,.469-.107,2.207,2.207,0,0,1,.591-.027.881.881,0,0,1,.47.174q.188.148.081.5a.4.4,0,0,1-.242.268.521.521,0,0,1-.4,0,.83.83,0,0,0-.51-.054,2.033,2.033,0,0,0-.55.2,3.366,3.366,0,0,0-.551.362q-.27.214-.483.376a11.783,11.783,0,0,1,1.423-.134,6.08,6.08,0,0,1,1.463.12,3.746,3.746,0,0,1,1.3.537,2.519,2.519,0,0,1,.913,1.115,1.587,1.587,0,0,1,.04,1.289,3.491,3.491,0,0,1-.779,1.141,7.367,7.367,0,0,1-1.154.941q-.632.415-1.115.684-1.128.7-2.3,1.289t-2.376,1.128a17.2,17.2,0,0,1,2.43-.309,4.793,4.793,0,0,1,2.242.389,1.883,1.883,0,0,1,.886.685,1.981,1.981,0,0,1,.336.954,2.353,2.353,0,0,1-.161,1.033,2.64,2.64,0,0,1-.6.927,6.33,6.33,0,0,1-2.389,1.49,27.872,27.872,0,0,1-2.713.819,28.463,28.463,0,0,1-4.753.886,1.489,1.489,0,0,0,.4.618.432.432,0,0,1,.188.376.408.408,0,0,1-.188.295.616.616,0,0,1-.389.1.579.579,0,0,1-.416-.256,2.059,2.059,0,0,1-.3-.51,5.169,5.169,0,0,1-.188-.564,13.075,13.075,0,0,1-1.5.081,9.954,9.954,0,0,1-1.5-.107c-.144-.019-.336-.045-.578-.082a4.329,4.329,0,0,1-.725-.173,2.033,2.033,0,0,1-.617-.323.609.609,0,0,1-.256-.5q0-.35.188-.416a.564.564,0,0,1,.416.027,3.19,3.19,0,0,1,.47.242,2.779,2.779,0,0,0,.376.2,5.745,5.745,0,0,0,1.557.322c.538.035,1.075.054,1.612.054h.483a6.67,6.67,0,0,1,.282-2.067q.309-1.049.6-1.827l.134-.4c-.125.054-.251.1-.376.148a4,4,0,0,1-.4.121h-.027a.817.817,0,0,1-.5-.04q-.2-.094-.175-.416a.4.4,0,0,1,.175-.323,1.657,1.657,0,0,1,.416-.228,3.047,3.047,0,0,1,.523-.148c.188-.036.354-.071.5-.107l.349-.081q.457-1.047.981-2.041t1.114-1.96q.564-.94,1.154-1.866t1.263-1.786q-.753.3-1.45.617t-1.316.644a17.891,17.891,0,0,0-1.921,1.088,18.3,18.3,0,0,0-1.785,1.329,2.5,2.5,0,0,0-.308.31q-.177.2-.364.4a2.84,2.84,0,0,1-.388.35.531.531,0,0,1-.39.12.436.436,0,0,1-.416-.322A.468.468,0,0,1,973.609,1181.017Zm3.143,7.841a3.206,3.206,0,0,0-.081,1.128q1.234-.108,2.457-.323a18.192,18.192,0,0,0,2.4-.59q.59-.162,1.289-.389a10.38,10.38,0,0,0,1.356-.551,7.959,7.959,0,0,0,1.222-.738,3.182,3.182,0,0,0,.887-.981,1.111,1.111,0,0,0,.161-1.114,1.578,1.578,0,0,0-.779-.645,4.435,4.435,0,0,0-1.2-.308,9.207,9.207,0,0,0-1.087-.081q-1.1.054-2.256.2a18.284,18.284,0,0,0-2.283.443l-1.181.457h-.028a14.521,14.521,0,0,0-.577,1.719A10.416,10.416,0,0,0,976.752,1188.858Zm5.343-11.091q-.94,1.209-1.758,2.484a28.221,28.221,0,0,0-1.491,2.618c-.143.251-.278.5-.4.752s-.241.5-.349.752q1.5-.508,2.967-1.154t2.861-1.37a19.639,19.639,0,0,0,1.758-.993,12.3,12.3,0,0,0,1.6-1.209,9,9,0,0,0,.685-.711,1.62,1.62,0,0,0,.417-.873.748.748,0,0,0-.1-.457,1.455,1.455,0,0,0-.322-.389,2.884,2.884,0,0,0-.43-.309,3.721,3.721,0,0,0-.416-.215,4.964,4.964,0,0,0-1.987-.349,9,9,0,0,0-2.068.3c-.18.18-.349.363-.511.551S982.238,1177.571,982.095,1177.767Z" fill="#333"/>
    <path id="パス_887" data-name="パス 887" d="M988.4,1186.253a16.785,16.785,0,0,0,1.611-.832q.779-.456,1.558-.994a14.314,14.314,0,0,1,.832-1.45q.457-.7.887-1.369.456-.618.913-1.249t.939-1.249q.4-.537.873-1.087a4.032,4.032,0,0,1,1.088-.9,2.25,2.25,0,0,1,.725-.227.5.5,0,0,1,.591.389.858.858,0,0,1,.013.578,2.394,2.394,0,0,1-.282.563,6.022,6.022,0,0,1-.4.537c-.144.171-.26.318-.35.443a21.542,21.542,0,0,1-2.4,2.861,25.2,25.2,0,0,1-2.86,2.457c-.09.215-.193.442-.309.685a6.475,6.475,0,0,0-.309.765,4.468,4.468,0,0,0-.188.792,2.037,2.037,0,0,0,.027.738q.3-.053.537-.08c.143-.018.278-.031.4-.041a.742.742,0,0,0,.242-.04,12.152,12.152,0,0,0,1.584-.429c.52-.179,1.029-.376,1.531-.591a2.233,2.233,0,0,0,.51-.215.485.485,0,0,1,.511-.027c.2.144.223.273.08.389a1.766,1.766,0,0,1-.4.256l-3.115,1.154c-.3.108-.6.22-.887.336a2.757,2.757,0,0,1-.885.2.868.868,0,0,1-.645-.122.9.9,0,0,1-.336-.456,1.555,1.555,0,0,1-.067-.618,3.451,3.451,0,0,1,.107-.631A9.305,9.305,0,0,1,991,1185.5a20.82,20.82,0,0,1-2.31,1.317.417.417,0,0,1-.442-.175Q988.072,1186.415,988.4,1186.253Zm5.451-3.678a20.817,20.817,0,0,0,2.31-2.552,9.115,9.115,0,0,0,.913-1.289c.036-.089.09-.2.161-.335a3.723,3.723,0,0,0,.189-.417,2.926,2.926,0,0,0-.712.51c-.225.215-.408.394-.551.538a14.218,14.218,0,0,0-1.154,1.3q-.539.684-1.075,1.41-.3.431-.564.845t-.51.847c.161-.125.326-.265.5-.417S993.685,1182.718,993.846,1182.575Z" fill="#333"/>
    <path id="パス_888" data-name="パス 888" d="M996.279,1186.253q.483-.242,1.007-.537a9.091,9.091,0,0,1,1.06-.51,2.742,2.742,0,0,1,.995-1.007,4.067,4.067,0,0,1,1.369-.524,3.622,3.622,0,0,1,.873,0,1.065,1.065,0,0,1,.765.4.42.42,0,0,1,.094.456,1.28,1.28,0,0,1-.322.458,3.175,3.175,0,0,1-.511.388q-.281.175-.416.256a3.8,3.8,0,0,1-1.061.442,3.4,3.4,0,0,1-1.167.095h-.108a1.508,1.508,0,0,0,.484.913,2.34,2.34,0,0,0,.885.47,3.213,3.213,0,0,0,1.061.121,8.244,8.244,0,0,0,1.008-.107,12.38,12.38,0,0,0,1.261-.336,11.826,11.826,0,0,0,1.209-.47c.179-.09.363-.175.55-.256a5.491,5.491,0,0,0,.525-.255.511.511,0,0,1,.388.054c.135.072.148.188.04.35a.682.682,0,0,1-.375.294q-.242.081-.429.162l-1.343.59a22.824,22.824,0,0,1-2.445.806,4.037,4.037,0,0,1-1.086.067,3.133,3.133,0,0,1-1.021-.242,2.684,2.684,0,0,1-.847-.577,2.121,2.121,0,0,1-.537-.967c-.036-.142-.066-.286-.094-.429a.877.877,0,0,1,.014-.4,5.263,5.263,0,0,0-.577.309l-.5.308a2.073,2.073,0,0,0-.35.2.362.362,0,0,1-.429.013.308.308,0,0,1-.148-.3A.251.251,0,0,1,996.279,1186.253Zm2.739-.752a3.1,3.1,0,0,0,1.249-.322,3.9,3.9,0,0,0,1.061-.752,1.513,1.513,0,0,0-.738-.08,2.092,2.092,0,0,0-.672.215,2.065,2.065,0,0,0-.551.416A1.689,1.689,0,0,0,999.018,1185.5Z" fill="#333"/>
    <path id="パス_889" data-name="パス 889" d="M1005.754,1186.28l1.02-.55c.483-.26.981-.506,1.49-.738a6.817,6.817,0,0,1,1.41-.484c.43-.09.7-.017.806.215a.531.531,0,0,1-.067.523,2.309,2.309,0,0,0-.255.47l-.322.752a6.571,6.571,0,0,1,.7-.376l.7-.322q.858-.456,1.773-.967a8.609,8.609,0,0,1,1.852-.778,1.314,1.314,0,0,1,.618-.014.772.772,0,0,1,.416.241.688.688,0,0,1,.148.457,1.109,1.109,0,0,1-.215.6,4.44,4.44,0,0,1-.524.671q-.282.3-.577.644a1.509,1.509,0,0,1-.188.215c-.09.09-.184.192-.282.309s-.188.233-.269.349a.861.861,0,0,0-.147.309,1.022,1.022,0,0,0,.469,0,4.209,4.209,0,0,0,.565-.148q.281-.093.537-.2l.389-.161,1.1-.483c.071-.036.165-.09.282-.161s.237-.139.363-.2.246-.12.362-.174a.727.727,0,0,1,.282-.08.213.213,0,0,1,.241.242.421.421,0,0,1-.214.376c-.162.09-.332.174-.51.255s-.367.166-.565.254q-.376.216-.724.376c-.234.108-.475.224-.726.35-.142.071-.371.174-.684.309a4.881,4.881,0,0,1-.94.295,1.568,1.568,0,0,1-.819-.027q-.349-.122-.349-.658a.887.887,0,0,1,.134-.483,3.24,3.24,0,0,1,.309-.416,5.078,5.078,0,0,1,.376-.39q.2-.187.363-.349a6.065,6.065,0,0,0,.537-.564,2.191,2.191,0,0,0,.483-.806,5.663,5.663,0,0,0-1.464.376,14.822,14.822,0,0,0-1.356.618q-.778.376-1.611.846a6.282,6.282,0,0,0-1.451,1.114.508.508,0,0,1-.563.068.437.437,0,0,1-.2-.2.5.5,0,0,1-.014-.349.838.838,0,0,1,.4-.43,4.736,4.736,0,0,0,.269-.5,1.6,1.6,0,0,1,.189-.335c.035-.125.071-.256.107-.389a3.277,3.277,0,0,0,.08-.417q-.3.081-.591.188c-.2.072-.348.126-.456.161q-.377.162-.752.309c-.251.1-.5.211-.752.336-.143.072-.273.143-.389.214a2.211,2.211,0,0,1-.39.189.427.427,0,0,1-.309.04.505.505,0,0,1-.227-.121.236.236,0,0,1-.068-.2C1005.561,1186.4,1005.629,1186.334,1005.754,1186.28Z" fill="#333"/>
    <path id="パス_890" data-name="パス 890" d="M1018.023,1186.253a8.353,8.353,0,0,0,1.329-.591q.632-.348,1.3-.644a5.393,5.393,0,0,1,.886-.349l.913-.268a3.48,3.48,0,0,1,1.155-.189.485.485,0,0,1,.4.215.39.39,0,0,1,.028.457.46.46,0,0,1-.242.228,1.139,1.139,0,0,1-.363.081c-.135.008-.268.013-.4.013h-.362a1.969,1.969,0,0,0-.765.228,4,4,0,0,0-.739.5,3.466,3.466,0,0,0-.832.859c-.019.036-.059.113-.121.229s-.121.237-.175.362a2.208,2.208,0,0,0-.12.35.236.236,0,0,0,.04.241.259.259,0,0,0,.255.04,1.368,1.368,0,0,0,.349-.134c.116-.062.224-.125.322-.188a2.221,2.221,0,0,1,.2-.12q.454-.268.859-.565t.832-.591l1.263-1.128q.455-.939.967-1.866t1.046-1.84q.376-.617.752-1.235t.806-1.235q.4-.564.886-1.168a3.361,3.361,0,0,1,1.128-.927c.125-.035.246-.071.363-.107a.62.62,0,0,1,.362,0,.706.706,0,0,1,.43.214.654.654,0,0,1,.147.39,1.531,1.531,0,0,1-.053.483,1.851,1.851,0,0,1-.175.444,11.342,11.342,0,0,1-1.033,1.476q-.579.7-1.169,1.4-.914,1.1-1.839,2.135t-1.947,2q-.135.376-.255.725c-.081.232-.166.475-.255.725-.036.09-.077.2-.121.322s-.09.26-.135.4a3.71,3.71,0,0,0-.107.43.921.921,0,0,0-.013.349,3.28,3.28,0,0,0,.979-.215q.5-.187.927-.376a13.414,13.414,0,0,0,1.518-.712c.509-.277,1-.541,1.463-.792a.5.5,0,0,1,.228-.067.9.9,0,0,1,.269.013.178.178,0,0,1,.147.135.433.433,0,0,1-.08.3.755.755,0,0,1-.4.309q-.268.095-.456.174-.751.376-1.5.78t-1.477.8q-.215.109-.483.256a4.127,4.127,0,0,1-.565.255,1.694,1.694,0,0,1-.577.107.919.919,0,0,1-.523-.161.824.824,0,0,1-.31-.457,1.553,1.553,0,0,1-.026-.577,3.093,3.093,0,0,1,.134-.591q.094-.281.175-.5c.017-.071.036-.138.053-.2s.045-.138.081-.227l-1.343,1.154q-.215.214-.483.443a3.776,3.776,0,0,1-.577.4,2.515,2.515,0,0,1-.632.254,1.3,1.3,0,0,1-.644,0,.894.894,0,0,1-.658-.509,1.167,1.167,0,0,1,.027-.779,3.356,3.356,0,0,1,.469-.873,6.834,6.834,0,0,1,.7-.819l-.671.269q-.27.133-.645.362a1.624,1.624,0,0,1-.672.256.264.264,0,0,1-.268.012.348.348,0,0,1-.148-.173.4.4,0,0,1-.012-.229A.247.247,0,0,1,1018.023,1186.253Zm7.627-2.632q.7-.725,1.369-1.49t1.289-1.571q.269-.375.537-.738t.51-.766a5.957,5.957,0,0,1,.31-.51,1.806,1.806,0,0,0,.281-.644,1.675,1.675,0,0,0-.7.509c-.215.251-.385.449-.51.591a16.778,16.778,0,0,0-1.154,1.4q-.539.724-1.021,1.5l-1.074,1.88Z" fill="#333"/>
  </g>
</svg>
