<svg id="lineup_kamairi_name" xmlns="http://www.w3.org/2000/svg" width="318.906" height="105.634" viewBox="0 0 318.906 105.634">
  <g id="グループ_234" data-name="グループ 234" transform="translate(-801.315 -1065.296)">
    <path id="パス_1136" data-name="パス 1136" d="M811.536,1075.592c-.57,0-1.026.19-1.1.76-.038.342-.038,5.015-.038,5.585,0,.722,0,.912.38.912.456,0,3.419-1.254,3.686-1.254.075,0,.151,0,.151.076a16.413,16.413,0,0,1-2.85,2.052,2.2,2.2,0,0,0-1.367,2.508c0,1.292.114,7.029.114,8.207,0,.607,0,4.1-.076,4.407a2.066,2.066,0,0,1-1.9,1.292c-.608,0-.874-.19-.874-.912,0-1.976.305-10.6.305-12.348,0-.152,0-.494-.343-.494a19.252,19.252,0,0,0-3.419,2.089c-.3.57-.342.646-.532.646-.608,0-2.2-2.887-2.2-3.077,0-.228.19-.3.8-.342,1.064-.114,5.053-1.444,5.471-2.014a1.286,1.286,0,0,0,.267-.95c.037-1.14.037-4.711.037-6.079,0-.418-.037-1.064-1.064-1.064h-2.355c-.836,0-.912.19-1.445,1.292a10.3,10.3,0,0,1-1.823,2.964c-.038,0-.038-.077-.038-.114,0-.266.836-3.534.95-4.218a33.931,33.931,0,0,0,.646-5.775c0-.152-.076-.836-.076-.988,0-.228.038-.38.341-.38.229,0,2.888.684,2.888,1.292a11.584,11.584,0,0,1-.8,1.52,30.349,30.349,0,0,0-.874,2.963c0,.343.267.418.532.418h2.014c.684,0,1.065-.3,1.065-.987,0-1.406-.038-3.876-.115-5.4,0-.379-.19-2.051-.19-2.431,0-.152.038-.342.3-.342.151,0,3.457.684,3.457,1.368,0,.266-.038.341-.608.912-.266.3-.266.493-.342,2.317,0,.532-.039,3.192-.039,3.724,0,.266,0,.8.533.8a1.252,1.252,0,0,0,.988-.569c.836-1.216.911-1.33,1.216-1.33.493,0,2.545,1.823,2.545,2.355,0,.608-.646.608-2.052.608Zm14.4-3.305c-1.1,0-1.1.646-1.1,1.482,0,4.825,0,4.9,1.063,4.9h3.23a5.01,5.01,0,0,0,1.862-.152c.342-.152,1.254-1.9,1.634-1.9.227,0,3.115,2.052,3.115,2.584,0,.456-.228.456-2.052.456H819.552c-1.1,0-2.584,0-3.989.076-.265,0-1.368.114-1.557.114-.153,0-.153,0-.418-.3l-.685-.8c-.189-.19-.189-.228-.189-.266s.076-.076.152-.076c.265,0,1.443.114,1.671.114,2.431.114,3.914.152,5.206.152H821.3c.95,0,1.064-.532,1.064-1.254,0-.532.038-4.027-.038-4.407a.92.92,0,0,0-1.064-.722c-1.177,0-1.824,0-3.115.038-.381,0-1.976.152-2.28.152-.151,0-.151-.076-.418-.342l-.684-.76c-.152-.152-.19-.228-.19-.266,0-.076.076-.114.152-.114.228,0,1.292.114,1.52.114.456.038,3.191.152,4.674.152.759,0,1.4,0,1.4-1.1,0-.646-.038-2.128-.076-2.736-.038-.265-.19-1.557-.19-1.709s0-.38.266-.38c.114,0,2.431.608,3.04.836.076.038.418.19.418.38,0,.228-.8.911-.874,1.1a16.327,16.327,0,0,0-.114,2.432c0,.57,0,1.178,1.1,1.178h1.634a5.217,5.217,0,0,0,1.862-.114c.3-.152,1.064-1.748,1.367-1.748.229,0,2.737,1.786,2.737,2.356,0,.532-.76.532-2.014.532Zm3.382,14.172c-.988,0-1.1.342-1.1,2.811,0,1.14.113,6.231.113,7.257,0,3.458-2.659,3.458-3.077,3.458-.722,0-.8-.266-.989-.95-.227-.874-.836-1.216-1.671-1.558-.95-.418-1.064-.456-1.064-.608,0-.114.3-.152.418-.152.38,0,2.09.076,2.432.076.759,0,1.519,0,1.519-1.71,0-1.139-.113-6.877-.113-7.1,0-.836,0-1.52-1.065-1.52h-4.445c-1.1,0-2.545,0-3.989.076-.19,0-1.444.114-1.558.114-.152,0-.152,0-.38-.266l-.759-.836a.572.572,0,0,1-.153-.228c0-.076.076-.114.153-.114.265,0,1.481.114,1.71.114,2.431.114,3.875.152,5.167.152h4.216c1.065,0,1.065-.722,1.065-1.178,0-.532-.153-2.812-.153-3.268,0-.114,0-.3.342-.3.191,0,2.432.38,2.546.418.38.076.684.19.684.532,0,.19-.608.836-.684.988a5.176,5.176,0,0,0-.152,1.748c0,1.064.684,1.064,1.444,1.064.684,0,.949-.3,1.292-.836.228-.38.684-1.026,1.026-1.026.379,0,2.811,1.786,2.811,2.318s-.76.532-2.014.532ZM816.968,1089c.533,0,3.914.874,3.914,3.5,0,1.33-.646,2.089-1.482,2.089-.645,0-.722-.228-1.367-2.317a9.359,9.359,0,0,0-1.292-2.774c-.038-.076-.152-.266-.076-.38C816.7,1089,816.855,1089,816.968,1089Z" fill="#333"/>
    <path id="パス_1137" data-name="パス 1137" d="M850,1081.064c-.153-.153-.153-.228-.153-.267,0-.076.077-.076.115-.076.683,0,3.913.229,4.672.229a1.468,1.468,0,0,0,1.292-.722c.836-.912.951-1.026,1.1-1.026.19,0,2.47,1.33,2.47,2.013a.268.268,0,0,1-.115.228c-.113.114-.8.57-.911.684-.266.19-.266.646-.266,4.826,0,4.635,0,4.977.988,6.307,1.634,2.2,3.762,2.849,10.828,2.849a82.713,82.713,0,0,0,12.007-.646c.493-.076,3.039-.57,3.077-.57.076,0,.191,0,.191.114a5.864,5.864,0,0,1-.685.76,7.027,7.027,0,0,0-.874,1.368c-.645,1.444-.684,1.558-1.14,1.71-.418.114-4.331.152-4.977.152-3.457,0-9.309-.19-11.74-.494a8.656,8.656,0,0,1-6.687-3.724,20.434,20.434,0,0,0-1.557-2.317,24.925,24.925,0,0,0-3.877,4.825c-.607,1.292-.683,1.444-1.063,1.444-.3,0-1.368-1.292-1.634-1.52-.38-.3-.912-.8-.912-1.14,0-.228.229-.266.494-.3.988-.19,4.978-2.241,5.205-3.913v-8.435c0-.874-.038-1.444-1.139-1.444-.077,0-1.862.038-2.85.114-.114,0-.684.076-.8.076s-.19-.076-.342-.266Zm6.99-5.966c-.8,0-.949-.266-2.279-2.7a21.212,21.212,0,0,0-3.686-4.37c-.532-.531-.607-.608-.607-.76,0-.113.113-.189.3-.189a16.2,16.2,0,0,1,3.8,1.481c1.9.988,3.648,2.47,3.648,5.282A1.2,1.2,0,0,1,856.988,1075.1Zm2.774,12.918c-.152-.19-.152-.19-.152-.228a.1.1,0,0,1,.114-.114c.19,0,1.026.114,1.254.114.38.038,3.192.152,4.066.152,1.4,0,1.4-.114,1.4-1.9,0-1.1,0-1.634-1.178-1.634-.418,0-2.7.152-2.926.152-.151,0-.227-.076-.341-.228l-.646-.874c-.114-.19-.152-.19-.152-.266s.076-.076.114-.076c.569,0,3.381.228,4.027.228.911,0,1.026-.456,1.026-1.1a6.126,6.126,0,0,0-.115-1.367c-.037-.114-.3-.874-.3-.912,0-.076.076-.076.228-.076.608,0,2.925.266,2.925,1.139,0,.153-.418.836-.455,1.026a2.172,2.172,0,0,0-.038.532c0,.8.493.8.8.8h2.773c.988,0,1.178-.342,1.178-1.14,0-.38-.152-2.165-.152-2.545,0-.228.3-.228.456-.228.456,0,2.622.456,2.622.911a13.276,13.276,0,0,1-.571,1.292,3.313,3.313,0,0,0-.076.76c0,.684.114.95.8.95,1.065,0,1.292-.114,1.672-.646.95-1.33,1.064-1.482,1.406-1.482.722,0,2.394,2.318,2.394,2.508,0,.608-.95.608-1.748.608h-3.344c-.569,0-1.178.152-1.178,1.026,0,2.317,0,2.545,1.178,2.545h1.254c1.558,0,1.71,0,2.2-.646.95-1.329,1.063-1.481,1.405-1.481.723,0,2.395,2.317,2.395,2.507,0,.646-.912.646-1.748.646H865.765c-1.026,0-2.66,0-4.065.076-.114,0-.912.114-.988.114-.115,0-.19-.114-.3-.266Zm4.408-15.083c-.723,0-.874.342-.874.95a5.521,5.521,0,0,0,.3,2.279c.266.532.532.532,2.964.532,1.178,0,2.127,0,2.736-1.026.152-.228.721-1.406.874-1.406a.516.516,0,0,1,.227.3c.076.19.229,1.064.267,1.254.038.152.493.836.493.988,0,.57-.873,1.406-1.747,1.748a14.471,14.471,0,0,1-4.522.38c-3.42,0-3.5-1.292-3.5-4.712a15.47,15.47,0,0,0-.113-1.9c0-.114-.191-.646-.191-.8,0-.266.457-.3.571-.3a3.177,3.177,0,0,1,1.519.456,2.476,2.476,0,0,0,1.064.266h1.6c.646,0,1.1-.152,1.1-1.1,0-2.356,0-2.622-1.292-2.622-.912,0-2.7.038-3.762.114-.113,0-.683.076-.8.076-.151,0-.189-.076-.341-.228l-.722-.873c-.19-.191-.19-.191-.19-.266s.114-.076.152-.076c.19,0,1.14.114,1.368.114.493.037,3.571.151,4.255.151s.988-.037,1.254-.493c.227-.342.456-.722.836-.722.152,0,2.166,1.292,2.166,1.6,0,.152-.038.191-.456.532-.342.3-.342.76-.342,1.33,0,.38.075,2.356.075,2.812a1.377,1.377,0,0,1-1.4,1.519,1.073,1.073,0,0,1-.95-.569,1.044,1.044,0,0,0-.912-.3Zm5.356,18.2c0,.266-.075.266-.987.722-.494.228-2.66,1.634-3.154,1.862a7.7,7.7,0,0,1-3,.95c-.114,0-.341-.039-.341-.228a27.134,27.134,0,0,1,2.2-1.786,9.577,9.577,0,0,0,2.013-2.66c.3-.684.381-.684.533-.684a1.193,1.193,0,0,1,.341.114C867.627,1089.688,869.526,1090.714,869.526,1091.132Zm.114-6.763c-1.025,0-1.025.722-1.025,1.52,0,1.748,0,2.051,1.292,2.051h2.279c1.178,0,1.292-.3,1.292-1.443,0-1.672,0-2.128-1.1-2.128Zm6-11.132c-.8,0-1.1.076-1.1,1.025,0,1.9,0,2.356,2.622,2.356,1.937,0,4.293,0,4.749-1.1.114-.3.494-1.824.683-1.824.153,0,.722,1.444.874,1.672.115.19.836.95.836,1.178,0,.57-.759,1.178-1.481,1.6-.723.38-1.521.646-4.142.646-6.117,0-6.117-.342-6.117-3.8,0-.456-.3-2.735-.3-2.887,0-.266.418-.342.646-.342.076,0,1.368.3,1.519.342a3.928,3.928,0,0,0,1.178.152h2.2c.836,0,1.178-.228,1.178-1.1,0-.3,0-1.938-.076-2.28a.917.917,0,0,0-.949-.646c-2.281,0-3.762.038-3.952.076-.114,0-1.026.114-1.1.114-.152,0-.19-.076-.342-.228l-.722-.873c-.19-.191-.19-.191-.19-.266s.114-.076.152-.076c.228,0,1.444.114,1.71.114s3.23.151,4.6.151a.862.862,0,0,0,.874-.418c.3-.417.418-.607.8-.607.152,0,2.128,1.253,2.128,1.557,0,.153-.076.19-.494.608-.19.152-.3.418-.3.988,0,.456.076,2.736.076,3.268a1.446,1.446,0,0,1-1.52,1.444c-.532,0-.646-.153-.873-.532-.153-.3-.647-.3-.836-.3Zm3.876,20.593a1.154,1.154,0,0,1-1.026,1.139c-.608,0-.949-.3-1.52-.8-1.292-1.1-3.495-3-3.951-3.343-.228-.19-.646-.456-.646-.57s.152-.19.3-.19a4.41,4.41,0,0,1,1.026.114C876.631,1090.638,879.519,1091.36,879.519,1093.83Z" fill="#333"/>
    <path id="パス_1138" data-name="パス 1138" d="M924.147,1071.755c0,.342-.152.418-1.672.912a27.571,27.571,0,0,0-2.735,2.165c-1.026.836-1.141.95-1.141,1.216,0,1.178,8.7,5.053,15.5,5.091.191,0,.722.039.722.114s-1.6,1.558-1.785,1.786c-.267.342-.647.76-.912,1.14-.19.228-.342.418-.571.418a53.442,53.442,0,0,1-13.6-6.611c-.608-.456-.874-.608-1.254-.608a2.756,2.756,0,0,0-1.254.57c-7.371,4.711-11.664,5.813-13.146,6.193a22.762,22.762,0,0,1-3.154.608c-.037,0-.151,0-.151-.038a12.471,12.471,0,0,1,1.748-.874c7.028-2.963,13.981-7.561,13.981-8.435a28.324,28.324,0,0,0-1.443-2.469c-.152-.266-.57-1.52-.723-1.52-.189,0-.227.152-.721,1.444-.038.152-.874,2.431-.874,2.507-.039.912-.077,1.292-.494,1.292a16.59,16.59,0,0,1-2.736-2.318c0-.19.912-.379,1.027-.455a11.178,11.178,0,0,0,3.3-3.458c.151-.266.19-.342.455-.342s.3.076.609.76c.038.076,1.9,3.381,3,3.381.911,0,3.3-3.267,3.684-3.837a14.352,14.352,0,0,1,.647-1.33C920.841,1068.829,924.147,1071.185,924.147,1071.755Zm-23.785,3.761c2.584-1.9,6.649-4.825,8.474-8.016a7.4,7.4,0,0,0,.493-1.33c.038-.152.114-.418.342-.418.342,0,3.5,1.785,3.5,2.469,0,.342-.3.418-.647.494a5.29,5.29,0,0,0-2.165,1.368c-5.319,4.559-10.677,6.535-10.9,6.193C899.413,1076.2,900.211,1075.63,900.362,1075.516Zm24.773,21.315c1.9,0,2.051,0,2.621-.95.988-1.6,1.1-1.785,1.482-1.785s.608.228,2.85,2.127c.494.456,1.1.912,1.1,1.1,0,.532-.76.532-2.052.532H907.088c-3.344,0-4.446.076-4.826.076a5.779,5.779,0,0,1-.8.114c-.115,0-.191-.114-.342-.266l-.723-.874c-.151-.152-.151-.19-.151-.228a.1.1,0,0,1,.113-.114c.267,0,1.444.152,1.672.152,1.862.076,3.458.114,5.243.114h6.764c.3,0,.874,0,1.025-.608.114-.494.114-4.787.114-5.7,0-1.178,0-1.71-1.139-1.71h-3.155c-3.342,0-4.445.038-4.825.076-.113,0-.683.114-.8.114s-.189-.114-.341-.266l-.722-.873a.593.593,0,0,1-.152-.228.1.1,0,0,1,.114-.114c.265,0,1.444.114,1.672.151,1.861.077,3.457.114,5.243.114h3c1.1,0,1.1-.645,1.1-1.671,0-2.2,0-2.508-1.215-2.508-.8,0-2.7,0-3.459.114-.075,0-.455.076-.531.076-.152,0-.228-.114-.342-.266l-.722-.874c-.075-.076-.19-.19-.19-.228,0-.076.077-.114.152-.114.266,0,1.444.114,1.672.152,1.862.076,3.42.114,5.205.114h1.862c1.748,0,1.976,0,2.432-.646.683-.987.759-1.1,1.063-1.1.8,0,2.546,1.975,2.546,2.279,0,.494-.836.494-2.014.494h-2.546c-1.177,0-1.177.3-1.177,3.077,0,.761.228,1.1,1.215,1.1h3.041c1.67,0,1.975,0,2.431-.645.949-1.33,1.026-1.482,1.367-1.482a11.482,11.482,0,0,1,3.192,2.583c0,.57-.76.57-2.052.57h-8.093c-1.216,0-1.216.266-1.216,2.774,0,4.939,0,5.243.836,5.243.533,0,1.254-1.254,1.787-2.165a24.59,24.59,0,0,0,2.279-4.788,3.487,3.487,0,0,1,.342-.874c.418.228,3.192,1.786,3.192,2.242,0,.266-.114.3-.723.418-.493.076-2.886,2.584-3.419,3.039a27.686,27.686,0,0,0-2.089,1.938c0,.19.265.19.456.19Zm-12.652-2.2a1.738,1.738,0,0,1-1.559,1.9c-.911,0-1.025-.722-1.291-2.166a13.5,13.5,0,0,0-1.633-4.483c-.076-.152-.153-.38-.076-.418C908.113,1089.27,912.483,1091.436,912.483,1094.627Zm8.13-28c1.634,0,10.791,1.747,10.791,5.243,0,1.444-1.064,1.444-1.216,1.444-.722,0-1.1-.38-2.09-1.33a34.977,34.977,0,0,0-7.522-5.015c-.114-.076-.267-.19-.229-.266C920.347,1066.626,920.538,1066.626,920.613,1066.626Z" fill="#333"/>
    <path id="パス_1139" data-name="パス 1139" d="M947.691,1099.719a5,5,0,0,1,.8-.874c3.876-3.952,6.346-8.093,6.346-22.645,0-2.241,0-7.219-.533-9.118a8.327,8.327,0,0,1-.456-1.254c0-.19.266-.228.38-.228a21.391,21.391,0,0,1,2.888.722c.988.266,1.33.38,1.33.911,0,.342-.076.38-.646.912a1.43,1.43,0,0,0-.418,1.064v9.119c0,.076.038.456.266.456.456,0,2.318-2.812,2.318-5.015,0-.19,0-.532.379-.532.266,0,3,1.671,3,2.355,0,.266-.076.3-.835.836-.267.19-4.6,3.762-4.636,3.8a3.713,3.713,0,0,0-.646,1.9,33.114,33.114,0,0,1-.494,3.99c0,.152-.038.342-.038.532a1.5,1.5,0,0,0,.57,1.216c2.089,1.595,5.433,4.977,5.433,7.256,0,.38-.076,1.976-1.4,1.976-.76,0-.836-.228-1.672-2.355-.571-1.52-2.432-6.08-3.116-6.08-.266,0-.3.076-.8,1.6-1.709,5.053-4.559,7.219-7.219,9.271-.076.038-.531.418-.569.418A.245.245,0,0,1,947.691,1099.719Zm3.5-21.467a13.018,13.018,0,0,0,.987-3.42c.077-.494.077-.646.229-.646.493,0,.493,2.318.493,2.736,0,1.52-.265,7.409-2.393,7.409a1.455,1.455,0,0,1-1.291-1.6,3.333,3.333,0,0,1,.113-.76C949.515,1081.329,950.959,1078.784,951.187,1078.252Zm13.412,2.735a20.752,20.752,0,0,1-3.229,3.724c-.076,0-.191-.076-.191-.152,0-.114.951-1.748,1.1-2.052,1.786-3.343,3.647-7.865,3.647-10.3,0-1.1,0-1.1.342-1.1.229,0,3.458,1.482,3.458,2.2a.737.737,0,0,1-.342.57,4.925,4.925,0,0,0-.874.645C968.474,1074.6,965.283,1080.038,964.6,1080.987Zm15.5,2.888c-2.545,5.851-5.394,12.31-14.437,16a7.755,7.755,0,0,1-1.634.532.163.163,0,0,1-.152-.152c0-.19.836-.494.95-.57,10.3-6.383,12.8-16.072,12.8-18.58,0-.114-.114-.987-.114-1.1,0-.229.038-.38.342-.38.266,0,3.647,1.444,3.647,2.127a1.083,1.083,0,0,1-.341.722c-.609.532-.685.57-.8.76C980.367,1083.229,980.138,1083.761,980.1,1083.875Zm-6-11.436c0,1.785.229,9.65.229,11.284,0,2.584,0,3.5-.95,4.673a3.619,3.619,0,0,1-2.318,1.368c-.494,0-.57-.19-.95-.912-.418-.873-.95-1.1-3-2.013-.493-.228-.531-.228-.531-.38,0-.19.227-.19.3-.19.379,0,2.127.114,2.469.114,2.052,0,2.128-.3,2.128-1.824,0-1.634.075-8.891.075-10.373a61.139,61.139,0,0,0-.265-6.611c-.038-.265-.38-1.519-.38-1.785,0-.228.114-.342.418-.342a31.277,31.277,0,0,1,3.495.912.847.847,0,0,1,.647.8,1.084,1.084,0,0,1-.571.911,3.335,3.335,0,0,0-.645.76A29.938,29.938,0,0,0,974.1,1072.439Zm8.169,8.282c-1.1,0-1.254-.493-1.71-2.241a26.235,26.235,0,0,0-3-6.383c-.076-.152-.722-1.026-.722-1.1a.174.174,0,0,1,.152-.19c.76,0,7.029,4.255,7.029,7.941A1.823,1.823,0,0,1,982.266,1080.721Z" fill="#333"/>
    <path id="パス_1140" data-name="パス 1140" d="M1012.508,1073.769c-3.229,0-6.269,5.319-6.269,9.346a7.754,7.754,0,0,0,.494,2.812,3.78,3.78,0,0,1,.342,1.444,1.271,1.271,0,0,1-1.367,1.367c-1.748,0-2.584-3.153-2.584-6.155a34.231,34.231,0,0,1,.683-6.041,25.91,25.91,0,0,0,.571-4.863,4.2,4.2,0,0,0-.495-2.356c-.076-.152-.645-.912-.645-.988a1.536,1.536,0,0,1,1.025-.266,2.939,2.939,0,0,1,2.926,2.546,23.557,23.557,0,0,1-.8,2.812,40.3,40.3,0,0,0-.836,4.711c0,.114,0,.532.3.532.19,0,.418-.456.685-.95.418-.836,3-5.623,6.99-5.623,2.356,0,4.9,1.254,4.9,9.232,0,5.357-1.063,11.437-8.282,15.73a9.831,9.831,0,0,1-2.735,1.254c-.077,0-.153-.038-.153-.114,0-.114.076-.19.951-.836,6.23-4.711,7.37-9.119,7.37-16.87C1015.586,1076.314,1014.826,1073.769,1012.508,1073.769Z" fill="#333"/>
    <path id="パス_1141" data-name="パス 1141" d="M1063.014,1070.805c1.6,0,1.747,0,2.051-.266.343-.3,1.521-1.9,1.9-1.9.3,0,3.419,2.128,3.419,2.66s-.646.532-1.862.532h-25.38c-3.3,0-4.408.076-4.788.114-.113,0-.683.076-.8.076-.151,0-.227-.152-.341-.266l-.722-.874c-.076-.114-.153-.19-.153-.228,0-.076.039-.076.115-.076.265,0,1.443.114,1.672.114,1.861.076,3.419.114,5.2.114h3.495c.076,0,.228,0,.228-.152,0-.114-.228-.646-.265-.836a9.955,9.955,0,0,0-1.141-3.875,3.738,3.738,0,0,1-.342-.57c0-.038.038-.076.115-.076.987,0,4.179,2.127,4.179,4.369,0,.228-.19.836-.19.988s.152.152.3.152h5.585a.743.743,0,0,0,.8-.456,25.979,25.979,0,0,0,1.14-4.027c0-.114-.114-.608-.114-.684a.31.31,0,0,1,.341-.3c.3,0,3.534,1.1,3.534,1.671,0,.266-.037.266-.8.57-.19.076-1.405,1.216-1.671,1.406-1.444,1.178-1.672,1.368-1.672,1.634,0,.19.266.19.418.19Zm-24.2,28.572a1.544,1.544,0,0,1-1.71-1.444c0-.912.532-1.254,1.786-2.128a10.02,10.02,0,0,0,3.23-3.837c.076-.228.152-.456.227-.456.191,0,.115.988.077,1.71C1042.421,1093.905,1041.585,1099.377,1038.811,1099.377Zm4.256-16c-.8,0-.8,0-.8,2.394,0,.494.075,2.735.075,3.077a1.724,1.724,0,0,1-1.823,1.786c-.722,0-.874-.266-.874-.912,0-.494.114-3.115.152-3.837.114-2.128.114-2.812.114-9.005,0-.874,0-1.33-.037-1.786,0-.19-.267-1.064-.267-1.253a.269.269,0,0,1,.3-.266,8.473,8.473,0,0,1,1.672.607,2.691,2.691,0,0,0,1.215.191h6.041a1.079,1.079,0,0,0,.989-.457c.38-.607.532-.8.836-.8.19,0,2.469,1.4,2.469,1.975a.644.644,0,0,1-.341.532c-.342.266-.495.38-.533.684-.076.228-.076,7.1-.076,7.979,0,.342.076,1.976.076,2.356a3.472,3.472,0,0,1-3.381,3.761c-.342,0-.456-.038-.608-.57a3.465,3.465,0,0,0-1.6-2.166c-.152-.113-1.1-.38-1.1-.569,0-.114.113-.114.189-.114.153,0,2.014.114,2.356.114,1.216,0,1.482-.076,1.6-.57a22.226,22.226,0,0,0,.076-2.508c0-.646-.456-.646-.76-.646Zm5.965-5.015c.38,0,.76-.038.76-.684,0-2.052,0-2.28-.76-2.28h-5.965c-.38,0-.8,0-.8.646,0,2.09,0,2.318.8,2.318Zm0,3.989c.342,0,.684,0,.76-.456V1080c0-.646-.418-.646-.76-.646h-5.965c-.8,0-.8.228-.8,2.355,0,.646.456.646.8.646Zm2.393,15.122c0,.57-.152,1.976-1.6,1.976-1.6,0-1.6-1.6-1.6-2.432a12.868,12.868,0,0,0-.418-4.1,12.13,12.13,0,0,1-.418-1.292c0-.3,1.786,1.254,2.279,1.862A6.81,6.81,0,0,1,1051.425,1097.477Zm8.284.228c0,1.6-1.141,1.824-1.558,1.824-1.141,0-1.217-.646-1.444-2.888a14.412,14.412,0,0,0-1.254-4.407,2.326,2.326,0,0,1-.266-.57c0-.076.038-.076.076-.076a7.468,7.468,0,0,1,2.583,2.052A6.881,6.881,0,0,1,1059.709,1097.7Zm.189-22.227c0,.152-.569.684-.645.8a1.427,1.427,0,0,0-.153.8c0,1.064.076,5.889.076,6.839a1.519,1.519,0,0,1-1.671,1.6c-.571,0-.988-.228-.988-1.064,0-.152.114-1.33.114-1.558v-4.027c0-2.242.076-2.7-.152-3.458,0-.114-.19-.57-.19-.684,0-.227.152-.266.38-.266a7.928,7.928,0,0,1,1.368.19C1059.709,1075.022,1059.9,1075.06,1059.9,1075.478Zm7.865-.873c0,.227-.038.265-.494.607a1.45,1.45,0,0,0-.342,1.064c0,1.292.039,10.943,0,11.208a3.136,3.136,0,0,1-3.229,3.154c-.684,0-.76-.114-1.33-1.178a7.707,7.707,0,0,0-2.279-1.823c-.077-.039-.342-.153-.342-.266s.151-.114.227-.114c.191,0,1.6.19,1.862.19s.836.037,1.633.037c.836,0,.989-.3.989-1.481V1075.25a2.092,2.092,0,0,0-.266-1.177c-.19-.381-.228-.418-.228-.494,0-.228.3-.266.456-.266a15.746,15.746,0,0,1,1.633.342C1067.231,1073.959,1067.763,1074.11,1067.763,1074.6Zm1.786,23.48a1.519,1.519,0,0,1-1.558,1.634c-1.4,0-1.672-1.292-1.823-1.976a11.449,11.449,0,0,0-2.394-5.243,7.164,7.164,0,0,1-.76-.8c0-.076.076-.076.114-.076a13.154,13.154,0,0,1,3.116,1.558C1068.941,1095.083,1069.549,1097.1,1069.549,1098.085Z" fill="#333"/>
    <path id="パス_1142" data-name="パス 1142" d="M1110.228,1080.038a33.5,33.5,0,0,0,9.195,3c.152,0,.8.114.8.266,0,.114-.532.266-.684.3a6.586,6.586,0,0,0-2.888,2.052c-.113.152-.531.95-.722.95-.227,0-8.472-3.99-12.2-10.069-.721-1.216-.836-1.33-1.1-1.33s-.342.076-1.178.95a45.206,45.206,0,0,1-11.246,8.853c-1.292.684-5.244,2.432-5.966,2.432-.113,0-.19-.076-.19-.114s4.066-2.546,4.408-2.774c5.129-3.23,10.562-9.043,11.093-11.892.039-.3.077-.418.343-.418.19,0,3.268,1.178,3.457,1.292.115.038.494.19.494.569a2.373,2.373,0,0,1-.152.532C1103.769,1075.212,1107.037,1078.4,1110.228,1080.038Zm-18.313-9.461c-2.812,0-4.1.076-4.825.114-.114,0-.684.076-.8.076s-.19-.076-.342-.228l-.722-.874c-.152-.19-.152-.19-.152-.266s.038-.076.114-.076c.266,0,1.444.114,1.672.114,1.861.076,3.457.152,5.243.152h1.1c.8,0,1.026-.38,1.026-1.026a6.148,6.148,0,0,0-.305-2.013,5.776,5.776,0,0,1-.227-.76c0-.19.189-.266.418-.266.266,0,1.975.418,2.393.532,1.14.3,1.369.38,1.369.722,0,.227-.039.3-.571.987a.931.931,0,0,0-.265.684c0,.912.3,1.14,1.329,1.14h6.269c.342,0,1.14,0,1.14-1.026a15.73,15.73,0,0,0-.114-1.709c-.038-.19-.228-.988-.228-1.14,0-.19.228-.266.418-.266.266,0,2.85.608,3.268.722s.645.266.645.608c0,.227-.151.38-.569.683a1.216,1.216,0,0,0-.494,1.064c0,1.064.607,1.064,1.215,1.064h1.938c1.672,0,1.862,0,2.432-.646,1.064-1.253,1.177-1.406,1.519-1.406.229,0,3.534,2.014,3.534,2.508,0,.532-.759.532-2.013.532h-7.41c-1.177,0-1.177.608-1.177,1.52,0,.228.038,1.52.038,1.709,0,1.406-1.14,1.634-1.939,1.634-.873,0-1.025-.152-1.025-1.443v-2.622c-.114-.722-.57-.8-1.178-.8h-6.079c-.874,0-1.406,0-1.406,1.064,0,.38.114,2.051.114,2.393,0,.722-.114,1.064-.456,1.292a2.7,2.7,0,0,1-1.443.532c-.647,0-.95-.418-.95-1.178,0-.3.038-1.747.038-2.013,0-1.482,0-2.09-1.178-2.09Zm2.7,19.415a19.443,19.443,0,0,1,2.925,1.786.942.942,0,0,1,.3.57c0,.456-.3.532-1.215.76-.115.038-3.382,2.583-3.99,3.039a23.376,23.376,0,0,1-5.775,3.306.121.121,0,0,1-.114-.114c0-.076,2.013-1.824,2.279-2.09,3.154-3,5.092-6,5.434-7.219A.228.228,0,0,1,1094.613,1089.992Zm1.747-2.013c-2.963,0-4.065.037-4.825.113-.113,0-.684.077-.8.077s-.189-.077-.342-.229l-.721-.874c-.153-.189-.153-.189-.153-.265,0-.038.038-.076.114-.076.266,0,1.444.114,1.672.114,1.862.114,3.457.152,5.243.152h2.85c.38,0,1.14,0,1.14-1.026,0-.456-.228-3.534-.3-3.914,0-.076-.229-.456-.229-.532s.077-.227.38-.227c.267,0,2.926.569,3.306.683.532.114.722.456.722.646,0,.228-.075.3-.646.8-.532.456-.532.684-.532,1.824,0,1.368,0,1.748,1.141,1.748h1.671c1.671,0,1.862,0,2.431-.646,1.065-1.254,1.179-1.406,1.521-1.406.227,0,3.533,2.052,3.533,2.508,0,.532-.76.532-2.014.532h-7.18c-1.14,0-1.14.683-1.14,1.9,0,2.7,0,4.218.075,6.459.038.646.038,1.558.038,2.014,0,1.216-.3,1.938-1.937,1.938-.836,0-.912-.684-.912-1.33,0-.494.114-2.774.114-3.268.038-1.443.038-2.849.038-4.6a23.046,23.046,0,0,0-.076-2.584c-.19-.531-.8-.531-1.1-.531Zm10.145,3.191c0-.114.19-.152.341-.152,1.407,0,10.07,2.394,10.07,5.547,0,1.216-.685,2.166-1.634,2.166-.723,0-.874-.19-2.052-1.938a18.057,18.057,0,0,0-6.535-5.471C1106.657,1091.322,1106.505,1091.208,1106.505,1091.17Z" fill="#333"/>
  </g>
  <g id="グループ_236" data-name="グループ 236" transform="translate(-801.315 -1065.296)">
    <g id="グループ_235" data-name="グループ 235">
      <path id="パス_1143" data-name="パス 1143" d="M922.871,1117.641h1.722l-4.748,4.748,4.832,5.814H922.9l-3.978-4.917-.533.505v4.412h-1.316v-10.562h1.316v4.58Z" fill="#333"/>
      <path id="パス_1144" data-name="パス 1144" d="M932.992,1125.555l-1.205,2.648h-1.415l5.043-11.01,5.043,11.01h-1.415l-1.205-2.648Zm2.423-5.476-1.877,4.271h3.754Z" fill="#333"/>
      <path id="パス_1145" data-name="パス 1145" d="M948.96,1121.227h-.029L947.7,1128.2H946.34l2.157-11.01,3.628,8.32,3.628-8.32,2.157,11.01h-1.359l-1.232-6.976h-.028l-3.166,7.2Z" fill="#333"/>
      <path id="パス_1146" data-name="パス 1146" d="M966.42,1125.555l-1.2,2.648H963.8l5.043-11.01,5.043,11.01H972.47l-1.2-2.648Zm2.422-5.476-1.876,4.271h3.753Z" fill="#333"/>
      <path id="パス_1147" data-name="パス 1147" d="M981.475,1128.2h-1.316v-10.562h1.316Z" fill="#333"/>
      <path id="パス_1148" data-name="パス 1148" d="M995.406,1128.2h-1.6l-3.11-4.469h-.546v4.469h-1.316v-10.562h1.6a5.572,5.572,0,0,1,2.787.491,2.921,2.921,0,0,1,1.387,2.521,2.874,2.874,0,0,1-2.535,2.955Zm-5.253-5.561h.42c1.345,0,2.8-.253,2.8-1.933,0-1.653-1.569-1.891-2.871-1.891h-.351Z" fill="#333"/>
      <path id="パス_1149" data-name="パス 1149" d="M1003.059,1128.2h-1.316v-10.562h1.316Z" fill="#333"/>
    </g>
  </g>
  <g id="グループ_237" data-name="グループ 237" transform="translate(-801.315 -1065.296)">
    <path id="パス_1150" data-name="パス 1150" d="M904.43,1154.732a8.342,8.342,0,0,0,.941-.994,5.018,5.018,0,0,0,.724-1.2,3.707,3.707,0,0,0,.3-1.316,2.692,2.692,0,0,0-.3-1.329,2.882,2.882,0,0,0-.752-.94,2.12,2.12,0,0,0-1.1-.483,1.568,1.568,0,0,0-1.074.268,4.273,4.273,0,0,0-.833.779,2.99,2.99,0,0,0-.631,1.275,4.3,4.3,0,0,0-.067,1.4,6.537,6.537,0,0,0,.323,1.41,12.423,12.423,0,0,0,.536,1.315q.322.645.644,1.263a11.918,11.918,0,0,1,.565,1.248,7.1,7.1,0,0,1,.362,1.316,5.081,5.081,0,0,1,.04,1.437,6.208,6.208,0,0,1-.886,2.618,8.756,8.756,0,0,1-1.866,2.189,8.331,8.331,0,0,1-2.484,1.45,6.439,6.439,0,0,1-2.766.4,3.695,3.695,0,0,1-3.3-2.578,4.46,4.46,0,0,1-.214-1.356,5.23,5.23,0,0,1,.174-1.343,7.065,7.065,0,0,1,.484-1.289,8.439,8.439,0,0,1,.712-1.195,7.026,7.026,0,0,1,.873-1.02,6.771,6.771,0,0,1,1.087-.86,5.525,5.525,0,0,1,1.235-.59,3.737,3.737,0,0,1,1.343-.189,3.451,3.451,0,0,1,1.37.336,2.924,2.924,0,0,1,1.047.819,2.627,2.627,0,0,1,.523,1.182,2.482,2.482,0,0,1-.174,1.4.592.592,0,0,1-.322.241.513.513,0,0,1-.349-.014.469.469,0,0,1-.242-.215.351.351,0,0,1,.054-.362,1.726,1.726,0,0,0,.12-1.315,1.69,1.69,0,0,0-.818-1.021,2.747,2.747,0,0,0-1.317-.35,3.583,3.583,0,0,0-1.3.243,5.023,5.023,0,0,0-1.2.657,6.456,6.456,0,0,0-.994.9,7.42,7.42,0,0,0-.818,1.182,5.782,5.782,0,0,0-.551,1.343,4.364,4.364,0,0,0-.147,1.409,3.418,3.418,0,0,0,.362,1.356,2.863,2.863,0,0,0,.832,1.061,2.983,2.983,0,0,0,1.128.537,4.149,4.149,0,0,0,1.3.094,5.546,5.546,0,0,0,1.329-.269,7.7,7.7,0,0,0,2.578-1.343,7.066,7.066,0,0,0,1.826-2.121,5.924,5.924,0,0,0,.738-2.632,5.476,5.476,0,0,0-.684-2.846q-.35-.672-.712-1.356a12.85,12.85,0,0,1-.631-1.384,7.73,7.73,0,0,1-.4-1.45,5.6,5.6,0,0,1-.054-1.557,4.1,4.1,0,0,1,.362-1.383,3.987,3.987,0,0,1,.819-1.2,3.058,3.058,0,0,1,1.168-.739,2.266,2.266,0,0,1,1.437.014,2.721,2.721,0,0,1,1.249.738,3.419,3.419,0,0,1,.738,1.182,4.064,4.064,0,0,1,.241,1.41,5.265,5.265,0,0,1-.187,1.423,6.293,6.293,0,0,1-.591,1.37,13.729,13.729,0,0,1-.833,1.262,2.8,2.8,0,0,1-.335.429.4.4,0,0,1-.5.081.362.362,0,0,1-.309-.336A.5.5,0,0,1,904.43,1154.732Z" fill="#333"/>
    <path id="パス_1151" data-name="パス 1151" d="M908.142,1158.518c.072-.035.238-.108.5-.215a4.464,4.464,0,0,1,.765-.241,1.434,1.434,0,0,1,.645-.014c.178.045.242.211.188.5a1.324,1.324,0,0,1-.229.484,1.786,1.786,0,0,0-.254.483,6.06,6.06,0,0,0-.309.859.9.9,0,0,0,.094.832,2.524,2.524,0,0,0,1.007-.107q.551-.16,1.006-.322a4.856,4.856,0,0,0,.511-.269c.25-.142.514-.282.792-.416a4.434,4.434,0,0,1,.766-.3c.232-.062.376-.04.429.068.072.126.027.259-.134.4a2.6,2.6,0,0,1-.605.389q-.361.176-.738.322t-.483.2q-.591.294-1.2.577a4.765,4.765,0,0,1-1.248.389.731.731,0,0,1-.779-.241,1.443,1.443,0,0,1-.215-.82,4.382,4.382,0,0,1,.148-1.074c.1-.385.2-.738.309-1.06q-.618.242-1.209.443a10.7,10.7,0,0,0-1.154.47q-.483.215-.967.483a.407.407,0,0,1-.47-.147q-.174-.23.148-.39Zm3.142-5.425a1.559,1.559,0,0,1,.416-.6,2.468,2.468,0,0,1,.632-.417,3.94,3.94,0,0,1,.738-.255c.259-.063.506-.112.738-.148a9.686,9.686,0,0,1,1.907.08,1.475,1.475,0,0,1,.363.054c.134.036.191.135.174.3a.4.4,0,0,1-.134.228.269.269,0,0,1-.242.067,6.384,6.384,0,0,0-1.624-.12,2.882,2.882,0,0,0-1.518.5.871.871,0,0,0-.376.429.967.967,0,0,1-.322.43.422.422,0,0,1-.564,0A.441.441,0,0,1,911.284,1153.093Z" fill="#333"/>
    <path id="パス_1152" data-name="パス 1152" d="M913.531,1159.834q.3-.16,1.02-.55t1.491-.739a6.819,6.819,0,0,1,1.41-.483q.643-.135.8.215a.529.529,0,0,1-.067.523,2.281,2.281,0,0,0-.255.47l-.322.752a6.54,6.54,0,0,1,.7-.376l.7-.322q.858-.456,1.772-.967a8.646,8.646,0,0,1,1.853-.779,1.329,1.329,0,0,1,.618-.013.779.779,0,0,1,.416.241.692.692,0,0,1,.147.457,1.1,1.1,0,0,1-.215.6,4.441,4.441,0,0,1-.523.671c-.189.2-.381.412-.577.645a1.521,1.521,0,0,1-.189.215c-.09.09-.183.192-.282.308s-.188.234-.269.35a.859.859,0,0,0-.147.309,1.026,1.026,0,0,0,.47,0,4.348,4.348,0,0,0,.564-.148c.188-.062.366-.13.537-.2l.389-.161,1.1-.484c.072-.036.166-.089.283-.161s.236-.138.362-.2.246-.12.362-.174a.719.719,0,0,1,.283-.081.213.213,0,0,1,.241.242.418.418,0,0,1-.215.376c-.161.09-.331.174-.51.255s-.367.166-.564.255q-.376.216-.725.376c-.233.108-.475.224-.726.35-.142.071-.371.173-.684.308a4.746,4.746,0,0,1-.94.295,1.558,1.558,0,0,1-.819-.026c-.232-.081-.349-.3-.349-.658a.893.893,0,0,1,.134-.484,3.5,3.5,0,0,1,.309-.416,5.263,5.263,0,0,1,.376-.389c.135-.125.256-.242.363-.349a5.928,5.928,0,0,0,.537-.564,2.215,2.215,0,0,0,.484-.806,5.643,5.643,0,0,0-1.464.376,14.805,14.805,0,0,0-1.357.618q-.779.376-1.611.846a6.225,6.225,0,0,0-1.45,1.114.533.533,0,0,1-.281.121.513.513,0,0,1-.283-.054.435.435,0,0,1-.2-.2.5.5,0,0,1-.014-.349.833.833,0,0,1,.4-.43,4.781,4.781,0,0,0,.268-.5,1.613,1.613,0,0,1,.189-.335c.035-.125.071-.256.107-.39a3.093,3.093,0,0,0,.08-.416c-.2.054-.393.116-.59.188s-.349.126-.457.161c-.25.107-.5.211-.751.308s-.5.211-.752.336c-.144.073-.274.144-.39.215a2.2,2.2,0,0,1-.39.189.43.43,0,0,1-.308.04.526.526,0,0,1-.228-.121.234.234,0,0,1-.067-.2C913.339,1159.954,913.406,1159.888,913.531,1159.834Z" fill="#333"/>
    <path id="パス_1153" data-name="パス 1153" d="M925.849,1159.834q.7-.348,1.369-.672t1.371-.59a9.52,9.52,0,0,1,1.49-.4,8.575,8.575,0,0,1,1.544-.135.656.656,0,0,1,.457.148c.107.1.116.265.026.5a.525.525,0,0,1-.483.269,9.2,9.2,0,0,0-1.409,0,4.362,4.362,0,0,0-1.357.322,2.319,2.319,0,0,0-.457.242,2.825,2.825,0,0,0-.442.362,1.131,1.131,0,0,0-.283.444.647.647,0,0,0,.054.509.971.971,0,0,0,.82.538,2.808,2.808,0,0,0,1.033-.027,2.848,2.848,0,0,0,.618-.215l.483-.242a1.771,1.771,0,0,1,.389-.147.407.407,0,0,1,.363.121.568.568,0,0,1,.013.617c-.116.232-.21.43-.281.591l-.376.886q.724-.751,1.53-1.437a12.308,12.308,0,0,1,1.719-1.222c.053-.035.125-.089.215-.161a2.531,2.531,0,0,1,.295-.2,1.311,1.311,0,0,1,.323-.135.305.305,0,0,1,.268.041c.125.09.17.179.134.269a.828.828,0,0,1-.187.268q-.7.376-1.343.806a12.4,12.4,0,0,0-1.263.966,15.976,15.976,0,0,0-1.329,1.262,15.452,15.452,0,0,0-1.168,1.4l-.7,1.611q-.322.805-.645,1.638t-.7,1.639q-.081.161-.2.388a3.509,3.509,0,0,1-.269.43,1.16,1.16,0,0,1-.349.322.69.69,0,0,1-.444.1.491.491,0,0,1-.416-.3,1.07,1.07,0,0,1-.053-.537,3.52,3.52,0,0,1,.134-.591c.063-.2.12-.358.174-.483a13.916,13.916,0,0,1,1.277-2.35,24.535,24.535,0,0,1,1.624-2.162l.913-2.6a6.925,6.925,0,0,1-1.034.2,4.447,4.447,0,0,1-1.034.014,2.331,2.331,0,0,1-.873-.269,1.457,1.457,0,0,1-.551-1.826c-.142.09-.291.183-.442.282a.459.459,0,0,1-.39.094.29.29,0,0,1-.322-.229A.272.272,0,0,1,925.849,1159.834Z" fill="#333"/>
    <path id="パス_1154" data-name="パス 1154" d="M934.907,1159.807a16.759,16.759,0,0,0,1.611-.832q.778-.457,1.558-.994a14.329,14.329,0,0,1,.832-1.451c.3-.464.6-.921.887-1.369q.455-.618.913-1.249t.939-1.249q.4-.535.873-1.087a4.025,4.025,0,0,1,1.088-.9,2.218,2.218,0,0,1,.725-.227.5.5,0,0,1,.591.388.858.858,0,0,1,.013.578,2.4,2.4,0,0,1-.282.564,6.155,6.155,0,0,1-.4.537c-.144.171-.26.318-.35.443a21.621,21.621,0,0,1-2.4,2.861,25.222,25.222,0,0,1-2.861,2.457c-.09.215-.192.442-.308.684a6.417,6.417,0,0,0-.309.766,4.367,4.367,0,0,0-.188.792,2.013,2.013,0,0,0,.027.738c.2-.035.376-.062.537-.08.143-.018.277-.031.4-.041a.786.786,0,0,0,.243-.04,12,12,0,0,0,1.584-.43q.778-.267,1.531-.591a2.257,2.257,0,0,0,.51-.214.479.479,0,0,1,.51-.027c.2.144.224.273.08.389a1.74,1.74,0,0,1-.4.256l-3.115,1.154q-.458.162-.887.336a2.759,2.759,0,0,1-.886.2.871.871,0,0,1-.644-.121.9.9,0,0,1-.336-.456,1.539,1.539,0,0,1-.067-.618,3.333,3.333,0,0,1,.107-.631,9.377,9.377,0,0,1,.483-1.289,20.8,20.8,0,0,1-2.309,1.316.415.415,0,0,1-.442-.174Q934.585,1159.967,934.907,1159.807Zm5.451-3.679a20.771,20.771,0,0,0,2.31-2.552,9.078,9.078,0,0,0,.913-1.289c.036-.088.09-.2.161-.335a3.409,3.409,0,0,0,.188-.417,2.923,2.923,0,0,0-.712.511q-.336.322-.55.537a14.379,14.379,0,0,0-1.155,1.3q-.537.684-1.074,1.409c-.2.287-.386.569-.564.846s-.349.56-.51.847c.161-.125.326-.265.5-.417Z" fill="#333"/>
    <path id="パス_1155" data-name="パス 1155" d="M942.791,1159.807q.483-.242,1.007-.537a9.1,9.1,0,0,1,1.06-.51,2.758,2.758,0,0,1,.994-1.008,4.083,4.083,0,0,1,1.369-.523,3.622,3.622,0,0,1,.873,0,1.069,1.069,0,0,1,.766.4.422.422,0,0,1,.094.456,1.281,1.281,0,0,1-.323.457,3.117,3.117,0,0,1-.51.389c-.188.117-.326.2-.416.256a3.839,3.839,0,0,1-1.061.442,3.41,3.41,0,0,1-1.168.1h-.107a1.509,1.509,0,0,0,.483.913,2.345,2.345,0,0,0,.886.47,3.259,3.259,0,0,0,1.061.121,8.222,8.222,0,0,0,1.007-.108,11.859,11.859,0,0,0,2.471-.805q.269-.135.55-.256a5.441,5.441,0,0,0,.524-.255.509.509,0,0,1,.389.054c.135.072.147.188.04.349a.683.683,0,0,1-.375.3c-.161.054-.305.108-.43.161l-1.343.591a23,23,0,0,1-2.444.806,4.039,4.039,0,0,1-1.087.067,3.13,3.13,0,0,1-1.02-.242,2.672,2.672,0,0,1-.847-.577,2.111,2.111,0,0,1-.537-.967c-.036-.143-.066-.286-.094-.43a.873.873,0,0,1,.014-.4,5.016,5.016,0,0,0-.577.309q-.283.174-.5.308a2.053,2.053,0,0,0-.35.2.362.362,0,0,1-.43.014.309.309,0,0,1-.147-.3A.25.25,0,0,1,942.791,1159.807Zm2.739-.752a3.114,3.114,0,0,0,1.249-.322,3.958,3.958,0,0,0,1.061-.752,1.517,1.517,0,0,0-.739-.08,2.1,2.1,0,0,0-.672.215,2.065,2.065,0,0,0-.55.416A1.632,1.632,0,0,0,945.53,1159.055Z" fill="#333"/>
    <path id="パス_1156" data-name="パス 1156" d="M972.84,1149.119a2.4,2.4,0,0,0-1.168-.188,4.741,4.741,0,0,0-1.2.269,4,4,0,0,1,2.74.738,2.7,2.7,0,0,1,.913,2.511,8.185,8.185,0,0,1-.819,2.874,22.384,22.384,0,0,1-1.517,2.631q-.7,1.048-1.585,2.135a14.609,14.609,0,0,1-1.96,1.987,12.528,12.528,0,0,1-2.3,1.531,6.692,6.692,0,0,1-2.565.738,4.766,4.766,0,0,1-1.275-.066,1.994,1.994,0,0,1-1.115-.605,2.133,2.133,0,0,1-.591-1.263,5.4,5.4,0,0,1,.027-1.422,9.74,9.74,0,0,1,.927-2.807,24.727,24.727,0,0,1,1.49-2.565,20.433,20.433,0,0,1,1.719-2.429,27.292,27.292,0,0,1,2.014-2.19,21.11,21.11,0,0,1,2.188-1.8,6.2,6.2,0,0,1,2.565-1.1,5.672,5.672,0,0,1,1.034-.081,1.426,1.426,0,0,1,.953.3.444.444,0,0,1,.175.308.513.513,0,0,1-.068.309.478.478,0,0,1-.241.2A.431.431,0,0,1,972.84,1149.119Zm-5.1,1.772a17.181,17.181,0,0,0-2.162,2.108,27.407,27.407,0,0,0-1.84,2.4,19.524,19.524,0,0,0-1.49,2.564,10.975,10.975,0,0,0-.927,2.807,5.022,5.022,0,0,0-.08.6,3.063,3.063,0,0,0,.014.658,2.188,2.188,0,0,0,.161.6,1.092,1.092,0,0,0,.388.47,1.682,1.682,0,0,0,1.035.309,5.6,5.6,0,0,0,1.06-.121,7.406,7.406,0,0,0,2.686-1.128,18.953,18.953,0,0,0,2.283-1.8,17.269,17.269,0,0,0,2-2.2,14.565,14.565,0,0,0,1.544-2.524q.242-.483.537-1.168a7.145,7.145,0,0,0,.443-1.41,4.113,4.113,0,0,0,.054-1.4,1.817,1.817,0,0,0-.6-1.128,1.74,1.74,0,0,0-1.209-.469,7.114,7.114,0,0,0-1.342.093.44.44,0,0,1-.43-.134.576.576,0,0,1-.161-.483,10.264,10.264,0,0,0-1.061.671Q968.114,1150.6,967.738,1150.891Z" fill="#333"/>
    <path id="パス_1157" data-name="パス 1157" d="M972.069,1159.807c.376-.2.747-.394,1.114-.591s.766-.42,1.2-.671a1.3,1.3,0,0,1,.308-.967,1.063,1.063,0,0,1,.927-.429.545.545,0,0,1,.483.376.65.65,0,0,1-.107.617,1.8,1.8,0,0,1-.565.537.9.9,0,0,0,.457.107,2.452,2.452,0,0,0,1.182-.2,7.836,7.836,0,0,0,1.1-.551q.483-.161.618.108a.638.638,0,0,1-.108.644c-.089.144-.193.328-.309.551a5.066,5.066,0,0,0-.3.685,2.347,2.347,0,0,0-.135.672.6.6,0,0,0,.2.509c.089.108.327.108.711,0s.9-.286,1.545-.537q.323-.133.657-.308c.224-.116.453-.229.686-.336a1.424,1.424,0,0,0,.241-.121,1.248,1.248,0,0,1,.309-.134.453.453,0,0,1,.268,0c.081.026.121.121.121.282a.314.314,0,0,1-.121.241,1.387,1.387,0,0,1-.268.189,1.891,1.891,0,0,1-.309.134l-.241.081-1.128.509-.739.4a6.09,6.09,0,0,1-.9.4,2.637,2.637,0,0,1-.885.161.773.773,0,0,1-.672-.348.874.874,0,0,1-.161-.417,1.549,1.549,0,0,1,.013-.456,4.152,4.152,0,0,1,.108-.457c.045-.152.085-.3.121-.443l.215-.887q-.135.029-.551.135a5.553,5.553,0,0,1-.9.148,4.592,4.592,0,0,1-.926-.014.9.9,0,0,1-.658-.349c-.3.161-.555.295-.752.4s-.4.224-.6.349-.372.224-.5.3a1.637,1.637,0,0,0-.376.2.316.316,0,0,1-.376.041.337.337,0,0,1-.161-.3A.278.278,0,0,1,972.069,1159.807Z" fill="#333"/>
    <path id="パス_1158" data-name="パス 1158" d="M984.859,1158.518c.071-.035.237-.108.5-.215a4.462,4.462,0,0,1,.765-.241,1.43,1.43,0,0,1,.644-.014q.268.068.189.5a1.339,1.339,0,0,1-.229.484,1.82,1.82,0,0,0-.255.483,6.2,6.2,0,0,0-.308.859.9.9,0,0,0,.094.832,2.517,2.517,0,0,0,1.006-.107q.552-.16,1.007-.322a4.861,4.861,0,0,0,.511-.269c.25-.142.514-.282.792-.416a4.43,4.43,0,0,1,.766-.3c.232-.062.376-.04.429.068.072.126.027.259-.135.4a2.59,2.59,0,0,1-.6.389q-.362.176-.738.322t-.484.2q-.59.294-1.2.577a4.765,4.765,0,0,1-1.248.389.731.731,0,0,1-.779-.241,1.443,1.443,0,0,1-.215-.82,4.38,4.38,0,0,1,.148-1.074q.147-.578.309-1.06c-.412.161-.816.308-1.209.443a10.7,10.7,0,0,0-1.154.47q-.484.215-.967.483a.407.407,0,0,1-.47-.147q-.174-.23.148-.39Zm3.142-5.425a1.559,1.559,0,0,1,.416-.6,2.467,2.467,0,0,1,.632-.417,3.938,3.938,0,0,1,.738-.255c.259-.063.506-.112.738-.148a9.675,9.675,0,0,1,1.906.08,1.476,1.476,0,0,1,.364.054c.133.036.191.135.173.3a.394.394,0,0,1-.133.228.272.272,0,0,1-.243.067,6.378,6.378,0,0,0-1.624-.12,2.881,2.881,0,0,0-1.517.5.871.871,0,0,0-.376.429.967.967,0,0,1-.322.43.422.422,0,0,1-.564,0A.44.44,0,0,1,988,1153.093Z" fill="#333"/>
    <path id="パス_1159" data-name="パス 1159" d="M990.375,1159.834q.7-.348,1.369-.672t1.37-.59a9.518,9.518,0,0,1,1.49-.4,8.575,8.575,0,0,1,1.544-.135.654.654,0,0,1,.457.148c.108.1.116.265.026.5a.525.525,0,0,1-.483.269,9.2,9.2,0,0,0-1.409,0,4.362,4.362,0,0,0-1.357.322,2.348,2.348,0,0,0-.457.242,2.873,2.873,0,0,0-.442.362,1.128,1.128,0,0,0-.282.444.643.643,0,0,0,.054.509.97.97,0,0,0,.819.538,2.747,2.747,0,0,0,1.651-.242l.484-.242a1.748,1.748,0,0,1,.388-.147.408.408,0,0,1,.364.121.567.567,0,0,1,.012.617c-.116.232-.21.43-.281.591l-.376.886q.725-.751,1.53-1.437a12.362,12.362,0,0,1,1.719-1.222c.054-.035.125-.089.215-.161a2.545,2.545,0,0,1,.3-.2,1.3,1.3,0,0,1,.322-.135.307.307,0,0,1,.269.041c.125.09.17.179.133.269a.812.812,0,0,1-.187.268q-.7.376-1.343.806a12.614,12.614,0,0,0-1.263.966,16.141,16.141,0,0,0-1.329,1.262,15.624,15.624,0,0,0-1.168,1.4l-.7,1.611q-.323.805-.644,1.638t-.7,1.639c-.053.107-.121.236-.2.388a3.634,3.634,0,0,1-.268.43,1.175,1.175,0,0,1-.35.322.687.687,0,0,1-.443.1.489.489,0,0,1-.416-.3,1.07,1.07,0,0,1-.054-.537,3.419,3.419,0,0,1,.135-.591q.093-.3.174-.483a13.837,13.837,0,0,1,1.276-2.35,24.925,24.925,0,0,1,1.624-2.162l.913-2.6a6.912,6.912,0,0,1-1.033.2,4.448,4.448,0,0,1-1.034.014,2.319,2.319,0,0,1-.873-.269,1.454,1.454,0,0,1-.551-1.826c-.143.09-.291.183-.443.282a.457.457,0,0,1-.389.094.289.289,0,0,1-.322-.229A.27.27,0,0,1,990.375,1159.834Z" fill="#333"/>
    <path id="パス_1160" data-name="パス 1160" d="M1002.118,1158.518c.071-.035.237-.108.5-.215a4.464,4.464,0,0,1,.765-.241,1.43,1.43,0,0,1,.644-.014q.269.068.189.5a1.358,1.358,0,0,1-.229.484,1.818,1.818,0,0,0-.255.483,6.069,6.069,0,0,0-.308.859.9.9,0,0,0,.093.832,2.52,2.52,0,0,0,1.007-.107q.551-.16,1.007-.322a4.862,4.862,0,0,0,.511-.269c.25-.142.513-.282.792-.416a4.453,4.453,0,0,1,.765-.3c.233-.062.376-.04.43.068.071.126.026.259-.135.4a2.59,2.59,0,0,1-.6.389c-.241.117-.488.224-.738.322s-.413.166-.484.2q-.59.294-1.2.577a4.789,4.789,0,0,1-1.248.389.734.734,0,0,1-.78-.241,1.451,1.451,0,0,1-.214-.82,4.333,4.333,0,0,1,.148-1.074q.147-.578.309-1.06c-.412.161-.816.308-1.209.443a10.718,10.718,0,0,0-1.155.47q-.483.215-.966.483a.407.407,0,0,1-.47-.147c-.116-.153-.068-.283.147-.39Zm3.142-5.425a1.556,1.556,0,0,1,.415-.6,2.5,2.5,0,0,1,.632-.417,3.973,3.973,0,0,1,.739-.255c.258-.063.505-.112.738-.148a9.678,9.678,0,0,1,1.906.08,1.462,1.462,0,0,1,.363.054.238.238,0,0,1,.174.3.39.39,0,0,1-.134.228.269.269,0,0,1-.242.067,6.378,6.378,0,0,0-1.624-.12,2.881,2.881,0,0,0-1.517.5.871.871,0,0,0-.376.429.969.969,0,0,1-.323.43.421.421,0,0,1-.563,0A.44.44,0,0,1,1005.26,1153.093Z" fill="#333"/>
    <path id="パス_1161" data-name="パス 1161" d="M1007.506,1159.834q.3-.16,1.021-.55t1.49-.739a6.859,6.859,0,0,1,1.41-.483q.645-.135.806.215a.532.532,0,0,1-.067.523,2.235,2.235,0,0,0-.255.47l-.322.752a6.441,6.441,0,0,1,.7-.376q.348-.162.7-.322.858-.456,1.772-.967a8.687,8.687,0,0,1,1.853-.779,1.329,1.329,0,0,1,.618-.013.772.772,0,0,1,.416.241.687.687,0,0,1,.148.457,1.107,1.107,0,0,1-.215.6,4.38,4.38,0,0,1-.524.671c-.188.2-.38.412-.577.645a1.5,1.5,0,0,1-.188.215c-.09.09-.184.192-.282.308s-.188.234-.269.35a.858.858,0,0,0-.147.309,1.022,1.022,0,0,0,.469,0,4.364,4.364,0,0,0,.565-.148c.187-.062.366-.13.537-.2l.388-.161,1.1-.484c.071-.036.165-.089.282-.161s.237-.138.363-.2.246-.12.362-.174a.714.714,0,0,1,.282-.081.213.213,0,0,1,.241.242.418.418,0,0,1-.215.376c-.161.09-.331.174-.509.255s-.367.166-.565.255q-.377.216-.724.376c-.234.108-.475.224-.726.35-.143.071-.371.173-.685.308a4.72,4.72,0,0,1-.939.295,1.557,1.557,0,0,1-.819-.026q-.35-.121-.349-.658a.893.893,0,0,1,.134-.484,3.5,3.5,0,0,1,.308-.416c.117-.134.243-.263.376-.389s.256-.242.364-.349a6.057,6.057,0,0,0,.537-.564,2.2,2.2,0,0,0,.483-.806,5.663,5.663,0,0,0-1.464.376,14.79,14.79,0,0,0-1.356.618q-.78.376-1.611.846a6.233,6.233,0,0,0-1.451,1.114.527.527,0,0,1-.281.121.512.512,0,0,1-.282-.054.435.435,0,0,1-.2-.2.5.5,0,0,1-.014-.349.835.835,0,0,1,.4-.43,4.942,4.942,0,0,0,.269-.5,1.631,1.631,0,0,1,.188-.335c.036-.125.072-.256.108-.39a3.264,3.264,0,0,0,.08-.416c-.2.054-.394.116-.591.188s-.349.126-.456.161c-.251.107-.5.211-.752.308s-.5.211-.752.336c-.143.073-.273.144-.389.215a2.272,2.272,0,0,1-.39.189.433.433,0,0,1-.309.04.522.522,0,0,1-.227-.121.237.237,0,0,1-.068-.2C1007.314,1159.954,1007.381,1159.888,1007.506,1159.834Z" fill="#333"/>
  </g>
</svg>
