<svg id="lineup_singleorigin_sp" xmlns="http://www.w3.org/2000/svg" width="745" height="130" viewBox="0 0 745 130">
  <rect id="長方形_32" data-name="長方形 32" width="745" height="130" fill="#ffc946" opacity="0"/>
  <g id="グループ_367" data-name="グループ 367" transform="translate(2538.642 -2495.375)">
    <g id="グループ_364" data-name="グループ 364">
      <g id="グループ_363" data-name="グループ 363">
        <path id="パス_1598" data-name="パス 1598" d="M-2436.14,2545.475a1.312,1.312,0,0,0,.8-.168c.126-.126.672-.883.84-.883.126,0,2.941,1.177,2.941,1.933a.906.906,0,0,1-.462.672c-.714.545-.8.63-.924,1.47a52.471,52.471,0,0,1-1.387,6.595c-.126.5-1.05,3.024-1.05,3.445,0,1.344,4.159,4.746,11.93,4.746a30.785,30.785,0,0,0,10.124-1.637c.84-.294.966-.294.966-.168,0,.084-.168.252-.294.378-1.344,1.259-1.933,1.805-2.4,3.192a8.3,8.3,0,0,1-.5,1.639,17.723,17.723,0,0,1-2.4.084c-8.527,0-11.888-.5-15.837-3.4a22.251,22.251,0,0,0-2.772-2.183c-.378,0-2.1,2.225-2.521,2.646-2.184,2.184-4.032,2.941-4.746,2.941-.084,0-.127-.084-.127-.168a6.636,6.636,0,0,1,1.093-.841c2.31-1.638,4.747-5.545,4.747-6.637a2.246,2.246,0,0,0-.42-1.093,31.328,31.328,0,0,1-2.983-8.023c0-.21,0-.336.126-.336s.421.252.63.841c.882,2.393,2.9,5.755,3.445,5.755.8,0,2.058-8.57,2.058-8.949,0-.713-.462-.755-.84-.755h-1.68a1,1,0,0,0-.925.5c-.336.672-.588,1.134-1.47,1.134-.462,0-1.428-.294-1.428-1.092a25.35,25.35,0,0,1,1.008-3.193c.5-1.68,2.353-7.687,2.353-8.905,0-.462-.252-.546-.715-.546s-2.646.21-2.9.21c-.168,0-.588-.967-.8-.967-.5,0-3.277,5.755-3.277,6.134,0,.546.126.63,1.218,1.176.336.168,1.135.588,1.135,1.133,0,.253-.168.379-.547.673a2.231,2.231,0,0,0-.84,2.143c0,2.309.042,13.694.042,16.257,0,.672.168,4.074.168,4.83a1.7,1.7,0,0,1-.462,1.429,3.208,3.208,0,0,1-1.848.713c-.756,0-.924-.42-.924-.923,0-.294.252-1.723.252-2.059.21-3.612.21-11.048.21-14.913,0-.84-.126-5.208-.126-5.755,0-.378,0-.966-.252-.966a5.237,5.237,0,0,0-.756,1.008c-1.429,2.353-3.15,3.949-3.445,3.949-.042,0-.084,0-.084-.042a5.544,5.544,0,0,1,.547-1.135c.294-.545,2.436-5.334,3.528-8.527,2.268-6.427,2.52-7.14,2.52-8.485,0-.252.042-.42.294-.42.42,0,3.7,1.806,3.7,2.52,0,.126-.084.21-.21.378-.126.126-.168.168-.168.252a19.271,19.271,0,0,0,3.234.294,1,1,0,0,0,.967-.5c.588-.756.714-.756.8-.756.126,0,1.89,1.008,2.1,1.134.294.21.924.588.924,1.093a.4.4,0,0,1-.21.336c-1.008.588-1.134.672-1.3,1.05-.126.378-2.562,9.157-2.562,9.242,0,.5.294.5.546.5Zm20.248-5.335c-.924,0-1.092.42-1.092,1.092v1.848c0,.42.21,2.353.21,2.773a1.848,1.848,0,0,1-1.891,1.637c-.966,0-1.093-.5-1.177-.965-.126-.462-.629-.588-1.049-.588h-2.227c-.546,0-1.134.084-1.134,1.008,0,3.571.126,3.823,1.26,3.823,1.051,0,1.513-.042,1.975-.715.546-.8.756-1.092,1.217-1.092.421,0,3.152,1.975,3.152,2.353,0,.588-.841.588-2.269.588h-4.033c-.924,0-1.134.294-1.134,1.218,0,2.689,0,2.983,1.218,2.983h1.555c1.553,0,2.352,0,2.646-.673.5-1.134.63-1.47,1.176-1.47.589,0,3.613,2.311,3.613,2.689,0,.588-.841.588-2.226.588h-6.764c-.5,0-1.134,0-1.134,1.049,0,.3.126,1.513.126,1.765,0,1.891-2.058,1.891-2.226,1.891-1.008,0-1.176-.588-1.176-1.429,0-.378.168-2.058.168-2.4,0-.839-.588-.881-.967-.881a35.42,35.42,0,0,0-3.7.126c-.084,0-.5.084-.588.084-.168,0-.252-.126-.378-.294l-.8-.966c-.084-.084-.21-.21-.21-.252,0-.084.084-.126.168-.126.841,0,4.579.294,5.377.294,1.093,0,1.093-.378,1.093-1.933,0-1.807,0-2.268-.925-2.268-.378,0-2.226.21-2.52.21-.126,0-.21-.126-.378-.294l-.8-.966c-.168-.168-.168-.21-.168-.252a.111.111,0,0,1,.126-.126c.588,0,3.024.21,3.528.21,1.009,0,1.177-.463,1.177-1.219v-2.52a.845.845,0,0,0-.925-.966c-.378,0-2.142.168-2.394.168-.126,0-.168-.126-.336-.294l-.84-.925c-.168-.21-.168-.252-.168-.294,0-.084.042-.084.126-.084.42,0,3.066.21,3.612.21.967,0,.967-.21.967-3.318,0-.8-.084-1.3-1.177-1.3-.168,0-2.982.042-4.368.126-.126,0-.757.084-.883.084-.168,0-.21-.084-.378-.252l-.8-.967c-.168-.21-.168-.21-.168-.294,0-.042.042-.084.126-.084.294,0,1.6.126,1.891.126,1.428.084,3.318.168,4.7.168,1.051,0,1.051-.126,1.051-2.982,0-.63-.042-1.134-.967-1.134-.5,0-3.15.21-3.486.21-.126,0-.21-.126-.378-.294l-.8-.967c-.084-.126-.168-.21-.168-.252a.111.111,0,0,1,.126-.126c.8,0,4.242.294,4.915.294.252,0,.756,0,.756-.756a5.093,5.093,0,0,0-.294-1.6c-.042-.21-.42-1.05-.42-1.218,0-.21.21-.252.294-.252.042,0,2.52.5,2.814.546.966.21,1.554.336,1.554.84,0,.337-.084.378-.84,1.05a1.144,1.144,0,0,0-.378.882c0,.5.378.5.63.5h2.773a1.239,1.239,0,0,0,1.218-.546c.21-.21.63-.63.882-.63.126,0,1.975.966,2.185,1.05.42.21.924.5.924.925,0,.294-1.092,1.176-1.134,1.428a1.984,1.984,0,0,0-.084.8c0,.336,0,1.722.252,1.722a3.137,3.137,0,0,0,.588-.5.923.923,0,0,1,.756-.336c.587,0,2.394,1.26,2.394,1.806,0,.631-.756.631-2.268.631Zm-4.915-1.093c1.134,0,1.134-.378,1.134-2.436,0-1.092,0-1.68-1.134-1.68h-2.479c-1.176,0-1.176.42-1.176,2.352,0,1.176,0,1.764,1.176,1.764Zm.126,5.8c.755,0,1.05-.168,1.05-1.134,0-3.192,0-3.57-1.092-3.57h-2.563c-1.092,0-1.092.378-1.092,1.848,0,2.562,0,2.856,1.134,2.856Z" fill="#333"/>
        <path id="パス_1599" data-name="パス 1599" d="M-2405.041,2548.625c2.4,0,6.637-2.352,6.637-2.94a3.632,3.632,0,0,0-.672-1.345c-2.814-3.822-3.15-4.242-3.15-5.125,0-1.344,2.226-2.814,6.174-2.814a27.273,27.273,0,0,1,3.908.294,10.877,10.877,0,0,0,1.553.126,1.032,1.032,0,0,0,1.177-1.134c0-.21-.294-1.26-.294-1.47a.287.287,0,0,1,.294-.295,4.923,4.923,0,0,1,3.025,4.033c0,.21-.21,1.008-.21,1.218,0,.126.042.378.294.378.21,0,1.049-.336,1.259-.378a16.923,16.923,0,0,1,4.076-.63c4.242,0,8.065,3.57,8.065,7.562,0,2.52-1.765,6.51-7.268,6.51a10.587,10.587,0,0,1-7.813-3.948c0-.126.126-.168.252-.168.084,0,1.513.5,1.764.588a11.2,11.2,0,0,0,4.118.924c2.183,0,5.713-1.134,5.713-4.662a5.052,5.052,0,0,0-5.335-5.083c-3.488,0-5.671,1.386-12.309,5.629-1.26.8-1.26.84-1.26,1.134a1.967,1.967,0,0,0,.462,1.008c2.521,4.075,6.931,12.35,6.931,16.047,0,1.638-1.008,2.521-1.89,2.521-1.261,0-1.806-1.219-1.806-2.479a14.87,14.87,0,0,0-.462-5.041,39.511,39.511,0,0,0-4.412-10.46c-.167-.252-.335-.5-.587-.5a8.781,8.781,0,0,0-1.765,1.092c-.462.294-3.906,2.521-5.209,2.521-.8,0-2.982-2.269-2.982-2.773a.415.415,0,0,1,.377-.42C-2406.218,2548.541-2405.587,2548.625-2405.041,2548.625Zm5.629-8.947c0,.84.168,1.134,1.891,3.822.756,1.134.8,1.26,1.134,1.26a2.532,2.532,0,0,0,1.008-.5,62.09,62.09,0,0,1,5.545-3.15c.42-.21.588-.378.588-.588,0-.168-.126-.252-1.3-.756-3.99-1.723-4.788-2.059-5.838-2.269A2.317,2.317,0,0,0-2399.412,2539.678Z" fill="#333"/>
        <path id="パス_1600" data-name="パス 1600" d="M-2361.911,2543.962a.37.37,0,0,1,.378-.336c.126,0,2.311.588,2.772.588a70.256,70.256,0,0,0,7.058-1.26c.714-.5.756-4.747.756-4.957a5.316,5.316,0,0,0-1.05-3.57c-.63-.757-.714-.841-.714-.967,0-.294.5-.336.672-.336,2.815,0,4.452,1.6,4.452,2.689,0,.084-1.595,5.419-1.595,6.217,0,.252.168.378.462.378.209,0,2.142-.211,2.478-.211,3.15,0,5.587,1.513,5.587,5.377,0,3.32-1.176,10.544-3.612,13.485-1.177,1.387-2.857,2.562-4.286,2.562-1.6,0-2.016-1.553-2.478-2.9-.084-.21-.546-1.3-.546-1.386a.2.2,0,0,1,.21-.21,7.674,7.674,0,0,1,1.05.294,13.316,13.316,0,0,0,2.142.294c1.219,0,2.773-.588,3.992-5.125a33.4,33.4,0,0,0,1.3-7.31c0-2.94-1.679-3.15-2.9-3.15-1.344,0-3.738.63-4.032,1.009-.168.21-.21.378-.631,1.806-1.68,5.712-5.755,16.046-9.157,16.046a1.235,1.235,0,0,1-1.345-1.343c0-.883.3-1.219,2.815-3.992,1.134-1.259,2.9-3.192,5.166-9.493a11.206,11.206,0,0,0,.589-1.974c0-.126-.042-.336-.294-.336-.925,0-4.831,1.679-5.672,1.679C-2359.978,2547.532-2361.911,2544.886-2361.911,2543.962Zm29.321,8.737c-.42,0-2.352-1.133-2.856-1.259-.21-.084-1.345-.168-1.345-.294,0-.252,1.387-.967,1.639-1.177,1.555-1.176,1.723-1.3,1.723-2.437a5.4,5.4,0,0,0-3.4-4.83c-.336-.168-1.008-.462-1.008-.63,0-.252.168-.252.294-.252,5.377,0,7.352,5.293,7.352,7.435C-2330.2,2549.759-2330.825,2552.7-2332.59,2552.7Z" fill="#333"/>
        <path id="パス_1601" data-name="パス 1601" d="M-2313.753,2544.634c-4.326,0-6.175-3.234-6.175-4.032,0-.21.042-.378.336-.378a11.03,11.03,0,0,1,1.723.8,10.534,10.534,0,0,0,4.327,1.133c1.6,0,4.452-.755,4.452-1.427,0-.378-1.385-1.345-1.932-1.723-1.134-.8-2.689-2.226-2.689-3.444a2.029,2.029,0,0,1,2.1-2.017c.883,0,1.3.252,3.234,1.387a7.007,7.007,0,0,0,3.949.966c.5,0,2.647-.042,3.109,0a1.457,1.457,0,0,1,1.429,1.512c0,1.092-1.975,2.6-2.563,2.941-1.135.714-1.261.8-1.261,1.092a1.2,1.2,0,0,0,.5.8c2.185,1.932,7.688,6.8,7.688,11.09a2.62,2.62,0,0,1-2.773,2.815c-.756,0-1.05-.168-3.57-1.555a15.432,15.432,0,0,0-7.142-2.185,5.664,5.664,0,0,0-5.88,4.874c0,2.688,2.646,3.738,6.216,3.738.715,0,4.285-.378,4.369-.378a1.777,1.777,0,0,1,2.059,1.639c0,2.226-4.033,2.226-4.789,2.226a14.1,14.1,0,0,1-6.764-1.3,6.163,6.163,0,0,1-3.612-5.209c0-4.158,4.285-6.678,8.947-6.678a14.983,14.983,0,0,1,4.537.756c2.6.755,2.857.839,3.445.839a1.346,1.346,0,0,0,1.47-1.343c0-2.731-5.587-8.99-6.8-8.99-.252,0-4.452,1.554-5.335,1.764A12.155,12.155,0,0,1-2313.753,2544.634Zm7.394-4.956c.252,0,1.555-.421,1.555-1.345,0-.546-.126-.672-1.471-1.47-2.773-1.68-3.109-1.848-3.57-1.848a.78.78,0,0,0-.8.756c0,1.008,1.511,2.226,1.847,2.478A7.094,7.094,0,0,0-2306.359,2539.678Z" fill="#333"/>
        <path id="パス_1602" data-name="パス 1602" d="M-2276.649,2552.028c1.26-1.176,1.8-1.723,1.8-2.269a10.661,10.661,0,0,0-.377-1.3,13.5,13.5,0,0,1-.714-4.915c0-.966.21-5.839.21-6.931,0-2.1-.588-2.731-1.26-3.4-.883-.924-1.009-1.05-1.009-1.176,0-.168,1.009-.21,1.135-.21,2.394,0,4.536,1.932,4.536,3.151,0,.378-.5,2.268-.588,2.688a39.515,39.515,0,0,0-.378,5.545c0,1.6,0,5,1.092,5,.589,0,.841-.168,3.109-1.6.462-.294,3.109-1.975,4.327-1.975a1.614,1.614,0,0,1,1.6,1.555c0,1.259-1.722,1.932-3.234,2.52-10,4.032-11.427,7.1-11.427,9.83,0,2.857,2.437,3.907,5.839,3.907a18.79,18.79,0,0,0,5.041-.756,11.45,11.45,0,0,1,3.151-.631c1.428,0,2.773.967,2.773,2.016,0,2.143-8.571,2.353-10.8,2.353-1.933,0-8.024,0-8.024-6.595A9.519,9.519,0,0,1-2276.649,2552.028Z" fill="#333"/>
        <path id="パス_1603" data-name="パス 1603" d="M-2221.716,2537.409c1.891,0,2.1,0,2.689-.714,1.177-1.386,1.3-1.554,1.681-1.554.251,0,3.948,2.226,3.948,2.772,0,.63-.84.63-2.268.63h-12.98c-1.093,0-1.093.8-1.093,2.143,0,1.764,0,2.52,1.093,2.52h1.973c1.681,0,2.017-.042,2.4-.336.336-.252,1.6-1.932,1.975-1.932s3.654,2.058,3.654,2.646c0,.756-.924.756-2.352.756h-7.645c-1.135,0-1.135.967-1.135,1.723,0,1.6,0,2.436,1.135,2.436h7.729c1.89,0,2.1,0,2.689-.714,1.175-1.386,1.3-1.554,1.679-1.554.294,0,3.95,2.268,3.95,2.814,0,.588-.841.588-2.269.588h-27.977c-3.655,0-4.873.084-5.292.126-.169,0-.757.084-.883.084-.168,0-.252-.126-.378-.252l-.84-1.008c-.126-.21-.168-.21-.168-.252,0-.084.042-.126.168-.126.294,0,1.554.126,1.848.168,2.058.084,3.781.126,5.755.126h8.948c1.092,0,1.092-.714,1.092-2.52,0-.756,0-1.639-1.092-1.639h-4.369c-3.655,0-4.873.084-5.293.084a6.37,6.37,0,0,1-.882.126c-.168,0-.252-.126-.378-.294l-.8-.966c-.169-.21-.169-.21-.169-.294,0-.042.042-.084.126-.084.295,0,1.6.126,1.849.126,2.058.126,3.781.168,5.755.168h4.117c1.092,0,1.092-.63,1.092-2.394,0-1.345,0-2.269-1.134-2.269h-7.646c-3.7,0-4.915.084-5.335.084a6.374,6.374,0,0,1-.882.126c-.126,0-.252-.126-.377-.294l-.8-.966c-.168-.21-.168-.21-.168-.294s.042-.084.126-.084c.294,0,1.6.126,1.848.126,2.059.084,3.823.168,5.8.168h11.594c1.513,0,3.319-3.571,3.319-6.091,0-.966,0-1.3.42-1.3.21,0,2.521.924,2.941,1.092.881.336,1.511.589,1.511,1.26,0,.5-.5.546-.881.588-.8.126-1.008.294-2.983,2.017-.336.252-1.723,1.386-1.975,1.638-.209.21-.377.336-.377.5,0,.294.335.294.8.294Zm-20.079,19.66c-3.7,0-4.873.084-5.335.126-.126,0-.756.084-.881.084s-.211-.126-.379-.294l-.8-.966c-.168-.21-.168-.21-.168-.294,0-.043.042-.085.126-.085.294,0,1.6.127,1.848.127,2.059.126,3.823.168,5.8.168h7.478c1.092,0,1.092-.715,1.092-1.933a8.19,8.19,0,0,0-.21-2.394,5.378,5.378,0,0,1-.252-1.05c0-.3.378-.3.588-.3.545,0,3.823.3,3.823,1.261,0,.252-.505,1.3-.547,1.512-.042.294-.21,2.058-.21,2.184,0,.378.042.715.925.715h6.469c2.1,0,2.142,0,3.024-.967.336-.378.925-1.05,1.387-1.05a12.085,12.085,0,0,1,3.864,2.647c0,.5-1.008.5-2.227.5h-11.929c-.5,0-.756,0-.756.294,0,.587,6.511,6.847,16.467,6.847.21,0,1.133-.042,1.3-.042.084,0,.252,0,.252.084s-1.469.756-1.721.924a15.357,15.357,0,0,0-2.941,2.437c-.126.251-.337.545-.547.545a25.877,25.877,0,0,1-10.754-6.72,23.326,23.326,0,0,1-2.646-3.194c-.126-.168-.294-.462-.5-.462s-.21.126-.5.883c-2.73,7.477-11.762,8.276-14.829,8.276a13.936,13.936,0,0,1-4.872-.631c0-.042,1.89-.252,2.058-.252,11.258-1.176,14.619-6.679,14.619-8.36,0-.629-.336-.629-.924-.629Zm6.469-19.954c-.63,0-.84-.294-2.352-2.814a14.644,14.644,0,0,0-2.815-3.277c-.042-.084-.252-.252-.252-.42,0-.042.126-.084.168-.084a19.031,19.031,0,0,1,3.193,1.051c2.184.965,3.571,1.637,3.571,3.654C-2233.813,2536.065-2234.191,2537.115-2235.326,2537.115Z" fill="#333"/>
        <path id="パス_1604" data-name="パス 1604" d="M-2194.278,2536.947a19.336,19.336,0,0,1-.8,2.352,100.988,100.988,0,0,0-1.764,14.955c0,4.243.8,8.024,6.427,8.024a20.679,20.679,0,0,0,8.821-2.185c.631-.294,3.824-2.059,3.992-2.059a.2.2,0,0,1,.21.21c0,.463-6.217,7.226-14.115,7.226-5.461,0-8.065-3.15-8.065-11.594,0-2.6.084-3.444.966-11.679.168-1.385.546-4.83.546-6.006a5.3,5.3,0,0,0-.378-2.059c-.042-.126-.462-1.092-.462-1.134,0-.294.336-.42.588-.42C-2196.127,2532.578-2194.278,2535.981-2194.278,2536.947Z" fill="#333"/>
        <path id="パス_1605" data-name="パス 1605" d="M-2158.848,2544.634c-4.327,0-6.175-3.234-6.175-4.032,0-.21.042-.378.336-.378a10.986,10.986,0,0,1,1.722.8,10.536,10.536,0,0,0,4.328,1.133c1.595,0,4.452-.755,4.452-1.427,0-.378-1.386-1.345-1.933-1.723-1.134-.8-2.688-2.226-2.688-3.444a2.028,2.028,0,0,1,2.1-2.017c.883,0,1.3.252,3.235,1.387a7,7,0,0,0,3.949.966c.5,0,2.646-.042,3.108,0a1.457,1.457,0,0,1,1.429,1.512c0,1.092-1.975,2.6-2.563,2.941-1.134.714-1.26.8-1.26,1.092a1.2,1.2,0,0,0,.5.8c2.184,1.932,7.687,6.8,7.687,11.09a2.619,2.619,0,0,1-2.772,2.815c-.756,0-1.05-.168-3.571-1.555a15.429,15.429,0,0,0-7.141-2.185,5.664,5.664,0,0,0-5.881,4.874c0,2.688,2.646,3.738,6.217,3.738.714,0,4.285-.378,4.369-.378a1.777,1.777,0,0,1,2.058,1.639c0,2.226-4.033,2.226-4.789,2.226a14.1,14.1,0,0,1-6.763-1.3,6.162,6.162,0,0,1-3.613-5.209c0-4.158,4.285-6.678,8.948-6.678a14.993,14.993,0,0,1,4.537.756c2.6.755,2.856.839,3.444.839a1.347,1.347,0,0,0,1.471-1.343c0-2.731-5.587-8.99-6.806-8.99-.252,0-4.452,1.554-5.335,1.764A12.149,12.149,0,0,1-2158.848,2544.634Zm7.393-4.956c.252,0,1.555-.421,1.555-1.345,0-.546-.126-.672-1.471-1.47-2.772-1.68-3.108-1.848-3.57-1.848a.779.779,0,0,0-.8.756c0,1.008,1.512,2.226,1.848,2.478A7.086,7.086,0,0,0-2151.455,2539.678Z" fill="#333"/>
        <path id="パス_1606" data-name="パス 1606" d="M-2111.685,2537.115c0,.126.084.294.084.462a32.214,32.214,0,0,1,.42,4.536c0,2.815-.63,6.722-4.328,12.309-3.36,5.125-5.5,6.133-7.182,6.133-2.773,0-5.251-4.326-5.251-9.451a14.8,14.8,0,0,1,4.663-10.712,17.379,17.379,0,0,1,13.4-5.461,13.687,13.687,0,0,1,6.764,1.344,13.167,13.167,0,0,1,7.31,12.224,15.665,15.665,0,0,1-10.586,14.786,25.819,25.819,0,0,1-6.974,1.555c-.168,0-.42-.042-.42-.294,0-.126.084-.168,1.134-.588,4.369-1.722,13.484-5.335,13.484-15.795,0-1.638-.168-11.636-11.635-11.636C-2111.643,2536.527-2111.685,2536.863-2111.685,2537.115Zm-13.653,12.9c0,2.73,1.092,6.47,3.655,6.47,1.218,0,2.226-.5,5.125-4.873,2.226-3.4,4.117-8.066,4.117-12.225,0-2.52-.169-2.73-.715-2.73C-2117.146,2536.653-2125.338,2542.072-2125.338,2550.011Z" fill="#333"/>
        <path id="パス_1607" data-name="パス 1607" d="M-2083.778,2558.833a56.59,56.59,0,0,0,5.545-15.459c0-.42-.168-.42-1.513-.42a8.06,8.06,0,0,1-3.738-.757,4.038,4.038,0,0,1-2.185-2.267.176.176,0,0,1,.168-.168,9.278,9.278,0,0,1,.967.378,15.422,15.422,0,0,0,3.738.462,9.2,9.2,0,0,0,2.983-.378c.336-.294.462-3.151.462-3.445a5.8,5.8,0,0,0-.5-2.6c-.168-.21-1.176-1.26-1.176-1.554,0-.42.8-.965,1.89-.965a3.79,3.79,0,0,1,3.361,2.225c0,.21-.463,1.051-.463,1.261,0,.8,3.361,1.512,3.781,1.512.168,0,1.092-.084,1.3-.084a1.2,1.2,0,0,1,1.387,1.3c0,2.353-3.572,3.571-6.344,4.326-1.428.379-1.6.421-1.764,1.177-2.142,9.157-2.184,9.2-3.066,11.93-2.9,8.738-4.411,8.738-5.209,8.738-1.009,0-1.135-1.387-1.135-1.848C-2085.291,2561.69-2085.081,2561.27-2083.778,2558.833Zm8.863-19.2c.21,0,3.4-1.135,3.4-1.681,0-.42-2.268-1.344-2.731-1.344-.252,0-.378.084-.462.5-.168.84-.168.966-.378,1.974C-2075.125,2539.383-2075.167,2539.636-2074.915,2539.636Zm3.193,17.811c.882,3.655,5.419,4.453,8.612,4.453.714,0,3.906-.294,4.578-.294,1.429,0,3.36.714,3.36,2.1,0,1.219-1.553,1.429-5.124,1.429-6.805,0-12.476-1.723-12.476-7.016,0-.965.252-1.847.588-1.847C-2072.016,2556.271-2071.764,2557.321-2071.722,2557.447Zm9.284-14.619c3.99,0,7.014,1.176,7.014,3.025,0,1.008-.881,1.008-1.217,1.008-.378,0-2.017-.126-2.353-.126a7.064,7.064,0,0,0-3.108.671,7.339,7.339,0,0,1-1.765.547c-.084,0-.21,0-.21-.126,0-.295,2.185-1.89,2.185-2.352,0-.631-2.983-.673-3.613-.673a24.626,24.626,0,0,0-3.025.169c-.252.042-1.218.168-1.386.168-.042,0-.336,0-.378-.084C-2070.588,2544.508-2066.933,2542.828-2062.438,2542.828Z" fill="#333"/>
        <path id="パス_1608" data-name="パス 1608" d="M-2031.34,2564.84c-.713,0-.8,0-.8-.21,0-.126.126-.21,1.217-.546,5.546-1.806,13.233-5.461,13.233-13.064,0-6.554-6.259-8.57-8.15-8.57-.63,0-.714.252-1.8,2.815a35.643,35.643,0,0,1-3.194,6.007,1.1,1.1,0,0,0-.21.588.824.824,0,0,0,.631.8c1.428.757,1.89,1.093,1.89,2.1,0,1.093-.882,1.345-1.554,1.345a4.15,4.15,0,0,1-2.352-.715c-.588-.294-.63-.336-.882-.336-.421,0-.505.084-1.261.883-3.4,3.57-6.175,4.62-7.352,4.62-2.73,0-3.192-4.284-3.192-5.965,0-4.369,2.647-7.729,4.411-9.493a1.351,1.351,0,0,0,.462-1.093c0-.378-1.681-5.419-1.891-6.007-.125-.336-.881-1.848-.881-1.974,0-.042,0-.126.084-.126,1.343,0,3.234,1.47,3.4,2.268a17.987,17.987,0,0,0,1.093,4.159.866.866,0,0,0,.756.462,12.224,12.224,0,0,0,2.016-.882,20.363,20.363,0,0,1,6.553-1.512,1.082,1.082,0,0,0,1.05-.546,9.5,9.5,0,0,0,.589-3.109,8.273,8.273,0,0,0-.883-3.487.709.709,0,0,1-.084-.21c0-.126.336-.126.421-.126,1.889,0,4.158,1.555,4.158,2.563a39.318,39.318,0,0,0-1.47,4.327c0,.672.462.756.8.8,5.881,1.008,10.04,5.209,10.04,10.754C-2014.494,2560.345-2023.862,2564.84-2031.34,2564.84Zm-4.7-12.309a17.167,17.167,0,0,1-2.857-4.83c-.21-.588-.378-1.008-.756-1.008-.546,0-3.4,2.9-3.4,7.141,0,2.269.839,3.78,1.806,3.78,1.554,0,5.5-3.444,5.5-4.326A.953.953,0,0,0-2036.044,2552.531Zm6.385-10.291a13.742,13.742,0,0,0-6.385,1.554c-.715.42-1.134.714-1.134,1.3,0,.714,2.394,5.335,3.528,5.335.421,0,.589-.084,1.471-1.513a26.614,26.614,0,0,0,3.108-6.175C-2029.071,2542.24-2029.491,2542.24-2029.659,2542.24Z" fill="#333"/>
        <path id="パス_1609" data-name="パス 1609" d="M-1987.176,2537.115c0,.126.084.294.084.462a32.2,32.2,0,0,1,.42,4.536c0,2.815-.63,6.722-4.327,12.309-3.36,5.125-5.5,6.133-7.182,6.133-2.773,0-5.251-4.326-5.251-9.451a14.8,14.8,0,0,1,4.663-10.712,17.379,17.379,0,0,1,13.4-5.461,13.69,13.69,0,0,1,6.764,1.344,13.166,13.166,0,0,1,7.309,12.224,15.664,15.664,0,0,1-10.586,14.786,25.806,25.806,0,0,1-6.973,1.555c-.168,0-.42-.042-.42-.294,0-.126.084-.168,1.134-.588,4.369-1.722,13.484-5.335,13.484-15.795,0-1.638-.168-11.636-11.636-11.636C-1987.134,2536.527-1987.176,2536.863-1987.176,2537.115Zm-13.652,12.9c0,2.73,1.092,6.47,3.654,6.47,1.219,0,2.227-.5,5.125-4.873,2.227-3.4,4.118-8.066,4.118-12.225,0-2.52-.169-2.73-.715-2.73C-1992.636,2536.653-2000.828,2542.072-2000.828,2550.011Z" fill="#333"/>
        <path id="パス_1610" data-name="パス 1610" d="M-1945.21,2542.24c0,1.386-3.193,2.646-4.2,3.067-.588.21-.63.378-.714,1.848-.084.924-.084,4.327-.084,4.537,0,.252,0,.755.378.755.126,0,3.57-1.427,4.243-1.679,4.159-1.555,6.049-1.681,7.141-1.681a6.433,6.433,0,0,1,6.47,6.343c0,5.545-5.84,8.065-9.284,8.065-2.4,0-4.327-1.217-4.327-3.4a3.742,3.742,0,0,1,2.1-3.318.225.225,0,0,1,.21.21c0,.126-.084.21-.168.336a1.732,1.732,0,0,0-.378,1.134c0,2.016,2.311,2.016,2.73,2.016,2.773,0,6.3-1.848,6.3-5.209a4.351,4.351,0,0,0-4.033-4.62c-1.176,0-3.78.546-8.7,3.15-2.353,1.26-2.6,1.386-2.6,2.1,0,.462.126,2.351.126,2.772,0,1.932-.63,4.7-2.142,4.7-1.134,0-1.6-.881-1.933-1.553-1.344-2.6-1.554-2.6-2.1-2.6a3.5,3.5,0,0,0-1.05.252,8.285,8.285,0,0,1-1.6.84c-.463,0-2.605-1.26-2.605-2.647,0-.755.462-1.637,1.218-1.637.252,0,1.471.21,1.723.21,1.134,0,1.889-.21,4.368-1.429,2.143-1.05,2.4-1.176,2.4-2.353,0-.965-.042-4.536-.084-5.25,0-.294-.126-.924-.588-.924a9.838,9.838,0,0,0-1.933.378c-2.143.713-2.352.8-2.982.8-1.428,0-3.025-2.9-3.025-3.192a.3.3,0,0,1,.336-.294c.126,0,.63.168.756.168a12.2,12.2,0,0,0,1.933.21,18.355,18.355,0,0,0,5.335-1.26,31.415,31.415,0,0,0,.42-4.579,4.123,4.123,0,0,0-1.386-3.36,4.219,4.219,0,0,1-.588-.672c0-.379.672-.463.924-.463,2.814,0,4.327,2.059,4.327,2.857a16.933,16.933,0,0,1-.883,2.184,22.455,22.455,0,0,0-.42,2.731c0,.168.084.462.336.462.294,0,1.471-.462,1.471-1.05,0-.084-.21-.5-.21-.588,0-.042.084-.126.168-.168C-1947.226,2540.35-1945.21,2540.938-1945.21,2542.24Zm-9.578,16.088c0,.631,1.135,1.975,1.765,1.975.588,0,1.176-1.176,1.176-3.234,0-.168,0-.588-.126-.672C-1952.1,2556.4-1954.788,2557.74-1954.788,2558.328Zm27.6-13.063c0,.882-.5,2.015-1.386,2.015-.252,0-1.219-.083-1.429-.083-.21.041-1.091.293-1.259.293a.2.2,0,0,1-.21-.21,2.94,2.94,0,0,1,.126-.335,2.208,2.208,0,0,0,.168-.756c0-1.681-2.1-2.269-3.529-2.269a3.637,3.637,0,0,0-1.638.42.94.94,0,0,1-.42.126c-.126,0-.168-.042-.168-.168a5.369,5.369,0,0,1,4.536-2.646C-1929.163,2541.652-1927.189,2543.332-1927.189,2545.265Z" fill="#333"/>
        <path id="パス_1611" data-name="パス 1611" d="M-1892.595,2546.063a37.059,37.059,0,0,0,10.167,3.318c.167,0,.881.126.881.294,0,.126-.588.294-.756.336a7.281,7.281,0,0,0-3.192,2.269c-.126.167-.588,1.05-.8,1.05-.252,0-9.367-4.411-13.484-11.133-.8-1.343-.924-1.469-1.218-1.469s-.378.084-1.3,1.05a49.929,49.929,0,0,1-12.434,9.788c-1.429.756-5.8,2.688-6.6,2.688-.126,0-.21-.084-.21-.126s4.495-2.814,4.873-3.066c5.671-3.572,11.679-10,12.267-13.149.042-.336.084-.462.378-.462.21,0,3.612,1.3,3.822,1.428.126.042.547.21.547.63a2.631,2.631,0,0,1-.169.589C-1899.736,2540.728-1896.123,2544.256-1892.595,2546.063Zm-20.247-10.46c-3.109,0-4.537.084-5.335.126-.126,0-.756.084-.882.084s-.21-.084-.378-.252l-.8-.966c-.168-.21-.168-.21-.168-.294s.042-.084.126-.084c.294,0,1.6.126,1.849.126,2.057.084,3.822.168,5.8.168h1.218c.882,0,1.135-.421,1.135-1.135a6.8,6.8,0,0,0-.337-2.226,6.379,6.379,0,0,1-.252-.84c0-.21.21-.294.463-.294.294,0,2.184.462,2.646.588,1.26.336,1.512.42,1.512.8,0,.253-.042.336-.63,1.092a1.027,1.027,0,0,0-.294.756c0,1.009.336,1.261,1.47,1.261h6.932c.378,0,1.259,0,1.259-1.135a17.42,17.42,0,0,0-.126-1.889c-.042-.211-.251-1.093-.251-1.261,0-.21.251-.294.461-.294.294,0,3.152.672,3.614.8s.714.294.714.672c0,.253-.168.42-.63.756a1.347,1.347,0,0,0-.546,1.176c0,1.177.672,1.177,1.344,1.177h2.142c1.848,0,2.059,0,2.689-.715,1.175-1.386,1.3-1.554,1.679-1.554.253,0,3.908,2.227,3.908,2.773,0,.588-.84.588-2.227.588h-8.191c-1.3,0-1.3.672-1.3,1.68,0,.252.042,1.68.042,1.89,0,1.555-1.261,1.807-2.143,1.807-.967,0-1.135-.168-1.135-1.6v-2.9c-.126-.8-.629-.882-1.3-.882h-6.722c-.966,0-1.554,0-1.554,1.176,0,.42.126,2.268.126,2.646,0,.8-.126,1.177-.5,1.429a2.986,2.986,0,0,1-1.6.588c-.714,0-1.05-.462-1.05-1.3,0-.336.042-1.933.042-2.227,0-1.638,0-2.31-1.3-2.31Zm2.983,21.466a21.5,21.5,0,0,1,3.234,1.974,1.041,1.041,0,0,1,.336.63c0,.5-.336.588-1.344.84-.126.042-3.739,2.856-4.411,3.361-3.781,2.689-6.175,3.655-6.384,3.655a.135.135,0,0,1-.127-.126c0-.084,2.226-2.017,2.52-2.311,3.487-3.318,5.63-6.637,6.008-7.981A.252.252,0,0,1-1909.859,2557.069Zm1.931-2.227c-3.276,0-4.494.042-5.334.126-.126,0-.756.084-.882.084s-.21-.084-.378-.252l-.8-.966c-.168-.21-.168-.21-.168-.294,0-.042.042-.084.126-.084.294,0,1.6.126,1.848.126,2.058.126,3.823.168,5.8.168h3.151c.42,0,1.26,0,1.26-1.135,0-.5-.252-3.906-.336-4.326,0-.084-.252-.5-.252-.588s.084-.253.42-.253c.294,0,3.234.631,3.654.757.589.126.8.5.8.714,0,.252-.084.336-.715.882-.588.5-.588.757-.588,2.017,0,1.512,0,1.932,1.261,1.932h1.847c1.849,0,2.059,0,2.689-.714,1.177-1.386,1.3-1.554,1.681-1.554.251,0,3.906,2.268,3.906,2.772,0,.588-.84.588-2.226.588h-7.939c-1.261,0-1.261.756-1.261,2.1,0,2.982,0,4.663.084,7.141.042.714.042,1.722.042,2.226,0,1.345-.336,2.142-2.142,2.142-.924,0-1.008-.755-1.008-1.469,0-.547.126-3.067.126-3.614.042-1.595.042-3.15.042-5.083a25.462,25.462,0,0,0-.084-2.856c-.21-.588-.882-.588-1.218-.588Zm11.217,3.529c0-.127.21-.169.378-.169,1.554,0,11.132,2.647,11.132,6.134,0,1.344-.756,2.4-1.807,2.4-.8,0-.965-.21-2.268-2.143-1.974-2.982-4.872-4.7-7.225-6.049C-1896.543,2558.539-1896.711,2558.413-1896.711,2558.371Z" fill="#333"/>
      </g>
    </g>
    <g id="グループ_366" data-name="グループ 366">
      <g id="グループ_365" data-name="グループ 365">
        <path id="パス_1612" data-name="パス 1612" d="M-2264.023,2585.826a3.555,3.555,0,0,0-1.74-.279,7.033,7.033,0,0,0-1.78.4,5.947,5.947,0,0,1,4.08,1.1,4.017,4.017,0,0,1,1.36,3.739,12.171,12.171,0,0,1-1.22,4.281,33.11,33.11,0,0,1-2.26,3.92q-1.041,1.56-2.36,3.18a21.952,21.952,0,0,1-2.92,2.96,18.624,18.624,0,0,1-3.42,2.279,10,10,0,0,1-3.82,1.1,7.055,7.055,0,0,1-1.9-.1,2.96,2.96,0,0,1-1.66-.9,3.174,3.174,0,0,1-.88-1.88,8.016,8.016,0,0,1,.04-2.12,14.551,14.551,0,0,1,1.38-4.181,36.772,36.772,0,0,1,2.22-3.819,30.532,30.532,0,0,1,2.559-3.62,40.753,40.753,0,0,1,3-3.26,31.508,31.508,0,0,1,3.261-2.68,9.235,9.235,0,0,1,3.82-1.64,8.5,8.5,0,0,1,1.54-.12,2.126,2.126,0,0,1,1.42.44.657.657,0,0,1,.26.46.762.762,0,0,1-.1.46.735.735,0,0,1-.36.3A.648.648,0,0,1-2264.023,2585.826Zm-7.6,2.641a25.643,25.643,0,0,0-3.221,3.14,40.336,40.336,0,0,0-2.739,3.58,29.056,29.056,0,0,0-2.22,3.82,16.309,16.309,0,0,0-1.38,4.18,7.447,7.447,0,0,0-.12.9,4.766,4.766,0,0,0,.02.98,3.315,3.315,0,0,0,.24.9,1.633,1.633,0,0,0,.58.7,2.5,2.5,0,0,0,1.54.46,8.254,8.254,0,0,0,1.579-.18,11.044,11.044,0,0,0,4-1.68,28.3,28.3,0,0,0,3.4-2.68,25.725,25.725,0,0,0,2.98-3.28,21.7,21.7,0,0,0,2.3-3.76q.36-.72.8-1.74a10.709,10.709,0,0,0,.66-2.1,6.11,6.11,0,0,0,.08-2.079,2.693,2.693,0,0,0-.9-1.68,2.6,2.6,0,0,0-1.8-.7,10.614,10.614,0,0,0-2,.141.657.657,0,0,1-.64-.2.854.854,0,0,1-.24-.72,15.675,15.675,0,0,0-1.58,1Q-2271.063,2588.027-2271.623,2588.467Z" fill="#333"/>
        <path id="パス_1613" data-name="パス 1613" d="M-2265.2,2601.746q.84-.44,1.66-.88t1.78-1a1.934,1.934,0,0,1,.46-1.439,1.588,1.588,0,0,1,1.38-.641.812.812,0,0,1,.72.561.971.971,0,0,1-.16.92,2.684,2.684,0,0,1-.84.8,1.345,1.345,0,0,0,.68.16,3.669,3.669,0,0,0,1.76-.3,11.664,11.664,0,0,0,1.64-.82q.72-.24.92.16a.954.954,0,0,1-.16.96q-.2.321-.46.82a7.549,7.549,0,0,0-.44,1.02,3.486,3.486,0,0,0-.2,1,.9.9,0,0,0,.3.759q.2.242,1.06,0t2.3-.8q.48-.2.98-.46t1.02-.5a2.151,2.151,0,0,0,.36-.18,1.9,1.9,0,0,1,.46-.2.679.679,0,0,1,.4,0c.12.04.18.179.18.42a.473.473,0,0,1-.18.36,2.151,2.151,0,0,1-.4.279,2.825,2.825,0,0,1-.46.2l-.36.12-1.68.759-1.1.6a9.313,9.313,0,0,1-1.34.6,3.96,3.96,0,0,1-1.32.24,1.147,1.147,0,0,1-1-.521,1.291,1.291,0,0,1-.24-.619,2.312,2.312,0,0,1,.02-.68,6.212,6.212,0,0,1,.16-.68c.066-.227.126-.446.18-.66l.32-1.321c-.133.028-.407.094-.82.2a7.926,7.926,0,0,1-1.34.219,6.8,6.8,0,0,1-1.38-.019,1.344,1.344,0,0,1-.98-.52q-.681.359-1.12.6c-.294.16-.594.334-.9.519s-.553.334-.74.441a2.3,2.3,0,0,0-.56.3.47.47,0,0,1-.56.06.5.5,0,0,1-.24-.44A.414.414,0,0,1-2265.2,2601.746Z" fill="#333"/>
        <path id="パス_1614" data-name="パス 1614" d="M-2246.2,2599.826c.107-.052.354-.159.74-.319a6.558,6.558,0,0,1,1.14-.36,2.15,2.15,0,0,1,.96-.02q.4.1.28.739a1.958,1.958,0,0,1-.34.721,2.717,2.717,0,0,0-.38.72,9.031,9.031,0,0,0-.459,1.28,1.342,1.342,0,0,0,.139,1.239,3.783,3.783,0,0,0,1.5-.159q.819-.24,1.5-.48a7.685,7.685,0,0,0,.76-.4q.56-.319,1.18-.619a6.685,6.685,0,0,1,1.14-.44c.346-.093.56-.06.64.1.106.188.04.388-.2.6a3.882,3.882,0,0,1-.9.58q-.54.261-1.1.48c-.373.147-.614.247-.72.3q-.88.441-1.78.861a7.174,7.174,0,0,1-1.86.58,1.09,1.09,0,0,1-1.16-.361,2.144,2.144,0,0,1-.32-1.219,6.413,6.413,0,0,1,.221-1.6q.218-.859.46-1.58-.922.359-1.8.66a16.239,16.239,0,0,0-1.72.7c-.479.214-.96.454-1.439.721a.608.608,0,0,1-.7-.221c-.173-.225-.1-.42.22-.58Zm4.68-8.08a2.345,2.345,0,0,1,.62-.9,3.727,3.727,0,0,1,.94-.62,5.958,5.958,0,0,1,1.1-.38c.387-.094.753-.166,1.1-.22a14.354,14.354,0,0,1,2.839.119,2.171,2.171,0,0,1,.54.08.355.355,0,0,1,.26.441.6.6,0,0,1-.2.34.4.4,0,0,1-.36.1,9.686,9.686,0,0,0-2.42-.179,4.3,4.3,0,0,0-2.26.74,1.306,1.306,0,0,0-.56.639,1.456,1.456,0,0,1-.48.641.63.63,0,0,1-.84,0A.657.657,0,0,1-2241.523,2591.746Z" fill="#333"/>
        <path id="パス_1615" data-name="パス 1615" d="M-2238.036,2601.786q1.039-.517,2.04-1t2.04-.88a14.33,14.33,0,0,1,2.22-.6,12.887,12.887,0,0,1,2.3-.2.976.976,0,0,1,.68.219c.161.148.173.4.04.741a.787.787,0,0,1-.72.4,13.641,13.641,0,0,0-2.1,0,6.5,6.5,0,0,0-2.019.48,3.381,3.381,0,0,0-.681.36,4.327,4.327,0,0,0-.66.54,1.7,1.7,0,0,0-.42.66.964.964,0,0,0,.08.76,1.446,1.446,0,0,0,1.22.8,4.141,4.141,0,0,0,1.54-.04,4.144,4.144,0,0,0,.921-.321l.719-.359a2.646,2.646,0,0,1,.58-.22.612.612,0,0,1,.54.18.848.848,0,0,1,.02.92q-.261.519-.42.88l-.56,1.32q1.08-1.121,2.28-2.141a18.258,18.258,0,0,1,2.56-1.819c.08-.054.187-.134.32-.24a3.648,3.648,0,0,1,.44-.3,1.806,1.806,0,0,1,.481-.2.452.452,0,0,1,.4.059q.279.2.2.4a1.22,1.22,0,0,1-.28.4q-1.041.56-2,1.2a18.794,18.794,0,0,0-1.88,1.441,23.682,23.682,0,0,0-1.98,1.88,23.154,23.154,0,0,0-1.74,2.08l-1.04,2.4q-.48,1.2-.96,2.44t-1.04,2.44c-.08.16-.179.353-.3.58a5.3,5.3,0,0,1-.4.64,1.767,1.767,0,0,1-.52.48,1.037,1.037,0,0,1-.66.14.729.729,0,0,1-.62-.441,1.576,1.576,0,0,1-.08-.8,5.242,5.242,0,0,1,.2-.88q.14-.441.26-.72a20.754,20.754,0,0,1,1.9-3.5,36.755,36.755,0,0,1,2.42-3.221l1.36-3.88a10.309,10.309,0,0,1-1.54.3,6.77,6.77,0,0,1-1.54.02,3.434,3.434,0,0,1-1.3-.4,1.916,1.916,0,0,1-.859-1.04,1.932,1.932,0,0,1,.04-1.679q-.321.2-.661.42a.682.682,0,0,1-.58.14.431.431,0,0,1-.48-.341A.407.407,0,0,1-2238.036,2601.786Z" fill="#333"/>
        <path id="パス_1616" data-name="パス 1616" d="M-2220.589,2599.826c.107-.052.354-.159.741-.319a6.522,6.522,0,0,1,1.139-.36,2.15,2.15,0,0,1,.96-.02q.4.1.28.739a1.971,1.971,0,0,1-.339.721,2.661,2.661,0,0,0-.38.72,9.022,9.022,0,0,0-.46,1.28,1.342,1.342,0,0,0,.139,1.239,3.78,3.78,0,0,0,1.5-.159q.819-.24,1.5-.48a7.685,7.685,0,0,0,.76-.4q.56-.319,1.18-.619a6.662,6.662,0,0,1,1.141-.44c.345-.093.559-.06.639.1q.161.282-.2.6a3.875,3.875,0,0,1-.9.58q-.542.261-1.1.48t-.72.3q-.88.441-1.78.861a7.182,7.182,0,0,1-1.859.58,1.09,1.09,0,0,1-1.161-.361,2.152,2.152,0,0,1-.32-1.219,6.413,6.413,0,0,1,.221-1.6c.145-.573.3-1.1.46-1.58q-.921.359-1.8.66a16.239,16.239,0,0,0-1.72.7c-.479.214-.96.454-1.439.721a.606.606,0,0,1-.7-.221c-.174-.225-.1-.42.219-.58Zm4.68-8.08a2.345,2.345,0,0,1,.62-.9,3.715,3.715,0,0,1,.941-.62,5.924,5.924,0,0,1,1.1-.38c.387-.094.753-.166,1.1-.22a14.364,14.364,0,0,1,2.84.119,2.183,2.183,0,0,1,.54.08.355.355,0,0,1,.259.441.6.6,0,0,1-.2.34.4.4,0,0,1-.36.1,9.686,9.686,0,0,0-2.42-.179,4.3,4.3,0,0,0-2.26.74,1.3,1.3,0,0,0-.559.639,1.465,1.465,0,0,1-.481.641.63.63,0,0,1-.84,0A.658.658,0,0,1-2215.909,2591.746Z" fill="#333"/>
        <path id="パス_1617" data-name="パス 1617" d="M-2212.614,2601.786q.439-.238,1.52-.819t2.22-1.1a10.152,10.152,0,0,1,2.1-.719q.96-.2,1.2.32a.79.79,0,0,1-.1.779,3.336,3.336,0,0,0-.379.7l-.481,1.12a9.95,9.95,0,0,1,1.04-.56l1.04-.48q1.281-.681,2.64-1.44a12.91,12.91,0,0,1,2.761-1.16,1.972,1.972,0,0,1,.919-.021,1.164,1.164,0,0,1,.62.361,1.021,1.021,0,0,1,.22.68,1.646,1.646,0,0,1-.32.9,6.6,6.6,0,0,1-.78,1c-.28.294-.567.613-.86.96a2.376,2.376,0,0,1-.28.32c-.134.134-.273.286-.42.46s-.28.347-.4.52a1.278,1.278,0,0,0-.22.46,1.539,1.539,0,0,0,.7,0,6.342,6.342,0,0,0,.84-.22c.28-.094.546-.193.8-.3s.446-.186.58-.24l1.64-.72c.106-.054.247-.134.42-.24s.353-.206.541-.3.366-.181.539-.261a1.067,1.067,0,0,1,.42-.119.318.318,0,0,1,.36.36.629.629,0,0,1-.319.56c-.241.134-.5.26-.761.38l-.84.38c-.374.214-.733.4-1.08.559s-.707.334-1.08.521q-.321.159-1.02.46a7.054,7.054,0,0,1-1.4.439,2.31,2.31,0,0,1-1.22-.04q-.52-.178-.52-.979a1.324,1.324,0,0,1,.2-.72,4.917,4.917,0,0,1,.46-.62,7.62,7.62,0,0,1,.56-.58c.2-.187.38-.36.54-.521a8.72,8.72,0,0,0,.8-.839,3.252,3.252,0,0,0,.72-1.2,8.369,8.369,0,0,0-2.18.561q-1.1.441-2.02.92-1.161.561-2.4,1.26a9.262,9.262,0,0,0-2.16,1.66.774.774,0,0,1-.42.179.748.748,0,0,1-.42-.08.64.64,0,0,1-.3-.3.744.744,0,0,1-.02-.52,1.246,1.246,0,0,1,.6-.641,7.606,7.606,0,0,0,.4-.739,2.447,2.447,0,0,1,.28-.5c.053-.186.107-.381.16-.58a4.913,4.913,0,0,0,.121-.62c-.294.08-.587.174-.881.279s-.52.188-.68.241c-.374.16-.747.314-1.12.459s-.747.315-1.12.5c-.214.108-.407.214-.58.321a3.435,3.435,0,0,1-.58.28.634.634,0,0,1-.46.06.75.75,0,0,1-.34-.18.347.347,0,0,1-.1-.3C-2212.9,2601.967-2212.8,2601.866-2212.614,2601.786Z" fill="#333"/>
        <path id="パス_1618" data-name="パス 1618" d="M-2194.462,2601.786q.481-.238,1.22-.619c.493-.254,1.021-.5,1.58-.74s1.1-.467,1.62-.681.953-.385,1.3-.519q.281-.12,1-.361c.481-.16.986-.3,1.521-.439a11.48,11.48,0,0,1,1.5-.28,1.636,1.636,0,0,1,1.019.12c.32.294.38.559.181.8a1.234,1.234,0,0,1-.74.44l-1.8.2a4.247,4.247,0,0,0-.941.381c-.254.147-.54.326-.86.54-.134.107-.366.326-.7.659s-.66.7-.981,1.08a6.432,6.432,0,0,0-.76,1.121q-.279.54,0,.78a.9.9,0,0,0,.781.08,6.246,6.246,0,0,0,1.1-.36q.56-.242,1.04-.5a5.858,5.858,0,0,0,.64-.38,8.647,8.647,0,0,0,1.88-1.52.528.528,0,0,1,.78-.1.675.675,0,0,1,.26.82,1.1,1.1,0,0,1-.279.479l-.38.381a1.369,1.369,0,0,0-.3.5c-.106.187-.134.326-.08.42a.388.388,0,0,0,.28.18,4.388,4.388,0,0,0,1.4-.08,15.751,15.751,0,0,0,1.74-.441,17.646,17.646,0,0,0,1.779-.659c.587-.254,1.094-.486,1.521-.7a1.655,1.655,0,0,0,.439-.22,3.528,3.528,0,0,1,.58-.3,1.559,1.559,0,0,1,.58-.12.413.413,0,0,1,.4.241.327.327,0,0,1-.021.44,1.421,1.421,0,0,1-.5.34c-.214.094-.427.18-.64.26s-.374.147-.48.2q-.68.321-1.359.62t-1.4.62q-.48.2-1.04.48a8.937,8.937,0,0,1-1.16.48,6.452,6.452,0,0,1-1.22.279,2.3,2.3,0,0,1-1.139-.119,1.194,1.194,0,0,1-.8-.78,2.073,2.073,0,0,1,.04-1.061l-1.079.641q-.681.4-1.421.819a3.853,3.853,0,0,1-1.54.5,2.085,2.085,0,0,1-1.279-.319,1.323,1.323,0,0,1-.6-1.12,2.362,2.362,0,0,1,.32-1.021,8.755,8.755,0,0,1,.821-1.279,9.681,9.681,0,0,1,1.1-1.221,5.66,5.66,0,0,1,1.12-.84,7.748,7.748,0,0,0-.9.361c-.413.186-.88.414-1.4.68s-1.068.54-1.641.82-1.1.54-1.579.78a.485.485,0,0,1-.4.06.545.545,0,0,1-.3-.2.439.439,0,0,1-.08-.319A.4.4,0,0,1-2194.462,2601.786Z" fill="#333"/>
        <path id="パス_1619" data-name="パス 1619" d="M-2176.882,2601.746a25.69,25.69,0,0,0,2.4-1.239q1.158-.68,2.319-1.48a21.58,21.58,0,0,1,1.24-2.161q.68-1.038,1.321-2.04.68-.918,1.359-1.859t1.4-1.86q.6-.8,1.3-1.62a6.007,6.007,0,0,1,1.62-1.34,3.316,3.316,0,0,1,1.08-.34.746.746,0,0,1,.88.58,1.271,1.271,0,0,1,.021.859,3.575,3.575,0,0,1-.421.841,9.169,9.169,0,0,1-.6.8c-.214.254-.386.474-.519.66a32.234,32.234,0,0,1-3.58,4.26,37.438,37.438,0,0,1-4.261,3.66c-.134.319-.286.66-.46,1.02a9.672,9.672,0,0,0-.46,1.14,6.393,6.393,0,0,0-.279,1.18,3,3,0,0,0,.04,1.1c.293-.052.559-.092.8-.12.212-.025.413-.046.6-.059a1.168,1.168,0,0,0,.361-.06,18.326,18.326,0,0,0,2.359-.64q1.159-.4,2.28-.88a3.286,3.286,0,0,0,.76-.321.725.725,0,0,1,.761-.04q.439.321.12.58a2.56,2.56,0,0,1-.6.38l-4.639,1.721c-.455.16-.894.326-1.321.5a4.145,4.145,0,0,1-1.32.3,1.3,1.3,0,0,1-.96-.18,1.353,1.353,0,0,1-.5-.681,2.28,2.28,0,0,1-.1-.919,5.066,5.066,0,0,1,.161-.94,13.836,13.836,0,0,1,.719-1.92,31.106,31.106,0,0,1-3.439,1.96.62.62,0,0,1-.66-.261C-2177.275,2602.1-2177.2,2601.906-2176.882,2601.746Zm8.121-5.479a31.124,31.124,0,0,0,3.439-3.8,13.591,13.591,0,0,0,1.36-1.92,4.719,4.719,0,0,1,.241-.5,5.27,5.27,0,0,0,.28-.62,4.271,4.271,0,0,0-1.061.76c-.334.32-.606.587-.82.8a21.5,21.5,0,0,0-1.72,1.94q-.8,1.02-1.6,2.1-.441.639-.84,1.259t-.761,1.261c.24-.186.486-.393.74-.62S-2169,2596.481-2168.761,2596.267Z" fill="#333"/>
        <path id="パス_1620" data-name="パス 1620" d="M-2149,2593.947a27.581,27.581,0,0,1,3.68-2.741q1.961-1.218,3.96-2.259,1.4-.72,2.88-1.36a29.124,29.124,0,0,1,3.04-1.12l.4-.48q.72-.759,1.54-1.48a5.734,5.734,0,0,1,1.78-1.08,5.129,5.129,0,0,1,.7-.16,3.294,3.294,0,0,1,.88-.04,1.3,1.3,0,0,1,.7.26c.186.147.226.393.12.74a.6.6,0,0,1-.36.4.788.788,0,0,1-.6,0,1.232,1.232,0,0,0-.76-.08,3.076,3.076,0,0,0-.82.3,5.057,5.057,0,0,0-.82.54c-.267.214-.507.4-.72.56a17.5,17.5,0,0,1,2.12-.2,9.159,9.159,0,0,1,2.18.181,5.523,5.523,0,0,1,1.94.8,3.743,3.743,0,0,1,1.359,1.66,2.358,2.358,0,0,1,.061,1.92,5.239,5.239,0,0,1-1.16,1.7,10.964,10.964,0,0,1-1.72,1.4q-.94.623-1.66,1.021-1.68,1.04-3.42,1.92t-3.54,1.68a25.477,25.477,0,0,1,3.62-.46,7.112,7.112,0,0,1,3.34.58,2.813,2.813,0,0,1,1.32,1.02,2.945,2.945,0,0,1,.5,1.42,3.49,3.49,0,0,1-.24,1.54,3.928,3.928,0,0,1-.9,1.38,9.453,9.453,0,0,1-3.56,2.22,41.8,41.8,0,0,1-4.04,1.22,42.479,42.479,0,0,1-7.08,1.32,2.209,2.209,0,0,0,.6.92.641.641,0,0,1,.28.559.612.612,0,0,1-.28.441.922.922,0,0,1-.58.139.853.853,0,0,1-.62-.379,3.126,3.126,0,0,1-.44-.76,7.99,7.99,0,0,1-.28-.84,19.582,19.582,0,0,1-2.241.12,14.805,14.805,0,0,1-2.239-.16c-.214-.027-.5-.068-.86-.12a6.379,6.379,0,0,1-1.08-.26,3,3,0,0,1-.92-.48.91.91,0,0,1-.38-.741c0-.346.093-.553.28-.619a.841.841,0,0,1,.62.04,4.967,4.967,0,0,1,.7.36,4.084,4.084,0,0,0,.56.3,8.571,8.571,0,0,0,2.319.481q1.2.079,2.4.08h.72a9.922,9.922,0,0,1,.419-3.08q.46-1.56.9-2.72l.2-.6c-.187.08-.374.154-.56.22s-.387.126-.6.18h-.04a1.206,1.206,0,0,1-.74-.061c-.2-.092-.286-.3-.26-.619a.591.591,0,0,1,.26-.48,2.518,2.518,0,0,1,.62-.34,4.438,4.438,0,0,1,.78-.22c.28-.054.526-.106.74-.16l.52-.12q.679-1.56,1.46-3.04t1.66-2.92q.839-1.4,1.72-2.78t1.88-2.66q-1.121.439-2.16.919t-1.96.96a26.39,26.39,0,0,0-2.86,1.621,26.775,26.775,0,0,0-2.66,1.98,3.612,3.612,0,0,0-.46.46c-.174.2-.354.4-.54.6a4.15,4.15,0,0,1-.58.52.784.784,0,0,1-.58.18.652.652,0,0,1-.62-.481A.7.7,0,0,1-2149,2593.947Zm4.68,11.68a4.766,4.766,0,0,0-.12,1.68q1.839-.162,3.66-.481a27.519,27.519,0,0,0,3.58-.879q.879-.242,1.92-.581a15.592,15.592,0,0,0,2.02-.819,11.75,11.75,0,0,0,1.82-1.1,4.729,4.729,0,0,0,1.32-1.46,1.656,1.656,0,0,0,.24-1.661,2.351,2.351,0,0,0-1.16-.96,6.69,6.69,0,0,0-1.78-.46,13.782,13.782,0,0,0-1.62-.12q-1.641.081-3.361.3a26.928,26.928,0,0,0-3.4.659l-1.76.681h-.04a21.2,21.2,0,0,0-.86,2.56A15.582,15.582,0,0,0-2144.322,2605.627Zm7.96-16.52q-1.4,1.8-2.62,3.7a41.538,41.538,0,0,0-2.22,3.9q-.321.561-.6,1.12t-.519,1.121q2.239-.759,4.42-1.72t4.26-2.04a29.394,29.394,0,0,0,2.62-1.481,18.135,18.135,0,0,0,2.38-1.8,12.989,12.989,0,0,0,1.02-1.059,2.4,2.4,0,0,0,.62-1.3,1.108,1.108,0,0,0-.14-.681,2.217,2.217,0,0,0-.48-.58,4.435,4.435,0,0,0-.64-.46,5.876,5.876,0,0,0-.62-.319,7.38,7.38,0,0,0-2.961-.52,13.4,13.4,0,0,0-3.079.44q-.4.4-.76.819T-2136.362,2589.107Z" fill="#333"/>
        <path id="パス_1621" data-name="パス 1621" d="M-2127.011,2601.746a25.686,25.686,0,0,0,2.4-1.239q1.158-.68,2.319-1.48a21.58,21.58,0,0,1,1.24-2.161q.681-1.038,1.321-2.04.679-.918,1.359-1.859t1.4-1.86q.6-.8,1.3-1.62a6,6,0,0,1,1.62-1.34,3.312,3.312,0,0,1,1.081-.34.745.745,0,0,1,.879.58,1.269,1.269,0,0,1,.021.859,3.537,3.537,0,0,1-.421.841,9.123,9.123,0,0,1-.6.8q-.319.381-.519.66a32.233,32.233,0,0,1-3.58,4.26,37.354,37.354,0,0,1-4.261,3.66c-.134.319-.286.66-.46,1.02a9.673,9.673,0,0,0-.46,1.14,6.492,6.492,0,0,0-.279,1.18,3,3,0,0,0,.04,1.1c.293-.052.559-.092.8-.12.213-.025.413-.046.6-.059a1.166,1.166,0,0,0,.361-.06,18.276,18.276,0,0,0,2.359-.64q1.159-.4,2.28-.88a3.29,3.29,0,0,0,.76-.321.725.725,0,0,1,.761-.04q.439.321.12.58a2.554,2.554,0,0,1-.6.38l-4.639,1.721q-.681.24-1.321.5a4.144,4.144,0,0,1-1.32.3,1.3,1.3,0,0,1-.96-.18,1.353,1.353,0,0,1-.5-.681,2.276,2.276,0,0,1-.1-.919,5.169,5.169,0,0,1,.161-.94,13.836,13.836,0,0,1,.719-1.92,31.106,31.106,0,0,1-3.439,1.96.621.621,0,0,1-.66-.261C-2127.4,2602.1-2127.331,2601.906-2127.011,2601.746Zm8.121-5.479a31.045,31.045,0,0,0,3.439-3.8,13.511,13.511,0,0,0,1.36-1.92,4.768,4.768,0,0,1,.241-.5,5.191,5.191,0,0,0,.28-.62,4.271,4.271,0,0,0-1.061.76c-.334.32-.606.587-.82.8a21.653,21.653,0,0,0-1.72,1.94q-.8,1.02-1.6,2.1-.441.639-.84,1.259t-.761,1.261q.36-.279.74-.62C-2119.378,2596.7-2119.131,2596.481-2118.89,2596.267Z" fill="#333"/>
        <path id="パス_1622" data-name="パス 1622" d="M-2115.315,2601.746q.719-.359,1.5-.8a13.192,13.192,0,0,1,1.58-.76,4.082,4.082,0,0,1,1.479-1.5,6.073,6.073,0,0,1,2.04-.781,5.418,5.418,0,0,1,1.3,0,1.587,1.587,0,0,1,1.14.6.627.627,0,0,1,.139.68,1.862,1.862,0,0,1-.479.679,4.731,4.731,0,0,1-.761.581c-.279.173-.486.3-.619.379a5.725,5.725,0,0,1-1.58.661,5.085,5.085,0,0,1-1.74.14h-.16a2.25,2.25,0,0,0,.719,1.36,3.5,3.5,0,0,0,1.321.7,4.779,4.779,0,0,0,1.58.179,11.958,11.958,0,0,0,1.5-.16,17.766,17.766,0,0,0,1.88-.5,17.006,17.006,0,0,0,1.8-.7c.267-.134.54-.261.821-.38a8.352,8.352,0,0,0,.78-.381.771.771,0,0,1,.58.08c.2.108.22.281.06.521a1.022,1.022,0,0,1-.56.439c-.24.08-.454.161-.641.241l-2,.879a34.088,34.088,0,0,1-3.639,1.2,6.024,6.024,0,0,1-1.62.1,4.667,4.667,0,0,1-1.52-.359,3.972,3.972,0,0,1-1.261-.86,3.173,3.173,0,0,1-.8-1.44c-.054-.214-.1-.427-.14-.641a1.28,1.28,0,0,1,.02-.6,7.657,7.657,0,0,0-.86.46l-.74.46a2.837,2.837,0,0,0-.521.3.538.538,0,0,1-.639.02.458.458,0,0,1-.22-.44A.372.372,0,0,1-2115.315,2601.746Zm4.08-1.119a4.6,4.6,0,0,0,1.859-.48,5.806,5.806,0,0,0,1.58-1.12,2.266,2.266,0,0,0-1.1-.121,3.138,3.138,0,0,0-1,.321,3.117,3.117,0,0,0-.821.62A2.515,2.515,0,0,0-2111.235,2600.627Z" fill="#333"/>
        <path id="パス_1623" data-name="パス 1623" d="M-2101.251,2601.786q.439-.238,1.521-.819t2.219-1.1a10.152,10.152,0,0,1,2.1-.719q.961-.2,1.2.32a.788.788,0,0,1-.1.779,3.3,3.3,0,0,0-.38.7l-.481,1.12a10.071,10.071,0,0,1,1.04-.56l1.04-.48q1.281-.681,2.64-1.44a12.91,12.91,0,0,1,2.761-1.16,1.976,1.976,0,0,1,.92-.021,1.166,1.166,0,0,1,.619.361,1.021,1.021,0,0,1,.221.68,1.65,1.65,0,0,1-.321.9,6.6,6.6,0,0,1-.78,1c-.279.294-.566.613-.859.96a2.512,2.512,0,0,1-.281.32c-.133.134-.273.286-.42.46s-.28.347-.4.52a1.294,1.294,0,0,0-.22.46,1.539,1.539,0,0,0,.7,0,6.3,6.3,0,0,0,.84-.22c.281-.094.546-.193.8-.3s.446-.186.58-.24l1.64-.72c.106-.054.247-.134.421-.24s.352-.206.54-.3.366-.181.539-.261a1.071,1.071,0,0,1,.421-.119.317.317,0,0,1,.359.36.627.627,0,0,1-.319.56c-.24.134-.494.26-.761.38l-.84.38c-.374.214-.733.4-1.08.559s-.707.334-1.08.521q-.321.159-1.019.46a7.06,7.06,0,0,1-1.4.439,2.309,2.309,0,0,1-1.22-.04q-.519-.178-.52-.979a1.324,1.324,0,0,1,.2-.72,4.893,4.893,0,0,1,.46-.62,7.407,7.407,0,0,1,.561-.58c.2-.187.379-.36.54-.521a8.876,8.876,0,0,0,.8-.839,3.239,3.239,0,0,0,.72-1.2,8.366,8.366,0,0,0-2.18.561q-1.1.441-2.02.92-1.159.561-2.4,1.26a9.268,9.268,0,0,0-2.161,1.66.772.772,0,0,1-.42.179.743.743,0,0,1-.419-.08.635.635,0,0,1-.3-.3.742.742,0,0,1-.021-.52,1.25,1.25,0,0,1,.6-.641,7.4,7.4,0,0,0,.4-.739,2.383,2.383,0,0,1,.281-.5c.052-.186.106-.381.16-.58a5.093,5.093,0,0,0,.12-.62c-.294.08-.587.174-.881.279s-.52.188-.68.241c-.374.16-.747.314-1.12.459s-.747.315-1.12.5c-.214.108-.406.214-.58.321a3.408,3.408,0,0,1-.58.28.633.633,0,0,1-.46.06.749.749,0,0,1-.34-.18.35.35,0,0,1-.1-.3C-2101.537,2601.967-2101.437,2601.866-2101.251,2601.786Z" fill="#333"/>
        <path id="パス_1624" data-name="パス 1624" d="M-2083.022,2601.746a12.346,12.346,0,0,0,1.979-.88q.94-.517,1.941-.96a8.085,8.085,0,0,1,1.32-.519l1.359-.4a5.17,5.17,0,0,1,1.721-.281.727.727,0,0,1,.6.321.579.579,0,0,1,.04.679.687.687,0,0,1-.361.341,1.69,1.69,0,0,1-.54.12c-.2.014-.4.02-.6.02h-.54a2.913,2.913,0,0,0-1.14.34,5.88,5.88,0,0,0-1.1.74,5.191,5.191,0,0,0-1.24,1.28c-.026.054-.086.167-.179.34s-.18.353-.26.54a3.37,3.37,0,0,0-.18.52.358.358,0,0,0,.06.36.389.389,0,0,0,.38.059,2.091,2.091,0,0,0,.52-.2c.173-.094.333-.186.48-.28s.246-.153.3-.181a14.914,14.914,0,0,0,1.281-.84q.6-.439,1.24-.879l1.88-1.68q.68-1.4,1.44-2.78t1.56-2.741l1.12-1.839q.559-.921,1.2-1.84.6-.84,1.319-1.741a5.026,5.026,0,0,1,1.681-1.379c.186-.053.366-.107.54-.161a.953.953,0,0,1,.54,0,1.051,1.051,0,0,1,.64.321.967.967,0,0,1,.219.58,2.267,2.267,0,0,1-.08.72,2.725,2.725,0,0,1-.259.66,16.839,16.839,0,0,1-1.54,2.2q-.861,1.04-1.741,2.08-1.359,1.641-2.739,3.18t-2.9,2.98q-.2.559-.38,1.08c-.12.347-.247.706-.38,1.079-.054.134-.114.294-.181.481s-.133.386-.2.6a5.6,5.6,0,0,0-.16.641,1.434,1.434,0,0,0-.021.52,4.873,4.873,0,0,0,1.46-.32c.494-.186.953-.374,1.38-.56a20.263,20.263,0,0,0,2.261-1.06q1.14-.62,2.18-1.181a.746.746,0,0,1,.34-.1,1.365,1.365,0,0,1,.4.019.266.266,0,0,1,.22.2.651.651,0,0,1-.12.44,1.117,1.117,0,0,1-.6.46c-.268.094-.494.18-.681.26q-1.119.561-2.239,1.16t-2.2,1.2c-.214.106-.454.232-.72.38a6.148,6.148,0,0,1-.841.38,2.518,2.518,0,0,1-.859.16,1.379,1.379,0,0,1-.78-.24,1.222,1.222,0,0,1-.46-.68,2.294,2.294,0,0,1-.04-.86,4.626,4.626,0,0,1,.2-.88c.093-.28.179-.527.26-.74.026-.107.053-.207.08-.3a3.414,3.414,0,0,1,.12-.34l-2,1.72q-.321.32-.72.66a5.557,5.557,0,0,1-.86.6,3.693,3.693,0,0,1-.941.38,1.954,1.954,0,0,1-.96,0,1.332,1.332,0,0,1-.979-.759,1.74,1.74,0,0,1,.04-1.161,4.984,4.984,0,0,1,.7-1.3,10.123,10.123,0,0,1,1.04-1.22l-1,.4c-.268.133-.587.314-.96.539a2.387,2.387,0,0,1-1,.381.393.393,0,0,1-.4.02.521.521,0,0,1-.22-.26.591.591,0,0,1-.021-.34A.378.378,0,0,1-2083.022,2601.746Zm11.36-3.92q1.038-1.078,2.04-2.219t1.92-2.34q.4-.56.8-1.1t.76-1.14a8.436,8.436,0,0,1,.46-.76,2.694,2.694,0,0,0,.42-.96,2.506,2.506,0,0,0-1.041.76q-.479.561-.759.88a24.859,24.859,0,0,0-1.72,2.08q-.8,1.078-1.521,2.24l-1.6,2.8Z" fill="#333"/>
      </g>
    </g>
    <path id="パス_1625" data-name="パス 1625" d="M-2484.055,2549.5v-39.973h24.823v-7.087h-31.91V2614.1h31.91v-7.087h-24.823V2549.5Z" fill="none" stroke="#333" stroke-miterlimit="10" stroke-width="0.3"/>
    <path id="パス_1626" data-name="パス 1626" d="M-1848.228,2567.037v39.972h-24.823v7.087h31.91V2502.436h-31.91v7.087h24.823v57.515Z" fill="none" stroke="#333" stroke-miterlimit="10" stroke-width="0.3"/>
  </g>
</svg>
