<svg id="lineup_kamairi_howto_sp" xmlns="http://www.w3.org/2000/svg" width="594" height="55" viewBox="0 0 594 55">
  <rect id="長方形_46" data-name="長方形 46" width="594" height="55" fill="#fff100" opacity="0"/>
  <path id="パス_2011" data-name="パス 2011" d="M-4953.182-1216.032c-.6,0-1.08.2-1.16.8-.04.36-.04,5.279-.04,5.879,0,.76,0,.96.4.96.48,0,3.6-1.32,3.879-1.32.08,0,.16,0,.16.08a17.31,17.31,0,0,1-3,2.16c-1.44.88-1.44,1.319-1.44,2.639,0,1.36.12,7.4.12,8.639,0,.64,0,4.319-.08,4.639a2.174,2.174,0,0,1-2,1.36c-.641,0-.92-.2-.92-.96,0-2.08.319-11.158.319-13,0-.16,0-.52-.359-.52a20.314,20.314,0,0,0-3.6,2.2c-.32.6-.36.68-.559.68-.641,0-2.321-3.04-2.321-3.239,0-.241.2-.321.84-.361,1.12-.119,5.32-1.519,5.76-2.119a1.36,1.36,0,0,0,.279-1c.04-1.2.04-4.959.04-6.4,0-.44-.04-1.12-1.119-1.12h-2.48c-.88,0-.959.2-1.52,1.36a10.812,10.812,0,0,1-1.92,3.119c-.039,0-.039-.08-.039-.12,0-.279.879-3.719,1-4.439a35.655,35.655,0,0,0,.681-6.079c0-.16-.08-.88-.08-1.04,0-.239.04-.4.359-.4.241,0,3.04.721,3.04,1.36a12.118,12.118,0,0,1-.84,1.6,31.913,31.913,0,0,0-.919,3.119c0,.36.279.44.559.44h2.12c.72,0,1.119-.32,1.119-1.04,0-1.479-.04-4.079-.12-5.678,0-.4-.2-2.16-.2-2.56,0-.16.04-.36.319-.36.161,0,3.64.72,3.64,1.44,0,.279-.04.36-.64.96-.28.319-.28.52-.36,2.439,0,.56-.04,3.36-.04,3.92,0,.28,0,.839.561.839a1.321,1.321,0,0,0,1.039-.6c.879-1.281.96-1.4,1.28-1.4.519,0,2.68,1.919,2.68,2.479,0,.64-.681.64-2.161.64Zm15.157-3.479c-1.16,0-1.16.68-1.16,1.56,0,5.079,0,5.159,1.12,5.159h3.4a5.278,5.278,0,0,0,1.96-.16c.359-.161,1.319-2,1.719-2,.241,0,3.28,2.16,3.28,2.719,0,.481-.241.481-2.159.481h-14.878c-1.161,0-2.72,0-4.2.079-.28,0-1.439.12-1.639.12-.16,0-.16,0-.441-.319l-.719-.84c-.2-.2-.2-.24-.2-.28s.08-.081.161-.081c.28,0,1.519.121,1.759.121,2.56.12,4.119.16,5.48.16h1.639c1,0,1.121-.56,1.121-1.32,0-.56.04-4.239-.04-4.639a.969.969,0,0,0-1.121-.76c-1.24,0-1.92,0-3.279.04-.4,0-2.08.16-2.4.16-.16,0-.16-.08-.441-.36l-.719-.8c-.161-.16-.2-.24-.2-.28,0-.08.08-.12.16-.12.241,0,1.36.12,1.6.12.481.04,3.359.16,4.919.16.8,0,1.481,0,1.481-1.16,0-.68-.041-2.24-.081-2.879-.04-.28-.2-1.64-.2-1.8s0-.4.281-.4c.119,0,2.559.64,3.2.88.08.04.439.2.439.4,0,.24-.84.96-.92,1.16a17.281,17.281,0,0,0-.119,2.559c0,.6,0,1.24,1.159,1.24h1.72a5.49,5.49,0,0,0,1.96-.12c.319-.16,1.12-1.84,1.439-1.84.241,0,2.88,1.88,2.88,2.48,0,.56-.8.56-2.12.56Zm3.56,14.917c-1.04,0-1.16.36-1.16,2.96,0,1.2.12,6.559.12,7.639,0,3.639-2.8,3.639-3.239,3.639-.76,0-.84-.28-1.04-1-.241-.92-.88-1.28-1.76-1.639-1-.441-1.119-.481-1.119-.641,0-.12.319-.159.439-.159.4,0,2.2.079,2.56.079.8,0,1.6,0,1.6-1.8,0-1.2-.12-7.239-.12-7.479,0-.88,0-1.6-1.119-1.6h-4.68c-1.16,0-2.679,0-4.2.08-.2,0-1.519.12-1.64.12-.16,0-.16,0-.4-.28l-.8-.879a.611.611,0,0,1-.159-.24c0-.08.079-.12.159-.12.281,0,1.561.12,1.8.12,2.56.119,4.079.159,5.44.159h4.439c1.119,0,1.119-.759,1.119-1.239,0-.56-.159-2.96-.159-3.44,0-.12,0-.32.359-.32.2,0,2.56.4,2.68.44.4.08.72.2.72.56,0,.2-.64.88-.72,1.04a5.464,5.464,0,0,0-.16,1.84c0,1.119.72,1.119,1.519,1.119.721,0,1-.319,1.361-.879.24-.4.719-1.08,1.08-1.08.4,0,2.959,1.879,2.959,2.439s-.8.56-2.119.56Zm-13,2.68c.56,0,4.119.92,4.119,3.679,0,1.4-.68,2.2-1.56,2.2-.679,0-.759-.24-1.439-2.44a9.85,9.85,0,0,0-1.36-2.919c-.039-.08-.16-.28-.079-.4C-4947.742-1201.914-4947.583-1201.914-4947.463-1201.914Z" transform="translate(4969.812 1235.893)" fill="#4d4d4d"/>
  <path id="パス_2012" data-name="パス 2012" d="M-4922.716-1210.273c-.16-.16-.16-.24-.16-.28,0-.08.08-.08.12-.08.721,0,4.12.24,4.92.24a1.546,1.546,0,0,0,1.359-.76c.88-.96,1-1.08,1.16-1.08.2,0,2.6,1.4,2.6,2.12a.285.285,0,0,1-.12.24c-.12.12-.84.6-.96.72-.28.2-.28.68-.28,5.079,0,4.879,0,5.239,1.04,6.639,1.719,2.319,3.959,3,11.4,3a86.888,86.888,0,0,0,12.638-.681c.519-.08,3.2-.6,3.239-.6.08,0,.2,0,.2.12a6.157,6.157,0,0,1-.72.8,7.385,7.385,0,0,0-.919,1.439c-.681,1.52-.72,1.64-1.2,1.8-.439.12-4.559.16-5.239.16-3.64,0-9.8-.2-12.357-.52a9.113,9.113,0,0,1-7.039-3.919,21.438,21.438,0,0,0-1.64-2.44c-.32,0-3.48,3.879-4.079,5.079-.641,1.36-.72,1.52-1.12,1.52-.321,0-1.44-1.359-1.72-1.6-.4-.319-.96-.84-.96-1.2,0-.24.24-.28.521-.32,1.039-.2,5.238-2.36,5.478-4.119v-8.879c0-.92-.04-1.52-1.2-1.52-.079,0-1.959.04-3,.12-.12,0-.72.08-.84.08s-.2-.08-.36-.28Zm7.359-6.279c-.84,0-1-.279-2.4-2.839a22.318,22.318,0,0,0-3.879-4.6c-.56-.559-.64-.639-.64-.8,0-.12.12-.2.32-.2a17.127,17.127,0,0,1,4,1.561c2,1.039,3.839,2.6,3.839,5.559A1.265,1.265,0,0,1-4915.357-1216.552Zm2.919,13.6c-.16-.2-.16-.2-.16-.24a.106.106,0,0,1,.12-.12c.2,0,1.08.12,1.321.12.4.04,3.359.16,4.279.16,1.479,0,1.479-.12,1.479-2,0-1.161,0-1.72-1.24-1.72-.439,0-2.839.16-3.079.16-.16,0-.24-.08-.359-.24l-.681-.92c-.12-.2-.16-.2-.16-.28s.08-.08.12-.08c.6,0,3.559.24,4.239.24.96,0,1.08-.48,1.08-1.16a6.516,6.516,0,0,0-.12-1.44c-.04-.12-.319-.92-.319-.96,0-.079.08-.079.239-.079.641,0,3.08.279,3.08,1.2,0,.16-.44.88-.48,1.08a2.287,2.287,0,0,0-.04.56c0,.84.52.84.839.84h2.92c1.04,0,1.24-.36,1.24-1.2,0-.4-.16-2.28-.16-2.679,0-.24.32-.24.48-.24.48,0,2.76.48,2.76.96a14.057,14.057,0,0,1-.6,1.359,3.484,3.484,0,0,0-.08.8c0,.72.12,1,.84,1,1.119,0,1.359-.12,1.76-.68,1-1.4,1.119-1.56,1.479-1.56.76,0,2.52,2.44,2.52,2.64,0,.64-1,.64-1.84.64h-3.52c-.6,0-1.239.16-1.239,1.079,0,2.44,0,2.68,1.239,2.68h1.321c1.639,0,1.8,0,2.319-.68,1-1.4,1.12-1.56,1.479-1.56.76,0,2.52,2.44,2.52,2.64,0,.68-.96.68-1.84.68h-17.436c-1.08,0-2.8,0-4.28.08-.12,0-.96.12-1.04.12-.12,0-.2-.12-.32-.28Zm4.64-15.877c-.76,0-.92.36-.92,1a5.787,5.787,0,0,0,.32,2.4c.28.56.56.56,3.119.56,1.24,0,2.24,0,2.879-1.08.16-.24.761-1.48.92-1.48a.542.542,0,0,1,.24.32c.081.2.241,1.121.281,1.32.04.16.519.88.519,1.04,0,.6-.92,1.48-1.84,1.84a15.216,15.216,0,0,1-4.758.4c-3.6,0-3.68-1.36-3.68-4.959a16.252,16.252,0,0,0-.12-2c0-.12-.2-.68-.2-.84,0-.28.479-.32.6-.32a3.351,3.351,0,0,1,1.6.48,2.6,2.6,0,0,0,1.12.28h1.68c.679,0,1.159-.16,1.159-1.16,0-2.48,0-2.759-1.36-2.759-.959,0-2.839.04-3.959.12-.12,0-.72.079-.839.079-.161,0-.2-.079-.361-.239l-.759-.92c-.2-.2-.2-.2-.2-.281s.12-.08.16-.08c.2,0,1.2.12,1.44.12.52.041,3.76.161,4.479.161s1.04-.04,1.321-.52c.239-.36.479-.76.879-.76.16,0,2.28,1.36,2.28,1.68,0,.16-.04.2-.481.56-.359.319-.359.8-.359,1.4,0,.4.08,2.48.08,2.96a1.451,1.451,0,0,1-1.48,1.6,1.128,1.128,0,0,1-1-.6,1.1,1.1,0,0,0-.96-.319Zm5.639,19.156c0,.28-.081.28-1.04.761-.52.239-2.8,1.719-3.32,1.959a8.115,8.115,0,0,1-3.159,1c-.12,0-.36-.04-.36-.24a28.532,28.532,0,0,1,2.32-1.879,10.094,10.094,0,0,0,2.119-2.8c.32-.72.4-.72.561-.72a1.268,1.268,0,0,1,.359.12C-4904.158-1201.195-4902.159-1200.115-4902.159-1199.675Zm.12-7.118c-1.08,0-1.08.76-1.08,1.6,0,1.84,0,2.16,1.36,2.16h2.4c1.24,0,1.36-.32,1.36-1.52,0-1.76,0-2.239-1.159-2.239Zm6.319-11.719c-.84,0-1.16.081-1.16,1.08,0,2,0,2.48,2.76,2.48,2.039,0,4.519,0,5-1.16.12-.32.519-1.92.719-1.92.161,0,.76,1.52.92,1.76.12.2.88,1,.88,1.24,0,.6-.8,1.24-1.559,1.68-.76.4-1.6.68-4.36.68-6.439,0-6.439-.361-6.439-4,0-.48-.32-2.879-.32-3.039,0-.28.44-.36.68-.36.08,0,1.44.32,1.6.36a4.127,4.127,0,0,0,1.24.16h2.319c.88,0,1.241-.24,1.241-1.16,0-.32,0-2.04-.081-2.4a.966.966,0,0,0-1-.679c-2.4,0-3.959.04-4.159.08-.12,0-1.08.119-1.16.119-.16,0-.2-.079-.36-.239l-.76-.92c-.2-.2-.2-.2-.2-.281s.119-.08.159-.08c.24,0,1.52.12,1.8.12s3.4.161,4.84.161a.913.913,0,0,0,.92-.44c.319-.44.439-.64.839-.64.16,0,2.24,1.32,2.24,1.64,0,.159-.08.2-.52.639-.2.161-.32.44-.32,1.04,0,.48.08,2.88.08,3.44a1.52,1.52,0,0,1-1.6,1.519c-.56,0-.68-.159-.92-.56-.16-.32-.679-.32-.88-.32Zm4.079,21.677a1.215,1.215,0,0,1-1.08,1.2c-.64,0-1-.32-1.6-.84-1.359-1.16-3.679-3.16-4.159-3.519-.24-.2-.679-.48-.679-.6s.16-.2.319-.2a4.645,4.645,0,0,1,1.08.12C-4894.681-1200.195-4891.641-1199.435-4891.641-1196.835Z" transform="translate(4969.812 1235.893)" fill="#4d4d4d"/>
  <path id="パス_2013" data-name="パス 2013" d="M-4854.689-1220.071c0,.36-.159.44-1.759.959a28.877,28.877,0,0,0-2.879,2.281c-1.08.879-1.2,1-1.2,1.279,0,1.24,9.159,5.319,16.318,5.359.2,0,.76.04.76.12s-1.68,1.64-1.88,1.88c-.28.36-.68.8-.959,1.2-.2.24-.361.44-.6.44a56.255,56.255,0,0,1-14.317-6.959c-.64-.48-.92-.64-1.32-.64a2.905,2.905,0,0,0-1.32.6c-7.759,4.959-12.277,6.119-13.838,6.519a23.966,23.966,0,0,1-3.319.64c-.04,0-.16,0-.16-.04a13.107,13.107,0,0,1,1.84-.92c7.4-3.12,14.717-7.959,14.717-8.879,0-.24-1.24-2.079-1.519-2.6-.16-.281-.6-1.6-.76-1.6-.2,0-.24.16-.76,1.52-.04.16-.92,2.559-.92,2.639-.04.96-.08,1.36-.52,1.36a17.484,17.484,0,0,1-2.879-2.44c0-.2.96-.4,1.079-.479a11.745,11.745,0,0,0,3.479-3.64c.161-.28.2-.36.481-.36s.319.08.64.8c.04.08,2,3.56,3.159,3.56.96,0,3.479-3.44,3.88-4.04a15.352,15.352,0,0,1,.679-1.4C-4858.168-1223.151-4854.689-1220.671-4854.689-1220.071Zm-25.035,3.959c2.72-2,7-5.079,8.918-8.438a7.675,7.675,0,0,0,.521-1.4c.04-.16.12-.44.359-.44.36,0,3.68,1.88,3.68,2.6,0,.36-.321.439-.68.519a5.559,5.559,0,0,0-2.28,1.44c-5.6,4.8-11.238,6.879-11.478,6.519C-4880.724-1215.392-4879.884-1215.991-4879.724-1216.112Zm26.075,22.436c2,0,2.16,0,2.76-1,1.04-1.68,1.16-1.88,1.56-1.88s.639.24,3,2.239c.519.481,1.159.96,1.159,1.16,0,.56-.8.56-2.159.56h-25.317c-3.518,0-4.678.08-5.079.08a6.039,6.039,0,0,1-.84.12c-.12,0-.2-.12-.359-.28l-.76-.919c-.16-.161-.16-.2-.16-.24a.106.106,0,0,1,.12-.12c.279,0,1.52.16,1.76.16,1.959.079,3.639.119,5.518.119h7.12c.319,0,.919,0,1.08-.64.119-.519.119-5.039.119-6,0-1.239,0-1.8-1.2-1.8h-3.32c-3.519,0-4.679.04-5.079.08-.12,0-.72.12-.84.12s-.2-.12-.36-.28l-.76-.92a.608.608,0,0,1-.16-.24.106.106,0,0,1,.12-.12c.28,0,1.52.12,1.76.16,1.96.08,3.64.12,5.518.12h3.161c1.159,0,1.159-.68,1.159-1.759,0-2.32,0-2.64-1.28-2.64-.839,0-2.839,0-3.639.12-.08,0-.48.08-.56.08-.16,0-.24-.12-.36-.28l-.76-.92c-.08-.08-.2-.2-.2-.24,0-.08.08-.12.16-.12.28,0,1.52.12,1.76.16,1.96.08,3.6.12,5.479.12h1.959c1.84,0,2.08,0,2.56-.68.721-1.04.8-1.16,1.12-1.16.84,0,2.68,2.08,2.68,2.4,0,.52-.88.52-2.12.52h-2.679c-1.24,0-1.24.32-1.24,3.239,0,.8.24,1.16,1.28,1.16h3.2c1.76,0,2.079,0,2.56-.68,1-1.4,1.08-1.56,1.439-1.56a12.056,12.056,0,0,1,3.36,2.72c0,.6-.8.6-2.16.6h-8.518c-1.28,0-1.28.28-1.28,2.919,0,5.2,0,5.519.879,5.519.561,0,1.321-1.319,1.88-2.279a25.869,25.869,0,0,0,2.4-5.039,3.668,3.668,0,0,1,.36-.92c.44.24,3.359,1.88,3.359,2.36,0,.279-.12.319-.759.439-.521.081-3.04,2.72-3.6,3.2a29.2,29.2,0,0,0-2.2,2.04c0,.2.28.2.48.2Zm-13.317-2.319a1.829,1.829,0,0,1-1.64,2c-.96,0-1.08-.76-1.36-2.28a14.151,14.151,0,0,0-1.72-4.719c-.08-.161-.16-.4-.08-.44C-4871.566-1201.634-4866.966-1199.355-4866.966-1195.995Zm8.559-29.475c1.719,0,11.357,1.839,11.357,5.519,0,1.52-1.119,1.52-1.279,1.52-.76,0-1.161-.4-2.2-1.4a36.882,36.882,0,0,0-7.919-5.28c-.12-.079-.28-.2-.24-.279C-4858.688-1225.47-4858.488-1225.47-4858.407-1225.47Z" transform="translate(4969.812 1235.893)" fill="#4d4d4d"/>
  <path id="パス_2014" data-name="パス 2014" d="M-4839.919-1190.636a5.24,5.24,0,0,1,.84-.92c4.079-4.159,6.678-8.518,6.678-23.836,0-2.359,0-7.6-.56-9.6a8.8,8.8,0,0,1-.48-1.319c0-.2.281-.24.4-.24a22.587,22.587,0,0,1,3.039.76c1.04.28,1.4.4,1.4.96,0,.36-.08.4-.68.96a1.5,1.5,0,0,0-.439,1.119v9.6c0,.08.04.481.279.481.481,0,2.44-2.96,2.44-5.279,0-.2,0-.561.4-.561.28,0,3.159,1.76,3.159,2.48,0,.28-.08.32-.88.88-.279.2-4.838,3.959-4.878,4a3.908,3.908,0,0,0-.68,2,34.961,34.961,0,0,1-.521,4.2c0,.159-.039.359-.039.559a1.574,1.574,0,0,0,.6,1.28c2.2,1.68,5.719,5.239,5.719,7.639,0,.4-.08,2.079-1.48,2.079-.8,0-.88-.24-1.76-2.479-.6-1.6-2.559-6.4-3.279-6.4-.28,0-.32.08-.84,1.679-1.8,5.32-4.8,7.6-7.6,9.759-.08.04-.561.44-.6.44A.257.257,0,0,1-4839.919-1190.636Zm3.679-22.6a13.754,13.754,0,0,0,1.04-3.6c.08-.521.08-.681.24-.681.519,0,.519,2.44.519,2.88,0,1.6-.279,7.8-2.519,7.8a1.533,1.533,0,0,1-1.36-1.68,3.491,3.491,0,0,1,.121-.8C-4838-1209.992-4836.48-1212.672-4836.24-1213.232Zm14.118,2.879a21.773,21.773,0,0,1-3.4,3.92c-.08,0-.2-.08-.2-.16,0-.12,1-1.84,1.16-2.16,1.879-3.52,3.839-8.279,3.839-10.838,0-1.16,0-1.16.36-1.16.24,0,3.639,1.56,3.639,2.32a.777.777,0,0,1-.359.6,5.125,5.125,0,0,0-.92.679C-4818.043-1217.072-4821.4-1211.353-4822.122-1210.353Zm16.317,3.04c-2.68,6.158-5.68,12.957-15.2,16.837a8.16,8.16,0,0,1-1.72.56.172.172,0,0,1-.159-.16c0-.2.88-.52,1-.6,10.839-6.719,13.478-16.917,13.478-19.557,0-.12-.12-1.04-.12-1.16,0-.24.04-.4.36-.4.28,0,3.84,1.519,3.84,2.239a1.137,1.137,0,0,1-.361.76c-.639.56-.72.6-.84.8C-4805.526-1207.993-4805.765-1207.433-4805.805-1207.313Zm-6.319-12.038c0,1.88.24,10.158.24,11.878,0,2.719,0,3.679-1,4.919a3.809,3.809,0,0,1-2.439,1.439c-.521,0-.6-.2-1-.959-.441-.92-1-1.16-3.16-2.12-.52-.24-.56-.24-.56-.4,0-.2.24-.2.32-.2.4,0,2.239.12,2.6.12,2.159,0,2.239-.319,2.239-1.919,0-1.72.08-9.359.08-10.919a64.355,64.355,0,0,0-.279-6.958c-.04-.28-.4-1.6-.4-1.88,0-.24.12-.36.44-.36a32.865,32.865,0,0,1,3.679.96.889.889,0,0,1,.68.84,1.14,1.14,0,0,1-.6.96,3.527,3.527,0,0,0-.68.8A31.583,31.583,0,0,0-4812.124-1219.351Zm8.6,8.718c-1.16,0-1.319-.52-1.8-2.359a27.587,27.587,0,0,0-3.16-6.719c-.08-.16-.759-1.08-.759-1.16a.183.183,0,0,1,.159-.2c.8,0,7.4,4.479,7.4,8.359A1.919,1.919,0,0,1-4803.526-1210.633Z" transform="translate(4969.812 1235.893)" fill="#4d4d4d"/>
  <path id="パス_2015" data-name="パス 2015" d="M-4781.728-1217.951c-3.4,0-6.6,5.6-6.6,9.838a8.159,8.159,0,0,0,.52,2.959,4.01,4.01,0,0,1,.359,1.52,1.338,1.338,0,0,1-1.439,1.44c-1.84,0-2.72-3.319-2.72-6.479a36.127,36.127,0,0,1,.72-6.359,27.28,27.28,0,0,0,.6-5.119,4.43,4.43,0,0,0-.521-2.48c-.08-.159-.68-.96-.68-1.039a1.618,1.618,0,0,1,1.08-.28,3.093,3.093,0,0,1,3.08,2.679,24.972,24.972,0,0,1-.84,2.96,42.413,42.413,0,0,0-.88,4.959c0,.12,0,.56.32.56.2,0,.44-.48.72-1,.439-.88,3.159-5.919,7.358-5.919,2.48,0,5.159,1.32,5.159,9.719,0,5.638-1.12,12.037-8.718,16.556a10.33,10.33,0,0,1-2.879,1.32c-.08,0-.16-.04-.16-.12,0-.12.08-.2,1-.88,6.558-4.958,7.758-9.6,7.758-17.756C-4778.488-1215.272-4779.287-1217.951-4781.728-1217.951Z" transform="translate(4969.812 1235.893)" fill="#4d4d4d"/>
  <path id="パス_2016" data-name="パス 2016" d="M-4738.6-1221.071c1.68,0,1.84,0,2.159-.28.361-.32,1.6-2,2-2,.32,0,3.6,2.24,3.6,2.8s-.681.56-1.96.56h-26.716c-3.479,0-4.638.08-5.039.12-.12,0-.72.08-.84.08-.16,0-.24-.16-.359-.28l-.761-.92c-.079-.12-.159-.2-.159-.24,0-.08.04-.08.12-.08.279,0,1.52.12,1.759.12,1.96.08,3.6.12,5.479.12h3.68c.08,0,.239,0,.239-.16,0-.12-.239-.68-.279-.88a10.485,10.485,0,0,0-1.2-4.079,3.825,3.825,0,0,1-.359-.6c0-.04.04-.08.119-.08,1.04,0,4.4,2.24,4.4,4.6,0,.24-.2.88-.2,1.04s.159.16.319.16h5.879a.782.782,0,0,0,.84-.48,27.363,27.363,0,0,0,1.2-4.239c0-.12-.12-.64-.12-.72a.327.327,0,0,1,.36-.32c.32,0,3.719,1.16,3.719,1.759,0,.281-.04.281-.84.6-.2.08-1.479,1.279-1.759,1.479-1.52,1.24-1.76,1.44-1.76,1.72,0,.2.28.2.44.2ZM-4764.08-1191a1.624,1.624,0,0,1-1.8-1.52c0-.96.559-1.319,1.88-2.239a10.569,10.569,0,0,0,3.4-4.04c.079-.239.159-.48.239-.48.2,0,.121,1.04.08,1.8C-4760.282-1196.755-4761.161-1191-4764.08-1191Zm4.478-16.837c-.84,0-.84,0-.84,2.519,0,.52.08,2.88.08,3.24a1.814,1.814,0,0,1-1.919,1.879c-.76,0-.919-.279-.919-.96,0-.519.119-3.279.159-4.039.12-2.239.12-2.959.12-9.478,0-.92,0-1.4-.04-1.88,0-.2-.279-1.119-.279-1.319a.283.283,0,0,1,.319-.281,9,9,0,0,1,1.76.64,2.83,2.83,0,0,0,1.28.2h6.358a1.135,1.135,0,0,0,1.04-.479c.4-.64.56-.84.88-.84.2,0,2.6,1.479,2.6,2.079a.68.68,0,0,1-.361.561c-.359.279-.519.4-.559.719-.08.24-.08,7.479-.08,8.4,0,.36.08,2.079.08,2.479a3.656,3.656,0,0,1-3.56,3.96c-.359,0-.479-.04-.639-.6a3.652,3.652,0,0,0-1.68-2.28c-.16-.12-1.16-.4-1.16-.6,0-.119.12-.119.2-.119.16,0,2.12.119,2.48.119,1.28,0,1.559-.08,1.679-.6a23.386,23.386,0,0,0,.08-2.64c0-.679-.479-.679-.8-.679Zm6.279-5.28c.4,0,.8-.04.8-.719,0-2.159,0-2.4-.8-2.4h-6.279c-.4,0-.84,0-.84.68,0,2.2,0,2.439.84,2.439Zm0,4.2c.361,0,.72,0,.8-.48v-2c0-.68-.439-.68-.8-.68h-6.279c-.84,0-.84.241-.84,2.48,0,.68.481.68.84.68Zm2.52,15.918c0,.6-.16,2.079-1.68,2.079-1.679,0-1.679-1.68-1.679-2.56a13.518,13.518,0,0,0-.441-4.319,12.853,12.853,0,0,1-.439-1.36c0-.32,1.88,1.32,2.4,1.96A7.174,7.174,0,0,1-4750.8-1192.995Zm8.719.239c0,1.68-1.2,1.92-1.64,1.92-1.2,0-1.28-.68-1.519-3.039a15.182,15.182,0,0,0-1.321-4.64,2.432,2.432,0,0,1-.28-.6c0-.08.04-.08.08-.08a7.86,7.86,0,0,1,2.72,2.16A7.251,7.251,0,0,1-4742.084-1192.756Zm.2-23.4c0,.161-.6.72-.681.84a1.518,1.518,0,0,0-.159.84c0,1.12.079,6.2.079,7.2a1.6,1.6,0,0,1-1.759,1.679c-.6,0-1.04-.239-1.04-1.119,0-.16.121-1.4.121-1.64v-4.239c0-2.36.08-2.84-.161-3.64,0-.12-.2-.6-.2-.719,0-.241.16-.281.4-.281a8.212,8.212,0,0,1,1.439.2C-4742.084-1216.632-4741.884-1216.592-4741.884-1216.152Zm8.278-.92c0,.241-.04.28-.52.64a1.531,1.531,0,0,0-.36,1.12c0,1.36.04,11.518,0,11.8a3.3,3.3,0,0,1-3.4,3.319c-.72,0-.8-.12-1.4-1.239a8.136,8.136,0,0,0-2.4-1.92c-.08-.04-.359-.16-.359-.28s.16-.12.24-.12c.2,0,1.68.2,1.959.2s.88.04,1.72.04c.88,0,1.04-.32,1.04-1.56v-11.318a2.2,2.2,0,0,0-.28-1.24c-.2-.4-.24-.44-.24-.52,0-.239.32-.279.48-.279a16.622,16.622,0,0,1,1.719.359C-4734.165-1217.751-4733.606-1217.592-4733.606-1217.072Zm1.88,24.716a1.6,1.6,0,0,1-1.639,1.72c-1.481,0-1.76-1.36-1.92-2.08a12.056,12.056,0,0,0-2.52-5.519,7.568,7.568,0,0,1-.8-.839c0-.081.08-.081.12-.081a13.822,13.822,0,0,1,3.28,1.64C-4732.366-1195.515-4731.726-1193.4-4731.726-1192.356Z" transform="translate(4969.812 1235.893)" fill="#4d4d4d"/>
  <path id="パス_2017" data-name="パス 2017" d="M-4698.928-1211.353a35.248,35.248,0,0,0,9.678,3.16c.16,0,.84.12.84.28,0,.12-.56.28-.72.32a6.929,6.929,0,0,0-3.039,2.159c-.12.16-.561,1-.76,1-.24,0-8.919-4.2-12.838-10.6-.761-1.28-.88-1.4-1.16-1.4s-.36.08-1.24,1a47.507,47.507,0,0,1-11.838,9.318c-1.36.72-5.519,2.56-6.278,2.56-.121,0-.2-.08-.2-.12s4.28-2.679,4.639-2.919c5.4-3.4,11.118-9.519,11.679-12.519.04-.319.08-.439.359-.439.2,0,3.44,1.24,3.64,1.359.12.04.519.2.519.6a2.469,2.469,0,0,1-.159.56C-4705.727-1216.432-4702.287-1213.073-4698.928-1211.353Zm-19.277-9.958c-2.959,0-4.32.08-5.079.12-.121,0-.72.08-.84.08s-.2-.08-.36-.24l-.76-.92c-.16-.2-.16-.2-.16-.28s.04-.08.12-.08c.28,0,1.52.12,1.759.12,1.96.08,3.64.16,5.52.16h1.16c.84,0,1.079-.4,1.079-1.079a6.528,6.528,0,0,0-.319-2.12,6.07,6.07,0,0,1-.24-.8c0-.2.2-.28.439-.28.28,0,2.08.44,2.52.56,1.2.32,1.44.4,1.44.76,0,.239-.04.319-.6,1.04a.976.976,0,0,0-.28.719c0,.96.319,1.2,1.4,1.2h6.6c.36,0,1.2,0,1.2-1.079a16.591,16.591,0,0,0-.12-1.8c-.04-.2-.24-1.04-.24-1.2,0-.2.24-.28.44-.28.281,0,3,.64,3.44.76s.68.28.68.64c0,.239-.161.4-.6.72a1.281,1.281,0,0,0-.521,1.12c0,1.119.641,1.119,1.281,1.119h2.04c1.76,0,1.959,0,2.559-.68,1.119-1.319,1.24-1.479,1.6-1.479.239,0,3.719,2.119,3.719,2.639,0,.56-.8.56-2.119.56h-7.8c-1.241,0-1.241.64-1.241,1.6,0,.24.041,1.6.041,1.8,0,1.479-1.2,1.719-2.04,1.719-.919,0-1.08-.16-1.08-1.519v-2.76c-.12-.76-.6-.84-1.24-.84h-6.4c-.92,0-1.48,0-1.48,1.12,0,.4.12,2.159.12,2.52,0,.76-.12,1.119-.48,1.359a2.832,2.832,0,0,1-1.52.56c-.679,0-1-.44-1-1.239,0-.321.04-1.84.04-2.121,0-1.559,0-2.2-1.24-2.2Zm2.84,20.437a20.41,20.41,0,0,1,3.079,1.88.987.987,0,0,1,.32.6c0,.48-.32.56-1.28.8-.12.04-3.559,2.72-4.2,3.2-3.6,2.56-5.878,3.48-6.079,3.48a.127.127,0,0,1-.119-.12c0-.08,2.119-1.919,2.4-2.2,3.319-3.159,5.358-6.318,5.718-7.6A.241.241,0,0,1-4715.365-1200.874Zm1.839-2.12c-3.12,0-4.279.04-5.079.12-.12,0-.72.08-.84.08s-.2-.08-.36-.24l-.76-.92c-.16-.2-.16-.2-.16-.28,0-.04.04-.08.12-.08.281,0,1.52.12,1.76.12,1.96.12,3.64.161,5.519.161h3c.4,0,1.2,0,1.2-1.081,0-.48-.24-3.719-.321-4.119,0-.08-.24-.48-.24-.56s.08-.24.4-.24c.279,0,3.079.6,3.479.72.56.12.76.48.76.68,0,.24-.08.32-.68.84-.56.48-.56.719-.56,1.92,0,1.439,0,1.84,1.2,1.84h1.76c1.759,0,1.959,0,2.559-.681,1.119-1.319,1.239-1.48,1.6-1.48.24,0,3.72,2.161,3.72,2.64,0,.56-.8.56-2.121.56h-7.558c-1.2,0-1.2.72-1.2,2,0,2.839,0,4.439.08,6.8.04.68.04,1.64.04,2.121,0,1.279-.321,2.039-2.04,2.039-.879,0-.959-.72-.959-1.4,0-.52.119-2.92.119-3.439.04-1.52.04-3,.04-4.84a24.489,24.489,0,0,0-.079-2.719c-.2-.56-.84-.56-1.16-.56Zm10.678,3.359c0-.119.2-.159.36-.159,1.48,0,10.6,2.519,10.6,5.839,0,1.279-.72,2.279-1.72,2.279-.759,0-.92-.2-2.159-2.04a19.008,19.008,0,0,0-6.879-5.759C-4702.688-1199.475-4702.848-1199.595-4702.848-1199.635Z" transform="translate(4969.812 1235.893)" fill="#4d4d4d"/>
  <path id="パス_2018" data-name="パス 2018" d="M-4666.443-1219.871c0,.12.079.28.079.44a30.538,30.538,0,0,1,.4,4.319c0,2.68-.6,6.4-4.119,11.718-3.2,4.879-5.24,5.839-6.839,5.839-2.64,0-5-4.119-5-9a14.088,14.088,0,0,1,4.438-10.2,16.551,16.551,0,0,1,12.758-5.2,13.036,13.036,0,0,1,6.44,1.279,12.536,12.536,0,0,1,6.959,11.638,14.916,14.916,0,0,1-10.079,14.078,24.6,24.6,0,0,1-6.639,1.479c-.159,0-.4-.04-.4-.28,0-.119.08-.159,1.08-.56,4.16-1.639,12.838-5.079,12.838-15.037,0-1.559-.16-11.078-11.078-11.078C-4666.4-1220.431-4666.443-1220.111-4666.443-1219.871Zm-13,12.278c0,2.6,1.04,6.159,3.48,6.159,1.159,0,2.119-.48,4.879-4.64,2.119-3.239,3.919-7.678,3.919-11.637,0-2.4-.16-2.6-.68-2.6C-4671.642-1220.311-4679.441-1215.152-4679.441-1207.593Z" transform="translate(4969.812 1235.893)" fill="#4d4d4d"/>
  <path id="パス_2023" data-name="パス 2023" d="M-4485.7-1203.474c-1.04,0-1.04.6-1.04,1.08,0,.96.04,5.079.04,5.919,0,.24,0,.8.64.8.32,0,3.6-1.36,3.959-1.52a.872.872,0,0,0,.561-.72,7.933,7.933,0,0,0-1.281-2.479,8.252,8.252,0,0,1-.8-1.08c0-.04.08-.04.12-.04.759,0,5.879,2.4,5.879,5.679,0,1.12-.56,1.92-1.32,1.92-.719,0-.88-.4-1.519-1.88-.241-.6-.361-.92-.8-.92-.52,0-7.679,4.679-7.958,5.319-.4.8-.441.92-.84.92-.68,0-1.68-3.2-1.68-3.479s.161-.361.44-.361c2.08,0,2.08-.239,2.08-1.959v-12c0-2.76,0-6.839-.64-6.839-.16,0-2.8,2.12-3.04,2.12-.08,0-.12,0-.12-.081,0-.04,1.08-1.4,1.28-1.679a61.331,61.331,0,0,0,6.879-11.118c.2-.76.2-.84.52-.84.24,0,3.119,1.4,3.119,2.24a.6.6,0,0,1-.359.52c-.241.12-.4.2-.4.4s0,.2,1.2.681c.76.279,4.679,1.879,4.679,4.758a1.314,1.314,0,0,1-1.319,1.48c-.4,0-.92-.12-1.68-1.719-.72-1.52-3.159-4.439-3.68-4.439-.319,0-.519.279-.719.559a53.409,53.409,0,0,1-5.28,6.119c-.12.08-.2.16-.2.28s.079.16,1,.64c1.2.6,1.32.68,1.88.68,1.16,0,1.2-.36,1.2-1.2a8.684,8.684,0,0,0-.2-2.4c-.04-.2-.32-.96-.32-1.119,0-.08.08-.2.4-.2s3.4.44,3.4,1.4c0,.121-.441.6-.52.72-.16.321-.16.481-.16,1.64,0,.56,0,1.16.84,1.16.88,0,1,0,1.319-.32.72-.84.96-1.08,1.28-1.08.28,0,2.16,1.16,2.16,1.88,0,.24-.68,1.12-.76,1.32a10.1,10.1,0,0,0-.12,1.959c0,1.08.12,6,.12,6.959,0,.76,0,2.16-1.68,2.16-.88,0-.96-.48-1.04-1.16-.12-.68-.8-.68-1.08-.68Zm4.6-6.239c1.04,0,1.04-.56,1.04-1.44,0-1.92,0-2.319-1.04-2.319h-4.6c-1.04,0-1.04.6-1.04,1.439,0,1.96,0,2.32,1.04,2.32Zm-.08,5.159c1.04,0,1.12,0,1.12-3.159,0-.92-.6-.92-1.04-.92h-4.6c-1.04,0-1.04.36-1.04,1.559,0,2.28,0,2.52,1.04,2.52Zm19-12.158a1.117,1.117,0,0,0,1.2-.64c.56-.92.6-1.039.88-1.039.319,0,3.919,1.919,3.919,2.839,0,.8-.439.84-2.64,1.12a4.682,4.682,0,0,0-2.639,1.279c-.08.04-.48.321-.52.321s-.08,0-.08-.04c0-.2.56-1.84.56-2.2,0-.6-.4-.6-.76-.6h-3.439c-.56,0-1.08.04-1.08,1,0,12.118,9,20.037,9.438,20.4.28.241,1.76,1.281,1.76,1.48,0,.12-.68.24-.72.24a7.058,7.058,0,0,0-2.4.8,3.931,3.931,0,0,1-.88.52c-.8,0-5.44-5.519-7.439-17.277-.04-.12-.12-.64-.24-.64-.16,0-.2.36-.24.76-.6,4.839-2.36,13.038-10.158,16.557a7.523,7.523,0,0,1-2.839.76c-.16,0-.2,0-.2-.12a4.2,4.2,0,0,1,.88-.56c2.12-1.08,6.319-3.239,8.439-10.478a45.141,45.141,0,0,0,1.68-12.118c0-.72,0-1.32-.92-1.32s-1,.12-1.76,1.24a32.615,32.615,0,0,1-3.279,4.2.106.106,0,0,1-.121-.12c0-.24,1.241-2.919,1.48-3.479.88-2.24,3.359-9.038,3.359-11.279,0-1.159,0-1.359.521-1.359.559,0,3.879,1.6,3.879,2.239,0,.321-.12.4-.84.84-.48.32-3.2,6.239-3.2,6.239,0,.44.439.44.679.44Z" transform="translate(4969.812 1235.893)" fill="#4d4d4d"/>
  <path id="パス_2024" data-name="パス 2024" d="M-4436.7-1220.511c-.521,0-2.2,1.439-2.84,2-.52.48-2.04,1.84-3.079,1.84-1.481,0-2.6-2.839-2.6-2.959,0-.24.08-.4.319-.4s1.16.16,1.361.16c1.279,0,1.759-.08,4.159-1.6a6.861,6.861,0,0,1,3.839-1.319c2.639,0,3.239,1.8,3.239,2.4,0,.84-.359,1.319-2.44,3.239a36.374,36.374,0,0,0-5.878,8.119c0,.2.28.24.4.24.52,0,2.76-.04,3.239,0a32.389,32.389,0,0,1,7.559,1.6,1.586,1.586,0,0,0,.639.161c.521,0,.76-3.28.76-3.68,0-.32-.239-2.079-.239-2.239,0-.24.279-.24.439-.24.121,0,3.6.64,3.6,2.2a8.654,8.654,0,0,1-.88,1.559c0,.08-.559,3.279-.559,3.4,0,.52.239.639.92,1,1.559.839,5.2,2.719,5.2,4.8a1.549,1.549,0,0,1-1.481,1.52c-.8,0-1.239-.319-4.039-2.719-.08-.04-1.24-1.04-1.639-1.04-.321,0-.441.28-.56.48a17.259,17.259,0,0,1-7.839,7.4,14.788,14.788,0,0,1-4.319,1.6c-.04,0-.321,0-.321-.121a6.243,6.243,0,0,1,.76-.56c3.96-2.719,5.919-4.319,8.239-7.918a7.367,7.367,0,0,0,1.2-2.28c0-.36,0-.56-2.2-1.639a17.315,17.315,0,0,0-7.359-1.8c-2.479,0-2.559.159-3.239,1.6-3.44,7.319-4.119,8.8-6.639,8.8-2.04,0-2.639-2.2-2.639-3.2,0-3.4,3.559-6.438,7.758-7.918a1.444,1.444,0,0,0,1-.8c.92-1.48,5.919-9.038,6.119-9.4a5.629,5.629,0,0,0,.52-1.8A.514.514,0,0,0-4436.7-1220.511Zm-13.4,19.277c0,.68.32,1.16,1.04,1.16,2.2,0,4.8-5.879,4.8-6.04,0-.12-.04-.2-.16-.2C-4445.858-1206.314-4450.1-1203.594-4450.1-1201.234Z" transform="translate(4969.812 1235.893)" fill="#4d4d4d"/>
  <path id="パス_2025" data-name="パス 2025" d="M-4410.878-1217.192c-.919,0-3.679,0-5.079.08a6.042,6.042,0,0,1-.84.121c-.119,0-.2-.121-.36-.281l-.759-.92c-.16-.159-.16-.2-.16-.239a.106.106,0,0,1,.12-.12c.279,0,1.519.12,1.8.16,1.8.08,3.6.119,5.479.119h7.839c1.16,0,1.16-.519,1.16-2.8a25.191,25.191,0,0,0-.2-3.679c-.04-.241-.28-1.2-.28-1.4,0-.24.28-.24.44-.24s4.239.84,4.239,1.76c0,.4-.08.439-.76,1.079-.52.44-.56,1.48-.56,2.12,0,3,.24,3.159,1.28,3.159h7.959c1.48,0,1.879,0,2.4-.6.239-.36,1.279-2.24,1.679-2.24.6,0,3.8,2.76,3.8,3.32,0,.6-.76.6-2.119.6h-17.957c-.44,0-.6,0-.6.16,0,.28.16.28,1.719.52.6.08,1.76.32,1.76.88,0,.32-1.119,1.32-1.239,1.6a11.041,11.041,0,0,0-.64,2.919c0,.8.84.8,1,.8h8.839a1.9,1.9,0,0,0,1.68-.6,4.718,4.718,0,0,1,.919-.8c.2,0,3.48,2,3.48,2.559,0,.32-1.04,1.24-1.16,1.48-.44.8-.96,4.8-1.119,5.6-1.241,5.719-2.48,7.838-3.72,9.278a7.912,7.912,0,0,1-4.6,2.64c-.479,0-.479-.28-.479-.64,0-1.72-2.08-3-3.32-3.639-.919-.48-1.04-.52-1.04-.64,0-.081.04-.32.4-.32a6.759,6.759,0,0,1,1.639.44,12.083,12.083,0,0,0,3.16.52c1.679,0,3.519-1,4.8-6.279a40.894,40.894,0,0,0,1.041-7.479c0-1.04-.68-1.04-1.28-1.04h-9.4c-1.12,0-1.2.2-1.68,2.28-3.12,13-13.318,15.477-13.838,15.477-.12,0-.36,0-.36-.12,0-.16.48-.44.96-.68a23.707,23.707,0,0,0,8.6-9.638,37.549,37.549,0,0,0,2.92-12.638c0-2.64-.68-2.64-1.48-2.64Z" transform="translate(4969.812 1235.893)" fill="#4d4d4d"/>
  <g id="グループ_541" data-name="グループ 541" transform="translate(5543 46)">
    <path id="パス_2251" data-name="パス 2251" d="M1092.671,1654.331c0,1.3-3,2.49-3.952,2.885-.553.2-.593.356-.671,1.739-.08.87-.08,4.071-.08,4.269,0,.238,0,.713.355.713.119,0,3.36-1.345,3.993-1.582,3.913-1.462,5.691-1.581,6.719-1.581a6.052,6.052,0,0,1,6.088,5.969c0,5.217-5.495,7.59-8.736,7.59-2.253,0-4.071-1.146-4.071-3.2a3.521,3.521,0,0,1,1.976-3.122.213.213,0,0,1,.2.2c0,.119-.08.2-.158.316a1.636,1.636,0,0,0-.355,1.067c0,1.9,2.174,1.9,2.569,1.9,2.61,0,5.93-1.739,5.93-4.9a4.1,4.1,0,0,0-3.794-4.349c-1.108,0-3.558.515-8.184,2.965-2.212,1.186-2.449,1.3-2.449,1.976,0,.435.117,2.214.117,2.609,0,1.818-.593,4.428-2.016,4.428-1.067,0-1.5-.83-1.818-1.462-1.266-2.452-1.462-2.452-1.976-2.452a3.284,3.284,0,0,0-.988.237,7.784,7.784,0,0,1-1.5.791c-.434,0-2.449-1.186-2.449-2.49,0-.711.434-1.541,1.145-1.541.237,0,1.385.2,1.622.2,1.066,0,1.779-.2,4.109-1.344,2.017-.988,2.254-1.107,2.254-2.214,0-.91-.04-4.27-.079-4.942,0-.277-.119-.87-.553-.87a9.244,9.244,0,0,0-1.818.356c-2.017.672-2.213.751-2.807.751-1.343,0-2.844-2.727-2.844-3a.279.279,0,0,1,.315-.277c.119,0,.593.158.711.158a11.49,11.49,0,0,0,1.818.2,17.266,17.266,0,0,0,5.021-1.186,29.573,29.573,0,0,0,.4-4.308,3.882,3.882,0,0,0-1.3-3.163,3.957,3.957,0,0,1-.553-.632c0-.356.633-.435.87-.435,2.648,0,4.072,1.937,4.072,2.688a15.885,15.885,0,0,1-.831,2.056,21.094,21.094,0,0,0-.394,2.569c0,.158.078.435.315.435.277,0,1.385-.435,1.385-.988,0-.079-.2-.474-.2-.553,0-.04.078-.119.157-.158C1090.775,1652.552,1092.671,1653.106,1092.671,1654.331Zm-9.012,15.139c0,.593,1.067,1.858,1.66,1.858.553,0,1.107-1.107,1.107-3.043,0-.158,0-.553-.119-.632C1086.189,1667.651,1083.66,1668.916,1083.66,1669.47Zm25.97-12.293c0,.83-.474,1.9-1.3,1.9-.237,0-1.146-.079-1.344-.079-.2.04-1.028.277-1.187.277a.184.184,0,0,1-.2-.2,2.719,2.719,0,0,1,.119-.316,2.107,2.107,0,0,0,.158-.711c0-1.581-1.976-2.134-3.321-2.134a3.435,3.435,0,0,0-1.542.4.883.883,0,0,1-.4.119c-.119,0-.158-.039-.158-.158a5.057,5.057,0,0,1,4.27-2.49C1107.772,1653.777,1109.629,1655.358,1109.629,1657.177Z" transform="translate(-6292.415 -1679.239)" fill="#4d4d4d"/>
    <path id="パス_2252" data-name="パス 2252" d="M1122.734,1653.718a5.418,5.418,0,0,1-.474,1.581,13.959,13.959,0,0,0-.949,5.1c0,3.993,2.055,6.878,3.28,6.878.673,0,.83-.2,2.016-2.174.237-.4.91-1.344,1.225-1.344.12,0,.2.158.2.316a4.624,4.624,0,0,1-.12.79,11.137,11.137,0,0,0-.514,3,5.373,5.373,0,0,0,.237,1.581,9.787,9.787,0,0,1,.317,1.3c0,.791-.831,1.225-1.5,1.225-2.53,0-7.509-4.15-7.509-11.7,0-1.107.552-5.968.552-7a10.924,10.924,0,0,0-.277-2.294,5.368,5.368,0,0,1-.315-1.344c0-.119.158-.158.237-.158C1120.955,1649.488,1122.734,1652.651,1122.734,1653.718Zm19.289.909a9.834,9.834,0,0,1,3.519,7.55c0,.751-.079,2.609-1.976,2.609-1.937,0-1.937-2.135-1.937-2.648,0-3.281,0-4.942-2.1-7.036-.316-.316-1.9-1.541-1.9-1.778,0-.119.157-.2.355-.2A7.689,7.689,0,0,1,1142.023,1654.627Z" transform="translate(-6288.053 -1678.864)" fill="#4d4d4d"/>
    <path id="パス_2253" data-name="パス 2253" d="M1163.484,1649.5a18.2,18.2,0,0,1-.751,2.214,95.034,95.034,0,0,0-1.66,14.072c0,3.992.751,7.55,6.047,7.55a19.475,19.475,0,0,0,8.3-2.056c.593-.277,3.6-1.937,3.755-1.937a.185.185,0,0,1,.2.2c0,.435-5.851,6.8-13.282,6.8-5.139,0-7.59-2.965-7.59-10.91,0-2.45.08-3.242.909-10.989.159-1.3.514-4.546.514-5.653a4.974,4.974,0,0,0-.355-1.937c-.04-.119-.435-1.028-.435-1.067,0-.277.315-.4.552-.4C1161.745,1645.393,1163.484,1648.594,1163.484,1649.5Z" transform="translate(-6288.934 -1679.393)" fill="#4d4d4d"/>
    <path id="パス_2254" data-name="パス 2254" d="M1194.373,1653.718a5.4,5.4,0,0,1-.475,1.581,13.984,13.984,0,0,0-.949,5.1c0,3.993,2.057,6.878,3.282,6.878.672,0,.83-.2,2.016-2.174.237-.4.909-1.344,1.225-1.344.119,0,.2.158.2.316a4.747,4.747,0,0,1-.12.79,11.093,11.093,0,0,0-.514,3,5.332,5.332,0,0,0,.237,1.581,9.921,9.921,0,0,1,.316,1.3c0,.791-.83,1.225-1.5,1.225-2.53,0-7.51-4.15-7.51-11.7,0-1.107.552-5.968.552-7a11.005,11.005,0,0,0-.277-2.294,5.365,5.365,0,0,1-.315-1.344c0-.119.157-.158.237-.158C1192.594,1649.488,1194.373,1652.651,1194.373,1653.718Zm19.289.909a9.837,9.837,0,0,1,3.518,7.55c0,.751-.078,2.609-1.976,2.609-1.935,0-1.935-2.135-1.935-2.648,0-3.281,0-4.942-2.1-7.036-.316-.316-1.9-1.541-1.9-1.778,0-.119.158-.2.356-.2A7.692,7.692,0,0,1,1213.662,1654.627Z" transform="translate(-6289.793 -1678.864)" fill="#4d4d4d"/>
  </g>
</svg>
