<svg id="lineup_kamairi_graph" xmlns="http://www.w3.org/2000/svg" width="285.778" height="252.306" viewBox="0 0 285.778 252.306">
  <path id="パス_1162" data-name="パス 1162" d="M1175.875,1317.934l-63.144-65.62-41.059,73.318v71.429l59.086,29.8,72.3,43.519-24.526-99.841,65.586-44.9Z" transform="translate(-1015.211 -1235.16)" fill="#dbdfb8"/>
  <path id="パス_1163" data-name="パス 1163" d="M1193.608,1275.124h-71.429l-50.508,50.508v71.429l50.508,50.508h71.429l50.508-50.508v-71.429Z" transform="translate(-1015.211 -1235.16)" fill="none" stroke="#999" stroke-miterlimit="10" stroke-width="0.5"/>
  <path id="パス_1164" data-name="パス 1164" d="M1185.03,1295.833h-54.273l-38.377,38.377v54.273l38.377,38.377h54.273l38.377-38.377v-54.273Z" transform="translate(-1015.211 -1235.16)" fill="none" stroke="#999" stroke-miterlimit="10" stroke-width="0.5"/>
  <path id="パス_1165" data-name="パス 1165" d="M1175.875,1317.934h-35.964l-25.43,25.43v35.963l25.43,25.43h35.964l25.43-25.43v-35.963Z" transform="translate(-1015.211 -1235.16)" fill="none" stroke="#999" stroke-miterlimit="10" stroke-width="0.5"/>
  <path id="パス_1166" data-name="パス 1166" d="M1167.092,1339.14h-18.4l-13.008,13.008v18.4l13.008,13.008h18.4l13.008-13.008v-18.4Z" transform="translate(-1015.211 -1235.16)" fill="none" stroke="#999" stroke-miterlimit="10" stroke-width="0.5"/>
  <g id="グループ_239" data-name="グループ 239" transform="translate(-1015.211 -1235.16)">
    <path id="パス_1167" data-name="パス 1167" d="M1097.585,1238.85c0,.33.089.405.495.495a25.651,25.651,0,0,0,3.675.12c3.794,0,4.364-.03,4.649-.3a3.276,3.276,0,0,0,.436-1.815,3.585,3.585,0,0,0,.914.405,3.8,3.8,0,0,1-.705,2.13c-.435.405-.945.45-5.985.45a16.062,16.062,0,0,1-3.795-.225c-.479-.15-.63-.39-.63-1.02v-2.52a6.5,6.5,0,0,0-.09-1.29h1.125a5.036,5.036,0,0,0-.089,1.23v.7c1.529-.165,2.654-.33,3.854-.57a19.13,19.13,0,0,0,4.6-1.305l.735.9c-2.774.78-2.774.78-4.08,1.05-1.875.36-3.135.555-5.114.765Zm6.96,2.82a13.935,13.935,0,0,0,1.814-.075,13.8,13.8,0,0,0-.075,1.83v3.224a13.122,13.122,0,0,0,.09,1.86h-1.034v-.705h-7.186v.705h-1.019a13.164,13.164,0,0,0,.089-1.86v-3.224c0-.84-.03-1.335-.075-1.83a13.147,13.147,0,0,0,1.8.075Zm-6.391,2.565h7.186v-1.725h-7.186Zm0,2.729h7.186v-1.9h-7.186Z" fill="#4d4d4d"/>
    <path id="パス_1168" data-name="パス 1168" d="M1111.275,1246.484a11.978,11.978,0,0,0,.09-1.619v-7.02c0-.615-.029-1.11-.06-1.455a9.17,9.17,0,0,0,1.23.06h1.335a9.675,9.675,0,0,0,1.261-.06,12.685,12.685,0,0,0-.045,1.4v6.21a16.39,16.39,0,0,0,.059,1.65h-.96v-.78h-1.905v1.619Zm1.005-2.46h1.905v-6.7h-1.905Zm9.855-6.449a10.427,10.427,0,0,0,1.575-.09v1.035a11.826,11.826,0,0,0-1.59-.09h-1.965v2.535h2.535a11.959,11.959,0,0,0,1.71-.09v1.035a11.726,11.726,0,0,0-1.7-.09h-2.295a11.775,11.775,0,0,0,1.65,2.49,12.13,12.13,0,0,0,2.82,2.295,3.883,3.883,0,0,0-.645.929,16.552,16.552,0,0,1-2.415-2.2,10.093,10.093,0,0,1-1.725-2.79c.045.555.06.975.06,1.65v2.939a10.459,10.459,0,0,0,.09,1.59h-1.08a12.328,12.328,0,0,0,.09-1.59v-2.939c0-.57,0-.765.06-1.65a12.24,12.24,0,0,1-4.559,5.19,3.36,3.36,0,0,0-.721-.736,13.091,13.091,0,0,0,4.965-5.174h-2.1a8.628,8.628,0,0,0-1.44.075v-1.005a8.74,8.74,0,0,0,1.455.075h2.34v-2.535h-1.68a11.95,11.95,0,0,0-1.545.075V1237.5a14.746,14.746,0,0,0,1.545.075h1.68v-1.2a6.5,6.5,0,0,0-.075-1.215h1.05a6.8,6.8,0,0,0-.075,1.215v1.2Z" fill="#4d4d4d"/>
  </g>
  <g id="グループ_240" data-name="グループ 240" transform="translate(-1015.211 -1235.16)">
    <path id="パス_1169" data-name="パス 1169" d="M1194.24,1236.255a6.331,6.331,0,0,0-.091-1.08h1.1a6.191,6.191,0,0,0-.091,1.08v.48h3.6v-.48a6.535,6.535,0,0,0-.09-1.08h1.095a6.071,6.071,0,0,0-.09,1.08v.48h2.324a11.93,11.93,0,0,0,1.68-.09v1.035a12.35,12.35,0,0,0-1.68-.075h-2.324v.405a5.234,5.234,0,0,0,.074.975h-1.05a6.661,6.661,0,0,0,.061-.975v-.405h-3.6v.405a6.621,6.621,0,0,0,.061.99h-1.05a6.352,6.352,0,0,0,.075-.99v-.405h-2.176a12.1,12.1,0,0,0-1.664.075v-1.035a11.96,11.96,0,0,0,1.664.09h2.176Zm6.555,7.17a.77.77,0,1,1,1.019,1.14v2.8a9.768,9.768,0,0,0,.09,1.365h-1.05v-.855h-7.5v.855h-1.05a10.081,10.081,0,0,0,.09-1.365v-2.8a7.46,7.46,0,0,0-.074-1.2,7.216,7.216,0,0,0,1.1.06h3.014v-2.01h-4.319a15.75,15.75,0,0,0-1.695.075v-1.05a11.838,11.838,0,0,0,1.695.09h4.319v-.855a5.262,5.262,0,0,0-.089-1.215h1.109a6.708,6.708,0,0,0-.09,1.215v.855h4.606a11.845,11.845,0,0,0,1.694-.09v1.05a16.18,16.18,0,0,0-1.694-.075h-4.606v2.01Zm-7.441,3.569h7.5v-2.714h-7.5Z" fill="#4d4d4d"/>
    <path id="パス_1170" data-name="パス 1170" d="M1206.889,1246.484a12,12,0,0,0,.09-1.619v-7.02c0-.615-.029-1.11-.059-1.455a9.144,9.144,0,0,0,1.229.06h1.335a9.675,9.675,0,0,0,1.261-.06,12.939,12.939,0,0,0-.045,1.4v6.21a16.338,16.338,0,0,0,.06,1.65h-.961v-.78h-1.9v1.619Zm1.005-2.46h1.9v-6.7h-1.9Zm9.855-6.449a10.427,10.427,0,0,0,1.575-.09v1.035a11.827,11.827,0,0,0-1.59-.09h-1.965v2.535h2.535a11.959,11.959,0,0,0,1.71-.09v1.035a11.717,11.717,0,0,0-1.7-.09h-2.295a11.818,11.818,0,0,0,1.65,2.49,12.133,12.133,0,0,0,2.82,2.295,3.939,3.939,0,0,0-.645.929,16.552,16.552,0,0,1-2.415-2.2,10.117,10.117,0,0,1-1.724-2.79c.045.555.059.975.059,1.65v2.939a10.459,10.459,0,0,0,.09,1.59h-1.08a12.155,12.155,0,0,0,.09-1.59v-2.939c0-.57,0-.765.06-1.65a12.24,12.24,0,0,1-4.559,5.19,3.36,3.36,0,0,0-.721-.736,13.077,13.077,0,0,0,4.965-5.174h-2.1a8.628,8.628,0,0,0-1.44.075v-1.005a8.748,8.748,0,0,0,1.455.075h2.34v-2.535h-1.68a11.959,11.959,0,0,0-1.545.075V1237.5a14.746,14.746,0,0,0,1.545.075h1.68v-1.2a6.6,6.6,0,0,0-.074-1.215h1.049a6.8,6.8,0,0,0-.075,1.215v1.2Z" fill="#4d4d4d"/>
  </g>
  <g id="グループ_241" data-name="グループ 241" transform="translate(-1015.211 -1235.16)">
    <path id="パス_1171" data-name="パス 1171" d="M1280.285,1306.651a11.222,11.222,0,0,0-.09-1.725h1.186a11.157,11.157,0,0,0-.106,1.725v.84h.975a13.821,13.821,0,0,0,1.77-.1v1.139a14.772,14.772,0,0,0-1.77-.1h-.975v7.995a14.008,14.008,0,0,0,.106,1.77h-1.1v-.96h-5.834v.96h-1.1a12.1,12.1,0,0,0,.106-1.755v-8.01h-.976a11.472,11.472,0,0,0-1.71.1v-1.139a11.078,11.078,0,0,0,1.71.1h.976v-.9a9.716,9.716,0,0,0-.106-1.665h1.186a11.816,11.816,0,0,0-.09,1.665v.9h5.834Zm-5.834,1.769v3.24h5.834v-3.24Zm0,4.155v3.735h5.834v-3.735Z" fill="#4d4d4d"/>
    <path id="パス_1172" data-name="パス 1172" d="M1287.242,1316.1a12.152,12.152,0,0,0,.09-1.62v-7.019c0-.615-.03-1.11-.06-1.455a9.186,9.186,0,0,0,1.23.059h1.335a9.684,9.684,0,0,0,1.26-.059,12.929,12.929,0,0,0-.045,1.394v6.21a16.338,16.338,0,0,0,.06,1.65h-.96v-.78h-1.905v1.62Zm1.005-2.46h1.905v-6.7h-1.905Zm9.854-6.45a10.577,10.577,0,0,0,1.575-.089v1.035a11.634,11.634,0,0,0-1.589-.091h-1.965v2.535h2.535a12.156,12.156,0,0,0,1.71-.089v1.034a11.737,11.737,0,0,0-1.695-.09h-2.3a11.786,11.786,0,0,0,1.65,2.49,12.149,12.149,0,0,0,2.819,2.295,3.938,3.938,0,0,0-.644.93,16.433,16.433,0,0,1-2.415-2.205,10.078,10.078,0,0,1-1.725-2.79c.045.555.06.975.06,1.65v2.94a10.318,10.318,0,0,0,.09,1.59h-1.081a12.134,12.134,0,0,0,.09-1.59v-2.94c0-.57,0-.765.061-1.65a12.244,12.244,0,0,1-4.56,5.19,3.333,3.333,0,0,0-.72-.735,13.09,13.09,0,0,0,4.964-5.175h-2.1a8.651,8.651,0,0,0-1.441.075v-1.005a8.746,8.746,0,0,0,1.455.075h2.34v-2.535h-1.679a12.144,12.144,0,0,0-1.545.075v-1a15.054,15.054,0,0,0,1.545.074h1.679v-1.2a6.5,6.5,0,0,0-.074-1.215h1.05a6.692,6.692,0,0,0-.075,1.215v1.2Z" fill="#4d4d4d"/>
  </g>
  <g id="グループ_242" data-name="グループ 242" transform="translate(-1015.211 -1235.16)">
    <path id="パス_1173" data-name="パス 1173" d="M1272.216,1401.608a10.674,10.674,0,0,0-1.456.09v-.975a9.651,9.651,0,0,0,1.456.09h3.3a9.194,9.194,0,0,0,1.4-.09v.96a9.552,9.552,0,0,0-1.38-.09h-.659v1.785h.494a11.382,11.382,0,0,0,1.17-.045,13.944,13.944,0,0,0-.045,1.575v6.675l.016.794.014.556c-.224-.015-.854-.03-1.229-.03h-3.33v1.14h-.9a13.043,13.043,0,0,0,.09-1.71v-7.4c0-.645-.015-1.125-.059-1.62a8.035,8.035,0,0,0,1.184.06h.525v-1.77Zm-.27,8.145h3.749v-1.905c-.3.015-.39.015-.465.015a1.43,1.43,0,0,1-.87-.165c-.135-.1-.165-.225-.165-.66v-2.955h-.7v.165c0,2.31-.285,3.57-1.051,4.71a3.409,3.409,0,0,0-.494-.585Zm0-1.47c.63-.84.854-1.89.854-4.05v-.15h-.854Zm0,3.84h3.749v-1.65h-3.749Zm1.545-8.745h.7v-1.785h-.7Zm1.38,3.45c0,.285.029.315.3.315h.524v-3.06h-.824Zm7.2.915a5.591,5.591,0,0,0,1.005-.075l.525.555a6.672,6.672,0,0,0-.39.585,11.277,11.277,0,0,1-1.9,2.4,8.311,8.311,0,0,0,3.39,1.695,4.543,4.543,0,0,0-.45.944,10.544,10.544,0,0,1-3.585-2.085,11.616,11.616,0,0,1-3.989,2.131,2.919,2.919,0,0,0-.54-.826,9.929,9.929,0,0,0,3.929-1.859,9.033,9.033,0,0,1-1.425-1.95,10.336,10.336,0,0,1-1.41,1.41,2.48,2.48,0,0,0-.585-.675,7.455,7.455,0,0,0,2.25-2.415,5.1,5.1,0,0,0,.616-1.38l.9.285c-.314.615-.42.795-.705,1.26Zm-1.32-4.305c-.45.045-.659.075-1.2.135a4.911,4.911,0,0,1-.419,1.695,4.26,4.26,0,0,1-2,2.025,2.83,2.83,0,0,0-.554-.72,3.137,3.137,0,0,0,2.13-2.925c-1.366.105-1.366.105-1.755.165l-.106-.93a6.673,6.673,0,0,0,.765.03h.391a11.641,11.641,0,0,0,1.274-2.8l.931.33a25.821,25.821,0,0,1-1.29,2.43,28.277,28.277,0,0,0,3.569-.42,10.391,10.391,0,0,0-1.29-1.29l.645-.42a17.672,17.672,0,0,1,2.46,2.7l-.75.495c-.27-.42-.36-.54-.57-.855-.93.18-.93.18-1.41.24v2.175c0,.27.09.3.75.3.675,0,.945-.045,1.05-.195a2.932,2.932,0,0,0,.18-1.215,1.875,1.875,0,0,0,.75.315c-.15,1.695-.3,1.83-2.04,1.83-1.305,0-1.515-.12-1.515-.825Zm-1.545,5.055c-.03.045-.045.06-.09.12a8.188,8.188,0,0,0,1.575,2.055,9.489,9.489,0,0,0,1.74-2.175Z" fill="#4d4d4d"/>
    <path id="パス_1174" data-name="パス 1174" d="M1287.385,1411.688a12.2,12.2,0,0,0,.089-1.62v-7.02c0-.615-.029-1.11-.059-1.455a9.174,9.174,0,0,0,1.229.06h1.335a9.7,9.7,0,0,0,1.261-.06,12.939,12.939,0,0,0-.045,1.4v6.21a16.338,16.338,0,0,0,.06,1.65h-.96v-.78h-1.906v1.62Zm1-2.46h1.906v-6.705h-1.906Zm9.855-6.45a10.427,10.427,0,0,0,1.575-.09v1.035a11.816,11.816,0,0,0-1.59-.09h-1.965v2.535h2.535a12,12,0,0,0,1.711-.09v1.035a11.741,11.741,0,0,0-1.7-.09h-2.295a11.767,11.767,0,0,0,1.651,2.49,12.1,12.1,0,0,0,2.819,2.3,3.967,3.967,0,0,0-.645.93,16.6,16.6,0,0,1-2.415-2.205,10.105,10.105,0,0,1-1.724-2.79c.045.555.059.975.059,1.65v2.94a10.437,10.437,0,0,0,.09,1.589h-1.08a12.129,12.129,0,0,0,.09-1.589v-2.94c0-.57,0-.765.06-1.65a12.234,12.234,0,0,1-4.559,5.19,3.359,3.359,0,0,0-.721-.735,13.086,13.086,0,0,0,4.965-5.175h-2.1a8.634,8.634,0,0,0-1.441.075v-1.005a8.748,8.748,0,0,0,1.455.075h2.34v-2.535h-1.68a11.959,11.959,0,0,0-1.545.075V1402.7a14.76,14.76,0,0,0,1.545.075h1.68v-1.2a6.6,6.6,0,0,0-.074-1.215h1.05a6.692,6.692,0,0,0-.076,1.215v1.2Z" fill="#4d4d4d"/>
  </g>
  <g id="グループ_243" data-name="グループ 243" transform="translate(-1015.211 -1235.16)">
    <path id="パス_1175" data-name="パス 1175" d="M1015.781,1404.218a18.689,18.689,0,0,1,2.609,1.905l-.615.825a12.5,12.5,0,0,0-2.564-2.025Zm2.67,4.95a25.5,25.5,0,0,1-1.981,4.05c-.179.3-.224.389-.314.569l-.886-.8a12.781,12.781,0,0,0,2.37-4.424Zm-1.785-8.535a13.536,13.536,0,0,1,2.415,1.965l-.63.765a11.965,11.965,0,0,0-2.415-2.07Zm10.439,4.935a10.41,10.41,0,0,0,1.545-.09v1.02a11.115,11.115,0,0,0-1.545-.09h-6.99a9.433,9.433,0,0,0-1.44.075v-.99a8.815,8.815,0,0,0,1.411.075h.464v-2.685a8.621,8.621,0,0,0-.089-1.305h1.094a8.281,8.281,0,0,0-.089,1.32v2.67h1.9v-3.885a7.906,7.906,0,0,0-.09-1.29h1.11a7.825,7.825,0,0,0-.09,1.305v.78h2.25a8.893,8.893,0,0,0,1.365-.09v1.02a9.4,9.4,0,0,0-1.38-.09H1024.3v2.25Zm-4.064,5.835a19.514,19.514,0,0,1-3.255,2.055c-.3.149-.42.21-.6.315l-.495-.99a6.052,6.052,0,0,0,1.606-.69,13.3,13.3,0,0,0,2.429-1.59Zm-2.776-4.425a17.809,17.809,0,0,1,2.745,2.04l-.66.75a12.577,12.577,0,0,0-2.745-2.1Zm3.765,2.28a11.339,11.339,0,0,0,1.71-1.26,5.866,5.866,0,0,0,1.065-1.155l.84.615a17.334,17.334,0,0,1-2.955,2.505Zm3.811,4.559a18.731,18.731,0,0,0-3.766-2.639l.615-.645a22.361,22.361,0,0,1,3.72,2.4Z" fill="#4d4d4d"/>
    <path id="パス_1176" data-name="パス 1176" d="M1032.813,1401.593a7.165,7.165,0,0,0,1.455.09c.824,0,2.025-.045,2.52-.1a1.1,1.1,0,0,0,.554-.18l.795.63a7.986,7.986,0,0,0-.824,2.175c-.33,1.02-.435,1.305-.7,2.1a11.759,11.759,0,0,1,4.095,1.185,17.021,17.021,0,0,0,.179-3.045,3.644,3.644,0,0,0-.059-.735l1.125.015a5.772,5.772,0,0,0-.061.93,20.52,20.52,0,0,1-.269,3.255c.809.42,1.319.69,2.055,1.125a2.787,2.787,0,0,0,.434.225l-.4,1.155a17.4,17.4,0,0,0-2.34-1.485,7.107,7.107,0,0,1-1.545,2.715,8.087,8.087,0,0,1-2.386,1.829,3.836,3.836,0,0,0-.8-.78,6.592,6.592,0,0,0,2.431-1.724,5.843,5.843,0,0,0,1.38-2.52,11.063,11.063,0,0,0-4.14-1.245,29.1,29.1,0,0,1-1.41,3.615c-.54,1.035-1.095,1.485-1.815,1.485a2.216,2.216,0,0,1-1.98-2.46,3.369,3.369,0,0,1,1.785-2.97,4.9,4.9,0,0,1,2.7-.645c.495-1.47.674-2.04,1.2-3.78-1.185.09-1.41.1-2.835.15a8.254,8.254,0,0,0-1.095.075Zm0,6.51a2.494,2.494,0,0,0-.72,1.725c0,.8.435,1.424.975,1.424.615,0,1.125-.929,2.22-4.124A3.638,3.638,0,0,0,1032.813,1408.1Z" fill="#4d4d4d"/>
  </g>
  <g id="グループ_244" data-name="グループ 244" transform="translate(-1015.211 -1235.16)">
    <path id="パス_1177" data-name="パス 1177" d="M1090.027,1475.482a10,10,0,0,0,1.5-.09v1.035a10.427,10.427,0,0,0-1.5-.09h-4.845c-.015,2.43-.015,2.43-.075,3.54a4.889,4.889,0,0,0,.36,1.755,5.817,5.817,0,0,0,1.785,2.625,10.057,10.057,0,0,0,4.349,2.189,2.99,2.99,0,0,0-.539.945c-3.315-1.02-5.715-3.09-6.315-5.429-.855,2.7-2.79,4.454-6.06,5.5a4.425,4.425,0,0,0-.6-.915c2.729-.735,4.514-2.054,5.46-3.974a6.753,6.753,0,0,0,.629-2.85c.045-.87.045-.87.045-3.39h-4.545a10.885,10.885,0,0,0-1.5.09v-1.035a10.139,10.139,0,0,0,1.5.09h4.545a10.4,10.4,0,0,0-.075-1.62h1.125a8.253,8.253,0,0,0-.09,1.62Zm-7.785,8.13c-.525-.5-.72-.676-1.065-.96a10.068,10.068,0,0,1-2.28,1.424,3.343,3.343,0,0,0-.6-.72,8.643,8.643,0,0,0,2.219-1.214,13.315,13.315,0,0,0-1.485-1.005l.645-.48c.661.42.871.555,1.455.975a5.2,5.2,0,0,0,1.14-1.38l.75.51c-.075.089-.075.089-.45.525a8.648,8.648,0,0,1-.8.825c.33.254.525.419,1.08.885Zm-2.4-6.585c.81.465,1.081.63,1.59.975a4.271,4.271,0,0,0,1.02-1.29l.75.48a2.647,2.647,0,0,0-.36.405,7.5,7.5,0,0,1-.765.84c.48.345.69.495,1.29.975l-.585.615c-.569-.51-.795-.69-1.275-1.065a10.8,10.8,0,0,1-2.459,1.575,3.618,3.618,0,0,0-.6-.675,8.874,8.874,0,0,0,2.4-1.35,15.625,15.625,0,0,0-1.605-.96Zm6.855-.075c.84.51,1.125.69,1.725,1.11a4.14,4.14,0,0,0,1.02-1.305l.81.51c-.076.06-.241.255-.315.33-.015.03-.165.195-.42.48a4.132,4.132,0,0,1-.45.45c.555.405.75.555,1.38,1.08l-.615.6c-.63-.585-.84-.765-1.35-1.17a10.707,10.707,0,0,1-2.22,1.4,2.528,2.528,0,0,0-.57-.675,7.89,7.89,0,0,0,2.13-1.2c-.555-.375-.856-.57-1.725-1.095Zm.45,3.615c.855.524,1.125.7,1.62,1.05a3.72,3.72,0,0,0,.885-1.155l.765.51a6.578,6.578,0,0,0-.435.494,6.435,6.435,0,0,1-.57.615c.54.406.78.6,1.514,1.216l-.614.615c-.69-.645-.931-.855-1.471-1.29-.239.2-.449.359-.734.57-.06.029-.36.21-.931.555a2.892,2.892,0,0,0-.585-.66,6.91,6.91,0,0,0,1.606-.945c-.525-.375-.825-.555-1.665-1.065Z" fill="#4d4d4d"/>
    <path id="パス_1178" data-name="パス 1178" d="M1097.138,1474.867a6.178,6.178,0,0,0,.286.915c.3.885.45,1.305.66,1.98a26.548,26.548,0,0,1,3.224-.84,20.979,20.979,0,0,0-.059-2.655h1.125a13.987,13.987,0,0,0-.075,2.025c0,.015,0,.3.014.48a7.563,7.563,0,0,1,1.125-.09c2.01,0,3.3,1.08,3.3,2.76,0,1.8-1.47,3.089-3.524,3.089a6.357,6.357,0,0,1-2.536-.555,2.136,2.136,0,0,0,.015-.27,6.7,6.7,0,0,0-.09-.855,5.1,5.1,0,0,0,2.521.69,3.043,3.043,0,0,0,1.8-.585,1.817,1.817,0,0,0,.719-1.529c0-1.14-.884-1.815-2.4-1.815a17.686,17.686,0,0,0-4.89,1.065c.766,2.549,1.3,4.664,1.936,7.484a4.632,4.632,0,0,0,.194.645l-1.215.27a53.415,53.415,0,0,0-1.889-8.1,6.49,6.49,0,0,1-.811.27,14.4,14.4,0,0,0-2.055.825l-.389-1.065a16.458,16.458,0,0,0,2.2-.7c.375-.135.524-.165.764-.24a14.922,14.922,0,0,0-1.08-2.85Z" fill="#4d4d4d"/>
    <path id="パス_1179" data-name="パス 1179" d="M1110.274,1478.032c.54-.015,2.1-.195,3.315-.39a18.332,18.332,0,0,0,.45-3.18v-.2l1.2.135a9.228,9.228,0,0,0-.285,1.44c-.075.435-.18.99-.315,1.71a8.717,8.717,0,0,1,.885-.045,2.868,2.868,0,0,1,2.16.63,3.028,3.028,0,0,1,.735,2.415c0,2.294-.39,4.289-1.005,5.159a1.568,1.568,0,0,1-1.47.7,5.644,5.644,0,0,1-2.265-.585,3.261,3.261,0,0,0,.03-.525,2.9,2.9,0,0,0-.045-.6,5.608,5.608,0,0,0,2.235.69q.563,0,.855-.72a11.609,11.609,0,0,0,.63-4.169c0-1.59-.45-2.1-1.845-2.1a8.6,8.6,0,0,0-1.08.075,28.3,28.3,0,0,1-2.265,6.359c-.195.36-.51.96-.975,1.8l-1.02-.6a14.439,14.439,0,0,0,1.561-2.715,24.809,24.809,0,0,0,1.649-4.754c-1.29.195-2.01.315-2.145.345a8.562,8.562,0,0,0-.87.2Zm9.855-1.38a13.561,13.561,0,0,1,3.134,5.31l-.96.555a12.262,12.262,0,0,0-3.059-5.385Z" fill="#4d4d4d"/>
    <path id="パス_1180" data-name="パス 1180" d="M1126.48,1477.3a6.572,6.572,0,0,0,1.155.075,35.021,35.021,0,0,0,4.47-.315c-.225-.51-.466-1.11-.735-1.785-.165-.39-.255-.6-.39-.87l1.185-.165a4.726,4.726,0,0,0,.434,1.35,12.818,12.818,0,0,0,.54,1.32,17.541,17.541,0,0,0,3.63-.945l.151,1.065c-.316.06-.435.09-.885.21-.9.24-1.08.285-2.025.465l-.51.1a27.785,27.785,0,0,0,2.7,4.365l-1.005.569a3.011,3.011,0,0,0-1.035-.614,8.133,8.133,0,0,0-2.625-.39,5.319,5.319,0,0,0-2.85.629,1.7,1.7,0,0,0-.81,1.4,1.5,1.5,0,0,0,.57,1.17,5.081,5.081,0,0,0,2.925.69,9.89,9.89,0,0,0,4.26-.96l.165,1.155a12.437,12.437,0,0,1-4.41.81c-1.83,0-3.211-.405-3.9-1.125a2.414,2.414,0,0,1-.675-1.65,2.8,2.8,0,0,1,1.695-2.445,6.386,6.386,0,0,1,2.91-.555,7.468,7.468,0,0,1,3.1.541,18.427,18.427,0,0,1-1.8-2.94c-.165-.315-.165-.345-.254-.495a44.18,44.18,0,0,1-5.34.39,3.322,3.322,0,0,0-.585.045Z" fill="#4d4d4d"/>
  </g>
  <g id="グループ_245" data-name="グループ 245" transform="translate(-1015.211 -1235.16)">
    <path id="パス_1181" data-name="パス 1181" d="M1183.154,1486.176a12.055,12.055,0,0,0-3.06-2.145c-.254-.135-.6-.284-1-.45a4.456,4.456,0,0,1,.029.541,2.6,2.6,0,0,1-.375,1.634,3.019,3.019,0,0,1-2.534.945,3.9,3.9,0,0,1-2.325-.6,1.961,1.961,0,0,1-.81-1.574c0-.99.779-1.77,2.1-2.071a6.54,6.54,0,0,1,1.56-.149,6.678,6.678,0,0,1,1.351.119c-.016-.044-.016-.044-.016-.179a1.194,1.194,0,0,1-.015-.166c-.014-.135-.014-.449-.03-.885-.014-.194-.014-.48-.03-.869-.539.014-1.289.03-1.77.03-.9,0-1.6-.03-2.535-.105-.165-.015-.285-.015-.375-.015h-.12l.016-.99a18.4,18.4,0,0,0,3.434.24c.39,0,.915,0,1.335-.015l-.03-2.055c-.435.015-.675.015-1.02.015-1.094,0-2.309-.045-3.66-.15a1.8,1.8,0,0,0-.269-.015,1.223,1.223,0,0,0-.21.015l.014-1.02a18.645,18.645,0,0,0,3.84.3c.3,0,.811-.015,1.3-.015a11.963,11.963,0,0,0-.074-2.16h1.154a16.726,16.726,0,0,0-.105,2.115,21.145,21.145,0,0,0,4.44-.615l.075,1.02c-.255.015-.255.015-1.035.12a31.114,31.114,0,0,1-3.48.36c.015,1.23.015,1.23.03,2.025a18.1,18.1,0,0,0,4.155-.615l.06,1.035c-.195.015-.345.03-.87.1-1.035.164-2.22.285-3.33.36.031.84.031.84.09,2.294a13.172,13.172,0,0,1,4.185,2.19,4.945,4.945,0,0,0,.51.345Zm-5.069-2.835a5.518,5.518,0,0,0-1.531-.165c-1.485,0-2.46.54-2.46,1.335s.75,1.245,2.055,1.245a2.167,2.167,0,0,0,1.65-.495c.211-.21.3-.629.3-1.349Z" fill="#4d4d4d"/>
    <path id="パス_1182" data-name="パス 1182" d="M1188.475,1475.242a8.981,8.981,0,0,0,1.665.09c1.4,0,3.3-.09,4.335-.2a1.8,1.8,0,0,0,.616-.135l.629.87a12.076,12.076,0,0,0-1.62,1.545,27.182,27.182,0,0,1-4.094,3.674l.044.046a6.709,6.709,0,0,1,3.81-1.185c2.385,0,3.9,1.155,3.9,2.984a3.344,3.344,0,0,1-1.95,2.97,7.663,7.663,0,0,1-3.2.63,10.432,10.432,0,0,1-3.614-.7,2.055,2.055,0,0,0,.014-.27,5.713,5.713,0,0,0-.1-.945,8.47,8.47,0,0,0,3.825.93c2.325,0,3.915-1.065,3.915-2.61,0-1.3-1.14-2.1-2.985-2.1a8.9,8.9,0,0,0-4.815,1.65,7.535,7.535,0,0,0-1.17.945l-.75-.931a14.275,14.275,0,0,0,1.951-1.484c1.559-1.365,3.6-3.3,4.979-4.74a1.375,1.375,0,0,1,.135-.15l.12-.12-.03-.015a.759.759,0,0,0-.195.03c-.645.1-2.594.225-4.275.27a6.076,6.076,0,0,0-1.08.075Z" fill="#4d4d4d"/>
    <path id="パス_1183" data-name="パス 1183" d="M1203.832,1474.867a6.027,6.027,0,0,0,.285.915c.3.885.45,1.305.66,1.98a26.6,26.6,0,0,1,3.225-.84,20.79,20.79,0,0,0-.06-2.655h1.125a13.987,13.987,0,0,0-.075,2.025c0,.015,0,.3.014.48a7.563,7.563,0,0,1,1.125-.09c2.01,0,3.3,1.08,3.3,2.76,0,1.8-1.469,3.089-3.524,3.089a6.349,6.349,0,0,1-2.535-.555,2.283,2.283,0,0,0,.014-.27,6.607,6.607,0,0,0-.089-.855,5.1,5.1,0,0,0,2.52.69,3.038,3.038,0,0,0,1.8-.585,1.818,1.818,0,0,0,.72-1.529c0-1.14-.885-1.815-2.4-1.815a17.674,17.674,0,0,0-4.889,1.065c.765,2.549,1.3,4.664,1.935,7.484a4.769,4.769,0,0,0,.194.645l-1.214.27a53.47,53.47,0,0,0-1.89-8.1,6.49,6.49,0,0,1-.811.27,14.329,14.329,0,0,0-2.054.825l-.39-1.065a16.445,16.445,0,0,0,2.2-.7c.375-.135.525-.165.765-.24a15.072,15.072,0,0,0-1.08-2.85Z" fill="#4d4d4d"/>
    <path id="パス_1184" data-name="パス 1184" d="M1216.967,1478.032c.54-.015,2.1-.195,3.315-.39a18.239,18.239,0,0,0,.45-3.18v-.2l1.2.135a9.228,9.228,0,0,0-.285,1.44c-.075.435-.18.99-.314,1.71a8.7,8.7,0,0,1,.884-.045,2.871,2.871,0,0,1,2.161.63,3.032,3.032,0,0,1,.734,2.415c0,2.294-.39,4.289-1.005,5.159a1.567,1.567,0,0,1-1.47.7,5.636,5.636,0,0,1-2.264-.585,3.383,3.383,0,0,0,.029-.525,2.909,2.909,0,0,0-.045-.6,5.612,5.612,0,0,0,2.235.69c.375,0,.661-.24.855-.72a11.609,11.609,0,0,0,.63-4.169c0-1.59-.449-2.1-1.845-2.1a8.616,8.616,0,0,0-1.08.075,28.3,28.3,0,0,1-2.265,6.359c-.195.36-.509.96-.974,1.8l-1.021-.6a14.432,14.432,0,0,0,1.561-2.715,24.8,24.8,0,0,0,1.649-4.754c-1.29.195-2.01.315-2.144.345a8.519,8.519,0,0,0-.87.2Zm9.855-1.38a13.565,13.565,0,0,1,3.135,5.31l-.96.555a12.273,12.273,0,0,0-3.06-5.385Z" fill="#4d4d4d"/>
    <path id="パス_1185" data-name="パス 1185" d="M1233.174,1477.3a6.558,6.558,0,0,0,1.155.075,35.046,35.046,0,0,0,4.47-.315c-.226-.51-.466-1.11-.736-1.785-.165-.39-.255-.6-.389-.87l1.184-.165a4.779,4.779,0,0,0,.435,1.35,12.334,12.334,0,0,0,.54,1.32,17.558,17.558,0,0,0,3.63-.945l.15,1.065c-.315.06-.435.09-.885.21-.9.24-1.08.285-2.025.465l-.51.1a27.785,27.785,0,0,0,2.7,4.365l-1.005.569a3.011,3.011,0,0,0-1.035-.614,8.124,8.124,0,0,0-2.625-.39,5.312,5.312,0,0,0-2.849.629,1.706,1.706,0,0,0-.811,1.4,1.5,1.5,0,0,0,.57,1.17,5.081,5.081,0,0,0,2.925.69,9.887,9.887,0,0,0,4.26-.96l.165,1.155a12.437,12.437,0,0,1-4.41.81,5.5,5.5,0,0,1-3.9-1.125,2.418,2.418,0,0,1-.674-1.65,2.8,2.8,0,0,1,1.694-2.445,6.389,6.389,0,0,1,2.91-.555,7.473,7.473,0,0,1,3.1.541,18.287,18.287,0,0,1-1.8-2.94c-.165-.315-.165-.345-.255-.495a44.149,44.149,0,0,1-5.34.39,3.33,3.33,0,0,0-.585.045Z" fill="#4d4d4d"/>
  </g>
  <g id="グループ_246" data-name="グループ 246" transform="translate(-1015.211 -1235.16)">
    <path id="パス_1186" data-name="パス 1186" d="M1018.819,1317.426a12.058,12.058,0,0,0-1.6.06V1316.3a7.392,7.392,0,0,0,1.634.1h7.14v-7.245h-6.824a12.579,12.579,0,0,0-1.726.075v-1.2a8.218,8.218,0,0,0,1.726.1h7.2c.195,0,.405-.015.78-.03-.03.375-.03.63-.03,1.17v7.679a10.066,10.066,0,0,0,.075,1.365h-1.2v-.9Z" fill="#4d4d4d"/>
    <path id="パス_1187" data-name="パス 1187" d="M1037.463,1306.6a2.9,2.9,0,0,0-.331.615,14.16,14.16,0,0,1-.689,1.335c.194-.045.194-.045,4.529-.12a1.477,1.477,0,0,0,.781-.1l.644.63c-.135.18-.135.195-.3.735a15.841,15.841,0,0,1-3,5.639,14.686,14.686,0,0,1-5.219,3.75,2.269,2.269,0,0,0-.75-.885,12.751,12.751,0,0,0,5.295-3.8,13.786,13.786,0,0,0,2.58-5.024l-5.055.09a14.464,14.464,0,0,1-3.585,3.9,2.23,2.23,0,0,0-.84-.78,11.112,11.112,0,0,0,3.765-4.11,6.8,6.8,0,0,0,.945-2.19Z" fill="#4d4d4d"/>
  </g>
  <line id="線_64" data-name="線 64" x1="109.032" y1="45.163" transform="translate(33.651 81.023)" fill="none" stroke="#999" stroke-miterlimit="10" stroke-width="0.5"/>
  <line id="線_65" data-name="線 65" x1="45.162" y1="109.032" transform="translate(97.52 17.153)" fill="none" stroke="#999" stroke-miterlimit="10" stroke-width="0.5"/>
  <line id="線_66" data-name="線 66" y1="109.032" x2="45.163" transform="translate(142.683 17.153)" fill="none" stroke="#999" stroke-miterlimit="10" stroke-width="0.5"/>
  <line id="線_67" data-name="線 67" y1="45.163" x2="109.032" transform="translate(142.683 81.023)" fill="none" stroke="#999" stroke-miterlimit="10" stroke-width="0.5"/>
  <line id="線_68" data-name="線 68" x2="109.032" y2="45.163" transform="translate(142.683 126.186)" fill="none" stroke="#999" stroke-miterlimit="10" stroke-width="0.5"/>
  <line id="線_69" data-name="線 69" x2="45.163" y2="109.032" transform="translate(142.683 126.186)" fill="none" stroke="#999" stroke-miterlimit="10" stroke-width="0.5"/>
  <line id="線_70" data-name="線 70" x1="45.162" y2="109.032" transform="translate(97.52 126.186)" fill="none" stroke="#999" stroke-miterlimit="10" stroke-width="0.5"/>
  <line id="線_71" data-name="線 71" x1="109.032" y2="45.163" transform="translate(33.651 126.186)" fill="none" stroke="#999" stroke-miterlimit="10" stroke-width="0.5"/>
  <path id="パス_1188" data-name="パス 1188" d="M1203.056,1252.313h-90.325l-63.87,63.87v90.325l63.87,63.87h90.325l63.87-63.87v-90.325Z" transform="translate(-1015.211 -1235.16)" fill="none" stroke="#999" stroke-miterlimit="10" stroke-width="0.5"/>
</svg>
