<svg id="lineup_originalbrend_ttl_sp" xmlns="http://www.w3.org/2000/svg" width="750" height="180" viewBox="0 0 750 180">
  <rect id="長方形_43" data-name="長方形 43" width="750" height="180" fill="#fff100" opacity="0"/>
  <g id="グループ_457" data-name="グループ 457" transform="translate(5022.515 1922.398)">
    <g id="グループ_454" data-name="グループ 454">
      <g id="グループ_453" data-name="グループ 453">
        <path id="パス_1944" data-name="パス 1944" d="M-4763.979-1774.21c1.1,0,6.346.115,6.346,3.978,0,2.346-1.77,3.4-3.058,4.025-.805.391-.9.436-.9.689a40.75,40.75,0,0,0,2.392,5.5,2.861,2.861,0,0,0,2.713,1.839c.23,0,.69,0,.69.368,0,.323-.46.369-.575.369h-2.874a1.127,1.127,0,0,1-1.081-.667c-.138-.23-1.771-3.794-2.023-4.37-1.265-2.782-1.426-3.15-2.231-3.15h-1.265c-.161,0-.46.093-.529.276-.092.23-.092,3.266-.092,3.794,0,2.783,0,3.38,2.116,3.38.161,0,.483,0,.483.368s-.414.369-.667.369h-5.68c-.23,0-.575-.046-.575-.369,0-.368.322-.368.645-.368,1.586,0,1.816-.735,1.884-1.586.046-.782.046-7.1.046-8.186a37.127,37.127,0,0,0-.183-4.645c-.3-.851-1.288-.851-1.817-.851-.137,0-.621,0-.621-.413,0-.346.414-.346.691-.346Zm-.828.759c-1.656,0-1.656,1.035-1.656,3.4,0,3.61,0,3.68.621,3.68h1.863c2.254,0,4.162-1.242,4.162-3.634,0-1.609-.874-3.449-3.863-3.449Z" fill="#333"/>
        <path id="パス_1945" data-name="パス 1945" d="M-4741.755-1758.183a5.974,5.974,0,0,0,5.5-2.85c.576-.9.622-.99.8-.99a.368.368,0,0,1,.391.369c0,.115-.827,2.3-.965,2.644-.575,1.494-.6,1.564-2.093,1.564h-10.831c-.391,0-.713,0-.713-.369s.231-.368.874-.368a1.524,1.524,0,0,0,1.748-1.2c.069-.391.092-5.68.092-6.347,0-.92,0-6.139-.069-6.553-.23-1.173-1.219-1.173-2.139-1.173-.161,0-.506,0-.506-.367,0-.392.322-.392.713-.392h10.486c1.425,0,1.54.046,2,1.173.138.322.99,2.437.99,2.6a.359.359,0,0,1-.368.345c-.138,0-.184-.046-.713-.781a5.6,5.6,0,0,0-4.415-2.576h-2.553a1.6,1.6,0,0,0-1.38.6c-.275.413-.275.62-.275,2.438,0,.3,0,3.426.068,3.609a.637.637,0,0,0,.553.3h2.023c2.6,0,2.6-1.564,2.6-2.576,0-.068,0-.46.367-.46.392,0,.368.392.368.575-.023.851,0,4.967,0,5.887,0,.115,0,.483-.368.483s-.367-.3-.367-.76c0-1.954-1.312-2.414-2.6-2.414h-2.023a.555.555,0,0,0-.6.53c-.022.183-.022,3.977-.022,4.322,0,1.61,0,2.736,1.655,2.736Z" fill="#333"/>
        <path id="パス_1946" data-name="パス 1946" d="M-4722.74-1758.183a6.791,6.791,0,0,0,5.8-3.127c.436-.643.482-.713.643-.713a.322.322,0,0,1,.345.345c0,.139-.873,2.392-1.012,2.76-.574,1.448-.667,1.472-2.161,1.472h-9.634c-.345,0-.667,0-.667-.369s.253-.368.828-.368a1.524,1.524,0,0,0,1.747-1.2c.069-.391.069-5.68.069-6.347,0-.92,0-6.139-.069-6.553-.207-1.173-1.219-1.173-2.07-1.173-.161,0-.505,0-.505-.367,0-.392.322-.392.667-.392h5.7c.368,0,.69,0,.69.392,0,.367-.253.367-.828.367a1.538,1.538,0,0,0-1.747,1.173c-.069.414-.069,5.312-.069,6.392,0,6.117,0,6.14.069,6.508a1.469,1.469,0,0,0,1.586,1.2Z" fill="#333"/>
        <path id="パス_1947" data-name="パス 1947" d="M-4698.566-1757.446c-.253,0-.552-.07-.552-.369,0-.368.368-.368.92-.368a1.008,1.008,0,0,0,.942-1.011,12.471,12.471,0,0,0-.85-2.691c-.506-1.287-.574-1.448-1.333-1.448h-4.99c-.851,0-.944.229-1.311,1.265a18.383,18.383,0,0,0-.828,2.989c0,.9.735.9,1.288.9.275,0,.528.047.528.368,0,.369-.344.369-.528.369h-4.415c-.185,0-.483-.024-.483-.345,0-.392.252-.392.782-.392a1.931,1.931,0,0,0,1.747-.919c.529-.713,2.23-6.117,2.736-7.75.3-.92,1.771-5.426,2.07-6.461.23-.8.368-1.334,2-1.334a.524.524,0,0,1,.506.369,15.068,15.068,0,0,1,.759,2.069c1.61,4.99,1.748,5.542,3.2,9.8,1.311,3.909,1.472,4.23,2.783,4.23.3,0,.529.139.529.392,0,.345-.368.345-.529.345Zm-1.08-6.646c.253,0,.574-.115.574-.368,0-.482-2.185-6.875-2.6-8.117-.137-.391-.183-.6-.344-.6-.138,0-.162.069-.414.828-.644,1.863-2.438,7.7-2.438,7.91,0,.345.346.345.645.345Z" fill="#333"/>
        <path id="パス_1948" data-name="パス 1948" d="M-4675.893-1774.21c1.242,0,1.518,0,1.909,1.035.183.506,1.173,3.105,1.173,3.334a.354.354,0,0,1-.368.345c-.184,0-.253-.092-.783-.966-1.218-2-2.575-2.989-4.138-2.989-.9,0-1.449.368-1.587,1.15-.069.414-.069,5.61-.069,6.576,0,.644,0,5.956.069,6.347.207,1.173,1.288,1.2,1.909,1.2.85,0,1.034,0,1.034.368s-.321.369-.689.369h-6.439c-.322,0-.667,0-.667-.369s.368-.368.506-.368c1.356,0,2.207,0,2.438-1.2.068-.368.068-.391.068-6.508,0-5.68,0-6.3-.16-6.737a1.436,1.436,0,0,0-1.472-.828c-1.84,0-3.2,1.449-4.14,2.967-.551.9-.6.988-.8.988a.374.374,0,0,1-.368-.345c0-.184,1.035-2.943,1.218-3.4.368-.966.737-.966,1.886-.966Z" fill="#333"/>
        <path id="パス_1949" data-name="パス 1949" d="M-4659.021-1758.183a5.976,5.976,0,0,0,5.5-2.85c.575-.9.621-.99.8-.99a.367.367,0,0,1,.39.369c0,.115-.827,2.3-.965,2.644-.575,1.494-.6,1.564-2.092,1.564h-10.832c-.39,0-.712,0-.712-.369s.23-.368.874-.368a1.525,1.525,0,0,0,1.748-1.2c.068-.391.091-5.68.091-6.347,0-.92,0-6.139-.069-6.553-.229-1.173-1.219-1.173-2.139-1.173-.161,0-.505,0-.505-.367,0-.392.322-.392.712-.392h10.487c1.425,0,1.54.046,2,1.173.138.322.989,2.437.989,2.6a.359.359,0,0,1-.368.345c-.138,0-.184-.046-.713-.781a5.6,5.6,0,0,0-4.415-2.576h-2.553a1.6,1.6,0,0,0-1.38.6c-.275.413-.275.62-.275,2.438,0,.3,0,3.426.069,3.609a.635.635,0,0,0,.552.3h2.023c2.6,0,2.6-1.564,2.6-2.576,0-.068,0-.46.367-.46.392,0,.368.392.368.575-.022.851,0,4.967,0,5.887,0,.115,0,.483-.368.483s-.367-.3-.367-.76c0-1.954-1.311-2.414-2.6-2.414h-2.023a.555.555,0,0,0-.6.53c-.022.183-.022,3.977-.022,4.322,0,1.61,0,2.736,1.655,2.736Z" fill="#333"/>
        <path id="パス_1950" data-name="パス 1950" d="M-4639.779-1774.21c7.795,0,8.715,5.519,8.715,8.163,0,4.968-2.828,8.6-8.508,8.6h-6.324c-.345,0-.667,0-.667-.369s.345-.368.483-.368c.9,0,1.886,0,2.093-1.2.068-.368.068-.391.068-6.508,0-1.08,0-6-.068-6.392a1.527,1.527,0,0,0-1.748-1.173c-.574,0-.828,0-.828-.367,0-.392.322-.392.667-.392Zm-.713.759a1.425,1.425,0,0,0-1.587,1.2c-.068.391-.068,5.335-.068,6.369,0,6.117,0,6.14.068,6.508a1.447,1.447,0,0,0,1.587,1.2h1.1c3.909,0,6.254-3.356,6.254-7.956,0-2.9-1.2-7.312-6.163-7.312Z" fill="#333"/>
        <path id="パス_1951" data-name="パス 1951" d="M-4612.108-1757.446c-.3,0-.645,0-.645-.369s.185-.368,1.081-.368c.667,0,1.771,0,2-1.2.069-.391.069-5.68.069-6.347,0-.942,0-6.139-.069-6.553-.23-1.173-1.057-1.173-2.576-1.173-.138,0-.506,0-.506-.367,0-.392.346-.392.667-.392h6.761c.276,0,.621,0,.621.392,0,.344-.207.344-1.057.344-.691,0-1.679.023-1.978,1.058-.092.322-.092,5.5-.092,6.554,0,6.093,0,6.116.069,6.484.207,1.2,1.035,1.2,2.575,1.2.115,0,.483,0,.483.368s-.345.369-.621.369Z" fill="#333"/>
        <path id="パス_1952" data-name="パス 1952" d="M-4586.465-1774.21c1.243,0,1.519,0,1.91,1.035.183.506,1.172,3.105,1.172,3.334a.354.354,0,0,1-.368.345c-.183,0-.253-.092-.782-.966-1.219-2-2.575-2.989-4.139-2.989-.9,0-1.448.368-1.587,1.15-.068.414-.068,5.61-.068,6.576,0,.644,0,5.956.068,6.347.207,1.173,1.289,1.2,1.91,1.2.85,0,1.034,0,1.034.368s-.321.369-.69.369h-6.438c-.322,0-.667,0-.667-.369s.368-.368.506-.368c1.356,0,2.207,0,2.437-1.2.069-.368.069-.391.069-6.508,0-5.68,0-6.3-.161-6.737a1.434,1.434,0,0,0-1.471-.828c-1.84,0-3.2,1.449-4.14,2.967-.552.9-.6.988-.8.988a.374.374,0,0,1-.368-.345c0-.184,1.035-2.943,1.219-3.4.368-.966.736-.966,1.886-.966Z" fill="#333"/>
        <path id="パス_1953" data-name="パス 1953" d="M-4569.593-1758.183a5.975,5.975,0,0,0,5.5-2.85c.575-.9.621-.99.8-.99a.368.368,0,0,1,.391.369c0,.115-.827,2.3-.965,2.644-.575,1.494-.6,1.564-2.093,1.564h-10.831c-.39,0-.713,0-.713-.369s.231-.368.874-.368a1.525,1.525,0,0,0,1.748-1.2c.069-.391.092-5.68.092-6.347,0-.92,0-6.139-.069-6.553-.23-1.173-1.219-1.173-2.139-1.173-.161,0-.506,0-.506-.367,0-.392.323-.392.713-.392h10.487c1.424,0,1.54.046,2,1.173.137.322.989,2.437.989,2.6a.359.359,0,0,1-.368.345c-.138,0-.184-.046-.713-.781a5.6,5.6,0,0,0-4.415-2.576h-2.553a1.6,1.6,0,0,0-1.38.6c-.275.413-.275.62-.275,2.438,0,.3,0,3.426.068,3.609a.638.638,0,0,0,.553.3h2.023c2.6,0,2.6-1.564,2.6-2.576,0-.068,0-.46.367-.46.392,0,.368.392.368.575-.023.851,0,4.967,0,5.887,0,.115,0,.483-.368.483s-.367-.3-.367-.76c0-1.954-1.312-2.414-2.6-2.414h-2.023a.554.554,0,0,0-.6.53c-.022.183-.022,3.977-.022,4.322,0,1.61,0,2.736,1.655,2.736Z" fill="#333"/>
        <path id="パス_1954" data-name="パス 1954" d="M-4556.5-1757.446c-.275,0-.6,0-.6-.369s.344-.368.46-.368c.758,0,1.77,0,1.977-1.2.069-.368.069-.391.069-6.508,0-1.08,0-6-.069-6.392a1.5,1.5,0,0,0-1.7-1.173c-.438,0-.759,0-.759-.367,0-.392.345-.392.62-.392h2.369c1.449,0,1.61,0,2.99,3.978.528,1.495,3.058,8.048,3.541,9.382.069.161.207.552.39.552.231,0,.368-.414.484-.713,1.195-3.1,3.035-8.071,4.23-11.176.667-1.747.759-2.023,2.231-2.023h2.714c.229,0,.575,0,.575.392,0,.367-.392.367-.46.367-.92,0-1.748.023-1.932,1.081-.069.46-.092,5.335-.092,6.438,0,6.163.023,6.209.092,6.554.161.942.874,1.2,1.7,1.2.368,0,.691,0,.691.368s-.346.369-.6.369h-5.564c-.323,0-.667,0-.667-.369s.368-.368.5-.368c.805,0,1.794,0,2.024-1.2.069-.391.069-6.07.069-6.99s-.046-4.99-.046-5.819c0-.114,0-.367-.161-.367-.137,0-.183.069-.436.759-.53,1.356-5.013,13.268-5.313,13.98-.229.53-.345.8-.6.8s-.391-.229-.782-1.219c-.782-2.046-4.806-12.646-4.99-12.945,0-.023-.092-.184-.184-.184s-.184.115-.184.39v9.543c0,2.185,0,3.242,1.633,3.242.3,0,.643,0,.643.368s-.344.369-.6.369Z" fill="#333"/>
        <path id="パス_1955" data-name="パス 1955" d="M-4530-1758.3c-.161-.414-1.15-3.013-1.15-3.15a.488.488,0,0,1,.507-.484c.253,0,.3.115.85.966a6.792,6.792,0,0,0,5.4,3.15,3.313,3.313,0,0,0,3.4-3.471c0-2.093-1.38-2.829-4.3-3.841-3.2-1.1-5.311-2.322-5.311-5.059a4.333,4.333,0,0,1,4.6-4.461,9.17,9.17,0,0,1,1.633.184c.253.046,1.219.253,1.38.253a.876.876,0,0,0,.506-.138c.321-.253.367-.3.528-.3.276,0,.345.207.575.8.161.368,1.242,3.081,1.242,3.22a.361.361,0,0,1-.391.367c-.184,0-.23-.068-.6-.666a5.329,5.329,0,0,0-4.691-2.967,2.941,2.941,0,0,0-3.127,3.035c0,1.91,1.38,2.6,4.391,3.657,4.646,1.609,5.267,3.449,5.267,5.219a4.875,4.875,0,0,1-4.99,4.967,7.365,7.365,0,0,1-2.484-.46,3.018,3.018,0,0,0-.919-.229,1.187,1.187,0,0,0-.875.3c-.39.344-.436.39-.666.39C-4529.518-1757.01-4529.564-1757.148-4530-1758.3Z" fill="#333"/>
      </g>
    </g>
    <g id="グループ_456" data-name="グループ 456">
      <g id="グループ_455" data-name="グループ 455">
        <path id="パス_1956" data-name="パス 1956" d="M-4829.958-1900.136c0,.75-.3,1.3-1.9,2.35a138.361,138.361,0,0,0-11.55,10c-1.851,1.851-4.651,5.051-4.651,5.4,0,.2.2.3.45.3,1.1,0,7.25-2.349,8.9-3,5.349-2.049,8.05-3.049,10.1-3.049,1.1,0,4.651.649,4.651,2.45,0,1.25-1.9,1.6-2.6,1.6-.3,0-1.6-.1-1.849-.1-4,0-13.551,1.95-13.551,9.1,0,4.7,3.149,5.451,8.95,6.8,2.5.6,3,2.1,3,2.551,0,1.05-1.55,1.6-3.3,1.6-.35,0-10.651-.6-10.651-9.05a12.3,12.3,0,0,1,2.2-6.951,19.4,19.4,0,0,0,1.2-1.55c0-.05-.05-.151-.2-.151a16.479,16.479,0,0,0-3.75,2c-2.7,1.95-3.4,2.45-4.95,2.45-2.05,0-2.6-2.45-2.6-2.9,0-.95.45-1.4,1.9-2.7.45-.351,9.2-10.7,11.05-12.551,1.55-1.551,4.6-4.7,4.6-5.85a.841.841,0,0,0-.851-.85,5.849,5.849,0,0,0-3.2,1.8c-1.349,1.4-1.9,2-3.75,2-2.7,0-3.5-4.25-3.5-4.4s.05-.4.35-.4c.15,0,2.1.351,2.45.351a6.191,6.191,0,0,0,1.75-.25c4.9-1.25,5.45-1.4,6.65-1.4A4.532,4.532,0,0,1-4829.958-1900.136Z" fill="#4d4d4d"/>
        <path id="パス_1957" data-name="パス 1957" d="M-4784.7-1899.236c0,.149.1.35.1.55a38.283,38.283,0,0,1,.5,5.4c0,3.35-.75,8-5.15,14.651-4,6.1-6.55,7.3-8.55,7.3-3.3,0-6.251-5.15-6.251-11.251a17.613,17.613,0,0,1,5.551-12.75,20.686,20.686,0,0,1,15.951-6.5c4.55,0,6.65.9,8.05,1.6a15.673,15.673,0,0,1,8.7,14.551,18.647,18.647,0,0,1-12.6,17.6,30.748,30.748,0,0,1-8.3,1.851c-.2,0-.5-.05-.5-.351,0-.149.1-.2,1.349-.7,5.2-2.051,16.051-6.35,16.051-18.8,0-1.95-.2-13.85-13.851-13.85C-4784.654-1899.936-4784.7-1899.536-4784.7-1899.236Zm-16.251,15.351c0,3.25,1.3,7.7,4.349,7.7,1.45,0,2.651-.6,6.1-5.8,2.65-4.051,4.9-9.6,4.9-14.551,0-3-.2-3.251-.849-3.251C-4791.2-1899.787-4800.954-1893.336-4800.954-1883.885Z" fill="#4d4d4d"/>
        <path id="パス_1958" data-name="パス 1958" d="M-4744.82-1890.486c-.2.2-4.3,4.3-4.8,4.3a.268.268,0,0,1-.25-.25c0-.2.049-.3.649-1.051a87.374,87.374,0,0,0,10.551-18.351c.65-1.75.7-1.95.95-1.95.35,0,4.2,2.6,4.2,3.4,0,.349-.05.4-1.7,1.2-.75.4-4.9,6.849-4.95,6.95a.541.541,0,0,0-.05.25c0,.55.6.9,1,1.1.25.15.65.4.65.85,0,.4-.2.6-.85,1.25-.45.5-.45,1.4-.45,6.051,0,13.351.1,14.25.25,21.351,0,.15.05.6.05.8a2.649,2.649,0,0,1-2.35,2.851c-1.3,0-1.3-1.2-1.3-1.8,0-2.2.3-19.351.3-22.6,0-.8,0-5.25-.55-5.451C-4743.77-1891.686-4744.07-1891.336-4744.82-1890.486Zm30.653-4a2.627,2.627,0,0,0,1.55-1.45c.349-.55.9-1.45,1.45-1.45.4,0,3.8,1.4,3.8,2.35a.872.872,0,0,1-.3.6c-.15.15-.75.6-.85.75-.5.551-.5.65-.5,5.551,0,2.65,0,10.65-.6,12.45a4.962,4.962,0,0,1-3.55,3.4.578.578,0,0,1-.5-.25c-1.05-1.4-1.351-1.849-2.6-2.45-.25-.149-1.849-.649-1.849-.95,0-.25.25-.25,1.1-.25,3.2,0,4.151,0,4.6-1.85.349-1.5.349-6.2.349-12.651,0-1.35,0-2.85-.7-2.85a1.548,1.548,0,0,0-.55.1l-4.349,1.7a1.911,1.911,0,0,0-1.351,1.351c-.15.849-.15,9.3-.15,10.7,0,1.05.051,6.051.051,7.2a2.272,2.272,0,0,1-2.25,2.3c-1.051,0-1.051-1.151-1.051-1.6,0-1,.2-5.95.2-7.1,0-1.35-.05-8.05-.05-9.55,0-.4,0-1.2-.5-1.2a2.48,2.48,0,0,0-.65.149l-3.55,1.4a1.7,1.7,0,0,0-1,1.7c-.051,1.4-.1,10.95-.1,13.251,0,6.15.7,6.65,9.251,6.65,6,0,8.351-.4,9.75-1.45,1.3-.95,2.6-4.4,3.251-6.45.25-.9.3-1.1.6-1.1s.3.15.3,1.2c0,.4-.05,2.45-.05,2.9a5.858,5.858,0,0,0,.5,2.349c.75.851.851.95.851,1.351,0,.95-1.3,2.45-3.3,3.25-2.75,1.1-8.651,1.1-10.9,1.1-11.7,0-13.251-.9-13.4-6.4-.05-1.4-.05-8.951-.05-10.751,0-5.4,0-5.551-.7-5.551-.649,0-5.2,2.2-5.25,2.2a.669.669,0,0,1-.45-.149l-1.3-.75c-.15-.1-.3-.15-.3-.25s0-.15.4-.25c1.05-.3,3.751-1.2,4.85-1.6,2.651-.9,2.651-1.049,2.651-3.1,0-.4-.1-6.85-.2-8.151,0-.25-.15-1.5-.15-1.8,0-.4.15-.55.5-.55.2,0,2.2.6,3.251.849.5.151,1.35.351,1.35,1.051a.993.993,0,0,1-.3.6,6.274,6.274,0,0,0-.85.95c-.3.6-.3,1.1-.3,5.4,0,1.951,0,2.151.6,2.151a1.268,1.268,0,0,0,.55-.1l3.15-1.25c1.65-.65,1.65-1,1.65-5.45,0-1.55-.15-9.2-.15-10.951,0-.55.15-.6.45-.6s4.35.651,4.35,1.4a1.159,1.159,0,0,1-.35.649c-.9.8-1,.9-1.15,1.3-.2.7-.2,9.35-.2,10.5,0,.25,0,1,.75,1a5.166,5.166,0,0,0,.6-.15Z" fill="#4d4d4d"/>
        <path id="パス_1959" data-name="パス 1959" d="M-4673.569-1889.286a1.566,1.566,0,0,0,.951-.2c.15-.149.8-1.05,1-1.05.15,0,3.5,1.4,3.5,2.3a1.079,1.079,0,0,1-.55.8c-.85.649-.95.75-1.1,1.75a62.409,62.409,0,0,1-1.65,7.85c-.151.6-1.25,3.6-1.25,4.1,0,1.6,4.95,5.65,14.2,5.65a36.585,36.585,0,0,0,12.051-1.95c1-.349,1.15-.349,1.15-.2,0,.1-.2.3-.349.449-1.6,1.5-2.3,2.151-2.851,3.8a9.964,9.964,0,0,1-.6,1.95,21.055,21.055,0,0,1-2.85.1c-10.151,0-14.151-.6-18.852-4.05-.55-.4-2.9-2.6-3.3-2.6-.45,0-2.5,2.651-3,3.151-2.6,2.6-4.8,3.5-5.65,3.5-.1,0-.15-.1-.15-.2a7.891,7.891,0,0,1,1.3-1c2.75-1.951,5.651-6.6,5.651-7.9a2.667,2.667,0,0,0-.5-1.3c-1.6-2.75-3.551-8.5-3.551-9.55,0-.25,0-.4.15-.4s.5.3.75,1c1.05,2.85,3.451,6.85,4.1,6.85.95,0,2.45-10.2,2.45-10.651,0-.849-.55-.9-1-.9h-2a1.193,1.193,0,0,0-1.1.6c-.4.8-.7,1.349-1.75,1.349-.551,0-1.7-.349-1.7-1.3a30.038,30.038,0,0,1,1.2-3.8c.6-2,2.8-9.152,2.8-10.6,0-.551-.3-.65-.85-.65s-3.15.25-3.45.25c-.2,0-.7-1.151-.95-1.151-.6,0-3.9,6.851-3.9,7.3,0,.65.149.75,1.45,1.4.4.2,1.35.7,1.35,1.35,0,.3-.2.45-.651.8-.849.6-1,1.35-1,2.551,0,2.75.051,16.3.051,19.35,0,.8.2,4.851.2,5.751a2.025,2.025,0,0,1-.549,1.7,3.817,3.817,0,0,1-2.2.85c-.9,0-1.1-.5-1.1-1.1,0-.35.3-2.05.3-2.45.25-4.3.25-13.151.25-17.752,0-1-.151-6.2-.151-6.849,0-.451,0-1.151-.3-1.151a6.274,6.274,0,0,0-.9,1.2c-1.7,2.8-3.751,4.7-4.1,4.7-.049,0-.1,0-.1-.05a6.66,6.66,0,0,1,.65-1.351c.351-.649,2.9-6.35,4.2-10.15,2.7-7.651,3-8.5,3-10.1,0-.3.051-.5.351-.5.5,0,4.4,2.151,4.4,3,0,.151-.1.25-.25.45-.15.151-.2.2-.2.3a22.95,22.95,0,0,0,3.85.351,1.186,1.186,0,0,0,1.15-.6c.7-.9.851-.9.95-.9.151,0,2.25,1.2,2.5,1.349.351.25,1.1.7,1.1,1.3a.48.48,0,0,1-.25.4c-1.2.7-1.351.8-1.551,1.25-.149.45-3.05,10.9-3.05,11,0,.6.35.6.651.6Zm24.1-6.35c-1.1,0-1.3.5-1.3,1.3v2.2c0,.5.25,2.8.25,3.3a2.2,2.2,0,0,1-2.25,1.951c-1.15,0-1.3-.6-1.4-1.151-.151-.55-.75-.7-1.25-.7h-2.651c-.65,0-1.349.1-1.349,1.2,0,4.251.149,4.551,1.5,4.551,1.25,0,1.8-.05,2.349-.851.651-.95.9-1.3,1.451-1.3.5,0,3.75,2.35,3.75,2.8,0,.7-1,.7-2.7.7h-4.8c-1.1,0-1.351.35-1.351,1.45,0,3.2,0,3.551,1.45,3.551h1.851c1.849,0,2.8,0,3.15-.8.6-1.35.75-1.75,1.4-1.75.7,0,4.3,2.75,4.3,3.2,0,.7-1,.7-2.65.7h-8.051c-.6,0-1.349,0-1.349,1.25,0,.351.149,1.8.149,2.1,0,2.25-2.45,2.25-2.649,2.25-1.2,0-1.4-.7-1.4-1.7,0-.451.2-2.451.2-2.851,0-1-.7-1.05-1.15-1.05a41.886,41.886,0,0,0-4.4.151c-.1,0-.6.1-.7.1-.2,0-.3-.15-.449-.349l-.95-1.151c-.1-.1-.25-.25-.25-.3,0-.1.1-.15.2-.15,1,0,5.451.351,6.4.351,1.3,0,1.3-.451,1.3-2.3,0-2.151,0-2.7-1.1-2.7-.45,0-2.65.25-3,.25-.151,0-.25-.15-.45-.35l-.951-1.15c-.2-.2-.2-.25-.2-.3a.133.133,0,0,1,.15-.151c.7,0,3.6.25,4.2.25,1.2,0,1.4-.549,1.4-1.45v-3a1,1,0,0,0-1.1-1.149c-.45,0-2.55.2-2.85.2-.15,0-.2-.149-.4-.35l-1-1.1c-.2-.25-.2-.3-.2-.35,0-.1.051-.1.151-.1.5,0,3.65.25,4.3.25,1.15,0,1.15-.25,1.15-3.951,0-.95-.1-1.55-1.4-1.55-.2,0-3.55.05-5.2.15-.149,0-.9.1-1.049.1-.2,0-.25-.1-.451-.3l-.95-1.151c-.2-.25-.2-.25-.2-.349,0-.05.05-.1.149-.1.351,0,1.9.15,2.25.15,1.7.1,3.951.2,5.6.2,1.25,0,1.25-.151,1.25-3.55,0-.75-.05-1.351-1.15-1.351-.6,0-3.75.25-4.15.25-.15,0-.25-.149-.45-.349l-.95-1.151c-.1-.15-.2-.25-.2-.3a.133.133,0,0,1,.15-.151c.95,0,5.05.351,5.851.351.3,0,.9,0,.9-.9a6.085,6.085,0,0,0-.35-1.9c-.049-.25-.5-1.25-.5-1.45,0-.25.25-.3.35-.3.05,0,3,.6,3.351.65,1.149.25,1.849.4,1.849,1,0,.4-.1.451-1,1.25a1.365,1.365,0,0,0-.45,1.05c0,.6.45.6.75.6h3.3a1.475,1.475,0,0,0,1.45-.651c.25-.25.75-.75,1.05-.75.15,0,2.35,1.151,2.6,1.25.5.25,1.1.6,1.1,1.1,0,.35-1.3,1.4-1.35,1.7a2.359,2.359,0,0,0-.1.95c0,.4,0,2.051.3,2.051a3.737,3.737,0,0,0,.7-.6,1.1,1.1,0,0,1,.9-.4c.7,0,2.85,1.5,2.85,2.15,0,.75-.9.75-2.7.75Zm-5.851-1.3c1.351,0,1.351-.45,1.351-2.9,0-1.3,0-2-1.351-2h-2.95c-1.4,0-1.4.5-1.4,2.8,0,1.4,0,2.1,1.4,2.1Zm.151,6.9c.9,0,1.25-.2,1.25-1.349,0-3.8,0-4.251-1.3-4.251h-3.051c-1.3,0-1.3.45-1.3,2.2,0,3.051,0,3.4,1.35,3.4Z" fill="#4d4d4d"/>
        <path id="パス_1960" data-name="パス 1960" d="M-4631.725-1885.536c2.851,0,7.9-2.8,7.9-3.5a4.337,4.337,0,0,0-.8-1.6c-3.351-4.551-3.75-5.051-3.75-6.1,0-1.6,2.65-3.351,7.35-3.351a32.464,32.464,0,0,1,4.651.351,13.04,13.04,0,0,0,1.849.149,1.228,1.228,0,0,0,1.4-1.349c0-.25-.351-1.5-.351-1.75a.343.343,0,0,1,.351-.351c.6,0,3.6,2.1,3.6,4.8,0,.25-.25,1.2-.25,1.45,0,.15.051.449.351.449.25,0,1.25-.4,1.5-.449a20.134,20.134,0,0,1,4.85-.75c5.05,0,9.6,4.25,9.6,9,0,3-2.1,7.751-8.651,7.751a12.605,12.605,0,0,1-9.3-4.7c0-.15.149-.2.3-.2.1,0,1.8.6,2.1.7a13.334,13.334,0,0,0,4.9,1.1c2.6,0,6.8-1.35,6.8-5.55a6.013,6.013,0,0,0-6.35-6.051c-4.15,0-6.75,1.65-14.65,6.7-1.5.95-1.5,1-1.5,1.351a2.334,2.334,0,0,0,.549,1.2c3,4.85,8.25,14.7,8.25,19.1,0,1.95-1.2,3-2.25,3-1.5,0-2.15-1.451-2.15-2.951,0-3.5,0-3.849-.55-6a47.009,47.009,0,0,0-5.25-12.451c-.2-.3-.4-.6-.7-.6a10.424,10.424,0,0,0-2.1,1.3c-.549.351-4.649,3-6.2,3-.95,0-3.55-2.7-3.55-3.3a.494.494,0,0,1,.451-.5C-4633.125-1885.635-4632.374-1885.536-4631.725-1885.536Zm6.7-10.65c0,1,.2,1.35,2.251,4.551.9,1.349.95,1.5,1.35,1.5a3,3,0,0,0,1.2-.6,74.147,74.147,0,0,1,6.6-3.75c.5-.25.7-.45.7-.7,0-.2-.15-.3-1.551-.9-4.75-2.05-5.7-2.45-6.95-2.7C-4623.824-1899.236-4625.025-1897.636-4625.025-1896.186Z" fill="#4d4d4d"/>
        <path id="パス_1961" data-name="パス 1961" d="M-4575.559-1891.086a.44.44,0,0,1,.449-.4c.151,0,2.751.7,3.3.7a83.594,83.594,0,0,0,8.4-1.5c.849-.6.9-5.65.9-5.9a6.334,6.334,0,0,0-1.25-4.25c-.75-.9-.851-1-.851-1.151,0-.349.6-.4.8-.4,3.351,0,5.3,1.9,5.3,3.2,0,.1-1.9,6.451-1.9,7.4,0,.3.2.45.549.45.25,0,2.551-.25,2.951-.25,3.751,0,6.65,1.8,6.65,6.4,0,3.95-1.4,12.551-4.3,16.051-1.4,1.65-3.4,3.051-5.1,3.051-1.9,0-2.4-1.851-2.951-3.45-.1-.25-.649-1.55-.649-1.651a.237.237,0,0,1,.25-.25,9.043,9.043,0,0,1,1.25.351,15.942,15.942,0,0,0,2.55.349c1.45,0,3.3-.7,4.75-6.1a39.7,39.7,0,0,0,1.551-8.7c0-3.5-2-3.75-3.451-3.75-1.6,0-4.45.75-4.8,1.2-.2.25-.25.449-.75,2.149-2,6.8-6.851,19.1-10.9,19.1a1.471,1.471,0,0,1-1.6-1.6c0-1.05.35-1.45,3.35-4.75,1.35-1.5,3.45-3.8,6.151-11.3a13.443,13.443,0,0,0,.7-2.349c0-.151-.05-.4-.351-.4-1.1,0-5.75,2-6.75,2C-4573.259-1886.836-4575.559-1889.986-4575.559-1891.086Zm34.9,10.4c-.5,0-2.8-1.35-3.4-1.5-.25-.1-1.6-.2-1.6-.35,0-.3,1.65-1.15,1.95-1.4,1.85-1.4,2.05-1.55,2.05-2.9a6.429,6.429,0,0,0-4.05-5.75c-.4-.2-1.2-.549-1.2-.75,0-.3.2-.3.349-.3,6.4,0,8.751,6.3,8.751,8.85C-4537.807-1884.185-4538.557-1880.685-4540.657-1880.685Z" fill="#4d4d4d"/>
        <path id="パス_1962" data-name="パス 1962" d="M-4513.469-1890.286c-5.15,0-7.351-3.85-7.351-4.8,0-.25.05-.45.4-.45a13.147,13.147,0,0,1,2.05.95,12.541,12.541,0,0,0,5.15,1.35c1.9,0,5.3-.9,5.3-1.7,0-.45-1.651-1.6-2.3-2.05-1.35-.95-3.2-2.65-3.2-4.1a2.414,2.414,0,0,1,2.5-2.4c1.051,0,1.551.3,3.85,1.65a8.329,8.329,0,0,0,4.7,1.151c.6,0,3.15-.05,3.7,0a1.734,1.734,0,0,1,1.7,1.8c0,1.3-2.35,3.1-3.05,3.5-1.35.85-1.5.95-1.5,1.3a1.43,1.43,0,0,0,.6.951c2.6,2.3,9.15,8.1,9.15,13.2a3.117,3.117,0,0,1-3.3,3.35c-.9,0-1.25-.2-4.25-1.85a18.365,18.365,0,0,0-8.5-2.6c-4.85,0-7,3.95-7,5.8,0,3.2,3.15,4.45,7.4,4.45.849,0,5.1-.45,5.2-.45a2.115,2.115,0,0,1,2.45,1.95c0,2.651-4.8,2.651-5.7,2.651-4.15,0-6.351-.7-8.051-1.55a7.338,7.338,0,0,1-4.3-6.2c0-4.951,5.1-7.952,10.652-7.952a17.857,17.857,0,0,1,5.4.9c3.1.9,3.4,1,4.1,1a1.6,1.6,0,0,0,1.75-1.6c0-3.251-6.651-10.7-8.1-10.7-.3,0-5.3,1.851-6.349,2.1A14.513,14.513,0,0,1-4513.469-1890.286Zm8.8-5.9c.3,0,1.849-.5,1.849-1.6,0-.65-.149-.8-1.75-1.75-3.3-2-3.7-2.2-4.25-2.2a.928.928,0,0,0-.95.9c0,1.2,1.8,2.651,2.2,2.951C-4506.868-1897.337-4505.319-1896.186-4504.668-1896.186Z" fill="#4d4d4d"/>
        <path id="パス_1963" data-name="パス 1963" d="M-4464.573-1881.485c1.5-1.4,2.149-2.051,2.149-2.7a12.646,12.646,0,0,0-.45-1.55,16.082,16.082,0,0,1-.85-5.851c0-1.15.25-6.95.25-8.251,0-2.5-.7-3.25-1.5-4.049-1.05-1.1-1.2-1.25-1.2-1.4,0-.2,1.2-.25,1.351-.25,2.849,0,5.4,2.3,5.4,3.75,0,.45-.6,2.7-.7,3.2a47.057,47.057,0,0,0-.45,6.6c0,1.9,0,5.95,1.3,5.95.7,0,1-.2,3.7-1.9.549-.351,3.7-2.351,5.15-2.351a1.921,1.921,0,0,1,1.9,1.851c0,1.5-2.05,2.3-3.85,3-11.9,4.8-13.6,8.45-13.6,11.7,0,3.4,2.9,4.65,6.95,4.65a22.409,22.409,0,0,0,6-.9,13.591,13.591,0,0,1,3.751-.751c1.7,0,3.3,1.15,3.3,2.4,0,2.551-10.2,2.8-12.85,2.8-2.3,0-9.551,0-9.551-7.85A11.333,11.333,0,0,1-4464.573-1881.485Z" fill="#4d4d4d"/>
        <path id="パス_1964" data-name="パス 1964" d="M-4852.11-1833.886c2.25,0,2.5,0,3.2-.85,1.4-1.65,1.55-1.851,2-1.851.3,0,4.7,2.651,4.7,3.3,0,.75-1,.75-2.7.75h-15.452c-1.3,0-1.3.949-1.3,2.55,0,2.1,0,3,1.3,3h2.35c2,0,2.4-.05,2.851-.4.4-.3,1.9-2.3,2.349-2.3s4.351,2.45,4.351,3.15c0,.9-1.1.9-2.8.9h-9.1c-1.35,0-1.35,1.149-1.35,2.049,0,1.9,0,2.9,1.35,2.9h9.2c2.25,0,2.5,0,3.2-.851,1.4-1.649,1.55-1.849,2-1.849.35,0,4.7,2.7,4.7,3.349,0,.7-1,.7-2.7.7h-33.3c-4.351,0-5.8.1-6.3.151-.2,0-.9.1-1.051.1-.2,0-.3-.149-.45-.3l-1-1.2c-.149-.25-.2-.25-.2-.3,0-.1.05-.151.2-.151.351,0,1.851.151,2.2.2,2.451.1,4.5.151,6.851.151h10.65c1.3,0,1.3-.851,1.3-3,0-.9,0-1.95-1.3-1.95h-5.2c-4.349,0-5.8.1-6.3.1a7.6,7.6,0,0,1-1.05.151c-.2,0-.3-.151-.45-.351l-.95-1.149c-.2-.25-.2-.25-.2-.351,0-.05.05-.1.149-.1.351,0,1.9.15,2.2.15,2.45.15,4.5.2,6.85.2h4.9c1.3,0,1.3-.75,1.3-2.85,0-1.6,0-2.7-1.349-2.7h-9.1c-4.4,0-5.85.1-6.35.1a7.575,7.575,0,0,1-1.05.15c-.151,0-.3-.15-.45-.35l-.951-1.15c-.2-.25-.2-.25-.2-.35s.051-.1.151-.1c.349,0,1.9.149,2.2.149,2.45.1,4.55.2,6.9.2h13.8c1.8,0,3.95-4.25,3.95-7.25,0-1.151,0-1.551.5-1.551.25,0,3,1.1,3.5,1.3,1.051.4,1.8.7,1.8,1.5,0,.6-.6.649-1.051.7-.949.149-1.2.349-3.55,2.4-.4.3-2.049,1.651-2.35,1.95-.25.25-.449.4-.449.6,0,.35.4.35.949.35Zm-23.9,23.4c-4.4,0-5.8.1-6.351.15-.149,0-.9.1-1.049.1s-.25-.149-.451-.35l-.95-1.15c-.2-.25-.2-.25-.2-.35,0-.05.05-.1.149-.1.351,0,1.9.15,2.2.15,2.45.151,4.55.2,6.9.2h8.9c1.3,0,1.3-.85,1.3-2.3a9.755,9.755,0,0,0-.25-2.85,6.451,6.451,0,0,1-.3-1.25c0-.351.451-.351.7-.351.65,0,4.55.351,4.55,1.5a19.054,19.054,0,0,1-.65,1.8c-.05.35-.25,2.45-.25,2.6,0,.45.05.85,1.1.85h7.7c2.5,0,2.55,0,3.6-1.15.4-.45,1.1-1.25,1.651-1.25.7,0,4.6,2.75,4.6,3.15,0,.6-1.2.6-2.65.6h-14.2c-.6,0-.9,0-.9.351,0,.7,7.75,8.15,19.6,8.15.25,0,1.351-.05,1.551-.05.1,0,.3,0,.3.1s-1.75.9-2.05,1.1a18.354,18.354,0,0,0-3.5,2.9c-.15.3-.4.65-.65.65a30.783,30.783,0,0,1-12.8-8,27.732,27.732,0,0,1-3.151-3.8c-.15-.2-.35-.549-.6-.549s-.25.149-.6,1.049c-3.25,8.9-14,9.851-17.651,9.851-3.05,0-5.8-.55-5.8-.75,0-.05,2.25-.3,2.45-.3,13.4-1.4,17.4-7.951,17.4-9.951,0-.75-.4-.75-1.1-.75Zm7.7-23.751c-.75,0-1-.351-2.8-3.351a17.482,17.482,0,0,0-3.35-3.9c-.05-.1-.3-.3-.3-.5,0-.05.15-.1.2-.1a22.779,22.779,0,0,1,3.8,1.25c2.6,1.151,4.25,1.951,4.25,4.351C-4866.51-1835.486-4866.96-1834.236-4868.311-1834.236Z" fill="#4d4d4d"/>
        <path id="パス_1965" data-name="パス 1965" d="M-4814.665-1834.436a22.981,22.981,0,0,1-.95,2.8,120.234,120.234,0,0,0-2.1,17.8c0,5.05.95,9.55,7.65,9.55a24.644,24.644,0,0,0,10.5-2.6c.75-.351,4.55-2.451,4.75-2.451a.233.233,0,0,1,.25.25c0,.55-7.4,8.6-16.8,8.6-6.5,0-9.6-3.75-9.6-13.8,0-3.1.1-4.1,1.149-13.9.2-1.65.651-5.75.651-7.151a6.312,6.312,0,0,0-.45-2.45c-.05-.149-.55-1.3-.55-1.349,0-.351.4-.5.7-.5C-4816.865-1839.636-4814.665-1835.587-4814.665-1834.436Z" fill="#4d4d4d"/>
        <path id="パス_1966" data-name="パス 1966" d="M-4767.731-1825.286c-5.15,0-7.35-3.85-7.35-4.8,0-.25.049-.45.4-.45a13.121,13.121,0,0,1,2.05.95,12.542,12.542,0,0,0,5.15,1.35c1.9,0,5.3-.9,5.3-1.7,0-.45-1.65-1.6-2.3-2.05-1.349-.95-3.2-2.65-3.2-4.1a2.414,2.414,0,0,1,2.5-2.4c1.051,0,1.551.3,3.851,1.65a8.325,8.325,0,0,0,4.7,1.151c.6,0,3.15-.05,3.7,0a1.734,1.734,0,0,1,1.7,1.8c0,1.3-2.349,3.1-3.05,3.5-1.35.85-1.5.95-1.5,1.3a1.429,1.429,0,0,0,.6.951c2.6,2.3,9.15,8.1,9.15,13.2a3.117,3.117,0,0,1-3.3,3.35c-.9,0-1.25-.2-4.25-1.85a18.373,18.373,0,0,0-8.5-2.6c-4.851,0-7,3.95-7,5.8,0,3.2,3.149,4.45,7.4,4.45.85,0,5.1-.45,5.2-.45a2.115,2.115,0,0,1,2.45,1.95c0,2.651-4.8,2.651-5.7,2.651-4.15,0-6.35-.7-8.051-1.55a7.338,7.338,0,0,1-4.3-6.2c0-4.951,5.1-7.952,10.651-7.952a17.86,17.86,0,0,1,5.4.9c3.1.9,3.4,1,4.1,1a1.6,1.6,0,0,0,1.75-1.6c0-3.251-6.65-10.7-8.1-10.7-.3,0-5.3,1.851-6.349,2.1A14.513,14.513,0,0,1-4767.731-1825.286Zm8.8-5.9c.3,0,1.85-.5,1.85-1.6,0-.65-.15-.8-1.75-1.75-3.3-2-3.7-2.2-4.25-2.2a.928.928,0,0,0-.951.9c0,1.2,1.8,2.651,2.2,2.951C-4761.13-1832.337-4759.58-1831.186-4758.93-1831.186Z" fill="#4d4d4d"/>
        <path id="パス_1967" data-name="パス 1967" d="M-4706.79-1834.236c0,.149.1.35.1.55a38.211,38.211,0,0,1,.5,5.4c0,3.35-.75,8-5.15,14.651-4,6.1-6.55,7.3-8.55,7.3-3.3,0-6.251-5.15-6.251-11.251a17.613,17.613,0,0,1,5.551-12.75,20.687,20.687,0,0,1,15.95-6.5c4.551,0,6.651.9,8.051,1.6,5.4,2.649,8.7,8,8.7,14.551a18.647,18.647,0,0,1-12.6,17.6,30.75,30.75,0,0,1-8.3,1.851c-.2,0-.5-.05-.5-.351,0-.149.1-.2,1.349-.7,5.2-2.051,16.051-6.35,16.051-18.8,0-1.95-.2-13.85-13.85-13.85C-4706.74-1834.936-4706.79-1834.536-4706.79-1834.236Zm-16.251,15.351c0,3.25,1.3,7.7,4.349,7.7,1.451,0,2.651-.6,6.1-5.8,2.65-4.051,4.9-9.6,4.9-14.551,0-3-.2-3.251-.849-3.251C-4713.291-1834.787-4723.041-1828.336-4723.041-1818.885Z" fill="#4d4d4d"/>
        <path id="パス_1968" data-name="パス 1968" d="M-4668.766-1808.384a67.332,67.332,0,0,0,6.6-18.4c0-.5-.2-.5-1.8-.5a9.609,9.609,0,0,1-4.45-.9c-1.6-.8-2.6-2.2-2.6-2.7a.21.21,0,0,1,.2-.2,10.887,10.887,0,0,1,1.151.45,18.374,18.374,0,0,0,4.45.55c.75,0,3.15-.1,3.551-.45s.55-3.75.55-4.1a6.893,6.893,0,0,0-.6-3.1c-.2-.25-1.4-1.5-1.4-1.85,0-.5.95-1.15,2.25-1.15,2.25,0,4,2.051,4,2.65,0,.25-.55,1.25-.55,1.5,0,.951,4,1.8,4.5,1.8.2,0,1.3-.1,1.55-.1a1.43,1.43,0,0,1,1.65,1.549c0,2.8-4.25,4.251-7.551,5.151-1.7.45-1.9.5-2.1,1.4-2.55,10.9-2.6,10.95-3.651,14.2-3.45,10.4-5.25,10.4-6.2,10.4-1.2,0-1.351-1.651-1.351-2.2C-4670.567-1804.984-4670.317-1805.484-4668.766-1808.384Zm10.551-22.852c.25,0,4.05-1.351,4.05-2,0-.5-2.7-1.6-3.25-1.6-.3,0-.45.1-.55.6-.2,1-.2,1.149-.45,2.35C-4658.465-1831.536-4658.516-1831.236-4658.215-1831.236Zm3.8,21.2c1.05,4.351,6.45,5.3,10.251,5.3.849,0,4.65-.351,5.45-.351,1.7,0,4,.851,4,2.5,0,1.451-1.85,1.7-6.1,1.7-8.1,0-14.85-2.05-14.85-8.351,0-1.149.3-2.2.7-2.2C-4654.765-1811.435-4654.465-1810.185-4654.415-1810.035Zm11.05-17.4c4.75,0,8.351,1.4,8.351,3.6,0,1.2-1.05,1.2-1.45,1.2-.45,0-2.4-.151-2.8-.151a8.4,8.4,0,0,0-3.7.8,8.76,8.76,0,0,1-2.1.65c-.1,0-.25,0-.25-.149,0-.351,2.6-2.251,2.6-2.8,0-.75-3.551-.8-4.3-.8a29.313,29.313,0,0,0-3.6.2c-.3.049-1.45.2-1.65.2-.05,0-.4,0-.45-.1C-4653.065-1825.436-4648.715-1827.436-4643.365-1827.436Z" fill="#4d4d4d"/>
        <path id="パス_1969" data-name="パス 1969" d="M-4601.555-1801.234c-.851,0-.95,0-.95-.25,0-.15.149-.25,1.45-.65,6.6-2.151,15.751-6.5,15.751-15.551,0-7.8-7.451-10.2-9.7-10.2-.75,0-.85.3-2.15,3.349a42.417,42.417,0,0,1-3.8,7.151,1.3,1.3,0,0,0-.25.7.982.982,0,0,0,.75.95c1.7.9,2.25,1.3,2.25,2.5,0,1.3-1.05,1.6-1.85,1.6a4.953,4.953,0,0,1-2.8-.851c-.7-.35-.75-.4-1.05-.4-.5,0-.6.1-1.5,1.05-4.049,4.25-7.35,5.5-8.751,5.5-3.25,0-3.8-5.1-3.8-7.1,0-5.2,3.15-9.2,5.25-11.3a1.6,1.6,0,0,0,.55-1.3c0-.45-2-6.45-2.251-7.15-.149-.4-1.049-2.2-1.049-2.351,0-.05,0-.149.1-.149,1.6,0,3.85,1.75,4.05,2.7a21.492,21.492,0,0,0,1.3,4.95,1.031,1.031,0,0,0,.9.55,14.571,14.571,0,0,0,2.4-1.05,24.228,24.228,0,0,1,7.8-1.8,1.289,1.289,0,0,0,1.251-.65,11.348,11.348,0,0,0,.7-3.7,9.858,9.858,0,0,0-1.05-4.151.827.827,0,0,1-.1-.25c0-.15.4-.15.5-.15,2.25,0,4.95,1.851,4.95,3.051,0,.2-1.75,4.3-1.75,5.15,0,.8.55.9.951.95,7,1.2,11.95,6.2,11.95,12.8C-4581.5-1806.585-4592.655-1801.234-4601.555-1801.234Zm-5.6-14.651a20.442,20.442,0,0,1-3.4-5.75c-.25-.7-.45-1.2-.9-1.2-.65,0-4.05,3.451-4.05,8.5,0,2.7,1,4.5,2.15,4.5,1.85,0,6.55-4.1,6.55-5.15A1.132,1.132,0,0,0-4607.156-1815.885Zm7.6-12.25a16.365,16.365,0,0,0-7.6,1.849c-.85.5-1.35.85-1.35,1.55,0,.851,2.85,6.351,4.2,6.351.5,0,.7-.1,1.751-1.8,2.75-4.45,3.7-7.1,3.7-7.351C-4598.855-1828.135-4599.355-1828.135-4599.555-1828.135Z" fill="#4d4d4d"/>
        <path id="パス_1970" data-name="パス 1970" d="M-4544.159-1834.236c0,.149.1.35.1.55a38.283,38.283,0,0,1,.5,5.4c0,3.35-.75,8-5.15,14.651-4,6.1-6.55,7.3-8.55,7.3-3.3,0-6.251-5.15-6.251-11.251a17.613,17.613,0,0,1,5.551-12.75,20.686,20.686,0,0,1,15.95-6.5c4.551,0,6.651.9,8.051,1.6a15.673,15.673,0,0,1,8.7,14.551,18.647,18.647,0,0,1-12.6,17.6,30.748,30.748,0,0,1-8.3,1.851c-.2,0-.5-.05-.5-.351,0-.149.1-.2,1.349-.7,5.2-2.051,16.051-6.35,16.051-18.8,0-1.95-.2-13.85-13.851-13.85C-4544.11-1834.936-4544.159-1834.536-4544.159-1834.236Zm-16.251,15.351c0,3.25,1.3,7.7,4.349,7.7,1.45,0,2.651-.6,6.1-5.8,2.65-4.051,4.9-9.6,4.9-14.551,0-3-.2-3.251-.849-3.251C-4550.66-1834.787-4560.41-1828.336-4560.41-1818.885Z" fill="#4d4d4d"/>
        <path id="パス_1971" data-name="パス 1971" d="M-4489.385-1828.135c0,1.649-3.8,3.149-5,3.649-.7.25-.75.45-.85,2.2-.1,1.1-.1,5.151-.1,5.4,0,.3,0,.9.449.9.15,0,4.251-1.7,5.051-2,4.95-1.851,7.2-2,8.5-2a7.656,7.656,0,0,1,7.7,7.55c0,6.6-6.951,9.6-11.051,9.6-2.85,0-5.15-1.45-5.15-4.049a4.456,4.456,0,0,1,2.5-3.951.268.268,0,0,1,.25.25c0,.15-.1.25-.2.4a2.069,2.069,0,0,0-.451,1.35c0,2.4,2.751,2.4,3.251,2.4,3.3,0,7.5-2.2,7.5-6.2a5.18,5.18,0,0,0-4.8-5.5c-1.4,0-4.5.65-10.351,3.75-2.8,1.5-3.1,1.65-3.1,2.5,0,.549.151,2.8.151,3.3,0,2.3-.75,5.6-2.551,5.6-1.35,0-1.9-1.051-2.3-1.851-1.6-3.1-1.85-3.1-2.5-3.1a4.138,4.138,0,0,0-1.25.3,9.979,9.979,0,0,1-1.9,1c-.55,0-3.1-1.5-3.1-3.151,0-.9.551-1.95,1.45-1.95.3,0,1.75.25,2.051.25,1.35,0,2.25-.25,5.2-1.7,2.55-1.25,2.85-1.4,2.85-2.8,0-1.15-.05-5.4-.1-6.251,0-.35-.15-1.1-.7-1.1a11.626,11.626,0,0,0-2.3.451c-2.55.849-2.8.95-3.55.95-1.7,0-3.6-3.45-3.6-3.8a.354.354,0,0,1,.4-.35c.151,0,.75.2.9.2a14.638,14.638,0,0,0,2.3.25,21.872,21.872,0,0,0,6.35-1.5,37.418,37.418,0,0,0,.5-5.452,4.912,4.912,0,0,0-1.65-4,4.992,4.992,0,0,1-.7-.8c0-.451.8-.55,1.1-.55,3.351,0,5.151,2.45,5.151,3.4a20.339,20.339,0,0,1-1.05,2.6,26.429,26.429,0,0,0-.5,3.25c0,.2.1.551.4.551.351,0,1.75-.551,1.75-1.251,0-.1-.25-.6-.25-.7,0-.05.1-.15.2-.2C-4491.785-1830.386-4489.385-1829.686-4489.385-1828.135Zm-11.4,19.15c0,.75,1.35,2.351,2.1,2.351.7,0,1.4-1.4,1.4-3.851,0-.2,0-.7-.151-.8C-4497.586-1811.285-4500.786-1809.685-4500.786-1808.985Zm32.852-15.551c0,1.05-.6,2.4-1.65,2.4-.3,0-1.45-.1-1.7-.1-.25.051-1.3.351-1.5.351a.233.233,0,0,1-.25-.25,3.4,3.4,0,0,1,.15-.4,2.64,2.64,0,0,0,.2-.9c0-2-2.5-2.7-4.2-2.7a4.322,4.322,0,0,0-1.95.5,1.132,1.132,0,0,1-.5.149c-.151,0-.2-.05-.2-.2a6.393,6.393,0,0,1,5.4-3.15C-4470.284-1828.836-4467.934-1826.836-4467.934-1824.536Z" fill="#4d4d4d"/>
        <path id="パス_1972" data-name="パス 1972" d="M-4421.919-1823.586a44.1,44.1,0,0,0,12.1,3.951c.2,0,1.05.15,1.05.349,0,.151-.7.351-.9.4a8.65,8.65,0,0,0-3.8,2.7c-.149.2-.7,1.25-.95,1.25-.3,0-11.151-5.25-16.051-13.251-.95-1.6-1.1-1.75-1.45-1.75s-.45.1-1.55,1.25a59.438,59.438,0,0,1-14.8,11.651c-1.7.9-6.9,3.2-7.85,3.2-.151,0-.25-.1-.25-.15s5.35-3.351,5.8-3.65c6.751-4.25,13.9-11.9,14.6-15.651.05-.4.1-.551.45-.551.25,0,4.3,1.551,4.55,1.7.15.049.65.25.65.75a3.122,3.122,0,0,1-.2.7C-4430.42-1829.936-4426.119-1825.736-4421.919-1823.586Zm-24.1-12.451c-3.7,0-5.4.1-6.35.151-.15,0-.9.1-1.05.1s-.25-.1-.45-.3l-.951-1.149c-.2-.25-.2-.25-.2-.351s.051-.1.151-.1c.349,0,1.9.149,2.2.149,2.45.1,4.55.2,6.9.2h1.45c1.05,0,1.35-.5,1.35-1.349a8.144,8.144,0,0,0-.4-2.651,7.483,7.483,0,0,1-.3-1c0-.25.25-.35.551-.35.349,0,2.6.551,3.149.7,1.5.4,1.8.5,1.8.95,0,.3-.05.4-.75,1.3a1.224,1.224,0,0,0-.351.9c0,1.2.4,1.5,1.75,1.5h8.251c.45,0,1.5,0,1.5-1.349a20.549,20.549,0,0,0-.15-2.25c-.05-.251-.3-1.3-.3-1.5,0-.25.3-.35.55-.35.35,0,3.751.8,4.3.95s.849.35.849.8c0,.3-.2.5-.75.9a1.6,1.6,0,0,0-.649,1.4c0,1.4.8,1.4,1.6,1.4h2.551c2.2,0,2.45,0,3.2-.849,1.4-1.651,1.55-1.851,2-1.851.3,0,4.651,2.651,4.651,3.3,0,.7-1,.7-2.651.7h-9.751c-1.549,0-1.549.8-1.549,2,0,.3.049,2,.049,2.25,0,1.85-1.5,2.15-2.549,2.15-1.151,0-1.351-.2-1.351-1.9v-3.45c-.149-.95-.75-1.051-1.55-1.051h-8c-1.149,0-1.849,0-1.849,1.4,0,.5.15,2.7.15,3.15,0,.95-.15,1.4-.6,1.7a3.546,3.546,0,0,1-1.9.7c-.85,0-1.25-.55-1.25-1.55,0-.4.051-2.3.051-2.65,0-1.95,0-2.751-1.551-2.751Zm3.55,25.552a25.555,25.555,0,0,1,3.851,2.351,1.238,1.238,0,0,1,.4.75c0,.6-.4.7-1.6,1-.15.049-4.45,3.4-5.25,4-4.5,3.2-7.35,4.35-7.6,4.35a.16.16,0,0,1-.151-.15c0-.1,2.651-2.4,3-2.75,4.151-3.95,6.7-7.9,7.152-9.5A.3.3,0,0,1-4442.471-1810.485Zm2.3-2.65c-3.9,0-5.351.05-6.351.15-.15,0-.9.1-1.05.1s-.25-.1-.45-.3l-.95-1.15c-.2-.25-.2-.25-.2-.35,0-.05.05-.1.15-.1.35,0,1.9.15,2.2.15,2.451.15,4.55.2,6.9.2h3.75c.5,0,1.5,0,1.5-1.35,0-.6-.3-4.65-.4-5.15,0-.1-.3-.6-.3-.7s.1-.3.5-.3c.35,0,3.85.75,4.35.9.7.151.95.6.95.851,0,.3-.1.4-.85,1.05-.7.6-.7.9-.7,2.4,0,1.8,0,2.3,1.5,2.3h2.2c2.2,0,2.45,0,3.2-.85,1.4-1.65,1.551-1.85,2-1.85.3,0,4.65,2.7,4.65,3.3,0,.7-1,.7-2.65.7h-9.451c-1.5,0-1.5.9-1.5,2.5,0,3.549,0,5.549.1,8.5.05.85.05,2.049.05,2.65,0,1.6-.4,2.55-2.551,2.55-1.1,0-1.2-.9-1.2-1.75,0-.651.15-3.651.15-4.3.049-1.9.049-3.751.049-6.051a30.573,30.573,0,0,0-.1-3.4c-.25-.7-1.05-.7-1.45-.7Zm13.35,4.2c0-.151.25-.2.451-.2,1.849,0,13.251,3.149,13.251,7.3,0,1.6-.9,2.851-2.151,2.851-.95,0-1.15-.25-2.7-2.55-2.351-3.551-5.8-5.6-8.6-7.2C-4426.619-1808.735-4426.82-1808.884-4426.82-1808.934Z" fill="#4d4d4d"/>
      </g>
    </g>
  </g>
</svg>
