<svg id="lineup_shiny_howto_sp" xmlns="http://www.w3.org/2000/svg" width="594" height="55" viewBox="0 0 594 55">
  <rect id="長方形_51" data-name="長方形 51" width="594" height="55" fill="#fff100" opacity="0"/>
  <path id="パス_2075" data-name="パス 2075" d="M-5012.556-729.358c.92-.2.92-.6.92-1.64,0-1.919-.08-2.6-.4-3.16-.161-.279-1.161-1.4-1.161-1.719,0-.36.961-.4,1.241-.4.64,0,1.119.04,2.84,1.04.839.48.959.56.959,1.079a6.264,6.264,0,0,1-.479,1.2,6.657,6.657,0,0,0-.24,2c0,.68.16,1.28,1.16,1.28a26.209,26.209,0,0,0,4.719-.4,16.07,16.07,0,0,1,1.92-.8c.4,0,3.478,1.88,3.478,2.639a.86.86,0,0,1-.4.761c-.719.52-.8.6-.959,1.119-1.2,3.4-4.4,12.4-12.918,18.077a16.891,16.891,0,0,1-4.68,2.32c-.119,0-.24-.08-.24-.16s.041-.16.32-.32a37.279,37.279,0,0,0,4-3.16,31.387,31.387,0,0,0,10.278-17.477c0-.839-.68-.839-1.239-.839-3.56,0-9.439.359-11.318.6-3,.4-3,.72-3,1.361,0,.119.16,1.559.2,1.759a52.867,52.867,0,0,1,.561,6.079c0,.76,0,2.039-.92,2.039-1,0-1.641-1.319-1.8-2.519-.041-.2-.041-2.879-.041-3.2a12.707,12.707,0,0,0-2.2-7.159,2.535,2.535,0,0,1-.481-.92c0-.32.721-.52,1.4-.52a3.965,3.965,0,0,1,2.2.68c1,.639,1.32.8,1.92.8C-5016.275-728.918-5013.4-729.2-5012.556-729.358Z" transform="translate(5043.03 749.28)" fill="#4d4d4d"/>
  <path id="パス_2076" data-name="パス 2076" d="M-4974.671-722.759a1.633,1.633,0,0,1-1.559,1.719c-1,0-1.32-1-1.679-2.08a19.418,19.418,0,0,0-2.881-5.079c-.28-.319-.321-.439-.321-.519a.4.4,0,0,1,.481-.321C-4978.591-728.8-4974.671-726.159-4974.671-722.759Zm20.476-6.679c0,.24-.08.319-.92.76-.48.28-2.2,3.639-2.6,4.319-7.639,12.678-19.436,17.4-19.957,17.4a.186.186,0,0,1-.2-.2,8.478,8.478,0,0,1,1.2-.96,68.828,68.828,0,0,0,8.478-7.2c2.881-2.879,9.4-10.6,9.4-15.677a5.24,5.24,0,0,0-.36-1.959,1.577,1.577,0,0,1-.119-.4c0-.16.119-.24.28-.24C-4958.954-733.6-4954.195-731.6-4954.195-729.438Zm-12.957,1.319c0,1.36-.72,2.36-1.519,2.36-.961,0-1.2-1.159-1.361-2a19.007,19.007,0,0,0-1.84-4.64,9.088,9.088,0,0,1-.52-1.079c0-.121.24-.121.32-.121C-4969.751-733.2-4967.152-730.8-4967.152-728.119Z" transform="translate(5043.03 749.28)" fill="#4d4d4d"/>
  <path id="パス_2077" data-name="パス 2077" d="M-4931.4-734.877c0-.4.559-.4.879-.4a3.738,3.738,0,0,1,3.721,2.239c0,.48-.4,1-1.2,2-.2.28-.321.44-.321.64,0,.32.481.32.641.32a22.622,22.622,0,0,0,6.078-1.6,7.5,7.5,0,0,1,1.881-.64c.359,0,.561.12,2.2,1.08.24.12,1.279.68,1.481.8a1.451,1.451,0,0,1,.759,1c0,.56-.281.72-1.6,1.52-.442.279-.6.519-2,2.679A48.9,48.9,0,0,1-4933.2-710.2a27.334,27.334,0,0,1-7.959,3.84.358.358,0,0,1-.359-.36c0-.16.121-.24,1.359-.92,12.2-6.719,19.8-20.356,19.8-21.6a.433.433,0,0,0-.439-.44c-.08,0-5.6,1.24-6.559,1.24-.24,0-1.32-.12-1.56-.12-.76,0-.84.08-2.52,2a29.99,29.99,0,0,1-5.439,5.2,12.234,12.234,0,0,1-3.838,2.12c-.2,0-.281-.12-.281-.24a33.8,33.8,0,0,1,3.16-3c3.24-3.24,7.039-8.759,6.719-11.158C-4931.156-733.837-4931.4-734.717-4931.4-734.877Z" transform="translate(5043.03 749.28)" fill="#4d4d4d"/>
  <path id="パス_2078" data-name="パス 2078" d="M-4892.724-722.8c0,.8-.6,2-1.56,2-.6,0-.8-.24-1.4-1.24a9.7,9.7,0,0,0-3.64-3.319c-.12-.08-.36-.24-.36-.4,0-.56,2.279-.6,2.8-.6C-4895.163-726.359-4892.724-724.759-4892.724-722.8Zm-4.92,12.4c-.119-.2-.84-1.04-.959-1.24a1.708,1.708,0,0,1-.24-.76c0-.16.121-.28.359-.28.362,0,1.881.52,2.2.52,1.718,0,12.476-6,22.035-16.837a19.077,19.077,0,0,1,1.72-1.8.147.147,0,0,1,.161.16c0,.44-3.52,9-20.079,20.6-.478.319-2.4,2.119-2.918,2.119C-4896.243-707.922-4896.644-708.562-4897.644-710.4Zm9.719-20.357c0,.92-.639,1.8-1.279,1.8-.44,0-.641-.161-2.08-1.88a6.952,6.952,0,0,0-3.44-2.119c-.16-.041-.6-.161-.6-.281s1.119-.76,3.08-.76C-4887.925-734-4887.925-730.878-4887.925-730.758Z" transform="translate(5043.03 749.28)" fill="#4d4d4d"/>
  <path id="パス_2079" data-name="パス 2079" d="M-4834.87-724.759a35.21,35.21,0,0,0,9.677,3.159c.161,0,.84.121.84.28,0,.12-.558.28-.719.321a6.916,6.916,0,0,0-3.039,2.159c-.121.16-.56,1-.759,1-.241,0-8.92-4.2-12.838-10.6-.762-1.28-.881-1.4-1.16-1.4s-.362.08-1.241,1a47.514,47.514,0,0,1-11.838,9.318c-1.359.72-5.519,2.56-6.279,2.56-.119,0-.2-.08-.2-.121s4.279-2.679,4.639-2.918c5.4-3.4,11.117-9.519,11.677-12.519.041-.319.08-.439.36-.439.2,0,3.439,1.239,3.64,1.359.119.04.52.2.52.6a2.5,2.5,0,0,1-.16.56C-4841.669-729.838-4838.23-726.479-4834.87-724.759Zm-19.278-9.958c-2.959,0-4.318.08-5.078.12-.121,0-.721.08-.84.08s-.2-.08-.359-.24l-.762-.92c-.158-.2-.158-.2-.158-.28s.039-.08.119-.08c.279,0,1.52.12,1.76.12,1.959.08,3.639.16,5.519.16h1.161c.839,0,1.078-.4,1.078-1.08a6.522,6.522,0,0,0-.319-2.119,5.972,5.972,0,0,1-.24-.8c0-.2.2-.281.44-.281.279,0,2.08.44,2.519.56,1.2.32,1.44.4,1.44.76,0,.24-.039.32-.6,1.04a.976.976,0,0,0-.279.72c0,.96.318,1.2,1.4,1.2h6.6c.359,0,1.2,0,1.2-1.08a16.919,16.919,0,0,0-.119-1.8c-.041-.2-.24-1.039-.24-1.2,0-.2.24-.281.439-.281.281,0,3,.64,3.439.76s.68.28.68.64c0,.24-.16.4-.6.72a1.283,1.283,0,0,0-.52,1.12c0,1.12.641,1.12,1.279,1.12h2.041c1.758,0,1.959,0,2.559-.68,1.119-1.32,1.24-1.479,1.6-1.479.24,0,3.718,2.119,3.718,2.639,0,.56-.8.56-2.119.56h-7.8c-1.24,0-1.24.639-1.24,1.6,0,.241.041,1.6.041,1.8,0,1.48-1.2,1.72-2.039,1.72-.92,0-1.08-.16-1.08-1.52v-2.759c-.121-.76-.6-.84-1.24-.84h-6.4c-.92,0-1.48,0-1.48,1.119,0,.4.121,2.16.121,2.52,0,.76-.121,1.12-.481,1.36a2.84,2.84,0,0,1-1.519.56c-.68,0-1-.44-1-1.24,0-.32.039-1.84.039-2.12,0-1.56,0-2.2-1.24-2.2Zm2.84,20.436a20.47,20.47,0,0,1,3.08,1.88.992.992,0,0,1,.321.6c0,.48-.321.56-1.282.8-.119.04-3.558,2.719-4.2,3.2a24.622,24.622,0,0,1-6.078,3.479.126.126,0,0,1-.119-.119c0-.08,2.119-1.92,2.4-2.2,3.321-3.159,5.36-6.319,5.719-7.6A.242.242,0,0,1-4851.308-714.281Zm1.84-2.119c-3.119,0-4.279.04-5.078.119-.121,0-.721.08-.84.08s-.2-.08-.361-.239l-.76-.92c-.16-.2-.16-.2-.16-.28,0-.04.041-.08.121-.08.279,0,1.519.12,1.76.12,1.959.12,3.638.16,5.517.16h3c.4,0,1.2,0,1.2-1.08,0-.48-.24-3.72-.32-4.119,0-.08-.24-.481-.24-.56s.08-.24.4-.24c.28,0,3.078.6,3.479.72.56.12.759.479.759.679,0,.241-.08.321-.679.84-.561.48-.561.72-.561,1.92,0,1.44,0,1.84,1.2,1.84h1.76c1.76,0,1.959,0,2.559-.68,1.119-1.32,1.24-1.48,1.6-1.48.241,0,3.719,2.16,3.719,2.64,0,.56-.8.56-2.119.56h-7.559c-1.2,0-1.2.719-1.2,2,0,2.84,0,4.44.08,6.8.039.68.039,1.64.039,2.12,0,1.279-.32,2.039-2.039,2.039-.879,0-.959-.72-.959-1.4,0-.52.119-2.92.119-3.44.039-1.519.039-3,.039-4.839a24.941,24.941,0,0,0-.078-2.719c-.2-.56-.839-.56-1.16-.56Zm10.678,3.359c0-.12.2-.16.361-.16,1.479,0,10.6,2.52,10.6,5.839,0,1.28-.721,2.28-1.721,2.28-.76,0-.92-.2-2.158-2.04a19.033,19.033,0,0,0-6.879-5.759C-4838.63-712.881-4838.79-713-4838.79-713.041Z" transform="translate(5043.03 749.28)" fill="#4d4d4d"/>
  <path id="パス_2080" data-name="パス 2080" d="M-4796.384-733.278c0,.12.078.28.078.441a30.6,30.6,0,0,1,.4,4.319c0,2.679-.6,6.4-4.119,11.718-3.2,4.879-5.238,5.839-6.838,5.839-2.64,0-5-4.12-5-9a14.085,14.085,0,0,1,4.44-10.2,16.544,16.544,0,0,1,12.758-5.2,13.05,13.05,0,0,1,6.439,1.279,12.539,12.539,0,0,1,6.959,11.639,14.914,14.914,0,0,1-10.078,14.077,24.571,24.571,0,0,1-6.641,1.48c-.158,0-.4-.04-.4-.28,0-.12.08-.16,1.08-.56,4.158-1.64,12.838-5.079,12.838-15.037,0-1.56-.16-11.078-11.078-11.078C-4796.345-733.837-4796.384-733.518-4796.384-733.278Zm-13,12.279c0,2.6,1.039,6.158,3.478,6.158,1.161,0,2.12-.48,4.879-4.639,2.119-3.239,3.92-7.679,3.92-11.638,0-2.4-.16-2.6-.679-2.6C-4801.583-733.717-4809.382-728.558-4809.382-721Z" transform="translate(5043.03 749.28)" fill="#4d4d4d"/>
  <path id="パス_2085" data-name="パス 2085" d="M-4585.638-716.88c-1.041,0-1.041.6-1.041,1.08,0,.959.041,5.079.041,5.919,0,.239,0,.8.639.8.32,0,3.6-1.36,3.959-1.52a.869.869,0,0,0,.56-.72,7.948,7.948,0,0,0-1.279-2.48,8.255,8.255,0,0,1-.8-1.079c0-.04.08-.04.121-.04.76,0,5.879,2.4,5.879,5.678,0,1.12-.56,1.92-1.32,1.92-.719,0-.879-.4-1.52-1.88-.24-.6-.359-.92-.8-.92-.52,0-7.678,4.68-7.957,5.32-.4.8-.442.92-.84.92-.68,0-1.68-3.2-1.68-3.48s.16-.36.439-.36c2.081,0,2.081-.24,2.081-1.96v-12c0-2.759,0-6.838-.641-6.838-.16,0-2.8,2.119-3.039,2.119-.08,0-.121,0-.121-.08,0-.04,1.08-1.4,1.281-1.68a61.511,61.511,0,0,0,6.879-11.118c.2-.76.2-.84.519-.84.241,0,3.12,1.4,3.12,2.24a.607.607,0,0,1-.36.52c-.24.12-.4.2-.4.4s0,.2,1.2.68c.76.28,4.68,1.88,4.68,4.759a1.315,1.315,0,0,1-1.321,1.48c-.4,0-.92-.12-1.679-1.72-.719-1.52-3.158-4.439-3.68-4.439-.318,0-.52.28-.719.56a53.41,53.41,0,0,1-5.279,6.119c-.121.08-.2.16-.2.28s.078.159,1,.64c1.2.6,1.32.68,1.881.68,1.16,0,1.2-.361,1.2-1.2a8.732,8.732,0,0,0-.2-2.4c-.041-.2-.321-.96-.321-1.12,0-.08.08-.2.4-.2s3.4.439,3.4,1.4c0,.12-.439.6-.519.72-.161.32-.161.48-.161,1.639,0,.561,0,1.161.84,1.161.881,0,1,0,1.321-.321.718-.84.959-1.079,1.279-1.079.279,0,2.16,1.159,2.16,1.88,0,.239-.68,1.119-.76,1.319a10.028,10.028,0,0,0-.121,1.96c0,1.079.121,6,.121,6.959,0,.76,0,2.16-1.679,2.16-.881,0-.961-.48-1.041-1.161-.12-.679-.8-.679-1.08-.679Zm4.6-6.24c1.041,0,1.041-.559,1.041-1.439,0-1.92,0-2.319-1.041-2.319h-4.6c-1.041,0-1.041.6-1.041,1.439,0,1.96,0,2.319,1.041,2.319Zm-.08,5.16c1.041,0,1.121,0,1.121-3.16,0-.92-.6-.92-1.041-.92h-4.6c-1.041,0-1.041.36-1.041,1.56,0,2.28,0,2.52,1.041,2.52Zm19-12.158a1.119,1.119,0,0,0,1.2-.64c.56-.92.6-1.04.881-1.04.318,0,3.918,1.92,3.918,2.84,0,.8-.44.839-2.639,1.12a4.675,4.675,0,0,0-2.641,1.279c-.08.04-.478.32-.519.32s-.08,0-.08-.04c0-.2.56-1.84.56-2.2,0-.6-.4-.6-.759-.6h-3.44c-.56,0-1.08.04-1.08,1,0,12.119,9,20.038,9.438,20.4.281.24,1.759,1.28,1.759,1.48,0,.12-.679.24-.718.24a7.1,7.1,0,0,0-2.4.8,3.856,3.856,0,0,1-.879.521c-.8,0-5.439-5.52-7.439-17.277-.039-.121-.119-.64-.24-.64-.161,0-.2.359-.241.76-.6,4.839-2.359,13.037-10.158,16.556a7.489,7.489,0,0,1-2.838.761c-.16,0-.2,0-.2-.12a4.25,4.25,0,0,1,.881-.561c2.119-1.079,6.318-3.239,8.437-10.478a45.05,45.05,0,0,0,1.68-12.117c0-.72,0-1.321-.92-1.321s-1,.121-1.76,1.241a32.69,32.69,0,0,1-3.279,4.2.105.105,0,0,1-.119-.12c0-.24,1.24-2.92,1.479-3.48.88-2.239,3.359-9.038,3.359-11.278,0-1.159,0-1.359.521-1.359.559,0,3.879,1.6,3.879,2.239,0,.32-.121.4-.84.84-.48.32-3.2,6.239-3.2,6.239,0,.44.44.44.68.44Z" transform="translate(5043.03 749.28)" fill="#4d4d4d"/>
  <path id="パス_2086" data-name="パス 2086" d="M-4530.64-733.917c-.521,0-2.2,1.439-2.84,2-.519.48-2.041,1.84-3.08,1.84-1.48,0-2.6-2.839-2.6-2.96,0-.24.08-.4.32-.4s1.16.159,1.359.159c1.28,0,1.76-.08,4.16-1.6a6.868,6.868,0,0,1,3.838-1.32c2.641,0,3.241,1.8,3.241,2.4,0,.84-.36,1.319-2.44,3.239a36.359,36.359,0,0,0-5.879,8.119c0,.2.279.239.4.239.519,0,2.759-.04,3.238,0a32.38,32.38,0,0,1,7.558,1.6,1.6,1.6,0,0,0,.641.16c.52,0,.76-3.279.76-3.679,0-.32-.24-2.08-.24-2.24,0-.24.279-.24.439-.24.121,0,3.6.641,3.6,2.2a8.717,8.717,0,0,1-.879,1.56c0,.08-.561,3.279-.561,3.4,0,.52.24.64.92,1,1.561.84,5.2,2.72,5.2,4.8a1.549,1.549,0,0,1-1.48,1.52c-.8,0-1.238-.32-4.039-2.72-.08-.039-1.24-1.039-1.639-1.039-.32,0-.441.279-.56.479a17.259,17.259,0,0,1-7.838,7.4,14.745,14.745,0,0,1-4.321,1.6c-.039,0-.32,0-.32-.12a6.244,6.244,0,0,1,.76-.56c3.961-2.719,5.92-4.319,8.24-7.918a7.358,7.358,0,0,0,1.2-2.28c0-.36,0-.56-2.2-1.64a17.322,17.322,0,0,0-7.359-1.8c-2.481,0-2.561.16-3.241,1.6-3.439,7.319-4.119,8.8-6.638,8.8-2.039,0-2.639-2.2-2.639-3.2,0-3.4,3.559-6.439,7.758-7.919a1.444,1.444,0,0,0,1-.8c.92-1.479,5.92-9.038,6.119-9.4a5.633,5.633,0,0,0,.52-1.8A.514.514,0,0,0-4530.64-733.917Zm-13.4,19.276c0,.68.32,1.16,1.039,1.16,2.2,0,4.8-5.879,4.8-6.039,0-.12-.04-.2-.159-.2C-4539.8-719.72-4544.038-717-4544.038-714.641Z" transform="translate(5043.03 749.28)" fill="#4d4d4d"/>
  <path id="パス_2087" data-name="パス 2087" d="M-4498.82-730.6c-.918,0-3.677,0-5.078.08a6.059,6.059,0,0,1-.84.12c-.119,0-.2-.12-.359-.28l-.76-.92c-.16-.16-.16-.2-.16-.24a.1.1,0,0,1,.119-.119c.28,0,1.52.119,1.8.159,1.8.08,3.6.12,5.479.12h7.837c1.161,0,1.161-.52,1.161-2.8a25.069,25.069,0,0,0-.2-3.68c-.041-.24-.281-1.2-.281-1.4,0-.239.281-.239.442-.239s4.238.84,4.238,1.759c0,.4-.08.44-.76,1.08-.519.44-.56,1.48-.56,2.12,0,3,.24,3.159,1.281,3.159h7.959c1.478,0,1.879,0,2.4-.6.24-.36,1.28-2.239,1.68-2.239.6,0,3.8,2.759,3.8,3.319,0,.6-.76.6-2.119.6H-4489.7c-.44,0-.6,0-.6.16,0,.28.16.28,1.719.52.6.08,1.759.32,1.759.879,0,.321-1.119,1.321-1.238,1.6a11.079,11.079,0,0,0-.64,2.919c0,.8.839.8,1,.8h8.837a1.9,1.9,0,0,0,1.68-.6,4.794,4.794,0,0,1,.92-.8c.2,0,3.481,2,3.481,2.56,0,.319-1.041,1.239-1.161,1.479-.439.8-.961,4.8-1.119,5.6-1.24,5.72-2.48,7.839-3.72,9.279a7.908,7.908,0,0,1-4.6,2.64c-.479,0-.479-.28-.479-.641,0-1.719-2.08-3-3.32-3.639-.92-.48-1.039-.52-1.039-.64,0-.08.039-.32.4-.32a6.732,6.732,0,0,1,1.639.44,12.091,12.091,0,0,0,3.16.52c1.68,0,3.52-1,4.8-6.279a40.917,40.917,0,0,0,1.039-7.479c0-1.039-.68-1.039-1.279-1.039h-9.4c-1.119,0-1.2.2-1.679,2.279-3.119,13-13.319,15.478-13.838,15.478-.119,0-.36,0-.36-.12,0-.161.481-.44.959-.68a23.7,23.7,0,0,0,8.6-9.639,37.59,37.59,0,0,0,2.92-12.637c0-2.64-.682-2.64-1.481-2.64Z" transform="translate(5043.03 749.28)" fill="#4d4d4d"/>
  <g id="グループ_537" data-name="グループ 537" transform="translate(-795.415 -1633.393)">
    <path id="パス_2251" data-name="パス 2251" d="M1092.671,1654.331c0,1.3-3,2.49-3.952,2.885-.553.2-.593.356-.671,1.739-.08.87-.08,4.071-.08,4.269,0,.238,0,.713.355.713.119,0,3.36-1.345,3.993-1.582,3.913-1.462,5.691-1.581,6.719-1.581a6.052,6.052,0,0,1,6.088,5.969c0,5.217-5.495,7.59-8.736,7.59-2.253,0-4.071-1.146-4.071-3.2a3.521,3.521,0,0,1,1.976-3.122.213.213,0,0,1,.2.2c0,.119-.08.2-.158.316a1.636,1.636,0,0,0-.355,1.067c0,1.9,2.174,1.9,2.569,1.9,2.61,0,5.93-1.739,5.93-4.9a4.1,4.1,0,0,0-3.794-4.349c-1.108,0-3.558.515-8.184,2.965-2.212,1.186-2.449,1.3-2.449,1.976,0,.435.117,2.214.117,2.609,0,1.818-.593,4.428-2.016,4.428-1.067,0-1.5-.83-1.818-1.462-1.266-2.452-1.462-2.452-1.976-2.452a3.284,3.284,0,0,0-.988.237,7.784,7.784,0,0,1-1.5.791c-.434,0-2.449-1.186-2.449-2.49,0-.711.434-1.541,1.145-1.541.237,0,1.385.2,1.622.2,1.066,0,1.779-.2,4.109-1.344,2.017-.988,2.254-1.107,2.254-2.214,0-.91-.04-4.27-.079-4.942,0-.277-.119-.87-.553-.87a9.244,9.244,0,0,0-1.818.356c-2.017.672-2.213.751-2.807.751-1.343,0-2.844-2.727-2.844-3a.279.279,0,0,1,.315-.277c.119,0,.593.158.711.158a11.49,11.49,0,0,0,1.818.2,17.266,17.266,0,0,0,5.021-1.186,29.573,29.573,0,0,0,.4-4.308,3.882,3.882,0,0,0-1.3-3.163,3.957,3.957,0,0,1-.553-.632c0-.356.633-.435.87-.435,2.648,0,4.072,1.937,4.072,2.688a15.885,15.885,0,0,1-.831,2.056,21.094,21.094,0,0,0-.394,2.569c0,.158.078.435.315.435.277,0,1.385-.435,1.385-.988,0-.079-.2-.474-.2-.553,0-.04.078-.119.157-.158C1090.775,1652.552,1092.671,1653.106,1092.671,1654.331Zm-9.012,15.139c0,.593,1.067,1.858,1.66,1.858.553,0,1.107-1.107,1.107-3.043,0-.158,0-.553-.119-.632C1086.189,1667.651,1083.66,1668.916,1083.66,1669.47Zm25.97-12.293c0,.83-.474,1.9-1.3,1.9-.237,0-1.146-.079-1.344-.079-.2.04-1.028.277-1.187.277a.184.184,0,0,1-.2-.2,2.719,2.719,0,0,1,.119-.316,2.107,2.107,0,0,0,.158-.711c0-1.581-1.976-2.134-3.321-2.134a3.435,3.435,0,0,0-1.542.4.883.883,0,0,1-.4.119c-.119,0-.158-.039-.158-.158a5.057,5.057,0,0,1,4.27-2.49C1107.772,1653.777,1109.629,1655.358,1109.629,1657.177Z" transform="translate(0 0.154)" fill="#4d4d4d"/>
    <path id="パス_2252" data-name="パス 2252" d="M1122.734,1653.718a5.418,5.418,0,0,1-.474,1.581,13.959,13.959,0,0,0-.949,5.1c0,3.993,2.055,6.878,3.28,6.878.673,0,.83-.2,2.016-2.174.237-.4.91-1.344,1.225-1.344.12,0,.2.158.2.316a4.624,4.624,0,0,1-.12.79,11.137,11.137,0,0,0-.514,3,5.373,5.373,0,0,0,.237,1.581,9.787,9.787,0,0,1,.317,1.3c0,.791-.831,1.225-1.5,1.225-2.53,0-7.509-4.15-7.509-11.7,0-1.107.552-5.968.552-7a10.924,10.924,0,0,0-.277-2.294,5.368,5.368,0,0,1-.315-1.344c0-.119.158-.158.237-.158C1120.955,1649.488,1122.734,1652.651,1122.734,1653.718Zm19.289.909a9.834,9.834,0,0,1,3.519,7.55c0,.751-.079,2.609-1.976,2.609-1.937,0-1.937-2.135-1.937-2.648,0-3.281,0-4.942-2.1-7.036-.316-.316-1.9-1.541-1.9-1.778,0-.119.157-.2.355-.2A7.689,7.689,0,0,1,1142.023,1654.627Z" transform="translate(5.362 0.529)" fill="#4d4d4d"/>
    <path id="パス_2253" data-name="パス 2253" d="M1163.484,1649.5a18.2,18.2,0,0,1-.751,2.214,95.034,95.034,0,0,0-1.66,14.072c0,3.992.751,7.55,6.047,7.55a19.475,19.475,0,0,0,8.3-2.056c.593-.277,3.6-1.937,3.755-1.937a.185.185,0,0,1,.2.2c0,.435-5.851,6.8-13.282,6.8-5.139,0-7.59-2.965-7.59-10.91,0-2.45.08-3.242.909-10.989.159-1.3.514-4.546.514-5.653a4.974,4.974,0,0,0-.355-1.937c-.04-.119-.435-1.028-.435-1.067,0-.277.315-.4.552-.4C1161.745,1645.393,1163.484,1648.594,1163.484,1649.5Z" transform="translate(10.481)" fill="#4d4d4d"/>
    <path id="パス_2254" data-name="パス 2254" d="M1194.373,1653.718a5.4,5.4,0,0,1-.475,1.581,13.984,13.984,0,0,0-.949,5.1c0,3.993,2.057,6.878,3.282,6.878.672,0,.83-.2,2.016-2.174.237-.4.909-1.344,1.225-1.344.119,0,.2.158.2.316a4.747,4.747,0,0,1-.12.79,11.093,11.093,0,0,0-.514,3,5.332,5.332,0,0,0,.237,1.581,9.921,9.921,0,0,1,.316,1.3c0,.791-.83,1.225-1.5,1.225-2.53,0-7.51-4.15-7.51-11.7,0-1.107.552-5.968.552-7a11.005,11.005,0,0,0-.277-2.294,5.365,5.365,0,0,1-.315-1.344c0-.119.157-.158.237-.158C1192.594,1649.488,1194.373,1652.651,1194.373,1653.718Zm19.289.909a9.837,9.837,0,0,1,3.518,7.55c0,.751-.078,2.609-1.976,2.609-1.935,0-1.935-2.135-1.935-2.648,0-3.281,0-4.942-2.1-7.036-.316-.316-1.9-1.541-1.9-1.778,0-.119.158-.2.356-.2A7.692,7.692,0,0,1,1213.662,1654.627Z" transform="translate(14.622 0.529)" fill="#4d4d4d"/>
  </g>
</svg>
