<svg id="lineup_refreshing_howto" xmlns="http://www.w3.org/2000/svg" width="481.558" height="32.098" viewBox="0 0 481.558 32.098">
  <g id="グループ_199" data-name="グループ 199" transform="translate(-721.811 -1753.748)">
    <path id="パス_996" data-name="パス 996" d="M736.2,1762.813c-.244,0-7.6,1.716-7.771,1.785a14.932,14.932,0,0,1-1.575.666,7.316,7.316,0,0,1-2.38-1.26,7.136,7.136,0,0,1-.84-2.031c0-.174.035-.28.21-.28.034,0,.8.211.91.245a6.214,6.214,0,0,0,1.855.351c1.19,0,7.771-.561,9.591-1.3a13.317,13.317,0,0,1,1.926-1.085c.839,0,2.975,1.785,2.975,2.661,0,.315-1.3,1.26-1.506,1.505-.7.84-3.465,4.936-4.025,5.74a1.15,1.15,0,0,0-.279.7c0,.315.069.385,1.54,1.19,1.575.911,7.84,4.446,7.84,7.631a1.512,1.512,0,0,1-1.435,1.541c-.8,0-.945-.245-2.17-2.416-2.415-4.235-5.5-6.9-6.266-6.9-.35,0-.455.106-1.225.981a35.158,35.158,0,0,1-9.346,7.49,8.588,8.588,0,0,1-2.17.806c-.07,0-.245,0-.245-.21a10.749,10.749,0,0,1,1.61-1.3c9.136-6.615,13.3-15.681,13.2-16.241A.4.4,0,0,0,736.2,1762.813Z" fill="#4d4d4d"/>
    <path id="パス_997" data-name="パス 997" d="M762.248,1772.825a1.274,1.274,0,0,1-1.191,1.33c-.77,0-1.015-.806-1.26-1.575a12.535,12.535,0,0,0-2.03-3.536c-.176-.245-.245-.35-.245-.455,0-.21.21-.315.455-.315C758.817,1768.274,762.248,1770.024,762.248,1772.825Zm10.815-7.211a2.258,2.258,0,0,1-.069-.315.237.237,0,0,1,.245-.245,7.816,7.816,0,0,1,1.575.875c.559.28,1.96,1.12,1.96,2.135,0,.28-.141.315-.735.665a28.46,28.46,0,0,0-1.786,3.011,30.645,30.645,0,0,1-14.246,12.356.226.226,0,0,1-.21-.21,14.954,14.954,0,0,1,1.96-1.47c7.456-5.706,11.551-12.286,11.551-15.3A3.533,3.533,0,0,0,773.063,1765.614Zm-5.46,3.4c0,1.014-.561,1.785-1.19,1.785-.771,0-.946-.876-1.05-1.471a11.012,11.012,0,0,0-1.295-3.325,3.906,3.906,0,0,1-.386-.77c0-.1.175-.21.351-.175A4.436,4.436,0,0,1,767.6,1769.01Z" fill="#4d4d4d"/>
    <path id="パス_998" data-name="パス 998" d="M807.51,1782.276c0,.665-.245,1.33-.77,1.33-1.54,0-2.1-3.046-2.38-4.515-.175-.876-.945-4.691-1.085-5.5-.141-.63-.316-1.085-.945-1.085-.14,0-4.306.98-6.021,1.54a18.619,18.619,0,0,1-2.136.91c-.524,0-4.025-1.54-4.025-2.59,0-.28.245-.351.42-.351.315,0,1.785.14,2.1.14a39.834,39.834,0,0,0,8.506-1.189c.91-.175,1.156-.316,1.156-.911a21.1,21.1,0,0,0-.771-3.5c-.21-.875-.385-1.225-.91-1.225a42.431,42.431,0,0,0-4.83,1.33c-.84,0-3.186-1.26-3.186-1.89,0-.245.385-.245.7-.245a32.4,32.4,0,0,0,5.391-.6c1.226-.279,1.785-.489,1.785-1.154,0-.141-.455-3.466-1.995-4.8a14.45,14.45,0,0,1-1.61-1.26c0-.21,1.05-.595,1.82-.595.7,0,3.15.77,3.255,1.47.07.49.141,2.52.211,2.94.314,2.275.7,2.275,1.189,2.275a21.263,21.263,0,0,0,3.046-.945c1.505-.665,1.68-.734,2.17-.734,1.12,0,2.1.734,2.1,1.295,0,.7-.7.839-3.256,1.33a28.608,28.608,0,0,0-3.535.77.775.775,0,0,0-.665.875,22.83,22.83,0,0,0,.63,3.151c.315,1.189.455,1.5,1.085,1.5a23.556,23.556,0,0,0,4.48-1.33,7.156,7.156,0,0,1,3.466-.875c1.854,0,2.625.945,2.625,1.54,0,1.05-1.436,1.085-2.7,1.085a37.088,37.088,0,0,0-6.3,1.015c-1.47.315-1.54.525-1.54,1.19C804.99,1773.595,807.51,1780.735,807.51,1782.276Z" fill="#4d4d4d"/>
    <path id="パス_999" data-name="パス 999" d="M831.511,1758.263c.84,0,2.766,1.225,2.766,1.82,0,.176-.07.98-.07,1.155,0,4.061.07,7.211.105,8.051.035.42.21,2.171.21,2.52,0,.911-.806,1.786-1.33,1.786-.771,0-1.575-1.855-1.575-2.766,0-.279.174-1.47.174-1.75.071-1.575.071-2.94.071-3.57,0-3.92-.176-4.725-1.261-5.986-.279-.315-.455-.525-.455-.8C830.146,1758.473,830.707,1758.263,831.511,1758.263Zm9.626-.98c-.42-.56-.455-.63-.455-.7,0-.1,0-.21,1.016-.21,2.1,0,3.85.875,3.85,1.785a13.607,13.607,0,0,1-.35,1.4c-.14.945-.175,6.2-.281,7.421a22.141,22.141,0,0,1-8.751,16.242,13.911,13.911,0,0,1-3.15,2.065c-.14,0-.21-.07-.21-.175,0-.14,2.276-2.38,2.695-2.835,6.756-7.211,7-13.3,7-20.3A6.693,6.693,0,0,0,841.137,1757.283Z" fill="#4d4d4d"/>
    <path id="パス_1000" data-name="パス 1000" d="M883.153,1767.189a30.841,30.841,0,0,0,8.47,2.765c.14,0,.736.1.736.245,0,.106-.49.245-.631.28a6.055,6.055,0,0,0-2.66,1.891c-.1.14-.49.875-.665.875-.21,0-7.806-3.676-11.237-9.276-.665-1.121-.769-1.226-1.014-1.226s-.316.07-1.085.876a41.608,41.608,0,0,1-10.361,8.155,30.256,30.256,0,0,1-5.5,2.24c-.1,0-.174-.069-.174-.1s3.746-2.346,4.06-2.556c4.726-2.975,9.732-8.33,10.221-10.956.035-.28.07-.385.315-.385.175,0,3.011,1.085,3.186,1.19.1.035.455.176.455.525a2.138,2.138,0,0,1-.141.491C877.2,1762.743,880.212,1765.684,883.153,1767.189Zm-16.872-8.716c-2.591,0-3.781.07-4.446.1-.105,0-.629.07-.735.07s-.175-.07-.315-.21l-.665-.8c-.14-.175-.14-.175-.14-.245s.035-.07.105-.07c.245,0,1.331.1,1.54.1,1.715.07,3.185.14,4.831.14h1.015c.735,0,.945-.35.945-.945a5.688,5.688,0,0,0-.28-1.855,5.314,5.314,0,0,1-.21-.7c0-.175.175-.245.385-.245.245,0,1.82.385,2.205.489,1.05.281,1.26.351,1.26.665,0,.211-.034.281-.525.911a.855.855,0,0,0-.245.63c0,.84.281,1.05,1.225,1.05h5.776c.315,0,1.05,0,1.05-.945a14.557,14.557,0,0,0-.1-1.575c-.035-.175-.21-.91-.21-1.05,0-.175.21-.245.385-.245.245,0,2.625.559,3.01.665s.595.245.595.559c0,.211-.14.351-.524.631a1.122,1.122,0,0,0-.456.98c0,.98.56.98,1.12.98h1.786c1.54,0,1.714,0,2.24-.595.98-1.155,1.085-1.3,1.4-1.3.21,0,3.255,1.855,3.255,2.31,0,.49-.7.49-1.855.49h-6.826c-1.084,0-1.084.56-1.084,1.4,0,.21.035,1.4.035,1.576,0,1.294-1.051,1.505-1.786,1.505-.8,0-.945-.141-.945-1.331v-2.415c-.1-.665-.525-.735-1.085-.735h-5.6c-.806,0-1.3,0-1.3.98,0,.351.1,1.891.1,2.206,0,.665-.1.979-.42,1.189a2.479,2.479,0,0,1-1.33.491c-.6,0-.875-.385-.875-1.085,0-.281.034-1.611.034-1.856,0-1.365,0-1.925-1.084-1.925Zm2.485,17.887a17.862,17.862,0,0,1,2.7,1.645.869.869,0,0,1,.281.525c0,.42-.281.49-1.12.7-.106.035-3.117,2.381-3.676,2.8a21.522,21.522,0,0,1-5.321,3.045.112.112,0,0,1-.1-.105c0-.07,1.855-1.68,2.1-1.925,2.905-2.766,4.69-5.531,5-6.651A.214.214,0,0,1,868.766,1776.36Zm1.61-1.855c-2.73,0-3.746.035-4.446.1-.1,0-.63.07-.734.07s-.175-.07-.316-.21l-.665-.8c-.139-.175-.139-.175-.139-.245,0-.035.035-.071.1-.071.245,0,1.33.106,1.54.106,1.716.1,3.186.14,4.831.14h2.625c.351,0,1.05,0,1.05-.945,0-.421-.21-3.256-.279-3.606,0-.07-.21-.42-.21-.489s.069-.211.349-.211c.246,0,2.7.525,3.045.63.491.1.665.42.665.595,0,.21-.069.28-.594.736-.491.419-.491.629-.491,1.68,0,1.26,0,1.61,1.051,1.61h1.54c1.54,0,1.715,0,2.24-.595.98-1.155,1.085-1.3,1.4-1.3.21,0,3.255,1.891,3.255,2.31,0,.491-.7.491-1.856.491h-6.615c-1.05,0-1.05.63-1.05,1.75,0,2.485,0,3.885.07,5.951.035.595.035,1.434.035,1.855,0,1.12-.281,1.785-1.785,1.785-.771,0-.84-.63-.84-1.225,0-.455.1-2.555.1-3.01.035-1.331.035-2.626.035-4.236a21.2,21.2,0,0,0-.07-2.38c-.175-.49-.734-.49-1.015-.49Zm9.346,2.94c0-.1.175-.14.315-.14,1.3,0,9.276,2.206,9.276,5.111,0,1.12-.63,1.995-1.505,1.995-.665,0-.806-.175-1.891-1.785a16.614,16.614,0,0,0-6.02-5.041C879.862,1777.585,879.722,1777.48,879.722,1777.445Z" fill="#4d4d4d"/>
    <path id="パス_1001" data-name="パス 1001" d="M916.884,1759.733c0,.1.07.245.07.385a26.826,26.826,0,0,1,.35,3.781c0,2.345-.525,5.6-3.605,10.256-2.8,4.27-4.586,5.11-5.986,5.11-2.31,0-4.376-3.6-4.376-7.876a12.327,12.327,0,0,1,3.886-8.925,14.481,14.481,0,0,1,11.166-4.551,11.407,11.407,0,0,1,5.636,1.12,10.973,10.973,0,0,1,6.091,10.187,13.056,13.056,0,0,1-8.822,12.321,21.517,21.517,0,0,1-5.81,1.3c-.14,0-.35-.035-.35-.245,0-.1.07-.14.945-.491,3.64-1.435,11.236-4.445,11.236-13.161,0-1.365-.14-9.7-9.7-9.7C916.919,1759.243,916.884,1759.523,916.884,1759.733Zm-11.377,10.746c0,2.276.91,5.391,3.046,5.391,1.015,0,1.856-.42,4.271-4.061a20.019,20.019,0,0,0,3.43-10.186c0-2.1-.14-2.275-.6-2.275C912.333,1759.348,905.507,1763.864,905.507,1770.479Z" fill="#4d4d4d"/>
    <path id="パス_1006" data-name="パス 1006" d="M1101.677,1774.085c-.91,0-.91.525-.91.945,0,.84.035,4.445.035,5.181,0,.21,0,.7.56.7.28,0,3.15-1.189,3.466-1.33a.763.763,0,0,0,.489-.63,6.96,6.96,0,0,0-1.12-2.17,7.249,7.249,0,0,1-.7-.945c0-.035.07-.035.105-.035.665,0,5.145,2.1,5.145,4.97,0,.981-.49,1.681-1.155,1.681-.63,0-.769-.351-1.33-1.646-.21-.525-.314-.805-.7-.805-.455,0-6.721,4.1-6.966,4.656-.349.7-.385.805-.734.805-.6,0-1.471-2.8-1.471-3.045s.141-.316.386-.316c1.819,0,1.819-.21,1.819-1.714v-10.5c0-2.416,0-5.986-.559-5.986-.141,0-2.451,1.855-2.661,1.855-.07,0-.1,0-.1-.07,0-.035.945-1.225,1.12-1.47a53.774,53.774,0,0,0,6.021-9.731c.175-.665.175-.735.455-.735.21,0,2.73,1.224,2.73,1.96a.53.53,0,0,1-.314.455c-.211.1-.351.175-.351.35s0,.175,1.05.6c.665.245,4.1,1.645,4.1,4.165a1.151,1.151,0,0,1-1.156,1.3c-.349,0-.8-.1-1.469-1.506-.63-1.33-2.766-3.885-3.221-3.885-.28,0-.455.245-.63.49a46.772,46.772,0,0,1-4.62,5.356c-.106.07-.176.14-.176.244s.07.141.876.561c1.05.525,1.154.595,1.645.595,1.015,0,1.049-.315,1.049-1.05a7.635,7.635,0,0,0-.174-2.1c-.036-.175-.28-.84-.28-.98,0-.07.07-.175.35-.175s2.975.385,2.975,1.226c0,.1-.385.524-.455.629-.14.281-.14.42-.14,1.436,0,.49,0,1.015.735,1.015.771,0,.875,0,1.155-.28.63-.735.84-.945,1.121-.945.245,0,1.889,1.015,1.889,1.645,0,.21-.594.98-.665,1.155a8.936,8.936,0,0,0-.1,1.715c0,.945.1,5.251.1,6.091,0,.665,0,1.89-1.47,1.89-.77,0-.839-.42-.91-1.015-.1-.6-.7-.6-.945-.6Zm4.026-5.461c.91,0,.91-.49.91-1.26,0-1.68,0-2.03-.91-2.03h-4.026c-.91,0-.91.525-.91,1.26,0,1.715,0,2.03.91,2.03Zm-.071,4.515c.91,0,.981,0,.981-2.765,0-.805-.526-.805-.91-.805h-4.026c-.91,0-.91.316-.91,1.365,0,2,0,2.205.91,2.205Zm16.627-10.64a.979.979,0,0,0,1.05-.561c.49-.8.525-.91.771-.91.279,0,3.429,1.681,3.429,2.485,0,.7-.384.736-2.309.981a4.091,4.091,0,0,0-2.311,1.12c-.07.035-.42.28-.455.28s-.07,0-.07-.035c0-.175.49-1.61.49-1.926,0-.524-.35-.524-.665-.524h-3.01c-.49,0-.945.035-.945.875,0,10.606,7.876,17.537,8.261,17.852.245.21,1.54,1.12,1.54,1.294,0,.106-.6.21-.63.21a6.214,6.214,0,0,0-2.1.7,3.423,3.423,0,0,1-.769.455c-.7,0-4.761-4.83-6.511-15.121-.035-.106-.106-.561-.21-.561-.141,0-.176.316-.21.665-.525,4.235-2.065,11.411-8.892,14.492a6.58,6.58,0,0,1-2.485.665c-.14,0-.175,0-.175-.1a3.658,3.658,0,0,1,.771-.49c1.854-.945,5.53-2.835,7.385-9.171a39.474,39.474,0,0,0,1.47-10.606c0-.631,0-1.155-.8-1.155s-.875.1-1.54,1.085a28.457,28.457,0,0,1-2.871,3.675.092.092,0,0,1-.1-.1c0-.21,1.085-2.555,1.295-3.045.77-1.961,2.94-7.911,2.94-9.871,0-1.015,0-1.19.455-1.19.491,0,3.4,1.4,3.4,1.96,0,.28-.106.35-.736.735-.419.28-2.8,5.461-2.8,5.461,0,.385.384.385.594.385Z" fill="#4d4d4d"/>
    <path id="パス_1007" data-name="パス 1007" d="M1149.879,1759.173c-.454,0-1.924,1.26-2.484,1.751-.455.42-1.785,1.61-2.7,1.61-1.3,0-2.276-2.485-2.276-2.591,0-.21.07-.349.281-.349s1.014.139,1.189.139c1.12,0,1.54-.07,3.641-1.4a6.011,6.011,0,0,1,3.36-1.155c2.311,0,2.835,1.575,2.835,2.1,0,.735-.314,1.155-2.135,2.836a31.767,31.767,0,0,0-5.145,7.106c0,.174.245.21.349.21.455,0,2.415-.036,2.836,0a28.26,28.26,0,0,1,6.615,1.4,1.39,1.39,0,0,0,.561.141c.454,0,.665-2.871.665-3.221,0-.28-.211-1.82-.211-1.96,0-.21.245-.21.386-.21.1,0,3.15.56,3.15,1.925a7.555,7.555,0,0,1-.77,1.365c0,.07-.49,2.871-.49,2.976,0,.455.209.56.8.875,1.365.735,4.55,2.38,4.55,4.2a1.355,1.355,0,0,1-1.3,1.33c-.7,0-1.085-.279-3.535-2.38-.07-.035-1.085-.91-1.436-.91-.279,0-.384.245-.489.42a15.11,15.11,0,0,1-6.861,6.475,12.888,12.888,0,0,1-3.78,1.4c-.036,0-.281,0-.281-.1a5.544,5.544,0,0,1,.665-.49c3.466-2.381,5.181-3.781,7.211-6.931a6.432,6.432,0,0,0,1.051-1.995c0-.315,0-.49-1.926-1.435a15.162,15.162,0,0,0-6.44-1.576c-2.17,0-2.24.141-2.835,1.4-3.011,6.405-3.606,7.7-5.812,7.7-1.785,0-2.309-1.925-2.309-2.8,0-2.975,3.115-5.636,6.79-6.93a1.269,1.269,0,0,0,.876-.7c.8-1.3,5.179-7.911,5.355-8.225a4.972,4.972,0,0,0,.455-1.575A.451.451,0,0,0,1149.879,1759.173Zm-11.725,16.872c0,.595.28,1.015.91,1.015,1.925,0,4.2-5.145,4.2-5.286,0-.1-.035-.175-.139-.175C1141.864,1771.6,1138.154,1773.98,1138.154,1776.045Z" fill="#4d4d4d"/>
    <path id="パス_1008" data-name="パス 1008" d="M1177.816,1762.078c-.805,0-3.221,0-4.445.07a5.321,5.321,0,0,1-.736.106c-.1,0-.175-.106-.314-.245l-.665-.806c-.141-.14-.141-.175-.141-.21a.094.094,0,0,1,.106-.105c.245,0,1.33.105,1.575.14,1.575.07,3.15.106,4.795.106h6.861c1.015,0,1.015-.455,1.015-2.451a22.009,22.009,0,0,0-.175-3.22c-.035-.21-.245-1.05-.245-1.225,0-.21.245-.21.385-.21s3.71.735,3.71,1.54c0,.35-.07.385-.665.945-.455.385-.49,1.3-.49,1.855,0,2.625.21,2.766,1.12,2.766h6.966c1.295,0,1.645,0,2.1-.526.21-.315,1.12-1.96,1.47-1.96.525,0,3.326,2.415,3.326,2.906,0,.524-.665.524-1.856.524H1185.8c-.384,0-.524,0-.524.141,0,.245.14.245,1.505.455.525.069,1.54.28,1.54.77,0,.279-.98,1.154-1.085,1.4a9.708,9.708,0,0,0-.561,2.555c0,.7.736.7.876.7h7.736a1.658,1.658,0,0,0,1.469-.525,4.187,4.187,0,0,1,.806-.7c.175,0,3.045,1.75,3.045,2.24,0,.28-.91,1.085-1.015,1.3a34.838,34.838,0,0,0-.98,4.9c-1.085,5-2.17,6.861-3.255,8.12a6.923,6.923,0,0,1-4.025,2.311c-.42,0-.42-.245-.42-.56,0-1.505-1.821-2.626-2.906-3.185-.8-.421-.91-.455-.91-.561,0-.069.034-.279.35-.279a5.837,5.837,0,0,1,1.435.385,10.573,10.573,0,0,0,2.765.455c1.471,0,3.081-.876,4.2-5.5a35.889,35.889,0,0,0,.909-6.546c0-.91-.594-.91-1.12-.91h-8.225c-.98,0-1.05.176-1.47,1.995-2.73,11.377-11.656,13.547-12.111,13.547-.106,0-.316,0-.316-.105,0-.14.42-.385.84-.595a20.748,20.748,0,0,0,7.526-8.436,32.868,32.868,0,0,0,2.555-11.062c0-2.31-.595-2.31-1.3-2.31Z" fill="#4d4d4d"/>
    <g id="グループ_528" data-name="グループ 528" transform="translate(-129.604 110.355)">
      <path id="パス_2251" data-name="パス 2251" d="M1090.925,1653.444c0,1.155-2.66,2.205-3.5,2.555-.49.175-.525.315-.594,1.54-.071.77-.071,3.605-.071,3.78,0,.211,0,.631.315.631.105,0,2.975-1.191,3.536-1.4,3.465-1.295,5.04-1.4,5.95-1.4a5.359,5.359,0,0,1,5.391,5.286c0,4.62-4.866,6.721-7.736,6.721-1.995,0-3.6-1.015-3.6-2.836a3.118,3.118,0,0,1,1.75-2.765.188.188,0,0,1,.175.175c0,.1-.071.175-.14.28a1.448,1.448,0,0,0-.315.945c0,1.68,1.925,1.68,2.275,1.68,2.311,0,5.251-1.54,5.251-4.34a3.628,3.628,0,0,0-3.36-3.851c-.981,0-3.151.456-7.247,2.626-1.959,1.05-2.169,1.155-2.169,1.75,0,.385.1,1.96.1,2.31,0,1.61-.525,3.921-1.785,3.921-.945,0-1.33-.735-1.61-1.3-1.121-2.171-1.3-2.171-1.75-2.171a2.908,2.908,0,0,0-.875.21,6.9,6.9,0,0,1-1.331.7c-.384,0-2.169-1.05-2.169-2.2,0-.63.384-1.365,1.014-1.365.21,0,1.226.175,1.436.175.944,0,1.575-.175,3.639-1.19,1.786-.875,2-.98,2-1.96,0-.806-.035-3.781-.07-4.376,0-.245-.105-.77-.49-.77a8.183,8.183,0,0,0-1.61.315,7.51,7.51,0,0,1-2.486.665c-1.189,0-2.519-2.415-2.519-2.66a.247.247,0,0,1,.279-.245c.1,0,.525.14.63.14a10.182,10.182,0,0,0,1.61.175,15.291,15.291,0,0,0,4.446-1.05,26.184,26.184,0,0,0,.35-3.815,3.437,3.437,0,0,0-1.155-2.8,3.508,3.508,0,0,1-.49-.56c0-.315.56-.385.77-.385,2.345,0,3.606,1.715,3.606,2.38a14.043,14.043,0,0,1-.736,1.821,18.682,18.682,0,0,0-.349,2.275c0,.14.069.385.279.385.245,0,1.226-.385,1.226-.875,0-.07-.175-.42-.175-.49,0-.035.069-.1.139-.14C1089.246,1651.869,1090.925,1652.359,1090.925,1653.444Zm-7.98,13.406c0,.525.945,1.645,1.47,1.645.49,0,.98-.98.98-2.695,0-.14,0-.49-.1-.56C1085.185,1665.24,1082.945,1666.36,1082.945,1666.85Zm23-10.886c0,.735-.42,1.68-1.155,1.68-.21,0-1.015-.07-1.19-.07-.175.035-.91.245-1.051.245a.163.163,0,0,1-.174-.175,2.408,2.408,0,0,1,.105-.28,1.866,1.866,0,0,0,.14-.63c0-1.4-1.75-1.89-2.941-1.89a3.042,3.042,0,0,0-1.365.35.782.782,0,0,1-.35.1c-.105,0-.14-.035-.14-.14a4.478,4.478,0,0,1,3.781-2.205C1104.3,1652.954,1105.942,1654.354,1105.942,1655.964Z" fill="#4d4d4d"/>
      <path id="パス_2252" data-name="パス 2252" d="M1122.3,1653.234a4.8,4.8,0,0,1-.42,1.4,12.362,12.362,0,0,0-.84,4.515c0,3.536,1.82,6.091,2.9,6.091.6,0,.735-.175,1.785-1.925.21-.35.806-1.19,1.085-1.19.106,0,.176.14.176.28a4.093,4.093,0,0,1-.106.7,9.86,9.86,0,0,0-.455,2.66,4.758,4.758,0,0,0,.21,1.4,8.663,8.663,0,0,1,.281,1.155c0,.7-.736,1.085-1.331,1.085-2.24,0-6.65-3.675-6.65-10.361,0-.98.489-5.285.489-6.195a9.671,9.671,0,0,0-.245-2.031,4.753,4.753,0,0,1-.279-1.19c0-.105.14-.14.21-.14C1120.72,1649.488,1122.3,1652.289,1122.3,1653.234Zm17.081.8a8.709,8.709,0,0,1,3.116,6.686c0,.665-.07,2.31-1.75,2.31-1.715,0-1.715-1.891-1.715-2.345,0-2.906,0-4.376-1.856-6.231-.28-.28-1.679-1.365-1.679-1.575,0-.1.139-.175.314-.175A6.81,6.81,0,0,1,1139.376,1654.039Z" fill="#4d4d4d"/>
      <path id="パス_2253" data-name="パス 2253" d="M1162.914,1649.033a16.119,16.119,0,0,1-.665,1.961,84.142,84.142,0,0,0-1.47,12.461c0,3.535.665,6.686,5.355,6.686a17.246,17.246,0,0,0,7.351-1.821c.525-.245,3.185-1.715,3.325-1.715a.164.164,0,0,1,.176.175c0,.385-5.181,6.021-11.762,6.021-4.551,0-6.721-2.626-6.721-9.661,0-2.17.071-2.871.8-9.731.141-1.155.455-4.026.455-5.006a4.406,4.406,0,0,0-.314-1.715c-.035-.1-.385-.91-.385-.945,0-.245.279-.35.489-.35C1161.374,1645.393,1162.914,1648.228,1162.914,1649.033Z" fill="#4d4d4d"/>
      <path id="パス_2254" data-name="パス 2254" d="M1193.934,1653.234a4.778,4.778,0,0,1-.421,1.4,12.385,12.385,0,0,0-.84,4.515c0,3.536,1.821,6.091,2.906,6.091.595,0,.735-.175,1.785-1.925.21-.35.8-1.19,1.085-1.19.1,0,.176.14.176.28a4.2,4.2,0,0,1-.106.7,9.821,9.821,0,0,0-.455,2.66,4.721,4.721,0,0,0,.21,1.4,8.782,8.782,0,0,1,.28,1.155c0,.7-.735,1.085-1.33,1.085-2.24,0-6.65-3.675-6.65-10.361,0-.98.489-5.285.489-6.195a9.745,9.745,0,0,0-.245-2.031,4.75,4.75,0,0,1-.279-1.19c0-.105.139-.14.21-.14C1192.359,1649.488,1193.934,1652.289,1193.934,1653.234Zm17.081.8a8.711,8.711,0,0,1,3.115,6.686c0,.665-.069,2.31-1.75,2.31-1.714,0-1.714-1.891-1.714-2.345,0-2.906,0-4.376-1.856-6.231-.28-.28-1.68-1.365-1.68-1.575,0-.1.14-.175.315-.175A6.812,6.812,0,0,1,1211.015,1654.039Z" fill="#4d4d4d"/>
    </g>
  </g>
</svg>
