<svg id="lineup_black_howto_sp" xmlns="http://www.w3.org/2000/svg" width="594" height="55" viewBox="0 0 594 55">
  <rect id="長方形_47" data-name="長方形 47" width="594" height="55" fill="#fff100" opacity="0"/>
  <path id="パス_2026" data-name="パス 2026" d="M-4913.438-1121.871c-1.4,0-1.4.32-1.4,2.68,0,1.04.321,1.24.721,1.32,1.44.359,6.158,1.519,6.158,4.638,0,.92-.56,2.28-1.56,2.28-.6,0-.68-.2-1.44-2.119-.879-2.32-3-3.959-3.478-3.959-.44,0-.44.079-.44,2.2,0,2.2.239,11.878.239,13.918,0,.559,0,2.639-2.159,2.639-.8,0-.8-.56-.8-1.16,0-.519.121-3.159.121-3.719.08-3.16.2-9.2.2-12.158,0-.16,0-.68-.4-.68-.2,0-.321.2-1.319,1.68-2.281,3.359-6.24,7.6-7,7.6-.119,0-.16-.08-.16-.2,0-.16,2.24-3.04,2.52-3.44a40.936,40.936,0,0,0,5.359-10.878c0-.6-.2-.64-1.879-.64-.361,0-2.721.04-3.8.12-.119,0-.719.12-.84.12-.158,0-.2-.12-.359-.28l-.76-.92c-.119-.119-.16-.2-.16-.279s.08-.081.121-.081c.279,0,1.52.121,1.8.161,1.52.04,3.32.119,4.8.119h.881c.4,0,1.08,0,1.238-.679.041-.24.041-3.2.041-3.64,0-1.24-.16-1.879-1.24-1.879-.16,0-3.959.359-4.68.359-.318,0-1.318,0-1.318-.2,0-.16.279-.241.439-.281a34.646,34.646,0,0,0,9.8-3.439,23.55,23.55,0,0,1,2.2-1.48,13.591,13.591,0,0,1,3.52,3c0,.241-.2.361-.52.361-.2,0-.92-.08-1.121-.08a20.937,20.937,0,0,0-4.078,1.2c-.6.44-.6,2.2-.6,3.44,0,3,0,3.319,1.2,3.319,1.718,0,1.718,0,2.718-1.239.561-.72.92-1.121,1.121-1.121s3.44,2.2,3.44,2.88c0,.52-.84.52-2.16.52Zm17.515-7.918a1.382,1.382,0,0,0,1.282-.521c.718-.88.8-.959,1-.959a20.563,20.563,0,0,1,2.6,1.8.91.91,0,0,1,.28.6c0,.32-.28.48-.561.6-.879.44-.879.68-.879,3.12,0,7.558,0,8.638.279,18.277,0,.4.121,2.319.121,2.759a1.65,1.65,0,0,1-.6,1.52,3.858,3.858,0,0,1-1.879.72c-.68,0-.68-.72-.68-1.32,0-.84-.48-.84-1.119-.84h-5.359c-1.16,0-1.2.36-1.2,1.48,0,1.44-1.479,1.96-2.239,1.96a.916.916,0,0,1-.961-1.08c0-.36.161-2.08.161-2.48.08-1.879.16-11.758.16-12.917,0-2.32,0-7.079-.321-12.279,0-.2-.2-1.239-.2-1.479,0-.28.2-.361.481-.361a6.119,6.119,0,0,1,1.759.681,3.886,3.886,0,0,0,2.479.72Zm-.158,24.676c1.158,0,1.158-.641,1.158-1.52v-21.157c0-.8-.679-.96-1.158-.96h-5.439a1.022,1.022,0,0,0-1.121.6c-.12.32-.12,11.878-.12,13.678,0,4.2.081,8.4.12,8.6.121.761.8.761,1.16.761Z" transform="translate(4990.07 1143.752)" fill="#4d4d4d"/>
  <path id="パス_2027" data-name="パス 2027" d="M-4874.245-1120.631a1.136,1.136,0,0,1-.881-.32,15,15,0,0,0-4.959-4.8,9.442,9.442,0,0,0-1.08-.56c-.039-.04-.16-.08-.16-.2s.2-.12.561-.12a10.182,10.182,0,0,1,2.478.24c1.121.24,1.24.32,1.4.32.52,0,.68-.4,1.161-1.56,1.4-3.56,1.439-4.8,1.48-5.879.039-.6.119-1.12.479-1.12.64,0,3.92,1.68,3.92,2.28,0,.4-.44.56-.84.72-1.119.479-1.36.84-2.481,2.4a34.032,34.032,0,0,0-2.279,3.48c0,.24.24.44.6.72a3.962,3.962,0,0,1,1.759,2.839C-4873.087-1121.471-4873.485-1120.631-4874.245-1120.631Zm5.238,1c0-.12.08-.12.12-.12.681,0,5.839,2.08,5.839,5.279a1.625,1.625,0,0,1-1.48,1.76c-.8,0-1.2-.96-1.44-1.64-.558-1.44-.6-1.6-1.2-1.6-.041,0-1.92.36-2.2.4-.6.12-1,.24-1.16.68-.121.36-.121,5.2-.121,5.919,0,1.36.24,8.6.24,8.638,0,.84-.24,2.2-1.959,2.2-.561,0-1-.08-1-1.959,0-.321.16-3.52.16-3.8v-9.2c0-1.04,0-1.64-.64-1.64-.241,0-4.04.52-4.6.64-.24.04-1.121.8-1.361.8-.879,0-1.479-3.439-1.479-3.878,0-.241.08-.52.4-.52a5.584,5.584,0,0,1,1,.48,24.244,24.244,0,0,0,4.6.519c.84,0,1.16,0,1.92-1.239.881-1.48,4.039-7.32,4.52-9.4.279-1.16.32-1.28.8-1.28.721,0,3.641,1.52,3.641,2.28,0,.32-.2.44-.52.48a2.46,2.46,0,0,0-1.24.639c-.76.84-1.84,2.28-2.56,3.12-.6.76-4.078,4.96-4.078,5.159,0,.32.16.32,1.6.32,1.32,0,3.559,0,3.76-.36C-4867.208-1117.392-4869.007-1119.591-4869.007-1119.631Zm-5.318,9.278c0,.28-1.041,1-1.16,1.2a31.665,31.665,0,0,0-1.32,2.96c-2.039,4.479-4,6.518-4.28,6.518-.08,0-.08-.039-.08-.079,0-.24.881-2.08,1.041-2.48.319-.84,2.158-6.679,2.158-8.878,0-.2-.2-.96-.2-1.161s.24-.279.36-.279a9.714,9.714,0,0,1,1.679.719C-4875.485-1111.513-4874.325-1110.873-4874.325-1110.353Zm10.918,5a1.791,1.791,0,0,1-1.68,1.96c-.881,0-.961-.28-1.72-2.8a14.879,14.879,0,0,0-1.959-4.64c-.041-.08-.28-.52-.28-.56s0-.12.078-.12a10.424,10.424,0,0,1,1.522.88C-4866.686-1110.113-4863.407-1107.713-4863.407-1105.354Zm3.559,5.32c-2.879,0-4,.04-5.039.12-.161,0-.719.079-.84.079-.16,0-.241-.079-.36-.239l-.8-.92c-.12-.16-.161-.2-.161-.24,0-.081.041-.121.161-.121.281,0,1.48.161,1.759.161,1.4.08,3.241.12,5.481.12h1.4c.24,0,.84,0,1.041-.52.2-.44.2-9.879.2-11.478,0-1.04,0-15.037-.119-15.478-.121-.76-.64-.8-1.2-.8h-.68c-2.08,0-3.558.04-4.878.12-.12,0-.721.08-.84.08-.16,0-.241-.08-.36-.24l-.759-.92c-.161-.2-.2-.2-.2-.279,0-.04.08-.08.161-.08.281,0,1.519.12,1.759.12,1.959.12,3.6.159,5.479.159h4.84c1.92,0,2.119,0,2.718-.719,1.2-1.44,1.362-1.6,1.721-1.6.481,0,3.479,2.28,3.479,2.8,0,.559-.8.559-2.159.559h-4.839c-.92,0-1.241.281-1.241,1.2,0,2.24,0,25.916.08,26.276.081.64.44.8,1.2.8,1.959,0,2.2,0,2.519-.36.36-.36,1.639-2.32,2.119-2.32s3.52,2.56,3.52,3.16c0,.56-.8.56-2.16.56Z" transform="translate(4990.07 1143.752)" fill="#4d4d4d"/>
  <path id="パス_2028" data-name="パス 2028" d="M-4809.229-1119.191a35.209,35.209,0,0,0,9.677,3.159c.161,0,.84.12.84.28,0,.12-.558.28-.718.32a6.926,6.926,0,0,0-3.039,2.159c-.122.161-.561,1-.76,1-.24,0-8.92-4.2-12.838-10.6-.762-1.279-.881-1.4-1.16-1.4s-.362.08-1.241,1a47.542,47.542,0,0,1-11.837,9.319c-1.36.719-5.52,2.559-6.28,2.559-.119,0-.2-.08-.2-.12s4.279-2.679,4.639-2.919c5.4-3.4,11.117-9.518,11.677-12.518.041-.32.081-.44.36-.44.2,0,3.439,1.24,3.64,1.36.12.04.52.2.52.6a2.492,2.492,0,0,1-.16.56C-4816.028-1124.271-4812.589-1120.911-4809.229-1119.191Zm-19.278-9.959c-2.959,0-4.318.081-5.078.121-.121,0-.72.08-.84.08s-.2-.08-.359-.241l-.762-.919c-.158-.2-.158-.2-.158-.281s.039-.079.119-.079c.28,0,1.52.119,1.76.119,1.959.08,3.639.16,5.52.16h1.16c.84,0,1.078-.4,1.078-1.079a6.52,6.52,0,0,0-.319-2.12,5.952,5.952,0,0,1-.24-.8c0-.2.2-.28.44-.28.279,0,2.08.44,2.519.56,1.2.32,1.44.4,1.44.76,0,.24-.039.32-.6,1.04a.977.977,0,0,0-.279.72c0,.96.318,1.2,1.4,1.2h6.6c.359,0,1.2,0,1.2-1.079a16.942,16.942,0,0,0-.119-1.8c-.041-.2-.24-1.039-.24-1.2,0-.2.24-.28.439-.28.281,0,3,.64,3.44.76s.679.28.679.64c0,.24-.16.4-.6.72a1.283,1.283,0,0,0-.52,1.12c0,1.119.641,1.119,1.279,1.119h2.041c1.758,0,1.959,0,2.559-.679,1.119-1.32,1.24-1.48,1.6-1.48.24,0,3.718,2.119,3.718,2.639,0,.56-.8.56-2.119.56h-7.8c-1.24,0-1.24.64-1.24,1.6,0,.24.041,1.6.041,1.8,0,1.479-1.2,1.72-2.039,1.72-.92,0-1.08-.161-1.08-1.52v-2.76c-.121-.759-.6-.84-1.24-.84h-6.4c-.92,0-1.48,0-1.48,1.12,0,.4.121,2.16.121,2.52,0,.76-.121,1.119-.48,1.36a2.843,2.843,0,0,1-1.52.56c-.68,0-1-.44-1-1.24,0-.32.039-1.84.039-2.12,0-1.56,0-2.2-1.24-2.2Zm2.84,20.437a20.5,20.5,0,0,1,3.08,1.88.99.99,0,0,1,.321.6c0,.479-.321.56-1.282.8-.119.04-3.558,2.72-4.2,3.2a24.6,24.6,0,0,1-6.078,3.479.127.127,0,0,1-.119-.12c0-.08,2.119-1.919,2.4-2.2,3.321-3.159,5.36-6.319,5.719-7.6A.243.243,0,0,1-4825.667-1108.713Zm1.84-2.12c-3.119,0-4.279.04-5.078.12-.121,0-.721.08-.84.08s-.2-.08-.361-.24l-.76-.92c-.16-.2-.16-.2-.16-.279,0-.04.041-.08.121-.08.279,0,1.519.12,1.76.12,1.959.12,3.638.16,5.517.16h3c.4,0,1.2,0,1.2-1.08,0-.48-.24-3.72-.32-4.119,0-.08-.24-.481-.24-.56s.08-.24.4-.24c.28,0,3.078.6,3.479.72.56.12.76.479.76.679,0,.24-.08.321-.68.84-.561.48-.561.72-.561,1.92,0,1.439,0,1.84,1.2,1.84h1.759c1.76,0,1.959,0,2.559-.68,1.119-1.32,1.24-1.48,1.6-1.48.24,0,3.718,2.16,3.718,2.639,0,.56-.8.56-2.119.56h-7.558c-1.2,0-1.2.72-1.2,2,0,2.84,0,4.439.08,6.8.039.679.039,1.639.039,2.12,0,1.279-.32,2.039-2.039,2.039-.879,0-.959-.72-.959-1.4,0-.52.12-2.919.12-3.439.039-1.519.039-3,.039-4.839a24.661,24.661,0,0,0-.079-2.72c-.2-.56-.839-.56-1.16-.56Zm10.678,3.36c0-.12.2-.16.361-.16,1.479,0,10.6,2.52,10.6,5.839,0,1.279-.721,2.279-1.721,2.279-.76,0-.92-.2-2.158-2.039-1.881-2.84-4.641-4.479-6.879-5.76C-4812.989-1107.314-4813.149-1107.433-4813.149-1107.473Z" transform="translate(4990.07 1143.752)" fill="#4d4d4d"/>
  <path id="パス_2029" data-name="パス 2029" d="M-4772.743-1127.71c0,.12.078.28.078.44a30.626,30.626,0,0,1,.4,4.32c0,2.679-.6,6.4-4.12,11.717-3.2,4.879-5.238,5.839-6.837,5.839-2.641,0-5-4.119-5-9a14.083,14.083,0,0,1,4.439-10.2,16.546,16.546,0,0,1,12.758-5.2,13.052,13.052,0,0,1,6.439,1.279,12.538,12.538,0,0,1,6.959,11.638,14.916,14.916,0,0,1-10.078,14.078,24.559,24.559,0,0,1-6.64,1.479c-.159,0-.4-.04-.4-.279,0-.12.08-.16,1.08-.56,4.158-1.64,12.838-5.079,12.838-15.037,0-1.56-.16-11.079-11.078-11.079C-4772.7-1128.27-4772.743-1127.95-4772.743-1127.71Zm-13,12.278c0,2.6,1.039,6.159,3.479,6.159,1.16,0,2.119-.48,4.878-4.639,2.12-3.239,3.92-7.679,3.92-11.638,0-2.4-.16-2.6-.679-2.6C-4777.942-1128.15-4785.741-1122.99-4785.741-1115.432Z" transform="translate(4990.07 1143.752)" fill="#4d4d4d"/>
  <path id="パス_2034" data-name="パス 2034" d="M-4572-1111.313c-1.041,0-1.041.6-1.041,1.08,0,.96.041,5.08.041,5.919,0,.24,0,.8.639.8.32,0,3.6-1.36,3.959-1.519a.871.871,0,0,0,.56-.721,7.951,7.951,0,0,0-1.279-2.479,8.228,8.228,0,0,1-.8-1.08c0-.04.08-.04.121-.04.76,0,5.879,2.4,5.879,5.679,0,1.12-.56,1.92-1.32,1.92-.719,0-.879-.4-1.52-1.88-.24-.6-.359-.92-.8-.92-.52,0-7.678,4.679-7.957,5.32-.4.8-.442.919-.84.919-.68,0-1.68-3.2-1.68-3.479s.16-.36.44-.36c2.08,0,2.08-.24,2.08-1.96v-12c0-2.759,0-6.838-.641-6.838-.16,0-2.8,2.119-3.039,2.119-.08,0-.121,0-.121-.08,0-.04,1.08-1.4,1.281-1.68a61.519,61.519,0,0,0,6.879-11.118c.2-.76.2-.84.52-.84.24,0,3.119,1.4,3.119,2.24a.6.6,0,0,1-.36.52c-.24.12-.4.2-.4.4s0,.2,1.2.68c.76.28,4.68,1.879,4.68,4.759a1.315,1.315,0,0,1-1.32,1.48c-.4,0-.92-.12-1.68-1.72-.719-1.52-3.158-4.439-3.68-4.439-.318,0-.519.279-.719.56a53.5,53.5,0,0,1-5.279,6.119c-.121.08-.2.159-.2.279s.078.16,1,.641c1.2.6,1.32.679,1.881.679,1.16,0,1.2-.36,1.2-1.2a8.739,8.739,0,0,0-.2-2.4c-.041-.2-.321-.96-.321-1.12,0-.08.081-.2.4-.2s3.4.44,3.4,1.4c0,.12-.439.6-.519.72-.16.32-.16.48-.16,1.639,0,.561,0,1.16.839,1.16.881,0,1,0,1.321-.32.719-.84.959-1.08,1.279-1.08.279,0,2.16,1.16,2.16,1.88,0,.24-.679,1.12-.76,1.32a10.028,10.028,0,0,0-.121,1.96c0,1.079.121,6,.121,6.959,0,.759,0,2.159-1.679,2.159-.881,0-.961-.48-1.041-1.16-.119-.68-.8-.68-1.08-.68Zm4.6-6.239c1.041,0,1.041-.559,1.041-1.439,0-1.92,0-2.32-1.041-2.32h-4.6c-1.041,0-1.041.6-1.041,1.44,0,1.96,0,2.319,1.041,2.319Zm-.08,5.159c1.041,0,1.121,0,1.121-3.159,0-.92-.6-.92-1.041-.92h-4.6c-1.041,0-1.041.36-1.041,1.56,0,2.28,0,2.519,1.041,2.519Zm19-12.157a1.117,1.117,0,0,0,1.2-.641c.561-.919.6-1.039.881-1.039.318,0,3.918,1.919,3.918,2.839,0,.8-.44.84-2.639,1.12a4.68,4.68,0,0,0-2.64,1.28c-.081.04-.479.32-.52.32s-.08,0-.08-.04c0-.2.56-1.84.56-2.2,0-.6-.4-.6-.759-.6H-4552c-.56,0-1.08.04-1.08,1,0,12.118,9,20.037,9.438,20.4.281.24,1.759,1.28,1.759,1.48,0,.119-.679.239-.718.239a7.116,7.116,0,0,0-2.4.8,3.886,3.886,0,0,1-.879.521c-.8,0-5.439-5.52-7.439-17.278-.039-.12-.119-.639-.24-.639-.16,0-.2.359-.241.759-.6,4.839-2.359,13.038-10.158,16.557a7.508,7.508,0,0,1-2.838.76c-.16,0-.2,0-.2-.12a4.257,4.257,0,0,1,.881-.56c2.119-1.079,6.318-3.239,8.438-10.478a45.065,45.065,0,0,0,1.679-12.118c0-.72,0-1.32-.92-1.32s-1,.12-1.759,1.24a32.637,32.637,0,0,1-3.28,4.2.105.105,0,0,1-.119-.12c0-.241,1.24-2.92,1.479-3.48.881-2.239,3.359-9.038,3.359-11.278,0-1.159,0-1.36.522-1.36.558,0,3.878,1.6,3.878,2.24,0,.32-.121.4-.839.839-.481.321-3.2,6.24-3.2,6.24,0,.44.44.44.68.44Z" transform="translate(4990.07 1143.752)" fill="#4d4d4d"/>
  <path id="パス_2035" data-name="パス 2035" d="M-4519-1128.35c-.521,0-2.2,1.44-2.84,2-.519.48-2.041,1.84-3.08,1.84-1.48,0-2.6-2.84-2.6-2.96,0-.24.08-.4.32-.4s1.16.16,1.359.16c1.28,0,1.76-.08,4.161-1.6a6.872,6.872,0,0,1,3.837-1.319c2.641,0,3.241,1.8,3.241,2.4,0,.84-.36,1.32-2.44,3.24a36.359,36.359,0,0,0-5.879,8.118c0,.2.28.24.4.24.519,0,2.759-.04,3.238,0a32.334,32.334,0,0,1,7.559,1.6,1.6,1.6,0,0,0,.64.16c.52,0,.76-3.279.76-3.679,0-.32-.24-2.08-.24-2.24,0-.24.279-.24.439-.24.121,0,3.6.64,3.6,2.2a8.7,8.7,0,0,1-.879,1.559c0,.081-.561,3.28-.561,3.4,0,.52.241.639.92,1,1.561.84,5.2,2.72,5.2,4.8a1.549,1.549,0,0,1-1.48,1.52c-.8,0-1.238-.32-4.039-2.72-.08-.04-1.24-1.04-1.639-1.04-.32,0-.441.28-.56.48a17.262,17.262,0,0,1-7.838,7.4,14.779,14.779,0,0,1-4.32,1.6c-.04,0-.321,0-.321-.12a6.25,6.25,0,0,1,.76-.56c3.961-2.719,5.92-4.32,8.24-7.919a7.367,7.367,0,0,0,1.2-2.279c0-.36,0-.561-2.2-1.64a17.322,17.322,0,0,0-7.359-1.8c-2.481,0-2.561.16-3.24,1.6-3.44,7.319-4.12,8.8-6.639,8.8-2.039,0-2.639-2.2-2.639-3.2,0-3.4,3.559-6.439,7.758-7.919a1.442,1.442,0,0,0,1-.8c.92-1.479,5.92-9.038,6.119-9.4a5.631,5.631,0,0,0,.52-1.8A.515.515,0,0,0-4519-1128.35Zm-13.4,19.277c0,.68.32,1.16,1.039,1.16,2.2,0,4.8-5.879,4.8-6.039,0-.12-.039-.2-.159-.2C-4528.159-1114.152-4532.4-1111.433-4532.4-1109.073Z" transform="translate(4990.07 1143.752)" fill="#4d4d4d"/>
  <path id="パス_2036" data-name="パス 2036" d="M-4489.178-1125.03c-.918,0-3.678,0-5.079.08a6.072,6.072,0,0,1-.839.12c-.12,0-.2-.12-.36-.28l-.76-.92c-.16-.16-.16-.2-.16-.24a.105.105,0,0,1,.119-.12c.28,0,1.52.12,1.8.16,1.8.08,3.6.12,5.479.12h7.838c1.16,0,1.16-.52,1.16-2.8a25.129,25.129,0,0,0-.2-3.679c-.041-.24-.282-1.2-.282-1.4,0-.24.282-.24.442-.24s4.238.84,4.238,1.76c0,.4-.08.44-.76,1.08-.519.44-.56,1.48-.56,2.119,0,3,.24,3.16,1.281,3.16h7.959c1.478,0,1.879,0,2.4-.6.241-.36,1.28-2.239,1.68-2.239.6,0,3.8,2.759,3.8,3.319,0,.6-.76.6-2.119.6h-17.957c-.44,0-.6,0-.6.16,0,.28.16.28,1.719.519.6.08,1.76.321,1.76.88,0,.321-1.12,1.321-1.239,1.6a11.092,11.092,0,0,0-.64,2.92c0,.8.84.8,1,.8h8.838a1.9,1.9,0,0,0,1.679-.6,4.781,4.781,0,0,1,.92-.8c.2,0,3.481,2,3.481,2.56,0,.319-1.041,1.239-1.161,1.479-.439.8-.96,4.8-1.119,5.6-1.24,5.72-2.48,7.839-3.72,9.279a7.911,7.911,0,0,1-4.6,2.639c-.478,0-.478-.28-.478-.64,0-1.72-2.081-3-3.321-3.639-.92-.48-1.039-.52-1.039-.64,0-.08.039-.32.4-.32a6.741,6.741,0,0,1,1.638.44,12.086,12.086,0,0,0,3.16.52c1.68,0,3.52-1,4.8-6.279a40.918,40.918,0,0,0,1.039-7.479c0-1.039-.679-1.039-1.279-1.039h-9.4c-1.12,0-1.2.2-1.68,2.279-3.119,13-13.319,15.477-13.838,15.477-.119,0-.359,0-.359-.12,0-.16.48-.44.959-.679a23.709,23.709,0,0,0,8.6-9.639,37.585,37.585,0,0,0,2.92-12.638c0-2.639-.682-2.639-1.48-2.639Z" transform="translate(4990.07 1143.752)" fill="#4d4d4d"/>
  <g id="グループ_534" data-name="グループ 534" transform="translate(-831.415 -1633.393)">
    <path id="パス_2251" data-name="パス 2251" d="M1092.671,1654.331c0,1.3-3,2.49-3.952,2.885-.553.2-.593.356-.671,1.739-.08.87-.08,4.071-.08,4.269,0,.238,0,.713.355.713.119,0,3.36-1.345,3.993-1.582,3.913-1.462,5.691-1.581,6.719-1.581a6.052,6.052,0,0,1,6.088,5.969c0,5.217-5.495,7.59-8.736,7.59-2.253,0-4.071-1.146-4.071-3.2a3.521,3.521,0,0,1,1.976-3.122.213.213,0,0,1,.2.2c0,.119-.08.2-.158.316a1.636,1.636,0,0,0-.355,1.067c0,1.9,2.174,1.9,2.569,1.9,2.61,0,5.93-1.739,5.93-4.9a4.1,4.1,0,0,0-3.794-4.349c-1.108,0-3.558.515-8.184,2.965-2.212,1.186-2.449,1.3-2.449,1.976,0,.435.117,2.214.117,2.609,0,1.818-.593,4.428-2.016,4.428-1.067,0-1.5-.83-1.818-1.462-1.266-2.452-1.462-2.452-1.976-2.452a3.284,3.284,0,0,0-.988.237,7.784,7.784,0,0,1-1.5.791c-.434,0-2.449-1.186-2.449-2.49,0-.711.434-1.541,1.145-1.541.237,0,1.385.2,1.622.2,1.066,0,1.779-.2,4.109-1.344,2.017-.988,2.254-1.107,2.254-2.214,0-.91-.04-4.27-.079-4.942,0-.277-.119-.87-.553-.87a9.244,9.244,0,0,0-1.818.356c-2.017.672-2.213.751-2.807.751-1.343,0-2.844-2.727-2.844-3a.279.279,0,0,1,.315-.277c.119,0,.593.158.711.158a11.49,11.49,0,0,0,1.818.2,17.266,17.266,0,0,0,5.021-1.186,29.573,29.573,0,0,0,.4-4.308,3.882,3.882,0,0,0-1.3-3.163,3.957,3.957,0,0,1-.553-.632c0-.356.633-.435.87-.435,2.648,0,4.072,1.937,4.072,2.688a15.885,15.885,0,0,1-.831,2.056,21.094,21.094,0,0,0-.394,2.569c0,.158.078.435.315.435.277,0,1.385-.435,1.385-.988,0-.079-.2-.474-.2-.553,0-.04.078-.119.157-.158C1090.775,1652.552,1092.671,1653.106,1092.671,1654.331Zm-9.012,15.139c0,.593,1.067,1.858,1.66,1.858.553,0,1.107-1.107,1.107-3.043,0-.158,0-.553-.119-.632C1086.189,1667.651,1083.66,1668.916,1083.66,1669.47Zm25.97-12.293c0,.83-.474,1.9-1.3,1.9-.237,0-1.146-.079-1.344-.079-.2.04-1.028.277-1.187.277a.184.184,0,0,1-.2-.2,2.719,2.719,0,0,1,.119-.316,2.107,2.107,0,0,0,.158-.711c0-1.581-1.976-2.134-3.321-2.134a3.435,3.435,0,0,0-1.542.4.883.883,0,0,1-.4.119c-.119,0-.158-.039-.158-.158a5.057,5.057,0,0,1,4.27-2.49C1107.772,1653.777,1109.629,1655.358,1109.629,1657.177Z" transform="translate(0 0.154)" fill="#4d4d4d"/>
    <path id="パス_2252" data-name="パス 2252" d="M1122.734,1653.718a5.418,5.418,0,0,1-.474,1.581,13.959,13.959,0,0,0-.949,5.1c0,3.993,2.055,6.878,3.28,6.878.673,0,.83-.2,2.016-2.174.237-.4.91-1.344,1.225-1.344.12,0,.2.158.2.316a4.624,4.624,0,0,1-.12.79,11.137,11.137,0,0,0-.514,3,5.373,5.373,0,0,0,.237,1.581,9.787,9.787,0,0,1,.317,1.3c0,.791-.831,1.225-1.5,1.225-2.53,0-7.509-4.15-7.509-11.7,0-1.107.552-5.968.552-7a10.924,10.924,0,0,0-.277-2.294,5.368,5.368,0,0,1-.315-1.344c0-.119.158-.158.237-.158C1120.955,1649.488,1122.734,1652.651,1122.734,1653.718Zm19.289.909a9.834,9.834,0,0,1,3.519,7.55c0,.751-.079,2.609-1.976,2.609-1.937,0-1.937-2.135-1.937-2.648,0-3.281,0-4.942-2.1-7.036-.316-.316-1.9-1.541-1.9-1.778,0-.119.157-.2.355-.2A7.689,7.689,0,0,1,1142.023,1654.627Z" transform="translate(5.362 0.529)" fill="#4d4d4d"/>
    <path id="パス_2253" data-name="パス 2253" d="M1163.484,1649.5a18.2,18.2,0,0,1-.751,2.214,95.034,95.034,0,0,0-1.66,14.072c0,3.992.751,7.55,6.047,7.55a19.475,19.475,0,0,0,8.3-2.056c.593-.277,3.6-1.937,3.755-1.937a.185.185,0,0,1,.2.2c0,.435-5.851,6.8-13.282,6.8-5.139,0-7.59-2.965-7.59-10.91,0-2.45.08-3.242.909-10.989.159-1.3.514-4.546.514-5.653a4.974,4.974,0,0,0-.355-1.937c-.04-.119-.435-1.028-.435-1.067,0-.277.315-.4.552-.4C1161.745,1645.393,1163.484,1648.594,1163.484,1649.5Z" transform="translate(10.481)" fill="#4d4d4d"/>
    <path id="パス_2254" data-name="パス 2254" d="M1194.373,1653.718a5.4,5.4,0,0,1-.475,1.581,13.984,13.984,0,0,0-.949,5.1c0,3.993,2.057,6.878,3.282,6.878.672,0,.83-.2,2.016-2.174.237-.4.909-1.344,1.225-1.344.119,0,.2.158.2.316a4.747,4.747,0,0,1-.12.79,11.093,11.093,0,0,0-.514,3,5.332,5.332,0,0,0,.237,1.581,9.921,9.921,0,0,1,.316,1.3c0,.791-.83,1.225-1.5,1.225-2.53,0-7.51-4.15-7.51-11.7,0-1.107.552-5.968.552-7a11.005,11.005,0,0,0-.277-2.294,5.365,5.365,0,0,1-.315-1.344c0-.119.157-.158.237-.158C1192.594,1649.488,1194.373,1652.651,1194.373,1653.718Zm19.289.909a9.837,9.837,0,0,1,3.518,7.55c0,.751-.078,2.609-1.976,2.609-1.935,0-1.935-2.135-1.935-2.648,0-3.281,0-4.942-2.1-7.036-.316-.316-1.9-1.541-1.9-1.778,0-.119.158-.2.356-.2A7.692,7.692,0,0,1,1213.662,1654.627Z" transform="translate(14.622 0.529)" fill="#4d4d4d"/>
  </g>
</svg>
