<svg id="lineup_kamairi_howto" xmlns="http://www.w3.org/2000/svg" width="584.016" height="32.343" viewBox="0 0 584.016 32.343">
  <g id="グループ_248" data-name="グループ 248" transform="translate(-668.673 -1722.961)">
    <path id="パス_1189" data-name="パス 1189" d="M678.089,1732.446c-.526,0-.946.175-1.016.7-.035.315-.035,4.621-.035,5.146,0,.665,0,.84.35.84.42,0,3.151-1.155,3.4-1.155.069,0,.139,0,.139.07a15.16,15.16,0,0,1-2.625,1.89,2.023,2.023,0,0,0-1.26,2.31c0,1.191.1,6.476.1,7.561,0,.56,0,3.781-.07,4.061a1.9,1.9,0,0,1-1.75,1.19c-.56,0-.8-.175-.8-.84,0-1.821.28-9.766.28-11.376,0-.141,0-.455-.315-.455a17.754,17.754,0,0,0-3.15,1.925c-.281.525-.316.595-.491.595-.559,0-2.03-2.661-2.03-2.836,0-.21.175-.28.736-.315.979-.1,4.655-1.33,5.04-1.855a1.188,1.188,0,0,0,.245-.875c.035-1.05.035-4.34.035-5.6,0-.385-.035-.981-.981-.981h-2.17c-.769,0-.839.175-1.33,1.191a9.5,9.5,0,0,1-1.679,2.73c-.035,0-.035-.07-.035-.1,0-.245.769-3.256.875-3.885a31.416,31.416,0,0,0,.594-5.321c0-.14-.07-.77-.07-.91,0-.21.035-.35.315-.35.21,0,2.661.63,2.661,1.19a10.669,10.669,0,0,1-.736,1.4,28.161,28.161,0,0,0-.8,2.73c0,.315.246.385.491.385h1.855c.63,0,.98-.28.98-.91,0-1.295-.035-3.57-.1-4.97,0-.35-.176-1.89-.176-2.241,0-.139.036-.315.281-.315.14,0,3.185.63,3.185,1.26,0,.246-.035.316-.56.841-.244.28-.244.455-.315,2.135,0,.49-.035,2.94-.035,3.43,0,.245,0,.735.49.735a1.152,1.152,0,0,0,.91-.525c.77-1.12.84-1.225,1.121-1.225.455,0,2.344,1.68,2.344,2.17,0,.56-.594.56-1.889.56Zm13.265-3.045c-1.014,0-1.014.595-1.014,1.365,0,4.446,0,4.516.98,4.516h2.975a4.617,4.617,0,0,0,1.715-.14c.315-.14,1.156-1.751,1.505-1.751.21,0,2.87,1.891,2.87,2.381,0,.42-.21.42-1.889.42H685.474c-1.015,0-2.381,0-3.676.07-.245,0-1.259.1-1.434.1-.141,0-.141,0-.386-.28l-.63-.735c-.175-.175-.175-.21-.175-.245s.071-.07.14-.07c.245,0,1.33.1,1.54.1,2.24.1,3.606.14,4.8.14h1.436c.875,0,.979-.49.979-1.155,0-.49.035-3.711-.035-4.061a.847.847,0,0,0-.98-.665c-1.084,0-1.68,0-2.871.035-.349,0-1.819.14-2.1.14-.141,0-.141-.07-.385-.315l-.631-.7c-.14-.14-.175-.21-.175-.245,0-.07.071-.1.141-.1.21,0,1.189.1,1.4.1.42.035,2.941.14,4.306.14.7,0,1.295,0,1.295-1.015,0-.6-.035-1.96-.069-2.52-.036-.245-.176-1.436-.176-1.575s0-.351.245-.351c.106,0,2.24.56,2.8.77.069.036.385.175.385.351,0,.209-.736.84-.805,1.015a14.9,14.9,0,0,0-.106,2.24c0,.525,0,1.085,1.016,1.085h1.505a4.8,4.8,0,0,0,1.715-.105c.28-.14.98-1.61,1.26-1.61.21,0,2.52,1.645,2.52,2.17,0,.49-.7.49-1.854.49Zm3.116,13.057c-.91,0-1.015.315-1.015,2.59,0,1.05.1,5.74.1,6.685,0,3.186-2.45,3.186-2.836,3.186-.665,0-.734-.245-.91-.875-.21-.8-.769-1.12-1.54-1.436-.875-.385-.979-.419-.979-.56,0-.1.279-.139.384-.139.35,0,1.925.07,2.241.07.7,0,1.4,0,1.4-1.576,0-1.05-.1-6.335-.1-6.546,0-.77,0-1.4-.981-1.4h-4.1c-1.015,0-2.345,0-3.675.069-.175,0-1.331.1-1.435.1-.141,0-.141,0-.351-.244l-.7-.771a.538.538,0,0,1-.139-.21c0-.07.07-.1.139-.1.245,0,1.365.1,1.575.1,2.241.1,3.571.14,4.761.14H690.2c.979,0,.979-.665.979-1.085,0-.49-.139-2.59-.139-3.01,0-.1,0-.28.314-.28.176,0,2.24.35,2.346.385.349.07.63.175.63.49,0,.175-.56.77-.63.91a4.74,4.74,0,0,0-.14,1.61c0,.98.63.98,1.33.98.63,0,.875-.28,1.19-.77.21-.35.631-.945.945-.945.351,0,2.591,1.645,2.591,2.135s-.7.491-1.856.491Zm-11.377,2.345c.491,0,3.606.805,3.606,3.22,0,1.225-.595,1.925-1.365,1.925-.595,0-.665-.21-1.26-2.135a8.6,8.6,0,0,0-1.191-2.555c-.035-.07-.139-.245-.069-.35C682.848,1744.8,682.989,1744.8,683.093,1744.8Z" fill="#4d4d4d"/>
    <path id="パス_1190" data-name="パス 1190" d="M710.048,1737.487c-.139-.14-.139-.21-.139-.245,0-.07.07-.07.1-.07.63,0,3.605.21,4.3.21a1.356,1.356,0,0,0,1.191-.665c.77-.84.875-.945,1.014-.945.176,0,2.275,1.225,2.275,1.855a.251.251,0,0,1-.1.21c-.1.1-.735.525-.84.63-.245.175-.245.595-.245,4.445,0,4.271,0,4.586.91,5.811,1.505,2.03,3.465,2.625,9.976,2.625a76.219,76.219,0,0,0,11.061-.595c.455-.07,2.8-.525,2.835-.525.071,0,.175,0,.175.1a5.318,5.318,0,0,1-.63.7,6.48,6.48,0,0,0-.8,1.261c-.6,1.33-.63,1.435-1.05,1.575-.385.1-3.991.14-4.585.14-3.186,0-8.576-.175-10.817-.455a7.976,7.976,0,0,1-6.16-3.431,18.627,18.627,0,0,0-1.435-2.135,22.936,22.936,0,0,0-3.571,4.445c-.56,1.191-.629,1.331-.98,1.331-.279,0-1.26-1.19-1.505-1.4-.35-.28-.84-.736-.84-1.051,0-.21.21-.245.455-.28.91-.175,4.585-2.065,4.8-3.6v-7.771c0-.8-.035-1.33-1.05-1.33-.07,0-1.715.035-2.625.1-.1,0-.629.07-.735.07s-.175-.07-.315-.245Zm6.442-5.5c-.735,0-.875-.245-2.1-2.485a19.536,19.536,0,0,0-3.395-4.025c-.49-.49-.56-.56-.56-.7,0-.1.1-.174.28-.174a14.981,14.981,0,0,1,3.5,1.365c1.75.91,3.36,2.275,3.36,4.865A1.107,1.107,0,0,1,716.49,1731.991Zm2.555,11.9c-.14-.175-.14-.175-.14-.21a.093.093,0,0,1,.1-.1c.175,0,.945.1,1.155.1.35.035,2.94.14,3.746.14,1.295,0,1.295-.1,1.295-1.751,0-1.015,0-1.505-1.085-1.505-.386,0-2.486.14-2.7.14-.14,0-.209-.07-.315-.21l-.595-.8c-.105-.175-.14-.175-.14-.245s.07-.07.1-.07c.525,0,3.115.21,3.71.21.84,0,.945-.42.945-1.015a5.7,5.7,0,0,0-.1-1.26c-.034-.1-.279-.805-.279-.84,0-.07.069-.07.21-.07.559,0,2.7.245,2.7,1.05,0,.14-.386.77-.42.945a2,2,0,0,0-.035.49c0,.735.455.735.735.735h2.555c.91,0,1.085-.315,1.085-1.05,0-.35-.14-1.995-.14-2.345,0-.21.28-.21.42-.21.42,0,2.415.42,2.415.84a12.479,12.479,0,0,1-.524,1.19,3.01,3.01,0,0,0-.071.7c0,.63.1.875.736.875.979,0,1.189-.1,1.54-.595.875-1.225.979-1.365,1.295-1.365.665,0,2.205,2.135,2.205,2.31,0,.56-.875.56-1.611.56h-3.08c-.525,0-1.085.14-1.085.945,0,2.136,0,2.346,1.085,2.346h1.156c1.435,0,1.575,0,2.03-.595.875-1.226.979-1.366,1.295-1.366.665,0,2.205,2.136,2.205,2.311,0,.595-.84.595-1.61.595H724.576c-.945,0-2.451,0-3.746.07-.105,0-.84.1-.91.1-.1,0-.175-.1-.28-.245Zm4.06-13.9c-.665,0-.8.315-.8.875a5.067,5.067,0,0,0,.28,2.1c.245.49.49.49,2.73.49,1.085,0,1.96,0,2.521-.945.139-.21.665-1.3.8-1.3a.468.468,0,0,1,.21.28c.071.175.211.98.246,1.155.035.14.455.771.455.91,0,.526-.8,1.3-1.61,1.611a13.336,13.336,0,0,1-4.166.35c-3.15,0-3.221-1.191-3.221-4.341a14.247,14.247,0,0,0-.1-1.75c0-.1-.175-.6-.175-.735,0-.245.42-.28.525-.28a2.932,2.932,0,0,1,1.4.42,2.278,2.278,0,0,0,.98.245h1.47c.6,0,1.016-.14,1.016-1.015,0-2.17,0-2.415-1.191-2.415-.839,0-2.485.035-3.465.1-.1,0-.63.07-.735.07-.14,0-.175-.07-.315-.21l-.665-.806c-.175-.174-.175-.174-.175-.244s.1-.07.14-.07c.175,0,1.05.1,1.26.1.455.035,3.29.14,3.92.14s.91-.035,1.156-.455c.209-.315.419-.665.77-.665.14,0,1.995,1.189,1.995,1.47,0,.14-.035.175-.42.49-.315.28-.315.7-.315,1.225,0,.35.07,2.17.07,2.59a1.269,1.269,0,0,1-1.3,1.4.989.989,0,0,1-.875-.525.961.961,0,0,0-.84-.28Zm4.936,16.767c0,.245-.071.245-.91.665-.456.21-2.451,1.505-2.906,1.715a7.106,7.106,0,0,1-2.765.875c-.105,0-.315-.035-.315-.21a25.2,25.2,0,0,1,2.03-1.645,8.826,8.826,0,0,0,1.855-2.45c.28-.63.351-.63.49-.63a1.118,1.118,0,0,1,.316.1C726.291,1745.433,728.041,1746.378,728.041,1746.763Zm.1-6.231c-.945,0-.945.665-.945,1.4,0,1.611,0,1.891,1.19,1.891h2.1c1.085,0,1.19-.28,1.19-1.331,0-1.54,0-1.96-1.015-1.96Zm5.53-10.256c-.735,0-1.015.07-1.015.945,0,1.75,0,2.17,2.416,2.17,1.785,0,3.955,0,4.375-1.014.1-.281.455-1.681.63-1.681.14,0,.665,1.33.805,1.54.1.175.77.875.77,1.086,0,.524-.7,1.085-1.365,1.47-.665.35-1.4.595-3.816.595-5.635,0-5.635-.315-5.635-3.5,0-.42-.28-2.52-.28-2.66,0-.245.385-.315.6-.315.07,0,1.261.28,1.4.315a3.617,3.617,0,0,0,1.085.14h2.031c.77,0,1.084-.21,1.084-1.015,0-.28,0-1.785-.07-2.1a.845.845,0,0,0-.875-.595c-2.1,0-3.465.035-3.639.07-.106,0-.946.105-1.016.105-.14,0-.175-.07-.315-.21l-.665-.806c-.175-.174-.175-.174-.175-.244s.105-.07.14-.07c.21,0,1.33.1,1.575.1s2.975.14,4.236.14a.794.794,0,0,0,.8-.385c.281-.385.385-.56.736-.56.139,0,1.96,1.155,1.96,1.435,0,.14-.071.175-.455.56-.175.14-.281.385-.281.91,0,.42.071,2.52.071,3.01a1.331,1.331,0,0,1-1.4,1.33c-.489,0-.594-.14-.8-.49-.14-.28-.595-.28-.771-.28Zm3.571,18.972a1.063,1.063,0,0,1-.946,1.05c-.559,0-.875-.28-1.4-.735-1.189-1.015-3.22-2.765-3.64-3.08-.21-.175-.595-.42-.595-.525s.14-.175.28-.175a4.058,4.058,0,0,1,.945.1C734.587,1746.308,737.247,1746.973,737.247,1749.248Z" fill="#4d4d4d"/>
    <path id="パス_1191" data-name="パス 1191" d="M774.885,1728.911c0,.315-.139.385-1.54.84a25.417,25.417,0,0,0-2.52,1.995c-.944.77-1.05.875-1.05,1.121,0,1.084,8.016,4.655,14.281,4.69.176,0,.665.035.665.1s-1.469,1.435-1.644,1.645c-.245.315-.6.7-.841,1.05-.175.21-.314.385-.524.385a49.193,49.193,0,0,1-12.532-6.09c-.56-.421-.8-.56-1.155-.56a2.529,2.529,0,0,0-1.155.525c-6.791,4.34-10.746,5.355-12.112,5.705a20.973,20.973,0,0,1-2.9.56c-.035,0-.139,0-.139-.035a11.475,11.475,0,0,1,1.609-.805c6.476-2.73,12.882-6.966,12.882-7.771a26.144,26.144,0,0,0-1.33-2.275c-.14-.245-.526-1.4-.665-1.4-.175,0-.21.14-.665,1.33-.035.14-.806,2.24-.806,2.31-.034.84-.069,1.191-.455,1.191a15.327,15.327,0,0,1-2.52-2.136c0-.175.84-.35.946-.42a10.307,10.307,0,0,0,3.045-3.185c.139-.245.174-.315.419-.315s.281.07.561.7c.034.07,1.75,3.115,2.765,3.115.84,0,3.046-3.01,3.4-3.535.106-.175.49-1.155.595-1.225C771.841,1726.216,774.885,1728.386,774.885,1728.911Zm-21.912,3.466c2.38-1.751,6.126-4.446,7.806-7.386a6.659,6.659,0,0,0,.455-1.226c.035-.139.106-.385.315-.385.315,0,3.22,1.646,3.22,2.276,0,.315-.279.385-.595.455a4.875,4.875,0,0,0-1.995,1.26c-4.9,4.2-9.836,6.02-10.046,5.705C752.1,1733.006,752.834,1732.481,752.973,1732.377Zm22.823,19.636c1.75,0,1.89,0,2.415-.875.91-1.47,1.015-1.645,1.365-1.645s.56.21,2.626,1.96c.455.42,1.014.841,1.014,1.016,0,.49-.7.49-1.889.49H759.169c-3.08,0-4.1.07-4.446.07a5.309,5.309,0,0,1-.734.1c-.106,0-.176-.1-.315-.246l-.666-.8c-.139-.141-.139-.175-.139-.211a.093.093,0,0,1,.1-.105c.245,0,1.33.141,1.54.141,1.716.07,3.186.1,4.831.1h6.231c.28,0,.8,0,.945-.56.1-.455.1-4.41.1-5.25,0-1.085,0-1.575-1.05-1.575H762.67c-3.08,0-4.1.035-4.446.07-.1,0-.631.1-.735.1s-.175-.1-.315-.245l-.666-.806a.53.53,0,0,1-.139-.209.092.092,0,0,1,.1-.1c.245,0,1.33.1,1.541.14,1.715.07,3.185.1,4.83.1h2.766c1.015,0,1.015-.6,1.015-1.541,0-2.03,0-2.31-1.12-2.31-.736,0-2.486,0-3.186.1-.069,0-.42.07-.489.07-.141,0-.211-.1-.316-.245l-.665-.8c-.07-.07-.175-.175-.175-.21,0-.07.07-.1.14-.1.245,0,1.33.1,1.54.14,1.716.07,3.151.1,4.8.1h1.715c1.61,0,1.82,0,2.24-.595.63-.91.7-1.015.981-1.015.734,0,2.344,1.82,2.344,2.1,0,.455-.769.455-1.854.455H770.23c-1.085,0-1.085.28-1.085,2.836,0,.7.21,1.015,1.12,1.015h2.8c1.541,0,1.82,0,2.24-.6.875-1.225.946-1.365,1.261-1.365a10.547,10.547,0,0,1,2.94,2.381c0,.525-.7.525-1.89.525H770.16c-1.12,0-1.12.245-1.12,2.555,0,4.55,0,4.83.77,4.83.49,0,1.156-1.155,1.646-1.995a22.591,22.591,0,0,0,2.1-4.41,3.215,3.215,0,0,1,.316-.805c.385.21,2.94,1.645,2.94,2.065,0,.245-.1.28-.665.385-.455.07-2.661,2.38-3.15,2.8a25.555,25.555,0,0,0-1.926,1.785c0,.175.245.175.42.175Zm-11.657-2.03a1.6,1.6,0,0,1-1.434,1.75c-.841,0-.945-.665-1.191-1.995a12.433,12.433,0,0,0-1.5-4.13c-.071-.14-.141-.35-.071-.385C760.114,1745.048,764.139,1747.043,764.139,1749.983Zm7.492-25.8c1.5,0,9.94,1.61,9.94,4.83,0,1.33-.98,1.33-1.12,1.33-.665,0-1.015-.35-1.925-1.225a32.251,32.251,0,0,0-6.931-4.62c-.1-.071-.245-.176-.21-.246C771.385,1724.186,771.56,1724.186,771.631,1724.186Z" fill="#4d4d4d"/>
    <path id="パス_1192" data-name="パス 1192" d="M793.1,1754.674a4.607,4.607,0,0,1,.735-.8c3.571-3.641,5.845-7.456,5.845-20.863,0-2.065,0-6.65-.489-8.4a7.676,7.676,0,0,1-.421-1.156c0-.175.245-.209.351-.209a19.726,19.726,0,0,1,2.66.664c.91.245,1.225.35,1.225.841,0,.315-.07.35-.6.84a1.317,1.317,0,0,0-.385.98v8.4c0,.07.035.42.245.42.42,0,2.135-2.591,2.135-4.621,0-.175,0-.49.35-.49.246,0,2.765,1.54,2.765,2.17,0,.245-.069.28-.769.77-.246.175-4.236,3.466-4.271,3.5a3.424,3.424,0,0,0-.595,1.75,30.511,30.511,0,0,1-.455,3.675c0,.141-.035.316-.035.49a1.375,1.375,0,0,0,.525,1.12c1.925,1.471,5.005,4.586,5.005,6.686,0,.35-.07,1.82-1.295,1.82-.7,0-.77-.21-1.54-2.17-.525-1.4-2.24-5.6-2.871-5.6-.244,0-.279.07-.734,1.47-1.575,4.655-4.2,6.65-6.651,8.541-.07.035-.49.385-.525.385A.226.226,0,0,1,793.1,1754.674Zm3.22-19.778a12.007,12.007,0,0,0,.91-3.15c.07-.455.07-.595.21-.595.455,0,.455,2.135.455,2.52,0,1.4-.245,6.826-2.205,6.826a1.341,1.341,0,0,1-1.19-1.47,3.078,3.078,0,0,1,.105-.7C794.781,1737.732,796.111,1735.387,796.321,1734.9Zm12.356,2.521a19.057,19.057,0,0,1-2.975,3.43c-.07,0-.175-.07-.175-.14,0-.1.875-1.61,1.016-1.89,1.644-3.08,3.36-7.246,3.36-9.486,0-1.015,0-1.015.314-1.015.21,0,3.186,1.365,3.186,2.03a.679.679,0,0,1-.314.525,4.509,4.509,0,0,0-.806.595C812.248,1731.536,809.307,1736.542,808.677,1737.417Zm14.282,2.66c-2.345,5.391-4.97,11.342-13.3,14.737a7.161,7.161,0,0,1-1.505.49.151.151,0,0,1-.141-.14c0-.175.771-.455.875-.525,9.487-5.881,11.8-14.807,11.8-17.117,0-.1-.105-.91-.105-1.015,0-.21.035-.35.315-.35.245,0,3.361,1.33,3.361,1.96a1,1,0,0,1-.316.665c-.559.49-.63.525-.735.7C823.2,1739.482,822.994,1739.972,822.959,1740.077Zm-5.531-10.536c0,1.645.21,8.891.21,10.4,0,2.38,0,3.221-.875,4.306a3.334,3.334,0,0,1-2.134,1.26c-.455,0-.526-.175-.875-.84-.386-.806-.876-1.015-2.766-1.856-.455-.21-.49-.21-.49-.349,0-.175.21-.175.28-.175.35,0,1.96.1,2.275.1,1.89,0,1.96-.281,1.96-1.681,0-1.505.071-8.191.071-9.556a56.112,56.112,0,0,0-.245-6.09c-.036-.246-.351-1.4-.351-1.645,0-.211.105-.316.386-.316a29,29,0,0,1,3.219.84.781.781,0,0,1,.6.736,1,1,0,0,1-.525.84,3.071,3.071,0,0,0-.6.7A27.58,27.58,0,0,0,817.428,1729.541Zm7.527,7.631c-1.016,0-1.156-.455-1.575-2.065a24.2,24.2,0,0,0-2.766-5.881c-.07-.14-.665-.945-.665-1.015a.16.16,0,0,1,.14-.175c.7,0,6.475,3.92,6.475,7.316A1.679,1.679,0,0,1,824.955,1737.172Z" fill="#4d4d4d"/>
    <path id="パス_1193" data-name="パス 1193" d="M849.362,1730.766c-2.976,0-5.775,4.9-5.775,8.611a7.12,7.12,0,0,0,.455,2.59,3.493,3.493,0,0,1,.314,1.33,1.171,1.171,0,0,1-1.26,1.261c-1.61,0-2.38-2.906-2.38-5.671a31.53,31.53,0,0,1,.63-5.565,23.848,23.848,0,0,0,.525-4.481,3.88,3.88,0,0,0-.455-2.17c-.07-.14-.6-.84-.6-.91a1.416,1.416,0,0,1,.945-.245,2.708,2.708,0,0,1,2.7,2.345,21.7,21.7,0,0,1-.736,2.59,37.179,37.179,0,0,0-.769,4.341c0,.1,0,.49.279.49.176,0,.386-.42.631-.875.385-.77,2.764-5.181,6.44-5.181,2.17,0,4.516,1.155,4.516,8.506,0,4.936-.981,10.536-7.631,14.491a9.021,9.021,0,0,1-2.52,1.155c-.071,0-.14-.034-.14-.105,0-.1.069-.174.875-.77,5.74-4.34,6.79-8.4,6.79-15.541C852.2,1733.111,851.5,1730.766,849.362,1730.766Z" fill="#4d4d4d"/>
    <path id="パス_1194" data-name="パス 1194" d="M892.448,1728.036c1.47,0,1.609,0,1.89-.245.315-.28,1.4-1.75,1.75-1.75.28,0,3.15,1.96,3.15,2.45s-.595.49-1.715.49H874.14c-3.045,0-4.06.07-4.41.105-.1,0-.63.07-.735.07-.14,0-.21-.14-.315-.245l-.665-.805c-.07-.1-.14-.175-.14-.21,0-.07.035-.07.1-.07.245,0,1.33.1,1.54.1,1.715.07,3.151.1,4.795.1h3.221c.07,0,.21,0,.21-.14,0-.1-.21-.595-.245-.77a9.205,9.205,0,0,0-1.05-3.571,3.316,3.316,0,0,1-.316-.525c0-.035.036-.069.106-.069.91,0,3.85,1.96,3.85,4.025,0,.21-.175.77-.175.91s.14.14.28.14h5.145a.686.686,0,0,0,.736-.42,23.946,23.946,0,0,0,1.05-3.711c0-.1-.105-.559-.105-.63a.286.286,0,0,1,.315-.28c.28,0,3.255,1.016,3.255,1.541,0,.244-.035.244-.735.525-.175.07-1.295,1.12-1.54,1.295-1.33,1.085-1.54,1.26-1.54,1.505,0,.175.245.175.385.175Zm-22.3,26.323a1.421,1.421,0,0,1-1.575-1.33c0-.84.49-1.156,1.645-1.961a9.239,9.239,0,0,0,2.975-3.535c.07-.21.141-.42.21-.42.176,0,.1.91.07,1.575C873.475,1749.318,872.706,1754.359,870.15,1754.359Zm3.921-14.737c-.735,0-.735,0-.735,2.205,0,.456.069,2.521.069,2.836a1.588,1.588,0,0,1-1.68,1.645c-.665,0-.8-.245-.8-.84,0-.455.1-2.871.139-3.536.1-1.96.1-2.59.1-8.3,0-.806,0-1.226-.034-1.646,0-.175-.246-.98-.246-1.155a.248.248,0,0,1,.28-.245,7.85,7.85,0,0,1,1.541.56,2.475,2.475,0,0,0,1.12.175h5.565a.992.992,0,0,0,.91-.42c.35-.56.491-.735.77-.735.176,0,2.275,1.295,2.275,1.82a.59.59,0,0,1-.314.49c-.316.245-.455.35-.49.63-.071.211-.071,6.546-.071,7.351,0,.315.071,1.821.071,2.17a3.2,3.2,0,0,1-3.116,3.466c-.315,0-.42-.035-.56-.525a3.192,3.192,0,0,0-1.47-1.995c-.14-.106-1.015-.35-1.015-.525,0-.1.105-.1.174-.1.141,0,1.856.1,2.171.1,1.12,0,1.365-.071,1.47-.526a20.48,20.48,0,0,0,.07-2.31c0-.6-.42-.6-.7-.6Zm5.495-4.62c.35,0,.7-.035.7-.63,0-1.891,0-2.1-.7-2.1h-5.495c-.351,0-.735,0-.735.6,0,1.925,0,2.135.735,2.135Zm0,3.675c.315,0,.63,0,.7-.42v-1.75c0-.595-.385-.595-.7-.595h-5.495c-.735,0-.735.21-.735,2.17,0,.595.42.595.735.595Zm2.205,13.931c0,.526-.14,1.821-1.47,1.821-1.47,0-1.47-1.47-1.47-2.24a11.86,11.86,0,0,0-.385-3.781,11.175,11.175,0,0,1-.385-1.19c0-.28,1.645,1.155,2.1,1.715A6.278,6.278,0,0,1,881.771,1752.608Zm7.631.21c0,1.471-1.05,1.681-1.435,1.681-1.05,0-1.121-.595-1.331-2.661a13.231,13.231,0,0,0-1.154-4.06,2.143,2.143,0,0,1-.245-.525c0-.07.035-.07.069-.07a6.877,6.877,0,0,1,2.381,1.89A6.347,6.347,0,0,1,889.4,1752.818Zm.175-20.477c0,.14-.525.63-.6.735a1.325,1.325,0,0,0-.14.736c0,.98.07,5.425.07,6.3a1.4,1.4,0,0,1-1.54,1.47c-.526,0-.91-.21-.91-.98,0-.14.105-1.225.105-1.435v-3.71a11.336,11.336,0,0,0-.141-3.186c0-.1-.174-.525-.174-.63,0-.21.14-.245.35-.245a7.19,7.19,0,0,1,1.26.175C889.4,1731.921,889.577,1731.956,889.577,1732.341Zm7.246-.8c0,.21-.035.245-.455.56a1.335,1.335,0,0,0-.316.98c0,1.191.036,10.082,0,10.327a2.889,2.889,0,0,1-2.974,2.905c-.63,0-.7-.1-1.226-1.085a7.1,7.1,0,0,0-2.1-1.68c-.071-.035-.316-.14-.316-.246s.14-.1.21-.1c.175,0,1.47.175,1.715.175s.77.036,1.506.036c.769,0,.91-.28.91-1.366v-9.906a1.932,1.932,0,0,0-.245-1.085c-.176-.35-.21-.385-.21-.455,0-.21.279-.245.42-.245a14.57,14.57,0,0,1,1.505.315C896.333,1730.941,896.823,1731.081,896.823,1731.536Zm1.645,21.633a1.4,1.4,0,0,1-1.435,1.505c-1.3,0-1.54-1.19-1.68-1.82a10.534,10.534,0,0,0-2.206-4.831,6.665,6.665,0,0,1-.7-.735c0-.07.069-.07.1-.07a12.121,12.121,0,0,1,2.871,1.435C897.908,1750.4,898.468,1752.258,898.468,1753.169Z" fill="#4d4d4d"/>
    <path id="パス_1195" data-name="パス 1195" d="M932.473,1736.542a30.854,30.854,0,0,0,8.471,2.765c.14,0,.734.1.734.245,0,.1-.489.245-.629.28a6.063,6.063,0,0,0-2.661,1.89c-.1.14-.49.875-.665.875-.21,0-7.8-3.675-11.236-9.275-.665-1.121-.77-1.226-1.015-1.226s-.315.07-1.085.875a41.6,41.6,0,0,1-10.361,8.156,30.267,30.267,0,0,1-5.5,2.24c-.105,0-.175-.07-.175-.1s3.746-2.346,4.061-2.556c4.725-2.975,9.731-8.33,10.221-10.956.035-.28.07-.385.315-.385.175,0,3.011,1.085,3.185,1.19.1.035.455.175.455.525a2.192,2.192,0,0,1-.14.49C926.522,1732.1,929.533,1735.037,932.473,1736.542Zm-16.872-8.716c-2.591,0-3.78.07-4.445.1-.106,0-.63.07-.735.07s-.175-.07-.316-.21l-.665-.805c-.14-.175-.14-.175-.14-.245s.036-.07.106-.07c.244,0,1.33.1,1.54.1,1.715.07,3.185.14,4.83.14h1.016c.734,0,.944-.35.944-.945a5.686,5.686,0,0,0-.279-1.855,5.41,5.41,0,0,1-.21-.7c0-.175.175-.246.384-.246.246,0,1.821.385,2.206.49,1.049.28,1.259.351,1.259.665,0,.211-.034.281-.524.911a.855.855,0,0,0-.245.63c0,.84.28,1.05,1.224,1.05h5.777c.314,0,1.05,0,1.05-.945a14.489,14.489,0,0,0-.106-1.575c-.035-.175-.21-.911-.21-1.05,0-.176.21-.246.386-.246.244,0,2.625.56,3.01.665s.594.246.594.56c0,.211-.139.351-.524.631a1.122,1.122,0,0,0-.455.98c0,.98.559.98,1.12.98h1.785c1.54,0,1.715,0,2.24-.595.98-1.155,1.085-1.3,1.4-1.3.21,0,3.255,1.855,3.255,2.31,0,.49-.7.49-1.856.49h-6.825c-1.085,0-1.085.56-1.085,1.4,0,.21.035,1.4.035,1.575,0,1.295-1.051,1.505-1.785,1.505-.806,0-.945-.14-.945-1.33v-2.415c-.106-.665-.526-.735-1.085-.735h-5.6c-.8,0-1.3,0-1.3.98,0,.35.106,1.89.106,2.2,0,.665-.106.98-.42,1.19a2.489,2.489,0,0,1-1.33.49c-.6,0-.875-.385-.875-1.085,0-.28.034-1.61.034-1.855,0-1.365,0-1.925-1.085-1.925Zm2.486,17.887a17.911,17.911,0,0,1,2.7,1.645.868.868,0,0,1,.28.525c0,.42-.28.49-1.12.7-.105.035-3.116,2.38-3.676,2.8a21.491,21.491,0,0,1-5.32,3.046.112.112,0,0,1-.1-.1c0-.07,1.855-1.68,2.1-1.926,2.905-2.765,4.69-5.53,5.005-6.65A.212.212,0,0,1,918.087,1745.713Zm1.61-1.856c-2.731,0-3.746.036-4.446.106-.1,0-.63.07-.735.07s-.175-.07-.315-.21l-.665-.805c-.14-.175-.14-.175-.14-.245,0-.036.035-.071.1-.071.245,0,1.33.1,1.54.1,1.715.1,3.185.141,4.831.141H922.5c.35,0,1.05,0,1.05-.946,0-.42-.21-3.255-.28-3.6,0-.07-.21-.42-.21-.49s.07-.21.35-.21c.245,0,2.7.525,3.045.63.49.1.666.42.666.595,0,.21-.07.28-.6.735-.49.42-.49.63-.49,1.68,0,1.26,0,1.611,1.051,1.611h1.54c1.54,0,1.715,0,2.24-.6.979-1.155,1.085-1.3,1.4-1.3.21,0,3.255,1.891,3.255,2.31,0,.49-.7.49-1.855.49h-6.615c-1.051,0-1.051.631-1.051,1.751,0,2.485,0,3.885.07,5.95.035.595.035,1.435.035,1.856,0,1.12-.28,1.785-1.785,1.785-.77,0-.84-.63-.84-1.225,0-.455.1-2.555.1-3.011.035-1.33.035-2.625.035-4.235a21.2,21.2,0,0,0-.07-2.38c-.175-.491-.735-.491-1.015-.491Zm9.346,2.941c0-.1.174-.14.315-.14,1.3,0,9.275,2.205,9.275,5.11,0,1.12-.629,2-1.5,2-.665,0-.806-.175-1.891-1.785a16.624,16.624,0,0,0-6.021-5.041C929.182,1746.938,929.043,1746.833,929.043,1746.8Z" fill="#4d4d4d"/>
    <path id="パス_1196" data-name="パス 1196" d="M966.206,1729.086c0,.1.069.245.069.385a26.67,26.67,0,0,1,.351,3.781c0,2.345-.526,5.6-3.606,10.256-2.8,4.27-4.586,5.11-5.985,5.11-2.311,0-4.376-3.605-4.376-7.876a12.33,12.33,0,0,1,3.886-8.926,14.482,14.482,0,0,1,11.166-4.55,11.4,11.4,0,0,1,5.635,1.12,10.971,10.971,0,0,1,6.091,10.186,13.054,13.054,0,0,1-8.821,12.321,21.535,21.535,0,0,1-5.811,1.3c-.139,0-.349-.036-.349-.246,0-.1.069-.139.944-.49,3.641-1.435,11.236-4.445,11.236-13.161,0-1.365-.139-9.7-9.7-9.7C966.241,1728.6,966.206,1728.876,966.206,1729.086Zm-11.377,10.746c0,2.275.91,5.391,3.046,5.391,1.014,0,1.855-.42,4.27-4.061a20.012,20.012,0,0,0,3.431-10.186c0-2.1-.141-2.275-.6-2.275C961.655,1728.7,954.829,1733.216,954.829,1739.832Z" fill="#4d4d4d"/>
    <path id="パス_1201" data-name="パス 1201" d="M1151,1743.438c-.91,0-.91.525-.91.945,0,.84.035,4.445.035,5.18,0,.21,0,.7.559.7.281,0,3.151-1.19,3.466-1.33a.763.763,0,0,0,.489-.63,6.935,6.935,0,0,0-1.12-2.17,7.337,7.337,0,0,1-.7-.945c0-.035.07-.035.106-.035.665,0,5.145,2.1,5.145,4.97,0,.98-.49,1.681-1.155,1.681-.63,0-.77-.351-1.33-1.646-.21-.525-.315-.8-.7-.8-.455,0-6.72,4.1-6.965,4.656-.35.7-.385.8-.735.8-.595,0-1.47-2.8-1.47-3.046s.14-.315.384-.315c1.821,0,1.821-.21,1.821-1.715v-10.5c0-2.415,0-5.985-.56-5.985-.14,0-2.45,1.855-2.66,1.855-.07,0-.106,0-.106-.07,0-.035.946-1.225,1.121-1.471a53.557,53.557,0,0,0,6.02-9.73c.176-.666.176-.736.455-.736.21,0,2.731,1.225,2.731,1.961a.531.531,0,0,1-.315.455c-.211.1-.35.175-.35.35s0,.175,1.049.6c.665.245,4.1,1.645,4.1,4.165a1.151,1.151,0,0,1-1.155,1.3c-.35,0-.805-.1-1.47-1.505-.63-1.33-2.766-3.885-3.221-3.885-.28,0-.455.245-.629.49a47.007,47.007,0,0,1-4.621,5.356c-.1.069-.175.139-.175.244s.07.141.876.56c1.049.526,1.154.595,1.644.595,1.016,0,1.051-.315,1.051-1.05a7.539,7.539,0,0,0-.176-2.1c-.035-.175-.279-.84-.279-.98,0-.07.069-.175.349-.175s2.976.385,2.976,1.225c0,.1-.386.525-.455.63-.141.28-.141.42-.141,1.436,0,.49,0,1.014.736,1.014.77,0,.875,0,1.155-.279.63-.735.84-.946,1.12-.946.245,0,1.89,1.015,1.89,1.646,0,.21-.6.98-.665,1.155a8.853,8.853,0,0,0-.1,1.715c0,.945.1,5.25.1,6.091,0,.665,0,1.89-1.47,1.89-.771,0-.84-.42-.91-1.015-.1-.595-.7-.595-.946-.595Zm4.025-5.461c.91,0,.91-.49.91-1.26,0-1.68,0-2.03-.91-2.03H1151c-.91,0-.91.525-.91,1.26,0,1.715,0,2.03.91,2.03Zm-.07,4.515c.91,0,.98,0,.98-2.765,0-.805-.525-.805-.91-.805H1151c-.91,0-.91.315-.91,1.365,0,2,0,2.2.91,2.2Zm16.627-10.641a.979.979,0,0,0,1.05-.56c.49-.805.525-.91.77-.91.279,0,3.43,1.68,3.43,2.486,0,.7-.385.735-2.31.979a4.1,4.1,0,0,0-2.31,1.121c-.071.035-.42.28-.455.28s-.071,0-.071-.035c0-.175.49-1.61.49-1.926,0-.524-.349-.524-.664-.524H1168.5c-.489,0-.945.034-.945.875,0,10.606,7.876,17.536,8.261,17.851.245.21,1.54,1.12,1.54,1.3,0,.1-.595.209-.63.209a6.209,6.209,0,0,0-2.1.7,3.427,3.427,0,0,1-.77.455c-.7,0-4.761-4.831-6.511-15.122-.035-.1-.1-.56-.209-.56-.141,0-.176.315-.211.665-.525,4.235-2.065,11.411-8.891,14.492a6.585,6.585,0,0,1-2.485.665c-.14,0-.175,0-.175-.1a3.681,3.681,0,0,1,.77-.49c1.855-.945,5.531-2.836,7.386-9.171a39.474,39.474,0,0,0,1.47-10.606c0-.631,0-1.155-.805-1.155s-.875.1-1.54,1.084a28.51,28.51,0,0,1-2.871,3.676.093.093,0,0,1-.1-.1c0-.21,1.085-2.555,1.3-3.045.771-1.961,2.941-7.911,2.941-9.871,0-1.016,0-1.191.455-1.191.49,0,3.4,1.4,3.4,1.961,0,.28-.1.35-.735.735-.42.28-2.8,5.46-2.8,5.46,0,.385.385.385.595.385Z" fill="#4d4d4d"/>
    <path id="パス_1202" data-name="パス 1202" d="M1199.2,1728.526c-.455,0-1.925,1.26-2.484,1.75-.456.42-1.786,1.61-2.7,1.61-1.3,0-2.275-2.485-2.275-2.59,0-.21.069-.35.279-.35s1.016.14,1.191.14c1.12,0,1.54-.07,3.64-1.4a6.012,6.012,0,0,1,3.361-1.155c2.31,0,2.834,1.575,2.834,2.1,0,.735-.314,1.155-2.134,2.835a31.8,31.8,0,0,0-5.146,7.106c0,.175.245.21.35.21.455,0,2.415-.035,2.836,0a28.329,28.329,0,0,1,6.615,1.4,1.4,1.4,0,0,0,.56.14c.456,0,.666-2.87.666-3.22,0-.28-.21-1.82-.21-1.96,0-.21.244-.21.384-.21.105,0,3.151.56,3.151,1.925a7.5,7.5,0,0,1-.771,1.365c0,.07-.49,2.87-.49,2.975,0,.455.21.56.806.875,1.365.735,4.549,2.381,4.549,4.2a1.355,1.355,0,0,1-1.294,1.33c-.7,0-1.085-.28-3.536-2.38-.07-.035-1.085-.91-1.435-.91-.279,0-.385.245-.489.42a15.108,15.108,0,0,1-6.862,6.475,12.9,12.9,0,0,1-3.78,1.4c-.035,0-.28,0-.28-.1a5.579,5.579,0,0,1,.665-.49c3.466-2.38,5.18-3.78,7.211-6.93a6.437,6.437,0,0,0,1.05-2c0-.314,0-.49-1.925-1.435a15.16,15.16,0,0,0-6.441-1.575c-2.17,0-2.24.14-2.836,1.4-3.009,6.406-3.6,7.7-5.81,7.7-1.785,0-2.31-1.925-2.31-2.8,0-2.975,3.116-5.636,6.79-6.931a1.263,1.263,0,0,0,.876-.7c.8-1.295,5.18-7.911,5.356-8.226a4.958,4.958,0,0,0,.455-1.575A.451.451,0,0,0,1199.2,1728.526Zm-11.726,16.872c0,.6.281,1.015.911,1.015,1.924,0,4.2-5.146,4.2-5.286,0-.1-.036-.175-.14-.175C1191.184,1740.952,1187.474,1743.333,1187.474,1745.4Z" fill="#4d4d4d"/>
    <path id="パス_1203" data-name="パス 1203" d="M1227.136,1731.431c-.8,0-3.22,0-4.445.07a5.3,5.3,0,0,1-.735.1c-.105,0-.175-.1-.315-.245l-.666-.8c-.139-.14-.139-.175-.139-.21a.093.093,0,0,1,.1-.1c.245,0,1.33.1,1.575.14,1.575.07,3.151.1,4.8.1h6.862c1.014,0,1.014-.455,1.014-2.45a22.033,22.033,0,0,0-.175-3.221c-.035-.209-.245-1.05-.245-1.225,0-.21.245-.21.385-.21s3.711.736,3.711,1.541c0,.35-.07.385-.665.945-.455.385-.49,1.3-.49,1.855,0,2.625.21,2.765,1.12,2.765h6.966c1.3,0,1.644,0,2.1-.525.21-.315,1.12-1.96,1.471-1.96.524,0,3.325,2.415,3.325,2.905,0,.525-.665.525-1.855.525h-15.717c-.385,0-.525,0-.525.14,0,.245.14.245,1.505.455.526.07,1.54.28,1.54.77,0,.28-.98,1.155-1.085,1.4a9.735,9.735,0,0,0-.56,2.555c0,.7.735.7.876.7h7.735a1.661,1.661,0,0,0,1.47-.525,4.154,4.154,0,0,1,.806-.7c.174,0,3.045,1.75,3.045,2.24,0,.28-.911,1.085-1.015,1.295a34.85,34.85,0,0,0-.981,4.9c-1.085,5.005-2.169,6.86-3.254,8.121a6.928,6.928,0,0,1-4.026,2.31c-.42,0-.42-.245-.42-.56,0-1.505-1.82-2.625-2.905-3.186-.806-.42-.91-.455-.91-.56,0-.07.034-.28.349-.28a5.9,5.9,0,0,1,1.436.385,10.564,10.564,0,0,0,2.765.455c1.47,0,3.081-.875,4.2-5.495a35.89,35.89,0,0,0,.909-6.546c0-.91-.595-.91-1.12-.91h-8.226c-.979,0-1.05.175-1.47,1.995-2.73,11.376-11.656,13.547-12.111,13.547-.1,0-.315,0-.315-.1,0-.14.42-.385.84-.595a20.764,20.764,0,0,0,7.526-8.436,32.87,32.87,0,0,0,2.555-11.061c0-2.311-.595-2.311-1.295-2.311Z" fill="#4d4d4d"/>
    <g id="グループ_531" data-name="グループ 531" transform="translate(-80.742 79.568)">
      <path id="パス_2251" data-name="パス 2251" d="M1090.925,1653.444c0,1.155-2.66,2.205-3.5,2.555-.49.175-.525.315-.594,1.54-.071.77-.071,3.605-.071,3.78,0,.211,0,.631.315.631.105,0,2.975-1.191,3.536-1.4,3.465-1.295,5.04-1.4,5.95-1.4a5.359,5.359,0,0,1,5.391,5.286c0,4.62-4.866,6.721-7.736,6.721-1.995,0-3.6-1.015-3.6-2.836a3.118,3.118,0,0,1,1.75-2.765.188.188,0,0,1,.175.175c0,.1-.071.175-.14.28a1.448,1.448,0,0,0-.315.945c0,1.68,1.925,1.68,2.275,1.68,2.311,0,5.251-1.54,5.251-4.34a3.628,3.628,0,0,0-3.36-3.851c-.981,0-3.151.456-7.247,2.626-1.959,1.05-2.169,1.155-2.169,1.75,0,.385.1,1.96.1,2.31,0,1.61-.525,3.921-1.785,3.921-.945,0-1.33-.735-1.61-1.3-1.121-2.171-1.3-2.171-1.75-2.171a2.908,2.908,0,0,0-.875.21,6.9,6.9,0,0,1-1.331.7c-.384,0-2.169-1.05-2.169-2.2,0-.63.384-1.365,1.014-1.365.21,0,1.226.175,1.436.175.944,0,1.575-.175,3.639-1.19,1.786-.875,2-.98,2-1.96,0-.806-.035-3.781-.07-4.376,0-.245-.105-.77-.49-.77a8.183,8.183,0,0,0-1.61.315,7.51,7.51,0,0,1-2.486.665c-1.189,0-2.519-2.415-2.519-2.66a.247.247,0,0,1,.279-.245c.1,0,.525.14.63.14a10.182,10.182,0,0,0,1.61.175,15.291,15.291,0,0,0,4.446-1.05,26.184,26.184,0,0,0,.35-3.815,3.437,3.437,0,0,0-1.155-2.8,3.508,3.508,0,0,1-.49-.56c0-.315.56-.385.77-.385,2.345,0,3.606,1.715,3.606,2.38a14.043,14.043,0,0,1-.736,1.821,18.682,18.682,0,0,0-.349,2.275c0,.14.069.385.279.385.245,0,1.226-.385,1.226-.875,0-.07-.175-.42-.175-.49,0-.035.069-.1.139-.14C1089.246,1651.869,1090.925,1652.359,1090.925,1653.444Zm-7.98,13.406c0,.525.945,1.645,1.47,1.645.49,0,.98-.98.98-2.695,0-.14,0-.49-.1-.56C1085.185,1665.24,1082.945,1666.36,1082.945,1666.85Zm23-10.886c0,.735-.42,1.68-1.155,1.68-.21,0-1.015-.07-1.19-.07-.175.035-.91.245-1.051.245a.163.163,0,0,1-.174-.175,2.408,2.408,0,0,1,.105-.28,1.866,1.866,0,0,0,.14-.63c0-1.4-1.75-1.89-2.941-1.89a3.042,3.042,0,0,0-1.365.35.782.782,0,0,1-.35.1c-.105,0-.14-.035-.14-.14a4.478,4.478,0,0,1,3.781-2.205C1104.3,1652.954,1105.942,1654.354,1105.942,1655.964Z" fill="#4d4d4d"/>
      <path id="パス_2252" data-name="パス 2252" d="M1122.3,1653.234a4.8,4.8,0,0,1-.42,1.4,12.362,12.362,0,0,0-.84,4.515c0,3.536,1.82,6.091,2.9,6.091.6,0,.735-.175,1.785-1.925.21-.35.806-1.19,1.085-1.19.106,0,.176.14.176.28a4.093,4.093,0,0,1-.106.7,9.86,9.86,0,0,0-.455,2.66,4.758,4.758,0,0,0,.21,1.4,8.663,8.663,0,0,1,.281,1.155c0,.7-.736,1.085-1.331,1.085-2.24,0-6.65-3.675-6.65-10.361,0-.98.489-5.285.489-6.195a9.671,9.671,0,0,0-.245-2.031,4.753,4.753,0,0,1-.279-1.19c0-.105.14-.14.21-.14C1120.72,1649.488,1122.3,1652.289,1122.3,1653.234Zm17.081.8a8.709,8.709,0,0,1,3.116,6.686c0,.665-.07,2.31-1.75,2.31-1.715,0-1.715-1.891-1.715-2.345,0-2.906,0-4.376-1.856-6.231-.28-.28-1.679-1.365-1.679-1.575,0-.1.139-.175.314-.175A6.81,6.81,0,0,1,1139.376,1654.039Z" fill="#4d4d4d"/>
      <path id="パス_2253" data-name="パス 2253" d="M1162.914,1649.033a16.119,16.119,0,0,1-.665,1.961,84.142,84.142,0,0,0-1.47,12.461c0,3.535.665,6.686,5.355,6.686a17.246,17.246,0,0,0,7.351-1.821c.525-.245,3.185-1.715,3.325-1.715a.164.164,0,0,1,.176.175c0,.385-5.181,6.021-11.762,6.021-4.551,0-6.721-2.626-6.721-9.661,0-2.17.071-2.871.8-9.731.141-1.155.455-4.026.455-5.006a4.406,4.406,0,0,0-.314-1.715c-.035-.1-.385-.91-.385-.945,0-.245.279-.35.489-.35C1161.374,1645.393,1162.914,1648.228,1162.914,1649.033Z" fill="#4d4d4d"/>
      <path id="パス_2254" data-name="パス 2254" d="M1193.934,1653.234a4.778,4.778,0,0,1-.421,1.4,12.385,12.385,0,0,0-.84,4.515c0,3.536,1.821,6.091,2.906,6.091.595,0,.735-.175,1.785-1.925.21-.35.8-1.19,1.085-1.19.1,0,.176.14.176.28a4.2,4.2,0,0,1-.106.7,9.821,9.821,0,0,0-.455,2.66,4.721,4.721,0,0,0,.21,1.4,8.782,8.782,0,0,1,.28,1.155c0,.7-.735,1.085-1.33,1.085-2.24,0-6.65-3.675-6.65-10.361,0-.98.489-5.285.489-6.195a9.745,9.745,0,0,0-.245-2.031,4.75,4.75,0,0,1-.279-1.19c0-.105.139-.14.21-.14C1192.359,1649.488,1193.934,1652.289,1193.934,1653.234Zm17.081.8a8.711,8.711,0,0,1,3.115,6.686c0,.665-.069,2.31-1.75,2.31-1.714,0-1.714-1.891-1.714-2.345,0-2.906,0-4.376-1.856-6.231-.28-.28-1.68-1.365-1.68-1.575,0-.1.14-.175.315-.175A6.812,6.812,0,0,1,1211.015,1654.039Z" fill="#4d4d4d"/>
    </g>
  </g>
</svg>
