<svg xmlns="http://www.w3.org/2000/svg" width="550.607" height="94.835" viewBox="0 0 550.607 94.835">
  <g id="lineup_singleorigin" transform="translate(0.15 0.15)">
    <g id="グループ_100" data-name="グループ 100" transform="translate(-680.619 -2892.211)">
      <g id="グループ_99" data-name="グループ 99">
        <path id="パス_522" data-name="パス 522" d="M766.061,2926.845c0,.66-.495,1.65-1.287,1.65-.495,0-.661-.2-1.156-1.023a8,8,0,0,0-3-2.739c-.1-.067-.3-.2-.3-.331,0-.461,1.882-.5,2.31-.5C764.047,2923.907,766.061,2925.228,766.061,2926.845ZM762,2937.076c-.1-.165-.693-.858-.792-1.023a1.4,1.4,0,0,1-.2-.627c0-.132.1-.231.3-.231.3,0,1.552.429,1.815.429,1.419,0,10.3-4.951,18.186-13.894a15.633,15.633,0,0,1,1.419-1.486.12.12,0,0,1,.132.132c0,.363-2.9,7.426-16.569,17-.4.265-1.979,1.749-2.409,1.749C763.157,2939.122,762.826,2938.595,762,2937.076Zm8.02-16.8c0,.76-.528,1.486-1.056,1.486-.363,0-.528-.132-1.716-1.551a5.741,5.741,0,0,0-2.839-1.749c-.131-.033-.495-.133-.495-.232a3.94,3.94,0,0,1,2.541-.626C770.021,2917.6,770.021,2920.178,770.021,2920.276Z" fill="#333"/>
        <path id="パス_523" data-name="パス 523" d="M805.994,2934.205a22.986,22.986,0,0,0-3.234,2.706c-.628.759-.693.825-1.188.825-1.783,0-4.225-2.112-4.225-3.432,0-.231.033-1.749.33-1.749a8.105,8.105,0,0,1,.99.627,5.474,5.474,0,0,0,2.244.759c1.618,0,10.364-5.842,15.842-11.254.529-.529,1.453-1.453,1.519-1.453a.212.212,0,0,1,.165.165C818.437,2921.7,814.575,2927.868,805.994,2934.205Zm-2.707-10.858c-.89,0-1.22-.529-2.309-2.179a7.426,7.426,0,0,0-3-2.706c-.132-.066-.3-.165-.3-.3s.264-.3.726-.3c3.532,0,6.3,1.882,6.3,3.829A1.458,1.458,0,0,1,803.287,2923.347Z" fill="#333"/>
        <path id="パス_524" data-name="パス 524" d="M837.331,2917.273c0-.33.462-.33.726-.33a3.082,3.082,0,0,1,3.069,1.849c0,.4-.33.825-.99,1.65-.165.231-.264.363-.264.528,0,.264.4.264.529.264a18.673,18.673,0,0,0,5.016-1.32,6.164,6.164,0,0,1,1.551-.528c.3,0,.462.1,1.815.89.2.1,1.057.562,1.222.661a1.2,1.2,0,0,1,.627.825c0,.462-.231.595-1.32,1.255-.363.23-.495.428-1.651,2.211a40.382,40.382,0,0,1-11.815,12.41,22.584,22.584,0,0,1-6.568,3.168.3.3,0,0,1-.3-.3c0-.132.1-.2,1.122-.759,10.066-5.545,16.338-16.8,16.338-17.823a.357.357,0,0,0-.364-.362c-.066,0-4.621,1.022-5.413,1.022-.2,0-1.089-.1-1.287-.1-.627,0-.693.066-2.079,1.651a24.837,24.837,0,0,1-4.489,4.29,10.106,10.106,0,0,1-3.168,1.75c-.165,0-.232-.1-.232-.2a28.011,28.011,0,0,1,2.608-2.475c2.674-2.674,5.809-7.229,5.545-9.208C837.529,2918.132,837.331,2917.405,837.331,2917.273Zm15.545,1.123c0,.561-.4,1.287-.957,1.287-.462,0-.726-.2-1.749-1.419a10.381,10.381,0,0,0-2.344-1.947c-.165-.1-.495-.331-.495-.462s.264-.3.562-.3C852.117,2915.558,852.876,2918,852.876,2918.4Zm.792-4.984c1.354.792,1.354,1.551,1.354,1.881a.893.893,0,0,1-.825.957c-.694,0-1.024-.33-1.749-1.089a7.752,7.752,0,0,0-3.038-1.617c-.33-.1-.428-.264-.428-.363,0-.264.858-.462,1.188-.462A6.087,6.087,0,0,1,853.668,2913.412Z" fill="#333"/>
        <path id="パス_525" data-name="パス 525" d="M870.37,2929.386c-1.98,4.291-5.445,6.271-6.1,6.271a.153.153,0,0,1-.165-.165,9.385,9.385,0,0,1,1.319-1.749c3.631-4.984,3.994-8.582,3.994-9.671a7.241,7.241,0,0,0-.561-2.838,2.45,2.45,0,0,1-.132-.594c0-.1.033-.165.165-.165.231,0,3.729,1.122,3.729,2.8C872.614,2923.379,870.932,2928.132,870.37,2929.386Zm5.347,3.07c0-.165.165-1.023.2-1.188.1-.627.132-3.235.132-4.06a20.207,20.207,0,0,0-.627-6.205,8.579,8.579,0,0,1-.429-1.188c0-.132.132-.166.2-.166.165,0,3.631.595,3.631,2.311,0,.4-.462,2.112-.529,2.476-.132.89-.263,4.884-.263,5.973,0,.429.033,1.089.627,1.089.99,0,4.026-2.178,7.195-5.379.56-.561,3.366-3.532,3.5-3.532a.142.142,0,0,1,.132.132c0,.265-1.914,4.357-7.69,9.439a18.3,18.3,0,0,0-2.277,2.113c-.562.627-.858.858-1.09.891C877.466,2935.327,875.717,2933.38,875.717,2932.456Z" fill="#333"/>
        <path id="パス_526" data-name="パス 526" d="M905.073,2923.247a16.723,16.723,0,0,0,2.706.2c1.782,0,6.666-.461,7.162-.561s.725-.3.725-.792c0-4.257-.89-5.314-1.287-5.742-.132-.133-.725-.694-.725-.859,0-.3,1.55-.3,1.847-.3a2.713,2.713,0,0,1,2.608,1.353,7.654,7.654,0,0,1-.429,1.222c-.067.4-.1,2.211-.1,2.706,0,1.585.032,1.947.693,1.947s2.707-.362,3.5-.5c.23-.032,1.287-.362,1.485-.362.3,0,2.046.428,2.046,1.419,0,.89-1.617.89-2.046.89s-2.277-.132-2.674-.132c-2.9,0-2.9.5-2.9,1.189,0,.5.363,8.184.429,8.911.066.594.4,3.069.4,3.564,0,1.749-1.089,3.07-1.98,3.07-.759,0-.924-.561-1.221-1.651a6.845,6.845,0,0,0-1.915-2.706,7.415,7.415,0,0,1-.726-.759c0-.066.1-.1.132-.1.067,0,2.574.957,2.938.957.428,0,.428-.527.428-.792,0-3.63-.165-7.789-.23-7.954a.29.29,0,0,0-.3-.2c-.165,0-.231.067-.793.76-4.752,5.875-10,8.978-10.693,8.978-.1,0-.2-.067-.2-.133a21.463,21.463,0,0,1,2.112-1.98c4.654-4.357,8.02-8.977,8.02-9.967a.346.346,0,0,0-.363-.363c-.594,0-4.488.495-5.082.626a16.937,16.937,0,0,1-1.98.627c-.991,0-3.038-2.244-3.038-2.739,0-.132.165-.165.2-.165C904.016,2922.917,904.908,2923.214,905.073,2923.247Z" fill="#333"/>
        <path id="パス_527" data-name="パス 527" d="M942.568,2916.812c.792,0,2.607,1.155,2.607,1.715,0,.166-.066.925-.066,1.09,0,3.828.066,6.8.1,7.591.032.4.2,2.046.2,2.376,0,.859-.759,1.684-1.254,1.684-.726,0-1.486-1.749-1.486-2.608,0-.263.165-1.387.165-1.65.067-1.486.067-2.773.067-3.366,0-3.7-.165-4.456-1.189-5.645-.264-.3-.428-.494-.428-.759C941.281,2917.01,941.809,2916.812,942.568,2916.812Zm9.076-.924c-.4-.529-.429-.595-.429-.66,0-.1,0-.2.957-.2,1.981,0,3.63.826,3.63,1.683a12.7,12.7,0,0,1-.33,1.32c-.132.892-.165,5.842-.264,7a20.879,20.879,0,0,1-8.251,15.315,13.156,13.156,0,0,1-2.97,1.947c-.132,0-.2-.066-.2-.165,0-.132,2.146-2.244,2.542-2.674,6.37-6.8,6.6-12.541,6.6-19.142A6.307,6.307,0,0,0,951.644,2915.888Z" fill="#333"/>
        <path id="パス_528" data-name="パス 528" d="M978.755,2927.241c0,.693-.462,1.65-1.254,1.65-.495,0-.66-.2-1.155-1.023a8.562,8.562,0,0,0-3-2.707c-.1-.065-.33-.2-.33-.33,0-.494,2.112-.494,2.311-.494C976.741,2924.337,978.755,2925.624,978.755,2927.241Zm-3.894,10.132c-.1-.2-.627-.89-.694-1.055a1.351,1.351,0,0,1-.165-.6.242.242,0,0,1,.265-.264c.1,0,1.584.528,1.914.528,1.782,0,10.76-4.918,16.568-10.264.363-.364,2.278-2.311,2.376-2.311a.212.212,0,0,1,.2.2c0,.067-1.651,5.182-14.588,13.334-2.014,1.254-2.146,1.354-2.41,1.551-1.221.957-1.353,1.057-1.716,1.057C975.917,2939.552,975.521,2938.793,974.861,2937.373Zm7.887-16.733c0,.858-.56,1.552-1.089,1.552-.363,0-.495-.166-1.65-1.519a5.58,5.58,0,0,0-2.871-1.782c-.462-.165-.495-.165-.495-.3,0-.364,1.518-.694,2.509-.694a4.564,4.564,0,0,1,1.682.33A2.884,2.884,0,0,1,982.748,2920.64Zm11.057-1.518c0,.4-.429,1.254-1.056,1.254-.495,0-.792-.363-1.617-1.65a10.285,10.285,0,0,0-2.112-2.211c-.132-.1-.429-.4-.429-.529,0-.2.4-.231.594-.231C991.1,2915.755,993.8,2917.372,993.8,2919.122Zm3.466-2.245a.972.972,0,0,1-.891,1.057c-.693,0-1.155-.694-1.617-1.452a8.287,8.287,0,0,0-2.674-2.146c-.3-.165-.363-.33-.363-.4,0-.3.66-.3,1.255-.3C993.838,2913.643,997.271,2914.6,997.271,2916.877Z" fill="#333"/>
        <path id="パス_529" data-name="パス 529" d="M1020.357,2934.205a22.994,22.994,0,0,0-3.235,2.706c-.628.759-.693.825-1.188.825-1.782,0-4.225-2.112-4.225-3.432,0-.231.033-1.749.33-1.749a8.115,8.115,0,0,1,.991.627,5.464,5.464,0,0,0,2.244.759c1.617,0,10.363-5.842,15.841-11.254.529-.529,1.453-1.453,1.519-1.453a.212.212,0,0,1,.165.165C1032.8,2921.7,1028.938,2927.868,1020.357,2934.205Zm-2.707-10.858c-.891,0-1.221-.529-2.31-2.179a7.426,7.426,0,0,0-3-2.706c-.132-.066-.3-.165-.3-.3s.264-.3.726-.3c3.532,0,6.3,1.882,6.3,3.829A1.459,1.459,0,0,1,1017.65,2923.347Z" fill="#333"/>
        <path id="パス_530" data-name="パス 530" d="M1058.019,2918.2c0,.1.066.232.066.364a25.282,25.282,0,0,1,.33,3.564c0,2.212-.495,5.281-3.4,9.671-2.641,4.026-4.324,4.818-5.645,4.818-2.177,0-4.125-3.4-4.125-7.425a11.631,11.631,0,0,1,3.663-8.417,13.659,13.659,0,0,1,10.53-4.29,10.754,10.754,0,0,1,5.313,1.055,10.345,10.345,0,0,1,5.742,9.6,12.308,12.308,0,0,1-8.316,11.618,20.274,20.274,0,0,1-5.479,1.22c-.132,0-.331-.033-.331-.23,0-.1.067-.133.892-.463,3.433-1.352,10.595-4.191,10.595-12.409,0-1.287-.132-9.143-9.143-9.143C1058.052,2917.735,1058.019,2918,1058.019,2918.2Zm-10.727,10.133c0,2.146.859,5.083,2.872,5.083.957,0,1.749-.4,4.027-3.829a18.88,18.88,0,0,0,3.234-9.6c0-1.981-.132-2.145-.562-2.145C1053.729,2917.835,1047.292,2922.092,1047.292,2928.33Z" fill="#333"/>
        <path id="パス_531" data-name="パス 531" d="M1096.077,2922.224c0,1.09-2.507,2.08-3.3,2.41-.463.165-.495.3-.562,1.452-.066.726-.066,3.4-.066,3.564,0,.2,0,.594.3.594.1,0,2.8-1.122,3.333-1.32a15.5,15.5,0,0,1,5.611-1.32,5.053,5.053,0,0,1,5.082,4.984c0,4.356-4.587,6.337-7.294,6.337-1.881,0-3.4-.957-3.4-2.674a2.941,2.941,0,0,1,1.65-2.607.177.177,0,0,1,.165.165c0,.1-.066.165-.132.264a1.36,1.36,0,0,0-.3.891c0,1.584,1.815,1.584,2.145,1.584,2.179,0,4.951-1.452,4.951-4.092a3.419,3.419,0,0,0-3.169-3.631c-.924,0-2.97.429-6.832,2.476-1.848.99-2.046,1.089-2.046,1.649,0,.364.1,1.849.1,2.179,0,1.519-.495,3.7-1.683,3.7-.891,0-1.254-.692-1.519-1.22-1.055-2.047-1.22-2.047-1.65-2.047a2.778,2.778,0,0,0-.825.2,6.466,6.466,0,0,1-1.254.66c-.363,0-2.046-.99-2.046-2.079,0-.594.362-1.287.957-1.287.2,0,1.155.165,1.353.165.891,0,1.485-.165,3.432-1.122,1.684-.825,1.882-.925,1.882-1.849,0-.759-.033-3.564-.066-4.125,0-.231-.1-.726-.462-.726a7.721,7.721,0,0,0-1.519.3,7.067,7.067,0,0,1-2.342.627c-1.123,0-2.378-2.278-2.378-2.508a.236.236,0,0,1,.265-.232c.1,0,.495.132.594.132a9.46,9.46,0,0,0,1.519.165,14.424,14.424,0,0,0,4.191-.99,24.7,24.7,0,0,0,.33-3.6,3.24,3.24,0,0,0-1.089-2.64,3.307,3.307,0,0,1-.463-.529c0-.3.528-.363.727-.363,2.211,0,3.4,1.617,3.4,2.244a13.316,13.316,0,0,1-.693,1.717,17.833,17.833,0,0,0-.33,2.145c0,.132.066.363.264.363.231,0,1.156-.363,1.156-.825,0-.066-.165-.4-.165-.462,0-.033.065-.1.132-.132C1094.493,2920.739,1096.077,2921.2,1096.077,2922.224Zm-7.524,12.641c0,.5.891,1.551,1.386,1.551.462,0,.923-.924.923-2.541,0-.132,0-.462-.1-.528C1090.665,2933.347,1088.553,2934.4,1088.553,2934.865Zm21.684-10.264c0,.693-.4,1.584-1.089,1.584-.2,0-.957-.066-1.122-.066-.165.032-.859.231-.991.231a.154.154,0,0,1-.165-.165,2.28,2.28,0,0,1,.1-.264,1.735,1.735,0,0,0,.132-.595c0-1.319-1.65-1.782-2.773-1.782a2.885,2.885,0,0,0-1.287.33.726.726,0,0,1-.33.1c-.1,0-.132-.033-.132-.132a4.221,4.221,0,0,1,3.565-2.08C1108.686,2921.762,1110.237,2923.082,1110.237,2924.6Z" fill="#333"/>
        <path id="パス_532" data-name="パス 532" d="M1142.493,2925.228a29.09,29.09,0,0,0,7.988,2.607c.131,0,.693.1.693.232,0,.1-.462.23-.595.263a5.719,5.719,0,0,0-2.507,1.782c-.1.132-.462.826-.627.826-.2,0-7.361-3.466-10.595-8.746-.627-1.057-.727-1.156-.957-1.156s-.3.066-1.024.825a39.209,39.209,0,0,1-9.769,7.69,28.491,28.491,0,0,1-5.182,2.112c-.1,0-.165-.065-.165-.1s3.531-2.211,3.829-2.41c4.455-2.8,9.175-7.855,9.637-10.331.033-.263.066-.362.3-.362.165,0,2.839,1.022,3,1.122.1.033.429.165.429.5a2.061,2.061,0,0,1-.132.462C1136.883,2921.036,1139.721,2923.809,1142.493,2925.228Zm-15.908-8.218c-2.442,0-3.564.065-4.191.1-.1,0-.594.066-.694.066s-.165-.066-.3-.2l-.627-.76c-.132-.165-.132-.165-.132-.231s.032-.066.1-.066c.232,0,1.254.1,1.452.1,1.618.065,3.005.131,4.555.131h.957c.694,0,.892-.33.892-.891a5.338,5.338,0,0,0-.265-1.749,5.164,5.164,0,0,1-.2-.66c0-.165.165-.231.362-.231.232,0,1.717.363,2.08.462.99.264,1.188.33,1.188.627,0,.2-.033.264-.495.859a.8.8,0,0,0-.231.593c0,.792.264.99,1.156.99h5.445c.3,0,.99,0,.99-.891a13.761,13.761,0,0,0-.1-1.486c-.033-.164-.2-.857-.2-.989,0-.165.2-.231.364-.231.23,0,2.474.528,2.837.627s.562.231.562.528c0,.2-.133.33-.495.594a1.059,1.059,0,0,0-.43.925c0,.923.528.923,1.057.923h1.682c1.452,0,1.618,0,2.113-.561.925-1.089,1.023-1.221,1.32-1.221.2,0,3.069,1.749,3.069,2.178,0,.463-.66.463-1.749.463h-6.435c-1.024,0-1.024.527-1.024,1.319,0,.2.033,1.32.033,1.486,0,1.221-.99,1.419-1.683,1.419-.759,0-.891-.132-.891-1.254V2917.7c-.1-.627-.495-.692-1.023-.692h-5.28c-.76,0-1.222,0-1.222.924,0,.33.1,1.782.1,2.079,0,.627-.1.924-.4,1.122a2.344,2.344,0,0,1-1.254.462c-.561,0-.825-.363-.825-1.023,0-.264.032-1.518.032-1.75,0-1.287,0-1.814-1.022-1.814Zm2.344,16.865a16.929,16.929,0,0,1,2.541,1.551.818.818,0,0,1,.264.495c0,.4-.264.462-1.056.66-.1.033-2.937,2.244-3.466,2.641a20.272,20.272,0,0,1-5.017,2.871.105.105,0,0,1-.1-.1c0-.066,1.749-1.584,1.98-1.815,2.74-2.608,4.422-5.215,4.719-6.271A.2.2,0,0,1,1128.929,2933.875Zm1.518-1.749c-2.575,0-3.532.032-4.192.1-.1,0-.594.066-.693.066s-.165-.066-.3-.2l-.627-.76c-.132-.165-.132-.165-.132-.23,0-.034.033-.067.1-.067.231,0,1.255.1,1.452.1,1.617.1,3,.132,4.555.132h2.475c.33,0,.99,0,.99-.892,0-.4-.2-3.069-.263-3.4,0-.066-.2-.4-.2-.462s.065-.2.329-.2c.231,0,2.542.5,2.872.594.462.1.627.4.627.561,0,.2-.066.264-.561.693-.462.4-.462.594-.462,1.584,0,1.189,0,1.519.989,1.519h1.453c1.453,0,1.618,0,2.113-.562.924-1.089,1.022-1.221,1.319-1.221.2,0,3.069,1.783,3.069,2.178,0,.463-.659.463-1.748.463h-6.238c-.99,0-.99.594-.99,1.649,0,2.344,0,3.665.065,5.612.034.56.034,1.353.034,1.749,0,1.057-.264,1.683-1.683,1.683-.727,0-.793-.594-.793-1.155,0-.429.1-2.409.1-2.839.033-1.254.033-2.474.033-3.993a19.686,19.686,0,0,0-.067-2.244c-.165-.462-.693-.462-.957-.462Zm8.812,2.772c0-.1.165-.132.3-.132,1.222,0,8.746,2.08,8.746,4.819,0,1.056-.594,1.881-1.419,1.881-.627,0-.759-.165-1.782-1.684a15.681,15.681,0,0,0-5.677-4.752C1139.391,2935.03,1139.259,2934.931,1139.259,2934.9Z" fill="#333"/>
      </g>
    </g>
    <g id="グループ_101" data-name="グループ 101" transform="translate(-680.619 -2892.211)">
      <path id="パス_533" data-name="パス 533" d="M887.313,2963.652a10.826,10.826,0,0,0,1.224-1.294,6.561,6.561,0,0,0,.946-1.558,4.846,4.846,0,0,0,.384-1.715,3.5,3.5,0,0,0-.384-1.732,3.815,3.815,0,0,0-.981-1.226,2.765,2.765,0,0,0-1.434-.63,2.05,2.05,0,0,0-1.4.351,5.572,5.572,0,0,0-1.085,1.014,3.909,3.909,0,0,0-.822,1.662,5.61,5.61,0,0,0-.088,1.821,8.56,8.56,0,0,0,.421,1.838,16.418,16.418,0,0,0,.7,1.715q.422.839.84,1.644a15.4,15.4,0,0,1,.735,1.628,9.325,9.325,0,0,1,.473,1.715,6.7,6.7,0,0,1,.053,1.873,8.081,8.081,0,0,1-1.156,3.412,11.421,11.421,0,0,1-2.432,2.853,10.88,10.88,0,0,1-3.237,1.889,8.407,8.407,0,0,1-3.6.526,4.81,4.81,0,0,1-4.3-3.361,5.752,5.752,0,0,1-.28-1.767,6.784,6.784,0,0,1,.227-1.75,9.152,9.152,0,0,1,.631-1.68,11.013,11.013,0,0,1,.926-1.558,9.284,9.284,0,0,1,1.138-1.33,8.811,8.811,0,0,1,1.418-1.12,7.274,7.274,0,0,1,1.609-.769,4.878,4.878,0,0,1,1.75-.245,4.471,4.471,0,0,1,1.785.437,3.815,3.815,0,0,1,1.366,1.067,3.435,3.435,0,0,1,.682,1.54,3.245,3.245,0,0,1-.227,1.821.778.778,0,0,1-.42.314.674.674,0,0,1-.455-.017.621.621,0,0,1-.316-.28.455.455,0,0,1,.071-.472,2.257,2.257,0,0,0,.157-1.715,2.2,2.2,0,0,0-1.067-1.33,3.556,3.556,0,0,0-1.715-.455,4.706,4.706,0,0,0-1.7.314,6.565,6.565,0,0,0-1.557.858,8.445,8.445,0,0,0-1.295,1.172,9.724,9.724,0,0,0-1.068,1.54,7.562,7.562,0,0,0-.717,1.75,5.757,5.757,0,0,0-.193,1.838,4.49,4.49,0,0,0,.473,1.768,3.714,3.714,0,0,0,1.085,1.382,3.893,3.893,0,0,0,1.47.7,5.427,5.427,0,0,0,1.7.122,7.23,7.23,0,0,0,1.732-.35,10.06,10.06,0,0,0,3.361-1.75,9.24,9.24,0,0,0,2.38-2.764,7.718,7.718,0,0,0,.962-3.431,7.154,7.154,0,0,0-.892-3.71q-.456-.875-.928-1.767a16.343,16.343,0,0,1-.822-1.8,10.21,10.21,0,0,1-.525-1.891,7.322,7.322,0,0,1-.071-2.029,5.359,5.359,0,0,1,.473-1.8,5.22,5.22,0,0,1,1.067-1.557,3.988,3.988,0,0,1,1.523-.963,2.943,2.943,0,0,1,1.873.017,3.548,3.548,0,0,1,1.627.963,4.465,4.465,0,0,1,.963,1.54,5.29,5.29,0,0,1,.314,1.837,6.908,6.908,0,0,1-.244,1.856,8.226,8.226,0,0,1-.77,1.785,18.688,18.688,0,0,1-1.085,1.644,3.711,3.711,0,0,1-.438.561.518.518,0,0,1-.648.1.471.471,0,0,1-.4-.437A.645.645,0,0,1,887.313,2963.652Z" fill="#333"/>
      <path id="パス_534" data-name="パス 534" d="M892.136,2968.587c.093-.046.309-.14.647-.279a5.762,5.762,0,0,1,1-.316,1.877,1.877,0,0,1,.84-.017c.233.058.315.274.244.647a1.713,1.713,0,0,1-.3.63,2.309,2.309,0,0,0-.333.631,8.034,8.034,0,0,0-.4,1.119,1.18,1.18,0,0,0,.123,1.085,3.283,3.283,0,0,0,1.313-.14c.477-.139.915-.28,1.312-.42a6.946,6.946,0,0,0,.665-.349c.327-.187.67-.368,1.033-.543a5.74,5.74,0,0,1,1-.385c.3-.082.49-.053.56.087.093.164.035.339-.176.525a3.311,3.311,0,0,1-.787.508c-.314.152-.636.292-.962.42s-.537.216-.63.263q-.77.386-1.557.752a6.259,6.259,0,0,1-1.628.508.955.955,0,0,1-1.015-.316,1.879,1.879,0,0,1-.28-1.067,5.638,5.638,0,0,1,.192-1.4q.192-.753.4-1.382-.805.315-1.576.577a14.163,14.163,0,0,0-1.5.612q-.63.281-1.26.631a.53.53,0,0,1-.612-.194c-.152-.2-.088-.367.192-.506Zm4.1-7.069a2.034,2.034,0,0,1,.543-.788,3.219,3.219,0,0,1,.822-.542,5.147,5.147,0,0,1,.963-.333c.338-.082.658-.146.962-.193a12.518,12.518,0,0,1,2.485.106,1.892,1.892,0,0,1,.473.069.311.311,0,0,1,.227.386.524.524,0,0,1-.175.3.352.352,0,0,1-.315.088,8.449,8.449,0,0,0-2.118-.158,3.748,3.748,0,0,0-1.977.648,1.133,1.133,0,0,0-.49.559,1.281,1.281,0,0,1-.42.561.554.554,0,0,1-.735,0A.574.574,0,0,1,896.231,2961.518Z" fill="#333"/>
      <path id="パス_535" data-name="パス 535" d="M899.131,2970.3c.257-.141.7-.379,1.33-.718s1.277-.659,1.943-.963a8.853,8.853,0,0,1,1.837-.63c.56-.116.911-.022,1.05.281a.688.688,0,0,1-.088.682,3.012,3.012,0,0,0-.332.613l-.42.979a8.495,8.495,0,0,1,.911-.489q.453-.212.91-.42,1.119-.6,2.309-1.261a11.413,11.413,0,0,1,2.415-1.015,1.726,1.726,0,0,1,.805-.017,1.014,1.014,0,0,1,.543.315.892.892,0,0,1,.192.595,1.433,1.433,0,0,1-.28.787,5.776,5.776,0,0,1-.682.875c-.246.258-.5.537-.752.841a2.122,2.122,0,0,1-.246.279q-.176.175-.367.4c-.129.152-.245.3-.35.455a1.15,1.15,0,0,0-.193.4,1.314,1.314,0,0,0,.613,0,5.546,5.546,0,0,0,.735-.192c.245-.082.477-.169.7-.262s.391-.163.507-.21l1.436-.631c.092-.046.214-.116.367-.21s.308-.18.472-.262.321-.158.473-.227a.934.934,0,0,1,.367-.106.28.28,0,0,1,.316.316.546.546,0,0,1-.281.489c-.21.117-.431.228-.665.333l-.735.332q-.491.282-.944.49t-.946.455q-.281.141-.892.4a6.146,6.146,0,0,1-1.225.384,2.013,2.013,0,0,1-1.067-.034c-.3-.1-.455-.39-.455-.857a1.165,1.165,0,0,1,.174-.631,4.294,4.294,0,0,1,.4-.542,6.676,6.676,0,0,1,.49-.508c.175-.163.332-.314.473-.455a7.758,7.758,0,0,0,.7-.734,2.851,2.851,0,0,0,.631-1.051,7.319,7.319,0,0,0-1.908.49q-.963.386-1.768.806-1.016.489-2.1,1.1a8.149,8.149,0,0,0-1.889,1.454.69.69,0,0,1-.368.157.665.665,0,0,1-.368-.071.562.562,0,0,1-.262-.261.65.65,0,0,1-.018-.455,1.085,1.085,0,0,1,.526-.561,6.639,6.639,0,0,0,.349-.647,2.135,2.135,0,0,1,.245-.438c.047-.163.093-.332.141-.507a4.074,4.074,0,0,0,.1-.543q-.385.107-.769.246c-.258.093-.455.163-.6.21-.327.139-.653.274-.979.4s-.654.274-.981.437q-.279.141-.507.281a3.059,3.059,0,0,1-.507.245.554.554,0,0,1-.4.051.644.644,0,0,1-.3-.157.3.3,0,0,1-.087-.262C898.881,2970.46,898.968,2970.372,899.131,2970.3Z" fill="#333"/>
      <path id="パス_536" data-name="パス 536" d="M915.161,2970.3q.91-.456,1.786-.875t1.785-.771a12.349,12.349,0,0,1,1.942-.524,11.216,11.216,0,0,1,2.013-.176.858.858,0,0,1,.595.192q.209.194.035.648a.689.689,0,0,1-.63.351,12.029,12.029,0,0,0-1.838,0,5.644,5.644,0,0,0-1.768.42,2.912,2.912,0,0,0-.594.315,3.823,3.823,0,0,0-.579.472,1.5,1.5,0,0,0-.367.578.841.841,0,0,0,.071.665,1.263,1.263,0,0,0,1.067.7,3.667,3.667,0,0,0,1.348-.034,3.589,3.589,0,0,0,.8-.28l.63-.316a2.337,2.337,0,0,1,.508-.192.534.534,0,0,1,.473.158.74.74,0,0,1,.017.8q-.228.454-.368.769l-.49,1.155q.946-.98,1.995-1.872a15.87,15.87,0,0,1,2.24-1.592c.071-.047.163-.117.28-.21a3.372,3.372,0,0,1,.385-.263,1.641,1.641,0,0,1,.42-.175.4.4,0,0,1,.351.053c.162.116.22.233.175.349a1.051,1.051,0,0,1-.246.35q-.91.491-1.75,1.051a16.165,16.165,0,0,0-1.645,1.26,20.765,20.765,0,0,0-3.255,3.464l-.91,2.1q-.418,1.05-.84,2.136t-.91,2.135c-.069.139-.157.308-.262.507a4.6,4.6,0,0,1-.35.56,1.551,1.551,0,0,1-.455.42.91.91,0,0,1-.578.123.64.64,0,0,1-.542-.386,1.384,1.384,0,0,1-.07-.7,4.538,4.538,0,0,1,.175-.77q.121-.384.227-.629a18.174,18.174,0,0,1,1.663-3.063,31.866,31.866,0,0,1,2.118-2.817l1.189-3.4a9.112,9.112,0,0,1-1.348.263,5.808,5.808,0,0,1-1.346.017,3.033,3.033,0,0,1-1.138-.349,1.9,1.9,0,0,1-.718-2.381c-.186.117-.38.24-.577.368a.6.6,0,0,1-.508.122.377.377,0,0,1-.42-.3A.356.356,0,0,1,915.161,2970.3Z" fill="#333"/>
      <path id="パス_537" data-name="パス 537" d="M926.943,2970.268a22.761,22.761,0,0,0,2.1-1.085q1.016-.6,2.031-1.3a18.745,18.745,0,0,1,1.085-1.891q.594-.909,1.155-1.785.594-.8,1.189-1.627t1.226-1.628q.523-.7,1.137-1.417a5.243,5.243,0,0,1,1.418-1.173,2.91,2.91,0,0,1,.945-.3.651.651,0,0,1,.769.507,1.116,1.116,0,0,1,.018.753,3.116,3.116,0,0,1-.367.735,7.91,7.91,0,0,1-.526.7q-.279.333-.455.578a28.069,28.069,0,0,1-3.132,3.727,32.753,32.753,0,0,1-3.727,3.2q-.176.42-.4.892a8.356,8.356,0,0,0-.4,1,5.768,5.768,0,0,0-.244,1.033,2.635,2.635,0,0,0,.034.962c.257-.046.491-.081.7-.1.187-.024.362-.041.526-.053a1.017,1.017,0,0,0,.314-.053,15.721,15.721,0,0,0,2.066-.559q1.016-.351,1.995-.771a2.88,2.88,0,0,0,.665-.28.627.627,0,0,1,.665-.034q.384.279.1.507a2.319,2.319,0,0,1-.524.333l-4.061,1.5c-.4.139-.782.286-1.155.437a3.614,3.614,0,0,1-1.154.263,1.136,1.136,0,0,1-.84-.158,1.171,1.171,0,0,1-.437-.595,2,2,0,0,1-.088-.8,4.454,4.454,0,0,1,.139-.822,12.214,12.214,0,0,1,.63-1.681,27.118,27.118,0,0,1-3.01,1.715.542.542,0,0,1-.577-.228C926.6,2970.577,926.662,2970.407,926.943,2970.268Zm7.1-4.8a27.153,27.153,0,0,0,3.011-3.325,11.909,11.909,0,0,0,1.189-1.68,4.5,4.5,0,0,1,.21-.438,4.5,4.5,0,0,0,.245-.543,3.771,3.771,0,0,0-.927.665q-.438.422-.717.7a18.727,18.727,0,0,0-1.505,1.7q-.7.892-1.4,1.838-.386.56-.736,1.1t-.665,1.1c.21-.163.426-.345.648-.543S933.837,2965.659,934.047,2965.473Z" fill="#333"/>
      <path id="パス_538" data-name="パス 538" d="M937.191,2970.268q.63-.315,1.312-.7a11.645,11.645,0,0,1,1.382-.666,3.591,3.591,0,0,1,1.295-1.312,5.3,5.3,0,0,1,1.785-.683,4.7,4.7,0,0,1,1.138,0,1.385,1.385,0,0,1,1,.526.549.549,0,0,1,.123.594,1.646,1.646,0,0,1-.42.595,4.032,4.032,0,0,1-.665.508q-.367.228-.543.332a4.971,4.971,0,0,1-1.382.578,4.473,4.473,0,0,1-1.522.122h-.141a1.976,1.976,0,0,0,.63,1.191,3.056,3.056,0,0,0,1.155.612,4.174,4.174,0,0,0,1.383.157,10.341,10.341,0,0,0,1.313-.139,15.619,15.619,0,0,0,1.644-.438,15.154,15.154,0,0,0,1.575-.612q.351-.176.718-.333a7.38,7.38,0,0,0,.683-.332.661.661,0,0,1,.507.069c.174.094.192.245.052.455a.892.892,0,0,1-.49.386c-.21.069-.4.14-.56.21l-1.75.769a29.559,29.559,0,0,1-3.185,1.05,5.212,5.212,0,0,1-1.417.088,4.1,4.1,0,0,1-1.33-.315,3.492,3.492,0,0,1-1.1-.752,2.793,2.793,0,0,1-.7-1.26c-.047-.187-.087-.373-.122-.561a1.135,1.135,0,0,1,.017-.524,6.744,6.744,0,0,0-.752.4l-.648.4a2.492,2.492,0,0,0-.455.262.473.473,0,0,1-.559.018.4.4,0,0,1-.193-.386A.323.323,0,0,1,937.191,2970.268Zm3.569-.981a4.038,4.038,0,0,0,1.628-.42,5.148,5.148,0,0,0,1.383-.979,1.979,1.979,0,0,0-.963-.106,2.72,2.72,0,0,0-.875.281,2.689,2.689,0,0,0-.718.542A2.206,2.206,0,0,0,940.76,2969.287Z" fill="#333"/>
      <path id="パス_539" data-name="パス 539" d="M976.355,2956.337a3.1,3.1,0,0,0-1.523-.244,6.127,6.127,0,0,0-1.557.35,5.2,5.2,0,0,1,3.57.962,3.513,3.513,0,0,1,1.19,3.273,10.639,10.639,0,0,1-1.067,3.744,29.089,29.089,0,0,1-1.978,3.431q-.91,1.365-2.065,2.782a19.12,19.12,0,0,1-2.555,2.59,16.35,16.35,0,0,1-2.993,1.995,8.751,8.751,0,0,1-3.342.963,6.239,6.239,0,0,1-1.663-.088,2.6,2.6,0,0,1-1.452-.787,2.777,2.777,0,0,1-.769-1.646,7,7,0,0,1,.034-1.854,12.721,12.721,0,0,1,1.208-3.659,32.018,32.018,0,0,1,1.942-3.341,26.7,26.7,0,0,1,2.24-3.168,35.585,35.585,0,0,1,2.625-2.853,27.511,27.511,0,0,1,2.853-2.344,8.063,8.063,0,0,1,3.342-1.435,7.416,7.416,0,0,1,1.347-.106,1.865,1.865,0,0,1,1.243.385.576.576,0,0,1,.227.4.663.663,0,0,1-.087.4.642.642,0,0,1-.315.262A.566.566,0,0,1,976.355,2956.337Zm-6.65,2.311a22.258,22.258,0,0,0-2.817,2.747,35.179,35.179,0,0,0-2.4,3.132,25.473,25.473,0,0,0-1.942,3.343,14.351,14.351,0,0,0-1.208,3.657,6.483,6.483,0,0,0-.1.788,4.145,4.145,0,0,0,.017.857,2.868,2.868,0,0,0,.21.788,1.423,1.423,0,0,0,.507.612,2.186,2.186,0,0,0,1.348.4,7.3,7.3,0,0,0,1.382-.157,9.686,9.686,0,0,0,3.5-1.47,24.829,24.829,0,0,0,2.975-2.346,22.6,22.6,0,0,0,2.608-2.869,19.041,19.041,0,0,0,2.012-3.29c.21-.421.442-.928.7-1.523a9.437,9.437,0,0,0,.578-1.837,5.406,5.406,0,0,0,.07-1.821,2.358,2.358,0,0,0-.788-1.469,2.268,2.268,0,0,0-1.574-.613,9.223,9.223,0,0,0-1.75.122.574.574,0,0,1-.561-.175.75.75,0,0,1-.21-.629,13.484,13.484,0,0,0-1.383.875Q970.194,2958.264,969.705,2958.648Z" fill="#333"/>
      <path id="パス_540" data-name="パス 540" d="M975.336,2970.268q.735-.386,1.452-.771t1.558-.875a1.7,1.7,0,0,1,.4-1.26,1.386,1.386,0,0,1,1.208-.559.71.71,0,0,1,.63.489.851.851,0,0,1-.139.806,2.371,2.371,0,0,1-.736.7,1.175,1.175,0,0,0,.6.141,3.219,3.219,0,0,0,1.54-.263,10.175,10.175,0,0,0,1.436-.718c.419-.139.687-.093.8.141a.835.835,0,0,1-.139.84c-.118.186-.252.425-.4.717a6.878,6.878,0,0,0-.385.892,3.084,3.084,0,0,0-.174.875.787.787,0,0,0,.262.665q.174.212.928,0t2.012-.7c.28-.117.565-.251.857-.4s.589-.3.893-.437a1.865,1.865,0,0,0,.315-.157,1.709,1.709,0,0,1,.4-.175.589.589,0,0,1,.349,0c.106.035.158.157.158.367a.413.413,0,0,1-.158.316,1.914,1.914,0,0,1-.349.245,2.65,2.65,0,0,1-.4.175l-.315.1-1.47.665-.963.525a8.106,8.106,0,0,1-1.172.526,3.485,3.485,0,0,1-1.155.21,1.007,1.007,0,0,1-.875-.455,1.142,1.142,0,0,1-.21-.543,2.048,2.048,0,0,1,.018-.6,5.613,5.613,0,0,1,.139-.595c.059-.2.111-.39.159-.578l.279-1.154c-.117.023-.356.082-.717.175a7.066,7.066,0,0,1-1.173.192,5.9,5.9,0,0,1-1.207-.018,1.175,1.175,0,0,1-.858-.455q-.6.315-.98.526c-.257.139-.519.292-.787.455s-.485.292-.647.385a2.022,2.022,0,0,0-.491.262.412.412,0,0,1-.49.052.44.44,0,0,1-.21-.385A.361.361,0,0,1,975.336,2970.268Z" fill="#333"/>
      <path id="パス_541" data-name="パス 541" d="M991.975,2968.587c.093-.046.308-.14.647-.279a5.783,5.783,0,0,1,1-.316,1.882,1.882,0,0,1,.841-.017c.233.058.315.274.244.647a1.712,1.712,0,0,1-.3.63,2.308,2.308,0,0,0-.333.631,8.034,8.034,0,0,0-.4,1.119,1.18,1.18,0,0,0,.123,1.085,3.283,3.283,0,0,0,1.313-.14c.477-.139.915-.28,1.312-.42a7.075,7.075,0,0,0,.665-.349q.489-.281,1.032-.543a5.8,5.8,0,0,1,1-.385c.3-.082.491-.053.561.087.093.164.035.339-.176.525a3.313,3.313,0,0,1-.787.508c-.314.152-.636.292-.962.42s-.537.216-.631.263c-.512.257-1.032.507-1.556.752a6.282,6.282,0,0,1-1.628.508.955.955,0,0,1-1.015-.316,1.879,1.879,0,0,1-.28-1.067,5.638,5.638,0,0,1,.192-1.4q.192-.753.4-1.382-.805.315-1.576.577a14.156,14.156,0,0,0-1.5.612q-.63.281-1.26.631a.53.53,0,0,1-.612-.194c-.152-.2-.088-.367.192-.506Zm4.1-7.069a2.032,2.032,0,0,1,.542-.788,3.242,3.242,0,0,1,.823-.542,5.125,5.125,0,0,1,.963-.333c.338-.082.658-.146.962-.193a12.518,12.518,0,0,1,2.485.106,1.892,1.892,0,0,1,.473.069.312.312,0,0,1,.227.386.52.52,0,0,1-.176.3.349.349,0,0,1-.314.088,8.449,8.449,0,0,0-2.118-.158,3.748,3.748,0,0,0-1.977.648,1.133,1.133,0,0,0-.49.559,1.281,1.281,0,0,1-.42.561.554.554,0,0,1-.735,0A.574.574,0,0,1,996.07,2961.518Z" fill="#333"/>
      <path id="パス_542" data-name="パス 542" d="M999.135,2970.3q.909-.456,1.785-.875t1.785-.771a12.36,12.36,0,0,1,1.943-.524,11.2,11.2,0,0,1,2.012-.176.858.858,0,0,1,.6.192q.21.194.035.648a.687.687,0,0,1-.63.351,12.015,12.015,0,0,0-1.837,0,5.631,5.631,0,0,0-1.768.42,2.89,2.89,0,0,0-.595.315,3.815,3.815,0,0,0-.578.472,1.473,1.473,0,0,0-.367.578.844.844,0,0,0,.07.665,1.265,1.265,0,0,0,1.068.7,3.661,3.661,0,0,0,1.347-.034,3.581,3.581,0,0,0,.8-.28l.63-.316a2.3,2.3,0,0,1,.508-.192.532.532,0,0,1,.472.158.742.742,0,0,1,.018.8q-.228.454-.368.769l-.49,1.155q.945-.98,1.995-1.872a15.87,15.87,0,0,1,2.24-1.592c.07-.047.163-.117.28-.21a3.208,3.208,0,0,1,.385-.263,1.613,1.613,0,0,1,.42-.175.4.4,0,0,1,.35.053c.163.116.221.233.175.349a1.061,1.061,0,0,1-.245.35q-.91.491-1.75,1.051a16.057,16.057,0,0,0-1.645,1.26,20.646,20.646,0,0,0-1.733,1.644,20.306,20.306,0,0,0-1.522,1.82l-.911,2.1q-.418,1.05-.839,2.136t-.911,2.135c-.069.139-.157.308-.261.507a4.733,4.733,0,0,1-.351.56,1.539,1.539,0,0,1-.455.42.907.907,0,0,1-.577.123.64.64,0,0,1-.542-.386,1.384,1.384,0,0,1-.07-.7,4.447,4.447,0,0,1,.175-.77,6.649,6.649,0,0,1,.227-.629,18.168,18.168,0,0,1,1.662-3.063,32.069,32.069,0,0,1,2.118-2.817l1.19-3.4a9.112,9.112,0,0,1-1.348.263,5.817,5.817,0,0,1-1.347.017,3.028,3.028,0,0,1-1.137-.349,1.9,1.9,0,0,1-.718-2.381c-.187.117-.38.24-.577.368a.6.6,0,0,1-.508.122.377.377,0,0,1-.42-.3A.355.355,0,0,1,999.135,2970.3Z" fill="#333"/>
      <path id="パス_543" data-name="パス 543" d="M1014.416,2968.587c.093-.046.309-.14.648-.279a5.78,5.78,0,0,1,1-.316,1.882,1.882,0,0,1,.841-.017c.232.058.314.274.244.647a1.732,1.732,0,0,1-.3.63,2.337,2.337,0,0,0-.333.631,8.042,8.042,0,0,0-.4,1.119,1.183,1.183,0,0,0,.124,1.085,3.28,3.28,0,0,0,1.312-.14c.478-.139.915-.28,1.313-.42a7.069,7.069,0,0,0,.665-.349q.489-.281,1.032-.543a5.738,5.738,0,0,1,1-.385q.454-.123.56.087c.093.164.036.339-.175.525a3.333,3.333,0,0,1-.787.508q-.473.228-.962.42c-.328.128-.537.216-.631.263q-.77.386-1.557.752a6.26,6.26,0,0,1-1.628.508.952.952,0,0,1-1.014-.316,1.872,1.872,0,0,1-.281-1.067,5.642,5.642,0,0,1,.193-1.4q.192-.753.4-1.382-.806.315-1.575.577a14.09,14.09,0,0,0-1.505.612q-.63.281-1.26.631a.53.53,0,0,1-.612-.194c-.151-.2-.088-.367.192-.506Zm4.095-7.069a2.035,2.035,0,0,1,.543-.788,3.237,3.237,0,0,1,.822-.542,5.15,5.15,0,0,1,.963-.333c.338-.082.658-.146.962-.193a12.518,12.518,0,0,1,2.485.106,1.892,1.892,0,0,1,.473.069.312.312,0,0,1,.228.386.526.526,0,0,1-.176.3.352.352,0,0,1-.315.088,8.445,8.445,0,0,0-2.118-.158,3.747,3.747,0,0,0-1.976.648,1.13,1.13,0,0,0-.491.559,1.274,1.274,0,0,1-.42.561.554.554,0,0,1-.735,0A.574.574,0,0,1,1018.511,2961.518Z" fill="#333"/>
      <path id="パス_544" data-name="パス 544" d="M1021.412,2970.3c.257-.141.7-.379,1.33-.718s1.278-.659,1.943-.963a8.839,8.839,0,0,1,1.838-.63c.559-.116.91-.022,1.05.281a.693.693,0,0,1-.088.682,2.919,2.919,0,0,0-.332.613l-.42.979a8.389,8.389,0,0,1,.91-.489q.453-.212.91-.42,1.119-.6,2.309-1.261a11.417,11.417,0,0,1,2.416-1.015,1.722,1.722,0,0,1,.8-.017,1.01,1.01,0,0,1,.543.315.892.892,0,0,1,.193.595,1.435,1.435,0,0,1-.281.787,5.776,5.776,0,0,1-.682.875c-.245.258-.5.537-.752.841a2.178,2.178,0,0,1-.245.279c-.118.117-.24.251-.368.4s-.245.3-.35.455a1.127,1.127,0,0,0-.192.4,1.31,1.31,0,0,0,.612,0,5.546,5.546,0,0,0,.735-.192q.367-.123.7-.262c.221-.094.391-.163.507-.21l1.436-.631c.093-.046.215-.116.367-.21s.308-.18.473-.262.32-.158.472-.227a.943.943,0,0,1,.367-.106.28.28,0,0,1,.316.316.547.547,0,0,1-.28.489q-.315.175-.666.333l-.735.332q-.49.282-.944.49t-.946.455q-.281.141-.892.4a6.124,6.124,0,0,1-1.225.384,2.013,2.013,0,0,1-1.067-.034c-.3-.1-.455-.39-.455-.857a1.167,1.167,0,0,1,.175-.631,4.286,4.286,0,0,1,.4-.542,6.664,6.664,0,0,1,.49-.508c.175-.163.332-.314.473-.455a7.621,7.621,0,0,0,.7-.734,2.852,2.852,0,0,0,.631-1.051,7.319,7.319,0,0,0-1.908.49q-.963.386-1.768.806-1.016.489-2.1,1.1a8.134,8.134,0,0,0-1.89,1.454.69.69,0,0,1-.368.157.66.66,0,0,1-.367-.071.559.559,0,0,1-.263-.261.649.649,0,0,1-.018-.455,1.094,1.094,0,0,1,.526-.561,6.639,6.639,0,0,0,.349-.647,2.172,2.172,0,0,1,.246-.438c.046-.163.092-.332.14-.507a4.225,4.225,0,0,0,.1-.543q-.385.107-.77.246c-.258.093-.455.163-.6.21-.327.139-.653.274-.979.4s-.653.274-.981.437q-.279.141-.507.281a3.059,3.059,0,0,1-.507.245.554.554,0,0,1-.4.051.65.65,0,0,1-.3-.157.3.3,0,0,1-.086-.262C1021.162,2970.46,1021.249,2970.372,1021.412,2970.3Z" fill="#333"/>
    </g>
    <path id="パス_545" data-name="パス 545" d="M686.619,2932.053v-33.842h21.016v-6H680.619v94.535h27.016v-6H686.619v-48.693Z" transform="translate(-680.619 -2892.211)" fill="none" stroke="#333" stroke-miterlimit="10" stroke-width="0.3"/>
    <path id="パス_546" data-name="パス 546" d="M1224.926,2946.9v33.842h-21.016v6h27.016v-94.535h-27.016v6h21.016V2946.9Z" transform="translate(-680.619 -2892.211)" fill="none" stroke="#333" stroke-miterlimit="10" stroke-width="0.3"/>
  </g>
</svg>
