<svg id="lineup_smart_graph" xmlns="http://www.w3.org/2000/svg" width="285.778" height="252.307" viewBox="0 0 285.778 252.307">
  <path id="パス_630" data-name="パス 630" d="M1175.875,1348.579l-45.118-22.1-38.377,38.377,22.1,45.118-1.751,91.05h90.325l20.35-81.9,43.519-72.3Z" transform="translate(-1015.211 -1265.805)" fill="#dbdfb8"/>
  <path id="パス_631" data-name="パス 631" d="M1193.608,1305.769h-71.429l-50.508,50.508v71.429l50.508,50.508h71.429l50.508-50.508v-71.429Z" transform="translate(-1015.211 -1265.805)" fill="none" stroke="#999" stroke-miterlimit="10" stroke-width="0.5"/>
  <path id="パス_632" data-name="パス 632" d="M1185.03,1326.478h-54.273l-38.377,38.377v54.273l38.377,38.377h54.273l38.377-38.377v-54.273Z" transform="translate(-1015.211 -1265.805)" fill="none" stroke="#999" stroke-miterlimit="10" stroke-width="0.5"/>
  <path id="パス_633" data-name="パス 633" d="M1175.875,1348.579h-35.964l-25.43,25.43v35.964l25.43,25.43h35.964l25.43-25.43v-35.964Z" transform="translate(-1015.211 -1265.805)" fill="none" stroke="#999" stroke-miterlimit="10" stroke-width="0.5"/>
  <path id="パス_634" data-name="パス 634" d="M1167.092,1369.785h-18.4l-13.008,13.008v18.4L1148.7,1414.2h18.4l13.008-13.008v-18.4Z" transform="translate(-1015.211 -1265.805)" fill="none" stroke="#999" stroke-miterlimit="10" stroke-width="0.5"/>
  <g id="グループ_117" data-name="グループ 117" transform="translate(-1015.211 -1265.805)">
    <path id="パス_635" data-name="パス 635" d="M1097.585,1269.495c0,.33.09.405.495.495a25.671,25.671,0,0,0,3.675.12c3.8,0,4.364-.03,4.649-.3a3.276,3.276,0,0,0,.436-1.815,3.589,3.589,0,0,0,.914.405,3.811,3.811,0,0,1-.7,2.13c-.436.405-.945.45-5.985.45a16.051,16.051,0,0,1-3.795-.225c-.48-.15-.63-.39-.63-1.02v-2.52a6.6,6.6,0,0,0-.09-1.29h1.125a5.022,5.022,0,0,0-.09,1.23v.7c1.529-.165,2.654-.33,3.855-.57a19.133,19.133,0,0,0,4.6-1.305l.735.9c-2.774.78-2.774.78-4.08,1.05-1.875.36-3.134.555-5.114.765Zm6.96,2.82a13.93,13.93,0,0,0,1.814-.075,13.992,13.992,0,0,0-.075,1.83v3.225a13.288,13.288,0,0,0,.09,1.86h-1.034v-.705h-7.186v.705h-1.019a13.132,13.132,0,0,0,.09-1.86v-3.225c0-.84-.031-1.335-.076-1.83a13.162,13.162,0,0,0,1.8.075Zm-6.391,2.565h7.186v-1.725h-7.186Zm0,2.73h7.186V1275.7h-7.186Z" fill="#4d4d4d"/>
    <path id="パス_636" data-name="パス 636" d="M1111.275,1277.13a11.993,11.993,0,0,0,.09-1.62v-7.02c0-.615-.029-1.11-.059-1.455a9.174,9.174,0,0,0,1.229.06h1.335a9.7,9.7,0,0,0,1.261-.06,12.951,12.951,0,0,0-.045,1.4v6.21a16.344,16.344,0,0,0,.06,1.65h-.96v-.78h-1.906v1.62Zm1.005-2.46h1.906v-6.705h-1.906Zm9.855-6.45a10.443,10.443,0,0,0,1.575-.09v1.035a11.814,11.814,0,0,0-1.59-.09h-1.965v2.535h2.535a11.978,11.978,0,0,0,1.71-.09v1.035a11.717,11.717,0,0,0-1.7-.09h-2.295a11.767,11.767,0,0,0,1.651,2.49,12.1,12.1,0,0,0,2.819,2.3,3.969,3.969,0,0,0-.645.93,16.541,16.541,0,0,1-2.415-2.205,10.105,10.105,0,0,1-1.724-2.79c.045.555.059.975.059,1.65v2.94a10.459,10.459,0,0,0,.09,1.59h-1.08a12.155,12.155,0,0,0,.09-1.59v-2.94c0-.57,0-.765.06-1.65a12.234,12.234,0,0,1-4.559,5.19,3.357,3.357,0,0,0-.721-.735,13.086,13.086,0,0,0,4.965-5.175h-2.1a8.628,8.628,0,0,0-1.44.075v-1.005a8.748,8.748,0,0,0,1.455.075h2.34v-2.535h-1.68a11.957,11.957,0,0,0-1.545.075v-1.005a14.794,14.794,0,0,0,1.545.075h1.68v-1.2a6.6,6.6,0,0,0-.074-1.215h1.05a6.691,6.691,0,0,0-.076,1.215v1.2Z" fill="#4d4d4d"/>
  </g>
  <g id="グループ_118" data-name="グループ 118" transform="translate(-1015.211 -1265.805)">
    <path id="パス_637" data-name="パス 637" d="M1194.24,1266.9a6.333,6.333,0,0,0-.091-1.08h1.1a6.3,6.3,0,0,0-.091,1.08v.48h3.6v-.48a6.434,6.434,0,0,0-.09-1.08h1.095a6.073,6.073,0,0,0-.09,1.08v.48h2.324a11.949,11.949,0,0,0,1.681-.09v1.035a12.4,12.4,0,0,0-1.681-.075h-2.324v.405a5.329,5.329,0,0,0,.074.975h-1.05a6.662,6.662,0,0,0,.061-.975v-.405h-3.6v.405a6.623,6.623,0,0,0,.061.99h-1.05a6.352,6.352,0,0,0,.075-.99v-.405h-2.175a12.138,12.138,0,0,0-1.665.075v-1.035a11.985,11.985,0,0,0,1.665.09h2.175Zm6.555,7.17a7.234,7.234,0,0,0,1.095-.06,7.126,7.126,0,0,0-.075,1.2v2.805a9.925,9.925,0,0,0,.089,1.365h-1.049v-.855h-7.5v.855h-1.05a10.273,10.273,0,0,0,.09-1.365v-2.805a7.454,7.454,0,0,0-.075-1.2,7.218,7.218,0,0,0,1.1.06h3.015v-2.01h-4.32a15.777,15.777,0,0,0-1.695.075v-1.05a11.857,11.857,0,0,0,1.695.09h4.32v-.855a5.25,5.25,0,0,0-.09-1.215h1.109a6.8,6.8,0,0,0-.09,1.215v.855h4.606a11.835,11.835,0,0,0,1.694-.09v1.05a16.18,16.18,0,0,0-1.694-.075h-4.606v2.01Zm-7.44,3.57h7.5v-2.715h-7.5Z" fill="#4d4d4d"/>
    <path id="パス_638" data-name="パス 638" d="M1206.89,1277.13a12.177,12.177,0,0,0,.09-1.62v-7.02c0-.615-.03-1.11-.06-1.455a9.174,9.174,0,0,0,1.229.06h1.335a9.686,9.686,0,0,0,1.261-.06,12.939,12.939,0,0,0-.045,1.4v6.21a16.338,16.338,0,0,0,.06,1.65h-.96v-.78H1207.9v1.62Zm1.005-2.46h1.905v-6.705H1207.9Zm9.854-6.45a10.443,10.443,0,0,0,1.575-.09v1.035a11.814,11.814,0,0,0-1.59-.09h-1.964v2.535h2.535a12,12,0,0,0,1.71-.09v1.035a11.741,11.741,0,0,0-1.7-.09h-2.295a11.809,11.809,0,0,0,1.651,2.49,12.141,12.141,0,0,0,2.819,2.3,3.932,3.932,0,0,0-.644.93,16.432,16.432,0,0,1-2.415-2.205,10.075,10.075,0,0,1-1.725-2.79c.045.555.06.975.06,1.65v2.94a10.466,10.466,0,0,0,.089,1.59h-1.08a12.155,12.155,0,0,0,.09-1.59v-2.94c0-.57,0-.765.061-1.65a12.244,12.244,0,0,1-4.56,5.19,3.313,3.313,0,0,0-.721-.735,13.086,13.086,0,0,0,4.965-5.175h-2.1a8.65,8.65,0,0,0-1.441.075v-1.005a8.748,8.748,0,0,0,1.455.075h2.34v-2.535h-1.679a11.939,11.939,0,0,0-1.545.075v-1.005a14.781,14.781,0,0,0,1.545.075h1.679v-1.2a6.511,6.511,0,0,0-.074-1.215h1.05a6.7,6.7,0,0,0-.075,1.215v1.2Z" fill="#4d4d4d"/>
  </g>
  <g id="グループ_119" data-name="グループ 119" transform="translate(-1015.211 -1265.805)">
    <path id="パス_639" data-name="パス 639" d="M1280.285,1337.3a11.222,11.222,0,0,0-.09-1.725h1.186a11.272,11.272,0,0,0-.106,1.725v.84h.975a13.849,13.849,0,0,0,1.771-.1v1.139a14.777,14.777,0,0,0-1.771-.1h-.975v7.995a14.193,14.193,0,0,0,.106,1.77h-1.1v-.96h-5.834v.96h-1.1a12.11,12.11,0,0,0,.105-1.755v-8.01h-.976a11.481,11.481,0,0,0-1.71.1v-1.139a11.227,11.227,0,0,0,1.71.1h.976v-.9a9.733,9.733,0,0,0-.105-1.665h1.185a11.968,11.968,0,0,0-.09,1.665v.9h5.834Zm-5.834,1.769v3.24h5.834v-3.24Zm0,4.155v3.735h5.834v-3.735Z" fill="#4d4d4d"/>
    <path id="パス_640" data-name="パス 640" d="M1287.242,1346.746a11.99,11.99,0,0,0,.09-1.62v-7.02c0-.614-.029-1.109-.059-1.454a9.168,9.168,0,0,0,1.229.059h1.335a9.7,9.7,0,0,0,1.261-.059,12.663,12.663,0,0,0-.045,1.394v6.21a16.383,16.383,0,0,0,.059,1.65h-.96v-.78h-1.905v1.62Zm1.005-2.46h1.905v-6.7h-1.905Zm9.855-6.45a10.582,10.582,0,0,0,1.575-.089v1.035a11.65,11.65,0,0,0-1.59-.091h-1.965v2.535h2.535a12.136,12.136,0,0,0,1.71-.089v1.034a11.717,11.717,0,0,0-1.695-.09h-2.3a11.786,11.786,0,0,0,1.65,2.49,12.133,12.133,0,0,0,2.82,2.295,3.967,3.967,0,0,0-.645.93,16.49,16.49,0,0,1-2.415-2.205,10.079,10.079,0,0,1-1.724-2.79c.044.555.059.975.059,1.65v2.94a10.441,10.441,0,0,0,.09,1.59h-1.08a12.3,12.3,0,0,0,.09-1.59v-2.94c0-.57,0-.765.06-1.65a12.235,12.235,0,0,1-4.559,5.19,3.36,3.36,0,0,0-.721-.735,13.094,13.094,0,0,0,4.965-5.175h-2.1a8.63,8.63,0,0,0-1.44.075v-1.005a8.725,8.725,0,0,0,1.455.075h2.34v-2.535h-1.68a12.163,12.163,0,0,0-1.545.075v-1a15.05,15.05,0,0,0,1.545.074h1.68v-1.2a6.585,6.585,0,0,0-.074-1.215h1.049a6.782,6.782,0,0,0-.075,1.215v1.2Z" fill="#4d4d4d"/>
  </g>
  <g id="グループ_120" data-name="グループ 120" transform="translate(-1015.211 -1265.805)">
    <path id="パス_641" data-name="パス 641" d="M1272.216,1432.253a10.658,10.658,0,0,0-1.455.091v-.976a9.493,9.493,0,0,0,1.455.091h3.3a9.042,9.042,0,0,0,1.394-.091v.96a9.693,9.693,0,0,0-1.38-.089h-.659v1.784h.494c.54,0,.87-.015,1.17-.044a13.925,13.925,0,0,0-.045,1.574v6.675l.016.795.015.555c-.225-.015-.855-.03-1.23-.03h-3.33v1.14h-.9a13.221,13.221,0,0,0,.089-1.71v-7.4c0-.644-.014-1.124-.059-1.62a8.039,8.039,0,0,0,1.184.06h.526v-1.77Zm-.27,8.145h3.749v-1.9c-.3.015-.389.015-.464.015a1.435,1.435,0,0,1-.871-.165c-.134-.1-.165-.225-.165-.66v-2.955h-.7v.165c0,2.31-.285,3.57-1.051,4.71a3.366,3.366,0,0,0-.494-.585Zm0-1.47c.63-.84.855-1.89.855-4.05v-.15h-.855Zm0,3.84h3.749v-1.65h-3.749Zm1.545-8.745h.7v-1.784h-.7Zm1.38,3.45c0,.285.029.315.3.315h.524v-3.06h-.824Zm7.2.915a5.585,5.585,0,0,0,1.005-.075l.526.555a6.405,6.405,0,0,0-.391.585,11.3,11.3,0,0,1-1.9,2.4,8.3,8.3,0,0,0,3.389,1.695,4.547,4.547,0,0,0-.45.945,10.585,10.585,0,0,1-3.585-2.085,11.589,11.589,0,0,1-3.989,2.13,2.881,2.881,0,0,0-.54-.825,9.949,9.949,0,0,0,3.93-1.86,8.969,8.969,0,0,1-1.425-1.95,10.442,10.442,0,0,1-1.41,1.41,2.515,2.515,0,0,0-.585-.675,7.476,7.476,0,0,0,2.25-2.415,5.094,5.094,0,0,0,.615-1.38l.9.285a14.428,14.428,0,0,1-.705,1.26Zm-1.32-4.3c-.449.044-.659.075-1.2.134a4.932,4.932,0,0,1-.42,1.695,4.257,4.257,0,0,1-1.995,2.025,2.856,2.856,0,0,0-.555-.72,3.137,3.137,0,0,0,2.13-2.924c-1.365.1-1.365.1-1.755.165l-.105-.931a6.62,6.62,0,0,0,.764.03h.391a11.641,11.641,0,0,0,1.274-2.8l.931.331a25.33,25.33,0,0,1-1.29,2.429,28.232,28.232,0,0,0,3.569-.419,10.323,10.323,0,0,0-1.29-1.29l.646-.42a17.624,17.624,0,0,1,2.46,2.7l-.75.494c-.271-.419-.361-.54-.571-.855-.929.18-.929.18-1.41.24v2.175c0,.27.09.3.75.3.675,0,.946-.045,1.05-.195a2.943,2.943,0,0,0,.181-1.215,1.858,1.858,0,0,0,.75.315c-.151,1.695-.3,1.83-2.04,1.83-1.306,0-1.516-.12-1.516-.825Zm-1.545,5.054c-.029.045-.045.06-.09.12a8.214,8.214,0,0,0,1.575,2.055,9.517,9.517,0,0,0,1.741-2.175Z" fill="#4d4d4d"/>
    <path id="パス_642" data-name="パス 642" d="M1287.385,1442.333a12.177,12.177,0,0,0,.09-1.62v-7.02c0-.615-.03-1.109-.06-1.454a9.185,9.185,0,0,0,1.23.059h1.335a9.683,9.683,0,0,0,1.26-.059,12.929,12.929,0,0,0-.045,1.394v6.21a16.338,16.338,0,0,0,.06,1.65h-.96v-.78h-1.905v1.62Zm1.005-2.46h1.905v-6.7h-1.905Zm9.854-6.45a10.592,10.592,0,0,0,1.575-.089v1.034a11.808,11.808,0,0,0-1.589-.09h-1.965v2.535h2.535a12,12,0,0,0,1.71-.09v1.035a11.735,11.735,0,0,0-1.7-.09h-2.295a11.775,11.775,0,0,0,1.65,2.49,12.15,12.15,0,0,0,2.819,2.3,3.932,3.932,0,0,0-.644.93,16.438,16.438,0,0,1-2.415-2.205,10.077,10.077,0,0,1-1.725-2.79c.045.555.06.975.06,1.65v2.94a10.335,10.335,0,0,0,.09,1.59h-1.081a12.155,12.155,0,0,0,.09-1.59v-2.94c0-.57,0-.765.061-1.65a12.244,12.244,0,0,1-4.56,5.19,3.33,3.33,0,0,0-.72-.735,13.091,13.091,0,0,0,4.964-5.175h-2.1a8.65,8.65,0,0,0-1.441.075v-1.005a8.748,8.748,0,0,0,1.455.075h2.34v-2.535h-1.679a12.117,12.117,0,0,0-1.545.075v-1.005a14.782,14.782,0,0,0,1.545.075h1.679v-1.2a6.5,6.5,0,0,0-.074-1.214h1.05a6.7,6.7,0,0,0-.075,1.214v1.2Z" fill="#4d4d4d"/>
  </g>
  <g id="グループ_121" data-name="グループ 121" transform="translate(-1015.211 -1265.805)">
    <path id="パス_643" data-name="パス 643" d="M1015.781,1434.863a18.689,18.689,0,0,1,2.61,1.9l-.616.825a12.475,12.475,0,0,0-2.564-2.025Zm2.67,4.95a25.5,25.5,0,0,1-1.98,4.05c-.18.3-.225.39-.315.57l-.885-.8a12.83,12.83,0,0,0,2.37-4.425Zm-1.785-8.534a13.574,13.574,0,0,1,2.415,1.964l-.63.765a11.957,11.957,0,0,0-2.415-2.069Zm10.44,4.934a10.4,10.4,0,0,0,1.544-.09v1.02a11.131,11.131,0,0,0-1.544-.09h-6.991a9.41,9.41,0,0,0-1.439.075v-.99a8.776,8.776,0,0,0,1.41.075h.465v-2.685a8.506,8.506,0,0,0-.09-1.3h1.1a8.152,8.152,0,0,0-.09,1.321v2.669h1.9v-3.885a7.9,7.9,0,0,0-.09-1.289h1.111a7.712,7.712,0,0,0-.09,1.305v.78h2.25a8.887,8.887,0,0,0,1.364-.09v1.02a9.243,9.243,0,0,0-1.38-.091H1024.3v2.25Zm-4.065,5.835a19.472,19.472,0,0,1-3.255,2.055c-.3.15-.42.21-.6.315l-.5-.99a6.01,6.01,0,0,0,1.606-.69,13.333,13.333,0,0,0,2.43-1.59Zm-2.775-4.425a17.9,17.9,0,0,1,2.745,2.04l-.66.75a12.627,12.627,0,0,0-2.745-2.1Zm3.764,2.28a11.322,11.322,0,0,0,1.71-1.26,5.839,5.839,0,0,0,1.066-1.155l.84.615a17.381,17.381,0,0,1-2.956,2.505Zm3.811,4.56a18.7,18.7,0,0,0-3.766-2.64l.615-.645a22.423,22.423,0,0,1,3.72,2.4Z" fill="#4d4d4d"/>
    <path id="パス_644" data-name="パス 644" d="M1032.814,1432.239a7.17,7.17,0,0,0,1.455.089c.824,0,2.024-.044,2.519-.1a1.11,1.11,0,0,0,.555-.179l.795.629a7.925,7.925,0,0,0-.824,2.175c-.331,1.02-.436,1.3-.706,2.1a11.759,11.759,0,0,1,4.095,1.185,17,17,0,0,0,.18-3.045,3.639,3.639,0,0,0-.06-.735l1.125.015a5.689,5.689,0,0,0-.06.93,20.5,20.5,0,0,1-.27,3.255c.81.42,1.32.69,2.055,1.125a2.824,2.824,0,0,0,.434.225l-.4,1.155a17.339,17.339,0,0,0-2.34-1.485,7.082,7.082,0,0,1-1.545,2.715,8.1,8.1,0,0,1-2.385,1.83,3.859,3.859,0,0,0-.8-.78,6.6,6.6,0,0,0,2.43-1.725,5.832,5.832,0,0,0,1.38-2.52,11.054,11.054,0,0,0-4.139-1.245,29.234,29.234,0,0,1-1.411,3.615c-.54,1.035-1.094,1.485-1.815,1.485a2.215,2.215,0,0,1-1.979-2.46,3.368,3.368,0,0,1,1.785-2.97,4.895,4.895,0,0,1,2.7-.645c.495-1.47.675-2.04,1.2-3.779-1.184.089-1.41.1-2.835.149a8.247,8.247,0,0,0-1.095.075Zm0,6.509a2.49,2.49,0,0,0-.72,1.725c0,.795.434,1.425.974,1.425.616,0,1.125-.93,2.22-4.125A3.633,3.633,0,0,0,1032.814,1438.748Z" fill="#4d4d4d"/>
  </g>
  <g id="グループ_122" data-name="グループ 122" transform="translate(-1015.211 -1265.805)">
    <path id="パス_645" data-name="パス 645" d="M1090.027,1506.127a10,10,0,0,0,1.5-.09v1.035a10.427,10.427,0,0,0-1.5-.09h-4.844c-.016,2.43-.016,2.43-.076,3.54a4.864,4.864,0,0,0,.361,1.755,5.815,5.815,0,0,0,1.784,2.625,10.052,10.052,0,0,0,4.35,2.19,2.951,2.951,0,0,0-.539.945c-3.316-1.02-5.715-3.09-6.316-5.43-.854,2.7-2.79,4.455-6.059,5.505a4.421,4.421,0,0,0-.6-.915c2.729-.735,4.515-2.055,5.46-3.975a6.752,6.752,0,0,0,.63-2.85c.045-.87.045-.87.045-3.39h-4.545a10.866,10.866,0,0,0-1.5.09v-1.035a10.132,10.132,0,0,0,1.5.09h4.545a10.528,10.528,0,0,0-.075-1.62h1.125a8.176,8.176,0,0,0-.09,1.62Zm-7.785,8.13c-.524-.495-.719-.675-1.064-.96a10.074,10.074,0,0,1-2.28,1.425,3.354,3.354,0,0,0-.6-.72,8.7,8.7,0,0,0,2.22-1.215,13.467,13.467,0,0,0-1.486-1.005l.646-.48c.66.42.87.555,1.455.975a5.227,5.227,0,0,0,1.14-1.38l.75.51c-.076.09-.076.09-.451.525a8.5,8.5,0,0,1-.8.825c.33.255.526.42,1.08.885Zm-2.4-6.585c.809.465,1.08.63,1.59.975a4.253,4.253,0,0,0,1.019-1.29l.75.48a2.655,2.655,0,0,0-.359.4,7.4,7.4,0,0,1-.766.84c.481.345.691.495,1.29.975l-.585.615c-.569-.51-.795-.69-1.274-1.065a10.81,10.81,0,0,1-2.46,1.575,3.619,3.619,0,0,0-.6-.675,8.892,8.892,0,0,0,2.4-1.35,15.614,15.614,0,0,0-1.606-.96Zm6.854-.075c.84.51,1.125.69,1.725,1.11a4.129,4.129,0,0,0,1.02-1.305l.81.51c-.075.06-.24.255-.314.33-.016.03-.165.2-.42.48a4.254,4.254,0,0,1-.451.45c.555.405.75.555,1.38,1.08l-.615.6c-.63-.585-.84-.765-1.35-1.17a10.724,10.724,0,0,1-2.219,1.4,2.533,2.533,0,0,0-.571-.675,7.86,7.86,0,0,0,2.13-1.2c-.554-.375-.855-.57-1.724-1.095Zm.451,3.615c.854.525,1.125.7,1.62,1.05a3.73,3.73,0,0,0,.884-1.155l.765.51c-.12.12-.21.225-.435.5a6.45,6.45,0,0,1-.57.615c.54.4.78.6,1.515,1.215l-.614.615c-.691-.645-.931-.855-1.471-1.29-.239.2-.449.36-.735.57-.06.03-.36.21-.93.555a2.985,2.985,0,0,0-.585-.66,6.868,6.868,0,0,0,1.6-.945c-.525-.375-.825-.555-1.665-1.065Z" fill="#4d4d4d"/>
    <path id="パス_646" data-name="パス 646" d="M1097.139,1505.512a6.027,6.027,0,0,0,.285.915c.3.885.45,1.305.66,1.98a26.6,26.6,0,0,1,3.225-.84,20.82,20.82,0,0,0-.06-2.655h1.125a14.14,14.14,0,0,0-.075,2.025c0,.015,0,.3.015.48a7.553,7.553,0,0,1,1.125-.09c2.009,0,3.3,1.08,3.3,2.76,0,1.8-1.469,3.09-3.524,3.09a6.352,6.352,0,0,1-2.535-.555,2.3,2.3,0,0,0,.014-.27,6.591,6.591,0,0,0-.089-.855,5.1,5.1,0,0,0,2.52.69,3.038,3.038,0,0,0,1.8-.585,1.821,1.821,0,0,0,.72-1.53c0-1.14-.885-1.815-2.4-1.815a17.671,17.671,0,0,0-4.889,1.065c.765,2.55,1.3,4.665,1.935,7.485a4.786,4.786,0,0,0,.194.645l-1.214.27a53.476,53.476,0,0,0-1.89-8.1,6.448,6.448,0,0,1-.811.27,14.309,14.309,0,0,0-2.054.825l-.39-1.065a16.458,16.458,0,0,0,2.2-.7c.375-.135.525-.165.765-.24a15.072,15.072,0,0,0-1.08-2.85Z" fill="#4d4d4d"/>
    <path id="パス_647" data-name="パス 647" d="M1110.274,1508.677c.541-.015,2.1-.195,3.315-.39a18.237,18.237,0,0,0,.45-3.18v-.2l1.2.135a9.221,9.221,0,0,0-.285,1.44c-.075.435-.18.99-.314,1.71a8.7,8.7,0,0,1,.884-.045,2.871,2.871,0,0,1,2.161.63,3.032,3.032,0,0,1,.734,2.415c0,2.295-.39,4.29-1.005,5.16a1.567,1.567,0,0,1-1.47.7,5.636,5.636,0,0,1-2.264-.585,3.383,3.383,0,0,0,.029-.525,2.9,2.9,0,0,0-.045-.6,5.613,5.613,0,0,0,2.235.69c.375,0,.661-.24.855-.72a11.611,11.611,0,0,0,.63-4.17c0-1.59-.449-2.1-1.845-2.1a8.635,8.635,0,0,0-1.08.075,28.3,28.3,0,0,1-2.265,6.36c-.195.36-.509.96-.974,1.8l-1.021-.6a14.435,14.435,0,0,0,1.561-2.715,24.844,24.844,0,0,0,1.649-4.755c-1.29.195-2.01.315-2.144.345a8.509,8.509,0,0,0-.87.195Zm9.855-1.38a13.564,13.564,0,0,1,3.135,5.31l-.96.555a12.279,12.279,0,0,0-3.06-5.385Z" fill="#4d4d4d"/>
    <path id="パス_648" data-name="パス 648" d="M1126.481,1507.942a6.57,6.57,0,0,0,1.155.075,35.046,35.046,0,0,0,4.47-.315c-.226-.51-.466-1.11-.736-1.785-.165-.39-.255-.6-.389-.87l1.184-.165a4.779,4.779,0,0,0,.435,1.35,12.334,12.334,0,0,0,.54,1.32,17.558,17.558,0,0,0,3.63-.945l.15,1.065c-.315.06-.435.09-.885.21-.9.24-1.08.285-2.025.465l-.51.1a27.79,27.79,0,0,0,2.7,4.365l-1.005.57a3,3,0,0,0-1.035-.615,8.124,8.124,0,0,0-2.625-.39,5.312,5.312,0,0,0-2.849.63,1.7,1.7,0,0,0-.811,1.4,1.5,1.5,0,0,0,.57,1.17,5.081,5.081,0,0,0,2.925.69,9.887,9.887,0,0,0,4.26-.96l.165,1.155a12.437,12.437,0,0,1-4.41.81,5.5,5.5,0,0,1-3.9-1.125,2.418,2.418,0,0,1-.674-1.65,2.8,2.8,0,0,1,1.694-2.445,6.376,6.376,0,0,1,2.91-.555,7.491,7.491,0,0,1,3.1.54,18.287,18.287,0,0,1-1.8-2.94c-.165-.315-.165-.345-.255-.495a44.127,44.127,0,0,1-5.34.39,3.317,3.317,0,0,0-.585.045Z" fill="#4d4d4d"/>
  </g>
  <g id="グループ_123" data-name="グループ 123" transform="translate(-1015.211 -1265.805)">
    <path id="パス_649" data-name="パス 649" d="M1183.154,1516.822a12.066,12.066,0,0,0-3.059-2.145c-.255-.135-.6-.285-1.005-.45a4.451,4.451,0,0,1,.029.54,2.6,2.6,0,0,1-.375,1.635,3.017,3.017,0,0,1-2.534.945,3.907,3.907,0,0,1-2.325-.6,1.962,1.962,0,0,1-.81-1.575c0-.99.78-1.77,2.1-2.07a6.519,6.519,0,0,1,1.559-.15,6.676,6.676,0,0,1,1.351.12c-.016-.045-.016-.045-.016-.18a1.284,1.284,0,0,1-.014-.165c-.015-.135-.015-.45-.031-.885-.014-.2-.014-.48-.03-.87-.539.015-1.289.03-1.769.03-.9,0-1.6-.03-2.535-.1-.166-.015-.286-.015-.375-.015h-.121l.016-.99a18.409,18.409,0,0,0,3.435.24c.389,0,.915,0,1.335-.015l-.031-2.055c-.434.015-.675.015-1.019.015-1.1,0-2.31-.045-3.66-.15a1.819,1.819,0,0,0-.27-.015,1.223,1.223,0,0,0-.21.015l.015-1.02a18.629,18.629,0,0,0,3.84.3c.3,0,.81-.015,1.3-.015a11.7,11.7,0,0,0-.074-2.16h1.154a16.98,16.98,0,0,0-.1,2.115,21.144,21.144,0,0,0,4.439-.615l.076,1.02c-.255.015-.255.015-1.036.12a31.149,31.149,0,0,1-3.479.36c.015,1.23.015,1.23.029,2.025a18.1,18.1,0,0,0,4.155-.615l.06,1.035c-.194.015-.345.03-.869.1-1.035.165-2.221.285-3.33.36.03.84.03.84.09,2.3a13.137,13.137,0,0,1,4.184,2.19,5.238,5.238,0,0,0,.51.345Zm-5.069-2.835a5.505,5.505,0,0,0-1.53-.165c-1.486,0-2.46.54-2.46,1.335s.75,1.245,2.054,1.245a2.17,2.17,0,0,0,1.651-.495,1.965,1.965,0,0,0,.3-1.35Z" fill="#4d4d4d"/>
    <path id="パス_650" data-name="パス 650" d="M1188.476,1505.887a8.975,8.975,0,0,0,1.665.09c1.394,0,3.3-.09,4.335-.2a1.8,1.8,0,0,0,.615-.135l.63.87a11.915,11.915,0,0,0-1.62,1.545,27.272,27.272,0,0,1-4.095,3.675l.045.045a6.706,6.706,0,0,1,3.809-1.185c2.385,0,3.9,1.155,3.9,2.985a3.344,3.344,0,0,1-1.949,2.97,7.668,7.668,0,0,1-3.2.63,10.436,10.436,0,0,1-3.614-.7,1.923,1.923,0,0,0,.015-.27,5.739,5.739,0,0,0-.106-.945,8.47,8.47,0,0,0,3.825.93c2.326,0,3.915-1.065,3.915-2.61,0-1.305-1.139-2.1-2.985-2.1a8.9,8.9,0,0,0-4.814,1.65,7.563,7.563,0,0,0-1.17.945l-.75-.93a14.3,14.3,0,0,0,1.95-1.485c1.559-1.365,3.6-3.3,4.979-4.74a1.484,1.484,0,0,1,.135-.15l.12-.12-.03-.015a.751.751,0,0,0-.194.03c-.646.1-2.595.225-4.276.27a6.092,6.092,0,0,0-1.08.075Z" fill="#4d4d4d"/>
    <path id="パス_651" data-name="パス 651" d="M1203.832,1505.512a6.027,6.027,0,0,0,.285.915c.3.885.45,1.305.66,1.98a26.6,26.6,0,0,1,3.225-.84,20.79,20.79,0,0,0-.06-2.655h1.125a14.14,14.14,0,0,0-.075,2.025c0,.015,0,.3.015.48a7.563,7.563,0,0,1,1.125-.09c2.01,0,3.3,1.08,3.3,2.76,0,1.8-1.47,3.09-3.525,3.09a6.352,6.352,0,0,1-2.535-.555,2.153,2.153,0,0,0,.015-.27,6.687,6.687,0,0,0-.09-.855,5.1,5.1,0,0,0,2.52.69,3.038,3.038,0,0,0,1.8-.585,1.819,1.819,0,0,0,.72-1.53c0-1.14-.885-1.815-2.4-1.815a17.685,17.685,0,0,0-4.89,1.065c.766,2.55,1.305,4.665,1.935,7.485a4.762,4.762,0,0,0,.195.645l-1.215.27a53.353,53.353,0,0,0-1.89-8.1,6.311,6.311,0,0,1-.81.27,14.288,14.288,0,0,0-2.055.825l-.39-1.065a16.478,16.478,0,0,0,2.206-.7c.375-.135.524-.165.764-.24a15.072,15.072,0,0,0-1.08-2.85Z" fill="#4d4d4d"/>
    <path id="パス_652" data-name="パス 652" d="M1216.968,1508.677c.54-.015,2.1-.195,3.314-.39a18.239,18.239,0,0,0,.45-3.18v-.2l1.2.135a8.985,8.985,0,0,0-.285,1.44c-.076.435-.18.99-.315,1.71a8.717,8.717,0,0,1,.885-.045,2.87,2.87,0,0,1,2.16.63,3.032,3.032,0,0,1,.734,2.415c0,2.295-.389,4.29-1.005,5.16a1.566,1.566,0,0,1-1.469.7,5.637,5.637,0,0,1-2.265-.585,3.383,3.383,0,0,0,.029-.525,2.909,2.909,0,0,0-.045-.6,5.616,5.616,0,0,0,2.236.69q.563,0,.854-.72a11.589,11.589,0,0,0,.63-4.17c0-1.59-.449-2.1-1.845-2.1a8.635,8.635,0,0,0-1.08.075,28.3,28.3,0,0,1-2.264,6.36c-.2.36-.51.96-.975,1.8l-1.02-.6a14.432,14.432,0,0,0,1.56-2.715,24.9,24.9,0,0,0,1.65-4.755c-1.29.195-2.01.315-2.145.345a8.516,8.516,0,0,0-.87.195Zm9.854-1.38a13.552,13.552,0,0,1,3.135,5.31l-.96.555a12.267,12.267,0,0,0-3.059-5.385Z" fill="#4d4d4d"/>
    <path id="パス_653" data-name="パス 653" d="M1233.174,1507.942a6.577,6.577,0,0,0,1.155.075,35.032,35.032,0,0,0,4.47-.315c-.226-.51-.466-1.11-.735-1.785-.166-.39-.255-.6-.39-.87l1.184-.165a4.779,4.779,0,0,0,.435,1.35,12.334,12.334,0,0,0,.54,1.32,17.558,17.558,0,0,0,3.63-.945l.15,1.065c-.315.06-.434.09-.884.21-.9.24-1.081.285-2.026.465-.359.075-.359.075-.51.1a27.8,27.8,0,0,0,2.7,4.365l-1.005.57a3.018,3.018,0,0,0-1.035-.615,8.132,8.132,0,0,0-2.625-.39,5.318,5.318,0,0,0-2.85.63,1.7,1.7,0,0,0-.811,1.4,1.5,1.5,0,0,0,.571,1.17,5.076,5.076,0,0,0,2.925.69,9.886,9.886,0,0,0,4.259-.96l.165,1.155a12.433,12.433,0,0,1-4.41.81c-1.829,0-3.21-.405-3.9-1.125a2.415,2.415,0,0,1-.675-1.65,2.8,2.8,0,0,1,1.694-2.445,6.379,6.379,0,0,1,2.91-.555,7.491,7.491,0,0,1,3.1.54,18.427,18.427,0,0,1-1.8-2.94c-.165-.315-.165-.345-.255-.495a44.127,44.127,0,0,1-5.34.39,3.317,3.317,0,0,0-.585.045Z" fill="#4d4d4d"/>
  </g>
  <g id="グループ_124" data-name="グループ 124" transform="translate(-1015.211 -1265.805)">
    <path id="パス_654" data-name="パス 654" d="M1018.819,1348.072a12.082,12.082,0,0,0-1.6.06v-1.184a7.4,7.4,0,0,0,1.635.1h7.139v-7.245h-6.824a12.563,12.563,0,0,0-1.725.075v-1.2a8.208,8.208,0,0,0,1.725.1h7.2c.2,0,.406-.015.781-.03-.031.375-.031.63-.031,1.17v7.679a10.034,10.034,0,0,0,.076,1.365h-1.2v-.9Z" fill="#4d4d4d"/>
    <path id="パス_655" data-name="パス 655" d="M1037.463,1337.243a2.86,2.86,0,0,0-.33.615,14.344,14.344,0,0,1-.69,1.335c.195-.045.195-.045,4.53-.12a1.474,1.474,0,0,0,.78-.1l.645.63c-.135.18-.135.195-.3.735a15.856,15.856,0,0,1-3,5.639,14.69,14.69,0,0,1-5.22,3.75,2.245,2.245,0,0,0-.75-.885,12.751,12.751,0,0,0,5.295-3.794,13.783,13.783,0,0,0,2.58-5.025l-5.055.09a14.464,14.464,0,0,1-3.585,3.9,2.23,2.23,0,0,0-.84-.78,11.112,11.112,0,0,0,3.765-4.11,6.8,6.8,0,0,0,.945-2.19Z" fill="#4d4d4d"/>
  </g>
  <line id="線_8" data-name="線 8" x1="109.032" y1="45.163" transform="translate(33.651 81.024)" fill="none" stroke="#999" stroke-miterlimit="10" stroke-width="0.5"/>
  <line id="線_9" data-name="線 9" x1="45.162" y1="109.032" transform="translate(97.52 17.154)" fill="none" stroke="#999" stroke-miterlimit="10" stroke-width="0.5"/>
  <line id="線_10" data-name="線 10" y1="109.032" x2="45.163" transform="translate(142.683 17.154)" fill="none" stroke="#999" stroke-miterlimit="10" stroke-width="0.5"/>
  <line id="線_11" data-name="線 11" y1="45.163" x2="109.032" transform="translate(142.683 81.024)" fill="none" stroke="#999" stroke-miterlimit="10" stroke-width="0.5"/>
  <line id="線_12" data-name="線 12" x2="109.032" y2="45.162" transform="translate(142.683 126.186)" fill="none" stroke="#999" stroke-miterlimit="10" stroke-width="0.5"/>
  <line id="線_13" data-name="線 13" x2="45.163" y2="109.032" transform="translate(142.683 126.186)" fill="none" stroke="#999" stroke-miterlimit="10" stroke-width="0.5"/>
  <line id="線_14" data-name="線 14" x1="45.162" y2="109.032" transform="translate(97.52 126.186)" fill="none" stroke="#999" stroke-miterlimit="10" stroke-width="0.5"/>
  <line id="線_15" data-name="線 15" x1="109.032" y2="45.162" transform="translate(33.651 126.186)" fill="none" stroke="#999" stroke-miterlimit="10" stroke-width="0.5"/>
  <path id="パス_656" data-name="パス 656" d="M1203.056,1282.959h-90.325l-63.87,63.87v90.325l63.87,63.87h90.325l63.87-63.87v-90.325Z" transform="translate(-1015.211 -1265.805)" fill="none" stroke="#999" stroke-miterlimit="10" stroke-width="0.5"/>
</svg>
