<svg id="lineup_ttl" xmlns="http://www.w3.org/2000/svg" width="405.494" height="96.817" viewBox="0 0 405.494 96.817">
  <g id="グループ_96" data-name="グループ 96" transform="translate(-757.01 -2673.527)">
    <g id="グループ_95" data-name="グループ 95">
      <path id="パス_507" data-name="パス 507" d="M924.3,2734.809a4.136,4.136,0,0,0,3.53-1.905c.266-.392.294-.434.393-.434a.2.2,0,0,1,.209.21c0,.084-.531,1.457-.615,1.681-.351.882-.407.9-1.318.9h-5.869c-.21,0-.406,0-.406-.224s.154-.224.505-.224a.929.929,0,0,0,1.064-.728c.042-.238.042-3.46.042-3.867,0-.56,0-3.739-.042-3.991-.127-.715-.742-.715-1.26-.715-.1,0-.309,0-.309-.224s.2-.238.406-.238H924.1c.224,0,.421,0,.421.238s-.155.224-.505.224a.938.938,0,0,0-1.065.715c-.042.252-.042,3.235-.042,3.894a37.214,37.214,0,0,0,.042,3.964.9.9,0,0,0,.967.728Z" fill="#333"/>
      <path id="パス_508" data-name="パス 508" d="M932.2,2735.257c-.182,0-.392,0-.392-.224s.112-.224.658-.224c.406,0,1.079,0,1.219-.728.042-.238.042-3.46.042-3.867,0-.574,0-3.739-.042-3.991-.14-.715-.645-.715-1.569-.715-.084,0-.308,0-.308-.224s.21-.238.406-.238h4.118c.168,0,.378,0,.378.238,0,.21-.125.21-.643.21-.421,0-1.023.014-1.206.644-.055.2-.055,3.348-.055,3.992a37,37,0,0,0,.042,3.951c.126.728.63.728,1.568.728.07,0,.294,0,.294.224s-.21.224-.378.224Z" fill="#333"/>
      <path id="パス_509" data-name="パス 509" d="M940.812,2735.257c-.21,0-.42,0-.42-.224s.168-.224.518-.224a1.107,1.107,0,0,0,1.121-.63c.112-.322.126-.336.126-4.049a34.055,34.055,0,0,0-.043-3.781c-.167-.841-.938-.841-1.414-.841-.085,0-.308,0-.308-.224s.21-.238.42-.238h1.358c1.009,0,1.037.042,1.751,1.134.855,1.289,2.228,3.348,3.082,4.637.183.28,1.471,2.241,1.555,2.241.055,0,.1-.1.1-.28,0-.392.013-2.69.013-3.18s0-2.983-.042-3.236c-.168-.854-.883-.854-1.345-.854-.083,0-.3,0-.3-.224s.2-.238.393-.238h2.914c.155,0,.364,0,.364.238s-.2.224-.421.224c-1.162,0-1.162.63-1.162,2.311,0,1.051.014,6.234.014,7.4,0,.07,0,.308-.182.308a.245.245,0,0,1-.182-.111c-.084-.1-5.575-8.349-5.645-8.447-.253-.406-.28-.462-.35-.462s-.112.112-.112.266c0,.5-.014,2.942-.014,3.5s0,3.348.042,3.614c.168.924.938.924,1.541.924.111,0,.322,0,.322.224s-.183.224-.448.224Z" fill="#333"/>
      <path id="パス_510" data-name="パス 510" d="M959.285,2734.809a3.639,3.639,0,0,0,3.348-1.737c.351-.546.379-.6.49-.6a.224.224,0,0,1,.239.224c0,.07-.5,1.4-.588,1.611-.351.91-.365.952-1.276.952h-6.6c-.238,0-.434,0-.434-.224s.141-.224.532-.224a.929.929,0,0,0,1.065-.728c.042-.238.055-3.46.055-3.867,0-.56,0-3.739-.041-3.991-.14-.715-.743-.715-1.3-.715-.1,0-.309,0-.309-.224s.2-.238.434-.238h6.387c.87,0,.939.028,1.219.714.084.2.6,1.485.6,1.583a.219.219,0,0,1-.225.21c-.084,0-.111-.028-.434-.476a3.407,3.407,0,0,0-2.689-1.569h-1.555a.972.972,0,0,0-.841.364c-.167.253-.167.379-.167,1.485,0,.182,0,2.087.041,2.2a.388.388,0,0,0,.336.182h1.233c1.583,0,1.583-.952,1.583-1.568,0-.042,0-.281.224-.281s.224.239.224.351c-.014.518,0,3.025,0,3.586,0,.07,0,.294-.224.294s-.224-.182-.224-.463c0-1.19-.8-1.47-1.583-1.47h-1.233a.337.337,0,0,0-.364.322c-.013.112-.013,2.423-.013,2.633,0,.981,0,1.667,1.008,1.667Z" fill="#333"/>
      <path id="パス_511" data-name="パス 511" d="M983.844,2725.046c.183,0,.393,0,.393.238s-.2.224-.435.224c-.994,0-1.065.8-1.078,1.233-.015.7,0,4.174,0,4.958a3.846,3.846,0,0,1-.9,2.942,3.267,3.267,0,0,1-2.368.882c-.6,0-3.473-.2-3.557-3.095-.014-.784.014-4.594.014-5.449,0-1.079-.07-1.471-1.3-1.471-.083,0-.308,0-.308-.224s.21-.238.42-.238h3.432c.168,0,.378,0,.378.238s-.181.224-.448.224a.936.936,0,0,0-1.022.63c-.071.211-.071,2.872-.071,3.362,0,3.082,0,3.32.239,3.979a2.456,2.456,0,0,0,2.4,1.512,2.487,2.487,0,0,0,2.185-1.093c.476-.7.476-1.288.476-4.538,0-3.1-.028-3.166-.2-3.432a1.073,1.073,0,0,0-.994-.42c-.154,0-.28-.07-.28-.224,0-.238.21-.238.336-.238Z" fill="#333"/>
      <path id="パス_512" data-name="パス 512" d="M992.141,2725.046c.533,0,3.992,0,3.992,2.647,0,1.457-1.12,2.732-3.627,2.732H991.16c-.377,0-.377.112-.377,1.177,0,2.563,0,2.577.154,2.815a1.046,1.046,0,0,0,.938.392c.309,0,.477,0,.477.224s-.2.224-.393.224H988.5c-.21,0-.406,0-.406-.224s.21-.224.351-.224c.476,0,1.078,0,1.218-.728a37.214,37.214,0,0,0,.042-3.964c0-.659,0-3.656-.042-3.894a.93.93,0,0,0-1.064-.715c-.351,0-.505,0-.505-.224s.2-.238.406-.238Zm.084,4.916c1.85,0,2.578-1.022,2.578-2.212a2.182,2.182,0,0,0-2.409-2.242h-.6c-1.008,0-1.008.617-1.008,1.835,0,.2,0,2.185.014,2.311a.34.34,0,0,0,.363.308Z" fill="#333"/>
    </g>
  </g>
  <g id="グループ_98" data-name="グループ 98" transform="translate(-757.01 -2673.527)">
    <g id="グループ_97" data-name="グループ 97">
      <path id="パス_513" data-name="パス 513" d="M772.448,2685.246c0,1.32-3.04,2.519-4,2.919-.56.2-.6.36-.68,1.76-.08.88-.08,4.119-.08,4.319,0,.24,0,.72.36.72.12,0,3.4-1.36,4.039-1.6,3.96-1.48,5.759-1.6,6.8-1.6a6.123,6.123,0,0,1,6.159,6.039c0,5.279-5.558,7.679-8.839,7.679-2.279,0-4.119-1.161-4.119-3.24a3.563,3.563,0,0,1,2-3.159.213.213,0,0,1,.2.2c0,.12-.08.2-.16.32a1.654,1.654,0,0,0-.36,1.08c0,1.92,2.2,1.92,2.6,1.92,2.64,0,6-1.76,6-4.959a4.143,4.143,0,0,0-3.839-4.4c-1.119,0-3.6.52-8.279,3-2.239,1.2-2.479,1.32-2.479,2,0,.44.12,2.239.12,2.639,0,1.84-.6,4.479-2.04,4.479-1.079,0-1.52-.839-1.84-1.48-1.279-2.479-1.479-2.479-2-2.479a3.333,3.333,0,0,0-1,.24,7.849,7.849,0,0,1-1.52.8c-.44,0-2.479-1.2-2.479-2.52,0-.72.44-1.56,1.16-1.56.239,0,1.4.2,1.639.2,1.08,0,1.8-.2,4.16-1.36,2.039-1,2.279-1.12,2.279-2.24,0-.92-.04-4.319-.08-5,0-.28-.12-.88-.559-.88a9.319,9.319,0,0,0-1.84.36c-2.04.68-2.239.76-2.84.76-1.359,0-2.88-2.76-2.88-3.04a.283.283,0,0,1,.32-.28c.12,0,.6.161.721.161a11.688,11.688,0,0,0,1.839.2,17.468,17.468,0,0,0,5.079-1.2,29.907,29.907,0,0,0,.4-4.36,3.925,3.925,0,0,0-1.32-3.2,4,4,0,0,1-.559-.64c0-.36.639-.44.879-.44,2.68,0,4.12,1.96,4.12,2.72a16.16,16.16,0,0,1-.84,2.079,21.341,21.341,0,0,0-.4,2.6c0,.16.08.44.321.44.28,0,1.4-.44,1.4-1,0-.08-.2-.48-.2-.56,0-.04.08-.12.16-.16C770.528,2683.446,772.448,2684.006,772.448,2685.246Zm-9.12,15.317c0,.6,1.08,1.88,1.68,1.88.561,0,1.12-1.12,1.12-3.08,0-.16,0-.56-.12-.64C765.889,2698.723,763.328,2700,763.328,2700.563Zm26.276-12.438c0,.84-.48,1.92-1.32,1.92-.239,0-1.159-.08-1.359-.08-.2.04-1.04.28-1.2.28a.186.186,0,0,1-.2-.2,2.763,2.763,0,0,1,.119-.32,2.107,2.107,0,0,0,.16-.72c0-1.6-2-2.16-3.36-2.16a3.466,3.466,0,0,0-1.559.4.9.9,0,0,1-.4.12c-.121,0-.16-.04-.16-.16a5.115,5.115,0,0,1,4.319-2.519C787.725,2684.686,789.6,2686.286,789.6,2688.125Z" fill="#333"/>
      <path id="パス_514" data-name="パス 514" d="M830.594,2688.885a35.278,35.278,0,0,0,9.678,3.16c.16,0,.84.12.84.279,0,.12-.56.281-.72.321a6.914,6.914,0,0,0-3.039,2.159c-.12.16-.56,1-.76,1-.24,0-8.919-4.2-12.838-10.6-.76-1.28-.88-1.4-1.16-1.4s-.36.08-1.239,1a47.568,47.568,0,0,1-11.838,9.318c-1.36.72-5.52,2.56-6.28,2.56-.12,0-.2-.08-.2-.12s4.28-2.68,4.64-2.92c5.4-3.4,11.118-9.518,11.678-12.517.04-.321.08-.44.359-.44.2,0,3.44,1.239,3.64,1.359.12.04.52.2.52.6a2.5,2.5,0,0,1-.16.56C823.795,2683.806,827.235,2687.165,830.594,2688.885Zm-19.277-9.958c-2.959,0-4.319.08-5.079.12-.121,0-.72.08-.84.08s-.2-.08-.36-.24l-.759-.92c-.161-.2-.161-.2-.161-.28s.04-.08.12-.08c.28,0,1.52.12,1.76.12,1.959.08,3.639.16,5.519.16h1.16c.84,0,1.079-.4,1.079-1.08a6.489,6.489,0,0,0-.319-2.119,6.115,6.115,0,0,1-.24-.8c0-.2.2-.28.44-.28.279,0,2.079.439,2.52.559,1.2.32,1.439.4,1.439.76,0,.24-.04.32-.6,1.04a.977.977,0,0,0-.28.72c0,.96.32,1.2,1.4,1.2h6.6c.36,0,1.2,0,1.2-1.08a16.939,16.939,0,0,0-.119-1.8c-.041-.2-.24-1.04-.24-1.2,0-.2.24-.281.439-.281.281,0,3,.64,3.44.761s.679.28.679.639c0,.24-.16.4-.6.721a1.279,1.279,0,0,0-.52,1.119c0,1.12.64,1.12,1.28,1.12h2.04c1.76,0,1.96,0,2.559-.68,1.119-1.32,1.239-1.48,1.6-1.48.24,0,3.719,2.12,3.719,2.64,0,.56-.8.56-2.119.56h-7.8c-1.24,0-1.24.64-1.24,1.6,0,.241.041,1.6.041,1.8,0,1.48-1.2,1.72-2.041,1.72-.92,0-1.08-.16-1.08-1.52v-2.759c-.12-.76-.6-.84-1.239-.84h-6.4c-.92,0-1.48,0-1.48,1.12,0,.4.12,2.159.12,2.519,0,.76-.12,1.12-.479,1.36a2.846,2.846,0,0,1-1.521.56c-.679,0-1-.44-1-1.24,0-.32.04-1.84.04-2.119,0-1.56,0-2.2-1.239-2.2Zm2.84,20.436a20.525,20.525,0,0,1,3.08,1.88,1,1,0,0,1,.319.6c0,.48-.319.56-1.28.8-.119.04-3.559,2.719-4.2,3.2-3.6,2.56-5.878,3.48-6.078,3.48a.128.128,0,0,1-.12-.12c0-.08,2.119-1.92,2.4-2.2,3.319-3.16,5.359-6.319,5.718-7.6A.242.242,0,0,1,814.157,2699.363Zm1.839-2.119c-3.119,0-4.279.04-5.079.12-.12,0-.719.079-.84.079s-.2-.079-.36-.239l-.76-.92c-.16-.2-.16-.2-.16-.28,0-.04.04-.08.12-.08.281,0,1.521.12,1.76.12,1.96.12,3.64.16,5.52.16h3c.4,0,1.2,0,1.2-1.08,0-.48-.24-3.719-.321-4.119,0-.08-.239-.48-.239-.56s.079-.24.4-.24c.28,0,3.079.6,3.479.72.56.12.76.48.76.68,0,.24-.08.319-.68.839-.56.48-.56.72-.56,1.92,0,1.44,0,1.84,1.2,1.84h1.76c1.759,0,1.96,0,2.559-.68,1.12-1.32,1.24-1.48,1.6-1.48.24,0,3.72,2.16,3.72,2.64,0,.56-.8.56-2.121.56H824.4c-1.2,0-1.2.719-1.2,2,0,2.84,0,4.44.081,6.8.039.68.039,1.64.039,2.12,0,1.28-.32,2.039-2.039,2.039-.88,0-.96-.719-.96-1.4,0-.52.12-2.92.12-3.44.04-1.52.04-3,.04-4.839a24.212,24.212,0,0,0-.08-2.719c-.2-.56-.84-.56-1.16-.56Zm10.678,3.359c0-.12.2-.16.36-.16,1.48,0,10.6,2.519,10.6,5.839,0,1.28-.721,2.28-1.721,2.28-.759,0-.919-.2-2.159-2.04a19.018,19.018,0,0,0-6.879-5.759C826.834,2700.763,826.674,2700.643,826.674,2700.6Z" fill="#333"/>
      <path id="パス_515" data-name="パス 515" d="M873.079,2680.366c0,.12.08.281.08.44a30.666,30.666,0,0,1,.4,4.32c0,2.679-.6,6.4-4.119,11.718-3.2,4.879-5.24,5.839-6.839,5.839-2.64,0-5-4.119-5-9a14.084,14.084,0,0,1,4.439-10.2,16.547,16.547,0,0,1,12.758-5.2,13.027,13.027,0,0,1,6.438,1.28,12.534,12.534,0,0,1,6.96,11.638,14.913,14.913,0,0,1-10.079,14.077,24.579,24.579,0,0,1-6.638,1.48c-.16,0-.4-.04-.4-.28,0-.12.08-.16,1.08-.56,4.16-1.64,12.838-5.079,12.838-15.037,0-1.56-.16-11.078-11.078-11.078C873.119,2679.807,873.079,2680.127,873.079,2680.366Zm-13,12.279c0,2.6,1.04,6.158,3.48,6.158,1.16,0,2.119-.48,4.879-4.639,2.12-3.239,3.92-7.679,3.92-11.638,0-2.4-.16-2.6-.68-2.6C867.88,2679.926,860.081,2685.086,860.081,2692.645Z" fill="#333"/>
      <path id="パス_516" data-name="パス 516" d="M912.452,2705.722c12.478-6.718,15.758-15.357,15.758-16.2,0-.48-.28-.76-.841-.76-1.359,0-11.4,1.76-13.157,2.28a17.009,17.009,0,0,1-1.84.68c-1.719,0-4.559-3.44-4.559-4.56a.225.225,0,0,1,.24-.2,5.769,5.769,0,0,1,.721.32,11.214,11.214,0,0,0,3.959.68c3.279,0,11.238-1.04,12.717-1.2.081,0,2.72-.24,2.76-.24a6.9,6.9,0,0,1,1.159-.439c.68,0,3.52,2.359,3.52,3.279,0,.6-.16.76-1.08,1.52a11.2,11.2,0,0,0-2.159,2.839c-3.16,4.8-5.64,7.8-11.279,10.678a28.262,28.262,0,0,1-7.078,2.6.319.319,0,0,1-.36-.32.43.43,0,0,1,.08-.24C911.093,2706.362,912.213,2705.842,912.452,2705.722Zm1-26.155a9.827,9.827,0,0,0,2.121.16,38.268,38.268,0,0,0,6.4-.44c.6-.12,3.359-.8,3.919-.8.68,0,2.44.36,2.44,1.519,0,1.24-1.4,1.36-3.719,1.561-.64.079-9.239.839-9.519.839-2.119,0-3.319-2.719-3.319-3,0-.2.08-.28.239-.28C912.252,2679.127,913.212,2679.526,913.452,2679.567Z" fill="#333"/>
      <path id="パス_517" data-name="パス 517" d="M965.231,2687.8c1.56.96,1.719,1.12,1.719,1.48,0,.24-.439,1.36-.479,1.6-.16.72-.24,1.559-.24,7.078,0,1.081.04,3.24.12,4.8.04.48.28,2.8.28,3.319,0,.4,0,1.76-.96,1.76-1.12,0-2.479-1.72-2.479-2.8,0-.4.4-2.159.439-2.559.24-2.16.4-5.239.4-7.359,0-1.44,0-5.639-1.041-5.639-.2,0-.36.16-.679.48-3.92,3.759-10.639,7.639-11.359,7.639-.12,0-.2-.081-.2-.24a.363.363,0,0,1,.12-.28c1.04-.92,2.16-1.84,2.8-2.4,9.439-8.079,12.558-14.877,12.558-16a2.254,2.254,0,0,0-.321-1.12,4.537,4.537,0,0,1-.279-.64.394.394,0,0,1,.4-.32c.6,0,4.639,1.68,4.639,3.2a1.011,1.011,0,0,1-.36.8c-1.079.879-1.24,1.119-2.72,3.279-.68.96-1.959,2.4-2.719,3.359A.644.644,0,0,0,965.231,2687.8Z" fill="#333"/>
      <path id="パス_518" data-name="パス 518" d="M1005.487,2699.763a28.045,28.045,0,0,0-3.919,3.279c-.76.92-.84,1-1.44,1-2.159,0-5.119-2.559-5.119-4.159,0-.28.04-2.119.4-2.119a9.906,9.906,0,0,1,1.2.759,6.62,6.62,0,0,0,2.719.92c1.959,0,12.558-7.079,19.2-13.637.639-.64,1.759-1.76,1.839-1.76a.257.257,0,0,1,.2.2C1020.565,2684.6,1015.885,2692.085,1005.487,2699.763Zm-3.28-13.158c-1.079,0-1.479-.64-2.8-2.639a9,9,0,0,0-3.639-3.279c-.16-.08-.361-.2-.361-.36s.321-.361.881-.361c4.279,0,7.639,2.28,7.639,4.639A1.767,1.767,0,0,1,1002.207,2686.6Z" fill="#333"/>
      <path id="パス_519" data-name="パス 519" d="M1051.371,2690.045a34.556,34.556,0,0,0-3.838.6c-.88.16-5.28,1.12-5.44,1.12-.96,0-1.159-.2-3.159-2.16-1.04-1.04-1.12-1.16-1.12-1.44a.266.266,0,0,1,.28-.28,13.433,13.433,0,0,1,1.6.4,10.353,10.353,0,0,0,3.039.4c1.96,0,8.839-.68,9.758-1.08.52-.24.56-.6.64-1.4.12-1.04.2-2.96.2-4,0-2.319-.2-3.4-.639-4.119a6.364,6.364,0,0,1-.721-1.2c0-.32,1.32-.32,1.721-.32,1.2,0,3.839,2.12,3.839,2.959a8.322,8.322,0,0,1-.68,1.48,33.544,33.544,0,0,0-.681,5.04c0,.719.24,1.119,1.04,1.119a22.261,22.261,0,0,0,4.56-.8c2-.76,2.519-.959,3.359-.959,1.08,0,3.92.72,3.92,2.519,0,1.2-2.12,1.2-2.8,1.2-.559,0-3.04-.2-3.559-.2a48.9,48.9,0,0,0-6.4.6c-.44.16-.721.52-.961,1.56-1.839,7.278-2.8,11.118-7.158,15.2a11.267,11.267,0,0,1-3,2.12.186.186,0,0,1-.2-.2c0-.12,1.239-1.6,2-2.68a28.742,28.742,0,0,0,4.6-9.878,24.9,24.9,0,0,0,.839-4.679C1052.411,2690.365,1052.012,2690.045,1051.371,2690.045Z" fill="#333"/>
      <path id="パス_520" data-name="パス 520" d="M1094.252,2695.324a1.455,1.455,0,0,1-1.359,1.52c-.881,0-1.16-.92-1.441-1.8a14.288,14.288,0,0,0-2.319-4.039c-.2-.28-.28-.4-.28-.52,0-.24.24-.36.52-.36C1090.332,2690.125,1094.252,2692.125,1094.252,2695.324Zm12.358-8.238a2.587,2.587,0,0,1-.08-.36.272.272,0,0,1,.28-.281,8.921,8.921,0,0,1,1.8,1c.639.32,2.239,1.28,2.239,2.44,0,.32-.159.36-.84.76a32.662,32.662,0,0,0-2.039,3.439c-6.119,10.158-15.958,14.118-16.277,14.118a.259.259,0,0,1-.241-.24,17.091,17.091,0,0,1,2.24-1.68c8.519-6.519,13.2-14.037,13.2-17.477A4.049,4.049,0,0,0,1106.61,2687.086Zm-6.239,3.879c0,1.16-.64,2.04-1.36,2.04-.88,0-1.079-1-1.2-1.68a12.531,12.531,0,0,0-1.48-3.8,4.585,4.585,0,0,1-.439-.879c0-.121.2-.241.4-.2A5.069,5.069,0,0,1,1100.371,2690.965Z" fill="#333"/>
      <path id="パス_521" data-name="パス 521" d="M1130.309,2682.286a9.427,9.427,0,0,0,3.32.84c1.64,0,13.358-1.12,15.077-1.88,1.239-.559,1.4-.639,1.68-.639.88,0,1.52.56,2.76,1.639,1.8,1.6,2.04,2.04,2.04,2.6,0,.52-.2.72-.92,1.44a6.594,6.594,0,0,0-1.561,2.519c-6.278,13.038-20.236,18.637-20.636,18.637a.266.266,0,0,1-.28-.24c0-.16.12-.24.52-.52,6.959-4.879,12.6-10.158,15.8-15.837a22.58,22.58,0,0,0,2.719-6.759c0-.68-.68-.72-.881-.72-.4,0-11.957,1.92-14.4,2.88a14.633,14.633,0,0,1-2,.88c-.92,0-4.119-2-4.119-4.2,0-.76.119-.88.359-.88C1129.869,2682.046,1130.23,2682.286,1130.309,2682.286Zm32.2-2.679a3.86,3.86,0,1,1-7.719,0,3.8,3.8,0,0,1,3.919-3.8A3.723,3.723,0,0,1,1162.5,2679.607Zm-6.4.12a2.543,2.543,0,0,0,5.079-.04,2.675,2.675,0,0,0-2.559-2.52A2.573,2.573,0,0,0,1156.1,2679.727Z" fill="#333"/>
    </g>
  </g>
  <line id="線_6" data-name="線 6" x2="150" transform="translate(128.633 96.317)" fill="none" stroke="#333" stroke-miterlimit="10" stroke-width="1"/>
</svg>
