<svg id="lineup_warm_howto_sp" xmlns="http://www.w3.org/2000/svg" width="594" height="55" viewBox="0 0 594 55">
  <rect id="長方形_53" data-name="長方形 53" width="594" height="55" fill="#fff100" opacity="0"/>
  <path id="パス_2101" data-name="パス 2101" d="M-5024.252-476.483c0-.08,0-.32.56-.32a16.479,16.479,0,0,1,3.559.641,21.788,21.788,0,0,0,2.479.759c.92,0,1.96-1.679,2.92-3.239.4-.68,1.92-3.319,1.92-4.359a.5.5,0,0,0-.52-.56c-.239,0-7,1.6-8.519,2.159a16.781,16.781,0,0,1-2.039.84,4.161,4.161,0,0,1-2.88-2.04,7.808,7.808,0,0,1-.96-2.079c0-.12.08-.28.2-.28.081,0,1.121.44,1.241.48a5.156,5.156,0,0,0,2.039.52c.56,0,10.958-1.52,11.8-2.2.96-.76,1.04-.84,1.4-.84.72,0,2.6,1.439,3.2,1.919a1.356,1.356,0,0,1,.48,1.04c0,.639-.119.72-1.28,1.439-.8.521-1.04.88-3.119,4.16a34.178,34.178,0,0,0-2.48,3.919c0,.361.2.441,2,1.36,2.24,1.12,6.079,3.639,6.079,5.8a1.093,1.093,0,0,1-1.08,1.239c-1.279,0-1.68-.361-5.159-3.72-.72-.68-2.68-2.319-3.48-2.319a2,2,0,0,0-1.359.8c-6.719,6.918-14.358,9.718-15.077,9.718a.215.215,0,0,1-.2-.2,15.226,15.226,0,0,1,2.32-1.76,68.33,68.33,0,0,0,10.838-8.839c.28-.319.68-.719.6-1.159C-5018.933-474.483-5024.252-475.922-5024.252-476.483Z" transform="translate(5052.784 502.723)" fill="#4d4d4d"/>
  <path id="パス_2102" data-name="パス 2102" d="M-4980.889-488.32c0-.4.56-.4.88-.4a3.737,3.737,0,0,1,3.72,2.24c0,.481-.4,1-1.2,2-.2.28-.32.44-.32.64,0,.319.481.319.641.319a22.63,22.63,0,0,0,6.079-1.6,7.493,7.493,0,0,1,1.879-.64c.36,0,.56.12,2.2,1.08.239.12,1.279.68,1.479.8a1.447,1.447,0,0,1,.76,1c0,.56-.28.72-1.6,1.52-.441.279-.6.519-2,2.679a48.9,48.9,0,0,1-14.318,15.037,27.341,27.341,0,0,1-7.959,3.84.358.358,0,0,1-.359-.36c0-.16.12-.239,1.359-.92,12.2-6.719,19.8-20.357,19.8-21.6a.432.432,0,0,0-.439-.439c-.08,0-5.6,1.24-6.56,1.24-.239,0-1.319-.12-1.559-.12-.76,0-.84.079-2.52,2a29.99,29.99,0,0,1-5.439,5.2,12.229,12.229,0,0,1-3.839,2.12c-.2,0-.281-.12-.281-.24a33.694,33.694,0,0,1,3.161-3c3.239-3.24,7.038-8.759,6.718-11.158C-4980.649-487.28-4980.889-488.16-4980.889-488.32Z" transform="translate(5052.784 502.723)" fill="#4d4d4d"/>
  <path id="パス_2103" data-name="パス 2103" d="M-4945.287-484.361a57.087,57.087,0,0,0,12.357-1.48c.521-.12,2.64-1,3.12-1,.32,0,3.32.6,3.32,1.96,0,.88-1.041,1.08-2.56,1.2-4.319.4-6.6.6-6.919.72a.62.62,0,0,0-.4.479c0,.441.64,1,.76,1.121.56.519.76.679.76,1a13.317,13.317,0,0,1-.76,1.719,3.906,3.906,0,0,0-.24.92c0,.52.319.72.84.72,1.08,0,6.559-.88,7.759-1.12.4-.08,2.079-.48,2.439-.48.72,0,3.959.92,3.959,3.24a.757.757,0,0,1-.8.719c-.2,0-2.559-.48-3.039-.559a18.7,18.7,0,0,0-3.4-.281,39.508,39.508,0,0,0-7.6.84c-.52.24-.56.8-.56,1.6,0,5.119.6,5.719,1.08,6.2,1.359,1.4,4.959,1.52,5.4,1.52.52,0,2.879-.36,3.36-.36.839,0,2.559.72,2.559,1.76,0,1.56-3.279,1.56-4.519,1.56a20.948,20.948,0,0,1-7.639-1.241c-2.239-.92-2.68-2.559-2.68-5.239,0-.16.08-3.639.08-4.319s-.2-1-.839-1a52.81,52.81,0,0,0-7.559,1.679,13.825,13.825,0,0,1-2.04.72c-1,0-3.959-2.2-3.959-3.12a.226.226,0,0,1,.24-.24c.2,0,1.52.16,1.8.16,1.8,0,9.558-1.079,11.558-1.48.759-.16,1-.439,1-1.4,0-2.32-.04-4.56-1.52-4.56-.44,0-3.479.521-3.6.521-.879,0-2.879-1.68-2.879-2.4a.18.18,0,0,1,.12-.161A8.656,8.656,0,0,1-4945.287-484.361Z" transform="translate(5052.784 502.723)" fill="#4d4d4d"/>
  <path id="パス_2104" data-name="パス 2104" d="M-4903.188-488.4c.96,0,3.159,1.4,3.159,2.081,0,.2-.08,1.119-.08,1.319,0,4.64.08,8.239.12,9.2.041.481.241,2.481.241,2.88,0,1.04-.92,2.04-1.521,2.04-.88,0-1.8-2.12-1.8-3.16,0-.319.2-1.68.2-2,.08-1.8.08-3.36.08-4.079,0-4.48-.2-5.4-1.44-6.84-.32-.359-.52-.6-.52-.92C-4904.748-488.16-4904.108-488.4-4903.188-488.4Zm11-1.119c-.48-.64-.52-.72-.52-.8,0-.12,0-.24,1.16-.24,2.4,0,4.4,1,4.4,2.039a15.675,15.675,0,0,1-.4,1.6c-.159,1.079-.2,7.078-.319,8.478a25.3,25.3,0,0,1-10,18.557c-1.16.92-3.16,2.359-3.6,2.359-.16,0-.24-.08-.24-.2,0-.159,2.6-2.719,3.079-3.239,7.719-8.238,8-15.2,8-23.2C-4890.63-487.28-4891.35-488.32-4892.19-489.52Z" transform="translate(5052.784 502.723)" fill="#4d4d4d"/>
  <path id="パス_2105" data-name="パス 2105" d="M-4844.282-478.2a35.193,35.193,0,0,0,9.677,3.159c.16,0,.84.121.84.28,0,.12-.559.28-.72.32a6.932,6.932,0,0,0-3.039,2.16c-.12.16-.56,1-.759,1-.241,0-8.919-4.2-12.838-10.6-.761-1.28-.88-1.4-1.161-1.4s-.36.08-1.24,1a47.5,47.5,0,0,1-11.838,9.318c-1.359.72-5.518,2.56-6.278,2.56-.12,0-.2-.081-.2-.121s4.279-2.679,4.639-2.919c5.4-3.4,11.118-9.518,11.678-12.518.04-.319.08-.44.36-.44.2,0,3.439,1.241,3.639,1.36.12.04.52.2.52.6a2.461,2.461,0,0,1-.159.561C-4851.081-483.281-4847.642-479.922-4844.282-478.2Zm-19.278-9.958c-2.959,0-4.319.08-5.079.12-.12,0-.72.08-.84.08s-.2-.08-.359-.24l-.761-.92c-.159-.2-.159-.2-.159-.281s.04-.08.119-.08c.28,0,1.521.12,1.76.12,1.96.081,3.639.161,5.519.161h1.161c.839,0,1.079-.4,1.079-1.079a6.509,6.509,0,0,0-.32-2.121,6.058,6.058,0,0,1-.24-.8c0-.2.2-.281.44-.281.28,0,2.08.441,2.519.56,1.2.32,1.44.4,1.44.76,0,.24-.04.32-.6,1.041a.973.973,0,0,0-.28.718c0,.961.319,1.2,1.4,1.2h6.6c.36,0,1.2,0,1.2-1.079a16.613,16.613,0,0,0-.12-1.8c-.04-.2-.241-1.039-.241-1.2,0-.2.241-.281.441-.281.28,0,3,.64,3.439.76s.68.28.68.64c0,.24-.16.4-.6.72a1.284,1.284,0,0,0-.52,1.12c0,1.12.641,1.12,1.28,1.12h2.04c1.76,0,1.959,0,2.56-.68,1.119-1.319,1.239-1.48,1.6-1.48.24,0,3.719,2.12,3.719,2.639,0,.561-.8.561-2.119.561h-7.8c-1.24,0-1.24.639-1.24,1.6,0,.241.04,1.6.04,1.8,0,1.48-1.2,1.72-2.039,1.72-.92,0-1.08-.16-1.08-1.52v-2.759c-.12-.76-.6-.84-1.24-.84h-6.4c-.92,0-1.479,0-1.479,1.119,0,.4.12,2.16.12,2.52,0,.76-.12,1.119-.481,1.36a2.836,2.836,0,0,1-1.519.559c-.68,0-1-.439-1-1.239,0-.32.04-1.84.04-2.12,0-1.56,0-2.2-1.24-2.2Zm2.84,20.436a20.436,20.436,0,0,1,3.079,1.88.989.989,0,0,1,.32.6c0,.48-.32.56-1.28.8-.12.041-3.558,2.72-4.2,3.2-3.6,2.559-5.879,3.479-6.079,3.479a.127.127,0,0,1-.119-.119c0-.08,2.119-1.92,2.4-2.2,3.319-3.159,5.359-6.319,5.719-7.6A.24.24,0,0,1-4860.72-467.724Zm1.84-2.12c-3.12,0-4.279.041-5.079.12-.12,0-.721.08-.84.08s-.2-.08-.36-.239l-.76-.92c-.16-.2-.16-.2-.16-.28,0-.04.04-.08.12-.08.28,0,1.519.12,1.76.12,1.959.12,3.639.16,5.518.16h3c.4,0,1.2,0,1.2-1.08,0-.481-.24-3.72-.32-4.119,0-.08-.24-.481-.24-.561s.08-.239.4-.239c.279,0,3.079.6,3.48.72.559.12.759.479.759.679,0,.241-.08.321-.679.84-.561.481-.561.72-.561,1.92,0,1.44,0,1.84,1.2,1.84h1.76c1.76,0,1.959,0,2.56-.68,1.119-1.32,1.239-1.48,1.6-1.48.241,0,3.72,2.16,3.72,2.64,0,.559-.8.559-2.12.559h-7.559c-1.2,0-1.2.721-1.2,2,0,2.84,0,4.44.08,6.8.04.68.04,1.64.04,2.12,0,1.279-.32,2.039-2.04,2.039-.879,0-.959-.72-.959-1.4,0-.52.119-2.92.119-3.44.04-1.519.04-3,.04-4.84a24.479,24.479,0,0,0-.079-2.718c-.2-.561-.84-.561-1.16-.561Zm10.678,3.359c0-.119.2-.159.36-.159,1.479,0,10.6,2.52,10.6,5.839,0,1.279-.72,2.279-1.72,2.279-.76,0-.92-.2-2.159-2.039a19.017,19.017,0,0,0-6.879-5.759C-4848.042-466.324-4848.2-466.444-4848.2-466.485Z" transform="translate(5052.784 502.723)" fill="#4d4d4d"/>
  <path id="パス_2106" data-name="パス 2106" d="M-4805.8-486.721c0,.12.079.28.079.441a30.682,30.682,0,0,1,.4,4.319c0,2.68-.6,6.4-4.119,11.718-3.2,4.879-5.239,5.839-6.839,5.839-2.639,0-5-4.12-5-9a14.09,14.09,0,0,1,4.439-10.2,16.549,16.549,0,0,1,12.759-5.2,13.04,13.04,0,0,1,6.438,1.279,12.537,12.537,0,0,1,6.959,11.638,14.916,14.916,0,0,1-10.078,14.078,24.623,24.623,0,0,1-6.64,1.48c-.159,0-.4-.04-.4-.281,0-.119.08-.159,1.08-.559,4.159-1.64,12.838-5.079,12.838-15.037,0-1.56-.16-11.078-11.078-11.078C-4805.757-487.28-4805.8-486.961-4805.8-486.721Zm-13,12.278c0,2.6,1.04,6.16,3.479,6.16,1.159,0,2.119-.481,4.879-4.64,2.119-3.239,3.919-7.679,3.919-11.638,0-2.4-.159-2.6-.68-2.6C-4811-487.16-4818.794-482-4818.794-474.443Z" transform="translate(5052.784 502.723)" fill="#4d4d4d"/>
  <path id="パス_2111" data-name="パス 2111" d="M-4595.051-470.323c-1.04,0-1.04.6-1.04,1.08,0,.96.04,5.079.04,5.919,0,.24,0,.8.64.8.32,0,3.6-1.36,3.959-1.519a.872.872,0,0,0,.56-.72,7.935,7.935,0,0,0-1.28-2.48,8.267,8.267,0,0,1-.8-1.079c0-.04.08-.04.12-.04.76,0,5.879,2.4,5.879,5.678,0,1.12-.559,1.92-1.319,1.92-.72,0-.88-.4-1.52-1.88-.24-.6-.36-.92-.8-.92-.519,0-7.678,4.68-7.958,5.32-.4.8-.44.92-.839.92-.68,0-1.68-3.2-1.68-3.48s.16-.36.439-.36c2.08,0,2.08-.239,2.08-1.96v-12c0-2.759,0-6.838-.639-6.838-.16,0-2.8,2.119-3.04,2.119-.08,0-.12,0-.12-.08,0-.04,1.08-1.4,1.28-1.68a61.36,61.36,0,0,0,6.879-11.118c.2-.76.2-.84.519-.84.241,0,3.119,1.4,3.119,2.24a.6.6,0,0,1-.359.52c-.24.12-.4.2-.4.4s0,.2,1.2.681c.76.28,4.679,1.88,4.679,4.759a1.314,1.314,0,0,1-1.32,1.48c-.4,0-.92-.121-1.679-1.72-.72-1.52-3.16-4.439-3.68-4.439-.319,0-.52.279-.72.56a53.5,53.5,0,0,1-5.279,6.119c-.12.08-.2.16-.2.279s.079.16,1,.641c1.2.6,1.32.68,1.88.68,1.16,0,1.2-.361,1.2-1.2a8.674,8.674,0,0,0-.2-2.4c-.04-.2-.321-.96-.321-1.119,0-.08.08-.2.4-.2s3.4.439,3.4,1.4c0,.12-.44.6-.519.72-.161.32-.161.48-.161,1.639,0,.561,0,1.161.84,1.161.88,0,1,0,1.32-.321.719-.84.96-1.08,1.28-1.08.279,0,2.159,1.16,2.159,1.881,0,.239-.68,1.119-.76,1.319a10.108,10.108,0,0,0-.12,1.96c0,1.079.12,6,.12,6.959,0,.76,0,2.159-1.679,2.159-.88,0-.96-.479-1.04-1.16-.121-.679-.8-.679-1.081-.679Zm4.6-6.24c1.04,0,1.04-.559,1.04-1.439,0-1.92,0-2.319-1.04-2.319h-4.6c-1.04,0-1.04.6-1.04,1.439,0,1.96,0,2.319,1.04,2.319Zm-.08,5.16c1.04,0,1.12,0,1.12-3.16,0-.92-.6-.92-1.04-.92h-4.6c-1.04,0-1.04.36-1.04,1.56,0,2.28,0,2.52,1.04,2.52Zm19-12.158a1.12,1.12,0,0,0,1.2-.64c.559-.92.6-1.039.88-1.039.319,0,3.919,1.919,3.919,2.838,0,.8-.44.84-2.64,1.121a4.678,4.678,0,0,0-2.64,1.279c-.08.04-.479.32-.519.32s-.08,0-.08-.04c0-.2.559-1.84.559-2.2,0-.6-.4-.6-.759-.6h-3.44c-.56,0-1.079.04-1.079,1,0,12.119,9,20.037,9.437,20.4.281.24,1.76,1.28,1.76,1.48,0,.119-.679.24-.72.24a7.094,7.094,0,0,0-2.4.8,3.912,3.912,0,0,1-.88.521c-.8,0-5.439-5.52-7.438-17.277-.04-.121-.12-.64-.241-.64-.16,0-.2.359-.24.76-.6,4.839-2.359,13.037-10.158,16.556a7.518,7.518,0,0,1-2.839.76c-.16,0-.2,0-.2-.119a4.192,4.192,0,0,1,.88-.561c2.119-1.08,6.318-3.239,8.438-10.478a45.092,45.092,0,0,0,1.68-12.117c0-.721,0-1.321-.92-1.321s-1,.12-1.76,1.241a32.692,32.692,0,0,1-3.279,4.2.106.106,0,0,1-.12-.12c0-.241,1.24-2.919,1.479-3.48.88-2.239,3.36-9.038,3.36-11.278,0-1.159,0-1.36.52-1.36.56,0,3.879,1.6,3.879,2.24,0,.32-.12.4-.84.84-.479.32-3.2,6.239-3.2,6.239,0,.44.44.44.68.44Z" transform="translate(5052.784 502.723)" fill="#4d4d4d"/>
  <path id="パス_2112" data-name="パス 2112" d="M-4540.053-487.361c-.52,0-2.2,1.44-2.84,2-.519.48-2.04,1.839-3.079,1.839-1.48,0-2.6-2.839-2.6-2.959,0-.24.081-.4.32-.4s1.16.16,1.36.16c1.279,0,1.76-.08,4.159-1.6a6.86,6.86,0,0,1,3.839-1.32c2.64,0,3.239,1.8,3.239,2.4,0,.839-.359,1.319-2.439,3.239a36.385,36.385,0,0,0-5.879,8.118c0,.2.28.24.4.24.52,0,2.76-.04,3.24,0a32.342,32.342,0,0,1,7.558,1.6,1.6,1.6,0,0,0,.64.16c.52,0,.76-3.279.76-3.68,0-.319-.24-2.079-.24-2.239,0-.239.28-.239.44-.239.12,0,3.6.639,3.6,2.2a8.694,8.694,0,0,1-.88,1.56c0,.08-.56,3.279-.56,3.4,0,.52.239.64.92,1,1.56.84,5.2,2.72,5.2,4.8a1.548,1.548,0,0,1-1.48,1.519c-.8,0-1.239-.319-4.039-2.718-.08-.04-1.241-1.04-1.64-1.04-.32,0-.44.28-.56.479a17.259,17.259,0,0,1-7.838,7.4,14.754,14.754,0,0,1-4.32,1.6c-.04,0-.32,0-.32-.12a6.351,6.351,0,0,1,.76-.561c3.96-2.718,5.919-4.318,8.239-7.918a7.345,7.345,0,0,0,1.2-2.279c0-.36,0-.56-2.2-1.64a17.316,17.316,0,0,0-7.359-1.8c-2.48,0-2.56.159-3.24,1.6-3.439,7.319-4.119,8.8-6.638,8.8-2.04,0-2.64-2.2-2.64-3.2,0-3.4,3.56-6.439,7.759-7.919a1.444,1.444,0,0,0,1-.8c.92-1.479,5.919-9.038,6.119-9.4a5.667,5.667,0,0,0,.52-1.8A.517.517,0,0,0-4540.053-487.361Zm-13.4,19.277c0,.68.32,1.16,1.04,1.16,2.2,0,4.8-5.879,4.8-6.039,0-.12-.04-.2-.16-.2C-4549.212-473.163-4553.451-470.444-4553.451-468.084Z" transform="translate(5052.784 502.723)" fill="#4d4d4d"/>
  <path id="パス_2113" data-name="パス 2113" d="M-4508.231-484.041c-.92,0-3.679,0-5.08.08a6.044,6.044,0,0,1-.84.12c-.119,0-.2-.12-.359-.28l-.76-.92c-.16-.16-.16-.2-.16-.24a.106.106,0,0,1,.12-.12c.279,0,1.52.12,1.8.161,1.8.08,3.6.119,5.478.119h7.839c1.161,0,1.161-.52,1.161-2.8a25.186,25.186,0,0,0-.2-3.68c-.04-.24-.28-1.2-.28-1.4,0-.239.28-.239.44-.239s4.24.839,4.24,1.759c0,.4-.08.44-.76,1.079-.521.441-.561,1.481-.561,2.121,0,3,.241,3.159,1.281,3.159h7.959c1.479,0,1.879,0,2.4-.6.239-.359,1.279-2.239,1.68-2.239.6,0,3.8,2.759,3.8,3.319,0,.6-.76.6-2.12.6h-17.957c-.44,0-.6,0-.6.16,0,.279.159.279,1.72.52.6.08,1.758.32,1.758.879,0,.321-1.119,1.321-1.239,1.6a11.074,11.074,0,0,0-.64,2.919c0,.8.84.8,1,.8h8.839a1.9,1.9,0,0,0,1.68-.6,4.751,4.751,0,0,1,.92-.8c.2,0,3.479,2,3.479,2.56,0,.319-1.04,1.239-1.16,1.479-.439.8-.96,4.8-1.119,5.6-1.24,5.72-2.479,7.839-3.72,9.279a7.91,7.91,0,0,1-4.6,2.639c-.48,0-.48-.279-.48-.64,0-1.719-2.08-3-3.319-3.639-.92-.48-1.04-.52-1.04-.64,0-.08.04-.319.4-.319a6.708,6.708,0,0,1,1.64.439,12.033,12.033,0,0,0,3.159.52c1.68,0,3.52-1,4.8-6.279a41,41,0,0,0,1.04-7.479c0-1.039-.68-1.039-1.279-1.039h-9.4c-1.12,0-1.2.2-1.679,2.279-3.121,13-13.319,15.478-13.838,15.478-.12,0-.361,0-.361-.12,0-.161.481-.44.96-.68a23.713,23.713,0,0,0,8.6-9.639,37.573,37.573,0,0,0,2.92-12.638c0-2.639-.681-2.639-1.481-2.639Z" transform="translate(5052.784 502.723)" fill="#4d4d4d"/>
  <g id="グループ_539" data-name="グループ 539" transform="translate(-795.415 -1633.393)">
    <path id="パス_2251" data-name="パス 2251" d="M1092.671,1654.331c0,1.3-3,2.49-3.952,2.885-.553.2-.593.356-.671,1.739-.08.87-.08,4.071-.08,4.269,0,.238,0,.713.355.713.119,0,3.36-1.345,3.993-1.582,3.913-1.462,5.691-1.581,6.719-1.581a6.052,6.052,0,0,1,6.088,5.969c0,5.217-5.495,7.59-8.736,7.59-2.253,0-4.071-1.146-4.071-3.2a3.521,3.521,0,0,1,1.976-3.122.213.213,0,0,1,.2.2c0,.119-.08.2-.158.316a1.636,1.636,0,0,0-.355,1.067c0,1.9,2.174,1.9,2.569,1.9,2.61,0,5.93-1.739,5.93-4.9a4.1,4.1,0,0,0-3.794-4.349c-1.108,0-3.558.515-8.184,2.965-2.212,1.186-2.449,1.3-2.449,1.976,0,.435.117,2.214.117,2.609,0,1.818-.593,4.428-2.016,4.428-1.067,0-1.5-.83-1.818-1.462-1.266-2.452-1.462-2.452-1.976-2.452a3.284,3.284,0,0,0-.988.237,7.784,7.784,0,0,1-1.5.791c-.434,0-2.449-1.186-2.449-2.49,0-.711.434-1.541,1.145-1.541.237,0,1.385.2,1.622.2,1.066,0,1.779-.2,4.109-1.344,2.017-.988,2.254-1.107,2.254-2.214,0-.91-.04-4.27-.079-4.942,0-.277-.119-.87-.553-.87a9.244,9.244,0,0,0-1.818.356c-2.017.672-2.213.751-2.807.751-1.343,0-2.844-2.727-2.844-3a.279.279,0,0,1,.315-.277c.119,0,.593.158.711.158a11.49,11.49,0,0,0,1.818.2,17.266,17.266,0,0,0,5.021-1.186,29.573,29.573,0,0,0,.4-4.308,3.882,3.882,0,0,0-1.3-3.163,3.957,3.957,0,0,1-.553-.632c0-.356.633-.435.87-.435,2.648,0,4.072,1.937,4.072,2.688a15.885,15.885,0,0,1-.831,2.056,21.094,21.094,0,0,0-.394,2.569c0,.158.078.435.315.435.277,0,1.385-.435,1.385-.988,0-.079-.2-.474-.2-.553,0-.04.078-.119.157-.158C1090.775,1652.552,1092.671,1653.106,1092.671,1654.331Zm-9.012,15.139c0,.593,1.067,1.858,1.66,1.858.553,0,1.107-1.107,1.107-3.043,0-.158,0-.553-.119-.632C1086.189,1667.651,1083.66,1668.916,1083.66,1669.47Zm25.97-12.293c0,.83-.474,1.9-1.3,1.9-.237,0-1.146-.079-1.344-.079-.2.04-1.028.277-1.187.277a.184.184,0,0,1-.2-.2,2.719,2.719,0,0,1,.119-.316,2.107,2.107,0,0,0,.158-.711c0-1.581-1.976-2.134-3.321-2.134a3.435,3.435,0,0,0-1.542.4.883.883,0,0,1-.4.119c-.119,0-.158-.039-.158-.158a5.057,5.057,0,0,1,4.27-2.49C1107.772,1653.777,1109.629,1655.358,1109.629,1657.177Z" transform="translate(0 0.154)" fill="#4d4d4d"/>
    <path id="パス_2252" data-name="パス 2252" d="M1122.734,1653.718a5.418,5.418,0,0,1-.474,1.581,13.959,13.959,0,0,0-.949,5.1c0,3.993,2.055,6.878,3.28,6.878.673,0,.83-.2,2.016-2.174.237-.4.91-1.344,1.225-1.344.12,0,.2.158.2.316a4.624,4.624,0,0,1-.12.79,11.137,11.137,0,0,0-.514,3,5.373,5.373,0,0,0,.237,1.581,9.787,9.787,0,0,1,.317,1.3c0,.791-.831,1.225-1.5,1.225-2.53,0-7.509-4.15-7.509-11.7,0-1.107.552-5.968.552-7a10.924,10.924,0,0,0-.277-2.294,5.368,5.368,0,0,1-.315-1.344c0-.119.158-.158.237-.158C1120.955,1649.488,1122.734,1652.651,1122.734,1653.718Zm19.289.909a9.834,9.834,0,0,1,3.519,7.55c0,.751-.079,2.609-1.976,2.609-1.937,0-1.937-2.135-1.937-2.648,0-3.281,0-4.942-2.1-7.036-.316-.316-1.9-1.541-1.9-1.778,0-.119.157-.2.355-.2A7.689,7.689,0,0,1,1142.023,1654.627Z" transform="translate(5.362 0.529)" fill="#4d4d4d"/>
    <path id="パス_2253" data-name="パス 2253" d="M1163.484,1649.5a18.2,18.2,0,0,1-.751,2.214,95.034,95.034,0,0,0-1.66,14.072c0,3.992.751,7.55,6.047,7.55a19.475,19.475,0,0,0,8.3-2.056c.593-.277,3.6-1.937,3.755-1.937a.185.185,0,0,1,.2.2c0,.435-5.851,6.8-13.282,6.8-5.139,0-7.59-2.965-7.59-10.91,0-2.45.08-3.242.909-10.989.159-1.3.514-4.546.514-5.653a4.974,4.974,0,0,0-.355-1.937c-.04-.119-.435-1.028-.435-1.067,0-.277.315-.4.552-.4C1161.745,1645.393,1163.484,1648.594,1163.484,1649.5Z" transform="translate(10.481)" fill="#4d4d4d"/>
    <path id="パス_2254" data-name="パス 2254" d="M1194.373,1653.718a5.4,5.4,0,0,1-.475,1.581,13.984,13.984,0,0,0-.949,5.1c0,3.993,2.057,6.878,3.282,6.878.672,0,.83-.2,2.016-2.174.237-.4.909-1.344,1.225-1.344.119,0,.2.158.2.316a4.747,4.747,0,0,1-.12.79,11.093,11.093,0,0,0-.514,3,5.332,5.332,0,0,0,.237,1.581,9.921,9.921,0,0,1,.316,1.3c0,.791-.83,1.225-1.5,1.225-2.53,0-7.51-4.15-7.51-11.7,0-1.107.552-5.968.552-7a11.005,11.005,0,0,0-.277-2.294,5.365,5.365,0,0,1-.315-1.344c0-.119.157-.158.237-.158C1192.594,1649.488,1194.373,1652.651,1194.373,1653.718Zm19.289.909a9.837,9.837,0,0,1,3.518,7.55c0,.751-.078,2.609-1.976,2.609-1.935,0-1.935-2.135-1.935-2.648,0-3.281,0-4.942-2.1-7.036-.316-.316-1.9-1.541-1.9-1.778,0-.119.158-.2.356-.2A7.692,7.692,0,0,1,1213.662,1654.627Z" transform="translate(14.622 0.529)" fill="#4d4d4d"/>
  </g>
</svg>
