<svg id="lineup_smart_howto" xmlns="http://www.w3.org/2000/svg" width="480.077" height="32.099" viewBox="0 0 480.077 32.099">
  <g id="グループ_126" data-name="グループ 126" transform="translate(-724.266 -1753.746)">
    <path id="パス_657" data-name="パス 657" d="M728.081,1759.767a1.368,1.368,0,0,1,.6.91c0,.315-.561,1.68-.6,1.995-.14,1.226-.21,4.341-.21,5.811a.586.586,0,0,0,.665.63c.7,0,8.331-3.71,8.331-5.6,0-.211-.245-1.191-.245-1.3,0-.14.245-.14.49-.14a3.606,3.606,0,0,1,3.606,2.941c0,.805-.526.91-1.54,1.12-.806.175-3.956,1.75-4.621,2.03-.98.42-6.16,2.275-6.335,2.38-.42.28-.42.455-.42,1.785,0,4.586.665,5.531,5.25,5.531a22.281,22.281,0,0,0,5.11-.63,20.55,20.55,0,0,1,2.416-.42,1.355,1.355,0,0,1,1.4,1.225c0,2.625-6.721,2.625-8.891,2.625-7.246,0-7.421-3.115-7.421-8.086,0-1.26.106-6.755.106-7.91a9.943,9.943,0,0,0-.911-4.9,7.154,7.154,0,0,1-.6-1.155c0-.21.49-.315.8-.315C726.086,1758.3,726.576,1758.542,728.081,1759.767Z" fill="#4d4d4d"/>
    <path id="パス_658" data-name="パス 658" d="M772.313,1782.274c0,.666-.246,1.331-.771,1.331-1.54,0-2.1-3.046-2.38-4.516-.175-.875-.945-4.691-1.085-5.495-.14-.631-.315-1.086-.945-1.086-.14,0-4.306.981-6.021,1.541a18.59,18.59,0,0,1-2.135.91c-.525,0-4.026-1.54-4.026-2.591,0-.28.245-.35.42-.35.316,0,1.785.14,2.1.14a39.851,39.851,0,0,0,8.506-1.19c.91-.175,1.155-.315,1.155-.91a21,21,0,0,0-.771-3.5c-.21-.875-.384-1.225-.91-1.225a42.489,42.489,0,0,0-4.83,1.33c-.84,0-3.185-1.26-3.185-1.89,0-.245.384-.245.7-.245a32.39,32.39,0,0,0,5.39-.6c1.226-.28,1.786-.49,1.786-1.155,0-.14-.455-3.465-2-4.795a14.45,14.45,0,0,1-1.61-1.26c0-.21,1.05-.6,1.82-.6.7,0,3.151.77,3.255,1.47.071.49.141,2.52.211,2.94.315,2.275.7,2.275,1.19,2.275a21.328,21.328,0,0,0,3.046-.945c1.5-.665,1.679-.735,2.17-.735,1.12,0,2.1.735,2.1,1.3,0,.7-.7.84-3.256,1.33a28.755,28.755,0,0,0-3.535.771.775.775,0,0,0-.665.875,22.782,22.782,0,0,0,.63,3.15c.315,1.19.455,1.505,1.085,1.505a23.512,23.512,0,0,0,4.48-1.33,7.159,7.159,0,0,1,3.466-.875c1.855,0,2.625.945,2.625,1.54,0,1.05-1.435,1.085-2.7,1.085a37.014,37.014,0,0,0-6.3,1.015c-1.47.315-1.54.525-1.54,1.19C769.792,1773.594,772.313,1780.734,772.313,1782.274Z" fill="#4d4d4d"/>
    <path id="パス_659" data-name="パス 659" d="M799.719,1768.9c0,.7-.525,1.75-1.365,1.75-.525,0-.7-.21-1.225-1.085a8.494,8.494,0,0,0-3.186-2.905c-.1-.07-.315-.21-.315-.35,0-.49,1.995-.525,2.45-.525C797.584,1765.788,799.719,1767.188,799.719,1768.9Zm-4.306,10.851c-.1-.175-.734-.91-.84-1.085a1.5,1.5,0,0,1-.21-.665c0-.14.106-.245.316-.245.314,0,1.644.455,1.925.455,1.5,0,10.92-5.251,19.287-14.737a16.553,16.553,0,0,1,1.505-1.575.128.128,0,0,1,.14.14c0,.385-3.081,7.876-17.572,18.027-.42.28-2.1,1.855-2.555,1.855C796.639,1781.924,796.288,1781.364,795.413,1779.754Zm8.506-17.817c0,.8-.56,1.576-1.12,1.576-.385,0-.56-.141-1.819-1.646a6.1,6.1,0,0,0-3.011-1.855c-.14-.035-.526-.14-.526-.245a4.172,4.172,0,0,1,2.7-.665C803.919,1759.1,803.919,1761.832,803.919,1761.937Z" fill="#4d4d4d"/>
    <path id="パス_660" data-name="パス 660" d="M837.2,1766.033a18.965,18.965,0,0,0,2.205.945c.735,0,1.75-2.45,2.17-3.465a17.269,17.269,0,0,0,1.295-4.2,1.548,1.548,0,0,0-.245-.805c-.1-.21-.21-.315-.21-.42a.286.286,0,0,1,.28-.315,5.452,5.452,0,0,1,2.346,1.12,4.6,4.6,0,0,1,1.505,2.52c0,.28-.106.315-.875.7-.386.21-.49.385-1.4,2.1-.595,1.156-1.26,2.346-2,3.5a1.613,1.613,0,0,0-.35.875,1.39,1.39,0,0,0,.6.945c3.009,2.66,3.429,4.551,3.429,5.426a1.1,1.1,0,0,1-1.12,1.155c-1.26,0-1.785-.91-3.01-3.08-.35-.631-1.015-1.821-1.505-1.821a1.008,1.008,0,0,0-.735.49c-6.406,8.016-13.406,10.991-13.722,10.991-.1,0-.245-.035-.245-.175s.665-.665,1.085-1.015c5.951-4.655,8.3-7.386,9.277-8.575.839-1.051,2.52-3.221,2.52-3.746,0-.735-3.221-2.66-4.551-3.4-.665-.35-.735-.385-.735-.56,0-.14.07-.28.315-.28A14.058,14.058,0,0,1,837.2,1766.033Z" fill="#4d4d4d"/>
    <path id="パス_661" data-name="パス 661" d="M884.127,1767.188a30.844,30.844,0,0,0,8.471,2.765c.139,0,.735.1.735.245,0,.1-.49.245-.631.28a6.066,6.066,0,0,0-2.66,1.89c-.1.14-.49.875-.665.875-.21,0-7.806-3.675-11.236-9.275-.665-1.121-.77-1.226-1.015-1.226s-.315.07-1.085.875a41.6,41.6,0,0,1-10.361,8.156,30.323,30.323,0,0,1-5.5,2.24c-.105,0-.175-.07-.175-.1s3.746-2.346,4.06-2.556c4.726-2.975,9.732-8.33,10.221-10.956.035-.28.07-.385.316-.385.174,0,3.01,1.085,3.185,1.19.1.035.455.175.455.525a2.188,2.188,0,0,1-.14.49C878.176,1762.742,881.187,1765.683,884.127,1767.188Zm-16.872-8.716c-2.591,0-3.78.07-4.445.1-.106,0-.63.07-.736.07s-.175-.07-.315-.21l-.665-.805c-.14-.175-.14-.175-.14-.245s.035-.07.106-.07c.244,0,1.33.1,1.54.1,1.715.07,3.184.14,4.83.14h1.015c.735,0,.945-.35.945-.945a5.679,5.679,0,0,0-.28-1.855,5.41,5.41,0,0,1-.21-.7c0-.175.175-.246.385-.246.245,0,1.821.385,2.205.49,1.05.28,1.26.351,1.26.665,0,.211-.034.281-.524.911a.855.855,0,0,0-.245.63c0,.84.28,1.05,1.224,1.05h5.777c.314,0,1.049,0,1.049-.945a14.557,14.557,0,0,0-.1-1.575c-.034-.175-.21-.911-.21-1.05,0-.176.21-.246.386-.246.244,0,2.625.56,3.009.665s.595.246.595.56c0,.211-.14.351-.524.631a1.122,1.122,0,0,0-.455.98c0,.98.559.98,1.12.98h1.785c1.54,0,1.715,0,2.24-.595.981-1.155,1.085-1.3,1.4-1.3.209,0,3.254,1.855,3.254,2.31,0,.49-.7.49-1.855.49h-6.825c-1.085,0-1.085.56-1.085,1.4,0,.21.035,1.4.035,1.575,0,1.295-1.051,1.505-1.786,1.505-.8,0-.945-.14-.945-1.33v-2.415c-.1-.665-.525-.735-1.084-.735h-5.6c-.806,0-1.3,0-1.3.98,0,.35.1,1.89.1,2.2,0,.665-.1.98-.419,1.19a2.492,2.492,0,0,1-1.331.49c-.6,0-.875-.385-.875-1.085,0-.28.035-1.61.035-1.855,0-1.365,0-1.925-1.085-1.925Zm2.485,17.887a17.919,17.919,0,0,1,2.7,1.645.873.873,0,0,1,.28.525c0,.42-.28.49-1.12.7-.106.035-3.116,2.38-3.676,2.8a21.511,21.511,0,0,1-5.32,3.046.112.112,0,0,1-.106-.1c0-.07,1.856-1.68,2.1-1.926,2.905-2.765,4.69-5.53,5.005-6.65A.21.21,0,0,1,869.74,1776.359Zm1.611-1.856c-2.731,0-3.746.036-4.447.106-.1,0-.63.07-.734.07s-.175-.07-.315-.21l-.665-.805c-.14-.175-.14-.175-.14-.245,0-.036.035-.071.1-.071.245,0,1.33.1,1.54.1,1.716.1,3.186.141,4.831.141h2.625c.351,0,1.05,0,1.05-.946,0-.42-.21-3.255-.279-3.6,0-.07-.21-.42-.21-.49s.069-.21.35-.21c.245,0,2.7.525,3.045.63.49.1.665.42.665.595,0,.21-.07.28-.595.735-.49.42-.49.63-.49,1.68,0,1.26,0,1.611,1.05,1.611h1.54c1.54,0,1.715,0,2.241-.6.979-1.155,1.085-1.3,1.4-1.3.21,0,3.255,1.891,3.255,2.31,0,.49-.7.49-1.856.49H878.7c-1.05,0-1.05.631-1.05,1.751,0,2.485,0,3.885.07,5.95.035.595.035,1.435.035,1.856,0,1.12-.28,1.785-1.785,1.785-.771,0-.84-.63-.84-1.225,0-.455.1-2.555.1-3.011.036-1.33.036-2.625.036-4.235a20.913,20.913,0,0,0-.071-2.38c-.175-.491-.734-.491-1.014-.491Zm9.345,2.941c0-.1.175-.14.315-.14,1.3,0,9.276,2.205,9.276,5.11,0,1.12-.63,2-1.505,2-.665,0-.8-.175-1.89-1.785a16.625,16.625,0,0,0-6.021-5.041C880.836,1777.584,880.7,1777.479,880.7,1777.444Z" fill="#4d4d4d"/>
    <path id="パス_662" data-name="パス 662" d="M917.859,1759.732c0,.1.07.245.07.385a26.84,26.84,0,0,1,.35,3.781c0,2.345-.525,5.6-3.6,10.256-2.8,4.27-4.586,5.11-5.985,5.11-2.311,0-4.376-3.6-4.376-7.876a12.328,12.328,0,0,1,3.885-8.926,14.484,14.484,0,0,1,11.166-4.55,11.4,11.4,0,0,1,5.636,1.12,10.973,10.973,0,0,1,6.091,10.186,13.054,13.054,0,0,1-8.821,12.321,21.542,21.542,0,0,1-5.811,1.3c-.14,0-.35-.036-.35-.246,0-.1.07-.139.945-.49,3.64-1.435,11.236-4.445,11.236-13.161,0-1.365-.14-9.7-9.7-9.7C917.9,1759.242,917.859,1759.522,917.859,1759.732Zm-11.376,10.746c0,2.275.91,5.391,3.045,5.391,1.015,0,1.856-.42,4.271-4.061a20.021,20.021,0,0,0,3.431-10.186c0-2.1-.141-2.275-.6-2.275C913.309,1759.347,906.483,1763.862,906.483,1770.478Z" fill="#4d4d4d"/>
    <path id="パス_667" data-name="パス 667" d="M1102.651,1774.084c-.91,0-.91.525-.91.945,0,.84.035,4.445.035,5.18,0,.21,0,.7.56.7.28,0,3.15-1.19,3.466-1.33a.763.763,0,0,0,.489-.63,6.937,6.937,0,0,0-1.12-2.17,7.233,7.233,0,0,1-.7-.945c0-.035.069-.035.1-.035.665,0,5.146,2.1,5.146,4.97,0,.98-.49,1.681-1.156,1.681-.629,0-.769-.351-1.33-1.646-.21-.525-.314-.8-.7-.8-.455,0-6.721,4.1-6.966,4.656-.349.7-.384.8-.734.8-.6,0-1.471-2.8-1.471-3.046s.141-.315.386-.315c1.819,0,1.819-.21,1.819-1.715v-10.5c0-2.415,0-5.985-.559-5.985-.141,0-2.45,1.855-2.66,1.855-.071,0-.106,0-.106-.07,0-.035.945-1.225,1.12-1.471a53.656,53.656,0,0,0,6.021-9.731c.176-.665.176-.735.455-.735.21,0,2.73,1.225,2.73,1.961a.531.531,0,0,1-.314.455c-.211.1-.351.175-.351.35s0,.175,1.05.6c.665.245,4.1,1.645,4.1,4.165a1.151,1.151,0,0,1-1.155,1.3c-.35,0-.8-.1-1.47-1.505-.63-1.33-2.766-3.885-3.221-3.885-.28,0-.455.245-.63.49a46.931,46.931,0,0,1-4.62,5.356c-.105.069-.176.139-.176.244s.071.141.876.56c1.05.526,1.155.595,1.645.595,1.015,0,1.05-.315,1.05-1.05a7.6,7.6,0,0,0-.175-2.1c-.035-.175-.279-.84-.279-.98,0-.07.069-.175.349-.175s2.976.385,2.976,1.225c0,.1-.386.525-.455.63-.141.28-.141.42-.141,1.436,0,.49,0,1.014.735,1.014.771,0,.875,0,1.156-.279.63-.735.84-.946,1.12-.946.245,0,1.889,1.015,1.889,1.646,0,.21-.594.98-.665,1.155a8.935,8.935,0,0,0-.1,1.715c0,.945.1,5.25.1,6.091,0,.665,0,1.89-1.469,1.89-.771,0-.84-.42-.91-1.015-.105-.595-.7-.595-.946-.595Zm4.026-5.461c.91,0,.91-.49.91-1.26,0-1.68,0-2.03-.91-2.03h-4.026c-.91,0-.91.525-.91,1.26,0,1.715,0,2.03.91,2.03Zm-.07,4.515c.91,0,.98,0,.98-2.765,0-.805-.525-.805-.91-.805h-4.026c-.91,0-.91.315-.91,1.365,0,2,0,2.2.91,2.2Zm16.626-10.641a.978.978,0,0,0,1.05-.56c.49-.805.526-.91.771-.91.279,0,3.429,1.68,3.429,2.486,0,.7-.384.735-2.309.979a4.1,4.1,0,0,0-2.311,1.121c-.07.035-.42.28-.455.28s-.07,0-.07-.035c0-.175.49-1.61.49-1.926,0-.524-.349-.524-.665-.524h-3.01c-.49,0-.945.034-.945.875,0,10.606,7.876,17.536,8.261,17.851.245.21,1.54,1.12,1.54,1.295,0,.105-.6.21-.63.21a6.214,6.214,0,0,0-2.1.7,3.423,3.423,0,0,1-.769.455c-.7,0-4.761-4.831-6.511-15.122-.035-.1-.105-.56-.21-.56-.14,0-.176.315-.21.665-.525,4.235-2.065,11.411-8.891,14.492a6.592,6.592,0,0,1-2.486.665c-.139,0-.175,0-.175-.105a3.663,3.663,0,0,1,.771-.49c1.854-.945,5.53-2.836,7.386-9.171a39.5,39.5,0,0,0,1.469-10.606c0-.631,0-1.155-.8-1.155s-.875.1-1.54,1.084a28.5,28.5,0,0,1-2.871,3.676.093.093,0,0,1-.1-.1c0-.21,1.085-2.555,1.295-3.045.771-1.961,2.94-7.911,2.94-9.872,0-1.015,0-1.19.456-1.19.49,0,3.4,1.4,3.4,1.961,0,.28-.1.35-.735.735-.42.28-2.8,5.46-2.8,5.46,0,.385.385.385.595.385Z" fill="#4d4d4d"/>
    <path id="パス_668" data-name="パス 668" d="M1150.854,1759.172c-.455,0-1.925,1.26-2.485,1.75-.455.42-1.785,1.61-2.7,1.61-1.3,0-2.276-2.485-2.276-2.59,0-.21.07-.35.281-.35s1.014.14,1.189.14c1.12,0,1.54-.07,3.641-1.4a6.012,6.012,0,0,1,3.36-1.155c2.311,0,2.835,1.575,2.835,2.1,0,.735-.314,1.155-2.135,2.835a31.813,31.813,0,0,0-5.145,7.106c0,.175.245.21.349.21.456,0,2.416-.035,2.836,0a28.334,28.334,0,0,1,6.616,1.4,1.392,1.392,0,0,0,.56.14c.454,0,.665-2.87.665-3.22,0-.28-.211-1.82-.211-1.96,0-.21.245-.21.386-.21.1,0,3.15.56,3.15,1.925a7.559,7.559,0,0,1-.77,1.365c0,.07-.49,2.87-.49,2.975,0,.455.21.56.8.875,1.366.735,4.55,2.381,4.55,4.2a1.355,1.355,0,0,1-1.3,1.33c-.7,0-1.085-.28-3.535-2.38-.07-.035-1.085-.91-1.435-.91-.28,0-.385.245-.49.42a15.1,15.1,0,0,1-6.861,6.475,12.9,12.9,0,0,1-3.78,1.4c-.035,0-.281,0-.281-.1a5.638,5.638,0,0,1,.665-.49c3.466-2.38,5.181-3.78,7.211-6.93a6.425,6.425,0,0,0,1.051-2c0-.314,0-.49-1.926-1.435a15.156,15.156,0,0,0-6.44-1.575c-2.17,0-2.24.14-2.835,1.4-3.011,6.406-3.6,7.7-5.812,7.7-1.785,0-2.309-1.925-2.309-2.8,0-2.975,3.115-5.636,6.79-6.931a1.264,1.264,0,0,0,.876-.7c.805-1.295,5.18-7.911,5.355-8.226a4.933,4.933,0,0,0,.455-1.575A.451.451,0,0,0,1150.854,1759.172Zm-11.726,16.872c0,.6.28,1.015.91,1.015,1.925,0,4.2-5.146,4.2-5.286,0-.1-.035-.175-.139-.175C1142.838,1771.6,1139.128,1773.979,1139.128,1776.044Z" fill="#4d4d4d"/>
    <path id="パス_669" data-name="パス 669" d="M1178.79,1762.077c-.805,0-3.221,0-4.445.07a5.318,5.318,0,0,1-.736.1c-.1,0-.174-.1-.314-.245l-.665-.8c-.141-.14-.141-.175-.141-.21a.093.093,0,0,1,.106-.1c.245,0,1.33.1,1.575.14,1.575.07,3.15.1,4.795.1h6.861c1.015,0,1.015-.455,1.015-2.45a22.032,22.032,0,0,0-.175-3.221c-.035-.209-.245-1.05-.245-1.225,0-.21.245-.21.385-.21s3.711.736,3.711,1.541c0,.35-.071.385-.665.945-.455.385-.491,1.3-.491,1.855,0,2.625.21,2.765,1.121,2.765h6.965c1.295,0,1.645,0,2.1-.525.21-.315,1.12-1.96,1.471-1.96.524,0,3.325,2.415,3.325,2.905,0,.525-.665.525-1.856.525h-15.716c-.385,0-.525,0-.525.14,0,.245.14.245,1.505.455.525.07,1.54.28,1.54.77,0,.28-.979,1.155-1.085,1.4a9.743,9.743,0,0,0-.56,2.555c0,.7.735.7.876.7h7.735a1.661,1.661,0,0,0,1.47-.525,4.183,4.183,0,0,1,.8-.7c.175,0,3.045,1.75,3.045,2.24,0,.28-.91,1.085-1.014,1.295a34.849,34.849,0,0,0-.981,4.9c-1.085,5.005-2.17,6.86-3.255,8.12a6.922,6.922,0,0,1-4.025,2.311c-.42,0-.42-.245-.42-.56,0-1.505-1.82-2.626-2.9-3.186-.806-.42-.911-.455-.911-.56,0-.07.035-.28.35-.28a5.9,5.9,0,0,1,1.436.385,10.565,10.565,0,0,0,2.764.455c1.471,0,3.081-.875,4.2-5.495a35.893,35.893,0,0,0,.91-6.546c0-.91-.6-.91-1.12-.91h-8.226c-.98,0-1.05.175-1.47,1.995-2.73,11.376-11.656,13.547-12.111,13.547-.106,0-.316,0-.316-.1,0-.14.42-.385.84-.595a20.755,20.755,0,0,0,7.527-8.436,32.86,32.86,0,0,0,2.554-11.061c0-2.311-.594-2.311-1.3-2.311Z" fill="#4d4d4d"/>
    <g id="グループ_524" data-name="グループ 524" transform="translate(-129.149 110.353)">
      <path id="パス_2251" data-name="パス 2251" d="M1090.925,1653.444c0,1.155-2.66,2.205-3.5,2.555-.49.175-.525.315-.594,1.54-.071.77-.071,3.605-.071,3.78,0,.211,0,.631.315.631.105,0,2.975-1.191,3.536-1.4,3.465-1.295,5.04-1.4,5.95-1.4a5.359,5.359,0,0,1,5.391,5.286c0,4.62-4.866,6.721-7.736,6.721-1.995,0-3.6-1.015-3.6-2.836a3.118,3.118,0,0,1,1.75-2.765.188.188,0,0,1,.175.175c0,.1-.071.175-.14.28a1.448,1.448,0,0,0-.315.945c0,1.68,1.925,1.68,2.275,1.68,2.311,0,5.251-1.54,5.251-4.34a3.628,3.628,0,0,0-3.36-3.851c-.981,0-3.151.456-7.247,2.626-1.959,1.05-2.169,1.155-2.169,1.75,0,.385.1,1.96.1,2.31,0,1.61-.525,3.921-1.785,3.921-.945,0-1.33-.735-1.61-1.3-1.121-2.171-1.3-2.171-1.75-2.171a2.908,2.908,0,0,0-.875.21,6.9,6.9,0,0,1-1.331.7c-.384,0-2.169-1.05-2.169-2.2,0-.63.384-1.365,1.014-1.365.21,0,1.226.175,1.436.175.944,0,1.575-.175,3.639-1.19,1.786-.875,2-.98,2-1.96,0-.806-.035-3.781-.07-4.376,0-.245-.105-.77-.49-.77a8.183,8.183,0,0,0-1.61.315,7.51,7.51,0,0,1-2.486.665c-1.189,0-2.519-2.415-2.519-2.66a.247.247,0,0,1,.279-.245c.1,0,.525.14.63.14a10.182,10.182,0,0,0,1.61.175,15.291,15.291,0,0,0,4.446-1.05,26.184,26.184,0,0,0,.35-3.815,3.437,3.437,0,0,0-1.155-2.8,3.508,3.508,0,0,1-.49-.56c0-.315.56-.385.77-.385,2.345,0,3.606,1.715,3.606,2.38a14.043,14.043,0,0,1-.736,1.821,18.682,18.682,0,0,0-.349,2.275c0,.14.069.385.279.385.245,0,1.226-.385,1.226-.875,0-.07-.175-.42-.175-.49,0-.035.069-.1.139-.14C1089.246,1651.869,1090.925,1652.359,1090.925,1653.444Zm-7.98,13.406c0,.525.945,1.645,1.47,1.645.49,0,.98-.98.98-2.695,0-.14,0-.49-.1-.56C1085.185,1665.24,1082.945,1666.36,1082.945,1666.85Zm23-10.886c0,.735-.42,1.68-1.155,1.68-.21,0-1.015-.07-1.19-.07-.175.035-.91.245-1.051.245a.163.163,0,0,1-.174-.175,2.408,2.408,0,0,1,.105-.28,1.866,1.866,0,0,0,.14-.63c0-1.4-1.75-1.89-2.941-1.89a3.042,3.042,0,0,0-1.365.35.782.782,0,0,1-.35.1c-.105,0-.14-.035-.14-.14a4.478,4.478,0,0,1,3.781-2.205C1104.3,1652.954,1105.942,1654.354,1105.942,1655.964Z" fill="#4d4d4d"/>
      <path id="パス_2252" data-name="パス 2252" d="M1122.3,1653.234a4.8,4.8,0,0,1-.42,1.4,12.362,12.362,0,0,0-.84,4.515c0,3.536,1.82,6.091,2.9,6.091.6,0,.735-.175,1.785-1.925.21-.35.806-1.19,1.085-1.19.106,0,.176.14.176.28a4.093,4.093,0,0,1-.106.7,9.86,9.86,0,0,0-.455,2.66,4.758,4.758,0,0,0,.21,1.4,8.663,8.663,0,0,1,.281,1.155c0,.7-.736,1.085-1.331,1.085-2.24,0-6.65-3.675-6.65-10.361,0-.98.489-5.285.489-6.195a9.671,9.671,0,0,0-.245-2.031,4.753,4.753,0,0,1-.279-1.19c0-.105.14-.14.21-.14C1120.72,1649.488,1122.3,1652.289,1122.3,1653.234Zm17.081.8a8.709,8.709,0,0,1,3.116,6.686c0,.665-.07,2.31-1.75,2.31-1.715,0-1.715-1.891-1.715-2.345,0-2.906,0-4.376-1.856-6.231-.28-.28-1.679-1.365-1.679-1.575,0-.1.139-.175.314-.175A6.81,6.81,0,0,1,1139.376,1654.039Z" fill="#4d4d4d"/>
      <path id="パス_2253" data-name="パス 2253" d="M1162.914,1649.033a16.119,16.119,0,0,1-.665,1.961,84.142,84.142,0,0,0-1.47,12.461c0,3.535.665,6.686,5.355,6.686a17.246,17.246,0,0,0,7.351-1.821c.525-.245,3.185-1.715,3.325-1.715a.164.164,0,0,1,.176.175c0,.385-5.181,6.021-11.762,6.021-4.551,0-6.721-2.626-6.721-9.661,0-2.17.071-2.871.8-9.731.141-1.155.455-4.026.455-5.006a4.406,4.406,0,0,0-.314-1.715c-.035-.1-.385-.91-.385-.945,0-.245.279-.35.489-.35C1161.374,1645.393,1162.914,1648.228,1162.914,1649.033Z" fill="#4d4d4d"/>
      <path id="パス_2254" data-name="パス 2254" d="M1193.934,1653.234a4.778,4.778,0,0,1-.421,1.4,12.385,12.385,0,0,0-.84,4.515c0,3.536,1.821,6.091,2.906,6.091.595,0,.735-.175,1.785-1.925.21-.35.8-1.19,1.085-1.19.1,0,.176.14.176.28a4.2,4.2,0,0,1-.106.7,9.821,9.821,0,0,0-.455,2.66,4.721,4.721,0,0,0,.21,1.4,8.782,8.782,0,0,1,.28,1.155c0,.7-.735,1.085-1.33,1.085-2.24,0-6.65-3.675-6.65-10.361,0-.98.489-5.285.489-6.195a9.745,9.745,0,0,0-.245-2.031,4.75,4.75,0,0,1-.279-1.19c0-.105.139-.14.21-.14C1192.359,1649.488,1193.934,1652.289,1193.934,1653.234Zm17.081.8a8.711,8.711,0,0,1,3.115,6.686c0,.665-.069,2.31-1.75,2.31-1.714,0-1.714-1.891-1.714-2.345,0-2.906,0-4.376-1.856-6.231-.28-.28-1.68-1.365-1.68-1.575,0-.1.14-.175.315-.175A6.812,6.812,0,0,1,1211.015,1654.039Z" fill="#4d4d4d"/>
    </g>
  </g>
</svg>
