<svg id="lineup_black_name" xmlns="http://www.w3.org/2000/svg" width="137.217" height="132.004" viewBox="0 0 137.217 132.004">
  <g id="グループ_217" data-name="グループ 217" transform="translate(-891.612 -1065.372)">
    <path id="パス_1070" data-name="パス 1070" d="M906.417,1077.492c-1.33,0-1.33.3-1.33,2.546,0,.988.305,1.178.685,1.254,1.367.342,5.85,1.443,5.85,4.407,0,.874-.531,2.166-1.481,2.166-.571,0-.647-.19-1.368-2.014-.836-2.2-2.85-3.761-3.306-3.761-.418,0-.418.076-.418,2.09,0,2.089.228,11.284.228,13.221,0,.532,0,2.508-2.051,2.508-.76,0-.76-.532-.76-1.1,0-.494.114-3,.114-3.533.075-3,.19-8.739.19-11.551,0-.152,0-.646-.38-.646-.191,0-.3.19-1.254,1.6-2.166,3.192-5.927,7.219-6.65,7.219-.113,0-.151-.076-.151-.19,0-.152,2.128-2.888,2.394-3.268a38.848,38.848,0,0,0,5.09-10.334c0-.57-.189-.608-1.785-.608-.342,0-2.584.038-3.609.114-.114,0-.685.115-.8.115-.152,0-.19-.115-.342-.267l-.722-.874c-.114-.113-.152-.19-.152-.266s.075-.076.113-.076c.267,0,1.445.114,1.71.152,1.445.039,3.154.115,4.56.115h.836c.38,0,1.025,0,1.178-.647.038-.227.038-3.039.038-3.457,0-1.178-.153-1.786-1.178-1.786-.152,0-3.762.342-4.445.342-.3,0-1.254,0-1.254-.19,0-.152.265-.228.418-.266a32.937,32.937,0,0,0,9.308-3.267,22.423,22.423,0,0,1,2.09-1.406,12.89,12.89,0,0,1,3.343,2.85c0,.228-.189.341-.493.341-.191,0-.874-.076-1.065-.076a19.833,19.833,0,0,0-3.875,1.14c-.57.418-.57,2.09-.57,3.268,0,2.849,0,3.154,1.14,3.154,1.633,0,1.633,0,2.584-1.179.532-.684.874-1.063,1.063-1.063s3.268,2.089,3.268,2.735c0,.494-.8.494-2.052.494Zm16.642-7.522a1.31,1.31,0,0,0,1.215-.495c.684-.836.76-.912.951-.912a19.692,19.692,0,0,1,2.469,1.71.862.862,0,0,1,.266.571c0,.3-.266.455-.532.569-.836.418-.836.646-.836,2.964,0,7.18,0,8.207.266,17.363,0,.38.114,2.2.114,2.622a1.567,1.567,0,0,1-.57,1.443,3.665,3.665,0,0,1-1.786.685c-.645,0-.645-.685-.645-1.254,0-.8-.456-.8-1.065-.8h-5.091c-1.1,0-1.139.342-1.139,1.406,0,1.367-1.406,1.861-2.128,1.861a.87.87,0,0,1-.912-1.025c0-.342.152-1.976.152-2.356.076-1.786.152-11.171.152-12.272,0-2.2,0-6.726-.3-11.664,0-.191-.19-1.178-.19-1.407,0-.265.19-.342.456-.342a5.775,5.775,0,0,1,1.671.646,3.7,3.7,0,0,0,2.357.685Zm-.153,23.442c1.1,0,1.1-.608,1.1-1.444v-20.1c0-.76-.647-.912-1.1-.912h-5.167a.969.969,0,0,0-1.063.57c-.114.3-.114,11.284-.114,12.994,0,3.99.076,7.979.114,8.169.113.722.76.722,1.1.722Z" fill="#333"/>
    <path id="パス_1071" data-name="パス 1071" d="M949.377,1078.67a1.077,1.077,0,0,1-.836-.3,14.275,14.275,0,0,0-4.711-4.56,9.251,9.251,0,0,0-1.025-.531c-.038-.038-.153-.076-.153-.19s.19-.114.533-.114a9.686,9.686,0,0,1,2.355.228c1.064.228,1.178.3,1.329.3.494,0,.647-.38,1.1-1.482,1.329-3.382,1.367-4.559,1.405-5.585.038-.57.114-1.064.456-1.064.608,0,3.724,1.6,3.724,2.166,0,.38-.418.532-.8.683-1.064.457-1.292.8-2.356,2.28a32.457,32.457,0,0,0-2.166,3.305c0,.229.229.418.571.685a3.766,3.766,0,0,1,1.672,2.7C950.48,1077.872,950.1,1078.67,949.377,1078.67Zm4.978.95c0-.114.076-.114.114-.114.645,0,5.547,1.976,5.547,5.015a1.544,1.544,0,0,1-1.407,1.672c-.759,0-1.139-.912-1.367-1.558-.532-1.368-.57-1.519-1.139-1.519-.038,0-1.825.341-2.09.379-.571.114-.95.228-1.1.646-.114.342-.114,4.94-.114,5.623,0,1.292.227,8.169.227,8.207,0,.8-.227,2.09-1.861,2.09-.532,0-.95-.076-.95-1.862,0-.3.152-3.343.152-3.609v-8.739c0-.988,0-1.558-.608-1.558-.228,0-3.837.494-4.369.608-.228.038-1.064.76-1.292.76-.836,0-1.406-3.268-1.406-3.686,0-.227.077-.493.38-.493a5.483,5.483,0,0,1,.95.455,22.945,22.945,0,0,0,4.37.494c.8,0,1.1,0,1.823-1.177.836-1.406,3.838-6.953,4.294-8.929.266-1.1.3-1.216.76-1.216.683,0,3.457,1.444,3.457,2.166,0,.3-.19.418-.494.456a2.336,2.336,0,0,0-1.178.608c-.722.8-1.747,2.166-2.432,2.964-.569.721-3.875,4.71-3.875,4.9,0,.305.153.305,1.52.305,1.254,0,3.382,0,3.571-.342C956.065,1081.748,954.355,1079.658,954.355,1079.62Zm-5.054,8.814c0,.266-.987.951-1.1,1.141a30.772,30.772,0,0,0-1.254,2.811c-1.937,4.255-3.8,6.193-4.065,6.193-.075,0-.075-.038-.075-.076,0-.228.835-1.976.987-2.356.3-.8,2.052-6.344,2.052-8.434,0-.19-.191-.912-.191-1.1s.229-.266.343-.266a9.124,9.124,0,0,1,1.6.684C948.2,1087.333,949.3,1087.941,949.3,1088.434Zm10.373,4.75a1.7,1.7,0,0,1-1.6,1.862c-.836,0-.912-.266-1.634-2.66a14.091,14.091,0,0,0-1.862-4.407c-.037-.076-.266-.494-.266-.532s0-.114.077-.114a9.815,9.815,0,0,1,1.443.836C956.559,1088.663,959.674,1090.942,959.674,1093.184Zm3.382,5.053c-2.737,0-3.8.038-4.788.114-.152,0-.684.076-.8.076-.152,0-.228-.076-.342-.228l-.76-.874c-.114-.151-.152-.189-.152-.228,0-.076.038-.114.152-.114.266,0,1.406.153,1.672.153,1.33.075,3.077.113,5.205.113h1.33c.228,0,.8,0,.988-.493.19-.418.19-9.385.19-10.905,0-.988,0-14.286-.114-14.7-.115-.721-.608-.759-1.14-.759h-.645c-1.977,0-3.382.038-4.636.113-.114,0-.684.076-.8.076-.152,0-.228-.076-.342-.228l-.721-.874c-.153-.19-.191-.19-.191-.265,0-.038.076-.076.152-.076.266,0,1.444.113,1.672.113,1.862.114,3.419.152,5.205.152h4.6c1.824,0,2.014,0,2.584-.683,1.14-1.369,1.292-1.52,1.634-1.52.456,0,3.3,2.165,3.3,2.659,0,.533-.759.533-2.051.533h-4.6c-.874,0-1.178.265-1.178,1.139,0,2.128,0,24.62.077,24.963.076.607.417.759,1.139.759,1.862,0,2.09,0,2.394-.342.342-.342,1.557-2.2,2.013-2.2s3.344,2.432,3.344,3c0,.532-.76.532-2.052.532Z" fill="#333"/>
    <path id="パス_1072" data-name="パス 1072" d="M1016.866,1080.038a33.427,33.427,0,0,0,9.2,3c.152,0,.8.114.8.266,0,.114-.532.266-.684.3a6.587,6.587,0,0,0-2.888,2.052c-.113.152-.531.95-.722.95-.227,0-8.472-3.99-12.2-10.069-.721-1.216-.836-1.329-1.1-1.329s-.342.076-1.178.949a45.174,45.174,0,0,1-11.246,8.853c-1.292.684-5.244,2.432-5.966,2.432-.113,0-.189-.076-.189-.114s4.065-2.546,4.407-2.774c5.129-3.229,10.562-9.043,11.094-11.892.038-.3.076-.418.342-.418.19,0,3.268,1.178,3.457,1.292.115.038.494.19.494.57a2.369,2.369,0,0,1-.152.531C1010.407,1075.213,1013.675,1078.4,1016.866,1080.038Zm-18.313-9.461c-2.812,0-4.1.076-4.825.114-.114,0-.684.076-.8.076s-.19-.076-.342-.228l-.722-.874c-.152-.19-.152-.19-.152-.266s.038-.075.114-.075c.266,0,1.444.113,1.672.113,1.861.076,3.457.153,5.243.153h1.1c.8,0,1.026-.38,1.026-1.027a6.148,6.148,0,0,0-.3-2.013,5.777,5.777,0,0,1-.227-.76c0-.19.189-.266.418-.266.266,0,1.975.418,2.393.532,1.14.3,1.369.38,1.369.722,0,.228-.038.3-.571.987a.933.933,0,0,0-.265.685c0,.911.3,1.14,1.329,1.14h6.269c.342,0,1.14,0,1.14-1.027a15.8,15.8,0,0,0-.114-1.709c-.037-.19-.228-.988-.228-1.14,0-.19.228-.266.418-.266.266,0,2.85.608,3.268.722s.645.266.645.608c0,.228-.151.38-.569.684a1.216,1.216,0,0,0-.494,1.064c0,1.064.607,1.064,1.216,1.064h1.937c1.672,0,1.862,0,2.432-.647,1.064-1.253,1.177-1.405,1.519-1.405.229,0,3.534,2.014,3.534,2.507,0,.532-.759.532-2.013.532h-7.409c-1.178,0-1.178.608-1.178,1.52,0,.228.038,1.52.038,1.709,0,1.407-1.14,1.634-1.939,1.634-.873,0-1.025-.151-1.025-1.443v-2.622c-.114-.722-.57-.8-1.178-.8H1005.2c-.874,0-1.406,0-1.406,1.064,0,.38.114,2.052.114,2.394,0,.722-.114,1.063-.456,1.291a2.688,2.688,0,0,1-1.443.532c-.647,0-.95-.418-.95-1.178,0-.3.038-1.747.038-2.013,0-1.482,0-2.09-1.178-2.09Zm2.7,19.415a19.444,19.444,0,0,1,2.925,1.786.944.944,0,0,1,.3.57c0,.456-.3.532-1.216.76-.115.038-3.382,2.583-3.99,3.039a23.336,23.336,0,0,1-5.775,3.306.121.121,0,0,1-.114-.114c0-.076,2.013-1.824,2.279-2.09,3.154-3,5.092-6,5.434-7.219A.228.228,0,0,1,1001.251,1089.992Zm1.747-2.013c-2.963,0-4.065.037-4.825.114-.113,0-.684.076-.8.076s-.189-.076-.342-.228l-.721-.874c-.153-.19-.153-.19-.153-.266,0-.038.038-.076.114-.076.266,0,1.444.114,1.672.114,1.862.114,3.457.152,5.244.152h2.849c.38,0,1.14,0,1.14-1.026,0-.456-.228-3.534-.3-3.913,0-.077-.228-.456-.228-.533s.076-.227.379-.227c.267,0,2.926.57,3.306.683.532.115.722.456.722.646,0,.228-.075.305-.646.8-.532.456-.532.684-.532,1.824,0,1.368,0,1.748,1.141,1.748h1.671c1.671,0,1.862,0,2.431-.646,1.065-1.254,1.179-1.406,1.521-1.406.227,0,3.533,2.052,3.533,2.508,0,.532-.76.532-2.014.532h-7.18c-1.14,0-1.14.684-1.14,1.9,0,2.7,0,4.217.075,6.459.038.645.038,1.557.038,2.013,0,1.216-.3,1.938-1.937,1.938-.836,0-.912-.684-.912-1.33,0-.494.114-2.774.114-3.268.038-1.443.038-2.849.038-4.6a23.01,23.01,0,0,0-.076-2.584c-.19-.532-.8-.532-1.1-.532Zm10.145,3.191c0-.114.19-.152.341-.152,1.407,0,10.07,2.394,10.07,5.547,0,1.216-.685,2.166-1.634,2.166-.723,0-.874-.19-2.052-1.938a18.057,18.057,0,0,0-6.535-5.471C1013.295,1091.322,1013.143,1091.208,1013.143,1091.17Z" fill="#333"/>
  </g>
  <g id="グループ_218" data-name="グループ 218" transform="translate(-891.612 -1065.372)">
    <path id="パス_1073" data-name="パス 1073" d="M892.333,1122.748c-.324,0-.721-.108-.721-.576,0-.576.595-.576.721-.576h2.719c.72,0,.72.486.72.576,0,.576-.522.576-.72.576Z" fill="#333"/>
    <path id="パス_1074" data-name="パス 1074" d="M908.7,1116.141c-.234,0-.99.649-1.278.9-.235.216-.919.828-1.387.828-.666,0-1.17-1.278-1.17-1.332,0-.108.035-.18.144-.18s.522.072.612.072c.576,0,.792-.037,1.872-.721a3.1,3.1,0,0,1,1.729-.594c1.188,0,1.459.811,1.459,1.081,0,.378-.162.594-1.1,1.458a16.349,16.349,0,0,0-2.646,3.655c0,.09.125.108.179.108.235,0,1.242-.018,1.459,0a14.52,14.52,0,0,1,3.4.721.726.726,0,0,0,.288.071c.234,0,.342-1.476.342-1.656,0-.144-.108-.936-.108-1.008,0-.109.126-.109.2-.109.054,0,1.62.288,1.62.991a3.884,3.884,0,0,1-.395.7c0,.036-.253,1.476-.253,1.53,0,.234.108.289.415.451.7.378,2.34,1.224,2.34,2.16a.7.7,0,0,1-.666.684c-.361,0-.558-.144-1.819-1.224-.036-.018-.558-.468-.738-.468-.143,0-.2.126-.252.216a7.765,7.765,0,0,1-3.529,3.331,6.644,6.644,0,0,1-1.944.72c-.019,0-.145,0-.145-.054a2.833,2.833,0,0,1,.343-.252,11.2,11.2,0,0,0,3.709-3.565,3.337,3.337,0,0,0,.54-1.026c0-.162,0-.252-.99-.739a7.8,7.8,0,0,0-3.314-.81c-1.116,0-1.152.072-1.458.721-1.549,3.294-1.854,3.96-2.989,3.96-.918,0-1.188-.99-1.188-1.44,0-1.53,1.6-2.9,3.493-3.565a.65.65,0,0,0,.45-.36c.414-.666,2.665-4.069,2.755-4.231a2.561,2.561,0,0,0,.234-.81C908.9,1116.267,908.848,1116.141,908.7,1116.141Zm-6.032,8.679c0,.306.144.523.469.523.99,0,2.16-2.647,2.16-2.72,0-.054-.018-.089-.072-.089C904.58,1122.534,902.672,1123.758,902.672,1124.82Z" fill="#333"/>
    <path id="パス_1075" data-name="パス 1075" d="M927.5,1115.745a1.469,1.469,0,0,0-.252-.792,3.581,3.581,0,0,1-.343-.5c0-.216.379-.378.739-.378a1.466,1.466,0,0,1,1.3.792c.089.126.269.2.81.342.342.09,1.026.288,1.026.792,0,.684-1.008,1.009-2.466,1.441-.162.054-.181.108-.343.738-.216.9-1.765,6.986-3.421,6.986-.486,0-.558-.324-.558-.5,0-.252.054-.342.594-1.116a16.105,16.105,0,0,0,2.485-5.87c0-.162-.126-.18-.4-.2-2.125-.18-2.125-1.44-2.125-1.459,0-.072.019-.215.126-.215.072,0,.126.017.486.234a2.681,2.681,0,0,0,1.387.378,2.242,2.242,0,0,0,.792-.108A.853.853,0,0,0,927.5,1115.745Zm5.186,11.272a2.357,2.357,0,0,1-2.539,1.962,2.509,2.509,0,0,1-2.719-2.089c0-1.169,1.278-1.782,2.9-1.782.144,0,.81.036.936.036.162,0,.252-.018.252-.2,0-.27-.072-1.476-.072-1.728,0-1.981.108-2.935,1.621-3.8,1.116-.649,1.242-.7,1.242-1.171a1.581,1.581,0,0,0-.5-.918c-.162-.144-.234-.216-.234-.288,0-.054.054-.09.125-.09a5.734,5.734,0,0,1,1.063.306,1.932,1.932,0,0,1,1.314,1.837.855.855,0,0,1-.845.936,1.238,1.238,0,0,1-.414-.072c-.685-.252-.757-.288-.973-.288a2.152,2.152,0,0,0-1.314.54,2.03,2.03,0,0,0-.433,1.494c0,.45.181,3.241.721,3.619.162.126,1.007.414,1.17.5.378.2,1.422.774,1.422,1.441,0,.306-.126.63-.486.63-.18,0-.288-.054-.558-.288-.486-.432-1.314-.99-1.566-.882C932.719,1126.764,932.719,1126.837,932.683,1127.017Zm-2.593-1.026c-.414,0-2.035,0-2.035.954,0,.432.541.972,1.621.972,1.746,0,2-1.368,1.89-1.656C931.477,1125.991,930.5,1125.991,930.09,1125.991Zm-.486-10.3c0-.126-.63-.45-.739-.45-.3,0-.431.738-.431.793a.18.18,0,0,0,.036.107C928.523,1116.2,929.6,1115.962,929.6,1115.691Z" fill="#333"/>
    <path id="パス_1076" data-name="パス 1076" d="M949.787,1116.141c-.234,0-.99.649-1.278.9-.235.216-.919.828-1.387.828-.666,0-1.171-1.278-1.171-1.332,0-.108.036-.18.145-.18s.522.072.612.072c.576,0,.792-.037,1.872-.721a3.1,3.1,0,0,1,1.729-.594c1.188,0,1.459.811,1.459,1.081,0,.378-.162.594-1.1,1.458a16.349,16.349,0,0,0-2.646,3.655c0,.09.125.108.179.108.235,0,1.242-.018,1.459,0a14.52,14.52,0,0,1,3.4.721.725.725,0,0,0,.288.071c.234,0,.342-1.476.342-1.656,0-.144-.108-.936-.108-1.008,0-.109.126-.109.2-.109.054,0,1.62.288,1.62.991a3.881,3.881,0,0,1-.4.7c0,.036-.253,1.476-.253,1.53,0,.234.108.289.414.451.7.378,2.341,1.224,2.341,2.16a.7.7,0,0,1-.666.684c-.361,0-.558-.144-1.819-1.224-.036-.018-.558-.468-.738-.468-.143,0-.2.126-.252.216a7.766,7.766,0,0,1-3.529,3.331,6.644,6.644,0,0,1-1.944.72c-.018,0-.145,0-.145-.054a2.828,2.828,0,0,1,.343-.252,11.193,11.193,0,0,0,3.709-3.565,3.336,3.336,0,0,0,.54-1.026c0-.162,0-.252-.99-.739a7.8,7.8,0,0,0-3.314-.81c-1.116,0-1.152.072-1.458.721-1.549,3.294-1.854,3.96-2.989,3.96-.918,0-1.189-.99-1.189-1.44,0-1.53,1.6-2.9,3.494-3.565a.65.65,0,0,0,.45-.36c.414-.666,2.665-4.069,2.755-4.231a2.562,2.562,0,0,0,.234-.81C949.984,1116.267,949.931,1116.141,949.787,1116.141Zm-6.032,8.679c0,.306.144.523.468.523.991,0,2.161-2.647,2.161-2.72,0-.054-.018-.089-.072-.089C945.664,1122.534,943.755,1123.758,943.755,1124.82Z" fill="#333"/>
    <path id="パス_1077" data-name="パス 1077" d="M967.509,1119.653a2.588,2.588,0,0,1-2.647-1.729c0-.09.018-.162.144-.162a4.68,4.68,0,0,1,.738.342,4.523,4.523,0,0,0,1.855.486c.684,0,1.909-.324,1.909-.612,0-.162-.595-.576-.828-.738-.487-.342-1.153-.955-1.153-1.477a.869.869,0,0,1,.9-.864c.379,0,.558.108,1.387.594a2.991,2.991,0,0,0,1.692.415c.217,0,1.135-.019,1.333,0a.624.624,0,0,1,.612.647c0,.469-.846,1.117-1.1,1.261-.487.306-.54.342-.54.468a.511.511,0,0,0,.215.342c.937.828,3.295,2.917,3.295,4.754a1.122,1.122,0,0,1-1.188,1.206c-.324,0-.45-.072-1.53-.666a6.618,6.618,0,0,0-3.061-.936,2.427,2.427,0,0,0-2.521,2.088c0,1.152,1.134,1.6,2.665,1.6.306,0,1.836-.162,1.873-.162a.761.761,0,0,1,.881.7c0,.954-1.728.954-2.052.954a6.054,6.054,0,0,1-2.9-.558,2.64,2.64,0,0,1-1.549-2.233c0-1.782,1.837-2.863,3.835-2.863a6.445,6.445,0,0,1,1.946.325,5.591,5.591,0,0,0,1.475.36.578.578,0,0,0,.631-.577c0-1.17-2.395-3.853-2.917-3.853-.108,0-1.909.666-2.287.757A5.209,5.209,0,0,1,967.509,1119.653Zm3.169-2.125c.108,0,.666-.18.666-.576,0-.234-.054-.288-.63-.63-1.189-.721-1.332-.793-1.53-.793a.334.334,0,0,0-.342.324c0,.432.647.954.792,1.063A3.025,3.025,0,0,0,970.678,1117.528Z" fill="#333"/>
    <path id="パス_1078" data-name="パス 1078" d="M983.758,1121.363a4.925,4.925,0,0,0,2.845-1.26,1.564,1.564,0,0,0-.288-.576c-1.207-1.639-1.35-1.819-1.35-2.2,0-.576.954-1.206,2.646-1.206a11.552,11.552,0,0,1,1.675.126,4.668,4.668,0,0,0,.666.054.443.443,0,0,0,.5-.487c0-.09-.126-.54-.126-.63a.123.123,0,0,1,.126-.126,2.109,2.109,0,0,1,1.3,1.729c0,.09-.09.432-.09.522,0,.054.019.162.126.162.091,0,.45-.144.54-.162a7.267,7.267,0,0,1,1.747-.27,3.469,3.469,0,0,1,3.457,3.241,2.839,2.839,0,0,1-3.115,2.791,4.539,4.539,0,0,1-3.349-1.693c0-.054.054-.072.108-.072.036,0,.648.216.757.252a4.8,4.8,0,0,0,1.764.4c.936,0,2.449-.486,2.449-2a2.166,2.166,0,0,0-2.287-2.179c-1.495,0-2.43.594-5.275,2.413-.541.342-.541.36-.541.486a.848.848,0,0,0,.2.432c1.08,1.746,2.971,5.294,2.971,6.878,0,.7-.432,1.08-.81,1.08-.54,0-.774-.522-.774-1.062a6.382,6.382,0,0,0-.2-2.161,16.981,16.981,0,0,0-1.891-4.483c-.072-.108-.143-.216-.252-.216a3.757,3.757,0,0,0-.756.468,7.58,7.58,0,0,1-2.233,1.081c-.342,0-1.278-.973-1.278-1.189a.177.177,0,0,1,.162-.18C983.254,1121.327,983.524,1121.363,983.758,1121.363Zm2.413-3.835c0,.36.072.486.811,1.638.323.487.341.541.485.541a1.078,1.078,0,0,0,.432-.216,26.773,26.773,0,0,1,2.377-1.351c.18-.09.252-.162.252-.252,0-.072-.054-.108-.558-.324a13.681,13.681,0,0,0-2.5-.972A.993.993,0,0,0,986.171,1117.528Z" fill="#333"/>
    <path id="パス_1079" data-name="パス 1079" d="M1004.967,1119.365a.158.158,0,0,1,.161-.144c.055,0,.991.251,1.188.251a30.115,30.115,0,0,0,3.026-.54c.306-.215.324-2.034.324-2.125a2.281,2.281,0,0,0-.45-1.53c-.271-.324-.307-.36-.307-.414,0-.126.217-.144.288-.144,1.207,0,1.91.684,1.91,1.152,0,.037-.685,2.323-.685,2.665,0,.108.072.162.2.162.09,0,.918-.09,1.063-.09a2.126,2.126,0,0,1,2.394,2.3c0,1.422-.5,4.519-1.549,5.78a2.789,2.789,0,0,1-1.836,1.1c-.684,0-.864-.666-1.062-1.242-.036-.09-.234-.558-.234-.595a.084.084,0,0,1,.089-.089,3.134,3.134,0,0,1,.451.126,5.811,5.811,0,0,0,.919.126c.521,0,1.187-.252,1.71-2.2a14.322,14.322,0,0,0,.558-3.133c0-1.26-.721-1.351-1.242-1.351a3.916,3.916,0,0,0-1.729.433c-.072.09-.09.162-.27.774-.721,2.449-2.467,6.878-3.925,6.878a.529.529,0,0,1-.576-.576c0-.378.126-.522,1.206-1.711a10.555,10.555,0,0,0,2.215-4.069,4.931,4.931,0,0,0,.252-.846c0-.055-.019-.144-.126-.144-.4,0-2.071.72-2.431.72C1005.795,1120.9,1004.967,1119.761,1004.967,1119.365Zm12.567,3.745c-.18,0-1.009-.487-1.224-.541-.09-.035-.577-.072-.577-.126,0-.108.6-.414.7-.5.666-.5.738-.558.738-1.044a2.317,2.317,0,0,0-1.458-2.071c-.145-.072-.433-.2-.433-.269,0-.109.073-.109.126-.109a3.3,3.3,0,0,1,3.152,3.187C1018.561,1121.849,1018.29,1123.11,1017.534,1123.11Z" fill="#333"/>
    <path id="パス_1080" data-name="パス 1080" d="M1025.391,1122.748c-.325,0-.721-.108-.721-.576,0-.576.595-.576.721-.576h2.718c.72,0,.72.486.72.576,0,.576-.522.576-.72.576Z" fill="#333"/>
  </g>
  <g id="グループ_220" data-name="グループ 220" transform="translate(-891.612 -1065.372)">
    <g id="グループ_219" data-name="グループ 219">
      <path id="パス_1081" data-name="パス 1081" d="M930.1,1144.088h1.289c1.988,0,3.865.518,3.865,2.9a2.27,2.27,0,0,1-1.134,2v.028a2.719,2.719,0,0,1,2.115,2.675c0,2.115-1.807,2.956-3.67,2.956H930.1Zm1.316,4.678h.337c1.246,0,2.269-.253,2.269-1.765,0-1.485-1.008-1.737-2.242-1.737h-.364Zm0,4.706h1.009c1.219,0,2.493-.364,2.493-1.863,0-1.484-1.513-1.793-2.689-1.793h-.813Z" fill="#333"/>
      <path id="パス_1082" data-name="パス 1082" d="M944.365,1153.444h3.208v1.205h-4.524v-10.561h1.316Z" fill="#333"/>
      <path id="パス_1083" data-name="パス 1083" d="M955.91,1152l-1.2,2.647H953.29l5.043-11.01,5.043,11.01h-1.415L960.756,1152Zm2.423-5.477-1.877,4.272h3.754Z" fill="#333"/>
      <path id="パス_1084" data-name="パス 1084" d="M976.79,1146.1a4.2,4.2,0,0,0-6.961,3.279,4.155,4.155,0,0,0,6.961,3.193v1.555a5.708,5.708,0,0,1-2.773.743,5.467,5.467,0,0,1-5.505-5.449,5.552,5.552,0,0,1,5.617-5.562,5.094,5.094,0,0,1,2.661.715Z" fill="#333"/>
      <path id="パス_1085" data-name="パス 1085" d="M989.3,1144.088h1.723l-4.748,4.748,4.832,5.813h-1.779l-3.978-4.917-.532.505v4.412H983.5v-10.561h1.317v4.58Z" fill="#333"/>
    </g>
  </g>
  <g id="グループ_221" data-name="グループ 221" transform="translate(-891.612 -1065.372)">
    <path id="パス_1086" data-name="パス 1086" d="M904.431,1181.179a8.505,8.505,0,0,0,.941-.995,5.014,5.014,0,0,0,.724-1.194,3.707,3.707,0,0,0,.3-1.316,2.693,2.693,0,0,0-.3-1.329,2.881,2.881,0,0,0-.752-.94,2.111,2.111,0,0,0-1.1-.483,1.567,1.567,0,0,0-1.075.268,4.306,4.306,0,0,0-.833.779,3,3,0,0,0-.63,1.275,4.3,4.3,0,0,0-.067,1.4,6.588,6.588,0,0,0,.322,1.411,12.747,12.747,0,0,0,.537,1.315q.321.645.644,1.263a12.146,12.146,0,0,1,.565,1.248,7.1,7.1,0,0,1,.362,1.316,5.078,5.078,0,0,1,.04,1.437,6.209,6.209,0,0,1-.886,2.618,8.756,8.756,0,0,1-1.866,2.188,8.332,8.332,0,0,1-2.484,1.451,6.455,6.455,0,0,1-2.766.4,3.695,3.695,0,0,1-3.3-2.578,4.475,4.475,0,0,1-.215-1.357,5.23,5.23,0,0,1,.175-1.342,7.005,7.005,0,0,1,.484-1.29,8.471,8.471,0,0,1,.712-1.194,7.026,7.026,0,0,1,.873-1.02,6.722,6.722,0,0,1,1.087-.86,5.573,5.573,0,0,1,1.235-.591,3.761,3.761,0,0,1,1.343-.188,3.432,3.432,0,0,1,1.37.336,2.921,2.921,0,0,1,1.047.819,2.627,2.627,0,0,1,.523,1.182,2.478,2.478,0,0,1-.174,1.4.6.6,0,0,1-.322.242.516.516,0,0,1-.35-.014.47.47,0,0,1-.241-.215.349.349,0,0,1,.054-.362,1.728,1.728,0,0,0,.12-1.316,1.691,1.691,0,0,0-.818-1.02,2.739,2.739,0,0,0-1.317-.35,3.612,3.612,0,0,0-1.3.242,5.03,5.03,0,0,0-1.195.658,6.453,6.453,0,0,0-.994.9,7.367,7.367,0,0,0-.818,1.182,5.732,5.732,0,0,0-.551,1.342,4.4,4.4,0,0,0-.148,1.41,3.439,3.439,0,0,0,.363,1.356,2.871,2.871,0,0,0,.832,1.061,3,3,0,0,0,1.128.537,4.146,4.146,0,0,0,1.3.093,5.6,5.6,0,0,0,1.33-.268,7.719,7.719,0,0,0,2.578-1.343,7.064,7.064,0,0,0,1.826-2.121,5.93,5.93,0,0,0,.738-2.632,5.492,5.492,0,0,0-.684-2.847q-.35-.67-.712-1.355a12.469,12.469,0,0,1-.631-1.384,7.835,7.835,0,0,1-.4-1.45,5.644,5.644,0,0,1-.053-1.558,4.1,4.1,0,0,1,.362-1.382,3.987,3.987,0,0,1,.819-1.2,3.047,3.047,0,0,1,1.168-.739,2.266,2.266,0,0,1,1.437.014,2.713,2.713,0,0,1,1.249.738,3.418,3.418,0,0,1,.738,1.182,4.062,4.062,0,0,1,.241,1.41,5.271,5.271,0,0,1-.187,1.423,6.3,6.3,0,0,1-.591,1.37,13.875,13.875,0,0,1-.833,1.261,2.761,2.761,0,0,1-.335.43.4.4,0,0,1-.5.081.362.362,0,0,1-.309-.336A.5.5,0,0,1,904.431,1181.179Z" fill="#333"/>
    <path id="パス_1087" data-name="パス 1087" d="M908.143,1184.965c.071-.035.237-.108.5-.215a4.285,4.285,0,0,1,.765-.241,1.426,1.426,0,0,1,.644-.014c.179.045.243.211.189.5a1.311,1.311,0,0,1-.229.483,1.841,1.841,0,0,0-.255.484,6.147,6.147,0,0,0-.308.859.9.9,0,0,0,.094.832,2.535,2.535,0,0,0,1.006-.107q.552-.162,1.007-.322a5.056,5.056,0,0,0,.511-.269q.375-.215.792-.416a4.42,4.42,0,0,1,.766-.3c.232-.062.376-.04.429.067.072.126.027.26-.134.4a2.617,2.617,0,0,1-.6.388c-.241.118-.487.225-.738.323s-.412.166-.484.2q-.59.294-1.2.577a4.849,4.849,0,0,1-1.248.389.734.734,0,0,1-.779-.242,1.438,1.438,0,0,1-.215-.819,4.38,4.38,0,0,1,.148-1.074c.1-.385.2-.738.309-1.061-.412.161-.816.309-1.209.444a10.672,10.672,0,0,0-1.154.469q-.484.216-.967.484a.406.406,0,0,1-.47-.148q-.174-.228.148-.389Zm3.142-5.425a1.561,1.561,0,0,1,.416-.6,2.49,2.49,0,0,1,.632-.417,4.083,4.083,0,0,1,.738-.255c.259-.062.506-.111.738-.147a9.685,9.685,0,0,1,1.906.08,1.47,1.47,0,0,1,.364.054c.133.036.191.135.174.3a.4.4,0,0,1-.134.228.271.271,0,0,1-.242.067,6.435,6.435,0,0,0-1.624-.121,2.891,2.891,0,0,0-1.518.5.871.871,0,0,0-.376.429.967.967,0,0,1-.322.43.422.422,0,0,1-.564,0A.44.44,0,0,1,911.285,1179.54Z" fill="#333"/>
    <path id="パス_1088" data-name="パス 1088" d="M913.532,1186.281l1.02-.551q.726-.389,1.491-.738a6.768,6.768,0,0,1,1.41-.483q.644-.135.8.214a.531.531,0,0,1-.067.524,2.287,2.287,0,0,0-.255.47l-.322.752a6.512,6.512,0,0,1,.7-.376l.7-.323q.859-.454,1.773-.966a8.663,8.663,0,0,1,1.852-.779,1.314,1.314,0,0,1,.618-.013.766.766,0,0,1,.416.241.685.685,0,0,1,.148.457,1.1,1.1,0,0,1-.215.6,4.453,4.453,0,0,1-.523.671q-.283.3-.577.645a1.66,1.66,0,0,1-.189.215c-.09.089-.184.192-.282.308s-.188.234-.269.35a.856.856,0,0,0-.147.308,1.026,1.026,0,0,0,.47,0,4.342,4.342,0,0,0,.564-.147q.281-.094.537-.2c.17-.072.3-.125.389-.161l1.1-.484c.072-.036.165-.09.283-.161s.236-.139.362-.2.246-.12.362-.174a.715.715,0,0,1,.282-.081.214.214,0,0,1,.242.242.422.422,0,0,1-.215.376c-.161.09-.331.174-.51.255s-.367.166-.564.255q-.377.214-.725.376t-.726.35c-.142.071-.371.173-.684.308a4.749,4.749,0,0,1-.94.295,1.558,1.558,0,0,1-.819-.026c-.232-.081-.349-.3-.349-.659a.892.892,0,0,1,.134-.483,3.413,3.413,0,0,1,.309-.416,5.091,5.091,0,0,1,.376-.39c.134-.125.256-.241.363-.348a6.11,6.11,0,0,0,.537-.565,2.206,2.206,0,0,0,.484-.805,5.565,5.565,0,0,0-1.464.376,14.718,14.718,0,0,0-1.357.618q-.778.376-1.611.846a6.229,6.229,0,0,0-1.45,1.114.532.532,0,0,1-.282.121.513.513,0,0,1-.282-.054.435.435,0,0,1-.2-.2.5.5,0,0,1-.014-.35.835.835,0,0,1,.4-.429,4.96,4.96,0,0,0,.268-.5,1.621,1.621,0,0,1,.189-.335c.035-.125.071-.256.107-.39a3.093,3.093,0,0,0,.08-.416c-.2.054-.393.116-.591.187s-.348.126-.456.162c-.251.107-.5.211-.752.308s-.5.211-.752.336q-.215.108-.389.215a2.142,2.142,0,0,1-.39.188.426.426,0,0,1-.308.041.516.516,0,0,1-.228-.122.232.232,0,0,1-.067-.2C913.339,1186.4,913.407,1186.335,913.532,1186.281Z" fill="#333"/>
    <path id="パス_1089" data-name="パス 1089" d="M925.85,1186.281q.7-.348,1.369-.672t1.37-.591a9.616,9.616,0,0,1,1.491-.4,8.566,8.566,0,0,1,1.544-.135.656.656,0,0,1,.457.148q.16.147.026.5a.527.527,0,0,1-.483.268,9.471,9.471,0,0,0-1.41,0,4.365,4.365,0,0,0-1.356.323,2.19,2.19,0,0,0-.457.242,2.771,2.771,0,0,0-.442.362,1.126,1.126,0,0,0-.283.443.649.649,0,0,0,.054.51.968.968,0,0,0,.819.537,2.8,2.8,0,0,0,1.034-.026,2.848,2.848,0,0,0,.618-.215l.483-.242a1.823,1.823,0,0,1,.389-.148.41.41,0,0,1,.363.122.568.568,0,0,1,.013.617q-.174.348-.281.591l-.376.885q.725-.751,1.53-1.436a12.294,12.294,0,0,1,1.719-1.222c.053-.035.125-.089.214-.161a2.5,2.5,0,0,1,.3-.2,1.234,1.234,0,0,1,.323-.135.305.305,0,0,1,.268.041c.125.09.17.179.134.269a.838.838,0,0,1-.188.268q-.7.376-1.342.806a12.4,12.4,0,0,0-1.263.966,16,16,0,0,0-1.329,1.262,15.317,15.317,0,0,0-1.168,1.4l-.7,1.611q-.323.805-.645,1.638t-.7,1.639q-.081.161-.2.388a3.5,3.5,0,0,1-.269.43,1.17,1.17,0,0,1-.349.322.7.7,0,0,1-.444.095.49.49,0,0,1-.416-.3,1.081,1.081,0,0,1-.054-.537,3.6,3.6,0,0,1,.135-.591c.063-.2.12-.358.174-.483a13.984,13.984,0,0,1,1.276-2.35,24.79,24.79,0,0,1,1.624-2.162l.914-2.6a6.923,6.923,0,0,1-1.034.2,4.446,4.446,0,0,1-1.034.013,2.33,2.33,0,0,1-.873-.268,1.458,1.458,0,0,1-.551-1.826c-.142.089-.291.183-.442.282a.462.462,0,0,1-.39.094.291.291,0,0,1-.322-.229A.272.272,0,0,1,925.85,1186.281Z" fill="#333"/>
    <path id="パス_1090" data-name="パス 1090" d="M934.908,1186.254a17.137,17.137,0,0,0,1.611-.832q.779-.458,1.558-.994a14.328,14.328,0,0,1,.832-1.451c.3-.464.6-.922.886-1.369q.456-.618.914-1.249t.939-1.249q.4-.535.873-1.087a4.025,4.025,0,0,1,1.088-.9,2.207,2.207,0,0,1,.725-.228.5.5,0,0,1,.59.389.852.852,0,0,1,.014.578,2.4,2.4,0,0,1-.282.564,5.974,5.974,0,0,1-.4.537c-.143.171-.259.318-.349.443a21.55,21.55,0,0,1-2.4,2.86,25.13,25.13,0,0,1-2.861,2.457c-.09.215-.192.443-.308.685a6.264,6.264,0,0,0-.309.766,4.362,4.362,0,0,0-.188.792,1.993,1.993,0,0,0,.027.738c.2-.035.376-.063.537-.08.143-.019.277-.031.4-.041a.817.817,0,0,0,.243-.04,12.156,12.156,0,0,0,1.584-.43q.778-.269,1.531-.591a2.22,2.22,0,0,0,.51-.215.481.481,0,0,1,.51-.026c.2.144.224.273.08.389a1.743,1.743,0,0,1-.4.256l-3.115,1.154c-.3.107-.6.22-.887.336a2.781,2.781,0,0,1-.886.2.871.871,0,0,1-.644-.121.9.9,0,0,1-.336-.456,1.56,1.56,0,0,1-.068-.618,3.417,3.417,0,0,1,.108-.631,9.33,9.33,0,0,1,.483-1.289,20.781,20.781,0,0,1-2.309,1.316.418.418,0,0,1-.443-.175Q934.586,1186.415,934.908,1186.254Zm5.451-3.679a20.829,20.829,0,0,0,2.31-2.552,9.143,9.143,0,0,0,.913-1.289,3.515,3.515,0,0,1,.161-.335,3.478,3.478,0,0,0,.188-.417,2.919,2.919,0,0,0-.712.511q-.336.322-.55.537a14.241,14.241,0,0,0-1.155,1.3q-.537.684-1.074,1.409c-.2.287-.386.568-.564.846s-.349.56-.51.846q.241-.187.5-.417C940.033,1182.866,940.2,1182.719,940.359,1182.575Z" fill="#333"/>
    <path id="パス_1091" data-name="パス 1091" d="M942.792,1186.254q.483-.242,1.006-.537a8.858,8.858,0,0,1,1.061-.51,2.743,2.743,0,0,1,.994-1.008,4.06,4.06,0,0,1,1.369-.523,3.524,3.524,0,0,1,.873,0,1.065,1.065,0,0,1,.766.4.422.422,0,0,1,.094.456,1.29,1.29,0,0,1-.323.457,3.171,3.171,0,0,1-.51.389q-.282.176-.416.256a3.842,3.842,0,0,1-1.061.442,3.409,3.409,0,0,1-1.168.095h-.107a1.509,1.509,0,0,0,.483.913,2.329,2.329,0,0,0,.886.469,3.233,3.233,0,0,0,1.06.122,8.193,8.193,0,0,0,1.008-.108,12.048,12.048,0,0,0,1.262-.336,11.91,11.91,0,0,0,1.209-.47q.268-.133.55-.255a5.47,5.47,0,0,0,.524-.255.513.513,0,0,1,.389.053c.135.073.147.189.04.35a.684.684,0,0,1-.375.3c-.161.054-.3.107-.43.161l-1.343.591a23,23,0,0,1-2.444.806,4.08,4.08,0,0,1-1.087.067,3.13,3.13,0,0,1-1.02-.242,2.673,2.673,0,0,1-.847-.577,2.117,2.117,0,0,1-.537-.967c-.036-.143-.067-.286-.094-.43a.873.873,0,0,1,.014-.4,5.077,5.077,0,0,0-.577.308l-.5.309a2.017,2.017,0,0,0-.35.2.362.362,0,0,1-.43.014.309.309,0,0,1-.147-.3A.25.25,0,0,1,942.792,1186.254Zm2.739-.752a3.114,3.114,0,0,0,1.249-.322,3.937,3.937,0,0,0,1.06-.752,1.514,1.514,0,0,0-.738-.081,2.149,2.149,0,0,0-.672.215,2.1,2.1,0,0,0-.551.416A1.66,1.66,0,0,0,945.531,1185.5Z" fill="#333"/>
    <path id="パス_1092" data-name="パス 1092" d="M972.84,1175.566a2.393,2.393,0,0,0-1.168-.188,4.779,4.779,0,0,0-1.2.268,4,4,0,0,1,2.739.739,2.692,2.692,0,0,1,.913,2.51,8.15,8.15,0,0,1-.818,2.874,22.319,22.319,0,0,1-1.517,2.632q-.7,1.047-1.585,2.135a14.665,14.665,0,0,1-1.96,1.987,12.514,12.514,0,0,1-2.3,1.531,6.709,6.709,0,0,1-2.565.738,4.763,4.763,0,0,1-1.275-.067,1.989,1.989,0,0,1-1.115-.6,2.133,2.133,0,0,1-.591-1.263,5.413,5.413,0,0,1,.027-1.423,9.739,9.739,0,0,1,.927-2.806,24.612,24.612,0,0,1,1.49-2.565,20.33,20.33,0,0,1,1.719-2.429,27.116,27.116,0,0,1,2.014-2.19,21.257,21.257,0,0,1,2.188-1.8,6.205,6.205,0,0,1,2.564-1.1,5.68,5.68,0,0,1,1.035-.081,1.423,1.423,0,0,1,.953.3.442.442,0,0,1,.175.308.516.516,0,0,1-.068.309.482.482,0,0,1-.241.2A.434.434,0,0,1,972.84,1175.566Zm-5.1,1.772a17.106,17.106,0,0,0-2.162,2.108,27.337,27.337,0,0,0-1.84,2.4,19.6,19.6,0,0,0-1.49,2.565,10.975,10.975,0,0,0-.927,2.807,5,5,0,0,0-.08.6,3.139,3.139,0,0,0,.013.658,2.226,2.226,0,0,0,.162.6,1.089,1.089,0,0,0,.388.469,1.682,1.682,0,0,0,1.034.31,5.613,5.613,0,0,0,1.061-.121,7.411,7.411,0,0,0,2.686-1.128,19.037,19.037,0,0,0,2.283-1.8,17.273,17.273,0,0,0,2-2.2,14.625,14.625,0,0,0,1.544-2.524q.242-.484.537-1.168a7.123,7.123,0,0,0,.443-1.411,4.107,4.107,0,0,0,.054-1.4,1.813,1.813,0,0,0-.6-1.128,1.735,1.735,0,0,0-1.208-.47,7.193,7.193,0,0,0-1.342.094.44.44,0,0,1-.43-.135.574.574,0,0,1-.161-.482,10.16,10.16,0,0,0-1.061.671Q968.115,1177.043,967.739,1177.338Z" fill="#333"/>
    <path id="パス_1093" data-name="パス 1093" d="M972.07,1186.254q.564-.3,1.114-.591t1.2-.671a1.3,1.3,0,0,1,.309-.967,1.063,1.063,0,0,1,.927-.429.545.545,0,0,1,.483.375.656.656,0,0,1-.107.618,1.806,1.806,0,0,1-.565.537.9.9,0,0,0,.457.107,2.464,2.464,0,0,0,1.182-.2,7.834,7.834,0,0,0,1.1-.551q.483-.16.618.108a.641.641,0,0,1-.108.644c-.09.144-.193.327-.309.551a5.058,5.058,0,0,0-.295.685,2.346,2.346,0,0,0-.135.671.607.607,0,0,0,.2.51q.134.162.711,0t1.545-.537q.322-.133.657-.308c.224-.117.452-.229.686-.336a1.371,1.371,0,0,0,.241-.122,1.264,1.264,0,0,1,.309-.133.438.438,0,0,1,.268,0c.081.026.121.121.121.282a.314.314,0,0,1-.121.241,1.444,1.444,0,0,1-.268.189,1.913,1.913,0,0,1-.309.133c-.107.037-.187.064-.241.081l-1.128.51-.739.4a6.184,6.184,0,0,1-.9.4,2.661,2.661,0,0,1-.885.161.77.77,0,0,1-.672-.349.87.87,0,0,1-.161-.417,1.553,1.553,0,0,1,.013-.456,4.253,4.253,0,0,1,.108-.457c.045-.151.085-.3.121-.442l.215-.887q-.135.029-.551.135a5.481,5.481,0,0,1-.9.147,4.53,4.53,0,0,1-.926-.013.9.9,0,0,1-.659-.349c-.3.161-.554.295-.752.4s-.4.225-.6.35-.372.224-.5.3a1.6,1.6,0,0,0-.376.2.317.317,0,0,1-.376.041.335.335,0,0,1-.161-.3A.275.275,0,0,1,972.07,1186.254Z" fill="#333"/>
    <path id="パス_1094" data-name="パス 1094" d="M984.86,1184.965c.071-.035.237-.108.5-.215a4.287,4.287,0,0,1,.765-.241,1.426,1.426,0,0,1,.644-.014q.269.068.189.5a1.329,1.329,0,0,1-.229.483,1.841,1.841,0,0,0-.255.484,6.025,6.025,0,0,0-.308.859.9.9,0,0,0,.093.832,2.538,2.538,0,0,0,1.007-.107q.551-.162,1.007-.322a5.058,5.058,0,0,0,.511-.269c.25-.143.513-.282.792-.416a4.443,4.443,0,0,1,.765-.3q.349-.093.43.067c.071.126.026.26-.135.4a2.589,2.589,0,0,1-.6.388c-.241.118-.487.225-.738.323s-.413.166-.484.2q-.59.294-1.2.577a4.849,4.849,0,0,1-1.248.389.734.734,0,0,1-.779-.242,1.437,1.437,0,0,1-.215-.819,4.334,4.334,0,0,1,.148-1.074q.147-.578.309-1.061c-.412.161-.816.309-1.209.444a10.687,10.687,0,0,0-1.155.469q-.483.216-.966.484a.406.406,0,0,1-.47-.148q-.174-.228.147-.389ZM988,1179.54a1.549,1.549,0,0,1,.416-.6,2.5,2.5,0,0,1,.631-.417,4.12,4.12,0,0,1,.739-.255c.258-.062.506-.111.738-.147a9.688,9.688,0,0,1,1.906.08,1.456,1.456,0,0,1,.363.054.238.238,0,0,1,.174.3.394.394,0,0,1-.133.228.272.272,0,0,1-.243.067,6.428,6.428,0,0,0-1.624-.121,2.891,2.891,0,0,0-1.517.5.871.871,0,0,0-.376.429.969.969,0,0,1-.323.43.421.421,0,0,1-.563,0A.44.44,0,0,1,988,1179.54Z" fill="#333"/>
    <path id="パス_1095" data-name="パス 1095" d="M990.376,1186.281q.7-.348,1.369-.672t1.37-.591a9.636,9.636,0,0,1,1.49-.4,8.575,8.575,0,0,1,1.544-.135.654.654,0,0,1,.457.148q.16.147.026.5a.526.526,0,0,1-.483.268,9.457,9.457,0,0,0-1.409,0,4.364,4.364,0,0,0-1.357.323,2.213,2.213,0,0,0-.457.242,2.815,2.815,0,0,0-.442.362,1.112,1.112,0,0,0-.282.443.649.649,0,0,0,.053.51.969.969,0,0,0,.82.537,2.791,2.791,0,0,0,1.033-.026,2.848,2.848,0,0,0,.618-.215l.484-.242a1.8,1.8,0,0,1,.388-.148.409.409,0,0,1,.363.122.568.568,0,0,1,.013.617q-.174.348-.281.591l-.376.885q.724-.751,1.53-1.436a12.355,12.355,0,0,1,1.719-1.222c.054-.035.125-.089.215-.161a2.424,2.424,0,0,1,.3-.2,1.229,1.229,0,0,1,.322-.135.308.308,0,0,1,.269.041c.125.09.169.179.133.269a.834.834,0,0,1-.187.268q-.7.376-1.343.806a12.4,12.4,0,0,0-1.263.966,16.14,16.14,0,0,0-1.329,1.262,15.488,15.488,0,0,0-1.168,1.4l-.7,1.611q-.322.805-.644,1.638t-.7,1.639c-.053.107-.121.236-.2.388a3.615,3.615,0,0,1-.268.43,1.174,1.174,0,0,1-.35.322.692.692,0,0,1-.443.095.489.489,0,0,1-.416-.3,1.059,1.059,0,0,1-.054-.537,3.411,3.411,0,0,1,.135-.591q.093-.3.173-.483a13.916,13.916,0,0,1,1.277-2.35,24.79,24.79,0,0,1,1.624-2.162l.913-2.6a6.909,6.909,0,0,1-1.033.2,4.446,4.446,0,0,1-1.034.013,2.329,2.329,0,0,1-.874-.268,1.456,1.456,0,0,1-.55-1.826q-.215.133-.443.282a.46.46,0,0,1-.389.094.292.292,0,0,1-.323-.229A.271.271,0,0,1,990.376,1186.281Z" fill="#333"/>
    <path id="パス_1096" data-name="パス 1096" d="M1002.119,1184.965c.071-.035.237-.108.5-.215a4.277,4.277,0,0,1,.764-.241,1.431,1.431,0,0,1,.645-.014q.268.068.188.5a1.325,1.325,0,0,1-.228.483,1.843,1.843,0,0,0-.255.484,6.138,6.138,0,0,0-.309.859.906.906,0,0,0,.094.832,2.538,2.538,0,0,0,1.007-.107q.551-.162,1.007-.322a5.051,5.051,0,0,0,.511-.269c.25-.143.513-.282.792-.416a4.447,4.447,0,0,1,.765-.3q.35-.093.43.067c.071.126.026.26-.135.4a2.589,2.589,0,0,1-.6.388c-.242.118-.488.225-.739.323s-.412.166-.483.2q-.591.294-1.2.577a4.873,4.873,0,0,1-1.248.389.736.736,0,0,1-.78-.242,1.445,1.445,0,0,1-.215-.819,4.338,4.338,0,0,1,.149-1.074q.147-.578.309-1.061-.62.242-1.209.444a10.688,10.688,0,0,0-1.155.469q-.483.216-.967.484a.4.4,0,0,1-.469-.148q-.176-.228.147-.389Zm3.141-5.425a1.571,1.571,0,0,1,.416-.6,2.525,2.525,0,0,1,.632-.417,4.138,4.138,0,0,1,.738-.255c.259-.062.506-.111.739-.147a9.687,9.687,0,0,1,1.906.08,1.47,1.47,0,0,1,.363.054.238.238,0,0,1,.174.3.39.39,0,0,1-.134.228.269.269,0,0,1-.242.067,6.427,6.427,0,0,0-1.624-.121,2.891,2.891,0,0,0-1.517.5.87.87,0,0,0-.376.429.97.97,0,0,1-.323.43.421.421,0,0,1-.563,0A.442.442,0,0,1,1005.26,1179.54Z" fill="#333"/>
    <path id="パス_1097" data-name="パス 1097" d="M1007.507,1186.281c.2-.107.537-.291,1.021-.551s.98-.506,1.49-.738a6.808,6.808,0,0,1,1.41-.483q.645-.135.806.214a.533.533,0,0,1-.067.524,2.194,2.194,0,0,0-.255.47l-.323.752a6.531,6.531,0,0,1,.7-.376l.7-.323q.858-.454,1.772-.966a8.693,8.693,0,0,1,1.853-.779,1.314,1.314,0,0,1,.618-.013.77.77,0,0,1,.416.241.686.686,0,0,1,.148.457,1.109,1.109,0,0,1-.215.6,4.4,4.4,0,0,1-.524.671c-.188.2-.381.412-.577.645a1.639,1.639,0,0,1-.188.215c-.09.089-.184.192-.283.308s-.187.234-.268.35a.878.878,0,0,0-.148.308,1.026,1.026,0,0,0,.47,0,4.357,4.357,0,0,0,.565-.147q.281-.094.537-.2c.17-.072.3-.125.388-.161l1.1-.484c.071-.036.165-.09.282-.161s.236-.139.362-.2.247-.12.363-.174a.715.715,0,0,1,.282-.081.214.214,0,0,1,.241.242.42.42,0,0,1-.215.376c-.161.09-.331.174-.509.255s-.368.166-.565.255q-.376.214-.724.376c-.234.107-.475.224-.726.35-.143.071-.371.173-.685.308a4.739,4.739,0,0,1-.939.295,1.557,1.557,0,0,1-.819-.026c-.233-.081-.349-.3-.349-.659a.892.892,0,0,1,.134-.483,3.4,3.4,0,0,1,.308-.416c.117-.135.243-.264.376-.39s.256-.241.364-.348a6.11,6.11,0,0,0,.537-.565,2.188,2.188,0,0,0,.483-.805,5.575,5.575,0,0,0-1.464.376,14.821,14.821,0,0,0-1.356.618q-.78.376-1.612.846a6.249,6.249,0,0,0-1.45,1.114.53.53,0,0,1-.281.121.511.511,0,0,1-.282-.054.435.435,0,0,1-.2-.2.5.5,0,0,1-.014-.35.833.833,0,0,1,.4-.429,4.954,4.954,0,0,0,.269-.5,1.635,1.635,0,0,1,.188-.335c.035-.125.072-.256.108-.39a3.253,3.253,0,0,0,.08-.416q-.3.081-.591.187c-.2.073-.349.126-.456.162-.251.107-.5.211-.752.308s-.5.211-.752.336c-.144.072-.273.144-.39.215a2.166,2.166,0,0,1-.389.188.428.428,0,0,1-.309.041.506.506,0,0,1-.227-.122.232.232,0,0,1-.068-.2C1007.315,1186.4,1007.382,1186.335,1007.507,1186.281Z" fill="#333"/>
  </g>
</svg>
