<svg id="lineup_singleorigin_ttl" xmlns="http://www.w3.org/2000/svg" width="512.809" height="59.828" viewBox="0 0 512.809 59.828">
  <g id="グループ_269" data-name="グループ 269" transform="translate(-704.266 -2152.636)">
    <g id="グループ_268" data-name="グループ 268">
      <path id="パス_1271" data-name="パス 1271" d="M887.535,2201.985c.672,0,3.866.07,3.866,2.424a2.728,2.728,0,0,1-1.863,2.451c-.491.238-.547.267-.547.42a24.718,24.718,0,0,0,1.457,3.349,1.744,1.744,0,0,0,1.653,1.12c.14,0,.42,0,.42.223,0,.2-.28.225-.351.225h-1.751a.687.687,0,0,1-.658-.406c-.084-.14-1.078-2.312-1.232-2.661-.771-1.7-.868-1.919-1.359-1.919h-.77c-.1,0-.28.055-.322.168-.056.139-.056,1.989-.056,2.31,0,1.7,0,2.06,1.288,2.06.1,0,.294,0,.294.223s-.252.225-.406.225h-3.459c-.141,0-.351-.028-.351-.225,0-.223.2-.223.393-.223.966,0,1.106-.448,1.148-.967.028-.476.028-4.328.028-4.986a22.523,22.523,0,0,0-.112-2.83c-.182-.518-.785-.518-1.106-.518-.085,0-.379,0-.379-.252,0-.211.252-.211.421-.211Zm-.5.463c-1.008,0-1.008.63-1.008,2.073,0,2.2,0,2.242.378,2.242h1.135a2.263,2.263,0,0,0,2.535-2.214c0-.981-.532-2.1-2.354-2.1Z" fill="#333"/>
      <path id="パス_1272" data-name="パス 1272" d="M901.1,2211.749a3.64,3.64,0,0,0,3.348-1.737c.35-.546.379-.6.49-.6a.223.223,0,0,1,.238.224c0,.07-.5,1.4-.588,1.611-.35.91-.364.952-1.275.952h-6.6c-.238,0-.434,0-.434-.225s.139-.223.532-.223a.928.928,0,0,0,1.064-.729c.042-.238.056-3.46.056-3.866,0-.56,0-3.74-.042-3.992-.14-.714-.742-.714-1.3-.714-.1,0-.308,0-.308-.225s.2-.238.434-.238H903.1c.869,0,.939.028,1.219.715.084.2.6,1.484.6,1.583a.217.217,0,0,1-.223.21c-.085,0-.113-.028-.435-.477a3.408,3.408,0,0,0-2.689-1.568h-1.555a.973.973,0,0,0-.841.364c-.168.252-.168.378-.168,1.485,0,.182,0,2.087.042,2.2a.389.389,0,0,0,.336.183h1.232c1.584,0,1.584-.954,1.584-1.57,0-.042,0-.28.224-.28s.224.238.224.351c-.014.517,0,3.025,0,3.585,0,.071,0,.294-.224.294s-.224-.181-.224-.462c0-1.191-.8-1.47-1.584-1.47H899.39a.336.336,0,0,0-.364.321c-.014.112-.014,2.424-.014,2.634,0,.98,0,1.667,1.009,1.667Z" fill="#333"/>
      <path id="パス_1273" data-name="パス 1273" d="M912.716,2211.749a4.14,4.14,0,0,0,3.531-1.905c.265-.392.294-.434.391-.434a.2.2,0,0,1,.21.21c0,.084-.532,1.456-.616,1.681-.35.882-.406.9-1.316.9h-5.87c-.21,0-.406,0-.406-.225s.154-.223.5-.223a.928.928,0,0,0,1.064-.729c.042-.238.042-3.46.042-3.866,0-.56,0-3.74-.042-3.992-.125-.714-.742-.714-1.26-.714-.1,0-.308,0-.308-.225s.2-.238.406-.238h3.474c.225,0,.42,0,.42.238s-.153.225-.5.225a.936.936,0,0,0-1.064.714c-.042.252-.042,3.236-.042,3.894a37.188,37.188,0,0,0,.042,3.964.9.9,0,0,0,.966.729Z" fill="#333"/>
      <path id="パス_1274" data-name="パス 1274" d="M927.478,2212.2c-.154,0-.337-.042-.337-.225,0-.223.225-.223.561-.223a.614.614,0,0,0,.574-.616,7.524,7.524,0,0,0-.519-1.639c-.307-.785-.349-.883-.811-.883h-3.04c-.519,0-.574.14-.8.771a11.185,11.185,0,0,0-.5,1.821c0,.546.448.546.784.546.168,0,.322.028.322.223,0,.225-.21.225-.322.225H920.7c-.113,0-.294-.014-.294-.21,0-.238.154-.238.476-.238a1.178,1.178,0,0,0,1.065-.561,41.679,41.679,0,0,0,1.667-4.72c.181-.56,1.078-3.306,1.26-3.936.14-.49.224-.812,1.219-.812a.318.318,0,0,1,.308.223,9.3,9.3,0,0,1,.462,1.261c.981,3.04,1.065,3.376,1.947,5.968.8,2.381.9,2.577,1.7,2.577.182,0,.323.084.323.238,0,.21-.225.21-.323.21Zm-.659-4.048c.154,0,.35-.07.35-.224,0-.294-1.331-4.189-1.583-4.945-.084-.238-.112-.364-.21-.364s-.1.042-.252.5c-.392,1.135-1.485,4.692-1.485,4.819,0,.21.211.21.393.21Z" fill="#333"/>
      <path id="パス_1275" data-name="パス 1275" d="M941.338,2201.985c.757,0,.925,0,1.163.631.113.308.715,1.891.715,2.031a.215.215,0,0,1-.224.21c-.113,0-.155-.056-.477-.589a3.068,3.068,0,0,0-2.521-1.82c-.546,0-.882.224-.966.7-.042.252-.042,3.418-.042,4.006,0,.393,0,3.628.042,3.866.126.715.784.729,1.162.729.518,0,.631,0,.631.223s-.2.225-.421.225h-3.922c-.2,0-.406,0-.406-.225s.224-.223.308-.223c.827,0,1.345,0,1.485-.729a37.188,37.188,0,0,0,.042-3.964c0-3.46,0-3.837-.1-4.1a.874.874,0,0,0-.9-.5,3.2,3.2,0,0,0-2.522,1.807c-.336.546-.364.6-.49.6a.227.227,0,0,1-.225-.21c0-.112.631-1.793.743-2.073.224-.589.449-.589,1.149-.589Z" fill="#333"/>
      <path id="パス_1276" data-name="パス 1276" d="M951.652,2211.749a3.638,3.638,0,0,0,3.347-1.737c.351-.546.379-.6.491-.6a.223.223,0,0,1,.238.224c0,.07-.5,1.4-.588,1.611-.35.91-.364.952-1.275.952h-6.6c-.238,0-.435,0-.435-.225s.14-.223.533-.223a.928.928,0,0,0,1.064-.729c.042-.238.056-3.46.056-3.866,0-.56,0-3.74-.042-3.992-.14-.714-.742-.714-1.3-.714-.1,0-.309,0-.309-.225s.2-.238.435-.238h6.387c.869,0,.938.028,1.218.715.085.2.6,1.484.6,1.583a.218.218,0,0,1-.224.21c-.085,0-.112-.028-.434-.477a3.41,3.41,0,0,0-2.69-1.568h-1.554a.973.973,0,0,0-.841.364c-.168.252-.168.378-.168,1.485,0,.182,0,2.087.042,2.2a.389.389,0,0,0,.336.183h1.232c1.583,0,1.583-.954,1.583-1.57,0-.042,0-.28.225-.28s.224.238.224.351c-.014.517,0,3.025,0,3.585,0,.071,0,.294-.224.294s-.225-.181-.225-.462c0-1.191-.8-1.47-1.583-1.47h-1.232a.336.336,0,0,0-.364.321c-.014.112-.014,2.424-.014,2.634,0,.98,0,1.667,1.009,1.667Z" fill="#333"/>
      <path id="パス_1277" data-name="パス 1277" d="M963.409,2201.985c4.749,0,5.309,3.362,5.309,4.973,0,3.026-1.723,5.239-5.183,5.239h-3.852c-.21,0-.406,0-.406-.225s.21-.223.294-.223c.547,0,1.148,0,1.274-.729a36.294,36.294,0,0,0,.043-3.964c0-.658,0-3.656-.043-3.894a.929.929,0,0,0-1.064-.714c-.35,0-.5,0-.5-.225s.2-.238.406-.238Zm-.434.463a.867.867,0,0,0-.967.729c-.042.237-.042,3.249-.042,3.879a37.188,37.188,0,0,0,.042,3.964.882.882,0,0,0,.967.729h.672c2.382,0,3.811-2.045,3.811-4.847,0-1.764-.729-4.454-3.754-4.454Z" fill="#333"/>
      <path id="パス_1278" data-name="パス 1278" d="M980.248,2212.2c-.181,0-.392,0-.392-.225s.112-.223.659-.223c.406,0,1.078,0,1.219-.729.042-.238.042-3.46.042-3.866,0-.574,0-3.74-.042-3.992-.141-.714-.645-.714-1.569-.714-.084,0-.309,0-.309-.225s.211-.238.406-.238h4.118c.169,0,.379,0,.379.238,0,.21-.126.21-.644.21-.42,0-1.023.015-1.205.645-.056.2-.056,3.348-.056,3.992a36.958,36.958,0,0,0,.042,3.95c.126.729.631.729,1.569.729.07,0,.294,0,.294.223s-.21.225-.379.225Z" fill="#333"/>
      <path id="パス_1279" data-name="パス 1279" d="M995.9,2201.985c.757,0,.925,0,1.163.631.112.308.714,1.891.714,2.031a.215.215,0,0,1-.224.21c-.112,0-.154-.056-.476-.589a3.071,3.071,0,0,0-2.522-1.82c-.546,0-.882.224-.966.7-.042.252-.042,3.418-.042,4.006,0,.393,0,3.628.042,3.866.126.715.784.729,1.162.729.519,0,.631,0,.631.223s-.2.225-.421.225h-3.922c-.2,0-.406,0-.406-.225s.225-.223.309-.223c.826,0,1.345,0,1.484-.729a37.188,37.188,0,0,0,.042-3.964c0-3.46,0-3.837-.1-4.1a.873.873,0,0,0-.9-.5,3.2,3.2,0,0,0-2.521,1.807c-.336.546-.365.6-.491.6a.228.228,0,0,1-.224-.21c0-.112.63-1.793.743-2.073.223-.589.448-.589,1.148-.589Z" fill="#333"/>
      <path id="パス_1280" data-name="パス 1280" d="M1006.218,2211.749a3.64,3.64,0,0,0,3.348-1.737c.35-.546.379-.6.49-.6a.223.223,0,0,1,.238.224c0,.07-.5,1.4-.587,1.611-.351.91-.365.952-1.276.952h-6.6c-.238,0-.434,0-.434-.225s.14-.223.532-.223a.929.929,0,0,0,1.065-.729c.042-.238.055-3.46.055-3.866,0-.56,0-3.74-.042-3.992-.139-.714-.742-.714-1.3-.714-.1,0-.308,0-.308-.225s.2-.238.434-.238h6.387c.869,0,.939.028,1.219.715.084.2.6,1.484.6,1.583a.217.217,0,0,1-.223.21c-.085,0-.112-.028-.435-.477a3.406,3.406,0,0,0-2.689-1.568h-1.555a.972.972,0,0,0-.841.364c-.168.252-.168.378-.168,1.485,0,.182,0,2.087.042,2.2a.389.389,0,0,0,.336.183h1.233c1.583,0,1.583-.954,1.583-1.57,0-.042,0-.28.224-.28.239,0,.224.238.224.351-.014.517,0,3.025,0,3.585,0,.071,0,.294-.224.294s-.224-.181-.224-.462c0-1.191-.8-1.47-1.583-1.47h-1.233a.336.336,0,0,0-.364.321c-.014.112-.014,2.424-.014,2.634,0,.98,0,1.667,1.009,1.667Z" fill="#333"/>
      <path id="パス_1281" data-name="パス 1281" d="M1014.228,2212.2c-.168,0-.364,0-.364-.225s.21-.223.28-.223c.462,0,1.078,0,1.2-.729a37.188,37.188,0,0,0,.042-3.964c0-.658,0-3.656-.042-3.894a.915.915,0,0,0-1.036-.714c-.266,0-.462,0-.462-.225s.21-.238.378-.238h1.442c.883,0,.981,0,1.822,2.424.322.91,1.863,4.9,2.157,5.715.042.1.126.336.238.336.14,0,.224-.252.294-.434.729-1.891,1.849-4.917,2.577-6.807.407-1.065.463-1.234,1.36-1.234h1.652c.141,0,.351,0,.351.238s-.239.225-.281.225c-.56,0-1.064.014-1.176.658-.042.281-.056,3.25-.056,3.922a32.345,32.345,0,0,0,.056,3.992c.1.575.532.729,1.037.729.223,0,.42,0,.42.223s-.21.225-.365.225h-3.389c-.2,0-.407,0-.407-.225s.224-.223.308-.223c.49,0,1.093,0,1.233-.729.042-.238.042-3.7.042-4.257s-.028-3.041-.028-3.544c0-.071,0-.225-.1-.225-.083,0-.111.042-.265.463-.322.826-3.054,8.082-3.235,8.515-.141.323-.211.492-.365.492s-.238-.141-.476-.743c-.477-1.247-2.928-7.7-3.04-7.886,0-.015-.056-.113-.112-.113s-.112.071-.112.239v5.813c0,1.33,0,1.975.994,1.975.183,0,.393,0,.393.223s-.21.225-.365.225Z" fill="#333"/>
      <path id="パス_1282" data-name="パス 1282" d="M1030.4,2211.679c-.1-.252-.7-1.835-.7-1.919a.3.3,0,0,1,.308-.294c.155,0,.182.07.519.588a4.138,4.138,0,0,0,3.291,1.918,2.018,2.018,0,0,0,2.073-2.114c0-1.275-.84-1.723-2.619-2.34-1.947-.672-3.236-1.415-3.236-3.081a2.639,2.639,0,0,1,2.8-2.717,5.525,5.525,0,0,1,.995.112c.154.027.743.153.84.153a.527.527,0,0,0,.309-.084c.2-.153.224-.181.322-.181.168,0,.21.126.35.49.1.223.757,1.877.757,1.961a.221.221,0,0,1-.239.224c-.112,0-.139-.042-.364-.406a3.248,3.248,0,0,0-2.857-1.808,1.792,1.792,0,0,0-1.906,1.85c0,1.162.841,1.582,2.676,2.227,2.829.98,3.208,2.1,3.208,3.179a2.971,2.971,0,0,1-3.04,3.027,4.514,4.514,0,0,1-1.513-.281,1.822,1.822,0,0,0-.56-.14.723.723,0,0,0-.532.182c-.239.21-.266.239-.407.239C1030.7,2212.464,1030.668,2212.379,1030.4,2211.679Z" fill="#333"/>
    </g>
  </g>
  <g id="グループ_271" data-name="グループ 271" transform="translate(-704.266 -2152.636)">
    <g id="グループ_270" data-name="グループ 270">
      <path id="パス_1283" data-name="パス 1283" d="M719.739,2157.991c0,.525-.211.91-1.33,1.646a96.271,96.271,0,0,0-8.086,7,26.343,26.343,0,0,0-3.256,3.78c0,.14.141.21.314.21a46.632,46.632,0,0,0,6.231-2.1c3.746-1.435,5.636-2.136,7.072-2.136.77,0,3.254.455,3.254,1.716,0,.875-1.33,1.12-1.82,1.12-.209,0-1.12-.07-1.295-.07-2.8,0-9.487,1.365-9.487,6.371,0,3.29,2.205,3.816,6.266,4.76,1.75.42,2.1,1.471,2.1,1.785,0,.735-1.086,1.12-2.311,1.12-.246,0-7.457-.42-7.457-6.335a8.624,8.624,0,0,1,1.541-4.866,13.188,13.188,0,0,0,.84-1.085c0-.035-.035-.1-.141-.1a11.622,11.622,0,0,0-2.625,1.4c-1.888,1.365-2.379,1.716-3.465,1.716-1.435,0-1.82-1.716-1.82-2.03,0-.666.315-.981,1.33-1.891.315-.245,6.442-7.49,7.737-8.786,1.083-1.085,3.22-3.29,3.22-4.095a.589.589,0,0,0-.595-.6,4.1,4.1,0,0,0-2.241,1.261c-.945.98-1.33,1.4-2.625,1.4-1.89,0-2.451-2.975-2.451-3.081a.244.244,0,0,1,.246-.279c.106,0,1.471.244,1.715.244a4.265,4.265,0,0,0,1.225-.175c3.431-.875,3.816-.979,4.656-.979A3.173,3.173,0,0,1,719.739,2157.991Z" fill="#4d4d4d"/>
      <path id="パス_1284" data-name="パス 1284" d="M751.692,2158.621c0,.1.07.245.07.385a26.679,26.679,0,0,1,.35,3.78c0,2.346-.526,5.6-3.606,10.257-2.8,4.27-4.586,5.11-5.984,5.11-2.311,0-4.377-3.6-4.377-7.876a12.328,12.328,0,0,1,3.887-8.926,14.48,14.48,0,0,1,11.166-4.55,11.394,11.394,0,0,1,5.635,1.12,10.97,10.97,0,0,1,6.091,10.186,13.058,13.058,0,0,1-8.822,12.322,21.526,21.526,0,0,1-5.811,1.294c-.138,0-.349-.035-.349-.245,0-.1.07-.139.945-.49,3.641-1.434,11.236-4.445,11.236-13.161,0-1.365-.14-9.7-9.7-9.7C751.727,2158.131,751.692,2158.411,751.692,2158.621Zm-11.375,10.746c0,2.275.908,5.391,3.045,5.391,1.013,0,1.855-.42,4.269-4.061a20.015,20.015,0,0,0,3.432-10.185c0-2.1-.141-2.276-.6-2.276C747.141,2158.236,740.317,2162.752,740.317,2169.367Z" fill="#4d4d4d"/>
      <path id="パス_1285" data-name="パス 1285" d="M779.809,2164.747c-.139.14-3.01,3.01-3.359,3.01a.188.188,0,0,1-.176-.175c0-.14.035-.21.455-.736A61.145,61.145,0,0,0,784.116,2154c.455-1.226.49-1.365.664-1.365.246,0,2.941,1.82,2.941,2.379,0,.246-.035.281-1.191.84-.524.281-3.43,4.8-3.465,4.866a.381.381,0,0,0-.035.175c0,.385.42.63.7.77.174.1.455.28.455.6,0,.28-.141.419-.6.875-.314.349-.314.98-.314,4.235,0,9.346.07,9.975.174,14.946,0,.106.035.42.035.561a1.854,1.854,0,0,1-1.645,2c-.91,0-.91-.84-.91-1.261,0-1.54.209-13.546.209-15.821,0-.56,0-3.675-.385-3.816C780.545,2163.906,780.334,2164.151,779.809,2164.747Zm21.459-2.8a1.833,1.833,0,0,0,1.084-1.015c.246-.385.631-1.015,1.016-1.015.279,0,2.66.98,2.66,1.645a.609.609,0,0,1-.211.42c-.1.106-.524.42-.594.526-.351.384-.351.455-.351,3.884,0,1.856,0,7.456-.42,8.716a3.473,3.473,0,0,1-2.485,2.381.4.4,0,0,1-.349-.175,4.222,4.222,0,0,0-1.821-1.716c-.175-.1-1.295-.455-1.295-.665,0-.174.174-.174.77-.174,2.24,0,2.9,0,3.221-1.3a70.581,70.581,0,0,0,.244-8.857c0-.944,0-1.995-.49-1.995a1.087,1.087,0,0,0-.385.07l-3.045,1.191a1.335,1.335,0,0,0-.945.944c-.106.6-.106,6.511-.106,7.491,0,.736.035,4.236.035,5.04a1.588,1.588,0,0,1-1.574,1.611c-.736,0-.736-.8-.736-1.12,0-.7.14-4.165.14-4.971,0-.944-.035-5.635-.035-6.686,0-.279,0-.839-.349-.839a1.747,1.747,0,0,0-.456.1l-2.484.98a1.189,1.189,0,0,0-.7,1.19c-.035.98-.07,7.666-.07,9.275,0,4.306.49,4.657,6.476,4.657,4.2,0,5.846-.281,6.826-1.016.91-.665,1.819-3.08,2.274-4.516.176-.629.211-.769.422-.769s.209.1.209.84c0,.28-.035,1.715-.035,2.03a4.125,4.125,0,0,0,.349,1.645c.526.595.6.666.6.945,0,.665-.91,1.716-2.311,2.275-1.926.771-6.054.771-7.631.771-8.191,0-9.275-.63-9.38-4.481-.036-.98-.036-6.265-.036-7.526,0-3.78,0-3.885-.49-3.885a32.359,32.359,0,0,0-3.674,1.54.47.47,0,0,1-.316-.1l-.91-.525c-.106-.07-.209-.1-.209-.175s0-.1.279-.175c.734-.21,2.625-.84,3.4-1.12,1.853-.63,1.853-.735,1.853-2.17,0-.281-.068-4.8-.139-5.706,0-.175-.1-1.05-.1-1.26,0-.28.1-.385.35-.385.14,0,1.541.42,2.275.595.35.1.945.245.945.735a.687.687,0,0,1-.211.42,4.394,4.394,0,0,0-.593.665c-.211.42-.211.771-.211,3.78,0,1.366,0,1.5.42,1.5a.9.9,0,0,0,.384-.069l2.207-.875c1.155-.455,1.155-.7,1.155-3.816,0-1.084-.106-6.441-.106-7.666,0-.384.106-.419.315-.419s3.047.455,3.047.979a.8.8,0,0,1-.247.455c-.628.561-.7.631-.8.91-.141.491-.141,6.546-.141,7.352,0,.175,0,.7.525.7a3.456,3.456,0,0,0,.42-.1Z" fill="#4d4d4d"/>
      <path id="パス_1286" data-name="パス 1286" d="M826.469,2167.792c0,.7-.523,1.75-1.365,1.75-.523,0-.7-.21-1.225-1.085a8.484,8.484,0,0,0-3.185-2.905c-.106-.071-.315-.21-.315-.35,0-.49,1.994-.525,2.45-.525C824.334,2164.677,826.469,2166.077,826.469,2167.792Zm-4.3,10.851c-.106-.175-.735-.91-.84-1.085a1.475,1.475,0,0,1-.211-.666c0-.139.1-.244.316-.244.315,0,1.645.455,1.924.455,1.506,0,10.922-5.251,19.287-14.737a16.694,16.694,0,0,1,1.506-1.575.129.129,0,0,1,.141.14c0,.385-3.082,7.876-17.573,18.027-.42.28-2.1,1.855-2.554,1.855C823.389,2180.813,823.04,2180.254,822.165,2178.643Zm8.505-17.817c0,.806-.56,1.575-1.121,1.575-.384,0-.558-.139-1.818-1.644a6.1,6.1,0,0,0-3.012-1.856c-.138-.035-.525-.14-.525-.245a4.167,4.167,0,0,1,2.7-.665C830.67,2157.991,830.67,2160.721,830.67,2160.826Z" fill="#4d4d4d"/>
      <path id="パス_1287" data-name="パス 1287" d="M867.04,2175.6a24.54,24.54,0,0,0-3.432,2.871c-.664.8-.735.876-1.26.876-1.89,0-4.48-2.241-4.48-3.641,0-.245.035-1.856.349-1.856a8.607,8.607,0,0,1,1.051.666,5.788,5.788,0,0,0,2.381.805c1.715,0,10.99-6.2,16.8-11.936.56-.561,1.541-1.54,1.611-1.54a.225.225,0,0,1,.174.174C880.235,2162.332,876.139,2168.877,867.04,2175.6Zm-2.872-11.515c-.945,0-1.3-.561-2.449-2.311a7.9,7.9,0,0,0-3.185-2.87c-.141-.07-.317-.175-.317-.315s.281-.315.772-.315c3.744,0,6.685,2,6.685,4.061A1.546,1.546,0,0,1,864.168,2164.082Z" fill="#4d4d4d"/>
      <path id="パス_1288" data-name="パス 1288" d="M898.479,2157.64c0-.349.49-.349.769-.349a3.27,3.27,0,0,1,3.256,1.96c0,.42-.349.875-1.05,1.75-.176.245-.28.386-.28.56,0,.281.42.281.559.281a19.831,19.831,0,0,0,5.322-1.4,6.546,6.546,0,0,1,1.645-.56c.314,0,.49.1,1.925.945.209.1,1.12.6,1.295.7a1.267,1.267,0,0,1,.664.875c0,.49-.244.63-1.4,1.33-.385.245-.523.455-1.75,2.346a42.781,42.781,0,0,1-12.531,13.161,23.92,23.92,0,0,1-6.965,3.36.313.313,0,0,1-.316-.315c0-.14.1-.21,1.191-.8,10.676-5.881,17.326-17.816,17.326-18.9a.379.379,0,0,0-.385-.385c-.07,0-4.9,1.085-5.74,1.085-.211,0-1.156-.1-1.365-.1-.666,0-.734.069-2.205,1.75a26.248,26.248,0,0,1-4.762,4.55,10.683,10.683,0,0,1-3.359,1.855c-.176,0-.246-.1-.246-.21a29.723,29.723,0,0,1,2.765-2.625c2.836-2.835,6.162-7.666,5.881-9.766C898.688,2158.551,898.479,2157.781,898.479,2157.64Zm16.486,1.191c0,.595-.42,1.365-1.015,1.365-.491,0-.77-.21-1.856-1.505a10.992,10.992,0,0,0-2.484-2.065c-.176-.106-.526-.35-.526-.49s.28-.315.6-.315C914.161,2155.821,914.965,2158.411,914.965,2158.831Zm.84-5.285c1.436.84,1.436,1.644,1.436,2a.946.946,0,0,1-.875,1.014c-.737,0-1.086-.349-1.856-1.155a8.227,8.227,0,0,0-3.22-1.715c-.35-.1-.456-.28-.456-.384,0-.281.911-.491,1.26-.491A6.452,6.452,0,0,1,915.8,2153.546Z" fill="#4d4d4d"/>
      <path id="パス_1289" data-name="パス 1289" d="M931.731,2170.487c-2.1,4.551-5.775,6.651-6.475,6.651a.163.163,0,0,1-.175-.175,9.961,9.961,0,0,1,1.4-1.856c3.85-5.285,4.236-9.1,4.236-10.256a7.668,7.668,0,0,0-.595-3.009,2.567,2.567,0,0,1-.141-.631c0-.1.035-.175.176-.175.244,0,3.955,1.19,3.955,2.976C934.112,2164.117,932.327,2169.157,931.731,2170.487Zm5.672,3.256c0-.176.174-1.086.209-1.261.1-.665.14-3.429.14-4.3,0-4.271-.419-5.706-.666-6.581a8.995,8.995,0,0,1-.455-1.26c0-.14.141-.175.211-.175.174,0,3.85.63,3.85,2.45,0,.42-.49,2.24-.559,2.626-.14.944-.281,5.18-.281,6.335,0,.455.035,1.155.666,1.155,1.049,0,4.27-2.31,7.631-5.705.594-.595,3.57-3.746,3.709-3.746a.151.151,0,0,1,.14.141c0,.279-2.029,4.62-8.156,10.011a19.2,19.2,0,0,0-2.414,2.24c-.595.665-.91.91-1.156.945C939.256,2176.788,937.4,2174.722,937.4,2173.743Z" fill="#4d4d4d"/>
      <path id="パス_1290" data-name="パス 1290" d="M966.756,2163.976a17.736,17.736,0,0,0,2.869.21c1.891,0,7.071-.49,7.6-.594s.77-.316.77-.84c0-4.516-.944-5.636-1.364-6.091-.14-.141-.771-.735-.771-.91,0-.316,1.646-.316,1.961-.316,1.715,0,2.766,1.085,2.766,1.436a8.013,8.013,0,0,1-.456,1.295c-.07.42-.105,2.346-.105,2.87,0,1.681.035,2.065.734,2.065s2.871-.384,3.711-.525c.244-.034,1.366-.385,1.574-.385.317,0,2.172.455,2.172,1.505,0,.945-1.716.945-2.172.945s-2.414-.139-2.833-.139c-3.081,0-3.081.524-3.081,1.26,0,.525.385,8.68.456,9.451.07.63.419,3.255.419,3.78,0,1.855-1.156,3.256-2.1,3.256-.8,0-.979-.6-1.295-1.751a7.249,7.249,0,0,0-2.029-2.87,7.959,7.959,0,0,1-.77-.8c0-.07.1-.1.139-.1.07,0,2.73,1.015,3.115,1.015.455,0,.455-.56.455-.841,0-3.849-.174-8.26-.244-8.435a.306.306,0,0,0-.314-.21c-.176,0-.247.07-.842.806-5.039,6.23-10.606,9.52-11.34,9.52-.106,0-.211-.07-.211-.14a22.856,22.856,0,0,1,2.24-2.1c4.936-4.62,8.506-9.521,8.506-10.571a.367.367,0,0,0-.385-.385c-.631,0-4.76.525-5.39.665a18.33,18.33,0,0,1-2.1.665c-1.051,0-3.221-2.38-3.221-2.905,0-.14.176-.175.211-.175C965.635,2163.627,966.581,2163.941,966.756,2163.976Z" fill="#4d4d4d"/>
      <path id="パス_1291" data-name="パス 1291" d="M1004.735,2157.151c.84,0,2.765,1.225,2.765,1.82,0,.175-.07.98-.07,1.155,0,4.06.07,7.211.106,8.051.035.42.209,2.17.209,2.52,0,.91-.8,1.785-1.33,1.785-.77,0-1.575-1.855-1.575-2.764,0-.281.174-1.471.174-1.751.07-1.576.07-2.941.07-3.571,0-3.92-.175-4.725-1.259-5.985-.28-.315-.455-.525-.455-.8C1003.37,2157.361,1003.93,2157.151,1004.735,2157.151Zm9.625-.98c-.42-.56-.455-.63-.455-.7,0-.1,0-.21,1.015-.21,2.1,0,3.852.875,3.852,1.785a13.376,13.376,0,0,1-.352,1.4c-.138.945-.173,6.2-.279,7.421a22.144,22.144,0,0,1-8.752,16.241,13.884,13.884,0,0,1-3.15,2.066c-.139,0-.209-.071-.209-.175,0-.141,2.275-2.381,2.695-2.836,6.756-7.21,7-13.3,7-20.3A6.688,6.688,0,0,0,1014.36,2156.171Z" fill="#4d4d4d"/>
      <path id="パス_1292" data-name="パス 1292" d="M1041.325,2168.212c0,.735-.491,1.75-1.33,1.75-.526,0-.7-.21-1.225-1.085a9.085,9.085,0,0,0-3.186-2.87c-.1-.071-.351-.21-.351-.35,0-.525,2.24-.525,2.451-.525C1039.19,2165.132,1041.325,2166.5,1041.325,2168.212Zm-4.131,10.746c-.106-.21-.664-.945-.735-1.12a1.424,1.424,0,0,1-.175-.63.256.256,0,0,1,.279-.28c.1,0,1.682.56,2.031.56,1.891,0,11.41-5.216,17.572-10.887.385-.384,2.415-2.45,2.52-2.45a.224.224,0,0,1,.211.21c0,.07-1.75,5.5-15.473,14.142-2.134,1.33-2.275,1.435-2.554,1.645-1.3,1.015-1.436,1.12-1.821,1.12C1038.315,2181.268,1037.893,2180.464,1037.194,2178.958Zm8.365-17.747c0,.91-.594,1.645-1.154,1.645-.385,0-.526-.175-1.75-1.61a5.925,5.925,0,0,0-3.045-1.89c-.49-.175-.526-.175-.526-.315,0-.385,1.61-.736,2.661-.736a4.825,4.825,0,0,1,1.785.351A3.057,3.057,0,0,1,1045.559,2161.211Zm11.727-1.61c0,.42-.455,1.33-1.12,1.33-.525,0-.839-.385-1.714-1.75a10.921,10.921,0,0,0-2.241-2.345c-.14-.106-.455-.42-.455-.56,0-.211.42-.245.629-.245C1054.416,2156.031,1057.286,2157.746,1057.286,2159.6Zm3.675-2.38a1.029,1.029,0,0,1-.945,1.12c-.734,0-1.225-.735-1.715-1.54a8.78,8.78,0,0,0-2.836-2.276c-.314-.175-.384-.349-.384-.42,0-.314.7-.314,1.33-.314C1057.321,2153.791,1060.961,2154.8,1060.961,2157.221Z" fill="#4d4d4d"/>
      <path id="パス_1293" data-name="パス 1293" d="M1083.668,2175.6a24.587,24.587,0,0,0-3.431,2.871c-.664.8-.735.876-1.26.876-1.891,0-4.48-2.241-4.48-3.641,0-.245.035-1.856.349-1.856a8.6,8.6,0,0,1,1.051.666,5.788,5.788,0,0,0,2.381.805c1.715,0,10.99-6.2,16.8-11.936.56-.561,1.541-1.54,1.611-1.54a.225.225,0,0,1,.174.174C1096.864,2162.332,1092.768,2168.877,1083.668,2175.6Zm-2.871-11.515c-.945,0-1.3-.561-2.449-2.311a7.9,7.9,0,0,0-3.185-2.87c-.141-.07-.317-.175-.317-.315s.281-.315.772-.315c3.744,0,6.685,2,6.685,4.061A1.546,1.546,0,0,1,1080.8,2164.082Z" fill="#4d4d4d"/>
      <path id="パス_1294" data-name="パス 1294" d="M1121.833,2158.621c0,.1.068.245.068.385a26.81,26.81,0,0,1,.351,3.78c0,2.346-.525,5.6-3.6,10.257-2.8,4.27-4.586,5.11-5.986,5.11-2.311,0-4.375-3.6-4.375-7.876a12.33,12.33,0,0,1,3.884-8.926,14.485,14.485,0,0,1,11.166-4.55,11.4,11.4,0,0,1,5.637,1.12,10.973,10.973,0,0,1,6.09,10.186,13.056,13.056,0,0,1-8.82,12.322,21.542,21.542,0,0,1-5.811,1.294c-.141,0-.349-.035-.349-.245,0-.1.068-.139.943-.49,3.64-1.434,11.236-4.445,11.236-13.161,0-1.365-.139-9.7-9.695-9.7C1121.868,2158.131,1121.833,2158.411,1121.833,2158.621Zm-11.377,10.746c0,2.275.91,5.391,3.044,5.391,1.016,0,1.856-.42,4.272-4.061a20.023,20.023,0,0,0,3.43-10.185c0-2.1-.141-2.276-.6-2.276C1117.282,2158.236,1110.456,2162.752,1110.456,2169.367Z" fill="#4d4d4d"/>
      <path id="パス_1295" data-name="パス 1295" d="M1160.415,2162.891c0,1.156-2.661,2.2-3.5,2.556-.491.175-.526.315-.594,1.54-.071.77-.071,3.606-.071,3.78,0,.21,0,.63.315.63.105,0,2.975-1.19,3.535-1.4,3.465-1.3,5.041-1.4,5.951-1.4a5.361,5.361,0,0,1,5.391,5.286c0,4.62-4.865,6.72-7.736,6.72-1.995,0-3.606-1.015-3.606-2.835a3.121,3.121,0,0,1,1.75-2.765.187.187,0,0,1,.176.175c0,.1-.07.174-.141.28a1.446,1.446,0,0,0-.314.945c0,1.68,1.926,1.68,2.275,1.68,2.311,0,5.25-1.54,5.25-4.34a3.627,3.627,0,0,0-3.359-3.851c-.981,0-3.151.455-7.246,2.625-1.961,1.05-2.17,1.156-2.17,1.75,0,.385.1,1.96.1,2.311,0,1.61-.525,3.92-1.785,3.92-.945,0-1.33-.735-1.609-1.3-1.121-2.17-1.3-2.17-1.75-2.17a2.9,2.9,0,0,0-.875.21,7.033,7.033,0,0,1-1.33.7c-.385,0-2.17-1.051-2.17-2.205,0-.631.385-1.365,1.013-1.365.211,0,1.227.175,1.436.175.945,0,1.576-.175,3.641-1.191,1.785-.875,2-.979,2-1.96,0-.8-.035-3.78-.071-4.375,0-.245-.105-.77-.49-.77a8.227,8.227,0,0,0-1.611.315,7.494,7.494,0,0,1-2.485.665c-1.189,0-2.519-2.416-2.519-2.66a.247.247,0,0,1,.279-.245c.106,0,.526.14.629.14a10.18,10.18,0,0,0,1.611.174,15.312,15.312,0,0,0,4.446-1.049,26.065,26.065,0,0,0,.349-3.816,3.435,3.435,0,0,0-1.154-2.8,3.463,3.463,0,0,1-.49-.559c0-.316.56-.385.769-.385,2.346,0,3.606,1.715,3.606,2.38a13.943,13.943,0,0,1-.735,1.82,18.743,18.743,0,0,0-.349,2.276c0,.139.068.384.279.384.244,0,1.225-.384,1.225-.875,0-.07-.174-.42-.174-.49,0-.035.068-.1.139-.139C1158.735,2161.316,1160.415,2161.806,1160.415,2162.891Zm-7.981,13.407c0,.525.945,1.645,1.471,1.645.49,0,.98-.98.98-2.7,0-.141,0-.49-.1-.561C1154.674,2174.687,1152.434,2175.807,1152.434,2176.3Zm23-10.886c0,.734-.42,1.68-1.156,1.68-.209,0-1.014-.07-1.19-.07-.173.034-.91.244-1.05.244a.162.162,0,0,1-.174-.174,2.336,2.336,0,0,1,.1-.28,1.871,1.871,0,0,0,.139-.631c0-1.4-1.75-1.889-2.94-1.889a3.035,3.035,0,0,0-1.365.349.779.779,0,0,1-.349.106c-.106,0-.141-.035-.141-.141a4.479,4.479,0,0,1,3.781-2.205C1173.788,2162.4,1175.432,2163.8,1175.432,2165.412Z" fill="#4d4d4d"/>
      <path id="パス_1296" data-name="パス 1296" d="M1207.87,2166.077a30.819,30.819,0,0,0,8.47,2.765c.139,0,.735.1.735.245,0,.1-.491.245-.631.28a6.07,6.07,0,0,0-2.66,1.891c-.1.139-.491.875-.664.875-.211,0-7.807-3.676-11.237-9.277-.666-1.12-.769-1.224-1.015-1.224s-.315.069-1.084.875a41.633,41.633,0,0,1-10.362,8.155,30.233,30.233,0,0,1-5.5,2.24c-.1,0-.176-.069-.176-.1s3.747-2.346,4.061-2.556c4.727-2.976,9.732-8.331,10.223-10.956.033-.28.068-.385.314-.385.174,0,3.01,1.085,3.186,1.191.1.034.455.174.455.524a2.206,2.206,0,0,1-.141.49C1201.918,2161.632,1204.928,2164.572,1207.87,2166.077ZM1191,2157.361c-2.59,0-3.78.069-4.446.1-.1,0-.629.07-.734.07s-.176-.07-.317-.21l-.664-.806c-.14-.174-.14-.174-.14-.244s.035-.07.1-.07c.244,0,1.33.1,1.541.1,1.715.071,3.184.141,4.83.141h1.016c.734,0,.943-.351.943-.945a5.672,5.672,0,0,0-.279-1.856,5.251,5.251,0,0,1-.209-.7c0-.175.174-.245.385-.245.244,0,1.82.386,2.205.49,1.049.28,1.26.351,1.26.665,0,.21-.035.28-.526.91a.861.861,0,0,0-.244.63c0,.841.279,1.051,1.225,1.051h5.775c.315,0,1.051,0,1.051-.945a14.266,14.266,0,0,0-.106-1.576c-.035-.174-.21-.91-.21-1.049,0-.176.21-.245.386-.245.244,0,2.625.559,3.01.665s.594.245.594.559c0,.21-.139.351-.524.63a1.124,1.124,0,0,0-.455.981c0,.98.559.98,1.119.98h1.785c1.542,0,1.715,0,2.241-.6.98-1.154,1.086-1.295,1.4-1.295.211,0,3.256,1.856,3.256,2.311,0,.49-.7.49-1.855.49h-6.827c-1.084,0-1.084.56-1.084,1.4,0,.21.036,1.4.036,1.575,0,1.3-1.051,1.506-1.786,1.506-.806,0-.945-.141-.945-1.33V2158.1c-.1-.666-.525-.735-1.086-.735h-5.6c-.806,0-1.3,0-1.3.98,0,.35.1,1.89.1,2.2,0,.665-.1.98-.42,1.19a2.485,2.485,0,0,1-1.33.49c-.6,0-.875-.384-.875-1.085,0-.28.035-1.61.035-1.855,0-1.365,0-1.925-1.086-1.925Zm2.486,17.887a18.086,18.086,0,0,1,2.695,1.644.877.877,0,0,1,.28.526c0,.42-.28.49-1.12.7-.1.035-3.117,2.38-3.675,2.8a21.547,21.547,0,0,1-5.321,3.045.113.113,0,0,1-.1-.106c0-.069,1.855-1.679,2.1-1.925,2.907-2.765,4.692-5.53,5.006-6.65A.213.213,0,0,1,1193.483,2175.248Zm1.609-1.856c-2.73,0-3.746.036-4.445.106-.106,0-.631.069-.734.069s-.176-.069-.317-.21l-.664-.8c-.141-.175-.141-.175-.141-.246,0-.035.036-.07.106-.07.244,0,1.33.106,1.539.106,1.717.1,3.186.139,4.832.139h2.625c.35,0,1.049,0,1.049-.945,0-.42-.209-3.255-.279-3.606,0-.069-.209-.419-.209-.489s.068-.21.349-.21c.244,0,2.7.525,3.045.63.49.1.666.42.666.595,0,.21-.07.28-.6.735-.49.42-.49.63-.49,1.68,0,1.261,0,1.61,1.051,1.61h1.539c1.541,0,1.715,0,2.24-.594.981-1.156,1.086-1.295,1.4-1.295.211,0,3.256,1.889,3.256,2.309,0,.49-.7.49-1.856.49h-6.615c-1.051,0-1.051.63-1.051,1.75,0,2.486,0,3.886.07,5.952.035.594.035,1.434.035,1.854,0,1.12-.281,1.786-1.785,1.786-.771,0-.84-.631-.84-1.225,0-.455.1-2.556.1-3.011.035-1.33.035-2.625.035-4.235a21.22,21.22,0,0,0-.07-2.38c-.174-.491-.734-.491-1.014-.491Zm9.346,2.941c0-.106.176-.14.316-.14,1.295,0,9.276,2.2,9.276,5.111,0,1.12-.631,2-1.506,2-.664,0-.805-.175-1.891-1.786a16.643,16.643,0,0,0-6.019-5.041C1204.579,2176.472,1204.438,2176.368,1204.438,2176.333Z" fill="#4d4d4d"/>
    </g>
  </g>
</svg>
