<svg id="lineup_black_graph" xmlns="http://www.w3.org/2000/svg" width="285.778" height="252.307" viewBox="0 0 285.778 252.307">
  <path id="パス_1098" data-name="パス 1098" d="M1175.875,1348.579l-53.7-42.81-50.508,50.508,20.709,62.851,29.8,59.086,62.851-20.709,16.276-47.531,42.81-53.7Z" transform="translate(-1015.21 -1265.805)" fill="#dbdfb8"/>
  <path id="パス_1099" data-name="パス 1099" d="M1193.608,1305.769h-71.429l-50.508,50.508v71.429l50.508,50.508h71.429l50.508-50.508v-71.429Z" transform="translate(-1015.21 -1265.805)" fill="none" stroke="#999" stroke-miterlimit="10" stroke-width="0.5"/>
  <path id="パス_1100" data-name="パス 1100" d="M1185.03,1326.478h-54.273l-38.377,38.377v54.273l38.377,38.377h54.273l38.377-38.377v-54.273Z" transform="translate(-1015.21 -1265.805)" fill="none" stroke="#999" stroke-miterlimit="10" stroke-width="0.5"/>
  <path id="パス_1101" data-name="パス 1101" d="M1175.875,1348.579h-35.964l-25.43,25.43v35.964l25.43,25.43h35.964l25.43-25.43v-35.964Z" transform="translate(-1015.21 -1265.805)" fill="none" stroke="#999" stroke-miterlimit="10" stroke-width="0.5"/>
  <path id="パス_1102" data-name="パス 1102" d="M1167.092,1369.785h-18.4l-13.008,13.008v18.4L1148.7,1414.2h18.4l13.008-13.008v-18.4Z" transform="translate(-1015.21 -1265.805)" fill="none" stroke="#999" stroke-miterlimit="10" stroke-width="0.5"/>
  <g id="グループ_223" data-name="グループ 223" transform="translate(-1015.21 -1265.805)">
    <path id="パス_1103" data-name="パス 1103" d="M1097.584,1269.495c0,.33.09.405.495.5a25.734,25.734,0,0,0,3.675.119c3.795,0,4.364-.029,4.649-.3a3.272,3.272,0,0,0,.436-1.814,3.619,3.619,0,0,0,.914.405,3.813,3.813,0,0,1-.7,2.13c-.436.4-.945.449-5.985.449a16.076,16.076,0,0,1-3.795-.224c-.48-.151-.63-.39-.63-1.02v-2.52a6.571,6.571,0,0,0-.09-1.29h1.125a5.02,5.02,0,0,0-.09,1.23v.7c1.529-.165,2.654-.33,3.855-.57a19.133,19.133,0,0,0,4.6-1.305l.735.9c-2.774.78-2.774.78-4.08,1.049-1.875.361-3.134.556-5.114.765Zm6.96,2.82a13.971,13.971,0,0,0,1.814-.074,13.948,13.948,0,0,0-.075,1.829v3.225a13.267,13.267,0,0,0,.09,1.86h-1.034v-.705h-7.186v.705h-1.019a13.132,13.132,0,0,0,.09-1.86v-3.225c0-.84-.031-1.335-.076-1.829a13.2,13.2,0,0,0,1.8.074Zm-6.391,2.566h7.186v-1.726h-7.186Zm0,2.729h7.186V1275.7h-7.186Z" fill="#4d4d4d"/>
    <path id="パス_1104" data-name="パス 1104" d="M1111.274,1277.13a12.008,12.008,0,0,0,.09-1.619v-7.02c0-.615-.029-1.11-.059-1.455a9.154,9.154,0,0,0,1.229.06h1.335a9.665,9.665,0,0,0,1.261-.06,12.916,12.916,0,0,0-.045,1.394v6.21a16.326,16.326,0,0,0,.06,1.65h-.96v-.779h-1.906v1.619Zm1.005-2.46h1.906v-6.7h-1.906Zm9.855-6.449a10.576,10.576,0,0,0,1.575-.09v1.035a11.636,11.636,0,0,0-1.59-.091h-1.965v2.535h2.536a11.972,11.972,0,0,0,1.709-.09v1.035a11.747,11.747,0,0,0-1.7-.089h-2.295a11.755,11.755,0,0,0,1.651,2.489,12.1,12.1,0,0,0,2.819,2.3,3.965,3.965,0,0,0-.645.93,16.541,16.541,0,0,1-2.415-2.205,10.087,10.087,0,0,1-1.724-2.79c.045.555.059.975.059,1.65v2.94a10.443,10.443,0,0,0,.09,1.59h-1.08a12.132,12.132,0,0,0,.09-1.59v-2.94c0-.57,0-.765.061-1.65a12.238,12.238,0,0,1-4.56,5.19,3.357,3.357,0,0,0-.721-.735,13.084,13.084,0,0,0,4.965-5.174h-2.1a8.653,8.653,0,0,0-1.44.074v-1.005a8.639,8.639,0,0,0,1.455.075h2.34v-2.535h-1.68a12.135,12.135,0,0,0-1.545.075v-1.005a14.764,14.764,0,0,0,1.545.076h1.68v-1.2a6.6,6.6,0,0,0-.074-1.215h1.05a6.687,6.687,0,0,0-.076,1.215v1.2Z" fill="#4d4d4d"/>
  </g>
  <g id="グループ_224" data-name="グループ 224" transform="translate(-1015.21 -1265.805)">
    <path id="パス_1105" data-name="パス 1105" d="M1194.239,1266.9a6.318,6.318,0,0,0-.091-1.08h1.1a6.287,6.287,0,0,0-.091,1.08v.48h3.6v-.48a6.418,6.418,0,0,0-.09-1.08h1.1a6.07,6.07,0,0,0-.09,1.08v.48h2.324a12.1,12.1,0,0,0,1.681-.09v1.034a12.43,12.43,0,0,0-1.681-.074h-2.324v.405a5.331,5.331,0,0,0,.074.975h-1.05a6.68,6.68,0,0,0,.061-.975v-.405h-3.6v.405a6.582,6.582,0,0,0,.061.989h-1.05a6.313,6.313,0,0,0,.075-.989v-.405h-2.175a12.168,12.168,0,0,0-1.665.074v-1.034a12.14,12.14,0,0,0,1.665.09h2.175Zm6.555,7.169a7.386,7.386,0,0,0,1.1-.059,7.114,7.114,0,0,0-.075,1.2v2.805a9.944,9.944,0,0,0,.089,1.365h-1.049v-.855h-7.5v.855h-1.05a10.252,10.252,0,0,0,.09-1.365v-2.805a.77.77,0,1,1,1.02-1.14h3.015v-2.01h-4.32a15.733,15.733,0,0,0-1.7.076v-1.05a12.03,12.03,0,0,0,1.7.09h4.32v-.855a5.268,5.268,0,0,0-.09-1.216h1.109a6.817,6.817,0,0,0-.09,1.216v.855h4.606a12,12,0,0,0,1.694-.09v1.05a16.129,16.129,0,0,0-1.694-.076h-4.606v2.01Zm-7.44,3.57h7.5v-2.714h-7.5Z" fill="#4d4d4d"/>
    <path id="パス_1106" data-name="パス 1106" d="M1206.889,1277.13a12.171,12.171,0,0,0,.09-1.619v-7.02c0-.615-.03-1.11-.06-1.455a9.156,9.156,0,0,0,1.229.06h1.335a9.665,9.665,0,0,0,1.261-.06,12.916,12.916,0,0,0-.045,1.394v6.21a16.326,16.326,0,0,0,.06,1.65h-.96v-.779h-1.9v1.619Zm1.005-2.46h1.9v-6.7h-1.9Zm9.854-6.449a10.576,10.576,0,0,0,1.575-.09v1.035a11.637,11.637,0,0,0-1.59-.091h-1.964v2.535h2.535a12,12,0,0,0,1.71-.09v1.035a11.772,11.772,0,0,0-1.7-.089h-2.3a11.8,11.8,0,0,0,1.651,2.489,12.145,12.145,0,0,0,2.819,2.3,3.932,3.932,0,0,0-.644.93,16.44,16.44,0,0,1-2.415-2.205,10.063,10.063,0,0,1-1.725-2.79c.045.555.06.975.06,1.65v2.94a10.451,10.451,0,0,0,.089,1.59h-1.08a12.132,12.132,0,0,0,.09-1.59v-2.94c0-.57,0-.765.061-1.65a12.238,12.238,0,0,1-4.56,5.19,3.311,3.311,0,0,0-.721-.735,13.084,13.084,0,0,0,4.965-5.174h-2.1a8.673,8.673,0,0,0-1.441.074v-1.005a8.639,8.639,0,0,0,1.455.075h2.34v-2.535h-1.679a12.116,12.116,0,0,0-1.545.075v-1.005a14.75,14.75,0,0,0,1.545.076h1.679v-1.2a6.505,6.505,0,0,0-.074-1.215h1.05a6.7,6.7,0,0,0-.075,1.215v1.2Z" fill="#4d4d4d"/>
  </g>
  <g id="グループ_225" data-name="グループ 225" transform="translate(-1015.21 -1265.805)">
    <path id="パス_1107" data-name="パス 1107" d="M1280.284,1337.3a11.227,11.227,0,0,0-.09-1.726h1.186a11.294,11.294,0,0,0-.106,1.726v.84h.975a13.649,13.649,0,0,0,1.771-.106v1.14a14.777,14.777,0,0,0-1.771-.1h-.975v7.995a14.193,14.193,0,0,0,.106,1.77h-1.1v-.96h-5.834v.96h-1.095a12.112,12.112,0,0,0,.1-1.755v-8.01h-.976a11.481,11.481,0,0,0-1.71.1v-1.14a11.087,11.087,0,0,0,1.71.106h.976v-.9a9.75,9.75,0,0,0-.1-1.665h1.185a11.983,11.983,0,0,0-.09,1.665v.9h5.834Zm-5.834,1.769v3.24h5.834v-3.24Zm0,4.155v3.735h5.834v-3.735Z" fill="#4d4d4d"/>
    <path id="パス_1108" data-name="パス 1108" d="M1287.241,1346.746a11.99,11.99,0,0,0,.09-1.62v-7.02c0-.615-.029-1.11-.059-1.455a9.142,9.142,0,0,0,1.229.06h1.335a9.671,9.671,0,0,0,1.261-.06,12.686,12.686,0,0,0-.045,1.4v6.21a16.425,16.425,0,0,0,.059,1.65h-.96v-.78h-1.905v1.62Zm1.005-2.46h1.905v-6.7h-1.905Zm9.855-6.45a10.426,10.426,0,0,0,1.575-.09v1.035a11.827,11.827,0,0,0-1.59-.09h-1.965v2.535h2.535a12.137,12.137,0,0,0,1.71-.089v1.034a11.718,11.718,0,0,0-1.695-.09h-2.3a11.781,11.781,0,0,0,1.65,2.49,12.135,12.135,0,0,0,2.82,2.295,3.971,3.971,0,0,0-.645.93,16.484,16.484,0,0,1-2.415-2.205,10.079,10.079,0,0,1-1.724-2.79c.045.555.059.975.059,1.65v2.94a10.441,10.441,0,0,0,.09,1.59h-1.08a12.306,12.306,0,0,0,.09-1.59v-2.94c0-.57,0-.765.06-1.65a12.235,12.235,0,0,1-4.559,5.19,3.36,3.36,0,0,0-.721-.735,13.093,13.093,0,0,0,4.965-5.175h-2.1a8.63,8.63,0,0,0-1.44.075v-1.005a8.725,8.725,0,0,0,1.455.075h2.34v-2.535h-1.68a11.984,11.984,0,0,0-1.545.075v-1a15.05,15.05,0,0,0,1.545.074h1.68v-1.2a6.58,6.58,0,0,0-.074-1.215h1.049a6.776,6.776,0,0,0-.075,1.215v1.2Z" fill="#4d4d4d"/>
  </g>
  <g id="グループ_226" data-name="グループ 226" transform="translate(-1015.21 -1265.805)">
    <path id="パス_1109" data-name="パス 1109" d="M1272.215,1432.254a10.667,10.667,0,0,0-1.455.09v-.975a9.637,9.637,0,0,0,1.455.09h3.3a9.18,9.18,0,0,0,1.394-.09v.96a9.542,9.542,0,0,0-1.38-.09h-.659v1.785h.494a11.382,11.382,0,0,0,1.17-.045,13.944,13.944,0,0,0-.045,1.575v6.674l.016.795.015.555c-.225-.015-.855-.029-1.23-.029h-3.33v1.139h-.9a13.221,13.221,0,0,0,.089-1.71v-7.394c0-.645-.014-1.125-.059-1.62a8.034,8.034,0,0,0,1.184.06h.526v-1.77Zm-.27,8.144h3.749v-1.9c-.3.016-.389.016-.464.016a1.435,1.435,0,0,1-.871-.165c-.134-.1-.165-.226-.165-.661v-2.955h-.7v.165c0,2.311-.285,3.571-1.05,4.71a3.414,3.414,0,0,0-.495-.585Zm0-1.469c.63-.84.855-1.89.855-4.05v-.151h-.855Zm0,3.839h3.749v-1.65h-3.749Zm1.545-8.744h.7v-1.785h-.7Zm1.38,3.449c0,.286.029.316.3.316h.524v-3.061h-.824Zm7.2.915a5.585,5.585,0,0,0,1.005-.075l.526.555a6.548,6.548,0,0,0-.391.585,11.3,11.3,0,0,1-1.9,2.4,8.3,8.3,0,0,0,3.389,1.7,4.516,4.516,0,0,0-.45.944,10.553,10.553,0,0,1-3.585-2.085,11.589,11.589,0,0,1-3.989,2.13,2.881,2.881,0,0,0-.54-.825,9.949,9.949,0,0,0,3.93-1.86,8.965,8.965,0,0,1-1.425-1.95,10.442,10.442,0,0,1-1.41,1.41,2.515,2.515,0,0,0-.585-.675,7.466,7.466,0,0,0,2.25-2.415,5.071,5.071,0,0,0,.615-1.379l.9.285a14.4,14.4,0,0,1-.705,1.259Zm-1.32-4.3c-.449.045-.659.075-1.2.135a4.941,4.941,0,0,1-.42,1.695,4.255,4.255,0,0,1-1.995,2.024,2.827,2.827,0,0,0-.555-.719,3.137,3.137,0,0,0,2.13-2.925c-1.365.105-1.365.105-1.755.165l-.1-.93a6.87,6.87,0,0,0,.764.029h.391a11.63,11.63,0,0,0,1.274-2.8l.931.33a25.187,25.187,0,0,1-1.29,2.429,28.057,28.057,0,0,0,3.569-.419,10.323,10.323,0,0,0-1.29-1.29l.646-.42a17.722,17.722,0,0,1,2.46,2.7l-.75.495c-.271-.42-.361-.54-.571-.856-.929.181-.929.181-1.41.241v2.174c0,.271.09.3.75.3.675,0,.946-.045,1.05-.194a2.947,2.947,0,0,0,.181-1.215,1.888,1.888,0,0,0,.75.315c-.151,1.695-.3,1.83-2.04,1.83-1.306,0-1.516-.12-1.516-.826Zm-1.545,5.054c-.029.045-.045.061-.09.121a8.19,8.19,0,0,0,1.576,2.054,9.471,9.471,0,0,0,1.74-2.175Z" fill="#4d4d4d"/>
    <path id="パス_1110" data-name="パス 1110" d="M1287.384,1442.333a12.161,12.161,0,0,0,.09-1.619v-7.02c0-.615-.03-1.11-.06-1.455a9.163,9.163,0,0,0,1.23.06h1.335a9.658,9.658,0,0,0,1.26-.06,12.939,12.939,0,0,0-.045,1.4v6.21a16.317,16.317,0,0,0,.06,1.649h-.96v-.779h-1.9v1.619Zm1.005-2.46h1.9v-6.7h-1.9Zm9.854-6.449a10.567,10.567,0,0,0,1.575-.09v1.035a11.652,11.652,0,0,0-1.589-.09h-1.965v2.534h2.535a11.834,11.834,0,0,0,1.71-.09v1.036a11.735,11.735,0,0,0-1.7-.09h-2.295a11.806,11.806,0,0,0,1.65,2.49,12.176,12.176,0,0,0,2.819,2.294,3.938,3.938,0,0,0-.644.931,16.5,16.5,0,0,1-2.415-2.205,10.085,10.085,0,0,1-1.725-2.791c.045.555.06.976.06,1.65v2.94a10.319,10.319,0,0,0,.09,1.59h-1.081a12.132,12.132,0,0,0,.09-1.59v-2.94c0-.569,0-.765.061-1.65a12.238,12.238,0,0,1-4.56,5.19,3.305,3.305,0,0,0-.72-.734,13.1,13.1,0,0,0,4.964-5.175h-2.1a8.673,8.673,0,0,0-1.441.074v-1a8.772,8.772,0,0,0,1.455.074h2.34v-2.534h-1.679a12.133,12.133,0,0,0-1.545.074v-1.005a14.75,14.75,0,0,0,1.545.076h1.679v-1.2a6.486,6.486,0,0,0-.074-1.214h1.05a6.688,6.688,0,0,0-.075,1.214v1.2Z" fill="#4d4d4d"/>
  </g>
  <g id="グループ_227" data-name="グループ 227" transform="translate(-1015.21 -1265.805)">
    <path id="パス_1111" data-name="パス 1111" d="M1015.78,1434.864a18.773,18.773,0,0,1,2.61,1.9l-.616.826a12.44,12.44,0,0,0-2.564-2.025Zm2.67,4.949a25.462,25.462,0,0,1-1.98,4.05c-.18.3-.225.39-.315.57l-.885-.8a12.834,12.834,0,0,0,2.37-4.424Zm-1.785-8.534a13.537,13.537,0,0,1,2.415,1.965l-.63.765a11.967,11.967,0,0,0-2.415-2.07Zm10.44,4.935a10.54,10.54,0,0,0,1.544-.09v1.019a11.3,11.3,0,0,0-1.544-.089h-6.991a9.419,9.419,0,0,0-1.439.075v-.991a8.643,8.643,0,0,0,1.41.076h.465v-2.685a8.511,8.511,0,0,0-.09-1.306h1.095a8.168,8.168,0,0,0-.09,1.321v2.67h1.9v-3.885a7.9,7.9,0,0,0-.09-1.29h1.111a7.721,7.721,0,0,0-.09,1.305v.78h2.25a8.884,8.884,0,0,0,1.364-.09v1.02a9.383,9.383,0,0,0-1.38-.09H1024.3v2.25Zm-4.065,5.835a19.463,19.463,0,0,1-3.255,2.054c-.3.15-.42.21-.6.315l-.495-.989a6.063,6.063,0,0,0,1.6-.691,13.3,13.3,0,0,0,2.43-1.59Zm-2.775-4.425a17.851,17.851,0,0,1,2.745,2.039l-.66.75a12.655,12.655,0,0,0-2.745-2.1Zm3.764,2.279a11.255,11.255,0,0,0,1.71-1.26,5.808,5.808,0,0,0,1.066-1.154l.84.614a17.41,17.41,0,0,1-2.955,2.505Zm3.811,4.56a18.7,18.7,0,0,0-3.766-2.64l.616-.644a22.452,22.452,0,0,1,3.719,2.4Z" fill="#4d4d4d"/>
    <path id="パス_1112" data-name="パス 1112" d="M1032.813,1432.239a7.153,7.153,0,0,0,1.455.09c.824,0,2.024-.045,2.519-.106a1.09,1.09,0,0,0,.555-.179l.795.63a7.906,7.906,0,0,0-.824,2.174c-.331,1.021-.436,1.306-.706,2.1a11.738,11.738,0,0,1,4.095,1.185,17.008,17.008,0,0,0,.18-3.045,3.665,3.665,0,0,0-.06-.736l1.125.016a5.679,5.679,0,0,0-.06.93,20.5,20.5,0,0,1-.27,3.255c.81.419,1.32.689,2.055,1.125a2.806,2.806,0,0,0,.435.224l-.405,1.155a17.258,17.258,0,0,0-2.34-1.484,7.078,7.078,0,0,1-1.545,2.714,8.089,8.089,0,0,1-2.385,1.83,3.885,3.885,0,0,0-.8-.78,6.6,6.6,0,0,0,2.43-1.725,5.835,5.835,0,0,0,1.38-2.519,11.037,11.037,0,0,0-4.139-1.246,29.284,29.284,0,0,1-1.41,3.616c-.541,1.034-1.095,1.484-1.816,1.484a2.214,2.214,0,0,1-1.979-2.46,3.37,3.37,0,0,1,1.785-2.97,4.9,4.9,0,0,1,2.7-.644c.495-1.47.675-2.04,1.2-3.78-1.184.089-1.41.1-2.835.15a8.268,8.268,0,0,0-1.095.075Zm0,6.51a2.488,2.488,0,0,0-.72,1.724c0,.795.434,1.425.974,1.425.616,0,1.125-.929,2.22-4.125A3.634,3.634,0,0,0,1032.813,1438.749Z" fill="#4d4d4d"/>
  </g>
  <g id="グループ_228" data-name="グループ 228" transform="translate(-1015.21 -1265.805)">
    <path id="パス_1113" data-name="パス 1113" d="M1090.026,1506.128a9.98,9.98,0,0,0,1.5-.091v1.035a10.571,10.571,0,0,0-1.5-.09h-4.844c-.016,2.43-.016,2.43-.075,3.54a4.839,4.839,0,0,0,.36,1.755,5.815,5.815,0,0,0,1.784,2.625,10.057,10.057,0,0,0,4.35,2.19,2.953,2.953,0,0,0-.539.945c-3.316-1.02-5.715-3.09-6.316-5.43-.854,2.7-2.79,4.455-6.059,5.505a4.426,4.426,0,0,0-.6-.915c2.729-.735,4.515-2.055,5.46-3.975a6.752,6.752,0,0,0,.63-2.85c.045-.87.045-.87.045-3.39h-4.545a11.02,11.02,0,0,0-1.5.09v-1.035a10.11,10.11,0,0,0,1.5.091h4.545a10.518,10.518,0,0,0-.075-1.62h1.125a8.174,8.174,0,0,0-.09,1.62Zm-7.785,8.129c-.524-.495-.719-.675-1.064-.96a10.074,10.074,0,0,1-2.28,1.425,3.354,3.354,0,0,0-.6-.72,8.7,8.7,0,0,0,2.22-1.215,13.467,13.467,0,0,0-1.486-1.005l.646-.479c.66.419.87.554,1.455.974a5.225,5.225,0,0,0,1.14-1.38l.75.51c-.076.09-.076.09-.451.525a8.5,8.5,0,0,1-.8.825c.331.255.526.42,1.081.885Zm-2.4-6.584c.809.465,1.08.63,1.59.974a4.241,4.241,0,0,0,1.019-1.29l.75.481a2.687,2.687,0,0,0-.359.4,7.332,7.332,0,0,1-.766.84c.481.346.691.495,1.29.975l-.585.615c-.569-.51-.8-.69-1.274-1.065a10.806,10.806,0,0,1-2.46,1.575,3.619,3.619,0,0,0-.6-.675,8.879,8.879,0,0,0,2.4-1.35,15.627,15.627,0,0,0-1.606-.96Zm6.854-.076c.84.51,1.125.69,1.725,1.11a4.117,4.117,0,0,0,1.02-1.305l.81.51c-.075.06-.24.255-.314.33-.016.03-.165.2-.42.48a4.254,4.254,0,0,1-.451.45c.555.405.75.555,1.38,1.08l-.615.6c-.63-.585-.84-.765-1.349-1.17a10.76,10.76,0,0,1-2.22,1.4,2.533,2.533,0,0,0-.571-.675,7.86,7.86,0,0,0,2.13-1.2c-.554-.375-.855-.569-1.724-1.095Zm.451,3.615c.854.525,1.125.7,1.62,1.051a3.744,3.744,0,0,0,.884-1.156l.765.51c-.12.12-.21.225-.434.5a6.611,6.611,0,0,1-.571.615c.54.4.78.6,1.515,1.215l-.614.615c-.691-.645-.931-.855-1.471-1.29-.239.2-.449.36-.734.57-.061.03-.361.21-.931.555a2.985,2.985,0,0,0-.585-.66,6.869,6.869,0,0,0,1.605-.945c-.525-.375-.825-.555-1.665-1.065Z" fill="#4d4d4d"/>
    <path id="パス_1114" data-name="パス 1114" d="M1097.138,1505.513a6.077,6.077,0,0,0,.285.915c.3.884.45,1.3.66,1.979a26.6,26.6,0,0,1,3.225-.84,20.833,20.833,0,0,0-.06-2.655h1.125a14.149,14.149,0,0,0-.075,2.025c0,.015,0,.3.015.48a7.553,7.553,0,0,1,1.125-.09c2.009,0,3.3,1.08,3.3,2.76,0,1.8-1.469,3.09-3.524,3.09a6.352,6.352,0,0,1-2.535-.555,2.3,2.3,0,0,0,.014-.27,6.591,6.591,0,0,0-.089-.855,5.1,5.1,0,0,0,2.52.69,3.038,3.038,0,0,0,1.8-.585,1.82,1.82,0,0,0,.72-1.53c0-1.14-.885-1.814-2.4-1.814a17.667,17.667,0,0,0-4.889,1.064c.765,2.55,1.3,4.665,1.935,7.485a4.768,4.768,0,0,0,.194.645l-1.214.27a53.456,53.456,0,0,0-1.89-8.1,6.448,6.448,0,0,1-.811.27,14.3,14.3,0,0,0-2.054.826l-.39-1.066a16.458,16.458,0,0,0,2.2-.7c.375-.135.525-.165.765-.24a15.089,15.089,0,0,0-1.08-2.85Z" fill="#4d4d4d"/>
    <path id="パス_1115" data-name="パス 1115" d="M1110.273,1508.678c.541-.016,2.1-.2,3.315-.391a18.224,18.224,0,0,0,.45-3.18v-.2l1.2.136a9.233,9.233,0,0,0-.285,1.439c-.075.436-.18.99-.314,1.71a8.7,8.7,0,0,1,.884-.045,2.871,2.871,0,0,1,2.161.63,3.033,3.033,0,0,1,.734,2.415c0,2.295-.39,4.29-1.005,5.16a1.567,1.567,0,0,1-1.47.7,5.637,5.637,0,0,1-2.264-.585,3.369,3.369,0,0,0,.029-.525,2.9,2.9,0,0,0-.045-.6,5.613,5.613,0,0,0,2.235.69c.375,0,.661-.24.855-.72a11.613,11.613,0,0,0,.63-4.17c0-1.59-.449-2.1-1.845-2.1a8.593,8.593,0,0,0-1.08.074,28.3,28.3,0,0,1-2.265,6.36c-.195.36-.509.96-.974,1.8l-1.021-.6a14.435,14.435,0,0,0,1.561-2.715,24.848,24.848,0,0,0,1.649-4.754c-1.29.194-2.01.314-2.144.344a8.243,8.243,0,0,0-.87.2Zm9.855-1.38a13.553,13.553,0,0,1,3.135,5.309l-.96.555a12.284,12.284,0,0,0-3.06-5.385Z" fill="#4d4d4d"/>
    <path id="パス_1116" data-name="パス 1116" d="M1126.48,1507.942a6.57,6.57,0,0,0,1.155.075,35.046,35.046,0,0,0,4.47-.315c-.226-.51-.466-1.109-.736-1.784-.165-.391-.255-.6-.389-.87l1.184-.165a4.794,4.794,0,0,0,.435,1.349,12.5,12.5,0,0,0,.54,1.321,17.613,17.613,0,0,0,3.63-.946l.15,1.066c-.315.059-.435.09-.885.21-.9.239-1.08.284-2.025.464-.36.076-.36.076-.51.1a27.781,27.781,0,0,0,2.7,4.365l-1.005.57a3,3,0,0,0-1.035-.615,8.124,8.124,0,0,0-2.625-.39,5.312,5.312,0,0,0-2.849.63,1.7,1.7,0,0,0-.811,1.4,1.5,1.5,0,0,0,.57,1.17,5.081,5.081,0,0,0,2.925.69,9.887,9.887,0,0,0,4.26-.96l.165,1.155a12.436,12.436,0,0,1-4.41.81,5.5,5.5,0,0,1-3.9-1.125,2.418,2.418,0,0,1-.674-1.65,2.8,2.8,0,0,1,1.694-2.445,6.375,6.375,0,0,1,2.91-.555,7.491,7.491,0,0,1,3.105.54,18.287,18.287,0,0,1-1.8-2.94c-.165-.315-.165-.345-.255-.495a44.127,44.127,0,0,1-5.34.39,3.428,3.428,0,0,0-.585.045Z" fill="#4d4d4d"/>
  </g>
  <g id="グループ_229" data-name="グループ 229" transform="translate(-1015.21 -1265.805)">
    <path id="パス_1117" data-name="パス 1117" d="M1183.153,1516.822a12.063,12.063,0,0,0-3.059-2.145c-.255-.135-.6-.285-1.005-.45a4.451,4.451,0,0,1,.029.54,2.6,2.6,0,0,1-.375,1.635,3.017,3.017,0,0,1-2.534.945,3.907,3.907,0,0,1-2.325-.6,1.962,1.962,0,0,1-.81-1.575c0-.99.78-1.77,2.1-2.07a6.52,6.52,0,0,1,1.559-.15,6.676,6.676,0,0,1,1.351.12c-.016-.045-.016-.045-.016-.18a1.273,1.273,0,0,1-.014-.165c-.015-.135-.015-.45-.031-.885-.014-.2-.014-.48-.03-.87-.539.015-1.289.03-1.769.03-.9,0-1.6-.03-2.535-.1-.166-.015-.286-.015-.375-.015h-.121l.016-.99a18.409,18.409,0,0,0,3.435.24c.389,0,.915,0,1.335-.015l-.031-2.055c-.434.015-.675.015-1.019.015-1.095,0-2.31-.045-3.66-.149a1.71,1.71,0,0,0-.27-.016,1.152,1.152,0,0,0-.21.016l.015-1.021a18.561,18.561,0,0,0,3.84.3c.3,0,.81-.015,1.3-.015a11.7,11.7,0,0,0-.074-2.159h1.154a17,17,0,0,0-.1,2.114,21.094,21.094,0,0,0,4.439-.614l.076,1.02a10.053,10.053,0,0,0-1.036.12,30.9,30.9,0,0,1-3.479.359c.015,1.231.015,1.231.029,2.025a18.1,18.1,0,0,0,4.155-.615l.06,1.035c-.194.015-.345.03-.869.1-1.035.165-2.221.285-3.33.36.03.84.03.84.09,2.3a13.136,13.136,0,0,1,4.184,2.19,5.223,5.223,0,0,0,.51.345Zm-5.069-2.835a5.506,5.506,0,0,0-1.53-.165c-1.486,0-2.46.54-2.46,1.335s.75,1.245,2.054,1.245a2.169,2.169,0,0,0,1.651-.495,1.964,1.964,0,0,0,.3-1.35Z" fill="#4d4d4d"/>
    <path id="パス_1118" data-name="パス 1118" d="M1188.475,1505.888a9,9,0,0,0,1.665.089c1.394,0,3.3-.089,4.335-.194a1.793,1.793,0,0,0,.615-.136l.63.87a11.915,11.915,0,0,0-1.62,1.545,27.272,27.272,0,0,1-4.095,3.675l.045.045a6.706,6.706,0,0,1,3.809-1.185c2.385,0,3.9,1.155,3.9,2.985a3.344,3.344,0,0,1-1.949,2.97,7.668,7.668,0,0,1-3.2.63,10.436,10.436,0,0,1-3.614-.7,1.923,1.923,0,0,0,.015-.27,5.739,5.739,0,0,0-.106-.945,8.47,8.47,0,0,0,3.825.93c2.326,0,3.915-1.065,3.915-2.61,0-1.305-1.139-2.1-2.985-2.1a8.9,8.9,0,0,0-4.814,1.65,7.563,7.563,0,0,0-1.17.945l-.75-.93a14.3,14.3,0,0,0,1.95-1.485c1.56-1.365,3.6-3.3,4.979-4.739a1.387,1.387,0,0,1,.135-.151l.12-.12-.03-.014a.753.753,0,0,0-.194.029c-.646.1-2.595.225-4.276.27a6.071,6.071,0,0,0-1.08.076Z" fill="#4d4d4d"/>
    <path id="パス_1119" data-name="パス 1119" d="M1203.831,1505.513a6.06,6.06,0,0,0,.285.915c.3.884.45,1.3.66,1.979a26.6,26.6,0,0,1,3.225-.84,20.833,20.833,0,0,0-.06-2.655h1.125a14.149,14.149,0,0,0-.075,2.025c0,.015,0,.3.015.48a7.563,7.563,0,0,1,1.125-.09c2.01,0,3.3,1.08,3.3,2.76,0,1.8-1.47,3.09-3.525,3.09a6.352,6.352,0,0,1-2.535-.555,2.153,2.153,0,0,0,.015-.27,6.687,6.687,0,0,0-.09-.855,5.1,5.1,0,0,0,2.52.69,3.038,3.038,0,0,0,1.8-.585,1.818,1.818,0,0,0,.72-1.53c0-1.14-.885-1.814-2.4-1.814a17.672,17.672,0,0,0-4.89,1.064c.766,2.55,1.3,4.665,1.936,7.485a4.633,4.633,0,0,0,.194.645l-1.215.27a53.353,53.353,0,0,0-1.89-8.1,6.311,6.311,0,0,1-.81.27,14.264,14.264,0,0,0-2.055.826l-.39-1.066a16.491,16.491,0,0,0,2.206-.7c.375-.135.524-.165.764-.24a15.1,15.1,0,0,0-1.08-2.85Z" fill="#4d4d4d"/>
    <path id="パス_1120" data-name="パス 1120" d="M1216.967,1508.678c.54-.016,2.1-.2,3.314-.391a18.243,18.243,0,0,0,.451-3.18v-.2l1.2.136a9,9,0,0,0-.285,1.439c-.076.436-.18.99-.315,1.71a8.717,8.717,0,0,1,.885-.045,2.87,2.87,0,0,1,2.16.63,3.033,3.033,0,0,1,.734,2.415c0,2.295-.389,4.29-1,5.16a1.568,1.568,0,0,1-1.47.7,5.637,5.637,0,0,1-2.265-.585,3.369,3.369,0,0,0,.029-.525,2.972,2.972,0,0,0-.044-.6,5.607,5.607,0,0,0,2.235.69q.563,0,.854-.72a11.589,11.589,0,0,0,.63-4.17c0-1.59-.449-2.1-1.844-2.1a8.6,8.6,0,0,0-1.081.074,28.3,28.3,0,0,1-2.264,6.36c-.2.36-.51.96-.975,1.8l-1.02-.6a14.379,14.379,0,0,0,1.56-2.715,24.847,24.847,0,0,0,1.65-4.754c-1.29.194-2.01.314-2.145.344a8.243,8.243,0,0,0-.87.2Zm9.854-1.38a13.542,13.542,0,0,1,3.135,5.309l-.96.555a12.273,12.273,0,0,0-3.059-5.385Z" fill="#4d4d4d"/>
    <path id="パス_1121" data-name="パス 1121" d="M1233.173,1507.942a6.577,6.577,0,0,0,1.155.075,35.034,35.034,0,0,0,4.47-.315c-.226-.51-.466-1.109-.735-1.784-.165-.391-.255-.6-.39-.87l1.184-.165a4.787,4.787,0,0,0,.435,1.349,12.5,12.5,0,0,0,.54,1.321,17.613,17.613,0,0,0,3.63-.946l.15,1.066c-.315.059-.434.09-.884.21-.9.239-1.08.284-2.026.464-.359.076-.359.076-.51.1a27.8,27.8,0,0,0,2.7,4.365l-1.005.57a3.008,3.008,0,0,0-1.035-.615,8.133,8.133,0,0,0-2.625-.39,5.318,5.318,0,0,0-2.85.63,1.7,1.7,0,0,0-.811,1.4,1.5,1.5,0,0,0,.571,1.17,5.079,5.079,0,0,0,2.925.69,9.886,9.886,0,0,0,4.259-.96l.165,1.155a12.433,12.433,0,0,1-4.41.81c-1.829,0-3.21-.405-3.9-1.125a2.414,2.414,0,0,1-.675-1.65,2.8,2.8,0,0,1,1.694-2.445,6.378,6.378,0,0,1,2.91-.555,7.488,7.488,0,0,1,3.1.54,18.427,18.427,0,0,1-1.8-2.94c-.165-.315-.165-.345-.255-.495a44.127,44.127,0,0,1-5.34.39,3.425,3.425,0,0,0-.585.045Z" fill="#4d4d4d"/>
  </g>
  <g id="グループ_230" data-name="グループ 230" transform="translate(-1015.21 -1265.805)">
    <path id="パス_1122" data-name="パス 1122" d="M1018.818,1348.072a12.084,12.084,0,0,0-1.6.06v-1.185a7.321,7.321,0,0,0,1.635.106h7.139v-7.246h-6.824a12.527,12.527,0,0,0-1.725.076v-1.2a8.191,8.191,0,0,0,1.725.106h7.2c.2,0,.406-.016.781-.03-.031.375-.031.63-.031,1.17v7.679a10.034,10.034,0,0,0,.076,1.365h-1.2v-.9Z" fill="#4d4d4d"/>
    <path id="パス_1123" data-name="パス 1123" d="M1037.462,1337.243a2.814,2.814,0,0,0-.33.615,14.355,14.355,0,0,1-.69,1.335,44.511,44.511,0,0,1,4.53-.12,1.484,1.484,0,0,0,.78-.1l.645.629c-.135.181-.135.2-.3.736a15.875,15.875,0,0,1-3,5.639,14.689,14.689,0,0,1-5.22,3.75,2.251,2.251,0,0,0-.75-.885,12.753,12.753,0,0,0,5.3-3.8,13.781,13.781,0,0,0,2.58-5.025l-5.055.09a14.482,14.482,0,0,1-3.585,3.9,2.236,2.236,0,0,0-.839-.781,11.111,11.111,0,0,0,3.764-4.11,6.79,6.79,0,0,0,.945-2.189Z" fill="#4d4d4d"/>
  </g>
  <line id="線_56" data-name="線 56" x1="109.032" y1="45.163" transform="translate(33.652 81.023)" fill="none" stroke="#999" stroke-miterlimit="10" stroke-width="0.5"/>
  <line id="線_57" data-name="線 57" x1="45.162" y1="109.032" transform="translate(97.521 17.154)" fill="none" stroke="#999" stroke-miterlimit="10" stroke-width="0.5"/>
  <line id="線_58" data-name="線 58" y1="109.032" x2="45.163" transform="translate(142.684 17.154)" fill="none" stroke="#999" stroke-miterlimit="10" stroke-width="0.5"/>
  <line id="線_59" data-name="線 59" y1="45.163" x2="109.032" transform="translate(142.684 81.023)" fill="none" stroke="#999" stroke-miterlimit="10" stroke-width="0.5"/>
  <line id="線_60" data-name="線 60" x2="109.032" y2="45.162" transform="translate(142.684 126.186)" fill="none" stroke="#999" stroke-miterlimit="10" stroke-width="0.5"/>
  <line id="線_61" data-name="線 61" x2="45.163" y2="109.032" transform="translate(142.684 126.186)" fill="none" stroke="#999" stroke-miterlimit="10" stroke-width="0.5"/>
  <line id="線_62" data-name="線 62" x1="45.162" y2="109.032" transform="translate(97.521 126.186)" fill="none" stroke="#999" stroke-miterlimit="10" stroke-width="0.5"/>
  <line id="線_63" data-name="線 63" x1="109.032" y2="45.162" transform="translate(33.652 126.186)" fill="none" stroke="#999" stroke-miterlimit="10" stroke-width="0.5"/>
  <path id="パス_1124" data-name="パス 1124" d="M1203.056,1282.959h-90.325l-63.87,63.87v90.325l63.87,63.87h90.325l63.87-63.87v-90.325Z" transform="translate(-1015.21 -1265.805)" fill="none" stroke="#999" stroke-miterlimit="10" stroke-width="0.5"/>
</svg>
