<svg id="lineup_kamairi_name_sp" xmlns="http://www.w3.org/2000/svg" width="750" height="190" viewBox="0 0 750 190">
  <rect id="長方形_36" data-name="長方形 36" width="750" height="190" fill="#fff279" opacity="0"/>
  <g id="グループ_394" data-name="グループ 394" transform="translate(6827.148 1398.393)">
    <g id="グループ_389" data-name="グループ 389">
      <g id="グループ_388" data-name="グループ 388">
        <path id="パス_1701" data-name="パス 1701" d="M-6667.01-1368.994c-.824,0-1.484.274-1.6,1.1-.055.495-.055,7.259-.055,8.084,0,1.045,0,1.321.55,1.321.66,0,4.95-1.816,5.334-1.816.111,0,.221,0,.221.111,0,.33-3.135,2.364-4.125,2.969-1.98,1.21-1.98,1.815-1.98,3.629,0,1.87.166,10.174.166,11.879,0,.88,0,5.94-.111,6.379a2.989,2.989,0,0,1-2.749,1.87c-.88,0-1.264-.275-1.264-1.32,0-2.86.439-15.343.439-17.872,0-.221,0-.715-.495-.715-.11,0-4.619,2.419-4.949,3.024-.44.825-.5.935-.77.935-.88,0-3.189-4.18-3.189-4.454,0-.33.274-.441,1.154-.495,1.54-.165,7.314-2.09,7.919-2.915a1.867,1.867,0,0,0,.385-1.374c.055-1.651.055-6.82.055-8.8,0-.606-.055-1.54-1.54-1.54h-3.409c-1.21,0-1.32.274-2.09,1.87-.825,1.814-2.309,4.289-2.639,4.289-.056,0-.056-.11-.056-.165,0-.385,1.21-5.114,1.375-6.1a49.076,49.076,0,0,0,.935-8.358c0-.22-.11-1.21-.11-1.43,0-.33.055-.55.5-.55.33,0,4.179.99,4.179,1.87a16.947,16.947,0,0,1-1.154,2.2,43.583,43.583,0,0,0-1.265,4.289c0,.495.385.6.77.6h2.915c.989,0,1.539-.439,1.539-1.429,0-2.035-.055-5.61-.165-7.809,0-.55-.275-2.97-.275-3.519,0-.22.055-.5.44-.5.22,0,5,.991,5,1.98,0,.386-.056.495-.88,1.32-.385.44-.385.715-.5,3.355,0,.769-.055,4.619-.055,5.389,0,.385,0,1.155.769,1.155a1.807,1.807,0,0,0,1.43-.826c1.21-1.759,1.32-1.924,1.76-1.924.715,0,3.684,2.64,3.684,3.41,0,.88-.934.88-2.969.88Zm20.843-4.784c-1.6,0-1.6.934-1.6,2.144,0,6.984,0,7.094,1.54,7.094h4.674a7.246,7.246,0,0,0,2.694-.22c.5-.22,1.816-2.75,2.365-2.75.33,0,4.509,2.97,4.509,3.74,0,.659-.329.659-2.969.659h-20.458c-1.594,0-3.739,0-5.773.111-.386,0-1.98.165-2.255.165-.221,0-.221,0-.6-.441l-.99-1.154c-.275-.275-.275-.33-.275-.385s.11-.11.22-.11c.385,0,2.09.165,2.42.165,3.519.165,5.664.22,7.534.22h2.255c1.375,0,1.539-.77,1.539-1.815,0-.769.055-5.829-.055-6.379a1.331,1.331,0,0,0-1.54-1.044c-1.7,0-2.64,0-4.509.054-.55,0-2.859.22-3.3.22-.219,0-.219-.109-.6-.495l-.99-1.1c-.22-.22-.276-.33-.276-.385,0-.11.111-.165.221-.165.33,0,1.869.165,2.2.165.66.055,4.619.22,6.765.22,1.1,0,2.034,0,2.034-1.595,0-.934-.055-3.079-.109-3.959-.056-.384-.276-2.254-.276-2.474s0-.551.385-.551c.165,0,3.52.881,4.4,1.21.111.056.606.275.606.55,0,.33-1.155,1.32-1.266,1.6a23.6,23.6,0,0,0-.165,3.519c0,.824,0,1.7,1.6,1.7h2.364c1.925,0,2.365,0,2.695-.165.44-.22,1.54-2.529,1.98-2.529.329,0,3.959,2.585,3.959,3.409,0,.771-1.1.771-2.915.771Zm4.894,20.511c-1.429,0-1.6.495-1.6,4.07,0,1.65.166,9.019.166,10.5,0,5.005-3.85,5.005-4.456,5.005-1.044,0-1.154-.385-1.429-1.375-.33-1.265-1.21-1.759-2.42-2.255-1.374-.6-1.539-.66-1.539-.879,0-.165.439-.22.6-.22.55,0,3.025.109,3.52.109,1.1,0,2.2,0,2.2-2.474,0-1.65-.165-9.953-.165-10.284,0-1.21,0-2.2-1.54-2.2h-6.435c-1.594,0-3.684,0-5.774.111-.274,0-2.089.165-2.254.165-.221,0-.221,0-.55-.385l-1.1-1.21a.836.836,0,0,1-.22-.33c0-.111.11-.165.22-.165.384,0,2.144.165,2.474.165,3.52.165,5.61.22,7.48.22h6.1c1.539,0,1.539-1.045,1.539-1.706,0-.769-.219-4.069-.219-4.728,0-.165,0-.44.5-.44.274,0,3.519.549,3.684.6.55.11.99.275.99.771,0,.274-.88,1.209-.99,1.429a7.506,7.506,0,0,0-.219,2.53c0,1.54.989,1.54,2.088,1.54.991,0,1.375-.44,1.871-1.21.33-.55.99-1.485,1.484-1.485.551,0,4.07,2.585,4.07,3.355s-1.1.769-2.915.769Zm-17.873,3.685c.77,0,5.664,1.264,5.664,5.059,0,1.925-.934,3.025-2.144,3.025-.935,0-1.045-.33-1.98-3.355a13.537,13.537,0,0,0-1.87-4.014c-.055-.11-.22-.385-.109-.55C-6659.531-1349.582-6659.311-1349.582-6659.146-1349.582Z" fill="#333"/>
        <path id="パス_1702" data-name="パス 1702" d="M-6611.639-1361.075c-.22-.22-.22-.33-.22-.385,0-.11.11-.11.165-.11.99,0,5.664.33,6.764.33a2.13,2.13,0,0,0,1.87-1.045c1.21-1.32,1.375-1.485,1.6-1.485.274,0,3.574,1.925,3.574,2.914a.389.389,0,0,1-.165.33c-.165.165-1.154.826-1.319.991-.385.274-.385.934-.385,6.983,0,6.709,0,7.2,1.43,9.129,2.364,3.189,5.444,4.125,15.672,4.125a119.506,119.506,0,0,0,17.377-.936c.716-.109,4.4-.824,4.455-.824.11,0,.275,0,.275.165a8.459,8.459,0,0,1-.989,1.1,10.139,10.139,0,0,0-1.265,1.979c-.936,2.09-.99,2.255-1.65,2.475-.6.165-6.269.22-7.205.22-5,0-13.472-.275-16.992-.715a12.526,12.526,0,0,1-9.678-5.389c-.386-.495-1.981-3.354-2.255-3.354-.441,0-4.784,5.334-5.61,6.983-.88,1.87-.99,2.09-1.54,2.09-.439,0-1.979-1.869-2.364-2.2-.55-.441-1.32-1.156-1.32-1.651,0-.33.33-.384.715-.439,1.429-.276,7.2-3.245,7.534-5.664v-12.209c0-1.265-.055-2.09-1.65-2.09-.11,0-2.7.056-4.125.165-.165,0-.989.11-1.154.11s-.275-.11-.5-.384Zm10.119-8.634c-1.155,0-1.375-.385-3.3-3.9a30.683,30.683,0,0,0-5.335-6.325c-.769-.77-.88-.88-.88-1.1,0-.164.166-.275.441-.275a23.492,23.492,0,0,1,5.5,2.145c2.75,1.43,5.279,3.574,5.279,7.643A1.74,1.74,0,0,1-6601.52-1369.709Zm4.014,18.7c-.22-.274-.22-.274-.22-.33a.146.146,0,0,1,.165-.165c.276,0,1.484.165,1.815.165.549.056,4.62.22,5.884.22,2.035,0,2.035-.164,2.035-2.749,0-1.595,0-2.365-1.705-2.365-.6,0-3.9.22-4.234.22-.221,0-.33-.11-.5-.33l-.936-1.265c-.164-.275-.219-.275-.219-.385s.11-.11.165-.11c.825,0,4.894.33,5.829.33,1.32,0,1.485-.66,1.485-1.594a8.962,8.962,0,0,0-.165-1.981c-.056-.165-.44-1.264-.44-1.319,0-.11.11-.11.33-.11.88,0,4.234.384,4.234,1.65,0,.22-.6,1.209-.66,1.484a3.164,3.164,0,0,0-.055.77c0,1.155.715,1.155,1.156,1.155h4.014c1.43,0,1.7-.495,1.7-1.649,0-.551-.219-3.135-.219-3.685,0-.33.439-.33.66-.33.659,0,3.794.659,3.794,1.319a19.291,19.291,0,0,1-.825,1.871,4.792,4.792,0,0,0-.11,1.1c0,.99.165,1.375,1.155,1.375,1.539,0,1.87-.165,2.419-.934,1.375-1.925,1.54-2.146,2.035-2.146,1.045,0,3.465,3.355,3.465,3.63,0,.88-1.375.88-2.53.88h-4.839c-.825,0-1.705.22-1.705,1.485,0,3.355,0,3.684,1.705,3.684H-6571c2.255,0,2.474,0,3.189-.935,1.375-1.925,1.54-2.144,2.035-2.144,1.045,0,3.464,3.354,3.464,3.63,0,.934-1.319.934-2.529.934h-23.977c-1.485,0-3.849,0-5.885.11-.165,0-1.319.165-1.429.165-.165,0-.275-.165-.44-.385Zm6.38-21.832c-1.045,0-1.266.495-1.266,1.375a7.97,7.97,0,0,0,.44,3.3c.385.769.77.769,4.29.769,1.705,0,3.08,0,3.96-1.484.219-.33,1.044-2.035,1.264-2.035a.744.744,0,0,1,.33.439c.11.276.33,1.54.385,1.816.055.22.715,1.21.715,1.429,0,.826-1.265,2.035-2.529,2.53-1.375.55-3.685.55-6.544.55-4.951,0-5.06-1.87-5.06-6.819a22.511,22.511,0,0,0-.165-2.75c0-.165-.275-.934-.275-1.155,0-.385.66-.44.825-.44a4.6,4.6,0,0,1,2.2.661,3.579,3.579,0,0,0,1.54.384h2.31c.935,0,1.594-.219,1.594-1.594,0-3.41,0-3.795-1.869-3.795-1.32,0-3.9.055-5.444.165-.165,0-.99.11-1.155.11-.22,0-.275-.11-.5-.33l-1.043-1.265c-.276-.275-.276-.275-.276-.384s.165-.111.22-.111c.275,0,1.65.165,1.979.165.716.055,5.17.22,6.16.22s1.43-.055,1.815-.715c.33-.495.66-1.045,1.21-1.045.22,0,3.134,1.87,3.134,2.31,0,.22-.055.275-.659.77-.5.44-.5,1.1-.5,1.925,0,.55.111,3.409.111,4.07a1.994,1.994,0,0,1-2.035,2.2,1.553,1.553,0,0,1-1.375-.824,1.509,1.509,0,0,0-1.32-.441Zm7.754,26.342c0,.385-.111.385-1.43,1.045-.716.329-3.85,2.364-4.565,2.694a11.166,11.166,0,0,1-4.344,1.375c-.165,0-.5-.056-.5-.33a39.744,39.744,0,0,1,3.189-2.585,13.869,13.869,0,0,0,2.915-3.85c.44-.989.55-.989.77-.989a1.751,1.751,0,0,1,.5.165C-6586.122-1348.592-6583.372-1347.108-6583.372-1346.5Zm.165-9.789c-1.486,0-1.486,1.045-1.486,2.2,0,2.529,0,2.969,1.87,2.969h3.3c1.7,0,1.869-.44,1.869-2.089,0-2.42,0-3.08-1.594-3.08Zm8.688-16.112c-1.155,0-1.595.109-1.595,1.484,0,2.75,0,3.409,3.794,3.409,2.8,0,6.215,0,6.875-1.595.164-.439.715-2.639.99-2.639.219,0,1.045,2.09,1.264,2.42.165.275,1.21,1.375,1.21,1.7,0,.824-1.1,1.7-2.144,2.309-1.045.55-2.2.935-5.994.935-8.854,0-8.854-.495-8.854-5.5,0-.66-.44-3.96-.44-4.18,0-.385.6-.495.934-.495.111,0,1.981.44,2.2.495a5.68,5.68,0,0,0,1.7.22h3.19c1.21,0,1.7-.329,1.7-1.595,0-.439,0-2.805-.109-3.3a1.329,1.329,0,0,0-1.375-.935c-3.3,0-5.445.055-5.719.11-.165,0-1.485.165-1.6.165-.22,0-.274-.11-.494-.33l-1.045-1.265c-.275-.275-.275-.275-.275-.384s.165-.111.219-.111c.331,0,2.09.165,2.475.165s4.675.22,6.654.22a1.25,1.25,0,0,0,1.265-.6c.44-.606.6-.88,1.155-.88.22,0,3.08,1.814,3.08,2.254,0,.22-.11.275-.715.88-.275.22-.44.6-.44,1.43,0,.659.11,3.959.11,4.729a2.091,2.091,0,0,1-2.2,2.09c-.769,0-.934-.22-1.264-.77-.22-.439-.935-.439-1.21-.439Zm5.609,29.8a1.67,1.67,0,0,1-1.485,1.65c-.88,0-1.374-.44-2.2-1.155-1.87-1.594-5.06-4.344-5.72-4.84-.329-.274-.934-.66-.934-.824s.219-.275.44-.275a6.368,6.368,0,0,1,1.484.165C-6573.089-1347.217-6568.91-1346.172-6568.91-1342.6Z" fill="#333"/>
        <path id="パス_1703" data-name="パス 1703" d="M-6504.63-1374.549c0,.495-.22.6-2.42,1.32a39.88,39.88,0,0,0-3.959,3.135c-1.485,1.21-1.651,1.374-1.651,1.76,0,1.7,12.594,7.313,22.438,7.368.274,0,1.045.056,1.045.165s-2.311,2.255-2.585,2.585c-.385.495-.935,1.1-1.32,1.65-.275.33-.5.6-.825.6-.77,0-12.813-4.454-19.687-9.568-.88-.661-1.265-.88-1.815-.88a3.988,3.988,0,0,0-1.815.824c-10.668,6.819-16.883,8.414-19.027,8.964a32.961,32.961,0,0,1-4.565.88c-.054,0-.219,0-.219-.055a18.034,18.034,0,0,1,2.529-1.265c10.174-4.29,20.237-10.944,20.237-12.209a40.86,40.86,0,0,0-2.09-3.574c-.219-.385-.824-2.2-1.045-2.2-.274,0-.329.221-1.044,2.09-.055.22-1.265,3.519-1.265,3.63-.055,1.319-.11,1.87-.715,1.87a24.018,24.018,0,0,1-3.959-3.355c0-.275,1.319-.551,1.484-.66a16.148,16.148,0,0,0,4.785-5.005c.22-.385.275-.494.66-.494s.44.109.88,1.1c.054.109,2.75,4.894,4.344,4.894,1.32,0,4.784-4.729,5.334-5.554a21.261,21.261,0,0,1,.935-1.925C-6509.414-1378.783-6504.63-1375.373-6504.63-1374.549Zm-34.426,5.444c3.739-2.749,9.624-6.983,12.264-11.6a10.551,10.551,0,0,0,.715-1.925c.054-.22.165-.6.5-.6.5,0,5.058,2.584,5.058,3.574,0,.495-.439.6-.934.715a7.65,7.65,0,0,0-3.135,1.98c-7.7,6.6-15.452,9.458-15.782,8.963C-6540.431-1368.114-6539.276-1368.94-6539.056-1369.1Zm35.855,30.852c2.75,0,2.97,0,3.794-1.375,1.431-2.31,1.6-2.585,2.146-2.585s.88.33,4.124,3.08c.715.659,1.6,1.319,1.6,1.6,0,.769-1.1.769-2.97.769h-34.811c-4.838,0-6.433.111-6.983.111a8.5,8.5,0,0,1-1.155.165c-.165,0-.275-.165-.5-.386l-1.045-1.265c-.22-.219-.22-.274-.22-.33a.147.147,0,0,1,.165-.165c.385,0,2.09.221,2.42.221,2.694.109,5,.165,7.589.165h9.789c.439,0,1.265,0,1.484-.88.165-.716.165-6.93.165-8.249,0-1.705,0-2.475-1.649-2.475h-4.565c-4.839,0-6.434.055-6.984.11-.165,0-.99.165-1.155.165s-.275-.165-.494-.385l-1.045-1.265a.833.833,0,0,1-.221-.33.146.146,0,0,1,.165-.165c.386,0,2.09.165,2.42.22,2.694.11,5.005.165,7.589.165h4.345c1.594,0,1.594-.935,1.594-2.42,0-3.189,0-3.629-1.759-3.629-1.156,0-3.9,0-5,.165-.111,0-.661.11-.771.11-.22,0-.33-.165-.5-.385l-1.045-1.265c-.109-.11-.274-.275-.274-.33,0-.11.11-.165.219-.165.385,0,2.09.165,2.42.22,2.695.11,4.95.165,7.534.165h2.7c2.529,0,2.859,0,3.519-.935.991-1.429,1.1-1.594,1.54-1.594,1.155,0,3.685,2.859,3.685,3.3,0,.715-1.21.715-2.915.715h-3.685c-1.7,0-1.7.44-1.7,4.454,0,1.1.329,1.595,1.76,1.595h4.4c2.419,0,2.86,0,3.52-.935,1.374-1.924,1.484-2.144,1.979-2.144.661,0,4.62,3.354,4.62,3.739,0,.825-1.1.825-2.97.825h-11.713c-1.76,0-1.76.385-1.76,4.014,0,7.149,0,7.59,1.209,7.59.771,0,1.816-1.816,2.585-3.135a35.487,35.487,0,0,0,3.3-6.93,5.057,5.057,0,0,1,.5-1.264c.6.33,4.619,2.585,4.619,3.245,0,.385-.165.439-1.045.6-.715.111-4.179,3.74-4.949,4.4a39.9,39.9,0,0,0-3.024,2.805c0,.275.384.275.659.275Zm-18.312-3.191a2.515,2.515,0,0,1-2.255,2.75c-1.319,0-1.484-1.044-1.87-3.134a19.475,19.475,0,0,0-2.364-6.49c-.111-.219-.22-.549-.111-.6C-6527.837-1349.2-6521.513-1346.063-6521.513-1341.444Zm11.769-40.529c2.364,0,15.617,2.53,15.617,7.589,0,2.09-1.539,2.09-1.76,2.09-1.044,0-1.595-.55-3.024-1.925-3.19-3.079-7.809-5.609-10.889-7.259-.165-.11-.385-.275-.329-.384C-6510.129-1381.973-6509.855-1381.973-6509.744-1381.973Z" fill="#333"/>
        <path id="パス_1704" data-name="パス 1704" d="M-6470.833-1334.074a7.245,7.245,0,0,1,1.154-1.265c5.609-5.719,9.185-11.713,9.185-32.775,0-3.246,0-10.45-.771-13.2a12.2,12.2,0,0,1-.66-1.814c0-.276.386-.33.551-.33a30.778,30.778,0,0,1,4.178,1.045c1.43.384,1.925.55,1.925,1.319,0,.495-.109.55-.934,1.32a2.07,2.07,0,0,0-.606,1.539v13.2c0,.11.056.66.386.66.659,0,3.354-4.069,3.354-7.259,0-.275,0-.769.55-.769.385,0,4.345,2.418,4.345,3.409,0,.384-.11.439-1.21,1.21-.386.274-6.654,5.444-6.709,5.5a5.39,5.39,0,0,0-.936,2.75,47.925,47.925,0,0,1-.714,5.773c0,.221-.055.495-.055.771a2.164,2.164,0,0,0,.825,1.759c3.024,2.31,7.863,7.2,7.863,10.5,0,.55-.109,2.86-2.034,2.86-1.1,0-1.21-.33-2.42-3.41-.825-2.2-3.519-8.8-4.51-8.8-.384,0-.439.11-1.154,2.31-2.474,7.314-6.6,10.448-10.449,13.418-.109.055-.77.6-.824.6A.355.355,0,0,1-6470.833-1334.074Zm5.059-31.071a18.9,18.9,0,0,0,1.43-4.949c.109-.715.109-.935.33-.935.715,0,.715,3.354.715,3.96,0,2.2-.386,10.723-3.465,10.723a2.107,2.107,0,0,1-1.87-2.309,4.894,4.894,0,0,1,.165-1.1C-6468.194-1360.691-6466.1-1364.375-6465.774-1365.145Zm19.412,3.959a29.9,29.9,0,0,1-4.674,5.39c-.11,0-.275-.11-.275-.22,0-.165,1.375-2.53,1.6-2.97,2.584-4.839,5.279-11.383,5.279-14.9,0-1.595,0-1.595.5-1.595.329,0,5,2.145,5,3.19a1.066,1.066,0,0,1-.5.825,7.175,7.175,0,0,0-1.265.935C-6440.752-1370.424-6445.372-1362.561-6446.362-1361.186Zm22.438,4.18c-3.685,8.469-7.81,17.817-20.9,23.152a11.3,11.3,0,0,1-2.365.77.238.238,0,0,1-.22-.22c0-.275,1.21-.715,1.375-.825,14.9-9.239,18.533-23.262,18.533-26.892,0-.165-.165-1.429-.165-1.594,0-.33.055-.55.5-.55.384,0,5.279,2.09,5.279,3.08a1.56,1.56,0,0,1-.495,1.044c-.88.77-.989.825-1.154,1.1C-6423.539-1357.941-6423.869-1357.171-6423.924-1357.006Zm-8.69-16.553c0,2.585.33,13.968.33,16.333,0,3.74,0,5.059-1.375,6.764a5.23,5.23,0,0,1-3.354,1.979c-.715,0-.824-.274-1.375-1.319-.6-1.265-1.374-1.595-4.344-2.915-.716-.329-.77-.329-.77-.55,0-.274.33-.274.44-.274.55,0,3.079.165,3.574.165,2.97,0,3.08-.441,3.08-2.64,0-2.365.11-12.868.11-15.013a88.1,88.1,0,0,0-.385-9.569c-.055-.385-.55-2.2-.55-2.585,0-.33.165-.495.6-.495a45.3,45.3,0,0,1,5.059,1.32,1.225,1.225,0,0,1,.935,1.156,1.57,1.57,0,0,1-.824,1.319,4.869,4.869,0,0,0-.936,1.1A43.7,43.7,0,0,0-6432.614-1373.559Zm11.824,11.989c-1.595,0-1.815-.715-2.475-3.245a37.934,37.934,0,0,0-4.344-9.239c-.11-.22-1.045-1.484-1.045-1.6a.25.25,0,0,1,.22-.274c1.1,0,10.174,6.158,10.174,11.493A2.64,2.64,0,0,1-6420.79-1361.57Z" fill="#333"/>
        <path id="パス_1705" data-name="パス 1705" d="M-6377.507-1371.634c-4.675,0-9.074,7.7-9.074,13.528a11.248,11.248,0,0,0,.714,4.07,5.478,5.478,0,0,1,.5,2.09,1.84,1.84,0,0,1-1.98,1.979c-2.529,0-3.739-4.564-3.739-8.909a49.534,49.534,0,0,1,.989-8.743,37.514,37.514,0,0,0,.825-7.039,6.1,6.1,0,0,0-.715-3.411c-.11-.219-.934-1.319-.934-1.429a2.222,2.222,0,0,1,1.484-.385,4.254,4.254,0,0,1,4.235,3.685,34.344,34.344,0,0,1-1.155,4.069,58.27,58.27,0,0,0-1.21,6.819c0,.165,0,.77.44.77.275,0,.6-.66.99-1.375.6-1.209,4.345-8.139,10.118-8.139,3.41,0,7.095,1.815,7.095,13.363,0,7.754-1.54,16.553-11.988,22.767a14.238,14.238,0,0,1-3.96,1.815c-.11,0-.22-.055-.22-.165,0-.165.11-.275,1.375-1.21,9.019-6.819,10.668-13.2,10.668-24.417C-6373.053-1367.949-6374.153-1371.634-6377.507-1371.634Z" fill="#333"/>
        <path id="パス_1706" data-name="パス 1706" d="M-6304.97-1375.923c2.31,0,2.529,0,2.97-.386.5-.439,2.2-2.749,2.749-2.749.44,0,4.95,3.079,4.95,3.85s-.936.769-2.7.769h-36.735c-4.785,0-6.38.111-6.929.165-.166,0-.99.111-1.155.111-.22,0-.33-.221-.5-.386l-1.045-1.265c-.11-.165-.22-.274-.22-.33,0-.109.055-.109.165-.109.385,0,2.089.165,2.419.165,2.7.109,4.95.165,7.535.165h5.059c.111,0,.33,0,.33-.221,0-.165-.33-.934-.385-1.21-.44-2.639-.66-3.9-1.65-5.608a5.341,5.341,0,0,1-.5-.825c0-.056.056-.111.165-.111,1.43,0,6.05,3.08,6.05,6.325,0,.33-.276,1.21-.276,1.429s.22.221.441.221h8.084a1.075,1.075,0,0,0,1.154-.66,37.66,37.66,0,0,0,1.65-5.829c0-.165-.164-.88-.164-.991a.449.449,0,0,1,.494-.44c.44,0,5.114,1.6,5.114,2.42,0,.385-.055.385-1.154.825-.276.111-2.036,1.76-2.42,2.034-2.09,1.7-2.42,1.981-2.42,2.366,0,.275.386.275.6.275Zm-35.03,41.354a2.233,2.233,0,0,1-2.475-2.089c0-1.321.77-1.816,2.585-3.08a14.532,14.532,0,0,0,4.674-5.554c.11-.33.22-.66.33-.66.275,0,.165,1.429.11,2.474C-6334.776-1342.487-6335.986-1334.569-6340-1334.569Zm6.159-23.152c-1.155,0-1.155,0-1.155,3.465,0,.715.11,3.959.11,4.454a2.5,2.5,0,0,1-2.64,2.585c-1.045,0-1.264-.386-1.264-1.32,0-.715.165-4.509.219-5.554.165-3.08.165-4.07.165-13.033,0-1.266,0-1.925-.054-2.585,0-.276-.385-1.54-.385-1.816a.39.39,0,0,1,.439-.384,12.308,12.308,0,0,1,2.42.88,3.888,3.888,0,0,0,1.76.275h8.743a1.561,1.561,0,0,0,1.431-.66c.55-.88.769-1.155,1.209-1.155.275,0,3.575,2.035,3.575,2.86a.929.929,0,0,1-.5.769c-.495.385-.715.55-.77.991-.11.33-.11,10.283-.11,11.547,0,.5.11,2.861.11,3.411a5.026,5.026,0,0,1-4.894,5.444c-.5,0-.66-.056-.88-.825a5.014,5.014,0,0,0-2.31-3.135c-.22-.165-1.594-.55-1.594-.824,0-.165.165-.165.274-.165.22,0,2.915.165,3.41.165,1.76,0,2.145-.111,2.31-.825a32.526,32.526,0,0,0,.109-3.63c0-.935-.659-.935-1.1-.935Zm8.634-7.259c.549,0,1.1-.055,1.1-.99,0-2.97,0-3.3-1.1-3.3h-8.634c-.55,0-1.155,0-1.155.936,0,3.024,0,3.354,1.155,3.354Zm0,5.774c.5,0,.99,0,1.1-.659v-2.75c0-.935-.6-.935-1.1-.935h-8.634c-1.155,0-1.155.33-1.155,3.409,0,.935.66.935,1.155.935Zm3.464,21.887c0,.826-.22,2.86-2.309,2.86-2.311,0-2.311-2.31-2.311-3.52a18.655,18.655,0,0,0-.6-5.939,17.548,17.548,0,0,1-.6-1.869c0-.441,2.584,1.814,3.3,2.694C-6323.007-1341.5-6321.743-1339.463-6321.743-1337.319Zm11.989.331c0,2.309-1.651,2.639-2.255,2.639-1.65,0-1.76-.935-2.09-4.179a20.8,20.8,0,0,0-1.814-6.379,3.365,3.365,0,0,1-.385-.826c0-.11.055-.11.109-.11a10.81,10.81,0,0,1,3.74,2.97C-6311.019-1341.223-6309.754-1338.968-6309.754-1336.988Zm.274-32.171c0,.219-.824.99-.934,1.154a2.08,2.08,0,0,0-.22,1.155c0,1.54.109,8.525.109,9.9a2.2,2.2,0,0,1-2.419,2.309c-.825,0-1.429-.329-1.429-1.539,0-.221.165-1.925.165-2.255v-5.829c0-3.245.109-3.9-.221-5.005,0-.165-.274-.824-.274-.989,0-.33.219-.385.549-.385a11.32,11.32,0,0,1,1.98.275C-6309.754-1369.819-6309.48-1369.765-6309.48-1369.159Zm11.384-1.265c0,.33-.055.385-.715.88a2.1,2.1,0,0,0-.5,1.539c0,1.87.055,15.838,0,16.224a4.54,4.54,0,0,1-4.674,4.564c-.99,0-1.1-.165-1.925-1.7-.549-1.045-2.86-2.364-3.3-2.64-.111-.054-.5-.219-.5-.384s.22-.165.331-.165c.275,0,2.309.274,2.694.274s1.21.056,2.365.056c1.21,0,1.43-.441,1.43-2.146v-15.562a3.026,3.026,0,0,0-.385-1.7c-.275-.55-.33-.6-.33-.715,0-.33.439-.385.66-.385a22.791,22.791,0,0,1,2.364.495C-6298.866-1371.36-6298.1-1371.139-6298.1-1370.424Zm2.585,33.985a2.2,2.2,0,0,1-2.255,2.365c-2.035,0-2.42-1.87-2.64-2.86a16.551,16.551,0,0,0-3.464-7.589,10.362,10.362,0,0,1-1.1-1.155c0-.109.11-.109.165-.109a19.031,19.031,0,0,1,4.51,2.255C-6296.391-1340.783-6295.511-1337.868-6295.511-1336.439Z" fill="#333"/>
        <path id="パス_1707" data-name="パス 1707" d="M-6236.956-1362.561a48.464,48.464,0,0,0,13.307,4.345c.221,0,1.156.165,1.156.385,0,.165-.77.385-.991.44a9.519,9.519,0,0,0-4.178,2.97c-.165.22-.771,1.375-1.045,1.375-.33,0-12.264-5.774-17.654-14.573-1.045-1.76-1.209-1.925-1.594-1.925s-.5.109-1.705,1.375a65.331,65.331,0,0,1-16.278,12.812c-1.87.991-7.589,3.52-8.634,3.52-.165,0-.275-.109-.275-.165s5.885-3.685,6.38-4.014c7.424-4.675,15.288-13.089,16.057-17.213.055-.44.111-.6.5-.6.274,0,4.729,1.7,5,1.87.165.055.714.275.714.825a3.433,3.433,0,0,1-.219.77C-6246.305-1369.544-6241.576-1364.925-6236.956-1362.561Zm-26.507-13.692c-4.07,0-5.94.109-6.984.165-.165,0-.99.109-1.155.109s-.275-.109-.5-.33l-1.045-1.264c-.22-.275-.22-.275-.22-.385s.055-.111.165-.111c.385,0,2.09.166,2.42.166,2.695.11,5,.22,7.589.22h1.6c1.154,0,1.484-.551,1.484-1.485a8.935,8.935,0,0,0-.439-2.915,8.141,8.141,0,0,1-.33-1.1c0-.274.274-.385.6-.385.386,0,2.861.606,3.465.77,1.649.44,1.98.551,1.98,1.045,0,.33-.055.44-.825,1.43a1.344,1.344,0,0,0-.385.99c0,1.32.44,1.65,1.924,1.65h9.075c.5,0,1.649,0,1.649-1.485a22.562,22.562,0,0,0-.165-2.475c-.055-.275-.33-1.429-.33-1.649,0-.276.33-.386.605-.386.385,0,4.124.88,4.73,1.045s.934.386.934.88c0,.33-.219.551-.825.99a1.766,1.766,0,0,0-.715,1.54c0,1.54.88,1.54,1.76,1.54h2.805c2.42,0,2.695,0,3.519-.935,1.54-1.815,1.705-2.035,2.2-2.035.33,0,5.114,2.915,5.114,3.629,0,.771-1.1.771-2.915.771H-6237.4c-1.7,0-1.7.88-1.7,2.2,0,.33.055,2.2.055,2.475,0,2.035-1.65,2.365-2.805,2.365-1.265,0-1.484-.221-1.484-2.09v-3.8c-.165-1.045-.825-1.154-1.705-1.154h-8.8c-1.265,0-2.035,0-2.035,1.539,0,.551.165,2.97.165,3.465,0,1.045-.165,1.54-.659,1.87a3.916,3.916,0,0,1-2.09.769c-.936,0-1.375-.6-1.375-1.7,0-.439.054-2.529.054-2.914,0-2.144,0-3.024-1.705-3.024Zm3.9,28.1a28.025,28.025,0,0,1,4.234,2.585,1.359,1.359,0,0,1,.441.826c0,.659-.441.769-1.76,1.1-.165.055-4.894,3.74-5.774,4.4-4.95,3.519-8.084,4.784-8.359,4.784a.175.175,0,0,1-.165-.165c0-.11,2.914-2.64,3.3-3.025,4.565-4.344,7.369-8.688,7.864-10.448A.326.326,0,0,1-6259.559-1348.153Zm2.53-2.914c-4.29,0-5.884.055-6.984.165-.165,0-.99.11-1.154.11s-.276-.11-.5-.33l-1.045-1.265c-.22-.274-.22-.274-.22-.385,0-.054.055-.11.164-.11.386,0,2.09.165,2.42.165,2.695.165,5,.221,7.589.221h4.125c.55,0,1.649,0,1.649-1.486,0-.66-.33-5.114-.439-5.664,0-.11-.33-.66-.33-.769s.109-.33.549-.33c.385,0,4.235.824,4.785.989.769.165,1.045.66,1.045.936,0,.33-.111.439-.935,1.154-.771.66-.771.99-.771,2.639,0,1.981,0,2.531,1.651,2.531h2.419c2.42,0,2.695,0,3.519-.936,1.54-1.814,1.7-2.034,2.2-2.034.33,0,5.114,2.97,5.114,3.629,0,.77-1.1.77-2.915.77h-10.394c-1.649,0-1.649.99-1.649,2.749,0,3.906,0,6.1.11,9.35.055.935.055,2.254.055,2.914,0,1.76-.441,2.8-2.805,2.8-1.21,0-1.319-.99-1.319-1.925,0-.715.164-4.015.164-4.729.056-2.09.056-4.125.056-6.655a33.063,33.063,0,0,0-.111-3.739c-.274-.77-1.154-.77-1.6-.77Zm14.683,4.62c0-.165.275-.22.5-.22,2.035,0,14.573,3.464,14.573,8.028,0,1.76-.99,3.135-2.365,3.135-1.045,0-1.265-.274-2.97-2.8-2.584-3.9-6.379-6.159-9.458-7.919C-6242.126-1346.228-6242.346-1346.393-6242.346-1346.447Z" fill="#333"/>
      </g>
    </g>
    <g id="グループ_391" data-name="グループ 391">
      <g id="グループ_390" data-name="グループ 390">
        <path id="パス_1708" data-name="パス 1708" d="M-6510.692-1306.317h2.828l-7.8,7.8,7.934,9.543h-2.92l-6.531-8.071-.873.828v7.243h-2.162v-17.338h2.162v7.519Z" fill="#333"/>
        <path id="パス_1709" data-name="パス 1709" d="M-6495.251-1293.324l-1.978,4.345h-2.322l8.278-18.074,8.279,18.074h-2.324l-1.977-4.345Zm3.978-8.992-3.082,7.014h6.163Z" fill="#333"/>
        <path id="パス_1710" data-name="パス 1710" d="M-6470.213-1300.43h-.046l-2.024,11.451h-2.23l3.541-18.074,5.956,13.659,5.955-13.659,3.542,18.074h-2.23l-2.025-11.451h-.046l-5.2,11.819Z" fill="#333"/>
        <path id="パス_1711" data-name="パス 1711" d="M-6442.726-1293.324l-1.977,4.345h-2.324l8.28-18.074,8.277,18.074h-2.322l-1.978-4.345Zm3.979-8.992-3.082,7.014h6.163Z" fill="#333"/>
        <path id="パス_1712" data-name="パス 1712" d="M-6419.195-1288.979h-2.161v-17.338h2.161Z" fill="#333"/>
        <path id="パス_1713" data-name="パス 1713" d="M-6397.521-1288.979h-2.621l-5.1-7.335h-.9v7.335h-2.162v-17.338h2.622a9.169,9.169,0,0,1,4.576.805,4.8,4.8,0,0,1,2.277,4.139,4.721,4.721,0,0,1-4.162,4.852Zm-8.623-9.129h.69c2.208,0,4.6-.414,4.6-3.173,0-2.713-2.576-3.1-4.715-3.1h-.574Z" fill="#333"/>
        <path id="パス_1714" data-name="パス 1714" d="M-6386.149-1288.979h-2.161v-17.338h2.161Z" fill="#333"/>
      </g>
    </g>
    <g id="グループ_393" data-name="グループ 393">
      <g id="グループ_392" data-name="グループ 392">
        <path id="パス_1715" data-name="パス 1715" d="M-6537.994-1247.619a12.842,12.842,0,0,0,1.435-1.517,7.713,7.713,0,0,0,1.107-1.824,5.683,5.683,0,0,0,.451-2.01,4.12,4.12,0,0,0-.451-2.029,4.467,4.467,0,0,0-1.148-1.435,3.229,3.229,0,0,0-1.682-.738,2.387,2.387,0,0,0-1.639.41,6.494,6.494,0,0,0-1.272,1.19,4.57,4.57,0,0,0-.963,1.947,6.547,6.547,0,0,0-.1,2.132,9.993,9.993,0,0,0,.492,2.152,19.252,19.252,0,0,0,.819,2.009q.493.984.985,1.928a18.038,18.038,0,0,1,.861,1.906,10.945,10.945,0,0,1,.553,2.009,7.79,7.79,0,0,1,.061,2.193,9.485,9.485,0,0,1-1.352,4,13.4,13.4,0,0,1-2.85,3.341,12.74,12.74,0,0,1-3.793,2.214,9.82,9.82,0,0,1-4.222.615,5.63,5.63,0,0,1-3.117-1.168,5.669,5.669,0,0,1-1.926-2.768,6.756,6.756,0,0,1-.329-2.07,7.973,7.973,0,0,1,.267-2.051,10.834,10.834,0,0,1,.738-1.968,12.968,12.968,0,0,1,1.086-1.824,10.837,10.837,0,0,1,1.333-1.558,10.333,10.333,0,0,1,1.66-1.312,8.6,8.6,0,0,1,1.886-.9,5.758,5.758,0,0,1,2.051-.287,5.273,5.273,0,0,1,2.091.512,4.451,4.451,0,0,1,1.6,1.251,4,4,0,0,1,.8,1.8,3.8,3.8,0,0,1-.266,2.132.915.915,0,0,1-.493.369.787.787,0,0,1-.533-.02.723.723,0,0,1-.368-.329.533.533,0,0,1,.082-.553,2.647,2.647,0,0,0,.184-2.009,2.585,2.585,0,0,0-1.25-1.558,4.182,4.182,0,0,0-2.009-.533,5.5,5.5,0,0,0-1.988.369,7.742,7.742,0,0,0-1.826,1,9.843,9.843,0,0,0-1.516,1.374,11.374,11.374,0,0,0-1.251,1.8,8.818,8.818,0,0,0-.84,2.05,6.749,6.749,0,0,0-.226,2.153,5.245,5.245,0,0,0,.554,2.07,4.349,4.349,0,0,0,1.271,1.619,4.541,4.541,0,0,0,1.721.821,6.4,6.4,0,0,0,1.99.143,8.5,8.5,0,0,0,2.029-.41,11.772,11.772,0,0,0,3.935-2.05,10.815,10.815,0,0,0,2.789-3.239,9.044,9.044,0,0,0,1.127-4.017,8.372,8.372,0,0,0-1.045-4.347q-.534-1.024-1.086-2.07a18.994,18.994,0,0,1-.964-2.112,11.97,11.97,0,0,1-.615-2.214,8.6,8.6,0,0,1-.083-2.378,6.306,6.306,0,0,1,.554-2.112,6.1,6.1,0,0,1,1.25-1.824,4.658,4.658,0,0,1,1.784-1.127,3.449,3.449,0,0,1,2.194.02,4.141,4.141,0,0,1,1.906,1.127,5.219,5.219,0,0,1,1.128,1.8,6.212,6.212,0,0,1,.369,2.153,8.055,8.055,0,0,1-.287,2.173,9.546,9.546,0,0,1-.9,2.091,21.4,21.4,0,0,1-1.271,1.927,4.339,4.339,0,0,1-.513.656.6.6,0,0,1-.758.123.554.554,0,0,1-.472-.513A.759.759,0,0,1-6537.994-1247.619Z" fill="#333"/>
        <path id="パス_1716" data-name="パス 1716" d="M-6532.357-1241.838q.163-.082.758-.328a6.793,6.793,0,0,1,1.169-.369,2.217,2.217,0,0,1,.984-.021c.273.07.369.322.286.759a2.007,2.007,0,0,1-.347.738,2.7,2.7,0,0,0-.39.739,9.234,9.234,0,0,0-.471,1.311,1.383,1.383,0,0,0,.143,1.272,3.866,3.866,0,0,0,1.537-.165c.561-.164,1.072-.328,1.538-.492a7.815,7.815,0,0,0,.779-.41q.573-.328,1.21-.636a6.789,6.789,0,0,1,1.168-.451q.532-.142.656.1.163.286-.205.615a4,4,0,0,1-.922.595c-.369.177-.745.342-1.128.492s-.629.253-.738.308q-.9.45-1.825.88a7.345,7.345,0,0,1-1.906.595,1.117,1.117,0,0,1-1.189-.369,2.2,2.2,0,0,1-.328-1.25,6.669,6.669,0,0,1,.225-1.641q.226-.881.472-1.619-.943.369-1.845.677a16.608,16.608,0,0,0-1.764.717q-.736.328-1.475.738a.624.624,0,0,1-.718-.226c-.177-.231-.1-.43.226-.594Zm4.8-8.282a2.392,2.392,0,0,1,.636-.922,3.755,3.755,0,0,1,.963-.636,6.175,6.175,0,0,1,1.128-.39c.4-.095.771-.169,1.127-.225a14.7,14.7,0,0,1,2.911.123,2.151,2.151,0,0,1,.553.082c.206.056.293.2.267.451a.617.617,0,0,1-.205.349.411.411,0,0,1-.369.1,9.885,9.885,0,0,0-2.481-.184,4.405,4.405,0,0,0-2.316.759,1.33,1.33,0,0,0-.574.655,1.5,1.5,0,0,1-.492.656.646.646,0,0,1-.861,0A.672.672,0,0,1-6527.56-1250.12Z" fill="#333"/>
        <path id="パス_1717" data-name="パス 1717" d="M-6524.182-1239.829q.45-.246,1.558-.84t2.275-1.128a10.4,10.4,0,0,1,2.152-.738q.985-.2,1.231.328a.814.814,0,0,1-.1.8,3.453,3.453,0,0,0-.389.717l-.493,1.148a10.236,10.236,0,0,1,1.067-.574l1.066-.492q1.311-.7,2.705-1.476a13.307,13.307,0,0,1,2.829-1.189,2.025,2.025,0,0,1,.944-.02,1.181,1.181,0,0,1,.636.369,1.047,1.047,0,0,1,.225.7,1.691,1.691,0,0,1-.328.923,6.82,6.82,0,0,1-.8,1.026q-.431.45-.882.983a2.431,2.431,0,0,1-.286.328c-.137.137-.281.294-.43.472a6.675,6.675,0,0,0-.411.533,1.324,1.324,0,0,0-.225.471,1.568,1.568,0,0,0,.718,0,6.47,6.47,0,0,0,.86-.225q.431-.144.82-.308c.26-.109.457-.191.595-.246l1.681-.738c.109-.055.253-.137.43-.246s.363-.211.554-.308.375-.184.554-.266a1.091,1.091,0,0,1,.429-.123.327.327,0,0,1,.37.369.643.643,0,0,1-.329.574q-.368.206-.778.39l-.861.389q-.575.328-1.108.575t-1.106.532q-.328.164-1.046.471a7.219,7.219,0,0,1-1.435.452,2.381,2.381,0,0,1-1.25-.041c-.356-.123-.533-.457-.533-1.005a1.368,1.368,0,0,1,.2-.738,5.139,5.139,0,0,1,.472-.635,7.867,7.867,0,0,1,.574-.595c.205-.19.39-.369.554-.533a9.019,9.019,0,0,0,.82-.861,3.345,3.345,0,0,0,.738-1.23,8.548,8.548,0,0,0-2.235.574,22.461,22.461,0,0,0-2.07.944q-1.189.573-2.46,1.291a9.5,9.5,0,0,0-2.214,1.7.786.786,0,0,1-.431.184.757.757,0,0,1-.43-.082.663.663,0,0,1-.308-.307.767.767,0,0,1-.02-.533,1.273,1.273,0,0,1,.615-.656,7.87,7.87,0,0,0,.41-.759,2.442,2.442,0,0,1,.287-.512q.081-.286.164-.594a4.987,4.987,0,0,0,.123-.636c-.3.082-.6.178-.9.287s-.533.192-.7.246q-.574.246-1.148.472c-.384.15-.765.321-1.148.512-.219.109-.417.22-.6.328a3.481,3.481,0,0,1-.594.287.649.649,0,0,1-.471.062.767.767,0,0,1-.349-.185.361.361,0,0,1-.1-.308C-6524.476-1239.645-6524.373-1239.747-6524.182-1239.829Z" fill="#333"/>
        <path id="パス_1718" data-name="パス 1718" d="M-6505.421-1239.829q1.066-.532,2.091-1.025t2.091-.9a14.605,14.605,0,0,1,2.276-.615,13.213,13.213,0,0,1,2.357-.205,1,1,0,0,1,.7.225q.246.228.041.759a.806.806,0,0,1-.738.41,14.324,14.324,0,0,0-2.152,0,6.668,6.668,0,0,0-2.071.492,3.423,3.423,0,0,0-.7.37,4.348,4.348,0,0,0-.676.552,1.716,1.716,0,0,0-.431.677.989.989,0,0,0,.082.779,1.484,1.484,0,0,0,1.251.82,4.237,4.237,0,0,0,1.578-.041,4.242,4.242,0,0,0,.943-.328l.738-.369a2.728,2.728,0,0,1,.594-.225.626.626,0,0,1,.554.184.869.869,0,0,1,.021.943q-.267.532-.431.9l-.574,1.354q1.107-1.149,2.337-2.195a18.723,18.723,0,0,1,2.624-1.865c.082-.055.191-.137.328-.246a4.028,4.028,0,0,1,.451-.308,1.945,1.945,0,0,1,.492-.2.464.464,0,0,1,.41.062c.191.137.259.273.205.41a1.261,1.261,0,0,1-.287.41q-1.066.575-2.05,1.231a18.95,18.95,0,0,0-1.927,1.475,24.273,24.273,0,0,0-2.03,1.927,23.7,23.7,0,0,0-1.783,2.132l-1.066,2.46q-.492,1.23-.984,2.5t-1.066,2.5q-.123.246-.308.594a5.2,5.2,0,0,1-.41.657,1.816,1.816,0,0,1-.533.492,1.053,1.053,0,0,1-.676.143.747.747,0,0,1-.635-.451,1.624,1.624,0,0,1-.083-.82,5.337,5.337,0,0,1,.206-.9q.143-.452.266-.738a21.348,21.348,0,0,1,1.947-3.588,37.83,37.83,0,0,1,2.481-3.3l1.394-3.978a10.658,10.658,0,0,1-1.579.308,6.811,6.811,0,0,1-1.578.02,3.526,3.526,0,0,1-1.333-.41,1.98,1.98,0,0,1-.881-1.065,1.993,1.993,0,0,1,.041-1.723c-.219.138-.445.281-.676.431a.7.7,0,0,1-.595.143.442.442,0,0,1-.492-.349A.417.417,0,0,1-6505.421-1239.829Z" fill="#333"/>
        <path id="パス_1719" data-name="パス 1719" d="M-6491.637-1239.87a26,26,0,0,0,2.46-1.271q1.189-.7,2.378-1.517a22.076,22.076,0,0,1,1.271-2.214q.7-1.065,1.353-2.091.7-.942,1.394-1.906t1.435-1.907q.615-.819,1.333-1.661a6.175,6.175,0,0,1,1.66-1.373,3.4,3.4,0,0,1,1.108-.348.763.763,0,0,1,.9.594,1.3,1.3,0,0,1,.02.881,3.622,3.622,0,0,1-.43.862,9.6,9.6,0,0,1-.614.82q-.33.39-.534.676a32.845,32.845,0,0,1-3.67,4.367,38.258,38.258,0,0,1-4.366,3.751q-.206.492-.472,1.046a10.091,10.091,0,0,0-.471,1.168,6.578,6.578,0,0,0-.286,1.21,3.089,3.089,0,0,0,.04,1.128c.3-.055.574-.1.82-.123.219-.028.424-.048.615-.062a1.2,1.2,0,0,0,.369-.062,18.527,18.527,0,0,0,2.419-.656q1.188-.41,2.337-.9a3.473,3.473,0,0,0,.78-.328.736.736,0,0,1,.778-.041q.451.328.123.594a2.686,2.686,0,0,1-.614.39l-4.757,1.763q-.7.246-1.353.513a4.237,4.237,0,0,1-1.353.307,1.333,1.333,0,0,1-.984-.184,1.377,1.377,0,0,1-.512-.7,2.355,2.355,0,0,1-.1-.942,5.212,5.212,0,0,1,.164-.964,14.376,14.376,0,0,1,.738-1.968,31.492,31.492,0,0,1-3.526,2.009.64.64,0,0,1-.677-.267C-6492.039-1239.507-6491.965-1239.706-6491.637-1239.87Zm8.323-5.616a31.885,31.885,0,0,0,3.527-3.9,13.9,13.9,0,0,0,1.393-1.968q.083-.2.246-.512a5.209,5.209,0,0,0,.287-.636,4.452,4.452,0,0,0-1.087.779c-.341.328-.622.6-.839.82a21.858,21.858,0,0,0-1.764,1.989q-.821,1.046-1.64,2.152-.452.657-.861,1.292t-.778,1.291c.245-.19.5-.4.757-.636Z" fill="#333"/>
        <path id="パス_1720" data-name="パス 1720" d="M-6479.649-1239.87q.738-.369,1.538-.82a13.672,13.672,0,0,1,1.619-.779,4.193,4.193,0,0,1,1.517-1.537,6.2,6.2,0,0,1,2.092-.8,5.378,5.378,0,0,1,1.332,0,1.628,1.628,0,0,1,1.169.615.646.646,0,0,1,.143.7,1.939,1.939,0,0,1-.492.7,4.878,4.878,0,0,1-.779.595q-.431.266-.636.389a5.839,5.839,0,0,1-1.619.676,5.206,5.206,0,0,1-1.783.144h-.164a2.3,2.3,0,0,0,.737,1.394,3.578,3.578,0,0,0,1.354.718,4.928,4.928,0,0,0,1.619.185,12.312,12.312,0,0,0,1.538-.165,18.059,18.059,0,0,0,1.927-.512,17.959,17.959,0,0,0,1.844-.718q.411-.206.841-.39a8.669,8.669,0,0,0,.8-.389.78.78,0,0,1,.594.082c.205.11.225.287.061.533a1.049,1.049,0,0,1-.574.451c-.245.082-.465.164-.655.246l-2.05.9a35.153,35.153,0,0,1-3.732,1.229,6.148,6.148,0,0,1-1.66.1,4.8,4.8,0,0,1-1.558-.37,4.073,4.073,0,0,1-1.291-.881,3.228,3.228,0,0,1-.821-1.476c-.054-.219-.1-.436-.143-.656a1.326,1.326,0,0,1,.02-.614,7.951,7.951,0,0,0-.882.47c-.286.179-.54.335-.757.472a3.043,3.043,0,0,0-.534.308.554.554,0,0,1-.656.02.469.469,0,0,1-.225-.451A.38.38,0,0,1-6479.649-1239.87Zm4.183-1.148a4.743,4.743,0,0,0,1.906-.492,5.99,5.99,0,0,0,1.619-1.148,2.31,2.31,0,0,0-1.127-.122,3.191,3.191,0,0,0-1.025.327,3.172,3.172,0,0,0-.841.635A2.531,2.531,0,0,0-6475.466-1241.018Z" fill="#333"/>
        <path id="パス_1721" data-name="パス 1721" d="M-6433.771-1256.188a3.644,3.644,0,0,0-1.783-.287,7.214,7.214,0,0,0-1.824.41,6.1,6.1,0,0,1,4.181,1.127,4.116,4.116,0,0,1,1.4,3.834,12.474,12.474,0,0,1-1.25,4.387,34.091,34.091,0,0,1-2.316,4.018q-1.066,1.6-2.42,3.259a22.474,22.474,0,0,1-2.993,3.035,19.089,19.089,0,0,1-3.505,2.336,10.257,10.257,0,0,1-3.916,1.128,7.292,7.292,0,0,1-1.948-.1,3.034,3.034,0,0,1-1.7-.923,3.252,3.252,0,0,1-.9-1.927,8.221,8.221,0,0,1,.041-2.173,14.9,14.9,0,0,1,1.415-4.285,37.455,37.455,0,0,1,2.275-3.915,31.156,31.156,0,0,1,2.624-3.711,41.891,41.891,0,0,1,3.074-3.341,32.253,32.253,0,0,1,3.342-2.747,9.462,9.462,0,0,1,3.916-1.681,8.7,8.7,0,0,1,1.578-.123,2.181,2.181,0,0,1,1.455.451.675.675,0,0,1,.268.472.773.773,0,0,1-.1.471.762.762,0,0,1-.37.308A.664.664,0,0,1-6433.771-1256.188Zm-7.789,2.706a26.23,26.23,0,0,0-3.3,3.218,41.441,41.441,0,0,0-2.808,3.67,29.894,29.894,0,0,0-2.276,3.915,16.742,16.742,0,0,0-1.414,4.285,7.8,7.8,0,0,0-.123.922,4.884,4.884,0,0,0,.021,1.005,3.4,3.4,0,0,0,.246.923,1.66,1.66,0,0,0,.594.717,2.559,2.559,0,0,0,1.579.471,8.356,8.356,0,0,0,1.619-.184,11.312,11.312,0,0,0,4.1-1.722,29.1,29.1,0,0,0,3.487-2.747,26.361,26.361,0,0,0,3.054-3.362,22.237,22.237,0,0,0,2.358-3.854c.246-.492.517-1.087.818-1.783a10.9,10.9,0,0,0,.678-2.153,6.254,6.254,0,0,0,.082-2.132,2.758,2.758,0,0,0-.924-1.722,2.656,2.656,0,0,0-1.844-.718,10.979,10.979,0,0,0-2.05.144.673.673,0,0,1-.657-.2.877.877,0,0,1-.246-.738,15.933,15.933,0,0,0-1.619,1.025Q-6440.987-1253.933-6441.56-1253.482Z" fill="#333"/>
        <path id="パス_1722" data-name="パス 1722" d="M-6434.975-1239.87q.861-.45,1.7-.9t1.825-1.025a1.985,1.985,0,0,1,.471-1.476,1.624,1.624,0,0,1,1.415-.656.831.831,0,0,1,.738.574.994.994,0,0,1-.164.943,2.764,2.764,0,0,1-.861.82,1.386,1.386,0,0,0,.7.164,3.754,3.754,0,0,0,1.8-.308,11.929,11.929,0,0,0,1.681-.84q.738-.246.943.164a.976.976,0,0,1-.164.984q-.205.328-.472.841a7.878,7.878,0,0,0-.451,1.045,3.568,3.568,0,0,0-.2,1.025.925.925,0,0,0,.307.78c.136.163.5.163,1.087,0s1.373-.438,2.357-.821c.328-.136.662-.294,1.005-.471s.689-.349,1.045-.513a2.105,2.105,0,0,0,.369-.185,2.041,2.041,0,0,1,.472-.2.7.7,0,0,1,.41,0c.123.041.184.185.184.431a.481.481,0,0,1-.184.369,2.268,2.268,0,0,1-.41.287,2.854,2.854,0,0,1-.472.2l-.369.123-1.722.78-1.128.614a9.379,9.379,0,0,1-1.373.615,4.055,4.055,0,0,1-1.353.246,1.178,1.178,0,0,1-1.025-.533,1.331,1.331,0,0,1-.246-.636,2.4,2.4,0,0,1,.021-.7,6.256,6.256,0,0,1,.164-.7c.067-.233.129-.457.184-.677l.328-1.353q-.205.042-.84.2a8.165,8.165,0,0,1-1.373.226,6.929,6.929,0,0,1-1.415-.021,1.374,1.374,0,0,1-1-.533q-.7.369-1.148.616t-.923.532c-.314.192-.567.343-.758.451a2.446,2.446,0,0,0-.574.308.485.485,0,0,1-.574.061.513.513,0,0,1-.246-.451A.424.424,0,0,1-6434.975-1239.87Z" fill="#333"/>
        <path id="パス_1723" data-name="パス 1723" d="M-6415.5-1241.838q.163-.082.759-.328a6.74,6.74,0,0,1,1.169-.369,2.21,2.21,0,0,1,.983-.021c.273.07.369.322.287.759a2.013,2.013,0,0,1-.349.738,2.755,2.755,0,0,0-.389.739,9.357,9.357,0,0,0-.471,1.311,1.383,1.383,0,0,0,.144,1.272,3.869,3.869,0,0,0,1.537-.165q.839-.246,1.537-.492a7.7,7.7,0,0,0,.779-.41q.574-.328,1.21-.636a6.835,6.835,0,0,1,1.168-.451q.534-.142.656.1.163.286-.205.615a3.97,3.97,0,0,1-.923.595c-.369.177-.745.342-1.127.492s-.628.253-.738.308q-.9.45-1.824.88a7.35,7.35,0,0,1-1.906.595,1.119,1.119,0,0,1-1.19-.369,2.2,2.2,0,0,1-.328-1.25,6.627,6.627,0,0,1,.226-1.641q.225-.881.471-1.619-.944.369-1.844.677a16.442,16.442,0,0,0-1.764.717q-.738.328-1.476.738a.621.621,0,0,1-.717-.226c-.178-.231-.1-.43.225-.594Zm4.8-8.282a2.371,2.371,0,0,1,.634-.922,3.823,3.823,0,0,1,.964-.636,6.191,6.191,0,0,1,1.127-.39c.4-.095.773-.169,1.128-.225a14.7,14.7,0,0,1,2.911.123,2.161,2.161,0,0,1,.554.082.364.364,0,0,1,.267.451.631.631,0,0,1-.205.349.414.414,0,0,1-.37.1,9.886,9.886,0,0,0-2.48-.184,4.4,4.4,0,0,0-2.316.759,1.328,1.328,0,0,0-.575.655,1.486,1.486,0,0,1-.492.656.646.646,0,0,1-.861,0A.671.671,0,0,1-6410.707-1250.12Z" fill="#333"/>
        <path id="パス_1724" data-name="パス 1724" d="M-6407.132-1239.829q1.066-.532,2.091-1.025t2.09-.9a14.655,14.655,0,0,1,2.276-.615,13.228,13.228,0,0,1,2.358-.205,1,1,0,0,1,.7.225q.246.228.041.759a.807.807,0,0,1-.738.41,14.343,14.343,0,0,0-2.153,0,6.662,6.662,0,0,0-2.07.492,3.416,3.416,0,0,0-.7.37,4.387,4.387,0,0,0-.675.552,1.728,1.728,0,0,0-.431.677.989.989,0,0,0,.082.779,1.485,1.485,0,0,0,1.25.82,4.242,4.242,0,0,0,1.579-.041,4.212,4.212,0,0,0,.942-.328l.739-.369a2.734,2.734,0,0,1,.594-.225.627.627,0,0,1,.554.184.872.872,0,0,1,.021.943q-.269.532-.431.9l-.574,1.354q1.107-1.149,2.337-2.195a18.666,18.666,0,0,1,2.624-1.865c.082-.055.191-.137.328-.246a4.074,4.074,0,0,1,.451-.308,1.945,1.945,0,0,1,.492-.2.462.462,0,0,1,.409.062c.192.137.26.273.2.41a1.223,1.223,0,0,1-.287.41q-1.067.575-2.049,1.231A18.95,18.95,0,0,0-6397-1236.3a24.273,24.273,0,0,0-2.03,1.927,23.7,23.7,0,0,0-1.783,2.132l-1.066,2.46q-.492,1.23-.984,2.5t-1.066,2.5c-.082.164-.184.362-.308.594a5.2,5.2,0,0,1-.41.657,1.816,1.816,0,0,1-.533.492,1.056,1.056,0,0,1-.676.143.746.746,0,0,1-.635-.451,1.613,1.613,0,0,1-.082-.82,5.2,5.2,0,0,1,.205-.9c.094-.3.184-.547.266-.738a21.348,21.348,0,0,1,1.947-3.588,37.826,37.826,0,0,1,2.481-3.3l1.394-3.978a10.7,10.7,0,0,1-1.579.308,6.812,6.812,0,0,1-1.578.02,3.52,3.52,0,0,1-1.333-.41,1.989,1.989,0,0,1-.882-1.065,2,2,0,0,1,.041-1.723c-.218.138-.444.281-.675.431a.7.7,0,0,1-.6.143.441.441,0,0,1-.492-.349A.415.415,0,0,1-6407.132-1239.829Z" fill="#333"/>
        <path id="パス_1725" data-name="パス 1725" d="M-6389.249-1241.838q.163-.082.758-.328a6.784,6.784,0,0,1,1.169-.369,2.214,2.214,0,0,1,.984-.021c.273.07.369.322.287.759a2.023,2.023,0,0,1-.349.738,2.755,2.755,0,0,0-.389.739,9.361,9.361,0,0,0-.471,1.311,1.383,1.383,0,0,0,.143,1.272,3.871,3.871,0,0,0,1.538-.165q.839-.246,1.537-.492a7.759,7.759,0,0,0,.779-.41c.383-.219.785-.431,1.21-.636a6.808,6.808,0,0,1,1.168-.451q.532-.142.656.1.163.286-.205.615a3.98,3.98,0,0,1-.923.595c-.369.177-.745.342-1.127.492s-.629.253-.738.308q-.9.45-1.824.88a7.345,7.345,0,0,1-1.906.595,1.119,1.119,0,0,1-1.19-.369,2.207,2.207,0,0,1-.328-1.25,6.627,6.627,0,0,1,.226-1.641q.225-.881.471-1.619-.943.369-1.845.677a16.459,16.459,0,0,0-1.763.717q-.738.328-1.476.738a.623.623,0,0,1-.718-.226c-.177-.231-.1-.43.226-.594Zm4.8-8.282a2.379,2.379,0,0,1,.635-.922,3.8,3.8,0,0,1,.964-.636,6.191,6.191,0,0,1,1.127-.39c.4-.095.773-.169,1.128-.225a14.7,14.7,0,0,1,2.911.123,2.165,2.165,0,0,1,.554.082.363.363,0,0,1,.266.451.619.619,0,0,1-.2.349.413.413,0,0,1-.369.1,9.884,9.884,0,0,0-2.48-.184,4.4,4.4,0,0,0-2.317.759,1.329,1.329,0,0,0-.574.655,1.486,1.486,0,0,1-.492.656.646.646,0,0,1-.861,0A.673.673,0,0,1-6384.452-1250.12Z" fill="#333"/>
        <path id="パス_1726" data-name="パス 1726" d="M-6381.074-1239.829q.452-.246,1.558-.84t2.276-1.128a10.382,10.382,0,0,1,2.153-.738q.982-.2,1.229.328a.812.812,0,0,1-.1.8,3.416,3.416,0,0,0-.39.717l-.491,1.148a10.156,10.156,0,0,1,1.065-.574c.356-.163.711-.328,1.067-.492q1.311-.7,2.706-1.476a13.268,13.268,0,0,1,2.829-1.189,2.014,2.014,0,0,1,.942-.02,1.17,1.17,0,0,1,.636.369,1.045,1.045,0,0,1,.226.7,1.685,1.685,0,0,1-.329.923,6.785,6.785,0,0,1-.8,1.026q-.431.45-.881.983a2.567,2.567,0,0,1-.287.328q-.207.205-.431.472t-.41.533a1.34,1.34,0,0,0-.226.471,1.569,1.569,0,0,0,.718,0,6.51,6.51,0,0,0,.861-.225c.286-.1.56-.2.82-.308s.458-.191.594-.246l1.681-.738q.163-.082.431-.246c.177-.108.362-.211.553-.308s.375-.184.554-.266a1.1,1.1,0,0,1,.431-.123.325.325,0,0,1,.368.369.643.643,0,0,1-.327.574c-.246.137-.507.267-.779.39l-.862.389q-.575.328-1.106.575t-1.108.532q-.327.164-1.045.471a7.265,7.265,0,0,1-1.435.452,2.38,2.38,0,0,1-1.25-.041c-.357-.123-.533-.457-.533-1.005a1.352,1.352,0,0,1,.205-.738,4.939,4.939,0,0,1,.471-.635,7.681,7.681,0,0,1,.574-.595c.205-.19.389-.369.553-.533a9.133,9.133,0,0,0,.821-.861,3.327,3.327,0,0,0,.737-1.23,8.551,8.551,0,0,0-2.234.574,22.532,22.532,0,0,0-2.071.944q-1.189.573-2.46,1.291a9.541,9.541,0,0,0-2.214,1.7.778.778,0,0,1-.43.184.762.762,0,0,1-.431-.082.659.659,0,0,1-.307-.307.764.764,0,0,1-.021-.533,1.273,1.273,0,0,1,.615-.656,7.464,7.464,0,0,0,.41-.759,2.5,2.5,0,0,1,.288-.512c.054-.191.108-.389.164-.594a4.9,4.9,0,0,0,.123-.636q-.453.123-.9.287t-.7.246q-.574.246-1.147.472t-1.149.512c-.219.109-.417.22-.594.328a3.54,3.54,0,0,1-.594.287.651.651,0,0,1-.472.062.77.77,0,0,1-.349-.185.356.356,0,0,1-.1-.308C-6381.367-1239.645-6381.264-1239.747-6381.074-1239.829Z" fill="#333"/>
      </g>
    </g>
  </g>
</svg>
