<svg id="lineup_oolong_name" xmlns="http://www.w3.org/2000/svg" width="178.974" height="132.08" viewBox="0 0 178.974 132.08">
  <g id="グループ_250" data-name="グループ 250" transform="translate(-871.11 -1063.8)">
    <path id="パス_1204" data-name="パス 1204" d="M883.192,1076c-1.33,0-1.33.3-1.33,2.545,0,.988.3,1.178.685,1.254,1.368.342,5.85,1.444,5.85,4.407,0,.874-.531,2.166-1.481,2.166-.57,0-.646-.19-1.369-2.014-.836-2.2-2.849-3.761-3.3-3.761-.418,0-.418.076-.418,2.089,0,2.09.228,11.285.228,13.223,0,.531,0,2.507-2.053,2.507-.759,0-.759-.531-.759-1.1,0-.493.115-3,.115-3.533.074-3,.189-8.739.189-11.55,0-.152,0-.646-.38-.646-.19,0-.3.19-1.254,1.6-2.166,3.191-5.926,7.218-6.649,7.218-.113,0-.152-.075-.152-.189,0-.152,2.129-2.888,2.394-3.268a38.812,38.812,0,0,0,5.09-10.335c0-.569-.189-.607-1.785-.607-.342,0-2.584.038-3.609.114-.114,0-.684.113-.8.113-.153,0-.192-.113-.342-.265l-.723-.874c-.113-.114-.152-.19-.152-.266s.076-.076.113-.076c.268,0,1.446.114,1.711.152,1.444.038,3.153.114,4.559.114h.836c.381,0,1.025,0,1.178-.646.039-.228.039-3.04.039-3.458,0-1.178-.153-1.785-1.178-1.785-.153,0-3.762.342-4.446.342-.3,0-1.253,0-1.253-.191,0-.151.265-.227.418-.265a32.965,32.965,0,0,0,9.308-3.268,22.423,22.423,0,0,1,2.09-1.406,12.883,12.883,0,0,1,3.342,2.85c0,.228-.19.342-.492.342-.192,0-.875-.076-1.065-.076a19.8,19.8,0,0,0-3.875,1.14c-.57.418-.57,2.09-.57,3.267,0,2.85,0,3.154,1.139,3.154,1.634,0,1.634,0,2.583-1.178.534-.684.875-1.064,1.065-1.064s3.268,2.09,3.268,2.736c0,.494-.8.494-2.053.494Zm16.642-7.524a1.309,1.309,0,0,0,1.215-.493c.684-.836.76-.912.951-.912a19.581,19.581,0,0,1,2.469,1.71.859.859,0,0,1,.266.569c0,.305-.266.457-.531.571-.836.418-.836.645-.836,2.963,0,7.181,0,8.207.265,17.363,0,.381.114,2.2.114,2.622a1.571,1.571,0,0,1-.569,1.444,3.67,3.67,0,0,1-1.787.684c-.644,0-.644-.684-.644-1.254,0-.8-.457-.8-1.065-.8H894.59c-1.1,0-1.138.342-1.138,1.406,0,1.368-1.407,1.862-2.129,1.862a.87.87,0,0,1-.912-1.026c0-.342.152-1.976.152-2.356.076-1.786.152-11.17.152-12.272,0-2.2,0-6.725-.3-11.665,0-.189-.19-1.177-.19-1.405,0-.266.19-.342.457-.342a5.784,5.784,0,0,1,1.67.646,3.7,3.7,0,0,0,2.358.683Zm-.152,23.443c1.1,0,1.1-.608,1.1-1.444v-20.1c0-.759-.647-.911-1.1-.911h-5.168a.967.967,0,0,0-1.062.57c-.116.3-.116,11.284-.116,12.994,0,3.989.077,7.979.116,8.168.113.722.759.722,1.1.722Z" fill="#333"/>
    <path id="パス_1205" data-name="パス 1205" d="M923.875,1092.638c0,2.393-1.291,5.4-2.925,5.4a2.031,2.031,0,0,1-1.785-2.015c0-.493.076-.607,1.406-2.735a12.04,12.04,0,0,0,1.519-5.4c0-.228-.113-.57-.113-.684a.081.081,0,0,1,.074-.076c.3,0,1.18,1.254,1.559,3.078A15.115,15.115,0,0,1,923.875,1092.638Zm5.815-23.1c.76,0,.986-.038,1.443-.836a10.83,10.83,0,0,0,1.367-3.99c0-.114-.113-.608-.113-.721,0-.152.19-.19.3-.19.268,0,2.014.531,2.7.721,1.139.342,1.746.494,1.746,1.026,0,.456-.113.494-1.367,1.064-.607.266-3.228,2.356-3.228,2.7,0,.229.265.229.568.229h10.715a.863.863,0,0,0,.912-.494c.265-.38.607-.874,1.025-.874.3,0,2.889,1.216,2.889,1.862,0,.3-.418.607-.609.722-.493.342-.608.493-.608,1.443,0,.38.19,4.142.19,4.369a1.914,1.914,0,0,1-2.051,1.786c-.873,0-.873-.57-.912-1.1-.037-.874-.836-.874-1.141-.874H928.586c-.531,0-1.062.075-1.214.721-.039.153-.039,2.28-.039,2.394,0,1.026.191,1.33,1.253,1.33h15.92c1.559,0,1.748,0,2.053-.266s1.633-2.052,2.09-2.052,3.57,2.09,3.57,2.812c0,.494-.76.494-2.013.494H928.549c-1.177,0-1.177.608-1.177,1.253,0,2.584,0,2.888,1.291,2.888h19.074c.494,0,.873,0,1.1-.494.266-.531.495-1.026.873-1.026.3,0,2.965,1.292,2.965,2.014,0,.19-.152.38-.533.646a1.708,1.708,0,0,0-.873,1.368c-.152.8-.873,4.9-1.1,5.813a5.246,5.246,0,0,1-5.244,4.255c-.836,0-.873-.227-1.1-.911a5.329,5.329,0,0,0-2.014-2.128c-.152-.114-.912-.38-.912-.57,0-.038.039-.114.189-.114.116,0,.3.114.571.152a11.114,11.114,0,0,0,2.394.3c3.192,0,3.533-1.862,3.762-2.964.418-2.127.721-4.255.721-4.559,0-.8-.608-.8-1.139-.8H928.284c-.723,0-.836.19-1.026.646a1.926,1.926,0,0,1-1.863,1.292c-.607,0-.873-.19-.873-.8,0-.19.076-1.672.076-1.976.113-2.279.152-3.191.152-13.488a16.5,16.5,0,0,0-.267-3.381c-.037-.19-.455-1.14-.455-1.368,0-.152.113-.152.228-.152a8.581,8.581,0,0,1,2.621.988c1.217.76,1.368.836,2.166.836Zm-1.1,1.025c-1.214,0-1.253,0-1.253,3.078,0,1.444,0,1.748,1.253,1.748h14.932c1.18,0,1.293,0,1.293-3.382,0-1.178-.076-1.444-1.217-1.444Zm3.231,23.519c0,.684-.039,2.47-1.9,2.47-.835,0-.873-.95-.912-2.7a17.637,17.637,0,0,0-.418-3.382c-.037-.189-.113-.456-.113-.532s.039-.151.076-.151a9.651,9.651,0,0,1,1.977,1.443A3.753,3.753,0,0,1,931.817,1094.081Zm7.332-.874a1.817,1.817,0,0,1-1.6,1.976c-1.178,0-1.4-1.216-1.556-2.394a14.252,14.252,0,0,0-.608-2.583c-.039-.152-.418-.76-.418-.874,0-.076.113-.114.227-.114a5.206,5.206,0,0,1,1.937.988A3.846,3.846,0,0,1,939.149,1093.207Zm6.574-1.14a1.689,1.689,0,0,1-1.635,1.634c-.8,0-1.062-.8-1.632-2.47a6.637,6.637,0,0,0-1.217-2.241,3.844,3.844,0,0,1-.455-.608c0-.076.189-.076.228-.076a7.465,7.465,0,0,1,2.317.76C945.571,1090.32,945.723,1091.725,945.723,1092.067Z" fill="#333"/>
    <path id="パス_1206" data-name="パス 1206" d="M978.586,1075.578a5.976,5.976,0,0,0,1.217-.038c.342-.076,1.6-1.368,1.748-1.368.266,0,2.356,1.633,2.356,2.051,0,.342-.571.38-.76.38H972.2a39.091,39.091,0,0,0-4.065.115c-.076,0-.457.076-.57.076s-.19-.114-.3-.266l-.76-.874c-.15-.152-.15-.19-.15-.228,0-.077.037-.114.15-.114.723,0,4.028.228,4.674.228.494,0,.684-.076.684-.342a11.617,11.617,0,0,0-.494-2.394c-.151-.456-.569-1.482-.721-1.9l.037-.076c.152,0,3.039,1.368,3.039,3.458,0,.19-.226.912-.226,1.063,0,.229.265.229.418.229h1.48c.494,0,.76-.038,1.027-.684a17.7,17.7,0,0,0,.95-3.761c0-.647,0-.761.341-.761.114,0,2.166.684,2.356.761a.46.46,0,0,1,.228.38c0,.189-.8.645-.912.8a13.13,13.13,0,0,0-2.127,3c0,.266.266.266.418.266Zm-.531-6.421a5.993,5.993,0,0,0,1.178-.038c.381-.114,1.519-1.71,1.711-1.71.15,0,2.164,1.824,2.164,2.242,0,.493-.836.493-2.014.493h-6.648c-3.344,0-4.406.077-4.787.115-.153,0-.684.113-.8.113-.151,0-.227-.113-.342-.266l-.721-.873c-.115-.114-.189-.19-.189-.228,0-.076.074-.115.15-.115.836,0,4.561.267,5.321.267.683,0,.836-.3.836-1.52,0-.3-.116-2.052-.229-2.736a4.968,4.968,0,0,1-.228-.8.178.178,0,0,1,.191-.19c.15,0,3.76.874,3.76,1.634,0,.228-.114.3-.76.684-.455.266-.455,1.216-.455,1.6,0,.912.076,1.33.912,1.33Zm-5.205,20.365c-.494,0-1.025.037-1.025.949,0,.988.113,5.32.113,6.194a1.641,1.641,0,0,1-1.861,1.709c-.76,0-.76-.38-.76-1.254,0-1.861.189-10.03.189-11.7,0-4.483-.076-4.939-.189-5.509-.039-.19-.342-.874-.342-1.026,0-.076.037-.114.152-.114a15.077,15.077,0,0,1,2.508,1.064,3.723,3.723,0,0,0,1.444.228H977.6c.645,0,1.063-.038,1.4-.532.268-.418.344-.494.647-.494.265,0,2.736.912,2.736,1.71,0,.152-.189.342-.607.722-.381.379-.381.646-.381,2.735,0,1.6.189,8.625.189,10.031,0,1.064,0,3.951-3.191,3.951-.418,0-.455-.076-.8-.95a2.473,2.473,0,0,0-1.711-1.747c-.379-.114-.494-.114-.494-.228,0-.076.076-.114.152-.114h2.7c.8-.114.8-.912.8-2.014,0-.418,0-2.811-.039-3-.113-.571-.531-.608-.949-.608Zm5.168-5.281c.986,0,.986-.3.986-1.672,0-1.1,0-1.52-.986-1.52h-5.205c-.988,0-.988.342-.988,1.71,0,1.1,0,1.482.988,1.482Zm-5.205,1.025c-.988,0-.988.3-.988,1.748,0,1.14,0,1.52.988,1.52h5.205c.986,0,.986-.3.986-1.748,0-1.14,0-1.52-.986-1.52Zm20.631-7.371c1.1,0,1.1-.152,1.1-2.849,0-.722-.039-1.254-1.064-1.254h-4.6c-.379,0-.76,0-.986.456a2.175,2.175,0,0,1-1.939,1.254c-.532,0-.76-.456-.76-.988,0-.19.076-.874.076-.95.039-.456.039-4.749.039-6a26.516,26.516,0,0,0-.115-2.812c0-.075-.114-.456-.114-.531s0-.228.153-.228c.037,0,3.42.607,3.42,1.139,0,.19-.61.836-.723.988-.152.228-.152.342-.152,1.406,0,.76.341.912,1.064.912h4.6c1.367,0,1.443-.076,1.6-.266.265-.266,1.177-1.748,1.519-1.748.189,0,2.811,2.014,2.811,2.508,0,.532-.645.532-1.633.532h-8.891c-1.025,0-1.1.418-1.1,1.216,0,2.013.189,2.089,1.1,2.089h4.483a1.908,1.908,0,0,0,1.027-.19c.113-.114.644-.684.8-.684a8.607,8.607,0,0,1,2.584,1.9c0,.19-.076.228-.571.646-.378.342-.378.608-.378,1.634,0,.266.074,2.127.074,2.2a1.558,1.558,0,0,1-1.67,1.482c-.533,0-.647-.152-.912-.608-.192-.266-.61-.266-.836-.266h-4.75c-.836,0-1.065.228-1.065,1.52,0,1.14.457,1.14.989,1.14h3.724c1.215,0,1.328,0,1.6-.19.227-.228,1.178-1.292,1.443-1.292.19,0,2.621,1.6,2.621,2.014,0,.456-.494.456-1.367.456h-8.017c-.8,0-.989.3-.989,1.14,0,1.747.039,1.937,1.065,1.937h3.381c1.216,0,1.33,0,1.595-.19.229-.19,1.178-1.291,1.446-1.291.189,0,2.621,1.6,2.621,2.013,0,.456-.494.456-1.367.456h-7.639c-.986,0-1.025.532-1.025,1.292,0,1.444,0,1.862,1.064,1.862h3.344c1.177,0,1.33,0,1.519-.228.229-.19,1.141-1.33,1.407-1.33.226,0,3.039,1.71,3.039,2.165,0,.381-.647.381-1.635.381h-7.637c-1.062,0-1.062.493-1.062,1.557,0,.874,0,2.28.418,2.622.568.494,1.671.532,3.912.532,5.357,0,5.433-.228,6.08-2.622.3-1.178.3-1.254.949-4.217.039-.228.076-.342.189-.342.077,0,.077.114.077.152a11.091,11.091,0,0,0,.646,4.711c.113.266,1.065,1.33,1.065,1.6,0,.911-1.254,1.634-1.635,1.862-1.063.683-2.28,1.254-7.295,1.254-6.535,0-6.877-1.407-6.877-3.268,0-3.837,0-14.666-.037-15.084,0-.3-.266-2.279-.266-2.47,0-.152.19-.152.227-.152a8.78,8.78,0,0,1,2.013.685,3.145,3.145,0,0,0,1.52.341Z" fill="#333"/>
    <path id="パス_1207" data-name="パス 1207" d="M1040.092,1078.541a33.476,33.476,0,0,0,9.2,3c.152,0,.8.114.8.266,0,.114-.531.266-.683.3a6.594,6.594,0,0,0-2.887,2.051c-.113.152-.531.95-.723.95-.226,0-8.472-3.989-12.2-10.068-.723-1.216-.836-1.33-1.1-1.33s-.342.076-1.178.95a45.174,45.174,0,0,1-11.246,8.852c-1.293.684-5.244,2.432-5.967,2.432-.113,0-.189-.076-.189-.114s4.066-2.545,4.408-2.774c5.129-3.229,10.562-9.042,11.093-11.891.038-.3.077-.418.342-.418.19,0,3.268,1.177,3.457,1.291.116.038.494.19.494.57a2.373,2.373,0,0,1-.152.532C1033.633,1073.716,1036.9,1076.908,1040.092,1078.541Zm-18.312-9.46c-2.813,0-4.1.076-4.826.114-.114,0-.684.075-.8.075s-.19-.075-.342-.227l-.723-.874c-.152-.19-.152-.19-.152-.266s.039-.076.115-.076c.266,0,1.443.114,1.672.114,1.861.076,3.457.152,5.242.152h1.1c.8,0,1.027-.38,1.027-1.026a6.142,6.142,0,0,0-.3-2.013,5.674,5.674,0,0,1-.228-.761c0-.19.189-.266.418-.266.265,0,1.976.418,2.394.532,1.139.3,1.368.38,1.368.722,0,.228-.037.3-.571.988a.935.935,0,0,0-.265.684c0,.912.3,1.14,1.33,1.14h6.269c.342,0,1.139,0,1.139-1.026a16.117,16.117,0,0,0-.113-1.71c-.039-.19-.229-.988-.229-1.139,0-.191.229-.267.418-.267.266,0,2.85.608,3.268.723s.646.265.646.607c0,.228-.152.38-.57.684a1.218,1.218,0,0,0-.494,1.064c0,1.064.607,1.064,1.217,1.064h1.937c1.672,0,1.861,0,2.432-.646,1.062-1.254,1.177-1.406,1.519-1.406.229,0,3.533,2.014,3.533,2.508,0,.532-.759.532-2.013.532h-7.408c-1.178,0-1.178.607-1.178,1.519,0,.228.037,1.52.037,1.71,0,1.406-1.139,1.634-1.938,1.634-.873,0-1.025-.152-1.025-1.444v-2.621c-.115-.722-.57-.8-1.178-.8h-6.08c-.873,0-1.406,0-1.406,1.063,0,.38.115,2.052.115,2.394,0,.722-.115,1.064-.457,1.292a2.693,2.693,0,0,1-1.443.532c-.647,0-.949-.418-.949-1.178,0-.3.037-1.748.037-2.013,0-1.483,0-2.09-1.178-2.09Zm2.7,19.415a19.452,19.452,0,0,1,2.926,1.786.938.938,0,0,1,.305.569c0,.456-.305.533-1.217.76-.114.038-3.381,2.584-3.989,3.04a23.328,23.328,0,0,1-5.775,3.305.122.122,0,0,1-.115-.113c0-.077,2.013-1.825,2.279-2.09,3.154-3,5.092-6,5.434-7.219A.231.231,0,0,1,1024.477,1088.5Zm1.748-2.014c-2.963,0-4.066.038-4.826.114-.113,0-.684.076-.8.076s-.189-.076-.342-.228l-.722-.874c-.153-.19-.153-.19-.153-.265,0-.039.039-.077.115-.077.266,0,1.444.115,1.672.115,1.862.113,3.457.151,5.243.151h2.849c.381,0,1.141,0,1.141-1.025,0-.456-.229-3.534-.305-3.914,0-.076-.228-.456-.228-.532s.076-.228.38-.228c.266,0,2.926.57,3.305.684.533.114.723.456.723.646,0,.228-.076.3-.647.8-.531.456-.531.684-.531,1.823,0,1.368,0,1.748,1.141,1.748h1.67c1.671,0,1.863,0,2.431-.646,1.065-1.253,1.18-1.405,1.522-1.405.226,0,3.533,2.051,3.533,2.507,0,.532-.76.532-2.014.532H1034.2c-1.141,0-1.141.684-1.141,1.9,0,2.7,0,4.217.076,6.459.039.646.039,1.558.039,2.013,0,1.216-.3,1.938-1.937,1.938-.836,0-.912-.684-.912-1.329,0-.494.113-2.774.113-3.268.039-1.444.039-2.849.039-4.6a23.034,23.034,0,0,0-.076-2.583c-.19-.532-.8-.532-1.1-.532Zm10.145,3.192c0-.115.189-.152.341-.152,1.407,0,10.069,2.393,10.069,5.547,0,1.216-.684,2.165-1.633,2.165-.723,0-.875-.189-2.053-1.937a18.036,18.036,0,0,0-6.535-5.472C1036.522,1089.825,1036.37,1089.712,1036.37,1089.674Z" fill="#333"/>
  </g>
  <g id="グループ_252" data-name="グループ 252" transform="translate(-871.11 -1063.8)">
    <g id="グループ_251" data-name="グループ 251">
      <path id="パス_1208" data-name="パス 1208" d="M914.208,1123.252c-.325,0-.721-.109-.721-.576,0-.577.594-.577.721-.577h2.718c.719,0,.719.486.719.577,0,.576-.522.576-.719.576Z" fill="#333"/>
      <path id="パス_1209" data-name="パス 1209" d="M924.52,1124.242a24.315,24.315,0,0,0,2.377-6.626c0-.18-.072-.18-.649-.18a3.468,3.468,0,0,1-1.6-.324,1.734,1.734,0,0,1-.936-.973.076.076,0,0,1,.073-.072,4.268,4.268,0,0,1,.414.162,6.6,6.6,0,0,0,1.6.2,3.947,3.947,0,0,0,1.28-.163,5.205,5.205,0,0,0,.2-1.476,2.493,2.493,0,0,0-.215-1.116c-.072-.09-.5-.54-.5-.666,0-.181.342-.414.809-.414a1.626,1.626,0,0,1,1.441.954c0,.09-.2.45-.2.54,0,.342,1.441.648,1.621.648.072,0,.469-.036.559-.036a.514.514,0,0,1,.593.558c0,1.008-1.529,1.531-2.718,1.855-.612.162-.684.18-.756.5a47.672,47.672,0,0,1-1.315,5.113c-1.242,3.745-1.89,3.745-2.232,3.745-.432,0-.486-.594-.486-.792C923.872,1125.466,923.961,1125.286,924.52,1124.242Zm3.8-8.229c.09,0,1.459-.486,1.459-.72,0-.18-.973-.576-1.172-.576-.108,0-.16.036-.2.216-.073.36-.073.414-.162.846C928.229,1115.905,928.211,1116.013,928.319,1116.013Zm1.369,7.635c.377,1.566,2.322,1.908,3.689,1.908.307,0,1.676-.126,1.963-.126.614,0,1.442.306,1.442.9,0,.522-.666.613-2.2.613-2.916,0-5.347-.739-5.347-3.007,0-.415.107-.793.252-.793C929.561,1123.143,929.668,1123.594,929.688,1123.648Zm3.978-6.266c1.711,0,3.006.5,3.006,1.3,0,.432-.377.432-.521.432-.162,0-.863-.054-1.008-.054a3.015,3.015,0,0,0-1.332.289,3.152,3.152,0,0,1-.756.233c-.037,0-.092,0-.092-.054,0-.126.938-.81.938-1.008,0-.27-1.279-.288-1.549-.288a10.622,10.622,0,0,0-1.3.072c-.107.018-.521.072-.594.072-.017,0-.144,0-.162-.036C930.174,1118.1,931.741,1117.382,933.666,1117.382Z" fill="#333"/>
      <path id="パス_1210" data-name="パス 1210" d="M944.373,1117.868a.16.16,0,0,1,.163-.144c.054,0,.99.252,1.187.252a29.988,29.988,0,0,0,3.025-.54c.307-.216.325-2.035.325-2.125a2.273,2.273,0,0,0-.45-1.53c-.271-.324-.306-.36-.306-.414,0-.126.217-.145.287-.145,1.207,0,1.91.685,1.91,1.153,0,.036-.685,2.323-.685,2.665,0,.108.072.162.2.162.09,0,.918-.09,1.062-.09a2.126,2.126,0,0,1,2.395,2.3c0,1.423-.5,4.52-1.549,5.78a2.8,2.8,0,0,1-1.836,1.1c-.685,0-.865-.667-1.062-1.243-.038-.09-.235-.558-.235-.594a.085.085,0,0,1,.09-.09,3.181,3.181,0,0,1,.449.126,5.735,5.735,0,0,0,.92.126c.522,0,1.188-.252,1.709-2.2a14.249,14.249,0,0,0,.559-3.133c0-1.26-.721-1.35-1.242-1.35a3.918,3.918,0,0,0-1.729.432c-.072.09-.09.162-.269.774-.721,2.449-2.467,6.878-3.926,6.878a.529.529,0,0,1-.576-.576c0-.378.127-.522,1.207-1.71a10.553,10.553,0,0,0,2.214-4.069,4.955,4.955,0,0,0,.252-.847.126.126,0,0,0-.127-.144c-.4,0-2.07.72-2.429.72C945.2,1119.4,944.373,1118.264,944.373,1117.868Zm12.569,3.745c-.182,0-1.01-.486-1.225-.54-.09-.036-.576-.072-.576-.126,0-.108.594-.414.7-.5.666-.505.739-.558.739-1.045a2.314,2.314,0,0,0-1.458-2.07c-.144-.072-.433-.2-.433-.271,0-.107.072-.107.127-.107a3.3,3.3,0,0,1,3.15,3.187C957.967,1120.352,957.7,1121.613,956.942,1121.613Z" fill="#333"/>
      <path id="パス_1211" data-name="パス 1211" d="M969.686,1113.673a1.8,1.8,0,0,0,1.172.99c.756.18,1.115.27,1.115.756,0,1.027-1.656,1.495-2.844,1.693-.361.054-.4.144-.451.378a13.1,13.1,0,0,0-.521,3.313c0,.234,0,.828.215.828a.856.856,0,0,0,.378-.2,5.764,5.764,0,0,1,3.368-1.152,3.038,3.038,0,0,1,3.078,3.187c0,3.043-3.278,3.763-4.717,4a10.8,10.8,0,0,1-1.441.126c-.053,0-.27,0-.27-.09a4.083,4.083,0,0,1,.846-.306c3.584-1.045,4.215-2.539,4.215-3.727a2.03,2.03,0,0,0-2.018-2.323,3.882,3.882,0,0,0-3.35,2.053c-.287.918-.3,1.026-.683,1.026-.738,0-.883-1.567-.883-1.729,0-.846.938-4.771.938-5.275,0-.144-.038-.144-.342-.18-2.287-.271-2.557-1.585-2.557-1.675,0-.054.035-.126.09-.126a7.017,7.017,0,0,1,.629.324,5.354,5.354,0,0,0,2.142.361c.217,0,.289-.036.362-.145a5.362,5.362,0,0,0,.359-1.656,2.018,2.018,0,0,0-.4-1.207c-.143-.161-.2-.216-.2-.27,0-.144.45-.216.539-.216A1.577,1.577,0,0,1,969.686,1113.673Zm-.539,2.106c0,.109.107.126.18.126.269,0,1.224-.269,1.224-.63,0-.342-.738-.918-.845-.918C969.471,1114.357,969.147,1115.743,969.147,1115.779Z" fill="#333"/>
      <path id="パス_1212" data-name="パス 1212" d="M986.248,1115.347a9.592,9.592,0,0,1-.414,1.117,14.4,14.4,0,0,0-1.244,5.239c0,.252.02,1.53.252,1.53.2,0,1.225-3.691,1.459-3.691.037,0,.055.036.055.108a13.425,13.425,0,0,1-.217,1.369,14.84,14.84,0,0,0-.467,3.187,2.139,2.139,0,0,0,.2,1.008,3.676,3.676,0,0,1,.234.72.739.739,0,0,1-.648.792c-1.028,0-1.711-2.466-1.711-4.681a18.405,18.405,0,0,1,.486-3.835,13.788,13.788,0,0,0,.521-3.2,4.9,4.9,0,0,0-.179-1.386,2.936,2.936,0,0,1-.162-.342c0-.036.017-.073.054-.073C985.258,1113.043,986.248,1114.879,986.248,1115.347Zm2.448,2.629a2.4,2.4,0,0,1,.324.216,4.639,4.639,0,0,0,2.377.522c1.008,0,1.045-.18,1.045-.432,0-1.728-.109-1.963-.234-2.232a5.517,5.517,0,0,1-.29-.541c0-.09.235-.144.379-.144.451,0,1.369.324,1.369.954,0,.145-.271,1.621-.271,1.8a.144.144,0,0,0,.145.162c.126,0,.937-.252.937-.738,0-.073-.037-.144-.182-.361-.017-.035-.072-.089-.072-.126s.092-.035.217-.035c1.332,0,1.728.144,1.728.63,0,.846-1.691,1.53-2.449,1.71-.252.054-.342.109-.342.36a19.762,19.762,0,0,0,.362,2.9c.09.559.107.595.467.684,1.656.4,2.7,1.189,2.7,1.747a.806.806,0,0,1-.666.738c-.2,0-.9-.63-1.063-.738a2.284,2.284,0,0,0-1.08-.468c-.18,0-.18.108-.18.324-.017.522-.289,2.125-2.539,2.125-2,0-2.521-1.261-2.521-1.909,0-1.134,1.135-1.963,3.3-2.034.486-.018.595-.036.595-.433,0-.216-.072-1.512-.2-2.719-.017-.269-.2-.288-.324-.288-.162,0-.828.072-.973.072a2.785,2.785,0,0,1-2.214-.792,1.35,1.35,0,0,1-.432-.774C988.606,1118.12,988.606,1117.976,988.7,1117.976Zm1.117-4.177a4.231,4.231,0,0,0,1.025.089,9.057,9.057,0,0,0,2.809-.5,1.193,1.193,0,0,1,.686-.181c.052,0,.576,0,.576.451,0,.684-1.19,1.152-3.026,1.152a2.981,2.981,0,0,1-2.107-.612c-.09-.09-.27-.288-.27-.36a.1.1,0,0,1,.055-.09A1.3,1.3,0,0,1,989.813,1113.8Zm-.217,11.181c0,.63.9.81,1.494.81.811,0,1.711-.378,1.711-1.386,0-.234,0-.468-1.152-.468C990.3,1123.936,989.6,1124.494,989.6,1124.98Z" fill="#333"/>
      <path id="パス_1213" data-name="パス 1213" d="M1003.518,1123.252c-.324,0-.721-.109-.721-.576,0-.577.594-.577.721-.577h2.719c.719,0,.719.486.719.577,0,.576-.522.576-.719.576Z" fill="#333"/>
    </g>
  </g>
  <g id="グループ_254" data-name="グループ 254" transform="translate(-871.11 -1063.8)">
    <g id="グループ_253" data-name="グループ 253">
      <path id="パス_1214" data-name="パス 1214" d="M926.756,1147.871a5.533,5.533,0,0,1-11.066,0,5.533,5.533,0,0,1,11.066,0Zm-1.316,0a4.217,4.217,0,1,0-8.434,0,4.217,4.217,0,1,0,8.434,0Z" fill="#333"/>
      <path id="パス_1215" data-name="パス 1215" d="M943.94,1147.871a5.533,5.533,0,0,1-11.065,0,5.533,5.533,0,0,1,11.065,0Zm-1.317,0a4.216,4.216,0,1,0-8.431,0,4.216,4.216,0,1,0,8.431,0Z" fill="#333"/>
      <path id="パス_1216" data-name="パス 1216" d="M952.016,1151.948h3.209v1.2H950.7v-10.562h1.316Z" fill="#333"/>
      <path id="パス_1217" data-name="パス 1217" d="M971.4,1147.871a5.533,5.533,0,0,1-11.066,0,5.533,5.533,0,0,1,11.066,0Zm-1.316,0a4.217,4.217,0,1,0-8.434,0,4.217,4.217,0,1,0,8.434,0Z" fill="#333"/>
      <path id="パス_1218" data-name="パス 1218" d="M978.09,1142.086l7.928,8.307v-7.8h1.318v11l-7.929-8.306v7.872H978.09Z" fill="#333"/>
      <path id="パス_1219" data-name="パス 1219" d="M1004.377,1147.829v.421a4.905,4.905,0,0,1-5,5.127,5.506,5.506,0,0,1,.141-11.01,5.54,5.54,0,0,1,4.3,2.045l-.926.882a4.164,4.164,0,0,0-7.535,2.564,4.312,4.312,0,0,0,4.1,4.314,3.548,3.548,0,0,0,3.461-3.138h-2.732v-1.205Z" fill="#333"/>
    </g>
  </g>
  <g id="グループ_255" data-name="グループ 255" transform="translate(-871.11 -1063.8)">
    <path id="パス_1220" data-name="パス 1220" d="M904.431,1179.681a8.426,8.426,0,0,0,.941-.994,5.05,5.05,0,0,0,.724-1.194,3.73,3.73,0,0,0,.3-1.316,2.7,2.7,0,0,0-.3-1.33,2.916,2.916,0,0,0-.752-.939,2.1,2.1,0,0,0-1.1-.483,1.561,1.561,0,0,0-1.075.268,4.326,4.326,0,0,0-.833.778,3.011,3.011,0,0,0-.63,1.276,4.269,4.269,0,0,0-.067,1.4,6.585,6.585,0,0,0,.322,1.411,12.737,12.737,0,0,0,.536,1.315q.322.645.645,1.263a12.136,12.136,0,0,1,.565,1.248,7.1,7.1,0,0,1,.362,1.316,5.078,5.078,0,0,1,.04,1.437,6.209,6.209,0,0,1-.886,2.618,8.753,8.753,0,0,1-1.866,2.188,8.3,8.3,0,0,1-2.485,1.45,6.435,6.435,0,0,1-2.765.4,3.695,3.695,0,0,1-3.3-2.578,4.474,4.474,0,0,1-.215-1.357,5.242,5.242,0,0,1,.175-1.343,7.024,7.024,0,0,1,.484-1.289,8.51,8.51,0,0,1,.711-1.194,6.974,6.974,0,0,1,.874-1.02,6.757,6.757,0,0,1,1.086-.86,5.6,5.6,0,0,1,1.236-.591,3.753,3.753,0,0,1,1.343-.188,3.434,3.434,0,0,1,1.37.336,2.923,2.923,0,0,1,1.047.819,2.628,2.628,0,0,1,.523,1.182,2.487,2.487,0,0,1-.174,1.4.6.6,0,0,1-.322.241.51.51,0,0,1-.35-.013.47.47,0,0,1-.241-.215.35.35,0,0,1,.054-.362,1.728,1.728,0,0,0,.12-1.316,1.691,1.691,0,0,0-.818-1.02,2.738,2.738,0,0,0-1.317-.35,3.612,3.612,0,0,0-1.3.242,5.019,5.019,0,0,0-1.195.658,6.459,6.459,0,0,0-.994.9,7.378,7.378,0,0,0-.818,1.182,5.735,5.735,0,0,0-.551,1.342,4.4,4.4,0,0,0-.148,1.41,3.44,3.44,0,0,0,.363,1.356,2.848,2.848,0,0,0,.832,1.06,2.979,2.979,0,0,0,1.128.538,4.179,4.179,0,0,0,1.3.093,5.577,5.577,0,0,0,1.329-.268,7.712,7.712,0,0,0,2.579-1.343,7.077,7.077,0,0,0,1.826-2.121,5.931,5.931,0,0,0,.738-2.632,5.483,5.483,0,0,0-.685-2.847q-.348-.671-.711-1.355a12.471,12.471,0,0,1-.631-1.384,7.834,7.834,0,0,1-.4-1.45,5.608,5.608,0,0,1-.053-1.558,4.1,4.1,0,0,1,.362-1.382,3.957,3.957,0,0,1,.819-1.195,3.046,3.046,0,0,1,1.168-.739,2.26,2.26,0,0,1,1.437.014,2.712,2.712,0,0,1,1.249.738,3.42,3.42,0,0,1,.738,1.182,4.063,4.063,0,0,1,.241,1.41,5.27,5.27,0,0,1-.187,1.423,6.294,6.294,0,0,1-.591,1.37,13.858,13.858,0,0,1-.833,1.261,2.808,2.808,0,0,1-.335.43.4.4,0,0,1-.5.081.362.362,0,0,1-.309-.336A.5.5,0,0,1,904.431,1179.681Z" fill="#333"/>
    <path id="パス_1221" data-name="パス 1221" d="M908.143,1183.468q.106-.054.5-.215a4.286,4.286,0,0,1,.765-.241,1.428,1.428,0,0,1,.644-.014q.269.067.189.5a1.327,1.327,0,0,1-.229.483,1.826,1.826,0,0,0-.255.484,6.013,6.013,0,0,0-.308.859.9.9,0,0,0,.094.832,2.537,2.537,0,0,0,1.006-.107c.368-.108.7-.215,1.007-.323a4.988,4.988,0,0,0,.511-.268q.375-.214.792-.416a4.351,4.351,0,0,1,.766-.3c.232-.063.375-.04.429.067.071.126.027.26-.135.4a2.589,2.589,0,0,1-.6.388c-.241.118-.487.225-.738.323s-.412.166-.484.2q-.59.294-1.2.577a4.845,4.845,0,0,1-1.248.389.733.733,0,0,1-.779-.242,1.437,1.437,0,0,1-.215-.819,4.38,4.38,0,0,1,.148-1.074q.147-.578.309-1.061c-.412.161-.816.309-1.209.444a10.592,10.592,0,0,0-1.154.469q-.484.216-.967.484a.408.408,0,0,1-.47-.148q-.174-.228.148-.389Zm3.142-5.425a1.553,1.553,0,0,1,.416-.6,2.5,2.5,0,0,1,.632-.417,4.1,4.1,0,0,1,.738-.255c.259-.062.506-.111.738-.147a9.675,9.675,0,0,1,1.906.08,1.471,1.471,0,0,1,.364.054c.133.036.191.134.173.3a.4.4,0,0,1-.133.228.272.272,0,0,1-.243.067,6.433,6.433,0,0,0-1.624-.121,2.891,2.891,0,0,0-1.517.5.867.867,0,0,0-.376.429.972.972,0,0,1-.322.43.424.424,0,0,1-.564,0A.44.44,0,0,1,911.285,1178.043Z" fill="#333"/>
    <path id="パス_1222" data-name="パス 1222" d="M913.532,1184.784l1.02-.551q.726-.39,1.49-.738a6.789,6.789,0,0,1,1.411-.483q.644-.135.8.214a.531.531,0,0,1-.067.524,2.29,2.29,0,0,0-.255.47l-.322.751a6.7,6.7,0,0,1,.7-.375l.7-.323q.859-.454,1.773-.967a8.716,8.716,0,0,1,1.852-.778,1.328,1.328,0,0,1,.618-.014.767.767,0,0,1,.416.242.686.686,0,0,1,.148.457,1.1,1.1,0,0,1-.215.6,4.453,4.453,0,0,1-.523.671q-.283.3-.578.645a1.507,1.507,0,0,1-.188.214q-.135.135-.282.309c-.1.117-.188.233-.269.35a.856.856,0,0,0-.147.308,1.022,1.022,0,0,0,.469,0,4.334,4.334,0,0,0,.565-.147q.281-.094.537-.2c.17-.072.3-.125.389-.161l1.1-.484c.071-.036.165-.09.282-.161s.237-.139.363-.2.246-.12.362-.174a.713.713,0,0,1,.282-.081.214.214,0,0,1,.242.242.422.422,0,0,1-.215.376c-.161.09-.331.174-.51.255s-.367.166-.565.255q-.376.214-.724.376c-.234.107-.475.223-.726.349-.142.072-.371.174-.684.309a4.807,4.807,0,0,1-.94.3,1.569,1.569,0,0,1-.819-.026c-.233-.081-.349-.3-.349-.659a.892.892,0,0,1,.134-.483,3.307,3.307,0,0,1,.309-.416,5.091,5.091,0,0,1,.376-.39q.2-.187.363-.348a6.1,6.1,0,0,0,.537-.565,2.187,2.187,0,0,0,.483-.8,5.564,5.564,0,0,0-1.463.376,14.686,14.686,0,0,0-1.357.618q-.778.376-1.611.845a6.257,6.257,0,0,0-1.45,1.115.531.531,0,0,1-.282.121.512.512,0,0,1-.282-.054.435.435,0,0,1-.2-.2.5.5,0,0,1-.014-.35.835.835,0,0,1,.4-.429,5.2,5.2,0,0,0,.268-.5,1.618,1.618,0,0,1,.189-.335c.035-.125.071-.256.107-.39a3.119,3.119,0,0,0,.08-.416c-.2.054-.393.116-.591.187s-.348.126-.456.162q-.376.161-.752.308t-.752.336c-.143.072-.273.144-.389.215a2.134,2.134,0,0,1-.39.188.422.422,0,0,1-.309.04.507.507,0,0,1-.227-.121.232.232,0,0,1-.067-.2C913.339,1184.9,913.407,1184.838,913.532,1184.784Z" fill="#333"/>
    <path id="パス_1223" data-name="パス 1223" d="M925.85,1184.784q.7-.348,1.369-.672c.447-.215.9-.411,1.37-.591a9.6,9.6,0,0,1,1.491-.4,8.563,8.563,0,0,1,1.543-.135.657.657,0,0,1,.458.148q.16.147.026.5a.529.529,0,0,1-.484.268,9.49,9.49,0,0,0-1.409,0,4.368,4.368,0,0,0-1.356.323,2.191,2.191,0,0,0-.457.242,2.815,2.815,0,0,0-.443.362,1.135,1.135,0,0,0-.282.443.645.645,0,0,0,.054.51.967.967,0,0,0,.819.537,2.792,2.792,0,0,0,1.034-.026,2.848,2.848,0,0,0,.618-.215l.483-.242a1.824,1.824,0,0,1,.389-.148.411.411,0,0,1,.363.122.568.568,0,0,1,.013.617q-.174.348-.282.591l-.376.885q.726-.751,1.531-1.436a12.215,12.215,0,0,1,1.719-1.222c.053-.035.125-.089.214-.161a2.5,2.5,0,0,1,.3-.2,1.238,1.238,0,0,1,.322-.135.307.307,0,0,1,.269.041c.125.09.17.179.134.269a.84.84,0,0,1-.188.268q-.7.376-1.342.806a12.385,12.385,0,0,0-1.263.966,15.994,15.994,0,0,0-1.329,1.262,15.317,15.317,0,0,0-1.168,1.4l-.7,1.611q-.323.805-.645,1.638t-.7,1.638c-.054.108-.121.237-.2.389a3.576,3.576,0,0,1-.269.43,1.175,1.175,0,0,1-.35.322.692.692,0,0,1-.443.095.491.491,0,0,1-.416-.3,1.081,1.081,0,0,1-.054-.537,3.6,3.6,0,0,1,.135-.591c.063-.2.12-.358.174-.483a13.979,13.979,0,0,1,1.276-2.35,24.771,24.771,0,0,1,1.624-2.162l.913-2.605a6.879,6.879,0,0,1-1.033.2,4.493,4.493,0,0,1-1.034.013,2.328,2.328,0,0,1-.873-.268,1.294,1.294,0,0,1-.577-.7,1.308,1.308,0,0,1,.026-1.128c-.142.09-.291.184-.442.283a.458.458,0,0,1-.39.093.29.29,0,0,1-.322-.228A.272.272,0,0,1,925.85,1184.784Z" fill="#333"/>
    <path id="パス_1224" data-name="パス 1224" d="M934.908,1184.757a17.257,17.257,0,0,0,1.611-.832q.779-.458,1.558-.995a14.436,14.436,0,0,1,.832-1.45q.456-.7.886-1.369.456-.618.913-1.249t.94-1.249q.4-.536.873-1.087a4.013,4.013,0,0,1,1.088-.9,2.211,2.211,0,0,1,.724-.228.5.5,0,0,1,.591.389.858.858,0,0,1,.014.578,2.435,2.435,0,0,1-.282.564,5.957,5.957,0,0,1-.4.537c-.143.171-.259.318-.349.443a21.483,21.483,0,0,1-2.4,2.86,25.022,25.022,0,0,1-2.86,2.457c-.09.215-.192.443-.308.685a6.248,6.248,0,0,0-.309.766,4.45,4.45,0,0,0-.189.792,2.015,2.015,0,0,0,.028.738c.2-.035.376-.063.537-.08.142-.019.277-.031.4-.041a.805.805,0,0,0,.242-.04,12.073,12.073,0,0,0,1.584-.43q.78-.268,1.532-.591a2.208,2.208,0,0,0,.509-.215.483.483,0,0,1,.511-.026c.2.144.224.272.08.389a1.734,1.734,0,0,1-.4.256l-3.115,1.154c-.3.107-.6.22-.887.336a2.778,2.778,0,0,1-.886.2.872.872,0,0,1-.644-.121.9.9,0,0,1-.336-.456,1.559,1.559,0,0,1-.068-.618,3.418,3.418,0,0,1,.108-.631,9.328,9.328,0,0,1,.483-1.289,20.8,20.8,0,0,1-2.309,1.316.417.417,0,0,1-.443-.175Q934.586,1184.918,934.908,1184.757Zm5.451-3.679a20.751,20.751,0,0,0,2.309-2.552,9.074,9.074,0,0,0,.914-1.289,3.515,3.515,0,0,1,.161-.335,3.629,3.629,0,0,0,.188-.417,2.922,2.922,0,0,0-.712.511c-.224.215-.407.393-.551.537a14.379,14.379,0,0,0-1.154,1.3q-.537.684-1.074,1.409c-.2.287-.386.568-.565.846s-.348.56-.509.846q.241-.187.5-.417C940.033,1181.369,940.2,1181.221,940.359,1181.078Z" fill="#333"/>
    <path id="パス_1225" data-name="パス 1225" d="M942.791,1184.757q.484-.242,1.007-.537a8.806,8.806,0,0,1,1.061-.51,2.742,2.742,0,0,1,.994-1.008,4.061,4.061,0,0,1,1.369-.523,3.524,3.524,0,0,1,.873,0,1.065,1.065,0,0,1,.766.4.421.421,0,0,1,.094.456,1.291,1.291,0,0,1-.323.457,3.244,3.244,0,0,1-.51.389q-.282.175-.416.255a3.815,3.815,0,0,1-1.061.443,3.433,3.433,0,0,1-1.168.095h-.107a1.509,1.509,0,0,0,.483.913,2.326,2.326,0,0,0,.886.469,3.207,3.207,0,0,0,1.06.121,8.1,8.1,0,0,0,1.008-.107,12.079,12.079,0,0,0,1.262-.336,11.882,11.882,0,0,0,1.209-.47q.268-.133.55-.255t.524-.255a.509.509,0,0,1,.389.053c.134.073.147.189.04.35a.684.684,0,0,1-.375.295c-.161.054-.3.107-.43.161l-1.343.591a23,23,0,0,1-2.444.806,4.08,4.08,0,0,1-1.087.067,3.155,3.155,0,0,1-1.02-.242,2.675,2.675,0,0,1-.847-.577,2.117,2.117,0,0,1-.537-.967c-.036-.143-.067-.286-.094-.43a.872.872,0,0,1,.014-.4,5.077,5.077,0,0,0-.577.308l-.5.309a1.981,1.981,0,0,0-.349.2.362.362,0,0,1-.43.014.31.31,0,0,1-.147-.295A.25.25,0,0,1,942.791,1184.757Zm2.74-.752a3.106,3.106,0,0,0,1.249-.323,3.9,3.9,0,0,0,1.06-.752,1.525,1.525,0,0,0-.738-.08,2.153,2.153,0,0,0-.672.215,2.107,2.107,0,0,0-.551.416A1.661,1.661,0,0,0,945.531,1184.005Z" fill="#333"/>
    <path id="パス_1226" data-name="パス 1226" d="M972.84,1174.069a2.393,2.393,0,0,0-1.168-.188,4.779,4.779,0,0,0-1.2.268,4,4,0,0,1,2.739.739,2.692,2.692,0,0,1,.913,2.51,8.148,8.148,0,0,1-.818,2.874,22.181,22.181,0,0,1-1.518,2.632q-.7,1.047-1.585,2.135a14.6,14.6,0,0,1-1.96,1.987,12.429,12.429,0,0,1-2.295,1.53,6.71,6.71,0,0,1-2.565.739,4.768,4.768,0,0,1-1.275-.067,2,2,0,0,1-1.116-.6,2.135,2.135,0,0,1-.59-1.263,5.413,5.413,0,0,1,.027-1.423,9.73,9.73,0,0,1,.927-2.806,24.623,24.623,0,0,1,1.49-2.565,20.332,20.332,0,0,1,1.719-2.429,27.281,27.281,0,0,1,2.013-2.19,21.249,21.249,0,0,1,2.189-1.8,6.206,6.206,0,0,1,2.564-1.1,5.685,5.685,0,0,1,1.035-.081,1.428,1.428,0,0,1,.953.295.441.441,0,0,1,.174.309.507.507,0,0,1-.067.309.487.487,0,0,1-.241.2A.434.434,0,0,1,972.84,1174.069Zm-5.1,1.772a17.106,17.106,0,0,0-2.162,2.108,27.338,27.338,0,0,0-1.84,2.4,19.519,19.519,0,0,0-1.49,2.565,10.939,10.939,0,0,0-.927,2.806,5.039,5.039,0,0,0-.08.6,3.138,3.138,0,0,0,.013.658,2.191,2.191,0,0,0,.162.6,1.083,1.083,0,0,0,.388.469,1.681,1.681,0,0,0,1.034.31,5.623,5.623,0,0,0,1.061-.121,7.4,7.4,0,0,0,2.685-1.128,19.073,19.073,0,0,0,2.284-1.8,17.348,17.348,0,0,0,2-2.2,14.626,14.626,0,0,0,1.544-2.524c.161-.323.339-.712.537-1.168a7.2,7.2,0,0,0,.443-1.411,4.107,4.107,0,0,0,.054-1.4,1.813,1.813,0,0,0-.6-1.128,1.736,1.736,0,0,0-1.208-.47,7.121,7.121,0,0,0-1.342.094.439.439,0,0,1-.43-.135.574.574,0,0,1-.161-.482,10.12,10.12,0,0,0-1.061.671Q968.115,1175.547,967.739,1175.841Z" fill="#333"/>
    <path id="パス_1227" data-name="パス 1227" d="M972.07,1184.757q.564-.3,1.114-.591t1.2-.671a1.3,1.3,0,0,1,.309-.967,1.064,1.064,0,0,1,.927-.43.548.548,0,0,1,.483.376.656.656,0,0,1-.107.618,1.818,1.818,0,0,1-.565.537.9.9,0,0,0,.457.107,2.465,2.465,0,0,0,1.182-.2,7.954,7.954,0,0,0,1.1-.551q.483-.161.618.108a.643.643,0,0,1-.108.644c-.09.144-.193.327-.309.551a4.983,4.983,0,0,0-.295.684,2.358,2.358,0,0,0-.135.672.607.607,0,0,0,.2.51q.134.162.711,0t1.545-.537q.322-.133.657-.309c.224-.116.452-.228.686-.336a1.315,1.315,0,0,0,.241-.121,1.263,1.263,0,0,1,.309-.133.436.436,0,0,1,.268,0c.081.026.121.121.121.282a.314.314,0,0,1-.121.241,1.432,1.432,0,0,1-.268.189,1.914,1.914,0,0,1-.309.133l-.241.081-1.128.51-.739.4a6.086,6.086,0,0,1-.9.4,2.664,2.664,0,0,1-.886.161.77.77,0,0,1-.671-.349.882.882,0,0,1-.162-.417,1.588,1.588,0,0,1,.014-.456,4.244,4.244,0,0,1,.107-.457c.045-.151.085-.3.122-.442l.214-.887c-.089.019-.273.064-.55.135a5.48,5.48,0,0,1-.9.147,4.521,4.521,0,0,1-.926-.013.9.9,0,0,1-.659-.349c-.3.161-.554.3-.752.4s-.4.225-.6.35-.372.224-.5.295a1.558,1.558,0,0,0-.376.2.317.317,0,0,1-.376.041.335.335,0,0,1-.161-.3A.276.276,0,0,1,972.07,1184.757Z" fill="#333"/>
    <path id="パス_1228" data-name="パス 1228" d="M984.86,1183.468q.107-.054.5-.215a4.287,4.287,0,0,1,.765-.241,1.428,1.428,0,0,1,.644-.014q.269.067.189.5a1.345,1.345,0,0,1-.229.483,1.826,1.826,0,0,0-.255.484,6.014,6.014,0,0,0-.308.859.9.9,0,0,0,.093.832,2.54,2.54,0,0,0,1.007-.107q.551-.162,1.007-.323a4.989,4.989,0,0,0,.511-.268c.25-.143.513-.282.792-.416a4.373,4.373,0,0,1,.765-.3c.233-.063.376-.04.43.067.071.126.026.26-.135.4a2.589,2.589,0,0,1-.6.388c-.241.118-.488.225-.738.323s-.413.166-.484.2q-.59.294-1.2.577a4.869,4.869,0,0,1-1.248.389.736.736,0,0,1-.78-.242,1.445,1.445,0,0,1-.214-.819,4.334,4.334,0,0,1,.148-1.074q.147-.578.309-1.061c-.412.161-.816.309-1.209.444a10.688,10.688,0,0,0-1.155.469q-.483.216-.966.484a.407.407,0,0,1-.47-.148c-.116-.152-.068-.282.147-.389Zm3.141-5.425a1.574,1.574,0,0,1,.416-.6,2.532,2.532,0,0,1,.632-.417,4.139,4.139,0,0,1,.739-.255c.258-.062.505-.111.738-.147a9.678,9.678,0,0,1,1.906.08,1.457,1.457,0,0,1,.363.054c.134.036.192.134.174.3a.393.393,0,0,1-.134.228.269.269,0,0,1-.242.067,6.433,6.433,0,0,0-1.624-.121,2.89,2.89,0,0,0-1.517.5.867.867,0,0,0-.376.429.974.974,0,0,1-.323.43.423.423,0,0,1-.563,0A.442.442,0,0,1,988,1178.043Z" fill="#333"/>
    <path id="パス_1229" data-name="パス 1229" d="M990.375,1184.784q.7-.348,1.37-.672c.447-.215.9-.411,1.37-.591a9.622,9.622,0,0,1,1.49-.4,8.575,8.575,0,0,1,1.544-.135.656.656,0,0,1,.457.148q.16.147.026.5a.526.526,0,0,1-.483.268,9.49,9.49,0,0,0-1.409,0,4.367,4.367,0,0,0-1.357.323,2.214,2.214,0,0,0-.457.242,2.807,2.807,0,0,0-.442.362,1.113,1.113,0,0,0-.282.443.649.649,0,0,0,.053.51.968.968,0,0,0,.82.537,2.786,2.786,0,0,0,1.033-.026,2.848,2.848,0,0,0,.618-.215l.483-.242a1.825,1.825,0,0,1,.389-.148.411.411,0,0,1,.363.122.568.568,0,0,1,.013.617q-.174.348-.281.591l-.376.885q.724-.751,1.53-1.436a12.275,12.275,0,0,1,1.719-1.222c.054-.035.125-.089.215-.161a2.424,2.424,0,0,1,.3-.2,1.211,1.211,0,0,1,.322-.135.3.3,0,0,1,.268.041c.125.09.17.179.134.269a.835.835,0,0,1-.187.268q-.7.376-1.343.806a12.378,12.378,0,0,0-1.263.966,15.975,15.975,0,0,0-1.329,1.262,15.488,15.488,0,0,0-1.168,1.4l-.7,1.611q-.322.805-.645,1.638c-.214.554-.448,1.1-.7,1.638-.054.108-.121.237-.2.389a3.575,3.575,0,0,1-.269.43,1.16,1.16,0,0,1-.349.322.694.694,0,0,1-.443.095.492.492,0,0,1-.417-.3,1.07,1.07,0,0,1-.053-.537,3.5,3.5,0,0,1,.134-.591q.094-.3.174-.483a13.911,13.911,0,0,1,1.277-2.35,24.565,24.565,0,0,1,1.624-2.162l.913-2.605a6.879,6.879,0,0,1-1.033.2,4.5,4.5,0,0,1-1.035.013,2.328,2.328,0,0,1-.873-.268,1.457,1.457,0,0,1-.55-1.827q-.215.135-.443.283a.456.456,0,0,1-.389.093.29.29,0,0,1-.323-.228A.272.272,0,0,1,990.375,1184.784Z" fill="#333"/>
    <path id="パス_1230" data-name="パス 1230" d="M1002.119,1183.468q.106-.054.5-.215a4.253,4.253,0,0,1,.764-.241,1.432,1.432,0,0,1,.645-.014q.268.067.188.5a1.325,1.325,0,0,1-.228.483,1.828,1.828,0,0,0-.255.484,6.005,6.005,0,0,0-.309.859.906.906,0,0,0,.094.832,2.54,2.54,0,0,0,1.007-.107q.551-.162,1.007-.323a4.983,4.983,0,0,0,.511-.268c.25-.143.513-.282.792-.416a4.377,4.377,0,0,1,.765-.3c.233-.063.376-.04.43.067.071.126.026.26-.135.4a2.589,2.589,0,0,1-.6.388c-.242.118-.488.225-.739.323s-.412.166-.483.2q-.591.294-1.2.577a4.863,4.863,0,0,1-1.249.389.735.735,0,0,1-.779-.242,1.445,1.445,0,0,1-.215-.819,4.338,4.338,0,0,1,.149-1.074c.1-.385.2-.738.308-1.061q-.618.242-1.209.444a10.759,10.759,0,0,0-1.154.469q-.483.216-.967.484a.406.406,0,0,1-.469-.148q-.176-.228.147-.389Zm3.141-5.425a1.573,1.573,0,0,1,.416-.6,2.532,2.532,0,0,1,.632-.417,4.158,4.158,0,0,1,.738-.255c.259-.062.506-.111.739-.147a9.678,9.678,0,0,1,1.906.08,1.47,1.47,0,0,1,.363.054c.134.036.192.134.174.3a.4.4,0,0,1-.134.228.269.269,0,0,1-.242.067,6.44,6.44,0,0,0-1.624-.121,2.9,2.9,0,0,0-1.518.5.877.877,0,0,0-.376.429.965.965,0,0,1-.322.43.423.423,0,0,1-.563,0A.441.441,0,0,1,1005.26,1178.043Z" fill="#333"/>
    <path id="パス_1231" data-name="パス 1231" d="M1007.507,1184.784c.2-.107.537-.291,1.021-.551s.98-.506,1.49-.738a6.782,6.782,0,0,1,1.41-.483q.645-.135.806.214a.531.531,0,0,1-.068.524,2.232,2.232,0,0,0-.254.47l-.323.751a6.722,6.722,0,0,1,.7-.375l.7-.323q.858-.454,1.772-.967a8.746,8.746,0,0,1,1.853-.778,1.328,1.328,0,0,1,.618-.014.771.771,0,0,1,.416.242.686.686,0,0,1,.147.457,1.107,1.107,0,0,1-.214.6,4.457,4.457,0,0,1-.524.671c-.188.2-.381.412-.577.645a1.582,1.582,0,0,1-.188.214c-.09.09-.184.193-.283.309s-.187.233-.268.35a.878.878,0,0,0-.148.308,1.026,1.026,0,0,0,.47,0,4.325,4.325,0,0,0,.564-.147q.282-.094.538-.2c.17-.072.3-.125.388-.161l1.1-.484c.071-.036.165-.09.282-.161s.236-.139.362-.2.246-.12.363-.174a.713.713,0,0,1,.282-.081.213.213,0,0,1,.241.242.42.42,0,0,1-.215.376c-.161.09-.331.174-.509.255s-.368.166-.565.255c-.251.143-.492.268-.725.376s-.474.223-.725.349c-.143.072-.371.174-.685.309a4.8,4.8,0,0,1-.939.3,1.573,1.573,0,0,1-.82-.026c-.232-.081-.348-.3-.348-.659a.892.892,0,0,1,.134-.483,3.3,3.3,0,0,1,.308-.416,5.09,5.09,0,0,1,.376-.39q.2-.187.364-.348a6.1,6.1,0,0,0,.537-.565,2.187,2.187,0,0,0,.483-.8,5.571,5.571,0,0,0-1.464.376,14.788,14.788,0,0,0-1.356.618q-.78.376-1.612.845a6.276,6.276,0,0,0-1.45,1.115.528.528,0,0,1-.281.121.51.51,0,0,1-.282-.054.431.431,0,0,1-.2-.2.5.5,0,0,1-.014-.35.832.832,0,0,1,.4-.429,4.97,4.97,0,0,0,.269-.5,1.632,1.632,0,0,1,.188-.335c.035-.125.071-.256.108-.39a3.282,3.282,0,0,0,.08-.416c-.2.054-.394.116-.591.187s-.349.126-.456.162q-.376.161-.752.308t-.752.336c-.144.072-.273.144-.39.215a2.158,2.158,0,0,1-.389.188.422.422,0,0,1-.309.04.505.505,0,0,1-.228-.121.235.235,0,0,1-.067-.2C1007.315,1184.9,1007.382,1184.838,1007.507,1184.784Z" fill="#333"/>
  </g>
</svg>
