<svg id="lineup_reset_name_sp" xmlns="http://www.w3.org/2000/svg" width="750" height="230" viewBox="0 0 750 230">
  <rect id="長方形_38" data-name="長方形 38" width="750" height="230" fill="#fff279" opacity="0"/>
  <g id="グループ_414" data-name="グループ 414" transform="translate(6023.088 1919.305)">
    <g id="グループ_407" data-name="グループ 407">
      <g id="グループ_406" data-name="グループ 406">
        <path id="パス_1755" data-name="パス 1755" d="M-5780.145-1897.813c1.319,0,4.344,1.925,4.344,2.86,0,.275-.11,1.54-.11,1.814,0,6.38.11,11.329.165,12.648.055.661.33,3.411.33,3.96,0,1.43-1.265,2.805-2.09,2.805-1.21,0-2.474-2.915-2.474-4.345,0-.44.274-2.309.274-2.75.11-2.474.11-4.619.11-5.609,0-6.159-.275-7.424-1.979-9.4-.44-.495-.715-.826-.715-1.265C-5782.29-1897.483-5781.41-1897.813-5780.145-1897.813Zm15.123-1.54c-.66-.88-.715-.99-.715-1.1,0-.166,0-.331,1.594-.331,3.3,0,6.05,1.375,6.05,2.8a21.353,21.353,0,0,1-.55,2.2c-.22,1.486-.275,9.735-.44,11.66-.33,3.9-1.375,15.672-13.749,25.516-1.594,1.265-4.344,3.244-4.949,3.244-.219,0-.33-.11-.33-.275,0-.22,3.575-3.739,4.235-4.454,10.613-11.328,11-20.9,11-31.9C-5762.878-1896.274-5763.868-1897.7-5765.022-1899.353Z" fill="#333"/>
        <path id="パス_1756" data-name="パス 1756" d="M-5727.487-1882.69a12.19,12.19,0,0,0,2.034.165c2.2,0,3.135-.275,11.494-2.474,1.484-.386,1.6-.826,1.6-3.741,0-5.938-.66-6.874-1.98-8.853a11.012,11.012,0,0,1-.66-1.045c0-.5,2.035-.935,2.529-.935.661,0,1.266.275,3.795,2.42.165.164,1.155,1.1,1.155,1.65a16.757,16.757,0,0,1-1.045,2.474,45.922,45.922,0,0,0-.824,5.28.971.971,0,0,0,1.1,1.045,66.629,66.629,0,0,0,8.249-2.31,15.6,15.6,0,0,1,2.365-1.155c1.485,0,7.369,4.234,7.369,6.489,0,.385-.275.825-.99.825-.22,0-1.265-.11-1.485-.11-1.155,0-1.76.385-3.739,1.595a45.9,45.9,0,0,1-4.125,2.474.316.316,0,0,1-.33-.33c0-.055.935-1.6,1.045-1.814a9.42,9.42,0,0,0,1.54-4.565c0-.33-.055-1.1-.66-1.1-.11,0-8.359,2.694-9.074,2.914a2.067,2.067,0,0,0-1.705,2.365c0,4.619,0,9.568.11,10.613.44,4.345,3.52,4.84,6.819,4.84a46.678,46.678,0,0,0,6.05-.55,20.705,20.705,0,0,1,4.564-.77,2.131,2.131,0,0,1,2.31,1.759c0,3.52-9.239,3.52-12.209,3.52-9.514,0-10.668-2.475-10.668-11.6,0-1.1.11-5.883.11-6.819,0-.879-.33-1.265-1.1-1.265a40.1,40.1,0,0,0-5.17,1.541c-3.244,1.705-3.574,1.87-4.784,1.87-2.8,0-5-4.18-5-4.4,0-.165.22-.22.33-.22A3.214,3.214,0,0,1-5727.487-1882.69Z" fill="#333"/>
        <path id="パス_1757" data-name="パス 1757" d="M-5654.339-1874.936a2,2,0,0,1-1.869,2.09c-1.21,0-1.6-1.266-1.98-2.475a19.675,19.675,0,0,0-3.19-5.554c-.275-.385-.385-.55-.385-.715,0-.33.33-.495.715-.495C-5659.728-1882.085-5654.339-1879.335-5654.339-1874.936Zm16.993-11.329a3.486,3.486,0,0,1-.11-.494.374.374,0,0,1,.385-.386,12.2,12.2,0,0,1,2.474,1.375c.88.441,3.08,1.76,3.08,3.355,0,.44-.219.495-1.155,1.045-.439.275-2.364,4.014-2.805,4.729-8.413,13.968-21.941,19.412-22.381,19.412a.355.355,0,0,1-.33-.33c0-.274,2.585-1.924,3.08-2.309,11.713-8.964,18.147-19.3,18.147-24.032A5.573,5.573,0,0,0-5637.346-1886.265Zm-8.579,5.335c0,1.6-.88,2.805-1.869,2.805-1.21,0-1.485-1.375-1.65-2.311a17.272,17.272,0,0,0-2.035-5.224,6.215,6.215,0,0,1-.6-1.209c0-.166.275-.331.55-.276C-5648.949-1886.759-5645.925-1884.01-5645.925-1880.93Z" fill="#333"/>
        <path id="パス_1758" data-name="パス 1758" d="M-5597.674-1900.4c1.981,0,5.94,1.76,5.94,3.52a15.946,15.946,0,0,1-.66,2.309,71.367,71.367,0,0,0-.5,7.645c0,1.209.22,1.374,1.815,1.76,3.354.769,11.878,4.784,11.878,8.908a1.882,1.882,0,0,1-1.98,1.925c-1.375,0-1.54-.22-5.223-5-1.54-2.035-4.125-4.62-5.83-4.62-.55,0-.77,0-.77,4.07,0,5.829.055,8.743.275,13.692.055.606.11,1.981.11,2.805,0,1.375,0,5-1.6,5-1.649,0-3.079-3.739-3.079-5.17,0-.22.22-1.374.22-1.595a114.109,114.109,0,0,0,.495-12.758c0-15.727,0-17.487-.66-19.247a6.119,6.119,0,0,0-1.87-2.53l-.11-.22C-5599.158-1900.4-5597.728-1900.4-5597.674-1900.4Z" fill="#333"/>
        <path id="パス_1759" data-name="パス 1759" d="M-5515.653-1883.79a48.482,48.482,0,0,0,13.307,4.344c.221,0,1.156.165,1.156.385,0,.165-.77.385-.991.441a9.515,9.515,0,0,0-4.178,2.969c-.165.22-.771,1.375-1.045,1.375-.33,0-12.264-5.774-17.654-14.573-1.044-1.76-1.209-1.925-1.594-1.925s-.5.11-1.7,1.375a65.4,65.4,0,0,1-16.279,12.813c-1.87.99-7.589,3.519-8.634,3.519-.165,0-.275-.109-.275-.165s5.885-3.684,6.38-4.013c7.424-4.675,15.288-13.089,16.058-17.213.054-.441.11-.606.5-.606.274,0,4.729,1.7,5,1.87.165.055.714.276.714.826a3.421,3.421,0,0,1-.219.769C-5525-1890.774-5520.272-1886.155-5515.653-1883.79Zm-26.507-13.693c-4.069,0-5.94.11-6.984.165-.165,0-.99.11-1.155.11s-.275-.11-.5-.33l-1.045-1.265c-.22-.274-.22-.274-.22-.385s.055-.11.165-.11c.385,0,2.09.165,2.42.165,2.7.11,5,.221,7.589.221h1.595c1.154,0,1.484-.551,1.484-1.486a8.942,8.942,0,0,0-.439-2.915,8.2,8.2,0,0,1-.33-1.1c0-.275.274-.385.6-.385.386,0,2.861.6,3.465.769,1.65.441,1.98.551,1.98,1.045,0,.33-.055.441-.825,1.43a1.343,1.343,0,0,0-.385.99c0,1.32.44,1.651,1.925,1.651h9.074c.495,0,1.649,0,1.649-1.486a22.523,22.523,0,0,0-.165-2.474c-.055-.276-.33-1.43-.33-1.65,0-.275.33-.386.606-.386.384,0,4.124.88,4.729,1.045s.935.386.935.88c0,.33-.22.551-.826.99a1.767,1.767,0,0,0-.714,1.541c0,1.54.879,1.54,1.759,1.54h2.805c2.42,0,2.695,0,3.52-.936,1.54-1.814,1.705-2.034,2.2-2.034.33,0,5.114,2.914,5.114,3.629,0,.77-1.1.77-2.915.77h-10.724c-1.7,0-1.7.88-1.7,2.2,0,.331.055,2.2.055,2.475,0,2.035-1.65,2.365-2.8,2.365-1.264,0-1.484-.22-1.484-2.09v-3.794c-.165-1.045-.825-1.155-1.7-1.155h-8.8c-1.265,0-2.035,0-2.035,1.539,0,.551.165,2.97.165,3.465,0,1.045-.165,1.54-.659,1.87a3.911,3.911,0,0,1-2.09.77c-.936,0-1.375-.6-1.375-1.7,0-.44.054-2.53.054-2.914,0-2.145,0-3.025-1.705-3.025Zm3.9,28.1a28.027,28.027,0,0,1,4.235,2.585,1.362,1.362,0,0,1,.44.825c0,.659-.44.77-1.76,1.1-.165.054-4.894,3.739-5.774,4.4-4.949,3.52-8.084,4.784-8.359,4.784a.176.176,0,0,1-.165-.165c0-.109,2.914-2.639,3.3-3.024,4.565-4.345,7.369-8.689,7.864-10.449A.332.332,0,0,1-5538.256-1869.382Zm2.53-2.914c-4.29,0-5.884.054-6.984.165-.165,0-.99.109-1.154.109s-.276-.109-.5-.33l-1.045-1.265c-.22-.274-.22-.274-.22-.384,0-.055.055-.111.164-.111.386,0,2.09.165,2.42.165,2.695.165,5,.221,7.589.221h4.125c.55,0,1.649,0,1.649-1.485,0-.66-.33-5.115-.439-5.664,0-.111-.33-.66-.33-.77s.109-.33.55-.33c.384,0,4.234.824,4.784.989.769.165,1.045.66,1.045.936,0,.33-.111.439-.935,1.154-.77.66-.77.99-.77,2.64,0,1.98,0,2.53,1.65,2.53h2.419c2.42,0,2.7,0,3.519-.935,1.54-1.815,1.706-2.035,2.2-2.035.33,0,5.114,2.97,5.114,3.629,0,.771-1.1.771-2.915.771h-10.394c-1.649,0-1.649.989-1.649,2.749,0,3.905,0,6.1.11,9.349.055.935.055,2.254.055,2.914,0,1.76-.44,2.805-2.8,2.805-1.21,0-1.319-.99-1.319-1.925,0-.714.164-4.014.164-4.729.056-2.09.056-4.124.056-6.654a33.082,33.082,0,0,0-.111-3.74c-.274-.769-1.154-.769-1.594-.769Zm14.683,4.619c0-.165.275-.22.5-.22,2.035,0,14.573,3.464,14.573,8.029,0,1.759-.99,3.134-2.365,3.134-1.045,0-1.264-.274-2.97-2.8-2.584-3.905-6.378-6.16-9.458-7.919C-5520.823-1867.457-5521.043-1867.622-5521.043-1867.677Z" fill="#333"/>
      </g>
    </g>
    <g id="グループ_409" data-name="グループ 409">
      <g id="グループ_408" data-name="グループ 408">
        <path id="パス_1760" data-name="パス 1760" d="M-5793.786-1816.619c-.54,0-1.2-.18-1.2-.96,0-.96.99-.96,1.2-.96h4.53c1.2,0,1.2.81,1.2.96,0,.96-.87.96-1.2.96Z" fill="#333"/>
        <path id="パス_1761" data-name="パス 1761" d="M-5775.129-1832.489c-2.64,0-3.511.061-3.81.09-.09,0-.54.061-.63.061s-.15-.061-.27-.181l-.57-.689c-.12-.151-.12-.151-.12-.21s.03-.061.09-.061c.21,0,1.14.091,1.32.091,1.47.06,2.729.119,4.14.119h14.4c1.53,0,1.62,0,2.16-.869.6-.931.66-1.051.99-1.051a10.047,10.047,0,0,1,3.39,2.28c0,.42-.57.42-1.59.42h-10.71c-1.02,0-1.14.151-1.86,1.441-.33.569-2.46,4.319-2.46,4.529,0,.271.36.271.9.271h7.5a1.193,1.193,0,0,0,1.17-.451c.33-.45.54-.75.93-.75.54,0,2.67,1.35,2.67,1.8,0,.21-.21.45-.69.93-.33.33-.36.511-.39,1.92-.06,1.41-.06,8.13-.06,10.019,0,.391.06,2.04.06,2.4a1.851,1.851,0,0,1-1.68,2.01c-.69,0-.84-.51-.84-.96,0-.871,0-1.2-.96-1.2h-10.56c-.869,0-.9.33-.96.931-.059.869-1.079,1.2-1.59,1.2a.728.728,0,0,1-.81-.84c0-.42.091-2.279.091-2.67.089-3.149.089-3.509.089-5.189,0-1.47,0-7.5-.06-8.64,0-.24-.12-1.379-.12-1.62,0-.15,0-.24.18-.24.3,0,.451.09,1.831.87a3.691,3.691,0,0,0,1.379.481c.69,0,.811-.42,1.081-1.59a31.486,31.486,0,0,0,.719-3.99c0-.661-.449-.661-.9-.661Zm2.579,7.05c-.99,0-.99.03-.99,3.27,0,2.82,0,2.91.99,2.91h10.71a1.007,1.007,0,0,0,.78-.24,16.543,16.543,0,0,0,.24-3.539c0-2.161,0-2.4-.99-2.4Zm.031,6.99c-.931,0-.991.39-.991,1.05v5.369c0,.691.63.691.991.691h10.529c.84,0,.96-.3.99-.87.09-1.26.09-3.27.09-4.89,0-.96,0-1.35-.99-1.35Z" fill="#333"/>
        <path id="パス_1762" data-name="パス 1762" d="M-5738.688-1827.628a1.04,1.04,0,0,0,.9-.33c.121-.12.57-.87.75-.87a12.837,12.837,0,0,1,1.68.99c.54.329.72.42.72.689,0,.151-.15.3-.72.6-.45.211-.48.36-.75,1.681a49.885,49.885,0,0,1-1.74,6.929,14.47,14.47,0,0,0-.569,1.71.75.75,0,0,0,.3.63c2.31,1.95,2.31,2.88,2.31,3.359,0,.811-.419,1.441-1.11,1.441-.539,0-.749-.361-1.11-1.231-.179-.389-1.17-2.25-1.44-2.25a17.346,17.346,0,0,0-1.529,1.8,10.826,10.826,0,0,1-4.23,2.85c-.061,0-.15-.031-.15-.09,0-.09,1.38-1.231,1.62-1.471,1.77-1.769,3.15-4.019,3.15-4.529s-1.59-2.07-1.741-2.07a.227.227,0,0,0-.239.21c-.21.75-.6,1.44-1.56,1.44-.451,0-.78-.15-.78-.63,0-.181,2.159-7.89,2.159-9.42a.572.572,0,0,0-.54-.6c-.21,0-1.2.12-1.349.12-.09,0-.151-.091-.24-.21l-.6-.691c-.12-.12-.12-.15-.12-.21s.059-.059.09-.059c.33,0,1.92.149,2.28.149a.925.925,0,0,0,.87-.87,45.96,45.96,0,0,0,.6-6.329c0-.54,0-.63.27-.63.059,0,1.289.51,1.44.569,1.38.571,1.529.63,1.529.991a.408.408,0,0,1-.24.36c-.06.06-.42.239-.51.3-.359.3-1.259,4.979-1.259,5.069,0,.6.57.6.9.6Zm-1.411.809c-.779,0-.839.3-.9.84-.121.57-1.23,6.39-1.23,6.81,0,.51.18.6.359.72a20.959,20.959,0,0,0,1.8,1.14c.3,0,.36-.18.869-1.77a51.433,51.433,0,0,0,1.23-6.99c0-.75-.63-.75-.87-.75Zm11.1-.719c.84,0,.9-.451.9-.96,0-.931,0-5.191-.06-5.67-.03-.21-.3-1.05-.3-1.2,0-.21.15-.27.36-.27.18,0,2.91.449,2.91.989,0,.181-.12.3-.51.571a.782.782,0,0,0-.33.66c-.03,1.109-.09,4.739-.09,4.859,0,.54.03,1.021.93,1.021h.99c1.26,0,1.47,0,1.8-.63.36-.66.51-.931.81-.931.36,0,2.279,1.561,2.279,1.95,0,.42-.149.42-1.589.42h-4.32a.8.8,0,0,0-.87.51c-.03.21-.03,4.65-.03,5.19,0,.51,0,1.17.78,1.17,1.77,0,1.95,0,2.34-.509.66-.811.72-.9.93-.9.3,0,2.219,1.44,2.219,1.8,0,.42-.6.42-1.589.42h-3.81c-.87,0-.87.48-.87,1.32s0,6.39.06,6.569a.731.731,0,0,0,.81.51h.75c1.26,0,1.41,0,1.65-.21.27-.239,1.2-1.739,1.53-1.739a21.2,21.2,0,0,1,2.61,1.859c.24.21.3.3.3.481,0,.42-.63.42-1.589.42h-10.32c-.66,0-2.73,0-3.78.059-.09,0-.54.09-.63.09s-.15-.09-.27-.21l-.57-.689c-.12-.12-.12-.151-.12-.18a.08.08,0,0,1,.09-.091c.21,0,1.14.091,1.32.12,1.38.061,2.73.09,4.11.09h1.11c.42,0,.75-.119.87-.51.09-.33.09-6.179.09-6.779,0-1.11-.24-1.11-1.5-1.11a24.037,24.037,0,0,0-2.85.09c-.06,0-.36.06-.42.06-.12,0-.15-.09-.27-.21l-.57-.69c-.12-.12-.15-.15-.15-.18,0-.06.06-.09.12-.09.33,0,1.86.12,2.19.15.9.03,2.31.06,2.67.06.78,0,.78-.18.78-3.27,0-.54,0-3.06-.09-3.239a.825.825,0,0,0-.78-.361h-2.19c-.66,0-.78.21-1.26,1.17a14.687,14.687,0,0,1-3.48,4.92c-.09,0-.03-.21,0-.27,2.85-5.82,3.24-9.57,3.33-11.219.03-.75.06-.84.24-.84.21,0,2.7,1.109,2.7,1.559,0,.241-.09.3-.57.6a10.683,10.683,0,0,0-1.14,2.941c0,.059.03.33.42.33Z" fill="#333"/>
        <path id="パス_1763" data-name="パス 1763" d="M-5700.645-1809.959c-.331,0-.75,0-.871.509a1.51,1.51,0,0,1-1.71,1.29c-.779,0-.779-.419-.779-.66,0-.3.119-2.189.15-2.609.089-1.41.089-5.31.089-6.84,0-1.11,0-1.23-.27-1.23a7.185,7.185,0,0,0-.839.42c-2.97,1.62-4.26,1.83-4.38,1.83-.15,0-.21-.09-.21-.18,0-.15.12-.21,1.02-.69a31.167,31.167,0,0,0,8.34-7.2,6.9,6.9,0,0,0,.779-1.32c0-.239-.21-.27-.75-.27h-3.449c-.69,0-2.73.031-3.78.09-.12,0-.57.06-.66.06s-.15-.06-.24-.18l-.6-.689c-.12-.12-.12-.151-.12-.21,0-.03.03-.061.09-.061.21,0,1.14.09,1.35.12,1.35.06,2.7.09,4.11.09h.689c.36,0,.57,0,.57-.24,0-.09-.84-3.239-1.65-3.749-.3-.21-.509-.21-1.259-.271-1.23-.089-1.35-.089-1.35-.3s.09-.21,1.02-.33a105.54,105.54,0,0,0,15.059-2.581c.27-.059,1.5-.569,1.77-.569.6,0,2.55,2.01,2.55,2.31,0,.12-.12.269-.39.269-.12,0-.66-.09-.78-.09-.18,0-1.38.061-1.38.3,0,.12.72.63.81.691.66.42.75.509.75.809,0,.21-.03.21-.81.54a21.217,21.217,0,0,0-3.57,3.061c0,.149.09.149.48.149h2.64c1.02,0,1.17,0,1.74-.72.6-.719,1.08-1.32,1.29-1.32.27,0,3.06,2.1,3.06,2.49,0,.33-.9.33-1.77.33h-9.3c-.24,0-.36.031-.36.18s3.39,5.43,11.13,6.57c1.11.18,1.29.21,1.29.33,0,.21-.36.27-.6.33a3.377,3.377,0,0,0-2.1,1.56c-.15.3-.27.6-.51.6a2.642,2.642,0,0,1-1.41-.75c-.3-.24-.36-.27-.45-.27-.24,0-.54.3-.63.42-.54.54-.54,1.02-.54,2.1,0,.99.15,5.25.15,6.12,0,.51-.06.689-.33.87a2.8,2.8,0,0,1-1.41.51c-.57,0-.6-.21-.72-1.05-.06-.45-.51-.57-.87-.57Zm9.509-9.18a1.773,1.773,0,0,0,1.29-.36c.18-.15.72-.63.72-.869,0-.121-.03-.151-.42-.481a18.28,18.28,0,0,1-4.32-4.83,7.828,7.828,0,0,0-.54-.87c-.12,0-.12.06-.12.36-.03.72.03,4.111.03,4.89a1.408,1.408,0,0,1-.39,1.14,1.874,1.874,0,0,1-1.11.51c-.78,0-.78-.57-.78-.87,0-.69.24-4.11.24-4.89,0-.39,0-.57-.21-.57-.12,0-.66.6-.72.691a26.418,26.418,0,0,1-4.289,4.2c-.69.511-.781.57-.781.69s.091.18.75.69a2.033,2.033,0,0,0,1.65.57Zm-6.18-8.55c.48,0,.75-.179.81-.6.03-.121.03-.451.03-3.39,0-.33-.09-.6-.48-.6-.21,0-3.93.3-4.68.33-.63.031-.69.031-.69.151,0,.029.571.42.75.569a2.984,2.984,0,0,1,1.44,2.431c0,.119-.09.689-.09.809,0,.3.15.3.72.3Zm-3.45,9.33c-.9,0-.9.54-.9,1.32,0,1.68,0,2.009.9,2.009h3.21c.87,0,.87-.539.87-1.319,0-1.59,0-2.01-.9-2.01Zm0,4.11c-.87,0-.87.42-.87,1.8,0,1.321,0,1.71.9,1.71h3.15c.87,0,.9-.359.9-2.129,0-.84,0-1.38-.87-1.38Zm7.02-4.11c-.87,0-.87.42-.87,2.13,0,.66,0,1.2.87,1.2h3.36c.87,0,.87-.569.87-1.17,0-1.8-.06-2.159-.9-2.159Zm3.3,7.619c.87,0,.93-.3.93-2.1,0-.96,0-1.41-.93-1.41h-3.24c-.9,0-.9.48-.9,1.17,0,2.1,0,2.339.93,2.339Zm-2.67-16.949a1.209,1.209,0,0,0,1.2-.689c.63-1.021,1.89-3.21,1.89-4.2,0-.18-.06-.3-.27-.3-.15,0-1.35.12-2.58.24-1.41.119-1.56.149-1.65.39-.03.12-.03,2.37-.03,3.569,0,.54.03.99.9.99Z" fill="#333"/>
        <path id="パス_1764" data-name="パス 1764" d="M-5651.5-1824.089a26.446,26.446,0,0,0,7.26,2.37c.12,0,.63.09.63.21,0,.09-.42.21-.54.24a5.2,5.2,0,0,0-2.28,1.62c-.09.12-.42.75-.57.75-.18,0-6.69-3.15-9.63-7.95-.57-.96-.66-1.05-.87-1.05s-.269.061-.93.75a35.639,35.639,0,0,1-8.88,6.99,25.931,25.931,0,0,1-4.709,1.92c-.09,0-.15-.06-.15-.09s3.21-2.01,3.48-2.19c4.049-2.55,8.339-7.14,8.759-9.39.03-.24.06-.33.27-.33.15,0,2.58.93,2.73,1.02.09.03.39.15.39.45a1.874,1.874,0,0,1-.12.42C-5656.6-1827.9-5654.02-1825.379-5651.5-1824.089Zm-14.459-7.47c-2.22,0-3.24.061-3.81.091-.09,0-.54.059-.63.059s-.15-.059-.27-.179l-.57-.691c-.12-.149-.12-.149-.12-.21s.03-.059.09-.059c.21,0,1.14.09,1.32.09,1.47.059,2.73.12,4.139.12h.871c.629,0,.81-.3.81-.811a4.846,4.846,0,0,0-.241-1.59,4.723,4.723,0,0,1-.179-.6c0-.151.15-.21.329-.21.21,0,1.56.33,1.89.42.9.24,1.081.3,1.081.57,0,.18-.031.239-.451.779a.74.74,0,0,0-.21.54c0,.72.241.9,1.05.9h4.95c.27,0,.9,0,.9-.811a12.382,12.382,0,0,0-.09-1.349c-.03-.151-.18-.781-.18-.9,0-.149.18-.21.33-.21.21,0,2.25.481,2.58.571s.51.21.51.48c0,.18-.12.3-.45.54a.959.959,0,0,0-.39.84c0,.84.48.84.96.84h1.53c1.32,0,1.47,0,1.92-.51.84-.99.93-1.11,1.2-1.11.18,0,2.79,1.59,2.79,1.979,0,.42-.6.42-1.59.42h-5.85c-.93,0-.93.481-.93,1.2,0,.181.03,1.2.03,1.351,0,1.109-.9,1.289-1.53,1.289-.69,0-.81-.119-.81-1.14v-2.069c-.09-.57-.45-.631-.93-.631h-4.8c-.69,0-1.111,0-1.111.841,0,.3.091,1.619.091,1.89,0,.57-.091.839-.361,1.019a2.128,2.128,0,0,1-1.139.42c-.511,0-.75-.33-.75-.93,0-.24.029-1.38.029-1.59,0-1.169,0-1.65-.929-1.65Zm2.129,15.33a15.36,15.36,0,0,1,2.311,1.41.739.739,0,0,1,.239.45c0,.36-.239.419-.96.6-.09.029-2.67,2.04-3.15,2.4a18.444,18.444,0,0,1-4.559,2.61.1.1,0,0,1-.09-.09c0-.061,1.59-1.44,1.8-1.65a17.288,17.288,0,0,0,4.289-5.7A.189.189,0,0,1-5663.83-1816.229Zm1.38-1.59c-2.34,0-3.21.03-3.809.09-.091,0-.54.06-.631.06s-.15-.06-.269-.18l-.57-.69c-.121-.15-.121-.15-.121-.21,0-.03.031-.06.091-.06.21,0,1.139.09,1.32.09,1.469.09,2.73.12,4.139.12h2.25c.3,0,.9,0,.9-.81,0-.36-.18-2.79-.24-3.089,0-.061-.18-.361-.18-.421s.06-.18.3-.18c.209,0,2.309.45,2.609.54.42.09.57.36.57.51,0,.181-.06.24-.51.63-.42.36-.42.54-.42,1.44,0,1.08,0,1.38.9,1.38h1.32c1.32,0,1.47,0,1.92-.51.84-.99.93-1.11,1.2-1.11.18,0,2.79,1.62,2.79,1.98,0,.42-.6.42-1.59.42h-5.67c-.9,0-.9.54-.9,1.5,0,2.13,0,3.329.06,5.1.03.51.03,1.229.03,1.59,0,.96-.24,1.529-1.53,1.529-.66,0-.72-.539-.72-1.05,0-.389.09-2.189.09-2.579.03-1.14.03-2.25.03-3.63a18.16,18.16,0,0,0-.06-2.04c-.15-.42-.63-.42-.869-.42Zm8.01,2.52c0-.09.15-.12.27-.12,1.11,0,7.95,1.889,7.95,4.38,0,.96-.54,1.71-1.29,1.71-.57,0-.69-.151-1.62-1.531a14.249,14.249,0,0,0-5.16-4.319C-5654.32-1815.179-5654.44-1815.269-5654.44-1815.3Z" fill="#333"/>
        <path id="パス_1765" data-name="パス 1765" d="M-5633.337-1829.038a7.089,7.089,0,0,0,2.49.629c1.23,0,10.02-.839,11.309-1.41.931-.42,1.051-.479,1.261-.479.659,0,1.139.42,2.069,1.229,1.351,1.2,1.53,1.531,1.53,1.951,0,.389-.15.54-.69,1.08a4.954,4.954,0,0,0-1.17,1.889c-4.709,9.78-15.179,13.98-15.479,13.98a.2.2,0,0,1-.21-.18c0-.12.09-.181.39-.391,5.22-3.659,9.449-7.619,11.85-11.878a17,17,0,0,0,2.04-5.071c0-.51-.511-.54-.66-.54-.3,0-8.97,1.441-10.8,2.16a10.857,10.857,0,0,1-1.5.66c-.69,0-3.09-1.5-3.09-3.15,0-.569.09-.66.27-.66C-5633.667-1829.219-5633.4-1829.038-5633.337-1829.038Zm21.989-.121c0,.42-.39,1.14-.93,1.14-.48,0-.72-.3-1.53-1.439a8.913,8.913,0,0,0-1.95-1.951c-.12-.089-.42-.36-.42-.479s.27-.21.54-.21C-5613.508-1832.1-5611.348-1830.538-5611.348-1829.159Zm2.28-2.28c0,.33-.24.9-.78.9-.66,0-1.02-.54-1.53-1.231a7.465,7.465,0,0,0-2.49-1.829c-.3-.15-.39-.27-.39-.36,0-.3.9-.3,1.14-.3C-5611.858-1834.258-5609.068-1833.359-5609.068-1831.439Z" fill="#333"/>
        <path id="パス_1766" data-name="パス 1766" d="M-5594.234-1825.469a30.042,30.042,0,0,0-.241,5.64c0,.87,0,1.59.991,1.59,1.289,0,8.968-3.24,14.249-7.83.42-.36.479-.42.689-.42a.237.237,0,0,1,.24.241c0,.3-4.439,5.159-11.789,9-3.48,1.8-3.719,1.98-4.349,2.759-.151.21-.211.241-.33.241-.241,0-2.04-1.47-2.04-2.28,0-.15.239-1.35.269-1.41a22.763,22.763,0,0,0,.151-3.87c0-3.96,0-4.769-.781-6.18a5.735,5.735,0,0,1-.66-1.17c0-.12.181-.15.3-.15.329,0,3.779.6,3.779,1.83C-5593.755-1827.239-5594.175-1825.8-5594.234-1825.469Z" fill="#333"/>
        <path id="パス_1767" data-name="パス 1767" d="M-5558.7-1815.929a20.979,20.979,0,0,0-2.94,2.46c-.57.689-.629.75-1.08.75-1.62,0-3.84-1.92-3.84-3.12,0-.21.03-1.59.3-1.59a7.437,7.437,0,0,1,.9.57,4.968,4.968,0,0,0,2.04.69c1.47,0,9.42-5.31,14.4-10.23.481-.479,1.32-1.32,1.38-1.32a.192.192,0,0,1,.15.15C-5547.391-1827.3-5550.9-1821.689-5558.7-1815.929Zm-2.46-9.87c-.81,0-1.109-.48-2.1-1.98a6.758,6.758,0,0,0-2.73-2.46c-.119-.059-.27-.15-.27-.269s.241-.271.66-.271c3.21,0,5.73,1.71,5.73,3.48A1.325,1.325,0,0,1-5561.16-1825.8Z" fill="#333"/>
        <path id="パス_1768" data-name="パス 1768" d="M-5531.848-1833.088c1.08,0,3.241.96,3.241,1.92,0,.21-.3,1.08-.33,1.259a38.213,38.213,0,0,0-.3,4.2c0,.63.149.75.989.929,1.92.451,6.51,2.64,6.51,4.86a1.05,1.05,0,0,1-1.11,1.05c-.72,0-.75-.06-2.82-2.73-.84-1.08-2.25-2.519-3.18-2.519-.33,0-.42,0-.42,2.219,0,3.18.031,4.77.15,7.47.03.33.06,1.08.06,1.53,0,.72,0,2.73-.87,2.73-.929,0-1.679-2.04-1.679-2.821,0-.12.12-.75.12-.87a40.358,40.358,0,0,0,.269-6.959c0-8.88,0-9.54-.359-10.5a3.334,3.334,0,0,0-1.051-1.38.227.227,0,0,1-.059-.12C-5532.628-1833.059-5531.878-1833.088-5531.848-1833.088Zm12.63,5.13c0,.389-.33,1.139-.93,1.139-.45,0-.72-.3-1.5-1.439a8.382,8.382,0,0,0-1.95-1.95c-.12-.09-.42-.361-.42-.481,0-.149.27-.21.541-.21C-5521.348-1830.9-5519.218-1829.309-5519.218-1827.958Zm2.43-3.42c0,.33-.24.9-.78.9-.66,0-1.02-.479-1.56-1.17a7.58,7.58,0,0,0-2.58-1.71c-.3-.12-.39-.269-.39-.33,0-.179.36-.359,1.14-.359C-5518.8-1834.048-5516.788-1832.848-5516.788-1831.378Z" fill="#333"/>
        <path id="パス_1769" data-name="パス 1769" d="M-5507.58-1816.619c-.54,0-1.2-.18-1.2-.96,0-.96.99-.96,1.2-.96h4.529c1.2,0,1.2.81,1.2.96,0,.96-.87.96-1.2.96Z" fill="#333"/>
      </g>
    </g>
    <g id="グループ_411" data-name="グループ 411">
      <g id="グループ_410" data-name="グループ 410">
        <path id="パス_1770" data-name="パス 1770" d="M-5733.251-1769.793h-2.622l-5.1-7.335h-.9v7.335h-2.162v-17.338h2.621a9.167,9.167,0,0,1,4.576.8,4.8,4.8,0,0,1,2.277,4.139,4.721,4.721,0,0,1-4.163,4.853Zm-8.623-9.129h.689c2.208,0,4.6-.414,4.6-3.174,0-2.713-2.575-3.1-4.714-3.1h-.574Z" fill="#333"/>
        <path id="パス_1771" data-name="パス 1771" d="M-5724.006-1787.131h9.313v1.977h-7.151v4.852h6.944v1.977h-6.944v6.554h7.151v1.978h-9.313Z" fill="#333"/>
        <path id="パス_1772" data-name="パス 1772" d="M-5697.176-1783.843a2.969,2.969,0,0,0-2.782-1.633,2.732,2.732,0,0,0-2.9,2.461c0,1.356,1.333,2.069,2.414,2.483l1.242.483c2.46.966,4.3,2.322,4.3,5.22a5.345,5.345,0,0,1-5.542,5.4,5.4,5.4,0,0,1-5.358-4.853l2.185-.46a3.246,3.246,0,0,0,3.357,3.289,3.26,3.26,0,0,0,3.2-3.38c0-1.863-1.494-2.667-2.989-3.289l-1.2-.505c-1.978-.851-3.771-1.978-3.771-4.392,0-2.806,2.483-4.484,5.1-4.484a4.944,4.944,0,0,1,4.461,2.621Z" fill="#333"/>
        <path id="パス_1773" data-name="パス 1773" d="M-5685.026-1787.131h9.313v1.977h-7.151v4.852h6.944v1.977h-6.944v6.554h7.151v1.978h-9.313Z" fill="#333"/>
        <path id="パス_1774" data-name="パス 1774" d="M-5660.5-1769.793h-2.162v-15.361h-4.116v-1.977h10.394v1.977h-4.116Z" fill="#333"/>
        <path id="パス_1775" data-name="パス 1775" d="M-5632.122-1787.131h2.115c3.266,0,6.347.85,6.347,4.76a3.729,3.729,0,0,1-1.862,3.288v.046a4.463,4.463,0,0,1,3.472,4.392c0,3.472-2.967,4.852-6.025,4.852h-4.047Zm2.161,7.679h.553c2.046,0,3.724-.414,3.724-2.9,0-2.437-1.655-2.851-3.678-2.851h-.6Zm0,7.727h1.656c2,0,4.093-.6,4.093-3.059,0-2.437-2.483-2.943-4.415-2.943h-1.334Z" fill="#333"/>
        <path id="パス_1776" data-name="パス 1776" d="M-5595.1-1778.462a8.961,8.961,0,0,1-9.083,9.037,8.963,8.963,0,0,1-9.083-9.037,9.108,9.108,0,0,1,9.083-9.037A9.107,9.107,0,0,1-5595.1-1778.462Zm-2.161,0a6.847,6.847,0,0,0-6.922-7.014,6.847,6.847,0,0,0-6.92,7.014,6.962,6.962,0,0,0,6.92,7.013A6.963,6.963,0,0,0-5597.26-1778.462Z" fill="#333"/>
        <path id="パス_1777" data-name="パス 1777" d="M-5585.273-1787.131h3.587c5.312,0,9.727,2.8,9.727,8.577,0,5.909-4.323,8.761-9.8,8.761h-3.518Zm2.161,15.36h.759c4.415,0,8.232-1.655,8.232-6.691,0-5.059-3.817-6.692-8.232-6.692h-.759Z" fill="#333"/>
        <path id="パス_1778" data-name="パス 1778" d="M-5565.006-1787.131h2.484l4.253,7.4,4.254-7.4h2.484l-5.656,9.8v7.542h-2.163v-7.542Z" fill="#333"/>
      </g>
    </g>
    <g id="グループ_413" data-name="グループ 413">
      <g id="グループ_412" data-name="グループ 412">
        <path id="パス_1779" data-name="パス 1779" d="M-5746.053-1737a3.634,3.634,0,0,0-1.783-.287,7.137,7.137,0,0,0-1.825.41,6.1,6.1,0,0,1,4.182,1.127,4.117,4.117,0,0,1,1.394,3.834,12.465,12.465,0,0,1-1.25,4.386,33.879,33.879,0,0,1-2.317,4.018q-1.066,1.6-2.419,3.26a22.442,22.442,0,0,1-2.993,3.034,19.19,19.19,0,0,1-3.5,2.337,10.29,10.29,0,0,1-3.916,1.128,7.328,7.328,0,0,1-1.947-.1,3.032,3.032,0,0,1-1.7-.923,3.249,3.249,0,0,1-.9-1.926,8.261,8.261,0,0,1,.041-2.173,14.893,14.893,0,0,1,1.415-4.285,37.613,37.613,0,0,1,2.275-3.915,31.179,31.179,0,0,1,2.624-3.711,41.61,41.61,0,0,1,3.075-3.341,32.144,32.144,0,0,1,3.342-2.747,9.459,9.459,0,0,1,3.915-1.682,8.721,8.721,0,0,1,1.579-.123,2.184,2.184,0,0,1,1.455.451.68.68,0,0,1,.267.472.787.787,0,0,1-.1.472.752.752,0,0,1-.369.307A.66.66,0,0,1-5746.053-1737Zm-7.79,2.706a26.091,26.091,0,0,0-3.3,3.218,41.266,41.266,0,0,0-2.809,3.669,29.963,29.963,0,0,0-2.275,3.916,16.738,16.738,0,0,0-1.415,4.285,7.975,7.975,0,0,0-.123.922,4.945,4.945,0,0,0,.021,1,3.393,3.393,0,0,0,.246.923,1.669,1.669,0,0,0,.594.717,2.565,2.565,0,0,0,1.579.472,8.339,8.339,0,0,0,1.619-.185,11.315,11.315,0,0,0,4.1-1.722,28.9,28.9,0,0,0,3.485-2.747,26.237,26.237,0,0,0,3.055-3.362,22.216,22.216,0,0,0,2.357-3.853q.369-.74.82-1.784a10.932,10.932,0,0,0,.677-2.153,6.3,6.3,0,0,0,.082-2.132,2.767,2.767,0,0,0-.923-1.721,2.658,2.658,0,0,0-1.845-.718,10.906,10.906,0,0,0-2.05.143.669.669,0,0,1-.656-.2.878.878,0,0,1-.246-.738,16.361,16.361,0,0,0-1.619,1.025Q-5753.268-1734.747-5753.843-1734.3Z" fill="#333"/>
        <path id="パス_1780" data-name="パス 1780" d="M-5747.259-1720.685q.861-.45,1.7-.9t1.824-1.026a1.98,1.98,0,0,1,.472-1.475,1.619,1.619,0,0,1,1.414-.656.829.829,0,0,1,.738.574.991.991,0,0,1-.164.942,2.751,2.751,0,0,1-.861.82,1.376,1.376,0,0,0,.7.164,3.755,3.755,0,0,0,1.8-.307,11.9,11.9,0,0,0,1.681-.841c.492-.164.806-.108.943.164a.979.979,0,0,1-.164.984q-.206.328-.471.841a7.861,7.861,0,0,0-.451,1.045,3.576,3.576,0,0,0-.2,1.026.924.924,0,0,0,.307.779q.206.244,1.087,0t2.357-.82q.491-.206,1-.472t1.045-.513a2.1,2.1,0,0,0,.369-.184,2,2,0,0,1,.472-.2.7.7,0,0,1,.41,0c.123.041.184.184.184.43a.481.481,0,0,1-.184.369,2.167,2.167,0,0,1-.41.287,2.864,2.864,0,0,1-.472.206l-.369.123-1.722.779-1.127.614a9.369,9.369,0,0,1-1.374.615,4.058,4.058,0,0,1-1.353.246,1.177,1.177,0,0,1-1.025-.533,1.338,1.338,0,0,1-.246-.635,2.4,2.4,0,0,1,.021-.7,6.32,6.32,0,0,1,.164-.7c.068-.232.129-.457.184-.677l.328-1.352q-.206.04-.84.2a8.31,8.31,0,0,1-1.374.225,6.913,6.913,0,0,1-1.414-.02,1.384,1.384,0,0,1-1.005-.533q-.7.369-1.148.615c-.3.164-.609.342-.922.532s-.568.343-.759.451a2.476,2.476,0,0,0-.574.308.482.482,0,0,1-.574.061.512.512,0,0,1-.246-.451A.425.425,0,0,1-5747.259-1720.685Z" fill="#333"/>
        <path id="パス_1781" data-name="パス 1781" d="M-5727.788-1722.653c.109-.054.362-.164.758-.328a6.742,6.742,0,0,1,1.169-.369,2.2,2.2,0,0,1,.984-.02q.409.1.287.758a2.038,2.038,0,0,1-.348.739,2.718,2.718,0,0,0-.39.738,9.4,9.4,0,0,0-.472,1.311,1.384,1.384,0,0,0,.144,1.272,3.862,3.862,0,0,0,1.537-.164q.84-.246,1.538-.492a8.278,8.278,0,0,0,.779-.41q.573-.328,1.209-.636a6.76,6.76,0,0,1,1.169-.451c.355-.1.574-.062.656.1q.163.288-.205.615a4,4,0,0,1-.922.6q-.555.267-1.128.492c-.383.151-.629.253-.738.308q-.9.452-1.824.881a7.349,7.349,0,0,1-1.907.594,1.116,1.116,0,0,1-1.189-.369,2.206,2.206,0,0,1-.328-1.25,6.659,6.659,0,0,1,.225-1.64q.226-.881.472-1.619-.943.369-1.845.676a16.647,16.647,0,0,0-1.763.717q-.738.33-1.476.738a.623.623,0,0,1-.718-.225q-.266-.348.226-.6Zm4.8-8.282a2.39,2.39,0,0,1,.636-.922,3.8,3.8,0,0,1,.963-.636,6.188,6.188,0,0,1,1.127-.389c.4-.1.772-.17,1.128-.226a14.858,14.858,0,0,1,2.911.123,2.19,2.19,0,0,1,.553.082.364.364,0,0,1,.267.451.622.622,0,0,1-.205.349.414.414,0,0,1-.369.1,9.889,9.889,0,0,0-2.48-.185,4.405,4.405,0,0,0-2.317.759,1.331,1.331,0,0,0-.574.655,1.491,1.491,0,0,1-.492.656.647.647,0,0,1-.861,0A.673.673,0,0,1-5722.991-1730.935Z" fill="#333"/>
        <path id="パス_1782" data-name="パス 1782" d="M-5719.416-1720.644q1.065-.531,2.09-1.024t2.092-.9a14.687,14.687,0,0,1,2.275-.615,13.229,13.229,0,0,1,2.357-.2,1,1,0,0,1,.7.226q.244.227.041.758a.806.806,0,0,1-.739.411,14.038,14.038,0,0,0-2.152,0,6.626,6.626,0,0,0-2.071.492,3.5,3.5,0,0,0-.7.369,4.324,4.324,0,0,0-.677.553,1.728,1.728,0,0,0-.43.676.987.987,0,0,0,.082.78,1.48,1.48,0,0,0,1.25.819,4.241,4.241,0,0,0,1.579-.041,4.249,4.249,0,0,0,.943-.327l.737-.369a2.7,2.7,0,0,1,.6-.226.626.626,0,0,1,.553.185.865.865,0,0,1,.021.942q-.267.534-.43.9l-.575,1.354q1.109-1.149,2.337-2.194a18.773,18.773,0,0,1,2.624-1.866c.082-.054.191-.136.329-.246a3.873,3.873,0,0,1,.451-.307,1.9,1.9,0,0,1,.491-.2.467.467,0,0,1,.411.061c.19.138.259.274.205.41a1.258,1.258,0,0,1-.287.41q-1.066.574-2.05,1.231a18.962,18.962,0,0,0-1.928,1.475,24.61,24.61,0,0,0-2.029,1.927,23.914,23.914,0,0,0-1.783,2.132l-1.066,2.46q-.494,1.23-.984,2.5t-1.066,2.5q-.123.246-.308.6a5.4,5.4,0,0,1-.41.656,1.815,1.815,0,0,1-.533.492,1.059,1.059,0,0,1-.676.144.748.748,0,0,1-.636-.451,1.624,1.624,0,0,1-.082-.821,5.326,5.326,0,0,1,.2-.9c.1-.3.184-.548.266-.738a21.28,21.28,0,0,1,1.948-3.588,37.569,37.569,0,0,1,2.481-3.3l1.394-3.978a10.561,10.561,0,0,1-1.579.308,6.819,6.819,0,0,1-1.579.02,3.5,3.5,0,0,1-1.332-.41,1.972,1.972,0,0,1-.881-1.065,1.99,1.99,0,0,1,.041-1.723c-.22.138-.445.281-.677.431a.7.7,0,0,1-.594.143.444.444,0,0,1-.493-.348A.418.418,0,0,1-5719.416-1720.644Z" fill="#333"/>
        <path id="パス_1783" data-name="パス 1783" d="M-5701.532-1722.653c.109-.054.362-.164.758-.328a6.755,6.755,0,0,1,1.169-.369,2.2,2.2,0,0,1,.984-.02c.272.069.369.322.287.758a2.033,2.033,0,0,1-.349.739,2.738,2.738,0,0,0-.389.738,9.39,9.39,0,0,0-.472,1.311,1.385,1.385,0,0,0,.144,1.272,3.864,3.864,0,0,0,1.537-.164q.839-.246,1.538-.492a8.278,8.278,0,0,0,.779-.41q.573-.328,1.209-.636a6.73,6.73,0,0,1,1.169-.451c.355-.1.574-.062.656.1q.164.288-.2.615a3.988,3.988,0,0,1-.923.6q-.553.267-1.127.492c-.383.151-.629.253-.738.308q-.9.452-1.825.881a7.339,7.339,0,0,1-1.906.594,1.115,1.115,0,0,1-1.189-.369,2.2,2.2,0,0,1-.328-1.25,6.638,6.638,0,0,1,.225-1.64q.225-.881.472-1.619-.945.369-1.845.676a16.756,16.756,0,0,0-1.764.717q-.736.33-1.475.738a.623.623,0,0,1-.718-.225q-.266-.348.226-.6Zm4.8-8.282a2.381,2.381,0,0,1,.635-.922,3.818,3.818,0,0,1,.964-.636,6.206,6.206,0,0,1,1.127-.389c.4-.1.772-.17,1.128-.226a14.853,14.853,0,0,1,2.911.123,2.2,2.2,0,0,1,.553.082.364.364,0,0,1,.267.451.627.627,0,0,1-.205.349.413.413,0,0,1-.369.1,9.9,9.9,0,0,0-2.481-.185,4.406,4.406,0,0,0-2.316.759,1.334,1.334,0,0,0-.574.655,1.5,1.5,0,0,1-.492.656.647.647,0,0,1-.861,0A.672.672,0,0,1-5696.735-1730.935Z" fill="#333"/>
        <path id="パス_1784" data-name="パス 1784" d="M-5693.358-1720.644q.45-.246,1.558-.84t2.276-1.128a10.467,10.467,0,0,1,2.152-.738q.984-.2,1.23.328a.812.812,0,0,1-.1.8,3.439,3.439,0,0,0-.39.718l-.492,1.147a10.314,10.314,0,0,1,1.066-.574l1.066-.491q1.311-.7,2.706-1.477a13.308,13.308,0,0,1,2.829-1.188,2.021,2.021,0,0,1,.943-.021,1.192,1.192,0,0,1,.636.369,1.045,1.045,0,0,1,.225.7,1.7,1.7,0,0,1-.328.923,6.935,6.935,0,0,1-.8,1.025q-.43.452-.882.983a2.367,2.367,0,0,1-.287.328q-.205.205-.43.472c-.151.178-.287.356-.41.533a1.306,1.306,0,0,0-.226.471,1.541,1.541,0,0,0,.718,0,6.562,6.562,0,0,0,.861-.225c.287-.095.56-.2.82-.307s.457-.192.594-.246l1.681-.739c.109-.054.253-.136.43-.246s.363-.211.554-.307.376-.185.554-.267a1.1,1.1,0,0,1,.43-.123.326.326,0,0,1,.369.369.642.642,0,0,1-.328.574q-.369.205-.779.39l-.861.39q-.574.327-1.107.574c-.355.163-.725.342-1.107.532q-.329.165-1.045.472a7.291,7.291,0,0,1-1.435.451,2.372,2.372,0,0,1-1.251-.041c-.355-.123-.533-.457-.533-1.005a1.364,1.364,0,0,1,.205-.737,4.977,4.977,0,0,1,.472-.636,7.831,7.831,0,0,1,.574-.6c.2-.19.389-.369.553-.533a9.024,9.024,0,0,0,.82-.86,3.332,3.332,0,0,0,.738-1.231,8.523,8.523,0,0,0-2.234.575,22.332,22.332,0,0,0-2.071.943q-1.189.575-2.46,1.291a9.533,9.533,0,0,0-2.214,1.7.8.8,0,0,1-.43.185.778.778,0,0,1-.431-.082.659.659,0,0,1-.307-.308.756.756,0,0,1-.021-.532,1.268,1.268,0,0,1,.615-.656,7.661,7.661,0,0,0,.41-.759,2.513,2.513,0,0,1,.287-.513c.054-.19.109-.389.164-.594a4.613,4.613,0,0,0,.123-.635c-.3.082-.6.177-.9.287s-.533.191-.7.246q-.575.246-1.148.471c-.383.151-.765.322-1.148.512-.219.11-.417.22-.594.328a3.425,3.425,0,0,1-.6.287.647.647,0,0,1-.471.062.773.773,0,0,1-.349-.185.354.354,0,0,1-.1-.307C-5693.651-1720.459-5693.549-1720.562-5693.358-1720.644Z" fill="#333"/>
        <path id="パス_1785" data-name="パス 1785" d="M-5674.752-1720.644q.492-.246,1.251-.635t1.619-.758c.574-.247,1.128-.478,1.66-.7s.977-.4,1.333-.533q.286-.123,1.025-.368t1.558-.451a11.848,11.848,0,0,1,1.537-.287,1.669,1.669,0,0,1,1.046.123c.328.3.39.574.184.819a1.255,1.255,0,0,1-.758.451l-1.845.2a4.34,4.34,0,0,0-.963.39c-.261.15-.554.335-.882.554q-.206.164-.718.676t-1,1.107a6.519,6.519,0,0,0-.779,1.148q-.289.554,0,.8a.919.919,0,0,0,.8.082,6.37,6.37,0,0,0,1.127-.369q.573-.244,1.066-.512a6.153,6.153,0,0,0,.656-.389,8.826,8.826,0,0,0,1.927-1.559.544.544,0,0,1,.8-.1.693.693,0,0,1,.266.841,1.127,1.127,0,0,1-.287.493c-.137.136-.266.266-.389.389a1.419,1.419,0,0,0-.308.513c-.109.191-.137.335-.082.43a.393.393,0,0,0,.287.184,4.43,4.43,0,0,0,1.435-.082,16.05,16.05,0,0,0,1.784-.45,18.519,18.519,0,0,0,1.824-.677q.9-.39,1.558-.718a1.658,1.658,0,0,0,.451-.225,3.485,3.485,0,0,1,.6-.308,1.591,1.591,0,0,1,.594-.123.424.424,0,0,1,.41.246.335.335,0,0,1-.021.451,1.474,1.474,0,0,1-.512.349c-.219.1-.437.185-.656.267a5.281,5.281,0,0,0-.492.2q-.7.327-1.394.635l-1.435.635q-.492.207-1.066.492a9.071,9.071,0,0,1-1.189.493,6.8,6.8,0,0,1-1.25.287,2.383,2.383,0,0,1-1.169-.123,1.225,1.225,0,0,1-.82-.8,2.114,2.114,0,0,1,.041-1.086l-1.107.655q-.7.411-1.455.841a4,4,0,0,1-1.579.513,2.155,2.155,0,0,1-1.312-.328,1.36,1.36,0,0,1-.615-1.149,2.425,2.425,0,0,1,.328-1.045,8.96,8.96,0,0,1,.841-1.312,9.676,9.676,0,0,1,1.127-1.25,5.726,5.726,0,0,1,1.148-.862,8.089,8.089,0,0,0-.922.369c-.425.192-.9.424-1.435.7s-1.094.552-1.682.84-1.127.553-1.619.8a.493.493,0,0,1-.41.062.549.549,0,0,1-.307-.205.464.464,0,0,1-.083-.328A.419.419,0,0,1-5674.752-1720.644Z" fill="#333"/>
        <path id="パス_1786" data-name="パス 1786" d="M-5656.733-1720.685a26.212,26.212,0,0,0,2.46-1.27q1.189-.7,2.378-1.518a22,22,0,0,1,1.271-2.214q.7-1.065,1.353-2.091.7-.942,1.394-1.906t1.435-1.906q.615-.82,1.333-1.661a6.132,6.132,0,0,1,1.66-1.373,3.407,3.407,0,0,1,1.107-.349.764.764,0,0,1,.9.595,1.312,1.312,0,0,1,.021.881,3.7,3.7,0,0,1-.431.861,9.3,9.3,0,0,1-.615.82c-.219.26-.4.486-.533.676a32.752,32.752,0,0,1-3.669,4.367,38.169,38.169,0,0,1-4.367,3.751q-.205.492-.471,1.046a9.808,9.808,0,0,0-.472,1.168,6.805,6.805,0,0,0-.287,1.21,3.1,3.1,0,0,0,.041,1.128q.452-.083.82-.123c.218-.027.424-.048.615-.062a1.215,1.215,0,0,0,.369-.061,18.7,18.7,0,0,0,2.419-.656q1.189-.411,2.337-.9a3.4,3.4,0,0,0,.779-.328.737.737,0,0,1,.779-.041c.3.22.341.417.123.6a2.659,2.659,0,0,1-.615.389l-4.756,1.763q-.7.246-1.353.513a4.217,4.217,0,0,1-1.353.307,1.328,1.328,0,0,1-.984-.184,1.375,1.375,0,0,1-.512-.7,2.351,2.351,0,0,1-.1-.943,5.251,5.251,0,0,1,.164-.964,14.259,14.259,0,0,1,.738-1.967,31.561,31.561,0,0,1-3.526,2.008.639.639,0,0,1-.676-.266Q-5657.225-1720.438-5656.733-1720.685Zm8.323-5.616a31.682,31.682,0,0,0,3.526-3.9,13.868,13.868,0,0,0,1.394-1.967,5.345,5.345,0,0,1,.246-.513,5.225,5.225,0,0,0,.287-.636,4.433,4.433,0,0,0-1.086.779c-.343.329-.622.6-.841.821a21.9,21.9,0,0,0-1.763,1.988q-.82,1.046-1.64,2.152-.451.657-.861,1.292t-.779,1.291c.246-.19.5-.4.759-.635S-5648.656-1726.082-5648.41-1726.3Z" fill="#333"/>
        <path id="パス_1787" data-name="パス 1787" d="M-5628.157-1728.68a28.169,28.169,0,0,1,3.772-2.808q2.008-1.251,4.059-2.317,1.436-.736,2.952-1.394a30.545,30.545,0,0,1,3.116-1.148l.41-.491q.738-.78,1.579-1.518a5.866,5.866,0,0,1,1.824-1.106,5.12,5.12,0,0,1,.718-.164,3.339,3.339,0,0,1,.9-.041,1.339,1.339,0,0,1,.717.266q.286.227.123.758a.615.615,0,0,1-.368.41.8.8,0,0,1-.616,0,1.277,1.277,0,0,0-.779-.082,3.212,3.212,0,0,0-.841.308,5.231,5.231,0,0,0-.84.554q-.409.327-.738.574a17.571,17.571,0,0,1,2.173-.2,9.3,9.3,0,0,1,2.234.184,5.7,5.7,0,0,1,1.99.82,3.847,3.847,0,0,1,1.393,1.7,2.421,2.421,0,0,1,.062,1.968,5.385,5.385,0,0,1-1.19,1.742,11.222,11.222,0,0,1-1.763,1.435q-.963.636-1.7,1.045-1.722,1.066-3.506,1.969t-3.627,1.722a26.126,26.126,0,0,1,3.709-.472,7.3,7.3,0,0,1,3.424.595,2.875,2.875,0,0,1,1.353,1.045,3.01,3.01,0,0,1,.513,1.456,3.558,3.558,0,0,1-.247,1.578,4.023,4.023,0,0,1-.922,1.415,9.671,9.671,0,0,1-3.649,2.275,42.95,42.95,0,0,1-4.14,1.25,43.552,43.552,0,0,1-7.258,1.354,2.264,2.264,0,0,0,.615.942.656.656,0,0,1,.287.574.624.624,0,0,1-.287.451.936.936,0,0,1-.595.144.881.881,0,0,1-.635-.39,3.16,3.16,0,0,1-.451-.779,7.961,7.961,0,0,1-.287-.86,20.105,20.105,0,0,1-2.3.123,15.3,15.3,0,0,1-2.3-.164c-.219-.028-.512-.069-.881-.123a6.645,6.645,0,0,1-1.108-.267,3.07,3.07,0,0,1-.942-.492.93.93,0,0,1-.39-.759q0-.533.287-.635a.862.862,0,0,1,.636.041,5.149,5.149,0,0,1,.717.368,4.158,4.158,0,0,0,.574.308,8.728,8.728,0,0,0,2.378.492q1.23.082,2.46.082h.738a10.152,10.152,0,0,1,.431-3.157q.469-1.6.922-2.788l.205-.614c-.192.082-.383.157-.574.225s-.4.13-.615.185h-.041a1.244,1.244,0,0,1-.759-.062c-.205-.095-.293-.307-.266-.635a.609.609,0,0,1,.266-.493,2.63,2.63,0,0,1,.636-.348,4.628,4.628,0,0,1,.8-.226c.286-.054.539-.108.758-.164l.533-.123q.7-1.6,1.5-3.115t1.7-2.993q.861-1.435,1.763-2.85t1.927-2.726q-1.149.45-2.214.943t-2.009.983a27.287,27.287,0,0,0-2.932,1.66,27.831,27.831,0,0,0-2.726,2.031,3.761,3.761,0,0,0-.472.471q-.267.307-.553.615a4.277,4.277,0,0,1-.594.533.806.806,0,0,1-.6.184.666.666,0,0,1-.636-.492A.72.72,0,0,1-5628.157-1728.68Zm4.8,11.973a4.893,4.893,0,0,0-.123,1.721q1.885-.164,3.752-.492a28.416,28.416,0,0,0,3.67-.9c.6-.164,1.256-.364,1.967-.595a16.032,16.032,0,0,0,2.071-.841,12.06,12.06,0,0,0,1.865-1.127,4.838,4.838,0,0,0,1.353-1.5,1.69,1.69,0,0,0,.246-1.7,2.4,2.4,0,0,0-1.189-.984,6.718,6.718,0,0,0-1.824-.471,14.171,14.171,0,0,0-1.661-.123q-1.682.083-3.444.307a27.756,27.756,0,0,0-3.485.676l-1.8.7h-.041a22.187,22.187,0,0,0-.882,2.624A16.052,16.052,0,0,0-5623.36-1716.707Zm8.159-16.934q-1.436,1.846-2.686,3.793a42.949,42.949,0,0,0-2.275,4q-.328.576-.615,1.149c-.192.382-.368.765-.533,1.147q2.3-.778,4.531-1.763t4.366-2.091a30.1,30.1,0,0,0,2.686-1.516,18.776,18.776,0,0,0,2.439-1.846,13.3,13.3,0,0,0,1.046-1.086,2.461,2.461,0,0,0,.635-1.333,1.141,1.141,0,0,0-.143-.7,2.24,2.24,0,0,0-.492-.595,4.392,4.392,0,0,0-.656-.471,5.733,5.733,0,0,0-.636-.329,7.6,7.6,0,0,0-3.034-.533,13.864,13.864,0,0,0-3.157.451q-.409.411-.779.841T-5615.2-1733.641Z" fill="#333"/>
        <path id="パス_1788" data-name="パス 1788" d="M-5605.611-1720.685a26.333,26.333,0,0,0,2.46-1.27q1.189-.7,2.378-1.518a21.808,21.808,0,0,1,1.271-2.214q.7-1.065,1.353-2.091.7-.942,1.394-1.906t1.435-1.906q.615-.82,1.332-1.661a6.136,6.136,0,0,1,1.661-1.373,3.39,3.39,0,0,1,1.106-.349.765.765,0,0,1,.9.595,1.306,1.306,0,0,1,.02.881,3.656,3.656,0,0,1-.43.861,9.219,9.219,0,0,1-.616.82c-.218.26-.4.486-.532.676a32.8,32.8,0,0,1-3.67,4.367,38.076,38.076,0,0,1-4.366,3.751c-.138.328-.294.677-.472,1.046a9.888,9.888,0,0,0-.471,1.168,6.768,6.768,0,0,0-.288,1.21,3.122,3.122,0,0,0,.041,1.128q.452-.083.821-.123.328-.04.615-.062a1.222,1.222,0,0,0,.369-.061,18.739,18.739,0,0,0,2.419-.656q1.188-.411,2.337-.9a3.389,3.389,0,0,0,.778-.328.74.74,0,0,1,.78-.041c.3.22.341.417.123.6a2.653,2.653,0,0,1-.616.389l-4.755,1.763q-.7.246-1.353.513a4.217,4.217,0,0,1-1.353.307,1.326,1.326,0,0,1-.984-.184,1.382,1.382,0,0,1-.513-.7,2.369,2.369,0,0,1-.1-.943,5.17,5.17,0,0,1,.164-.964,14.127,14.127,0,0,1,.737-1.967,31.679,31.679,0,0,1-3.525,2.008.64.64,0,0,1-.677-.266C-5606.015-1720.322-5605.939-1720.521-5605.611-1720.685Zm8.323-5.616a31.631,31.631,0,0,0,3.525-3.9,13.872,13.872,0,0,0,1.4-1.967,5.592,5.592,0,0,1,.246-.513,5.458,5.458,0,0,0,.287-.636,4.429,4.429,0,0,0-1.087.779q-.513.494-.841.821a22.107,22.107,0,0,0-1.762,1.988q-.82,1.046-1.64,2.152-.453.657-.861,1.292t-.78,1.291c.246-.19.5-.4.759-.635Z" fill="#333"/>
        <path id="パス_1789" data-name="パス 1789" d="M-5593.623-1720.685q.738-.369,1.537-.819a13.46,13.46,0,0,1,1.62-.78,4.2,4.2,0,0,1,1.517-1.537,6.189,6.189,0,0,1,2.091-.8,5.374,5.374,0,0,1,1.333,0,1.618,1.618,0,0,1,1.168.615.641.641,0,0,1,.143.7,1.929,1.929,0,0,1-.492.7,4.841,4.841,0,0,1-.778.6q-.431.267-.636.39a5.857,5.857,0,0,1-1.619.675,5.167,5.167,0,0,1-1.784.144h-.164a2.308,2.308,0,0,0,.738,1.4,3.578,3.578,0,0,0,1.353.717,4.912,4.912,0,0,0,1.619.185,12.289,12.289,0,0,0,1.538-.164,18.326,18.326,0,0,0,1.927-.513,17.685,17.685,0,0,0,1.845-.718c.273-.136.554-.266.841-.389a8.462,8.462,0,0,0,.8-.39.784.784,0,0,1,.594.082c.206.11.226.287.062.533a1.053,1.053,0,0,1-.574.452q-.369.123-.657.246l-2.049.9a35.194,35.194,0,0,1-3.731,1.229,6.126,6.126,0,0,1-1.661.1,4.821,4.821,0,0,1-1.558-.369,4.077,4.077,0,0,1-1.291-.882,3.239,3.239,0,0,1-.82-1.476c-.056-.218-.1-.436-.143-.656a1.3,1.3,0,0,1,.02-.614,7.9,7.9,0,0,0-.882.471l-.758.471a3.038,3.038,0,0,0-.533.308.555.555,0,0,1-.656.02.47.47,0,0,1-.226-.451A.384.384,0,0,1-5593.623-1720.685Zm4.182-1.147a4.76,4.76,0,0,0,1.907-.493,5.96,5.96,0,0,0,1.619-1.148,2.311,2.311,0,0,0-1.128-.122,3.212,3.212,0,0,0-1.024.327,3.16,3.16,0,0,0-.841.636A2.55,2.55,0,0,0-5589.441-1721.832Z" fill="#333"/>
        <path id="パス_1790" data-name="パス 1790" d="M-5579.208-1720.644q.451-.246,1.558-.84t2.276-1.128a10.467,10.467,0,0,1,2.152-.738q.984-.2,1.23.328a.809.809,0,0,1-.1.8,3.477,3.477,0,0,0-.389.718l-.492,1.147a10.214,10.214,0,0,1,1.066-.574l1.066-.491q1.311-.7,2.706-1.477a13.308,13.308,0,0,1,2.829-1.188,2.021,2.021,0,0,1,.943-.021,1.191,1.191,0,0,1,.636.369,1.05,1.05,0,0,1,.225.7,1.686,1.686,0,0,1-.328.923,6.905,6.905,0,0,1-.8,1.025q-.431.452-.881.983a2.356,2.356,0,0,1-.287.328c-.137.137-.281.294-.43.472s-.288.356-.411.533a1.327,1.327,0,0,0-.225.471,1.541,1.541,0,0,0,.718,0,6.5,6.5,0,0,0,.861-.225c.286-.095.56-.2.819-.307s.458-.192.6-.246l1.681-.739c.109-.054.253-.136.43-.246s.363-.211.554-.307.375-.185.554-.267a1.1,1.1,0,0,1,.43-.123.326.326,0,0,1,.369.369.643.643,0,0,1-.328.574q-.369.205-.779.39l-.861.39q-.574.327-1.107.574c-.355.163-.724.342-1.107.532q-.328.165-1.045.472a7.3,7.3,0,0,1-1.436.451,2.369,2.369,0,0,1-1.25-.041c-.356-.123-.533-.457-.533-1.005a1.363,1.363,0,0,1,.2-.737,4.886,4.886,0,0,1,.472-.636,7.73,7.73,0,0,1,.573-.6c.2-.19.39-.369.554-.533a9.024,9.024,0,0,0,.82-.86,3.352,3.352,0,0,0,.738-1.231,8.536,8.536,0,0,0-2.235.575,22.557,22.557,0,0,0-2.07.943q-1.189.575-2.46,1.291a9.533,9.533,0,0,0-2.214,1.7.792.792,0,0,1-.431.185.772.772,0,0,1-.43-.082.665.665,0,0,1-.308-.308.764.764,0,0,1-.02-.532,1.27,1.27,0,0,1,.615-.656,7.661,7.661,0,0,0,.41-.759,2.538,2.538,0,0,1,.287-.513c.055-.19.109-.389.164-.594a4.764,4.764,0,0,0,.123-.635c-.3.082-.6.177-.9.287s-.533.191-.7.246q-.575.246-1.148.471t-1.148.512c-.219.11-.417.22-.594.328a3.454,3.454,0,0,1-.595.287.648.648,0,0,1-.471.062.768.768,0,0,1-.349-.185.359.359,0,0,1-.1-.307C-5579.5-1720.459-5579.4-1720.562-5579.208-1720.644Z" fill="#333"/>
        <path id="パス_1791" data-name="パス 1791" d="M-5560.523-1720.685a12.969,12.969,0,0,0,2.029-.9q.963-.534,1.988-.985a8.388,8.388,0,0,1,1.354-.533q.7-.2,1.393-.41a5.335,5.335,0,0,1,1.764-.286.741.741,0,0,1,.614.327.6.6,0,0,1,.041.7.7.7,0,0,1-.368.349,1.754,1.754,0,0,1-.554.123c-.2.014-.41.02-.615.02h-.554a3.021,3.021,0,0,0-1.168.349,6.061,6.061,0,0,0-1.128.759,5.287,5.287,0,0,0-1.27,1.311c-.028.055-.09.171-.185.349s-.184.362-.266.554a3.629,3.629,0,0,0-.185.532.367.367,0,0,0,.062.369.4.4,0,0,0,.389.062,2.144,2.144,0,0,0,.533-.2q.265-.142.492-.287c.15-.1.253-.157.307-.184a15.7,15.7,0,0,0,1.313-.861q.614-.452,1.27-.9l1.927-1.721q.7-1.435,1.477-2.85t1.6-2.809q.575-.942,1.149-1.885t1.229-1.886q.615-.861,1.354-1.784a5.133,5.133,0,0,1,1.722-1.414q.286-.083.553-.164a.951.951,0,0,1,.554,0,1.068,1.068,0,0,1,.655.328.993.993,0,0,1,.226.594,2.377,2.377,0,0,1-.082.738,2.783,2.783,0,0,1-.267.676,17.1,17.1,0,0,1-1.578,2.255q-.882,1.066-1.783,2.132-1.395,1.681-2.809,3.26t-2.972,3.055c-.137.382-.267.752-.39,1.106s-.253.725-.39,1.107c-.054.137-.116.3-.184.493s-.137.4-.205.615a5.484,5.484,0,0,0-.163.655,1.439,1.439,0,0,0-.021.533,4.944,4.944,0,0,0,1.5-.328q.759-.285,1.414-.574a20.526,20.526,0,0,0,2.317-1.086q1.168-.636,2.235-1.21a.761.761,0,0,1,.348-.1,1.4,1.4,0,0,1,.41.02.272.272,0,0,1,.225.205.647.647,0,0,1-.123.451,1.136,1.136,0,0,1-.614.472c-.274.1-.507.185-.7.267q-1.149.573-2.3,1.188t-2.255,1.231c-.22.108-.466.239-.738.389a6.288,6.288,0,0,1-.862.39,2.593,2.593,0,0,1-.88.164,1.411,1.411,0,0,1-.8-.246,1.266,1.266,0,0,1-.472-.7,2.368,2.368,0,0,1-.041-.882,4.781,4.781,0,0,1,.205-.9q.144-.43.267-.758c.026-.11.054-.212.082-.308a3.176,3.176,0,0,1,.123-.349l-2.05,1.763q-.33.33-.738.677a5.745,5.745,0,0,1-.882.615,3.863,3.863,0,0,1-.963.39,2,2,0,0,1-.984,0,1.368,1.368,0,0,1-1-.78,1.781,1.781,0,0,1,.041-1.188,5.057,5.057,0,0,1,.718-1.333,10.428,10.428,0,0,1,1.066-1.25l-1.025.409q-.411.207-.985.554a2.473,2.473,0,0,1-1.024.389.406.406,0,0,1-.41.021.527.527,0,0,1-.226-.267.611.611,0,0,1-.021-.348A.386.386,0,0,1-5560.523-1720.685Zm11.643-4.017q1.066-1.109,2.092-2.276t1.968-2.4q.408-.575.82-1.128t.778-1.168c.082-.164.24-.424.472-.78a2.753,2.753,0,0,0,.431-.984,2.571,2.571,0,0,0-1.067.779c-.328.383-.588.684-.778.9a25.726,25.726,0,0,0-1.764,2.132q-.82,1.107-1.557,2.295l-1.64,2.871Z" fill="#333"/>
      </g>
    </g>
  </g>
</svg>
