<svg id="lineup_bancha_graph" xmlns="http://www.w3.org/2000/svg" width="285.778" height="252.306" viewBox="0 0 285.778 252.306">
  <path id="パス_1031" data-name="パス 1031" d="M1175.875,1317.934l-45.118-22.1-81.9,20.35,22.81,80.877,68.24,7.7,63.144,65.62-24.526-99.841,44.876-36.327Z" transform="translate(-1015.212 -1235.158)" fill="#dbdfb8"/>
  <path id="パス_1032" data-name="パス 1032" d="M1193.608,1275.124h-71.429l-50.508,50.508v71.429l50.508,50.508h71.429l50.508-50.508v-71.429Z" transform="translate(-1015.212 -1235.158)" fill="none" stroke="#999" stroke-miterlimit="10" stroke-width="0.5"/>
  <path id="パス_1033" data-name="パス 1033" d="M1185.03,1295.833h-54.273l-38.377,38.377v54.273l38.377,38.377h54.273l38.377-38.377v-54.273Z" transform="translate(-1015.212 -1235.158)" fill="none" stroke="#999" stroke-miterlimit="10" stroke-width="0.5"/>
  <path id="パス_1034" data-name="パス 1034" d="M1175.875,1317.934h-35.964l-25.43,25.43v35.963l25.43,25.43h35.964l25.43-25.43v-35.963Z" transform="translate(-1015.212 -1235.158)" fill="none" stroke="#999" stroke-miterlimit="10" stroke-width="0.5"/>
  <path id="パス_1035" data-name="パス 1035" d="M1167.092,1339.14h-18.4l-13.008,13.008v18.4l13.008,13.008h18.4l13.008-13.008v-18.4Z" transform="translate(-1015.212 -1235.158)" fill="none" stroke="#999" stroke-miterlimit="10" stroke-width="0.5"/>
  <g id="グループ_206" data-name="グループ 206" transform="translate(-1015.212 -1235.158)">
    <path id="パス_1036" data-name="パス 1036" d="M1097.586,1238.848c0,.33.09.405.495.495a25.668,25.668,0,0,0,3.675.12c3.8,0,4.364-.03,4.649-.3a3.276,3.276,0,0,0,.436-1.815,3.589,3.589,0,0,0,.914.405,3.811,3.811,0,0,1-.7,2.13c-.436.4-.945.45-5.986.45a16.053,16.053,0,0,1-3.794-.225c-.48-.15-.63-.39-.63-1.02v-2.52a6.591,6.591,0,0,0-.09-1.29h1.125a5.019,5.019,0,0,0-.09,1.23v.7c1.529-.165,2.654-.33,3.854-.57a19.127,19.127,0,0,0,4.605-1.3l.735.9c-2.774.78-2.774.78-4.08,1.05-1.875.36-3.135.555-5.114.765Zm6.96,2.82a13.952,13.952,0,0,0,1.814-.075,13.99,13.99,0,0,0-.075,1.83v3.225a13.289,13.289,0,0,0,.09,1.86h-1.034v-.705h-7.186v.705h-1.019a13.133,13.133,0,0,0,.09-1.86v-3.225c0-.84-.031-1.335-.076-1.83a13.183,13.183,0,0,0,1.8.075Zm-6.391,2.565h7.186v-1.725h-7.186Zm0,2.73h7.186v-1.905h-7.186Z" fill="#4d4d4d"/>
    <path id="パス_1037" data-name="パス 1037" d="M1111.276,1246.483a11.993,11.993,0,0,0,.09-1.62v-7.02c0-.615-.029-1.11-.059-1.455a9.152,9.152,0,0,0,1.229.06h1.335a9.67,9.67,0,0,0,1.261-.06,12.987,12.987,0,0,0-.045,1.4v6.21a16.376,16.376,0,0,0,.06,1.65h-.96v-.78h-1.906v1.62Zm1.005-2.46h1.906v-6.7h-1.906Zm9.855-6.45a10.446,10.446,0,0,0,1.575-.09v1.035a11.84,11.84,0,0,0-1.59-.09h-1.965v2.535h2.535a11.977,11.977,0,0,0,1.71-.09v1.035a11.737,11.737,0,0,0-1.695-.09h-2.3a11.775,11.775,0,0,0,1.651,2.49,12.109,12.109,0,0,0,2.819,2.3,3.968,3.968,0,0,0-.645.93,16.539,16.539,0,0,1-2.415-2.2,10.1,10.1,0,0,1-1.724-2.79c.045.555.059.975.059,1.65v2.94a10.46,10.46,0,0,0,.09,1.59h-1.08a12.135,12.135,0,0,0,.09-1.59v-2.94c0-.57,0-.765.06-1.65a12.235,12.235,0,0,1-4.559,5.19,3.357,3.357,0,0,0-.721-.735,13.086,13.086,0,0,0,4.965-5.175h-2.1a8.644,8.644,0,0,0-1.44.075v-1.005a8.729,8.729,0,0,0,1.455.075h2.34v-2.535h-1.68a11.959,11.959,0,0,0-1.545.075V1237.5a14.8,14.8,0,0,0,1.545.075h1.68v-1.2a6.6,6.6,0,0,0-.074-1.215h1.05a6.679,6.679,0,0,0-.076,1.215v1.2Z" fill="#4d4d4d"/>
  </g>
  <g id="グループ_207" data-name="グループ 207" transform="translate(-1015.212 -1235.158)">
    <path id="パス_1038" data-name="パス 1038" d="M1194.241,1236.253a6.319,6.319,0,0,0-.091-1.08h1.1a6.3,6.3,0,0,0-.091,1.08v.48h3.6v-.48a6.432,6.432,0,0,0-.09-1.08h1.095a6.072,6.072,0,0,0-.09,1.08v.48h2.324a11.927,11.927,0,0,0,1.681-.09v1.035a12.4,12.4,0,0,0-1.681-.075h-2.324v.405a5.33,5.33,0,0,0,.074.975h-1.05a6.662,6.662,0,0,0,.061-.975v-.405h-3.6v.405a6.624,6.624,0,0,0,.061.99h-1.05a6.337,6.337,0,0,0,.075-.99v-.405h-2.176a12.132,12.132,0,0,0-1.664.075v-1.035a11.947,11.947,0,0,0,1.664.09h2.176Zm6.555,7.17a7.249,7.249,0,0,0,1.095-.06,7.118,7.118,0,0,0-.076,1.2v2.805a9.919,9.919,0,0,0,.09,1.365h-1.049v-.855h-7.5v.855h-1.05a10.273,10.273,0,0,0,.09-1.365v-2.805a7.469,7.469,0,0,0-.075-1.2,7.232,7.232,0,0,0,1.095.06h3.015v-2.01h-4.32a15.771,15.771,0,0,0-1.695.075v-1.05a11.851,11.851,0,0,0,1.695.09h4.32v-.855a5.25,5.25,0,0,0-.09-1.215h1.109a6.8,6.8,0,0,0-.09,1.215v.855h4.606a11.839,11.839,0,0,0,1.694-.09v1.05a16.174,16.174,0,0,0-1.694-.075h-4.606v2.01Zm-7.44,3.57h7.5v-2.715h-7.5Z" fill="#4d4d4d"/>
    <path id="パス_1039" data-name="パス 1039" d="M1206.891,1246.483a12.156,12.156,0,0,0,.09-1.62v-7.02c0-.615-.03-1.11-.06-1.455a9.15,9.15,0,0,0,1.229.06h1.335a9.661,9.661,0,0,0,1.261-.06,12.953,12.953,0,0,0-.045,1.4v6.21a16.34,16.34,0,0,0,.06,1.65h-.96v-.78H1207.9v1.62Zm1.005-2.46h1.905v-6.7H1207.9Zm9.854-6.45a10.443,10.443,0,0,0,1.575-.09v1.035a11.836,11.836,0,0,0-1.59-.09h-1.964v2.535h2.535a12,12,0,0,0,1.71-.09v1.035a11.763,11.763,0,0,0-1.7-.09h-2.295a11.813,11.813,0,0,0,1.651,2.49,12.127,12.127,0,0,0,2.819,2.3,3.935,3.935,0,0,0-.644.93,16.432,16.432,0,0,1-2.415-2.2,10.076,10.076,0,0,1-1.725-2.79c.045.555.06.975.06,1.65v2.94a10.467,10.467,0,0,0,.089,1.59h-1.08a12.157,12.157,0,0,0,.09-1.59v-2.94c0-.57,0-.765.061-1.65a12.244,12.244,0,0,1-4.56,5.19,3.313,3.313,0,0,0-.721-.735,13.086,13.086,0,0,0,4.965-5.175h-2.1a8.667,8.667,0,0,0-1.441.075v-1.005a8.731,8.731,0,0,0,1.455.075h2.34v-2.535h-1.68a11.932,11.932,0,0,0-1.544.075V1237.5a14.775,14.775,0,0,0,1.544.075h1.68v-1.2a6.513,6.513,0,0,0-.074-1.215h1.05a6.705,6.705,0,0,0-.075,1.215v1.2Z" fill="#4d4d4d"/>
  </g>
  <g id="グループ_208" data-name="グループ 208" transform="translate(-1015.212 -1235.158)">
    <path id="パス_1040" data-name="パス 1040" d="M1280.286,1306.648a11.242,11.242,0,0,0-.09-1.725h1.186a11.282,11.282,0,0,0-.106,1.725v.84h.975a13.872,13.872,0,0,0,1.771-.1v1.14a14.8,14.8,0,0,0-1.771-.1h-.975v7.995a14.19,14.19,0,0,0,.106,1.77h-1.1v-.96h-5.834v.96h-1.095a12.128,12.128,0,0,0,.1-1.755v-8.01h-.976a11.5,11.5,0,0,0-1.71.1v-1.14a11.1,11.1,0,0,0,1.71.1h.976v-.9a9.748,9.748,0,0,0-.1-1.665h1.185a11.987,11.987,0,0,0-.09,1.665v.9h5.834Zm-5.834,1.77v3.24h5.834v-3.24Zm0,4.155v3.735h5.834v-3.735Z" fill="#4d4d4d"/>
    <path id="パス_1041" data-name="パス 1041" d="M1287.243,1316.1a12.014,12.014,0,0,0,.09-1.62v-7.02c0-.615-.029-1.11-.06-1.455a9.193,9.193,0,0,0,1.23.06h1.335a9.7,9.7,0,0,0,1.261-.06,12.67,12.67,0,0,0-.045,1.395v6.21a16.384,16.384,0,0,0,.059,1.65h-.96v-.78h-1.9v1.62Zm1.005-2.46h1.9v-6.7h-1.9Zm9.855-6.45a10.443,10.443,0,0,0,1.575-.09v1.035a11.825,11.825,0,0,0-1.59-.09h-1.965v2.535h2.535a11.978,11.978,0,0,0,1.71-.09v1.035a11.738,11.738,0,0,0-1.7-.09h-2.295a11.778,11.778,0,0,0,1.65,2.49,12.136,12.136,0,0,0,2.82,2.3,3.964,3.964,0,0,0-.645.93,16.49,16.49,0,0,1-2.415-2.2,10.08,10.08,0,0,1-1.724-2.79c.044.555.059.975.059,1.65v2.94a10.444,10.444,0,0,0,.09,1.59h-1.08a12.33,12.33,0,0,0,.09-1.59v-2.94c0-.57,0-.765.06-1.65a12.235,12.235,0,0,1-4.559,5.19,3.357,3.357,0,0,0-.721-.735,13.1,13.1,0,0,0,4.965-5.175h-2.1a8.628,8.628,0,0,0-1.44.075V1310.5a8.74,8.74,0,0,0,1.455.075h2.34v-2.535h-1.68a11.957,11.957,0,0,0-1.545.075v-1.005a14.78,14.78,0,0,0,1.545.075h1.68v-1.2a6.485,6.485,0,0,0-.075-1.215h1.05a6.785,6.785,0,0,0-.075,1.215v1.2Z" fill="#4d4d4d"/>
  </g>
  <g id="グループ_209" data-name="グループ 209" transform="translate(-1015.212 -1235.158)">
    <path id="パス_1042" data-name="パス 1042" d="M1272.217,1401.606a10.648,10.648,0,0,0-1.455.09v-.975a9.621,9.621,0,0,0,1.455.09h3.3a9.161,9.161,0,0,0,1.394-.09v.96a9.521,9.521,0,0,0-1.38-.09h-.659v1.785h.494a11.425,11.425,0,0,0,1.17-.045,13.944,13.944,0,0,0-.045,1.575v6.675l.016.795.015.555c-.225-.015-.855-.03-1.23-.03h-3.33v1.14h-.9a13.221,13.221,0,0,0,.089-1.71v-7.4c0-.645-.014-1.125-.059-1.62a8.053,8.053,0,0,0,1.184.06h.526v-1.77Zm-.27,8.145h3.749v-1.905c-.3.015-.389.015-.464.015a1.436,1.436,0,0,1-.871-.165c-.134-.105-.165-.225-.165-.66v-2.955h-.7v.165c0,2.31-.285,3.57-1.051,4.71a3.372,3.372,0,0,0-.494-.585Zm0-1.47c.63-.84.855-1.89.855-4.05v-.15h-.855Zm0,3.84h3.749v-1.65h-3.749Zm1.545-8.745h.7v-1.785h-.7Zm1.38,3.45c0,.285.029.315.3.315h.524v-3.06h-.824Zm7.2.915a5.586,5.586,0,0,0,1.005-.075l.526.555a6.4,6.4,0,0,0-.391.585,11.307,11.307,0,0,1-1.9,2.4,8.3,8.3,0,0,0,3.389,1.695,4.541,4.541,0,0,0-.45.945,10.585,10.585,0,0,1-3.585-2.085,11.608,11.608,0,0,1-3.989,2.13,2.9,2.9,0,0,0-.54-.826,9.932,9.932,0,0,0,3.93-1.859,8.969,8.969,0,0,1-1.425-1.95,10.448,10.448,0,0,1-1.41,1.41,2.515,2.515,0,0,0-.585-.675,7.475,7.475,0,0,0,2.25-2.415,5.09,5.09,0,0,0,.615-1.38l.9.285a14.434,14.434,0,0,1-.7,1.26Zm-1.32-4.3c-.449.045-.659.075-1.2.135a4.933,4.933,0,0,1-.42,1.695,4.257,4.257,0,0,1-1.995,2.025,2.851,2.851,0,0,0-.555-.72,3.137,3.137,0,0,0,2.13-2.925c-1.365.1-1.365.1-1.755.165l-.1-.93a6.617,6.617,0,0,0,.764.03h.391a11.64,11.64,0,0,0,1.274-2.805l.931.33a25.342,25.342,0,0,1-1.29,2.43,28.231,28.231,0,0,0,3.569-.42,10.3,10.3,0,0,0-1.29-1.29l.646-.42a17.729,17.729,0,0,1,2.46,2.7l-.75.495c-.271-.42-.361-.54-.571-.855-.929.18-.929.18-1.41.24v2.175c0,.27.09.3.75.3s.946-.045,1.05-.2a2.94,2.94,0,0,0,.181-1.215,1.875,1.875,0,0,0,.75.315c-.151,1.695-.3,1.83-2.04,1.83-1.306,0-1.516-.12-1.516-.825Zm-1.545,5.055c-.029.045-.045.06-.09.12a8.21,8.21,0,0,0,1.575,2.055,9.516,9.516,0,0,0,1.741-2.175Z" fill="#4d4d4d"/>
    <path id="パス_1043" data-name="パス 1043" d="M1287.386,1411.686a12.156,12.156,0,0,0,.09-1.62v-7.02c0-.615-.03-1.11-.06-1.455a9.157,9.157,0,0,0,1.23.06h1.335a9.654,9.654,0,0,0,1.26-.06,12.987,12.987,0,0,0-.045,1.4v6.21a16.376,16.376,0,0,0,.06,1.65h-.96v-.78h-1.905v1.62Zm1.005-2.46h1.905v-6.7h-1.905Zm9.854-6.45a10.434,10.434,0,0,0,1.575-.09v1.035a11.831,11.831,0,0,0-1.589-.09h-1.965v2.535h2.535a12,12,0,0,0,1.71-.09v1.035a11.763,11.763,0,0,0-1.7-.09h-2.294a11.778,11.778,0,0,0,1.65,2.49,12.15,12.15,0,0,0,2.819,2.3,3.935,3.935,0,0,0-.644.93,16.486,16.486,0,0,1-2.415-2.2,10.079,10.079,0,0,1-1.725-2.79c.045.555.06.975.06,1.65v2.94a10.315,10.315,0,0,0,.09,1.589h-1.081a12.109,12.109,0,0,0,.09-1.589v-2.94c0-.57,0-.765.061-1.65a12.244,12.244,0,0,1-4.56,5.19,3.33,3.33,0,0,0-.72-.735,13.09,13.09,0,0,0,4.964-5.175h-2.1a8.667,8.667,0,0,0-1.441.075v-1.005a8.732,8.732,0,0,0,1.455.075h2.34v-2.535h-1.679a11.94,11.94,0,0,0-1.545.075V1402.7a14.782,14.782,0,0,0,1.545.075h1.679v-1.2a6.513,6.513,0,0,0-.074-1.215h1.05a6.705,6.705,0,0,0-.075,1.215v1.2Z" fill="#4d4d4d"/>
  </g>
  <g id="グループ_210" data-name="グループ 210" transform="translate(-1015.212 -1235.158)">
    <path id="パス_1044" data-name="パス 1044" d="M1015.782,1404.216a18.7,18.7,0,0,1,2.61,1.905l-.616.825a12.469,12.469,0,0,0-2.564-2.025Zm2.67,4.95a25.543,25.543,0,0,1-1.98,4.05c-.18.3-.225.39-.315.569l-.885-.794a12.832,12.832,0,0,0,2.37-4.425Zm-1.785-8.535a13.54,13.54,0,0,1,2.415,1.965l-.63.765a11.963,11.963,0,0,0-2.415-2.07Zm10.44,4.935a10.384,10.384,0,0,0,1.544-.09v1.02a11.129,11.129,0,0,0-1.544-.09h-6.991a9.429,9.429,0,0,0-1.439.075v-.99a8.776,8.776,0,0,0,1.41.075h.465v-2.685a8.485,8.485,0,0,0-.09-1.3h1.1a8.153,8.153,0,0,0-.09,1.32v2.67h1.9v-3.885a7.906,7.906,0,0,0-.09-1.29h1.111a7.733,7.733,0,0,0-.09,1.305v.78h2.25a8.871,8.871,0,0,0,1.364-.09v1.02a9.367,9.367,0,0,0-1.38-.09H1024.3v2.25Zm-4.065,5.835a19.535,19.535,0,0,1-3.255,2.055c-.3.15-.42.21-.6.315l-.5-.991a6,6,0,0,0,1.606-.689,13.326,13.326,0,0,0,2.43-1.59Zm-2.775-4.425a17.916,17.916,0,0,1,2.745,2.04l-.66.75a12.62,12.62,0,0,0-2.745-2.1Zm3.764,2.28a11.33,11.33,0,0,0,1.71-1.26,5.84,5.84,0,0,0,1.066-1.155l.84.615a17.38,17.38,0,0,1-2.956,2.505Zm3.811,4.559a18.749,18.749,0,0,0-3.766-2.639l.615-.645a22.419,22.419,0,0,1,3.72,2.4Z" fill="#4d4d4d"/>
    <path id="パス_1045" data-name="パス 1045" d="M1032.815,1401.591a7.144,7.144,0,0,0,1.455.09c.824,0,2.024-.045,2.519-.1a1.1,1.1,0,0,0,.555-.18l.8.63a7.9,7.9,0,0,0-.824,2.175c-.331,1.02-.436,1.3-.706,2.1a11.761,11.761,0,0,1,4.095,1.185,17,17,0,0,0,.18-3.045,3.638,3.638,0,0,0-.06-.735l1.125.015a5.709,5.709,0,0,0-.06.93,20.5,20.5,0,0,1-.27,3.255c.81.42,1.32.69,2.055,1.125a2.788,2.788,0,0,0,.434.225l-.4,1.155a17.339,17.339,0,0,0-2.34-1.485,7.081,7.081,0,0,1-1.545,2.715,8.118,8.118,0,0,1-2.385,1.83,3.872,3.872,0,0,0-.795-.781,6.585,6.585,0,0,0,2.43-1.724,5.83,5.83,0,0,0,1.38-2.52,11.054,11.054,0,0,0-4.139-1.245,29.262,29.262,0,0,1-1.411,3.615c-.54,1.035-1.094,1.485-1.815,1.485a2.215,2.215,0,0,1-1.979-2.46,3.368,3.368,0,0,1,1.785-2.97,4.9,4.9,0,0,1,2.7-.645c.495-1.47.675-2.04,1.2-3.78-1.184.09-1.41.1-2.835.15a8.242,8.242,0,0,0-1.095.075Zm0,6.51a2.49,2.49,0,0,0-.72,1.725c0,.795.434,1.425.974,1.425.616,0,1.125-.93,2.22-4.125A3.633,3.633,0,0,0,1032.815,1408.1Z" fill="#4d4d4d"/>
  </g>
  <g id="グループ_211" data-name="グループ 211" transform="translate(-1015.212 -1235.158)">
    <path id="パス_1046" data-name="パス 1046" d="M1090.028,1475.48a10.017,10.017,0,0,0,1.5-.09v1.035a10.423,10.423,0,0,0-1.5-.09h-4.844c-.016,2.43-.016,2.43-.076,3.54a4.86,4.86,0,0,0,.361,1.754,5.816,5.816,0,0,0,1.784,2.625,10.052,10.052,0,0,0,4.35,2.19,2.952,2.952,0,0,0-.539.945c-3.316-1.02-5.715-3.09-6.316-5.429-.854,2.7-2.79,4.454-6.059,5.5a4.425,4.425,0,0,0-.6-.915c2.729-.735,4.515-2.055,5.46-3.974a6.753,6.753,0,0,0,.63-2.85c.045-.87.045-.87.045-3.39h-4.545a10.864,10.864,0,0,0-1.5.09v-1.035a10.15,10.15,0,0,0,1.5.09h4.545a10.367,10.367,0,0,0-.076-1.62h1.125a8.277,8.277,0,0,0-.089,1.62Zm-7.785,8.129c-.524-.495-.72-.675-1.064-.96a10.059,10.059,0,0,1-2.281,1.425,3.322,3.322,0,0,0-.6-.72,8.674,8.674,0,0,0,2.22-1.215,13.31,13.31,0,0,0-1.486-1l.646-.48c.66.42.87.555,1.455.974a5.2,5.2,0,0,0,1.139-1.379l.75.51c-.075.089-.075.089-.45.524a8.5,8.5,0,0,1-.8.825c.33.255.526.42,1.08.885Zm-2.4-6.584c.809.465,1.08.63,1.59.975a4.252,4.252,0,0,0,1.019-1.29l.75.48a2.67,2.67,0,0,0-.359.405,7.391,7.391,0,0,1-.766.84c.481.345.691.494,1.29.974l-.585.615c-.569-.51-.795-.689-1.274-1.064a10.84,10.84,0,0,1-2.46,1.574,3.65,3.65,0,0,0-.6-.675,8.871,8.871,0,0,0,2.4-1.349,15.624,15.624,0,0,0-1.606-.96Zm6.854-.075c.84.51,1.125.69,1.725,1.11a4.129,4.129,0,0,0,1.02-1.305l.81.51c-.075.06-.24.255-.314.33-.016.03-.166.2-.42.48a4.2,4.2,0,0,1-.451.449c.555.4.75.556,1.38,1.081l-.615.6c-.63-.586-.84-.765-1.35-1.171a10.642,10.642,0,0,1-2.219,1.395,2.535,2.535,0,0,0-.571-.675,7.835,7.835,0,0,0,2.13-1.2c-.554-.375-.855-.569-1.724-1.094Zm.45,3.615c.855.524,1.125.705,1.621,1.05a3.73,3.73,0,0,0,.884-1.155l.765.51c-.12.119-.21.224-.435.494a6.389,6.389,0,0,1-.57.615c.54.405.78.6,1.515,1.215l-.614.615c-.691-.645-.931-.855-1.471-1.29-.239.2-.449.36-.735.571-.06.029-.36.209-.93.554a2.956,2.956,0,0,0-.585-.659,6.9,6.9,0,0,0,1.6-.946c-.525-.375-.825-.554-1.665-1.064Z" fill="#4d4d4d"/>
    <path id="パス_1047" data-name="パス 1047" d="M1097.14,1474.865a6.024,6.024,0,0,0,.285.915c.3.885.45,1.3.66,1.98a26.6,26.6,0,0,1,3.225-.84,20.77,20.77,0,0,0-.06-2.655h1.125a14.147,14.147,0,0,0-.075,2.025c0,.015,0,.3.015.48a7.537,7.537,0,0,1,1.125-.09c2.009,0,3.3,1.08,3.3,2.76,0,1.8-1.469,3.089-3.524,3.089a6.351,6.351,0,0,1-2.535-.555,2.3,2.3,0,0,0,.014-.27,6.565,6.565,0,0,0-.089-.855,5.1,5.1,0,0,0,2.52.69,3.038,3.038,0,0,0,1.8-.585,1.818,1.818,0,0,0,.72-1.529c0-1.14-.885-1.815-2.4-1.815a17.673,17.673,0,0,0-4.889,1.065c.765,2.549,1.3,4.664,1.935,7.484a4.767,4.767,0,0,0,.194.645l-1.214.27a53.473,53.473,0,0,0-1.89-8.1,6.888,6.888,0,0,1-.811.27,14.331,14.331,0,0,0-2.054.825l-.39-1.066a16.149,16.149,0,0,0,2.2-.7c.375-.135.525-.165.765-.24a15.066,15.066,0,0,0-1.08-2.85Z" fill="#4d4d4d"/>
    <path id="パス_1048" data-name="パス 1048" d="M1110.275,1478.03c.54-.015,2.1-.2,3.315-.39a18.24,18.24,0,0,0,.45-3.18v-.195l1.2.135a9.222,9.222,0,0,0-.285,1.44c-.075.435-.18.99-.314,1.71a8.7,8.7,0,0,1,.884-.045,2.871,2.871,0,0,1,2.161.63,3.032,3.032,0,0,1,.734,2.415c0,2.294-.39,4.289-1.005,5.159a1.567,1.567,0,0,1-1.47.7,5.635,5.635,0,0,1-2.264-.585,3.382,3.382,0,0,0,.029-.525,2.909,2.909,0,0,0-.045-.6,5.61,5.61,0,0,0,2.235.69c.375,0,.661-.24.855-.72a11.61,11.61,0,0,0,.63-4.17c0-1.589-.449-2.1-1.845-2.1a8.426,8.426,0,0,0-1.08.075,28.3,28.3,0,0,1-2.265,6.359c-.195.36-.509.96-.974,1.8l-1.021-.6a14.428,14.428,0,0,0,1.561-2.715,24.822,24.822,0,0,0,1.649-4.754c-1.29.2-2.01.315-2.144.345a8.262,8.262,0,0,0-.87.195Zm9.855-1.38a13.563,13.563,0,0,1,3.135,5.31l-.96.554a12.276,12.276,0,0,0-3.06-5.384Z" fill="#4d4d4d"/>
    <path id="パス_1049" data-name="パス 1049" d="M1126.482,1477.3a6.568,6.568,0,0,0,1.155.075,35.048,35.048,0,0,0,4.47-.315c-.226-.51-.466-1.11-.736-1.785-.165-.39-.255-.6-.389-.87l1.184-.165a4.777,4.777,0,0,0,.435,1.35,12.359,12.359,0,0,0,.54,1.32,17.548,17.548,0,0,0,3.63-.945l.15,1.065c-.315.06-.435.09-.885.21-.9.24-1.08.285-2.025.465l-.51.105a27.771,27.771,0,0,0,2.7,4.364l-1.005.57a2.981,2.981,0,0,0-1.035-.614,8.1,8.1,0,0,0-2.625-.391,5.311,5.311,0,0,0-2.849.63,1.7,1.7,0,0,0-.811,1.4,1.5,1.5,0,0,0,.57,1.17,5.08,5.08,0,0,0,2.925.69,9.886,9.886,0,0,0,4.26-.96l.165,1.155a12.434,12.434,0,0,1-4.41.81,5.5,5.5,0,0,1-3.9-1.125,2.418,2.418,0,0,1-.674-1.65,2.8,2.8,0,0,1,1.694-2.445,6.376,6.376,0,0,1,2.91-.555,7.489,7.489,0,0,1,3.1.54,18.241,18.241,0,0,1-1.8-2.939c-.165-.315-.165-.345-.255-.495a44.121,44.121,0,0,1-5.34.39,3.317,3.317,0,0,0-.585.045Z" fill="#4d4d4d"/>
  </g>
  <g id="グループ_212" data-name="グループ 212" transform="translate(-1015.212 -1235.158)">
    <path id="パス_1050" data-name="パス 1050" d="M1183.155,1486.174a12.062,12.062,0,0,0-3.059-2.145c-.255-.135-.6-.285-1.005-.45a4.452,4.452,0,0,1,.029.54,2.6,2.6,0,0,1-.375,1.635,3.016,3.016,0,0,1-2.534.945,3.907,3.907,0,0,1-2.325-.6,1.961,1.961,0,0,1-.81-1.575c0-.99.78-1.77,2.1-2.07a6.525,6.525,0,0,1,1.559-.15,6.684,6.684,0,0,1,1.351.12c-.016-.045-.016-.045-.016-.18a1.267,1.267,0,0,1-.014-.165c-.015-.135-.015-.45-.031-.885-.014-.194-.014-.48-.03-.869-.539.014-1.289.03-1.769.03-.9,0-1.6-.03-2.536-.1a3.591,3.591,0,0,0-.375-.016h-.12l.016-.989a18.426,18.426,0,0,0,3.435.239c.389,0,.915,0,1.335-.014l-.031-2.055c-.434.015-.675.015-1.019.015-1.095,0-2.31-.045-3.66-.15a1.818,1.818,0,0,0-.27-.015,1.224,1.224,0,0,0-.21.015l.015-1.02a18.638,18.638,0,0,0,3.84.3c.3,0,.81-.015,1.3-.015a11.693,11.693,0,0,0-.074-2.16h1.154a16.778,16.778,0,0,0-.1,2.115,21.142,21.142,0,0,0,4.439-.615l.075,1.02c-.254.015-.254.015-1.035.12a31.149,31.149,0,0,1-3.479.36c.014,1.23.014,1.23.029,2.024a17.992,17.992,0,0,0,4.155-.615l.06,1.036c-.194.015-.345.029-.869.105-1.035.164-2.221.285-3.33.359.03.841.03.841.09,2.3a13.156,13.156,0,0,1,4.184,2.19,5.26,5.26,0,0,0,.51.345Zm-5.069-2.835a5.507,5.507,0,0,0-1.53-.165c-1.486,0-2.46.54-2.46,1.335s.75,1.245,2.054,1.245a2.17,2.17,0,0,0,1.651-.495,1.965,1.965,0,0,0,.3-1.35Z" fill="#4d4d4d"/>
    <path id="パス_1051" data-name="パス 1051" d="M1188.477,1475.24a8.988,8.988,0,0,0,1.665.09c1.394,0,3.3-.09,4.335-.195a1.8,1.8,0,0,0,.615-.135l.63.87a11.9,11.9,0,0,0-1.62,1.545,27.3,27.3,0,0,1-4.1,3.674l.045.046a6.706,6.706,0,0,1,3.809-1.185c2.385,0,3.9,1.155,3.9,2.984a3.345,3.345,0,0,1-1.949,2.97,7.669,7.669,0,0,1-3.2.63,10.437,10.437,0,0,1-3.614-.705,1.922,1.922,0,0,0,.015-.27,5.737,5.737,0,0,0-.106-.945,8.472,8.472,0,0,0,3.825.93c2.326,0,3.915-1.065,3.915-2.61,0-1.3-1.139-2.1-2.985-2.1a8.907,8.907,0,0,0-4.814,1.649,7.564,7.564,0,0,0-1.17.945l-.75-.93a14.307,14.307,0,0,0,1.95-1.485c1.559-1.365,3.6-3.3,4.979-4.739a1.47,1.47,0,0,1,.135-.15l.12-.12-.03-.015a.752.752,0,0,0-.194.03c-.646.1-2.595.225-4.276.27a6.08,6.08,0,0,0-1.08.075Z" fill="#4d4d4d"/>
    <path id="パス_1052" data-name="パス 1052" d="M1203.833,1474.865a6.024,6.024,0,0,0,.285.915c.3.885.45,1.3.66,1.98a26.6,26.6,0,0,1,3.225-.84,20.77,20.77,0,0,0-.06-2.655h1.125a14.167,14.167,0,0,0-.075,2.025c0,.015,0,.3.015.48a7.545,7.545,0,0,1,1.125-.09c2.01,0,3.3,1.08,3.3,2.76,0,1.8-1.47,3.089-3.525,3.089a6.352,6.352,0,0,1-2.535-.555,2.155,2.155,0,0,0,.015-.27,6.661,6.661,0,0,0-.09-.855,5.1,5.1,0,0,0,2.52.69,3.038,3.038,0,0,0,1.8-.585,1.815,1.815,0,0,0,.72-1.529c0-1.14-.885-1.815-2.4-1.815a17.685,17.685,0,0,0-4.89,1.065c.766,2.549,1.305,4.664,1.935,7.484a4.76,4.76,0,0,0,.195.645l-1.215.27a53.351,53.351,0,0,0-1.89-8.1,6.733,6.733,0,0,1-.81.27,14.3,14.3,0,0,0-2.055.825l-.39-1.066a16.149,16.149,0,0,0,2.2-.7c.375-.135.525-.165.765-.24a15.066,15.066,0,0,0-1.08-2.85Z" fill="#4d4d4d"/>
    <path id="パス_1053" data-name="パス 1053" d="M1216.969,1478.03c.54-.015,2.1-.2,3.314-.39a18.24,18.24,0,0,0,.45-3.18v-.195l1.2.135a9.063,9.063,0,0,0-.286,1.44c-.075.435-.179.99-.314,1.71a8.719,8.719,0,0,1,.885-.045,2.87,2.87,0,0,1,2.16.63,3.032,3.032,0,0,1,.734,2.415c0,2.294-.389,4.289-1.005,5.159a1.565,1.565,0,0,1-1.469.7,5.635,5.635,0,0,1-2.265-.585,3.382,3.382,0,0,0,.029-.525,2.909,2.909,0,0,0-.045-.6,5.614,5.614,0,0,0,2.236.69q.563,0,.854-.72a11.589,11.589,0,0,0,.63-4.17c0-1.589-.449-2.1-1.845-2.1a8.426,8.426,0,0,0-1.08.075,28.307,28.307,0,0,1-2.264,6.359c-.2.36-.51.96-.975,1.8l-1.02-.6a14.44,14.44,0,0,0,1.56-2.715,24.887,24.887,0,0,0,1.65-4.754c-1.29.2-2.01.315-2.145.345a8.262,8.262,0,0,0-.87.195Zm9.854-1.38a13.551,13.551,0,0,1,3.135,5.31l-.96.554a12.263,12.263,0,0,0-3.059-5.384Z" fill="#4d4d4d"/>
    <path id="パス_1054" data-name="パス 1054" d="M1233.175,1477.3a6.574,6.574,0,0,0,1.155.075,35.035,35.035,0,0,0,4.47-.315c-.226-.51-.466-1.11-.735-1.785-.166-.39-.255-.6-.39-.87l1.184-.165a4.777,4.777,0,0,0,.435,1.35,12.359,12.359,0,0,0,.54,1.32,17.548,17.548,0,0,0,3.63-.945l.15,1.065c-.315.06-.434.09-.884.21-.9.24-1.081.285-2.026.465-.359.075-.359.075-.51.105a27.783,27.783,0,0,0,2.7,4.364l-1.005.57a3,3,0,0,0-1.035-.614,8.1,8.1,0,0,0-2.625-.391,5.317,5.317,0,0,0-2.85.63,1.7,1.7,0,0,0-.811,1.4,1.5,1.5,0,0,0,.571,1.17,5.075,5.075,0,0,0,2.925.69,9.885,9.885,0,0,0,4.259-.96l.165,1.155a12.43,12.43,0,0,1-4.41.81c-1.829,0-3.21-.405-3.9-1.125a2.415,2.415,0,0,1-.675-1.65,2.8,2.8,0,0,1,1.694-2.445,6.379,6.379,0,0,1,2.91-.555,7.489,7.489,0,0,1,3.1.54,18.4,18.4,0,0,1-1.8-2.939c-.165-.315-.165-.345-.255-.495a44.125,44.125,0,0,1-5.34.39,3.318,3.318,0,0,0-.585.045Z" fill="#4d4d4d"/>
  </g>
  <g id="グループ_213" data-name="グループ 213" transform="translate(-1015.212 -1235.158)">
    <path id="パス_1055" data-name="パス 1055" d="M1018.82,1317.424a12.048,12.048,0,0,0-1.6.06V1316.3a7.327,7.327,0,0,0,1.635.105h7.139v-7.245h-6.824a12.593,12.593,0,0,0-1.726.075v-1.2a8.219,8.219,0,0,0,1.726.1h7.2c.2,0,.406-.015.781-.03-.031.375-.031.63-.031,1.17v7.68a10.229,10.229,0,0,0,.075,1.365h-1.2v-.9Z" fill="#4d4d4d"/>
    <path id="パス_1056" data-name="パス 1056" d="M1037.464,1306.595a2.81,2.81,0,0,0-.33.615,14.377,14.377,0,0,1-.69,1.334c.2-.045.2-.045,4.53-.12a1.473,1.473,0,0,0,.78-.1l.644.63c-.134.18-.134.2-.3.735a15.869,15.869,0,0,1-3,5.64,14.688,14.688,0,0,1-5.22,3.75,2.246,2.246,0,0,0-.75-.885,12.752,12.752,0,0,0,5.295-3.795,13.783,13.783,0,0,0,2.58-5.025l-5.055.09a14.46,14.46,0,0,1-3.585,3.9,2.231,2.231,0,0,0-.84-.78,11.113,11.113,0,0,0,3.765-4.11,6.8,6.8,0,0,0,.945-2.19Z" fill="#4d4d4d"/>
  </g>
  <line id="線_48" data-name="線 48" x1="109.032" y1="45.163" transform="translate(33.65 81.025)" fill="none" stroke="#999" stroke-miterlimit="10" stroke-width="0.5"/>
  <line id="線_49" data-name="線 49" x1="45.162" y1="109.032" transform="translate(97.519 17.156)" fill="none" stroke="#999" stroke-miterlimit="10" stroke-width="0.5"/>
  <line id="線_50" data-name="線 50" y1="109.032" x2="45.163" transform="translate(142.682 17.156)" fill="none" stroke="#999" stroke-miterlimit="10" stroke-width="0.5"/>
  <line id="線_51" data-name="線 51" y1="45.163" x2="109.032" transform="translate(142.682 81.025)" fill="none" stroke="#999" stroke-miterlimit="10" stroke-width="0.5"/>
  <line id="線_52" data-name="線 52" x2="109.032" y2="45.163" transform="translate(142.682 126.188)" fill="none" stroke="#999" stroke-miterlimit="10" stroke-width="0.5"/>
  <line id="線_53" data-name="線 53" x2="45.163" y2="109.032" transform="translate(142.682 126.188)" fill="none" stroke="#999" stroke-miterlimit="10" stroke-width="0.5"/>
  <line id="線_54" data-name="線 54" x1="45.162" y2="109.032" transform="translate(97.519 126.188)" fill="none" stroke="#999" stroke-miterlimit="10" stroke-width="0.5"/>
  <line id="線_55" data-name="線 55" x1="109.032" y2="45.163" transform="translate(33.65 126.188)" fill="none" stroke="#999" stroke-miterlimit="10" stroke-width="0.5"/>
  <path id="パス_1057" data-name="パス 1057" d="M1203.056,1252.313h-90.325l-63.87,63.87v90.325l63.87,63.87h90.325l63.87-63.87v-90.325Z" transform="translate(-1015.212 -1235.158)" fill="none" stroke="#999" stroke-miterlimit="10" stroke-width="0.5"/>
</svg>
