<svg id="lineup_black_name_sp" xmlns="http://www.w3.org/2000/svg" width="750" height="230" viewBox="0 0 750 230">
  <rect id="長方形_35" data-name="長方形 35" width="750" height="230" fill="#fff279" opacity="0"/>
  <g id="グループ_386" data-name="グループ 386" transform="translate(6843.411 1684.789)">
    <g id="グループ_384" data-name="グループ 384">
      <g id="グループ_379" data-name="グループ 379">
        <g id="グループ_378" data-name="グループ 378">
          <path id="パス_1673" data-name="パス 1673" d="M-6545.968-1650.951c-1.924,0-1.924.441-1.924,3.685,0,1.43.439,1.7.99,1.815,1.979.495,8.469,2.09,8.469,6.379,0,1.265-.771,3.135-2.146,3.135-.824,0-.935-.276-1.979-2.915-1.21-3.19-4.124-5.445-4.785-5.445-.6,0-.6.111-.6,3.026,0,3.024.329,16.332.329,19.137,0,.77,0,3.629-2.969,3.629-1.1,0-1.1-.77-1.1-1.594,0-.715.165-4.345.165-5.115.11-4.344.275-12.648.275-16.717,0-.221,0-.936-.55-.936-.275,0-.44.276-1.815,2.311-3.134,4.619-8.578,10.448-9.623,10.448-.165,0-.221-.11-.221-.275,0-.22,3.08-4.179,3.465-4.73,4.949-7.313,7.369-14.463,7.369-14.957,0-.825-.275-.881-2.585-.881-.494,0-3.739.056-5.224.165-.165,0-.99.165-1.155.165-.22,0-.274-.165-.5-.385l-1.045-1.264c-.165-.165-.22-.276-.22-.385s.111-.11.165-.11c.385,0,2.09.165,2.475.219,2.09.056,4.565.165,6.6.165h1.209c.55,0,1.485,0,1.705-.934.054-.33.054-4.4.054-5,0-1.705-.219-2.585-1.7-2.585-.219,0-5.444.495-6.434.495-.44,0-1.815,0-1.815-.275,0-.22.385-.33.6-.385a47.655,47.655,0,0,0,13.473-4.729,32.6,32.6,0,0,1,3.025-2.035c.6,0,4.84,3.685,4.84,4.124,0,.33-.276.495-.715.495-.276,0-1.266-.11-1.54-.11-.165,0-4.784,1.045-5.61,1.651s-.825,3.024-.825,4.728c0,4.125,0,4.564,1.651,4.564,2.364,0,2.364,0,3.739-1.7.769-.99,1.265-1.54,1.54-1.54s4.728,3.025,4.728,3.959c0,.715-1.154.715-2.968.715Zm24.087-10.888a1.9,1.9,0,0,0,1.76-.714c.989-1.21,1.1-1.321,1.375-1.321a28.312,28.312,0,0,1,3.574,2.475,1.244,1.244,0,0,1,.385.825c0,.44-.385.66-.769.824-1.21.606-1.21.936-1.21,4.29,0,10.394,0,11.878.384,25.132,0,.55.165,3.19.165,3.794a2.27,2.27,0,0,1-.825,2.09,5.3,5.3,0,0,1-2.584.99c-.935,0-.935-.99-.935-1.815,0-1.154-.661-1.154-1.54-1.154h-7.369c-1.594,0-1.65.495-1.65,2.034,0,1.98-2.034,2.7-3.079,2.7a1.26,1.26,0,0,1-1.32-1.485c0-.494.219-2.86.219-3.41.111-2.584.221-16.167.221-17.762,0-3.19,0-9.734-.44-16.883,0-.275-.275-1.7-.275-2.035,0-.385.275-.494.659-.494a8.368,8.368,0,0,1,2.42.934,5.348,5.348,0,0,0,3.41.99Zm-.22,33.93c1.6,0,1.6-.88,1.6-2.089v-29.091c0-1.1-.935-1.32-1.6-1.32h-7.479a1.4,1.4,0,0,0-1.54.824c-.165.441-.165,16.333-.165,18.808,0,5.774.11,11.549.165,11.824.165,1.044,1.1,1.044,1.6,1.044Z" fill="#333"/>
          <path id="パス_1674" data-name="パス 1674" d="M-6484.125-1649.246a1.561,1.561,0,0,1-1.21-.439c-2.089-2.8-3.464-4.62-6.818-6.6a13.1,13.1,0,0,0-1.486-.769c-.054-.055-.219-.111-.219-.276s.275-.165.769-.165a14.021,14.021,0,0,1,3.41.33c1.54.33,1.705.441,1.925.441.715,0,.935-.55,1.595-2.145,1.925-4.894,1.979-6.6,2.034-8.084.056-.825.165-1.54.66-1.54.88,0,5.39,2.31,5.39,3.135,0,.55-.606.769-1.155.989-1.54.66-1.87,1.155-3.409,3.3a46.464,46.464,0,0,0-3.135,4.784c0,.33.33.606.825.99a5.447,5.447,0,0,1,2.419,3.905C-6482.53-1650.4-6483.08-1649.246-6484.125-1649.246Zm7.2,1.375c0-.165.111-.165.165-.165.935,0,8.03,2.86,8.03,7.259a2.235,2.235,0,0,1-2.036,2.42c-1.1,0-1.649-1.319-1.979-2.255-.77-1.979-.825-2.2-1.649-2.2-.056,0-2.64.495-3.026.55-.824.165-1.374.33-1.6.934-.165.495-.165,7.15-.165,8.139,0,1.87.33,11.824.33,11.879,0,1.155-.33,3.024-2.694,3.024-.769,0-1.375-.109-1.375-2.694,0-.441.22-4.84.22-5.225v-12.648c0-1.43,0-2.255-.88-2.255-.329,0-5.554.715-6.324.88-.329.055-1.539,1.1-1.869,1.1-1.21,0-2.036-4.729-2.036-5.335,0-.329.111-.714.55-.714a7.718,7.718,0,0,1,1.375.66,33.221,33.221,0,0,0,6.324.715c1.156,0,1.6,0,2.64-1.7,1.21-2.035,5.555-10.064,6.214-12.923.386-1.6.44-1.76,1.1-1.76.989,0,5,2.09,5,3.135,0,.439-.274.6-.714.66a3.376,3.376,0,0,0-1.705.88c-1.045,1.154-2.53,3.133-3.52,4.289-.824,1.045-5.608,6.819-5.608,7.094,0,.44.219.44,2.2.44,1.814,0,4.894,0,5.169-.495C-6474.446-1644.791-6476.921-1647.816-6476.921-1647.871Zm-7.313,12.758c0,.386-1.43,1.375-1.6,1.65a43.926,43.926,0,0,0-1.815,4.07c-2.805,6.159-5.5,8.964-5.884,8.964-.111,0-.111-.055-.111-.111,0-.33,1.21-2.859,1.43-3.409.441-1.155,2.97-9.183,2.97-12.208,0-.275-.275-1.32-.275-1.595s.331-.385.5-.385a13.2,13.2,0,0,1,2.31.99C-6485.829-1636.708-6484.234-1635.828-6484.234-1635.113Zm15.012,6.875a2.462,2.462,0,0,1-2.309,2.694c-1.21,0-1.32-.384-2.365-3.849a20.47,20.47,0,0,0-2.695-6.379c-.054-.11-.384-.715-.384-.771s0-.165.11-.165a14.367,14.367,0,0,1,2.089,1.21C-6473.731-1634.783-6469.222-1631.483-6469.222-1628.238Zm4.9,7.314c-3.96,0-5.5.054-6.93.165-.219,0-.989.11-1.154.11-.22,0-.33-.11-.495-.33l-1.1-1.265c-.165-.22-.219-.275-.219-.33,0-.11.054-.165.219-.165.385,0,2.034.22,2.42.22,1.924.11,4.454.165,7.533.165h1.925c.33,0,1.156,0,1.43-.715.275-.6.275-13.583.275-15.783,0-1.43,0-20.677-.165-21.282-.165-1.045-.88-1.1-1.649-1.1h-.936c-2.859,0-4.893.055-6.709.165-.165,0-.989.11-1.154.11-.221,0-.33-.11-.495-.33l-1.045-1.264c-.22-.276-.275-.276-.275-.386,0-.055.11-.109.22-.109.385,0,2.089.165,2.419.165,2.7.165,4.949.219,7.534.219h6.655c2.639,0,2.914,0,3.739-.99,1.649-1.979,1.87-2.2,2.364-2.2.66,0,4.785,3.135,4.785,3.849,0,.77-1.1.77-2.969.77h-6.655c-1.264,0-1.705.385-1.705,1.649,0,3.08,0,35.636.111,36.131.11.88.6,1.1,1.649,1.1,2.7,0,3.024,0,3.465-.495.495-.495,2.255-3.19,2.914-3.19s4.84,3.52,4.84,4.345c0,.77-1.1.77-2.97.77Z" fill="#333"/>
          <path id="パス_1675" data-name="パス 1675" d="M-6386.763-1647.266a48.505,48.505,0,0,0,13.308,4.344c.221,0,1.155.166,1.155.385,0,.165-.769.385-.99.441a9.512,9.512,0,0,0-4.179,2.969c-.165.22-.77,1.375-1.045,1.375-.33,0-12.263-5.774-17.653-14.573-1.045-1.76-1.209-1.925-1.6-1.925s-.495.11-1.7,1.375a65.4,65.4,0,0,1-16.278,12.813c-1.87.99-7.589,3.519-8.634,3.519-.165,0-.275-.109-.275-.165s5.885-3.684,6.38-4.013c7.424-4.675,15.288-13.089,16.057-17.213.055-.441.111-.606.495-.606.275,0,4.73,1.705,5,1.87.165.055.715.276.715.826a3.366,3.366,0,0,1-.22.769C-6396.111-1654.25-6391.382-1649.631-6386.763-1647.266Zm-26.506-13.693c-4.07,0-5.94.11-6.984.165-.165,0-.99.11-1.155.11s-.275-.11-.495-.33l-1.045-1.265c-.22-.274-.22-.274-.22-.385s.055-.11.165-.11c.385,0,2.09.165,2.42.165,2.694.11,5,.221,7.589.221h1.6c1.154,0,1.484-.551,1.484-1.486a8.942,8.942,0,0,0-.439-2.915,8.128,8.128,0,0,1-.33-1.1c0-.275.274-.385.6-.385.386,0,2.86.6,3.465.769,1.649.441,1.979.551,1.979,1.045,0,.33-.054.441-.824,1.43a1.347,1.347,0,0,0-.386.99c0,1.321.441,1.651,1.925,1.651h9.074c.5,0,1.65,0,1.65-1.486a22.649,22.649,0,0,0-.165-2.474c-.055-.276-.33-1.43-.33-1.65,0-.275.33-.385.6-.385.385,0,4.124.879,4.73,1.044s.934.386.934.88c0,.33-.219.551-.825.991a1.763,1.763,0,0,0-.715,1.54c0,1.54.88,1.54,1.76,1.54h2.805c2.42,0,2.695,0,3.519-.936,1.54-1.814,1.705-2.034,2.2-2.034.331,0,5.115,2.914,5.115,3.629,0,.77-1.1.77-2.915.77H-6387.2c-1.7,0-1.7.88-1.7,2.2,0,.33.055,2.2.055,2.474,0,2.035-1.65,2.365-2.805,2.365-1.265,0-1.484-.22-1.484-2.089v-3.795c-.165-1.045-.826-1.155-1.706-1.155h-8.8c-1.265,0-2.036,0-2.036,1.539,0,.551.166,2.97.166,3.465,0,1.045-.166,1.54-.66,1.87a3.907,3.907,0,0,1-2.089.77c-.936,0-1.375-.605-1.375-1.705,0-.44.054-2.529.054-2.914,0-2.145,0-3.025-1.705-3.025Zm3.9,28.1a28.03,28.03,0,0,1,4.234,2.585,1.361,1.361,0,0,1,.441.825c0,.659-.441.77-1.76,1.1-.165.054-4.9,3.739-5.774,4.4-4.95,3.52-8.084,4.784-8.359,4.784a.176.176,0,0,1-.165-.165c0-.109,2.914-2.639,3.3-3.024,4.564-4.345,7.369-8.689,7.864-10.448A.326.326,0,0,1-6409.365-1632.858Zm2.53-2.914c-4.29,0-5.885.055-6.984.165-.165,0-.99.109-1.154.109s-.276-.109-.5-.33l-1.045-1.264c-.219-.275-.219-.275-.219-.385,0-.055.054-.111.164-.111.386,0,2.09.166,2.42.166,2.695.165,5,.22,7.589.22h4.125c.549,0,1.649,0,1.649-1.485,0-.66-.33-5.114-.439-5.664,0-.111-.331-.66-.331-.77s.11-.33.55-.33c.385,0,4.235.824,4.784.989.77.165,1.045.661,1.045.936,0,.33-.11.439-.934,1.154-.771.66-.771.991-.771,2.64,0,1.98,0,2.53,1.651,2.53h2.419c2.42,0,2.695,0,3.519-.935,1.54-1.815,1.705-2.035,2.2-2.035.33,0,5.115,2.97,5.115,3.629,0,.771-1.1.771-2.915.771h-10.394c-1.649,0-1.649.989-1.649,2.749,0,3.9,0,6.1.11,9.35.055.934.055,2.253.055,2.914,0,1.759-.441,2.8-2.805,2.8-1.21,0-1.319-.99-1.319-1.925,0-.714.164-4.014.164-4.729.055-2.09.055-4.124.055-6.654a33.24,33.24,0,0,0-.11-3.74c-.274-.769-1.154-.769-1.595-.769Zm14.683,4.619c0-.165.275-.22.495-.22,2.035,0,14.573,3.464,14.573,8.029,0,1.759-.99,3.134-2.365,3.134-1.045,0-1.265-.274-2.97-2.8-2.584-3.9-6.379-6.159-9.458-7.919C-6391.932-1630.933-6392.152-1631.1-6392.152-1631.153Z" fill="#333"/>
        </g>
      </g>
      <g id="グループ_381" data-name="グループ 381">
        <g id="グループ_380" data-name="グループ 380">
          <path id="パス_1676" data-name="パス 1676" d="M-6515.481-1554.513h2.116c3.265,0,6.346.85,6.346,4.759a3.729,3.729,0,0,1-1.863,3.289v.045a4.465,4.465,0,0,1,3.473,4.393c0,3.472-2.967,4.852-6.025,4.852h-4.047Zm2.162,7.679h.552c2.045,0,3.724-.414,3.724-2.9,0-2.438-1.655-2.851-3.679-2.851h-.6Zm0,7.727h1.655c2,0,4.093-.6,4.093-3.059,0-2.437-2.484-2.943-4.415-2.943h-1.333Z" fill="#333"/>
          <path id="パス_1677" data-name="パス 1677" d="M-6493.25-1539.153h5.266v1.978h-7.428v-17.338h2.162Z" fill="#333"/>
          <path id="パス_1678" data-name="パス 1678" d="M-6475.475-1541.521l-1.978,4.346h-2.323l8.278-18.075,8.278,18.075h-2.322l-1.977-4.346Zm3.977-8.991-3.081,7.013h6.163Z" fill="#333"/>
          <path id="パス_1679" data-name="パス 1679" d="M-6442.4-1551.2a7.011,7.011,0,0,0-4.576-1.7,6.95,6.95,0,0,0-6.853,7.082,6.915,6.915,0,0,0,6.807,7.037,6.937,6.937,0,0,0,4.622-1.794v2.553a9.388,9.388,0,0,1-4.554,1.219,8.976,8.976,0,0,1-9.037-8.946,9.112,9.112,0,0,1,9.222-9.128,8.377,8.377,0,0,1,4.369,1.172Z" fill="#333"/>
          <path id="パス_1680" data-name="パス 1680" d="M-6423.062-1554.513h2.828l-7.795,7.795,7.932,9.543h-2.919l-6.531-8.072-.874.828v7.244h-2.162v-17.338h2.162v7.518Z" fill="#333"/>
        </g>
      </g>
      <g id="グループ_383" data-name="グループ 383">
        <g id="グループ_382" data-name="グループ 382">
          <path id="パス_1681" data-name="パス 1681" d="M-6553.475-1495.816a12.761,12.761,0,0,0,1.434-1.517,7.665,7.665,0,0,0,1.108-1.824,5.7,5.7,0,0,0,.45-2.01,4.119,4.119,0,0,0-.45-2.029,4.47,4.47,0,0,0-1.149-1.435,3.231,3.231,0,0,0-1.681-.738,2.4,2.4,0,0,0-1.64.41,6.49,6.49,0,0,0-1.271,1.19,4.579,4.579,0,0,0-.964,1.947,6.575,6.575,0,0,0-.1,2.132,9.98,9.98,0,0,0,.492,2.152,19.146,19.146,0,0,0,.82,2.009q.494.984.984,1.928a18.206,18.206,0,0,1,.861,1.906,10.909,10.909,0,0,1,.554,2.009,7.809,7.809,0,0,1,.061,2.193,9.482,9.482,0,0,1-1.353,4,13.364,13.364,0,0,1-2.85,3.341,12.738,12.738,0,0,1-3.792,2.214,9.8,9.8,0,0,1-4.222.615,5.628,5.628,0,0,1-3.117-1.168,5.657,5.657,0,0,1-1.926-2.767,6.717,6.717,0,0,1-.328-2.071,7.9,7.9,0,0,1,.266-2.05,10.727,10.727,0,0,1,.737-1.968,12.959,12.959,0,0,1,1.087-1.824,10.9,10.9,0,0,1,1.332-1.559,10.374,10.374,0,0,1,1.662-1.312,8.578,8.578,0,0,1,1.885-.9,5.777,5.777,0,0,1,2.05-.287,5.25,5.25,0,0,1,2.091.513,4.431,4.431,0,0,1,1.6,1.251,4,4,0,0,1,.8,1.8,3.807,3.807,0,0,1-.265,2.132.914.914,0,0,1-.493.369.786.786,0,0,1-.533-.02.728.728,0,0,1-.369-.328.537.537,0,0,1,.082-.554,2.643,2.643,0,0,0,.185-2.009,2.585,2.585,0,0,0-1.251-1.557,4.164,4.164,0,0,0-2.009-.534,5.486,5.486,0,0,0-1.988.37,7.768,7.768,0,0,0-1.825,1,9.868,9.868,0,0,0-1.517,1.374,11.369,11.369,0,0,0-1.25,1.8,8.864,8.864,0,0,0-.841,2.05,6.751,6.751,0,0,0-.225,2.153,5.253,5.253,0,0,0,.553,2.071,4.377,4.377,0,0,0,1.272,1.619,4.539,4.539,0,0,0,1.721.82,6.423,6.423,0,0,0,1.989.144,8.524,8.524,0,0,0,2.029-.411,11.789,11.789,0,0,0,3.936-2.049,10.83,10.83,0,0,0,2.789-3.24,9.056,9.056,0,0,0,1.127-4.017,8.374,8.374,0,0,0-1.045-4.347q-.534-1.024-1.087-2.07a19.265,19.265,0,0,1-.964-2.112,11.88,11.88,0,0,1-.614-2.213,8.525,8.525,0,0,1-.082-2.378,6.267,6.267,0,0,1,.552-2.113,6.137,6.137,0,0,1,1.251-1.824,4.679,4.679,0,0,1,1.783-1.127,3.451,3.451,0,0,1,2.194.021,4.129,4.129,0,0,1,1.907,1.127,5.208,5.208,0,0,1,1.127,1.8,6.2,6.2,0,0,1,.369,2.154,8.048,8.048,0,0,1-.287,2.173,9.557,9.557,0,0,1-.9,2.09,21.276,21.276,0,0,1-1.272,1.927,4.176,4.176,0,0,1-.513.656.6.6,0,0,1-.757.123.552.552,0,0,1-.472-.512A.757.757,0,0,1-6553.475-1495.816Z" fill="#333"/>
          <path id="パス_1682" data-name="パス 1682" d="M-6547.839-1490.035c.11-.054.363-.164.759-.328a6.757,6.757,0,0,1,1.168-.369,2.216,2.216,0,0,1,.984-.021q.41.105.288.759a2.028,2.028,0,0,1-.349.738,2.763,2.763,0,0,0-.39.739,9.4,9.4,0,0,0-.471,1.311,1.383,1.383,0,0,0,.143,1.272,3.885,3.885,0,0,0,1.538-.164q.84-.246,1.537-.492a8.024,8.024,0,0,0,.78-.411c.381-.218.785-.43,1.209-.635a6.832,6.832,0,0,1,1.169-.452c.354-.094.574-.061.656.1.108.191.041.4-.205.615a3.991,3.991,0,0,1-.923.595q-.554.267-1.127.492c-.384.151-.63.253-.738.308q-.9.452-1.825.881a7.334,7.334,0,0,1-1.907.594,1.115,1.115,0,0,1-1.188-.369,2.2,2.2,0,0,1-.328-1.25,6.656,6.656,0,0,1,.225-1.64q.225-.88.472-1.62c-.63.247-1.244.472-1.846.677a16.853,16.853,0,0,0-1.763.717q-.738.33-1.475.738a.624.624,0,0,1-.718-.225q-.267-.348.226-.595Zm4.8-8.282a2.392,2.392,0,0,1,.636-.922,3.777,3.777,0,0,1,.964-.636,6.074,6.074,0,0,1,1.127-.389c.4-.1.772-.17,1.128-.226a14.694,14.694,0,0,1,2.911.123,2.2,2.2,0,0,1,.553.082.363.363,0,0,1,.266.451.614.614,0,0,1-.205.349.41.41,0,0,1-.368.1,9.844,9.844,0,0,0-2.481-.185,4.412,4.412,0,0,0-2.317.759,1.327,1.327,0,0,0-.573.655,1.514,1.514,0,0,1-.492.656.647.647,0,0,1-.862,0A.673.673,0,0,1-6543.042-1498.317Z" fill="#333"/>
          <path id="パス_1683" data-name="パス 1683" d="M-6539.664-1488.026q.452-.246,1.559-.84t2.275-1.128a10.478,10.478,0,0,1,2.152-.738q.986-.2,1.23.328a.813.813,0,0,1-.1.8,3.412,3.412,0,0,0-.389.718l-.492,1.147a10.059,10.059,0,0,1,1.065-.574l1.066-.491q1.311-.7,2.706-1.477a13.288,13.288,0,0,1,2.83-1.188,2.018,2.018,0,0,1,.942-.021,1.184,1.184,0,0,1,.636.369,1.043,1.043,0,0,1,.225.7,1.68,1.68,0,0,1-.328.922,6.892,6.892,0,0,1-.8,1.026q-.431.451-.882.983a2.285,2.285,0,0,1-.287.328c-.136.137-.28.294-.43.472s-.287.355-.41.533a1.315,1.315,0,0,0-.226.471,1.544,1.544,0,0,0,.718,0,6.5,6.5,0,0,0,.861-.225c.287-.1.56-.2.82-.307s.457-.192.594-.246l1.682-.739c.108-.054.252-.136.429-.246s.363-.211.554-.307.376-.185.554-.267a1.1,1.1,0,0,1,.43-.123.327.327,0,0,1,.37.369.643.643,0,0,1-.328.574c-.247.137-.506.267-.78.39l-.861.39q-.575.327-1.107.574c-.355.163-.724.342-1.107.532q-.328.163-1.045.472a7.271,7.271,0,0,1-1.435.451,2.369,2.369,0,0,1-1.25-.041c-.356-.123-.534-.457-.534-1.005a1.37,1.37,0,0,1,.2-.737,5.032,5.032,0,0,1,.472-.636,7.86,7.86,0,0,1,.574-.595c.2-.19.389-.369.553-.533a8.947,8.947,0,0,0,.82-.86,3.346,3.346,0,0,0,.739-1.231,8.567,8.567,0,0,0-2.235.574q-1.129.452-2.071.944-1.189.574-2.46,1.291a9.54,9.54,0,0,0-2.214,1.7.792.792,0,0,1-.431.185.771.771,0,0,1-.429-.082.656.656,0,0,1-.308-.308.754.754,0,0,1-.02-.532,1.276,1.276,0,0,1,.614-.657,7.433,7.433,0,0,0,.41-.758,2.586,2.586,0,0,1,.287-.513q.083-.287.164-.594a4.745,4.745,0,0,0,.123-.636q-.45.123-.9.288c-.3.109-.532.191-.7.246q-.576.246-1.149.471t-1.147.512c-.22.109-.417.22-.6.328a3.419,3.419,0,0,1-.595.287.649.649,0,0,1-.471.062.773.773,0,0,1-.349-.185.362.362,0,0,1-.1-.307C-6539.957-1487.841-6539.854-1487.944-6539.664-1488.026Z" fill="#333"/>
          <path id="パス_1684" data-name="パス 1684" d="M-6520.9-1488.026q1.065-.532,2.091-1.024t2.09-.9a14.735,14.735,0,0,1,2.276-.615,13.225,13.225,0,0,1,2.357-.2,1,1,0,0,1,.7.226q.246.227.041.758a.806.806,0,0,1-.739.41,14.33,14.33,0,0,0-2.152,0,6.636,6.636,0,0,0-2.07.493,3.463,3.463,0,0,0-.7.369,4.3,4.3,0,0,0-.676.553,1.715,1.715,0,0,0-.43.676.989.989,0,0,0,.082.78,1.483,1.483,0,0,0,1.25.819,4.243,4.243,0,0,0,1.579-.041,4.261,4.261,0,0,0,.942-.327l.739-.369a2.674,2.674,0,0,1,.594-.226.627.627,0,0,1,.553.185.865.865,0,0,1,.021.942q-.267.532-.43.9l-.574,1.354q1.107-1.149,2.337-2.195a18.666,18.666,0,0,1,2.624-1.865c.082-.054.19-.136.328-.246a3.825,3.825,0,0,1,.451-.307,1.9,1.9,0,0,1,.491-.206.464.464,0,0,1,.41.062c.192.138.26.273.2.41a1.213,1.213,0,0,1-.287.41q-1.066.575-2.049,1.231a18.736,18.736,0,0,0-1.927,1.475,24.453,24.453,0,0,0-2.03,1.927,24.17,24.17,0,0,0-1.784,2.132l-1.065,2.46q-.492,1.23-.985,2.5t-1.065,2.5q-.123.246-.308.595a5.317,5.317,0,0,1-.41.656,1.814,1.814,0,0,1-.533.492,1.064,1.064,0,0,1-.677.144.745.745,0,0,1-.634-.452,1.614,1.614,0,0,1-.082-.82,5.275,5.275,0,0,1,.2-.9q.143-.453.266-.739a21.415,21.415,0,0,1,1.948-3.587,37.484,37.484,0,0,1,2.481-3.3l1.393-3.978a10.666,10.666,0,0,1-1.578.308,6.82,6.82,0,0,1-1.579.02,3.5,3.5,0,0,1-1.332-.41,1.986,1.986,0,0,1-.882-1.065,1.994,1.994,0,0,1,.041-1.723c-.218.138-.444.281-.676.431a.7.7,0,0,1-.594.143.441.441,0,0,1-.492-.348A.416.416,0,0,1-6520.9-1488.026Z" fill="#333"/>
          <path id="パス_1685" data-name="パス 1685" d="M-6507.118-1488.067a25.931,25.931,0,0,0,2.46-1.271q1.188-.7,2.378-1.517a22.068,22.068,0,0,1,1.27-2.214q.7-1.065,1.354-2.091.7-.942,1.393-1.906t1.436-1.906q.615-.82,1.332-1.661a6.14,6.14,0,0,1,1.661-1.373,3.359,3.359,0,0,1,1.107-.349.764.764,0,0,1,.9.595,1.3,1.3,0,0,1,.02.88,3.662,3.662,0,0,1-.43.862,9.4,9.4,0,0,1-.615.82q-.328.39-.534.676a32.779,32.779,0,0,1-3.669,4.367,38.1,38.1,0,0,1-4.366,3.751q-.206.492-.471,1.046a9.817,9.817,0,0,0-.472,1.168,6.618,6.618,0,0,0-.287,1.21,3.089,3.089,0,0,0,.041,1.128q.451-.082.82-.123c.218-.028.423-.048.614-.062a1.2,1.2,0,0,0,.369-.061,18.444,18.444,0,0,0,2.419-.657q1.19-.409,2.337-.9a3.454,3.454,0,0,0,.78-.328.737.737,0,0,1,.779-.041c.3.22.341.417.123.595a2.717,2.717,0,0,1-.615.389l-4.756,1.763q-.7.246-1.354.513a4.231,4.231,0,0,1-1.352.307,1.333,1.333,0,0,1-.985-.184,1.367,1.367,0,0,1-.511-.7,2.328,2.328,0,0,1-.1-.943,5.292,5.292,0,0,1,.163-.964,14.454,14.454,0,0,1,.739-1.967,31.686,31.686,0,0,1-3.526,2.008.64.64,0,0,1-.677-.266Q-6507.609-1487.82-6507.118-1488.067Zm8.323-5.616a31.757,31.757,0,0,0,3.526-3.9,13.819,13.819,0,0,0,1.394-1.968,5.429,5.429,0,0,1,.245-.512,5.159,5.159,0,0,0,.287-.636,4.425,4.425,0,0,0-1.086.779q-.513.492-.84.821a22.063,22.063,0,0,0-1.763,1.988q-.82,1.046-1.641,2.152c-.3.438-.588.868-.86,1.292s-.533.855-.779,1.291c.246-.19.5-.4.758-.635S-6499.041-1493.464-6498.795-1493.683Z" fill="#333"/>
          <path id="パス_1686" data-name="パス 1686" d="M-6495.13-1488.067q.738-.369,1.537-.819a13.542,13.542,0,0,1,1.62-.78,4.192,4.192,0,0,1,1.517-1.537,6.216,6.216,0,0,1,2.091-.8,5.483,5.483,0,0,1,1.333,0,1.623,1.623,0,0,1,1.168.616.64.64,0,0,1,.143.7,1.906,1.906,0,0,1-.492.7,4.9,4.9,0,0,1-.778.595q-.43.267-.636.39a5.86,5.86,0,0,1-1.62.675,5.162,5.162,0,0,1-1.783.144h-.164a2.305,2.305,0,0,0,.738,1.394,3.557,3.557,0,0,0,1.353.718,4.914,4.914,0,0,0,1.62.185,12.514,12.514,0,0,0,1.537-.164,18.263,18.263,0,0,0,1.927-.513,17.613,17.613,0,0,0,1.845-.718q.409-.2.84-.389a8.33,8.33,0,0,0,.8-.39.787.787,0,0,1,.6.082c.205.11.225.287.061.533a1.049,1.049,0,0,1-.574.451q-.369.123-.656.246l-2.05.9a35.2,35.2,0,0,1-3.731,1.229,6.115,6.115,0,0,1-1.661.1,4.806,4.806,0,0,1-1.557-.369,4.073,4.073,0,0,1-1.292-.882,3.236,3.236,0,0,1-.82-1.476c-.055-.218-.1-.436-.143-.656a1.314,1.314,0,0,1,.02-.614,7.927,7.927,0,0,0-.881.47c-.288.179-.541.335-.759.472a3.031,3.031,0,0,0-.533.308.554.554,0,0,1-.656.02.467.467,0,0,1-.225-.451A.381.381,0,0,1-6495.13-1488.067Zm4.182-1.147a4.75,4.75,0,0,0,1.906-.493,5.973,5.973,0,0,0,1.62-1.148,2.315,2.315,0,0,0-1.128-.122,3.213,3.213,0,0,0-1.024.327,3.16,3.16,0,0,0-.841.636A2.541,2.541,0,0,0-6490.948-1489.214Z" fill="#333"/>
          <path id="パス_1687" data-name="パス 1687" d="M-6449.253-1504.384a3.636,3.636,0,0,0-1.783-.288,7.18,7.18,0,0,0-1.824.411,6.1,6.1,0,0,1,4.181,1.127,4.113,4.113,0,0,1,1.4,3.834,12.45,12.45,0,0,1-1.25,4.386,34.009,34.009,0,0,1-2.316,4.018q-1.066,1.6-2.42,3.26a22.5,22.5,0,0,1-2.993,3.034,19.117,19.117,0,0,1-3.5,2.337,10.3,10.3,0,0,1-3.915,1.128,7.332,7.332,0,0,1-1.948-.1,3.037,3.037,0,0,1-1.7-.923,3.25,3.25,0,0,1-.9-1.926,8.158,8.158,0,0,1,.041-2.173,14.832,14.832,0,0,1,1.414-4.285,37.557,37.557,0,0,1,2.275-3.916,31.246,31.246,0,0,1,2.624-3.71,41.55,41.55,0,0,1,3.075-3.341,32.152,32.152,0,0,1,3.341-2.747,9.464,9.464,0,0,1,3.916-1.682,8.7,8.7,0,0,1,1.578-.123,2.186,2.186,0,0,1,1.456.451.679.679,0,0,1,.267.472.771.771,0,0,1-.1.471.752.752,0,0,1-.37.308A.663.663,0,0,1-6449.253-1504.384Zm-7.789,2.706a26.122,26.122,0,0,0-3.3,3.217,41.247,41.247,0,0,0-2.808,3.67,29.784,29.784,0,0,0-2.276,3.915,16.739,16.739,0,0,0-1.415,4.286,8.2,8.2,0,0,0-.123.921,4.918,4.918,0,0,0,.021,1.005,3.4,3.4,0,0,0,.246.923,1.659,1.659,0,0,0,.595.717,2.562,2.562,0,0,0,1.578.472,8.431,8.431,0,0,0,1.62-.185,11.319,11.319,0,0,0,4.1-1.722,29,29,0,0,0,3.486-2.747,26.478,26.478,0,0,0,3.055-3.362,22.218,22.218,0,0,0,2.357-3.854q.369-.738.818-1.783a10.9,10.9,0,0,0,.678-2.153,6.265,6.265,0,0,0,.082-2.132,2.761,2.761,0,0,0-.924-1.722,2.654,2.654,0,0,0-1.844-.717,10.89,10.89,0,0,0-2.05.143.672.672,0,0,1-.657-.2.876.876,0,0,1-.246-.738,16.051,16.051,0,0,0-1.619,1.025Q-6456.469-1502.13-6457.042-1501.678Z" fill="#333"/>
          <path id="パス_1688" data-name="パス 1688" d="M-6450.457-1488.067q.861-.45,1.7-.9t1.825-1.026a1.983,1.983,0,0,1,.471-1.475,1.623,1.623,0,0,1,1.415-.657.833.833,0,0,1,.739.575,1,1,0,0,1-.165.942,2.746,2.746,0,0,1-.861.82,1.377,1.377,0,0,0,.7.164,3.751,3.751,0,0,0,1.8-.307,11.876,11.876,0,0,0,1.681-.841c.492-.164.806-.108.943.164a.976.976,0,0,1-.164.984q-.205.328-.472.841a7.934,7.934,0,0,0-.451,1.045,3.574,3.574,0,0,0-.2,1.025.922.922,0,0,0,.307.78c.136.163.5.163,1.087,0s1.373-.438,2.357-.821c.328-.136.662-.293,1-.471s.689-.349,1.045-.513a2.123,2.123,0,0,0,.369-.184,2.006,2.006,0,0,1,.472-.206.7.7,0,0,1,.41,0c.123.041.184.185.184.431a.482.482,0,0,1-.184.369,2.22,2.22,0,0,1-.41.287,2.854,2.854,0,0,1-.472.2l-.369.123-1.722.78q-.452.244-1.128.614a9.4,9.4,0,0,1-1.373.615,4.058,4.058,0,0,1-1.353.246,1.176,1.176,0,0,1-1.025-.533,1.328,1.328,0,0,1-.246-.636,2.4,2.4,0,0,1,.021-.7,6.205,6.205,0,0,1,.164-.7c.067-.233.129-.457.184-.677l.328-1.352q-.205.041-.84.205a8.281,8.281,0,0,1-1.373.225,7,7,0,0,1-1.415-.02,1.38,1.38,0,0,1-1-.533q-.7.369-1.148.615c-.3.164-.608.342-.923.532s-.567.343-.757.451a2.445,2.445,0,0,0-.575.308.483.483,0,0,1-.574.061.512.512,0,0,1-.246-.451A.425.425,0,0,1-6450.457-1488.067Z" fill="#333"/>
          <path id="パス_1689" data-name="パス 1689" d="M-6430.987-1490.035c.109-.054.362-.164.759-.328a6.74,6.74,0,0,1,1.169-.369,2.212,2.212,0,0,1,.983-.021q.409.105.287.759a2.014,2.014,0,0,1-.349.738,2.8,2.8,0,0,0-.389.739,9.53,9.53,0,0,0-.471,1.311,1.383,1.383,0,0,0,.144,1.272,3.884,3.884,0,0,0,1.537-.164q.839-.246,1.537-.492A8.048,8.048,0,0,0-6425-1487q.574-.327,1.21-.635a6.855,6.855,0,0,1,1.168-.452c.356-.094.574-.061.656.1q.163.287-.205.615a3.963,3.963,0,0,1-.923.595q-.553.267-1.127.492c-.383.151-.628.253-.738.308q-.9.452-1.824.881a7.339,7.339,0,0,1-1.906.594,1.119,1.119,0,0,1-1.19-.369,2.211,2.211,0,0,1-.328-1.25,6.613,6.613,0,0,1,.226-1.64q.225-.88.471-1.62-.942.371-1.844.677a16.7,16.7,0,0,0-1.764.717q-.738.33-1.476.738a.622.622,0,0,1-.717-.225q-.267-.348.225-.595Zm4.8-8.282a2.365,2.365,0,0,1,.634-.922,3.823,3.823,0,0,1,.964-.636,6.124,6.124,0,0,1,1.127-.389c.4-.1.773-.17,1.128-.226a14.688,14.688,0,0,1,2.911.123,2.207,2.207,0,0,1,.554.082.364.364,0,0,1,.267.451.631.631,0,0,1-.205.349.416.416,0,0,1-.37.1,9.831,9.831,0,0,0-2.48-.185,4.4,4.4,0,0,0-2.316.759,1.331,1.331,0,0,0-.575.655,1.5,1.5,0,0,1-.492.656.646.646,0,0,1-.861,0A.671.671,0,0,1-6426.189-1498.317Z" fill="#333"/>
          <path id="パス_1690" data-name="パス 1690" d="M-6422.614-1488.026q1.066-.532,2.091-1.024t2.091-.9a14.718,14.718,0,0,1,2.275-.615,13.238,13.238,0,0,1,2.358-.2,1,1,0,0,1,.7.226q.246.227.041.758a.805.805,0,0,1-.738.41,14.343,14.343,0,0,0-2.153,0,6.633,6.633,0,0,0-2.07.493,3.492,3.492,0,0,0-.7.369,4.356,4.356,0,0,0-.675.553,1.725,1.725,0,0,0-.431.676.989.989,0,0,0,.082.78,1.485,1.485,0,0,0,1.25.819,4.242,4.242,0,0,0,1.579-.041,4.288,4.288,0,0,0,.943-.327l.738-.369a2.7,2.7,0,0,1,.595-.226.627.627,0,0,1,.553.185.87.87,0,0,1,.021.942q-.269.532-.431.9l-.574,1.354q1.107-1.149,2.337-2.195a18.666,18.666,0,0,1,2.624-1.865c.082-.054.191-.136.328-.246a3.908,3.908,0,0,1,.451-.307,1.91,1.91,0,0,1,.492-.206.461.461,0,0,1,.409.062c.192.138.26.273.206.41a1.226,1.226,0,0,1-.288.41q-1.066.575-2.049,1.231a18.95,18.95,0,0,0-1.927,1.475,24.213,24.213,0,0,0-2.029,1.927,23.753,23.753,0,0,0-1.784,2.132l-1.066,2.46q-.491,1.23-.984,2.5t-1.066,2.5q-.123.246-.307.595a5.382,5.382,0,0,1-.411.656,1.82,1.82,0,0,1-.533.492,1.061,1.061,0,0,1-.676.144.747.747,0,0,1-.635-.452,1.608,1.608,0,0,1-.082-.82,5.188,5.188,0,0,1,.205-.9,7.663,7.663,0,0,1,.266-.739,21.275,21.275,0,0,1,1.948-3.587,37.476,37.476,0,0,1,2.48-3.3l1.394-3.978a10.674,10.674,0,0,1-1.579.308,6.807,6.807,0,0,1-1.578.02,3.5,3.5,0,0,1-1.333-.41,1.989,1.989,0,0,1-.882-1.065,2,2,0,0,1,.042-1.723c-.219.138-.445.281-.676.431a.7.7,0,0,1-.6.143.442.442,0,0,1-.492-.348A.416.416,0,0,1-6422.614-1488.026Z" fill="#333"/>
          <path id="パス_1691" data-name="パス 1691" d="M-6404.731-1490.035c.109-.054.362-.164.759-.328a6.757,6.757,0,0,1,1.168-.369,2.218,2.218,0,0,1,.984-.021q.409.105.287.759a2.012,2.012,0,0,1-.349.738,2.786,2.786,0,0,0-.389.739,9.466,9.466,0,0,0-.471,1.311,1.38,1.38,0,0,0,.144,1.272,3.885,3.885,0,0,0,1.537-.164q.839-.246,1.537-.492a8.168,8.168,0,0,0,.779-.411c.383-.218.785-.43,1.21-.635a6.871,6.871,0,0,1,1.168-.452c.355-.094.574-.061.656.1q.163.287-.205.615a3.991,3.991,0,0,1-.923.595q-.554.267-1.127.492c-.383.151-.629.253-.738.308q-.9.452-1.824.881a7.342,7.342,0,0,1-1.906.594,1.119,1.119,0,0,1-1.19-.369,2.207,2.207,0,0,1-.328-1.25,6.613,6.613,0,0,1,.226-1.64q.225-.88.471-1.62-.943.371-1.844.677a16.648,16.648,0,0,0-1.764.717q-.738.33-1.476.738a.622.622,0,0,1-.717-.225q-.267-.348.225-.595Zm4.8-8.282a2.367,2.367,0,0,1,.634-.922,3.794,3.794,0,0,1,.964-.636,6.124,6.124,0,0,1,1.127-.389c.4-.1.773-.17,1.128-.226a14.691,14.691,0,0,1,2.911.123,2.2,2.2,0,0,1,.554.082.364.364,0,0,1,.267.451.624.624,0,0,1-.206.349.412.412,0,0,1-.369.1,9.832,9.832,0,0,0-2.48-.185,4.41,4.41,0,0,0-2.317.759,1.334,1.334,0,0,0-.574.655,1.488,1.488,0,0,1-.492.656.646.646,0,0,1-.861,0A.671.671,0,0,1-6399.933-1498.317Z" fill="#333"/>
          <path id="パス_1692" data-name="パス 1692" d="M-6396.556-1488.026q.452-.246,1.558-.84t2.276-1.128a10.5,10.5,0,0,1,2.153-.738q.982-.2,1.229.328a.809.809,0,0,1-.1.8,3.421,3.421,0,0,0-.39.718l-.491,1.147a10.162,10.162,0,0,1,1.065-.574l1.067-.491q1.311-.7,2.706-1.477a13.291,13.291,0,0,1,2.829-1.188,2.016,2.016,0,0,1,.942-.021,1.177,1.177,0,0,1,.636.369,1.049,1.049,0,0,1,.226.7,1.682,1.682,0,0,1-.329.922,6.8,6.8,0,0,1-.8,1.026q-.431.451-.881.983a2.539,2.539,0,0,1-.287.328q-.207.206-.431.472c-.15.178-.287.355-.41.533a1.34,1.34,0,0,0-.226.471,1.542,1.542,0,0,0,.718,0,6.5,6.5,0,0,0,.861-.225c.287-.1.56-.2.82-.307s.458-.192.594-.246l1.681-.739c.11-.054.253-.136.431-.246s.362-.211.554-.307.375-.185.553-.267a1.1,1.1,0,0,1,.431-.123.325.325,0,0,1,.368.369.642.642,0,0,1-.327.574c-.246.137-.507.267-.779.39l-.862.39q-.575.327-1.106.574c-.356.163-.725.342-1.108.532q-.327.163-1.045.472a7.311,7.311,0,0,1-1.435.451,2.369,2.369,0,0,1-1.25-.041c-.356-.123-.533-.457-.533-1.005a1.349,1.349,0,0,1,.205-.737,4.89,4.89,0,0,1,.472-.636,7.66,7.66,0,0,1,.573-.595c.205-.19.389-.369.553-.533a9.044,9.044,0,0,0,.821-.86,3.338,3.338,0,0,0,.737-1.231,8.59,8.59,0,0,0-2.234.574q-1.128.452-2.071.944-1.19.574-2.46,1.291a9.534,9.534,0,0,0-2.213,1.7.793.793,0,0,1-.431.185.78.78,0,0,1-.431-.082.663.663,0,0,1-.307-.308.759.759,0,0,1-.021-.532,1.274,1.274,0,0,1,.615-.657,7.341,7.341,0,0,0,.41-.758,2.517,2.517,0,0,1,.288-.513c.054-.191.108-.389.164-.594a4.9,4.9,0,0,0,.123-.636c-.3.082-.6.178-.9.288s-.533.191-.7.246q-.574.246-1.147.471t-1.149.512c-.219.109-.417.22-.594.328a3.409,3.409,0,0,1-.594.287.652.652,0,0,1-.472.062.773.773,0,0,1-.349-.185.355.355,0,0,1-.1-.307C-6396.848-1487.841-6396.746-1487.944-6396.556-1488.026Z" fill="#333"/>
        </g>
      </g>
    </g>
    <g id="グループ_385" data-name="グループ 385">
      <path id="パス_1693" data-name="パス 1693" d="M-6562.161-1585.3c-.54,0-1.2-.18-1.2-.96,0-.96.99-.96,1.2-.96h4.529c1.2,0,1.2.81,1.2.96,0,.96-.871.96-1.2.96Z" fill="#333"/>
      <path id="パス_1694" data-name="パス 1694" d="M-6539.215-1597.643c-.39,0-1.65,1.08-2.13,1.5-.39.36-1.53,1.38-2.31,1.38-1.109,0-1.949-2.13-1.949-2.221,0-.18.059-.3.239-.3s.87.119,1.02.119c.96,0,1.321-.059,3.121-1.2a5.142,5.142,0,0,1,2.879-.99c1.98,0,2.43,1.349,2.43,1.8,0,.63-.27.99-1.83,2.429a27.259,27.259,0,0,0-4.41,6.09c0,.151.21.18.3.18.389,0,2.069-.029,2.429,0a24.267,24.267,0,0,1,5.67,1.2,1.2,1.2,0,0,0,.48.12c.39,0,.57-2.46.57-2.76,0-.24-.18-1.56-.18-1.679,0-.181.21-.181.329-.181.091,0,2.7.481,2.7,1.65a6.515,6.515,0,0,1-.66,1.17c0,.06-.42,2.46-.42,2.55,0,.39.18.48.69.75,1.17.63,3.9,2.04,3.9,3.6a1.162,1.162,0,0,1-1.109,1.14c-.6,0-.931-.24-3.03-2.04-.06-.03-.93-.78-1.23-.78-.24,0-.33.21-.421.36a12.932,12.932,0,0,1-5.878,5.55,11.041,11.041,0,0,1-3.241,1.2c-.03,0-.24,0-.24-.089a4.69,4.69,0,0,1,.57-.42c2.97-2.04,4.44-3.24,6.18-5.94a5.513,5.513,0,0,0,.9-1.71c0-.27,0-.42-1.649-1.23a12.992,12.992,0,0,0-5.519-1.35c-1.861,0-1.92.12-2.431,1.2-2.579,5.49-3.09,6.6-4.98,6.6-1.529,0-1.979-1.65-1.979-2.4,0-2.55,2.67-4.829,5.819-5.94a1.081,1.081,0,0,0,.75-.6c.691-1.111,4.441-6.781,4.59-7.05a4.25,4.25,0,0,0,.39-1.35A.385.385,0,0,0-6539.215-1597.643Zm-10.049,14.459c0,.51.24.87.78.87,1.649,0,3.6-4.41,3.6-4.53,0-.09-.03-.15-.12-.15C-6546.085-1586.994-6549.264-1584.954-6549.264-1583.184Z" fill="#333"/>
      <path id="パス_1695" data-name="パス 1695" d="M-6512.264-1598.3a2.445,2.445,0,0,0-.419-1.32,5.908,5.908,0,0,1-.57-.841c0-.359.63-.629,1.23-.629a2.442,2.442,0,0,1,2.16,1.32c.15.21.45.33,1.349.57.571.15,1.71.48,1.71,1.32,0,1.14-1.679,1.679-4.109,2.4-.27.091-.3.181-.57,1.23-.36,1.5-2.94,11.64-5.7,11.64-.811,0-.931-.54-.931-.84,0-.42.09-.57.99-1.86a26.842,26.842,0,0,0,4.14-9.779c0-.27-.21-.3-.66-.33-3.539-.3-3.539-2.4-3.539-2.43,0-.12.029-.361.21-.361.119,0,.209.031.809.391a4.446,4.446,0,0,0,2.31.63,3.716,3.716,0,0,0,1.32-.181A1.415,1.415,0,0,0-6512.264-1598.3Zm8.64,18.779c-.39,2.61-2.669,3.269-4.229,3.269-2.85,0-4.53-1.979-4.53-3.479,0-1.95,2.13-2.97,4.829-2.97.241,0,1.351.06,1.561.06.27,0,.42-.03.42-.33,0-.45-.12-2.46-.12-2.88,0-3.3.179-4.89,2.7-6.33,1.859-1.079,2.069-1.17,2.069-1.949a2.633,2.633,0,0,0-.84-1.531c-.269-.239-.389-.36-.389-.479,0-.091.09-.151.21-.151a9.493,9.493,0,0,1,1.769.511,3.219,3.219,0,0,1,2.191,3.06,1.425,1.425,0,0,1-1.41,1.559,2.073,2.073,0,0,1-.691-.12c-1.139-.42-1.26-.479-1.62-.479a3.592,3.592,0,0,0-2.189.9,3.378,3.378,0,0,0-.72,2.49c0,.75.3,5.4,1.2,6.03.271.21,1.681.69,1.95.84.63.33,2.37,1.29,2.37,2.4,0,.51-.21,1.05-.809,1.05-.3,0-.481-.09-.931-.48-.809-.72-2.189-1.65-2.609-1.47C-6503.563-1579.944-6503.563-1579.824-6503.624-1579.524Zm-4.319-1.71c-.691,0-3.39,0-3.39,1.59,0,.72.9,1.62,2.7,1.62,2.911,0,3.33-2.28,3.151-2.76C-6505.634-1581.234-6507.254-1581.234-6507.943-1581.234Zm-.81-17.159c0-.21-1.051-.75-1.23-.75-.51,0-.72,1.229-.72,1.32a.323.323,0,0,0,.06.18C-6510.554-1597.553-6508.753-1597.943-6508.753-1598.393Z" fill="#333"/>
      <path id="パス_1696" data-name="パス 1696" d="M-6479.509-1597.643c-.389,0-1.65,1.08-2.13,1.5-.39.36-1.53,1.38-2.31,1.38-1.109,0-1.949-2.13-1.949-2.221,0-.18.059-.3.24-.3s.869.119,1.019.119c.96,0,1.321-.059,3.121-1.2a5.142,5.142,0,0,1,2.879-.99c1.98,0,2.43,1.349,2.43,1.8,0,.63-.27.99-1.83,2.429a27.25,27.25,0,0,0-4.41,6.09c0,.151.21.18.3.18.389,0,2.069-.029,2.429,0a24.266,24.266,0,0,1,5.67,1.2,1.193,1.193,0,0,0,.48.12c.389,0,.57-2.46.57-2.76,0-.24-.181-1.56-.181-1.679,0-.181.211-.181.331-.181.09,0,2.7.481,2.7,1.65a6.545,6.545,0,0,1-.66,1.17c0,.06-.42,2.46-.42,2.55,0,.39.18.48.69.75,1.17.63,3.9,2.04,3.9,3.6a1.162,1.162,0,0,1-1.11,1.14c-.6,0-.931-.24-3.03-2.04-.06-.03-.93-.78-1.23-.78-.24,0-.33.21-.421.36a12.934,12.934,0,0,1-5.878,5.55,11.041,11.041,0,0,1-3.241,1.2c-.03,0-.24,0-.24-.089a4.72,4.72,0,0,1,.57-.42c2.97-2.04,4.44-3.24,6.18-5.94a5.522,5.522,0,0,0,.9-1.71c0-.27,0-.42-1.65-1.23a12.993,12.993,0,0,0-5.519-1.35c-1.861,0-1.92.12-2.43,1.2-2.58,5.49-3.091,6.6-4.981,6.6-1.529,0-1.979-1.65-1.979-2.4,0-2.55,2.67-4.829,5.819-5.94a1.082,1.082,0,0,0,.75-.6c.691-1.111,4.441-6.781,4.59-7.05a4.25,4.25,0,0,0,.39-1.35C-6479.179-1597.433-6479.268-1597.643-6479.509-1597.643Zm-10.049,14.459c0,.51.24.87.78.87,1.649,0,3.6-4.41,3.6-4.53,0-.09-.03-.15-.12-.15C-6486.379-1586.994-6489.558-1584.954-6489.558-1583.184Z" fill="#333"/>
      <path id="パス_1697" data-name="パス 1697" d="M-6454.368-1591.794c-3.09,0-4.41-2.31-4.41-2.879,0-.15.03-.27.24-.27a7.939,7.939,0,0,1,1.23.569,7.5,7.5,0,0,0,3.089.81c1.14,0,3.18-.54,3.18-1.02,0-.269-.989-.96-1.38-1.229-.809-.57-1.92-1.59-1.92-2.46a1.449,1.449,0,0,1,1.5-1.441c.63,0,.931.181,2.311.991a4.992,4.992,0,0,0,2.819.69c.361,0,1.89-.03,2.22,0a1.04,1.04,0,0,1,1.02,1.079c0,.781-1.41,1.861-1.83,2.1-.81.51-.9.569-.9.779a.854.854,0,0,0,.36.57c1.56,1.38,5.49,4.86,5.49,7.92a1.87,1.87,0,0,1-1.98,2.01c-.54,0-.75-.12-2.55-1.11a11.011,11.011,0,0,0-5.1-1.56,4.045,4.045,0,0,0-4.2,3.48c0,1.92,1.89,2.67,4.441,2.67.51,0,3.059-.27,3.119-.27a1.269,1.269,0,0,1,1.471,1.17c0,1.59-2.881,1.59-3.42,1.59a10.074,10.074,0,0,1-4.83-.93,4.4,4.4,0,0,1-2.58-3.72c0-2.97,3.059-4.77,6.389-4.77a10.714,10.714,0,0,1,3.241.54,9.321,9.321,0,0,0,2.459.6.962.962,0,0,0,1.05-.96c0-1.95-3.99-6.419-4.86-6.419-.18,0-3.18,1.109-3.81,1.259A8.674,8.674,0,0,1-6454.368-1591.794Zm5.279-3.54c.18,0,1.111-.3,1.111-.96,0-.389-.09-.479-1.051-1.049-1.98-1.2-2.22-1.32-2.55-1.32a.556.556,0,0,0-.569.539c0,.721,1.08,1.591,1.319,1.771A5.077,5.077,0,0,0-6449.089-1595.334Z" fill="#333"/>
      <path id="パス_1698" data-name="パス 1698" d="M-6431.677-1588.944c1.71,0,4.741-1.68,4.741-2.1a2.6,2.6,0,0,0-.481-.96c-2.01-2.73-2.25-3.03-2.25-3.66,0-.96,1.59-2.009,4.41-2.009a19.588,19.588,0,0,1,2.79.209,7.776,7.776,0,0,0,1.11.09.736.736,0,0,0,.84-.809c0-.151-.21-.9-.21-1.05a.2.2,0,0,1,.21-.21,3.515,3.515,0,0,1,2.16,2.88c0,.149-.15.72-.15.87,0,.09.03.27.21.27.15,0,.75-.241.9-.27a12.086,12.086,0,0,1,2.91-.45,5.781,5.781,0,0,1,5.76,5.4c0,1.8-1.26,4.65-5.19,4.65a7.562,7.562,0,0,1-5.58-2.82c0-.09.09-.12.18-.12.06,0,1.08.361,1.26.42a8,8,0,0,0,2.94.66c1.56,0,4.08-.81,4.08-3.33a3.608,3.608,0,0,0-3.81-3.63c-2.49,0-4.05.991-8.79,4.02-.9.57-.9.6-.9.81a1.4,1.4,0,0,0,.33.72c1.8,2.91,4.95,8.82,4.95,11.46,0,1.17-.72,1.8-1.35,1.8-.9,0-1.29-.87-1.29-1.77a10.648,10.648,0,0,0-.329-3.6,28.284,28.284,0,0,0-3.151-7.47c-.12-.18-.24-.36-.42-.36a6.229,6.229,0,0,0-1.259.78c-.331.21-2.791,1.8-3.72,1.8-.571,0-2.13-1.62-2.13-1.98a.3.3,0,0,1,.269-.3C-6432.516-1589-6432.066-1588.944-6431.677-1588.944Zm4.02-6.39c0,.6.12.81,1.351,2.73.54.81.569.9.809.9a1.794,1.794,0,0,0,.72-.36,44.342,44.342,0,0,1,3.96-2.25c.3-.15.42-.27.42-.42,0-.119-.09-.18-.93-.54a22.882,22.882,0,0,0-4.17-1.619A1.654,1.654,0,0,0-6427.657-1595.334Z" fill="#333"/>
      <path id="パス_1699" data-name="パス 1699" d="M-6400.7-1592.274a.263.263,0,0,1,.269-.239c.09,0,1.651.42,1.981.42a50.091,50.091,0,0,0,5.039-.9c.511-.36.54-3.389.54-3.539a3.8,3.8,0,0,0-.75-2.551c-.449-.539-.51-.6-.51-.689,0-.21.361-.24.481-.24,2.009,0,3.179,1.139,3.179,1.92,0,.06-1.139,3.87-1.139,4.44,0,.18.119.27.329.27.15,0,1.53-.151,1.77-.151,2.25,0,3.99,1.08,3.99,3.84,0,2.37-.84,7.53-2.579,9.63a4.656,4.656,0,0,1-3.061,1.83c-1.14,0-1.439-1.11-1.77-2.07-.06-.15-.389-.93-.389-.99a.141.141,0,0,1,.149-.15,5.458,5.458,0,0,1,.75.21,9.519,9.519,0,0,0,1.53.21c.871,0,1.98-.42,2.85-3.66a23.847,23.847,0,0,0,.93-5.22c0-2.1-1.2-2.25-2.07-2.25a6.515,6.515,0,0,0-2.879.72c-.121.15-.151.27-.451,1.29-1.2,4.08-4.11,11.46-6.54,11.46a.882.882,0,0,1-.96-.96c0-.63.21-.87,2.01-2.85.811-.9,2.07-2.28,3.691-6.78a8.042,8.042,0,0,0,.419-1.41c0-.09-.03-.239-.209-.239-.661,0-3.451,1.2-4.05,1.2C-6399.318-1589.724-6400.7-1591.614-6400.7-1592.274Zm20.938,6.24c-.3,0-1.679-.81-2.039-.9-.15-.06-.96-.12-.96-.21,0-.18.99-.69,1.17-.84,1.11-.84,1.23-.93,1.23-1.74a3.855,3.855,0,0,0-2.43-3.449c-.24-.121-.72-.331-.72-.451,0-.179.12-.179.21-.179,3.84,0,5.249,3.779,5.249,5.309C-6378.05-1588.133-6378.5-1586.034-6379.76-1586.034Z" fill="#333"/>
      <path id="パス_1700" data-name="パス 1700" d="M-6371-1585.3c-.54,0-1.2-.18-1.2-.96,0-.96.99-.96,1.2-.96h4.529c1.2,0,1.2.81,1.2.96,0,.96-.871.96-1.2.96Z" fill="#333"/>
    </g>
  </g>
</svg>
