<svg id="lineup_oolong_howto" xmlns="http://www.w3.org/2000/svg" width="465.49" height="32.238" viewBox="0 0 465.49 32.238">
  <g id="グループ_266" data-name="グループ 266" transform="translate(-727.778 -1752.11)">
    <path id="パス_1259" data-name="パス 1259" d="M738.909,1763.346c-1.225,0-1.225.28-1.225,2.345,0,.91.281,1.085.631,1.155,1.26.315,5.391,1.331,5.391,4.061,0,.805-.491,1.995-1.366,1.995-.525,0-.6-.175-1.259-1.855-.772-2.031-2.627-3.466-3.047-3.466-.385,0-.385.07-.385,1.926,0,1.924.211,10.4.211,12.181,0,.49,0,2.31-1.891,2.31-.7,0-.7-.49-.7-1.015,0-.455.1-2.765.1-3.256.071-2.765.176-8.05.176-10.641,0-.14,0-.6-.349-.6-.176,0-.282.175-1.157,1.471-1.994,2.94-5.459,6.65-6.125,6.65-.105,0-.14-.07-.14-.175,0-.14,1.961-2.66,2.2-3.01a35.849,35.849,0,0,0,4.691-9.521c0-.525-.176-.56-1.644-.56-.317,0-2.381.035-3.326.105-.106,0-.631.1-.735.1-.14,0-.176-.1-.316-.244l-.664-.805c-.106-.1-.141-.175-.141-.245s.07-.07.106-.07c.244,0,1.33.1,1.574.14,1.33.035,2.906.1,4.2.1h.769c.352,0,.946,0,1.086-.594.036-.21.036-2.8.036-3.186,0-1.085-.141-1.645-1.086-1.645-.139,0-3.465.315-4.1.315-.279,0-1.154,0-1.154-.175,0-.14.244-.21.384-.245a30.366,30.366,0,0,0,8.577-3.01,20.421,20.421,0,0,1,1.925-1.3,11.879,11.879,0,0,1,3.08,2.626c0,.21-.175.315-.455.315-.175,0-.8-.07-.98-.07a18.234,18.234,0,0,0-3.57,1.05c-.526.385-.526,1.925-.526,3.01,0,2.626,0,2.905,1.051,2.905,1.5,0,1.5,0,2.379-1.085.49-.629.807-.98.98-.98s3.012,1.926,3.012,2.52c0,.456-.736.456-1.891.456Zm15.332-6.931a1.212,1.212,0,0,0,1.121-.455c.629-.77.7-.84.875-.84a18.122,18.122,0,0,1,2.275,1.575.8.8,0,0,1,.244.525c0,.28-.244.42-.49.525-.769.385-.769.595-.769,2.73,0,6.616,0,7.561.244,16,0,.35.1,2.03.1,2.416a1.447,1.447,0,0,1-.525,1.33,3.372,3.372,0,0,1-1.645.629c-.6,0-.6-.629-.6-1.155,0-.735-.42-.735-.979-.735h-4.691c-1.016,0-1.051.315-1.051,1.3,0,1.26-1.295,1.715-1.959,1.715a.8.8,0,0,1-.84-.946c0-.314.139-1.82.139-2.17.07-1.645.14-10.291.14-11.306,0-2.03,0-6.2-.279-10.746,0-.175-.176-1.085-.176-1.3,0-.245.176-.315.42-.315a5.337,5.337,0,0,1,1.541.6,3.4,3.4,0,0,0,2.17.63Zm-.139,21.6c1.014,0,1.014-.561,1.014-1.331v-18.517c0-.7-.594-.84-1.014-.84H749.34a.894.894,0,0,0-.98.525c-.1.28-.1,10.4-.1,11.971,0,3.676.069,7.351.1,7.526.105.666.7.666,1.015.666Z" fill="#4d4d4d"/>
    <path id="パス_1260" data-name="パス 1260" d="M772.922,1778.678c0,2.205-1.189,4.97-2.7,4.97a1.868,1.868,0,0,1-1.644-1.855c0-.455.068-.56,1.294-2.521a11.083,11.083,0,0,0,1.4-4.97c0-.21-.106-.525-.106-.63a.076.076,0,0,1,.071-.07c.279,0,1.084,1.155,1.433,2.835A13.81,13.81,0,0,1,772.922,1778.678Zm5.356-21.283c.7,0,.91-.035,1.33-.77a9.992,9.992,0,0,0,1.26-3.675c0-.1-.106-.561-.106-.666,0-.14.176-.174.281-.174.245,0,1.856.489,2.485.665,1.051.315,1.611.455,1.611.945,0,.419-.1.455-1.262.98a12.176,12.176,0,0,0-2.974,2.485c0,.21.246.21.525.21H791.3a.8.8,0,0,0,.84-.455c.244-.35.561-.8.945-.8.28,0,2.661,1.12,2.661,1.715,0,.28-.385.56-.561.665-.455.315-.561.456-.561,1.331,0,.349.176,3.815.176,4.025a1.763,1.763,0,0,1-1.89,1.645c-.8,0-.8-.525-.84-1.015-.035-.8-.77-.8-1.051-.8H777.262c-.49,0-.98.07-1.119.665-.035.14-.035,2.1-.035,2.205,0,.946.174,1.225,1.154,1.225h14.666c1.436,0,1.612,0,1.891-.245s1.506-1.89,1.926-1.89,3.291,1.925,3.291,2.59c0,.455-.7.455-1.856.455H777.227c-1.084,0-1.084.561-1.084,1.155,0,2.381,0,2.66,1.19,2.66h17.572c.455,0,.8,0,1.015-.455.245-.489.455-.944.8-.944.279,0,2.731,1.189,2.731,1.854,0,.176-.141.351-.491.6a1.566,1.566,0,0,0-.8,1.26c-.141.735-.807,4.516-1.016,5.355a4.836,4.836,0,0,1-4.83,3.921c-.772,0-.807-.21-1.016-.84a4.929,4.929,0,0,0-1.855-1.96c-.141-.1-.84-.35-.84-.525,0-.036.035-.1.174-.1.1,0,.281.1.525.139a10.187,10.187,0,0,0,2.205.281c2.942,0,3.256-1.715,3.467-2.731.385-1.96.664-3.92.664-4.2,0-.735-.56-.735-1.049-.735H776.983c-.666,0-.77.175-.945.595a1.773,1.773,0,0,1-1.715,1.19c-.561,0-.8-.175-.8-.735,0-.175.068-1.54.068-1.82.106-2.1.141-2.94.141-12.427a15.331,15.331,0,0,0-.244-3.115c-.035-.175-.42-1.05-.42-1.26,0-.14.1-.14.209-.14a7.907,7.907,0,0,1,2.416.91c1.119.7,1.26.77,1.994.77Zm-1.016.945c-1.119,0-1.154,0-1.154,2.836,0,1.33,0,1.61,1.154,1.61h13.756c1.086,0,1.191,0,1.191-3.115,0-1.086-.07-1.331-1.121-1.331Zm2.977,21.668c0,.63-.035,2.275-1.752,2.275-.77,0-.8-.875-.84-2.485a16.39,16.39,0,0,0-.385-3.116c-.035-.175-.105-.42-.105-.49s.035-.14.07-.14a8.837,8.837,0,0,1,1.82,1.33A3.447,3.447,0,0,1,780.239,1780.008Zm6.754-.806a1.673,1.673,0,0,1-1.469,1.82c-1.086,0-1.295-1.12-1.436-2.2a12.849,12.849,0,0,0-.56-2.38c-.035-.14-.385-.7-.385-.805,0-.07.1-.1.211-.1a4.832,4.832,0,0,1,1.785.91A3.549,3.549,0,0,1,786.993,1779.2Zm6.056-1.05a1.557,1.557,0,0,1-1.506,1.506c-.734,0-.978-.735-1.5-2.276a6.128,6.128,0,0,0-1.122-2.065,3.578,3.578,0,0,1-.42-.56c0-.07.176-.07.211-.07a6.863,6.863,0,0,1,2.135.7C792.909,1776.542,793.049,1777.837,793.049,1778.152Z" fill="#4d4d4d"/>
    <path id="パス_1261" data-name="パス 1261" d="M819.86,1762.961a5.5,5.5,0,0,0,1.121-.035c.314-.07,1.471-1.26,1.609-1.26.246,0,2.172,1.505,2.172,1.889,0,.316-.525.351-.7.351h-10.08a36.279,36.279,0,0,0-3.746.1c-.07,0-.42.07-.526.07s-.173-.105-.279-.245l-.7-.805c-.139-.141-.139-.175-.139-.21,0-.07.035-.105.139-.105.666,0,3.711.21,4.307.21.455,0,.629-.07.629-.315a10.687,10.687,0,0,0-.456-2.2c-.138-.421-.523-1.366-.664-1.751l.036-.07c.138,0,2.8,1.261,2.8,3.185,0,.176-.209.841-.209.981,0,.21.245.21.385.21h1.365c.455,0,.7-.035.946-.63a16.319,16.319,0,0,0,.875-3.466c0-.595,0-.7.314-.7.106,0,2,.63,2.17.7a.425.425,0,0,1,.211.351c0,.174-.734.594-.84.734a12.126,12.126,0,0,0-1.961,2.766c0,.245.246.245.385.245Zm-.488-5.916a5.5,5.5,0,0,0,1.084-.035c.349-.1,1.4-1.575,1.576-1.575.138,0,1.994,1.68,1.994,2.065,0,.455-.77.455-1.856.455h-6.125c-3.08,0-4.06.07-4.41.105-.14,0-.631.1-.736.1-.139,0-.209-.1-.315-.245l-.664-.805c-.1-.1-.175-.175-.175-.21,0-.07.07-.1.14-.1.77,0,4.2.245,4.9.245.629,0,.769-.28.769-1.4,0-.28-.1-1.89-.209-2.52a4.515,4.515,0,0,1-.211-.736.164.164,0,0,1,.176-.174c.139,0,3.465.8,3.465,1.505,0,.21-.106.28-.7.63-.42.245-.42,1.12-.42,1.47,0,.84.07,1.225.842,1.225Zm-4.8,18.762c-.455,0-.946.035-.946.875,0,.911.106,4.9.106,5.706a1.512,1.512,0,0,1-1.715,1.575c-.7,0-.7-.35-.7-1.155,0-1.715.174-9.241.174-10.781,0-4.131-.071-4.551-.174-5.076-.035-.175-.317-.805-.317-.945,0-.07.036-.1.141-.1a13.972,13.972,0,0,1,2.311.98,3.432,3.432,0,0,0,1.33.21h4.166c.593,0,.978-.035,1.295-.49.244-.385.314-.455.593-.455.246,0,2.522.84,2.522,1.575,0,.14-.176.315-.561.666-.349.349-.349.594-.349,2.52,0,1.47.173,7.945.173,9.24,0,.981,0,3.641-2.939,3.641-.385,0-.42-.07-.734-.875a2.283,2.283,0,0,0-1.577-1.61c-.349-.1-.455-.1-.455-.21,0-.071.071-.1.141-.1h2.484c.737-.1.737-.841.737-1.855,0-.386,0-2.591-.035-2.766-.106-.525-.491-.56-.875-.56Zm4.761-4.866c.911,0,.911-.28.911-1.54,0-1.014,0-1.4-.911-1.4h-4.8c-.911,0-.911.315-.911,1.575,0,1.016,0,1.365.911,1.365Zm-4.8.946c-.911,0-.911.28-.911,1.61,0,1.05,0,1.4.911,1.4h4.8c.911,0,.911-.28.911-1.61,0-1.05,0-1.4-.911-1.4Zm19.007-6.791c1.016,0,1.016-.14,1.016-2.625,0-.666-.035-1.156-.98-1.156h-4.237c-.349,0-.7,0-.91.421a2,2,0,0,1-1.785,1.154c-.49,0-.7-.419-.7-.91,0-.175.07-.8.07-.875.035-.42.035-4.375.035-5.53a24.481,24.481,0,0,0-.1-2.59c0-.07-.106-.42-.106-.49s0-.211.141-.211c.035,0,3.15.561,3.15,1.051,0,.175-.56.77-.666.91-.138.21-.138.315-.138,1.3,0,.7.314.84.978.84h4.236c1.26,0,1.33-.07,1.471-.245.244-.245,1.084-1.61,1.4-1.61.174,0,2.59,1.855,2.59,2.31,0,.49-.595.49-1.506.49h-8.191c-.943,0-1.014.385-1.014,1.12,0,1.856.174,1.925,1.014,1.925h4.131a1.737,1.737,0,0,0,.945-.175c.106-.1.6-.63.735-.63a7.905,7.905,0,0,1,2.38,1.75c0,.176-.07.211-.525.6-.35.314-.35.56-.35,1.505,0,.245.071,1.96.071,2.03a1.436,1.436,0,0,1-1.541,1.365c-.491,0-.594-.14-.84-.56-.174-.245-.561-.245-.77-.245h-4.375c-.771,0-.98.21-.98,1.4,0,1.05.42,1.05.91,1.05h3.43c1.121,0,1.224,0,1.47-.175.209-.21,1.086-1.19,1.331-1.19.175,0,2.415,1.47,2.415,1.855,0,.421-.455.421-1.261.421H829.1c-.734,0-.91.279-.91,1.05,0,1.61.035,1.785.98,1.785h3.116c1.119,0,1.224,0,1.468-.175.211-.176,1.086-1.19,1.332-1.19.174,0,2.414,1.469,2.414,1.855,0,.42-.455.42-1.259.42h-7.035c-.911,0-.946.49-.946,1.19,0,1.33,0,1.715.981,1.715h3.08c1.084,0,1.224,0,1.4-.21.209-.175,1.049-1.225,1.295-1.225.209,0,2.8,1.575,2.8,1.995,0,.35-.594.35-1.5.35h-7.037c-.979,0-.979.455-.979,1.435,0,.8,0,2.1.385,2.416.526.455,1.539.489,3.606.489,4.935,0,5.005-.21,5.6-2.415.281-1.085.281-1.155.875-3.885.035-.21.071-.315.176-.315.07,0,.07.1.07.14a10.241,10.241,0,0,0,.594,4.341c.106.245.981,1.224.981,1.469,0,.841-1.155,1.506-1.5,1.716-.981.63-2.1,1.155-6.721,1.155-6.022,0-6.336-1.3-6.336-3.01,0-3.536,0-13.512-.035-13.9,0-.28-.246-2.1-.246-2.275,0-.14.175-.14.211-.14a8.13,8.13,0,0,1,1.855.63,2.886,2.886,0,0,0,1.4.315Z" fill="#4d4d4d"/>
    <path id="パス_1262" data-name="パス 1262" d="M873.053,1765.691a30.839,30.839,0,0,0,8.471,2.765c.139,0,.734.1.734.245,0,.1-.49.245-.631.28a6.067,6.067,0,0,0-2.66,1.891c-.1.14-.49.875-.664.875-.211,0-7.806-3.676-11.236-9.276-.666-1.121-.77-1.226-1.016-1.226s-.314.07-1.084.876a41.6,41.6,0,0,1-10.361,8.155,30.282,30.282,0,0,1-5.5,2.24c-.106,0-.176-.069-.176-.1s3.746-2.346,4.061-2.556c4.726-2.975,9.732-8.33,10.22-10.956.035-.28.071-.385.317-.385.174,0,3.009,1.085,3.185,1.19.1.035.455.176.455.525a2.177,2.177,0,0,1-.14.491C867.1,1761.245,870.112,1764.186,873.053,1765.691Zm-16.873-8.716c-2.59,0-3.779.07-4.445.1-.106,0-.629.07-.735.07s-.175-.07-.316-.21l-.664-.8c-.141-.175-.141-.175-.141-.245s.036-.07.106-.07c.244,0,1.33.105,1.541.105,1.715.07,3.183.14,4.83.14h1.016c.734,0,.943-.35.943-.945a5.669,5.669,0,0,0-.279-1.856,5.108,5.108,0,0,1-.209-.7c0-.176.173-.245.384-.245.245,0,1.821.385,2.205.489,1.049.281,1.26.351,1.26.665,0,.211-.035.281-.525.911a.858.858,0,0,0-.244.63c0,.84.279,1.05,1.224,1.05h5.776c.314,0,1.051,0,1.051-.945a14.489,14.489,0,0,0-.106-1.575c-.035-.175-.211-.91-.211-1.05,0-.175.211-.245.387-.245.244,0,2.625.559,3.01.665s.593.245.593.559c0,.211-.138.351-.523.631a1.12,1.12,0,0,0-.455.98c0,.98.558.98,1.119.98h1.785c1.541,0,1.715,0,2.24-.595.981-1.155,1.086-1.295,1.4-1.295.211,0,3.256,1.855,3.256,2.31,0,.49-.7.49-1.856.49h-6.826c-1.084,0-1.084.56-1.084,1.4,0,.21.035,1.4.035,1.575,0,1.3-1.051,1.506-1.787,1.506-.8,0-.943-.141-.943-1.331v-2.415c-.106-.665-.526-.735-1.086-.735h-5.6c-.807,0-1.3,0-1.3.98,0,.35.106,1.891.106,2.205,0,.665-.106.98-.42,1.19a2.479,2.479,0,0,1-1.33.491c-.6,0-.875-.385-.875-1.085,0-.281.035-1.611.035-1.856,0-1.365,0-1.925-1.086-1.925Zm2.486,17.887a17.981,17.981,0,0,1,2.7,1.645.877.877,0,0,1,.279.525c0,.42-.279.49-1.119.7-.106.035-3.117,2.381-3.676,2.8a21.528,21.528,0,0,1-5.32,3.045.113.113,0,0,1-.106-.1c0-.07,1.856-1.68,2.1-1.925,2.906-2.766,4.691-5.531,5.006-6.651A.211.211,0,0,1,858.666,1774.862Zm1.61-1.855c-2.731,0-3.746.035-4.445.105-.106,0-.631.069-.735.069s-.176-.069-.316-.21l-.664-.8c-.141-.175-.141-.175-.141-.245,0-.035.035-.071.106-.071.244,0,1.33.106,1.539.106,1.716.1,3.185.139,4.832.139h2.625c.349,0,1.048,0,1.048-.944,0-.421-.209-3.256-.279-3.606,0-.07-.209-.42-.209-.49s.069-.21.35-.21c.244,0,2.7.525,3.045.63.49.105.664.42.664.6,0,.21-.069.28-.594.735-.49.42-.49.63-.49,1.681,0,1.26,0,1.609,1.051,1.609H869.2c1.541,0,1.714,0,2.24-.594.98-1.156,1.086-1.3,1.4-1.3.211,0,3.256,1.89,3.256,2.31,0,.491-.7.491-1.855.491h-6.616c-1.05,0-1.05.63-1.05,1.75,0,2.485,0,3.885.07,5.951.035.595.035,1.434.035,1.855,0,1.12-.281,1.785-1.785,1.785-.772,0-.84-.63-.84-1.225,0-.455.1-2.555.1-3.01.035-1.331.035-2.626.035-4.236a20.916,20.916,0,0,0-.071-2.38c-.173-.49-.734-.49-1.013-.49Zm9.346,2.94c0-.1.175-.14.314-.14,1.3,0,9.277,2.206,9.277,5.111,0,1.12-.63,1.995-1.505,1.995-.665,0-.8-.175-1.891-1.785a16.63,16.63,0,0,0-6.02-5.041C869.762,1776.087,869.622,1775.982,869.622,1775.947Z" fill="#4d4d4d"/>
    <path id="パス_1263" data-name="パス 1263" d="M906.784,1758.235c0,.1.07.245.07.385a26.682,26.682,0,0,1,.35,3.781c0,2.345-.526,5.6-3.606,10.256-2.8,4.27-4.586,5.11-5.984,5.11-2.311,0-4.377-3.6-4.377-7.876a12.327,12.327,0,0,1,3.886-8.925,14.482,14.482,0,0,1,11.167-4.551,11.4,11.4,0,0,1,5.634,1.12,10.97,10.97,0,0,1,6.092,10.186,13.057,13.057,0,0,1-8.822,12.322,21.507,21.507,0,0,1-5.811,1.3c-.138,0-.349-.035-.349-.245,0-.1.07-.14.945-.491,3.641-1.435,11.236-4.445,11.236-13.161,0-1.365-.14-9.7-9.7-9.7C906.819,1757.745,906.784,1758.025,906.784,1758.235Zm-11.377,10.746c0,2.276.91,5.391,3.047,5.391,1.013,0,1.855-.42,4.269-4.061a20.014,20.014,0,0,0,3.432-10.186c0-2.1-.141-2.275-.6-2.275C902.233,1757.85,895.407,1762.366,895.407,1768.981Z" fill="#4d4d4d"/>
    <path id="パス_1268" data-name="パス 1268" d="M1091.577,1772.587c-.911,0-.911.525-.911.945,0,.84.036,4.445.036,5.181,0,.21,0,.7.558.7.281,0,3.151-1.19,3.467-1.33a.762.762,0,0,0,.488-.63,6.924,6.924,0,0,0-1.119-2.17,7.26,7.26,0,0,1-.7-.945c0-.035.07-.035.1-.035.666,0,5.147,2.1,5.147,4.97,0,.981-.49,1.681-1.156,1.681-.629,0-.77-.351-1.33-1.646-.209-.525-.315-.805-.7-.805-.455,0-6.72,4.1-6.966,4.656-.35.7-.385.805-.735.805-.595,0-1.47-2.8-1.47-3.045s.14-.316.384-.316c1.821,0,1.821-.21,1.821-1.714v-10.5c0-2.416,0-5.986-.559-5.986-.141,0-2.451,1.855-2.66,1.855-.07,0-.106,0-.106-.07,0-.035.946-1.225,1.12-1.47a53.778,53.778,0,0,0,6.021-9.731c.176-.665.176-.735.455-.735.209,0,2.731,1.224,2.731,1.96a.531.531,0,0,1-.315.455c-.211.1-.351.175-.351.35s0,.175,1.05.595c.664.245,4.1,1.645,4.1,4.165a1.152,1.152,0,0,1-1.156,1.3c-.35,0-.805-.105-1.469-1.506-.631-1.33-2.766-3.885-3.221-3.885-.281,0-.455.245-.631.49a46.863,46.863,0,0,1-4.619,5.356c-.1.07-.175.14-.175.244s.07.141.875.561c1.05.525,1.154.595,1.644.595,1.016,0,1.051-.315,1.051-1.05a7.548,7.548,0,0,0-.176-2.1c-.035-.175-.279-.84-.279-.98,0-.07.07-.175.349-.175s2.977.385,2.977,1.226c0,.1-.387.524-.455.629-.141.281-.141.42-.141,1.436,0,.49,0,1.015.735,1.015.771,0,.875,0,1.156-.28.629-.735.84-.946,1.119-.946.246,0,1.891,1.016,1.891,1.646,0,.209-.6.98-.666,1.155a8.936,8.936,0,0,0-.1,1.715c0,.945.1,5.251.1,6.09,0,.665,0,1.891-1.469,1.891-.772,0-.84-.42-.91-1.016-.106-.594-.7-.594-.946-.594Zm4.025-5.461c.91,0,.91-.49.91-1.26,0-1.68,0-2.03-.91-2.03h-4.025c-.911,0-.911.525-.911,1.26,0,1.715,0,2.03.911,2.03Zm-.07,4.515c.91,0,.98,0,.98-2.765,0-.8-.525-.8-.91-.8h-4.025c-.911,0-.911.316-.911,1.365,0,1.995,0,2.2.911,2.2Zm16.627-10.64a.979.979,0,0,0,1.049-.561c.49-.8.525-.91.771-.91.279,0,3.43,1.681,3.43,2.485,0,.7-.385.736-2.311.981a4.093,4.093,0,0,0-2.31,1.12c-.071.035-.42.28-.455.28s-.071,0-.071-.035c0-.175.49-1.61.49-1.926,0-.524-.349-.524-.664-.524h-3.011c-.489,0-.944.035-.944.875,0,10.606,7.875,17.537,8.26,17.852.246.209,1.541,1.12,1.541,1.294,0,.106-.6.21-.631.21a6.2,6.2,0,0,0-2.1.7,3.475,3.475,0,0,1-.77.455c-.7,0-4.762-4.83-6.512-15.121-.035-.106-.1-.561-.209-.561-.14,0-.175.315-.211.665-.525,4.235-2.064,11.411-8.89,14.492a6.6,6.6,0,0,1-2.487.665c-.138,0-.173,0-.173-.1a3.661,3.661,0,0,1,.769-.49c1.856-.945,5.531-2.835,7.387-9.171a39.542,39.542,0,0,0,1.469-10.606c0-.631,0-1.155-.805-1.155s-.875.1-1.539,1.085a28.745,28.745,0,0,1-2.871,3.675.093.093,0,0,1-.106-.1c0-.21,1.086-2.555,1.3-3.045.772-1.961,2.942-7.911,2.942-9.871,0-1.015,0-1.19.455-1.19.49,0,3.394,1.4,3.394,1.96,0,.28-.1.35-.734.735-.42.28-2.8,5.461-2.8,5.461,0,.385.385.385.6.385Z" fill="#4d4d4d"/>
    <path id="パス_1269" data-name="パス 1269" d="M1139.778,1757.675c-.455,0-1.924,1.26-2.485,1.751-.455.42-1.785,1.609-2.695,1.609-1.3,0-2.275-2.484-2.275-2.59,0-.21.07-.349.279-.349s1.016.139,1.191.139c1.12,0,1.54-.07,3.641-1.4a6.01,6.01,0,0,1,3.359-1.155c2.311,0,2.836,1.575,2.836,2.1,0,.735-.314,1.155-2.134,2.836a31.764,31.764,0,0,0-5.147,7.1c0,.175.246.21.35.21.455,0,2.416-.035,2.836,0a28.312,28.312,0,0,1,6.615,1.4,1.4,1.4,0,0,0,.56.14c.456,0,.666-2.87.666-3.22,0-.28-.21-1.82-.21-1.96,0-.21.244-.21.384-.21.106,0,3.151.56,3.151,1.925a7.5,7.5,0,0,1-.77,1.365c0,.07-.49,2.871-.49,2.975,0,.456.209.561.805.875,1.365.736,4.55,2.381,4.55,4.2a1.355,1.355,0,0,1-1.3,1.33c-.7,0-1.085-.28-3.535-2.38-.07-.035-1.086-.91-1.435-.91-.28,0-.385.245-.49.42a15.1,15.1,0,0,1-6.862,6.475,12.886,12.886,0,0,1-3.779,1.4c-.035,0-.281,0-.281-.105a5.419,5.419,0,0,1,.666-.49c3.464-2.381,5.179-3.781,7.211-6.931a6.428,6.428,0,0,0,1.048-1.995c0-.315,0-.49-1.923-1.435a15.155,15.155,0,0,0-6.442-1.576c-2.17,0-2.24.141-2.836,1.4-3.009,6.405-3.6,7.7-5.81,7.7-1.785,0-2.309-1.925-2.309-2.8,0-2.975,3.115-5.636,6.789-6.931a1.264,1.264,0,0,0,.877-.7c.8-1.3,5.18-7.911,5.356-8.225a5.051,5.051,0,0,0,.455-1.575A.452.452,0,0,0,1139.778,1757.675Zm-11.725,16.872c0,.595.28,1.015.91,1.015,1.924,0,4.2-5.145,4.2-5.286,0-.1-.036-.175-.139-.175C1131.762,1770.1,1128.053,1772.482,1128.053,1774.547Z" fill="#4d4d4d"/>
    <path id="パス_1270" data-name="パス 1270" d="M1167.715,1760.58c-.8,0-3.22,0-4.445.07a5.321,5.321,0,0,1-.736.106c-.1,0-.174-.106-.315-.245l-.666-.806c-.138-.14-.138-.175-.138-.21a.093.093,0,0,1,.1-.1c.244,0,1.33.1,1.574.14,1.576.07,3.151.106,4.8.106h6.861c1.016,0,1.016-.456,1.016-2.451a21.863,21.863,0,0,0-.176-3.22c-.035-.21-.244-1.05-.244-1.225,0-.21.244-.21.385-.21s3.711.734,3.711,1.54c0,.35-.07.385-.666.945-.455.385-.49,1.3-.49,1.855,0,2.625.211,2.766,1.121,2.766h6.965c1.294,0,1.644,0,2.1-.526.211-.315,1.121-1.96,1.471-1.96.525,0,3.326,2.415,3.326,2.905,0,.525-.666.525-1.855.525H1175.7c-.385,0-.526,0-.526.141,0,.245.141.245,1.506.455.526.069,1.539.28,1.539.77,0,.279-.98,1.154-1.084,1.4a9.742,9.742,0,0,0-.56,2.555c0,.7.734.7.875.7h7.736a1.66,1.66,0,0,0,1.469-.525,4.155,4.155,0,0,1,.807-.7c.173,0,3.044,1.75,3.044,2.24,0,.28-.91,1.085-1.015,1.3a34.846,34.846,0,0,0-.981,4.9c-1.084,5.005-2.17,6.861-3.254,8.12a6.925,6.925,0,0,1-4.025,2.311c-.42,0-.42-.245-.42-.56,0-1.505-1.82-2.626-2.906-3.185-.805-.421-.91-.455-.91-.561,0-.07.035-.279.349-.279a5.819,5.819,0,0,1,1.436.385,10.571,10.571,0,0,0,2.765.455c1.471,0,3.081-.876,4.2-5.5a35.886,35.886,0,0,0,.908-6.546c0-.91-.594-.91-1.119-.91h-8.227c-.978,0-1.049.175-1.469,1.995-2.73,11.377-11.656,13.547-12.111,13.547-.1,0-.316,0-.316-.1,0-.14.42-.386.839-.6a20.757,20.757,0,0,0,7.528-8.436,32.9,32.9,0,0,0,2.555-11.062c0-2.31-.6-2.31-1.3-2.31Z" fill="#4d4d4d"/>
    <g id="グループ_532" data-name="グループ 532" transform="translate(-139.637 108.717)">
      <path id="パス_2251" data-name="パス 2251" d="M1090.925,1653.444c0,1.155-2.66,2.205-3.5,2.555-.49.175-.525.315-.594,1.54-.071.77-.071,3.605-.071,3.78,0,.211,0,.631.315.631.105,0,2.975-1.191,3.536-1.4,3.465-1.295,5.04-1.4,5.95-1.4a5.359,5.359,0,0,1,5.391,5.286c0,4.62-4.866,6.721-7.736,6.721-1.995,0-3.6-1.015-3.6-2.836a3.118,3.118,0,0,1,1.75-2.765.188.188,0,0,1,.175.175c0,.1-.071.175-.14.28a1.448,1.448,0,0,0-.315.945c0,1.68,1.925,1.68,2.275,1.68,2.311,0,5.251-1.54,5.251-4.34a3.628,3.628,0,0,0-3.36-3.851c-.981,0-3.151.456-7.247,2.626-1.959,1.05-2.169,1.155-2.169,1.75,0,.385.1,1.96.1,2.31,0,1.61-.525,3.921-1.785,3.921-.945,0-1.33-.735-1.61-1.3-1.121-2.171-1.3-2.171-1.75-2.171a2.908,2.908,0,0,0-.875.21,6.9,6.9,0,0,1-1.331.7c-.384,0-2.169-1.05-2.169-2.2,0-.63.384-1.365,1.014-1.365.21,0,1.226.175,1.436.175.944,0,1.575-.175,3.639-1.19,1.786-.875,2-.98,2-1.96,0-.806-.035-3.781-.07-4.376,0-.245-.105-.77-.49-.77a8.183,8.183,0,0,0-1.61.315,7.51,7.51,0,0,1-2.486.665c-1.189,0-2.519-2.415-2.519-2.66a.247.247,0,0,1,.279-.245c.1,0,.525.14.63.14a10.182,10.182,0,0,0,1.61.175,15.291,15.291,0,0,0,4.446-1.05,26.184,26.184,0,0,0,.35-3.815,3.437,3.437,0,0,0-1.155-2.8,3.508,3.508,0,0,1-.49-.56c0-.315.56-.385.77-.385,2.345,0,3.606,1.715,3.606,2.38a14.043,14.043,0,0,1-.736,1.821,18.682,18.682,0,0,0-.349,2.275c0,.14.069.385.279.385.245,0,1.226-.385,1.226-.875,0-.07-.175-.42-.175-.49,0-.035.069-.1.139-.14C1089.246,1651.869,1090.925,1652.359,1090.925,1653.444Zm-7.98,13.406c0,.525.945,1.645,1.47,1.645.49,0,.98-.98.98-2.695,0-.14,0-.49-.1-.56C1085.185,1665.24,1082.945,1666.36,1082.945,1666.85Zm23-10.886c0,.735-.42,1.68-1.155,1.68-.21,0-1.015-.07-1.19-.07-.175.035-.91.245-1.051.245a.163.163,0,0,1-.174-.175,2.408,2.408,0,0,1,.105-.28,1.866,1.866,0,0,0,.14-.63c0-1.4-1.75-1.89-2.941-1.89a3.042,3.042,0,0,0-1.365.35.782.782,0,0,1-.35.1c-.105,0-.14-.035-.14-.14a4.478,4.478,0,0,1,3.781-2.205C1104.3,1652.954,1105.942,1654.354,1105.942,1655.964Z" fill="#4d4d4d"/>
      <path id="パス_2252" data-name="パス 2252" d="M1122.3,1653.234a4.8,4.8,0,0,1-.42,1.4,12.362,12.362,0,0,0-.84,4.515c0,3.536,1.82,6.091,2.9,6.091.6,0,.735-.175,1.785-1.925.21-.35.806-1.19,1.085-1.19.106,0,.176.14.176.28a4.093,4.093,0,0,1-.106.7,9.86,9.86,0,0,0-.455,2.66,4.758,4.758,0,0,0,.21,1.4,8.663,8.663,0,0,1,.281,1.155c0,.7-.736,1.085-1.331,1.085-2.24,0-6.65-3.675-6.65-10.361,0-.98.489-5.285.489-6.195a9.671,9.671,0,0,0-.245-2.031,4.753,4.753,0,0,1-.279-1.19c0-.105.14-.14.21-.14C1120.72,1649.488,1122.3,1652.289,1122.3,1653.234Zm17.081.8a8.709,8.709,0,0,1,3.116,6.686c0,.665-.07,2.31-1.75,2.31-1.715,0-1.715-1.891-1.715-2.345,0-2.906,0-4.376-1.856-6.231-.28-.28-1.679-1.365-1.679-1.575,0-.1.139-.175.314-.175A6.81,6.81,0,0,1,1139.376,1654.039Z" fill="#4d4d4d"/>
      <path id="パス_2253" data-name="パス 2253" d="M1162.914,1649.033a16.119,16.119,0,0,1-.665,1.961,84.142,84.142,0,0,0-1.47,12.461c0,3.535.665,6.686,5.355,6.686a17.246,17.246,0,0,0,7.351-1.821c.525-.245,3.185-1.715,3.325-1.715a.164.164,0,0,1,.176.175c0,.385-5.181,6.021-11.762,6.021-4.551,0-6.721-2.626-6.721-9.661,0-2.17.071-2.871.8-9.731.141-1.155.455-4.026.455-5.006a4.406,4.406,0,0,0-.314-1.715c-.035-.1-.385-.91-.385-.945,0-.245.279-.35.489-.35C1161.374,1645.393,1162.914,1648.228,1162.914,1649.033Z" fill="#4d4d4d"/>
      <path id="パス_2254" data-name="パス 2254" d="M1193.934,1653.234a4.778,4.778,0,0,1-.421,1.4,12.385,12.385,0,0,0-.84,4.515c0,3.536,1.821,6.091,2.906,6.091.595,0,.735-.175,1.785-1.925.21-.35.8-1.19,1.085-1.19.1,0,.176.14.176.28a4.2,4.2,0,0,1-.106.7,9.821,9.821,0,0,0-.455,2.66,4.721,4.721,0,0,0,.21,1.4,8.782,8.782,0,0,1,.28,1.155c0,.7-.735,1.085-1.33,1.085-2.24,0-6.65-3.675-6.65-10.361,0-.98.489-5.285.489-6.195a9.745,9.745,0,0,0-.245-2.031,4.75,4.75,0,0,1-.279-1.19c0-.105.139-.14.21-.14C1192.359,1649.488,1193.934,1652.289,1193.934,1653.234Zm17.081.8a8.711,8.711,0,0,1,3.115,6.686c0,.665-.069,2.31-1.75,2.31-1.714,0-1.714-1.891-1.714-2.345,0-2.906,0-4.376-1.856-6.231-.28-.28-1.68-1.365-1.68-1.575,0-.1.14-.175.315-.175A6.812,6.812,0,0,1,1211.015,1654.039Z" fill="#4d4d4d"/>
    </g>
  </g>
</svg>
