<svg id="lineup_refreshing_name_sp" xmlns="http://www.w3.org/2000/svg" width="750" height="230" viewBox="0 0 750 230">
  <rect id="長方形_42" data-name="長方形 42" width="750" height="230" fill="#fff279" opacity="0"/>
  <g id="グループ_451" data-name="グループ 451" transform="translate(6431.049 811.776)">
    <g id="グループ_444" data-name="グループ 444">
      <g id="グループ_443" data-name="グループ 443">
        <path id="パス_1906" data-name="パス 1906" d="M-6173.3-783.135c-.385,0-11.933,2.7-12.209,2.8a23.431,23.431,0,0,1-2.474,1.045c-.825,0-3.409-1.649-3.739-1.979a11.2,11.2,0,0,1-1.32-3.19c0-.275.054-.44.329-.44.056,0,1.265.33,1.431.386a9.828,9.828,0,0,0,2.914.55c1.87,0,12.209-.88,15.068-2.036.495-.219,2.53-1.705,3.025-1.705,1.319,0,4.674,2.8,4.674,4.18,0,.495-2.034,1.98-2.365,2.365-1.1,1.32-5.444,7.754-6.324,9.019a1.8,1.8,0,0,0-.44,1.1c0,.5.11.606,2.42,1.871,2.474,1.429,12.318,6.983,12.318,11.988a2.375,2.375,0,0,1-2.254,2.42c-1.265,0-1.485-.386-3.41-3.795-3.794-6.654-8.634-10.834-9.844-10.834-.55,0-.715.165-1.925,1.54-1.924,2.035-7.533,8.194-14.683,11.768a13.515,13.515,0,0,1-3.409,1.265c-.11,0-.385,0-.385-.33a16.957,16.957,0,0,1,2.53-2.034c14.353-10.394,20.9-24.637,20.732-25.517A.617.617,0,0,0-6173.3-783.135Z" fill="#333"/>
        <path id="パス_1907" data-name="パス 1907" d="M-6127.651-767.407a2,2,0,0,1-1.869,2.09c-1.21,0-1.6-1.265-1.98-2.474a19.678,19.678,0,0,0-3.19-5.555c-.275-.385-.385-.55-.385-.715,0-.33.331-.5.715-.5C-6133.04-774.556-6127.651-771.806-6127.651-767.407Zm16.993-11.329a3.454,3.454,0,0,1-.11-.494.375.375,0,0,1,.385-.386,12.28,12.28,0,0,1,2.475,1.375c.88.441,3.08,1.76,3.08,3.355,0,.44-.221.495-1.155,1.045-.44.275-2.365,4.014-2.805,4.729-8.414,13.968-21.942,19.412-22.382,19.412a.355.355,0,0,1-.33-.33c0-.274,2.585-1.924,3.08-2.309,11.713-8.964,18.147-19.3,18.147-24.032A5.573,5.573,0,0,0-6110.658-778.736Zm-8.579,5.335c0,1.595-.879,2.8-1.869,2.8-1.21,0-1.485-1.375-1.65-2.311a17.268,17.268,0,0,0-2.035-5.223,6.248,6.248,0,0,1-.6-1.21c0-.165.275-.33.55-.276C-6122.261-779.23-6119.237-776.481-6119.237-773.4Z" fill="#333"/>
        <path id="パス_1908" data-name="パス 1908" d="M-6051.681-752.559c0,1.045-.385,2.09-1.21,2.09-2.419,0-3.3-4.784-3.739-7.094-.275-1.375-1.485-7.369-1.705-8.634-.22-.99-.5-1.7-1.485-1.7-.22,0-6.764,1.54-9.459,2.42a29.187,29.187,0,0,1-3.354,1.43c-.825,0-6.324-2.42-6.324-4.07,0-.44.384-.549.659-.549.495,0,2.8.219,3.3.219,4.179,0,7.479-.66,13.363-1.87,1.43-.274,1.815-.495,1.815-1.429a33.057,33.057,0,0,0-1.21-5.5c-.33-1.375-.6-1.925-1.43-1.925-1.264,0-7.479,2.09-7.589,2.09-1.319,0-5-1.98-5-2.97,0-.385.6-.385,1.1-.385a51.035,51.035,0,0,0,8.469-.935c1.925-.44,2.8-.77,2.8-1.815,0-.22-.715-5.444-3.135-7.534a22.682,22.682,0,0,1-2.53-1.98c0-.33,1.65-.934,2.86-.934,1.1,0,4.949,1.21,5.114,2.309.11.77.22,3.959.33,4.62.5,3.574,1.1,3.574,1.87,3.574a33.423,33.423,0,0,0,4.784-1.485c2.365-1.045,2.64-1.155,3.41-1.155,1.759,0,3.3,1.155,3.3,2.035,0,1.1-1.1,1.32-5.114,2.09a45.241,45.241,0,0,0-5.555,1.21,1.217,1.217,0,0,0-1.044,1.375,35.806,35.806,0,0,0,.99,4.949c.5,1.869.715,2.365,1.7,2.365a36.954,36.954,0,0,0,7.039-2.09,11.241,11.241,0,0,1,5.445-1.375c2.914,0,4.124,1.485,4.124,2.42,0,1.649-2.255,1.705-4.234,1.705a58.136,58.136,0,0,0-9.9,1.594c-2.31.5-2.419.826-2.419,1.87C-6055.64-766.2-6051.681-754.979-6051.681-752.559Z" fill="#333"/>
        <path id="パス_1909" data-name="パス 1909" d="M-6009.136-790.284c1.32,0,4.344,1.925,4.344,2.86,0,.275-.109,1.54-.109,1.814,0,6.38.109,11.329.165,12.649.055.66.33,3.41.33,3.96,0,1.429-1.266,2.8-2.09,2.8-1.21,0-2.475-2.915-2.475-4.344,0-.441.275-2.31.275-2.75.11-2.475.11-4.62.11-5.61,0-6.159-.275-7.424-1.98-9.4-.44-.495-.715-.825-.715-1.265C-6011.281-789.954-6010.4-790.284-6009.136-790.284Zm15.124-1.54c-.661-.88-.716-.99-.716-1.1,0-.165,0-.33,1.6-.33,3.3,0,6.049,1.375,6.049,2.8a21.421,21.421,0,0,1-.55,2.2c-.219,1.485-.275,9.734-.44,11.659-.33,3.9-1.375,15.673-13.748,25.516-1.6,1.265-4.344,3.244-4.949,3.244-.22,0-.33-.11-.33-.275,0-.22,3.574-3.739,4.234-4.454,10.614-11.328,11-20.9,11-31.9C-5991.868-788.745-5992.858-790.174-5994.012-791.824Z" fill="#333"/>
        <path id="パス_1910" data-name="パス 1910" d="M-5923.08-776.261a48.472,48.472,0,0,0,13.308,4.345c.22,0,1.155.165,1.155.384,0,.165-.77.385-.99.441a9.519,9.519,0,0,0-4.179,2.969c-.165.22-.77,1.375-1.045,1.375-.33,0-12.264-5.774-17.653-14.573-1.045-1.76-1.209-1.925-1.6-1.925s-.5.11-1.7,1.375a65.4,65.4,0,0,1-16.278,12.813c-1.87.99-7.589,3.519-8.634,3.519-.165,0-.276-.109-.276-.165s5.885-3.684,6.38-4.013c7.424-4.675,15.288-13.089,16.058-17.213.055-.441.11-.606.5-.606.275,0,4.73,1.7,5,1.87.165.055.715.276.715.826a3.445,3.445,0,0,1-.22.769C-5932.429-783.245-5927.7-778.625-5923.08-776.261Zm-26.507-13.693c-4.069,0-5.939.11-6.983.165-.165,0-.99.11-1.155.11s-.276-.11-.5-.33l-1.044-1.265c-.22-.274-.22-.274-.22-.385s.055-.11.165-.11c.385,0,2.09.165,2.42.165,2.694.11,5,.221,7.589.221h1.594c1.155,0,1.485-.551,1.485-1.486a8.944,8.944,0,0,0-.44-2.915,8.271,8.271,0,0,1-.33-1.1c0-.275.275-.385.6-.385.385,0,2.86.6,3.465.77,1.649.44,1.979.55,1.979,1.044,0,.331-.055.441-.824,1.43a1.348,1.348,0,0,0-.386.99c0,1.321.441,1.651,1.925,1.651h9.074c.5,0,1.65,0,1.65-1.486a22.812,22.812,0,0,0-.165-2.474c-.055-.276-.331-1.43-.331-1.65,0-.275.331-.385.606-.385.385,0,4.124.88,4.729,1.045s.935.385.935.879c0,.331-.22.551-.825.991a1.761,1.761,0,0,0-.715,1.54c0,1.54.88,1.54,1.76,1.54h2.8c2.42,0,2.7,0,3.52-.936,1.54-1.814,1.7-2.034,2.2-2.034.33,0,5.114,2.914,5.114,3.629,0,.77-1.1.77-2.915.77h-10.723c-1.7,0-1.7.88-1.7,2.2,0,.33.054,2.2.054,2.474,0,2.035-1.649,2.365-2.8,2.365-1.265,0-1.485-.22-1.485-2.089V-788.8c-.165-1.045-.825-1.155-1.705-1.155h-8.8c-1.264,0-2.035,0-2.035,1.539,0,.551.165,2.97.165,3.465,0,1.045-.165,1.54-.659,1.87a3.908,3.908,0,0,1-2.09.77c-.935,0-1.375-.6-1.375-1.705,0-.44.055-2.529.055-2.914,0-2.145,0-3.025-1.705-3.025Zm3.9,28.1a28.073,28.073,0,0,1,4.234,2.585,1.358,1.358,0,0,1,.44.825c0,.659-.44.77-1.759,1.1-.165.054-4.9,3.739-5.775,4.4-4.949,3.52-8.084,4.784-8.358,4.784a.175.175,0,0,1-.165-.165c0-.109,2.914-2.639,3.3-3.024,4.564-4.345,7.369-8.689,7.864-10.448A.325.325,0,0,1-5945.682-761.853Zm2.53-2.914c-4.29,0-5.885.055-6.985.165-.165,0-.99.109-1.154.109s-.275-.109-.5-.33l-1.045-1.264c-.22-.275-.22-.275-.22-.385,0-.055.055-.11.164-.11.386,0,2.09.165,2.42.165,2.7.165,5,.22,7.589.22h4.125c.55,0,1.65,0,1.65-1.485,0-.66-.33-5.114-.44-5.664,0-.11-.33-.66-.33-.77s.11-.33.55-.33c.385,0,4.234.824,4.784.99.77.165,1.045.66,1.045.935,0,.33-.11.44-.935,1.154-.77.661-.77.991-.77,2.64,0,1.98,0,2.53,1.65,2.53h2.419c2.42,0,2.7,0,3.52-.935,1.54-1.815,1.705-2.034,2.2-2.034.33,0,5.114,2.969,5.114,3.628,0,.771-1.1.771-2.915.771H-5931.6c-1.65,0-1.65.989-1.65,2.749,0,3.905,0,6.1.111,9.35.054.934.054,2.253.054,2.914,0,1.759-.44,2.8-2.8,2.8-1.21,0-1.32-.99-1.32-1.924,0-.715.164-4.015.164-4.73.056-2.09.056-4.124.056-6.654a33.385,33.385,0,0,0-.11-3.74c-.275-.769-1.155-.769-1.6-.769Zm14.682,4.619c0-.165.276-.22.5-.22,2.035,0,14.573,3.464,14.573,8.029,0,1.759-.99,3.134-2.365,3.134-1.045,0-1.265-.274-2.97-2.8-2.584-3.905-6.379-6.159-9.458-7.919C-5928.25-759.928-5928.47-760.093-5928.47-760.148Z" fill="#333"/>
      </g>
    </g>
    <g id="グループ_446" data-name="グループ 446">
      <g id="グループ_445" data-name="グループ 445">
        <path id="パス_1911" data-name="パス 1911" d="M-6202.282-709.09c-.54,0-1.2-.18-1.2-.96,0-.96.991-.96,1.2-.96h4.53c1.2,0,1.2.81,1.2.96,0,.96-.87.96-1.2.96Z" fill="#333"/>
        <path id="パス_1912" data-name="パス 1912" d="M-6169.268-703.42c1.41,0,1.65-.06,1.86-.27.27-.27,1.35-1.83,1.709-1.83s3,2.13,3,2.52-.569.39-1.56.39h-20.669c-.689,0-2.73,0-3.81.06a4.526,4.526,0,0,1-.629.09c-.09,0-.15-.09-.27-.21l-.57-.69c-.12-.12-.12-.15-.12-.18a.08.08,0,0,1,.09-.09c.21,0,1.14.09,1.35.12,1.35.06,2.7.09,4.109.09Zm-2.64-21.99c1.41,0,1.59,0,1.86-.269.27-.24,1.35-1.74,1.71-1.74s2.97,2.04,2.97,2.429-.57.391-1.53.391h-15.449c-.661,0-2.73,0-3.781.059a4.383,4.383,0,0,1-.63.09c-.12,0-.179-.09-.27-.21l-.569-.689c-.121-.12-.15-.15-.15-.21s.089-.061.12-.061c.21,0,1.139.09,1.32.121,1.379.06,2.73.089,4.109.089Zm-1.65,10.8c1.32,0,1.44,0,1.71-.24.24-.239,1.23-1.59,1.56-1.59.24,0,2.88,1.71,2.88,2.25,0,.36-.15.36-1.5.36h-11.25c-.69,0-2.729,0-3.78.09-.119,0-.539.06-.63.06-.12,0-.179-.06-.27-.18l-.6-.689c-.091-.12-.12-.151-.12-.21,0-.031.029-.061.12-.061.21,0,1.139.09,1.32.09,1.379.061,2.7.12,4.109.12Z" fill="#333"/>
        <path id="パス_1913" data-name="パス 1913" d="M-6148.411-705.13c0,2.82-1.38,4.38-2.79,4.38-.93,0-1.2-.84-1.2-1.44,0-.96.45-1.141,1.89-1.71a3.2,3.2,0,0,0,1.71-1.83c0-.03.12-.24.21-.24S-6148.411-705.73-6148.411-705.13Zm1.47-18.809c-.69,0-2.73,0-3.81.06a4.542,4.542,0,0,1-.63.089c-.09,0-.18-.089-.27-.209l-.57-.69c-.06-.091-.12-.15-.12-.181a.079.079,0,0,1,.09-.089c.18,0,.93.089,1.11.089.51.031,2.73.121,3.9.121a.761.761,0,0,0,.689-.781c0-.359-.029-.749-.059-1.05-.03-.179-.24-.9-.24-1.049,0-.36.42-.42.6-.42s2.579.48,2.579.99c0,.18-.09.3-.449.51-.33.21-.42.36-.42,1.2a.627.627,0,0,0,.69.6h.54a5.215,5.215,0,0,0,1.469-.09c.241-.12,1.05-1.29,1.32-1.29a3.453,3.453,0,0,1,1.77,1.74c0,.45-.57.45-1.619.45Zm3.72,7.98a1.847,1.847,0,0,0,.81-.151c.12-.059.569-.45.719-.45.12,0,1.89,1.23,1.89,1.65a.256.256,0,0,1-.21.27,8.181,8.181,0,0,1-.81.24c-.029.03-2.369,1.38-2.549,1.47-.69.39-.96.54-.96.84,0,.15.15.33.449.33.691,0,5.04-.9,5.04-.75,0,.42-4.17,1.65-4.889,1.86-.6.151-.6.57-.6,1.441,0,1.559-.09,1.949-.36,2.339a3.1,3.1,0,0,1-1.861,1.2.5.5,0,0,1-.3-.09c-.21-.18-.96-1.29-1.17-1.47-.12-.12-.9-.54-.9-.72,0-.06.18-.06.3-.06.21,0,1.26.03,1.47.03.93,0,.93-.15.93-1.62,0-.21-.24-.39-.51-.39-.09,0-2.91.51-3.15.6a3.323,3.323,0,0,1-.78.45c-.39,0-1.2-2.43-1.2-2.49,0-.09.03-.12.15-.12.18,0,.57.06.66.06a30.946,30.946,0,0,0,3.18.09c1.29,0,1.62-.18,1.62-.99,0-.18-.24-1.05-.24-1.26,0-.149.15-.18.3-.18.27,0,1.559.39,1.86.39.6,0,1.469-1.319,1.469-1.38,0-.33-.329-.33-.42-.33h-2.7c-.84,0-2.34,0-3.54.061-.09,0-.81.09-.87.09-.12,0-.18-.09-.27-.21l-.57-.691c-.12-.12-.12-.149-.12-.21s.06-.059.09-.059c.18,0,1.11.089,1.32.12.87.029,2.429.09,4.11.09Zm-.69-5.88a1.471,1.471,0,0,0,1.049-.33c.361-.361.48-.48.661-.48.27,0,1.62.69,1.62,1.23,0,.15-.48.719-.511.87v2.069c0,.66-.75.96-1.23.96-.419,0-.449-.09-.69-.449a.681.681,0,0,0-.66-.3h-4.139a.853.853,0,0,0-.84.42c-.24.511-.39.9-1.08.9a.8.8,0,0,1-.84-.6v-2.16c0-.42-.24-2.371-.24-2.52,0-.27.15-.391.45-.391a10.339,10.339,0,0,1,1.5.6,3.467,3.467,0,0,0,1.2.18Zm-4.05.809c-.75,0-.75.481-.75.99s0,.991.75.991h4.26c.72,0,.72-.481.72-.991s0-.99-.72-.99Zm3.96,15a3.361,3.361,0,0,1,2.34,2.88c0,.96-.42,1.98-1.44,1.98-.63,0-.81-.39-.81-.991a17.157,17.157,0,0,0-.121-2.969c-.029-.15-.239-.75-.179-.81C-6144.181-706.03-6144.061-706.03-6144-706.03Zm11.219-15.149a.823.823,0,0,0-.78.42c-.03.09-.27,2.189-.33,2.58-.03.239-.27,1.349-.27,1.59a1.086,1.086,0,0,0,.33.84,4,4,0,0,1,1.62,2.58c0,.479-.18,1.019-.63,1.019-.51,0-1.17-.96-1.53-1.53a.3.3,0,0,0-.3-.21c-.24,0-.36.24-.45.45a11.824,11.824,0,0,1-6.809,6.3c-.031,0-.09,0-.09-.06s.09-.15.179-.21a12.148,12.148,0,0,0,2.58-2.4,12.542,12.542,0,0,0,2.91-5.58,1,1,0,0,0-.119-.449,15.917,15.917,0,0,0-1.951-1.83c-.48-.361-.69-.51-.69-.571,0-.03.03-.03.121-.03a4.759,4.759,0,0,1,1.529.42c.9.48.991.54,1.11.54a.6.6,0,0,0,.54-.42c.03-.42.33-2.4.33-2.85a.621.621,0,0,0-.6-.6c-.33,0-2.19.149-2.46.149-.09,0-.15-.059-.27-.179l-.57-.691c-.12-.149-.12-.149-.12-.21s.06-.059.091-.059c.48,0,2.759.179,3.3.179a.779.779,0,0,0,.75-.75,29.617,29.617,0,0,0-.21-4.109,7.32,7.32,0,0,1-.27-.87c0-.21.12-.27.33-.27.3,0,2.55.57,2.67.6.21.09.48.24.48.51,0,.12-.06.21-.21.33-.06.06-.45.36-.54.42-.3.27-.39,3-.39,3.48a.658.658,0,0,0,.69.69h1.68a1.3,1.3,0,0,0,1.02-.361c.51-.569.57-.63.75-.63.33,0,1.77,1.17,1.77,1.651,0,.149-.09.24-.27.359a4.393,4.393,0,0,1-.51.3c-.48.359-.6,4.769-.6,5.4,0,1.77.36,4.62,1.02,4.62.48,0,1.38-3.06,1.62-4.259.03-.181.12-.271.18-.271.09,0,.09.151.09.21,0,.09-.42,3.3-.42,3.93,0,1.35.09,1.5.45,2.011a1.663,1.663,0,0,1,.3.809c0,.39-.3.75-1.05.75a3.486,3.486,0,0,1-2.46-1.44c-1.47-1.829-1.68-5.01-1.68-6.81,0-.9.12-2.819.24-3.779.03-.151.15-.931.15-1.111,0-.269-.15-.6-.78-.6Zm-1.53,18.629a1.457,1.457,0,0,1-1.32,1.5c-.69,0-.81-.51-1.05-1.98a5.8,5.8,0,0,0-.809-2.46c-.031-.03-.121-.18-.091-.24C-6137.4-706.03-6134.312-704.8-6134.312-702.55Zm8.04-.06a1.407,1.407,0,0,1-1.32,1.529c-.69,0-.75-.239-1.74-2.429a18.892,18.892,0,0,0-1.44-2.31.325.325,0,0,1-.06-.24C-6130.742-706.21-6126.272-705.16-6126.272-702.61Z" fill="#333"/>
        <path id="パス_1914" data-name="パス 1914" d="M-6107.416-702.43c-.33,0-.75,0-.87.51a1.51,1.51,0,0,1-1.71,1.29c-.78,0-.78-.42-.78-.66,0-.3.12-2.19.15-2.61.09-1.41.09-5.309.09-6.84,0-1.11,0-1.23-.27-1.23a7.28,7.28,0,0,0-.84.42c-2.97,1.62-4.26,1.83-4.38,1.83-.15,0-.21-.09-.21-.18,0-.15.12-.21,1.02-.69a31.152,31.152,0,0,0,8.34-7.2,6.831,6.831,0,0,0,.78-1.32c0-.239-.21-.269-.75-.269h-3.45c-.69,0-2.73.03-3.78.089-.12,0-.57.06-.66.06s-.15-.06-.24-.18l-.6-.689c-.12-.12-.12-.15-.12-.21,0-.03.03-.061.09-.061.21,0,1.14.09,1.35.121,1.35.059,2.7.089,4.11.089h.69c.36,0,.569,0,.569-.24,0-.09-.839-3.239-1.649-3.749-.3-.21-.51-.21-1.26-.27-1.23-.09-1.35-.09-1.35-.3s.09-.21,1.02-.33a105.468,105.468,0,0,0,15.059-2.58c.27-.06,1.5-.57,1.77-.57.6,0,2.55,2.01,2.55,2.31,0,.12-.12.269-.39.269-.12,0-.66-.089-.78-.089-.18,0-1.38.06-1.38.3,0,.12.72.63.81.691.66.42.75.51.75.809,0,.21-.03.21-.81.54a21.217,21.217,0,0,0-3.57,3.061c0,.149.09.149.48.149h2.64c1.02,0,1.17,0,1.74-.719.6-.72,1.08-1.321,1.29-1.321.27,0,3.06,2.1,3.06,2.491,0,.33-.9.33-1.77.33h-9.3c-.24,0-.36.03-.36.179s3.39,5.43,11.13,6.571c1.11.179,1.29.21,1.29.329,0,.21-.36.27-.6.33a3.383,3.383,0,0,0-2.1,1.56c-.15.3-.27.6-.51.6a2.643,2.643,0,0,1-1.41-.75c-.3-.24-.36-.27-.45-.27-.24,0-.54.3-.63.42-.54.54-.54,1.02-.54,2.1,0,.99.15,5.25.15,6.12,0,.51-.06.69-.33.87a2.787,2.787,0,0,1-1.41.51c-.57,0-.6-.21-.72-1.05-.06-.45-.51-.57-.87-.57Zm9.509-9.18a1.773,1.773,0,0,0,1.29-.36c.18-.15.72-.63.72-.869,0-.12-.03-.151-.42-.481a18.281,18.281,0,0,1-4.32-4.83,7.834,7.834,0,0,0-.54-.87c-.12,0-.12.061-.12.36-.029.72.03,4.111.03,4.89a1.408,1.408,0,0,1-.39,1.141,1.876,1.876,0,0,1-1.109.509c-.781,0-.781-.57-.781-.87,0-.69.241-4.11.241-4.889,0-.391,0-.571-.21-.571-.121,0-.661.6-.721.691a26.333,26.333,0,0,1-4.289,4.2c-.691.511-.78.57-.78.69s.089.18.75.69a2.032,2.032,0,0,0,1.649.57Zm-6.18-8.55c.48,0,.75-.179.81-.6.031-.12.031-.45.031-3.39,0-.33-.091-.6-.48-.6-.21,0-3.931.3-4.681.33-.629.03-.689.03-.689.15,0,.029.57.42.75.569a2.989,2.989,0,0,1,1.439,2.431c0,.119-.089.689-.089.81,0,.3.15.3.719.3Zm-3.449,9.33c-.9,0-.9.54-.9,1.32,0,1.68,0,2.01.9,2.01h3.21c.869,0,.869-.54.869-1.32,0-1.59,0-2.01-.9-2.01Zm0,4.11c-.871,0-.871.42-.871,1.8,0,1.32,0,1.71.9,1.71h3.15c.87,0,.9-.36.9-2.13,0-.84,0-1.38-.869-1.38Zm7.019-4.11c-.87,0-.87.42-.87,2.13,0,.66,0,1.2.87,1.2h3.36c.87,0,.87-.57.87-1.17,0-1.8-.06-2.16-.9-2.16Zm3.3,7.62c.87,0,.93-.3.93-2.1,0-.96,0-1.41-.93-1.41h-3.24c-.9,0-.9.48-.9,1.17,0,2.1,0,2.34.93,2.34Zm-2.67-16.95a1.209,1.209,0,0,0,1.2-.689c.63-1.021,1.89-3.21,1.89-4.2,0-.18-.06-.3-.27-.3-.15,0-1.35.12-2.58.24-1.409.119-1.56.15-1.65.39-.029.12-.029,2.37-.029,3.569,0,.54.029.99.9.99Z" fill="#333"/>
        <path id="パス_1915" data-name="パス 1915" d="M-6058.271-716.56a26.448,26.448,0,0,0,7.26,2.37c.12,0,.63.09.63.21,0,.09-.42.21-.54.24a5.2,5.2,0,0,0-2.28,1.62c-.09.121-.42.75-.57.75-.18,0-6.69-3.15-9.63-7.95-.57-.96-.659-1.05-.87-1.05s-.27.061-.929.75a35.719,35.719,0,0,1-8.88,6.991,26.041,26.041,0,0,1-4.71,1.92c-.09,0-.15-.061-.15-.091s3.21-2.01,3.48-2.19c4.05-2.55,8.34-7.139,8.76-9.389.029-.241.06-.33.27-.33.149,0,2.58.929,2.73,1.019.089.03.389.15.389.45a1.846,1.846,0,0,1-.119.42C-6063.37-720.37-6060.791-717.85-6058.271-716.56Zm-14.459-7.47c-2.22,0-3.24.061-3.81.091-.09,0-.54.06-.63.06s-.15-.06-.27-.18l-.57-.69c-.12-.15-.12-.15-.12-.21s.03-.06.09-.06c.21,0,1.14.09,1.32.09,1.47.059,2.73.12,4.14.12h.87c.63,0,.81-.3.81-.811a4.865,4.865,0,0,0-.24-1.589,4.588,4.588,0,0,1-.18-.6c0-.15.15-.21.329-.21.211,0,1.561.33,1.891.42.9.24,1.08.3,1.08.57,0,.18-.031.239-.451.78a.737.737,0,0,0-.209.54c0,.719.24.9,1.049.9h4.951c.27,0,.9,0,.9-.811a12.381,12.381,0,0,0-.09-1.349c-.03-.151-.18-.78-.18-.9,0-.149.18-.21.33-.21.21,0,2.25.481,2.58.571s.51.21.51.48c0,.18-.12.3-.45.54a.959.959,0,0,0-.39.84c0,.84.48.84.96.84h1.53c1.32,0,1.47,0,1.92-.51.84-.99.93-1.11,1.2-1.11.18,0,2.79,1.59,2.79,1.979,0,.42-.6.42-1.59.42h-5.85c-.93,0-.93.481-.93,1.2,0,.181.03,1.2.03,1.351,0,1.109-.9,1.289-1.53,1.289-.69,0-.81-.119-.81-1.14V-723.4c-.09-.57-.449-.631-.929-.631h-4.8c-.69,0-1.111,0-1.111.841,0,.3.091,1.619.091,1.89,0,.57-.091.84-.36,1.019a2.131,2.131,0,0,1-1.14.42c-.511,0-.75-.33-.75-.93,0-.24.029-1.379.029-1.589,0-1.17,0-1.651-.929-1.651Zm2.13,15.33a15.351,15.351,0,0,1,2.31,1.41.742.742,0,0,1,.239.45c0,.36-.239.42-.96.6-.089.03-2.669,2.04-3.149,2.4a18.419,18.419,0,0,1-4.56,2.61.1.1,0,0,1-.09-.09c0-.06,1.59-1.44,1.8-1.65a17.288,17.288,0,0,0,4.289-5.7A.185.185,0,0,1-6070.6-708.7Zm1.379-1.59c-2.339,0-3.209.03-3.809.09-.09,0-.54.06-.63.06s-.15-.06-.27-.18l-.57-.69c-.12-.15-.12-.15-.12-.21,0-.029.03-.06.09-.06.21,0,1.14.09,1.32.09,1.47.09,2.73.12,4.139.12h2.25c.3,0,.9,0,.9-.809,0-.361-.179-2.79-.239-3.09,0-.061-.181-.361-.181-.421s.06-.18.3-.18c.21,0,2.309.45,2.61.54.419.09.569.361.569.51,0,.181-.06.24-.509.63-.421.36-.421.54-.421,1.44,0,1.08,0,1.38.9,1.38h1.319c1.32,0,1.47,0,1.92-.51.84-.99.93-1.11,1.2-1.11.18,0,2.79,1.62,2.79,1.981,0,.419-.6.419-1.59.419h-5.67c-.9,0-.9.541-.9,1.5,0,2.13,0,3.33.06,5.1.03.51.03,1.23.03,1.59,0,.96-.24,1.529-1.53,1.529-.66,0-.719-.539-.719-1.05,0-.389.09-2.189.09-2.579.029-1.14.029-2.25.029-3.63a18.159,18.159,0,0,0-.06-2.04c-.15-.42-.63-.42-.869-.42Zm8.01,2.52c0-.09.15-.12.27-.12,1.11,0,7.95,1.89,7.95,4.38,0,.96-.54,1.71-1.29,1.71-.57,0-.69-.151-1.62-1.531a14.26,14.26,0,0,0-5.16-4.319C-6061.091-707.65-6061.211-707.74-6061.211-707.77Z" fill="#333"/>
        <path id="パス_1916" data-name="パス 1916" d="M-6040.108-721.509a7.088,7.088,0,0,0,2.49.63c1.23,0,10.02-.84,11.31-1.411.929-.419,1.049-.479,1.259-.479.661,0,1.14.42,2.07,1.229,1.35,1.2,1.53,1.531,1.53,1.951,0,.389-.15.54-.69,1.08a4.954,4.954,0,0,0-1.17,1.889c-4.709,9.78-15.179,13.98-15.48,13.98a.2.2,0,0,1-.21-.18c0-.12.091-.18.391-.39,5.22-3.66,9.449-7.62,11.849-11.879a16.951,16.951,0,0,0,2.04-5.071c0-.509-.51-.54-.66-.54-.3,0-8.969,1.441-10.8,2.16a10.814,10.814,0,0,1-1.5.661c-.689,0-3.089-1.5-3.089-3.151,0-.569.089-.66.27-.66C-6040.438-721.69-6040.169-721.509-6040.108-721.509Zm21.989-.12c0,.42-.391,1.139-.931,1.139-.479,0-.719-.3-1.529-1.439a8.914,8.914,0,0,0-1.95-1.95c-.12-.09-.42-.361-.42-.48s.27-.21.54-.21C-6020.279-724.569-6018.119-723.009-6018.119-721.629Zm2.279-2.281c0,.33-.239.9-.779.9-.66,0-1.02-.54-1.53-1.231a7.474,7.474,0,0,0-2.49-1.829c-.3-.15-.39-.27-.39-.36,0-.3.9-.3,1.14-.3C-6018.629-726.729-6015.84-725.83-6015.84-723.91Z" fill="#333"/>
        <path id="パス_1917" data-name="パス 1917" d="M-6001.007-717.94a30.108,30.108,0,0,0-.24,5.64c0,.87,0,1.591.99,1.591,1.289,0,8.969-3.241,14.249-7.831.42-.36.48-.419.69-.419a.236.236,0,0,1,.24.24c0,.3-4.439,5.159-11.789,9-3.48,1.8-3.72,1.98-4.35,2.76-.15.21-.211.24-.33.24-.24,0-2.04-1.47-2.04-2.279,0-.151.24-1.351.27-1.411a22.9,22.9,0,0,0,.15-3.87c0-3.96,0-4.769-.78-6.179a5.79,5.79,0,0,1-.66-1.17c0-.12.18-.151.3-.151.329,0,3.779.6,3.779,1.83C-6000.527-719.709-6000.947-718.27-6001.007-717.94Z" fill="#333"/>
        <path id="パス_1918" data-name="パス 1918" d="M-5965.472-708.4a20.9,20.9,0,0,0-2.94,2.46c-.57.69-.63.75-1.08.75-1.62,0-3.84-1.92-3.84-3.12,0-.21.029-1.59.3-1.59a7.388,7.388,0,0,1,.9.57,4.973,4.973,0,0,0,2.04.69c1.471,0,9.42-5.31,14.4-10.23.48-.479,1.32-1.32,1.38-1.32a.194.194,0,0,1,.15.15C-5954.163-719.77-5957.673-714.16-5965.472-708.4Zm-2.46-9.87c-.81,0-1.11-.479-2.1-1.979a6.753,6.753,0,0,0-2.73-2.46c-.12-.06-.27-.151-.27-.27s.24-.27.66-.27c3.21,0,5.73,1.709,5.73,3.479A1.325,1.325,0,0,1-5967.932-718.27Z" fill="#333"/>
        <path id="パス_1919" data-name="パス 1919" d="M-5938.619-725.559c1.08,0,3.24.96,3.24,1.92,0,.21-.3,1.08-.33,1.26a38.436,38.436,0,0,0-.3,4.2c0,.63.15.75.99.93,1.92.45,6.509,2.639,6.509,4.859a1.049,1.049,0,0,1-1.109,1.05c-.721,0-.75-.06-2.82-2.73-.84-1.08-2.25-2.519-3.18-2.519-.33,0-.42,0-.42,2.219,0,3.18.03,4.77.15,7.47.03.33.06,1.08.06,1.53,0,.72,0,2.73-.87,2.73-.93,0-1.68-2.04-1.68-2.82,0-.121.12-.75.12-.871a40.246,40.246,0,0,0,.27-6.959c0-8.879,0-9.54-.359-10.5a3.34,3.34,0,0,0-1.051-1.379.228.228,0,0,1-.06-.121C-5939.4-725.53-5938.649-725.559-5938.619-725.559Zm12.63,5.13c0,.389-.33,1.139-.931,1.139-.449,0-.719-.3-1.5-1.439a8.393,8.393,0,0,0-1.949-1.95c-.12-.09-.42-.361-.42-.481,0-.149.27-.21.54-.21C-5928.119-723.37-5925.989-721.78-5925.989-720.429Zm2.43-3.42c0,.33-.241.9-.781.9-.66,0-1.019-.479-1.559-1.17a7.579,7.579,0,0,0-2.58-1.71c-.3-.12-.39-.269-.39-.33,0-.179.359-.359,1.14-.359C-5925.569-726.519-5923.559-725.319-5923.559-723.849Z" fill="#333"/>
        <path id="パス_1920" data-name="パス 1920" d="M-5914.351-709.09c-.54,0-1.2-.18-1.2-.96,0-.96.991-.96,1.2-.96h4.529c1.2,0,1.2.81,1.2.96,0,.96-.87.96-1.2.96Z" fill="#333"/>
      </g>
    </g>
    <g id="グループ_448" data-name="グループ 448">
      <g id="グループ_447" data-name="グループ 447">
        <path id="パス_1921" data-name="パス 1921" d="M-6142.306-662.264h-2.622l-5.1-7.335h-.9v7.335h-2.162V-679.6h2.621a9.159,9.159,0,0,1,4.577.8,4.8,4.8,0,0,1,2.276,4.138,4.72,4.72,0,0,1-4.162,4.853Zm-8.623-9.129h.689c2.208,0,4.6-.414,4.6-3.174,0-2.713-2.576-3.1-4.714-3.1h-.575Z" fill="#333"/>
        <path id="パス_1922" data-name="パス 1922" d="M-6133.06-679.6h9.313v1.978h-7.152v4.851h6.945v1.978h-6.945v6.553h7.152v1.978h-9.313Z" fill="#333"/>
        <path id="パス_1923" data-name="パス 1923" d="M-6111.526-677.624v4.875h6.025v1.977h-6.025v8.508h-2.161V-679.6h8.393v1.978Z" fill="#333"/>
        <path id="パス_1924" data-name="パス 1924" d="M-6084.857-662.264h-2.622l-5.1-7.335h-.9v7.335h-2.162V-679.6h2.621a9.156,9.156,0,0,1,4.576.8,4.8,4.8,0,0,1,2.277,4.138,4.721,4.721,0,0,1-4.162,4.853Zm-8.623-9.129h.689c2.208,0,4.6-.414,4.6-3.174,0-2.713-2.575-3.1-4.714-3.1h-.574Z" fill="#333"/>
        <path id="パス_1925" data-name="パス 1925" d="M-6075.611-679.6h9.313v1.978h-7.152v4.851h6.945v1.978h-6.945v6.553h7.152v1.978h-9.313Z" fill="#333"/>
        <path id="パス_1926" data-name="パス 1926" d="M-6048.782-676.314a2.968,2.968,0,0,0-2.782-1.633,2.733,2.733,0,0,0-2.9,2.461c0,1.357,1.333,2.07,2.414,2.484l1.242.482c2.46.966,4.3,2.322,4.3,5.22a5.345,5.345,0,0,1-5.542,5.4,5.4,5.4,0,0,1-5.358-4.852l2.185-.46a3.247,3.247,0,0,0,3.357,3.289,3.262,3.262,0,0,0,3.2-3.381c0-1.863-1.5-2.667-2.99-3.288l-1.2-.506c-1.978-.851-3.772-1.978-3.772-4.392,0-2.8,2.484-4.484,5.1-4.484a4.944,4.944,0,0,1,4.461,2.621Z" fill="#333"/>
        <path id="パス_1927" data-name="パス 1927" d="M-6026.306-672.612v-6.99h2.161v17.338h-2.161v-8.324h-8.256v8.324h-2.161V-679.6h2.161v6.99Z" fill="#333"/>
        <path id="パス_1928" data-name="パス 1928" d="M-6011.148-662.264h-2.161V-679.6h2.161Z" fill="#333"/>
        <path id="パス_1929" data-name="パス 1929" d="M-6000.361-680.43l13.015,13.636V-679.6h2.162v18.051l-13.015-13.636v12.923h-2.162Z" fill="#333"/>
        <path id="パス_1930" data-name="パス 1930" d="M-5958.388-671v.69a8.053,8.053,0,0,1-8.209,8.416,8.973,8.973,0,0,1-8.762-8.991,9.039,9.039,0,0,1,8.991-9.083,9.091,9.091,0,0,1,7.06,3.357l-1.518,1.448a6.927,6.927,0,0,0-5.449-2.828,6.939,6.939,0,0,0-6.922,7.037c0,3.633,2.989,7.083,6.737,7.083,2.691,0,5.588-2.324,5.68-5.152h-4.483V-671Z" fill="#333"/>
      </g>
    </g>
    <g id="グループ_450" data-name="グループ 450">
      <g id="グループ_449" data-name="グループ 449">
        <path id="パス_1931" data-name="パス 1931" d="M-6153.686-629.473a3.643,3.643,0,0,0-1.784-.287,7.125,7.125,0,0,0-1.824.41,6.1,6.1,0,0,1,4.181,1.127,4.113,4.113,0,0,1,1.394,3.834,12.434,12.434,0,0,1-1.25,4.387,33.809,33.809,0,0,1-2.316,4.017q-1.066,1.6-2.419,3.26a22.337,22.337,0,0,1-2.994,3.034,19.123,19.123,0,0,1-3.5,2.337,10.251,10.251,0,0,1-3.915,1.128,7.293,7.293,0,0,1-1.948-.1,3.033,3.033,0,0,1-1.7-.922,3.249,3.249,0,0,1-.9-1.927,8.221,8.221,0,0,1,.041-2.173,14.857,14.857,0,0,1,1.414-4.285,37.361,37.361,0,0,1,2.276-3.915,31.072,31.072,0,0,1,2.624-3.711,41.522,41.522,0,0,1,3.074-3.341,32.261,32.261,0,0,1,3.342-2.747,9.459,9.459,0,0,1,3.916-1.682,8.686,8.686,0,0,1,1.578-.123,2.188,2.188,0,0,1,1.455.451.674.674,0,0,1,.267.472.776.776,0,0,1-.1.472.751.751,0,0,1-.37.307A.658.658,0,0,1-6153.686-629.473Zm-7.79,2.706a26.162,26.162,0,0,0-3.3,3.218,41.122,41.122,0,0,0-2.808,3.67,29.834,29.834,0,0,0-2.276,3.915,16.749,16.749,0,0,0-1.414,4.285,7.767,7.767,0,0,0-.123.922,4.887,4.887,0,0,0,.02,1.005,3.4,3.4,0,0,0,.246.922,1.658,1.658,0,0,0,.595.717,2.558,2.558,0,0,0,1.578.472,8.355,8.355,0,0,0,1.62-.185,11.314,11.314,0,0,0,4.1-1.721,29.162,29.162,0,0,0,3.486-2.747,26.3,26.3,0,0,0,3.054-3.363,22.1,22.1,0,0,0,2.357-3.853c.247-.492.519-1.087.821-1.783a10.967,10.967,0,0,0,.676-2.154,6.252,6.252,0,0,0,.082-2.132,2.76,2.76,0,0,0-.922-1.721,2.666,2.666,0,0,0-1.846-.718,10.805,10.805,0,0,0-2.049.144.673.673,0,0,1-.657-.206.871.871,0,0,1-.245-.738,16.085,16.085,0,0,0-1.62,1.026Q-6160.9-627.219-6161.476-626.767Z" fill="#333"/>
        <path id="パス_1932" data-name="パス 1932" d="M-6154.892-613.156q.861-.45,1.7-.9t1.825-1.025a1.977,1.977,0,0,1,.471-1.476,1.62,1.62,0,0,1,1.415-.656.831.831,0,0,1,.738.574.992.992,0,0,1-.165.942,2.746,2.746,0,0,1-.86.821,1.383,1.383,0,0,0,.7.164,3.768,3.768,0,0,0,1.8-.308,11.982,11.982,0,0,0,1.681-.841c.491-.164.805-.108.943.164a.98.98,0,0,1-.164.985c-.138.218-.294.5-.472.84a7.8,7.8,0,0,0-.451,1.045,3.617,3.617,0,0,0-.205,1.026.921.921,0,0,0,.308.779q.2.245,1.086,0t2.358-.82q.492-.205,1-.472t1.045-.513a2.062,2.062,0,0,0,.37-.184,2.009,2.009,0,0,1,.471-.2.7.7,0,0,1,.41,0c.123.041.184.184.184.43a.484.484,0,0,1-.184.37,2.231,2.231,0,0,1-.41.287,2.9,2.9,0,0,1-.471.205l-.37.123-1.721.779c-.3.163-.677.368-1.128.614a9.445,9.445,0,0,1-1.373.616,4.061,4.061,0,0,1-1.353.246,1.176,1.176,0,0,1-1.025-.534,1.327,1.327,0,0,1-.246-.635,2.369,2.369,0,0,1,.02-.7,6.365,6.365,0,0,1,.164-.7c.068-.232.13-.457.185-.677l.327-1.352c-.136.027-.417.1-.84.2a8.262,8.262,0,0,1-1.373.226,6.925,6.925,0,0,1-1.415-.021,1.377,1.377,0,0,1-1-.533q-.7.369-1.148.615c-.3.164-.609.342-.923.532s-.568.343-.758.451a2.485,2.485,0,0,0-.574.308.485.485,0,0,1-.574.062.515.515,0,0,1-.246-.452A.425.425,0,0,1-6154.892-613.156Z" fill="#333"/>
        <path id="パス_1933" data-name="パス 1933" d="M-6135.422-615.123q.163-.082.759-.329a6.746,6.746,0,0,1,1.168-.369,2.2,2.2,0,0,1,.984-.02q.41.1.287.759a2.025,2.025,0,0,1-.348.738,2.743,2.743,0,0,0-.39.738,9.422,9.422,0,0,0-.471,1.312,1.381,1.381,0,0,0,.143,1.271,3.869,3.869,0,0,0,1.538-.164q.84-.246,1.537-.492a8.176,8.176,0,0,0,.779-.41q.573-.328,1.21-.636a6.754,6.754,0,0,1,1.168-.451c.355-.095.574-.062.656.1q.163.288-.205.616a3.982,3.982,0,0,1-.922.594q-.554.267-1.128.492c-.383.151-.629.253-.738.308q-.9.452-1.824.881a7.374,7.374,0,0,1-1.907.595,1.118,1.118,0,0,1-1.189-.369,2.208,2.208,0,0,1-.328-1.25,6.627,6.627,0,0,1,.226-1.641q.225-.88.471-1.619-.944.369-1.845.677a16.721,16.721,0,0,0-1.763.716q-.738.33-1.476.739a.623.623,0,0,1-.717-.226c-.178-.231-.1-.431.225-.6Zm4.8-8.283a2.4,2.4,0,0,1,.636-.922,3.815,3.815,0,0,1,.963-.635,6.179,6.179,0,0,1,1.128-.39c.4-.1.772-.17,1.127-.226a14.854,14.854,0,0,1,2.911.123,2.163,2.163,0,0,1,.554.083c.205.055.293.2.266.451a.612.612,0,0,1-.205.348.411.411,0,0,1-.369.1,9.881,9.881,0,0,0-2.48-.185,4.409,4.409,0,0,0-2.317.759,1.335,1.335,0,0,0-.574.655,1.5,1.5,0,0,1-.492.657.648.648,0,0,1-.861,0A.675.675,0,0,1-6130.625-623.406Z" fill="#333"/>
        <path id="パス_1934" data-name="パス 1934" d="M-6127.05-613.115q1.065-.531,2.091-1.024t2.091-.9a14.605,14.605,0,0,1,2.275-.616,13.319,13.319,0,0,1,2.358-.205,1,1,0,0,1,.7.226q.246.227.041.759a.806.806,0,0,1-.738.41,14.06,14.06,0,0,0-2.152,0,6.639,6.639,0,0,0-2.071.492,3.457,3.457,0,0,0-.7.369,4.369,4.369,0,0,0-.677.553,1.73,1.73,0,0,0-.43.677.991.991,0,0,0,.082.779,1.481,1.481,0,0,0,1.251.819,4.216,4.216,0,0,0,1.578-.041,4.217,4.217,0,0,0,.943-.327l.738-.369a2.73,2.73,0,0,1,.595-.226.628.628,0,0,1,.553.185.866.866,0,0,1,.02.942q-.266.534-.43.9l-.574,1.353q1.107-1.148,2.337-2.194a18.648,18.648,0,0,1,2.624-1.865c.082-.055.191-.137.328-.247a3.964,3.964,0,0,1,.451-.307,1.91,1.91,0,0,1,.492-.205.465.465,0,0,1,.41.061c.191.138.259.274.2.41a1.255,1.255,0,0,1-.287.411q-1.067.573-2.05,1.23a19,19,0,0,0-1.927,1.476,24.128,24.128,0,0,0-2.029,1.926,23.745,23.745,0,0,0-1.784,2.132l-1.066,2.46q-.492,1.231-.984,2.5t-1.066,2.5q-.123.246-.307.595a5.509,5.509,0,0,1-.411.656,1.82,1.82,0,0,1-.533.492,1.06,1.06,0,0,1-.676.144.749.749,0,0,1-.635-.451,1.612,1.612,0,0,1-.082-.821,5.391,5.391,0,0,1,.2-.9q.144-.453.267-.738a21.245,21.245,0,0,1,1.948-3.588,37.445,37.445,0,0,1,2.48-3.3l1.394-3.977a10.666,10.666,0,0,1-1.579.307,6.81,6.81,0,0,1-1.578.021,3.52,3.52,0,0,1-1.333-.411,1.98,1.98,0,0,1-.881-1.065,2,2,0,0,1,.041-1.723q-.328.207-.677.431a.706.706,0,0,1-.594.144.442.442,0,0,1-.492-.349A.418.418,0,0,1-6127.05-613.115Z" fill="#333"/>
        <path id="パス_1935" data-name="パス 1935" d="M-6109.166-615.123q.163-.082.758-.329a6.747,6.747,0,0,1,1.169-.369,2.2,2.2,0,0,1,.984-.02q.409.1.287.759a2.035,2.035,0,0,1-.348.738,2.743,2.743,0,0,0-.39.738,9.476,9.476,0,0,0-.472,1.312,1.385,1.385,0,0,0,.144,1.271,3.87,3.87,0,0,0,1.538-.164q.84-.246,1.537-.492a8.3,8.3,0,0,0,.779-.41q.573-.328,1.209-.636a6.765,6.765,0,0,1,1.169-.451c.355-.095.574-.062.656.1q.163.288-.205.616a3.992,3.992,0,0,1-.922.594q-.554.267-1.128.492c-.383.151-.629.253-.738.308q-.9.452-1.824.881a7.377,7.377,0,0,1-1.907.595,1.118,1.118,0,0,1-1.189-.369,2.211,2.211,0,0,1-.328-1.25,6.627,6.627,0,0,1,.226-1.641q.223-.88.471-1.619-.943.369-1.845.677a16.587,16.587,0,0,0-1.763.716q-.738.33-1.476.739a.623.623,0,0,1-.717-.226c-.178-.231-.1-.431.225-.6Zm4.8-8.283a2.4,2.4,0,0,1,.636-.922,3.806,3.806,0,0,1,.963-.635,6.179,6.179,0,0,1,1.128-.39c.4-.1.772-.17,1.127-.226a14.853,14.853,0,0,1,2.911.123,2.154,2.154,0,0,1,.553.083.363.363,0,0,1,.267.451.611.611,0,0,1-.2.348.413.413,0,0,1-.369.1,9.877,9.877,0,0,0-2.48-.185,4.4,4.4,0,0,0-2.317.759,1.329,1.329,0,0,0-.574.655,1.492,1.492,0,0,1-.492.657.648.648,0,0,1-.861,0A.675.675,0,0,1-6104.369-623.406Z" fill="#333"/>
        <path id="パス_1936" data-name="パス 1936" d="M-6100.991-613.115q.45-.246,1.558-.84t2.275-1.127a10.453,10.453,0,0,1,2.152-.739q.985-.2,1.23.328a.811.811,0,0,1-.1.8,3.412,3.412,0,0,0-.389.718l-.493,1.147a10.48,10.48,0,0,1,1.066-.574l1.067-.491q1.311-.7,2.705-1.477a13.312,13.312,0,0,1,2.829-1.188,2.02,2.02,0,0,1,.943-.021,1.181,1.181,0,0,1,.636.37,1.038,1.038,0,0,1,.226.7,1.691,1.691,0,0,1-.328.923,6.849,6.849,0,0,1-.8,1.025q-.431.452-.882.984a2.438,2.438,0,0,1-.286.328c-.137.136-.281.294-.431.471s-.287.356-.41.534a1.329,1.329,0,0,0-.226.47,1.538,1.538,0,0,0,.718,0,6.494,6.494,0,0,0,.861-.224q.43-.144.82-.308c.26-.109.457-.191.594-.246l1.682-.738q.163-.082.43-.246c.178-.109.362-.211.554-.308s.375-.185.553-.267a1.094,1.094,0,0,1,.43-.123.326.326,0,0,1,.37.369.645.645,0,0,1-.329.575q-.369.2-.778.389l-.862.39q-.575.328-1.107.574c-.355.163-.724.342-1.107.532q-.327.165-1.045.472a7.228,7.228,0,0,1-1.435.451,2.375,2.375,0,0,1-1.251-.041c-.355-.123-.532-.457-.532-1.005a1.367,1.367,0,0,1,.2-.737,5.071,5.071,0,0,1,.472-.636,7.67,7.67,0,0,1,.574-.594c.205-.191.389-.37.553-.534a8.92,8.92,0,0,0,.821-.86,3.361,3.361,0,0,0,.738-1.23,8.543,8.543,0,0,0-2.235.574q-1.128.452-2.071.943-1.189.574-2.46,1.291a9.559,9.559,0,0,0-2.213,1.7.788.788,0,0,1-.431.185.775.775,0,0,1-.43-.082.661.661,0,0,1-.308-.308.756.756,0,0,1-.02-.532,1.271,1.271,0,0,1,.614-.656,7.865,7.865,0,0,0,.411-.759,2.463,2.463,0,0,1,.287-.513c.054-.19.108-.388.164-.594a4.923,4.923,0,0,0,.123-.635c-.3.082-.6.177-.9.287s-.532.191-.7.246q-.576.246-1.148.472t-1.148.511c-.22.11-.417.22-.6.328a3.411,3.411,0,0,1-.594.288.65.65,0,0,1-.472.061.768.768,0,0,1-.349-.184.359.359,0,0,1-.1-.308C-6101.285-612.93-6101.182-613.033-6100.991-613.115Z" fill="#333"/>
        <path id="パス_1937" data-name="パス 1937" d="M-6082.386-613.115c.329-.164.745-.375,1.251-.634s1.045-.513,1.62-.759,1.127-.478,1.66-.7.977-.4,1.332-.533q.286-.123,1.026-.368t1.557-.451a11.961,11.961,0,0,1,1.538-.287,1.665,1.665,0,0,1,1.045.123q.492.451.185.819a1.249,1.249,0,0,1-.758.451l-1.846.205a4.352,4.352,0,0,0-.963.39q-.39.227-.881.554c-.138.109-.376.335-.718.677s-.676.711-1,1.106a6.553,6.553,0,0,0-.778,1.148c-.192.37-.192.635,0,.8a.919.919,0,0,0,.8.082,6.369,6.369,0,0,0,1.127-.369q.574-.245,1.066-.512a6.243,6.243,0,0,0,.657-.389,8.806,8.806,0,0,0,1.926-1.559.543.543,0,0,1,.8-.1.693.693,0,0,1,.267.841,1.131,1.131,0,0,1-.287.492c-.138.136-.267.266-.39.389a1.419,1.419,0,0,0-.308.513c-.109.191-.136.335-.082.43a.392.392,0,0,0,.287.184,4.4,4.4,0,0,0,1.435-.082,15.941,15.941,0,0,0,1.784-.45,18.149,18.149,0,0,0,1.824-.677q.9-.389,1.558-.717a1.7,1.7,0,0,0,.452-.226,3.486,3.486,0,0,1,.594-.308,1.6,1.6,0,0,1,.595-.123.423.423,0,0,1,.409.246.336.336,0,0,1-.02.452,1.486,1.486,0,0,1-.512.348c-.22.1-.438.185-.657.267s-.382.15-.491.205q-.7.328-1.394.636c-.466.2-.943.417-1.435.634q-.493.207-1.066.493a9.277,9.277,0,0,1-1.189.492,6.827,6.827,0,0,1-1.251.287,2.354,2.354,0,0,1-1.168-.123,1.224,1.224,0,0,1-.821-.8,2.109,2.109,0,0,1,.041-1.086l-1.107.655q-.7.411-1.455.841a4,4,0,0,1-1.579.513,2.154,2.154,0,0,1-1.312-.328,1.356,1.356,0,0,1-.614-1.149,2.418,2.418,0,0,1,.328-1.045,9.091,9.091,0,0,1,.84-1.312,9.789,9.789,0,0,1,1.127-1.25,5.7,5.7,0,0,1,1.148-.861,7.7,7.7,0,0,0-.922.369q-.636.286-1.435.7t-1.681.84q-.882.43-1.619.8a.494.494,0,0,1-.41.061.555.555,0,0,1-.308-.205.461.461,0,0,1-.082-.328A.414.414,0,0,1-6082.386-613.115Z" fill="#333"/>
        <path id="パス_1938" data-name="パス 1938" d="M-6064.366-613.156a26.025,26.025,0,0,0,2.459-1.27q1.19-.7,2.378-1.518a22.386,22.386,0,0,1,1.271-2.214q.7-1.065,1.353-2.09.7-.942,1.394-1.907t1.436-1.906q.615-.82,1.332-1.661a6.124,6.124,0,0,1,1.661-1.373,3.407,3.407,0,0,1,1.107-.349.763.763,0,0,1,.9.595,1.3,1.3,0,0,1,.021.881,3.64,3.64,0,0,1-.431.861,9.062,9.062,0,0,1-.614.82q-.33.39-.534.676a32.817,32.817,0,0,1-3.669,4.367,38.237,38.237,0,0,1-4.366,3.751q-.206.492-.472,1.046a9.988,9.988,0,0,0-.472,1.168,6.758,6.758,0,0,0-.286,1.21,3.109,3.109,0,0,0,.04,1.128c.3-.055.574-.1.821-.123.218-.027.423-.048.614-.061a1.228,1.228,0,0,0,.369-.062,18.663,18.663,0,0,0,2.419-.656q1.189-.411,2.337-.9a3.422,3.422,0,0,0,.78-.328.738.738,0,0,1,.778-.041c.3.22.342.417.123.595a2.661,2.661,0,0,1-.614.39l-4.757,1.762q-.7.246-1.353.513a4.24,4.24,0,0,1-1.353.308,1.334,1.334,0,0,1-.984-.185,1.372,1.372,0,0,1-.512-.7,2.343,2.343,0,0,1-.1-.943,5.284,5.284,0,0,1,.163-.963,14.164,14.164,0,0,1,.739-1.968,31.868,31.868,0,0,1-3.526,2.009.642.642,0,0,1-.677-.267C-6064.769-612.792-6064.695-612.992-6064.366-613.156Zm8.323-5.616a31.784,31.784,0,0,0,3.526-3.9,14.1,14.1,0,0,0,1.394-1.968,5.323,5.323,0,0,1,.245-.513,5.155,5.155,0,0,0,.287-.636,4.449,4.449,0,0,0-1.086.78q-.513.492-.84.82a21.978,21.978,0,0,0-1.764,1.988q-.82,1.047-1.64,2.153-.45.656-.861,1.292t-.778,1.291c.245-.191.5-.4.758-.636S-6056.289-618.553-6056.043-618.772Z" fill="#333"/>
        <path id="パス_1939" data-name="パス 1939" d="M-6035.791-621.151a28.161,28.161,0,0,1,3.773-2.807q2.008-1.251,4.058-2.318,1.436-.737,2.952-1.393a30.244,30.244,0,0,1,3.117-1.149l.41-.491q.736-.78,1.578-1.518a5.875,5.875,0,0,1,1.824-1.106,5.273,5.273,0,0,1,.718-.164,3.381,3.381,0,0,1,.9-.041,1.335,1.335,0,0,1,.717.266q.287.227.123.758a.611.611,0,0,1-.368.41.8.8,0,0,1-.615,0,1.28,1.28,0,0,0-.78-.082,3.251,3.251,0,0,0-.84.308,5.151,5.151,0,0,0-.84.554q-.411.327-.739.574a17.761,17.761,0,0,1,2.173-.205,9.361,9.361,0,0,1,2.235.184,5.7,5.7,0,0,1,1.989.82,3.851,3.851,0,0,1,1.393,1.7,2.413,2.413,0,0,1,.062,1.968,5.346,5.346,0,0,1-1.189,1.742,11.234,11.234,0,0,1-1.763,1.435q-.965.636-1.7,1.045-1.723,1.066-3.506,1.969t-3.628,1.722a26.157,26.157,0,0,1,3.71-.472,7.3,7.3,0,0,1,3.424.6,2.884,2.884,0,0,1,1.352,1.045,3.015,3.015,0,0,1,.513,1.456,3.571,3.571,0,0,1-.246,1.578,4.032,4.032,0,0,1-.923,1.415,9.661,9.661,0,0,1-3.648,2.275,42.875,42.875,0,0,1-4.141,1.25,43.474,43.474,0,0,1-7.258,1.354,2.278,2.278,0,0,0,.615.942.656.656,0,0,1,.287.574.629.629,0,0,1-.287.452.943.943,0,0,1-.594.143.871.871,0,0,1-.635-.389,3.124,3.124,0,0,1-.451-.78,7.842,7.842,0,0,1-.287-.86,20.089,20.089,0,0,1-2.3.123,15.274,15.274,0,0,1-2.3-.164c-.22-.027-.513-.068-.882-.123a6.685,6.685,0,0,1-1.108-.267,3.092,3.092,0,0,1-.942-.492.931.931,0,0,1-.39-.759c0-.355.1-.567.288-.634a.852.852,0,0,1,.635.041,4.893,4.893,0,0,1,.717.368,4.191,4.191,0,0,0,.574.307,8.724,8.724,0,0,0,2.378.492q1.231.082,2.46.083h.738a10.2,10.2,0,0,1,.431-3.158q.471-1.6.922-2.788l.205-.614c-.191.082-.383.157-.573.226s-.4.129-.615.184h-.041a1.25,1.25,0,0,1-.759-.061q-.308-.144-.267-.636a.6.6,0,0,1,.267-.492,2.573,2.573,0,0,1,.636-.349,4.64,4.64,0,0,1,.8-.226c.287-.054.539-.108.758-.164l.533-.123q.7-1.6,1.5-3.115t1.7-2.993q.861-1.436,1.762-2.85t1.927-2.726q-1.149.451-2.214.943t-2.009.984a26.909,26.909,0,0,0-2.931,1.66,27.7,27.7,0,0,0-2.727,2.03,3.783,3.783,0,0,0-.471.472c-.178.2-.363.409-.553.614a4.276,4.276,0,0,1-.6.533.809.809,0,0,1-.595.185.667.667,0,0,1-.635-.493A.72.72,0,0,1-6035.791-621.151Zm4.8,11.973a4.919,4.919,0,0,0-.123,1.722q1.887-.165,3.752-.493a28.245,28.245,0,0,0,3.67-.9q.9-.246,1.968-.6a15.869,15.869,0,0,0,2.07-.841,12.07,12.07,0,0,0,1.865-1.127,4.826,4.826,0,0,0,1.354-1.5,1.694,1.694,0,0,0,.246-1.7,2.4,2.4,0,0,0-1.19-.984,6.724,6.724,0,0,0-1.824-.471,14.149,14.149,0,0,0-1.661-.123q-1.681.083-3.443.307a27.969,27.969,0,0,0-3.486.676l-1.8.7h-.041a21.747,21.747,0,0,0-.882,2.624A15.955,15.955,0,0,0-6030.994-609.178Zm8.159-16.934q-1.436,1.847-2.685,3.793a42.957,42.957,0,0,0-2.276,4c-.218.384-.424.766-.615,1.149s-.368.765-.532,1.147q2.295-.777,4.53-1.763t4.366-2.09a30.355,30.355,0,0,0,2.686-1.517,18.7,18.7,0,0,0,2.439-1.846,13.3,13.3,0,0,0,1.046-1.086,2.454,2.454,0,0,0,.635-1.333,1.14,1.14,0,0,0-.143-.7,2.241,2.241,0,0,0-.492-.6,4.475,4.475,0,0,0-.656-.471,5.564,5.564,0,0,0-.636-.328,7.581,7.581,0,0,0-3.034-.534,13.8,13.8,0,0,0-3.156.452q-.411.41-.779.84T-6022.835-626.112Z" fill="#333"/>
        <path id="パス_1940" data-name="パス 1940" d="M-6013.245-613.156a25.923,25.923,0,0,0,2.46-1.27q1.189-.7,2.378-1.518a22.386,22.386,0,0,1,1.271-2.214q.7-1.065,1.353-2.09.7-.942,1.4-1.907t1.434-1.906q.615-.82,1.332-1.661a6.154,6.154,0,0,1,1.661-1.373,3.407,3.407,0,0,1,1.107-.349.764.764,0,0,1,.9.595,1.306,1.306,0,0,1,.021.881,3.64,3.64,0,0,1-.431.861,9.354,9.354,0,0,1-.615.82q-.328.39-.533.676a32.784,32.784,0,0,1-3.669,4.367,38.159,38.159,0,0,1-4.367,3.751q-.206.492-.471,1.046a9.988,9.988,0,0,0-.472,1.168,6.721,6.721,0,0,0-.287,1.21,3.087,3.087,0,0,0,.041,1.128q.451-.082.82-.123c.219-.027.424-.048.615-.061a1.244,1.244,0,0,0,.37-.062,18.684,18.684,0,0,0,2.418-.656q1.188-.411,2.337-.9a3.417,3.417,0,0,0,.779-.328.739.739,0,0,1,.779-.041c.3.22.342.417.123.595a2.665,2.665,0,0,1-.615.39l-4.756,1.762q-.7.246-1.353.513a4.24,4.24,0,0,1-1.353.308,1.33,1.33,0,0,1-.983-.185,1.376,1.376,0,0,1-.513-.7,2.342,2.342,0,0,1-.1-.943,5.2,5.2,0,0,1,.164-.963,14.282,14.282,0,0,1,.738-1.968,31.779,31.779,0,0,1-3.526,2.009.643.643,0,0,1-.677-.267C-6013.648-612.792-6013.573-612.992-6013.245-613.156Zm8.323-5.616a31.745,31.745,0,0,0,3.526-3.9,13.935,13.935,0,0,0,1.394-1.968,5.487,5.487,0,0,1,.246-.513,5.226,5.226,0,0,0,.287-.636,4.449,4.449,0,0,0-1.086.78c-.342.328-.623.6-.841.82a22.2,22.2,0,0,0-1.763,1.988q-.82,1.047-1.64,2.153-.452.656-.861,1.292t-.779,1.291c.246-.191.5-.4.759-.636Z" fill="#333"/>
        <path id="パス_1941" data-name="パス 1941" d="M-6001.257-613.156q.739-.369,1.537-.819a13.439,13.439,0,0,1,1.621-.779,4.175,4.175,0,0,1,1.516-1.537,6.18,6.18,0,0,1,2.091-.8,5.381,5.381,0,0,1,1.333,0,1.619,1.619,0,0,1,1.168.615.642.642,0,0,1,.144.7,1.925,1.925,0,0,1-.493.7,4.851,4.851,0,0,1-.778.594q-.43.267-.636.39a5.868,5.868,0,0,1-1.619.676,5.189,5.189,0,0,1-1.784.143h-.164a2.305,2.305,0,0,0,.738,1.4,3.589,3.589,0,0,0,1.354.718,4.931,4.931,0,0,0,1.619.184,12.3,12.3,0,0,0,1.537-.164,18.321,18.321,0,0,0,1.928-.513,17.88,17.88,0,0,0,1.844-.717q.409-.206.841-.39a8.482,8.482,0,0,0,.8-.39.792.792,0,0,1,.6.082c.205.111.225.287.061.534a1.05,1.05,0,0,1-.574.451q-.369.123-.656.246l-2.05.9a35.451,35.451,0,0,1-3.73,1.23,6.163,6.163,0,0,1-1.662.1,4.808,4.808,0,0,1-1.557-.369,4.059,4.059,0,0,1-1.291-.882,3.239,3.239,0,0,1-.821-1.475c-.055-.219-.1-.437-.143-.657a1.321,1.321,0,0,1,.02-.614,8.072,8.072,0,0,0-.881.471l-.758.471a3.035,3.035,0,0,0-.533.308.557.557,0,0,1-.657.021.469.469,0,0,1-.225-.452A.382.382,0,0,1-6001.257-613.156Zm4.182-1.147a4.777,4.777,0,0,0,1.907-.492,5.987,5.987,0,0,0,1.619-1.149,2.31,2.31,0,0,0-1.128-.122,3.225,3.225,0,0,0-1.024.327,3.176,3.176,0,0,0-.841.636A2.551,2.551,0,0,0-5997.075-614.3Z" fill="#333"/>
        <path id="パス_1942" data-name="パス 1942" d="M-5986.842-613.115q.451-.246,1.558-.84t2.276-1.127a10.408,10.408,0,0,1,2.153-.739q.982-.2,1.229.328a.81.81,0,0,1-.1.8,3.443,3.443,0,0,0-.39.718l-.491,1.147a10.364,10.364,0,0,1,1.065-.574l1.067-.491q1.311-.7,2.706-1.477a13.281,13.281,0,0,1,2.829-1.188,2.016,2.016,0,0,1,.942-.021,1.181,1.181,0,0,1,.636.37,1.046,1.046,0,0,1,.226.7,1.688,1.688,0,0,1-.329.923,6.815,6.815,0,0,1-.8,1.025q-.432.452-.881.984a2.575,2.575,0,0,1-.287.328c-.138.136-.282.294-.431.471s-.287.356-.41.534a1.329,1.329,0,0,0-.226.47,1.539,1.539,0,0,0,.718,0,6.494,6.494,0,0,0,.861-.224c.286-.1.56-.2.82-.308s.458-.191.594-.246l1.681-.738q.164-.082.431-.246c.177-.109.362-.211.553-.308s.375-.185.554-.267a1.1,1.1,0,0,1,.431-.123.325.325,0,0,1,.368.369.645.645,0,0,1-.327.575c-.246.136-.507.266-.779.389l-.862.39q-.574.328-1.106.574c-.356.163-.725.342-1.108.532q-.327.165-1.045.472a7.242,7.242,0,0,1-1.435.451,2.369,2.369,0,0,1-1.25-.041c-.357-.123-.533-.457-.533-1.005a1.351,1.351,0,0,1,.205-.737,4.838,4.838,0,0,1,.471-.636,7.573,7.573,0,0,1,.574-.594c.205-.191.389-.37.553-.534a9,9,0,0,0,.821-.86,3.344,3.344,0,0,0,.737-1.23,8.546,8.546,0,0,0-2.234.574q-1.128.452-2.071.943-1.189.574-2.46,1.291a9.6,9.6,0,0,0-2.214,1.7.78.78,0,0,1-.43.185.779.779,0,0,1-.431-.082.663.663,0,0,1-.307-.308.761.761,0,0,1-.021-.532,1.269,1.269,0,0,1,.615-.656,7.56,7.56,0,0,0,.41-.759,2.529,2.529,0,0,1,.288-.513c.054-.19.108-.388.164-.594a4.923,4.923,0,0,0,.123-.635q-.453.123-.9.287t-.7.246q-.574.246-1.147.472t-1.149.511c-.219.11-.417.22-.594.328a3.451,3.451,0,0,1-.594.288.65.65,0,0,1-.472.061.771.771,0,0,1-.349-.184.356.356,0,0,1-.1-.308C-5987.135-612.93-5987.032-613.033-5986.842-613.115Z" fill="#333"/>
        <path id="パス_1943" data-name="パス 1943" d="M-5968.157-613.156a12.925,12.925,0,0,0,2.029-.9q.963-.534,1.989-.984a8.259,8.259,0,0,1,1.353-.534q.7-.2,1.394-.41a5.326,5.326,0,0,1,1.763-.286.744.744,0,0,1,.615.327.6.6,0,0,1,.041.7.7.7,0,0,1-.369.349,1.746,1.746,0,0,1-.553.123q-.308.021-.616.021h-.553a2.99,2.99,0,0,0-1.168.348,6,6,0,0,0-1.128.759,5.251,5.251,0,0,0-1.271,1.312l-.184.348c-.1.178-.185.363-.267.554a3.562,3.562,0,0,0-.184.532.367.367,0,0,0,.061.369.4.4,0,0,0,.39.062,2.132,2.132,0,0,0,.532-.205c.178-.1.342-.191.492-.286s.253-.158.308-.185a15.372,15.372,0,0,0,1.312-.861q.613-.451,1.271-.9l1.927-1.721q.7-1.434,1.476-2.85t1.6-2.809q.574-.941,1.148-1.885t1.23-1.886q.615-.861,1.353-1.784a5.149,5.149,0,0,1,1.722-1.414c.191-.055.375-.11.554-.164a.947.947,0,0,1,.553,0,1.068,1.068,0,0,1,.656.328,1,1,0,0,1,.225.595,2.345,2.345,0,0,1-.082.737,2.751,2.751,0,0,1-.266.677,17.051,17.051,0,0,1-1.579,2.255q-.881,1.065-1.783,2.131-1.394,1.682-2.808,3.26t-2.973,3.055q-.205.574-.39,1.106c-.123.357-.253.725-.389,1.108q-.083.2-.185.492c-.068.191-.137.4-.205.615a5.631,5.631,0,0,0-.163.655,1.434,1.434,0,0,0-.021.534,4.978,4.978,0,0,0,1.5-.329q.758-.285,1.414-.574a20.415,20.415,0,0,0,2.316-1.086q1.169-.636,2.235-1.21a.775.775,0,0,1,.348-.1,1.4,1.4,0,0,1,.41.02.276.276,0,0,1,.226.205.667.667,0,0,1-.123.452,1.142,1.142,0,0,1-.615.471q-.412.144-.7.267-1.148.574-2.3,1.188t-2.255,1.231c-.219.108-.465.239-.738.389a6.217,6.217,0,0,1-.861.39,2.608,2.608,0,0,1-.881.164,1.416,1.416,0,0,1-.8-.246,1.267,1.267,0,0,1-.472-.7,2.358,2.358,0,0,1-.041-.882,4.868,4.868,0,0,1,.2-.9c.1-.288.185-.54.267-.759.026-.11.055-.212.082-.308a3.222,3.222,0,0,1,.123-.348l-2.05,1.762q-.329.33-.738.677a5.652,5.652,0,0,1-.882.615,3.837,3.837,0,0,1-.963.39,2,2,0,0,1-.984,0,1.37,1.37,0,0,1-1-.779,1.793,1.793,0,0,1,.041-1.189,5.133,5.133,0,0,1,.718-1.333,10.414,10.414,0,0,1,1.066-1.25l-1.025.409q-.412.207-.984.554a2.49,2.49,0,0,1-1.025.39.405.405,0,0,1-.41.02.532.532,0,0,1-.226-.266.6.6,0,0,1-.02-.349A.383.383,0,0,1-5968.157-613.156Zm11.644-4.017q1.065-1.109,2.091-2.276t1.968-2.4q.409-.574.82-1.128t.779-1.168a8.9,8.9,0,0,1,.471-.779,2.736,2.736,0,0,0,.431-.985,2.563,2.563,0,0,0-1.066.78q-.492.573-.779.9a25.85,25.85,0,0,0-1.763,2.132q-.82,1.107-1.558,2.3l-1.64,2.87Z" fill="#333"/>
      </g>
    </g>
  </g>
</svg>
