<svg id="lineup_warm_graph" xmlns="http://www.w3.org/2000/svg" width="285.778" height="252.306" viewBox="0 0 285.778 252.306">
  <path id="パス_814" data-name="パス 814" d="M1185.03,1326.478h-54.273l-81.9,20.35,65.62,63.144,16.275,47.531,62.851,20.709,7.7-68.24,42.81-53.7Z" transform="translate(-1015.21 -1265.807)" fill="#dbdfb8"/>
  <path id="パス_815" data-name="パス 815" d="M1193.608,1305.769h-71.429l-50.508,50.508v71.429l50.508,50.508h71.429l50.508-50.508v-71.429Z" transform="translate(-1015.21 -1265.807)" fill="none" stroke="#999" stroke-miterlimit="10" stroke-width="0.5"/>
  <path id="パス_816" data-name="パス 816" d="M1185.03,1326.478h-54.273l-38.377,38.377v54.273l38.377,38.377h54.273l38.377-38.377v-54.273Z" transform="translate(-1015.21 -1265.807)" fill="none" stroke="#999" stroke-miterlimit="10" stroke-width="0.5"/>
  <path id="パス_817" data-name="パス 817" d="M1175.875,1348.579h-35.964l-25.43,25.43v35.963l25.43,25.43h35.964l25.43-25.43V1374.01Z" transform="translate(-1015.21 -1265.807)" fill="none" stroke="#999" stroke-miterlimit="10" stroke-width="0.5"/>
  <path id="パス_818" data-name="パス 818" d="M1167.092,1369.785h-18.4l-13.008,13.008v18.4L1148.7,1414.2h18.4l13.008-13.008v-18.4Z" transform="translate(-1015.21 -1265.807)" fill="none" stroke="#999" stroke-miterlimit="10" stroke-width="0.5"/>
  <g id="グループ_156" data-name="グループ 156" transform="translate(-1015.21 -1265.807)">
    <path id="パス_819" data-name="パス 819" d="M1097.584,1269.5c0,.33.09.406.495.5a25.807,25.807,0,0,0,3.675.12c3.795,0,4.364-.031,4.649-.3a3.28,3.28,0,0,0,.436-1.816,3.587,3.587,0,0,0,.914.406,3.805,3.805,0,0,1-.7,2.129c-.436.405-.945.451-5.985.451a16.022,16.022,0,0,1-3.795-.226c-.48-.149-.63-.389-.63-1.019v-2.52a6.591,6.591,0,0,0-.09-1.291h1.125a5.029,5.029,0,0,0-.09,1.23v.706c1.529-.165,2.654-.331,3.855-.571a19.146,19.146,0,0,0,4.6-1.3l.735.9c-2.774.779-2.774.779-4.08,1.05-1.875.36-3.134.555-5.114.764Zm6.96,2.821a14.106,14.106,0,0,0,1.814-.075,13.947,13.947,0,0,0-.075,1.83v3.224a13.267,13.267,0,0,0,.09,1.86h-1.034v-.7h-7.186v.7h-1.019a13.111,13.111,0,0,0,.09-1.86v-3.224c0-.841-.031-1.335-.076-1.83a13.322,13.322,0,0,0,1.8.075Zm-6.391,2.564h7.186v-1.725h-7.186Zm0,2.731h7.186v-1.906h-7.186Z" fill="#4d4d4d"/>
    <path id="パス_820" data-name="パス 820" d="M1111.274,1277.131a12.012,12.012,0,0,0,.09-1.62v-7.019c0-.616-.029-1.111-.059-1.456a9.154,9.154,0,0,0,1.229.06h1.335a9.665,9.665,0,0,0,1.261-.06,12.974,12.974,0,0,0-.045,1.4v6.209a16.338,16.338,0,0,0,.06,1.65h-.96v-.78h-1.906v1.62Zm1.005-2.46h1.906v-6.7h-1.906Zm9.855-6.45a10.3,10.3,0,0,0,1.575-.09v1.035a12,12,0,0,0-1.59-.09h-1.965v2.536h2.536a12.1,12.1,0,0,0,1.709-.09v1.035a11.546,11.546,0,0,0-1.7-.091h-2.295a11.771,11.771,0,0,0,1.651,2.49,12.1,12.1,0,0,0,2.819,2.295,3.988,3.988,0,0,0-.645.93,16.6,16.6,0,0,1-2.415-2.2,10.128,10.128,0,0,1-1.724-2.791c.045.556.059.975.059,1.65v2.94a10.442,10.442,0,0,0,.09,1.59h-1.08a12.132,12.132,0,0,0,.09-1.59v-2.94c0-.57,0-.764.061-1.65a12.244,12.244,0,0,1-4.56,5.19,3.381,3.381,0,0,0-.721-.735,13.08,13.08,0,0,0,4.965-5.175h-2.1a8.751,8.751,0,0,0-1.44.075v-1.005a8.717,8.717,0,0,0,1.455.076h2.34v-2.536h-1.68a11.967,11.967,0,0,0-1.545.076v-1.005a14.79,14.79,0,0,0,1.545.074h1.68v-1.2a6.6,6.6,0,0,0-.074-1.215h1.05a6.674,6.674,0,0,0-.076,1.215v1.2Z" fill="#4d4d4d"/>
  </g>
  <g id="グループ_157" data-name="グループ 157" transform="translate(-1015.21 -1265.807)">
    <path id="パス_821" data-name="パス 821" d="M1194.239,1266.9a6.3,6.3,0,0,0-.091-1.08h1.1a6.279,6.279,0,0,0-.091,1.08v.479h3.6v-.479a6.4,6.4,0,0,0-.09-1.08h1.1a6.063,6.063,0,0,0-.09,1.08v.479h2.324a11.781,11.781,0,0,0,1.681-.09v1.035a12.538,12.538,0,0,0-1.681-.075h-2.324v.405a5.318,5.318,0,0,0,.074.975h-1.05a6.652,6.652,0,0,0,.061-.975v-.405h-3.6v.405a6.626,6.626,0,0,0,.061.991h-1.05a6.348,6.348,0,0,0,.075-.991v-.405h-2.175a12.273,12.273,0,0,0-1.665.075v-1.035a11.815,11.815,0,0,0,1.665.09h2.175Zm6.555,7.17a.77.77,0,1,1,1.02,1.139v2.8a9.943,9.943,0,0,0,.089,1.365h-1.049v-.855h-7.5v.855h-1.05a10.249,10.249,0,0,0,.09-1.365v-2.8a7.462,7.462,0,0,0-.075-1.2,7.069,7.069,0,0,0,1.095.061h3.015v-2.011h-4.32a15.48,15.48,0,0,0-1.7.076v-1.051a11.738,11.738,0,0,0,1.7.09h4.32v-.854a5.253,5.253,0,0,0-.09-1.215h1.109a6.789,6.789,0,0,0-.09,1.215v.854h4.606a11.71,11.71,0,0,0,1.694-.09v1.051a15.864,15.864,0,0,0-1.694-.076h-4.606v2.011Zm-7.44,3.569h7.5v-2.715h-7.5Z" fill="#4d4d4d"/>
    <path id="パス_822" data-name="パス 822" d="M1206.889,1277.131a12.176,12.176,0,0,0,.09-1.62v-7.019c0-.616-.03-1.111-.06-1.456a9.156,9.156,0,0,0,1.229.06h1.335a9.665,9.665,0,0,0,1.261-.06,12.974,12.974,0,0,0-.045,1.4v6.209a16.338,16.338,0,0,0,.06,1.65h-.96v-.78h-1.9v1.62Zm1.005-2.46h1.9v-6.7h-1.9Zm9.854-6.45a10.3,10.3,0,0,0,1.575-.09v1.035a12,12,0,0,0-1.59-.09h-1.964v2.536h2.535a12.122,12.122,0,0,0,1.71-.09v1.035a11.571,11.571,0,0,0-1.7-.091h-2.3a11.819,11.819,0,0,0,1.651,2.49,12.147,12.147,0,0,0,2.819,2.295,3.955,3.955,0,0,0-.644.93,16.5,16.5,0,0,1-2.415-2.2,10.1,10.1,0,0,1-1.725-2.791c.045.556.06.975.06,1.65v2.94a10.45,10.45,0,0,0,.089,1.59h-1.08a12.132,12.132,0,0,0,.09-1.59v-2.94c0-.57,0-.764.061-1.65a12.244,12.244,0,0,1-4.56,5.19,3.335,3.335,0,0,0-.721-.735,13.08,13.08,0,0,0,4.965-5.175h-2.1a8.772,8.772,0,0,0-1.441.075v-1.005a8.717,8.717,0,0,0,1.455.076h2.34v-2.536h-1.679a11.948,11.948,0,0,0-1.545.076v-1.005a14.776,14.776,0,0,0,1.545.074h1.679v-1.2a6.5,6.5,0,0,0-.074-1.215h1.05a6.687,6.687,0,0,0-.075,1.215v1.2Z" fill="#4d4d4d"/>
  </g>
  <g id="グループ_158" data-name="グループ 158" transform="translate(-1015.21 -1265.807)">
    <path id="パス_823" data-name="パス 823" d="M1280.284,1337.3a11.222,11.222,0,0,0-.09-1.725h1.186a11.28,11.28,0,0,0-.106,1.725v.84h.975a13.649,13.649,0,0,0,1.771-.106v1.14a15.029,15.029,0,0,0-1.771-.1h-.975v7.995a14.176,14.176,0,0,0,.106,1.769h-1.1v-.96h-5.834v.96h-1.095a12.112,12.112,0,0,0,.1-1.755v-8.009h-.976a11.642,11.642,0,0,0-1.71.1v-1.14a10.951,10.951,0,0,0,1.71.106h.976v-.9a9.735,9.735,0,0,0-.1-1.665h1.185a11.965,11.965,0,0,0-.09,1.665v.9h5.834Zm-5.834,1.77v3.24h5.834v-3.24Zm0,4.155v3.734h5.834v-3.734Z" fill="#4d4d4d"/>
    <path id="パス_824" data-name="パス 824" d="M1287.241,1346.747a11.99,11.99,0,0,0,.09-1.62v-7.019c0-.615-.029-1.11-.059-1.455a9.142,9.142,0,0,0,1.229.06h1.335a9.671,9.671,0,0,0,1.261-.06,12.663,12.663,0,0,0-.045,1.394v6.211a16.4,16.4,0,0,0,.059,1.649h-.96v-.78h-1.905v1.62Zm1.005-2.46h1.905v-6.7h-1.905Zm9.855-6.449a10.445,10.445,0,0,0,1.575-.09v1.034a12.032,12.032,0,0,0-1.59-.089h-1.965v2.535h2.535a11.954,11.954,0,0,0,1.71-.09v1.034a11.881,11.881,0,0,0-1.695-.09h-2.3a11.789,11.789,0,0,0,1.65,2.491,12.138,12.138,0,0,0,2.82,2.3,3.942,3.942,0,0,0-.645.929,16.484,16.484,0,0,1-2.415-2.2,10.089,10.089,0,0,1-1.724-2.789c.045.555.059.975.059,1.649v2.941a10.452,10.452,0,0,0,.09,1.59h-1.08a12.319,12.319,0,0,0,.09-1.59v-2.941c0-.569,0-.764.06-1.649a12.247,12.247,0,0,1-4.559,5.19,3.362,3.362,0,0,0-.721-.736,13.085,13.085,0,0,0,4.965-5.175h-2.1a8.753,8.753,0,0,0-1.44.075v-1a8.722,8.722,0,0,0,1.455.075h2.34v-2.535h-1.68a11.811,11.811,0,0,0-1.545.075v-1.005a14.747,14.747,0,0,0,1.545.075h1.68v-1.2a6.587,6.587,0,0,0-.074-1.215h1.049a6.782,6.782,0,0,0-.075,1.215v1.2Z" fill="#4d4d4d"/>
  </g>
  <g id="グループ_159" data-name="グループ 159" transform="translate(-1015.21 -1265.807)">
    <path id="パス_825" data-name="パス 825" d="M1272.215,1432.254a10.5,10.5,0,0,0-1.455.091v-.976a9.495,9.495,0,0,0,1.455.09h3.3a9.04,9.04,0,0,0,1.394-.09v.96a9.683,9.683,0,0,0-1.38-.09h-.659v1.786h.494a11.382,11.382,0,0,0,1.17-.045,13.947,13.947,0,0,0-.045,1.575v6.674l.016.8.015.555c-.225-.014-.855-.03-1.23-.03h-3.33v1.141h-.9a13.245,13.245,0,0,0,.089-1.711v-7.4c0-.644-.014-1.125-.059-1.619a8.034,8.034,0,0,0,1.184.06h.526v-1.771Zm-.27,8.146h3.749v-1.906c-.3.016-.389.016-.464.016a1.434,1.434,0,0,1-.871-.166c-.134-.1-.165-.225-.165-.659v-2.955h-.7v.165c0,2.309-.285,3.569-1.05,4.71a3.413,3.413,0,0,0-.495-.585Zm0-1.47c.63-.841.855-1.891.855-4.051v-.149h-.855Zm0,3.84h3.749v-1.651h-3.749Zm1.545-8.745h.7v-1.786h-.7Zm1.38,3.45c0,.285.029.314.3.314h.524v-3.059h-.824Zm7.2.914a5.6,5.6,0,0,0,1.005-.074l.526.554a6.423,6.423,0,0,0-.391.585,11.3,11.3,0,0,1-1.9,2.4,8.3,8.3,0,0,0,3.389,1.695,4.574,4.574,0,0,0-.45.945,10.587,10.587,0,0,1-3.585-2.085,11.591,11.591,0,0,1-3.989,2.13,2.881,2.881,0,0,0-.54-.825,9.921,9.921,0,0,0,3.93-1.86,8.957,8.957,0,0,1-1.425-1.949,10.563,10.563,0,0,1-1.41,1.41,2.518,2.518,0,0,0-.585-.676,7.464,7.464,0,0,0,2.25-2.414,5.058,5.058,0,0,0,.615-1.381l.9.285c-.314.615-.42.795-.705,1.26Zm-1.32-4.305c-.449.045-.659.075-1.2.135a4.928,4.928,0,0,1-.42,1.695,4.259,4.259,0,0,1-1.995,2.026,2.836,2.836,0,0,0-.555-.721,3.135,3.135,0,0,0,2.13-2.924c-1.365.1-1.365.1-1.755.164l-.1-.929a6.62,6.62,0,0,0,.764.03h.391a11.657,11.657,0,0,0,1.274-2.806l.931.33a25.255,25.255,0,0,1-1.29,2.431,28.258,28.258,0,0,0,3.569-.42,10.25,10.25,0,0,0-1.29-1.29l.646-.42a17.761,17.761,0,0,1,2.46,2.7l-.75.495c-.271-.42-.361-.54-.571-.854-.929.18-.929.18-1.41.24v2.174c0,.27.09.3.75.3.675,0,.946-.045,1.05-.2a2.936,2.936,0,0,0,.181-1.214,1.871,1.871,0,0,0,.75.314c-.151,1.695-.3,1.83-2.04,1.83-1.306,0-1.516-.119-1.516-.824Zm-1.545,5.055c-.029.045-.045.061-.09.121a8.208,8.208,0,0,0,1.576,2.055,9.518,9.518,0,0,0,1.74-2.176Z" fill="#4d4d4d"/>
    <path id="パス_826" data-name="パス 826" d="M1287.384,1442.334a12.177,12.177,0,0,0,.09-1.62v-7.019c0-.616-.03-1.111-.06-1.456a9.163,9.163,0,0,0,1.23.06h1.335a9.658,9.658,0,0,0,1.26-.06,12.974,12.974,0,0,0-.045,1.4v6.209a16.338,16.338,0,0,0,.06,1.65h-.96v-.78h-1.9v1.62Zm1.005-2.46h1.9v-6.7h-1.9Zm9.854-6.45a10.291,10.291,0,0,0,1.575-.09v1.035a12.016,12.016,0,0,0-1.589-.089h-1.965v2.535h2.535a12.126,12.126,0,0,0,1.71-.09v1.035a11.7,11.7,0,0,0-1.7-.091h-2.295a11.78,11.78,0,0,0,1.65,2.49,12.147,12.147,0,0,0,2.819,2.295,3.955,3.955,0,0,0-.644.93,16.5,16.5,0,0,1-2.415-2.2,10.1,10.1,0,0,1-1.725-2.791c.045.556.06.975.06,1.65v2.94a10.311,10.311,0,0,0,.09,1.59h-1.081a12.122,12.122,0,0,0,.09-1.59v-2.94c0-.57,0-.764.061-1.65a12.244,12.244,0,0,1-4.56,5.19,3.375,3.375,0,0,0-.72-.735,13.085,13.085,0,0,0,4.964-5.175h-2.1a8.772,8.772,0,0,0-1.441.075v-1.005a8.72,8.72,0,0,0,1.455.076h2.34v-2.535h-1.679a11.963,11.963,0,0,0-1.545.075v-1.005a14.776,14.776,0,0,0,1.545.074h1.679v-1.2a6.5,6.5,0,0,0-.074-1.215h1.05a6.694,6.694,0,0,0-.075,1.215v1.2Z" fill="#4d4d4d"/>
  </g>
  <g id="グループ_160" data-name="グループ 160" transform="translate(-1015.21 -1265.807)">
    <path id="パス_827" data-name="パス 827" d="M1015.78,1434.864a18.789,18.789,0,0,1,2.61,1.906l-.616.824a12.432,12.432,0,0,0-2.564-2.024Zm2.67,4.951a25.532,25.532,0,0,1-1.98,4.049c-.18.3-.225.39-.315.57l-.885-.795a12.823,12.823,0,0,0,2.37-4.425Zm-1.785-8.535a13.575,13.575,0,0,1,2.415,1.964l-.63.766a11.936,11.936,0,0,0-2.415-2.07Zm10.44,4.935a10.234,10.234,0,0,0,1.544-.091v1.021a10.962,10.962,0,0,0-1.544-.09h-6.991a9.57,9.57,0,0,0-1.439.074v-.99a8.66,8.66,0,0,0,1.41.076h.465v-2.685a8.471,8.471,0,0,0-.09-1.305h1.095a8.147,8.147,0,0,0-.09,1.32v2.67h1.9v-3.886a7.918,7.918,0,0,0-.09-1.29h1.111a7.743,7.743,0,0,0-.09,1.306v.78h2.25a8.75,8.75,0,0,0,1.364-.091v1.021a9.233,9.233,0,0,0-1.38-.09H1024.3v2.25Zm-4.065,5.834a19.406,19.406,0,0,1-3.255,2.055c-.3.15-.42.211-.6.315l-.495-.99a5.983,5.983,0,0,0,1.6-.69,13.3,13.3,0,0,0,2.43-1.589Zm-2.775-4.425a17.985,17.985,0,0,1,2.745,2.04l-.66.75a12.589,12.589,0,0,0-2.745-2.1Zm3.764,2.281a11.474,11.474,0,0,0,1.71-1.26,5.844,5.844,0,0,0,1.066-1.156l.84.616a17.455,17.455,0,0,1-2.955,2.505Zm3.811,4.559a18.708,18.708,0,0,0-3.766-2.639l.616-.645a22.389,22.389,0,0,1,3.719,2.4Z" fill="#4d4d4d"/>
    <path id="パス_828" data-name="パス 828" d="M1032.813,1432.239a7.082,7.082,0,0,0,1.455.09c.824,0,2.024-.045,2.519-.1a1.1,1.1,0,0,0,.555-.18l.795.629a7.925,7.925,0,0,0-.824,2.176c-.331,1.019-.436,1.305-.706,2.1a11.738,11.738,0,0,1,4.095,1.185,17.007,17.007,0,0,0,.18-3.045,3.643,3.643,0,0,0-.06-.735l1.125.014a5.7,5.7,0,0,0-.06.93,20.511,20.511,0,0,1-.27,3.256c.81.42,1.32.689,2.055,1.125a2.907,2.907,0,0,0,.435.225l-.405,1.154a17.357,17.357,0,0,0-2.34-1.484,7.077,7.077,0,0,1-1.545,2.714,8.087,8.087,0,0,1-2.385,1.83,3.859,3.859,0,0,0-.8-.78,6.589,6.589,0,0,0,2.43-1.725,5.827,5.827,0,0,0,1.38-2.52,11.039,11.039,0,0,0-4.139-1.244,29.225,29.225,0,0,1-1.41,3.614c-.541,1.035-1.095,1.486-1.816,1.486a2.216,2.216,0,0,1-1.979-2.461,3.366,3.366,0,0,1,1.785-2.969,4.9,4.9,0,0,1,2.7-.646c.495-1.469.675-2.04,1.2-3.779-1.184.09-1.41.1-2.835.149a8.4,8.4,0,0,0-1.095.076Zm0,6.51a2.49,2.49,0,0,0-.72,1.726c0,.8.434,1.424.974,1.424.616,0,1.125-.93,2.22-4.124A3.633,3.633,0,0,0,1032.813,1438.749Z" fill="#4d4d4d"/>
  </g>
  <g id="グループ_161" data-name="グループ 161" transform="translate(-1015.21 -1265.807)">
    <path id="パス_829" data-name="パス 829" d="M1090.026,1506.128a10,10,0,0,0,1.5-.09v1.036a10.445,10.445,0,0,0-1.5-.09h-4.844c-.016,2.429-.016,2.429-.075,3.54a4.842,4.842,0,0,0,.36,1.754,5.815,5.815,0,0,0,1.784,2.625,10.057,10.057,0,0,0,4.35,2.19,2.96,2.96,0,0,0-.539.944c-3.316-1.019-5.715-3.089-6.316-5.429-.854,2.7-2.79,4.455-6.059,5.505a4.43,4.43,0,0,0-.6-.915c2.729-.735,4.515-2.055,5.46-3.975a6.748,6.748,0,0,0,.63-2.85c.045-.87.045-.87.045-3.389h-4.545a10.883,10.883,0,0,0-1.5.09v-1.036a10.129,10.129,0,0,0,1.5.09h4.545a10.534,10.534,0,0,0-.075-1.62h1.125a8.18,8.18,0,0,0-.09,1.62Zm-7.785,8.13c-.524-.5-.719-.675-1.064-.96a10.039,10.039,0,0,1-2.28,1.425,3.35,3.35,0,0,0-.6-.72,8.7,8.7,0,0,0,2.22-1.215,13.467,13.467,0,0,0-1.486-1.005l.646-.48c.66.42.87.555,1.455.975a5.235,5.235,0,0,0,1.14-1.379l.75.509c-.076.09-.076.09-.451.525a8.408,8.408,0,0,1-.8.825c.331.255.526.42,1.081.885Zm-2.4-6.585c.809.465,1.08.63,1.59.976a4.277,4.277,0,0,0,1.019-1.29l.75.479a2.651,2.651,0,0,0-.359.405,7.424,7.424,0,0,1-.766.84c.481.345.691.495,1.29.975l-.585.615c-.569-.51-.8-.69-1.274-1.065a10.806,10.806,0,0,1-2.46,1.575,3.653,3.653,0,0,0-.6-.675,8.857,8.857,0,0,0,2.4-1.35,15.483,15.483,0,0,0-1.606-.959Zm6.854-.075c.84.51,1.125.69,1.725,1.11a4.135,4.135,0,0,0,1.02-1.3l.81.509c-.075.06-.24.255-.314.33-.016.031-.165.195-.42.48a4.254,4.254,0,0,1-.451.45c.555.405.75.556,1.38,1.08l-.615.6c-.63-.586-.84-.766-1.349-1.171a10.76,10.76,0,0,1-2.22,1.4,2.533,2.533,0,0,0-.571-.675,7.86,7.86,0,0,0,2.13-1.2c-.554-.375-.855-.57-1.724-1.095Zm.451,3.615c.854.526,1.125.7,1.62,1.05a3.73,3.73,0,0,0,.884-1.155l.765.51c-.12.121-.21.225-.434.5a6.727,6.727,0,0,1-.571.614c.54.405.78.6,1.515,1.216l-.614.614c-.691-.645-.931-.855-1.471-1.29-.239.2-.449.36-.734.57-.061.03-.361.21-.931.555a2.988,2.988,0,0,0-.585-.66,6.869,6.869,0,0,0,1.605-.945c-.525-.375-.825-.555-1.665-1.065Z" fill="#4d4d4d"/>
    <path id="パス_830" data-name="パス 830" d="M1097.138,1505.514a6.04,6.04,0,0,0,.285.914c.3.885.45,1.305.66,1.98a26.343,26.343,0,0,1,3.225-.839,20.831,20.831,0,0,0-.06-2.656h1.125a14.14,14.14,0,0,0-.075,2.025c0,.015,0,.3.015.48a7.686,7.686,0,0,1,1.125-.09c2.009,0,3.3,1.08,3.3,2.76,0,1.8-1.469,3.09-3.524,3.09a6.352,6.352,0,0,1-2.535-.555,2.294,2.294,0,0,0,.014-.27,6.588,6.588,0,0,0-.089-.855,5.1,5.1,0,0,0,2.52.69,3.038,3.038,0,0,0,1.8-.585,1.821,1.821,0,0,0,.72-1.529c0-1.14-.885-1.816-2.4-1.816a17.655,17.655,0,0,0-4.889,1.066c.765,2.549,1.3,4.665,1.935,7.484a4.763,4.763,0,0,0,.194.645l-1.214.27a53.459,53.459,0,0,0-1.89-8.1,6.49,6.49,0,0,1-.811.27,14.332,14.332,0,0,0-2.054.825l-.39-1.065a16.522,16.522,0,0,0,2.2-.7c.375-.136.525-.166.765-.241a15.014,15.014,0,0,0-1.08-2.849Z" fill="#4d4d4d"/>
    <path id="パス_831" data-name="パス 831" d="M1110.273,1508.678c.541-.015,2.1-.195,3.315-.39a18.228,18.228,0,0,0,.45-3.179v-.2l1.2.135a9.222,9.222,0,0,0-.285,1.441c-.075.434-.18.99-.314,1.71a8.424,8.424,0,0,1,.884-.045,2.871,2.871,0,0,1,2.161.629,3.034,3.034,0,0,1,.734,2.416c0,2.294-.39,4.29-1.005,5.159a1.567,1.567,0,0,1-1.47.7,5.637,5.637,0,0,1-2.264-.585,3.368,3.368,0,0,0,.029-.525,2.9,2.9,0,0,0-.045-.6,5.629,5.629,0,0,0,2.235.69c.375,0,.661-.24.855-.72a11.61,11.61,0,0,0,.63-4.17c0-1.59-.449-2.1-1.845-2.1a8.81,8.81,0,0,0-1.08.075,28.327,28.327,0,0,1-2.265,6.361c-.195.359-.509.959-.974,1.8l-1.021-.6a14.4,14.4,0,0,0,1.561-2.715,24.835,24.835,0,0,0,1.649-4.755c-1.29.195-2.01.315-2.144.345a8.5,8.5,0,0,0-.87.2Zm9.855-1.38a13.572,13.572,0,0,1,3.135,5.31l-.96.555a12.269,12.269,0,0,0-3.06-5.384Z" fill="#4d4d4d"/>
    <path id="パス_832" data-name="パス 832" d="M1126.48,1507.944a6.663,6.663,0,0,0,1.155.074,34.847,34.847,0,0,0,4.47-.315c-.226-.509-.466-1.11-.736-1.785-.165-.389-.255-.6-.389-.87l1.184-.165a4.776,4.776,0,0,0,.435,1.351,12.268,12.268,0,0,0,.54,1.319,17.629,17.629,0,0,0,3.63-.944l.15,1.064c-.315.06-.435.09-.885.21-.9.24-1.08.285-2.025.465l-.51.1a27.825,27.825,0,0,0,2.7,4.366l-1.005.569a2.979,2.979,0,0,0-1.035-.614,8.093,8.093,0,0,0-2.625-.391,5.312,5.312,0,0,0-2.849.63,1.7,1.7,0,0,0-.811,1.4,1.5,1.5,0,0,0,.57,1.17,5.081,5.081,0,0,0,2.925.69,9.887,9.887,0,0,0,4.26-.96l.165,1.155a12.436,12.436,0,0,1-4.41.81,5.5,5.5,0,0,1-3.9-1.125,2.418,2.418,0,0,1-.674-1.65,2.8,2.8,0,0,1,1.694-2.445,6.375,6.375,0,0,1,2.91-.555,7.492,7.492,0,0,1,3.105.54,18.287,18.287,0,0,1-1.8-2.94c-.165-.315-.165-.345-.255-.494a44.366,44.366,0,0,1-5.34.389,3.332,3.332,0,0,0-.585.045Z" fill="#4d4d4d"/>
  </g>
  <g id="グループ_162" data-name="グループ 162" transform="translate(-1015.21 -1265.807)">
    <path id="パス_833" data-name="パス 833" d="M1183.153,1516.823a12.063,12.063,0,0,0-3.059-2.145c-.255-.135-.6-.285-1.005-.45a4.451,4.451,0,0,1,.029.54,2.6,2.6,0,0,1-.375,1.635,3.017,3.017,0,0,1-2.534.945,3.908,3.908,0,0,1-2.325-.6,1.963,1.963,0,0,1-.81-1.575c0-.99.78-1.77,2.1-2.07a6.527,6.527,0,0,1,1.559-.15,6.676,6.676,0,0,1,1.351.12c-.016-.045-.016-.045-.016-.18a1.25,1.25,0,0,1-.014-.165c-.015-.135-.015-.45-.031-.885-.014-.194-.014-.479-.03-.87-.539.016-1.289.03-1.769.03-.9,0-1.6-.03-2.535-.1a3.613,3.613,0,0,0-.375-.016h-.121l.016-.99a18.406,18.406,0,0,0,3.435.24c.389,0,.915,0,1.335-.015l-.031-2.055c-.434.015-.675.015-1.019.015-1.095,0-2.31-.045-3.66-.15a1.82,1.82,0,0,0-.27-.015,1.225,1.225,0,0,0-.21.015l.015-1.02a18.631,18.631,0,0,0,3.84.3c.3,0,.81-.014,1.3-.014a11.751,11.751,0,0,0-.074-2.161h1.154a17.052,17.052,0,0,0-.1,2.116,21.125,21.125,0,0,0,4.439-.616l.076,1.02c-.255.016-.255.016-1.036.12a31.114,31.114,0,0,1-3.479.36c.015,1.23.015,1.23.029,2.025a18.119,18.119,0,0,0,4.155-.614l.06,1.035c-.194.014-.345.029-.869.1-1.035.165-2.221.285-3.33.361.03.839.03.839.09,2.3a13.111,13.111,0,0,1,4.184,2.189,5.223,5.223,0,0,0,.51.345Zm-5.069-2.834a5.468,5.468,0,0,0-1.53-.166c-1.486,0-2.46.541-2.46,1.335s.75,1.245,2.054,1.245a2.165,2.165,0,0,0,1.651-.495,1.964,1.964,0,0,0,.3-1.35Z" fill="#4d4d4d"/>
    <path id="パス_834" data-name="パス 834" d="M1188.475,1505.889a9.084,9.084,0,0,0,1.665.09c1.394,0,3.3-.09,4.335-.2a1.826,1.826,0,0,0,.615-.134l.63.869a11.915,11.915,0,0,0-1.62,1.545,27.346,27.346,0,0,1-4.095,3.676l.045.044a6.714,6.714,0,0,1,3.809-1.185c2.385,0,3.9,1.155,3.9,2.985a3.344,3.344,0,0,1-1.949,2.97,7.668,7.668,0,0,1-3.2.63,10.436,10.436,0,0,1-3.614-.7,1.923,1.923,0,0,0,.015-.27,5.739,5.739,0,0,0-.106-.945,8.47,8.47,0,0,0,3.825.93c2.326,0,3.915-1.065,3.915-2.61,0-1.305-1.139-2.1-2.985-2.1a8.9,8.9,0,0,0-4.814,1.65,7.556,7.556,0,0,0-1.17.945l-.75-.93a14.222,14.222,0,0,0,1.95-1.485c1.56-1.365,3.6-3.3,4.979-4.74a1.344,1.344,0,0,1,.135-.149l.12-.12-.03-.015a.8.8,0,0,0-.194.029c-.646.106-2.595.225-4.276.27a5.965,5.965,0,0,0-1.08.076Z" fill="#4d4d4d"/>
    <path id="パス_835" data-name="パス 835" d="M1203.831,1505.514a6.023,6.023,0,0,0,.285.914c.3.885.45,1.305.66,1.98a26.343,26.343,0,0,1,3.225-.839,20.831,20.831,0,0,0-.06-2.656h1.125a14.14,14.14,0,0,0-.075,2.025c0,.015,0,.3.015.48a7.7,7.7,0,0,1,1.125-.09c2.01,0,3.3,1.08,3.3,2.76,0,1.8-1.47,3.09-3.525,3.09a6.352,6.352,0,0,1-2.535-.555,2.146,2.146,0,0,0,.015-.27,6.684,6.684,0,0,0-.09-.855,5.1,5.1,0,0,0,2.52.69,3.038,3.038,0,0,0,1.8-.585,1.818,1.818,0,0,0,.72-1.529c0-1.14-.885-1.816-2.4-1.816a17.66,17.66,0,0,0-4.89,1.066c.766,2.549,1.3,4.665,1.936,7.484a4.628,4.628,0,0,0,.194.645l-1.215.27a53.356,53.356,0,0,0-1.89-8.1,6.351,6.351,0,0,1-.81.27,14.3,14.3,0,0,0-2.055.825l-.39-1.065a16.555,16.555,0,0,0,2.206-.7c.375-.136.524-.166.764-.241a15.025,15.025,0,0,0-1.08-2.849Z" fill="#4d4d4d"/>
    <path id="パス_836" data-name="パス 836" d="M1216.967,1508.678c.54-.015,2.1-.195,3.314-.39a18.246,18.246,0,0,0,.451-3.179v-.2l1.2.135a8.987,8.987,0,0,0-.285,1.441c-.076.434-.18.99-.315,1.71a8.444,8.444,0,0,1,.885-.045,2.87,2.87,0,0,1,2.16.629,3.034,3.034,0,0,1,.734,2.416c0,2.294-.389,4.29-1,5.159a1.568,1.568,0,0,1-1.47.7,5.637,5.637,0,0,1-2.265-.585,3.368,3.368,0,0,0,.029-.525,2.973,2.973,0,0,0-.044-.6,5.623,5.623,0,0,0,2.235.69q.563,0,.854-.72a11.585,11.585,0,0,0,.63-4.17c0-1.59-.449-2.1-1.844-2.1a8.812,8.812,0,0,0-1.081.075,28.319,28.319,0,0,1-2.264,6.361c-.2.359-.51.959-.975,1.8l-1.02-.6a14.347,14.347,0,0,0,1.56-2.715,24.834,24.834,0,0,0,1.65-4.755c-1.29.195-2.01.315-2.145.345a8.5,8.5,0,0,0-.87.2Zm9.854-1.38a13.56,13.56,0,0,1,3.135,5.31l-.96.555a12.257,12.257,0,0,0-3.059-5.384Z" fill="#4d4d4d"/>
    <path id="パス_837" data-name="パス 837" d="M1233.173,1507.944a6.669,6.669,0,0,0,1.155.074,34.834,34.834,0,0,0,4.47-.315c-.226-.509-.466-1.11-.735-1.785-.165-.389-.255-.6-.39-.87l1.184-.165a4.77,4.77,0,0,0,.435,1.351,12.268,12.268,0,0,0,.54,1.319,17.629,17.629,0,0,0,3.63-.944l.15,1.064c-.315.06-.434.09-.884.21-.9.24-1.08.285-2.026.465-.359.075-.359.075-.51.1a27.846,27.846,0,0,0,2.7,4.366l-1.005.569a2.987,2.987,0,0,0-1.035-.614,8.1,8.1,0,0,0-2.625-.391,5.318,5.318,0,0,0-2.85.63,1.705,1.705,0,0,0-.811,1.4,1.5,1.5,0,0,0,.571,1.17,5.079,5.079,0,0,0,2.925.69,9.886,9.886,0,0,0,4.259-.96l.165,1.155a12.433,12.433,0,0,1-4.41.81c-1.829,0-3.21-.4-3.9-1.125a2.414,2.414,0,0,1-.675-1.65,2.8,2.8,0,0,1,1.694-2.445,6.378,6.378,0,0,1,2.91-.555,7.488,7.488,0,0,1,3.1.54,18.427,18.427,0,0,1-1.8-2.94c-.165-.315-.165-.345-.255-.494a44.366,44.366,0,0,1-5.34.389,3.33,3.33,0,0,0-.585.045Z" fill="#4d4d4d"/>
  </g>
  <g id="グループ_163" data-name="グループ 163" transform="translate(-1015.21 -1265.807)">
    <path id="パス_838" data-name="パス 838" d="M1018.818,1348.074a11.954,11.954,0,0,0-1.6.059v-1.184a7.4,7.4,0,0,0,1.635.1h7.139v-7.245h-6.824a12.723,12.723,0,0,0-1.725.075v-1.2a8.2,8.2,0,0,0,1.725.1h7.2c.2,0,.406-.015.781-.03-.031.375-.031.63-.031,1.17v7.68a10.055,10.055,0,0,0,.076,1.365h-1.2v-.9Z" fill="#4d4d4d"/>
    <path id="パス_839" data-name="パス 839" d="M1037.462,1337.244a2.854,2.854,0,0,0-.33.616,14.424,14.424,0,0,1-.69,1.334c.195-.045.195-.045,4.53-.119a1.47,1.47,0,0,0,.78-.106l.645.63c-.135.181-.135.195-.3.735a15.871,15.871,0,0,1-3,5.64,14.689,14.689,0,0,1-5.22,3.75,2.248,2.248,0,0,0-.75-.886,12.744,12.744,0,0,0,5.3-3.8,13.767,13.767,0,0,0,2.58-5.024l-5.055.09a14.476,14.476,0,0,1-3.585,3.9,2.227,2.227,0,0,0-.839-.78,11.111,11.111,0,0,0,3.764-4.11,6.8,6.8,0,0,0,.945-2.19Z" fill="#4d4d4d"/>
  </g>
  <line id="線_24" data-name="線 24" x1="109.032" y1="45.163" transform="translate(33.652 81.022)" fill="none" stroke="#999" stroke-miterlimit="10" stroke-width="0.5"/>
  <line id="線_25" data-name="線 25" x1="45.162" y1="109.032" transform="translate(97.521 17.152)" fill="none" stroke="#999" stroke-miterlimit="10" stroke-width="0.5"/>
  <line id="線_26" data-name="線 26" y1="109.032" x2="45.163" transform="translate(142.684 17.152)" fill="none" stroke="#999" stroke-miterlimit="10" stroke-width="0.5"/>
  <line id="線_27" data-name="線 27" y1="45.163" x2="109.032" transform="translate(142.684 81.022)" fill="none" stroke="#999" stroke-miterlimit="10" stroke-width="0.5"/>
  <line id="線_28" data-name="線 28" x2="109.032" y2="45.163" transform="translate(142.684 126.184)" fill="none" stroke="#999" stroke-miterlimit="10" stroke-width="0.5"/>
  <line id="線_29" data-name="線 29" x2="45.163" y2="109.032" transform="translate(142.684 126.184)" fill="none" stroke="#999" stroke-miterlimit="10" stroke-width="0.5"/>
  <line id="線_30" data-name="線 30" x1="45.162" y2="109.032" transform="translate(97.521 126.184)" fill="none" stroke="#999" stroke-miterlimit="10" stroke-width="0.5"/>
  <line id="線_31" data-name="線 31" x1="109.032" y2="45.163" transform="translate(33.652 126.184)" fill="none" stroke="#999" stroke-miterlimit="10" stroke-width="0.5"/>
  <path id="パス_840" data-name="パス 840" d="M1203.056,1282.959h-90.325l-63.87,63.87v90.325l63.87,63.87h90.325l63.87-63.87v-90.325Z" transform="translate(-1015.21 -1265.807)" fill="none" stroke="#999" stroke-miterlimit="10" stroke-width="0.5"/>
</svg>
