<svg id="lineup_smart_name" xmlns="http://www.w3.org/2000/svg" width="198.481" height="131.927" viewBox="0 0 198.481 131.927">
  <g id="グループ_111" data-name="グループ 111" transform="translate(-865.461 -1065.448)">
    <path id="パス_591" data-name="パス 591" d="M869.6,1071.983a1.483,1.483,0,0,1,.646.988c0,.342-.608,1.824-.646,2.166-.152,1.33-.228,4.711-.228,6.307a.636.636,0,0,0,.722.684c.76,0,9.043-4.028,9.043-6.079,0-.228-.266-1.292-.266-1.406,0-.152.266-.152.531-.152a3.912,3.912,0,0,1,3.914,3.191c0,.874-.57.988-1.671,1.216-.874.19-4.294,1.9-5.016,2.2-1.064.456-6.687,2.47-6.877,2.584-.456.3-.456.493-.456,1.937,0,4.978.722,6,5.7,6a24.2,24.2,0,0,0,5.547-.685,22.319,22.319,0,0,1,2.622-.455,1.47,1.47,0,0,1,1.52,1.329c0,2.85-7.295,2.85-9.651,2.85-7.865,0-8.054-3.382-8.054-8.777,0-1.368.114-7.333.114-8.586a10.809,10.809,0,0,0-.988-5.32,7.727,7.727,0,0,1-.646-1.253c0-.228.531-.343.873-.343C867.437,1070.387,867.968,1070.653,869.6,1071.983Z" fill="#333"/>
    <path id="パス_592" data-name="パス 592" d="M921.349,1096.414c0,.722-.266,1.443-.835,1.443-1.672,0-2.281-3.305-2.584-4.9-.191-.95-1.027-5.091-1.178-5.965-.152-.684-.342-1.178-1.026-1.178-.152,0-4.673,1.064-6.536,1.672a20.109,20.109,0,0,1-2.317.988c-.569,0-4.369-1.672-4.369-2.812,0-.3.266-.38.456-.38.342,0,1.938.152,2.279.152a43.247,43.247,0,0,0,9.233-1.292c.988-.19,1.254-.341,1.254-.987a22.86,22.86,0,0,0-.836-3.8c-.228-.95-.418-1.33-.988-1.33a46.043,46.043,0,0,0-5.243,1.444c-.912,0-3.458-1.368-3.458-2.051,0-.267.418-.267.76-.267a35.232,35.232,0,0,0,5.852-.645c1.33-.3,1.937-.532,1.937-1.254,0-.152-.494-3.762-2.165-5.206a15.482,15.482,0,0,1-1.748-1.367c0-.228,1.14-.646,1.976-.646.759,0,3.419.836,3.533,1.6.076.531.152,2.735.228,3.191.342,2.47.76,2.47,1.292,2.47a23.06,23.06,0,0,0,3.3-1.026c1.634-.722,1.824-.8,2.356-.8,1.216,0,2.28.8,2.28,1.406,0,.76-.76.912-3.534,1.444a31.753,31.753,0,0,0-3.837.835.841.841,0,0,0-.722.95,24.737,24.737,0,0,0,.684,3.42c.341,1.291.494,1.634,1.177,1.634a25.526,25.526,0,0,0,4.864-1.444,7.759,7.759,0,0,1,3.761-.95c2.014,0,2.85,1.026,2.85,1.672,0,1.14-1.558,1.178-2.926,1.178a40.162,40.162,0,0,0-6.839,1.1c-1.595.342-1.672.57-1.672,1.292C918.613,1086.991,921.349,1094.742,921.349,1096.414Z" fill="#333"/>
    <path id="パス_593" data-name="パス 593" d="M954.843,1081.9c0,.76-.57,1.9-1.482,1.9-.57,0-.759-.228-1.33-1.178a9.224,9.224,0,0,0-3.457-3.154c-.114-.076-.342-.228-.342-.38,0-.532,2.166-.57,2.66-.57C952.525,1078.518,954.843,1080.038,954.843,1081.9Zm-4.673,11.778c-.114-.19-.8-.988-.912-1.178a1.613,1.613,0,0,1-.228-.722c0-.151.114-.266.342-.266.342,0,1.785.494,2.09.494,1.634,0,11.853-5.7,20.935-15.995a18.108,18.108,0,0,1,1.633-1.71.139.139,0,0,1,.153.152c0,.418-3.344,8.549-19.074,19.567-.456.3-2.28,2.014-2.774,2.014C951.5,1096.034,951.12,1095.426,950.17,1093.678Zm9.232-19.339c0,.874-.607,1.71-1.215,1.71-.418,0-.608-.152-1.976-1.786a6.61,6.61,0,0,0-3.268-2.014c-.152-.038-.57-.152-.57-.266a4.527,4.527,0,0,1,2.926-.722C959.4,1071.261,959.4,1074.225,959.4,1074.339Z" fill="#333"/>
    <path id="パス_594" data-name="パス 594" d="M999.266,1078.784a20.661,20.661,0,0,0,2.393,1.026c.8,0,1.9-2.66,2.356-3.761a18.775,18.775,0,0,0,1.406-4.56,1.679,1.679,0,0,0-.267-.873c-.114-.229-.227-.343-.227-.457a.309.309,0,0,1,.3-.341,5.925,5.925,0,0,1,2.545,1.216,4.987,4.987,0,0,1,1.634,2.735c0,.3-.114.342-.95.76-.418.228-.532.418-1.52,2.28-.646,1.253-1.368,2.545-2.166,3.8a1.75,1.75,0,0,0-.379.95,1.51,1.51,0,0,0,.645,1.026c3.268,2.887,3.724,4.939,3.724,5.889a1.192,1.192,0,0,1-1.216,1.254c-1.367,0-1.938-.988-3.268-3.344-.38-.684-1.1-1.975-1.633-1.975a1.091,1.091,0,0,0-.8.532c-6.953,8.7-14.552,11.93-14.894,11.93-.114,0-.265-.038-.265-.19s.721-.722,1.177-1.1c6.459-5.054,9.005-8.017,10.069-9.309.912-1.14,2.735-3.495,2.735-4.065,0-.8-3.495-2.888-4.939-3.686-.722-.38-.8-.418-.8-.608,0-.152.076-.3.342-.3A15.281,15.281,0,0,1,999.266,1078.784Z" fill="#333"/>
    <path id="パス_595" data-name="パス 595" d="M1053.949,1080.038a33.486,33.486,0,0,0,9.2,3c.152,0,.8.114.8.266,0,.113-.532.266-.684.3a6.584,6.584,0,0,0-2.888,2.051c-.113.152-.531.95-.722.95-.227,0-8.472-3.989-12.2-10.068-.721-1.216-.836-1.33-1.1-1.33s-.342.076-1.178.95a45.156,45.156,0,0,1-11.246,8.852c-1.292.684-5.244,2.432-5.966,2.432-.113,0-.189-.076-.189-.114s4.065-2.546,4.407-2.774c5.129-3.229,10.562-9.042,11.094-11.892.038-.3.076-.418.342-.418.19,0,3.268,1.178,3.457,1.292.115.038.494.19.494.57a2.373,2.373,0,0,1-.152.532C1047.49,1075.213,1050.758,1078.4,1053.949,1080.038Zm-18.313-9.461c-2.812,0-4.1.076-4.825.114-.114,0-.684.076-.8.076s-.19-.076-.342-.227l-.722-.874c-.152-.19-.152-.19-.152-.266s.038-.076.114-.076c.266,0,1.444.114,1.672.114,1.861.076,3.457.152,5.243.152h1.1c.8,0,1.026-.38,1.026-1.026a6.149,6.149,0,0,0-.3-2.014,5.759,5.759,0,0,1-.227-.76c0-.19.189-.266.418-.266.266,0,1.975.418,2.393.532,1.14.3,1.369.38,1.369.722,0,.228-.038.3-.571.988a.931.931,0,0,0-.265.684c0,.912.3,1.14,1.329,1.14h6.269c.342,0,1.14,0,1.14-1.026a15.8,15.8,0,0,0-.114-1.71c-.037-.19-.228-.988-.228-1.14,0-.19.228-.266.418-.266.266,0,2.85.608,3.268.722s.645.266.645.608c0,.228-.151.38-.569.684a1.216,1.216,0,0,0-.494,1.064c0,1.064.607,1.064,1.216,1.064h1.937c1.672,0,1.862,0,2.432-.646,1.064-1.254,1.177-1.406,1.519-1.406.229,0,3.534,2.014,3.534,2.507,0,.532-.759.532-2.013.532h-7.409c-1.178,0-1.178.608-1.178,1.52,0,.228.038,1.52.038,1.71,0,1.406-1.14,1.634-1.939,1.634-.873,0-1.025-.152-1.025-1.444v-2.622c-.114-.722-.57-.8-1.178-.8h-6.079c-.874,0-1.406,0-1.406,1.064,0,.38.114,2.052.114,2.394,0,.722-.114,1.064-.456,1.292a2.7,2.7,0,0,1-1.443.532c-.647,0-.95-.418-.95-1.178,0-.3.038-1.748.038-2.014,0-1.482,0-2.09-1.178-2.09Zm2.7,19.416a19.443,19.443,0,0,1,2.925,1.785.944.944,0,0,1,.3.57c0,.456-.3.532-1.216.76-.115.038-3.382,2.584-3.99,3.04a23.351,23.351,0,0,1-5.775,3.305.121.121,0,0,1-.114-.114c0-.076,2.013-1.824,2.279-2.089,3.154-3,5.092-6,5.434-7.22A.233.233,0,0,1,1038.334,1089.993Zm1.747-2.014c-2.963,0-4.065.038-4.825.114-.113,0-.684.076-.8.076s-.189-.076-.342-.228l-.721-.874c-.153-.19-.153-.19-.153-.266,0-.038.038-.076.115-.076.265,0,1.443.114,1.671.114,1.862.114,3.457.152,5.244.152h2.849c.38,0,1.14,0,1.14-1.026,0-.456-.228-3.533-.3-3.913,0-.076-.228-.456-.228-.532s.076-.228.379-.228c.267,0,2.926.57,3.306.684.532.114.722.456.722.646,0,.228-.075.3-.646.8-.532.457-.532.685-.532,1.824,0,1.368,0,1.748,1.141,1.748h1.671c1.671,0,1.862,0,2.431-.646,1.065-1.254,1.179-1.405,1.521-1.405.227,0,3.533,2.051,3.533,2.507,0,.532-.76.532-2.014.532h-7.18c-1.14,0-1.14.684-1.14,1.9,0,2.7,0,4.217.075,6.459.038.646.038,1.558.038,2.013,0,1.216-.3,1.938-1.937,1.938-.836,0-.912-.684-.912-1.33,0-.494.114-2.773.114-3.267.038-1.444.038-2.85.038-4.6a23.01,23.01,0,0,0-.076-2.584c-.19-.532-.8-.532-1.1-.532Zm10.145,3.191c0-.114.19-.151.341-.151,1.407,0,10.07,2.393,10.07,5.547,0,1.216-.685,2.165-1.634,2.165-.723,0-.874-.19-2.052-1.937a18.051,18.051,0,0,0-6.535-5.472C1050.378,1091.322,1050.226,1091.209,1050.226,1091.17Z" fill="#333"/>
  </g>
  <g id="グループ_114" data-name="グループ 114" transform="translate(-865.461 -1065.448)">
    <g id="グループ_113" data-name="グループ 113">
      <path id="パス_605" data-name="パス 605" d="M875.318,1146.09a1.811,1.811,0,0,0-1.7-.994,1.665,1.665,0,0,0-1.765,1.5c0,.827.812,1.261,1.471,1.513l.757.295c1.5.588,2.619,1.414,2.619,3.179a3.256,3.256,0,0,1-3.376,3.292,3.29,3.29,0,0,1-3.264-2.956l1.331-.28a2,2,0,1,0,3.992-.056c0-1.134-.911-1.625-1.821-2l-.729-.308c-1.2-.519-2.3-1.205-2.3-2.676a2.88,2.88,0,0,1,3.109-2.731,3.014,3.014,0,0,1,2.718,1.6Z" fill="#333"/>
      <path id="パス_606" data-name="パス 606" d="M885.234,1147.673h-.028l-1.233,6.976h-1.359l2.157-11.01,3.628,8.32,3.628-8.32,2.157,11.01h-1.358l-1.233-6.976h-.028l-3.166,7.2Z" fill="#333"/>
      <path id="パス_607" data-name="パス 607" d="M902.693,1152l-1.205,2.648h-1.415l5.043-11.01,5.043,11.01h-1.415L907.539,1152Zm2.423-5.476-1.877,4.271h3.754Z" fill="#333"/>
      <path id="パス_608" data-name="パス 608" d="M923.023,1154.649h-1.6l-3.11-4.469h-.546v4.469h-1.316v-10.562h1.6a5.581,5.581,0,0,1,2.787.49,2.924,2.924,0,0,1,1.387,2.522,2.874,2.874,0,0,1-2.535,2.955Zm-5.253-5.561h.42c1.345,0,2.8-.253,2.8-1.933,0-1.653-1.569-1.891-2.871-1.891h-.351Z" fill="#333"/>
      <path id="パス_609" data-name="パス 609" d="M932.078,1154.649H930.76v-9.358h-2.507v-1.2h6.332v1.2h-2.507Z" fill="#333"/>
      <path id="パス_610" data-name="パス 610" d="M952.363,1152l-1.2,2.648h-1.415l5.043-11.01,5.043,11.01h-1.415L957.209,1152Zm2.423-5.476-1.877,4.271h3.754Z" fill="#333"/>
      <path id="パス_611" data-name="パス 611" d="M966.061,1143.582l7.928,8.307v-7.8h1.317v11l-7.928-8.306v7.872h-1.317Z" fill="#333"/>
      <path id="パス_612" data-name="パス 612" d="M982.59,1144.087h2.186c3.235,0,5.925,1.709,5.925,5.225,0,3.6-2.634,5.337-5.967,5.337H982.59Zm1.317,9.357h.463c2.689,0,5.014-1.008,5.014-4.077s-2.325-4.076-5.014-4.076h-.463Z" fill="#333"/>
      <path id="パス_613" data-name="パス 613" d="M1011.951,1146.09a1.811,1.811,0,0,0-1.7-.994,1.665,1.665,0,0,0-1.764,1.5c0,.827.812,1.261,1.47,1.513l.757.295c1.5.588,2.619,1.414,2.619,3.179a3.256,3.256,0,0,1-3.376,3.292,3.289,3.289,0,0,1-3.263-2.956l1.331-.28a2,2,0,1,0,3.992-.056c0-1.134-.911-1.625-1.821-2l-.729-.308c-1.2-.519-2.3-1.205-2.3-2.676a2.88,2.88,0,0,1,3.11-2.731,3.014,3.014,0,0,1,2.718,1.6Z" fill="#333"/>
      <path id="パス_614" data-name="パス 614" d="M1021.394,1153.444h3.208v1.205h-4.524v-10.562h1.316Z" fill="#333"/>
      <path id="パス_615" data-name="パス 615" d="M1032.167,1154.649h-1.317v-10.562h1.317Z" fill="#333"/>
      <path id="パス_616" data-name="パス 616" d="M1041.358,1147.673h-.028l-1.233,6.976h-1.359l2.157-11.01,3.628,8.32,3.628-8.32,2.157,11.01h-1.358l-1.233-6.976h-.028l-3.166,7.2Z" fill="#333"/>
    </g>
  </g>
  <g id="グループ_115" data-name="グループ 115" transform="translate(-865.461 -1065.448)">
    <path id="パス_617" data-name="パス 617" d="M896.173,1175.565a2.4,2.4,0,0,0-1.168-.188,4.775,4.775,0,0,0-1.2.268,4,4,0,0,1,2.739.739,2.694,2.694,0,0,1,.913,2.51,8.169,8.169,0,0,1-.818,2.874,22.173,22.173,0,0,1-1.518,2.632q-.7,1.047-1.585,2.135a14.608,14.608,0,0,1-1.96,1.987,12.493,12.493,0,0,1-2.3,1.531,6.7,6.7,0,0,1-2.564.738,4.777,4.777,0,0,1-1.276-.067,2,2,0,0,1-1.115-.6,2.133,2.133,0,0,1-.591-1.263,5.411,5.411,0,0,1,.028-1.423,9.739,9.739,0,0,1,.926-2.806,24.607,24.607,0,0,1,1.491-2.565,20.219,20.219,0,0,1,1.718-2.429,27.128,27.128,0,0,1,2.014-2.19,21.271,21.271,0,0,1,2.189-1.8,6.2,6.2,0,0,1,2.564-1.1,5.669,5.669,0,0,1,1.034-.081,1.419,1.419,0,0,1,.953.3.438.438,0,0,1,.175.308.514.514,0,0,1-.067.309.486.486,0,0,1-.241.2A.433.433,0,0,1,896.173,1175.565Zm-5.1,1.772a17.17,17.17,0,0,0-2.162,2.108,27.765,27.765,0,0,0-1.84,2.4,19.836,19.836,0,0,0-1.49,2.565,11.016,11.016,0,0,0-.927,2.807,5.215,5.215,0,0,0-.08.6,3.206,3.206,0,0,0,.014.658,2.189,2.189,0,0,0,.161.6,1.085,1.085,0,0,0,.389.469,1.678,1.678,0,0,0,1.034.31,5.632,5.632,0,0,0,1.061-.121,7.407,7.407,0,0,0,2.685-1.128,19.037,19.037,0,0,0,2.283-1.8,17.132,17.132,0,0,0,2-2.2,14.5,14.5,0,0,0,1.544-2.524q.242-.484.537-1.168a7.133,7.133,0,0,0,.444-1.411,4.1,4.1,0,0,0,.053-1.4,1.806,1.806,0,0,0-.6-1.128,1.737,1.737,0,0,0-1.208-.47,7.214,7.214,0,0,0-1.343.094.441.441,0,0,1-.43-.135.577.577,0,0,1-.161-.482,10.136,10.136,0,0,0-1.06.671Q891.446,1177.042,891.071,1177.337Z" fill="#333"/>
    <path id="パス_618" data-name="パス 618" d="M895.4,1186.253q.564-.3,1.115-.591t1.195-.671a1.3,1.3,0,0,1,.309-.967,1.061,1.061,0,0,1,.926-.429.547.547,0,0,1,.484.376.652.652,0,0,1-.108.617,1.8,1.8,0,0,1-.564.537.9.9,0,0,0,.457.107,2.467,2.467,0,0,0,1.182-.2,7.776,7.776,0,0,0,1.1-.551q.483-.16.618.108a.64.64,0,0,1-.107.644c-.09.144-.194.327-.31.551a5.075,5.075,0,0,0-.295.685,2.31,2.31,0,0,0-.134.671.6.6,0,0,0,.2.51q.133.162.711,0t1.545-.537q.321-.134.657-.308c.223-.117.452-.229.685-.336a1.411,1.411,0,0,0,.242-.122,1.278,1.278,0,0,1,.308-.133.441.441,0,0,1,.269,0c.081.026.121.121.121.282a.314.314,0,0,1-.121.241,1.41,1.41,0,0,1-.269.189,1.876,1.876,0,0,1-.308.133c-.108.037-.188.064-.242.081l-1.128.51-.739.4a6.209,6.209,0,0,1-.9.4,2.668,2.668,0,0,1-.886.161.771.771,0,0,1-.672-.349.881.881,0,0,1-.161-.417,1.518,1.518,0,0,1,.014-.456,4.019,4.019,0,0,1,.107-.457c.045-.151.085-.3.121-.442l.215-.887c-.09.019-.273.064-.551.135a5.468,5.468,0,0,1-.9.147,4.533,4.533,0,0,1-.927-.013.9.9,0,0,1-.658-.349c-.3.161-.555.3-.752.4s-.4.225-.6.35-.372.224-.5.295a1.633,1.633,0,0,0-.376.2.317.317,0,0,1-.376.041.337.337,0,0,1-.161-.3A.277.277,0,0,1,895.4,1186.253Z" fill="#333"/>
    <path id="パス_619" data-name="パス 619" d="M908.193,1184.964c.072-.035.238-.108.5-.215a4.285,4.285,0,0,1,.765-.241,1.43,1.43,0,0,1,.645-.014c.178.045.242.211.188.5a1.325,1.325,0,0,1-.228.483,1.783,1.783,0,0,0-.255.484,6.017,6.017,0,0,0-.309.859.907.907,0,0,0,.094.832,2.538,2.538,0,0,0,1.007-.107q.551-.162,1.007-.322a5.227,5.227,0,0,0,.51-.269q.375-.215.792-.416a4.485,4.485,0,0,1,.766-.3c.232-.062.376-.04.43.067.071.126.026.26-.135.4a2.571,2.571,0,0,1-.6.388c-.241.118-.487.225-.738.323s-.412.166-.483.2q-.591.294-1.2.577a4.844,4.844,0,0,1-1.248.389.734.734,0,0,1-.779-.242,1.437,1.437,0,0,1-.215-.819,4.338,4.338,0,0,1,.149-1.074c.1-.385.2-.738.308-1.061q-.618.242-1.209.444a10.958,10.958,0,0,0-1.154.469q-.483.216-.967.484a.407.407,0,0,1-.47-.148q-.174-.228.148-.389Zm3.142-5.425a1.572,1.572,0,0,1,.416-.6,2.512,2.512,0,0,1,.632-.417,4.1,4.1,0,0,1,.738-.255c.259-.062.506-.111.738-.147a9.685,9.685,0,0,1,1.907.08,1.47,1.47,0,0,1,.363.054c.134.036.191.135.174.3a.4.4,0,0,1-.134.228.269.269,0,0,1-.242.067,6.4,6.4,0,0,0-1.624-.12,2.881,2.881,0,0,0-1.518.5.881.881,0,0,0-.376.429.96.96,0,0,1-.322.43.422.422,0,0,1-.564,0A.442.442,0,0,1,911.335,1179.539Z" fill="#333"/>
    <path id="パス_620" data-name="パス 620" d="M913.708,1186.28q.7-.348,1.369-.672c.447-.215.9-.411,1.37-.591a9.6,9.6,0,0,1,1.491-.4,8.566,8.566,0,0,1,1.544-.135.656.656,0,0,1,.457.148q.16.147.026.5a.528.528,0,0,1-.483.268,9.5,9.5,0,0,0-1.41,0,4.368,4.368,0,0,0-1.356.323,2.2,2.2,0,0,0-.457.242,2.827,2.827,0,0,0-.443.362,1.137,1.137,0,0,0-.282.443.649.649,0,0,0,.054.51.968.968,0,0,0,.819.537,2.791,2.791,0,0,0,1.033-.026,2.846,2.846,0,0,0,.619-.215l.483-.242a1.831,1.831,0,0,1,.389-.148.411.411,0,0,1,.363.122.568.568,0,0,1,.013.617c-.117.232-.21.429-.282.591l-.376.885q.726-.752,1.531-1.436a12.343,12.343,0,0,1,1.718-1.222c.054-.035.125-.089.215-.161a2.527,2.527,0,0,1,.3-.2,1.236,1.236,0,0,1,.323-.135.3.3,0,0,1,.268.041c.125.09.17.179.134.269a.837.837,0,0,1-.188.268q-.7.376-1.342.806a12.377,12.377,0,0,0-1.263.966,15.975,15.975,0,0,0-1.329,1.262,15.319,15.319,0,0,0-1.168,1.4l-.7,1.611q-.322.805-.645,1.638t-.7,1.639c-.054.107-.121.236-.2.388a3.507,3.507,0,0,1-.269.43,1.174,1.174,0,0,1-.35.322.692.692,0,0,1-.443.095.491.491,0,0,1-.416-.3,1.081,1.081,0,0,1-.054-.537,3.6,3.6,0,0,1,.135-.591c.063-.2.12-.358.174-.483a13.975,13.975,0,0,1,1.276-2.35,24.777,24.777,0,0,1,1.624-2.162l.913-2.6a6.9,6.9,0,0,1-1.033.2,4.439,4.439,0,0,1-1.034.013,2.328,2.328,0,0,1-.873-.268,1.456,1.456,0,0,1-.551-1.826c-.142.089-.291.183-.442.282a.462.462,0,0,1-.39.094.29.29,0,0,1-.322-.229A.272.272,0,0,1,913.708,1186.28Z" fill="#333"/>
    <path id="パス_621" data-name="パス 621" d="M925.451,1184.964c.072-.035.238-.108.5-.215a4.285,4.285,0,0,1,.765-.241,1.426,1.426,0,0,1,.644-.014c.179.045.243.211.189.5a1.312,1.312,0,0,1-.229.483,1.808,1.808,0,0,0-.254.484,6.011,6.011,0,0,0-.309.859.9.9,0,0,0,.094.832,2.541,2.541,0,0,0,1.007-.107q.551-.162,1.006-.322a5.091,5.091,0,0,0,.511-.269q.375-.215.792-.416a4.42,4.42,0,0,1,.766-.3c.232-.062.376-.04.429.067.072.126.027.26-.134.4a2.591,2.591,0,0,1-.6.388c-.241.118-.487.225-.738.323s-.412.166-.484.2q-.59.294-1.2.577a4.844,4.844,0,0,1-1.248.389.733.733,0,0,1-.779-.242,1.437,1.437,0,0,1-.215-.819,4.38,4.38,0,0,1,.148-1.074c.1-.385.2-.738.309-1.061q-.618.242-1.209.444a10.879,10.879,0,0,0-1.154.469q-.484.216-.967.484a.406.406,0,0,1-.47-.148q-.174-.228.148-.389Zm3.142-5.425a1.561,1.561,0,0,1,.416-.6,2.494,2.494,0,0,1,.632-.417,4.1,4.1,0,0,1,.738-.255c.259-.062.506-.111.738-.147a9.672,9.672,0,0,1,1.906.08,1.47,1.47,0,0,1,.364.054c.134.036.191.135.174.3a.4.4,0,0,1-.134.228.27.27,0,0,1-.242.067,6.4,6.4,0,0,0-1.624-.12,2.88,2.88,0,0,0-1.518.5.871.871,0,0,0-.376.429.967.967,0,0,1-.322.43.422.422,0,0,1-.564,0A.442.442,0,0,1,928.593,1179.539Z" fill="#333"/>
    <path id="パス_622" data-name="パス 622" d="M930.841,1186.28l1.02-.551q.726-.389,1.491-.738a6.768,6.768,0,0,1,1.41-.483q.643-.135.8.214a.531.531,0,0,1-.067.524,2.287,2.287,0,0,0-.255.47l-.322.752a6.5,6.5,0,0,1,.7-.376l.7-.323q.86-.455,1.773-.966a8.666,8.666,0,0,1,1.852-.779,1.33,1.33,0,0,1,.619-.013.774.774,0,0,1,.416.241.691.691,0,0,1,.147.457,1.1,1.1,0,0,1-.215.6,4.453,4.453,0,0,1-.523.671q-.284.3-.577.645a1.663,1.663,0,0,1-.189.215c-.09.089-.183.192-.282.308s-.188.234-.269.35a.856.856,0,0,0-.147.308,1.029,1.029,0,0,0,.47,0,4.343,4.343,0,0,0,.564-.147c.188-.063.366-.13.537-.2s.3-.125.389-.161l1.1-.484c.072-.036.165-.09.283-.161s.236-.139.362-.2.246-.12.362-.174a.713.713,0,0,1,.282-.081.214.214,0,0,1,.242.242.422.422,0,0,1-.215.376c-.161.09-.331.174-.51.255s-.367.166-.564.255q-.376.216-.725.376t-.726.35c-.142.071-.371.173-.684.308a4.739,4.739,0,0,1-.94.3,1.559,1.559,0,0,1-.819-.026c-.232-.081-.349-.3-.349-.659a.892.892,0,0,1,.134-.483,3.491,3.491,0,0,1,.309-.416,5.1,5.1,0,0,1,.376-.39q.2-.187.363-.348a6.11,6.11,0,0,0,.537-.565,2.206,2.206,0,0,0,.484-.805,5.561,5.561,0,0,0-1.464.376,14.837,14.837,0,0,0-1.357.618q-.779.376-1.611.846a6.229,6.229,0,0,0-1.45,1.114.531.531,0,0,1-.282.121.512.512,0,0,1-.282-.054.435.435,0,0,1-.2-.2.5.5,0,0,1-.014-.35.835.835,0,0,1,.4-.429,4.973,4.973,0,0,0,.268-.5,1.615,1.615,0,0,1,.189-.335c.035-.125.071-.256.107-.39a3.08,3.08,0,0,0,.08-.416c-.2.054-.393.116-.591.187s-.348.126-.456.162c-.251.107-.5.211-.752.308s-.5.211-.751.336c-.144.072-.274.144-.39.215a2.133,2.133,0,0,1-.39.188.425.425,0,0,1-.308.041.516.516,0,0,1-.228-.122.232.232,0,0,1-.067-.2C930.648,1186.4,930.716,1186.334,930.841,1186.28Z" fill="#333"/>
    <path id="パス_623" data-name="パス 623" d="M943.06,1186.28c.213-.107.487-.246.818-.417s.685-.335,1.061-.5.739-.313,1.087-.457.64-.259.873-.349q.188-.079.671-.242c.323-.107.662-.2,1.021-.295a7.733,7.733,0,0,1,1.007-.188,1.1,1.1,0,0,1,.685.081q.322.3.12.537a.814.814,0,0,1-.5.3l-1.209.135a2.786,2.786,0,0,0-.631.254c-.169.1-.362.22-.577.363q-.135.108-.469.443t-.659.725a4.329,4.329,0,0,0-.51.752q-.187.363,0,.524a.606.606,0,0,0,.524.054,4.265,4.265,0,0,0,.738-.242c.25-.108.484-.219.7-.336a4.3,4.3,0,0,0,.429-.255,5.763,5.763,0,0,0,1.262-1.021.355.355,0,0,1,.523-.067.453.453,0,0,1,.175.551.73.73,0,0,1-.187.322l-.256.255a.935.935,0,0,0-.2.336q-.108.189-.054.282a.262.262,0,0,0,.188.121,2.952,2.952,0,0,0,.94-.054,10.753,10.753,0,0,0,1.168-.3,11.627,11.627,0,0,0,1.2-.444q.591-.255,1.021-.47a1.094,1.094,0,0,0,.295-.147,2.2,2.2,0,0,1,.389-.2,1.045,1.045,0,0,1,.39-.081.276.276,0,0,1,.268.161.219.219,0,0,1-.013.3.943.943,0,0,1-.336.227c-.144.064-.286.121-.43.175s-.251.1-.322.135q-.457.215-.913.416l-.94.416q-.321.135-.7.322a5.948,5.948,0,0,1-.778.322,4.256,4.256,0,0,1-.82.188,1.539,1.539,0,0,1-.765-.08.8.8,0,0,1-.537-.524,1.373,1.373,0,0,1,.027-.711l-.726.429q-.456.268-.953.551a2.6,2.6,0,0,1-1.034.335,1.4,1.4,0,0,1-.859-.215.887.887,0,0,1-.4-.751,1.593,1.593,0,0,1,.215-.685,5.862,5.862,0,0,1,.551-.86,6.517,6.517,0,0,1,.738-.818,3.754,3.754,0,0,1,.752-.565,5.367,5.367,0,0,0-.6.243q-.417.188-.94.456t-1.1.55q-.578.282-1.061.524a.32.32,0,0,1-.268.04.355.355,0,0,1-.2-.134.3.3,0,0,1-.054-.215A.27.27,0,0,1,943.06,1186.28Z" fill="#333"/>
    <path id="パス_624" data-name="パス 624" d="M954.893,1186.253a17.259,17.259,0,0,0,1.611-.832q.778-.458,1.558-.994a14.343,14.343,0,0,1,.832-1.451c.3-.464.6-.922.886-1.369q.456-.618.913-1.249t.94-1.249q.4-.536.873-1.087a4.013,4.013,0,0,1,1.088-.9,2.211,2.211,0,0,1,.724-.228.5.5,0,0,1,.591.389.858.858,0,0,1,.014.578,2.436,2.436,0,0,1-.282.564,5.974,5.974,0,0,1-.4.537c-.143.171-.259.318-.349.443a21.483,21.483,0,0,1-2.4,2.86,24.938,24.938,0,0,1-2.86,2.457c-.09.215-.192.443-.309.685a6.413,6.413,0,0,0-.308.766,4.463,4.463,0,0,0-.189.792,2.017,2.017,0,0,0,.028.738c.2-.035.376-.063.537-.08.142-.019.277-.031.4-.041a.8.8,0,0,0,.242-.04,12.131,12.131,0,0,0,1.584-.43q.78-.269,1.532-.591a2.208,2.208,0,0,0,.509-.215.483.483,0,0,1,.511-.026c.2.144.224.273.08.389a1.741,1.741,0,0,1-.4.256l-3.115,1.154c-.3.107-.6.22-.887.336a2.782,2.782,0,0,1-.886.2.872.872,0,0,1-.644-.121.9.9,0,0,1-.336-.456,1.559,1.559,0,0,1-.068-.618,3.422,3.422,0,0,1,.108-.631,9.33,9.33,0,0,1,.483-1.289,20.8,20.8,0,0,1-2.309,1.316.417.417,0,0,1-.443-.175Q954.571,1186.414,954.893,1186.253Zm5.451-3.679a20.737,20.737,0,0,0,2.309-2.552,8.982,8.982,0,0,0,.913-1.289c.037-.089.09-.2.162-.335a3.639,3.639,0,0,0,.188-.417,2.925,2.925,0,0,0-.712.511c-.224.215-.407.394-.551.537a14.377,14.377,0,0,0-1.154,1.3q-.537.684-1.074,1.409c-.2.287-.386.568-.565.846s-.348.56-.509.846q.242-.187.5-.417C960.018,1182.865,960.183,1182.718,960.344,1182.574Z" fill="#333"/>
    <path id="パス_625" data-name="パス 625" d="M973.608,1181.016a18.5,18.5,0,0,1,2.471-1.839q1.316-.819,2.659-1.518.939-.483,1.933-.913a20.028,20.028,0,0,1,2.041-.751l.269-.322q.483-.511,1.034-.994a3.836,3.836,0,0,1,1.2-.725,3.593,3.593,0,0,1,.47-.108,2.251,2.251,0,0,1,.591-.027.881.881,0,0,1,.469.175c.125.1.153.265.081.5a.405.405,0,0,1-.242.269.528.528,0,0,1-.4,0,.825.825,0,0,0-.511-.054,2.041,2.041,0,0,0-.55.2,3.543,3.543,0,0,0-.551.362q-.269.216-.483.376a11.6,11.6,0,0,1,1.423-.133,6.088,6.088,0,0,1,1.464.12,3.742,3.742,0,0,1,1.3.537,2.529,2.529,0,0,1,.913,1.114,1.587,1.587,0,0,1,.04,1.289,3.509,3.509,0,0,1-.78,1.142,7.316,7.316,0,0,1-1.154.94q-.632.415-1.114.685-1.128.7-2.3,1.289t-2.377,1.128a17.217,17.217,0,0,1,2.431-.31,4.785,4.785,0,0,1,2.242.39,1.891,1.891,0,0,1,.886.684,1.984,1.984,0,0,1,.335.954,2.344,2.344,0,0,1-.161,1.034,2.632,2.632,0,0,1-.6.926,6.329,6.329,0,0,1-2.39,1.491,28.061,28.061,0,0,1-2.713.819,28.425,28.425,0,0,1-4.753.886,1.481,1.481,0,0,0,.4.618.43.43,0,0,1,.187.376.409.409,0,0,1-.187.295.626.626,0,0,1-.39.094.575.575,0,0,1-.416-.255,2.081,2.081,0,0,1-.3-.51,5.2,5.2,0,0,1-.187-.565,13.075,13.075,0,0,1-1.5.081,9.978,9.978,0,0,1-1.5-.107c-.144-.019-.336-.045-.577-.081a4.343,4.343,0,0,1-.726-.174,2.032,2.032,0,0,1-.617-.322.612.612,0,0,1-.256-.5c0-.234.064-.372.189-.416a.569.569,0,0,1,.416.026,3.438,3.438,0,0,1,.469.242,2.949,2.949,0,0,0,.376.2,5.793,5.793,0,0,0,1.558.322q.805.053,1.611.053h.484a6.646,6.646,0,0,1,.282-2.067q.309-1.047.6-1.826l.134-.4c-.125.053-.251.1-.376.147a4.088,4.088,0,0,1-.4.121h-.028a.81.81,0,0,1-.5-.04c-.134-.062-.193-.2-.174-.416a.4.4,0,0,1,.174-.322,1.678,1.678,0,0,1,.416-.229,3.058,3.058,0,0,1,.524-.147c.187-.036.353-.071.5-.108l.349-.081q.456-1.047.98-2.041t1.114-1.96q.564-.941,1.155-1.866t1.262-1.786c-.5.2-.984.4-1.45.617s-.9.43-1.315.645a17.564,17.564,0,0,0-1.921,1.088,17.985,17.985,0,0,0-1.785,1.329,2.484,2.484,0,0,0-.309.309c-.117.134-.238.269-.363.4a2.788,2.788,0,0,1-.389.349.523.523,0,0,1-.39.12.437.437,0,0,1-.416-.322A.471.471,0,0,1,973.608,1181.016Zm3.143,7.841a3.207,3.207,0,0,0-.081,1.128q1.234-.107,2.457-.322a18.355,18.355,0,0,0,2.4-.591q.591-.161,1.289-.389a10.584,10.584,0,0,0,1.357-.55,7.933,7.933,0,0,0,1.222-.739,3.178,3.178,0,0,0,.886-.98,1.107,1.107,0,0,0,.161-1.114,1.568,1.568,0,0,0-.779-.645,4.434,4.434,0,0,0-1.194-.309,9.477,9.477,0,0,0-1.088-.081q-1.1.055-2.256.2a18.071,18.071,0,0,0-2.282.443l-1.182.457h-.027a14.045,14.045,0,0,0-.577,1.719A10.4,10.4,0,0,0,976.751,1188.857Zm5.344-11.091q-.94,1.209-1.759,2.485a27.727,27.727,0,0,0-1.49,2.618q-.216.376-.4.752t-.348.752q1.5-.51,2.967-1.154t2.86-1.371a19.324,19.324,0,0,0,1.759-.993,12.185,12.185,0,0,0,1.6-1.209,8.493,8.493,0,0,0,.685-.711,1.61,1.61,0,0,0,.417-.873.743.743,0,0,0-.1-.457,1.448,1.448,0,0,0-.322-.388,2.835,2.835,0,0,0-.43-.31,3.887,3.887,0,0,0-.416-.215,4.963,4.963,0,0,0-1.987-.348,9,9,0,0,0-2.067.294q-.27.27-.511.551C982.39,1177.378,982.237,1177.57,982.095,1177.766Z" fill="#333"/>
    <path id="パス_626" data-name="パス 626" d="M988.4,1186.253a17.258,17.258,0,0,0,1.611-.832q.777-.458,1.558-.994a14.343,14.343,0,0,1,.832-1.451c.3-.464.6-.922.886-1.369q.456-.618.913-1.249t.94-1.249q.4-.536.873-1.087a4.013,4.013,0,0,1,1.088-.9,2.211,2.211,0,0,1,.724-.228.5.5,0,0,1,.591.389.864.864,0,0,1,.014.578,2.436,2.436,0,0,1-.282.564,5.974,5.974,0,0,1-.4.537c-.143.171-.259.318-.349.443a21.483,21.483,0,0,1-2.4,2.86,24.938,24.938,0,0,1-2.86,2.457c-.09.215-.192.443-.309.685a6.413,6.413,0,0,0-.308.766,4.369,4.369,0,0,0-.189.792,2.014,2.014,0,0,0,.028.738c.2-.035.376-.063.537-.08.142-.019.277-.031.4-.041a.8.8,0,0,0,.242-.04,12.134,12.134,0,0,0,1.584-.43q.78-.269,1.532-.591a2.208,2.208,0,0,0,.509-.215.483.483,0,0,1,.511-.026c.2.144.224.273.08.389a1.739,1.739,0,0,1-.4.256l-3.115,1.154c-.3.107-.6.22-.887.336a2.781,2.781,0,0,1-.886.2.872.872,0,0,1-.644-.121.9.9,0,0,1-.336-.456,1.559,1.559,0,0,1-.068-.618,3.417,3.417,0,0,1,.108-.631A9.33,9.33,0,0,1,991,1185.5a20.8,20.8,0,0,1-2.309,1.316.417.417,0,0,1-.443-.175Q988.073,1186.414,988.4,1186.253Zm5.451-3.679a20.742,20.742,0,0,0,2.309-2.552,8.987,8.987,0,0,0,.913-1.289c.037-.089.09-.2.162-.335a3.629,3.629,0,0,0,.188-.417,2.925,2.925,0,0,0-.712.511c-.224.215-.407.394-.551.537a14.221,14.221,0,0,0-1.154,1.3q-.537.684-1.074,1.409c-.2.287-.386.568-.565.846s-.348.56-.509.846q.241-.187.5-.417C993.52,1182.865,993.685,1182.718,993.846,1182.574Z" fill="#333"/>
    <path id="パス_627" data-name="パス 627" d="M996.278,1186.253q.484-.242,1.007-.537a8.8,8.8,0,0,1,1.061-.51,2.742,2.742,0,0,1,.994-1.008,4.06,4.06,0,0,1,1.369-.523,3.524,3.524,0,0,1,.873,0,1.069,1.069,0,0,1,.766.4.419.419,0,0,1,.093.456,1.274,1.274,0,0,1-.322.457,3.142,3.142,0,0,1-.511.389c-.187.117-.326.2-.416.256a3.824,3.824,0,0,1-1.06.442,3.411,3.411,0,0,1-1.168.095h-.107a1.509,1.509,0,0,0,.483.913,2.329,2.329,0,0,0,.886.469,3.23,3.23,0,0,0,1.06.122,8.259,8.259,0,0,0,1.008-.108,12.084,12.084,0,0,0,1.262-.336,11.887,11.887,0,0,0,1.209-.47c.178-.089.362-.174.55-.255a5.47,5.47,0,0,0,.524-.255.513.513,0,0,1,.389.053c.134.073.147.189.04.35a.684.684,0,0,1-.375.3c-.161.054-.3.107-.43.161l-1.343.591a23.029,23.029,0,0,1-2.444.806,4.087,4.087,0,0,1-1.087.067,3.145,3.145,0,0,1-1.021-.242,2.68,2.68,0,0,1-.846-.577,2.117,2.117,0,0,1-.537-.967c-.037-.143-.067-.286-.094-.43a.86.86,0,0,1,.014-.4,5.181,5.181,0,0,0-.578.308l-.5.309a2.007,2.007,0,0,0-.349.2.362.362,0,0,1-.43.014.309.309,0,0,1-.147-.3A.249.249,0,0,1,996.278,1186.253Zm2.74-.752a3.12,3.12,0,0,0,1.249-.322,3.936,3.936,0,0,0,1.06-.752,1.516,1.516,0,0,0-.738-.081,2.153,2.153,0,0,0-.672.215,2.085,2.085,0,0,0-.551.416A1.66,1.66,0,0,0,999.018,1185.5Z" fill="#333"/>
    <path id="パス_628" data-name="パス 628" d="M1005.753,1186.28l1.02-.551q.726-.389,1.491-.738a6.769,6.769,0,0,1,1.41-.483q.645-.135.806.214a.533.533,0,0,1-.068.524,2.29,2.29,0,0,0-.255.47l-.322.752a6.491,6.491,0,0,1,.7-.376l.7-.323q.858-.455,1.772-.966a8.67,8.67,0,0,1,1.853-.779,1.325,1.325,0,0,1,.618-.013.774.774,0,0,1,.416.241.691.691,0,0,1,.147.457,1.1,1.1,0,0,1-.215.6,4.453,4.453,0,0,1-.523.671q-.283.3-.577.645a1.587,1.587,0,0,1-.189.215c-.09.089-.183.192-.282.308s-.187.234-.269.35a.874.874,0,0,0-.147.308,1.029,1.029,0,0,0,.47,0,4.342,4.342,0,0,0,.564-.147c.188-.063.366-.13.537-.2s.3-.125.389-.161l1.1-.484c.071-.036.165-.09.282-.161s.236-.139.362-.2.246-.12.362-.174a.717.717,0,0,1,.283-.081.213.213,0,0,1,.241.242.42.42,0,0,1-.215.376c-.161.09-.331.174-.51.255s-.367.166-.564.255c-.251.144-.492.269-.725.376s-.474.224-.725.35c-.143.071-.372.173-.685.308a4.753,4.753,0,0,1-.939.3,1.563,1.563,0,0,1-.82-.026c-.232-.081-.348-.3-.348-.659a.89.89,0,0,1,.133-.483,3.49,3.49,0,0,1,.309-.416,5.091,5.091,0,0,1,.376-.39q.2-.187.363-.348a5.978,5.978,0,0,0,.537-.565,2.206,2.206,0,0,0,.484-.805,5.561,5.561,0,0,0-1.464.376,14.845,14.845,0,0,0-1.357.618q-.779.376-1.611.846a6.23,6.23,0,0,0-1.45,1.114.531.531,0,0,1-.281.121.513.513,0,0,1-.283-.054.44.44,0,0,1-.2-.2.5.5,0,0,1-.013-.35.828.828,0,0,1,.4-.429,4.758,4.758,0,0,0,.268-.5,1.618,1.618,0,0,1,.189-.335c.035-.125.071-.256.107-.39a3.089,3.089,0,0,0,.08-.416c-.2.054-.393.116-.59.187s-.349.126-.456.162c-.251.107-.5.211-.752.308s-.5.211-.752.336c-.144.072-.274.144-.39.215a2.134,2.134,0,0,1-.39.188.426.426,0,0,1-.308.041.515.515,0,0,1-.228-.122.232.232,0,0,1-.067-.2C1005.561,1186.4,1005.628,1186.334,1005.753,1186.28Z" fill="#333"/>
    <path id="パス_629" data-name="パス 629" d="M1018.023,1186.253a8.482,8.482,0,0,0,1.329-.591q.632-.35,1.3-.645a5.479,5.479,0,0,1,.886-.348l.913-.269a3.484,3.484,0,0,1,1.155-.188.487.487,0,0,1,.4.215.392.392,0,0,1,.027.457.461.461,0,0,1-.242.227,1.13,1.13,0,0,1-.362.081c-.135.009-.269.014-.4.014h-.362a1.966,1.966,0,0,0-.765.227,4.068,4.068,0,0,0-.739.5,3.454,3.454,0,0,0-.832.86c-.018.036-.059.112-.121.228s-.121.238-.175.363a2.233,2.233,0,0,0-.12.349.237.237,0,0,0,.04.241.26.26,0,0,0,.255.041,1.472,1.472,0,0,0,.35-.134c.116-.063.223-.125.322-.189s.165-.1.2-.12a10.1,10.1,0,0,0,.859-.564q.4-.3.832-.591l1.263-1.128q.456-.939.967-1.866t1.047-1.84q.376-.617.752-1.235t.805-1.236c.269-.376.564-.764.886-1.168a3.372,3.372,0,0,1,1.128-.927c.125-.035.246-.071.363-.107a.64.64,0,0,1,.363,0,.7.7,0,0,1,.429.215.656.656,0,0,1,.148.39,1.53,1.53,0,0,1-.054.483,1.8,1.8,0,0,1-.175.443,11.091,11.091,0,0,1-1.033,1.477q-.579.7-1.169,1.4-.912,1.1-1.839,2.135t-1.947,2q-.135.376-.255.726c-.081.232-.166.474-.255.724-.036.09-.077.2-.121.323s-.09.259-.135.4a3.65,3.65,0,0,0-.107.43.957.957,0,0,0-.013.348,3.249,3.249,0,0,0,.98-.215q.5-.187.927-.376a13.233,13.233,0,0,0,1.517-.712l1.463-.792a.518.518,0,0,1,.229-.067.861.861,0,0,1,.268.014.178.178,0,0,1,.148.134.435.435,0,0,1-.081.3.739.739,0,0,1-.4.309q-.268.094-.456.175-.752.376-1.5.779t-1.476.805q-.216.108-.484.256a4.364,4.364,0,0,1-.564.255,1.7,1.7,0,0,1-.577.107.928.928,0,0,1-.524-.161.826.826,0,0,1-.309-.457,1.552,1.552,0,0,1-.027-.577,3.234,3.234,0,0,1,.134-.591c.064-.188.121-.353.175-.5.017-.072.036-.139.054-.2a1.978,1.978,0,0,1,.081-.228l-1.343,1.154c-.144.144-.305.291-.484.444a3.72,3.72,0,0,1-.577.4,2.554,2.554,0,0,1-.632.255,1.3,1.3,0,0,1-.644,0,.892.892,0,0,1-.657-.51,1.164,1.164,0,0,1,.026-.778,3.36,3.36,0,0,1,.47-.873,6.842,6.842,0,0,1,.7-.82l-.671.269c-.18.09-.394.211-.644.362a1.6,1.6,0,0,1-.672.256.264.264,0,0,1-.269.013.348.348,0,0,1-.147-.174.382.382,0,0,1-.013-.228A.247.247,0,0,1,1018.023,1186.253Zm7.626-2.632q.7-.726,1.37-1.49t1.289-1.572q.267-.375.537-.738t.51-.766a5.726,5.726,0,0,1,.309-.509,1.815,1.815,0,0,0,.281-.645,1.679,1.679,0,0,0-.7.51q-.322.376-.51.591a16.9,16.9,0,0,0-1.154,1.4q-.537.726-1.02,1.5l-1.075,1.88Z" fill="#333"/>
  </g>
  <g id="グループ_492" data-name="グループ 492" transform="translate(-864.635 -1065.279)">
    <path id="パス_2128" data-name="パス 2128" d="M872.355,1122.748c-.324,0-.72-.108-.72-.576,0-.576.595-.576.72-.576h2.719c.72,0,.72.486.72.576,0,.576-.522.576-.72.576Z" fill="#333"/>
    <path id="パス_2129" data-name="パス 2129" d="M886.875,1119.059c-.63,0-.63.144-.63,1.206,0,.468.145.558.324.594.649.162,2.773.684,2.773,2.089,0,.414-.252,1.026-.7,1.026-.27,0-.306-.09-.649-.954a3.228,3.228,0,0,0-1.566-1.783c-.2,0-.2.036-.2.991,0,.99.107,5.347.107,6.265,0,.253,0,1.189-.972,1.189-.36,0-.36-.252-.36-.522,0-.234.054-1.423.054-1.675.036-1.422.089-4.141.089-5.474,0-.072,0-.306-.179-.306-.09,0-.144.09-.594.757-1.026,1.512-2.81,3.421-3.151,3.421-.054,0-.073-.036-.073-.091,0-.071,1.009-1.368,1.135-1.548a18.432,18.432,0,0,0,2.412-4.9c0-.27-.09-.288-.845-.288-.163,0-1.225.018-1.711.054-.054,0-.325.054-.378.054-.073,0-.09-.054-.162-.126l-.342-.415a.182.182,0,0,1-.072-.126c0-.036.036-.036.053-.036.127,0,.685.055.811.072.684.018,1.494.054,2.161.054h.4c.181,0,.487,0,.559-.306.018-.108.018-1.44.018-1.638,0-.558-.073-.846-.558-.846-.072,0-1.783.162-2.106.162-.145,0-.595,0-.595-.09,0-.072.126-.108.2-.126a15.643,15.643,0,0,0,4.411-1.549,10.628,10.628,0,0,1,.99-.666,6.1,6.1,0,0,1,1.585,1.35c0,.108-.09.162-.234.162-.09,0-.414-.036-.5-.036a9.407,9.407,0,0,0-1.837.541c-.27.2-.27.99-.27,1.548,0,1.35,0,1.494.541,1.494.773,0,.773,0,1.223-.558.253-.324.414-.5.505-.5s1.548.991,1.548,1.3c0,.235-.378.235-.972.235Zm7.887-3.565a.625.625,0,0,0,.576-.234c.324-.4.36-.433.45-.433a9.161,9.161,0,0,1,1.17.811.4.4,0,0,1,.126.27c0,.144-.126.216-.252.27-.395.2-.395.306-.395,1.4,0,3.4,0,3.889.126,8.229,0,.18.053,1.044.053,1.242a.745.745,0,0,1-.269.684,1.741,1.741,0,0,1-.847.324c-.306,0-.306-.324-.306-.594,0-.378-.216-.378-.5-.378h-2.412c-.522,0-.54.162-.54.666,0,.648-.667.882-1.008.882a.412.412,0,0,1-.433-.486c0-.162.072-.936.072-1.116.036-.846.072-5.294.072-5.816,0-1.044,0-3.187-.144-5.527,0-.09-.09-.559-.09-.667,0-.126.09-.162.217-.162a2.774,2.774,0,0,1,.792.306,1.751,1.751,0,0,0,1.116.325Zm-.073,11.109c.523,0,.523-.288.523-.684v-9.525c0-.36-.307-.432-.523-.432h-2.448a.459.459,0,0,0-.5.27c-.054.144-.054,5.347-.054,6.158,0,1.89.036,3.781.054,3.871.054.342.36.342.522.342Z" fill="#333"/>
    <path id="パス_2130" data-name="パス 2130" d="M905.209,1126.945c0,1.134-.612,2.557-1.387,2.557a.962.962,0,0,1-.845-.955c0-.234.035-.288.666-1.3a5.71,5.71,0,0,0,.719-2.557c0-.108-.053-.27-.053-.324a.038.038,0,0,1,.036-.036,2.258,2.258,0,0,1,.738,1.458A7.192,7.192,0,0,1,905.209,1126.945ZM907.964,1116c.359,0,.468-.018.683-.4a5.133,5.133,0,0,0,.649-1.891c0-.054-.054-.288-.054-.342,0-.072.09-.09.144-.09.126,0,.955.252,1.278.342.54.162.829.234.829.486,0,.216-.055.234-.648.5a6.258,6.258,0,0,0-1.531,1.279c0,.108.126.108.27.108h5.077a.41.41,0,0,0,.433-.234c.126-.18.288-.414.486-.414.144,0,1.368.576,1.368.882,0,.144-.2.288-.288.342-.234.162-.288.234-.288.684,0,.18.09,1.963.09,2.071a.907.907,0,0,1-.972.846c-.414,0-.414-.27-.432-.522-.018-.414-.4-.414-.54-.414h-7.077c-.252,0-.5.036-.576.342-.017.072-.017,1.08-.017,1.134,0,.486.09.63.593.63h7.544c.739,0,.828,0,.973-.126s.774-.972.99-.972,1.693.99,1.693,1.332c0,.234-.361.234-.954.234H907.424c-.559,0-.559.289-.559.595,0,1.224,0,1.368.613,1.368h9.039c.233,0,.414,0,.521-.234.126-.252.234-.486.414-.486.145,0,1.4.612,1.4.954,0,.09-.071.18-.251.306a.812.812,0,0,0-.415.648c-.072.379-.414,2.323-.521,2.755a2.487,2.487,0,0,1-2.485,2.017c-.4,0-.414-.108-.523-.432a2.523,2.523,0,0,0-.954-1.009c-.071-.054-.432-.18-.432-.27,0-.018.018-.054.09-.054.054,0,.144.054.271.072a5.262,5.262,0,0,0,1.134.144c1.512,0,1.674-.882,1.782-1.4.2-1.008.343-2.017.343-2.161,0-.378-.289-.378-.54-.378H907.3c-.343,0-.4.09-.486.306a.914.914,0,0,1-.883.612c-.288,0-.414-.09-.414-.378,0-.09.036-.792.036-.936.054-1.08.072-1.513.072-6.392a7.855,7.855,0,0,0-.126-1.6c-.018-.09-.216-.541-.216-.648,0-.073.054-.073.108-.073a4.039,4.039,0,0,1,1.242.469c.576.36.648.4,1.026.4Zm-.523.486c-.576,0-.593,0-.593,1.458,0,.684,0,.829.593.829h7.077c.558,0,.612,0,.612-1.6,0-.558-.036-.684-.576-.684Zm1.531,11.145c0,.324-.018,1.171-.9,1.171-.395,0-.414-.451-.431-1.279a8.554,8.554,0,0,0-.2-1.6c-.017-.09-.053-.216-.053-.252s.017-.073.036-.073a4.624,4.624,0,0,1,.935.685A1.77,1.77,0,0,1,908.972,1127.629Zm3.475-.414a.861.861,0,0,1-.757.936c-.557,0-.666-.576-.738-1.134a6.6,6.6,0,0,0-.288-1.225c-.018-.071-.2-.359-.2-.414,0-.035.054-.054.107-.054a2.48,2.48,0,0,1,.919.468A1.827,1.827,0,0,1,912.447,1127.215Zm3.115-.54a.8.8,0,0,1-.774.774c-.379,0-.505-.378-.774-1.17a3.169,3.169,0,0,0-.576-1.063,1.737,1.737,0,0,1-.216-.288c0-.036.09-.036.107-.036a3.537,3.537,0,0,1,1.1.36C915.49,1125.847,915.562,1126.513,915.562,1126.675Z" fill="#333"/>
    <path id="パス_2131" data-name="パス 2131" d="M930.2,1118.861a2.837,2.837,0,0,0,.576-.018c.162-.036.756-.649.828-.649.126,0,1.117.775,1.117.973,0,.162-.27.18-.36.18h-5.185a18.648,18.648,0,0,0-1.927.054c-.036,0-.217.036-.271.036s-.089-.054-.143-.126l-.36-.415c-.073-.072-.073-.089-.073-.107,0-.037.019-.055.073-.055.341,0,1.908.109,2.214.109.234,0,.325-.036.325-.163a5.539,5.539,0,0,0-.235-1.134c-.072-.216-.27-.7-.342-.9l.018-.036c.072,0,1.44.648,1.44,1.638,0,.09-.108.432-.108.5,0,.109.126.109.2.109h.7c.235,0,.361-.018.487-.325a8.351,8.351,0,0,0,.45-1.782c0-.306,0-.36.162-.36.054,0,1.026.324,1.116.36a.218.218,0,0,1,.109.18c0,.09-.378.306-.433.378a6.227,6.227,0,0,0-1.008,1.422c0,.127.126.127.2.127Zm-.252-3.043a2.845,2.845,0,0,0,.558-.018c.18-.054.721-.811.81-.811.073,0,1.027.865,1.027,1.063,0,.234-.4.234-.954.234H928.24c-1.584,0-2.088.036-2.268.054-.073,0-.325.054-.378.054-.073,0-.109-.054-.162-.126l-.342-.414c-.055-.054-.09-.09-.09-.108,0-.037.035-.054.071-.054.4,0,2.161.126,2.522.126.323,0,.395-.144.395-.721,0-.144-.053-.972-.107-1.3a2.226,2.226,0,0,1-.109-.378.084.084,0,0,1,.09-.09c.073,0,1.783.414,1.783.774,0,.108-.054.144-.36.324-.217.126-.217.576-.217.757,0,.432.037.63.433.63Zm-2.467,9.651c-.234,0-.486.018-.486.45,0,.468.054,2.52.054,2.935a.778.778,0,0,1-.882.81c-.36,0-.36-.18-.36-.594,0-.883.089-4.754.089-5.546a13.969,13.969,0,0,0-.089-2.611c-.018-.09-.163-.414-.163-.486,0-.036.019-.054.073-.054a7.148,7.148,0,0,1,1.188.5,1.771,1.771,0,0,0,.685.108h2.142c.306,0,.5-.018.666-.252.126-.2.162-.234.306-.234.126,0,1.3.432,1.3.81,0,.072-.09.162-.288.342-.181.181-.181.307-.181,1.3,0,.756.091,4.087.091,4.753,0,.5,0,1.873-1.513,1.873-.2,0-.216-.036-.378-.45a1.17,1.17,0,0,0-.81-.829c-.18-.054-.235-.054-.235-.108,0-.036.037-.054.073-.054h1.278c.378-.054.378-.432.378-.954,0-.2,0-1.332-.018-1.422-.054-.27-.252-.288-.45-.288Zm2.449-2.5c.468,0,.468-.144.468-.792,0-.523,0-.721-.468-.721h-2.467c-.468,0-.468.162-.468.811,0,.522,0,.7.468.7Zm-2.467.486c-.468,0-.468.144-.468.828,0,.54,0,.72.468.72h2.467c.468,0,.468-.144.468-.828,0-.54,0-.72-.468-.72Zm9.777-3.493c.523,0,.523-.072.523-1.351,0-.342-.019-.594-.505-.594h-2.178c-.181,0-.36,0-.469.216a1.026,1.026,0,0,1-.918.594c-.252,0-.36-.216-.36-.468,0-.09.036-.414.036-.45.018-.216.018-2.25.018-2.844a12.587,12.587,0,0,0-.054-1.333c0-.036-.054-.216-.054-.252s0-.108.073-.108c.017,0,1.62.288,1.62.54,0,.09-.288.4-.342.468-.072.108-.072.162-.072.666,0,.361.162.433.5.433h2.179c.649,0,.685-.037.756-.126.127-.127.559-.829.721-.829.09,0,1.332.955,1.332,1.188,0,.253-.306.253-.774.253h-4.214c-.486,0-.522.2-.522.576,0,.954.091.99.522.99h2.125a.9.9,0,0,0,.487-.09c.054-.054.3-.324.378-.324a4.071,4.071,0,0,1,1.224.9c0,.09-.036.108-.27.306-.18.162-.18.288-.18.775,0,.126.035,1.008.035,1.044a.738.738,0,0,1-.792.7c-.252,0-.3-.072-.431-.288-.09-.126-.288-.126-.4-.126h-2.251c-.4,0-.5.108-.5.72,0,.541.216.541.468.541h1.765c.576,0,.631,0,.757-.091.107-.108.557-.612.683-.612.091,0,1.243.756,1.243.954,0,.217-.234.217-.648.217h-3.8c-.378,0-.468.144-.468.54,0,.828.019.918.5.918h1.6c.576,0,.631,0,.757-.09.107-.09.557-.612.683-.612.091,0,1.243.756,1.243.954,0,.216-.234.216-.648.216h-3.619c-.469,0-.487.252-.487.612,0,.684,0,.883.5.883h1.585c.558,0,.63,0,.72-.108.108-.091.54-.631.666-.631.108,0,1.44.81,1.44,1.027,0,.18-.305.18-.773.18h-3.619c-.505,0-.505.234-.505.738,0,.414,0,1.08.2,1.242.271.234.792.252,1.855.252,2.539,0,2.575-.108,2.881-1.242.144-.558.144-.594.45-2,.018-.108.036-.162.09-.162.036,0,.036.054.036.072a5.261,5.261,0,0,0,.306,2.233c.054.126.5.63.5.756,0,.432-.593.774-.774.882-.5.325-1.08.595-3.457.595-3.1,0-3.259-.666-3.259-1.549,0-1.818,0-6.95-.017-7.148,0-.144-.127-1.08-.127-1.17,0-.072.09-.072.108-.072a4.166,4.166,0,0,1,.954.324,1.491,1.491,0,0,0,.721.162Z" fill="#333"/>
    <path id="パス_2132" data-name="パス 2132" d="M958.4,1120.265a15.931,15.931,0,0,0,4.358,1.423c.072,0,.378.053.378.125,0,.054-.252.126-.324.145a3.111,3.111,0,0,0-1.369.972c-.053.072-.251.45-.341.45a14.752,14.752,0,0,1-5.781-4.772c-.341-.576-.4-.63-.522-.63s-.161.036-.558.45a21.419,21.419,0,0,1-5.33,4.2,15.549,15.549,0,0,1-2.826,1.152c-.055,0-.09-.036-.09-.054s1.926-1.206,2.088-1.314c2.431-1.531,5.006-4.286,5.258-5.636.018-.144.036-.2.162-.2.09,0,1.549.558,1.639.612.053.018.233.09.233.27a1.11,1.11,0,0,1-.071.252A9.145,9.145,0,0,0,958.4,1120.265Zm-8.678-4.483c-1.332,0-1.945.036-2.287.054-.054,0-.324.036-.378.036s-.09-.036-.162-.108l-.342-.414c-.072-.09-.072-.09-.072-.127s.018-.035.054-.035c.126,0,.684.053.792.053.882.036,1.639.072,2.485.072h.522c.378,0,.486-.18.486-.486a2.924,2.924,0,0,0-.144-.954,2.735,2.735,0,0,1-.108-.36c0-.09.09-.126.2-.126.126,0,.936.2,1.134.252.541.144.649.18.649.342,0,.108-.019.144-.271.468a.444.444,0,0,0-.126.324c0,.433.145.54.63.54h2.972c.162,0,.54,0,.54-.486a7.175,7.175,0,0,0-.055-.81c-.017-.09-.107-.468-.107-.54,0-.09.107-.126.2-.126.126,0,1.35.288,1.548.342s.307.126.307.288c0,.108-.073.18-.271.324a.577.577,0,0,0-.234.5c0,.5.288.5.576.5h.919c.792,0,.882,0,1.152-.306.5-.594.558-.666.72-.666.108,0,1.675.954,1.675,1.189,0,.252-.361.252-.954.252h-3.512c-.558,0-.558.288-.558.72,0,.108.018.72.018.81,0,.666-.54.774-.918.774-.414,0-.486-.072-.486-.684v-1.242c-.054-.342-.27-.378-.558-.378h-2.881c-.414,0-.667,0-.667.5,0,.18.055.972.055,1.134,0,.342-.055.5-.217.612a1.275,1.275,0,0,1-.684.252c-.306,0-.45-.2-.45-.558,0-.144.018-.828.018-.954,0-.7,0-.99-.558-.99Zm1.278,9.2a9.228,9.228,0,0,1,1.387.847.445.445,0,0,1,.143.27c0,.216-.143.252-.576.36-.054.018-1.6,1.224-1.89,1.44a11.059,11.059,0,0,1-2.737,1.567.056.056,0,0,1-.053-.054c0-.036.954-.865,1.08-.991a10.366,10.366,0,0,0,2.574-3.421A.11.11,0,0,1,951,1124.982Zm.828-.954c-1.4,0-1.927.018-2.286.054-.055,0-.324.036-.379.036s-.09-.036-.161-.108l-.343-.414c-.072-.09-.072-.09-.072-.126,0-.018.019-.036.055-.036.126,0,.683.054.792.054.882.054,1.638.072,2.484.072h1.351c.18,0,.54,0,.54-.486,0-.216-.108-1.675-.144-1.855,0-.036-.108-.216-.108-.252s.036-.108.18-.108c.126,0,1.386.27,1.567.324.252.054.342.216.342.306,0,.108-.037.144-.306.378-.253.217-.253.324-.253.865,0,.648,0,.828.541.828h.792c.792,0,.882,0,1.152-.306.5-.594.558-.666.72-.666.108,0,1.675.972,1.675,1.188,0,.252-.36.252-.954.252h-3.4c-.54,0-.54.324-.54.9,0,1.279,0,2,.037,3.061.017.306.017.739.017.955,0,.576-.143.918-.918.918-.4,0-.432-.324-.432-.63,0-.234.054-1.315.054-1.549.018-.684.018-1.35.018-2.179a10.9,10.9,0,0,0-.036-1.224c-.09-.252-.378-.252-.522-.252Zm4.808,1.513c0-.054.09-.072.162-.072.666,0,4.771,1.134,4.771,2.628,0,.576-.324,1.027-.774,1.027-.342,0-.414-.09-.972-.919a8.553,8.553,0,0,0-3.1-2.592C956.7,1125.613,956.632,1125.559,956.632,1125.541Z" fill="#333"/>
    <path id="パス_2133" data-name="パス 2133" d="M969.394,1117.294a4.238,4.238,0,0,0,1.494.378,46.659,46.659,0,0,0,6.788-.846c.558-.252.63-.288.756-.288.4,0,.684.252,1.243.738.809.72.918.918.918,1.17,0,.234-.09.325-.414.649a2.967,2.967,0,0,0-.7,1.134,18.327,18.327,0,0,1-9.291,8.39.12.12,0,0,1-.126-.108c0-.072.053-.108.234-.234a23.413,23.413,0,0,0,7.111-7.13,10.156,10.156,0,0,0,1.225-3.043c0-.306-.306-.324-.4-.324a59.167,59.167,0,0,0-6.482,1.3,6.537,6.537,0,0,1-.9.4c-.414,0-1.855-.9-1.855-1.891,0-.342.054-.4.162-.4C969.2,1117.186,969.357,1117.294,969.394,1117.294Zm13.2-.072c0,.252-.234.684-.558.684-.288,0-.432-.18-.918-.864a5.359,5.359,0,0,0-1.171-1.17c-.072-.054-.252-.216-.252-.288s.163-.126.325-.126C981.295,1115.458,982.591,1116.394,982.591,1117.222Zm1.369-1.368c0,.2-.145.54-.469.54-.4,0-.612-.324-.918-.738a4.465,4.465,0,0,0-1.494-1.1c-.181-.09-.234-.162-.234-.216,0-.18.54-.18.684-.18C982.285,1114.161,983.96,1114.7,983.96,1115.854Z" fill="#333"/>
    <path id="パス_2134" data-name="パス 2134" d="M992.969,1119.437a17.981,17.981,0,0,0-.144,3.385c0,.522,0,.954.594.954.774,0,5.384-1.944,8.553-4.7.252-.216.288-.253.414-.253a.141.141,0,0,1,.143.145,22.634,22.634,0,0,1-7.075,5.4c-2.089,1.08-2.233,1.189-2.611,1.657-.09.126-.126.144-.2.144-.144,0-1.224-.882-1.224-1.369,0-.09.143-.81.161-.846a13.6,13.6,0,0,0,.091-2.323c0-2.376,0-2.862-.469-3.709a3.456,3.456,0,0,1-.395-.7c0-.072.107-.09.179-.09.2,0,2.269.36,2.269,1.1C993.257,1118.375,993.005,1119.239,992.969,1119.437Z" fill="#333"/>
    <path id="パス_2135" data-name="パス 2135" d="M1014.435,1125.162a12.582,12.582,0,0,0-1.765,1.477c-.342.414-.378.45-.648.45-.972,0-2.3-1.152-2.3-1.873,0-.126.017-.954.179-.954a4.49,4.49,0,0,1,.541.342,2.979,2.979,0,0,0,1.224.414c.882,0,5.653-3.186,8.643-6.14.288-.288.792-.792.828-.792a.116.116,0,0,1,.09.09C1021.223,1118.338,1019.116,1121.7,1014.435,1125.162Zm-1.477-5.923c-.486,0-.666-.288-1.26-1.189a4.061,4.061,0,0,0-1.638-1.476c-.073-.036-.163-.09-.163-.162s.144-.162.4-.162c1.926,0,3.438,1.026,3.438,2.088A.8.8,0,0,1,1012.958,1119.239Z" fill="#333"/>
    <path id="パス_2136" data-name="パス 2136" d="M1030.695,1114.863c.649,0,1.945.576,1.945,1.153,0,.126-.18.648-.2.756a23.086,23.086,0,0,0-.18,2.521c0,.378.09.45.594.558,1.153.27,3.908,1.584,3.908,2.917a.631.631,0,0,1-.667.63c-.432,0-.451-.036-1.693-1.639-.5-.648-1.35-1.512-1.908-1.512-.2,0-.252,0-.252,1.332,0,1.909.018,2.863.09,4.484.018.2.036.648.036.918,0,.432,0,1.638-.522,1.638-.558,0-1.008-1.224-1.008-1.692,0-.072.071-.45.071-.522a24.062,24.062,0,0,0,.162-4.177c0-5.33,0-5.726-.216-6.3a2.008,2.008,0,0,0-.629-.829.132.132,0,0,1-.037-.072C1030.228,1114.881,1030.678,1114.863,1030.695,1114.863Zm7.58,3.079c0,.234-.2.684-.557.684-.271,0-.433-.18-.9-.864a5.031,5.031,0,0,0-1.171-1.17c-.071-.054-.251-.216-.251-.288,0-.09.162-.126.324-.126C1037,1116.178,1038.275,1117.132,1038.275,1117.942Zm1.459-2.052c0,.2-.144.54-.468.54-.4,0-.613-.288-.936-.7a4.554,4.554,0,0,0-1.549-1.027c-.179-.072-.234-.162-.234-.2,0-.108.217-.216.684-.216C1038.527,1114.287,1039.734,1115.007,1039.734,1115.89Z" fill="#333"/>
    <path id="パス_2137" data-name="パス 2137" d="M1045.369,1122.748c-.324,0-.721-.108-.721-.576,0-.576.6-.576.721-.576h2.719c.72,0,.72.486.72.576,0,.576-.522.576-.72.576Z" fill="#333"/>
  </g>
</svg>
