<svg id="lineup_bancha_name" xmlns="http://www.w3.org/2000/svg" width="183.784" height="105.637" viewBox="0 0 183.784 105.637">
  <g id="グループ_201" data-name="グループ 201" transform="translate(-868.573 -1065.293)">
    <path id="パス_1009" data-name="パス 1009" d="M895.245,1096.677c1.785,0,2.09-.076,2.356-.342.341-.342,1.71-2.318,2.166-2.318s3.8,2.7,3.8,3.192-.721.494-1.975.494H875.412c-.874,0-3.458,0-4.825.076a5.944,5.944,0,0,1-.8.114c-.114,0-.19-.114-.343-.266l-.721-.874c-.152-.152-.152-.19-.152-.228a.1.1,0,0,1,.114-.114c.266,0,1.444.114,1.71.152,1.71.076,3.419.114,5.205.114Zm-3.344-27.85c1.787,0,2.014,0,2.356-.342.342-.3,1.71-2.2,2.166-2.2s3.762,2.584,3.762,3.078-.723.494-1.939.494H878.68c-.836,0-3.458,0-4.788.076a5.752,5.752,0,0,1-.8.114c-.152,0-.228-.114-.342-.266l-.722-.874c-.152-.152-.19-.19-.19-.266s.114-.076.152-.076c.266,0,1.445.114,1.672.152,1.748.076,3.457.114,5.205.114Zm-2.089,13.678c1.671,0,1.824,0,2.166-.3.3-.3,1.557-2.014,1.975-2.014.3,0,3.648,2.166,3.648,2.85,0,.456-.191.456-1.9.456H881.453c-.874,0-3.458,0-4.787.114-.152,0-.684.076-.8.076-.152,0-.228-.076-.343-.228l-.759-.874c-.114-.152-.152-.19-.152-.266,0-.038.038-.076.152-.076.266,0,1.444.114,1.672.114,1.748.076,3.419.152,5.205.152Z" fill="#333"/>
    <path id="パス_1010" data-name="パス 1010" d="M923.835,1094.511c0,3.572-1.748,5.547-3.533,5.547-1.178,0-1.52-1.064-1.52-1.824,0-1.215.57-1.443,2.394-2.165a4.052,4.052,0,0,0,2.165-2.318c0-.038.152-.3.266-.3S923.835,1093.751,923.835,1094.511Zm1.861-23.822c-.873,0-3.457,0-4.825.075a5.584,5.584,0,0,1-.8.114c-.113,0-.227-.114-.341-.265l-.722-.874c-.076-.114-.153-.19-.153-.228a.1.1,0,0,1,.115-.114c.227,0,1.177.114,1.406.114.645.038,3.457.152,4.938.152a.964.964,0,0,0,.874-.988c0-.456-.038-.95-.076-1.33-.037-.228-.3-1.14-.3-1.33,0-.456.532-.532.759-.532s3.268.608,3.268,1.254c0,.228-.113.38-.569.646-.418.266-.533.456-.533,1.52a.793.793,0,0,0,.874.76h.684a6.618,6.618,0,0,0,1.862-.114c.3-.152,1.329-1.634,1.671-1.634a4.372,4.372,0,0,1,2.242,2.2c0,.57-.721.57-2.051.57Zm4.712,10.106a2.353,2.353,0,0,0,1.026-.19c.152-.076.722-.57.912-.57.152,0,2.393,1.558,2.393,2.09a.325.325,0,0,1-.265.342,10.515,10.515,0,0,1-1.027.3c-.038.038-3,1.748-3.229,1.861-.874.495-1.216.684-1.216,1.064,0,.19.19.418.57.418.874,0,6.383-1.14,6.383-.95,0,.532-5.281,2.09-6.193,2.356-.76.19-.76.722-.76,1.824,0,1.975-.113,2.47-.456,2.963a3.922,3.922,0,0,1-2.356,1.52.642.642,0,0,1-.379-.114c-.266-.228-1.216-1.634-1.482-1.862-.152-.151-1.139-.683-1.139-.911,0-.076.227-.076.379-.076.266,0,1.6.038,1.862.038,1.177,0,1.177-.191,1.177-2.052,0-.266-.3-.494-.645-.494-.114,0-3.686.646-3.989.76a4.2,4.2,0,0,1-.989.57c-.494,0-1.519-3.078-1.519-3.154,0-.114.038-.152.189-.152.229,0,.723.076.836.076a39.239,39.239,0,0,0,4.028.114c1.633,0,2.051-.228,2.051-1.254,0-.228-.3-1.329-.3-1.6,0-.191.19-.228.38-.228.341,0,1.975.494,2.355.494.76,0,1.862-1.672,1.862-1.748,0-.418-.418-.418-.532-.418h-3.42c-1.063,0-2.963,0-4.482.076-.115,0-1.027.114-1.1.114-.151,0-.227-.114-.342-.266l-.721-.874c-.153-.152-.153-.19-.153-.266s.077-.076.115-.076c.227,0,1.4.114,1.672.152,1.1.038,3.077.114,5.205.114Zm-.874-7.447a1.868,1.868,0,0,0,1.33-.418c.456-.456.608-.608.836-.608.342,0,2.052.874,2.052,1.558,0,.19-.608.912-.646,1.1v2.622c0,.836-.95,1.215-1.558,1.215-.532,0-.57-.114-.874-.569a.865.865,0,0,0-.836-.381h-5.243a1.079,1.079,0,0,0-1.064.532c-.3.646-.494,1.14-1.368,1.14a1.007,1.007,0,0,1-1.063-.76v-2.735c0-.532-.3-3-.3-3.192,0-.342.189-.494.569-.494a13.2,13.2,0,0,1,1.9.76,4.392,4.392,0,0,0,1.52.228Zm-5.129,1.026c-.95,0-.95.608-.95,1.254s0,1.254.95,1.254H929.8c.912,0,.912-.608.912-1.254s0-1.254-.912-1.254Zm5.015,19a4.258,4.258,0,0,1,2.964,3.648c0,1.215-.532,2.507-1.824,2.507-.8,0-1.026-.494-1.026-1.253a21.941,21.941,0,0,0-.152-3.762c-.038-.19-.3-.95-.228-1.026C929.192,1093.371,929.344,1093.371,929.42,1093.371Zm14.21-19.187a1.041,1.041,0,0,0-.987.532c-.038.114-.342,2.774-.418,3.267-.038.3-.342,1.71-.342,2.014a1.368,1.368,0,0,0,.418,1.064c.722.608,2.051,1.9,2.051,3.268,0,.607-.228,1.291-.8,1.291-.646,0-1.482-1.215-1.938-1.937a.376.376,0,0,0-.38-.266c-.3,0-.456.3-.569.57-2.128,5.433-8.093,7.978-8.625,7.978-.038,0-.114,0-.114-.076s.114-.189.228-.265a15.39,15.39,0,0,0,3.267-3.04,15.875,15.875,0,0,0,3.685-7.067,1.258,1.258,0,0,0-.151-.57,20.216,20.216,0,0,0-2.47-2.318c-.608-.456-.874-.646-.874-.721,0-.039.038-.039.153-.039a6,6,0,0,1,1.937.532c1.14.608,1.254.684,1.4.684a.758.758,0,0,0,.685-.532c.038-.532.418-3.039.418-3.609a.787.787,0,0,0-.76-.76c-.418,0-2.774.19-3.116.19-.114,0-.189-.076-.342-.228l-.721-.874c-.153-.19-.153-.19-.153-.266s.076-.076.114-.076c.608,0,3.5.228,4.18.228a.986.986,0,0,0,.949-.95,37.639,37.639,0,0,0-.265-5.2,9.355,9.355,0,0,1-.342-1.1c0-.266.151-.342.418-.342.38,0,3.229.722,3.381.76.266.114.608.3.608.646,0,.152-.076.266-.265.418-.077.076-.571.456-.685.532-.38.342-.494,3.8-.494,4.407a.834.834,0,0,0,.874.874h2.128a1.653,1.653,0,0,0,1.292-.456c.645-.722.721-.8.95-.8.417,0,2.241,1.482,2.241,2.09,0,.19-.114.3-.342.456a5.75,5.75,0,0,1-.646.38c-.608.456-.76,6.041-.76,6.839,0,2.242.456,5.851,1.292,5.851.609,0,1.748-3.875,2.052-5.4.038-.228.152-.342.228-.342.114,0,.114.19.114.266,0,.114-.532,4.179-.532,4.977,0,1.71.114,1.9.57,2.546a2.12,2.12,0,0,1,.38,1.026c0,.493-.38.95-1.33.95a4.417,4.417,0,0,1-3.116-1.824c-1.861-2.318-2.128-6.345-2.128-8.625,0-1.14.153-3.572.3-4.787.038-.19.19-1.178.19-1.406,0-.342-.19-.76-.988-.76Zm-1.938,23.6a1.846,1.846,0,0,1-1.671,1.9c-.874,0-1.026-.646-1.331-2.507a7.322,7.322,0,0,0-1.025-3.116c-.038-.038-.152-.228-.114-.3C937.779,1093.371,941.692,1094.929,941.692,1097.779Zm10.183-.076a1.783,1.783,0,0,1-1.672,1.937c-.874,0-.95-.3-2.2-3.077a24.037,24.037,0,0,0-1.823-2.926.409.409,0,0,1-.076-.3C946.214,1093.143,951.875,1094.473,951.875,1097.7Z" fill="#333"/>
    <path id="パス_1011" data-name="パス 1011" d="M977.94,1097.93c-.418,0-.951,0-1.1.646a1.912,1.912,0,0,1-2.165,1.634c-.988,0-.988-.532-.988-.836,0-.38.152-2.773.19-3.305.113-1.786.113-6.725.113-8.663,0-1.406,0-1.558-.341-1.558a9.156,9.156,0,0,0-1.064.532c-3.762,2.052-5.395,2.318-5.547,2.318-.19,0-.266-.114-.266-.228,0-.19.152-.266,1.292-.874a39.455,39.455,0,0,0,10.562-9.119,8.715,8.715,0,0,0,.988-1.671c0-.3-.266-.342-.95-.342h-4.369c-.874,0-3.458.038-4.788.114-.151,0-.722.076-.836.076s-.189-.076-.3-.228l-.759-.874c-.152-.152-.152-.19-.152-.266,0-.038.037-.076.113-.076.267,0,1.445.114,1.71.152,1.71.076,3.42.114,5.206.114h.874c.456,0,.721,0,.721-.3,0-.114-1.063-4.1-2.09-4.749-.38-.266-.645-.266-1.595-.342-1.558-.114-1.709-.114-1.709-.38s.113-.266,1.291-.418a133.4,133.4,0,0,0,19.073-3.268c.342-.076,1.9-.722,2.242-.722.76,0,3.23,2.546,3.23,2.926,0,.152-.153.342-.495.342-.152,0-.835-.114-.988-.114-.227,0-1.747.076-1.747.38,0,.152.912.8,1.026.874.835.532.95.646.95,1.026,0,.265-.038.265-1.027.683-1.063.418-4.52,3.8-4.52,3.876,0,.19.113.19.607.19h3.344c1.292,0,1.481,0,2.2-.912.761-.912,1.368-1.672,1.634-1.672.342,0,3.876,2.66,3.876,3.154,0,.418-1.14.418-2.242.418H987.361c-.3,0-.455.038-.455.228s4.293,6.877,14.1,8.32c1.4.228,1.634.266,1.634.418,0,.266-.456.342-.76.418a4.281,4.281,0,0,0-2.66,1.976c-.19.38-.342.76-.646.76a3.35,3.35,0,0,1-1.786-.95c-.38-.3-.456-.342-.569-.342-.305,0-.685.38-.8.532-.684.684-.684,1.292-.684,2.66,0,1.253.191,6.649.191,7.75,0,.646-.076.874-.418,1.1a3.533,3.533,0,0,1-1.786.646c-.722,0-.76-.266-.912-1.33-.075-.569-.646-.722-1.1-.722Zm12.043-11.626a2.246,2.246,0,0,0,1.634-.456c.228-.19.912-.8.912-1.1,0-.151-.038-.19-.532-.608-2.432-2.165-3.876-3.419-5.472-6.117a9.829,9.829,0,0,0-.683-1.1c-.152,0-.152.076-.152.456-.038.911.038,5.205.038,6.193a1.782,1.782,0,0,1-.494,1.443,2.375,2.375,0,0,1-1.406.646c-.987,0-.987-.722-.987-1.1,0-.873.3-5.205.3-6.193,0-.494,0-.721-.267-.721-.151,0-.835.759-.911.873a33.391,33.391,0,0,1-5.434,5.32c-.874.646-.987.721-.987.874s.113.227.949.873a2.576,2.576,0,0,0,2.09.722Zm-7.827-10.828c.609,0,.951-.228,1.027-.76.038-.152.038-.57.038-4.293,0-.418-.114-.76-.609-.76-.265,0-4.977.38-5.926.418-.8.038-.874.038-.874.19,0,.038.721.532.95.721a3.782,3.782,0,0,1,1.823,3.078c0,.152-.114.874-.114,1.026,0,.38.19.38.912.38Zm-4.369,11.816c-1.139,0-1.139.684-1.139,1.672,0,2.128,0,2.546,1.139,2.546h4.066c1.1,0,1.1-.685,1.1-1.672,0-2.014,0-2.546-1.139-2.546Zm0,5.2c-1.1,0-1.1.532-1.1,2.28,0,1.672,0,2.166,1.139,2.166h3.99c1.1,0,1.139-.456,1.139-2.7,0-1.064,0-1.748-1.1-1.748Zm8.891-5.2c-1.1,0-1.1.532-1.1,2.7,0,.835,0,1.52,1.1,1.52h4.256c1.1,0,1.1-.722,1.1-1.482,0-2.28-.076-2.736-1.139-2.736Zm4.179,9.651c1.1,0,1.178-.38,1.178-2.66,0-1.216,0-1.786-1.178-1.786h-4.1c-1.14,0-1.14.608-1.14,1.482,0,2.66,0,2.964,1.178,2.964Zm-3.381-21.467a1.528,1.528,0,0,0,1.519-.874c.8-1.292,2.394-4.065,2.394-5.319,0-.228-.075-.38-.342-.38-.19,0-1.709.152-3.268.3-1.785.152-1.975.19-2.089.494-.038.152-.038,3-.038,4.521,0,.684.038,1.254,1.14,1.254Z" fill="#333"/>
    <path id="パス_1012" data-name="パス 1012" d="M1042.365,1080.035a33.484,33.484,0,0,0,9.2,3c.152,0,.8.114.8.266,0,.114-.531.266-.683.3a6.592,6.592,0,0,0-2.888,2.051c-.113.152-.531.95-.721.95-.228,0-8.473-3.989-12.2-10.068-.721-1.216-.836-1.33-1.1-1.33s-.342.076-1.178.95a45.155,45.155,0,0,1-11.246,8.852c-1.292.684-5.243,2.432-5.966,2.432-.113,0-.189-.076-.189-.114s4.065-2.546,4.407-2.774c5.129-3.229,10.562-9.042,11.095-11.892.037-.3.075-.418.341-.418.19,0,3.268,1.178,3.457,1.292.115.038.494.19.494.57a2.374,2.374,0,0,1-.152.532C1035.906,1075.21,1039.174,1078.4,1042.365,1080.035Zm-18.313-9.46c-2.812,0-4.1.075-4.825.114-.114,0-.684.075-.8.075s-.19-.075-.342-.227l-.722-.874c-.152-.19-.152-.19-.152-.266s.038-.076.114-.076c.266,0,1.444.114,1.672.114,1.861.076,3.457.152,5.243.152h1.1c.8,0,1.026-.38,1.026-1.026a6.15,6.15,0,0,0-.305-2.014,5.771,5.771,0,0,1-.227-.76c0-.19.189-.266.418-.266.266,0,1.976.418,2.393.532,1.14.3,1.369.38,1.369.722,0,.228-.038.3-.571.988a.931.931,0,0,0-.265.684c0,.912.3,1.14,1.329,1.14h6.269c.342,0,1.14,0,1.14-1.026a15.805,15.805,0,0,0-.114-1.71c-.038-.19-.228-.988-.228-1.14,0-.19.228-.266.418-.266.266,0,2.85.608,3.268.722s.645.266.645.608c0,.228-.151.38-.569.684a1.216,1.216,0,0,0-.494,1.064c0,1.064.607,1.064,1.216,1.064H1044c1.672,0,1.862,0,2.432-.646,1.063-1.254,1.177-1.406,1.519-1.406.229,0,3.534,2.014,3.534,2.508,0,.532-.759.532-2.013.532h-7.409c-1.178,0-1.178.607-1.178,1.519,0,.228.038,1.52.038,1.71,0,1.406-1.14,1.634-1.938,1.634-.874,0-1.026-.152-1.026-1.444v-2.622c-.114-.722-.57-.8-1.178-.8H1030.7c-.874,0-1.406,0-1.406,1.063,0,.38.114,2.052.114,2.394,0,.722-.114,1.064-.456,1.292a2.7,2.7,0,0,1-1.443.532c-.647,0-.95-.418-.95-1.178,0-.3.038-1.748.038-2.014,0-1.482,0-2.089-1.178-2.089Zm2.7,19.415a19.524,19.524,0,0,1,2.925,1.785.944.944,0,0,1,.3.57c0,.456-.3.532-1.216.76-.115.038-3.382,2.584-3.99,3.04a23.346,23.346,0,0,1-5.775,3.3.121.121,0,0,1-.114-.114c0-.076,2.013-1.824,2.279-2.089,3.154-3,5.092-6,5.434-7.219A.229.229,0,0,1,1026.75,1089.99Zm1.747-2.014c-2.963,0-4.065.038-4.825.114-.113,0-.684.076-.8.076s-.189-.076-.342-.228l-.721-.874c-.153-.19-.153-.19-.153-.266,0-.038.038-.076.115-.076.265,0,1.443.114,1.671.114,1.862.114,3.457.152,5.244.152h2.849c.38,0,1.14,0,1.14-1.026,0-.456-.228-3.533-.3-3.913,0-.076-.228-.456-.228-.532s.076-.228.379-.228c.267,0,2.926.57,3.306.684.532.114.723.456.723.646,0,.228-.076.3-.647.8-.532.456-.532.684-.532,1.823,0,1.368,0,1.748,1.141,1.748h1.671c1.671,0,1.862,0,2.431-.646,1.065-1.254,1.179-1.406,1.521-1.406.227,0,3.533,2.052,3.533,2.508,0,.532-.76.532-2.014.532h-7.18c-1.141,0-1.141.684-1.141,1.9,0,2.7,0,4.217.076,6.459.038.646.038,1.558.038,2.013,0,1.216-.3,1.938-1.937,1.938-.836,0-.912-.684-.912-1.33,0-.494.114-2.773.114-3.267.038-1.444.038-2.85.038-4.6a23.007,23.007,0,0,0-.076-2.584c-.19-.532-.8-.532-1.1-.532Zm10.145,3.192c0-.114.19-.152.342-.152,1.406,0,10.069,2.393,10.069,5.547,0,1.216-.685,2.165-1.634,2.165-.723,0-.874-.19-2.052-1.937a18.052,18.052,0,0,0-6.535-5.472C1038.794,1091.319,1038.642,1091.206,1038.642,1091.168Z" fill="#333"/>
  </g>
  <g id="グループ_203" data-name="グループ 203" transform="translate(-868.573 -1065.293)">
    <g id="グループ_202" data-name="グループ 202">
      <path id="パス_1013" data-name="パス 1013" d="M919.087,1117.64h1.289c1.988,0,3.865.519,3.865,2.9a2.271,2.271,0,0,1-1.134,2v.028a2.718,2.718,0,0,1,2.116,2.675c0,2.115-1.808,2.956-3.671,2.956h-2.465Zm1.316,4.679h.337c1.246,0,2.269-.253,2.269-1.765,0-1.485-1.008-1.737-2.241-1.737H920.4Zm0,4.706h1.009c1.219,0,2.493-.364,2.493-1.863,0-1.484-1.512-1.793-2.689-1.793H920.4Z" fill="#333"/>
      <path id="パス_1014" data-name="パス 1014" d="M933.4,1125.554l-1.2,2.648h-1.415l5.043-11.01,5.043,11.01h-1.415l-1.205-2.648Zm2.423-5.476-1.877,4.271H937.7Z" fill="#333"/>
      <path id="パス_1015" data-name="パス 1015" d="M947.1,1117.136l7.927,8.306v-7.8h1.318v11l-7.929-8.307v7.872H947.1Z" fill="#333"/>
      <path id="パス_1016" data-name="パス 1016" d="M971.387,1119.657a4.2,4.2,0,0,0-6.961,3.278,4.155,4.155,0,0,0,6.961,3.194v1.554a5.7,5.7,0,0,1-2.774.744,5.469,5.469,0,0,1-5.505-5.45,5.552,5.552,0,0,1,5.618-5.561,5.088,5.088,0,0,1,2.661.715Z" fill="#333"/>
      <path id="パス_1017" data-name="パス 1017" d="M984.383,1121.9v-4.258H985.7V1128.2h-1.316v-5.07h-5.029v5.07h-1.317V1117.64h1.317v4.258Z" fill="#333"/>
      <path id="パス_1018" data-name="パス 1018" d="M994.565,1125.554l-1.205,2.648h-1.415l5.043-11.01,5.043,11.01h-1.415l-1.205-2.648Zm2.423-5.476-1.877,4.271h3.754Z" fill="#333"/>
    </g>
  </g>
  <g id="グループ_204" data-name="グループ 204" transform="translate(-868.573 -1065.293)">
    <path id="パス_1019" data-name="パス 1019" d="M904.432,1154.731a8.415,8.415,0,0,0,.94-.994,5.019,5.019,0,0,0,.725-1.194,3.755,3.755,0,0,0,.3-1.317,2.706,2.706,0,0,0-.3-1.329,2.9,2.9,0,0,0-.752-.939,2.115,2.115,0,0,0-1.1-.484,1.564,1.564,0,0,0-1.074.269,4.3,4.3,0,0,0-.833.778,3.023,3.023,0,0,0-.631,1.276,4.267,4.267,0,0,0-.066,1.4,6.521,6.521,0,0,0,.322,1.41,12.665,12.665,0,0,0,.536,1.316q.323.644.645,1.262a12.315,12.315,0,0,1,.564,1.248,7.107,7.107,0,0,1,.362,1.317,5.072,5.072,0,0,1,.04,1.436,6.193,6.193,0,0,1-.885,2.619,8.736,8.736,0,0,1-1.867,2.188,8.329,8.329,0,0,1-2.484,1.45,6.44,6.44,0,0,1-2.766.4,3.681,3.681,0,0,1-2.041-.766,3.719,3.719,0,0,1-1.262-1.813,4.432,4.432,0,0,1-.215-1.356,5.246,5.246,0,0,1,.175-1.343,7.018,7.018,0,0,1,.483-1.289,8.416,8.416,0,0,1,.712-1.194,7.033,7.033,0,0,1,.873-1.021,6.77,6.77,0,0,1,1.087-.859,5.621,5.621,0,0,1,1.235-.591,3.761,3.761,0,0,1,1.343-.188,3.426,3.426,0,0,1,1.37.336,2.9,2.9,0,0,1,1.047.819,2.624,2.624,0,0,1,.524,1.182,2.487,2.487,0,0,1-.174,1.4.6.6,0,0,1-.323.241.513.513,0,0,1-.349-.013.467.467,0,0,1-.241-.215.353.353,0,0,1,.053-.363,1.725,1.725,0,0,0,.12-1.315,1.688,1.688,0,0,0-.818-1.02,2.735,2.735,0,0,0-1.316-.35,3.608,3.608,0,0,0-1.3.242,5.049,5.049,0,0,0-1.2.657,6.515,6.515,0,0,0-.995.9,7.471,7.471,0,0,0-.818,1.181,5.783,5.783,0,0,0-.551,1.343,4.4,4.4,0,0,0-.147,1.409,3.422,3.422,0,0,0,.362,1.357,2.86,2.86,0,0,0,.832,1.06,2.969,2.969,0,0,0,1.128.537,4.152,4.152,0,0,0,1.3.094,5.592,5.592,0,0,0,1.329-.268,7.725,7.725,0,0,0,2.578-1.343,7.074,7.074,0,0,0,1.826-2.121,5.918,5.918,0,0,0,.739-2.632,5.49,5.49,0,0,0-.685-2.847q-.348-.671-.712-1.355a12.85,12.85,0,0,1-.631-1.384,7.907,7.907,0,0,1-.4-1.45,5.6,5.6,0,0,1-.054-1.558,4.1,4.1,0,0,1,.362-1.383,3.986,3.986,0,0,1,.82-1.194,3.039,3.039,0,0,1,1.168-.739,2.255,2.255,0,0,1,1.436.013,2.723,2.723,0,0,1,1.249.739,3.432,3.432,0,0,1,.739,1.181,4.07,4.07,0,0,1,.241,1.41,5.265,5.265,0,0,1-.188,1.423,6.2,6.2,0,0,1-.59,1.37,13.753,13.753,0,0,1-.834,1.262,2.8,2.8,0,0,1-.334.43.4.4,0,0,1-.5.081.362.362,0,0,1-.308-.336A.494.494,0,0,1,904.432,1154.731Z" fill="#333"/>
    <path id="パス_1020" data-name="パス 1020" d="M908.144,1158.517c.071-.035.237-.107.5-.214a4.337,4.337,0,0,1,.764-.242,1.446,1.446,0,0,1,.645-.013q.269.068.188.5a1.324,1.324,0,0,1-.228.483,1.811,1.811,0,0,0-.255.484,6.145,6.145,0,0,0-.309.859.907.907,0,0,0,.094.832,2.538,2.538,0,0,0,1.007-.107q.551-.162,1.007-.323a4.98,4.98,0,0,0,.511-.268c.25-.143.513-.283.792-.416a4.365,4.365,0,0,1,.765-.3c.233-.063.376-.04.43.067q.106.189-.135.4a2.555,2.555,0,0,1-.6.389q-.363.176-.739.322c-.251.1-.412.166-.483.2q-.591.294-1.2.577a4.823,4.823,0,0,1-1.248.388.734.734,0,0,1-.78-.241,1.448,1.448,0,0,1-.215-.819,4.33,4.33,0,0,1,.149-1.074c.1-.385.2-.739.308-1.061q-.618.242-1.209.443a10.785,10.785,0,0,0-1.154.47q-.483.216-.967.484a.408.408,0,0,1-.469-.148q-.176-.228.147-.39Zm3.141-5.424a1.573,1.573,0,0,1,.416-.6,2.5,2.5,0,0,1,.632-.417,4.111,4.111,0,0,1,.738-.255c.259-.062.506-.111.739-.147a9.678,9.678,0,0,1,1.906.08,1.424,1.424,0,0,1,.363.054.237.237,0,0,1,.174.3.406.406,0,0,1-.134.229.269.269,0,0,1-.242.066,6.475,6.475,0,0,0-1.624-.12,2.9,2.9,0,0,0-1.518.5.883.883,0,0,0-.376.43.965.965,0,0,1-.322.43.423.423,0,0,1-.563,0A.441.441,0,0,1,911.285,1153.093Z" fill="#333"/>
    <path id="パス_1021" data-name="パス 1021" d="M913.532,1159.834c.2-.108.537-.291,1.021-.551s.98-.506,1.49-.738a6.789,6.789,0,0,1,1.41-.484c.43-.09.7-.017.806.215a.531.531,0,0,1-.068.524,2.245,2.245,0,0,0-.254.469l-.323.752a6.916,6.916,0,0,1,.7-.376l.7-.322q.858-.456,1.772-.967a8.688,8.688,0,0,1,1.853-.778,1.317,1.317,0,0,1,.618-.014.776.776,0,0,1,.416.241.689.689,0,0,1,.147.457,1.107,1.107,0,0,1-.214.6,4.445,4.445,0,0,1-.524.671q-.282.3-.577.644a1.578,1.578,0,0,1-.188.215c-.09.09-.184.193-.283.309s-.187.233-.268.349a.889.889,0,0,0-.148.309,1.026,1.026,0,0,0,.47,0,4.342,4.342,0,0,0,.564-.147q.282-.094.538-.2l.388-.161,1.1-.483c.071-.036.165-.09.282-.161s.236-.139.362-.2.246-.121.363-.174a.714.714,0,0,1,.282-.081.213.213,0,0,1,.241.242.42.42,0,0,1-.215.376c-.161.09-.331.174-.51.255l-.564.255c-.251.143-.492.268-.725.376s-.474.223-.725.349c-.143.072-.371.174-.685.309a4.806,4.806,0,0,1-.939.295,1.572,1.572,0,0,1-.82-.027c-.232-.081-.348-.3-.348-.658a.887.887,0,0,1,.134-.483,3.314,3.314,0,0,1,.308-.416,5.113,5.113,0,0,1,.376-.39q.2-.187.363-.349a5.776,5.776,0,0,0,.538-.564,2.19,2.19,0,0,0,.483-.806,5.658,5.658,0,0,0-1.464.376q-.739.3-1.356.619-.78.375-1.612.845a6.305,6.305,0,0,0-1.45,1.114.5.5,0,0,1-.563.068.43.43,0,0,1-.2-.2.5.5,0,0,1-.014-.35.834.834,0,0,1,.4-.43,4.736,4.736,0,0,0,.269-.5,1.668,1.668,0,0,1,.188-.335l.108-.389a3.3,3.3,0,0,0,.08-.416c-.2.053-.394.116-.591.187s-.349.126-.456.161q-.377.162-.752.309t-.752.336c-.144.072-.274.143-.39.215a2.232,2.232,0,0,1-.389.188.423.423,0,0,1-.309.04.505.505,0,0,1-.228-.121.236.236,0,0,1-.067-.2Q913.345,1159.913,913.532,1159.834Z" fill="#333"/>
    <path id="パス_1022" data-name="パス 1022" d="M925.851,1159.834c.464-.233.922-.457,1.369-.672s.9-.411,1.37-.591a9.513,9.513,0,0,1,1.49-.4,8.575,8.575,0,0,1,1.544-.135.658.658,0,0,1,.457.147c.108.1.116.265.026.5a.526.526,0,0,1-.483.268,9.457,9.457,0,0,0-1.409,0,4.39,4.39,0,0,0-1.357.322,2.305,2.305,0,0,0-.457.243,2.818,2.818,0,0,0-.442.362,1.125,1.125,0,0,0-.282.443.645.645,0,0,0,.054.51.969.969,0,0,0,.819.537,2.789,2.789,0,0,0,1.033-.026,2.83,2.83,0,0,0,.618-.215l.484-.242a1.748,1.748,0,0,1,.388-.148.414.414,0,0,1,.364.121.568.568,0,0,1,.012.617q-.174.35-.281.591l-.376.886q.725-.751,1.53-1.436a12.191,12.191,0,0,1,1.719-1.222c.054-.035.125-.089.215-.161a2.323,2.323,0,0,1,.3-.2,1.229,1.229,0,0,1,.322-.135.3.3,0,0,1,.269.041c.125.09.17.178.133.268a.827.827,0,0,1-.187.269q-.7.376-1.343.806a12.643,12.643,0,0,0-1.263.965,16.329,16.329,0,0,0-1.329,1.263,15.343,15.343,0,0,0-1.168,1.4l-.7,1.611q-.323.805-.644,1.638t-.7,1.638c-.053.108-.121.237-.2.389a3.715,3.715,0,0,1-.268.43,1.188,1.188,0,0,1-.35.322.693.693,0,0,1-.443.1.491.491,0,0,1-.416-.3,1.069,1.069,0,0,1-.054-.537,3.379,3.379,0,0,1,.135-.591c.062-.2.12-.359.174-.484a13.874,13.874,0,0,1,1.276-2.349,24.643,24.643,0,0,1,1.624-2.162l.913-2.6a6.912,6.912,0,0,1-1.033.2,4.448,4.448,0,0,1-1.034.014,2.3,2.3,0,0,1-.873-.269,1.454,1.454,0,0,1-.551-1.826q-.215.135-.443.283a.459.459,0,0,1-.389.093.289.289,0,0,1-.322-.228A.269.269,0,0,1,925.851,1159.834Z" fill="#333"/>
    <path id="パス_1023" data-name="パス 1023" d="M934.908,1159.806a16.9,16.9,0,0,0,1.612-.832q.777-.456,1.557-.994a14.5,14.5,0,0,1,.832-1.45q.457-.7.887-1.369.456-.618.913-1.249t.939-1.249q.4-.537.874-1.087a4.007,4.007,0,0,1,1.087-.9,2.225,2.225,0,0,1,.725-.228.5.5,0,0,1,.591.389.864.864,0,0,1,.014.578,2.437,2.437,0,0,1-.283.563,5.71,5.71,0,0,1-.4.537c-.144.171-.26.319-.35.444a21.517,21.517,0,0,1-2.4,2.86,25.192,25.192,0,0,1-2.86,2.457q-.135.322-.309.685a6.465,6.465,0,0,0-.309.765,4.49,4.49,0,0,0-.188.792,2.043,2.043,0,0,0,.027.739q.3-.054.537-.08c.143-.019.278-.032.4-.041a.8.8,0,0,0,.242-.04,12.156,12.156,0,0,0,1.584-.43c.52-.179,1.029-.376,1.531-.591a2.185,2.185,0,0,0,.51-.215.483.483,0,0,1,.511-.026q.294.215.08.388a1.7,1.7,0,0,1-.4.256l-3.115,1.155q-.456.16-.886.336a2.8,2.8,0,0,1-.886.2.873.873,0,0,1-.645-.121.91.91,0,0,1-.336-.456,1.563,1.563,0,0,1-.067-.619,3.511,3.511,0,0,1,.107-.63,9.27,9.27,0,0,1,.484-1.29,20.8,20.8,0,0,1-2.31,1.317.418.418,0,0,1-.442-.175C934.645,1160.044,934.693,1159.914,934.908,1159.806Zm5.451-3.678a20.763,20.763,0,0,0,2.31-2.552,9.124,9.124,0,0,0,.913-1.289c.036-.089.09-.2.161-.335a3.484,3.484,0,0,0,.189-.417,2.9,2.9,0,0,0-.712.511c-.225.215-.407.393-.551.537a14.23,14.23,0,0,0-1.154,1.3q-.539.684-1.075,1.409-.3.43-.564.845t-.51.847c.161-.125.326-.265.5-.417S940.2,1156.271,940.359,1156.128Z" fill="#333"/>
    <path id="パス_1024" data-name="パス 1024" d="M942.792,1159.806c.322-.161.658-.339,1.007-.537a8.91,8.91,0,0,1,1.06-.509,2.746,2.746,0,0,1,.995-1.008,4.07,4.07,0,0,1,1.369-.524,3.622,3.622,0,0,1,.873,0,1.063,1.063,0,0,1,.765.4.42.42,0,0,1,.094.456,1.287,1.287,0,0,1-.322.457,3.136,3.136,0,0,1-.511.388q-.281.177-.416.256a3.805,3.805,0,0,1-1.06.443,3.434,3.434,0,0,1-1.168.094h-.108a1.5,1.5,0,0,0,.484.913,2.327,2.327,0,0,0,.885.47,3.209,3.209,0,0,0,1.061.121,8.08,8.08,0,0,0,1.008-.107,12.126,12.126,0,0,0,1.261-.336,11.734,11.734,0,0,0,1.209-.47c.179-.09.363-.175.55-.256a5.491,5.491,0,0,0,.525-.255.511.511,0,0,1,.388.054q.2.108.04.35a.688.688,0,0,1-.375.3c-.161.053-.3.107-.429.161l-1.343.591a23.065,23.065,0,0,1-2.444.805,4.042,4.042,0,0,1-1.087.068,3.162,3.162,0,0,1-1.021-.243,2.668,2.668,0,0,1-.847-.577,2.123,2.123,0,0,1-.537-.966c-.036-.143-.066-.287-.093-.43a.86.86,0,0,1,.013-.4,5.093,5.093,0,0,0-.577.308l-.5.309a1.99,1.99,0,0,0-.35.2.362.362,0,0,1-.429.014.309.309,0,0,1-.148-.3A.254.254,0,0,1,942.792,1159.806Zm2.739-.752a3.1,3.1,0,0,0,1.249-.322,3.9,3.9,0,0,0,1.061-.752,1.513,1.513,0,0,0-.738-.08,2.119,2.119,0,0,0-.672.215,2.067,2.067,0,0,0-.551.416A1.69,1.69,0,0,0,945.531,1159.054Z" fill="#333"/>
    <path id="パス_1025" data-name="パス 1025" d="M972.841,1149.119a2.4,2.4,0,0,0-1.168-.189,4.776,4.776,0,0,0-1.195.269,3.993,3.993,0,0,1,2.739.738,2.7,2.7,0,0,1,.913,2.511,8.183,8.183,0,0,1-.818,2.874,22.188,22.188,0,0,1-1.518,2.632q-.7,1.047-1.585,2.135a14.725,14.725,0,0,1-1.96,1.987,12.481,12.481,0,0,1-2.3,1.53,6.706,6.706,0,0,1-2.564.739,4.772,4.772,0,0,1-1.276-.067,2,2,0,0,1-1.115-.6,2.139,2.139,0,0,1-.591-1.263,5.412,5.412,0,0,1,.028-1.423,9.746,9.746,0,0,1,.926-2.807,24.7,24.7,0,0,1,1.491-2.564,20.312,20.312,0,0,1,1.718-2.43,27.267,27.267,0,0,1,2.014-2.189,21.131,21.131,0,0,1,2.189-1.8,6.215,6.215,0,0,1,2.564-1.1,5.769,5.769,0,0,1,1.034-.081,1.426,1.426,0,0,1,.953.3.442.442,0,0,1,.175.309.51.51,0,0,1-.067.308.486.486,0,0,1-.242.2A.431.431,0,0,1,972.841,1149.119Zm-5.1,1.771a17.25,17.25,0,0,0-2.162,2.109,27.584,27.584,0,0,0-1.84,2.4,19.75,19.75,0,0,0-1.49,2.565,11.006,11.006,0,0,0-.927,2.806,5.251,5.251,0,0,0-.08.605,3.2,3.2,0,0,0,.014.658,2.172,2.172,0,0,0,.161.6,1.082,1.082,0,0,0,.389.47,1.678,1.678,0,0,0,1.034.31,5.592,5.592,0,0,0,1.06-.121,7.44,7.44,0,0,0,2.686-1.128,19.149,19.149,0,0,0,2.283-1.8,17.189,17.189,0,0,0,2-2.2,14.477,14.477,0,0,0,1.544-2.525q.242-.483.537-1.168a7.12,7.12,0,0,0,.444-1.41,4.107,4.107,0,0,0,.053-1.4,1.8,1.8,0,0,0-.6-1.128,1.738,1.738,0,0,0-1.208-.47,7.116,7.116,0,0,0-1.343.094.44.44,0,0,1-.43-.135.577.577,0,0,1-.161-.482,10.149,10.149,0,0,0-1.06.671Q968.114,1150.6,967.739,1150.89Z" fill="#333"/>
    <path id="パス_1026" data-name="パス 1026" d="M972.07,1159.806q.564-.294,1.115-.59t1.2-.671a1.3,1.3,0,0,1,.309-.967,1.062,1.062,0,0,1,.926-.43.547.547,0,0,1,.484.376.651.651,0,0,1-.108.617,1.8,1.8,0,0,1-.564.538.9.9,0,0,0,.457.107,2.46,2.46,0,0,0,1.181-.2,7.846,7.846,0,0,0,1.1-.551q.483-.161.618.107a.642.642,0,0,1-.107.645c-.09.143-.194.327-.31.551a5.046,5.046,0,0,0-.295.684,2.316,2.316,0,0,0-.134.672.6.6,0,0,0,.2.51q.133.161.711,0t1.545-.537c.214-.089.433-.193.657-.309s.452-.228.685-.336a1.316,1.316,0,0,0,.242-.121,1.32,1.32,0,0,1,.308-.134.456.456,0,0,1,.269,0c.081.027.121.121.121.283a.316.316,0,0,1-.121.241,1.36,1.36,0,0,1-.269.188,1.8,1.8,0,0,1-.308.134c-.108.036-.188.064-.242.081l-1.128.51-.739.4a6.227,6.227,0,0,1-.9.4,2.671,2.671,0,0,1-.886.161.772.772,0,0,1-.672-.349.885.885,0,0,1-.161-.417,1.518,1.518,0,0,1,.014-.456,3.964,3.964,0,0,1,.107-.457c.045-.151.085-.3.121-.442l.215-.887c-.09.018-.273.063-.551.135a5.455,5.455,0,0,1-.9.147,4.463,4.463,0,0,1-.927-.014.9.9,0,0,1-.658-.348c-.3.161-.555.295-.752.4s-.4.225-.6.35-.372.223-.5.3a1.6,1.6,0,0,0-.376.2.317.317,0,0,1-.376.041.337.337,0,0,1-.161-.3A.279.279,0,0,1,972.07,1159.806Z" fill="#333"/>
    <path id="パス_1027" data-name="パス 1027" d="M984.86,1158.517c.072-.035.238-.107.5-.214a4.373,4.373,0,0,1,.765-.242,1.447,1.447,0,0,1,.645-.013c.178.045.242.211.188.5a1.324,1.324,0,0,1-.228.483,1.757,1.757,0,0,0-.255.484,6.016,6.016,0,0,0-.309.859.906.906,0,0,0,.094.832,2.538,2.538,0,0,0,1.007-.107q.551-.162,1.007-.323a5.108,5.108,0,0,0,.51-.268c.25-.143.514-.283.792-.416a4.405,4.405,0,0,1,.766-.3c.232-.063.376-.04.43.067q.107.189-.135.4a2.541,2.541,0,0,1-.6.389q-.361.176-.738.322c-.251.1-.412.166-.483.2q-.591.294-1.2.577a4.8,4.8,0,0,1-1.248.388.732.732,0,0,1-.779-.241,1.439,1.439,0,0,1-.215-.819,4.33,4.33,0,0,1,.149-1.074c.1-.385.2-.739.308-1.061q-.618.242-1.209.443a10.79,10.79,0,0,0-1.154.47q-.483.216-.967.484a.41.41,0,0,1-.47-.148q-.174-.228.148-.39Zm3.142-5.424a1.572,1.572,0,0,1,.416-.6,2.481,2.481,0,0,1,.632-.417,4.084,4.084,0,0,1,.738-.255c.259-.062.506-.111.738-.147a9.685,9.685,0,0,1,1.907.08,1.425,1.425,0,0,1,.363.054c.134.036.191.134.174.3a.406.406,0,0,1-.134.229.269.269,0,0,1-.242.066,6.475,6.475,0,0,0-1.624-.12,2.9,2.9,0,0,0-1.518.5.878.878,0,0,0-.376.43.966.966,0,0,1-.322.43.424.424,0,0,1-.564,0A.442.442,0,0,1,988,1153.093Z" fill="#333"/>
    <path id="パス_1028" data-name="パス 1028" d="M990.376,1159.834q.7-.35,1.369-.672t1.37-.591a9.5,9.5,0,0,1,1.491-.4,8.563,8.563,0,0,1,1.543-.135.661.661,0,0,1,.458.147q.16.148.026.5a.528.528,0,0,1-.484.268,9.457,9.457,0,0,0-1.409,0,4.391,4.391,0,0,0-1.356.322,2.251,2.251,0,0,0-.457.243,2.823,2.823,0,0,0-.443.362,1.135,1.135,0,0,0-.282.443.646.646,0,0,0,.054.51.969.969,0,0,0,.819.537,2.788,2.788,0,0,0,1.033-.026,2.839,2.839,0,0,0,.619-.215l.483-.242a1.754,1.754,0,0,1,.389-.148.412.412,0,0,1,.363.121.568.568,0,0,1,.013.617c-.117.233-.21.43-.282.591l-.376.886q.726-.751,1.531-1.436a12.184,12.184,0,0,1,1.718-1.222c.054-.035.125-.089.215-.161a2.389,2.389,0,0,1,.3-.2,1.242,1.242,0,0,1,.322-.135.3.3,0,0,1,.269.041c.125.09.17.178.134.268a.831.831,0,0,1-.188.269q-.7.376-1.342.806a12.532,12.532,0,0,0-1.263.965,16.171,16.171,0,0,0-1.329,1.263,15.186,15.186,0,0,0-1.168,1.4l-.7,1.611q-.323.805-.645,1.638t-.7,1.638c-.054.108-.121.237-.2.389a3.585,3.585,0,0,1-.269.43,1.188,1.188,0,0,1-.35.322.692.692,0,0,1-.443.1.493.493,0,0,1-.416-.3,1.081,1.081,0,0,1-.054-.537,3.577,3.577,0,0,1,.135-.591c.063-.2.12-.359.174-.484a14.013,14.013,0,0,1,1.276-2.349,24.643,24.643,0,0,1,1.624-2.162l.913-2.6a6.911,6.911,0,0,1-1.033.2,4.448,4.448,0,0,1-1.034.014,2.313,2.313,0,0,1-.873-.269,1.457,1.457,0,0,1-.551-1.826c-.142.09-.291.184-.442.283a.461.461,0,0,1-.39.093.289.289,0,0,1-.322-.228A.27.27,0,0,1,990.376,1159.834Z" fill="#333"/>
    <path id="パス_1029" data-name="パス 1029" d="M1002.119,1158.517c.071-.035.238-.107.5-.214a4.373,4.373,0,0,1,.765-.242,1.442,1.442,0,0,1,.644-.013c.179.045.243.211.189.5a1.312,1.312,0,0,1-.229.483,1.779,1.779,0,0,0-.254.484,6.015,6.015,0,0,0-.309.859.9.9,0,0,0,.094.832,2.542,2.542,0,0,0,1.007-.107q.551-.162,1.006-.323a4.973,4.973,0,0,0,.511-.268c.25-.143.514-.283.792-.416a4.345,4.345,0,0,1,.766-.3c.232-.063.376-.04.429.067q.108.189-.134.4a2.563,2.563,0,0,1-.6.389q-.362.176-.738.322c-.251.1-.412.166-.484.2q-.59.294-1.2.577a4.8,4.8,0,0,1-1.248.388.731.731,0,0,1-.779-.241,1.44,1.44,0,0,1-.215-.819,4.375,4.375,0,0,1,.148-1.074c.1-.385.2-.739.309-1.061q-.618.242-1.209.443a10.7,10.7,0,0,0-1.154.47q-.484.216-.967.484a.409.409,0,0,1-.47-.148q-.174-.228.148-.39Zm3.142-5.424a1.562,1.562,0,0,1,.416-.6,2.464,2.464,0,0,1,.632-.417,4.083,4.083,0,0,1,.738-.255c.259-.062.506-.111.738-.147a9.675,9.675,0,0,1,1.906.08,1.425,1.425,0,0,1,.364.054c.134.036.191.134.174.3a.406.406,0,0,1-.134.229.269.269,0,0,1-.242.066,6.475,6.475,0,0,0-1.624-.12,2.9,2.9,0,0,0-1.518.5.873.873,0,0,0-.376.43.973.973,0,0,1-.322.43.424.424,0,0,1-.564,0A.442.442,0,0,1,1005.261,1153.093Z" fill="#333"/>
    <path id="パス_1030" data-name="パス 1030" d="M1007.508,1159.834q.3-.162,1.02-.551t1.491-.738a6.771,6.771,0,0,1,1.41-.484c.429-.09.7-.017.8.215a.531.531,0,0,1-.067.524,2.3,2.3,0,0,0-.255.469l-.322.752a6.9,6.9,0,0,1,.7-.376l.7-.322q.859-.456,1.773-.967a8.66,8.66,0,0,1,1.852-.778,1.321,1.321,0,0,1,.619-.014.779.779,0,0,1,.416.241.694.694,0,0,1,.147.457,1.1,1.1,0,0,1-.215.6,4.441,4.441,0,0,1-.523.671q-.283.3-.577.644a1.6,1.6,0,0,1-.189.215c-.09.09-.183.193-.282.309s-.188.233-.269.349a.867.867,0,0,0-.147.309,1.026,1.026,0,0,0,.47,0,4.34,4.34,0,0,0,.564-.147c.188-.063.366-.13.537-.2l.389-.161,1.1-.483c.072-.036.165-.09.283-.161s.236-.139.362-.2.246-.121.362-.174a.715.715,0,0,1,.282-.081.214.214,0,0,1,.242.242.422.422,0,0,1-.215.376c-.161.09-.331.174-.51.255s-.367.166-.564.255q-.376.215-.725.376t-.726.349c-.142.072-.371.174-.684.309a4.812,4.812,0,0,1-.94.295,1.568,1.568,0,0,1-.819-.027c-.232-.081-.349-.3-.349-.658a.887.887,0,0,1,.134-.483,3.429,3.429,0,0,1,.309-.416,5.124,5.124,0,0,1,.376-.39q.2-.187.363-.349a5.93,5.93,0,0,0,.537-.564,2.209,2.209,0,0,0,.484-.806,5.647,5.647,0,0,0-1.464.376q-.74.3-1.357.619-.779.375-1.611.845a6.282,6.282,0,0,0-1.45,1.114.5.5,0,0,1-.564.068.435.435,0,0,1-.2-.2.5.5,0,0,1-.014-.35.836.836,0,0,1,.4-.43,4.765,4.765,0,0,0,.268-.5,1.652,1.652,0,0,1,.189-.335c.035-.125.071-.255.107-.389a3.113,3.113,0,0,0,.08-.416c-.2.053-.393.116-.591.187s-.348.126-.456.161q-.376.162-.752.309t-.751.336c-.144.072-.274.143-.39.215a2.207,2.207,0,0,1-.39.188.42.42,0,0,1-.308.04.505.505,0,0,1-.228-.121.233.233,0,0,1-.067-.2C1007.315,1159.954,1007.383,1159.887,1007.508,1159.834Z" fill="#333"/>
  </g>
</svg>
