<svg id="lineup_shiny_graph" xmlns="http://www.w3.org/2000/svg" width="285.778" height="252.306" viewBox="0 0 285.778 252.306">
  <path id="パス_735" data-name="パス 735" d="M1185.03,1326.478h-54.273l-81.9,20.35,43.519,72.3,29.8,59.086,62.851-20.709,59.086-29.8v-71.429Z" transform="translate(-1015.212 -1265.805)" fill="#dbdfb8"/>
  <path id="パス_736" data-name="パス 736" d="M1193.608,1305.769h-71.429l-50.508,50.508v71.429l50.508,50.508h71.429l50.508-50.508v-71.429Z" transform="translate(-1015.212 -1265.805)" fill="none" stroke="#999" stroke-miterlimit="10" stroke-width="0.5"/>
  <path id="パス_737" data-name="パス 737" d="M1185.03,1326.478h-54.273l-38.377,38.377v54.273l38.377,38.377h54.273l38.377-38.377v-54.273Z" transform="translate(-1015.212 -1265.805)" fill="none" stroke="#999" stroke-miterlimit="10" stroke-width="0.5"/>
  <path id="パス_738" data-name="パス 738" d="M1175.875,1348.579h-35.964l-25.43,25.43v35.964l25.43,25.43h35.964l25.43-25.43v-35.964Z" transform="translate(-1015.212 -1265.805)" fill="none" stroke="#999" stroke-miterlimit="10" stroke-width="0.5"/>
  <path id="パス_739" data-name="パス 739" d="M1167.092,1369.785h-18.4l-13.008,13.008v18.4L1148.7,1414.2h18.4l13.008-13.008v-18.4Z" transform="translate(-1015.212 -1265.805)" fill="none" stroke="#999" stroke-miterlimit="10" stroke-width="0.5"/>
  <g id="グループ_139" data-name="グループ 139" transform="translate(-1015.212 -1265.805)">
    <path id="パス_740" data-name="パス 740" d="M1097.586,1269.495c0,.33.09.405.495.495a25.668,25.668,0,0,0,3.675.12c3.8,0,4.364-.03,4.649-.3a3.276,3.276,0,0,0,.436-1.815,3.589,3.589,0,0,0,.914.405,3.811,3.811,0,0,1-.7,2.13c-.436.405-.945.45-5.986.45a16.046,16.046,0,0,1-3.794-.225c-.48-.15-.63-.39-.63-1.02v-2.52a6.589,6.589,0,0,0-.09-1.29h1.125a5.018,5.018,0,0,0-.09,1.23v.7c1.529-.165,2.654-.33,3.854-.57a19.132,19.132,0,0,0,4.605-1.305l.735.9c-2.774.78-2.774.78-4.08,1.05-1.875.36-3.135.555-5.114.765Zm6.96,2.82a13.93,13.93,0,0,0,1.814-.075,13.992,13.992,0,0,0-.075,1.83v3.225a13.288,13.288,0,0,0,.09,1.86h-1.034v-.705h-7.186v.705h-1.019a13.132,13.132,0,0,0,.09-1.86v-3.225c0-.84-.031-1.335-.076-1.83a13.163,13.163,0,0,0,1.8.075Zm-6.391,2.565h7.186v-1.725h-7.186Zm0,2.73h7.186V1275.7h-7.186Z" fill="#4d4d4d"/>
    <path id="パス_741" data-name="パス 741" d="M1111.276,1277.13a12,12,0,0,0,.09-1.62v-7.02c0-.615-.029-1.11-.059-1.455a9.175,9.175,0,0,0,1.229.06h1.335a9.7,9.7,0,0,0,1.261-.06,12.985,12.985,0,0,0-.045,1.4v6.21a16.38,16.38,0,0,0,.06,1.65h-.96v-.78h-1.906v1.62Zm1.005-2.46h1.906v-6.705h-1.906Zm9.855-6.45a10.446,10.446,0,0,0,1.575-.09v1.035a11.817,11.817,0,0,0-1.59-.09h-1.965v2.535h2.535a11.977,11.977,0,0,0,1.71-.09v1.035a11.716,11.716,0,0,0-1.695-.09h-2.3a11.771,11.771,0,0,0,1.651,2.49,12.1,12.1,0,0,0,2.819,2.3,3.969,3.969,0,0,0-.645.93,16.657,16.657,0,0,1-2.415-2.205,10.1,10.1,0,0,1-1.724-2.79c.045.555.059.975.059,1.65v2.94a10.459,10.459,0,0,0,.09,1.59h-1.08a12.134,12.134,0,0,0,.09-1.59v-2.94c0-.57,0-.765.06-1.65a12.234,12.234,0,0,1-4.559,5.19,3.382,3.382,0,0,0-.721-.736,13.077,13.077,0,0,0,4.965-5.174h-2.1a8.627,8.627,0,0,0-1.44.075v-1.005a8.746,8.746,0,0,0,1.455.075h2.34v-2.535h-1.68a11.959,11.959,0,0,0-1.545.075v-1.005a14.8,14.8,0,0,0,1.545.075h1.68v-1.2a6.6,6.6,0,0,0-.074-1.215h1.05a6.678,6.678,0,0,0-.076,1.215v1.2Z" fill="#4d4d4d"/>
  </g>
  <g id="グループ_140" data-name="グループ 140" transform="translate(-1015.212 -1265.805)">
    <path id="パス_742" data-name="パス 742" d="M1194.241,1266.9a6.321,6.321,0,0,0-.091-1.08h1.1a6.3,6.3,0,0,0-.091,1.08v.48h3.6v-.48a6.434,6.434,0,0,0-.09-1.08h1.095a6.073,6.073,0,0,0-.09,1.08v.48h2.324a11.949,11.949,0,0,0,1.681-.09v1.035a12.4,12.4,0,0,0-1.681-.075h-2.324v.405a5.329,5.329,0,0,0,.074.975h-1.05a6.662,6.662,0,0,0,.061-.975v-.405h-3.6v.405a6.623,6.623,0,0,0,.061.99h-1.05a6.337,6.337,0,0,0,.075-.99v-.405h-2.176a12.132,12.132,0,0,0-1.664.075v-1.035a11.969,11.969,0,0,0,1.664.09h2.176Zm6.555,7.17a7.233,7.233,0,0,0,1.095-.06,7.118,7.118,0,0,0-.076,1.2v2.8a9.923,9.923,0,0,0,.09,1.366h-1.049v-.855h-7.5v.855h-1.05a10.276,10.276,0,0,0,.09-1.366v-2.8a7.469,7.469,0,0,0-.075-1.2,7.215,7.215,0,0,0,1.095.06h3.015v-2.01h-4.32a15.777,15.777,0,0,0-1.695.075v-1.05a11.848,11.848,0,0,0,1.695.09h4.32v-.855a5.25,5.25,0,0,0-.09-1.215h1.109a6.8,6.8,0,0,0-.09,1.215v.855h4.606a11.835,11.835,0,0,0,1.694-.09v1.05a16.18,16.18,0,0,0-1.694-.075h-4.606v2.01Zm-7.44,3.569h7.5v-2.714h-7.5Z" fill="#4d4d4d"/>
    <path id="パス_743" data-name="パス 743" d="M1206.891,1277.13a12.167,12.167,0,0,0,.09-1.62v-7.02c0-.615-.03-1.11-.06-1.455a9.174,9.174,0,0,0,1.229.06h1.335a9.686,9.686,0,0,0,1.261-.06,12.951,12.951,0,0,0-.045,1.4v6.21a16.344,16.344,0,0,0,.06,1.65h-.96v-.78H1207.9v1.62Zm1.005-2.46h1.905v-6.705H1207.9Zm9.854-6.45a10.443,10.443,0,0,0,1.575-.09v1.035a11.814,11.814,0,0,0-1.59-.09h-1.964v2.535h2.535a12,12,0,0,0,1.71-.09v1.035a11.741,11.741,0,0,0-1.7-.09h-2.295a11.809,11.809,0,0,0,1.651,2.49,12.121,12.121,0,0,0,2.819,2.3,3.936,3.936,0,0,0-.644.93,16.548,16.548,0,0,1-2.415-2.205,10.075,10.075,0,0,1-1.725-2.79c.045.555.06.975.06,1.65v2.94a10.466,10.466,0,0,0,.089,1.59h-1.08a12.155,12.155,0,0,0,.09-1.59v-2.94c0-.57,0-.765.061-1.65a12.243,12.243,0,0,1-4.56,5.19,3.338,3.338,0,0,0-.721-.736,13.077,13.077,0,0,0,4.965-5.174h-2.1a8.65,8.65,0,0,0-1.441.075v-1.005a8.748,8.748,0,0,0,1.455.075h2.34v-2.535h-1.68a11.932,11.932,0,0,0-1.544.075v-1.005a14.775,14.775,0,0,0,1.544.075h1.68v-1.2a6.511,6.511,0,0,0-.074-1.215h1.05a6.7,6.7,0,0,0-.075,1.215v1.2Z" fill="#4d4d4d"/>
  </g>
  <g id="グループ_141" data-name="グループ 141" transform="translate(-1015.212 -1265.805)">
    <path id="パス_744" data-name="パス 744" d="M1280.286,1337.3a11.248,11.248,0,0,0-.09-1.726h1.186a11.294,11.294,0,0,0-.106,1.726v.84h.975a13.649,13.649,0,0,0,1.771-.106v1.14a14.777,14.777,0,0,0-1.771-.1h-.975v7.995a14.193,14.193,0,0,0,.106,1.77h-1.1v-.96h-5.834v.96h-1.095a12.129,12.129,0,0,0,.1-1.755v-8.01h-.976a11.482,11.482,0,0,0-1.71.1v-1.14a11.089,11.089,0,0,0,1.71.106h.976v-.9a9.762,9.762,0,0,0-.1-1.665h1.185a12.006,12.006,0,0,0-.09,1.665v.9h5.834Zm-5.834,1.769v3.24h5.834v-3.24Zm0,4.155v3.735h5.834v-3.735Z" fill="#4d4d4d"/>
    <path id="パス_745" data-name="パス 745" d="M1287.243,1346.746a12.012,12.012,0,0,0,.09-1.62v-7.02c0-.615-.029-1.11-.06-1.455a9.17,9.17,0,0,0,1.23.06h1.335a9.671,9.671,0,0,0,1.261-.06,12.686,12.686,0,0,0-.045,1.4v6.21a16.383,16.383,0,0,0,.059,1.65h-.96v-.78h-1.9v1.62Zm1.005-2.46h1.9v-6.7h-1.9Zm9.855-6.45a10.424,10.424,0,0,0,1.575-.09v1.035a11.827,11.827,0,0,0-1.59-.09h-1.965v2.535h2.535a12.139,12.139,0,0,0,1.71-.089v1.034a11.72,11.72,0,0,0-1.7-.09h-2.295a11.781,11.781,0,0,0,1.65,2.49,12.133,12.133,0,0,0,2.82,2.295,3.967,3.967,0,0,0-.645.93,16.49,16.49,0,0,1-2.415-2.205,10.079,10.079,0,0,1-1.724-2.79c.044.555.059.975.059,1.65v2.94a10.442,10.442,0,0,0,.09,1.59h-1.08a12.328,12.328,0,0,0,.09-1.59v-2.94c0-.57,0-.765.06-1.65a12.234,12.234,0,0,1-4.559,5.19,3.359,3.359,0,0,0-.721-.735,13.1,13.1,0,0,0,4.965-5.175h-2.1a8.631,8.631,0,0,0-1.44.075v-1.005a8.727,8.727,0,0,0,1.455.075h2.34v-2.535h-1.68a11.981,11.981,0,0,0-1.545.075v-1a15.045,15.045,0,0,0,1.545.074h1.68v-1.2a6.477,6.477,0,0,0-.075-1.215h1.05a6.777,6.777,0,0,0-.075,1.215v1.2Z" fill="#4d4d4d"/>
  </g>
  <g id="グループ_142" data-name="グループ 142" transform="translate(-1015.212 -1265.805)">
    <path id="パス_746" data-name="パス 746" d="M1272.217,1432.253a10.486,10.486,0,0,0-1.455.091v-.976a9.512,9.512,0,0,0,1.455.09h3.3a9.054,9.054,0,0,0,1.394-.09v.96a9.522,9.522,0,0,0-1.38-.09h-.659v1.785h.494a11.389,11.389,0,0,0,1.17-.045,13.944,13.944,0,0,0-.045,1.575v6.675l.016.795.015.555c-.225-.015-.855-.03-1.23-.03h-3.33v1.14h-.9a13.221,13.221,0,0,0,.089-1.71v-7.4c0-.645-.014-1.125-.059-1.62a8.036,8.036,0,0,0,1.184.06h.526v-1.77Zm-.27,8.145h3.749v-1.9c-.3.015-.389.015-.464.015a1.436,1.436,0,0,1-.871-.165c-.134-.1-.165-.225-.165-.66v-2.955h-.7v.165c0,2.31-.285,3.57-1.051,4.71a3.372,3.372,0,0,0-.494-.585Zm0-1.47c.63-.84.855-1.89.855-4.05v-.15h-.855Zm0,3.84h3.749v-1.65h-3.749Zm1.545-8.745h.7v-1.785h-.7Zm1.38,3.45c0,.285.029.315.3.315h.524v-3.06h-.824Zm7.2.915a5.586,5.586,0,0,0,1.005-.075l.526.555a6.38,6.38,0,0,0-.391.585,11.3,11.3,0,0,1-1.9,2.4,8.3,8.3,0,0,0,3.389,1.695,4.541,4.541,0,0,0-.45.945,10.585,10.585,0,0,1-3.585-2.085,11.589,11.589,0,0,1-3.989,2.13,2.881,2.881,0,0,0-.54-.825,9.948,9.948,0,0,0,3.93-1.86,8.969,8.969,0,0,1-1.425-1.95,10.448,10.448,0,0,1-1.41,1.41,2.517,2.517,0,0,0-.585-.675,7.475,7.475,0,0,0,2.25-2.415,5.09,5.09,0,0,0,.615-1.38l.9.285a14.43,14.43,0,0,1-.7,1.26Zm-1.32-4.3c-.449.045-.659.075-1.2.135a4.932,4.932,0,0,1-.42,1.695,4.257,4.257,0,0,1-1.995,2.025,2.853,2.853,0,0,0-.555-.72,3.137,3.137,0,0,0,2.13-2.925c-1.365.1-1.365.1-1.755.165l-.1-.93a6.617,6.617,0,0,0,.764.03h.391a11.641,11.641,0,0,0,1.274-2.8l.931.33a25.328,25.328,0,0,1-1.29,2.43,28.41,28.41,0,0,0,3.569-.419,10.183,10.183,0,0,0-1.29-1.29l.646-.42a17.668,17.668,0,0,1,2.46,2.7l-.75.495c-.271-.42-.361-.54-.571-.855-.929.18-.929.18-1.41.24v2.175c0,.27.09.3.75.3s.946-.045,1.05-.195a2.941,2.941,0,0,0,.181-1.215,1.875,1.875,0,0,0,.75.315c-.151,1.695-.3,1.83-2.04,1.83-1.306,0-1.516-.12-1.516-.825Zm-1.545,5.055c-.029.045-.045.06-.09.12a8.211,8.211,0,0,0,1.575,2.055,9.516,9.516,0,0,0,1.741-2.175Z" fill="#4d4d4d"/>
    <path id="パス_747" data-name="パス 747" d="M1287.386,1442.333a12.156,12.156,0,0,0,.09-1.62v-7.02c0-.615-.03-1.11-.06-1.455a9.181,9.181,0,0,0,1.23.06h1.335a9.679,9.679,0,0,0,1.26-.06,13,13,0,0,0-.045,1.4v6.21a16.38,16.38,0,0,0,.06,1.65h-.96v-.78h-1.905v1.62Zm1.005-2.46h1.905v-6.705h-1.905Zm9.854-6.45a10.434,10.434,0,0,0,1.575-.09v1.035a11.808,11.808,0,0,0-1.589-.09h-1.965v2.535h2.535a12,12,0,0,0,1.71-.09v1.035a11.741,11.741,0,0,0-1.7-.09h-2.294a11.775,11.775,0,0,0,1.65,2.49,12.15,12.15,0,0,0,2.819,2.3,3.936,3.936,0,0,0-.644.93,16.438,16.438,0,0,1-2.415-2.205,10.077,10.077,0,0,1-1.725-2.79c.045.555.06.975.06,1.65v2.94a10.335,10.335,0,0,0,.09,1.59h-1.081a12.134,12.134,0,0,0,.09-1.59v-2.94c0-.57,0-.765.061-1.65a12.243,12.243,0,0,1-4.56,5.19,3.33,3.33,0,0,0-.72-.735,13.09,13.09,0,0,0,4.964-5.175h-2.1a8.65,8.65,0,0,0-1.441.075v-1.005a8.749,8.749,0,0,0,1.455.075h2.34v-2.535h-1.679a11.94,11.94,0,0,0-1.545.075v-1.005a14.782,14.782,0,0,0,1.545.075h1.679v-1.2a6.493,6.493,0,0,0-.074-1.214h1.05a6.692,6.692,0,0,0-.075,1.214v1.2Z" fill="#4d4d4d"/>
  </g>
  <g id="グループ_143" data-name="グループ 143" transform="translate(-1015.212 -1265.805)">
    <path id="パス_748" data-name="パス 748" d="M1015.782,1434.863a18.692,18.692,0,0,1,2.61,1.9l-.616.825a12.473,12.473,0,0,0-2.564-2.025Zm2.67,4.95a25.509,25.509,0,0,1-1.98,4.05c-.18.3-.225.39-.315.569l-.885-.794a12.831,12.831,0,0,0,2.37-4.425Zm-1.785-8.535a13.577,13.577,0,0,1,2.415,1.965l-.63.765a11.963,11.963,0,0,0-2.415-2.07Zm10.44,4.935a10.4,10.4,0,0,0,1.544-.09v1.02a11.129,11.129,0,0,0-1.544-.09h-6.991a9.41,9.41,0,0,0-1.439.075v-.99a8.776,8.776,0,0,0,1.41.075h.465v-2.685a8.486,8.486,0,0,0-.09-1.3h1.1a8.154,8.154,0,0,0-.09,1.32v2.67h1.9v-3.885a7.923,7.923,0,0,0-.09-1.29h1.111a7.745,7.745,0,0,0-.09,1.306v.779h2.25a8.748,8.748,0,0,0,1.364-.09v1.021a9.241,9.241,0,0,0-1.38-.091H1024.3v2.25Zm-4.065,5.835a19.472,19.472,0,0,1-3.255,2.055c-.3.15-.42.21-.6.315l-.5-.99a6.009,6.009,0,0,0,1.606-.69,13.333,13.333,0,0,0,2.43-1.59Zm-2.775-4.425a17.907,17.907,0,0,1,2.745,2.04l-.66.75a12.624,12.624,0,0,0-2.745-2.1Zm3.764,2.28a11.322,11.322,0,0,0,1.71-1.26,5.839,5.839,0,0,0,1.066-1.155l.84.615a17.38,17.38,0,0,1-2.956,2.505Zm3.811,4.56a18.7,18.7,0,0,0-3.766-2.64l.615-.645a22.427,22.427,0,0,1,3.72,2.4Z" fill="#4d4d4d"/>
    <path id="パス_749" data-name="パス 749" d="M1032.815,1432.238a7.155,7.155,0,0,0,1.455.09c.824,0,2.024-.045,2.519-.1a1.1,1.1,0,0,0,.555-.18l.8.63a7.9,7.9,0,0,0-.824,2.175c-.331,1.02-.436,1.3-.706,2.1a11.758,11.758,0,0,1,4.095,1.185,17,17,0,0,0,.18-3.045,3.639,3.639,0,0,0-.06-.735l1.125.015a5.707,5.707,0,0,0-.06.93,20.5,20.5,0,0,1-.27,3.255c.81.42,1.32.69,2.055,1.125a2.778,2.778,0,0,0,.434.225l-.4,1.155a17.339,17.339,0,0,0-2.34-1.485,7.081,7.081,0,0,1-1.545,2.715,8.1,8.1,0,0,1-2.385,1.83,3.862,3.862,0,0,0-.795-.78,6.6,6.6,0,0,0,2.43-1.725,5.832,5.832,0,0,0,1.38-2.52,11.054,11.054,0,0,0-4.139-1.245,29.254,29.254,0,0,1-1.411,3.615c-.54,1.035-1.094,1.485-1.815,1.485a2.215,2.215,0,0,1-1.979-2.46,3.368,3.368,0,0,1,1.785-2.97,4.9,4.9,0,0,1,2.7-.645c.495-1.47.675-2.04,1.2-3.779-1.184.089-1.41.1-2.835.149a8.247,8.247,0,0,0-1.095.075Zm0,6.51a2.49,2.49,0,0,0-.72,1.725c0,.795.434,1.425.974,1.425.616,0,1.125-.93,2.22-4.125A3.633,3.633,0,0,0,1032.815,1438.748Z" fill="#4d4d4d"/>
  </g>
  <g id="グループ_144" data-name="グループ 144" transform="translate(-1015.212 -1265.805)">
    <path id="パス_750" data-name="パス 750" d="M1090.028,1506.127a10,10,0,0,0,1.5-.09v1.035a10.425,10.425,0,0,0-1.5-.09h-4.844c-.016,2.43-.016,2.43-.076,3.54a4.864,4.864,0,0,0,.361,1.755,5.821,5.821,0,0,0,1.784,2.625,10.073,10.073,0,0,0,4.35,2.19,2.947,2.947,0,0,0-.539.944c-3.316-1.02-5.715-3.089-6.316-5.429-.854,2.7-2.79,4.454-6.059,5.5a4.413,4.413,0,0,0-.6-.914c2.729-.735,4.515-2.056,5.46-3.976a6.741,6.741,0,0,0,.63-2.849c.045-.87.045-.87.045-3.39h-4.545a10.866,10.866,0,0,0-1.5.09v-1.035a10.133,10.133,0,0,0,1.5.09h4.545a10.368,10.368,0,0,0-.076-1.62h1.125a8.277,8.277,0,0,0-.089,1.62Zm-7.785,8.13c-.524-.495-.72-.675-1.064-.96a10.011,10.011,0,0,1-2.281,1.424,3.318,3.318,0,0,0-.6-.719,8.764,8.764,0,0,0,2.22-1.215,13.328,13.328,0,0,0-1.486-1.005l.646-.48c.66.419.87.555,1.455.975a5.223,5.223,0,0,0,1.139-1.38l.75.51c-.075.09-.075.09-.45.524a8.508,8.508,0,0,1-.8.826c.33.255.526.42,1.08.884Zm-2.4-6.585c.809.465,1.08.63,1.59.975a4.253,4.253,0,0,0,1.019-1.29l.75.48a2.661,2.661,0,0,0-.359.4,7.391,7.391,0,0,1-.766.84c.481.345.691.495,1.29.974l-.585.616c-.569-.51-.795-.69-1.274-1.065a10.807,10.807,0,0,1-2.46,1.574,3.644,3.644,0,0,0-.6-.674,8.892,8.892,0,0,0,2.4-1.35,15.624,15.624,0,0,0-1.606-.96Zm6.854-.075c.84.51,1.125.69,1.725,1.11a4.129,4.129,0,0,0,1.02-1.305l.81.51c-.075.06-.24.255-.314.33-.016.03-.166.2-.42.479a4.155,4.155,0,0,1-.451.451c.555.405.75.555,1.38,1.08l-.615.6c-.63-.586-.84-.765-1.35-1.171a10.729,10.729,0,0,1-2.219,1.4,2.519,2.519,0,0,0-.571-.675,7.886,7.886,0,0,0,2.13-1.2c-.554-.375-.855-.57-1.724-1.095Zm.45,3.615c.855.525,1.125.7,1.621,1.05a3.73,3.73,0,0,0,.884-1.155l.765.51c-.12.12-.21.225-.435.5a6.3,6.3,0,0,1-.57.614c.54.406.78.6,1.515,1.216l-.614.614c-.691-.644-.931-.854-1.471-1.29-.239.2-.449.361-.735.571-.06.03-.36.21-.93.554a2.975,2.975,0,0,0-.585-.659,6.866,6.866,0,0,0,1.6-.945c-.525-.375-.825-.555-1.665-1.066Z" fill="#4d4d4d"/>
    <path id="パス_751" data-name="パス 751" d="M1097.14,1505.512a6.015,6.015,0,0,0,.285.915c.3.885.45,1.305.66,1.98a26.6,26.6,0,0,1,3.225-.84,20.77,20.77,0,0,0-.06-2.655h1.125a14.147,14.147,0,0,0-.075,2.025c0,.015,0,.3.015.48a7.553,7.553,0,0,1,1.125-.09c2.009,0,3.3,1.08,3.3,2.76,0,1.8-1.469,3.09-3.524,3.09a6.351,6.351,0,0,1-2.535-.555,2.328,2.328,0,0,0,.014-.271,6.576,6.576,0,0,0-.089-.854,5.094,5.094,0,0,0,2.52.689,3.038,3.038,0,0,0,1.8-.585,1.818,1.818,0,0,0,.72-1.529c0-1.14-.885-1.815-2.4-1.815a17.673,17.673,0,0,0-4.889,1.065c.765,2.55,1.3,4.665,1.935,7.484a4.726,4.726,0,0,0,.194.645l-1.214.27a53.5,53.5,0,0,0-1.89-8.1,6.888,6.888,0,0,1-.811.27,14.314,14.314,0,0,0-2.054.825l-.39-1.065a16.445,16.445,0,0,0,2.2-.7c.375-.135.525-.165.765-.24a15.063,15.063,0,0,0-1.08-2.85Z" fill="#4d4d4d"/>
    <path id="パス_752" data-name="パス 752" d="M1110.275,1508.677c.54-.015,2.1-.195,3.315-.39a18.239,18.239,0,0,0,.45-3.18v-.2l1.2.135a9.221,9.221,0,0,0-.285,1.44c-.075.435-.18.99-.314,1.71a8.7,8.7,0,0,1,.884-.045,2.871,2.871,0,0,1,2.161.63,3.032,3.032,0,0,1,.734,2.415c0,2.295-.39,4.29-1.005,5.159a1.565,1.565,0,0,1-1.47.705,5.635,5.635,0,0,1-2.264-.585,3.375,3.375,0,0,0,.029-.525,2.915,2.915,0,0,0-.045-.6,5.615,5.615,0,0,0,2.235.691c.375,0,.661-.24.855-.72a11.611,11.611,0,0,0,.63-4.17c0-1.59-.449-2.1-1.845-2.1a8.635,8.635,0,0,0-1.08.075,28.3,28.3,0,0,1-2.265,6.36c-.195.359-.509.96-.974,1.8l-1.021-.6a14.4,14.4,0,0,0,1.561-2.715,24.823,24.823,0,0,0,1.649-4.754c-1.29.195-2.01.315-2.144.345a8.516,8.516,0,0,0-.87.195Zm9.855-1.38a13.563,13.563,0,0,1,3.135,5.31l-.96.555a12.28,12.28,0,0,0-3.06-5.385Z" fill="#4d4d4d"/>
    <path id="パス_753" data-name="パス 753" d="M1126.482,1507.942a6.568,6.568,0,0,0,1.155.075,35.048,35.048,0,0,0,4.47-.315c-.226-.51-.466-1.11-.736-1.785-.165-.39-.255-.6-.389-.87l1.184-.165a4.779,4.779,0,0,0,.435,1.35,12.363,12.363,0,0,0,.54,1.32,17.556,17.556,0,0,0,3.63-.945l.15,1.065c-.315.06-.435.09-.885.21a20.7,20.7,0,0,1-2.025.464c-.36.076-.36.076-.51.106a27.782,27.782,0,0,0,2.7,4.365l-1.005.57a2.984,2.984,0,0,0-1.035-.615,8.1,8.1,0,0,0-2.625-.39,5.312,5.312,0,0,0-2.849.63,1.7,1.7,0,0,0-.811,1.4,1.5,1.5,0,0,0,.57,1.169,5.073,5.073,0,0,0,2.925.69,9.886,9.886,0,0,0,4.26-.96l.165,1.156a12.457,12.457,0,0,1-4.41.809c-1.829,0-3.21-.4-3.9-1.125a2.418,2.418,0,0,1-.674-1.649,2.8,2.8,0,0,1,1.694-2.445,6.376,6.376,0,0,1,2.91-.555,7.491,7.491,0,0,1,3.1.54,18.3,18.3,0,0,1-1.8-2.941c-.165-.314-.165-.344-.255-.494a44.123,44.123,0,0,1-5.34.39,3.317,3.317,0,0,0-.585.045Z" fill="#4d4d4d"/>
  </g>
  <g id="グループ_145" data-name="グループ 145" transform="translate(-1015.212 -1265.805)">
    <path id="パス_754" data-name="パス 754" d="M1183.155,1516.822a12.038,12.038,0,0,0-3.059-2.145c-.255-.135-.6-.286-1.005-.451a4.471,4.471,0,0,1,.029.54,2.6,2.6,0,0,1-.375,1.635,3.016,3.016,0,0,1-2.534.945,3.9,3.9,0,0,1-2.325-.6,1.961,1.961,0,0,1-.81-1.574c0-.991.78-1.77,2.1-2.071a6.582,6.582,0,0,1,1.559-.149,6.684,6.684,0,0,1,1.351.12c-.016-.045-.016-.045-.016-.181a1.244,1.244,0,0,1-.014-.165c-.015-.134-.015-.449-.031-.884-.014-.2-.014-.48-.03-.871-.539.016-1.289.031-1.769.031-.9,0-1.6-.031-2.536-.1-.165-.015-.285-.015-.375-.015h-.12l.016-.99a18.406,18.406,0,0,0,3.435.24c.389,0,.915,0,1.335-.015l-.031-2.055c-.434.015-.675.015-1.019.015-1.095,0-2.31-.045-3.66-.15a1.818,1.818,0,0,0-.27-.015,1.224,1.224,0,0,0-.21.015l.015-1.02a18.63,18.63,0,0,0,3.84.3c.3,0,.81-.015,1.3-.015a11.7,11.7,0,0,0-.074-2.16h1.154a16.78,16.78,0,0,0-.1,2.115,21.142,21.142,0,0,0,4.439-.615l.075,1.02c-.254.015-.254.015-1.035.12a31.149,31.149,0,0,1-3.479.36c.014,1.23.014,1.23.029,2.024a18.063,18.063,0,0,0,4.155-.614l.06,1.035c-.194.015-.345.03-.869.1-1.035.165-2.221.285-3.33.36.03.84.03.84.09,2.3a13.113,13.113,0,0,1,4.184,2.19,5.23,5.23,0,0,0,.51.344Zm-5.069-2.835a5.466,5.466,0,0,0-1.53-.165c-1.486,0-2.46.54-2.46,1.335s.75,1.244,2.054,1.244a2.17,2.17,0,0,0,1.651-.494,1.966,1.966,0,0,0,.3-1.351Z" fill="#4d4d4d"/>
    <path id="パス_755" data-name="パス 755" d="M1188.477,1505.887a8.974,8.974,0,0,0,1.665.09c1.394,0,3.3-.09,4.335-.2a1.8,1.8,0,0,0,.615-.135l.63.87a11.9,11.9,0,0,0-1.62,1.545,27.329,27.329,0,0,1-4.1,3.675l.045.045a6.708,6.708,0,0,1,3.809-1.186c2.385,0,3.9,1.156,3.9,2.986a3.347,3.347,0,0,1-1.949,2.97,7.683,7.683,0,0,1-3.2.629,10.437,10.437,0,0,1-3.614-.705,1.908,1.908,0,0,0,.015-.269,5.717,5.717,0,0,0-.106-.945,8.484,8.484,0,0,0,3.825.929c2.326,0,3.915-1.064,3.915-2.609,0-1.305-1.139-2.1-2.985-2.1a8.892,8.892,0,0,0-4.814,1.65,7.5,7.5,0,0,0-1.17.945l-.75-.931a14.19,14.19,0,0,0,1.95-1.484c1.559-1.365,3.6-3.3,4.979-4.74a1.484,1.484,0,0,1,.135-.15l.12-.12-.03-.015a.752.752,0,0,0-.194.03c-.646.1-2.595.225-4.276.27a6.092,6.092,0,0,0-1.08.075Z" fill="#4d4d4d"/>
    <path id="パス_756" data-name="パス 756" d="M1203.833,1505.512a6.015,6.015,0,0,0,.285.915c.3.885.45,1.305.66,1.98a26.6,26.6,0,0,1,3.225-.84,20.77,20.77,0,0,0-.06-2.655h1.125a14.167,14.167,0,0,0-.075,2.025c0,.015,0,.3.015.48a7.562,7.562,0,0,1,1.125-.09c2.01,0,3.3,1.08,3.3,2.76,0,1.8-1.47,3.09-3.525,3.09a6.352,6.352,0,0,1-2.535-.555,2.177,2.177,0,0,0,.015-.271,6.673,6.673,0,0,0-.09-.854,5.1,5.1,0,0,0,2.52.689,3.038,3.038,0,0,0,1.8-.585,1.815,1.815,0,0,0,.72-1.529c0-1.14-.885-1.815-2.4-1.815a17.685,17.685,0,0,0-4.89,1.065c.766,2.55,1.305,4.665,1.935,7.484a4.719,4.719,0,0,0,.195.645l-1.215.27a53.377,53.377,0,0,0-1.89-8.1,6.733,6.733,0,0,1-.81.27,14.288,14.288,0,0,0-2.055.825l-.39-1.065a16.445,16.445,0,0,0,2.2-.7c.375-.135.525-.165.765-.24a15.063,15.063,0,0,0-1.08-2.85Z" fill="#4d4d4d"/>
    <path id="パス_757" data-name="パス 757" d="M1216.969,1508.677c.54-.015,2.1-.195,3.314-.39a18.239,18.239,0,0,0,.45-3.18v-.2l1.2.135a9.063,9.063,0,0,0-.286,1.44c-.075.435-.179.99-.314,1.71a8.719,8.719,0,0,1,.885-.045,2.87,2.87,0,0,1,2.16.63,3.032,3.032,0,0,1,.734,2.415c0,2.295-.389,4.29-1.005,5.159a1.563,1.563,0,0,1-1.469.705,5.635,5.635,0,0,1-2.265-.585,3.375,3.375,0,0,0,.029-.525,2.915,2.915,0,0,0-.045-.6,5.618,5.618,0,0,0,2.236.691q.563,0,.854-.72a11.589,11.589,0,0,0,.63-4.17c0-1.59-.449-2.1-1.845-2.1a8.635,8.635,0,0,0-1.08.075,28.3,28.3,0,0,1-2.264,6.36c-.2.359-.51.96-.975,1.8l-1.02-.6a14.409,14.409,0,0,0,1.56-2.715,24.889,24.889,0,0,0,1.65-4.754c-1.29.195-2.01.315-2.145.345a8.516,8.516,0,0,0-.87.195Zm9.854-1.38a13.551,13.551,0,0,1,3.135,5.31l-.96.555a12.267,12.267,0,0,0-3.059-5.385Z" fill="#4d4d4d"/>
    <path id="パス_758" data-name="パス 758" d="M1233.175,1507.942a6.574,6.574,0,0,0,1.155.075,35.035,35.035,0,0,0,4.47-.315c-.226-.51-.466-1.11-.735-1.785-.166-.39-.255-.6-.39-.87l1.184-.165a4.779,4.779,0,0,0,.435,1.35,12.363,12.363,0,0,0,.54,1.32,17.556,17.556,0,0,0,3.63-.945l.15,1.065c-.315.06-.434.09-.884.21a20.78,20.78,0,0,1-2.026.464c-.359.076-.359.076-.51.106a27.8,27.8,0,0,0,2.7,4.365l-1.005.57a3,3,0,0,0-1.035-.615,8.106,8.106,0,0,0-2.625-.39,5.318,5.318,0,0,0-2.85.63,1.7,1.7,0,0,0-.811,1.4,1.5,1.5,0,0,0,.571,1.169,5.069,5.069,0,0,0,2.925.69,9.885,9.885,0,0,0,4.259-.96l.165,1.156a12.453,12.453,0,0,1-4.41.809c-1.829,0-3.21-.4-3.9-1.125a2.414,2.414,0,0,1-.675-1.649,2.8,2.8,0,0,1,1.694-2.445,6.379,6.379,0,0,1,2.91-.555,7.491,7.491,0,0,1,3.1.54,18.457,18.457,0,0,1-1.8-2.941c-.165-.314-.165-.344-.255-.494a44.127,44.127,0,0,1-5.34.39,3.318,3.318,0,0,0-.585.045Z" fill="#4d4d4d"/>
  </g>
  <g id="グループ_146" data-name="グループ 146" transform="translate(-1015.212 -1265.805)">
    <path id="パス_759" data-name="パス 759" d="M1018.82,1348.072a12.084,12.084,0,0,0-1.6.06v-1.185a7.321,7.321,0,0,0,1.635.106h7.139v-7.246h-6.824a12.554,12.554,0,0,0-1.726.076v-1.2a8.2,8.2,0,0,0,1.726.106h7.2c.2,0,.406-.016.781-.03-.031.375-.031.63-.031,1.17v7.679a10.231,10.231,0,0,0,.075,1.365h-1.2v-.9Z" fill="#4d4d4d"/>
    <path id="パス_760" data-name="パス 760" d="M1037.464,1337.243a2.81,2.81,0,0,0-.33.615,14.344,14.344,0,0,1-.69,1.335,44.519,44.519,0,0,1,4.53-.12,1.485,1.485,0,0,0,.78-.1l.644.629c-.134.181-.134.2-.3.736a15.873,15.873,0,0,1-3,5.639,14.69,14.69,0,0,1-5.22,3.75,2.251,2.251,0,0,0-.75-.885,12.753,12.753,0,0,0,5.295-3.8,13.783,13.783,0,0,0,2.58-5.025l-5.055.09a14.48,14.48,0,0,1-3.585,3.9,2.232,2.232,0,0,0-.84-.781,11.1,11.1,0,0,0,3.765-4.11,6.787,6.787,0,0,0,.945-2.189Z" fill="#4d4d4d"/>
  </g>
  <line id="線_16" data-name="線 16" x1="109.032" y1="45.163" transform="translate(33.65 81.024)" fill="none" stroke="#999" stroke-miterlimit="10" stroke-width="0.5"/>
  <line id="線_17" data-name="線 17" x1="45.162" y1="109.032" transform="translate(97.519 17.154)" fill="none" stroke="#999" stroke-miterlimit="10" stroke-width="0.5"/>
  <line id="線_18" data-name="線 18" y1="109.032" x2="45.163" transform="translate(142.682 17.154)" fill="none" stroke="#999" stroke-miterlimit="10" stroke-width="0.5"/>
  <line id="線_19" data-name="線 19" y1="45.163" x2="109.032" transform="translate(142.682 81.024)" fill="none" stroke="#999" stroke-miterlimit="10" stroke-width="0.5"/>
  <line id="線_20" data-name="線 20" x2="109.032" y2="45.162" transform="translate(142.682 126.186)" fill="none" stroke="#999" stroke-miterlimit="10" stroke-width="0.5"/>
  <line id="線_21" data-name="線 21" x2="45.163" y2="109.032" transform="translate(142.682 126.186)" fill="none" stroke="#999" stroke-miterlimit="10" stroke-width="0.5"/>
  <line id="線_22" data-name="線 22" x1="45.162" y2="109.032" transform="translate(97.519 126.186)" fill="none" stroke="#999" stroke-miterlimit="10" stroke-width="0.5"/>
  <line id="線_23" data-name="線 23" x1="109.032" y2="45.162" transform="translate(33.65 126.186)" fill="none" stroke="#999" stroke-miterlimit="10" stroke-width="0.5"/>
  <path id="パス_761" data-name="パス 761" d="M1203.056,1282.959h-90.325l-63.87,63.87v90.325l63.87,63.87h90.325l63.87-63.87v-90.325Z" transform="translate(-1015.212 -1265.805)" fill="none" stroke="#999" stroke-miterlimit="10" stroke-width="0.5"/>
</svg>
