<svg id="lineup_refreshing_howto_sp" xmlns="http://www.w3.org/2000/svg" width="594" height="55" viewBox="0 0 594 55">
  <rect id="長方形_52" data-name="長方形 52" width="594" height="55" fill="#fff100" opacity="0"/>
  <path id="パス_2088" data-name="パス 2088" d="M-5038.6-621c-.281,0-8.679,1.96-8.878,2.04a17.451,17.451,0,0,1-1.8.76,8.34,8.34,0,0,1-2.72-1.44,8.156,8.156,0,0,1-.96-2.32c0-.2.04-.319.24-.319.04,0,.92.239,1.039.279a7.11,7.11,0,0,0,2.121.4c1.359,0,8.878-.641,10.958-1.481a15.332,15.332,0,0,1,2.2-1.239c.959,0,3.4,2.04,3.4,3.04,0,.359-1.48,1.44-1.72,1.719-.8.96-3.959,5.64-4.6,6.559a1.317,1.317,0,0,0-.32.8c0,.36.08.44,1.759,1.36,1.8,1.04,8.959,5.079,8.959,8.718a1.726,1.726,0,0,1-1.639,1.76c-.92,0-1.08-.28-2.48-2.76-2.76-4.839-6.279-7.879-7.159-7.879-.4,0-.52.121-1.4,1.121-1.4,1.479-5.48,5.959-10.679,8.558a9.775,9.775,0,0,1-2.48.92c-.08,0-.28,0-.28-.24a12.509,12.509,0,0,1,1.84-1.48c10.438-7.558,15.2-17.917,15.078-18.556A.449.449,0,0,0-5038.6-621Z" transform="translate(5077.463 640.524)" fill="#4d4d4d"/>
  <path id="パス_2089" data-name="パス 2089" d="M-5008.965-609.564a1.454,1.454,0,0,1-1.36,1.519c-.88,0-1.159-.92-1.439-1.8a14.294,14.294,0,0,0-2.32-4.039c-.2-.281-.28-.4-.28-.521,0-.239.24-.359.52-.359C-5012.885-614.763-5008.965-612.764-5008.965-609.564Zm12.358-8.239a2.548,2.548,0,0,1-.08-.36.272.272,0,0,1,.28-.28,8.9,8.9,0,0,1,1.8,1c.639.319,2.239,1.28,2.239,2.439,0,.321-.159.361-.84.76a32.618,32.618,0,0,0-2.039,3.44c-6.119,10.158-15.958,14.118-16.277,14.118a.258.258,0,0,1-.24-.24,16.9,16.9,0,0,1,2.239-1.68c8.518-6.52,13.2-14.038,13.2-17.478A4.059,4.059,0,0,0-4996.607-617.8Zm-6.238,3.88c0,1.159-.641,2.04-1.361,2.04-.88,0-1.08-1-1.2-1.68a12.537,12.537,0,0,0-1.481-3.8,4.538,4.538,0,0,1-.439-.88c0-.12.2-.24.4-.2A5.069,5.069,0,0,1-5002.845-613.923Z" transform="translate(5077.463 640.524)" fill="#4d4d4d"/>
  <path id="パス_2090" data-name="パス 2090" d="M-4957.359-598.766c0,.759-.279,1.519-.88,1.519-1.76,0-2.4-3.479-2.72-5.159-.2-1-1.079-5.358-1.239-6.278-.16-.721-.36-1.24-1.08-1.24-.16,0-4.919,1.12-6.879,1.759a21.137,21.137,0,0,1-2.439,1.04c-.6,0-4.6-1.759-4.6-2.96,0-.319.28-.4.48-.4.361,0,2.04.159,2.4.159a45.514,45.514,0,0,0,9.719-1.359c1.039-.2,1.319-.36,1.319-1.039a23.923,23.923,0,0,0-.88-4c-.24-1-.439-1.4-1.04-1.4a48.551,48.551,0,0,0-5.519,1.52c-.96,0-3.639-1.441-3.639-2.159,0-.281.44-.281.8-.281a37.1,37.1,0,0,0,6.159-.68c1.4-.32,2.04-.56,2.04-1.32,0-.16-.521-3.959-2.28-5.479a16.3,16.3,0,0,1-1.84-1.44c0-.24,1.2-.679,2.08-.679.8,0,3.6.88,3.719,1.679.081.561.16,2.88.24,3.36.36,2.6.8,2.6,1.36,2.6a24.24,24.24,0,0,0,3.48-1.08c1.719-.759,1.919-.84,2.479-.84,1.279,0,2.4.84,2.4,1.481,0,.8-.8.959-3.72,1.519a33.033,33.033,0,0,0-4.039.88.885.885,0,0,0-.76,1,25.836,25.836,0,0,0,.72,3.6c.36,1.36.52,1.721,1.24,1.721a26.823,26.823,0,0,0,5.119-1.521,8.179,8.179,0,0,1,3.959-1c2.12,0,3,1.08,3,1.76,0,1.2-1.64,1.24-3.079,1.24a42.366,42.366,0,0,0-7.2,1.159c-1.68.361-1.76.6-1.76,1.361C-4960.238-608.684-4957.359-600.526-4957.359-598.766Z" transform="translate(5077.463 640.524)" fill="#4d4d4d"/>
  <path id="パス_2091" data-name="パス 2091" d="M-4930.04-626.2c.96,0,3.159,1.4,3.159,2.08,0,.2-.08,1.119-.08,1.32,0,4.639.08,8.239.12,9.2.04.48.241,2.48.241,2.88,0,1.04-.92,2.04-1.521,2.04-.88,0-1.8-2.12-1.8-3.16,0-.32.2-1.68.2-2,.08-1.8.08-3.36.08-4.08,0-4.479-.2-5.4-1.44-6.839-.32-.36-.52-.6-.52-.92C-4931.6-625.962-4930.96-626.2-4930.04-626.2Zm11-1.119c-.48-.641-.52-.721-.52-.8,0-.119,0-.239,1.16-.239,2.4,0,4.4,1,4.4,2.039a15.737,15.737,0,0,1-.4,1.6c-.159,1.079-.2,7.078-.319,8.478a25.3,25.3,0,0,1-10,18.557c-1.16.92-3.16,2.359-3.6,2.359-.16,0-.24-.08-.24-.2,0-.159,2.6-2.72,3.079-3.239,7.719-8.239,8-15.2,8-23.2C-4917.482-625.082-4918.2-626.122-4919.042-627.321Z" transform="translate(5077.463 640.524)" fill="#4d4d4d"/>
  <path id="パス_2092" data-name="パス 2092" d="M-4871.135-616a35.216,35.216,0,0,0,9.678,3.16c.16,0,.84.121.84.28,0,.12-.56.28-.72.32a6.921,6.921,0,0,0-3.039,2.159c-.12.161-.56,1-.76,1-.24,0-8.918-4.2-12.837-10.6-.761-1.281-.88-1.4-1.161-1.4s-.36.08-1.24,1a47.523,47.523,0,0,1-11.838,9.319c-1.359.719-5.518,2.559-6.278,2.559-.12,0-.2-.08-.2-.12s4.279-2.68,4.638-2.919c5.4-3.4,11.119-9.518,11.679-12.518.04-.32.08-.44.36-.44.2,0,3.439,1.24,3.639,1.36.12.04.52.2.52.6a2.489,2.489,0,0,1-.159.561C-4877.933-621.083-4874.494-617.723-4871.135-616Zm-19.277-9.958c-2.959,0-4.319.08-5.079.121-.12,0-.72.08-.84.08s-.2-.08-.359-.241l-.761-.92c-.159-.2-.159-.2-.159-.28s.04-.08.119-.08c.28,0,1.521.12,1.76.12,1.96.08,3.639.16,5.519.16h1.16c.84,0,1.08-.4,1.08-1.079a6.533,6.533,0,0,0-.32-2.12,6.074,6.074,0,0,1-.24-.8c0-.2.2-.28.439-.28.281,0,2.081.441,2.521.56,1.2.32,1.439.4,1.439.759,0,.241-.04.321-.6,1.041a.976.976,0,0,0-.28.719c0,.961.319,1.2,1.4,1.2h6.6c.36,0,1.2,0,1.2-1.079a16.653,16.653,0,0,0-.12-1.8c-.04-.2-.241-1.039-.241-1.2,0-.2.241-.28.441-.28.28,0,3,.64,3.439.76s.68.28.68.639c0,.241-.16.4-.6.721a1.281,1.281,0,0,0-.52,1.119c0,1.12.641,1.12,1.28,1.12h2.04c1.759,0,1.959,0,2.56-.679,1.119-1.32,1.239-1.48,1.6-1.48.24,0,3.719,2.119,3.719,2.639,0,.56-.8.56-2.119.56h-7.8c-1.24,0-1.24.64-1.24,1.6,0,.24.04,1.6.04,1.8,0,1.479-1.2,1.72-2.039,1.72-.92,0-1.08-.161-1.08-1.52v-2.76c-.12-.76-.6-.84-1.24-.84h-6.4c-.92,0-1.479,0-1.479,1.12,0,.4.12,2.16.12,2.52,0,.76-.12,1.119-.481,1.359a2.829,2.829,0,0,1-1.519.56c-.68,0-1-.439-1-1.239,0-.321.04-1.84.04-2.12,0-1.56,0-2.2-1.24-2.2Zm2.84,20.437a20.461,20.461,0,0,1,3.079,1.88.989.989,0,0,1,.32.6c0,.481-.32.561-1.28.8-.119.04-3.558,2.72-4.2,3.2-3.6,2.56-5.879,3.48-6.079,3.48a.127.127,0,0,1-.119-.119c0-.08,2.119-1.92,2.4-2.2,3.319-3.16,5.358-6.32,5.719-7.6A.241.241,0,0,1-4887.572-605.525Zm1.84-2.12c-3.12,0-4.279.041-5.079.12-.12,0-.721.08-.84.08s-.2-.08-.36-.239l-.76-.92c-.16-.2-.16-.2-.16-.28,0-.04.04-.081.12-.081.28,0,1.519.121,1.759.121,1.96.12,3.64.16,5.519.16h3c.4,0,1.2,0,1.2-1.08,0-.481-.24-3.72-.32-4.119,0-.081-.24-.481-.24-.561s.08-.239.4-.239c.279,0,3.079.6,3.48.719.559.121.759.48.759.68,0,.24-.08.32-.679.84-.561.48-.561.72-.561,1.92,0,1.439,0,1.84,1.2,1.84h1.76c1.76,0,1.959,0,2.56-.68,1.119-1.32,1.239-1.48,1.6-1.48.24,0,3.719,2.16,3.719,2.639,0,.56-.8.56-2.119.56h-7.559c-1.2,0-1.2.721-1.2,2,0,2.84,0,4.439.08,6.8.04.679.04,1.639.04,2.12,0,1.279-.32,2.039-2.039,2.039-.88,0-.96-.72-.96-1.4,0-.519.119-2.92.119-3.439.04-1.52.04-3,.04-4.84a24.51,24.51,0,0,0-.079-2.719c-.2-.56-.84-.56-1.16-.56Zm10.678,3.359c0-.119.2-.159.36-.159,1.479,0,10.6,2.52,10.6,5.839,0,1.279-.72,2.279-1.72,2.279-.76,0-.92-.2-2.159-2.039-1.88-2.84-4.64-4.479-6.879-5.76C-4874.894-604.126-4875.054-604.245-4875.054-604.286Z" transform="translate(5077.463 640.524)" fill="#4d4d4d"/>
  <path id="パス_2093" data-name="パス 2093" d="M-4832.649-624.522c0,.12.079.28.079.44a30.712,30.712,0,0,1,.4,4.32c0,2.679-.6,6.4-4.119,11.717-3.2,4.879-5.239,5.839-6.839,5.839-2.639,0-5-4.119-5-9a14.091,14.091,0,0,1,4.439-10.2,16.549,16.549,0,0,1,12.759-5.2,13.029,13.029,0,0,1,6.438,1.279,12.536,12.536,0,0,1,6.959,11.638,14.917,14.917,0,0,1-10.078,14.078,24.6,24.6,0,0,1-6.64,1.479c-.159,0-.4-.04-.4-.28,0-.119.08-.159,1.08-.559,4.159-1.64,12.838-5.08,12.838-15.038,0-1.559-.16-11.078-11.078-11.078C-4832.61-625.082-4832.649-624.762-4832.649-624.522Zm-13,12.278c0,2.6,1.04,6.159,3.479,6.159,1.159,0,2.119-.48,4.879-4.639,2.119-3.24,3.919-7.679,3.919-11.638,0-2.4-.159-2.6-.68-2.6C-4837.848-624.962-4845.647-619.8-4845.647-612.244Z" transform="translate(5077.463 640.524)" fill="#4d4d4d"/>
  <path id="パス_2098" data-name="パス 2098" d="M-4621.9-608.125c-1.04,0-1.04.6-1.04,1.08,0,.96.04,5.08.04,5.919,0,.241,0,.8.64.8.32,0,3.6-1.36,3.959-1.519a.872.872,0,0,0,.56-.72,7.937,7.937,0,0,0-1.28-2.481,8.265,8.265,0,0,1-.8-1.079c0-.04.08-.04.12-.04.76,0,5.879,2.4,5.879,5.679,0,1.12-.56,1.92-1.319,1.92-.72,0-.88-.4-1.52-1.88-.24-.6-.36-.92-.8-.92-.519,0-7.678,4.68-7.958,5.319-.4.8-.44.92-.839.92-.68,0-1.68-3.2-1.68-3.479s.16-.36.439-.36c2.08,0,2.08-.24,2.08-1.96v-12c0-2.759,0-6.838-.639-6.838-.16,0-2.8,2.119-3.04,2.119-.08,0-.12,0-.12-.08,0-.04,1.08-1.4,1.28-1.68a61.361,61.361,0,0,0,6.879-11.118c.2-.76.2-.84.519-.84.241,0,3.119,1.4,3.119,2.239a.6.6,0,0,1-.359.521c-.24.12-.4.2-.4.4s0,.2,1.2.681c.76.28,4.679,1.88,4.679,4.759a1.314,1.314,0,0,1-1.32,1.48c-.4,0-.92-.121-1.679-1.721-.72-1.519-3.16-4.438-3.68-4.438-.319,0-.52.279-.72.559a53.436,53.436,0,0,1-5.279,6.12c-.12.08-.2.16-.2.279s.079.16,1,.641c1.2.6,1.32.679,1.88.679,1.16,0,1.2-.36,1.2-1.2a8.675,8.675,0,0,0-.2-2.4c-.04-.2-.321-.96-.321-1.12,0-.08.08-.2.4-.2s3.4.44,3.4,1.4c0,.12-.44.6-.519.719-.161.321-.161.481-.161,1.64,0,.561,0,1.16.84,1.16.88,0,1,0,1.32-.32.719-.84.959-1.08,1.28-1.08.279,0,2.159,1.16,2.159,1.881,0,.239-.68,1.119-.76,1.319a10.1,10.1,0,0,0-.12,1.96c0,1.079.12,6,.12,6.959,0,.76,0,2.159-1.679,2.159-.88,0-.96-.479-1.041-1.16-.12-.68-.8-.68-1.08-.68Zm4.6-6.239c1.04,0,1.04-.559,1.04-1.439,0-1.92,0-2.32-1.04-2.32h-4.6c-1.04,0-1.04.6-1.04,1.44,0,1.96,0,2.319,1.04,2.319Zm-.081,5.159c1.041,0,1.121,0,1.121-3.159,0-.92-.6-.92-1.04-.92h-4.6c-1.04,0-1.04.36-1.04,1.56,0,2.28,0,2.519,1.04,2.519Zm19-12.157a1.119,1.119,0,0,0,1.2-.641c.559-.92.6-1.039.88-1.039.319,0,3.919,1.919,3.919,2.839,0,.8-.44.84-2.64,1.12a4.68,4.68,0,0,0-2.64,1.28c-.08.04-.479.32-.519.32s-.08,0-.08-.04c0-.2.559-1.84.559-2.2,0-.6-.4-.6-.76-.6h-3.439c-.56,0-1.079.04-1.079,1,0,12.118,9,20.037,9.437,20.4.281.24,1.76,1.28,1.76,1.48,0,.119-.679.239-.72.239a7.093,7.093,0,0,0-2.4.8,3.913,3.913,0,0,1-.88.521c-.8,0-5.439-5.52-7.438-17.278-.04-.12-.12-.639-.241-.639-.16,0-.2.359-.24.759-.6,4.839-2.359,13.037-10.158,16.557a7.518,7.518,0,0,1-2.839.76c-.16,0-.2,0-.2-.119a4.19,4.19,0,0,1,.88-.561c2.119-1.08,6.318-3.239,8.438-10.478a45.073,45.073,0,0,0,1.68-12.118c0-.72,0-1.32-.92-1.32s-1,.12-1.76,1.24a32.65,32.65,0,0,1-3.279,4.2.106.106,0,0,1-.12-.121c0-.24,1.24-2.919,1.479-3.479.88-2.239,3.36-9.038,3.36-11.278,0-1.16,0-1.36.52-1.36.56,0,3.879,1.6,3.879,2.239,0,.321-.12.4-.84.84-.479.321-3.2,6.24-3.2,6.24,0,.44.44.44.68.44Z" transform="translate(5077.463 640.524)" fill="#4d4d4d"/>
  <path id="パス_2099" data-name="パス 2099" d="M-4566.9-625.162c-.521,0-2.2,1.44-2.84,2-.519.481-2.04,1.84-3.079,1.84-1.48,0-2.6-2.839-2.6-2.959,0-.24.08-.4.32-.4s1.16.16,1.36.16c1.279,0,1.76-.08,4.159-1.6a6.862,6.862,0,0,1,3.839-1.319c2.64,0,3.239,1.8,3.239,2.4,0,.84-.359,1.32-2.439,3.24a36.353,36.353,0,0,0-5.879,8.118c0,.2.28.24.4.24.52,0,2.76-.04,3.24,0a32.338,32.338,0,0,1,7.558,1.6,1.6,1.6,0,0,0,.64.16c.52,0,.76-3.28.76-3.68,0-.319-.24-2.079-.24-2.239,0-.239.28-.239.44-.239.12,0,3.6.639,3.6,2.2a8.647,8.647,0,0,1-.879,1.559c0,.08-.56,3.28-.56,3.4,0,.519.239.639.92,1,1.56.84,5.2,2.719,5.2,4.8a1.548,1.548,0,0,1-1.48,1.519c-.8,0-1.24-.319-4.039-2.719-.08-.04-1.241-1.04-1.64-1.04-.32,0-.44.281-.56.48a17.255,17.255,0,0,1-7.838,7.4,14.771,14.771,0,0,1-4.32,1.6c-.04,0-.32,0-.32-.12a6.347,6.347,0,0,1,.76-.561c3.96-2.719,5.919-4.318,8.239-7.918a7.373,7.373,0,0,0,1.2-2.279c0-.36,0-.561-2.2-1.641a17.335,17.335,0,0,0-7.359-1.8c-2.48,0-2.56.16-3.24,1.6-3.439,7.318-4.119,8.8-6.638,8.8-2.04,0-2.64-2.2-2.64-3.2,0-3.4,3.56-6.439,7.759-7.919a1.444,1.444,0,0,0,1-.8c.92-1.48,5.919-9.038,6.119-9.4a5.677,5.677,0,0,0,.519-1.8A.515.515,0,0,0-4566.9-625.162Zm-13.4,19.277c0,.679.32,1.16,1.04,1.16,2.2,0,4.8-5.879,4.8-6.039,0-.12-.039-.2-.159-.2C-4576.064-610.965-4580.3-608.245-4580.3-605.885Z" transform="translate(5077.463 640.524)" fill="#4d4d4d"/>
  <path id="パス_2100" data-name="パス 2100" d="M-4535.084-621.842c-.92,0-3.679,0-5.08.08a6.039,6.039,0,0,1-.84.12c-.119,0-.2-.12-.359-.281l-.76-.919c-.16-.161-.16-.2-.16-.241a.105.105,0,0,1,.12-.119c.279,0,1.52.119,1.8.16,1.8.08,3.6.119,5.478.119h7.839c1.16,0,1.16-.519,1.16-2.8a25.13,25.13,0,0,0-.2-3.68c-.04-.24-.28-1.2-.28-1.4,0-.24.28-.24.44-.24s4.24.84,4.24,1.76c0,.4-.08.44-.76,1.079-.521.441-.561,1.481-.561,2.12,0,3,.241,3.159,1.281,3.159h7.959c1.479,0,1.879,0,2.4-.6.239-.36,1.279-2.239,1.68-2.239.6,0,3.8,2.758,3.8,3.319,0,.6-.76.6-2.12.6h-17.957c-.44,0-.6,0-.6.16,0,.279.159.279,1.72.519.6.08,1.758.321,1.758.88,0,.32-1.119,1.32-1.239,1.6a11.066,11.066,0,0,0-.64,2.919c0,.8.84.8,1,.8h8.839a1.9,1.9,0,0,0,1.68-.6,4.751,4.751,0,0,1,.92-.8c.2,0,3.479,2,3.479,2.56,0,.319-1.04,1.239-1.16,1.479-.439.8-.96,4.8-1.119,5.6-1.24,5.719-2.479,7.839-3.72,9.279a7.91,7.91,0,0,1-4.6,2.639c-.48,0-.48-.28-.48-.64,0-1.72-2.08-3-3.319-3.64-.92-.479-1.04-.519-1.04-.639,0-.08.04-.32.4-.32a6.69,6.69,0,0,1,1.64.44,12.057,12.057,0,0,0,3.159.519c1.68,0,3.52-1,4.8-6.278a41,41,0,0,0,1.04-7.479c0-1.039-.68-1.039-1.279-1.039h-9.4c-1.12,0-1.2.2-1.679,2.279-3.121,13-13.319,15.477-13.838,15.477-.12,0-.361,0-.361-.12,0-.16.481-.439.96-.679a23.713,23.713,0,0,0,8.6-9.639,37.573,37.573,0,0,0,2.92-12.638c0-2.639-.681-2.639-1.481-2.639Z" transform="translate(5077.463 640.524)" fill="#4d4d4d"/>
  <g id="グループ_535" data-name="グループ 535" transform="translate(-797.415 -1633.393)">
    <path id="パス_2251" data-name="パス 2251" d="M1092.671,1654.331c0,1.3-3,2.49-3.952,2.885-.553.2-.593.356-.671,1.739-.08.87-.08,4.071-.08,4.269,0,.238,0,.713.355.713.119,0,3.36-1.345,3.993-1.582,3.913-1.462,5.691-1.581,6.719-1.581a6.052,6.052,0,0,1,6.088,5.969c0,5.217-5.495,7.59-8.736,7.59-2.253,0-4.071-1.146-4.071-3.2a3.521,3.521,0,0,1,1.976-3.122.213.213,0,0,1,.2.2c0,.119-.08.2-.158.316a1.636,1.636,0,0,0-.355,1.067c0,1.9,2.174,1.9,2.569,1.9,2.61,0,5.93-1.739,5.93-4.9a4.1,4.1,0,0,0-3.794-4.349c-1.108,0-3.558.515-8.184,2.965-2.212,1.186-2.449,1.3-2.449,1.976,0,.435.117,2.214.117,2.609,0,1.818-.593,4.428-2.016,4.428-1.067,0-1.5-.83-1.818-1.462-1.266-2.452-1.462-2.452-1.976-2.452a3.284,3.284,0,0,0-.988.237,7.784,7.784,0,0,1-1.5.791c-.434,0-2.449-1.186-2.449-2.49,0-.711.434-1.541,1.145-1.541.237,0,1.385.2,1.622.2,1.066,0,1.779-.2,4.109-1.344,2.017-.988,2.254-1.107,2.254-2.214,0-.91-.04-4.27-.079-4.942,0-.277-.119-.87-.553-.87a9.244,9.244,0,0,0-1.818.356c-2.017.672-2.213.751-2.807.751-1.343,0-2.844-2.727-2.844-3a.279.279,0,0,1,.315-.277c.119,0,.593.158.711.158a11.49,11.49,0,0,0,1.818.2,17.266,17.266,0,0,0,5.021-1.186,29.573,29.573,0,0,0,.4-4.308,3.882,3.882,0,0,0-1.3-3.163,3.957,3.957,0,0,1-.553-.632c0-.356.633-.435.87-.435,2.648,0,4.072,1.937,4.072,2.688a15.885,15.885,0,0,1-.831,2.056,21.094,21.094,0,0,0-.394,2.569c0,.158.078.435.315.435.277,0,1.385-.435,1.385-.988,0-.079-.2-.474-.2-.553,0-.04.078-.119.157-.158C1090.775,1652.552,1092.671,1653.106,1092.671,1654.331Zm-9.012,15.139c0,.593,1.067,1.858,1.66,1.858.553,0,1.107-1.107,1.107-3.043,0-.158,0-.553-.119-.632C1086.189,1667.651,1083.66,1668.916,1083.66,1669.47Zm25.97-12.293c0,.83-.474,1.9-1.3,1.9-.237,0-1.146-.079-1.344-.079-.2.04-1.028.277-1.187.277a.184.184,0,0,1-.2-.2,2.719,2.719,0,0,1,.119-.316,2.107,2.107,0,0,0,.158-.711c0-1.581-1.976-2.134-3.321-2.134a3.435,3.435,0,0,0-1.542.4.883.883,0,0,1-.4.119c-.119,0-.158-.039-.158-.158a5.057,5.057,0,0,1,4.27-2.49C1107.772,1653.777,1109.629,1655.358,1109.629,1657.177Z" transform="translate(0 0.154)" fill="#4d4d4d"/>
    <path id="パス_2252" data-name="パス 2252" d="M1122.734,1653.718a5.418,5.418,0,0,1-.474,1.581,13.959,13.959,0,0,0-.949,5.1c0,3.993,2.055,6.878,3.28,6.878.673,0,.83-.2,2.016-2.174.237-.4.91-1.344,1.225-1.344.12,0,.2.158.2.316a4.624,4.624,0,0,1-.12.79,11.137,11.137,0,0,0-.514,3,5.373,5.373,0,0,0,.237,1.581,9.787,9.787,0,0,1,.317,1.3c0,.791-.831,1.225-1.5,1.225-2.53,0-7.509-4.15-7.509-11.7,0-1.107.552-5.968.552-7a10.924,10.924,0,0,0-.277-2.294,5.368,5.368,0,0,1-.315-1.344c0-.119.158-.158.237-.158C1120.955,1649.488,1122.734,1652.651,1122.734,1653.718Zm19.289.909a9.834,9.834,0,0,1,3.519,7.55c0,.751-.079,2.609-1.976,2.609-1.937,0-1.937-2.135-1.937-2.648,0-3.281,0-4.942-2.1-7.036-.316-.316-1.9-1.541-1.9-1.778,0-.119.157-.2.355-.2A7.689,7.689,0,0,1,1142.023,1654.627Z" transform="translate(5.362 0.529)" fill="#4d4d4d"/>
    <path id="パス_2253" data-name="パス 2253" d="M1163.484,1649.5a18.2,18.2,0,0,1-.751,2.214,95.034,95.034,0,0,0-1.66,14.072c0,3.992.751,7.55,6.047,7.55a19.475,19.475,0,0,0,8.3-2.056c.593-.277,3.6-1.937,3.755-1.937a.185.185,0,0,1,.2.2c0,.435-5.851,6.8-13.282,6.8-5.139,0-7.59-2.965-7.59-10.91,0-2.45.08-3.242.909-10.989.159-1.3.514-4.546.514-5.653a4.974,4.974,0,0,0-.355-1.937c-.04-.119-.435-1.028-.435-1.067,0-.277.315-.4.552-.4C1161.745,1645.393,1163.484,1648.594,1163.484,1649.5Z" transform="translate(10.481)" fill="#4d4d4d"/>
    <path id="パス_2254" data-name="パス 2254" d="M1194.373,1653.718a5.4,5.4,0,0,1-.475,1.581,13.984,13.984,0,0,0-.949,5.1c0,3.993,2.057,6.878,3.282,6.878.672,0,.83-.2,2.016-2.174.237-.4.909-1.344,1.225-1.344.119,0,.2.158.2.316a4.747,4.747,0,0,1-.12.79,11.093,11.093,0,0,0-.514,3,5.332,5.332,0,0,0,.237,1.581,9.921,9.921,0,0,1,.316,1.3c0,.791-.83,1.225-1.5,1.225-2.53,0-7.51-4.15-7.51-11.7,0-1.107.552-5.968.552-7a11.005,11.005,0,0,0-.277-2.294,5.365,5.365,0,0,1-.315-1.344c0-.119.157-.158.237-.158C1192.594,1649.488,1194.373,1652.651,1194.373,1653.718Zm19.289.909a9.837,9.837,0,0,1,3.518,7.55c0,.751-.078,2.609-1.976,2.609-1.935,0-1.935-2.135-1.935-2.648,0-3.281,0-4.942-2.1-7.036-.316-.316-1.9-1.541-1.9-1.778,0-.119.158-.2.356-.2A7.692,7.692,0,0,1,1213.662,1654.627Z" transform="translate(14.622 0.529)" fill="#4d4d4d"/>
  </g>
</svg>
