<svg id="lineup_oolong_howto_sp" xmlns="http://www.w3.org/2000/svg" width="594" height="55" viewBox="0 0 594 55">
  <rect id="長方形_48" data-name="長方形 48" width="594" height="55" fill="#fff100" opacity="0"/>
  <path id="パス_2037" data-name="パス 2037" d="M-4957.172-1025.874c-1.4,0-1.4.32-1.4,2.679,0,1.04.318,1.241.719,1.321,1.439.359,6.16,1.519,6.16,4.638,0,.92-.561,2.28-1.561,2.28-.6,0-.679-.2-1.439-2.12-.881-2.319-3-3.959-3.481-3.959-.439,0-.439.08-.439,2.2,0,2.2.24,11.878.24,13.918,0,.559,0,2.639-2.16,2.639-.8,0-.8-.56-.8-1.16,0-.519.119-3.159.119-3.719.08-3.16.2-9.2.2-12.158,0-.16,0-.68-.4-.68-.2,0-.32.2-1.32,1.68-2.28,3.359-6.239,7.6-7,7.6-.121,0-.16-.079-.16-.2,0-.161,2.238-3.04,2.519-3.44a40.9,40.9,0,0,0,5.359-10.878c0-.6-.2-.64-1.88-.64-.36,0-2.719.04-3.8.12-.121,0-.721.12-.84.12-.16,0-.2-.12-.359-.28l-.76-.92c-.121-.119-.16-.2-.16-.28s.08-.08.119-.08c.279,0,1.519.12,1.8.16,1.519.04,3.318.12,4.8.12h.879c.4,0,1.08,0,1.241-.68.039-.239.039-3.2.039-3.639,0-1.24-.159-1.88-1.239-1.88-.16,0-3.959.36-4.679.36-.321,0-1.321,0-1.321-.2,0-.161.282-.241.44-.281a34.666,34.666,0,0,0,9.8-3.439,23.766,23.766,0,0,1,2.2-1.48,13.549,13.549,0,0,1,3.519,3c0,.241-.2.361-.519.361-.2,0-.92-.08-1.119-.08a20.806,20.806,0,0,0-4.08,1.2c-.6.44-.6,2.2-.6,3.44,0,3,0,3.319,1.2,3.319,1.721,0,1.721,0,2.721-1.24.558-.719.92-1.12,1.119-1.12s3.439,2.2,3.439,2.88c0,.52-.839.52-2.16.52Zm17.518-7.918a1.376,1.376,0,0,0,1.279-.521c.721-.88.8-.959,1-.959a20.5,20.5,0,0,1,2.6,1.8.9.9,0,0,1,.279.6c0,.32-.279.48-.558.6-.881.44-.881.68-.881,3.119,0,7.559,0,8.639.281,18.278,0,.4.119,2.319.119,2.759a1.653,1.653,0,0,1-.6,1.52,3.856,3.856,0,0,1-1.878.72c-.682,0-.682-.72-.682-1.32,0-.84-.479-.84-1.119-.84h-5.36c-1.16,0-1.2.36-1.2,1.48,0,1.439-1.48,1.959-2.24,1.959a.915.915,0,0,1-.959-1.079c0-.36.16-2.08.16-2.48.08-1.879.16-11.758.16-12.918,0-2.319,0-7.079-.32-12.278,0-.2-.2-1.24-.2-1.479,0-.281.2-.361.48-.361a6.114,6.114,0,0,1,1.76.68,3.884,3.884,0,0,0,2.48.721Zm-.16,24.675c1.16,0,1.16-.64,1.16-1.52v-21.156c0-.8-.68-.96-1.16-.96h-5.44a1.019,1.019,0,0,0-1.119.6c-.119.32-.119,11.878-.119,13.678,0,4.2.078,8.4.119,8.6.119.76.8.76,1.16.76Z" transform="translate(5012.366 1047.795)" fill="#4d4d4d"/>
  <path id="パス_2038" data-name="パス 2038" d="M-4920.375-1008.357c0,2.52-1.359,5.679-3.078,5.679a2.137,2.137,0,0,1-1.881-2.119c0-.521.08-.64,1.481-2.88a12.667,12.667,0,0,0,1.6-5.679c0-.24-.121-.6-.121-.72a.087.087,0,0,1,.08-.08c.321,0,1.241,1.32,1.641,3.24A15.963,15.963,0,0,1-4920.375-1008.357Zm6.119-24.316c.8,0,1.041-.04,1.52-.88a11.415,11.415,0,0,0,1.439-4.2c0-.12-.119-.64-.119-.76,0-.16.2-.2.321-.2.279,0,2.119.56,2.839.76,1.2.36,1.84.52,1.84,1.08,0,.48-.121.52-1.441,1.12-.639.279-3.4,2.479-3.4,2.839,0,.24.28.24.6.24h11.277a.909.909,0,0,0,.961-.52c.28-.4.639-.92,1.08-.92.321,0,3.039,1.28,3.039,1.96,0,.32-.439.64-.64.76-.52.36-.639.52-.639,1.52,0,.4.2,4.359.2,4.6a2.016,2.016,0,0,1-2.16,1.88c-.92,0-.92-.6-.959-1.16-.041-.92-.881-.92-1.2-.92h-15.719c-.558,0-1.119.08-1.279.76-.039.16-.039,2.4-.039,2.519,0,1.08.2,1.4,1.318,1.4h16.758c1.641,0,1.84,0,2.16-.28s1.719-2.16,2.2-2.16,3.76,2.2,3.76,2.96c0,.52-.8.52-2.121.52h-22.795c-1.24,0-1.24.64-1.24,1.32,0,2.719,0,3.039,1.359,3.039h20.078c.52,0,.918,0,1.159-.519.281-.561.521-1.08.92-1.08.32,0,3.119,1.359,3.119,2.119,0,.2-.159.4-.559.68a1.8,1.8,0,0,0-.92,1.44c-.16.84-.92,5.159-1.16,6.119-.641,2.359-2.32,4.479-5.52,4.479-.878,0-.919-.24-1.16-.96a5.605,5.605,0,0,0-2.119-2.24c-.16-.119-.959-.4-.959-.6,0-.04.039-.12.2-.12.122,0,.321.12.6.16a11.7,11.7,0,0,0,2.52.319c3.359,0,3.72-1.959,3.959-3.119.441-2.239.761-4.479.761-4.8,0-.84-.64-.84-1.2-.84h-20.115c-.762,0-.881.2-1.08.68a2.028,2.028,0,0,1-1.961,1.36c-.639,0-.92-.2-.92-.84,0-.2.08-1.76.08-2.08.121-2.4.16-3.359.16-14.2a17.526,17.526,0,0,0-.279-3.56,14.97,14.97,0,0,1-.481-1.439c0-.161.121-.161.241-.161a9.042,9.042,0,0,1,2.759,1.04c1.28.8,1.44.88,2.28.88Zm-1.16,1.08c-1.279,0-1.318,0-1.318,3.239,0,1.52,0,1.84,1.318,1.84h15.719c1.238,0,1.359,0,1.359-3.56,0-1.239-.08-1.519-1.279-1.519Zm3.4,24.756c0,.719-.041,2.6-2,2.6-.879,0-.92-1-.959-2.839a18.8,18.8,0,0,0-.442-3.56c-.039-.2-.119-.48-.119-.56s.039-.16.08-.16a10.154,10.154,0,0,1,2.08,1.52A3.941,3.941,0,0,1-4912.015-1006.837Zm7.718-.92a1.913,1.913,0,0,1-1.679,2.08c-1.241,0-1.481-1.28-1.641-2.52a14.742,14.742,0,0,0-.639-2.719c-.041-.161-.441-.8-.441-.92,0-.08.121-.12.24-.12a5.505,5.505,0,0,1,2.041,1.04C-4905.3-1010.117-4904.3-1009.157-4904.3-1007.757Zm6.918-1.2a1.777,1.777,0,0,1-1.718,1.72c-.84,0-1.122-.84-1.721-2.6a6.985,6.985,0,0,0-1.279-2.36,3.961,3.961,0,0,1-.481-.639c0-.08.2-.08.24-.08a7.842,7.842,0,0,1,2.44.8C-4897.539-1010.8-4897.379-1009.317-4897.379-1008.957Z" transform="translate(5012.366 1047.795)" fill="#4d4d4d"/>
  <path id="パス_2039" data-name="パス 2039" d="M-4868.806-1026.314a6.271,6.271,0,0,0,1.279-.04c.359-.08,1.68-1.44,1.84-1.44.279,0,2.478,1.72,2.478,2.16,0,.36-.6.4-.8.4h-11.517a41.4,41.4,0,0,0-4.279.12c-.081,0-.481.08-.6.08s-.2-.12-.318-.28l-.8-.92c-.16-.16-.16-.2-.16-.24,0-.08.041-.12.16-.12.76,0,4.24.24,4.92.24.519,0,.719-.08.719-.36a12.382,12.382,0,0,0-.52-2.52c-.16-.479-.6-1.559-.76-2l.039-.08c.16,0,3.2,1.44,3.2,3.639,0,.2-.24.96-.24,1.12,0,.24.28.24.44.24h1.56c.52,0,.8-.04,1.078-.72a18.481,18.481,0,0,0,1-3.959c0-.68,0-.8.362-.8.119,0,2.279.72,2.478.8a.487.487,0,0,1,.24.4c0,.2-.839.68-.959.84a13.79,13.79,0,0,0-2.24,3.159c0,.28.279.28.44.28Zm-.561-6.759a6.317,6.317,0,0,0,1.24-.04c.4-.12,1.6-1.8,1.8-1.8.16,0,2.279,1.919,2.279,2.359,0,.52-.879.52-2.119.52h-7c-3.519,0-4.64.08-5.039.12-.16,0-.721.12-.84.12-.16,0-.24-.12-.361-.28l-.76-.92c-.119-.12-.2-.2-.2-.24,0-.08.08-.12.16-.12.879,0,4.8.28,5.6.28.719,0,.879-.32.879-1.6,0-.321-.119-2.16-.241-2.88a5.248,5.248,0,0,1-.24-.84.187.187,0,0,1,.2-.2c.161,0,3.959.92,3.959,1.72,0,.24-.121.32-.8.72-.479.28-.479,1.28-.479,1.679,0,.96.08,1.4.959,1.4Zm-5.478,21.437c-.522,0-1.081.04-1.081,1,0,1.04.12,5.6.12,6.519a1.728,1.728,0,0,1-1.959,1.8c-.8,0-.8-.4-.8-1.32,0-1.96.2-10.558.2-12.317,0-4.72-.08-5.2-.2-5.8-.039-.2-.36-.92-.36-1.079,0-.08.041-.12.161-.12a15.776,15.776,0,0,1,2.638,1.12,3.946,3.946,0,0,0,1.522.239h4.758c.679,0,1.121-.04,1.48-.56.279-.44.359-.52.68-.52.279,0,2.879.96,2.879,1.8,0,.16-.2.36-.639.76-.4.4-.4.68-.4,2.879,0,1.68.2,9.079.2,10.559,0,1.12,0,4.159-3.36,4.159-.439,0-.478-.08-.839-1a2.6,2.6,0,0,0-1.8-1.84c-.4-.119-.52-.119-.52-.24,0-.079.08-.119.158-.119h2.84c.84-.12.84-.96.84-2.12,0-.44,0-2.959-.039-3.159-.121-.6-.561-.64-1-.64Zm5.437-5.56c1.041,0,1.041-.319,1.041-1.759,0-1.16,0-1.6-1.041-1.6h-5.478c-1.04,0-1.04.36-1.04,1.8,0,1.16,0,1.559,1.04,1.559Zm-5.478,1.08c-1.04,0-1.04.32-1.04,1.84,0,1.2,0,1.6,1.04,1.6h5.478c1.041,0,1.041-.32,1.041-1.84,0-1.2,0-1.6-1.041-1.6Zm21.716-7.758c1.16,0,1.16-.161,1.16-3,0-.76-.041-1.32-1.121-1.32h-4.838c-.4,0-.8,0-1.041.48a2.281,2.281,0,0,1-2.039,1.32c-.56,0-.8-.48-.8-1.04,0-.2.078-.92.078-1,.041-.48.041-5,.041-6.319a28.528,28.528,0,0,0-.119-2.96c0-.08-.122-.48-.122-.56s0-.24.161-.24c.039,0,3.6.64,3.6,1.2,0,.2-.64.88-.76,1.04-.16.239-.16.36-.16,1.48,0,.8.36.96,1.119.96h4.84c1.44,0,1.52-.08,1.68-.281.279-.28,1.24-1.839,1.6-1.839.2,0,2.959,2.12,2.959,2.639,0,.56-.68.56-1.719.56h-9.36c-1.08,0-1.16.44-1.16,1.28,0,2.12.2,2.2,1.16,2.2h4.721a1.992,1.992,0,0,0,1.078-.2c.121-.12.68-.72.84-.72a9.032,9.032,0,0,1,2.721,2c0,.2-.08.241-.6.68-.4.36-.4.64-.4,1.72,0,.28.08,2.24.08,2.32a1.641,1.641,0,0,1-1.76,1.56c-.56,0-.68-.161-.961-.641-.2-.279-.638-.279-.879-.279h-5c-.879,0-1.119.239-1.119,1.6,0,1.2.481,1.2,1.039,1.2h3.92c1.279,0,1.4,0,1.68-.2.24-.24,1.24-1.36,1.519-1.36.2,0,2.76,1.68,2.76,2.12,0,.48-.519.48-1.439.48h-8.44c-.84,0-1.039.32-1.039,1.2,0,1.84.041,2.039,1.119,2.039h3.561c1.279,0,1.4,0,1.68-.2.24-.2,1.24-1.361,1.519-1.361.2,0,2.76,1.68,2.76,2.12,0,.48-.52.48-1.44.48h-8.039c-1.041,0-1.08.56-1.08,1.36,0,1.52,0,1.96,1.119,1.96h3.52c1.24,0,1.4,0,1.6-.24.24-.2,1.2-1.4,1.48-1.4.24,0,3.2,1.8,3.2,2.28,0,.4-.679.4-1.719.4h-8.039c-1.121,0-1.121.52-1.121,1.64,0,.92,0,2.4.442,2.76.6.52,1.759.56,4.119.56,5.639,0,5.719-.24,6.4-2.76.321-1.24.321-1.32,1-4.439.039-.24.08-.36.2-.36.08,0,.08.12.08.16a11.688,11.688,0,0,0,.679,4.959c.121.28,1.121,1.4,1.121,1.679,0,.96-1.32,1.72-1.72,1.96-1.119.72-2.4,1.32-7.678,1.32-6.879,0-7.24-1.48-7.24-3.439,0-4.04,0-15.438-.039-15.878,0-.319-.28-2.4-.28-2.6,0-.16.2-.16.241-.16a9.279,9.279,0,0,1,2.119.72,3.3,3.3,0,0,0,1.6.36Z" transform="translate(5012.366 1047.795)" fill="#4d4d4d"/>
  <path id="パス_2040" data-name="パス 2040" d="M-4810.09-1023.2a35.264,35.264,0,0,0,9.678,3.16c.16,0,.84.12.84.28,0,.12-.559.28-.719.32a6.931,6.931,0,0,0-3.039,2.159c-.121.16-.56,1-.76,1-.24,0-8.92-4.2-12.838-10.6-.761-1.28-.88-1.4-1.16-1.4s-.361.08-1.24,1a47.549,47.549,0,0,1-11.838,9.319c-1.359.719-5.519,2.559-6.279,2.559-.119,0-.2-.08-.2-.12s4.279-2.679,4.638-2.919c5.4-3.4,11.118-9.518,11.678-12.518.041-.32.08-.44.359-.44.2,0,3.44,1.24,3.641,1.359.119.04.52.2.52.6a2.474,2.474,0,0,1-.161.56C-4816.888-1028.274-4813.449-1024.914-4810.09-1023.2Zm-19.277-9.958c-2.959,0-4.318.08-5.078.12-.121,0-.721.081-.84.081s-.2-.081-.359-.241l-.762-.92c-.158-.2-.158-.2-.158-.28s.039-.08.119-.08c.279,0,1.519.12,1.76.12,1.959.08,3.638.16,5.519.16h1.16c.84,0,1.078-.4,1.078-1.079a6.543,6.543,0,0,0-.318-2.12,5.93,5.93,0,0,1-.24-.8c0-.2.2-.28.439-.28.28,0,2.08.44,2.52.56,1.2.32,1.439.4,1.439.76,0,.24-.039.32-.6,1.04a.973.973,0,0,0-.28.72c0,.96.319,1.2,1.4,1.2h6.6c.36,0,1.2,0,1.2-1.079a16.919,16.919,0,0,0-.119-1.8c-.041-.2-.241-1.04-.241-1.2,0-.2.241-.28.44-.28.281,0,3,.64,3.439.76s.68.28.68.64c0,.24-.16.4-.6.72a1.283,1.283,0,0,0-.519,1.12c0,1.119.64,1.119,1.279,1.119h2.041c1.758,0,1.959,0,2.559-.679,1.119-1.32,1.24-1.48,1.6-1.48.241,0,3.719,2.119,3.719,2.639,0,.56-.8.56-2.119.56h-7.8c-1.24,0-1.24.64-1.24,1.6,0,.24.041,1.6.041,1.8,0,1.479-1.2,1.719-2.039,1.719-.92,0-1.08-.16-1.08-1.519v-2.76c-.121-.76-.6-.84-1.241-.84h-6.4c-.92,0-1.48,0-1.48,1.12,0,.4.121,2.16.121,2.52,0,.76-.121,1.119-.481,1.359a2.832,2.832,0,0,1-1.519.56c-.68,0-1-.44-1-1.239,0-.321.039-1.84.039-2.12,0-1.56,0-2.2-1.241-2.2Zm2.84,20.437a20.494,20.494,0,0,1,3.08,1.88.988.988,0,0,1,.32.6c0,.48-.32.56-1.281.8-.119.04-3.559,2.72-4.2,3.2-3.6,2.56-5.879,3.48-6.078,3.48a.127.127,0,0,1-.119-.12c0-.08,2.119-1.919,2.4-2.2,3.32-3.16,5.359-6.319,5.719-7.6A.244.244,0,0,1-4826.527-1012.716Zm1.84-2.12c-3.119,0-4.28.04-5.078.12-.121,0-.721.08-.84.08s-.2-.08-.362-.24l-.759-.92c-.16-.2-.16-.2-.16-.28,0-.04.041-.08.121-.08.279,0,1.519.121,1.759.121,1.959.12,3.639.16,5.518.16h3c.4,0,1.2,0,1.2-1.08,0-.48-.24-3.72-.32-4.12,0-.08-.24-.48-.24-.56s.08-.239.4-.239c.279,0,3.078.6,3.478.719.561.12.76.48.76.68,0,.24-.08.32-.679.84-.561.48-.561.72-.561,1.92,0,1.439,0,1.84,1.2,1.84h1.76c1.76,0,1.959,0,2.559-.681,1.119-1.319,1.24-1.479,1.6-1.479.24,0,3.719,2.16,3.719,2.639,0,.56-.8.56-2.119.56h-7.559c-1.2,0-1.2.72-1.2,2,0,2.84,0,4.439.08,6.8.039.679.039,1.639.039,2.12,0,1.279-.32,2.039-2.039,2.039-.879,0-.959-.72-.959-1.4,0-.52.119-2.92.119-3.439.039-1.52.039-3,.039-4.839a24.815,24.815,0,0,0-.078-2.72c-.2-.56-.84-.56-1.16-.56Zm10.677,3.36c0-.12.2-.16.362-.16,1.478,0,10.6,2.519,10.6,5.839,0,1.279-.72,2.279-1.72,2.279-.76,0-.92-.2-2.158-2.039-1.881-2.84-4.641-4.479-6.879-5.76C-4813.849-1011.317-4814.01-1011.436-4814.01-1011.476Z" transform="translate(5012.366 1047.795)" fill="#4d4d4d"/>
  <path id="パス_2041" data-name="パス 2041" d="M-4773.6-1031.713c0,.12.078.28.078.44a30.7,30.7,0,0,1,.4,4.32c0,2.679-.6,6.4-4.119,11.717-3.2,4.879-5.238,5.839-6.838,5.839-2.64,0-5-4.119-5-9a14.088,14.088,0,0,1,4.44-10.2,16.546,16.546,0,0,1,12.757-5.2,13.04,13.04,0,0,1,6.44,1.279,12.538,12.538,0,0,1,6.959,11.638,14.917,14.917,0,0,1-10.078,14.078,24.6,24.6,0,0,1-6.641,1.479c-.158,0-.4-.04-.4-.28,0-.119.08-.159,1.08-.56,4.158-1.639,12.838-5.079,12.838-15.037,0-1.559-.16-11.078-11.078-11.078C-4773.564-1032.273-4773.6-1031.953-4773.6-1031.713Zm-13,12.278c0,2.6,1.039,6.159,3.478,6.159,1.16,0,2.119-.48,4.879-4.639,2.119-3.24,3.92-7.679,3.92-11.638,0-2.4-.16-2.6-.68-2.6C-4778.8-1032.153-4786.6-1026.994-4786.6-1019.435Z" transform="translate(5012.366 1047.795)" fill="#4d4d4d"/>
  <path id="パス_2046" data-name="パス 2046" d="M-4572.857-1015.316c-1.041,0-1.041.6-1.041,1.08,0,.96.041,5.079.041,5.919,0,.24,0,.8.638.8.321,0,3.6-1.36,3.959-1.519a.871.871,0,0,0,.561-.721,7.947,7.947,0,0,0-1.279-2.479,8.188,8.188,0,0,1-.8-1.08c0-.04.08-.04.121-.04.76,0,5.879,2.4,5.879,5.679,0,1.12-.561,1.92-1.32,1.92-.719,0-.879-.4-1.52-1.88-.24-.6-.359-.92-.8-.92-.519,0-7.677,4.679-7.957,5.319-.4.8-.441.92-.84.92-.679,0-1.679-3.2-1.679-3.479s.16-.361.439-.361c2.08,0,2.08-.239,2.08-1.959v-12c0-2.759,0-6.838-.64-6.838-.161,0-2.8,2.119-3.039,2.119-.08,0-.122,0-.122-.08,0-.04,1.081-1.4,1.282-1.68a61.551,61.551,0,0,0,6.879-11.118c.2-.76.2-.84.519-.84.24,0,3.119,1.4,3.119,2.24a.605.605,0,0,1-.359.52c-.24.12-.4.2-.4.4s0,.2,1.2.68c.76.28,4.679,1.879,4.679,4.759a1.316,1.316,0,0,1-1.32,1.48c-.4,0-.92-.121-1.68-1.72-.718-1.52-3.158-4.439-3.679-4.439-.319,0-.52.279-.719.559a53.5,53.5,0,0,1-5.279,6.12c-.121.08-.2.159-.2.279s.078.16,1,.64c1.2.6,1.32.68,1.88.68,1.161,0,1.2-.36,1.2-1.2a8.7,8.7,0,0,0-.2-2.4c-.041-.2-.32-.96-.32-1.12,0-.08.08-.2.4-.2s3.4.44,3.4,1.4c0,.12-.44.6-.52.719-.16.321-.16.481-.16,1.64,0,.561,0,1.16.84,1.16.881,0,1,0,1.32-.32.719-.84.959-1.08,1.28-1.08.279,0,2.16,1.16,2.16,1.88,0,.24-.68,1.12-.76,1.32a10.017,10.017,0,0,0-.121,1.959c0,1.08.121,6,.121,6.959,0,.76,0,2.16-1.68,2.16-.88,0-.961-.48-1.041-1.16-.119-.68-.8-.68-1.08-.68Zm4.6-6.239c1.041,0,1.041-.56,1.041-1.439,0-1.92,0-2.32-1.041-2.32h-4.6c-1.041,0-1.041.6-1.041,1.44,0,1.96,0,2.319,1.041,2.319Zm-.08,5.159c1.041,0,1.121,0,1.121-3.159,0-.92-.6-.92-1.041-.92h-4.6c-1.041,0-1.041.36-1.041,1.56,0,2.279,0,2.519,1.041,2.519Zm19-12.158a1.118,1.118,0,0,0,1.2-.64c.56-.92.6-1.039.881-1.039.318,0,3.917,1.919,3.917,2.839,0,.8-.439.84-2.638,1.12a4.677,4.677,0,0,0-2.641,1.28c-.08.04-.478.32-.519.32s-.08,0-.08-.04c0-.2.56-1.84.56-2.2,0-.6-.4-.6-.76-.6h-3.439c-.561,0-1.08.04-1.08,1,0,12.118,9,20.037,9.437,20.4.282.241,1.76,1.281,1.76,1.48,0,.12-.68.24-.719.24a7.091,7.091,0,0,0-2.4.8,3.9,3.9,0,0,1-.879.521c-.8,0-5.439-5.52-7.439-17.278-.039-.12-.12-.639-.241-.639-.16,0-.2.359-.24.759-.6,4.839-2.359,13.038-10.158,16.557a7.518,7.518,0,0,1-2.838.76c-.16,0-.2,0-.2-.12a4.206,4.206,0,0,1,.881-.56c2.119-1.08,6.318-3.239,8.437-10.478a45.039,45.039,0,0,0,1.68-12.118c0-.72,0-1.32-.92-1.32s-1,.12-1.76,1.24a32.673,32.673,0,0,1-3.279,4.2.105.105,0,0,1-.119-.12c0-.24,1.24-2.919,1.478-3.479.881-2.239,3.36-9.038,3.36-11.278,0-1.16,0-1.36.521-1.36.559,0,3.879,1.6,3.879,2.239,0,.321-.121.4-.84.84-.48.321-3.2,6.239-3.2,6.239,0,.44.439.44.68.44Z" transform="translate(5012.366 1047.795)" fill="#4d4d4d"/>
  <path id="パス_2047" data-name="パス 2047" d="M-4519.859-1032.353c-.522,0-2.2,1.44-2.84,2-.52.48-2.041,1.839-3.08,1.839-1.481,0-2.6-2.839-2.6-2.959,0-.24.08-.4.321-.4s1.16.16,1.359.16c1.279,0,1.76-.08,4.16-1.6a6.863,6.863,0,0,1,3.838-1.319c2.641,0,3.24,1.8,3.24,2.4,0,.84-.359,1.32-2.439,3.239a36.36,36.36,0,0,0-5.879,8.119c0,.2.279.24.4.24.52,0,2.76-.04,3.239,0a32.33,32.33,0,0,1,7.558,1.6,1.6,1.6,0,0,0,.641.16c.519,0,.76-3.28.76-3.68,0-.319-.241-2.079-.241-2.239,0-.24.28-.24.44-.24.121,0,3.6.64,3.6,2.2a8.7,8.7,0,0,1-.878,1.559c0,.08-.561,3.28-.561,3.4,0,.52.24.639.92,1,1.56.84,5.2,2.719,5.2,4.8a1.549,1.549,0,0,1-1.48,1.521c-.8,0-1.239-.32-4.039-2.72-.081-.04-1.241-1.04-1.639-1.04-.32,0-.442.28-.561.48a17.261,17.261,0,0,1-7.838,7.4,14.778,14.778,0,0,1-4.32,1.6c-.039,0-.32,0-.32-.12a6.243,6.243,0,0,1,.76-.56c3.961-2.72,5.92-4.32,8.24-7.919a7.376,7.376,0,0,0,1.2-2.28c0-.36,0-.56-2.2-1.639a17.326,17.326,0,0,0-7.36-1.8c-2.48,0-2.56.16-3.24,1.6-3.439,7.319-4.119,8.8-6.638,8.8-2.04,0-2.639-2.2-2.639-3.2,0-3.4,3.558-6.439,7.758-7.919a1.445,1.445,0,0,0,1-.8c.92-1.48,5.92-9.038,6.119-9.4a5.627,5.627,0,0,0,.519-1.8A.514.514,0,0,0-4519.859-1032.353Zm-13.4,19.277c0,.68.321,1.16,1.039,1.16,2.2,0,4.8-5.879,4.8-6.039,0-.121-.039-.2-.158-.2C-4529.019-1018.156-4533.258-1015.436-4533.258-1013.076Z" transform="translate(5012.366 1047.795)" fill="#4d4d4d"/>
  <path id="パス_2048" data-name="パス 2048" d="M-4490.039-1029.034c-.918,0-3.678,0-5.078.081a6.05,6.05,0,0,1-.84.12c-.119,0-.2-.12-.359-.281l-.76-.92c-.16-.159-.16-.2-.16-.239a.105.105,0,0,1,.119-.12c.279,0,1.52.12,1.8.16,1.8.08,3.6.119,5.478.119H-4482c1.16,0,1.16-.519,1.16-2.8a25.131,25.131,0,0,0-.2-3.679c-.041-.24-.281-1.2-.281-1.4,0-.24.281-.24.441-.24s4.239.84,4.239,1.76c0,.4-.08.439-.76,1.08-.52.44-.561,1.48-.561,2.119,0,3,.241,3.159,1.282,3.159h7.959c1.478,0,1.878,0,2.4-.6.24-.36,1.279-2.239,1.68-2.239.6,0,3.8,2.759,3.8,3.319,0,.6-.759.6-2.119.6h-17.957c-.439,0-.6,0-.6.161,0,.279.16.279,1.718.519.6.08,1.76.32,1.76.88,0,.32-1.119,1.32-1.238,1.6a11.075,11.075,0,0,0-.641,2.92c0,.8.84.8,1,.8h8.838a1.9,1.9,0,0,0,1.68-.6,4.766,4.766,0,0,1,.92-.8c.2,0,3.48,2,3.48,2.56,0,.319-1.041,1.239-1.16,1.479-.439.8-.961,4.8-1.119,5.6-1.24,5.719-2.48,7.839-3.721,9.278a7.907,7.907,0,0,1-4.6,2.64c-.479,0-.479-.28-.479-.64,0-1.72-2.08-3-3.32-3.639-.92-.48-1.039-.52-1.039-.64,0-.08.039-.32.4-.32a6.744,6.744,0,0,1,1.639.44,12.083,12.083,0,0,0,3.16.52c1.68,0,3.52-1,4.8-6.279a41.014,41.014,0,0,0,1.039-7.479c0-1.04-.68-1.04-1.279-1.04h-9.4c-1.119,0-1.2.2-1.68,2.28-3.119,13-13.318,15.477-13.837,15.477-.12,0-.36,0-.36-.12,0-.16.481-.44.959-.68a23.7,23.7,0,0,0,8.6-9.638,37.6,37.6,0,0,0,2.92-12.638c0-2.64-.682-2.64-1.481-2.64Z" transform="translate(5012.366 1047.795)" fill="#4d4d4d"/>
  <g id="グループ_540" data-name="グループ 540" transform="translate(-809.415 -1633.393)">
    <path id="パス_2251" data-name="パス 2251" d="M1092.671,1654.331c0,1.3-3,2.49-3.952,2.885-.553.2-.593.356-.671,1.739-.08.87-.08,4.071-.08,4.269,0,.238,0,.713.355.713.119,0,3.36-1.345,3.993-1.582,3.913-1.462,5.691-1.581,6.719-1.581a6.052,6.052,0,0,1,6.088,5.969c0,5.217-5.495,7.59-8.736,7.59-2.253,0-4.071-1.146-4.071-3.2a3.521,3.521,0,0,1,1.976-3.122.213.213,0,0,1,.2.2c0,.119-.08.2-.158.316a1.636,1.636,0,0,0-.355,1.067c0,1.9,2.174,1.9,2.569,1.9,2.61,0,5.93-1.739,5.93-4.9a4.1,4.1,0,0,0-3.794-4.349c-1.108,0-3.558.515-8.184,2.965-2.212,1.186-2.449,1.3-2.449,1.976,0,.435.117,2.214.117,2.609,0,1.818-.593,4.428-2.016,4.428-1.067,0-1.5-.83-1.818-1.462-1.266-2.452-1.462-2.452-1.976-2.452a3.284,3.284,0,0,0-.988.237,7.784,7.784,0,0,1-1.5.791c-.434,0-2.449-1.186-2.449-2.49,0-.711.434-1.541,1.145-1.541.237,0,1.385.2,1.622.2,1.066,0,1.779-.2,4.109-1.344,2.017-.988,2.254-1.107,2.254-2.214,0-.91-.04-4.27-.079-4.942,0-.277-.119-.87-.553-.87a9.244,9.244,0,0,0-1.818.356c-2.017.672-2.213.751-2.807.751-1.343,0-2.844-2.727-2.844-3a.279.279,0,0,1,.315-.277c.119,0,.593.158.711.158a11.49,11.49,0,0,0,1.818.2,17.266,17.266,0,0,0,5.021-1.186,29.573,29.573,0,0,0,.4-4.308,3.882,3.882,0,0,0-1.3-3.163,3.957,3.957,0,0,1-.553-.632c0-.356.633-.435.87-.435,2.648,0,4.072,1.937,4.072,2.688a15.885,15.885,0,0,1-.831,2.056,21.094,21.094,0,0,0-.394,2.569c0,.158.078.435.315.435.277,0,1.385-.435,1.385-.988,0-.079-.2-.474-.2-.553,0-.04.078-.119.157-.158C1090.775,1652.552,1092.671,1653.106,1092.671,1654.331Zm-9.012,15.139c0,.593,1.067,1.858,1.66,1.858.553,0,1.107-1.107,1.107-3.043,0-.158,0-.553-.119-.632C1086.189,1667.651,1083.66,1668.916,1083.66,1669.47Zm25.97-12.293c0,.83-.474,1.9-1.3,1.9-.237,0-1.146-.079-1.344-.079-.2.04-1.028.277-1.187.277a.184.184,0,0,1-.2-.2,2.719,2.719,0,0,1,.119-.316,2.107,2.107,0,0,0,.158-.711c0-1.581-1.976-2.134-3.321-2.134a3.435,3.435,0,0,0-1.542.4.883.883,0,0,1-.4.119c-.119,0-.158-.039-.158-.158a5.057,5.057,0,0,1,4.27-2.49C1107.772,1653.777,1109.629,1655.358,1109.629,1657.177Z" transform="translate(0 0.154)" fill="#4d4d4d"/>
    <path id="パス_2252" data-name="パス 2252" d="M1122.734,1653.718a5.418,5.418,0,0,1-.474,1.581,13.959,13.959,0,0,0-.949,5.1c0,3.993,2.055,6.878,3.28,6.878.673,0,.83-.2,2.016-2.174.237-.4.91-1.344,1.225-1.344.12,0,.2.158.2.316a4.624,4.624,0,0,1-.12.79,11.137,11.137,0,0,0-.514,3,5.373,5.373,0,0,0,.237,1.581,9.787,9.787,0,0,1,.317,1.3c0,.791-.831,1.225-1.5,1.225-2.53,0-7.509-4.15-7.509-11.7,0-1.107.552-5.968.552-7a10.924,10.924,0,0,0-.277-2.294,5.368,5.368,0,0,1-.315-1.344c0-.119.158-.158.237-.158C1120.955,1649.488,1122.734,1652.651,1122.734,1653.718Zm19.289.909a9.834,9.834,0,0,1,3.519,7.55c0,.751-.079,2.609-1.976,2.609-1.937,0-1.937-2.135-1.937-2.648,0-3.281,0-4.942-2.1-7.036-.316-.316-1.9-1.541-1.9-1.778,0-.119.157-.2.355-.2A7.689,7.689,0,0,1,1142.023,1654.627Z" transform="translate(5.362 0.529)" fill="#4d4d4d"/>
    <path id="パス_2253" data-name="パス 2253" d="M1163.484,1649.5a18.2,18.2,0,0,1-.751,2.214,95.034,95.034,0,0,0-1.66,14.072c0,3.992.751,7.55,6.047,7.55a19.475,19.475,0,0,0,8.3-2.056c.593-.277,3.6-1.937,3.755-1.937a.185.185,0,0,1,.2.2c0,.435-5.851,6.8-13.282,6.8-5.139,0-7.59-2.965-7.59-10.91,0-2.45.08-3.242.909-10.989.159-1.3.514-4.546.514-5.653a4.974,4.974,0,0,0-.355-1.937c-.04-.119-.435-1.028-.435-1.067,0-.277.315-.4.552-.4C1161.745,1645.393,1163.484,1648.594,1163.484,1649.5Z" transform="translate(10.481)" fill="#4d4d4d"/>
    <path id="パス_2254" data-name="パス 2254" d="M1194.373,1653.718a5.4,5.4,0,0,1-.475,1.581,13.984,13.984,0,0,0-.949,5.1c0,3.993,2.057,6.878,3.282,6.878.672,0,.83-.2,2.016-2.174.237-.4.909-1.344,1.225-1.344.119,0,.2.158.2.316a4.747,4.747,0,0,1-.12.79,11.093,11.093,0,0,0-.514,3,5.332,5.332,0,0,0,.237,1.581,9.921,9.921,0,0,1,.316,1.3c0,.791-.83,1.225-1.5,1.225-2.53,0-7.51-4.15-7.51-11.7,0-1.107.552-5.968.552-7a11.005,11.005,0,0,0-.277-2.294,5.365,5.365,0,0,1-.315-1.344c0-.119.157-.158.237-.158C1192.594,1649.488,1194.373,1652.651,1194.373,1653.718Zm19.289.909a9.837,9.837,0,0,1,3.518,7.55c0,.751-.078,2.609-1.976,2.609-1.935,0-1.935-2.135-1.935-2.648,0-3.281,0-4.942-2.1-7.036-.316-.316-1.9-1.541-1.9-1.778,0-.119.158-.2.356-.2A7.692,7.692,0,0,1,1213.662,1654.627Z" transform="translate(14.622 0.529)" fill="#4d4d4d"/>
  </g>
</svg>
