<svg id="lineup_singleorigin_sp" xmlns="http://www.w3.org/2000/svg" width="745" height="130" viewBox="0 0 745 130">
  <rect id="長方形_31" data-name="長方形 31" width="745" height="130" fill="#ffc946" opacity="0"/>
  <g id="グループ_361" data-name="グループ 361" transform="translate(2538.642 -2296.086)">
    <g id="グループ_359" data-name="グループ 359">
      <g id="グループ_358" data-name="グループ 358">
        <path id="パス_1573" data-name="パス 1573" d="M-2382.206,2343.894c0,.84-.63,2.1-1.639,2.1-.629,0-.839-.252-1.469-1.3a10.193,10.193,0,0,0-3.823-3.487c-.126-.084-.378-.252-.378-.42,0-.589,2.394-.631,2.94-.631C-2384.768,2340.154-2382.206,2341.835-2382.206,2343.894Zm-5.167,13.022c-.126-.211-.882-1.093-1.009-1.3a1.778,1.778,0,0,1-.252-.8c0-.168.126-.294.379-.294.378,0,1.974.546,2.31.546,1.807,0,13.106-6.3,23.146-17.686a20,20,0,0,1,1.807-1.89.154.154,0,0,1,.168.168c0,.462-3.7,9.451-21.088,21.634-.5.336-2.52,2.227-3.066,2.227C-2385.9,2359.521-2386.323,2358.848-2387.373,2356.916Zm10.208-21.382c0,.966-.673,1.89-1.345,1.89-.461,0-.671-.168-2.184-1.974a7.313,7.313,0,0,0-3.612-2.226c-.168-.042-.63-.168-.63-.294s1.175-.8,3.234-.8C-2377.165,2332.131-2377.165,2335.408-2377.165,2335.534Z" fill="#333"/>
        <path id="パス_1574" data-name="パス 1574" d="M-2337.9,2353.261a29.288,29.288,0,0,0-4.117,3.444c-.8.967-.882,1.051-1.512,1.051-2.269,0-5.377-2.688-5.377-4.369,0-.294.042-2.227.42-2.227a10.47,10.47,0,0,1,1.26.8,6.947,6.947,0,0,0,2.856.966c2.059,0,13.19-7.436,20.164-14.324.672-.673,1.849-1.849,1.933-1.849a.27.27,0,0,1,.21.21C-2322.058,2337.34-2326.973,2345.2-2337.9,2353.261Zm-3.446-13.82c-1.133,0-1.553-.672-2.94-2.773a9.464,9.464,0,0,0-3.822-3.444c-.168-.084-.378-.21-.378-.378s.336-.379.924-.379c4.495,0,8.023,2.394,8.023,4.873A1.856,1.856,0,0,1-2341.341,2339.441Z" fill="#333"/>
        <path id="パス_1575" data-name="パス 1575" d="M-2304.556,2331.711c0-.42.587-.42.923-.42a3.925,3.925,0,0,1,3.908,2.353c0,.5-.42,1.05-1.261,2.1-.21.294-.336.462-.336.672,0,.336.505.336.673.336a23.762,23.762,0,0,0,6.385-1.681,7.818,7.818,0,0,1,1.974-.671c.378,0,.588.126,2.311,1.134.252.126,1.343.714,1.553.84a1.522,1.522,0,0,1,.8,1.05c0,.589-.294.757-1.679,1.6-.462.294-.63.546-2.1,2.814a51.375,51.375,0,0,1-15.039,15.795,28.727,28.727,0,0,1-8.359,4.032.377.377,0,0,1-.378-.378c0-.168.126-.252,1.428-.965,12.812-7.058,20.793-21.382,20.793-22.685a.454.454,0,0,0-.462-.462c-.084,0-5.88,1.3-6.888,1.3-.252,0-1.387-.126-1.639-.126-.8,0-.882.084-2.646,2.1a31.546,31.546,0,0,1-5.713,5.461,12.826,12.826,0,0,1-4.034,2.227c-.209,0-.293-.126-.293-.252,0-.294,2.814-2.647,3.319-3.15,3.4-3.4,7.392-9.2,7.057-11.72C-2304.3,2332.8-2304.556,2331.879-2304.556,2331.711Zm19.785,1.429c0,.714-.5,1.638-1.218,1.638-.588,0-.924-.252-2.227-1.806a13.187,13.187,0,0,0-2.982-2.479c-.21-.126-.63-.42-.63-.589s.336-.377.714-.377C-2285.737,2329.527-2284.771,2332.636-2284.771,2333.14Zm1.009-6.344c1.721,1.009,1.721,1.975,1.721,2.4a1.137,1.137,0,0,1-1.05,1.218c-.881,0-1.3-.42-2.226-1.386a9.871,9.871,0,0,0-3.864-2.059c-.42-.126-.546-.336-.546-.462,0-.336,1.091-.588,1.511-.588A7.756,7.756,0,0,1-2283.762,2326.8Z" fill="#333"/>
        <path id="パス_1576" data-name="パス 1576" d="M-2269.033,2347.128c-2.52,5.461-6.932,7.982-7.771,7.982a.2.2,0,0,1-.21-.21,11.9,11.9,0,0,1,1.68-2.227c4.62-6.343,5.083-10.922,5.083-12.309a9.2,9.2,0,0,0-.715-3.612,3.117,3.117,0,0,1-.168-.756c0-.126.042-.21.21-.21.294,0,4.747,1.428,4.747,3.571C-2266.177,2339.483-2268.319,2345.531-2269.033,2347.128Zm6.806,3.906c0-.21.21-1.3.252-1.511.126-.8.168-4.118.168-5.167,0-5.125-.5-6.848-.8-7.9a10.93,10.93,0,0,1-.546-1.513c0-.167.168-.209.252-.209.21,0,4.621.756,4.621,2.94,0,.5-.588,2.688-.672,3.151-.168,1.134-.336,6.217-.336,7.6,0,.547.042,1.387.8,1.387,1.26,0,5.125-2.773,9.157-6.848.715-.714,4.285-4.494,4.453-4.494a.181.181,0,0,1,.168.168c0,.336-2.436,5.545-9.788,12.013a23.5,23.5,0,0,0-2.9,2.689c-.714.8-1.092,1.093-1.386,1.135C-2260,2354.69-2262.227,2352.211-2262.227,2351.034Z" fill="#333"/>
        <path id="パス_1577" data-name="パス 1577" d="M-2231.344,2339.315a21.315,21.315,0,0,0,3.446.252c2.267,0,8.485-.588,9.115-.714s.924-.378.924-1.009c0-5.419-1.134-6.763-1.638-7.309-.168-.168-.925-.882-.925-1.092,0-.378,1.975-.378,2.353-.378,2.058,0,3.319,1.3,3.319,1.722a9.7,9.7,0,0,1-.547,1.554c-.084.5-.126,2.814-.126,3.445,0,2.016.042,2.479.883,2.479s3.445-.463,4.452-.631c.294-.042,1.639-.462,1.891-.462.378,0,2.6.546,2.6,1.807,0,1.133-2.058,1.133-2.6,1.133s-2.9-.167-3.4-.167c-3.7,0-3.7.629-3.7,1.512,0,.63.462,10.418.547,11.342.084.756.5,3.906.5,4.537,0,2.227-1.387,3.906-2.52,3.906-.967,0-1.177-.714-1.555-2.1a8.681,8.681,0,0,0-2.437-3.445,9.552,9.552,0,0,1-.923-.965c0-.084.126-.126.168-.126.084,0,3.276,1.217,3.738,1.217.547,0,.547-.671.547-1.007,0-4.621-.21-9.914-.295-10.124a.367.367,0,0,0-.378-.252c-.21,0-.294.084-1.008.965-6.049,7.478-12.728,11.426-13.61,11.426-.126,0-.252-.084-.252-.168a27.285,27.285,0,0,1,2.688-2.519c5.923-5.546,10.208-11.427,10.208-12.687a.441.441,0,0,0-.463-.462c-.756,0-5.713.63-6.468.8a21.721,21.721,0,0,1-2.521.8c-1.26,0-3.864-2.856-3.864-3.486,0-.168.21-.21.252-.21C-2232.687,2338.9-2231.553,2339.273-2231.344,2339.315Z" fill="#333"/>
        <path id="パス_1578" data-name="パス 1578" d="M-2190.161,2331.123c1.008,0,3.318,1.47,3.318,2.185,0,.21-.084,1.176-.084,1.386,0,4.873.084,8.653.126,9.662.042.5.252,2.6.252,3.024,0,1.092-.965,2.143-1.595,2.143-.925,0-1.891-2.227-1.891-3.319,0-.337.21-1.764.21-2.1.084-1.891.084-3.53.084-4.285,0-4.706-.21-5.671-1.513-7.183-.336-.379-.546-.631-.546-.967C-2191.8,2331.375-2191.128,2331.123-2190.161,2331.123Zm11.552-1.177c-.5-.671-.546-.755-.546-.839,0-.126,0-.252,1.218-.252,2.52,0,4.621,1.049,4.621,2.142a16.417,16.417,0,0,1-.42,1.681c-.168,1.134-.21,7.434-.336,8.905a26.576,26.576,0,0,1-10.5,19.491c-1.219.966-3.318,2.479-3.781,2.479-.168,0-.252-.084-.252-.21,0-.168,2.73-2.857,3.235-3.4,8.108-8.655,8.4-15.963,8.4-24.365C-2176.97,2332.3-2177.727,2331.207-2178.609,2329.946Z" fill="#333"/>
        <path id="パス_1579" data-name="パス 1579" d="M-2150.651,2344.4c0,.881-.589,2.1-1.6,2.1-.63,0-.84-.252-1.47-1.3a10.894,10.894,0,0,0-3.823-3.444c-.126-.084-.42-.252-.42-.42,0-.631,2.689-.631,2.941-.631C-2153.214,2340.7-2150.651,2342.339-2150.651,2344.4Zm-4.957,12.9c-.126-.252-.8-1.135-.882-1.345a1.7,1.7,0,0,1-.211-.755.308.308,0,0,1,.337-.336c.126,0,2.016.671,2.436.671,2.268,0,13.7-6.258,21.087-13.064.462-.462,2.9-2.94,3.025-2.94a.269.269,0,0,1,.253.252c0,.084-2.1,6.595-18.568,16.97-2.562,1.6-2.73,1.723-3.067,1.975-1.554,1.219-1.722,1.345-2.184,1.345C-2154.264,2360.067-2154.768,2359.1-2155.608,2357.294Zm10.04-21.3c0,1.092-.715,1.974-1.387,1.974-.462,0-.63-.21-2.1-1.932a7.1,7.1,0,0,0-3.655-2.268c-.588-.21-.63-.21-.63-.378,0-.462,1.932-.883,3.193-.883a5.768,5.768,0,0,1,2.142.421A3.671,3.671,0,0,1-2145.568,2336Zm14.072-1.932c0,.5-.546,1.6-1.345,1.6-.629,0-1.007-.463-2.057-2.1a13.1,13.1,0,0,0-2.689-2.815c-.169-.126-.547-.5-.547-.672,0-.253.505-.295.757-.295C-2134.94,2329.778-2131.5,2331.837-2131.5,2334.064Zm4.41-2.857a1.236,1.236,0,0,1-1.134,1.344c-.881,0-1.47-.882-2.058-1.848a10.539,10.539,0,0,0-3.4-2.73c-.378-.21-.462-.42-.462-.5,0-.379.839-.379,1.595-.379C-2131.454,2327.09-2127.086,2328.309-2127.086,2331.207Z" fill="#333"/>
        <path id="パス_1580" data-name="パス 1580" d="M-2104.194,2353.261a29.344,29.344,0,0,0-4.117,3.444c-.8.967-.882,1.051-1.512,1.051-2.269,0-5.377-2.688-5.377-4.369,0-.294.042-2.227.42-2.227a10.47,10.47,0,0,1,1.26.8,6.953,6.953,0,0,0,2.856.966c2.059,0,13.191-7.436,20.164-14.324.672-.673,1.849-1.849,1.933-1.849a.27.27,0,0,1,.21.21C-2088.357,2337.34-2093.272,2345.2-2104.194,2353.261Zm-3.445-13.82c-1.134,0-1.554-.672-2.941-2.773a9.458,9.458,0,0,0-3.822-3.444c-.168-.084-.378-.21-.378-.378s.336-.379.924-.379c4.495,0,8.023,2.394,8.023,4.873A1.855,1.855,0,0,1-2107.639,2339.441Z" fill="#333"/>
        <path id="パス_1581" data-name="パス 1581" d="M-2062.749,2332.888c0,.126.084.294.084.462a32.2,32.2,0,0,1,.42,4.536c0,2.814-.63,6.722-4.327,12.309-3.36,5.125-5.5,6.132-7.183,6.132-2.772,0-5.251-4.326-5.251-9.451a14.8,14.8,0,0,1,4.663-10.712,17.379,17.379,0,0,1,13.4-5.461,13.685,13.685,0,0,1,6.763,1.344,13.168,13.168,0,0,1,7.309,12.225,15.665,15.665,0,0,1-10.586,14.786,25.791,25.791,0,0,1-6.973,1.554c-.168,0-.42-.042-.42-.293,0-.126.084-.168,1.133-.588,4.37-1.723,13.485-5.335,13.485-15.795,0-1.639-.168-11.637-11.636-11.637C-2062.707,2332.3-2062.749,2332.636-2062.749,2332.888Zm-13.652,12.9c0,2.731,1.092,6.47,3.654,6.47,1.219,0,2.227-.5,5.125-4.873,2.227-3.4,4.117-8.065,4.117-12.225,0-2.519-.169-2.73-.715-2.73C-2068.21,2332.425-2076.4,2337.844-2076.4,2345.783Z" fill="#333"/>
        <path id="パス_1582" data-name="パス 1582" d="M-2020.782,2338.013c0,1.386-3.193,2.645-4.2,3.066-.588.21-.63.378-.714,1.848-.084.925-.084,4.327-.084,4.537,0,.252,0,.756.378.756.126,0,3.57-1.428,4.243-1.68,4.158-1.554,6.049-1.68,7.141-1.68a6.431,6.431,0,0,1,6.469,6.342c0,5.545-5.839,8.066-9.284,8.066-2.394,0-4.326-1.218-4.326-3.4a3.743,3.743,0,0,1,2.1-3.318.225.225,0,0,1,.21.21c0,.126-.084.21-.168.336a1.737,1.737,0,0,0-.378,1.135c0,2.015,2.31,2.015,2.73,2.015,2.773,0,6.3-1.847,6.3-5.209a4.352,4.352,0,0,0-4.033-4.62c-1.176,0-3.781.546-8.7,3.151-2.352,1.259-2.6,1.385-2.6,2.1,0,.462.126,2.352.126,2.773,0,1.931-.63,4.7-2.143,4.7-1.133,0-1.595-.882-1.932-1.554-1.344-2.6-1.554-2.6-2.1-2.6a3.5,3.5,0,0,0-1.051.252,8.34,8.34,0,0,1-1.595.839c-.463,0-2.6-1.259-2.6-2.646,0-.756.462-1.638,1.218-1.638.252,0,1.471.21,1.723.21,1.133,0,1.889-.21,4.368-1.429,2.142-1.049,2.394-1.175,2.394-2.352,0-.966-.042-4.536-.084-5.251,0-.294-.126-.924-.588-.924a9.822,9.822,0,0,0-1.932.378c-2.143.714-2.353.8-2.983.8-1.427,0-3.024-2.9-3.024-3.193a.3.3,0,0,1,.336-.293c.126,0,.63.168.756.168a12.318,12.318,0,0,0,1.932.209,18.352,18.352,0,0,0,5.335-1.259,31.426,31.426,0,0,0,.42-4.579,4.128,4.128,0,0,0-1.385-3.361,4.208,4.208,0,0,1-.588-.672c0-.379.671-.463.923-.463,2.815,0,4.328,2.059,4.328,2.858a16.95,16.95,0,0,1-.883,2.184,22.4,22.4,0,0,0-.42,2.73c0,.168.084.463.336.463.294,0,1.47-.463,1.47-1.051,0-.084-.209-.5-.209-.588,0-.042.084-.126.168-.168C-2022.8,2336.122-2020.782,2336.71-2020.782,2338.013Zm-9.578,16.088c0,.631,1.135,1.974,1.765,1.974.587,0,1.175-1.175,1.175-3.234,0-.168,0-.588-.126-.672C-2027.672,2352.169-2030.36,2353.513-2030.36,2354.1Zm27.6-13.064c0,.882-.5,2.016-1.386,2.016-.252,0-1.219-.084-1.429-.084-.21.042-1.092.294-1.26.294a.2.2,0,0,1-.21-.21,2.893,2.893,0,0,1,.126-.336,2.211,2.211,0,0,0,.168-.756c0-1.681-2.1-2.268-3.528-2.268a3.659,3.659,0,0,0-1.639.419.94.94,0,0,1-.42.126c-.126,0-.168-.042-.168-.168a5.374,5.374,0,0,1,4.537-2.646C-2004.735,2337.424-2002.761,2339.1-2002.761,2341.037Z" fill="#333"/>
        <path id="パス_1583" data-name="パス 1583" d="M-1968.168,2341.835a36.965,36.965,0,0,0,10.166,3.318c.168,0,.882.126.882.294,0,.126-.588.294-.756.336a7.275,7.275,0,0,0-3.192,2.269c-.126.168-.588,1.051-.8,1.051-.252,0-9.367-4.411-13.484-11.133-.8-1.344-.924-1.47-1.218-1.47s-.378.084-1.3,1.05a49.939,49.939,0,0,1-12.434,9.788c-1.429.756-5.8,2.689-6.6,2.689-.126,0-.21-.084-.21-.126s4.495-2.815,4.873-3.067c5.671-3.571,11.679-10,12.267-13.148.042-.336.084-.462.377-.462.21,0,3.613,1.3,3.823,1.428.126.042.547.209.547.629a2.635,2.635,0,0,1-.169.589C-1975.309,2336.5-1971.7,2340.028-1968.168,2341.835Zm-20.247-10.46c-3.109,0-4.537.084-5.335.126-.126,0-.757.084-.883.084s-.21-.084-.378-.252l-.8-.966c-.168-.21-.168-.21-.168-.294s.042-.084.126-.084c.294,0,1.595.126,1.848.126,2.058.084,3.823.168,5.8.168h1.218c.882,0,1.135-.421,1.135-1.134a6.81,6.81,0,0,0-.337-2.227,6.394,6.394,0,0,1-.252-.84c0-.21.21-.294.463-.294.294,0,2.183.462,2.645.588,1.261.336,1.513.42,1.513.8,0,.253-.042.337-.63,1.093a1.026,1.026,0,0,0-.294.756c0,1.008.336,1.26,1.47,1.26h6.931c.378,0,1.26,0,1.26-1.134a17.46,17.46,0,0,0-.126-1.89c-.042-.211-.252-1.093-.252-1.261,0-.21.252-.294.462-.294.294,0,3.152.672,3.613.8s.714.294.714.672c0,.253-.168.421-.63.757a1.349,1.349,0,0,0-.545,1.176c0,1.176.671,1.176,1.343,1.176h2.143c1.849,0,2.058,0,2.688-.714,1.176-1.386,1.3-1.554,1.68-1.554.253,0,3.907,2.226,3.907,2.772,0,.588-.84.588-2.226.588h-8.192c-1.3,0-1.3.672-1.3,1.681,0,.252.042,1.68.042,1.889,0,1.555-1.261,1.807-2.143,1.807-.967,0-1.135-.168-1.135-1.6v-2.9c-.126-.8-.63-.882-1.3-.882h-6.721c-.966,0-1.554,0-1.554,1.176,0,.421.126,2.269.126,2.646,0,.8-.126,1.177-.5,1.429a2.989,2.989,0,0,1-1.6.588c-.713,0-1.049-.462-1.049-1.3,0-.336.042-1.932.042-2.226,0-1.639,0-2.311-1.3-2.311Zm2.983,21.466a21.5,21.5,0,0,1,3.234,1.975,1.042,1.042,0,0,1,.336.629c0,.5-.336.588-1.344.84-.127.042-3.739,2.857-4.411,3.362-3.78,2.688-6.175,3.654-6.385,3.654a.134.134,0,0,1-.127-.126c0-.084,2.227-2.017,2.521-2.311,3.487-3.318,5.63-6.636,6.008-7.981A.252.252,0,0,1-1985.432,2352.841Zm1.931-2.227c-3.276,0-4.494.042-5.335.126-.126,0-.756.084-.882.084s-.21-.084-.377-.252l-.8-.965c-.168-.21-.168-.21-.168-.294,0-.042.042-.084.126-.084.294,0,1.6.126,1.847.126,2.059.126,3.824.168,5.8.168h3.151c.419,0,1.259,0,1.259-1.135,0-.5-.252-3.906-.336-4.326,0-.084-.252-.5-.252-.588s.084-.253.42-.253c.294,0,3.235.631,3.655.757.589.126.8.5.8.714,0,.252-.083.336-.714.881-.588.5-.588.757-.588,2.017,0,1.513,0,1.933,1.261,1.933h1.847c1.849,0,2.059,0,2.689-.714,1.176-1.387,1.3-1.555,1.68-1.555.252,0,3.908,2.269,3.908,2.773,0,.587-.841.587-2.227.587h-7.939c-1.261,0-1.261.756-1.261,2.1,0,2.982,0,4.663.084,7.142.042.713.042,1.721.042,2.225,0,1.345-.336,2.143-2.143,2.143-.924,0-1.008-.756-1.008-1.47,0-.547.126-3.066.126-3.613.042-1.6.042-3.151.042-5.083a25.477,25.477,0,0,0-.084-2.857c-.21-.588-.881-.588-1.217-.588Zm11.217,3.53c0-.127.21-.169.378-.169,1.554,0,11.132,2.646,11.132,6.134,0,1.343-.756,2.394-1.807,2.394-.8,0-.966-.21-2.268-2.142-1.974-2.983-4.872-4.706-7.225-6.049C-1972.116,2354.312-1972.284,2354.186-1972.284,2354.144Z" fill="#333"/>
      </g>
    </g>
    <g id="グループ_360" data-name="グループ 360">
      <path id="パス_1584" data-name="パス 1584" d="M-2251.747,2392.007a12.509,12.509,0,0,0,1.4-1.48,7.524,7.524,0,0,0,1.08-1.78,5.539,5.539,0,0,0,.439-1.96,4.034,4.034,0,0,0-.439-1.98,4.365,4.365,0,0,0-1.12-1.4,3.159,3.159,0,0,0-1.641-.72,2.337,2.337,0,0,0-1.6.4,6.329,6.329,0,0,0-1.24,1.16,4.457,4.457,0,0,0-.939,1.9,6.348,6.348,0,0,0-.1,2.08,9.753,9.753,0,0,0,.48,2.1,18.76,18.76,0,0,0,.8,1.96q.482.96.96,1.88a17.525,17.525,0,0,1,.84,1.86,10.6,10.6,0,0,1,.54,1.96,7.634,7.634,0,0,1,.061,2.14,9.256,9.256,0,0,1-1.321,3.9,13.02,13.02,0,0,1-2.78,3.26,12.416,12.416,0,0,1-3.7,2.16,9.593,9.593,0,0,1-4.119.6,5.482,5.482,0,0,1-3.04-1.14,5.529,5.529,0,0,1-1.88-2.7,6.57,6.57,0,0,1-.32-2.02,7.738,7.738,0,0,1,.259-2,10.414,10.414,0,0,1,.72-1.92,12.5,12.5,0,0,1,1.061-1.78,10.572,10.572,0,0,1,1.3-1.52,10.173,10.173,0,0,1,1.62-1.28,8.368,8.368,0,0,1,1.84-.88,5.615,5.615,0,0,1,2-.28,5.114,5.114,0,0,1,2.04.5,4.323,4.323,0,0,1,1.56,1.22,3.911,3.911,0,0,1,.78,1.76,3.7,3.7,0,0,1-.26,2.08.888.888,0,0,1-.48.36.764.764,0,0,1-.52-.02.7.7,0,0,1-.36-.32.522.522,0,0,1,.08-.54,2.579,2.579,0,0,0,.18-1.96,2.523,2.523,0,0,0-1.22-1.52,4.069,4.069,0,0,0-1.96-.52,5.371,5.371,0,0,0-1.939.36,7.524,7.524,0,0,0-1.781.98,9.589,9.589,0,0,0-1.48,1.34,11.223,11.223,0,0,0-1.22,1.76,8.627,8.627,0,0,0-.82,2,6.583,6.583,0,0,0-.22,2.1,5.117,5.117,0,0,0,.54,2.02,4.284,4.284,0,0,0,1.24,1.58,4.443,4.443,0,0,0,1.68.8,6.244,6.244,0,0,0,1.941.14,8.343,8.343,0,0,0,1.979-.4,11.512,11.512,0,0,0,3.84-2,10.559,10.559,0,0,0,2.721-3.16,8.81,8.81,0,0,0,1.1-3.92,8.161,8.161,0,0,0-1.019-4.24q-.522-1-1.061-2.02a18.573,18.573,0,0,1-.939-2.06,11.635,11.635,0,0,1-.6-2.16,8.371,8.371,0,0,1-.08-2.32,6.138,6.138,0,0,1,.54-2.06,5.95,5.95,0,0,1,1.22-1.78,4.545,4.545,0,0,1,1.74-1.1,3.361,3.361,0,0,1,2.141.02,4.029,4.029,0,0,1,1.859,1.1,5.1,5.1,0,0,1,1.1,1.76,6.067,6.067,0,0,1,.359,2.1,7.855,7.855,0,0,1-.28,2.12,9.246,9.246,0,0,1-.88,2.04,20.732,20.732,0,0,1-1.239,1.88,4.3,4.3,0,0,1-.5.64.591.591,0,0,1-.741.12.542.542,0,0,1-.46-.5A.738.738,0,0,1-2251.747,2392.007Z" fill="#333"/>
      <path id="パス_1585" data-name="パス 1585" d="M-2246.251,2397.647q.16-.079.74-.32a6.577,6.577,0,0,1,1.14-.36,2.151,2.151,0,0,1,.96-.02q.4.1.28.74a1.978,1.978,0,0,1-.339.72,2.642,2.642,0,0,0-.38.72,9.047,9.047,0,0,0-.461,1.28,1.348,1.348,0,0,0,.14,1.24,3.786,3.786,0,0,0,1.5-.16q.819-.24,1.5-.48a7.857,7.857,0,0,0,.76-.4q.559-.319,1.18-.62a6.645,6.645,0,0,1,1.14-.44c.346-.093.56-.06.64.1.106.187.04.387-.2.6a3.858,3.858,0,0,1-.9.58c-.36.174-.727.333-1.1.48s-.613.247-.72.3q-.88.441-1.78.86a7.151,7.151,0,0,1-1.86.58,1.09,1.09,0,0,1-1.16-.36,2.149,2.149,0,0,1-.32-1.22,6.473,6.473,0,0,1,.22-1.6c.146-.573.3-1.1.461-1.58-.615.24-1.214.46-1.8.66a16.162,16.162,0,0,0-1.72.7c-.479.214-.96.454-1.439.72a.606.606,0,0,1-.7-.22q-.261-.339.219-.58Zm4.68-8.08a2.341,2.341,0,0,1,.62-.9,3.713,3.713,0,0,1,.94-.62,5.955,5.955,0,0,1,1.1-.38c.387-.094.753-.166,1.1-.22a14.473,14.473,0,0,1,2.841.12,2.149,2.149,0,0,1,.54.08c.2.053.286.2.259.44a.6.6,0,0,1-.2.34.4.4,0,0,1-.36.1,9.632,9.632,0,0,0-2.42-.18,4.3,4.3,0,0,0-2.26.74,1.291,1.291,0,0,0-.559.64,1.469,1.469,0,0,1-.481.64.629.629,0,0,1-.84,0A.656.656,0,0,1-2241.571,2389.567Z" fill="#333"/>
      <path id="パス_1586" data-name="パス 1586" d="M-2238.276,2399.607q.439-.24,1.52-.82t2.22-1.1a10.163,10.163,0,0,1,2.1-.72q.96-.2,1.2.32a.792.792,0,0,1-.1.78,3.379,3.379,0,0,0-.381.7l-.479,1.12a9.925,9.925,0,0,1,1.04-.56l1.04-.48q1.28-.679,2.64-1.44a12.967,12.967,0,0,1,2.759-1.16,1.959,1.959,0,0,1,.92-.02,1.15,1.15,0,0,1,.62.36,1.017,1.017,0,0,1,.221.68,1.648,1.648,0,0,1-.32.9,6.612,6.612,0,0,1-.78,1q-.422.441-.86.96a2.386,2.386,0,0,1-.28.32q-.2.2-.42.46t-.4.52a1.292,1.292,0,0,0-.22.46,1.52,1.52,0,0,0,.7,0,6.389,6.389,0,0,0,.84-.22c.28-.094.546-.193.8-.3s.446-.186.58-.24l1.639-.72q.16-.079.42-.24t.54-.3q.281-.14.54-.26a1.081,1.081,0,0,1,.42-.12.318.318,0,0,1,.361.36.626.626,0,0,1-.321.56c-.239.134-.493.26-.759.38l-.84.38q-.561.321-1.08.56t-1.08.52q-.321.16-1.02.46a7.113,7.113,0,0,1-1.4.44,2.319,2.319,0,0,1-1.22-.04q-.52-.18-.52-.98a1.326,1.326,0,0,1,.2-.72,4.916,4.916,0,0,1,.46-.62,7.615,7.615,0,0,1,.56-.58c.2-.186.38-.36.54-.52a9.042,9.042,0,0,0,.8-.84,3.248,3.248,0,0,0,.72-1.2,8.353,8.353,0,0,0-2.18.56,22.163,22.163,0,0,0-2.02.92q-1.161.561-2.4,1.26a9.293,9.293,0,0,0-2.16,1.66.784.784,0,0,1-.42.18.765.765,0,0,1-.42-.08.642.642,0,0,1-.3-.3.742.742,0,0,1-.02-.52,1.241,1.241,0,0,1,.6-.64,7.367,7.367,0,0,0,.4-.74,2.39,2.39,0,0,1,.28-.5c.053-.186.107-.38.16-.58a4.547,4.547,0,0,0,.119-.62c-.293.08-.586.174-.879.28s-.52.187-.68.24q-.561.24-1.12.46t-1.12.5q-.321.16-.58.32a3.394,3.394,0,0,1-.581.28.629.629,0,0,1-.459.06.753.753,0,0,1-.34-.18.346.346,0,0,1-.1-.3C-2238.562,2399.787-2238.463,2399.687-2238.276,2399.607Z" fill="#333"/>
      <path id="パス_1587" data-name="パス 1587" d="M-2219.972,2399.607q1.039-.519,2.04-1t2.04-.88a14.218,14.218,0,0,1,2.219-.6,12.872,12.872,0,0,1,2.3-.2.977.977,0,0,1,.681.22q.238.22.04.74a.788.788,0,0,1-.721.4,13.815,13.815,0,0,0-2.1,0,6.529,6.529,0,0,0-2.021.48,3.422,3.422,0,0,0-.68.36,4.327,4.327,0,0,0-.66.54,1.693,1.693,0,0,0-.42.66.969.969,0,0,0,.08.76,1.446,1.446,0,0,0,1.22.8,4.134,4.134,0,0,0,1.54-.04,4.15,4.15,0,0,0,.92-.32l.721-.36a2.675,2.675,0,0,1,.58-.22.613.613,0,0,1,.54.18.85.85,0,0,1,.019.92q-.259.52-.42.88l-.559,1.32q1.08-1.121,2.279-2.14a18.137,18.137,0,0,1,2.561-1.82c.08-.053.185-.134.319-.24a3.725,3.725,0,0,1,.441-.3,1.817,1.817,0,0,1,.479-.2.453.453,0,0,1,.4.06c.187.133.253.267.2.4a1.234,1.234,0,0,1-.281.4q-1.04.56-2,1.2a18.787,18.787,0,0,0-1.88,1.44,23.708,23.708,0,0,0-1.979,1.88,22.991,22.991,0,0,0-1.74,2.08l-1.04,2.4q-.482,1.2-.96,2.44t-1.04,2.44q-.12.24-.3.58a5.188,5.188,0,0,1-.4.64,1.779,1.779,0,0,1-.519.48,1.032,1.032,0,0,1-.66.14.728.728,0,0,1-.62-.44,1.578,1.578,0,0,1-.08-.8,5.124,5.124,0,0,1,.2-.88,7.562,7.562,0,0,1,.26-.72,20.6,20.6,0,0,1,1.9-3.5,36.442,36.442,0,0,1,2.42-3.22l1.359-3.88a10.436,10.436,0,0,1-1.54.3,6.714,6.714,0,0,1-1.54.02,3.457,3.457,0,0,1-1.3-.4,1.927,1.927,0,0,1-.859-1.04,1.937,1.937,0,0,1,.04-1.68c-.214.134-.435.273-.66.42a.682.682,0,0,1-.58.14.432.432,0,0,1-.481-.34A.408.408,0,0,1-2219.972,2399.607Z" fill="#333"/>
      <path id="パス_1588" data-name="パス 1588" d="M-2206.525,2399.567a25.56,25.56,0,0,0,2.4-1.24q1.159-.679,2.32-1.48a21.541,21.541,0,0,1,1.24-2.16q.679-1.04,1.32-2.04.68-.92,1.359-1.86t1.4-1.86q.6-.8,1.3-1.62a5.981,5.981,0,0,1,1.62-1.34,3.322,3.322,0,0,1,1.08-.34.747.747,0,0,1,.88.58,1.273,1.273,0,0,1,.019.86,3.51,3.51,0,0,1-.42.84,8.783,8.783,0,0,1-.6.8c-.214.254-.387.474-.521.66a32.062,32.062,0,0,1-3.579,4.26,37.249,37.249,0,0,1-4.261,3.66q-.2.48-.46,1.02a9.865,9.865,0,0,0-.46,1.14,6.55,6.55,0,0,0-.279,1.18,3.006,3.006,0,0,0,.04,1.1q.439-.079.8-.12.319-.039.6-.06a1.182,1.182,0,0,0,.36-.06,18.231,18.231,0,0,0,2.359-.64q1.161-.4,2.281-.88a3.327,3.327,0,0,0,.759-.32.721.721,0,0,1,.761-.04q.439.32.119.58a2.575,2.575,0,0,1-.6.38l-4.64,1.72q-.681.24-1.32.5a4.124,4.124,0,0,1-1.321.3,1.3,1.3,0,0,1-.96-.18,1.352,1.352,0,0,1-.5-.68,2.284,2.284,0,0,1-.1-.92,5.05,5.05,0,0,1,.16-.94,14.013,14.013,0,0,1,.72-1.92,31.209,31.209,0,0,1-3.44,1.96.623.623,0,0,1-.66-.26Q-2207.006,2399.808-2206.525,2399.567Zm8.12-5.48a30.953,30.953,0,0,0,3.439-3.8,13.54,13.54,0,0,0,1.361-1.92,4.923,4.923,0,0,1,.24-.5,5.106,5.106,0,0,0,.279-.62,4.331,4.331,0,0,0-1.059.76q-.5.48-.821.8a21.594,21.594,0,0,0-1.719,1.94q-.8,1.02-1.6,2.1-.441.641-.84,1.26t-.761,1.26c.241-.186.487-.393.741-.62Z" fill="#333"/>
      <path id="パス_1589" data-name="パス 1589" d="M-2194.83,2399.567q.72-.36,1.5-.8a13.267,13.267,0,0,1,1.58-.76,4.09,4.09,0,0,1,1.48-1.5,6.055,6.055,0,0,1,2.04-.78,5.311,5.311,0,0,1,1.3,0,1.582,1.582,0,0,1,1.14.6.625.625,0,0,1,.14.68,1.891,1.891,0,0,1-.48.68,4.742,4.742,0,0,1-.76.58c-.28.174-.487.3-.62.38a5.731,5.731,0,0,1-1.58.66,5.079,5.079,0,0,1-1.74.14h-.16a2.248,2.248,0,0,0,.72,1.36,3.476,3.476,0,0,0,1.32.7,4.8,4.8,0,0,0,1.58.18,12.18,12.18,0,0,0,1.5-.16,17.693,17.693,0,0,0,1.88-.5,17.35,17.35,0,0,0,1.8-.7c.266-.133.54-.26.82-.38a8.6,8.6,0,0,0,.78-.38.76.76,0,0,1,.579.08q.3.16.061.52a1.019,1.019,0,0,1-.561.44c-.239.08-.453.16-.639.24l-2,.88a34.17,34.17,0,0,1-3.64,1.2,6.032,6.032,0,0,1-1.62.1,4.7,4.7,0,0,1-1.52-.36,3.979,3.979,0,0,1-1.26-.86,3.165,3.165,0,0,1-.8-1.44c-.054-.214-.1-.426-.14-.64a1.284,1.284,0,0,1,.02-.6,7.778,7.778,0,0,0-.86.46l-.74.46a2.9,2.9,0,0,0-.52.3.539.539,0,0,1-.64.02.459.459,0,0,1-.22-.44A.371.371,0,0,1-2194.83,2399.567Zm4.08-1.12a4.618,4.618,0,0,0,1.86-.48,5.816,5.816,0,0,0,1.58-1.12,2.26,2.26,0,0,0-1.1-.12,3.128,3.128,0,0,0-1,.32,3.093,3.093,0,0,0-.82.62A2.509,2.509,0,0,0-2190.75,2398.447Z" fill="#333"/>
      <path id="パス_1590" data-name="パス 1590" d="M-2150.071,2383.647a3.56,3.56,0,0,0-1.74-.28,7.055,7.055,0,0,0-1.781.4,5.955,5.955,0,0,1,4.081,1.1,4.018,4.018,0,0,1,1.36,3.74,12.167,12.167,0,0,1-1.22,4.28,32.976,32.976,0,0,1-2.26,3.92q-1.041,1.56-2.36,3.18a21.924,21.924,0,0,1-2.92,2.96,18.68,18.68,0,0,1-3.42,2.28,9.988,9.988,0,0,1-3.82,1.1,7.107,7.107,0,0,1-1.9-.1,2.96,2.96,0,0,1-1.66-.9,3.172,3.172,0,0,1-.88-1.88,8.04,8.04,0,0,1,.04-2.12,14.527,14.527,0,0,1,1.38-4.18,36.774,36.774,0,0,1,2.22-3.82,30.441,30.441,0,0,1,2.56-3.62,40.392,40.392,0,0,1,3-3.26,31.36,31.36,0,0,1,3.26-2.68,9.234,9.234,0,0,1,3.82-1.64,8.5,8.5,0,0,1,1.54-.12,2.126,2.126,0,0,1,1.42.44.656.656,0,0,1,.259.46.752.752,0,0,1-.1.46.725.725,0,0,1-.361.3A.643.643,0,0,1-2150.071,2383.647Zm-7.6,2.64a25.571,25.571,0,0,0-3.22,3.14,40.267,40.267,0,0,0-2.74,3.58,29.133,29.133,0,0,0-2.22,3.82,16.322,16.322,0,0,0-1.38,4.18,7.52,7.52,0,0,0-.12.9,4.782,4.782,0,0,0,.02.98,3.324,3.324,0,0,0,.24.9,1.63,1.63,0,0,0,.58.7,2.5,2.5,0,0,0,1.54.46,8.271,8.271,0,0,0,1.58-.18,11.055,11.055,0,0,0,4-1.68,28.382,28.382,0,0,0,3.4-2.68,25.657,25.657,0,0,0,2.98-3.28,21.691,21.691,0,0,0,2.3-3.76q.36-.72.8-1.74a10.7,10.7,0,0,0,.66-2.1,6.142,6.142,0,0,0,.08-2.08,2.692,2.692,0,0,0-.9-1.68,2.6,2.6,0,0,0-1.8-.7,10.631,10.631,0,0,0-2,.14.655.655,0,0,1-.64-.2.854.854,0,0,1-.24-.72,15.7,15.7,0,0,0-1.58,1Q-2157.111,2385.846-2157.671,2386.287Z" fill="#333"/>
      <path id="パス_1591" data-name="パス 1591" d="M-2151.247,2399.567q.84-.439,1.66-.88t1.781-1a1.92,1.92,0,0,1,.46-1.44,1.581,1.581,0,0,1,1.379-.64.81.81,0,0,1,.72.56.968.968,0,0,1-.16.92,2.68,2.68,0,0,1-.84.8,1.348,1.348,0,0,0,.68.16,3.658,3.658,0,0,0,1.76-.3,11.687,11.687,0,0,0,1.64-.82q.72-.24.92.16a.954.954,0,0,1-.16.96q-.2.321-.46.82a7.5,7.5,0,0,0-.44,1.02,3.5,3.5,0,0,0-.2,1,.9.9,0,0,0,.3.76q.2.24,1.06,0t2.3-.8q.48-.2.98-.46t1.02-.5a2.076,2.076,0,0,0,.36-.18,1.9,1.9,0,0,1,.46-.2.68.68,0,0,1,.4,0q.18.06.18.42a.473.473,0,0,1-.18.36,2.152,2.152,0,0,1-.4.28,2.792,2.792,0,0,1-.46.2l-.36.12-1.68.76-1.1.6a9.124,9.124,0,0,1-1.34.6,3.957,3.957,0,0,1-1.32.24,1.148,1.148,0,0,1-1-.52,1.3,1.3,0,0,1-.24-.62,2.354,2.354,0,0,1,.02-.68,6.016,6.016,0,0,1,.161-.68c.065-.226.126-.446.179-.66l.321-1.32c-.134.027-.408.093-.821.2a8,8,0,0,1-1.34.22,6.735,6.735,0,0,1-1.379-.02,1.344,1.344,0,0,1-.981-.52q-.681.36-1.12.6t-.9.52c-.308.187-.554.334-.741.44a2.362,2.362,0,0,0-.56.3.471.471,0,0,1-.56.06.5.5,0,0,1-.24-.44A.414.414,0,0,1-2151.247,2399.567Z" fill="#333"/>
      <path id="パス_1592" data-name="パス 1592" d="M-2132.252,2397.647q.16-.079.741-.32a6.542,6.542,0,0,1,1.139-.36,2.15,2.15,0,0,1,.96-.02q.4.1.28.74a1.978,1.978,0,0,1-.339.72,2.642,2.642,0,0,0-.38.72,9.171,9.171,0,0,0-.461,1.28,1.348,1.348,0,0,0,.14,1.24,3.785,3.785,0,0,0,1.5-.16q.819-.24,1.5-.48a7.8,7.8,0,0,0,.76-.4q.56-.319,1.18-.62a6.645,6.645,0,0,1,1.14-.44c.346-.093.56-.06.64.1q.16.281-.2.6a3.856,3.856,0,0,1-.9.58c-.36.174-.727.333-1.1.48s-.613.247-.72.3q-.88.441-1.78.86a7.151,7.151,0,0,1-1.859.58,1.092,1.092,0,0,1-1.161-.36,2.151,2.151,0,0,1-.32-1.22,6.473,6.473,0,0,1,.22-1.6c.146-.573.3-1.1.461-1.58-.615.24-1.214.46-1.8.66a16.162,16.162,0,0,0-1.72.7c-.479.214-.96.454-1.439.72a.606.606,0,0,1-.7-.22q-.261-.339.219-.58Zm4.68-8.08a2.341,2.341,0,0,1,.62-.9,3.7,3.7,0,0,1,.941-.62,5.924,5.924,0,0,1,1.1-.38c.387-.094.753-.166,1.1-.22a14.473,14.473,0,0,1,2.841.12,2.149,2.149,0,0,1,.54.08c.2.053.286.2.259.44a.593.593,0,0,1-.2.34.4.4,0,0,1-.36.1,9.634,9.634,0,0,0-2.42-.18,4.306,4.306,0,0,0-2.26.74,1.3,1.3,0,0,0-.559.64,1.471,1.471,0,0,1-.481.64.629.629,0,0,1-.84,0A.658.658,0,0,1-2127.572,2389.567Z" fill="#333"/>
      <path id="パス_1593" data-name="パス 1593" d="M-2124.085,2399.607q1.041-.519,2.04-1t2.04-.88a14.214,14.214,0,0,1,2.22-.6,12.861,12.861,0,0,1,2.3-.2.979.979,0,0,1,.681.22q.238.22.04.74a.79.79,0,0,1-.721.4,13.828,13.828,0,0,0-2.1,0,6.516,6.516,0,0,0-2.02.48,3.388,3.388,0,0,0-.68.36,4.329,4.329,0,0,0-.66.54,1.7,1.7,0,0,0-.42.66.964.964,0,0,0,.08.76,1.445,1.445,0,0,0,1.22.8,4.136,4.136,0,0,0,1.54-.04,4.152,4.152,0,0,0,.92-.32l.72-.36a2.681,2.681,0,0,1,.581-.22.614.614,0,0,1,.54.18.851.851,0,0,1,.019.92c-.174.347-.313.64-.42.88l-.559,1.32q1.079-1.121,2.279-2.14a18.128,18.128,0,0,1,2.56-1.82c.081-.053.186-.134.32-.24a3.835,3.835,0,0,1,.44-.3,1.822,1.822,0,0,1,.48-.2.453.453,0,0,1,.4.06c.187.133.253.267.2.4a1.208,1.208,0,0,1-.28.4q-1.04.56-2,1.2a18.566,18.566,0,0,0-1.88,1.44,23.708,23.708,0,0,0-1.979,1.88,23.165,23.165,0,0,0-1.741,2.08l-1.04,2.4q-.48,1.2-.96,2.44t-1.04,2.44q-.12.24-.3.58a5.339,5.339,0,0,1-.4.64,1.779,1.779,0,0,1-.519.48,1.035,1.035,0,0,1-.661.14.73.73,0,0,1-.62-.44,1.589,1.589,0,0,1-.08-.8,5.241,5.241,0,0,1,.2-.88q.14-.441.26-.72a20.672,20.672,0,0,1,1.9-3.5,36.254,36.254,0,0,1,2.42-3.22l1.359-3.88a10.461,10.461,0,0,1-1.54.3,6.715,6.715,0,0,1-1.54.02,3.449,3.449,0,0,1-1.3-.4,1.918,1.918,0,0,1-.859-1.04,1.934,1.934,0,0,1,.04-1.68c-.214.134-.435.273-.66.42a.684.684,0,0,1-.581.14.432.432,0,0,1-.48-.34A.407.407,0,0,1-2124.085,2399.607Z" fill="#333"/>
      <path id="パス_1594" data-name="パス 1594" d="M-2106.637,2397.647q.159-.079.74-.32a6.568,6.568,0,0,1,1.139-.36,2.15,2.15,0,0,1,.96-.02q.4.1.281.74a1.981,1.981,0,0,1-.34.72,2.642,2.642,0,0,0-.38.72,9.171,9.171,0,0,0-.461,1.28,1.344,1.344,0,0,0,.141,1.24,3.786,3.786,0,0,0,1.5-.16q.819-.24,1.5-.48a8.009,8.009,0,0,0,.759-.4q.56-.319,1.18-.62a6.622,6.622,0,0,1,1.141-.44c.345-.093.559-.06.639.1q.16.281-.2.6a3.869,3.869,0,0,1-.9.58c-.361.174-.728.333-1.1.48s-.613.247-.72.3q-.88.441-1.78.86a7.14,7.14,0,0,1-1.859.58,1.089,1.089,0,0,1-1.16-.36,2.149,2.149,0,0,1-.321-1.22,6.52,6.52,0,0,1,.22-1.6q.22-.859.461-1.58-.921.36-1.8.66a16.162,16.162,0,0,0-1.72.7c-.479.214-.96.454-1.439.72a.607.607,0,0,1-.7-.22q-.261-.339.22-.58Zm4.679-8.08a2.341,2.341,0,0,1,.62-.9,3.714,3.714,0,0,1,.941-.62,5.949,5.949,0,0,1,1.1-.38c.387-.094.753-.166,1.1-.22a14.473,14.473,0,0,1,2.841.12,2.143,2.143,0,0,1,.54.08q.3.079.26.44a.6.6,0,0,1-.2.34.4.4,0,0,1-.36.1,9.631,9.631,0,0,0-2.42-.18,4.306,4.306,0,0,0-2.26.74,1.3,1.3,0,0,0-.559.64,1.471,1.471,0,0,1-.481.64.629.629,0,0,1-.84,0A.659.659,0,0,1-2101.958,2389.567Z" fill="#333"/>
      <path id="パス_1595" data-name="パス 1595" d="M-2098.662,2399.607q.44-.24,1.521-.82t2.219-1.1a10.164,10.164,0,0,1,2.1-.72q.962-.2,1.2.32a.791.791,0,0,1-.1.78,3.333,3.333,0,0,0-.381.7l-.48,1.12a10.024,10.024,0,0,1,1.04-.56l1.04-.48q1.28-.679,2.64-1.44a12.954,12.954,0,0,1,2.76-1.16,1.96,1.96,0,0,1,.92-.02,1.157,1.157,0,0,1,.62.36,1.022,1.022,0,0,1,.22.68,1.646,1.646,0,0,1-.32.9,6.611,6.611,0,0,1-.78,1q-.42.441-.86.96a2.317,2.317,0,0,1-.28.32c-.134.134-.273.287-.42.46s-.28.347-.4.52a1.309,1.309,0,0,0-.22.46,1.519,1.519,0,0,0,.7,0,6.342,6.342,0,0,0,.84-.22c.28-.094.546-.193.8-.3s.446-.186.58-.24l1.64-.72q.159-.079.42-.24t.54-.3q.279-.14.54-.26a1.077,1.077,0,0,1,.42-.12.318.318,0,0,1,.36.36.625.625,0,0,1-.32.56c-.24.134-.493.26-.76.38l-.84.38q-.561.321-1.08.56t-1.08.52q-.321.16-1.02.46a7.092,7.092,0,0,1-1.4.44,2.319,2.319,0,0,1-1.22-.04q-.519-.18-.52-.98a1.326,1.326,0,0,1,.2-.72,4.916,4.916,0,0,1,.46-.62,7.615,7.615,0,0,1,.56-.58c.2-.186.38-.36.541-.52a9.073,9.073,0,0,0,.8-.84,3.238,3.238,0,0,0,.72-1.2,8.357,8.357,0,0,0-2.18.56,22.187,22.187,0,0,0-2.02.92q-1.161.561-2.4,1.26a9.313,9.313,0,0,0-2.16,1.66.784.784,0,0,1-.42.18.765.765,0,0,1-.42-.08.64.64,0,0,1-.3-.3.738.738,0,0,1-.021-.52,1.241,1.241,0,0,1,.6-.64,7.325,7.325,0,0,0,.4-.74,2.447,2.447,0,0,1,.28-.5c.053-.186.107-.38.161-.58a4.866,4.866,0,0,0,.119-.62c-.293.08-.586.174-.88.28s-.52.187-.68.24q-.561.24-1.12.46t-1.12.5c-.214.107-.406.214-.58.32a3.383,3.383,0,0,1-.58.28.632.632,0,0,1-.46.06.753.753,0,0,1-.34-.18.349.349,0,0,1-.1-.3Q-2098.941,2399.727-2098.662,2399.607Z" fill="#333"/>
    </g>
    <path id="パス_1596" data-name="パス 1596" d="M-2484.055,2352.315v-39.972h24.823v-7.087h-31.91v111.661h31.91v-7.087h-24.823v-57.515Z" fill="none" stroke="#333" stroke-miterlimit="10" stroke-width="0.3"/>
    <path id="パス_1597" data-name="パス 1597" d="M-1848.228,2369.857v39.973h-24.823v7.087h31.91V2305.255h-31.91v7.087h24.823v57.515Z" fill="none" stroke="#333" stroke-miterlimit="10" stroke-width="0.3"/>
  </g>
</svg>
