<svg id="lineup_originalbrend_ttl" xmlns="http://www.w3.org/2000/svg" width="634.959" height="59.828" viewBox="0 0 634.959 59.828">
  <g id="グループ_129" data-name="グループ 129" transform="translate(-643.192 -2087.37)">
    <g id="グループ_128" data-name="グループ 128">
      <path id="パス_670" data-name="パス 670" d="M887.535,2136.72c.672,0,3.866.07,3.866,2.423a2.728,2.728,0,0,1-1.863,2.452c-.49.238-.547.266-.547.419a24.838,24.838,0,0,0,1.457,3.349,1.747,1.747,0,0,0,1.654,1.12c.139,0,.42,0,.42.224,0,.2-.281.224-.351.224H890.42a.686.686,0,0,1-.658-.406c-.084-.139-1.078-2.311-1.233-2.661-.77-1.7-.868-1.919-1.358-1.919H886.4c-.1,0-.28.056-.322.168-.055.14-.055,1.989-.055,2.311,0,1.695,0,2.059,1.288,2.059.1,0,.294,0,.294.224s-.252.224-.407.224h-3.459c-.14,0-.35-.028-.35-.224,0-.224.2-.224.392-.224.966,0,1.107-.448,1.149-.967.027-.475.027-4.328.027-4.986a22.752,22.752,0,0,0-.111-2.83c-.183-.518-.785-.518-1.107-.518-.085,0-.379,0-.379-.252,0-.21.252-.21.421-.21Zm-.5.462c-1.007,0-1.007.63-1.007,2.074,0,2.2,0,2.241.377,2.241h1.135a2.263,2.263,0,0,0,2.535-2.214c0-.98-.532-2.1-2.353-2.1Z" fill="#333"/>
      <path id="パス_671" data-name="パス 671" d="M901.1,2146.483a3.639,3.639,0,0,0,3.347-1.737c.351-.546.379-.6.491-.6a.224.224,0,0,1,.238.224c0,.07-.5,1.4-.588,1.611-.351.91-.364.952-1.275.952h-6.6c-.238,0-.435,0-.435-.224s.14-.224.533-.224a.929.929,0,0,0,1.064-.728c.042-.239.056-3.46.056-3.867,0-.56,0-3.74-.042-3.992-.14-.714-.743-.714-1.3-.714-.1,0-.309,0-.309-.224s.2-.238.435-.238H903.1c.869,0,.938.028,1.218.714.084.2.6,1.485.6,1.583a.218.218,0,0,1-.224.21c-.085,0-.112-.028-.434-.476a3.411,3.411,0,0,0-2.69-1.569h-1.554a.97.97,0,0,0-.841.365c-.168.252-.168.378-.168,1.484,0,.183,0,2.087.042,2.2a.389.389,0,0,0,.336.183h1.232c1.583,0,1.583-.953,1.583-1.569,0-.042,0-.281.225-.281s.223.239.223.351c-.013.517,0,3.025,0,3.586,0,.07,0,.294-.223.294s-.225-.182-.225-.462c0-1.192-.8-1.471-1.583-1.471h-1.232a.337.337,0,0,0-.365.321c-.013.113-.013,2.424-.013,2.634,0,.981,0,1.667,1.009,1.667Z" fill="#333"/>
      <path id="パス_672" data-name="パス 672" d="M912.717,2146.483a4.137,4.137,0,0,0,3.53-1.905c.266-.392.294-.434.392-.434a.2.2,0,0,1,.21.21c0,.084-.533,1.456-.617,1.681-.349.883-.406.9-1.316.9h-5.869c-.21,0-.406,0-.406-.224s.154-.224.5-.224a.928.928,0,0,0,1.064-.728c.042-.239.042-3.46.042-3.867,0-.56,0-3.74-.042-3.992-.126-.714-.742-.714-1.261-.714-.1,0-.307,0-.307-.224s.2-.238.406-.238h3.474c.224,0,.419,0,.419.238s-.153.224-.5.224a.938.938,0,0,0-1.065.714c-.042.252-.042,3.237-.042,3.9a37.221,37.221,0,0,0,.042,3.964.9.9,0,0,0,.967.728Z" fill="#333"/>
      <path id="パス_673" data-name="パス 673" d="M927.479,2146.931c-.155,0-.337-.042-.337-.224,0-.224.224-.224.56-.224a.614.614,0,0,0,.574-.616,7.591,7.591,0,0,0-.518-1.639c-.308-.785-.35-.882-.812-.882h-3.04c-.518,0-.574.139-.8.77a11.272,11.272,0,0,0-.5,1.821c0,.546.448.546.784.546.168,0,.322.029.322.224,0,.224-.21.224-.322.224H920.7c-.112,0-.294-.013-.294-.21,0-.238.155-.238.477-.238a1.177,1.177,0,0,0,1.064-.56,41.365,41.365,0,0,0,1.667-4.721c.182-.56,1.078-3.306,1.261-3.936.14-.49.224-.812,1.219-.812a.317.317,0,0,1,.307.224,9.111,9.111,0,0,1,.462,1.26c.982,3.04,1.066,3.376,1.948,5.968.8,2.381.9,2.577,1.7,2.577.182,0,.322.084.322.238,0,.21-.224.21-.322.21Zm-.66-4.047c.155,0,.351-.071.351-.225,0-.294-1.331-4.188-1.583-4.944-.084-.239-.112-.365-.21-.365s-.1.042-.252.5c-.393,1.135-1.485,4.693-1.485,4.82,0,.21.211.21.392.21Z" fill="#333"/>
      <path id="パス_674" data-name="パス 674" d="M941.339,2136.72c.757,0,.925,0,1.163.63.112.308.715,1.891.715,2.032a.217.217,0,0,1-.225.21c-.112,0-.154-.057-.476-.589a3.07,3.07,0,0,0-2.522-1.821c-.546,0-.882.224-.966.7-.042.252-.042,3.418-.042,4,0,.393,0,3.628.042,3.867.126.715.785.728,1.162.728.519,0,.631,0,.631.224s-.2.224-.421.224h-3.921c-.2,0-.407,0-.407-.224s.225-.224.309-.224c.826,0,1.345,0,1.484-.728a37.221,37.221,0,0,0,.042-3.964c0-3.46,0-3.838-.1-4.1a.875.875,0,0,0-.9-.5,3.2,3.2,0,0,0-2.521,1.807c-.336.546-.365.6-.491.6a.227.227,0,0,1-.224-.21c0-.113.631-1.793.743-2.074.224-.588.448-.588,1.148-.588Z" fill="#333"/>
      <path id="パス_675" data-name="パス 675" d="M951.652,2146.483a3.64,3.64,0,0,0,3.348-1.737c.351-.546.379-.6.49-.6a.224.224,0,0,1,.239.224c0,.07-.5,1.4-.588,1.611-.351.91-.365.952-1.276.952h-6.6c-.239,0-.435,0-.435-.224s.14-.224.532-.224a.929.929,0,0,0,1.065-.728c.042-.239.055-3.46.055-3.867,0-.56,0-3.74-.042-3.992-.139-.714-.742-.714-1.3-.714-.1,0-.309,0-.309-.224s.2-.238.435-.238h6.386c.869,0,.939.028,1.219.714.084.2.6,1.485.6,1.583a.218.218,0,0,1-.224.21c-.085,0-.112-.028-.435-.476a3.407,3.407,0,0,0-2.689-1.569h-1.555a.972.972,0,0,0-.841.365c-.168.252-.168.378-.168,1.484,0,.183,0,2.087.042,2.2a.389.389,0,0,0,.336.183h1.233c1.583,0,1.583-.953,1.583-1.569,0-.042,0-.281.224-.281.239,0,.224.239.224.351-.014.517,0,3.025,0,3.586,0,.07,0,.294-.224.294s-.224-.182-.224-.462c0-1.192-.8-1.471-1.583-1.471h-1.233a.337.337,0,0,0-.364.321c-.014.113-.014,2.424-.014,2.634,0,.981,0,1.667,1.009,1.667Z" fill="#333"/>
      <path id="パス_676" data-name="パス 676" d="M963.409,2136.72c4.749,0,5.31,3.362,5.31,4.972,0,3.027-1.724,5.239-5.184,5.239h-3.851c-.21,0-.407,0-.407-.224s.21-.224.294-.224c.547,0,1.149,0,1.275-.728a36.377,36.377,0,0,0,.043-3.964c0-.658,0-3.656-.043-3.9a.93.93,0,0,0-1.065-.714c-.349,0-.5,0-.5-.224s.2-.238.407-.238Zm-.433.462a.867.867,0,0,0-.967.729c-.042.237-.042,3.249-.042,3.88a37.221,37.221,0,0,0,.042,3.964.881.881,0,0,0,.967.728h.672c2.381,0,3.81-2.045,3.81-4.846,0-1.765-.728-4.455-3.754-4.455Z" fill="#333"/>
      <path id="パス_677" data-name="パス 677" d="M980.249,2146.931c-.182,0-.392,0-.392-.224s.112-.224.659-.224c.406,0,1.078,0,1.218-.728.042-.239.042-3.46.042-3.867,0-.574,0-3.74-.042-3.992-.14-.714-.644-.714-1.569-.714-.084,0-.308,0-.308-.224s.21-.238.406-.238h4.118c.169,0,.379,0,.379.238,0,.21-.126.21-.645.21-.42,0-1.022.014-1.205.644-.055.2-.055,3.348-.055,3.992a37.011,37.011,0,0,0,.042,3.951c.126.728.63.728,1.569.728.069,0,.294,0,.294.224s-.21.224-.379.224Z" fill="#333"/>
      <path id="パス_678" data-name="パス 678" d="M995.9,2136.72c.757,0,.925,0,1.163.63.113.308.714,1.891.714,2.032a.215.215,0,0,1-.223.21c-.113,0-.155-.057-.477-.589a3.067,3.067,0,0,0-2.521-1.821c-.546,0-.882.224-.966.7-.042.252-.042,3.418-.042,4,0,.393,0,3.628.042,3.867.126.715.784.728,1.162.728.518,0,.631,0,.631.224s-.2.224-.421.224h-3.922c-.2,0-.406,0-.406-.224s.224-.224.308-.224c.827,0,1.345,0,1.485-.728a37.221,37.221,0,0,0,.042-3.964c0-3.46,0-3.838-.1-4.1a.874.874,0,0,0-.9-.5,3.2,3.2,0,0,0-2.522,1.807c-.336.546-.364.6-.49.6a.228.228,0,0,1-.225-.21c0-.113.631-1.793.743-2.074.224-.588.449-.588,1.149-.588Z" fill="#333"/>
      <path id="パス_679" data-name="パス 679" d="M1006.219,2146.483a3.638,3.638,0,0,0,3.347-1.737c.351-.546.379-.6.491-.6a.224.224,0,0,1,.238.224c0,.07-.5,1.4-.588,1.611-.35.91-.364.952-1.275.952h-6.6c-.238,0-.435,0-.435-.224s.14-.224.533-.224a.928.928,0,0,0,1.064-.728c.042-.239.056-3.46.056-3.867,0-.56,0-3.74-.042-3.992-.14-.714-.742-.714-1.3-.714-.1,0-.309,0-.309-.224s.2-.238.435-.238h6.387c.869,0,.938.028,1.218.714.084.2.6,1.485.6,1.583a.218.218,0,0,1-.224.21c-.085,0-.112-.028-.434-.476a3.411,3.411,0,0,0-2.69-1.569h-1.554a.972.972,0,0,0-.841.365c-.168.252-.168.378-.168,1.484,0,.183,0,2.087.042,2.2a.389.389,0,0,0,.336.183h1.232c1.583,0,1.583-.953,1.583-1.569,0-.042,0-.281.225-.281s.223.239.223.351c-.013.517,0,3.025,0,3.586,0,.07,0,.294-.223.294s-.225-.182-.225-.462c0-1.192-.8-1.471-1.583-1.471h-1.232a.337.337,0,0,0-.364.321c-.014.113-.014,2.424-.014,2.634,0,.981,0,1.667,1.009,1.667Z" fill="#333"/>
      <path id="パス_680" data-name="パス 680" d="M1014.229,2146.931c-.168,0-.365,0-.365-.224s.21-.224.281-.224c.462,0,1.078,0,1.2-.728a37.221,37.221,0,0,0,.042-3.964c0-.658,0-3.656-.042-3.9a.916.916,0,0,0-1.036-.714c-.266,0-.462,0-.462-.224s.21-.238.378-.238h1.442c.883,0,.98,0,1.821,2.423.323.911,1.864,4.9,2.157,5.715.042.1.126.336.239.336.139,0,.223-.252.294-.433.728-1.892,1.848-4.917,2.577-6.808.406-1.065.463-1.233,1.359-1.233h1.653c.14,0,.35,0,.35.238s-.238.224-.28.224c-.561,0-1.065.014-1.177.659-.042.28-.056,3.25-.056,3.922a32.359,32.359,0,0,0,.056,3.992c.1.574.532.728,1.037.728.224,0,.42,0,.42.224s-.21.224-.364.224h-3.39c-.2,0-.406,0-.406-.224s.224-.224.308-.224c.49,0,1.092,0,1.233-.728.042-.239.042-3.7.042-4.258s-.028-3.04-.028-3.544c0-.07,0-.225-.1-.225-.084,0-.111.042-.266.463-.322.826-3.053,8.082-3.235,8.516-.141.322-.211.491-.364.491s-.238-.141-.477-.743c-.476-1.246-2.927-7.7-3.04-7.886,0-.015-.055-.112-.111-.112s-.112.07-.112.238v5.814c0,1.33,0,1.974.994,1.974.182,0,.392,0,.392.224s-.21.224-.364.224Z" fill="#333"/>
      <path id="パス_681" data-name="パス 681" d="M1030.4,2146.413c-.1-.252-.7-1.835-.7-1.919a.3.3,0,0,1,.309-.294c.154,0,.181.07.518.588a4.138,4.138,0,0,0,3.291,1.919,2.019,2.019,0,0,0,2.074-2.114c0-1.276-.84-1.724-2.62-2.34-1.947-.672-3.236-1.415-3.236-3.081a2.64,2.64,0,0,1,2.8-2.718,5.554,5.554,0,0,1,.995.112c.153.028.742.154.84.154a.533.533,0,0,0,.308-.084c.2-.154.224-.182.323-.182.168,0,.21.126.349.49.1.224.757,1.877.757,1.961a.22.22,0,0,1-.238.225c-.112,0-.14-.042-.364-.407a3.248,3.248,0,0,0-2.858-1.807,1.792,1.792,0,0,0-1.905,1.849c0,1.163.841,1.582,2.676,2.227,2.829.98,3.208,2.1,3.208,3.18a2.971,2.971,0,0,1-3.04,3.026,4.529,4.529,0,0,1-1.513-.28,1.849,1.849,0,0,0-.561-.141.725.725,0,0,0-.532.183c-.238.21-.265.238-.406.238C1030.7,2147.2,1030.669,2147.113,1030.4,2146.413Z" fill="#333"/>
    </g>
  </g>
  <g id="グループ_131" data-name="グループ 131" transform="translate(-643.192 -2087.37)">
    <g id="グループ_130" data-name="グループ 130">
      <path id="パス_682" data-name="パス 682" d="M658.664,2092.725c0,.526-.21.911-1.33,1.646a96.746,96.746,0,0,0-8.086,7,26.4,26.4,0,0,0-3.256,3.78c0,.141.14.21.315.21a46.681,46.681,0,0,0,6.231-2.1c3.745-1.436,5.635-2.136,7.07-2.136.77,0,3.256.455,3.256,1.716,0,.875-1.33,1.12-1.82,1.12-.21,0-1.121-.071-1.295-.071-2.8,0-9.487,1.366-9.487,6.372,0,3.29,2.2,3.815,6.266,4.759,1.75.42,2.1,1.471,2.1,1.785,0,.736-1.084,1.121-2.31,1.121-.245,0-7.456-.42-7.456-6.335a8.62,8.62,0,0,1,1.541-4.867,13.112,13.112,0,0,0,.84-1.085c0-.035-.035-.1-.141-.1a11.6,11.6,0,0,0-2.625,1.4c-1.89,1.366-2.38,1.716-3.465,1.716-1.435,0-1.82-1.716-1.82-2.03,0-.665.314-.981,1.33-1.891.314-.245,6.44-7.49,7.735-8.786,1.085-1.085,3.221-3.29,3.221-4.095a.589.589,0,0,0-.6-.6,4.092,4.092,0,0,0-2.24,1.26c-.945.98-1.33,1.4-2.626,1.4-1.889,0-2.45-2.976-2.45-3.081s.035-.28.245-.28c.106,0,1.471.245,1.716.245a4.312,4.312,0,0,0,1.225-.175c3.43-.875,3.815-.98,4.655-.98A3.172,3.172,0,0,1,658.664,2092.725Z" fill="#4d4d4d"/>
      <path id="パス_683" data-name="パス 683" d="M690.618,2093.355c0,.106.069.245.069.385a26.668,26.668,0,0,1,.351,3.78c0,2.346-.526,5.6-3.606,10.257-2.8,4.271-4.586,5.111-5.985,5.111-2.311,0-4.376-3.606-4.376-7.876a12.328,12.328,0,0,1,3.886-8.926,14.48,14.48,0,0,1,11.166-4.551,11.4,11.4,0,0,1,5.635,1.12,10.973,10.973,0,0,1,6.091,10.187,13.057,13.057,0,0,1-8.821,12.321,21.523,21.523,0,0,1-5.811,1.295c-.139,0-.349-.035-.349-.245,0-.106.069-.14.944-.491,3.641-1.434,11.236-4.445,11.236-13.161,0-1.365-.139-9.7-9.7-9.7C690.653,2092.865,690.618,2093.145,690.618,2093.355ZM679.241,2104.1c0,2.276.91,5.391,3.046,5.391,1.014,0,1.855-.42,4.27-4.061a20.011,20.011,0,0,0,3.431-10.185c0-2.1-.141-2.275-.6-2.275C686.067,2092.971,679.241,2097.486,679.241,2104.1Z" fill="#4d4d4d"/>
      <path id="パス_684" data-name="パス 684" d="M718.735,2099.481c-.14.14-3.01,3.01-3.36,3.01a.187.187,0,0,1-.175-.175c0-.139.035-.21.455-.735a61.237,61.237,0,0,0,7.386-12.846c.455-1.225.49-1.365.665-1.365.245,0,2.94,1.82,2.94,2.38,0,.245-.035.28-1.19.84-.525.28-3.43,4.8-3.465,4.866a.378.378,0,0,0-.035.175c0,.384.42.63.7.769.175.106.455.28.455.6,0,.28-.141.42-.6.875-.314.35-.314.98-.314,4.235,0,9.346.069,9.976.175,14.947,0,.1.035.419.035.56a1.854,1.854,0,0,1-1.646,1.995c-.91,0-.91-.84-.91-1.261,0-1.54.21-13.545.21-15.821,0-.559,0-3.675-.385-3.815C719.47,2098.64,719.26,2098.886,718.735,2099.481Zm21.457-2.8a1.835,1.835,0,0,0,1.086-1.014c.245-.386.63-1.016,1.015-1.016.28,0,2.66.981,2.66,1.646a.61.61,0,0,1-.21.42c-.1.1-.525.42-.595.525-.351.385-.351.455-.351,3.885,0,1.855,0,7.456-.419,8.716a3.471,3.471,0,0,1-2.486,2.38.4.4,0,0,1-.349-.174,4.208,4.208,0,0,0-1.821-1.716c-.175-.1-1.295-.455-1.295-.665,0-.175.175-.175.77-.175,2.24,0,2.9,0,3.221-1.295a70.3,70.3,0,0,0,.245-8.856c0-.945,0-2-.491-2a1.076,1.076,0,0,0-.384.07l-3.046,1.19a1.337,1.337,0,0,0-.945.945c-.1.595-.1,6.51-.1,7.491,0,.735.035,4.235.035,5.04a1.588,1.588,0,0,1-1.575,1.61c-.735,0-.735-.8-.735-1.12,0-.7.14-4.165.14-4.971,0-.944-.035-5.634-.035-6.685,0-.279,0-.84-.351-.84a1.759,1.759,0,0,0-.455.1l-2.485.98a1.188,1.188,0,0,0-.7,1.19c-.035.981-.071,7.666-.071,9.276,0,4.3.491,4.656,6.476,4.656,4.2,0,5.846-.28,6.826-1.016.909-.665,1.82-3.08,2.275-4.515.175-.63.21-.77.421-.77s.21.1.21.84c0,.28-.036,1.715-.036,2.03a4.11,4.11,0,0,0,.35,1.646c.525.595.6.665.6.944,0,.665-.91,1.716-2.311,2.276-1.926.77-6.056.77-7.631.77-8.191,0-9.276-.63-9.381-4.48-.035-.981-.035-6.266-.035-7.527,0-3.78,0-3.885-.49-3.885a32.37,32.37,0,0,0-3.675,1.541.463.463,0,0,1-.315-.106l-.91-.524c-.106-.071-.21-.106-.21-.175s0-.106.28-.176c.734-.21,2.625-.84,3.4-1.12,1.855-.63,1.855-.734,1.855-2.17,0-.28-.069-4.8-.14-5.706,0-.175-.1-1.05-.1-1.26,0-.28.1-.385.35-.385.14,0,1.54.42,2.276.6.349.106.944.245.944.736a.685.685,0,0,1-.21.419,4.562,4.562,0,0,0-.595.665c-.21.42-.21.771-.21,3.781,0,1.365,0,1.505.42,1.505a.889.889,0,0,0,.385-.07l2.205-.875c1.156-.455,1.156-.7,1.156-3.815,0-1.085-.105-6.442-.105-7.666,0-.385.105-.42.314-.42s3.046.455,3.046.979a.8.8,0,0,1-.245.455c-.63.561-.7.631-.8.911-.141.49-.141,6.546-.141,7.351,0,.175,0,.7.525.7a3.5,3.5,0,0,0,.42-.1Z" fill="#4d4d4d"/>
      <path id="パス_685" data-name="パス 685" d="M768.814,2100.321a1.094,1.094,0,0,0,.665-.14c.106-.1.561-.735.7-.735.106,0,2.45.98,2.45,1.61a.752.752,0,0,1-.384.56c-.6.455-.665.525-.771,1.226a43.645,43.645,0,0,1-1.155,5.495c-.1.42-.875,2.52-.875,2.87,0,1.12,3.466,3.956,9.941,3.956a25.661,25.661,0,0,0,8.436-1.365c.7-.245.806-.245.806-.141,0,.07-.141.21-.246.315a5.746,5.746,0,0,0-1.995,2.661,6.959,6.959,0,0,1-.42,1.365,14.745,14.745,0,0,1-2,.07c-7.1,0-9.9-.42-13.2-2.836a18.624,18.624,0,0,0-2.31-1.819c-.315,0-1.751,1.854-2.1,2.2-1.82,1.82-3.361,2.45-3.955,2.45-.071,0-.106-.07-.106-.14a5.557,5.557,0,0,1,.91-.7c1.926-1.365,3.956-4.621,3.956-5.531a1.872,1.872,0,0,0-.35-.91,26.143,26.143,0,0,1-2.485-6.686c0-.174,0-.28.105-.28s.35.21.524.7c.736,2,2.416,4.8,2.871,4.8.665,0,1.715-7.14,1.715-7.456,0-.595-.384-.63-.7-.63h-1.4a.836.836,0,0,0-.77.42c-.28.561-.49.945-1.225.945-.385,0-1.191-.245-1.191-.91a21.016,21.016,0,0,1,.841-2.66c.42-1.4,1.96-6.406,1.96-7.421,0-.384-.21-.455-.6-.455s-2.206.175-2.416.175c-.139,0-.489-.8-.665-.8-.42,0-2.729,4.795-2.729,5.111,0,.455.1.525,1.014.98.281.14.946.489.946.944,0,.21-.141.316-.455.561a1.857,1.857,0,0,0-.7,1.785c0,1.925.036,11.411.036,13.546,0,.561.139,3.4.139,4.025a1.418,1.418,0,0,1-.385,1.191,2.672,2.672,0,0,1-1.54.595c-.629,0-.77-.35-.77-.77,0-.245.21-1.435.21-1.715.175-3.01.175-9.206.175-12.427,0-.7-.1-4.34-.1-4.795,0-.315,0-.8-.21-.8a4.365,4.365,0,0,0-.63.84,9.725,9.725,0,0,1-2.871,3.291c-.034,0-.069,0-.069-.035a4.6,4.6,0,0,1,.455-.946c.245-.455,2.03-4.445,2.94-7.1,1.89-5.356,2.1-5.951,2.1-7.071,0-.21.035-.35.245-.35.351,0,3.08,1.5,3.08,2.1,0,.1-.069.175-.175.315-.1.1-.139.14-.139.21a16.06,16.06,0,0,0,2.7.245.83.83,0,0,0,.8-.42c.49-.63.6-.63.665-.63.1,0,1.575.84,1.75.945.245.175.77.49.77.91a.335.335,0,0,1-.174.28c-.84.49-.946.561-1.085.875-.106.315-2.136,7.631-2.136,7.7,0,.42.245.42.455.42Zm16.872-4.445c-.77,0-.91.349-.91.91v1.54c0,.35.175,1.96.175,2.311a1.541,1.541,0,0,1-1.575,1.364c-.8,0-.911-.42-.981-.8-.1-.385-.524-.49-.875-.49h-1.854c-.455,0-.946.07-.946.841,0,2.974.105,3.184,1.05,3.184.875,0,1.261-.035,1.646-.594.455-.666.629-.911,1.014-.911a7.838,7.838,0,0,1,2.626,1.96c0,.491-.7.491-1.89.491H779.8c-.77,0-.945.245-.945,1.015,0,2.24,0,2.485,1.016,2.485h1.294c1.3,0,1.96,0,2.206-.56.419-.945.525-1.226.98-1.226a8.694,8.694,0,0,1,3.01,2.241c0,.49-.7.49-1.855.49h-5.635c-.42,0-.946,0-.946.875,0,.245.1,1.261.1,1.471,0,1.575-1.715,1.575-1.855,1.575-.84,0-.98-.49-.98-1.191,0-.315.14-1.714.14-2,0-.7-.49-.735-.805-.735a29.505,29.505,0,0,0-3.08.1c-.071,0-.42.07-.491.07-.139,0-.21-.105-.315-.244l-.665-.806c-.069-.07-.175-.175-.175-.21,0-.07.07-.105.141-.105.7,0,3.815.245,4.48.245.91,0,.91-.315.91-1.61,0-1.506,0-1.89-.77-1.89-.316,0-1.856.174-2.1.174-.1,0-.175-.1-.314-.245l-.665-.8c-.141-.14-.141-.175-.141-.21a.093.093,0,0,1,.106-.106c.49,0,2.52.176,2.94.176.84,0,.98-.386.98-1.016v-2.1a.7.7,0,0,0-.77-.806c-.315,0-1.785.14-1.995.14-.106,0-.141-.105-.28-.244l-.7-.771c-.139-.175-.139-.21-.139-.245,0-.07.035-.07.1-.07.351,0,2.556.175,3.011.175.8,0,.8-.175.8-2.765,0-.665-.07-1.085-.98-1.085-.14,0-2.485.035-3.64.1-.106,0-.63.071-.736.071-.139,0-.175-.071-.315-.21l-.665-.805c-.14-.176-.14-.176-.14-.245,0-.035.035-.07.106-.07.245,0,1.33.1,1.575.1,1.189.069,2.764.14,3.92.14.875,0,.875-.106.875-2.486,0-.525-.035-.945-.8-.945-.42,0-2.626.175-2.9.175-.106,0-.175-.1-.316-.245l-.665-.805c-.07-.1-.139-.175-.139-.21a.092.092,0,0,1,.1-.1c.665,0,3.535.244,4.1.244.21,0,.63,0,.63-.63a4.244,4.244,0,0,0-.245-1.33c-.036-.175-.35-.875-.35-1.015,0-.176.175-.21.245-.21.035,0,2.1.42,2.345.455.806.175,1.295.279,1.295.7,0,.281-.07.316-.7.876a.954.954,0,0,0-.316.735c0,.42.316.42.526.42h2.309a1.033,1.033,0,0,0,1.016-.455c.175-.175.525-.525.735-.525.1,0,1.645.8,1.819.875.351.175.771.42.771.77,0,.245-.91.98-.945,1.19a1.656,1.656,0,0,0-.07.665c0,.28,0,1.436.21,1.436a2.613,2.613,0,0,0,.489-.42.77.77,0,0,1,.631-.28c.49,0,1.995,1.049,1.995,1.5,0,.526-.629.526-1.89.526Zm-4.1-.91c.946,0,.946-.316.946-2.031,0-.91,0-1.4-.946-1.4h-2.065c-.98,0-.98.351-.98,1.96,0,.98,0,1.471.98,1.471Zm.106,4.83c.63,0,.875-.14.875-.945,0-2.661,0-2.975-.91-2.975h-2.136c-.91,0-.91.314-.91,1.54,0,2.135,0,2.38.945,2.38Z" fill="#4d4d4d"/>
      <path id="パス_686" data-name="パス 686" d="M798.339,2102.946c2,0,5.531-1.96,5.531-2.45a3.029,3.029,0,0,0-.561-1.12c-2.345-3.186-2.625-3.535-2.625-4.271,0-1.12,1.856-2.344,5.146-2.344a22.577,22.577,0,0,1,3.256.245,9.137,9.137,0,0,0,1.294.1.86.86,0,0,0,.98-.945c0-.175-.244-1.05-.244-1.225a.238.238,0,0,1,.244-.245,4.1,4.1,0,0,1,2.52,3.36c0,.175-.174.84-.174,1.015,0,.106.035.316.245.316.175,0,.875-.281,1.05-.316a14.14,14.14,0,0,1,3.4-.524c3.535,0,6.721,2.974,6.721,6.3,0,2.1-1.47,5.425-6.056,5.425a8.824,8.824,0,0,1-6.511-3.29c0-.1.106-.139.21-.139.071,0,1.261.42,1.471.49a9.326,9.326,0,0,0,3.43.769c1.82,0,4.76-.945,4.76-3.885a4.209,4.209,0,0,0-4.445-4.236c-2.905,0-4.725,1.156-10.256,4.691-1.051.665-1.051.7-1.051.945a1.638,1.638,0,0,0,.386.84c2.1,3.4,5.776,10.292,5.776,13.372,0,1.365-.84,2.1-1.576,2.1-1.049,0-1.5-1.015-1.5-2.065a12.369,12.369,0,0,0-.386-4.2,32.922,32.922,0,0,0-3.675-8.716c-.141-.21-.28-.42-.49-.42a7.313,7.313,0,0,0-1.47.91c-.386.245-3.256,2.1-4.341,2.1-.665,0-2.485-1.891-2.485-2.311a.345.345,0,0,1,.315-.349C797.359,2102.877,797.884,2102.946,798.339,2102.946Zm4.691-7.455c0,.7.139.944,1.575,3.185.63.945.665,1.05.944,1.05a2.1,2.1,0,0,0,.841-.42,52.032,52.032,0,0,1,4.62-2.626c.35-.174.491-.314.491-.49,0-.139-.106-.21-1.085-.63-3.326-1.434-3.991-1.714-4.867-1.889A1.929,1.929,0,0,0,803.03,2095.491Z" fill="#4d4d4d"/>
      <path id="パス_687" data-name="パス 687" d="M837.893,2099.061a.308.308,0,0,1,.315-.28c.1,0,1.925.49,2.31.49a58.459,58.459,0,0,0,5.881-1.05c.6-.42.63-3.956.63-4.13a4.433,4.433,0,0,0-.875-2.976c-.526-.63-.595-.7-.595-.8,0-.245.42-.28.56-.28,2.345,0,3.71,1.33,3.71,2.24,0,.071-1.33,4.516-1.33,5.181,0,.21.14.314.385.314.175,0,1.785-.174,2.065-.174,2.626,0,4.656,1.26,4.656,4.48,0,2.766-.98,8.786-3.011,11.236a5.423,5.423,0,0,1-3.57,2.135c-1.33,0-1.68-1.295-2.065-2.415-.07-.175-.456-1.085-.456-1.155a.166.166,0,0,1,.176-.175,6.4,6.4,0,0,1,.875.245,11.079,11.079,0,0,0,1.785.245c1.015,0,2.31-.49,3.326-4.27a27.9,27.9,0,0,0,1.085-6.091c0-2.45-1.4-2.625-2.415-2.625a7.61,7.61,0,0,0-3.361.84c-.14.175-.175.315-.525,1.506-1.4,4.759-4.8,13.371-7.631,13.371a1.029,1.029,0,0,1-1.12-1.12c0-.736.245-1.016,2.346-3.326.944-1.05,2.415-2.66,4.3-7.911a9.306,9.306,0,0,0,.49-1.645c0-.1-.035-.279-.245-.279-.769,0-4.025,1.4-4.725,1.4C839.5,2102.036,837.893,2099.831,837.893,2099.061Zm24.433,7.281c-.351,0-1.961-.946-2.381-1.05-.175-.071-1.12-.141-1.12-.245,0-.21,1.155-.806,1.365-.981,1.295-.979,1.436-1.085,1.436-2.03a4.5,4.5,0,0,0-2.836-4.025c-.28-.14-.84-.385-.84-.525,0-.21.14-.21.245-.21,4.48,0,6.126,4.41,6.126,6.2C864.321,2103.891,863.795,2106.342,862.326,2106.342Z" fill="#4d4d4d"/>
      <path id="パス_688" data-name="パス 688" d="M881.668,2099.621c-3.606,0-5.146-2.7-5.146-3.36,0-.175.035-.316.28-.316a9.222,9.222,0,0,1,1.436.666,8.775,8.775,0,0,0,3.605.944c1.33,0,3.71-.629,3.71-1.189,0-.315-1.155-1.12-1.61-1.436-.945-.665-2.24-1.855-2.24-2.87a1.689,1.689,0,0,1,1.75-1.68c.735,0,1.085.21,2.7,1.155a5.834,5.834,0,0,0,3.291.806c.42,0,2.2-.036,2.59,0a1.213,1.213,0,0,1,1.19,1.259c0,.911-1.645,2.17-2.135,2.451-.945.594-1.05.665-1.05.91a1,1,0,0,0,.42.665c1.82,1.61,6.406,5.671,6.406,9.241a2.183,2.183,0,0,1-2.311,2.345c-.63,0-.875-.14-2.975-1.295a12.845,12.845,0,0,0-5.95-1.821,4.72,4.72,0,0,0-4.9,4.061c0,2.24,2.2,3.115,5.18,3.115.6,0,3.57-.314,3.641-.314a1.478,1.478,0,0,1,1.714,1.364c0,1.856-3.359,1.856-3.99,1.856a11.777,11.777,0,0,1-5.636-1.085,5.135,5.135,0,0,1-3.009-4.341c0-3.465,3.57-5.566,7.456-5.566a12.53,12.53,0,0,1,3.78.63,10.826,10.826,0,0,0,2.87.7,1.122,1.122,0,0,0,1.225-1.12c0-2.275-4.656-7.49-5.67-7.49-.21,0-3.711,1.295-4.446,1.47A10.122,10.122,0,0,1,881.668,2099.621Zm6.161-4.13c.21,0,1.3-.351,1.3-1.12,0-.455-.106-.561-1.225-1.226-2.311-1.4-2.591-1.54-2.976-1.54a.649.649,0,0,0-.665.63c0,.84,1.26,1.856,1.54,2.066A5.928,5.928,0,0,0,887.829,2095.491Z" fill="#4d4d4d"/>
      <path id="パス_689" data-name="パス 689" d="M916.259,2105.782c1.05-.98,1.505-1.436,1.505-1.891a8.953,8.953,0,0,0-.315-1.085,11.254,11.254,0,0,1-.595-4.095c0-.8.175-4.865.175-5.776a3.271,3.271,0,0,0-1.05-2.835c-.735-.77-.84-.876-.84-.98,0-.14.84-.175.945-.175,2,0,3.781,1.61,3.781,2.625,0,.316-.421,1.891-.49,2.24a32.768,32.768,0,0,0-.316,4.62c0,1.331,0,4.166.91,4.166.491,0,.7-.14,2.591-1.33.385-.245,2.59-1.645,3.6-1.645a1.344,1.344,0,0,1,1.33,1.295c0,1.051-1.435,1.61-2.7,2.1-8.331,3.361-9.521,5.916-9.521,8.191,0,2.381,2.03,3.256,4.865,3.256a15.7,15.7,0,0,0,4.2-.63,9.544,9.544,0,0,1,2.625-.526c1.191,0,2.311.805,2.311,1.681,0,1.785-7.142,1.96-9,1.96-1.611,0-6.686,0-6.686-5.5A7.928,7.928,0,0,1,916.259,2105.782Z" fill="#4d4d4d"/>
      <path id="パス_690" data-name="パス 690" d="M965.673,2093.6c1.576,0,1.75,0,2.241-.594.979-1.156,1.085-1.3,1.4-1.3.211,0,3.291,1.855,3.291,2.31,0,.526-.7.526-1.891.526H959.9c-.909,0-.909.665-.909,1.785,0,1.47,0,2.1.909,2.1h1.646c1.4,0,1.68-.034,1.995-.279.28-.21,1.33-1.61,1.645-1.61s3.045,1.715,3.045,2.205c0,.63-.769.63-1.96.63H959.9c-.944,0-.944.8-.944,1.435,0,1.33,0,2.031.944,2.031h6.441c1.576,0,1.75,0,2.241-.6.979-1.154,1.085-1.3,1.4-1.3.244,0,3.29,1.891,3.29,2.346,0,.49-.7.49-1.891.49H948.066c-3.045,0-4.061.069-4.41.1-.14,0-.63.071-.736.071-.139,0-.209-.106-.314-.21l-.7-.841c-.106-.175-.141-.175-.141-.21,0-.069.035-.1.141-.1.245,0,1.295.1,1.54.14,1.715.07,3.15.106,4.8.106H955.7c.91,0,.91-.6.91-2.1,0-.63,0-1.365-.91-1.365h-3.64c-3.046,0-4.06.07-4.411.07a5.3,5.3,0,0,1-.735.1c-.14,0-.21-.1-.315-.245l-.665-.8c-.14-.175-.14-.175-.14-.245,0-.035.035-.071.1-.071.245,0,1.33.106,1.54.106,1.715.1,3.15.139,4.8.139h3.43c.91,0,.91-.524.91-1.995,0-1.12,0-1.889-.944-1.889h-6.372c-3.08,0-4.095.069-4.445.069a5.324,5.324,0,0,1-.735.106c-.1,0-.21-.106-.315-.246l-.665-.8c-.14-.176-.14-.176-.14-.245s.035-.071.1-.071c.245,0,1.33.106,1.54.106,1.715.069,3.186.139,4.83.139h9.661c1.26,0,2.766-2.975,2.766-5.075,0-.8,0-1.086.35-1.086.174,0,2.1.771,2.45.91.735.281,1.261.491,1.261,1.051,0,.42-.42.455-.736.49-.665.105-.84.245-2.485,1.68-.28.21-1.436,1.155-1.646,1.365-.174.175-.314.281-.314.42,0,.245.28.245.665.245Zm-16.732,16.382c-3.08,0-4.06.071-4.445.1-.1,0-.63.07-.735.07s-.175-.1-.315-.245l-.665-.805c-.14-.175-.14-.175-.14-.245,0-.035.034-.07.1-.07.245,0,1.33.1,1.54.1,1.716.1,3.185.14,4.831.14h6.23c.91,0,.91-.6.91-1.61a6.9,6.9,0,0,0-.174-2,4.441,4.441,0,0,1-.211-.875c0-.245.315-.245.49-.245.455,0,3.185.245,3.185,1.05a13.014,13.014,0,0,1-.455,1.261c-.035.245-.174,1.715-.174,1.82,0,.315.035.6.769.6h5.391c1.751,0,1.785,0,2.52-.805.28-.315.771-.875,1.155-.875a10.063,10.063,0,0,1,3.221,2.205c0,.42-.841.42-1.855.42h-9.942c-.42,0-.63,0-.63.245,0,.491,5.426,5.7,13.722,5.7.175,0,.945-.035,1.085-.035.07,0,.21,0,.21.071s-1.226.629-1.436.77a12.825,12.825,0,0,0-2.45,2.03c-.1.21-.279.455-.455.455a21.561,21.561,0,0,1-8.961-5.6,19.4,19.4,0,0,1-2.205-2.661c-.1-.14-.245-.385-.42-.385s-.175.1-.42.735c-2.275,6.231-9.8,6.9-12.356,6.9a11.6,11.6,0,0,1-4.061-.526c0-.034,1.576-.21,1.716-.21,9.381-.979,12.181-5.565,12.181-6.964,0-.526-.28-.526-.77-.526Zm5.391-16.627c-.525,0-.7-.245-1.96-2.344a12.238,12.238,0,0,0-2.345-2.731c-.035-.07-.21-.21-.21-.351,0-.035.1-.069.14-.069a15.812,15.812,0,0,1,2.66.875c1.82.8,2.975,1.365,2.975,3.045C955.592,2092.48,955.277,2093.355,954.332,2093.355Z" fill="#4d4d4d"/>
      <path id="パス_691" data-name="パス 691" d="M992.17,2093.216a16.052,16.052,0,0,1-.665,1.96,84.264,84.264,0,0,0-1.469,12.461c0,3.536.665,6.685,5.355,6.685a17.254,17.254,0,0,0,7.351-1.819c.525-.245,3.185-1.716,3.325-1.716a.164.164,0,0,1,.176.175c0,.385-5.181,6.021-11.762,6.021-4.551,0-6.721-2.626-6.721-9.661,0-2.171.071-2.87.8-9.731.141-1.156.455-4.026.455-5.005a4.408,4.408,0,0,0-.314-1.716c-.036-.105-.385-.91-.385-.945,0-.246.279-.35.489-.35C990.63,2089.575,992.17,2092.41,992.17,2093.216Z" fill="#4d4d4d"/>
      <path id="パス_692" data-name="パス 692" d="M1025.35,2099.621c-3.6,0-5.145-2.7-5.145-3.36,0-.175.035-.316.28-.316a9.232,9.232,0,0,1,1.435.666,8.783,8.783,0,0,0,3.606.944c1.33,0,3.71-.629,3.71-1.189,0-.315-1.155-1.12-1.61-1.436-.946-.665-2.241-1.855-2.241-2.87a1.69,1.69,0,0,1,1.75-1.68c.736,0,1.086.21,2.7,1.155a5.833,5.833,0,0,0,3.291.806c.42,0,2.205-.036,2.589,0a1.213,1.213,0,0,1,1.191,1.259c0,.911-1.646,2.17-2.136,2.451-.945.594-1.05.665-1.05.91a1,1,0,0,0,.42.665c1.821,1.61,6.406,5.671,6.406,9.241a2.182,2.182,0,0,1-2.31,2.345c-.63,0-.875-.14-2.976-1.295a12.841,12.841,0,0,0-5.95-1.821,4.719,4.719,0,0,0-4.9,4.061c0,2.24,2.2,3.115,5.18,3.115.595,0,3.57-.314,3.64-.314a1.48,1.48,0,0,1,1.716,1.364c0,1.856-3.361,1.856-3.991,1.856a11.772,11.772,0,0,1-5.636-1.085,5.136,5.136,0,0,1-3.01-4.341c0-3.465,3.571-5.566,7.456-5.566a12.535,12.535,0,0,1,3.781.63,10.81,10.81,0,0,0,2.87.7,1.121,1.121,0,0,0,1.224-1.12c0-2.275-4.655-7.49-5.67-7.49-.21,0-3.711,1.295-4.445,1.47A10.129,10.129,0,0,1,1025.35,2099.621Zm6.161-4.13c.21,0,1.3-.351,1.3-1.12,0-.455-.1-.561-1.225-1.226-2.31-1.4-2.59-1.54-2.975-1.54a.649.649,0,0,0-.665.63c0,.84,1.26,1.856,1.54,2.066A5.915,5.915,0,0,0,1031.511,2095.491Z" fill="#4d4d4d"/>
      <path id="パス_693" data-name="パス 693" d="M1068.282,2093.355c0,.106.069.245.069.385a26.667,26.667,0,0,1,.351,3.78c0,2.346-.526,5.6-3.606,10.257-2.8,4.271-4.586,5.111-5.985,5.111-2.311,0-4.376-3.606-4.376-7.876a12.328,12.328,0,0,1,3.886-8.926,14.48,14.48,0,0,1,11.166-4.551,11.4,11.4,0,0,1,5.635,1.12,10.973,10.973,0,0,1,6.091,10.187,13.057,13.057,0,0,1-8.821,12.321,21.523,21.523,0,0,1-5.811,1.295c-.139,0-.349-.035-.349-.245,0-.106.069-.14.944-.491,3.641-1.434,11.236-4.445,11.236-13.161,0-1.365-.139-9.7-9.7-9.7C1068.317,2092.865,1068.282,2093.145,1068.282,2093.355Zm-11.377,10.746c0,2.276.91,5.391,3.046,5.391,1.014,0,1.855-.42,4.27-4.061a20.01,20.01,0,0,0,3.431-10.185c0-2.1-.141-2.275-.6-2.275C1063.731,2092.971,1056.905,2097.486,1056.905,2104.1Z" fill="#4d4d4d"/>
      <path id="パス_694" data-name="パス 694" d="M1095.161,2111.452a47.132,47.132,0,0,0,4.62-12.881c0-.35-.14-.35-1.26-.35a6.736,6.736,0,0,1-3.115-.63,3.369,3.369,0,0,1-1.82-1.89.147.147,0,0,1,.139-.141,7.691,7.691,0,0,1,.806.316,12.852,12.852,0,0,0,3.115.385,7.664,7.664,0,0,0,2.485-.316,10.118,10.118,0,0,0,.385-2.87,4.827,4.827,0,0,0-.42-2.17c-.14-.175-.98-1.05-.98-1.295,0-.35.665-.806,1.575-.806a3.16,3.16,0,0,1,2.8,1.856c0,.175-.386.875-.386,1.05,0,.665,2.8,1.261,3.15,1.261.141,0,.911-.071,1.085-.071a1,1,0,0,1,1.156,1.085c0,1.96-2.976,2.976-5.286,3.606-1.19.315-1.33.35-1.47.98-1.785,7.631-1.821,7.666-2.555,9.941-2.415,7.281-3.676,7.281-4.341,7.281-.84,0-.945-1.155-.945-1.54C1093.9,2113.833,1094.076,2113.482,1095.161,2111.452Zm7.385-16c.175,0,2.835-.945,2.835-1.4,0-.35-1.889-1.12-2.275-1.12-.21,0-.314.071-.385.42-.139.7-.139.8-.315,1.646C1102.372,2095.246,1102.336,2095.456,1102.546,2095.456Zm2.661,14.841c.735,3.046,4.515,3.711,7.175,3.711.6,0,3.255-.245,3.816-.245,1.189,0,2.8.594,2.8,1.75,0,1.015-1.3,1.19-4.271,1.19-5.67,0-10.4-1.436-10.4-5.846,0-.8.21-1.54.49-1.54C1104.961,2109.317,1105.171,2110.192,1105.207,2110.3Zm7.735-12.181c3.326,0,5.846.98,5.846,2.521,0,.839-.735.839-1.015.839-.315,0-1.681-.1-1.96-.1a5.883,5.883,0,0,0-2.591.56,6.138,6.138,0,0,1-1.469.456c-.071,0-.176,0-.176-.106,0-.245,1.82-1.575,1.82-1.96,0-.525-2.485-.56-3.01-.56a20.645,20.645,0,0,0-2.52.14c-.21.035-1.015.14-1.156.14-.035,0-.28,0-.314-.07C1106.152,2099.516,1109.2,2098.116,1112.942,2098.116Z" fill="#4d4d4d"/>
      <path id="パス_695" data-name="パス 695" d="M1142.492,2116.458c-.595,0-.665,0-.665-.175,0-.1.1-.176,1.015-.455,4.62-1.506,11.026-4.551,11.026-10.887,0-5.46-5.215-7.14-6.79-7.14-.526,0-.6.21-1.506,2.345a29.671,29.671,0,0,1-2.66,5,.916.916,0,0,0-.175.49.686.686,0,0,0,.525.665c1.19.63,1.575.911,1.575,1.75,0,.911-.735,1.121-1.3,1.121a3.469,3.469,0,0,1-1.96-.595c-.491-.245-.525-.28-.735-.28-.35,0-.421.07-1.051.735-2.835,2.976-5.145,3.851-6.125,3.851-2.275,0-2.661-3.571-2.661-4.971a11.564,11.564,0,0,1,3.676-7.911,1.121,1.121,0,0,0,.385-.91c0-.315-1.4-4.515-1.575-5-.1-.281-.735-1.54-.735-1.646,0-.035,0-.1.07-.1a3.706,3.706,0,0,1,2.836,1.889,14.9,14.9,0,0,0,.91,3.466.719.719,0,0,0,.63.385,10.18,10.18,0,0,0,1.679-.735,16.973,16.973,0,0,1,5.461-1.26.9.9,0,0,0,.875-.455,7.94,7.94,0,0,0,.49-2.591,6.9,6.9,0,0,0-.735-2.905.59.59,0,0,1-.07-.175c0-.1.28-.1.35-.1,1.576,0,3.465,1.295,3.465,2.135a32.925,32.925,0,0,0-1.224,3.606c0,.56.384.629.665.665,4.9.839,8.366,4.34,8.366,8.96C1156.529,2112.713,1148.722,2116.458,1142.492,2116.458Zm-3.92-10.256a14.269,14.269,0,0,1-2.381-4.025c-.175-.491-.314-.841-.63-.841-.455,0-2.835,2.416-2.835,5.951,0,1.89.7,3.15,1.505,3.15,1.3,0,4.586-2.87,4.586-3.6A.793.793,0,0,0,1138.572,2106.2Zm5.32-8.576a11.443,11.443,0,0,0-5.32,1.295c-.6.35-.945.6-.945,1.085,0,.595,1.995,4.446,2.94,4.446.35,0,.49-.07,1.225-1.261a22.182,22.182,0,0,0,2.59-5.145C1144.382,2097.626,1144.032,2097.626,1143.892,2097.626Z" fill="#4d4d4d"/>
      <path id="パス_696" data-name="パス 696" d="M1182.907,2093.355c0,.106.069.245.069.385a26.667,26.667,0,0,1,.351,3.78c0,2.346-.526,5.6-3.606,10.257-2.8,4.271-4.586,5.111-5.985,5.111-2.311,0-4.376-3.606-4.376-7.876a12.328,12.328,0,0,1,3.886-8.926,14.48,14.48,0,0,1,11.166-4.551,11.4,11.4,0,0,1,5.635,1.12,10.973,10.973,0,0,1,6.091,10.187,13.057,13.057,0,0,1-8.821,12.321,21.523,21.523,0,0,1-5.811,1.295c-.139,0-.349-.035-.349-.245,0-.106.069-.14.944-.491,3.641-1.434,11.236-4.445,11.236-13.161,0-1.365-.139-9.7-9.7-9.7C1182.942,2092.865,1182.907,2093.145,1182.907,2093.355ZM1171.53,2104.1c0,2.276.91,5.391,3.046,5.391,1.014,0,1.855-.42,4.27-4.061a20.01,20.01,0,0,0,3.431-10.185c0-2.1-.141-2.275-.6-2.275C1178.356,2092.971,1171.53,2097.486,1171.53,2104.1Z" fill="#4d4d4d"/>
      <path id="パス_697" data-name="パス 697" d="M1221.491,2097.626c0,1.155-2.66,2.205-3.5,2.555-.49.175-.526.315-.595,1.54-.07.77-.07,3.606-.07,3.781,0,.21,0,.63.314.63.106,0,2.976-1.191,3.536-1.4,3.465-1.295,5.04-1.4,5.951-1.4a5.359,5.359,0,0,1,5.39,5.285c0,4.62-4.865,6.721-7.735,6.721-2,0-3.606-1.016-3.606-2.835a3.119,3.119,0,0,1,1.75-2.766.187.187,0,0,1,.175.175c0,.1-.07.175-.14.28a1.449,1.449,0,0,0-.315.946c0,1.679,1.926,1.679,2.275,1.679,2.311,0,5.251-1.54,5.251-4.34a3.626,3.626,0,0,0-3.36-3.85c-.98,0-3.15.455-7.246,2.625-1.96,1.05-2.17,1.155-2.17,1.75,0,.385.1,1.96.1,2.31,0,1.611-.526,3.92-1.786,3.92-.945,0-1.33-.734-1.61-1.295-1.12-2.17-1.295-2.17-1.75-2.17a2.916,2.916,0,0,0-.875.21,6.918,6.918,0,0,1-1.33.7c-.385,0-2.17-1.051-2.17-2.206,0-.63.385-1.365,1.015-1.365.21,0,1.225.175,1.435.175.945,0,1.575-.175,3.64-1.19,1.785-.875,1.995-.98,1.995-1.96,0-.805-.034-3.781-.069-4.375,0-.245-.106-.771-.491-.771a8.119,8.119,0,0,0-1.61.316,7.536,7.536,0,0,1-2.485.665c-1.19,0-2.52-2.416-2.52-2.661a.248.248,0,0,1,.279-.245c.106,0,.526.14.63.14a10.2,10.2,0,0,0,1.611.175,15.288,15.288,0,0,0,4.445-1.05,26.038,26.038,0,0,0,.351-3.815,3.437,3.437,0,0,0-1.156-2.8,3.461,3.461,0,0,1-.49-.56c0-.315.561-.385.771-.385,2.344,0,3.6,1.715,3.6,2.38a14.084,14.084,0,0,1-.735,1.821,18.685,18.685,0,0,0-.35,2.275c0,.14.069.385.279.385.246,0,1.226-.385,1.226-.875,0-.071-.175-.42-.175-.49,0-.036.07-.1.14-.14C1219.811,2096.051,1221.491,2096.541,1221.491,2097.626Zm-7.981,13.406c0,.525.946,1.646,1.47,1.646.49,0,.981-.981.981-2.7,0-.14,0-.49-.106-.56C1215.751,2109.422,1213.51,2110.542,1213.51,2111.032Zm23-10.886c0,.735-.42,1.68-1.155,1.68-.21,0-1.015-.069-1.189-.069-.176.034-.91.244-1.051.244a.163.163,0,0,1-.175-.175,2.377,2.377,0,0,1,.106-.279,1.876,1.876,0,0,0,.139-.631c0-1.4-1.75-1.89-2.94-1.89a3.04,3.04,0,0,0-1.365.35.785.785,0,0,1-.35.1c-.106,0-.14-.035-.14-.14a4.477,4.477,0,0,1,3.781-2.205C1234.863,2097.136,1236.507,2098.536,1236.507,2100.146Z" fill="#4d4d4d"/>
      <path id="パス_698" data-name="パス 698" d="M1268.945,2100.811a30.848,30.848,0,0,0,8.471,2.765c.139,0,.735.1.735.245,0,.106-.49.245-.631.28a6.062,6.062,0,0,0-2.66,1.891c-.1.14-.49.875-.665.875-.21,0-7.806-3.676-11.236-9.276-.665-1.12-.77-1.225-1.015-1.225s-.316.069-1.085.875a41.609,41.609,0,0,1-10.361,8.155,30.256,30.256,0,0,1-5.5,2.241c-.1,0-.175-.07-.175-.1s3.746-2.346,4.06-2.556c4.726-2.975,9.732-8.331,10.221-10.956.035-.28.07-.384.315-.384.175,0,3.011,1.085,3.186,1.19.1.034.455.175.455.524a2.138,2.138,0,0,1-.141.491C1262.994,2096.366,1266,2099.306,1268.945,2100.811Zm-16.872-8.715c-2.591,0-3.78.069-4.445.1-.106,0-.63.07-.736.07s-.175-.07-.315-.21l-.665-.805c-.14-.175-.14-.175-.14-.244s.035-.071.106-.071c.244,0,1.33.1,1.54.1,1.714.07,3.184.14,4.83.14h1.015c.735,0,.945-.35.945-.945a5.689,5.689,0,0,0-.28-1.855,5.29,5.29,0,0,1-.21-.7c0-.174.175-.245.385-.245.245,0,1.82.386,2.2.49,1.05.281,1.26.351,1.26.666,0,.209-.034.28-.524.91a.857.857,0,0,0-.246.63c0,.84.281,1.05,1.225,1.05h5.776c.315,0,1.05,0,1.05-.945a14.517,14.517,0,0,0-.1-1.575c-.034-.175-.21-.91-.21-1.05,0-.176.21-.245.385-.245.245,0,2.625.559,3.01.665s.6.245.6.56c0,.209-.14.35-.524.629a1.126,1.126,0,0,0-.456.981c0,.98.56.98,1.121.98h1.785c1.54,0,1.715,0,2.24-.595.98-1.155,1.085-1.3,1.4-1.3.21,0,3.255,1.855,3.255,2.31,0,.491-.7.491-1.855.491h-6.825c-1.085,0-1.085.559-1.085,1.4,0,.21.035,1.4.035,1.575,0,1.3-1.051,1.506-1.786,1.506-.8,0-.945-.141-.945-1.33v-2.416c-.1-.665-.525-.734-1.085-.734h-5.6c-.806,0-1.3,0-1.3.979,0,.351.105,1.891.105,2.205,0,.665-.105.981-.42,1.191a2.485,2.485,0,0,1-1.33.49c-.6,0-.875-.385-.875-1.085,0-.28.035-1.611.035-1.856,0-1.365,0-1.924-1.085-1.924Zm2.485,17.886a17.865,17.865,0,0,1,2.7,1.645.87.87,0,0,1,.281.525c0,.42-.281.49-1.12.7-.106.036-3.117,2.38-3.676,2.8a21.543,21.543,0,0,1-5.32,3.045.112.112,0,0,1-.106-.1c0-.07,1.856-1.68,2.1-1.925,2.905-2.766,4.69-5.53,5.005-6.651A.21.21,0,0,1,1254.558,2109.982Zm1.611-1.855c-2.731,0-3.747.035-4.447.1-.1,0-.63.07-.734.07s-.175-.07-.316-.21l-.665-.8c-.139-.175-.139-.175-.139-.245,0-.035.035-.071.1-.071.245,0,1.33.106,1.54.106,1.716.1,3.186.14,4.831.14h2.625c.351,0,1.05,0,1.05-.946,0-.42-.21-3.255-.279-3.6,0-.07-.21-.42-.21-.489s.069-.21.349-.21c.246,0,2.7.524,3.045.629.491.1.665.42.665.595,0,.21-.069.28-.594.736-.491.419-.491.629-.491,1.679,0,1.261,0,1.611,1.051,1.611h1.54c1.54,0,1.715,0,2.241-.595.979-1.155,1.084-1.3,1.4-1.3.21,0,3.255,1.89,3.255,2.31,0,.49-.7.49-1.856.49h-6.615c-1.05,0-1.05.63-1.05,1.75,0,2.485,0,3.886.07,5.951.035.6.035,1.435.035,1.854,0,1.121-.28,1.787-1.785,1.787-.771,0-.84-.631-.84-1.226,0-.455.1-2.556.1-3.011.035-1.33.035-2.625.035-4.235a21.188,21.188,0,0,0-.07-2.38c-.175-.49-.734-.49-1.015-.49Zm9.345,2.94c0-.1.175-.139.315-.139,1.3,0,9.276,2.205,9.276,5.11,0,1.12-.63,1.995-1.505,1.995-.665,0-.806-.175-1.89-1.785a16.632,16.632,0,0,0-6.021-5.041C1265.654,2111.207,1265.514,2111.1,1265.514,2111.067Z" fill="#4d4d4d"/>
    </g>
  </g>
</svg>
