<svg id="lineup_oolong_graph" xmlns="http://www.w3.org/2000/svg" width="285.778" height="252.306" viewBox="0 0 285.778 252.306">
  <path id="パス_1232" data-name="パス 1232" d="M1175.875,1347.083l-45.118-22.1-38.377,38.376,22.1,45.118-1.751,91.05h90.325l-22.957-99.834,43.307-36.334Z" transform="translate(-1015.211 -1264.309)" fill="#dbdfb8"/>
  <path id="パス_1233" data-name="パス 1233" d="M1193.608,1304.273h-71.429l-50.508,50.508v71.429l50.508,50.508h71.429l50.508-50.508V1354.78Z" transform="translate(-1015.211 -1264.309)" fill="none" stroke="#999" stroke-miterlimit="10" stroke-width="0.5"/>
  <path id="パス_1234" data-name="パス 1234" d="M1185.03,1324.982h-54.273l-38.377,38.376v54.273l38.377,38.377h54.273l38.376-38.377v-54.273Z" transform="translate(-1015.211 -1264.309)" fill="none" stroke="#999" stroke-miterlimit="10" stroke-width="0.5"/>
  <path id="パス_1235" data-name="パス 1235" d="M1175.875,1347.083h-35.963l-25.43,25.43v35.964l25.43,25.43h35.963l25.43-25.43v-35.964Z" transform="translate(-1015.211 -1264.309)" fill="none" stroke="#999" stroke-miterlimit="10" stroke-width="0.5"/>
  <path id="パス_1236" data-name="パス 1236" d="M1167.092,1368.289h-18.4l-13.008,13.008v18.4L1148.7,1412.7h18.4l13.008-13.008v-18.4Z" transform="translate(-1015.211 -1264.309)" fill="none" stroke="#999" stroke-miterlimit="10" stroke-width="0.5"/>
  <g id="グループ_257" data-name="グループ 257" transform="translate(-1015.211 -1264.309)">
    <path id="パス_1237" data-name="パス 1237" d="M1097.585,1268c0,.33.09.405.5.495a25.639,25.639,0,0,0,3.674.12c3.8,0,4.365-.03,4.65-.3a3.278,3.278,0,0,0,.435-1.815,3.6,3.6,0,0,0,.914.405,3.8,3.8,0,0,1-.7,2.13c-.435.4-.945.45-5.985.45a16.07,16.07,0,0,1-3.795-.225c-.479-.15-.63-.39-.63-1.02v-2.52a6.514,6.514,0,0,0-.09-1.29h1.125a5.018,5.018,0,0,0-.09,1.23v.7c1.53-.165,2.655-.33,3.855-.57a19.1,19.1,0,0,0,4.6-1.3l.736.9c-2.775.78-2.775.78-4.08,1.05-1.875.36-3.135.555-5.115.765Zm6.96,2.82a13.978,13.978,0,0,0,1.815-.075,13.816,13.816,0,0,0-.075,1.83v3.225a13.149,13.149,0,0,0,.09,1.86h-1.035v-.705h-7.185v.705h-1.02a12.983,12.983,0,0,0,.09-1.86v-3.225c0-.84-.03-1.335-.075-1.83a13.165,13.165,0,0,0,1.8.075Zm-6.39,2.565h7.185v-1.725h-7.185Zm0,2.73h7.185v-1.905h-7.185Z" fill="#4d4d4d"/>
    <path id="パス_1238" data-name="パス 1238" d="M1111.276,1275.634a12.174,12.174,0,0,0,.09-1.621v-7.019c0-.615-.03-1.11-.06-1.455a9.157,9.157,0,0,0,1.23.06h1.335a9.654,9.654,0,0,0,1.26-.06,12.953,12.953,0,0,0-.045,1.4v6.21a16.352,16.352,0,0,0,.06,1.65h-.96v-.781h-1.905v1.621Zm1.005-2.46h1.905v-6.7h-1.905Zm9.854-6.45a10.425,10.425,0,0,0,1.575-.09v1.035a11.831,11.831,0,0,0-1.589-.09h-1.965v2.535h2.535a12,12,0,0,0,1.71-.09v1.035a11.756,11.756,0,0,0-1.695-.09h-2.3a11.778,11.778,0,0,0,1.65,2.49,12.15,12.15,0,0,0,2.819,2.3,3.929,3.929,0,0,0-.644.929,16.486,16.486,0,0,1-2.415-2.2,10.1,10.1,0,0,1-1.725-2.79c.045.555.06.975.06,1.65v2.94a10.315,10.315,0,0,0,.09,1.589h-1.08a12.318,12.318,0,0,0,.089-1.589v-2.94c0-.57,0-.765.061-1.65a12.239,12.239,0,0,1-4.56,5.19,3.358,3.358,0,0,0-.72-.736,13.088,13.088,0,0,0,4.964-5.174h-2.1a8.667,8.667,0,0,0-1.441.075v-1.005a8.744,8.744,0,0,0,1.456.075h2.339v-2.535h-1.679a11.94,11.94,0,0,0-1.545.075v-1.005a14.782,14.782,0,0,0,1.545.075h1.679v-1.2a6.513,6.513,0,0,0-.074-1.215h1.05a6.705,6.705,0,0,0-.075,1.215v1.2Z" fill="#4d4d4d"/>
  </g>
  <g id="グループ_258" data-name="グループ 258" transform="translate(-1015.211 -1264.309)">
    <path id="パス_1239" data-name="パス 1239" d="M1194.241,1265.4a6.432,6.432,0,0,0-.092-1.08h1.1a6.194,6.194,0,0,0-.09,1.08v.48h3.6v-.48a6.431,6.431,0,0,0-.089-1.08h1.095a6.165,6.165,0,0,0-.09,1.08v.48h2.325a11.892,11.892,0,0,0,1.679-.09v1.035a12.367,12.367,0,0,0-1.679-.075h-2.325v.405a5.152,5.152,0,0,0,.075.975h-1.051a6.667,6.667,0,0,0,.06-.975v-.405h-3.6v.405a6.632,6.632,0,0,0,.06.99h-1.05a6.464,6.464,0,0,0,.076-.99v-.405h-2.176a12.1,12.1,0,0,0-1.664.075v-1.035a11.937,11.937,0,0,0,1.664.09h2.176Zm6.554,7.17a7.047,7.047,0,0,0,1.094-.061,7.26,7.26,0,0,0-.074,1.2v2.8a9.638,9.638,0,0,0,.09,1.366h-1.051v-.855h-7.5v.855h-1.049a10.115,10.115,0,0,0,.09-1.366v-2.8a7.73,7.73,0,0,0-.074-1.2,7.046,7.046,0,0,0,1.094.061h3.015v-2.01h-4.32a15.758,15.758,0,0,0-1.695.075v-1.05a11.861,11.861,0,0,0,1.695.09h4.32v-.855a5.25,5.25,0,0,0-.09-1.215h1.11a6.619,6.619,0,0,0-.09,1.215v.855h4.6a11.839,11.839,0,0,0,1.694-.09v1.05a16.174,16.174,0,0,0-1.694-.075h-4.6v2.01Zm-7.441,3.569h7.5v-2.714h-7.5Z" fill="#4d4d4d"/>
    <path id="パス_1240" data-name="パス 1240" d="M1206.889,1275.634a12.031,12.031,0,0,0,.09-1.621v-7.019c0-.615-.029-1.11-.059-1.455a9.141,9.141,0,0,0,1.229.06h1.336a9.654,9.654,0,0,0,1.26-.06,12.94,12.94,0,0,0-.045,1.4v6.21a16.346,16.346,0,0,0,.06,1.65h-.961v-.781h-1.9v1.621Zm1.006-2.46h1.9v-6.7h-1.9Zm9.853-6.45a10.455,10.455,0,0,0,1.577-.09v1.035a11.868,11.868,0,0,0-1.59-.09h-1.965v2.535h2.535a11.971,11.971,0,0,0,1.709-.09v1.035a11.748,11.748,0,0,0-1.7-.09h-2.295a11.816,11.816,0,0,0,1.65,2.49,12.142,12.142,0,0,0,2.821,2.3,3.873,3.873,0,0,0-.645.929,16.508,16.508,0,0,1-2.416-2.2,10.169,10.169,0,0,1-1.725-2.79c.045.555.061.975.061,1.65v2.94a10.315,10.315,0,0,0,.09,1.589h-1.08a12.3,12.3,0,0,0,.09-1.589v-2.94c0-.57,0-.765.06-1.65a12.231,12.231,0,0,1-4.56,5.19,3.363,3.363,0,0,0-.721-.736,13.083,13.083,0,0,0,4.965-5.174h-2.1a8.624,8.624,0,0,0-1.439.075v-1.005a8.724,8.724,0,0,0,1.455.075h2.34v-2.535h-1.68a11.948,11.948,0,0,0-1.545.075v-1.005a14.751,14.751,0,0,0,1.545.075h1.68v-1.2a6.583,6.583,0,0,0-.075-1.215h1.049a6.81,6.81,0,0,0-.074,1.215v1.2Z" fill="#4d4d4d"/>
  </g>
  <g id="グループ_259" data-name="グループ 259" transform="translate(-1015.211 -1264.309)">
    <path id="パス_1241" data-name="パス 1241" d="M1280.286,1335.8a11.374,11.374,0,0,0-.09-1.725h1.185a11.165,11.165,0,0,0-.1,1.725v.839h.974a13.844,13.844,0,0,0,1.77-.1v1.14a14.77,14.77,0,0,0-1.77-.105h-.974v7.994a14,14,0,0,0,.1,1.77h-1.095v-.96h-5.834v.96h-1.1a12.249,12.249,0,0,0,.105-1.755v-8.009h-.976a11.327,11.327,0,0,0-1.709.105v-1.14a11.094,11.094,0,0,0,1.709.1h.976v-.9a9.836,9.836,0,0,0-.105-1.665h1.185a12,12,0,0,0-.089,1.665v.9h5.834Zm-5.834,1.77v3.239h5.834v-3.239Zm0,4.154v3.735h5.834v-3.735Z" fill="#4d4d4d"/>
    <path id="パス_1242" data-name="パス 1242" d="M1287.243,1345.249a12.161,12.161,0,0,0,.09-1.619v-7.02c0-.615-.03-1.11-.061-1.455a9.2,9.2,0,0,0,1.23.06h1.334a9.7,9.7,0,0,0,1.262-.06,12.673,12.673,0,0,0-.045,1.4v6.21a16.363,16.363,0,0,0,.059,1.649h-.959v-.779h-1.906v1.619Zm1-2.46h1.906v-6.7h-1.906Zm9.855-6.449a10.571,10.571,0,0,0,1.574-.09v1.035a11.636,11.636,0,0,0-1.59-.09h-1.964v2.534h2.535a11.858,11.858,0,0,0,1.711-.09v1.036a11.751,11.751,0,0,0-1.7-.09h-2.3a11.8,11.8,0,0,0,1.651,2.49,12.092,12.092,0,0,0,2.818,2.294,3.97,3.97,0,0,0-.644.931,16.477,16.477,0,0,1-2.414-2.205,10.049,10.049,0,0,1-1.725-2.79c.045.554.059.975.059,1.649v2.94a10.578,10.578,0,0,0,.089,1.59h-1.08a12.135,12.135,0,0,0,.09-1.59v-2.94c0-.569,0-.765.061-1.649a12.246,12.246,0,0,1-4.559,5.189,3.311,3.311,0,0,0-.721-.734,13.106,13.106,0,0,0,4.965-5.175h-2.1a8.694,8.694,0,0,0-1.442.074v-1a8.772,8.772,0,0,0,1.455.074h2.34v-2.534h-1.68a12.127,12.127,0,0,0-1.544.074v-1.005a14.777,14.777,0,0,0,1.544.076h1.68v-1.2a6.412,6.412,0,0,0-.074-1.214h1.051a6.673,6.673,0,0,0-.076,1.214v1.2Z" fill="#4d4d4d"/>
  </g>
  <g id="グループ_260" data-name="グループ 260" transform="translate(-1015.211 -1264.309)">
    <path id="パス_1243" data-name="パス 1243" d="M1272.215,1430.757a10.668,10.668,0,0,0-1.455.09v-.975a9.628,9.628,0,0,0,1.455.09h3.3a9.185,9.185,0,0,0,1.4-.09v.96a9.546,9.546,0,0,0-1.381-.09h-.658v1.785h.494a11.451,11.451,0,0,0,1.17-.045,13.944,13.944,0,0,0-.045,1.575v6.675l.015.795.014.555c-.225-.015-.854-.03-1.229-.03h-3.33v1.14h-.9a13.033,13.033,0,0,0,.09-1.71v-7.4c0-.645-.016-1.125-.061-1.62a8.077,8.077,0,0,0,1.186.06h.525v-1.77Zm-.269,8.145h3.75V1437c-.3.015-.391.015-.465.015a1.434,1.434,0,0,1-.871-.165c-.135-.105-.164-.225-.164-.66v-2.955h-.705v.165c0,2.31-.285,3.57-1.051,4.71a3.366,3.366,0,0,0-.494-.585Zm0-1.47c.631-.84.855-1.89.855-4.05v-.15h-.855Zm0,3.84h3.75v-1.65h-3.75Zm1.545-8.745h.705v-1.785h-.705Zm1.381,3.45c0,.285.029.315.3.315h.526v-3.06h-.824Zm7.2.915a5.58,5.58,0,0,0,1-.075l.525.555a6.642,6.642,0,0,0-.391.585,11.275,11.275,0,0,1-1.9,2.4,8.315,8.315,0,0,0,3.391,1.695,4.448,4.448,0,0,0-.451.945,10.589,10.589,0,0,1-3.584-2.085,11.6,11.6,0,0,1-3.991,2.13,2.876,2.876,0,0,0-.539-.825,9.949,9.949,0,0,0,3.93-1.86,9,9,0,0,1-1.426-1.95,10.329,10.329,0,0,1-1.41,1.41,2.492,2.492,0,0,0-.584-.675,7.454,7.454,0,0,0,2.25-2.415,5.094,5.094,0,0,0,.615-1.38l.9.285c-.315.615-.42.8-.705,1.26Zm-1.321-4.3c-.449.045-.66.075-1.2.135a4.933,4.933,0,0,1-.42,1.695,4.264,4.264,0,0,1-2,2.025,2.806,2.806,0,0,0-.554-.72,3.136,3.136,0,0,0,2.13-2.925c-1.365.1-1.365.1-1.755.165l-.106-.93a6.654,6.654,0,0,0,.766.03h.39a11.64,11.64,0,0,0,1.274-2.805l.931.33a25.361,25.361,0,0,1-1.291,2.43,28.264,28.264,0,0,0,3.571-.42,10.459,10.459,0,0,0-1.291-1.29l.646-.419a17.564,17.564,0,0,1,2.459,2.7l-.75.495c-.269-.42-.359-.54-.57-.855-.93.18-.93.18-1.41.24v2.175c0,.27.09.3.75.3.675,0,.945-.045,1.05-.2a2.932,2.932,0,0,0,.18-1.215,1.879,1.879,0,0,0,.75.315c-.15,1.695-.3,1.83-2.039,1.83-1.307,0-1.516-.12-1.516-.825Zm-1.544,5.055c-.03.045-.045.06-.09.12a8.162,8.162,0,0,0,1.574,2.055,9.51,9.51,0,0,0,1.74-2.175Z" fill="#4d4d4d"/>
    <path id="パス_1244" data-name="パス 1244" d="M1287.385,1440.837a12,12,0,0,0,.09-1.62v-7.02c0-.615-.029-1.11-.06-1.455a9.166,9.166,0,0,0,1.23.06h1.334a9.688,9.688,0,0,0,1.262-.06,12.443,12.443,0,0,0-.045,1.4v6.21a16.433,16.433,0,0,0,.058,1.65h-.959v-.78h-1.906v1.62Zm1-2.46h1.906v-6.7h-1.906Zm9.856-6.45a10.438,10.438,0,0,0,1.574-.09v1.035a11.826,11.826,0,0,0-1.59-.09h-1.965v2.535h2.535a11.984,11.984,0,0,0,1.711-.09v1.035a11.748,11.748,0,0,0-1.7-.09h-2.295a11.74,11.74,0,0,0,1.65,2.49,12.127,12.127,0,0,0,2.819,2.3,4,4,0,0,0-.645.93,16.63,16.63,0,0,1-2.414-2.2,10.031,10.031,0,0,1-1.724-2.79c.044.555.058.975.058,1.65v2.94a10.587,10.587,0,0,0,.09,1.59h-1.08a12.33,12.33,0,0,0,.09-1.59v-2.94c0-.57,0-.765.06-1.65a12.239,12.239,0,0,1-4.558,5.19,3.408,3.408,0,0,0-.721-.736,13.1,13.1,0,0,0,4.965-5.174h-2.1a8.667,8.667,0,0,0-1.441.075v-1.005a8.724,8.724,0,0,0,1.455.075h2.34v-2.535h-1.68a11.957,11.957,0,0,0-1.545.075v-1.005a14.81,14.81,0,0,0,1.545.075h1.68v-1.2a6.5,6.5,0,0,0-.074-1.214h1.05a6.77,6.77,0,0,0-.076,1.214v1.2Z" fill="#4d4d4d"/>
  </g>
  <g id="グループ_261" data-name="グループ 261" transform="translate(-1015.211 -1264.309)">
    <path id="パス_1245" data-name="パス 1245" d="M1015.782,1433.367a18.7,18.7,0,0,1,2.609,1.905l-.615.825a12.473,12.473,0,0,0-2.565-2.025Zm2.67,4.95a25.542,25.542,0,0,1-1.981,4.05c-.18.3-.224.39-.314.569l-.886-.8a12.8,12.8,0,0,0,2.37-4.424Zm-1.786-8.535a13.512,13.512,0,0,1,2.416,1.965l-.63.765a12.016,12.016,0,0,0-2.415-2.07Zm10.44,4.935a10.39,10.39,0,0,0,1.545-.09v1.02a11.145,11.145,0,0,0-1.545-.09h-6.99a9.451,9.451,0,0,0-1.44.075v-.99a8.791,8.791,0,0,0,1.41.075h.465v-2.685a8.485,8.485,0,0,0-.09-1.3h1.1a8.266,8.266,0,0,0-.09,1.32v2.67h1.9v-3.885a8.017,8.017,0,0,0-.09-1.29h1.11a7.837,7.837,0,0,0-.09,1.305v.78h2.25a8.894,8.894,0,0,0,1.365-.09v1.02a9.388,9.388,0,0,0-1.38-.09H1024.3v2.25Zm-4.065,5.835a19.567,19.567,0,0,1-3.254,2.055c-.3.15-.42.21-.6.315l-.495-.991a5.961,5.961,0,0,0,1.605-.689,13.293,13.293,0,0,0,2.43-1.59Zm-2.775-4.425a17.865,17.865,0,0,1,2.745,2.04l-.66.75a12.574,12.574,0,0,0-2.745-2.1Zm3.765,2.28a11.33,11.33,0,0,0,1.71-1.26,5.863,5.863,0,0,0,1.065-1.155l.84.615a17.376,17.376,0,0,1-2.955,2.505Zm3.81,4.56a18.69,18.69,0,0,0-3.765-2.64l.615-.645a22.419,22.419,0,0,1,3.72,2.4Z" fill="#4d4d4d"/>
    <path id="パス_1246" data-name="パス 1246" d="M1032.814,1430.742a7.155,7.155,0,0,0,1.455.09c.824,0,2.024-.045,2.52-.1a1.1,1.1,0,0,0,.554-.18l.795.63a7.986,7.986,0,0,0-.824,2.175c-.33,1.02-.436,1.3-.7,2.1a11.767,11.767,0,0,1,4.095,1.185,17.11,17.11,0,0,0,.179-3.045,3.642,3.642,0,0,0-.059-.735l1.125.015a5.8,5.8,0,0,0-.061.93,20.507,20.507,0,0,1-.269,3.255c.809.42,1.319.69,2.054,1.125a2.806,2.806,0,0,0,.435.225l-.4,1.155a17.4,17.4,0,0,0-2.34-1.485,7.107,7.107,0,0,1-1.545,2.715,8.135,8.135,0,0,1-2.386,1.83,3.81,3.81,0,0,0-.8-.78,6.6,6.6,0,0,0,2.431-1.725,5.841,5.841,0,0,0,1.38-2.52,11.064,11.064,0,0,0-4.14-1.245,29.113,29.113,0,0,1-1.41,3.615c-.54,1.035-1.1,1.485-1.816,1.485a2.215,2.215,0,0,1-1.979-2.46,3.368,3.368,0,0,1,1.785-2.97,4.9,4.9,0,0,1,2.7-.645c.495-1.47.675-2.04,1.2-3.78-1.185.09-1.411.1-2.835.15a8.228,8.228,0,0,0-1.095.075Zm0,6.51a2.5,2.5,0,0,0-.72,1.725c0,.795.435,1.425.975,1.425.615,0,1.125-.931,2.22-4.125A3.638,3.638,0,0,0,1032.814,1437.252Z" fill="#4d4d4d"/>
  </g>
  <g id="グループ_262" data-name="グループ 262" transform="translate(-1015.211 -1264.309)">
    <path id="パス_1247" data-name="パス 1247" d="M1090.028,1504.631a10.036,10.036,0,0,0,1.5-.09v1.035a10.444,10.444,0,0,0-1.5-.09h-4.845c-.016,2.43-.016,2.43-.075,3.54a4.873,4.873,0,0,0,.36,1.755,5.828,5.828,0,0,0,1.784,2.625,10.08,10.08,0,0,0,4.35,2.19,2.965,2.965,0,0,0-.539.944c-3.316-1.02-5.715-3.09-6.316-5.429-.854,2.7-2.789,4.454-6.059,5.5a4.411,4.411,0,0,0-.6-.915c2.73-.734,4.515-2.055,5.46-3.975a6.726,6.726,0,0,0,.63-2.849c.045-.87.045-.87.045-3.39h-4.545a10.874,10.874,0,0,0-1.5.09v-1.035a10.158,10.158,0,0,0,1.5.09h4.545a10.4,10.4,0,0,0-.075-1.62h1.125a8.254,8.254,0,0,0-.09,1.62Zm-7.785,8.13c-.525-.5-.72-.675-1.065-.96a10.029,10.029,0,0,1-2.28,1.424,3.323,3.323,0,0,0-.6-.719,8.727,8.727,0,0,0,2.22-1.215,13.3,13.3,0,0,0-1.485-1.005l.645-.481c.66.42.87.556,1.455.976a5.207,5.207,0,0,0,1.14-1.38l.75.51c-.075.09-.075.09-.45.524a8.522,8.522,0,0,1-.8.826c.33.254.525.419,1.08.884Zm-2.4-6.585c.81.464,1.08.629,1.59.975a4.284,4.284,0,0,0,1.02-1.29l.75.48a2.618,2.618,0,0,0-.36.405,7.566,7.566,0,0,1-.765.84c.48.344.69.495,1.29.974l-.585.616c-.57-.51-.795-.69-1.275-1.065a10.782,10.782,0,0,1-2.46,1.574,3.674,3.674,0,0,0-.6-.674,8.892,8.892,0,0,0,2.4-1.35,15.6,15.6,0,0,0-1.6-.96Zm6.855-.075c.84.51,1.125.69,1.724,1.11a4.133,4.133,0,0,0,1.021-1.305l.809.51c-.075.06-.24.255-.314.33-.016.03-.165.2-.42.479a4.134,4.134,0,0,1-.45.451c.554.405.75.555,1.38,1.08l-.615.6c-.63-.586-.84-.765-1.35-1.171a10.739,10.739,0,0,1-2.22,1.4,2.511,2.511,0,0,0-.57-.675,7.919,7.919,0,0,0,2.13-1.2c-.555-.375-.856-.57-1.725-1.1Zm.45,3.615c.854.525,1.125.705,1.62,1.049a3.721,3.721,0,0,0,.885-1.154l.764.51c-.12.12-.209.225-.434.495a6.693,6.693,0,0,1-.57.614c.54.406.78.6,1.514,1.216l-.614.614c-.691-.644-.931-.854-1.471-1.29-.239.2-.449.361-.734.571-.061.029-.361.21-.931.554a2.957,2.957,0,0,0-.585-.659,6.93,6.93,0,0,0,1.606-.945c-.526-.375-.826-.555-1.665-1.066Z" fill="#4d4d4d"/>
    <path id="パス_1248" data-name="パス 1248" d="M1097.139,1504.016a6,6,0,0,0,.285.914c.3.886.451,1.306.66,1.981a26.6,26.6,0,0,1,3.225-.84,21.225,21.225,0,0,0-.059-2.655h1.125a13.93,13.93,0,0,0-.076,2.025c0,.015,0,.3.015.48a7.547,7.547,0,0,1,1.125-.09c2.01,0,3.3,1.08,3.3,2.76,0,1.8-1.47,3.089-3.525,3.089a6.354,6.354,0,0,1-2.535-.554,2.159,2.159,0,0,0,.015-.271,6.7,6.7,0,0,0-.09-.854,5.109,5.109,0,0,0,2.521.689,3.037,3.037,0,0,0,1.8-.585,1.815,1.815,0,0,0,.72-1.529c0-1.14-.885-1.815-2.4-1.815a17.685,17.685,0,0,0-4.89,1.065c.766,2.55,1.305,4.665,1.936,7.484a4.631,4.631,0,0,0,.194.645l-1.215.27a53.351,53.351,0,0,0-1.89-8.1,6.733,6.733,0,0,1-.81.27,14.185,14.185,0,0,0-2.055.825l-.389-1.065a16.563,16.563,0,0,0,2.2-.7c.375-.135.524-.165.764-.24a15.074,15.074,0,0,0-1.08-2.85Z" fill="#4d4d4d"/>
    <path id="パス_1249" data-name="パス 1249" d="M1110.275,1507.18c.54-.014,2.1-.194,3.314-.389a18.269,18.269,0,0,0,.451-3.18v-.195l1.2.135a8.986,8.986,0,0,0-.285,1.44c-.076.435-.18.99-.315,1.71a8.717,8.717,0,0,1,.885-.045,2.87,2.87,0,0,1,2.16.63,3.032,3.032,0,0,1,.734,2.415c0,2.294-.389,4.29-1,5.159a1.568,1.568,0,0,1-1.47.7,5.634,5.634,0,0,1-2.265-.585,3.375,3.375,0,0,0,.029-.525,2.978,2.978,0,0,0-.044-.6,5.61,5.61,0,0,0,2.235.691q.563,0,.854-.721a11.579,11.579,0,0,0,.63-4.169c0-1.59-.449-2.1-1.844-2.1a8.678,8.678,0,0,0-1.081.076,28.292,28.292,0,0,1-2.264,6.36c-.195.359-.51.959-.975,1.8l-1.02-.6a14.347,14.347,0,0,0,1.56-2.715,24.82,24.82,0,0,0,1.65-4.754c-1.29.2-2.01.315-2.145.345a8.509,8.509,0,0,0-.87.195Zm9.854-1.379a13.553,13.553,0,0,1,3.135,5.31l-.96.555a12.261,12.261,0,0,0-3.059-5.385Z" fill="#4d4d4d"/>
    <path id="パス_1250" data-name="パス 1250" d="M1126.481,1506.446a6.577,6.577,0,0,0,1.155.075,35.032,35.032,0,0,0,4.47-.315c-.226-.51-.466-1.11-.735-1.785-.165-.39-.255-.6-.39-.87l1.185-.165a4.724,4.724,0,0,0,.434,1.35,12.164,12.164,0,0,0,.54,1.319,17.5,17.5,0,0,0,3.63-.944l.15,1.065c-.315.06-.434.089-.884.21a20.715,20.715,0,0,1-2.026.464c-.359.076-.359.076-.51.106a27.868,27.868,0,0,0,2.7,4.365l-1.005.569a3,3,0,0,0-1.035-.614,8.106,8.106,0,0,0-2.625-.39,5.326,5.326,0,0,0-2.85.629,1.706,1.706,0,0,0-.811,1.4,1.5,1.5,0,0,0,.571,1.17,5.078,5.078,0,0,0,2.925.69,9.886,9.886,0,0,0,4.259-.96l.165,1.156a12.451,12.451,0,0,1-4.41.809c-1.829,0-3.21-.405-3.9-1.125a2.415,2.415,0,0,1-.675-1.649,2.805,2.805,0,0,1,1.694-2.446,6.394,6.394,0,0,1,2.911-.554,7.485,7.485,0,0,1,3.1.54,18.444,18.444,0,0,1-1.8-2.941c-.165-.314-.165-.344-.255-.494a44.124,44.124,0,0,1-5.34.39,3.3,3.3,0,0,0-.584.045Z" fill="#4d4d4d"/>
  </g>
  <g id="グループ_263" data-name="グループ 263" transform="translate(-1015.211 -1264.309)">
    <path id="パス_1251" data-name="パス 1251" d="M1183.155,1515.325a12.084,12.084,0,0,0-3.061-2.145c-.254-.134-.6-.285-1-.45a4.308,4.308,0,0,1,.03.54,2.609,2.609,0,0,1-.375,1.635,3.022,3.022,0,0,1-2.536.945,3.9,3.9,0,0,1-2.324-.6,1.961,1.961,0,0,1-.81-1.574c0-.991.779-1.77,2.1-2.071a6.607,6.607,0,0,1,1.561-.149,6.725,6.725,0,0,1,1.349.119c-.015-.044-.015-.044-.015-.18a1.244,1.244,0,0,1-.014-.165c-.015-.134-.015-.449-.031-.884-.014-.195-.014-.48-.029-.871-.539.016-1.289.031-1.77.031-.9,0-1.6-.031-2.535-.1-.166-.015-.285-.015-.375-.015h-.121l.015-.99a18.421,18.421,0,0,0,3.436.24c.389,0,.914,0,1.334-.015l-.029-2.055c-.436.015-.676.015-1.02.015-1.1,0-2.31-.045-3.66-.151a1.944,1.944,0,0,0-.27-.014,1.308,1.308,0,0,0-.21.014l.015-1.019a18.638,18.638,0,0,0,3.84.3c.3,0,.811-.015,1.3-.015a12,12,0,0,0-.075-2.16h1.155a16.655,16.655,0,0,0-.106,2.115,21.189,21.189,0,0,0,4.44-.615l.076,1.019c-.256.016-.256.016-1.035.121a31.4,31.4,0,0,1-3.481.36c.016,1.229.016,1.229.03,2.024a18.08,18.08,0,0,0,4.156-.614l.058,1.035c-.193.015-.343.03-.869.105-1.035.165-2.22.285-3.33.36.031.84.031.84.09,2.295a13.148,13.148,0,0,1,4.186,2.189,4.964,4.964,0,0,0,.509.345Zm-5.071-2.834a5.461,5.461,0,0,0-1.529-.166c-1.486,0-2.461.541-2.461,1.335s.75,1.245,2.055,1.245a2.163,2.163,0,0,0,1.65-.495,1.956,1.956,0,0,0,.3-1.35Z" fill="#4d4d4d"/>
    <path id="パス_1252" data-name="パス 1252" d="M1188.475,1504.391a9,9,0,0,0,1.666.09c1.4,0,3.3-.09,4.334-.195a1.784,1.784,0,0,0,.615-.135l.631.87a11.942,11.942,0,0,0-1.621,1.545,27.229,27.229,0,0,1-4.094,3.675l.045.045a6.708,6.708,0,0,1,3.809-1.186c2.385,0,3.9,1.156,3.9,2.986a3.343,3.343,0,0,1-1.949,2.969,7.664,7.664,0,0,1-3.2.63,10.447,10.447,0,0,1-3.616-.705,1.8,1.8,0,0,0,.016-.269,5.819,5.819,0,0,0-.1-.946,8.471,8.471,0,0,0,3.824.93c2.326,0,3.916-1.064,3.916-2.609,0-1.305-1.141-2.1-2.986-2.1a8.893,8.893,0,0,0-4.815,1.65,7.535,7.535,0,0,0-1.17.945l-.75-.931a14.215,14.215,0,0,0,1.951-1.484c1.559-1.365,3.6-3.3,4.979-4.74a1.47,1.47,0,0,1,.135-.15l.121-.12-.032-.015a.743.743,0,0,0-.193.03c-.646.1-2.6.225-4.275.27a6.049,6.049,0,0,0-1.08.075Z" fill="#4d4d4d"/>
    <path id="パス_1253" data-name="パス 1253" d="M1203.833,1504.016a5.771,5.771,0,0,0,.285.914c.3.886.449,1.306.66,1.981a26.548,26.548,0,0,1,3.224-.84,20.79,20.79,0,0,0-.06-2.655h1.125a14.052,14.052,0,0,0-.074,2.025c0,.015,0,.3.013.48a7.547,7.547,0,0,1,1.125-.09c2.01,0,3.3,1.08,3.3,2.76,0,1.8-1.471,3.089-3.525,3.089a6.347,6.347,0,0,1-2.535-.554,2.159,2.159,0,0,0,.015-.271,6.7,6.7,0,0,0-.09-.854,5.111,5.111,0,0,0,2.52.689,3.046,3.046,0,0,0,1.8-.585,1.819,1.819,0,0,0,.718-1.529c0-1.14-.884-1.815-2.4-1.815a17.679,17.679,0,0,0-4.889,1.065c.766,2.55,1.305,4.665,1.936,7.484a4.637,4.637,0,0,0,.193.645l-1.215.27a53.282,53.282,0,0,0-1.888-8.1,6.888,6.888,0,0,1-.811.27,14.123,14.123,0,0,0-2.054.825l-.391-1.065a16.445,16.445,0,0,0,2.2-.7c.375-.135.525-.165.766-.24a15.066,15.066,0,0,0-1.08-2.85Z" fill="#4d4d4d"/>
    <path id="パス_1254" data-name="パス 1254" d="M1216.967,1507.18c.541-.014,2.1-.194,3.315-.389a18.269,18.269,0,0,0,.451-3.18v-.195l1.2.135a9.222,9.222,0,0,0-.285,1.44c-.074.435-.18.99-.314,1.71a8.713,8.713,0,0,1,.884-.045,2.865,2.865,0,0,1,2.16.63,3.024,3.024,0,0,1,.735,2.415c0,2.294-.389,4.29-1,5.159a1.569,1.569,0,0,1-1.471.7,5.639,5.639,0,0,1-2.264-.585,3.266,3.266,0,0,0,.03-.525,2.914,2.914,0,0,0-.045-.6,5.611,5.611,0,0,0,2.234.691q.563,0,.856-.721a11.624,11.624,0,0,0,.629-4.169c0-1.59-.45-2.1-1.844-2.1a8.665,8.665,0,0,0-1.08.076,28.3,28.3,0,0,1-2.266,6.36c-.195.359-.51.959-.974,1.8l-1.02-.6a14.4,14.4,0,0,0,1.561-2.715,24.823,24.823,0,0,0,1.648-4.754c-1.289.2-2.01.315-2.144.345a8.516,8.516,0,0,0-.87.195Zm9.856-1.379a13.588,13.588,0,0,1,3.135,5.31l-.961.555a12.261,12.261,0,0,0-3.059-5.385Z" fill="#4d4d4d"/>
    <path id="パス_1255" data-name="パス 1255" d="M1233.174,1506.446a6.577,6.577,0,0,0,1.155.075,35.02,35.02,0,0,0,4.47-.315c-.226-.51-.466-1.11-.736-1.785-.164-.39-.254-.6-.389-.87l1.184-.165a4.777,4.777,0,0,0,.435,1.35,12.164,12.164,0,0,0,.54,1.319,17.5,17.5,0,0,0,3.63-.944l.151,1.065c-.317.06-.436.089-.885.21a20.7,20.7,0,0,1-2.025.464c-.36.076-.36.076-.51.106a27.778,27.778,0,0,0,2.7,4.365l-1,.569a3,3,0,0,0-1.035-.614,8.11,8.11,0,0,0-2.625-.39,5.324,5.324,0,0,0-2.85.629,1.7,1.7,0,0,0-.81,1.4,1.494,1.494,0,0,0,.57,1.17,5.078,5.078,0,0,0,2.924.69,9.887,9.887,0,0,0,4.26-.96l.166,1.156a12.458,12.458,0,0,1-4.41.809c-1.831,0-3.211-.405-3.9-1.125a2.418,2.418,0,0,1-.674-1.649,2.805,2.805,0,0,1,1.694-2.446,6.389,6.389,0,0,1,2.91-.554,7.487,7.487,0,0,1,3.1.54,18.444,18.444,0,0,1-1.8-2.941c-.165-.314-.165-.344-.254-.494a44.159,44.159,0,0,1-5.34.39,3.33,3.33,0,0,0-.586.045Z" fill="#4d4d4d"/>
  </g>
  <g id="グループ_264" data-name="グループ 264" transform="translate(-1015.211 -1264.309)">
    <path id="パス_1256" data-name="パス 1256" d="M1018.82,1346.575a12.15,12.15,0,0,0-1.6.061v-1.185a7.351,7.351,0,0,0,1.635.1h7.14v-7.244h-6.824a12.6,12.6,0,0,0-1.726.075v-1.2a8.213,8.213,0,0,0,1.726.1h7.2c.2,0,.405-.015.78-.03-.03.375-.03.63-.03,1.17v7.68a10.036,10.036,0,0,0,.075,1.364h-1.2v-.9Z" fill="#4d4d4d"/>
    <path id="パス_1257" data-name="パス 1257" d="M1037.463,1335.746a2.96,2.96,0,0,0-.33.615,14.172,14.172,0,0,1-.689,1.335c.194-.045.194-.045,4.529-.12a1.473,1.473,0,0,0,.78-.105l.645.63c-.135.18-.135.2-.3.735a15.856,15.856,0,0,1-3,5.639,14.656,14.656,0,0,1-5.22,3.75,2.243,2.243,0,0,0-.75-.884,12.754,12.754,0,0,0,5.295-3.795,13.768,13.768,0,0,0,2.58-5.025l-5.054.09a14.474,14.474,0,0,1-3.585,3.9,2.238,2.238,0,0,0-.84-.78,11.119,11.119,0,0,0,3.765-4.11,6.8,6.8,0,0,0,.945-2.19Z" fill="#4d4d4d"/>
  </g>
  <line id="線_72" data-name="線 72" x1="109.032" y1="45.162" transform="translate(33.651 81.023)" fill="none" stroke="#999" stroke-miterlimit="10" stroke-width="0.5"/>
  <line id="線_73" data-name="線 73" x1="45.163" y1="109.032" transform="translate(97.52 17.154)" fill="none" stroke="#999" stroke-miterlimit="10" stroke-width="0.5"/>
  <line id="線_74" data-name="線 74" y1="109.032" x2="45.163" transform="translate(142.683 17.154)" fill="none" stroke="#999" stroke-miterlimit="10" stroke-width="0.5"/>
  <line id="線_75" data-name="線 75" y1="45.162" x2="109.032" transform="translate(142.683 81.023)" fill="none" stroke="#999" stroke-miterlimit="10" stroke-width="0.5"/>
  <line id="線_76" data-name="線 76" x2="109.032" y2="45.163" transform="translate(142.683 126.186)" fill="none" stroke="#999" stroke-miterlimit="10" stroke-width="0.5"/>
  <line id="線_77" data-name="線 77" x2="45.163" y2="109.032" transform="translate(142.683 126.186)" fill="none" stroke="#999" stroke-miterlimit="10" stroke-width="0.5"/>
  <line id="線_78" data-name="線 78" x1="45.163" y2="109.032" transform="translate(97.52 126.186)" fill="none" stroke="#999" stroke-miterlimit="10" stroke-width="0.5"/>
  <line id="線_79" data-name="線 79" x1="109.032" y2="45.163" transform="translate(33.651 126.186)" fill="none" stroke="#999" stroke-miterlimit="10" stroke-width="0.5"/>
  <path id="パス_1258" data-name="パス 1258" d="M1203.056,1281.463h-90.325l-63.87,63.87v90.325l63.87,63.87h90.325l63.87-63.87v-90.325Z" transform="translate(-1015.211 -1264.309)" fill="none" stroke="#999" stroke-miterlimit="10" stroke-width="0.5"/>
</svg>
