<svg id="lineup_shiny_howto" xmlns="http://www.w3.org/2000/svg" width="484.731" height="32.099" viewBox="0 0 484.731 32.099">
  <g id="グループ_148" data-name="グループ 148" transform="translate(-720.802 -1753.746)">
    <path id="パス_762" data-name="パス 762" d="M729.447,1763.162c.8-.175.8-.525.8-1.435,0-1.68-.069-2.275-.35-2.765-.139-.245-1.015-1.225-1.015-1.505,0-.316.841-.351,1.086-.351.559,0,.979.035,2.484.91.735.42.841.491.841.946a5.546,5.546,0,0,1-.42,1.05,5.823,5.823,0,0,0-.21,1.75c0,.6.14,1.12,1.015,1.12a22.975,22.975,0,0,0,4.131-.35,14.152,14.152,0,0,1,1.679-.7c.351,0,3.046,1.645,3.046,2.31a.753.753,0,0,1-.35.665c-.63.456-.7.525-.84.98-1.05,2.976-3.851,10.851-11.307,15.822a14.813,14.813,0,0,1-4.095,2.03c-.105,0-.211-.07-.211-.14s.036-.14.281-.279a32.942,32.942,0,0,0,3.5-2.766,27.482,27.482,0,0,0,8.995-15.3c0-.735-.595-.735-1.085-.735-3.115,0-8.261.315-9.9.525-2.626.351-2.626.63-2.626,1.191,0,.1.14,1.365.174,1.54a46.321,46.321,0,0,1,.491,5.32c0,.665,0,1.786-.8,1.786-.875,0-1.436-1.156-1.575-2.206-.035-.175-.035-2.52-.035-2.8a11.113,11.113,0,0,0-1.925-6.265,2.227,2.227,0,0,1-.42-.806c0-.28.63-.455,1.224-.455a3.465,3.465,0,0,1,1.925.6c.876.56,1.156.7,1.681.7C726.191,1763.547,728.712,1763.3,729.447,1763.162Z" fill="#4d4d4d"/>
    <path id="パス_763" data-name="パス 763" d="M762.687,1768.938a1.43,1.43,0,0,1-1.366,1.505c-.875,0-1.155-.875-1.469-1.82a16.912,16.912,0,0,0-2.521-4.445c-.245-.281-.28-.386-.28-.456a.345.345,0,0,1,.42-.28C759.256,1763.652,762.687,1765.963,762.687,1768.938Zm17.921-5.846c0,.21-.07.28-.8.665-.42.245-1.926,3.186-2.276,3.781-6.685,11.1-17.011,15.226-17.466,15.226a.163.163,0,0,1-.175-.175,7.441,7.441,0,0,1,1.05-.84,60.361,60.361,0,0,0,7.42-6.3c2.52-2.52,8.226-9.276,8.226-13.722a4.59,4.59,0,0,0-.315-1.715,1.331,1.331,0,0,1-.1-.35c0-.14.1-.21.245-.21C776.443,1759.452,780.608,1761.2,780.608,1763.092Zm-11.34,1.155c0,1.19-.631,2.065-1.33,2.065-.841,0-1.051-1.014-1.191-1.75a16.654,16.654,0,0,0-1.61-4.06,7.443,7.443,0,0,1-.455-.946c0-.1.21-.1.28-.1C766.992,1759.8,769.268,1761.9,769.268,1764.247Z" fill="#4d4d4d"/>
    <path id="パス_764" data-name="パス 764" d="M800.668,1758.332c0-.35.49-.35.771-.35a3.268,3.268,0,0,1,3.254,1.96c0,.42-.349.875-1.049,1.75-.175.245-.281.385-.281.56,0,.28.42.28.561.28a19.819,19.819,0,0,0,5.32-1.4,6.535,6.535,0,0,1,1.646-.56c.314,0,.489.1,1.925.945.209.1,1.12.6,1.294.7a1.265,1.265,0,0,1,.665.875c0,.49-.245.63-1.4,1.33-.386.245-.525.455-1.751,2.345a42.793,42.793,0,0,1-12.531,13.162,23.952,23.952,0,0,1-6.966,3.36.313.313,0,0,1-.314-.315c0-.14.1-.21,1.189-.805,10.677-5.88,17.327-17.817,17.327-18.9a.379.379,0,0,0-.385-.385c-.07,0-4.9,1.086-5.741,1.086-.21,0-1.154-.106-1.364-.106-.665,0-.735.07-2.206,1.75a26.288,26.288,0,0,1-4.76,4.551,10.7,10.7,0,0,1-3.36,1.855c-.176,0-.245-.1-.245-.21a29.666,29.666,0,0,1,2.764-2.625c2.836-2.836,6.161-7.666,5.881-9.766C800.878,1759.242,800.668,1758.471,800.668,1758.332Z" fill="#4d4d4d"/>
    <path id="パス_765" data-name="パス 765" d="M834.611,1768.9c0,.7-.524,1.75-1.365,1.75-.524,0-.7-.21-1.224-1.085a8.5,8.5,0,0,0-3.186-2.906c-.1-.069-.315-.21-.315-.35,0-.489,1.995-.525,2.45-.525C832.477,1765.787,834.611,1767.187,834.611,1768.9Zm-4.3,10.851c-.105-.175-.735-.91-.84-1.085a1.485,1.485,0,0,1-.21-.665c0-.14.105-.245.315-.245.315,0,1.645.455,1.925.455,1.505,0,10.921-5.251,19.287-14.737a16.8,16.8,0,0,1,1.505-1.575.129.129,0,0,1,.141.14c0,.385-3.081,7.876-17.572,18.027-.42.28-2.1,1.855-2.556,1.855C831.531,1781.924,831.182,1781.364,830.306,1779.754Zm8.506-17.817c0,.8-.56,1.576-1.121,1.576-.384,0-.559-.141-1.819-1.646a6.094,6.094,0,0,0-3.011-1.855c-.139-.035-.525-.14-.525-.245a4.167,4.167,0,0,1,2.7-.665C838.812,1759.1,838.812,1761.832,838.812,1761.937Z" fill="#4d4d4d"/>
    <path id="パス_766" data-name="パス 766" d="M885.317,1767.187a30.833,30.833,0,0,0,8.471,2.766c.14,0,.735.1.735.245,0,.1-.49.245-.63.28a6.069,6.069,0,0,0-2.661,1.89c-.1.14-.49.875-.665.875-.21,0-7.8-3.675-11.236-9.275-.665-1.121-.769-1.226-1.015-1.226s-.315.07-1.084.875a41.594,41.594,0,0,1-10.362,8.156,30.3,30.3,0,0,1-5.5,2.24c-.1,0-.175-.07-.175-.1s3.746-2.345,4.061-2.555c4.725-2.975,9.731-8.331,10.221-10.956.035-.28.07-.385.315-.385.175,0,3.011,1.085,3.186,1.19.1.035.455.175.455.525a2.2,2.2,0,0,1-.141.49C879.366,1762.742,882.377,1765.682,885.317,1767.187Zm-16.872-8.716c-2.59,0-3.78.071-4.445.106-.1,0-.63.07-.735.07s-.175-.07-.316-.211l-.665-.8c-.139-.175-.139-.175-.139-.245s.035-.071.1-.071c.244,0,1.33.106,1.54.106,1.715.07,3.185.139,4.83.139h1.016c.734,0,.944-.349.944-.944a5.68,5.68,0,0,0-.279-1.855,5.368,5.368,0,0,1-.21-.7c0-.174.175-.245.385-.245.245,0,1.82.385,2.205.49,1.05.28,1.259.35,1.259.665,0,.21-.034.28-.524.911a.853.853,0,0,0-.245.63c0,.839.28,1.049,1.225,1.049h5.776c.314,0,1.05,0,1.05-.944a14.511,14.511,0,0,0-.106-1.576c-.034-.175-.21-.91-.21-1.05,0-.175.21-.245.386-.245.244,0,2.625.56,3.01.665s.595.245.595.56c0,.21-.14.35-.525.63a1.124,1.124,0,0,0-.455.98c0,.98.56.98,1.12.98h1.785c1.54,0,1.715,0,2.241-.594.98-1.156,1.085-1.3,1.4-1.3.21,0,3.255,1.855,3.255,2.31,0,.489-.7.489-1.856.489h-6.825c-1.085,0-1.085.561-1.085,1.4,0,.21.035,1.4.035,1.575,0,1.295-1.05,1.505-1.786,1.505-.8,0-.944-.14-.944-1.33v-2.415c-.106-.665-.525-.736-1.085-.736h-5.6c-.8,0-1.3,0-1.3.981,0,.35.106,1.89.106,2.2,0,.665-.106.98-.42,1.19a2.489,2.489,0,0,1-1.33.49c-.6,0-.875-.385-.875-1.085,0-.28.034-1.61.034-1.855,0-1.365,0-1.926-1.085-1.926Zm2.486,17.887a17.917,17.917,0,0,1,2.695,1.646.868.868,0,0,1,.28.525c0,.42-.28.49-1.12.7-.1.035-3.116,2.38-3.676,2.8a21.53,21.53,0,0,1-5.32,3.046.112.112,0,0,1-.1-.1c0-.071,1.855-1.681,2.1-1.926,2.905-2.765,4.691-5.531,5.005-6.651A.214.214,0,0,1,870.931,1776.358Zm1.61-1.855c-2.73,0-3.746.035-4.446.1-.1,0-.63.071-.735.071s-.174-.071-.315-.21l-.665-.806c-.14-.175-.14-.175-.14-.245,0-.035.035-.07.1-.07.245,0,1.33.1,1.54.1,1.716.1,3.185.141,4.831.141h2.625c.35,0,1.05,0,1.05-.946,0-.42-.21-3.255-.28-3.6,0-.071-.21-.42-.21-.49s.07-.21.35-.21c.245,0,2.7.525,3.045.629.49.106.665.421.665.6,0,.21-.069.28-.595.735-.49.42-.49.63-.49,1.68,0,1.26,0,1.611,1.051,1.611h1.54c1.54,0,1.715,0,2.24-.6.98-1.155,1.085-1.3,1.4-1.3.21,0,3.255,1.891,3.255,2.31,0,.49-.7.49-1.855.49h-6.615c-1.05,0-1.05.631-1.05,1.751,0,2.485,0,3.885.069,5.95.035.595.035,1.435.035,1.855,0,1.121-.28,1.786-1.785,1.786-.77,0-.84-.63-.84-1.226,0-.455.105-2.555.105-3.01.035-1.33.035-2.625.035-4.235a21.214,21.214,0,0,0-.07-2.381c-.175-.49-.735-.49-1.015-.49Zm9.346,2.941c0-.1.175-.14.314-.14,1.3,0,9.277,2.205,9.277,5.11,0,1.12-.63,2-1.505,2-.665,0-.806-.175-1.891-1.785a16.621,16.621,0,0,0-6.02-5.04C882.026,1777.584,881.887,1777.478,881.887,1777.444Z" fill="#4d4d4d"/>
    <path id="パス_767" data-name="パス 767" d="M919.05,1759.732c0,.1.069.245.069.385a26.671,26.671,0,0,1,.351,3.78c0,2.345-.526,5.6-3.606,10.256-2.8,4.271-4.586,5.111-5.985,5.111-2.311,0-4.376-3.6-4.376-7.876a12.329,12.329,0,0,1,3.886-8.926,14.482,14.482,0,0,1,11.166-4.55,11.4,11.4,0,0,1,5.635,1.12,10.971,10.971,0,0,1,6.091,10.186,13.055,13.055,0,0,1-8.821,12.321,21.515,21.515,0,0,1-5.811,1.3c-.139,0-.349-.035-.349-.245,0-.1.069-.14.944-.49,3.641-1.435,11.237-4.445,11.237-13.161,0-1.365-.14-9.7-9.7-9.7C919.085,1759.242,919.05,1759.522,919.05,1759.732Zm-11.376,10.746c0,2.275.909,5.39,3.045,5.39,1.014,0,1.855-.419,4.27-4.06a20.015,20.015,0,0,0,3.431-10.186c0-2.1-.141-2.276-.6-2.276C914.5,1759.346,907.674,1763.862,907.674,1770.478Z" fill="#4d4d4d"/>
    <path id="パス_772" data-name="パス 772" d="M1103.842,1774.083c-.91,0-.91.525-.91.945,0,.84.035,4.446.035,5.181,0,.21,0,.7.559.7.281,0,3.151-1.19,3.466-1.33a.764.764,0,0,0,.49-.63,6.945,6.945,0,0,0-1.121-2.17,7.469,7.469,0,0,1-.7-.945c0-.035.07-.035.1-.035.665,0,5.145,2.1,5.145,4.97,0,.98-.49,1.68-1.155,1.68-.63,0-.77-.35-1.33-1.645-.21-.525-.315-.8-.7-.8-.455,0-6.721,4.1-6.966,4.655-.35.7-.385.806-.735.806-.595,0-1.47-2.8-1.47-3.046s.14-.315.385-.315c1.82,0,1.82-.21,1.82-1.715v-10.5c0-2.415,0-5.986-.56-5.986-.14,0-2.45,1.856-2.66,1.856-.07,0-.1,0-.1-.071,0-.035.945-1.225,1.12-1.47a53.651,53.651,0,0,0,6.02-9.731c.176-.665.176-.735.455-.735.21,0,2.731,1.225,2.731,1.96a.531.531,0,0,1-.315.455c-.211.1-.35.176-.35.351s0,.174,1.05.594c.665.245,4.095,1.646,4.095,4.166a1.151,1.151,0,0,1-1.155,1.3c-.35,0-.805-.1-1.47-1.505-.63-1.33-2.765-3.885-3.22-3.885-.281,0-.456.245-.63.49a47,47,0,0,1-4.62,5.355c-.106.07-.176.14-.176.245s.07.14.876.56c1.05.525,1.154.595,1.644.595,1.016,0,1.05-.315,1.05-1.05a7.555,7.555,0,0,0-.175-2.1c-.035-.175-.279-.84-.279-.98,0-.07.069-.175.35-.175s2.975.385,2.975,1.225c0,.1-.386.525-.455.63-.141.28-.141.42-.141,1.435,0,.49,0,1.015.736,1.015.77,0,.875,0,1.155-.28.63-.735.84-.945,1.12-.945.245,0,1.89,1.015,1.89,1.646,0,.21-.6.98-.665,1.154a8.866,8.866,0,0,0-.1,1.716c0,.945.1,5.25.1,6.091,0,.665,0,1.889-1.47,1.889-.77,0-.84-.42-.91-1.014-.1-.6-.7-.6-.945-.6Zm4.025-5.46c.91,0,.91-.49.91-1.26,0-1.681,0-2.031-.91-2.031h-4.025c-.91,0-.91.525-.91,1.261,0,1.714,0,2.03.91,2.03Zm-.07,4.515c.91,0,.98,0,.98-2.765,0-.805-.525-.805-.91-.805h-4.025c-.91,0-.91.315-.91,1.365,0,2,0,2.2.91,2.2Zm16.627-10.641a.979.979,0,0,0,1.05-.56c.49-.805.525-.91.77-.91.279,0,3.43,1.68,3.43,2.486,0,.7-.385.734-2.31.979a4.1,4.1,0,0,0-2.31,1.12c-.071.035-.42.28-.455.28s-.071,0-.071-.035c0-.175.491-1.61.491-1.925,0-.525-.35-.525-.665-.525h-3.01c-.49,0-.946.035-.946.875,0,10.606,7.876,17.537,8.261,17.852.245.21,1.54,1.12,1.54,1.3,0,.1-.594.209-.63.209a6.174,6.174,0,0,0-2.1.7,3.464,3.464,0,0,1-.77.455c-.7,0-4.76-4.831-6.51-15.122-.036-.1-.106-.56-.21-.56-.141,0-.176.315-.21.665-.526,4.235-2.066,11.411-8.892,14.491a6.585,6.585,0,0,1-2.485.665c-.14,0-.175,0-.175-.1a3.679,3.679,0,0,1,.77-.489c1.855-.946,5.531-2.836,7.386-9.171a39.48,39.48,0,0,0,1.47-10.607c0-.63,0-1.155-.805-1.155s-.875.106-1.54,1.085a28.409,28.409,0,0,1-2.871,3.676.092.092,0,0,1-.1-.1c0-.211,1.084-2.555,1.294-3.046.771-1.96,2.941-7.911,2.941-9.871,0-1.015,0-1.19.455-1.19.49,0,3.4,1.4,3.4,1.96,0,.28-.1.35-.735.735-.42.28-2.8,5.461-2.8,5.461,0,.385.385.385.595.385Z" fill="#4d4d4d"/>
    <path id="パス_773" data-name="パス 773" d="M1152.044,1759.172c-.454,0-1.925,1.26-2.484,1.75-.455.42-1.786,1.61-2.7,1.61-1.3,0-2.275-2.485-2.275-2.59,0-.21.069-.35.28-.35s1.015.14,1.19.14c1.12,0,1.54-.07,3.64-1.4a6.012,6.012,0,0,1,3.361-1.155c2.31,0,2.835,1.575,2.835,2.1,0,.735-.315,1.155-2.135,2.835a31.773,31.773,0,0,0-5.146,7.106c0,.175.245.21.35.21.455,0,2.415-.035,2.836,0a28.329,28.329,0,0,1,6.615,1.4,1.4,1.4,0,0,0,.561.14c.454,0,.665-2.871.665-3.22,0-.28-.211-1.82-.211-1.961,0-.21.245-.21.385-.21.105,0,3.151.561,3.151,1.926a7.5,7.5,0,0,1-.771,1.365c0,.07-.49,2.87-.49,2.975,0,.455.21.56.806.875,1.365.735,4.55,2.38,4.55,4.2a1.355,1.355,0,0,1-1.3,1.33c-.7,0-1.085-.28-3.535-2.381-.071-.034-1.085-.91-1.436-.91-.279,0-.385.245-.489.421a15.108,15.108,0,0,1-6.862,6.475,12.9,12.9,0,0,1-3.78,1.4c-.035,0-.28,0-.28-.1a5.538,5.538,0,0,1,.665-.49c3.466-2.38,5.181-3.78,7.211-6.931a6.445,6.445,0,0,0,1.051-1.995c0-.315,0-.49-1.926-1.435a15.16,15.16,0,0,0-6.441-1.575c-2.17,0-2.24.14-2.835,1.4-3.01,6.406-3.6,7.7-5.811,7.7-1.785,0-2.31-1.925-2.31-2.8,0-2.975,3.116-5.636,6.79-6.931a1.263,1.263,0,0,0,.876-.7c.8-1.3,5.18-7.911,5.356-8.226a4.955,4.955,0,0,0,.455-1.575A.451.451,0,0,0,1152.044,1759.172Zm-11.726,16.872c0,.594.281,1.014.911,1.014,1.924,0,4.2-5.145,4.2-5.285,0-.1-.035-.175-.14-.175C1144.028,1771.6,1140.318,1773.978,1140.318,1776.044Z" fill="#4d4d4d"/>
    <path id="パス_774" data-name="パス 774" d="M1179.981,1762.077c-.8,0-3.221,0-4.446.07a5.3,5.3,0,0,1-.735.1c-.105,0-.175-.1-.315-.245l-.665-.8c-.14-.14-.14-.175-.14-.21a.093.093,0,0,1,.1-.1c.245,0,1.33.1,1.575.14,1.576.07,3.151.1,4.8.1h6.862c1.014,0,1.014-.455,1.014-2.451a22.193,22.193,0,0,0-.174-3.22c-.036-.21-.246-1.05-.246-1.225,0-.21.246-.21.385-.21s3.711.736,3.711,1.54c0,.35-.07.385-.665.946-.455.384-.49,1.294-.49,1.855,0,2.625.21,2.765,1.12,2.765h6.966c1.3,0,1.644,0,2.1-.525.21-.315,1.12-1.96,1.471-1.96.524,0,3.325,2.415,3.325,2.905,0,.525-.665.525-1.855.525h-15.717c-.385,0-.524,0-.524.14,0,.245.139.245,1.5.455.526.07,1.541.28,1.541.77,0,.28-.98,1.155-1.085,1.4a9.7,9.7,0,0,0-.561,2.554c0,.7.735.7.876.7h7.735a1.663,1.663,0,0,0,1.47-.524,4.154,4.154,0,0,1,.806-.7c.175,0,3.045,1.75,3.045,2.24,0,.28-.911,1.085-1.015,1.295a34.694,34.694,0,0,0-.98,4.9c-1.085,5.006-2.17,6.861-3.255,8.122a6.933,6.933,0,0,1-4.026,2.31c-.42,0-.42-.246-.42-.56,0-1.505-1.82-2.625-2.905-3.186-.806-.42-.91-.455-.91-.56,0-.07.034-.28.35-.28a5.911,5.911,0,0,1,1.435.385,10.576,10.576,0,0,0,2.765.455c1.47,0,3.081-.875,4.2-5.495a35.912,35.912,0,0,0,.909-6.546c0-.91-.595-.91-1.12-.91h-8.226c-.979,0-1.049.175-1.469,1.995-2.731,11.376-11.657,13.546-12.112,13.546-.1,0-.315,0-.315-.1,0-.139.42-.384.84-.594a20.757,20.757,0,0,0,7.526-8.436,32.87,32.87,0,0,0,2.555-11.061c0-2.311-.595-2.311-1.295-2.311Z" fill="#4d4d4d"/>
    <g id="グループ_525" data-name="グループ 525" transform="translate(-127.613 110.353)">
      <path id="パス_2251" data-name="パス 2251" d="M1090.925,1653.444c0,1.155-2.66,2.205-3.5,2.555-.49.175-.525.315-.594,1.54-.071.77-.071,3.605-.071,3.78,0,.211,0,.631.315.631.105,0,2.975-1.191,3.536-1.4,3.465-1.295,5.04-1.4,5.95-1.4a5.359,5.359,0,0,1,5.391,5.286c0,4.62-4.866,6.721-7.736,6.721-1.995,0-3.6-1.015-3.6-2.836a3.118,3.118,0,0,1,1.75-2.765.188.188,0,0,1,.175.175c0,.1-.071.175-.14.28a1.448,1.448,0,0,0-.315.945c0,1.68,1.925,1.68,2.275,1.68,2.311,0,5.251-1.54,5.251-4.34a3.628,3.628,0,0,0-3.36-3.851c-.981,0-3.151.456-7.247,2.626-1.959,1.05-2.169,1.155-2.169,1.75,0,.385.1,1.96.1,2.31,0,1.61-.525,3.921-1.785,3.921-.945,0-1.33-.735-1.61-1.3-1.121-2.171-1.3-2.171-1.75-2.171a2.908,2.908,0,0,0-.875.21,6.9,6.9,0,0,1-1.331.7c-.384,0-2.169-1.05-2.169-2.2,0-.63.384-1.365,1.014-1.365.21,0,1.226.175,1.436.175.944,0,1.575-.175,3.639-1.19,1.786-.875,2-.98,2-1.96,0-.806-.035-3.781-.07-4.376,0-.245-.105-.77-.49-.77a8.183,8.183,0,0,0-1.61.315,7.51,7.51,0,0,1-2.486.665c-1.189,0-2.519-2.415-2.519-2.66a.247.247,0,0,1,.279-.245c.1,0,.525.14.63.14a10.182,10.182,0,0,0,1.61.175,15.291,15.291,0,0,0,4.446-1.05,26.184,26.184,0,0,0,.35-3.815,3.437,3.437,0,0,0-1.155-2.8,3.508,3.508,0,0,1-.49-.56c0-.315.56-.385.77-.385,2.345,0,3.606,1.715,3.606,2.38a14.043,14.043,0,0,1-.736,1.821,18.682,18.682,0,0,0-.349,2.275c0,.14.069.385.279.385.245,0,1.226-.385,1.226-.875,0-.07-.175-.42-.175-.49,0-.035.069-.1.139-.14C1089.246,1651.869,1090.925,1652.359,1090.925,1653.444Zm-7.98,13.406c0,.525.945,1.645,1.47,1.645.49,0,.98-.98.98-2.695,0-.14,0-.49-.1-.56C1085.185,1665.24,1082.945,1666.36,1082.945,1666.85Zm23-10.886c0,.735-.42,1.68-1.155,1.68-.21,0-1.015-.07-1.19-.07-.175.035-.91.245-1.051.245a.163.163,0,0,1-.174-.175,2.408,2.408,0,0,1,.105-.28,1.866,1.866,0,0,0,.14-.63c0-1.4-1.75-1.89-2.941-1.89a3.042,3.042,0,0,0-1.365.35.782.782,0,0,1-.35.1c-.105,0-.14-.035-.14-.14a4.478,4.478,0,0,1,3.781-2.205C1104.3,1652.954,1105.942,1654.354,1105.942,1655.964Z" fill="#4d4d4d"/>
      <path id="パス_2252" data-name="パス 2252" d="M1122.3,1653.234a4.8,4.8,0,0,1-.42,1.4,12.362,12.362,0,0,0-.84,4.515c0,3.536,1.82,6.091,2.9,6.091.6,0,.735-.175,1.785-1.925.21-.35.806-1.19,1.085-1.19.106,0,.176.14.176.28a4.093,4.093,0,0,1-.106.7,9.86,9.86,0,0,0-.455,2.66,4.758,4.758,0,0,0,.21,1.4,8.663,8.663,0,0,1,.281,1.155c0,.7-.736,1.085-1.331,1.085-2.24,0-6.65-3.675-6.65-10.361,0-.98.489-5.285.489-6.195a9.671,9.671,0,0,0-.245-2.031,4.753,4.753,0,0,1-.279-1.19c0-.105.14-.14.21-.14C1120.72,1649.488,1122.3,1652.289,1122.3,1653.234Zm17.081.8a8.709,8.709,0,0,1,3.116,6.686c0,.665-.07,2.31-1.75,2.31-1.715,0-1.715-1.891-1.715-2.345,0-2.906,0-4.376-1.856-6.231-.28-.28-1.679-1.365-1.679-1.575,0-.1.139-.175.314-.175A6.81,6.81,0,0,1,1139.376,1654.039Z" fill="#4d4d4d"/>
      <path id="パス_2253" data-name="パス 2253" d="M1162.914,1649.033a16.119,16.119,0,0,1-.665,1.961,84.142,84.142,0,0,0-1.47,12.461c0,3.535.665,6.686,5.355,6.686a17.246,17.246,0,0,0,7.351-1.821c.525-.245,3.185-1.715,3.325-1.715a.164.164,0,0,1,.176.175c0,.385-5.181,6.021-11.762,6.021-4.551,0-6.721-2.626-6.721-9.661,0-2.17.071-2.871.8-9.731.141-1.155.455-4.026.455-5.006a4.406,4.406,0,0,0-.314-1.715c-.035-.1-.385-.91-.385-.945,0-.245.279-.35.489-.35C1161.374,1645.393,1162.914,1648.228,1162.914,1649.033Z" fill="#4d4d4d"/>
      <path id="パス_2254" data-name="パス 2254" d="M1193.934,1653.234a4.778,4.778,0,0,1-.421,1.4,12.385,12.385,0,0,0-.84,4.515c0,3.536,1.821,6.091,2.906,6.091.595,0,.735-.175,1.785-1.925.21-.35.8-1.19,1.085-1.19.1,0,.176.14.176.28a4.2,4.2,0,0,1-.106.7,9.821,9.821,0,0,0-.455,2.66,4.721,4.721,0,0,0,.21,1.4,8.782,8.782,0,0,1,.28,1.155c0,.7-.735,1.085-1.33,1.085-2.24,0-6.65-3.675-6.65-10.361,0-.98.489-5.285.489-6.195a9.745,9.745,0,0,0-.245-2.031,4.75,4.75,0,0,1-.279-1.19c0-.105.139-.14.21-.14C1192.359,1649.488,1193.934,1652.289,1193.934,1653.234Zm17.081.8a8.711,8.711,0,0,1,3.115,6.686c0,.665-.069,2.31-1.75,2.31-1.714,0-1.714-1.891-1.714-2.345,0-2.906,0-4.376-1.856-6.231-.28-.28-1.68-1.365-1.68-1.575,0-.1.14-.175.315-.175A6.812,6.812,0,0,1,1211.015,1654.039Z" fill="#4d4d4d"/>
    </g>
  </g>
</svg>
