<svg id="lineup_warm_howto" xmlns="http://www.w3.org/2000/svg" width="485.341" height="32.099" viewBox="0 0 485.341 32.099">
  <g id="グループ_165" data-name="グループ 165" transform="translate(-719.357 -1753.747)">
    <path id="パス_841" data-name="パス 841" d="M726.6,1768.694c0-.07,0-.28.49-.28a14.4,14.4,0,0,1,3.115.56,19.139,19.139,0,0,0,2.171.665c.8,0,1.715-1.47,2.555-2.835.35-.595,1.68-2.9,1.68-3.815a.434.434,0,0,0-.455-.491c-.21,0-6.126,1.4-7.456,1.891a14.988,14.988,0,0,1-1.785.734,3.638,3.638,0,0,1-2.52-1.785,6.8,6.8,0,0,1-.84-1.82c0-.1.07-.244.174-.244.071,0,.981.384,1.085.42a4.523,4.523,0,0,0,1.786.455c.49,0,9.591-1.33,10.326-1.926.841-.665.91-.734,1.225-.734.63,0,2.276,1.259,2.8,1.679a1.188,1.188,0,0,1,.42.91c0,.561-.1.63-1.12,1.26-.7.455-.91.771-2.73,3.641a29.813,29.813,0,0,0-2.17,3.43c0,.316.175.385,1.75,1.191,1.961.979,5.321,3.185,5.321,5.075a.957.957,0,0,1-.945,1.085c-1.121,0-1.47-.314-4.516-3.256-.63-.595-2.345-2.029-3.045-2.029a1.754,1.754,0,0,0-1.19.7c-5.881,6.057-12.567,8.506-13.2,8.506a.187.187,0,0,1-.175-.174,13.168,13.168,0,0,1,2.031-1.541,59.9,59.9,0,0,0,9.485-7.735c.245-.28.6-.63.525-1.016C731.259,1770.445,726.6,1769.184,726.6,1768.694Z" fill="#4d4d4d"/>
    <path id="パス_842" data-name="パス 842" d="M764.655,1758.333c0-.35.491-.35.771-.35a3.269,3.269,0,0,1,3.255,1.961c0,.42-.35.875-1.05,1.75-.175.245-.28.384-.28.559,0,.28.42.28.56.28a19.771,19.771,0,0,0,5.321-1.4,6.507,6.507,0,0,1,1.645-.559c.314,0,.489.1,1.925.944.21.105,1.12.6,1.295.7a1.266,1.266,0,0,1,.665.875c0,.49-.245.63-1.4,1.33-.385.244-.525.455-1.751,2.345a42.783,42.783,0,0,1-12.531,13.161,23.916,23.916,0,0,1-6.966,3.361.314.314,0,0,1-.314-.315c0-.14.1-.21,1.19-.806,10.676-5.88,17.326-17.816,17.326-18.9a.379.379,0,0,0-.384-.386c-.071,0-4.9,1.086-5.741,1.086-.21,0-1.155-.1-1.365-.1-.665,0-.735.07-2.206,1.75a26.273,26.273,0,0,1-4.76,4.55,10.706,10.706,0,0,1-3.36,1.856c-.176,0-.245-.106-.245-.21a29.664,29.664,0,0,1,2.765-2.626c2.836-2.835,6.161-7.666,5.88-9.766C764.865,1759.243,764.655,1758.473,764.655,1758.333Z" fill="#4d4d4d"/>
    <path id="パス_843" data-name="パス 843" d="M795.9,1761.8a50.011,50.011,0,0,0,10.817-1.295c.455-.1,2.31-.875,2.73-.875.281,0,2.906.526,2.906,1.716,0,.77-.911.944-2.241,1.05-3.78.349-5.775.524-6.055.63a.544.544,0,0,0-.351.42c0,.384.561.875.665.98.49.455.665.6.665.875a11.614,11.614,0,0,1-.665,1.505,3.464,3.464,0,0,0-.21.806c0,.455.28.629.735.629.946,0,5.741-.77,6.792-.98.349-.07,1.82-.42,2.134-.42.63,0,3.466.805,3.466,2.835a.664.664,0,0,1-.7.631c-.175,0-2.24-.421-2.66-.49a16.329,16.329,0,0,0-2.976-.245,34.5,34.5,0,0,0-6.65.735c-.455.209-.49.7-.49,1.4,0,4.481.525,5.006.945,5.426,1.189,1.226,4.34,1.33,4.725,1.33.456,0,2.52-.315,2.94-.315.735,0,2.24.631,2.24,1.541,0,1.365-2.87,1.365-3.955,1.365a18.336,18.336,0,0,1-6.686-1.086c-1.959-.8-2.345-2.24-2.345-4.585,0-.141.07-3.185.07-3.78s-.175-.875-.735-.875a46.244,46.244,0,0,0-6.615,1.47,12.206,12.206,0,0,1-1.786.63c-.875,0-3.465-1.925-3.465-2.731a.2.2,0,0,1,.21-.21c.175,0,1.331.14,1.575.14,1.575,0,8.366-.945,10.116-1.3.665-.14.875-.385.875-1.225,0-2.03-.034-3.99-1.33-3.99-.385,0-3.045.455-3.151.455-.769,0-2.519-1.471-2.519-2.1a.154.154,0,0,1,.1-.139A7.325,7.325,0,0,1,795.9,1761.8Z" fill="#4d4d4d"/>
    <path id="パス_844" data-name="パス 844" d="M832.842,1758.263c.84,0,2.765,1.226,2.765,1.82,0,.175-.07.98-.07,1.156,0,4.06.07,7.211.106,8.05.035.42.21,2.17.21,2.521,0,.909-.806,1.785-1.33,1.785-.771,0-1.576-1.856-1.576-2.766,0-.28.175-1.469.175-1.75.07-1.575.07-2.94.07-3.57,0-3.921-.175-4.726-1.26-5.985-.28-.316-.455-.526-.455-.806C831.477,1758.473,832.037,1758.263,832.842,1758.263Zm9.626-.98c-.42-.56-.455-.63-.455-.7,0-.1,0-.209,1.015-.209,2.1,0,3.851.875,3.851,1.785a13.379,13.379,0,0,1-.351,1.4c-.139.945-.174,6.2-.28,7.421a22.145,22.145,0,0,1-8.751,16.242,13.941,13.941,0,0,1-3.15,2.064c-.14,0-.21-.069-.21-.174,0-.14,2.275-2.38,2.695-2.835,6.756-7.211,7-13.3,7-20.3A6.693,6.693,0,0,0,842.468,1757.283Z" fill="#4d4d4d"/>
    <path id="パス_845" data-name="パス 845" d="M884.482,1767.189a30.819,30.819,0,0,0,8.471,2.765c.14,0,.735.1.735.246,0,.105-.49.245-.63.279a6.069,6.069,0,0,0-2.66,1.89c-.1.141-.491.875-.666.875-.209,0-7.8-3.674-11.236-9.275-.665-1.12-.769-1.226-1.014-1.226s-.316.071-1.085.875a41.642,41.642,0,0,1-10.362,8.157,30.265,30.265,0,0,1-5.5,2.24c-.1,0-.175-.07-.175-.106s3.746-2.344,4.061-2.554c4.725-2.976,9.731-8.331,10.222-10.956.034-.281.069-.386.314-.386.175,0,3.011,1.085,3.186,1.19.1.036.455.175.455.526a2.231,2.231,0,0,1-.141.49C878.531,1762.743,881.542,1765.684,884.482,1767.189Zm-16.872-8.716c-2.59,0-3.78.07-4.445.1-.1,0-.63.071-.735.071s-.175-.071-.316-.211l-.665-.8c-.139-.175-.139-.175-.139-.245s.035-.07.1-.07c.244,0,1.33.1,1.54.1,1.715.07,3.185.14,4.83.14H868.8c.734,0,.944-.35.944-.945a5.686,5.686,0,0,0-.279-1.855,5.314,5.314,0,0,1-.21-.7c0-.175.175-.245.385-.245.245,0,1.82.384,2.205.49,1.05.28,1.26.349,1.26.665,0,.21-.035.279-.525.91a.854.854,0,0,0-.245.63c0,.84.28,1.05,1.225,1.05h5.776c.314,0,1.05,0,1.05-.945a14.486,14.486,0,0,0-.106-1.575c-.035-.175-.21-.91-.21-1.05,0-.175.21-.246.386-.246.244,0,2.625.561,3.01.665s.6.245.6.561c0,.21-.14.35-.525.63a1.122,1.122,0,0,0-.455.979c0,.981.56.981,1.12.981h1.785c1.54,0,1.715,0,2.241-.595.979-1.155,1.085-1.3,1.4-1.3.21,0,3.255,1.855,3.255,2.31,0,.49-.7.49-1.856.49H884.2c-1.085,0-1.085.56-1.085,1.4,0,.21.035,1.4.035,1.576,0,1.294-1.05,1.5-1.785,1.5-.8,0-.945-.139-.945-1.33v-2.415c-.106-.665-.525-.735-1.085-.735h-5.6c-.8,0-1.3,0-1.3.98,0,.35.106,1.891.106,2.2,0,.666-.106.981-.42,1.191a2.486,2.486,0,0,1-1.33.489c-.6,0-.875-.385-.875-1.085,0-.28.034-1.61.034-1.854,0-1.366,0-1.926-1.085-1.926Zm2.486,17.887a17.911,17.911,0,0,1,2.7,1.645.87.87,0,0,1,.28.526c0,.42-.28.489-1.12.7-.1.035-3.116,2.38-3.676,2.8a21.508,21.508,0,0,1-5.32,3.045.112.112,0,0,1-.105-.105c0-.07,1.855-1.68,2.1-1.926,2.906-2.764,4.691-5.53,5.005-6.65A.213.213,0,0,1,870.1,1776.36Zm1.61-1.856c-2.73,0-3.746.035-4.446.106-.1,0-.63.07-.735.07s-.174-.07-.315-.21l-.665-.806c-.14-.175-.14-.175-.14-.244,0-.035.035-.07.1-.07.245,0,1.33.1,1.54.1,1.716.106,3.185.141,4.831.141h2.625c.351,0,1.05,0,1.05-.945,0-.42-.21-3.255-.28-3.606,0-.07-.21-.42-.21-.49s.07-.21.35-.21c.245,0,2.7.525,3.045.63.49.1.666.421.666.6,0,.21-.07.28-.6.735-.49.42-.49.629-.49,1.68,0,1.259,0,1.61,1.051,1.61h1.54c1.54,0,1.715,0,2.24-.6.98-1.155,1.085-1.3,1.4-1.3.209,0,3.254,1.891,3.254,2.311,0,.489-.7.489-1.855.489h-6.615c-1.051,0-1.051.631-1.051,1.751,0,2.486,0,3.886.07,5.95.035.6.035,1.436.035,1.856,0,1.12-.28,1.785-1.785,1.785-.77,0-.84-.63-.84-1.225,0-.455.1-2.555.1-3.01.035-1.33.035-2.626.035-4.236a21.251,21.251,0,0,0-.07-2.381c-.175-.49-.735-.49-1.015-.49Zm9.346,2.942c0-.106.175-.141.315-.141,1.295,0,9.276,2.2,9.276,5.11,0,1.12-.63,1.995-1.505,1.995-.665,0-.806-.174-1.891-1.785a16.63,16.63,0,0,0-6.02-5.04C881.191,1777.585,881.052,1777.48,881.052,1777.446Z" fill="#4d4d4d"/>
    <path id="パス_846" data-name="パス 846" d="M918.215,1759.733c0,.1.069.246.069.385a26.7,26.7,0,0,1,.351,3.781c0,2.345-.526,5.6-3.606,10.256-2.8,4.27-4.586,5.111-5.985,5.111-2.311,0-4.376-3.606-4.376-7.877a12.329,12.329,0,0,1,3.886-8.926,14.483,14.483,0,0,1,11.166-4.55,11.41,11.41,0,0,1,5.636,1.12,10.973,10.973,0,0,1,6.09,10.186,13.054,13.054,0,0,1-8.821,12.321,21.543,21.543,0,0,1-5.81,1.3c-.14,0-.35-.035-.35-.246,0-.1.069-.139.944-.489,3.641-1.436,11.237-4.446,11.237-13.161,0-1.365-.14-9.7-9.7-9.7C918.25,1759.243,918.215,1759.524,918.215,1759.733Zm-11.377,10.746c0,2.275.91,5.39,3.046,5.39,1.014,0,1.855-.419,4.27-4.059a20.019,20.019,0,0,0,3.431-10.187c0-2.1-.141-2.275-.6-2.275C913.664,1759.348,906.838,1763.864,906.838,1770.479Z" fill="#4d4d4d"/>
    <path id="パス_851" data-name="パス 851" d="M1103.007,1774.084c-.91,0-.91.526-.91.946,0,.839.035,4.445.035,5.18,0,.21,0,.7.559.7.281,0,3.151-1.19,3.466-1.33a.762.762,0,0,0,.49-.629,6.947,6.947,0,0,0-1.121-2.171,7.337,7.337,0,0,1-.7-.945c0-.035.071-.035.106-.035.665,0,5.145,2.1,5.145,4.971,0,.979-.49,1.68-1.155,1.68-.63,0-.77-.35-1.33-1.646-.21-.524-.315-.805-.7-.805-.455,0-6.721,4.1-6.966,4.656-.35.7-.385.805-.735.805-.6,0-1.47-2.8-1.47-3.046s.14-.314.385-.314c1.82,0,1.82-.21,1.82-1.716v-10.5c0-2.415,0-5.985-.56-5.985-.139,0-2.45,1.855-2.66,1.855-.07,0-.105,0-.105-.07,0-.035.945-1.225,1.12-1.471a53.539,53.539,0,0,0,6.02-9.73c.176-.665.176-.736.455-.736.21,0,2.731,1.226,2.731,1.96a.527.527,0,0,1-.315.455c-.211.106-.35.176-.35.351s0,.175,1.05.6c.665.245,4.095,1.645,4.095,4.166a1.151,1.151,0,0,1-1.155,1.295c-.35,0-.8-.106-1.47-1.506-.63-1.33-2.765-3.885-3.22-3.885-.281,0-.455.245-.63.49a47.055,47.055,0,0,1-4.62,5.356c-.106.07-.176.139-.176.245s.07.139.876.559c1.05.526,1.154.6,1.644.6,1.016,0,1.051-.315,1.051-1.051a7.534,7.534,0,0,0-.176-2.1c-.035-.176-.279-.84-.279-.981,0-.07.069-.175.35-.175s2.975.385,2.975,1.226c0,.1-.386.524-.455.629-.14.28-.14.421-.14,1.435,0,.491,0,1.016.735,1.016.77,0,.875,0,1.155-.28.63-.736.84-.945,1.12-.945.245,0,1.89,1.014,1.89,1.645,0,.21-.595.981-.665,1.154a8.869,8.869,0,0,0-.1,1.716c0,.945.1,5.251.1,6.091,0,.665,0,1.89-1.47,1.89-.77,0-.84-.42-.91-1.015-.1-.6-.7-.6-.945-.6Zm4.025-5.46c.91,0,.91-.49.91-1.26,0-1.68,0-2.03-.91-2.03h-4.025c-.91,0-.91.525-.91,1.26,0,1.715,0,2.03.91,2.03Zm-.07,4.516c.91,0,.98,0,.98-2.766,0-.8-.525-.8-.91-.8h-4.025c-.91,0-.91.314-.91,1.364,0,2,0,2.206.91,2.206Zm16.627-10.642a.979.979,0,0,0,1.05-.559c.49-.806.525-.91.77-.91.28,0,3.43,1.679,3.43,2.485,0,.7-.385.734-2.31.979a4.1,4.1,0,0,0-2.31,1.121c-.071.035-.42.28-.455.28s-.071,0-.071-.035c0-.175.491-1.611.491-1.925,0-.526-.35-.526-.665-.526h-3.011c-.489,0-.944.036-.944.875,0,10.607,7.876,17.538,8.26,17.852.245.211,1.54,1.121,1.54,1.3,0,.1-.594.21-.63.21a6.2,6.2,0,0,0-2.1.7,3.464,3.464,0,0,1-.77.455c-.7,0-4.76-4.831-6.51-15.122-.036-.1-.106-.56-.21-.56-.141,0-.176.315-.21.666-.526,4.235-2.066,11.411-8.892,14.491a6.6,6.6,0,0,1-2.485.665c-.14,0-.175,0-.175-.106a3.679,3.679,0,0,1,.77-.489c1.855-.945,5.531-2.835,7.386-9.171a39.467,39.467,0,0,0,1.47-10.606c0-.63,0-1.156-.805-1.156s-.875.106-1.54,1.085a28.434,28.434,0,0,1-2.871,3.676.092.092,0,0,1-.1-.1c0-.211,1.085-2.556,1.294-3.046.771-1.96,2.941-7.911,2.941-9.871,0-1.015,0-1.191.455-1.191.49,0,3.395,1.4,3.395,1.961,0,.28-.1.35-.735.735-.42.28-2.8,5.461-2.8,5.461,0,.384.385.384.595.384Z" fill="#4d4d4d"/>
    <path id="パス_852" data-name="パス 852" d="M1151.209,1759.173c-.455,0-1.925,1.261-2.484,1.75-.455.421-1.785,1.61-2.7,1.61-1.3,0-2.275-2.485-2.275-2.589,0-.211.069-.351.279-.351s1.016.14,1.191.14c1.12,0,1.54-.07,3.64-1.4a6.013,6.013,0,0,1,3.361-1.155c2.31,0,2.835,1.575,2.835,2.1,0,.735-.315,1.156-2.135,2.836a31.775,31.775,0,0,0-5.146,7.1c0,.176.245.21.35.21.455,0,2.415-.034,2.836,0a28.376,28.376,0,0,1,6.615,1.4,1.4,1.4,0,0,0,.561.14c.455,0,.665-2.87.665-3.22,0-.28-.21-1.82-.21-1.96,0-.211.244-.211.385-.211.1,0,3.15.561,3.15,1.926a7.5,7.5,0,0,1-.771,1.365c0,.071-.49,2.87-.49,2.975,0,.455.21.561.806.875,1.365.735,4.55,2.381,4.55,4.2a1.354,1.354,0,0,1-1.295,1.33c-.7,0-1.085-.28-3.535-2.381-.071-.034-1.085-.91-1.436-.91-.279,0-.385.246-.489.421a15.109,15.109,0,0,1-6.862,6.476,12.934,12.934,0,0,1-3.78,1.4c-.035,0-.28,0-.28-.1a5.662,5.662,0,0,1,.665-.491c3.466-2.379,5.181-3.78,7.211-6.93a6.458,6.458,0,0,0,1.05-1.995c0-.315,0-.491-1.925-1.436a15.174,15.174,0,0,0-6.441-1.574c-2.169,0-2.24.139-2.836,1.4-3.009,6.407-3.6,7.7-5.81,7.7-1.785,0-2.31-1.925-2.31-2.8,0-2.976,3.116-5.637,6.79-6.932a1.264,1.264,0,0,0,.876-.7c.805-1.3,5.18-7.911,5.356-8.227a4.953,4.953,0,0,0,.455-1.575A.452.452,0,0,0,1151.209,1759.173Zm-11.726,16.872c0,.595.281,1.015.911,1.015,1.924,0,4.2-5.146,4.2-5.285,0-.106-.035-.175-.14-.175C1143.193,1771.6,1139.483,1773.98,1139.483,1776.045Z" fill="#4d4d4d"/>
    <path id="パス_853" data-name="パス 853" d="M1179.146,1762.078c-.805,0-3.221,0-4.446.071a5.32,5.32,0,0,1-.735.1c-.1,0-.175-.1-.315-.245l-.666-.805c-.139-.14-.139-.174-.139-.21a.092.092,0,0,1,.1-.1c.245,0,1.33.1,1.575.14,1.576.069,3.151.1,4.795.1h6.862c1.014,0,1.014-.455,1.014-2.45a22.157,22.157,0,0,0-.174-3.22c-.036-.211-.246-1.051-.246-1.225,0-.21.246-.21.385-.21s3.711.735,3.711,1.54c0,.35-.07.385-.665.945-.455.385-.49,1.3-.49,1.855,0,2.625.21,2.765,1.12,2.765h6.966c1.3,0,1.644,0,2.1-.524.21-.316,1.121-1.96,1.471-1.96.525,0,3.325,2.414,3.325,2.9,0,.525-.665.525-1.855.525h-15.717c-.385,0-.524,0-.524.141,0,.244.139.244,1.505.455.525.069,1.54.279,1.54.77,0,.28-.981,1.155-1.085,1.4a9.7,9.7,0,0,0-.561,2.555c0,.7.735.7.876.7h7.735a1.662,1.662,0,0,0,1.47-.524,4.132,4.132,0,0,1,.806-.7c.175,0,3.045,1.75,3.045,2.24,0,.281-.91,1.086-1.015,1.3a34.727,34.727,0,0,0-.98,4.9c-1.085,5.006-2.17,6.86-3.255,8.121a6.927,6.927,0,0,1-4.026,2.31c-.42,0-.42-.245-.42-.56,0-1.505-1.82-2.625-2.905-3.186-.806-.419-.91-.455-.91-.559,0-.07.034-.28.35-.28a5.932,5.932,0,0,1,1.435.384,10.578,10.578,0,0,0,2.765.455c1.47,0,3.081-.875,4.2-5.495a35.879,35.879,0,0,0,.909-6.546c0-.91-.595-.91-1.12-.91h-8.226c-.979,0-1.049.175-1.469,1.995-2.731,11.376-11.657,13.547-12.112,13.547-.1,0-.315,0-.315-.105,0-.14.42-.385.84-.595a20.75,20.75,0,0,0,7.526-8.436,32.861,32.861,0,0,0,2.555-11.061c0-2.311-.595-2.311-1.3-2.311Z" fill="#4d4d4d"/>
    <g id="グループ_526" data-name="グループ 526" transform="translate(-128.058 110.354)">
      <path id="パス_2251" data-name="パス 2251" d="M1090.925,1653.444c0,1.155-2.66,2.205-3.5,2.555-.49.175-.525.315-.594,1.54-.071.77-.071,3.605-.071,3.78,0,.211,0,.631.315.631.105,0,2.975-1.191,3.536-1.4,3.465-1.295,5.04-1.4,5.95-1.4a5.359,5.359,0,0,1,5.391,5.286c0,4.62-4.866,6.721-7.736,6.721-1.995,0-3.6-1.015-3.6-2.836a3.118,3.118,0,0,1,1.75-2.765.188.188,0,0,1,.175.175c0,.1-.071.175-.14.28a1.448,1.448,0,0,0-.315.945c0,1.68,1.925,1.68,2.275,1.68,2.311,0,5.251-1.54,5.251-4.34a3.628,3.628,0,0,0-3.36-3.851c-.981,0-3.151.456-7.247,2.626-1.959,1.05-2.169,1.155-2.169,1.75,0,.385.1,1.96.1,2.31,0,1.61-.525,3.921-1.785,3.921-.945,0-1.33-.735-1.61-1.3-1.121-2.171-1.3-2.171-1.75-2.171a2.908,2.908,0,0,0-.875.21,6.9,6.9,0,0,1-1.331.7c-.384,0-2.169-1.05-2.169-2.2,0-.63.384-1.365,1.014-1.365.21,0,1.226.175,1.436.175.944,0,1.575-.175,3.639-1.19,1.786-.875,2-.98,2-1.96,0-.806-.035-3.781-.07-4.376,0-.245-.105-.77-.49-.77a8.183,8.183,0,0,0-1.61.315,7.51,7.51,0,0,1-2.486.665c-1.189,0-2.519-2.415-2.519-2.66a.247.247,0,0,1,.279-.245c.1,0,.525.14.63.14a10.182,10.182,0,0,0,1.61.175,15.291,15.291,0,0,0,4.446-1.05,26.184,26.184,0,0,0,.35-3.815,3.437,3.437,0,0,0-1.155-2.8,3.508,3.508,0,0,1-.49-.56c0-.315.56-.385.77-.385,2.345,0,3.606,1.715,3.606,2.38a14.043,14.043,0,0,1-.736,1.821,18.682,18.682,0,0,0-.349,2.275c0,.14.069.385.279.385.245,0,1.226-.385,1.226-.875,0-.07-.175-.42-.175-.49,0-.035.069-.1.139-.14C1089.246,1651.869,1090.925,1652.359,1090.925,1653.444Zm-7.98,13.406c0,.525.945,1.645,1.47,1.645.49,0,.98-.98.98-2.695,0-.14,0-.49-.1-.56C1085.185,1665.24,1082.945,1666.36,1082.945,1666.85Zm23-10.886c0,.735-.42,1.68-1.155,1.68-.21,0-1.015-.07-1.19-.07-.175.035-.91.245-1.051.245a.163.163,0,0,1-.174-.175,2.408,2.408,0,0,1,.105-.28,1.866,1.866,0,0,0,.14-.63c0-1.4-1.75-1.89-2.941-1.89a3.042,3.042,0,0,0-1.365.35.782.782,0,0,1-.35.1c-.105,0-.14-.035-.14-.14a4.478,4.478,0,0,1,3.781-2.205C1104.3,1652.954,1105.942,1654.354,1105.942,1655.964Z" fill="#4d4d4d"/>
      <path id="パス_2252" data-name="パス 2252" d="M1122.3,1653.234a4.8,4.8,0,0,1-.42,1.4,12.362,12.362,0,0,0-.84,4.515c0,3.536,1.82,6.091,2.9,6.091.6,0,.735-.175,1.785-1.925.21-.35.806-1.19,1.085-1.19.106,0,.176.14.176.28a4.093,4.093,0,0,1-.106.7,9.86,9.86,0,0,0-.455,2.66,4.758,4.758,0,0,0,.21,1.4,8.663,8.663,0,0,1,.281,1.155c0,.7-.736,1.085-1.331,1.085-2.24,0-6.65-3.675-6.65-10.361,0-.98.489-5.285.489-6.195a9.671,9.671,0,0,0-.245-2.031,4.753,4.753,0,0,1-.279-1.19c0-.105.14-.14.21-.14C1120.72,1649.488,1122.3,1652.289,1122.3,1653.234Zm17.081.8a8.709,8.709,0,0,1,3.116,6.686c0,.665-.07,2.31-1.75,2.31-1.715,0-1.715-1.891-1.715-2.345,0-2.906,0-4.376-1.856-6.231-.28-.28-1.679-1.365-1.679-1.575,0-.1.139-.175.314-.175A6.81,6.81,0,0,1,1139.376,1654.039Z" fill="#4d4d4d"/>
      <path id="パス_2253" data-name="パス 2253" d="M1162.914,1649.033a16.119,16.119,0,0,1-.665,1.961,84.142,84.142,0,0,0-1.47,12.461c0,3.535.665,6.686,5.355,6.686a17.246,17.246,0,0,0,7.351-1.821c.525-.245,3.185-1.715,3.325-1.715a.164.164,0,0,1,.176.175c0,.385-5.181,6.021-11.762,6.021-4.551,0-6.721-2.626-6.721-9.661,0-2.17.071-2.871.8-9.731.141-1.155.455-4.026.455-5.006a4.406,4.406,0,0,0-.314-1.715c-.035-.1-.385-.91-.385-.945,0-.245.279-.35.489-.35C1161.374,1645.393,1162.914,1648.228,1162.914,1649.033Z" fill="#4d4d4d"/>
      <path id="パス_2254" data-name="パス 2254" d="M1193.934,1653.234a4.778,4.778,0,0,1-.421,1.4,12.385,12.385,0,0,0-.84,4.515c0,3.536,1.821,6.091,2.906,6.091.595,0,.735-.175,1.785-1.925.21-.35.8-1.19,1.085-1.19.1,0,.176.14.176.28a4.2,4.2,0,0,1-.106.7,9.821,9.821,0,0,0-.455,2.66,4.721,4.721,0,0,0,.21,1.4,8.782,8.782,0,0,1,.28,1.155c0,.7-.735,1.085-1.33,1.085-2.24,0-6.65-3.675-6.65-10.361,0-.98.489-5.285.489-6.195a9.745,9.745,0,0,0-.245-2.031,4.75,4.75,0,0,1-.279-1.19c0-.105.139-.14.21-.14C1192.359,1649.488,1193.934,1652.289,1193.934,1653.234Zm17.081.8a8.711,8.711,0,0,1,3.115,6.686c0,.665-.069,2.31-1.75,2.31-1.714,0-1.714-1.891-1.714-2.345,0-2.906,0-4.376-1.856-6.231-.28-.28-1.68-1.365-1.68-1.575,0-.1.14-.175.315-.175A6.812,6.812,0,0,1,1211.015,1654.039Z" fill="#4d4d4d"/>
    </g>
  </g>
</svg>
