<svg id="lineup_reset_howto" xmlns="http://www.w3.org/2000/svg" width="477.638" height="32.099" viewBox="0 0 477.638 32.099">
  <g id="グループ_182" data-name="グループ 182" transform="translate(-725.608 -1753.746)">
    <path id="パス_918" data-name="パス 918" d="M726.973,1758.262c.84,0,2.766,1.225,2.766,1.82,0,.175-.07.98-.07,1.155,0,4.061.07,7.211.1,8.051.035.42.21,2.17.21,2.52,0,.91-.806,1.786-1.33,1.786-.771,0-1.575-1.856-1.575-2.766,0-.28.175-1.47.175-1.75.07-1.575.07-2.94.07-3.57,0-3.921-.176-4.726-1.261-5.986-.28-.315-.455-.525-.455-.8C725.608,1758.472,726.169,1758.262,726.973,1758.262Zm9.626-.98c-.42-.56-.455-.63-.455-.7,0-.1,0-.21,1.016-.21,2.1,0,3.85.875,3.85,1.785a13.608,13.608,0,0,1-.35,1.4c-.14.945-.175,6.2-.28,7.421a22.145,22.145,0,0,1-8.751,16.242,13.968,13.968,0,0,1-3.151,2.065c-.139,0-.21-.07-.21-.175,0-.14,2.276-2.38,2.7-2.836,6.755-7.21,7-13.3,7-20.3A6.687,6.687,0,0,0,736.6,1757.282Z" fill="#4d4d4d"/>
    <path id="パス_919" data-name="パス 919" d="M757.417,1767.888a7.737,7.737,0,0,0,1.295.105c1.4,0,1.995-.175,7.315-1.575.945-.245,1.016-.525,1.016-2.381,0-3.78-.421-4.375-1.261-5.635a6.976,6.976,0,0,1-.42-.665c0-.315,1.295-.6,1.61-.6.42,0,.8.175,2.415,1.54.106.1.736.7.736,1.05a10.75,10.75,0,0,1-.665,1.575,29.1,29.1,0,0,0-.526,3.361.618.618,0,0,0,.7.665,42.461,42.461,0,0,0,5.251-1.471,9.916,9.916,0,0,1,1.505-.735c.946,0,4.691,2.7,4.691,4.131,0,.245-.175.525-.63.525-.141,0-.806-.07-.945-.07-.736,0-1.121.245-2.38,1.015a29.215,29.215,0,0,1-2.626,1.575.2.2,0,0,1-.21-.21c0-.035.595-1.015.665-1.155a6,6,0,0,0,.98-2.905c0-.21-.035-.7-.42-.7-.07,0-5.32,1.715-5.775,1.855a1.315,1.315,0,0,0-1.086,1.505c0,2.94,0,6.091.07,6.756.281,2.765,2.241,3.08,4.341,3.08a29.71,29.71,0,0,0,3.851-.35,13.193,13.193,0,0,1,2.9-.49,1.356,1.356,0,0,1,1.47,1.12c0,2.24-5.881,2.24-7.771,2.24-6.055,0-6.791-1.575-6.791-7.385,0-.7.071-3.746.071-4.341,0-.56-.21-.805-.7-.805a25.567,25.567,0,0,0-3.291.98c-2.064,1.085-2.274,1.19-3.045,1.19-1.785,0-3.185-2.66-3.185-2.8,0-.1.14-.14.21-.14A2.055,2.055,0,0,1,757.417,1767.888Z" fill="#4d4d4d"/>
    <path id="パス_920" data-name="パス 920" d="M800.877,1772.823a1.274,1.274,0,0,1-1.191,1.331c-.77,0-1.014-.806-1.26-1.576a12.52,12.52,0,0,0-2.03-3.535c-.176-.245-.245-.35-.245-.455,0-.21.21-.315.455-.315C797.446,1768.273,800.877,1770.023,800.877,1772.823Zm10.815-7.21a2.261,2.261,0,0,1-.069-.315.237.237,0,0,1,.245-.245,7.814,7.814,0,0,1,1.575.875c.56.28,1.96,1.12,1.96,2.135,0,.28-.141.315-.735.665a28.514,28.514,0,0,0-1.786,3.01,30.651,30.651,0,0,1-14.246,12.357.226.226,0,0,1-.21-.21,14.949,14.949,0,0,1,1.96-1.471c7.456-5.7,11.551-12.286,11.551-15.3A3.533,3.533,0,0,0,811.692,1765.613Zm-5.46,3.4c0,1.015-.56,1.785-1.19,1.785-.771,0-.946-.875-1.05-1.47A11.012,11.012,0,0,0,802.7,1766a3.961,3.961,0,0,1-.386-.77c0-.1.175-.21.351-.175A4.436,4.436,0,0,1,806.232,1769.008Z" fill="#4d4d4d"/>
    <path id="パス_921" data-name="パス 921" d="M833.979,1756.617c1.261,0,3.781,1.12,3.781,2.24a10.152,10.152,0,0,1-.42,1.47,45.388,45.388,0,0,0-.315,4.866c0,.77.14.875,1.155,1.12,2.135.49,7.561,3.045,7.561,5.67a1.2,1.2,0,0,1-1.261,1.226c-.875,0-.979-.141-3.325-3.186-.98-1.295-2.625-2.94-3.71-2.94-.351,0-.49,0-.49,2.59,0,3.71.035,5.566.175,8.716.035.385.07,1.26.07,1.785,0,.875,0,3.185-1.016,3.185-1.049,0-1.96-2.38-1.96-3.29,0-.14.141-.875.141-1.015a72.727,72.727,0,0,0,.314-8.121c0-10.011,0-11.131-.419-12.251a3.885,3.885,0,0,0-1.191-1.61l-.069-.14C833.035,1756.617,833.944,1756.617,833.979,1756.617Z" fill="#4d4d4d"/>
    <path id="パス_922" data-name="パス 922" d="M883.03,1767.188a30.844,30.844,0,0,0,8.471,2.765c.139,0,.735.1.735.245,0,.1-.49.245-.631.28a6.061,6.061,0,0,0-2.66,1.89c-.1.14-.49.875-.665.875-.21,0-7.806-3.675-11.236-9.275-.665-1.121-.77-1.226-1.015-1.226s-.315.07-1.085.875a41.617,41.617,0,0,1-10.361,8.156,30.322,30.322,0,0,1-5.5,2.24c-.1,0-.175-.07-.175-.1s3.746-2.346,4.06-2.556c4.726-2.975,9.732-8.33,10.221-10.956.035-.28.07-.385.315-.385.175,0,3.011,1.085,3.186,1.19.105.035.455.175.455.525a2.151,2.151,0,0,1-.141.49C877.079,1762.742,880.09,1765.683,883.03,1767.188Zm-16.872-8.716c-2.591,0-3.78.07-4.445.1-.106,0-.63.07-.736.07s-.175-.07-.315-.21l-.665-.805c-.14-.175-.14-.175-.14-.245s.035-.07.106-.07c.244,0,1.33.1,1.54.1,1.714.07,3.184.14,4.83.14h1.015c.735,0,.945-.35.945-.945a5.679,5.679,0,0,0-.28-1.855,5.41,5.41,0,0,1-.21-.7c0-.175.175-.246.385-.246.245,0,1.82.385,2.205.49,1.05.28,1.26.351,1.26.665,0,.211-.034.281-.524.911a.857.857,0,0,0-.246.63c0,.84.281,1.05,1.225,1.05h5.777c.314,0,1.049,0,1.049-.945a14.538,14.538,0,0,0-.105-1.575c-.034-.175-.21-.911-.21-1.05,0-.176.21-.246.386-.246.244,0,2.625.56,3.009.665s.6.246.6.56c0,.211-.14.351-.524.631a1.122,1.122,0,0,0-.455.98c0,.98.559.98,1.12.98h1.785c1.54,0,1.715,0,2.24-.595.981-1.155,1.085-1.3,1.4-1.3.21,0,3.255,1.855,3.255,2.31,0,.49-.7.49-1.855.49H882.75c-1.085,0-1.085.56-1.085,1.4,0,.21.035,1.4.035,1.575,0,1.295-1.051,1.505-1.786,1.505-.8,0-.945-.14-.945-1.33v-2.415c-.1-.665-.525-.735-1.084-.735h-5.6c-.806,0-1.3,0-1.3.98,0,.35.105,1.89.105,2.2,0,.665-.105.98-.419,1.19a2.492,2.492,0,0,1-1.331.49c-.6,0-.875-.385-.875-1.085,0-.28.035-1.61.035-1.855,0-1.365,0-1.925-1.085-1.925Zm2.485,17.887a17.919,17.919,0,0,1,2.7,1.645.873.873,0,0,1,.28.525c0,.42-.28.49-1.12.7-.106.035-3.117,2.38-3.676,2.8a21.512,21.512,0,0,1-5.32,3.046.112.112,0,0,1-.106-.1c0-.07,1.856-1.68,2.1-1.926,2.905-2.765,4.69-5.53,5.005-6.65A.21.21,0,0,1,868.643,1776.359Zm1.611-1.856c-2.731,0-3.747.036-4.447.106-.1,0-.63.07-.734.07s-.175-.07-.316-.21l-.665-.805c-.139-.175-.139-.175-.139-.245,0-.036.035-.071.1-.071.245,0,1.33.1,1.54.1,1.716.1,3.186.141,4.831.141h2.625c.351,0,1.05,0,1.05-.946,0-.42-.21-3.255-.279-3.6,0-.07-.21-.42-.21-.49s.069-.21.35-.21c.245,0,2.7.525,3.044.63.491.1.666.42.666.595,0,.21-.07.28-.6.735-.49.42-.49.63-.49,1.68,0,1.26,0,1.611,1.05,1.611h1.54c1.54,0,1.715,0,2.241-.6.979-1.155,1.085-1.3,1.4-1.3.21,0,3.255,1.891,3.255,2.31,0,.49-.7.49-1.856.49H877.6c-1.05,0-1.05.631-1.05,1.751,0,2.485,0,3.885.07,5.95.035.595.035,1.435.035,1.856,0,1.12-.28,1.785-1.785,1.785-.771,0-.84-.63-.84-1.225,0-.455.1-2.555.1-3.011.036-1.33.036-2.625.036-4.235a20.913,20.913,0,0,0-.071-2.38c-.175-.491-.734-.491-1.014-.491Zm9.345,2.941c0-.1.175-.14.315-.14,1.3,0,9.276,2.205,9.276,5.11,0,1.12-.63,2-1.505,2-.665,0-.8-.175-1.89-1.785a16.624,16.624,0,0,0-6.021-5.041C879.739,1777.584,879.6,1777.479,879.6,1777.444Z" fill="#4d4d4d"/>
    <path id="パス_923" data-name="パス 923" d="M916.762,1759.732c0,.1.07.245.07.385a26.83,26.83,0,0,1,.35,3.781c0,2.345-.525,5.6-3.6,10.256-2.8,4.27-4.586,5.11-5.986,5.11-2.31,0-4.375-3.6-4.375-7.876a12.328,12.328,0,0,1,3.885-8.926,14.484,14.484,0,0,1,11.166-4.55,11.4,11.4,0,0,1,5.636,1.12,10.973,10.973,0,0,1,6.091,10.186,13.054,13.054,0,0,1-8.821,12.321,21.541,21.541,0,0,1-5.811,1.3c-.14,0-.35-.036-.35-.246,0-.1.07-.139.945-.49,3.64-1.435,11.236-4.445,11.236-13.161,0-1.365-.14-9.7-9.7-9.7C916.8,1759.242,916.762,1759.522,916.762,1759.732Zm-11.376,10.746c0,2.275.91,5.391,3.045,5.391,1.015,0,1.856-.42,4.271-4.061a20.02,20.02,0,0,0,3.43-10.186c0-2.1-.14-2.275-.6-2.275C912.212,1759.347,905.386,1763.862,905.386,1770.478Z" fill="#4d4d4d"/>
    <path id="パス_928" data-name="パス 928" d="M1101.554,1774.084c-.91,0-.91.525-.91.945,0,.84.035,4.445.035,5.18,0,.21,0,.7.56.7.28,0,3.15-1.19,3.466-1.33a.763.763,0,0,0,.489-.63,6.935,6.935,0,0,0-1.12-2.17,7.233,7.233,0,0,1-.7-.945c0-.035.069-.035.1-.035.665,0,5.146,2.1,5.146,4.97,0,.98-.49,1.681-1.156,1.681-.629,0-.769-.351-1.33-1.646-.21-.525-.314-.8-.7-.8-.455,0-6.721,4.1-6.966,4.656-.349.7-.384.8-.734.8-.6,0-1.471-2.8-1.471-3.046s.141-.315.386-.315c1.819,0,1.819-.21,1.819-1.715v-10.5c0-2.415,0-5.985-.559-5.985-.141,0-2.45,1.855-2.66,1.855-.071,0-.106,0-.106-.07,0-.035.945-1.225,1.12-1.471a53.646,53.646,0,0,0,6.021-9.731c.176-.665.176-.735.455-.735.21,0,2.73,1.225,2.73,1.961a.53.53,0,0,1-.314.455c-.211.1-.351.175-.351.35s0,.175,1.05.6c.665.245,4.1,1.645,4.1,4.165a1.151,1.151,0,0,1-1.156,1.3c-.349,0-.8-.1-1.469-1.505-.63-1.33-2.766-3.885-3.221-3.885-.28,0-.455.245-.63.49a46.931,46.931,0,0,1-4.62,5.356c-.1.069-.176.139-.176.244s.071.141.876.56c1.05.526,1.155.595,1.645.595,1.015,0,1.05-.315,1.05-1.05a7.6,7.6,0,0,0-.175-2.1c-.035-.175-.28-.84-.28-.98,0-.07.07-.175.35-.175s2.976.385,2.976,1.225c0,.1-.386.525-.455.63-.141.28-.141.42-.141,1.436,0,.49,0,1.014.735,1.014.771,0,.875,0,1.156-.279.629-.735.84-.946,1.12-.946.245,0,1.889,1.015,1.889,1.646,0,.21-.594.98-.665,1.155a8.935,8.935,0,0,0-.1,1.715c0,.945.1,5.25.1,6.091,0,.665,0,1.89-1.469,1.89-.771,0-.84-.42-.91-1.015-.1-.595-.7-.595-.946-.595Zm4.026-5.461c.91,0,.91-.49.91-1.26,0-1.68,0-2.03-.91-2.03h-4.026c-.91,0-.91.525-.91,1.26,0,1.715,0,2.03.91,2.03Zm-.07,4.515c.91,0,.98,0,.98-2.765,0-.805-.525-.805-.91-.805h-4.026c-.91,0-.91.315-.91,1.365,0,2,0,2.2.91,2.2Zm16.626-10.641a.979.979,0,0,0,1.05-.56c.49-.805.526-.91.771-.91.279,0,3.429,1.68,3.429,2.486,0,.7-.384.735-2.309.979a4.1,4.1,0,0,0-2.311,1.121c-.07.035-.42.28-.455.28s-.07,0-.07-.035c0-.175.49-1.61.49-1.926,0-.524-.35-.524-.665-.524h-3.01c-.49,0-.945.034-.945.875,0,10.606,7.876,17.536,8.261,17.851.245.21,1.54,1.12,1.54,1.295,0,.105-.595.21-.63.21a6.215,6.215,0,0,0-2.1.7,3.421,3.421,0,0,1-.769.455c-.7,0-4.761-4.831-6.511-15.122-.035-.1-.1-.56-.21-.56-.141,0-.176.315-.21.665-.525,4.235-2.065,11.411-8.891,14.492a6.592,6.592,0,0,1-2.486.665c-.139,0-.175,0-.175-.105a3.663,3.663,0,0,1,.771-.49c1.854-.945,5.53-2.836,7.386-9.171a39.5,39.5,0,0,0,1.469-10.606c0-.631,0-1.155-.8-1.155s-.875.1-1.54,1.084a28.5,28.5,0,0,1-2.871,3.676.093.093,0,0,1-.1-.1c0-.21,1.085-2.555,1.3-3.045.77-1.961,2.94-7.911,2.94-9.872,0-1.015,0-1.19.455-1.19.491,0,3.4,1.4,3.4,1.961,0,.28-.105.35-.735.735-.42.28-2.8,5.46-2.8,5.46,0,.385.385.385.595.385Z" fill="#4d4d4d"/>
    <path id="パス_929" data-name="パス 929" d="M1149.756,1759.172c-.454,0-1.924,1.26-2.484,1.75-.455.42-1.785,1.61-2.695,1.61-1.3,0-2.276-2.485-2.276-2.59,0-.21.07-.35.281-.35s1.014.14,1.189.14c1.12,0,1.54-.07,3.641-1.4a6.012,6.012,0,0,1,3.36-1.155c2.311,0,2.835,1.575,2.835,2.1,0,.735-.314,1.155-2.135,2.835a31.813,31.813,0,0,0-5.145,7.106c0,.175.245.21.349.21.455,0,2.415-.035,2.836,0a28.337,28.337,0,0,1,6.616,1.4,1.391,1.391,0,0,0,.56.14c.454,0,.665-2.87.665-3.22,0-.28-.211-1.82-.211-1.96,0-.21.245-.21.386-.21.1,0,3.15.56,3.15,1.925a7.559,7.559,0,0,1-.77,1.365c0,.07-.49,2.87-.49,2.975,0,.455.21.56.805.875,1.366.735,4.55,2.381,4.55,4.2a1.355,1.355,0,0,1-1.295,1.33c-.7,0-1.085-.28-3.535-2.38-.07-.035-1.085-.91-1.436-.91-.279,0-.384.245-.489.42a15.1,15.1,0,0,1-6.861,6.475,12.9,12.9,0,0,1-3.78,1.4c-.036,0-.281,0-.281-.1a5.648,5.648,0,0,1,.665-.49c3.466-2.38,5.181-3.78,7.211-6.93a6.424,6.424,0,0,0,1.051-2c0-.314,0-.49-1.926-1.435a15.156,15.156,0,0,0-6.44-1.575c-2.17,0-2.24.14-2.835,1.4-3.011,6.406-3.606,7.7-5.812,7.7-1.785,0-2.309-1.925-2.309-2.8,0-2.975,3.115-5.636,6.79-6.931a1.264,1.264,0,0,0,.876-.7c.805-1.295,5.18-7.911,5.355-8.226a4.933,4.933,0,0,0,.455-1.575A.451.451,0,0,0,1149.756,1759.172Zm-11.725,16.872c0,.6.28,1.015.91,1.015,1.925,0,4.2-5.146,4.2-5.286,0-.1-.035-.175-.139-.175C1141.741,1771.6,1138.031,1773.979,1138.031,1776.044Z" fill="#4d4d4d"/>
    <path id="パス_930" data-name="パス 930" d="M1177.693,1762.077c-.805,0-3.221,0-4.445.07a5.32,5.32,0,0,1-.736.1c-.1,0-.174-.1-.314-.245l-.665-.8c-.141-.14-.141-.175-.141-.21a.093.093,0,0,1,.106-.1c.245,0,1.33.1,1.575.14,1.575.07,3.15.1,4.8.1h6.861c1.015,0,1.015-.455,1.015-2.45a22.03,22.03,0,0,0-.175-3.221c-.035-.209-.245-1.05-.245-1.225,0-.21.245-.21.385-.21s3.711.736,3.711,1.541c0,.35-.071.385-.665.945-.456.385-.491,1.3-.491,1.855,0,2.625.21,2.765,1.121,2.765h6.965c1.3,0,1.645,0,2.1-.525.21-.315,1.12-1.96,1.471-1.96.524,0,3.325,2.415,3.325,2.905,0,.525-.665.525-1.856.525h-15.716c-.385,0-.525,0-.525.14,0,.245.14.245,1.505.455.525.07,1.54.28,1.54.77,0,.28-.979,1.155-1.085,1.4a9.743,9.743,0,0,0-.56,2.555c0,.7.735.7.875.7h7.736a1.661,1.661,0,0,0,1.47-.525,4.18,4.18,0,0,1,.805-.7c.175,0,3.045,1.75,3.045,2.24,0,.28-.91,1.085-1.014,1.295a34.867,34.867,0,0,0-.981,4.9c-1.085,5.005-2.17,6.86-3.255,8.12a6.922,6.922,0,0,1-4.025,2.311c-.42,0-.42-.245-.42-.56,0-1.505-1.82-2.626-2.905-3.186-.806-.42-.911-.455-.911-.56,0-.07.035-.28.35-.28a5.9,5.9,0,0,1,1.436.385,10.565,10.565,0,0,0,2.764.455c1.471,0,3.081-.875,4.2-5.495a35.893,35.893,0,0,0,.91-6.546c0-.91-.595-.91-1.12-.91h-8.226c-.98,0-1.05.175-1.47,1.995-2.73,11.376-11.656,13.547-12.111,13.547-.106,0-.316,0-.316-.1,0-.14.42-.385.84-.595a20.757,20.757,0,0,0,7.527-8.436,32.862,32.862,0,0,0,2.554-11.061c0-2.311-.594-2.311-1.3-2.311Z" fill="#4d4d4d"/>
    <g id="グループ_527" data-name="グループ 527" transform="translate(-129.807 110.353)">
      <path id="パス_2251" data-name="パス 2251" d="M1090.925,1653.444c0,1.155-2.66,2.205-3.5,2.555-.49.175-.525.315-.594,1.54-.071.77-.071,3.605-.071,3.78,0,.211,0,.631.315.631.105,0,2.975-1.191,3.536-1.4,3.465-1.295,5.04-1.4,5.95-1.4a5.359,5.359,0,0,1,5.391,5.286c0,4.62-4.866,6.721-7.736,6.721-1.995,0-3.6-1.015-3.6-2.836a3.118,3.118,0,0,1,1.75-2.765.188.188,0,0,1,.175.175c0,.1-.071.175-.14.28a1.448,1.448,0,0,0-.315.945c0,1.68,1.925,1.68,2.275,1.68,2.311,0,5.251-1.54,5.251-4.34a3.628,3.628,0,0,0-3.36-3.851c-.981,0-3.151.456-7.247,2.626-1.959,1.05-2.169,1.155-2.169,1.75,0,.385.1,1.96.1,2.31,0,1.61-.525,3.921-1.785,3.921-.945,0-1.33-.735-1.61-1.3-1.121-2.171-1.3-2.171-1.75-2.171a2.908,2.908,0,0,0-.875.21,6.9,6.9,0,0,1-1.331.7c-.384,0-2.169-1.05-2.169-2.2,0-.63.384-1.365,1.014-1.365.21,0,1.226.175,1.436.175.944,0,1.575-.175,3.639-1.19,1.786-.875,2-.98,2-1.96,0-.806-.035-3.781-.07-4.376,0-.245-.105-.77-.49-.77a8.183,8.183,0,0,0-1.61.315,7.51,7.51,0,0,1-2.486.665c-1.189,0-2.519-2.415-2.519-2.66a.247.247,0,0,1,.279-.245c.1,0,.525.14.63.14a10.182,10.182,0,0,0,1.61.175,15.291,15.291,0,0,0,4.446-1.05,26.184,26.184,0,0,0,.35-3.815,3.437,3.437,0,0,0-1.155-2.8,3.508,3.508,0,0,1-.49-.56c0-.315.56-.385.77-.385,2.345,0,3.606,1.715,3.606,2.38a14.043,14.043,0,0,1-.736,1.821,18.682,18.682,0,0,0-.349,2.275c0,.14.069.385.279.385.245,0,1.226-.385,1.226-.875,0-.07-.175-.42-.175-.49,0-.035.069-.1.139-.14C1089.246,1651.869,1090.925,1652.359,1090.925,1653.444Zm-7.98,13.406c0,.525.945,1.645,1.47,1.645.49,0,.98-.98.98-2.695,0-.14,0-.49-.1-.56C1085.185,1665.24,1082.945,1666.36,1082.945,1666.85Zm23-10.886c0,.735-.42,1.68-1.155,1.68-.21,0-1.015-.07-1.19-.07-.175.035-.91.245-1.051.245a.163.163,0,0,1-.174-.175,2.408,2.408,0,0,1,.105-.28,1.866,1.866,0,0,0,.14-.63c0-1.4-1.75-1.89-2.941-1.89a3.042,3.042,0,0,0-1.365.35.782.782,0,0,1-.35.1c-.105,0-.14-.035-.14-.14a4.478,4.478,0,0,1,3.781-2.205C1104.3,1652.954,1105.942,1654.354,1105.942,1655.964Z" fill="#4d4d4d"/>
      <path id="パス_2252" data-name="パス 2252" d="M1122.3,1653.234a4.8,4.8,0,0,1-.42,1.4,12.362,12.362,0,0,0-.84,4.515c0,3.536,1.82,6.091,2.9,6.091.6,0,.735-.175,1.785-1.925.21-.35.806-1.19,1.085-1.19.106,0,.176.14.176.28a4.093,4.093,0,0,1-.106.7,9.86,9.86,0,0,0-.455,2.66,4.758,4.758,0,0,0,.21,1.4,8.663,8.663,0,0,1,.281,1.155c0,.7-.736,1.085-1.331,1.085-2.24,0-6.65-3.675-6.65-10.361,0-.98.489-5.285.489-6.195a9.671,9.671,0,0,0-.245-2.031,4.753,4.753,0,0,1-.279-1.19c0-.105.14-.14.21-.14C1120.72,1649.488,1122.3,1652.289,1122.3,1653.234Zm17.081.8a8.709,8.709,0,0,1,3.116,6.686c0,.665-.07,2.31-1.75,2.31-1.715,0-1.715-1.891-1.715-2.345,0-2.906,0-4.376-1.856-6.231-.28-.28-1.679-1.365-1.679-1.575,0-.1.139-.175.314-.175A6.81,6.81,0,0,1,1139.376,1654.039Z" fill="#4d4d4d"/>
      <path id="パス_2253" data-name="パス 2253" d="M1162.914,1649.033a16.119,16.119,0,0,1-.665,1.961,84.142,84.142,0,0,0-1.47,12.461c0,3.535.665,6.686,5.355,6.686a17.246,17.246,0,0,0,7.351-1.821c.525-.245,3.185-1.715,3.325-1.715a.164.164,0,0,1,.176.175c0,.385-5.181,6.021-11.762,6.021-4.551,0-6.721-2.626-6.721-9.661,0-2.17.071-2.871.8-9.731.141-1.155.455-4.026.455-5.006a4.406,4.406,0,0,0-.314-1.715c-.035-.1-.385-.91-.385-.945,0-.245.279-.35.489-.35C1161.374,1645.393,1162.914,1648.228,1162.914,1649.033Z" fill="#4d4d4d"/>
      <path id="パス_2254" data-name="パス 2254" d="M1193.934,1653.234a4.778,4.778,0,0,1-.421,1.4,12.385,12.385,0,0,0-.84,4.515c0,3.536,1.821,6.091,2.906,6.091.595,0,.735-.175,1.785-1.925.21-.35.8-1.19,1.085-1.19.1,0,.176.14.176.28a4.2,4.2,0,0,1-.106.7,9.821,9.821,0,0,0-.455,2.66,4.721,4.721,0,0,0,.21,1.4,8.782,8.782,0,0,1,.28,1.155c0,.7-.735,1.085-1.33,1.085-2.24,0-6.65-3.675-6.65-10.361,0-.98.489-5.285.489-6.195a9.745,9.745,0,0,0-.245-2.031,4.75,4.75,0,0,1-.279-1.19c0-.105.139-.14.21-.14C1192.359,1649.488,1193.934,1652.289,1193.934,1653.234Zm17.081.8a8.711,8.711,0,0,1,3.115,6.686c0,.665-.069,2.31-1.75,2.31-1.714,0-1.714-1.891-1.714-2.345,0-2.906,0-4.376-1.856-6.231-.28-.28-1.68-1.365-1.68-1.575,0-.1.14-.175.315-.175A6.812,6.812,0,0,1,1211.015,1654.039Z" fill="#4d4d4d"/>
    </g>
  </g>
</svg>
