<svg id="lineup_singleorigin_ttl_sp" xmlns="http://www.w3.org/2000/svg" width="750" height="180" viewBox="0 0 750 180">
  <rect id="長方形_44" data-name="長方形 44" width="750" height="180" fill="#fff100" opacity="0"/>
  <g id="グループ_463" data-name="グループ 463" transform="translate(5047.812 1704.749)">
    <g id="グループ_460" data-name="グループ 460">
      <g id="グループ_459" data-name="グループ 459">
        <path id="パス_1973" data-name="パス 1973" d="M-4792.475-1556.56c1.1,0,6.347.115,6.347,3.978,0,2.346-1.771,3.4-3.059,4.025-.8.39-.9.436-.9.689a40.736,40.736,0,0,0,2.391,5.5,2.864,2.864,0,0,0,2.713,1.839c.231,0,.691,0,.691.368,0,.323-.46.368-.576.368h-2.874a1.126,1.126,0,0,1-1.081-.667c-.137-.229-1.77-3.793-2.023-4.369-1.265-2.782-1.426-3.15-2.231-3.15h-1.264c-.161,0-.46.093-.529.276-.092.23-.092,3.266-.092,3.794,0,2.782,0,3.38,2.115,3.38.161,0,.483,0,.483.368s-.414.368-.667.368h-5.679c-.231,0-.576-.045-.576-.368,0-.368.323-.368.645-.368,1.586,0,1.816-.735,1.885-1.586.046-.782.046-7.1.046-8.186a36.923,36.923,0,0,0-.184-4.645c-.3-.851-1.288-.851-1.816-.851-.138,0-.621,0-.621-.414,0-.345.414-.345.69-.345Zm-.828.759c-1.655,0-1.655,1.035-1.655,3.4,0,3.61,0,3.68.621,3.68h1.862c2.254,0,4.162-1.243,4.162-3.634,0-1.61-.874-3.449-3.863-3.449Z" fill="#333"/>
        <path id="パス_1974" data-name="パス 1974" d="M-4770.25-1540.533a5.976,5.976,0,0,0,5.5-2.85c.575-.9.621-.99.8-.99a.367.367,0,0,1,.39.368c0,.116-.827,2.3-.965,2.645-.575,1.494-.6,1.563-2.092,1.563h-10.832c-.39,0-.712,0-.712-.368s.23-.368.874-.368a1.525,1.525,0,0,0,1.748-1.2c.068-.391.091-5.68.091-6.347,0-.92,0-6.14-.069-6.554-.229-1.172-1.219-1.172-2.139-1.172-.161,0-.505,0-.505-.368,0-.391.322-.391.712-.391h10.487c1.425,0,1.54.046,2,1.173.138.322.989,2.437.989,2.6a.359.359,0,0,1-.368.345c-.138,0-.184-.046-.713-.781a5.6,5.6,0,0,0-4.415-2.576h-2.553a1.6,1.6,0,0,0-1.38.6c-.275.413-.275.62-.275,2.438,0,.3,0,3.425.068,3.609a.64.64,0,0,0,.553.3h2.023c2.6,0,2.6-1.565,2.6-2.576,0-.069,0-.46.367-.46.392,0,.368.391.368.575-.023.851,0,4.967,0,5.887,0,.115,0,.483-.368.483s-.367-.3-.367-.76c0-1.954-1.311-2.414-2.6-2.414h-2.023a.554.554,0,0,0-.6.53c-.022.183-.022,3.977-.022,4.322,0,1.61,0,2.736,1.655,2.736Z" fill="#333"/>
        <path id="パス_1975" data-name="パス 1975" d="M-4751.236-1540.533a6.79,6.79,0,0,0,5.795-3.127c.437-.643.483-.713.644-.713a.323.323,0,0,1,.345.345c0,.139-.873,2.392-1.012,2.76-.574,1.448-.667,1.471-2.161,1.471h-9.635c-.345,0-.667,0-.667-.368s.253-.368.828-.368a1.523,1.523,0,0,0,1.747-1.2c.07-.391.07-5.68.07-6.347,0-.92,0-6.14-.07-6.554-.207-1.172-1.219-1.172-2.069-1.172-.161,0-.506,0-.506-.368,0-.391.322-.391.667-.391h5.7c.368,0,.691,0,.691.391,0,.368-.253.368-.829.368a1.538,1.538,0,0,0-1.747,1.172c-.069.414-.069,5.313-.069,6.393,0,6.117,0,6.14.069,6.508a1.47,1.47,0,0,0,1.586,1.2Z" fill="#333"/>
        <path id="パス_1976" data-name="パス 1976" d="M-4727.062-1539.8c-.253,0-.552-.069-.552-.368,0-.368.369-.368.92-.368a1.009,1.009,0,0,0,.943-1.012,12.485,12.485,0,0,0-.851-2.69c-.506-1.287-.574-1.448-1.333-1.448h-4.99c-.851,0-.943.229-1.311,1.264a18.347,18.347,0,0,0-.828,2.99c0,.9.736.9,1.288.9.276,0,.529.047.529.368,0,.368-.345.368-.529.368h-4.415c-.184,0-.483-.023-.483-.344,0-.392.253-.392.782-.392a1.933,1.933,0,0,0,1.747-.919c.53-.713,2.231-6.117,2.737-7.75.3-.92,1.77-5.427,2.07-6.461.229-.8.367-1.334,2-1.334a.524.524,0,0,1,.506.368,15.215,15.215,0,0,1,.759,2.07c1.61,4.99,1.748,5.542,3.2,9.8,1.31,3.909,1.471,4.23,2.782,4.23.3,0,.529.139.529.392,0,.344-.368.344-.529.344Zm-1.08-6.645c.253,0,.574-.115.574-.368,0-.483-2.184-6.875-2.6-8.117-.138-.391-.184-.6-.345-.6-.138,0-.161.069-.414.828-.644,1.862-2.438,7.7-2.438,7.91,0,.345.346.345.645.345Z" fill="#333"/>
        <path id="パス_1977" data-name="パス 1977" d="M-4704.389-1556.56c1.242,0,1.519,0,1.909,1.035.184.506,1.173,3.1,1.173,3.334a.354.354,0,0,1-.368.345c-.184,0-.253-.092-.782-.966-1.219-2-2.575-2.989-4.139-2.989-.9,0-1.448.368-1.587,1.15-.068.414-.068,5.61-.068,6.576,0,.644,0,5.956.068,6.347.207,1.173,1.288,1.2,1.909,1.2.851,0,1.034,0,1.034.368s-.321.368-.689.368h-6.438c-.323,0-.667,0-.667-.368s.368-.368.505-.368c1.357,0,2.207,0,2.438-1.2.068-.368.068-.391.068-6.508,0-5.68,0-6.3-.16-6.737a1.434,1.434,0,0,0-1.472-.828c-1.839,0-3.2,1.449-4.139,2.966-.552.9-.6.989-.805.989a.373.373,0,0,1-.368-.345c0-.184,1.035-2.943,1.219-3.4.368-.966.736-.966,1.885-.966Z" fill="#333"/>
        <path id="パス_1978" data-name="パス 1978" d="M-4687.517-1540.533a5.975,5.975,0,0,0,5.5-2.85c.575-.9.621-.99.805-.99a.368.368,0,0,1,.391.368c0,.116-.828,2.3-.965,2.645-.575,1.494-.6,1.563-2.093,1.563h-10.831c-.391,0-.713,0-.713-.368s.23-.368.874-.368a1.524,1.524,0,0,0,1.748-1.2c.068-.391.092-5.68.092-6.347,0-.92,0-6.14-.069-6.554-.23-1.172-1.219-1.172-2.139-1.172-.161,0-.506,0-.506-.368,0-.391.322-.391.713-.391h10.486c1.425,0,1.54.046,2,1.173.138.322.989,2.437.989,2.6a.359.359,0,0,1-.368.345c-.137,0-.183-.046-.713-.781a5.594,5.594,0,0,0-4.415-2.576h-2.552a1.6,1.6,0,0,0-1.38.6c-.276.413-.276.62-.276,2.438,0,.3,0,3.425.07,3.609a.636.636,0,0,0,.551.3h2.024c2.6,0,2.6-1.565,2.6-2.576,0-.069,0-.46.367-.46.391,0,.368.391.368.575-.023.851,0,4.967,0,5.887,0,.115,0,.483-.368.483s-.367-.3-.367-.76c0-1.954-1.312-2.414-2.6-2.414h-2.024a.555.555,0,0,0-.6.53c-.023.183-.023,3.977-.023,4.322,0,1.61,0,2.736,1.656,2.736Z" fill="#333"/>
        <path id="パス_1979" data-name="パス 1979" d="M-4668.275-1556.56c7.795,0,8.715,5.519,8.715,8.163,0,4.968-2.828,8.6-8.508,8.6h-6.324c-.345,0-.667,0-.667-.368s.346-.368.484-.368c.9,0,1.885,0,2.092-1.2.069-.368.069-.391.069-6.508,0-1.08,0-6-.069-6.393a1.527,1.527,0,0,0-1.748-1.172c-.574,0-.828,0-.828-.368,0-.391.322-.391.667-.391Zm-.713.759a1.423,1.423,0,0,0-1.586,1.2c-.069.39-.069,5.335-.069,6.369,0,6.117,0,6.14.069,6.508a1.445,1.445,0,0,0,1.586,1.2h1.1c3.909,0,6.255-3.356,6.255-7.956,0-2.9-1.2-7.312-6.163-7.312Z" fill="#333"/>
        <path id="パス_1980" data-name="パス 1980" d="M-4640.6-1539.8c-.3,0-.644,0-.644-.368s.184-.368,1.081-.368c.667,0,1.77,0,2-1.2.068-.391.068-5.68.068-6.347,0-.942,0-6.14-.068-6.554-.231-1.172-1.058-1.172-2.576-1.172-.138,0-.506,0-.506-.368,0-.391.345-.391.667-.391h6.76c.277,0,.622,0,.622.391,0,.345-.208.345-1.058.345-.691,0-1.679.023-1.978,1.058-.091.322-.091,5.5-.091,6.553,0,6.094,0,6.117.068,6.485.207,1.2,1.035,1.2,2.575,1.2.115,0,.484,0,.484.368s-.345.368-.622.368Z" fill="#333"/>
        <path id="パス_1981" data-name="パス 1981" d="M-4614.96-1556.56c1.242,0,1.518,0,1.909,1.035.184.506,1.173,3.1,1.173,3.334a.354.354,0,0,1-.368.345c-.184,0-.253-.092-.783-.966-1.218-2-2.575-2.989-4.138-2.989-.9,0-1.448.368-1.587,1.15-.069.414-.069,5.61-.069,6.576,0,.644,0,5.956.069,6.347.207,1.173,1.288,1.2,1.909,1.2.851,0,1.034,0,1.034.368s-.321.368-.689.368h-6.439c-.322,0-.667,0-.667-.368s.368-.368.506-.368c1.357,0,2.207,0,2.438-1.2.068-.368.068-.391.068-6.508,0-5.68,0-6.3-.16-6.737a1.436,1.436,0,0,0-1.472-.828c-1.84,0-3.2,1.449-4.139,2.966-.552.9-.6.989-.8.989a.374.374,0,0,1-.368-.345c0-.184,1.035-2.943,1.218-3.4.369-.966.737-.966,1.886-.966Z" fill="#333"/>
        <path id="パス_1982" data-name="パス 1982" d="M-4598.088-1540.533a5.976,5.976,0,0,0,5.5-2.85c.575-.9.621-.99.8-.99a.367.367,0,0,1,.39.368c0,.116-.827,2.3-.965,2.645-.575,1.494-.6,1.563-2.092,1.563h-10.831c-.391,0-.713,0-.713-.368s.23-.368.874-.368a1.525,1.525,0,0,0,1.748-1.2c.068-.391.092-5.68.092-6.347,0-.92,0-6.14-.07-6.554-.229-1.172-1.219-1.172-2.138-1.172-.162,0-.506,0-.506-.368,0-.391.322-.391.713-.391h10.486c1.425,0,1.54.046,2,1.173.138.322.989,2.437.989,2.6a.359.359,0,0,1-.368.345c-.138,0-.184-.046-.713-.781a5.6,5.6,0,0,0-4.415-2.576h-2.553a1.6,1.6,0,0,0-1.38.6c-.275.413-.275.62-.275,2.438,0,.3,0,3.425.068,3.609a.64.64,0,0,0,.553.3h2.024c2.6,0,2.6-1.565,2.6-2.576,0-.069,0-.46.367-.46.392,0,.369.391.369.575-.024.851,0,4.967,0,5.887,0,.115,0,.483-.369.483s-.367-.3-.367-.76c0-1.954-1.311-2.414-2.6-2.414h-2.024a.554.554,0,0,0-.6.53c-.023.183-.023,3.977-.023,4.322,0,1.61,0,2.736,1.655,2.736Z" fill="#333"/>
        <path id="パス_1983" data-name="パス 1983" d="M-4585-1539.8c-.276,0-.6,0-.6-.368s.345-.368.46-.368c.759,0,1.77,0,1.978-1.2.069-.368.069-.391.069-6.508,0-1.08,0-6-.069-6.393a1.5,1.5,0,0,0-1.7-1.172c-.437,0-.758,0-.758-.368,0-.391.344-.391.62-.391h2.369c1.448,0,1.609,0,2.989,3.978.528,1.494,3.059,8.048,3.541,9.382.069.161.207.552.391.552.23,0,.368-.414.483-.713,1.2-3.1,3.035-8.071,4.231-11.176.667-1.747.758-2.023,2.23-2.023h2.714c.229,0,.575,0,.575.391,0,.368-.391.368-.46.368-.92,0-1.748.023-1.931,1.081-.07.46-.092,5.335-.092,6.438,0,6.163.022,6.209.092,6.554.161.942.874,1.2,1.7,1.2.368,0,.69,0,.69.368s-.346.368-.6.368h-5.564c-.322,0-.667,0-.667-.368s.368-.368.506-.368c.8,0,1.794,0,2.023-1.2.07-.391.07-6.071.07-6.99s-.046-4.991-.046-5.819c0-.114,0-.367-.161-.367-.138,0-.184.068-.437.759-.529,1.356-5.013,13.267-5.312,13.98-.23.53-.345.805-.6.805s-.391-.23-.781-1.219c-.783-2.046-4.807-12.646-4.991-12.945,0-.024-.091-.185-.183-.185s-.185.116-.185.391v9.543c0,2.185,0,3.242,1.633,3.242.3,0,.644,0,.644.368s-.345.368-.6.368Z" fill="#333"/>
        <path id="パス_1984" data-name="パス 1984" d="M-4558.5-1540.647c-.161-.414-1.151-3.013-1.151-3.151a.488.488,0,0,1,.507-.483c.253,0,.3.115.851.966a6.791,6.791,0,0,0,5.4,3.15,3.313,3.313,0,0,0,3.4-3.471c0-2.093-1.38-2.829-4.3-3.841-3.2-1.1-5.312-2.322-5.312-5.059a4.333,4.333,0,0,1,4.6-4.461,9.16,9.16,0,0,1,1.632.184c.253.046,1.219.253,1.38.253a.874.874,0,0,0,.506-.138c.321-.253.367-.3.529-.3.276,0,.344.207.575.8.161.368,1.241,3.081,1.241,3.22a.362.362,0,0,1-.391.367c-.183,0-.229-.069-.6-.666a5.331,5.331,0,0,0-4.692-2.967,2.941,2.941,0,0,0-3.127,3.035c0,1.909,1.38,2.6,4.392,3.656,4.645,1.61,5.266,3.45,5.266,5.22a4.875,4.875,0,0,1-4.99,4.967,7.357,7.357,0,0,1-2.483-.46,3.016,3.016,0,0,0-.92-.229,1.188,1.188,0,0,0-.874.3c-.391.345-.437.391-.667.391C-4558.014-1539.36-4558.06-1539.5-4558.5-1540.647Z" fill="#333"/>
      </g>
    </g>
    <g id="グループ_462" data-name="グループ 462">
      <g id="グループ_461" data-name="グループ 461">
        <path id="パス_1985" data-name="パス 1985" d="M-4827.146-1682.487c0,.75-.3,1.3-1.9,2.351a138.151,138.151,0,0,0-11.55,10c-1.851,1.85-4.651,5.05-4.651,5.4,0,.2.2.3.45.3,1.1,0,7.25-2.35,8.9-3,5.349-2.05,8.05-3.05,10.1-3.05,1.1,0,4.651.649,4.651,2.45,0,1.25-1.9,1.6-2.6,1.6-.3,0-1.6-.1-1.849-.1-4,0-13.551,1.95-13.551,9.1,0,4.7,3.149,5.45,8.95,6.8,2.5.6,3,2.1,3,2.55,0,1.05-1.55,1.6-3.3,1.6-.35,0-10.651-.6-10.651-9.05a12.306,12.306,0,0,1,2.2-6.951,19.221,19.221,0,0,0,1.2-1.55c0-.05-.05-.15-.2-.15a16.482,16.482,0,0,0-3.75,2c-2.7,1.949-3.4,2.449-4.95,2.449-2.05,0-2.6-2.449-2.6-2.9,0-.951.45-1.4,1.9-2.7.45-.35,9.2-10.7,11.05-12.55,1.55-1.551,4.6-4.7,4.6-5.851a.841.841,0,0,0-.851-.85,5.848,5.848,0,0,0-3.2,1.8c-1.349,1.4-1.9,2-3.75,2-2.7,0-3.5-4.25-3.5-4.4s.05-.4.35-.4c.15,0,2.1.351,2.45.351a6.187,6.187,0,0,0,1.75-.25c4.9-1.25,5.451-1.4,6.65-1.4A4.531,4.531,0,0,1-4827.146-1682.487Z" fill="#4d4d4d"/>
        <path id="パス_1986" data-name="パス 1986" d="M-4781.891-1681.587c0,.15.1.35.1.55a38.3,38.3,0,0,1,.5,5.4c0,3.349-.75,8-5.15,14.65-4,6.1-6.55,7.3-8.55,7.3-3.3,0-6.251-5.151-6.251-11.251a17.612,17.612,0,0,1,5.551-12.75,20.686,20.686,0,0,1,15.95-6.5c4.551,0,6.651.9,8.051,1.6a15.673,15.673,0,0,1,8.7,14.551,18.649,18.649,0,0,1-12.6,17.6,30.731,30.731,0,0,1-8.3,1.85c-.2,0-.5-.049-.5-.35,0-.15.1-.2,1.349-.7,5.2-2.051,16.051-6.351,16.051-18.8,0-1.95-.2-13.851-13.851-13.851C-4781.842-1682.287-4781.891-1681.886-4781.891-1681.587Zm-16.251,15.351c0,3.25,1.3,7.7,4.349,7.7,1.45,0,2.651-.6,6.1-5.8,2.65-4.05,4.9-9.6,4.9-14.55,0-3-.2-3.251-.849-3.251C-4788.392-1682.137-4798.142-1675.686-4798.142-1666.236Z" fill="#4d4d4d"/>
        <path id="パス_1987" data-name="パス 1987" d="M-4742.008-1672.837c-.2.2-4.3,4.3-4.8,4.3a.267.267,0,0,1-.25-.25c0-.2.049-.3.649-1.051a87.369,87.369,0,0,0,10.551-18.35c.65-1.75.7-1.95.95-1.95.351,0,4.2,2.6,4.2,3.4,0,.35-.05.4-1.7,1.2-.75.4-4.9,6.85-4.95,6.95a.543.543,0,0,0-.05.25c0,.55.6.9,1,1.1.25.15.65.4.65.851,0,.4-.2.6-.85,1.25-.45.5-.45,1.4-.45,6.05,0,13.351.1,14.25.25,21.351,0,.15.05.6.05.8a2.648,2.648,0,0,1-2.35,2.85c-1.3,0-1.3-1.2-1.3-1.8,0-2.2.3-19.352.3-22.6,0-.8,0-5.25-.55-5.45C-4740.957-1674.037-4741.258-1673.686-4742.008-1672.837Zm30.653-4a2.621,2.621,0,0,0,1.55-1.45c.349-.55.9-1.45,1.45-1.45.4,0,3.8,1.4,3.8,2.351a.868.868,0,0,1-.3.6c-.15.151-.75.6-.85.75-.5.551-.5.651-.5,5.551,0,2.65,0,10.65-.6,12.45a4.964,4.964,0,0,1-3.55,3.4.578.578,0,0,1-.5-.25c-1.05-1.4-1.351-1.85-2.6-2.451-.25-.149-1.849-.649-1.849-.95,0-.25.25-.25,1.1-.25,3.2,0,4.151,0,4.6-1.849.349-1.5.349-6.2.349-12.652,0-1.349,0-2.849-.7-2.849a1.548,1.548,0,0,0-.55.1l-4.349,1.7a1.913,1.913,0,0,0-1.351,1.351c-.15.85-.15,9.3-.15,10.7,0,1.05.051,6.051.051,7.2a2.271,2.271,0,0,1-2.251,2.3c-1.05,0-1.05-1.15-1.05-1.6,0-1,.2-5.951.2-7.1,0-1.35-.05-8.05-.05-9.55,0-.4,0-1.2-.5-1.2a2.525,2.525,0,0,0-.65.149l-3.55,1.4a1.7,1.7,0,0,0-1,1.7c-.051,1.4-.1,10.95-.1,13.251,0,6.15.7,6.65,9.251,6.65,6,0,8.351-.4,9.75-1.45,1.3-.95,2.6-4.4,3.251-6.45.25-.9.3-1.1.6-1.1s.3.151.3,1.2c0,.4-.05,2.45-.05,2.9a5.867,5.867,0,0,0,.5,2.35c.75.85.851.95.851,1.35,0,.95-1.3,2.45-3.3,3.25-2.75,1.1-8.651,1.1-10.9,1.1-11.7,0-13.251-.9-13.4-6.4-.05-1.4-.05-8.951-.05-10.751,0-5.4,0-5.55-.7-5.55-.649,0-5.2,2.2-5.25,2.2a.667.667,0,0,1-.45-.15l-1.3-.75c-.15-.1-.3-.15-.3-.25s0-.15.4-.25c1.05-.3,3.751-1.2,4.85-1.6,2.651-.9,2.651-1.05,2.651-3.1,0-.4-.1-6.849-.2-8.15,0-.25-.15-1.5-.15-1.8,0-.4.15-.55.5-.55.2,0,2.2.6,3.251.85.5.15,1.35.35,1.35,1.051a.988.988,0,0,1-.3.6,6.438,6.438,0,0,0-.851.95c-.3.6-.3,1.1-.3,5.4,0,1.95,0,2.15.6,2.15a1.279,1.279,0,0,0,.55-.1l3.15-1.25c1.65-.651,1.65-1,1.65-5.451,0-1.549-.15-9.2-.15-10.951,0-.55.15-.6.45-.6s4.35.65,4.35,1.4a1.156,1.156,0,0,1-.35.649c-.9.8-1,.9-1.15,1.3-.2.7-.2,9.351-.2,10.5,0,.25,0,1,.75,1a5.127,5.127,0,0,0,.6-.149Z" fill="#4d4d4d"/>
        <path id="パス_1988" data-name="パス 1988" d="M-4675.717-1668.486c0,1-.75,2.5-1.95,2.5-.75,0-1-.3-1.75-1.55a12.121,12.121,0,0,0-4.55-4.15c-.15-.1-.45-.3-.45-.5,0-.7,2.85-.75,3.5-.75C-4678.766-1672.936-4675.717-1670.936-4675.717-1668.486Zm-6.15,15.5c-.149-.25-1.05-1.3-1.2-1.55a2.124,2.124,0,0,1-.3-.95c0-.2.15-.351.45-.351.45,0,2.35.651,2.75.651,2.151,0,15.6-7.5,27.552-21.052a23.792,23.792,0,0,1,2.15-2.25.184.184,0,0,1,.2.2c0,.55-4.4,11.251-25.1,25.752-.6.4-3,2.651-3.65,2.651C-4680.117-1649.884-4680.617-1650.685-4681.867-1652.985Zm12.151-25.451c0,1.149-.8,2.25-1.6,2.25-.55,0-.8-.2-2.6-2.351a8.7,8.7,0,0,0-4.3-2.65c-.2-.05-.75-.2-.75-.35s1.4-.95,3.851-.95C-4669.716-1682.487-4669.716-1678.587-4669.716-1678.436Z" fill="#4d4d4d"/>
        <path id="パス_1989" data-name="パス 1989" d="M-4618.207-1657.336a35.051,35.051,0,0,0-4.9,4.1c-.949,1.15-1.05,1.25-1.8,1.25-2.7,0-6.4-3.2-6.4-5.2,0-.351.049-2.651.5-2.651a12.5,12.5,0,0,1,1.5.951,8.277,8.277,0,0,0,3.4,1.15c2.45,0,15.7-8.851,24-17.052.8-.8,2.2-2.2,2.3-2.2a.322.322,0,0,1,.25.25C-4599.355-1676.287-4605.206-1666.936-4618.207-1657.336Zm-4.1-16.451c-1.351,0-1.851-.8-3.5-3.3a11.276,11.276,0,0,0-4.55-4.1c-.2-.1-.45-.25-.45-.449s.4-.451,1.1-.451c5.35,0,9.55,2.85,9.55,5.8A2.208,2.208,0,0,1-4622.306-1673.787Z" fill="#4d4d4d"/>
        <path id="パス_1990" data-name="パス 1990" d="M-4573.772-1682.987c0-.5.7-.5,1.1-.5a4.675,4.675,0,0,1,4.651,2.8c0,.6-.5,1.25-1.5,2.5-.25.349-.4.55-.4.8,0,.4.6.4.8.4a28.308,28.308,0,0,0,7.6-2,9.352,9.352,0,0,1,2.35-.8c.451,0,.7.151,2.75,1.351.3.149,1.6.849,1.85,1a1.805,1.805,0,0,1,.95,1.25c0,.7-.349.9-2,1.9-.55.351-.75.651-2.5,3.351a61.129,61.129,0,0,1-17.9,18.8c-5.5,3.6-9.651,4.8-9.95,4.8a.449.449,0,0,1-.451-.45c0-.2.151-.3,1.7-1.15,15.251-8.4,24.751-25.451,24.751-27a.542.542,0,0,0-.55-.551c-.1,0-7,1.551-8.2,1.551-.3,0-1.651-.151-1.951-.151-.95,0-1.049.1-3.15,2.5-3.05,3.4-4.3,4.7-6.8,6.5-2.051,1.5-4.2,2.65-4.8,2.65-.25,0-.349-.15-.349-.3,0-.35,3.349-3.15,3.95-3.75,4.05-4.05,8.8-10.95,8.4-13.951C-4573.471-1681.687-4573.772-1682.787-4573.772-1682.987Zm23.552,1.7c0,.85-.6,1.95-1.451,1.95-.7,0-1.1-.3-2.65-2.15a15.787,15.787,0,0,0-3.55-2.95c-.25-.15-.75-.5-.75-.7s.4-.451.85-.451C-4551.371-1685.588-4550.22-1681.886-4550.22-1681.287Zm1.2-7.551c2.05,1.2,2.05,2.351,2.05,2.851a1.353,1.353,0,0,1-1.25,1.45c-1.05,0-1.55-.5-2.651-1.65a11.717,11.717,0,0,0-4.6-2.45c-.5-.151-.651-.4-.651-.55,0-.4,1.3-.7,1.8-.7C-4552.371-1689.887-4550.72-1689.887-4549.02-1688.838Z" fill="#4d4d4d"/>
        <path id="パス_1991" data-name="パス 1991" d="M-4526.727-1664.635c-3,6.5-8.251,9.5-9.251,9.5a.233.233,0,0,1-.25-.25c0-.4,1.6-2.151,2-2.651,5.5-7.55,6.049-13,6.049-14.65a10.965,10.965,0,0,0-.849-4.3,3.655,3.655,0,0,1-.2-.9c0-.151.049-.25.25-.25.349,0,5.65,1.7,5.65,4.25C-4523.327-1673.736-4525.878-1666.536-4526.727-1664.635Zm8.1,4.649c0-.25.25-1.55.3-1.8.15-.95.2-4.9.2-6.15,0-6.1-.6-8.151-.95-9.4a13.033,13.033,0,0,1-.65-1.8c0-.2.2-.25.3-.25.25,0,5.5.9,5.5,3.5,0,.6-.7,3.2-.8,3.75-.2,1.35-.4,7.4-.4,9.05,0,.651.05,1.651.95,1.651,1.5,0,6.1-3.3,10.9-8.152.85-.849,5.1-5.349,5.3-5.349a.215.215,0,0,1,.2.2c0,.4-2.9,6.6-11.652,14.3a27.968,27.968,0,0,0-3.45,3.2c-.849.95-1.3,1.3-1.649,1.35C-4515.976-1655.635-4518.627-1658.586-4518.627-1659.986Z" fill="#4d4d4d"/>
        <path id="パス_1992" data-name="パス 1992" d="M-4849.293-1608.936a25.362,25.362,0,0,0,4.1.3c2.7,0,10.1-.7,10.85-.85s1.1-.45,1.1-1.2c0-6.451-1.351-8.051-1.95-8.7-.2-.2-1.1-1.05-1.1-1.3,0-.45,2.351-.45,2.8-.45,2.45,0,3.95,1.55,3.95,2.05a11.66,11.66,0,0,1-.65,1.85c-.1.6-.151,3.351-.151,4.1,0,2.4.051,2.95,1.051,2.95s4.1-.551,5.3-.75c.351-.051,1.95-.551,2.25-.551.45,0,3.1.65,3.1,2.15,0,1.351-2.451,1.351-3.1,1.351s-3.45-.2-4.05-.2c-4.4,0-4.4.75-4.4,1.8,0,.75.55,12.4.65,13.5.1.9.6,4.65.6,5.4,0,2.65-1.651,4.65-3,4.65-1.151,0-1.4-.85-1.851-2.5a10.332,10.332,0,0,0-2.9-4.1,11.314,11.314,0,0,1-1.1-1.151c0-.1.151-.149.2-.149.1,0,3.9,1.45,4.451,1.45.65,0,.65-.8.65-1.2,0-5.5-.25-11.8-.351-12.051a.437.437,0,0,0-.45-.3c-.25,0-.349.1-1.2,1.15-7.2,8.9-15.151,13.6-16.2,13.6-.151,0-.3-.1-.3-.2a32.389,32.389,0,0,1,3.2-3c7.05-6.6,12.151-13.6,12.151-15.1a.525.525,0,0,0-.55-.55c-.9,0-6.8.75-7.7.95a26.013,26.013,0,0,1-3,.95c-1.5,0-4.6-3.4-4.6-4.15,0-.2.25-.25.3-.25C-4850.892-1609.436-4849.543-1608.986-4849.293-1608.936Z" fill="#4d4d4d"/>
        <path id="パス_1993" data-name="パス 1993" d="M-4795.532-1618.687c1.2,0,3.95,1.75,3.95,2.6,0,.25-.1,1.4-.1,1.65,0,5.8.1,10.3.149,11.5.051.6.3,3.1.3,3.6,0,1.3-1.151,2.55-1.9,2.55-1.1,0-2.25-2.65-2.25-3.95,0-.4.25-2.1.25-2.5.1-2.25.1-4.2.1-5.1,0-5.6-.25-6.75-1.8-8.549-.4-.451-.65-.751-.65-1.151C-4797.482-1618.387-4796.682-1618.687-4795.532-1618.687Zm13.751-1.4c-.6-.8-.65-.9-.65-1,0-.149,0-.3,1.45-.3,3,0,5.5,1.25,5.5,2.55a19.667,19.667,0,0,1-.5,2c-.2,1.35-.25,8.851-.4,10.6-.3,3.55-1.25,14.251-12.5,23.2-1.45,1.151-3.95,2.95-4.5,2.95-.2,0-.3-.1-.3-.25,0-.2,3.25-3.4,3.849-4.049,9.652-10.3,10-19,10-29C-4779.831-1617.287-4780.731-1618.587-4781.781-1620.088Z" fill="#4d4d4d"/>
        <path id="パス_1994" data-name="パス 1994" d="M-4743.761-1602.886c0,1.05-.7,2.5-1.9,2.5-.75,0-1-.3-1.75-1.551a12.96,12.96,0,0,0-4.55-4.1c-.15-.1-.5-.3-.5-.5,0-.751,3.2-.751,3.5-.751C-4746.811-1607.287-4743.761-1605.337-4743.761-1602.886Zm-5.9,15.351c-.15-.3-.95-1.35-1.05-1.6a2.033,2.033,0,0,1-.25-.9.366.366,0,0,1,.4-.4c.15,0,2.4.8,2.9.8,2.7,0,16.3-7.451,25.1-15.551.549-.55,3.45-3.5,3.6-3.5a.318.318,0,0,1,.3.3c0,.1-2.5,7.85-22.1,20.2-3.05,1.9-3.25,2.05-3.651,2.35-1.849,1.451-2.05,1.6-2.6,1.6C-4748.062-1584.235-4748.662-1585.385-4749.662-1587.535Zm11.951-25.351c0,1.3-.85,2.349-1.65,2.349-.55,0-.75-.25-2.5-2.3a8.457,8.457,0,0,0-4.351-2.7c-.7-.25-.75-.25-.75-.45,0-.55,2.3-1.05,3.8-1.05a6.885,6.885,0,0,1,2.551.5C-4739.311-1615.987-4737.711-1614.687-4737.711-1612.886Zm16.751-2.3c0,.6-.65,1.9-1.6,1.9-.75,0-1.2-.55-2.451-2.5a15.52,15.52,0,0,0-3.2-3.35c-.2-.15-.65-.6-.65-.8,0-.3.6-.35.9-.35C-4725.06-1620.287-4720.96-1617.837-4720.96-1615.187Zm5.25-3.4a1.471,1.471,0,0,1-1.35,1.6c-1.05,0-1.75-1.05-2.451-2.2a12.542,12.542,0,0,0-4.049-3.25c-.451-.25-.55-.5-.55-.6,0-.45,1-.45,1.9-.45C-4720.91-1623.487-4715.71-1622.037-4715.71-1618.587Z" fill="#4d4d4d"/>
        <path id="パス_1995" data-name="パス 1995" d="M-4683.662-1592.336a35.051,35.051,0,0,0-4.9,4.1c-.949,1.15-1.05,1.25-1.8,1.25-2.7,0-6.4-3.2-6.4-5.2,0-.351.049-2.651.5-2.651a12.5,12.5,0,0,1,1.5.951,8.279,8.279,0,0,0,3.4,1.15c2.45,0,15.7-8.851,24-17.052.8-.8,2.2-2.2,2.3-2.2a.322.322,0,0,1,.25.25C-4664.81-1611.287-4670.661-1601.936-4683.662-1592.336Zm-4.1-16.451c-1.351,0-1.851-.8-3.5-3.3a11.276,11.276,0,0,0-4.55-4.1c-.2-.1-.45-.25-.45-.449s.4-.451,1.1-.451c5.35,0,9.55,2.85,9.55,5.8A2.208,2.208,0,0,1-4687.761-1608.787Z" fill="#4d4d4d"/>
        <path id="パス_1996" data-name="パス 1996" d="M-4629.521-1616.587c0,.15.1.35.1.55a38.224,38.224,0,0,1,.5,5.4c0,3.349-.75,8-5.15,14.65-4,6.1-6.55,7.3-8.55,7.3-3.3,0-6.251-5.151-6.251-11.251a17.609,17.609,0,0,1,5.551-12.75,20.686,20.686,0,0,1,15.951-6.5c4.55,0,6.651.9,8.05,1.6a15.673,15.673,0,0,1,8.7,14.551,18.649,18.649,0,0,1-12.6,17.6,30.733,30.733,0,0,1-8.3,1.85c-.2,0-.5-.049-.5-.35,0-.15.1-.2,1.349-.7,5.2-2.051,16.051-6.351,16.051-18.8,0-1.95-.2-13.851-13.85-13.851C-4629.471-1617.287-4629.521-1616.886-4629.521-1616.587Zm-16.251,15.351c0,3.25,1.3,7.7,4.349,7.7,1.451,0,2.651-.6,6.1-5.8,2.65-4.05,4.9-9.6,4.9-14.55,0-3-.2-3.251-.849-3.251C-4636.022-1617.137-4645.772-1610.686-4645.772-1601.236Z" fill="#4d4d4d"/>
        <path id="パス_1997" data-name="パス 1997" d="M-4574.746-1610.486c0,1.649-3.8,3.149-5,3.649-.7.25-.75.451-.849,2.2-.1,1.1-.1,5.15-.1,5.4,0,.3,0,.9.449.9.151,0,4.251-1.7,5.051-2,4.95-1.85,7.2-2,8.5-2a7.656,7.656,0,0,1,7.7,7.55c0,6.6-6.951,9.6-11.051,9.6-2.85,0-5.15-1.45-5.15-4.05a4.454,4.454,0,0,1,2.5-3.95.267.267,0,0,1,.25.25c0,.149-.1.25-.2.4a2.072,2.072,0,0,0-.45,1.351c0,2.4,2.751,2.4,3.251,2.4,3.3,0,7.5-2.2,7.5-6.2a5.181,5.181,0,0,0-4.8-5.5c-1.4,0-4.5.65-10.351,3.75-2.8,1.5-3.1,1.65-3.1,2.5,0,.55.15,2.8.15,3.3,0,2.3-.75,5.6-2.551,5.6-1.349,0-1.9-1.05-2.3-1.85-1.6-3.1-1.85-3.1-2.5-3.1a4.134,4.134,0,0,0-1.25.3,9.957,9.957,0,0,1-1.9,1c-.55,0-3.1-1.5-3.1-3.15,0-.9.551-1.951,1.451-1.951.3,0,1.75.25,2.05.25,1.35,0,2.25-.25,5.2-1.7,2.549-1.25,2.849-1.4,2.849-2.8,0-1.15-.05-5.4-.1-6.251,0-.349-.151-1.1-.7-1.1a11.61,11.61,0,0,0-2.3.45c-2.551.85-2.8.95-3.551.95-1.7,0-3.6-3.45-3.6-3.8a.353.353,0,0,1,.4-.349c.15,0,.75.2.9.2a14.653,14.653,0,0,0,2.3.25,21.831,21.831,0,0,0,6.35-1.5,37.406,37.406,0,0,0,.5-5.451,4.909,4.909,0,0,0-1.65-4,4.991,4.991,0,0,1-.7-.8c0-.45.8-.55,1.1-.55,3.351,0,5.151,2.45,5.151,3.4a20.2,20.2,0,0,1-1.05,2.6,26.49,26.49,0,0,0-.5,3.25c0,.2.1.551.4.551.351,0,1.75-.551,1.75-1.251,0-.1-.25-.6-.25-.7,0-.051.1-.151.2-.2C-4577.146-1612.737-4574.746-1612.037-4574.746-1610.486Zm-11.4,19.15c0,.75,1.35,2.351,2.1,2.351.7,0,1.4-1.4,1.4-3.851,0-.2,0-.7-.151-.8C-4582.947-1593.635-4586.147-1592.036-4586.147-1591.336Zm32.852-15.55c0,1.049-.6,2.4-1.65,2.4-.3,0-1.45-.1-1.7-.1-.25.051-1.3.351-1.5.351a.233.233,0,0,1-.25-.25,3.3,3.3,0,0,1,.15-.4,2.63,2.63,0,0,0,.2-.9c0-2-2.5-2.7-4.2-2.7a4.32,4.32,0,0,0-1.95.5,1.119,1.119,0,0,1-.5.149c-.15,0-.2-.049-.2-.2a6.4,6.4,0,0,1,5.4-3.149C-4555.645-1611.186-4553.295-1609.186-4553.295-1606.886Z" fill="#4d4d4d"/>
        <path id="パス_1998" data-name="パス 1998" d="M-4507.281-1605.936a44.076,44.076,0,0,0,12.1,3.95c.2,0,1.049.15,1.049.35,0,.15-.7.35-.9.4a8.66,8.66,0,0,0-3.8,2.7c-.149.2-.7,1.25-.95,1.25-.3,0-11.15-5.25-16.051-13.251-.95-1.6-1.1-1.75-1.45-1.75s-.45.1-1.55,1.25a59.454,59.454,0,0,1-14.8,11.652c-1.7.9-6.9,3.2-7.85,3.2-.151,0-.25-.1-.25-.151s5.35-3.35,5.8-3.65c6.751-4.25,13.9-11.9,14.6-15.65.05-.4.1-.551.45-.551.25,0,4.3,1.551,4.55,1.7.151.05.651.25.651.75a3.158,3.158,0,0,1-.2.7C-4515.782-1612.287-4511.481-1608.087-4507.281-1605.936Zm-24.1-12.451c-3.7,0-5.4.1-6.35.15-.15,0-.9.1-1.05.1s-.25-.1-.45-.3l-.95-1.15c-.2-.25-.2-.25-.2-.35s.051-.1.151-.1c.349,0,1.9.15,2.2.15,2.45.1,4.55.2,6.9.2h1.451c1.049,0,1.349-.5,1.349-1.35a8.125,8.125,0,0,0-.4-2.65,7.5,7.5,0,0,1-.3-1c0-.25.25-.351.551-.351.349,0,2.6.551,3.15.7,1.5.4,1.8.5,1.8.951,0,.3-.05.4-.75,1.3a1.227,1.227,0,0,0-.351.9c0,1.2.4,1.5,1.75,1.5h8.251c.451,0,1.5,0,1.5-1.35a20.421,20.421,0,0,0-.15-2.25c-.05-.251-.3-1.3-.3-1.5,0-.25.3-.349.55-.349.351,0,3.751.8,4.3.95s.849.349.849.8c0,.3-.2.5-.75.9a1.6,1.6,0,0,0-.649,1.4c0,1.4.8,1.4,1.6,1.4h2.55c2.2,0,2.451,0,3.2-.85,1.4-1.65,1.549-1.85,2-1.85.3,0,4.65,2.65,4.65,3.3,0,.7-1,.7-2.65.7h-9.751c-1.55,0-1.55.8-1.55,2,0,.3.05,2,.05,2.25,0,1.849-1.5,2.149-2.55,2.149-1.151,0-1.351-.2-1.351-1.9v-3.451c-.149-.95-.75-1.05-1.55-1.05h-8c-1.149,0-1.849,0-1.849,1.4,0,.5.15,2.7.15,3.15,0,.951-.15,1.4-.6,1.7a3.558,3.558,0,0,1-1.9.7c-.849,0-1.25-.551-1.25-1.551,0-.4.051-2.3.051-2.649,0-1.951,0-2.751-1.551-2.751Zm3.55,25.551a25.556,25.556,0,0,1,3.851,2.351,1.241,1.241,0,0,1,.4.75c0,.6-.4.7-1.6,1-.15.05-4.451,3.4-5.25,4-4.5,3.2-7.351,4.351-7.6,4.351a.161.161,0,0,1-.15-.151c0-.1,2.65-2.4,3-2.75,4.15-3.95,6.7-7.9,7.151-9.5A.3.3,0,0,1-4527.833-1592.836Zm2.3-2.65c-3.9,0-5.351.051-6.351.15-.15,0-.9.1-1.049.1s-.25-.1-.451-.3l-.95-1.149c-.2-.25-.2-.25-.2-.351,0-.05.05-.1.15-.1.35,0,1.9.149,2.2.149,2.45.15,4.549.2,6.9.2h3.75c.5,0,1.5,0,1.5-1.349,0-.6-.3-4.651-.4-5.151,0-.1-.3-.6-.3-.7s.1-.3.5-.3c.35,0,3.85.75,4.35.9.7.15.951.6.951.85,0,.3-.1.4-.851,1.05-.7.6-.7.9-.7,2.4,0,1.8,0,2.3,1.5,2.3h2.2c2.2,0,2.45,0,3.2-.849,1.4-1.651,1.551-1.851,2-1.851.3,0,4.65,2.7,4.65,3.3,0,.7-1,.7-2.65.7h-9.451c-1.5,0-1.5.9-1.5,2.5,0,3.55,0,5.55.1,8.5.049.851.049,2.05.049,2.65,0,1.6-.4,2.55-2.549,2.55-1.1,0-1.2-.9-1.2-1.75,0-.65.15-3.65.15-4.3.05-1.9.05-3.751.05-6.05a30.286,30.286,0,0,0-.1-3.4c-.25-.7-1.05-.7-1.45-.7Zm13.351,4.2c0-.15.25-.2.45-.2,1.849,0,13.251,3.149,13.251,7.3,0,1.6-.9,2.85-2.151,2.85-.95,0-1.15-.25-2.7-2.549-2.35-3.551-5.8-5.6-8.6-7.2C-4511.981-1591.086-4512.181-1591.235-4512.181-1591.285Z" fill="#4d4d4d"/>
      </g>
    </g>
  </g>
</svg>
