<svg id="lineup_reset_graph" xmlns="http://www.w3.org/2000/svg" width="285.777" height="252.307" viewBox="0 0 285.777 252.307">
  <path id="パス_891" data-name="パス 891" d="M1193.608,1305.769l-62.851,20.709-81.9,20.35v90.325l81.9,20.35,62.851,20.709-13.508-77.024,21.206-27.18Z" transform="translate(-1015.212 -1265.805)" fill="#dbdfb8"/>
  <path id="パス_892" data-name="パス 892" d="M1193.608,1305.769h-71.429l-50.508,50.508v71.429l50.508,50.508h71.429l50.508-50.508v-71.429Z" transform="translate(-1015.212 -1265.805)" fill="none" stroke="#999" stroke-miterlimit="10" stroke-width="0.5"/>
  <path id="パス_893" data-name="パス 893" d="M1185.03,1326.478h-54.273l-38.377,38.377v54.273l38.377,38.377h54.273l38.377-38.377v-54.273Z" transform="translate(-1015.212 -1265.805)" fill="none" stroke="#999" stroke-miterlimit="10" stroke-width="0.5"/>
  <path id="パス_894" data-name="パス 894" d="M1175.875,1348.579h-35.964l-25.43,25.43v35.964l25.43,25.43h35.964l25.43-25.43v-35.964Z" transform="translate(-1015.212 -1265.805)" fill="none" stroke="#999" stroke-miterlimit="10" stroke-width="0.5"/>
  <path id="パス_895" data-name="パス 895" d="M1167.092,1369.785h-18.4l-13.008,13.008v18.4L1148.7,1414.2h18.4l13.008-13.008v-18.4Z" transform="translate(-1015.212 -1265.805)" fill="none" stroke="#999" stroke-miterlimit="10" stroke-width="0.5"/>
  <g id="グループ_173" data-name="グループ 173" transform="translate(-1015.212 -1265.805)">
    <path id="パス_896" data-name="パス 896" d="M1097.586,1269.495c0,.33.089.405.495.495a25.658,25.658,0,0,0,3.675.12c3.794,0,4.364-.03,4.649-.3a3.276,3.276,0,0,0,.436-1.815,3.589,3.589,0,0,0,.914.405,3.8,3.8,0,0,1-.7,2.13c-.435.405-.945.45-5.985.45a16.062,16.062,0,0,1-3.795-.225c-.479-.15-.63-.39-.63-1.02v-2.52a6.519,6.519,0,0,0-.09-1.29h1.125a5.035,5.035,0,0,0-.089,1.23v.7c1.529-.165,2.654-.33,3.854-.57a19.132,19.132,0,0,0,4.605-1.305l.735.9c-2.774.78-2.774.78-4.08,1.05-1.875.36-3.135.555-5.114.765Zm6.96,2.82a13.939,13.939,0,0,0,1.814-.075,13.818,13.818,0,0,0-.075,1.83v3.225a13.14,13.14,0,0,0,.09,1.86h-1.034v-.705h-7.186v.705h-1.02a12.982,12.982,0,0,0,.09-1.86v-3.225c0-.84-.03-1.335-.075-1.83a13.154,13.154,0,0,0,1.8.075Zm-6.391,2.565h7.186v-1.725h-7.186Zm0,2.73h7.186V1275.7h-7.186Z" fill="#4d4d4d"/>
    <path id="パス_897" data-name="パス 897" d="M1111.276,1277.13a11.993,11.993,0,0,0,.09-1.62v-7.02c0-.615-.029-1.11-.06-1.455a9.19,9.19,0,0,0,1.23.06h1.335a9.679,9.679,0,0,0,1.26-.06,13.05,13.05,0,0,0-.044,1.4v6.21a16.39,16.39,0,0,0,.059,1.65h-.96v-.78h-1.905v1.62Zm1.005-2.46h1.905v-6.705h-1.905Zm9.854-6.45a10.452,10.452,0,0,0,1.576-.09v1.035a11.827,11.827,0,0,0-1.59-.09h-1.965v2.535h2.535a11.977,11.977,0,0,0,1.71-.09v1.035a11.734,11.734,0,0,0-1.695-.09h-2.3a11.775,11.775,0,0,0,1.65,2.49,12.129,12.129,0,0,0,2.82,2.3,3.911,3.911,0,0,0-.645.93,16.482,16.482,0,0,1-2.415-2.205,10.078,10.078,0,0,1-1.725-2.79c.045.555.06.975.06,1.65v2.94a10.459,10.459,0,0,0,.09,1.59h-1.08a12.328,12.328,0,0,0,.09-1.59v-2.94c0-.57,0-.765.06-1.65a12.238,12.238,0,0,1-4.56,5.19,3.33,3.33,0,0,0-.72-.735,13.1,13.1,0,0,0,4.965-5.175h-2.1a8.627,8.627,0,0,0-1.44.075v-1.005a8.738,8.738,0,0,0,1.455.075h2.34v-2.535h-1.68a11.95,11.95,0,0,0-1.545.075v-1.005a14.782,14.782,0,0,0,1.545.075h1.68v-1.2a6.5,6.5,0,0,0-.075-1.215h1.05a6.794,6.794,0,0,0-.075,1.215v1.2Z" fill="#4d4d4d"/>
  </g>
  <g id="グループ_174" data-name="グループ 174" transform="translate(-1015.212 -1265.805)">
    <path id="パス_898" data-name="パス 898" d="M1194.241,1266.9a6.321,6.321,0,0,0-.091-1.08h1.1a6.206,6.206,0,0,0-.091,1.08v.48h3.6v-.48a6.538,6.538,0,0,0-.09-1.08h1.094a6.168,6.168,0,0,0-.089,1.08v.48h2.324a11.933,11.933,0,0,0,1.68-.09v1.035a12.386,12.386,0,0,0-1.68-.075h-2.324v.405a5.244,5.244,0,0,0,.074.975h-1.05a6.662,6.662,0,0,0,.061-.975v-.405h-3.6v.405a6.623,6.623,0,0,0,.061.99h-1.05a6.337,6.337,0,0,0,.075-.99v-.405h-2.176a12.123,12.123,0,0,0-1.664.075v-1.035a11.96,11.96,0,0,0,1.664.09h2.176Zm6.555,7.17a.77.77,0,1,1,1.019,1.14v2.805a9.768,9.768,0,0,0,.09,1.365h-1.05v-.855h-7.5v.855h-1.05a10.111,10.111,0,0,0,.09-1.365v-2.805a7.475,7.475,0,0,0-.074-1.2,7.207,7.207,0,0,0,1.095.06h3.014v-2.01h-4.319a15.75,15.75,0,0,0-1.695.075v-1.05a11.838,11.838,0,0,0,1.695.09h4.319v-.855a5.259,5.259,0,0,0-.089-1.215h1.109a6.707,6.707,0,0,0-.09,1.215v.855h4.606a11.854,11.854,0,0,0,1.694-.09v1.05a16.18,16.18,0,0,0-1.694-.075h-4.606v2.01Zm-7.441,3.57h7.5v-2.715h-7.5Z" fill="#4d4d4d"/>
    <path id="パス_899" data-name="パス 899" d="M1206.89,1277.13a11.993,11.993,0,0,0,.09-1.62v-7.02c0-.615-.029-1.11-.059-1.455a9.165,9.165,0,0,0,1.229.06h1.335a9.7,9.7,0,0,0,1.261-.06,12.951,12.951,0,0,0-.045,1.4v6.21c0,.7.015,1.215.059,1.65h-.96v-.78H1207.9v1.62Zm1.005-2.46h1.905v-6.705H1207.9Zm9.855-6.45a10.443,10.443,0,0,0,1.575-.09v1.035a11.824,11.824,0,0,0-1.59-.09h-1.965v2.535h2.535a11.977,11.977,0,0,0,1.71-.09v1.035a11.717,11.717,0,0,0-1.7-.09h-2.295a11.775,11.775,0,0,0,1.65,2.49,12.127,12.127,0,0,0,2.82,2.3,3.969,3.969,0,0,0-.645.93,16.482,16.482,0,0,1-2.415-2.205,10.1,10.1,0,0,1-1.724-2.79c.045.555.059.975.059,1.65v2.94a10.459,10.459,0,0,0,.09,1.59h-1.08a12.155,12.155,0,0,0,.09-1.59v-2.94c0-.57,0-.765.06-1.65a12.234,12.234,0,0,1-4.559,5.19,3.357,3.357,0,0,0-.721-.735,13.086,13.086,0,0,0,4.965-5.175h-2.1a8.63,8.63,0,0,0-1.44.075v-1.005a8.748,8.748,0,0,0,1.455.075h2.34v-2.535h-1.68a11.957,11.957,0,0,0-1.545.075v-1.005a14.781,14.781,0,0,0,1.545.075h1.68v-1.2a6.6,6.6,0,0,0-.074-1.215h1.049a6.794,6.794,0,0,0-.075,1.215v1.2Z" fill="#4d4d4d"/>
  </g>
  <g id="グループ_175" data-name="グループ 175" transform="translate(-1015.212 -1265.805)">
    <path id="パス_900" data-name="パス 900" d="M1280.285,1337.3a11.222,11.222,0,0,0-.09-1.725h1.186a11.148,11.148,0,0,0-.106,1.725v.84h.975a13.821,13.821,0,0,0,1.77-.1v1.139a14.772,14.772,0,0,0-1.77-.1h-.975v7.995a14.008,14.008,0,0,0,.106,1.77h-1.1v-.96h-5.834v.96h-1.1a12.1,12.1,0,0,0,.106-1.755v-8.01h-.976a11.472,11.472,0,0,0-1.71.1v-1.139a11.218,11.218,0,0,0,1.71.1h.976v-.9a9.716,9.716,0,0,0-.106-1.665h1.186a11.817,11.817,0,0,0-.09,1.665v.9h5.834Zm-5.834,1.769v3.24h5.834v-3.24Zm0,4.155v3.735h5.834v-3.735Z" fill="#4d4d4d"/>
    <path id="パス_901" data-name="パス 901" d="M1287.242,1346.746a12.152,12.152,0,0,0,.09-1.62v-7.02c0-.614-.03-1.109-.06-1.454a9.183,9.183,0,0,0,1.23.059h1.335a9.681,9.681,0,0,0,1.26-.059,12.929,12.929,0,0,0-.045,1.394v6.21a16.336,16.336,0,0,0,.06,1.65h-.96v-.78h-1.905v1.62Zm1.005-2.46h1.905v-6.7h-1.905Zm9.854-6.45a10.574,10.574,0,0,0,1.575-.089v1.035a11.634,11.634,0,0,0-1.589-.091h-1.965v2.535h2.535a12.156,12.156,0,0,0,1.71-.089v1.034a11.737,11.737,0,0,0-1.695-.09h-2.3a11.786,11.786,0,0,0,1.65,2.49,12.149,12.149,0,0,0,2.819,2.295,3.938,3.938,0,0,0-.644.93,16.433,16.433,0,0,1-2.415-2.205,10.078,10.078,0,0,1-1.725-2.79c.045.555.06.975.06,1.65v2.94a10.318,10.318,0,0,0,.09,1.59h-1.081a12.134,12.134,0,0,0,.09-1.59v-2.94c0-.57,0-.765.061-1.65a12.244,12.244,0,0,1-4.56,5.19,3.333,3.333,0,0,0-.72-.735,13.09,13.09,0,0,0,4.964-5.175h-2.1a8.651,8.651,0,0,0-1.441.075v-1.005a8.732,8.732,0,0,0,1.455.075h2.34v-2.535h-1.679a12.144,12.144,0,0,0-1.545.075v-1a15.05,15.05,0,0,0,1.545.074h1.679v-1.2a6.5,6.5,0,0,0-.074-1.215h1.05a6.692,6.692,0,0,0-.075,1.215v1.2Z" fill="#4d4d4d"/>
  </g>
  <g id="グループ_176" data-name="グループ 176" transform="translate(-1015.212 -1265.805)">
    <path id="パス_902" data-name="パス 902" d="M1272.216,1432.253a10.684,10.684,0,0,0-1.456.091v-.976a9.507,9.507,0,0,0,1.456.091h3.3a9.056,9.056,0,0,0,1.4-.091v.96a9.7,9.7,0,0,0-1.38-.089h-.659v1.784h.494c.54,0,.87-.015,1.17-.044a13.925,13.925,0,0,0-.045,1.574v6.675l.016.795.014.555c-.224-.015-.854-.03-1.229-.03h-3.33v1.14h-.9a13.023,13.023,0,0,0,.09-1.71v-7.4c0-.644-.015-1.124-.059-1.62a8.039,8.039,0,0,0,1.184.06h.525v-1.77Zm-.27,8.145h3.749v-1.9c-.3.015-.39.015-.465.015a1.43,1.43,0,0,1-.87-.165c-.135-.1-.165-.225-.165-.66v-2.955h-.7v.165c0,2.31-.285,3.57-1.051,4.71a3.41,3.41,0,0,0-.494-.585Zm0-1.47c.63-.84.854-1.89.854-4.05v-.15h-.854Zm0,3.84h3.749v-1.65h-3.749Zm1.545-8.745h.7v-1.784h-.7Zm1.38,3.45c0,.285.029.315.3.315h.524v-3.06h-.824Zm7.2.915a5.593,5.593,0,0,0,1.005-.075l.525.555a6.653,6.653,0,0,0-.39.585,11.277,11.277,0,0,1-1.9,2.4,8.311,8.311,0,0,0,3.39,1.695,4.547,4.547,0,0,0-.45.945,10.575,10.575,0,0,1-3.585-2.085,11.6,11.6,0,0,1-3.989,2.13,2.9,2.9,0,0,0-.54-.825,9.945,9.945,0,0,0,3.929-1.86,9.034,9.034,0,0,1-1.425-1.95,10.329,10.329,0,0,1-1.41,1.41,2.481,2.481,0,0,0-.585-.675,7.455,7.455,0,0,0,2.25-2.415,5.1,5.1,0,0,0,.616-1.38l.9.285a14.428,14.428,0,0,1-.705,1.26Zm-1.32-4.3c-.45.044-.659.075-1.2.134a4.911,4.911,0,0,1-.419,1.695,4.26,4.26,0,0,1-2,2.025,2.83,2.83,0,0,0-.554-.72,3.137,3.137,0,0,0,2.13-2.924,17.6,17.6,0,0,0-1.755.165l-.106-.931a6.646,6.646,0,0,0,.765.03h.391a11.641,11.641,0,0,0,1.274-2.8l.931.331a25.776,25.776,0,0,1-1.29,2.429,28.253,28.253,0,0,0,3.569-.419,10.391,10.391,0,0,0-1.29-1.29l.645-.42a17.575,17.575,0,0,1,2.46,2.7l-.75.494c-.27-.419-.36-.54-.57-.855-.93.18-.93.18-1.41.24v2.175c0,.27.09.3.75.3.675,0,.945-.045,1.05-.195a2.933,2.933,0,0,0,.18-1.215,1.858,1.858,0,0,0,.75.315c-.15,1.695-.3,1.83-2.04,1.83-1.305,0-1.515-.12-1.515-.825Zm-1.545,5.054c-.03.045-.045.06-.09.12a8.191,8.191,0,0,0,1.575,2.055,9.487,9.487,0,0,0,1.74-2.175Z" fill="#4d4d4d"/>
    <path id="パス_903" data-name="パス 903" d="M1287.385,1442.333a12.2,12.2,0,0,0,.089-1.62v-7.02c0-.615-.029-1.109-.059-1.454a9.178,9.178,0,0,0,1.229.059h1.335a9.7,9.7,0,0,0,1.261-.059,12.929,12.929,0,0,0-.045,1.394v6.21a16.338,16.338,0,0,0,.06,1.65h-.96v-.78h-1.906v1.62Zm1-2.46h1.906v-6.7h-1.906Zm9.855-6.45a10.6,10.6,0,0,0,1.575-.089v1.034a11.814,11.814,0,0,0-1.59-.09h-1.965v2.535h2.535a12,12,0,0,0,1.711-.09v1.035a11.741,11.741,0,0,0-1.7-.09h-2.295a11.767,11.767,0,0,0,1.651,2.49,12.107,12.107,0,0,0,2.819,2.3,3.965,3.965,0,0,0-.645.93,16.548,16.548,0,0,1-2.415-2.205,10.1,10.1,0,0,1-1.724-2.79c.045.555.059.975.059,1.65v2.94a10.459,10.459,0,0,0,.09,1.59h-1.08a12.155,12.155,0,0,0,.09-1.59v-2.94c0-.57,0-.765.06-1.65a12.234,12.234,0,0,1-4.559,5.19,3.357,3.357,0,0,0-.721-.735,13.086,13.086,0,0,0,4.965-5.175h-2.1a8.634,8.634,0,0,0-1.441.075v-1.005a8.748,8.748,0,0,0,1.455.075h2.34v-2.535h-1.68a12.135,12.135,0,0,0-1.545.075v-1.005a14.794,14.794,0,0,0,1.545.075h1.68v-1.2a6.585,6.585,0,0,0-.074-1.214h1.05a6.686,6.686,0,0,0-.076,1.214v1.2Z" fill="#4d4d4d"/>
  </g>
  <g id="グループ_177" data-name="グループ 177" transform="translate(-1015.212 -1265.805)">
    <path id="パス_904" data-name="パス 904" d="M1015.782,1434.863a18.683,18.683,0,0,1,2.609,1.9l-.615.825a12.5,12.5,0,0,0-2.564-2.025Zm2.67,4.95a25.507,25.507,0,0,1-1.981,4.05c-.179.3-.224.39-.314.57l-.886-.8a12.8,12.8,0,0,0,2.37-4.425Zm-1.785-8.534a13.572,13.572,0,0,1,2.415,1.964l-.63.765a11.959,11.959,0,0,0-2.415-2.069Zm10.439,4.934a10.41,10.41,0,0,0,1.545-.09v1.02a11.135,11.135,0,0,0-1.545-.09h-6.99a9.432,9.432,0,0,0-1.44.075v-.99a8.8,8.8,0,0,0,1.411.075h.464v-2.685a8.639,8.639,0,0,0-.089-1.3h1.094a8.271,8.271,0,0,0-.09,1.321v2.669h1.9v-3.885a8.013,8.013,0,0,0-.09-1.289h1.11a7.829,7.829,0,0,0-.09,1.305v.78h2.25a8.91,8.91,0,0,0,1.365-.09v1.02a9.262,9.262,0,0,0-1.38-.091H1024.3v2.25Zm-4.064,5.835a19.551,19.551,0,0,1-3.255,2.055c-.3.15-.42.21-.6.315l-.495-.99a6.023,6.023,0,0,0,1.606-.69,13.325,13.325,0,0,0,2.429-1.59Zm-2.776-4.425a17.806,17.806,0,0,1,2.745,2.04l-.66.75a12.577,12.577,0,0,0-2.745-2.1Zm3.765,2.28a11.322,11.322,0,0,0,1.71-1.26,5.862,5.862,0,0,0,1.065-1.155l.84.615a17.376,17.376,0,0,1-2.955,2.505Zm3.81,4.56a18.69,18.69,0,0,0-3.765-2.64l.615-.645a22.427,22.427,0,0,1,3.72,2.4Z" fill="#4d4d4d"/>
    <path id="パス_905" data-name="パス 905" d="M1032.814,1432.239a7.182,7.182,0,0,0,1.455.089c.824,0,2.025-.044,2.52-.1a1.11,1.11,0,0,0,.554-.179l.795.629a8.008,8.008,0,0,0-.824,2.175c-.33,1.02-.435,1.3-.7,2.1a11.758,11.758,0,0,1,4.095,1.185,17.019,17.019,0,0,0,.179-3.045,3.644,3.644,0,0,0-.059-.735l1.125.015a5.8,5.8,0,0,0-.061.93,20.507,20.507,0,0,1-.269,3.255c.809.42,1.319.69,2.055,1.125a2.778,2.778,0,0,0,.434.225l-.4,1.155a17.4,17.4,0,0,0-2.34-1.485,7.107,7.107,0,0,1-1.545,2.715,8.108,8.108,0,0,1-2.386,1.83,3.812,3.812,0,0,0-.8-.78,6.6,6.6,0,0,0,2.431-1.725,5.842,5.842,0,0,0,1.38-2.52,11.058,11.058,0,0,0-4.14-1.245,29.1,29.1,0,0,1-1.41,3.615c-.54,1.035-1.1,1.485-1.815,1.485a2.216,2.216,0,0,1-1.98-2.46,3.37,3.37,0,0,1,1.785-2.97,4.9,4.9,0,0,1,2.7-.645c.495-1.47.674-2.04,1.2-3.779-1.185.089-1.41.1-2.835.149a8.233,8.233,0,0,0-1.095.075Zm0,6.509a2.494,2.494,0,0,0-.72,1.725c0,.795.435,1.425.975,1.425.615,0,1.125-.93,2.22-4.125A3.638,3.638,0,0,0,1032.814,1438.748Z" fill="#4d4d4d"/>
  </g>
  <g id="グループ_178" data-name="グループ 178" transform="translate(-1015.212 -1265.805)">
    <path id="パス_906" data-name="パス 906" d="M1090.028,1506.127a10,10,0,0,0,1.5-.09v1.035a10.425,10.425,0,0,0-1.5-.09h-4.845c-.015,2.43-.015,2.43-.075,3.54a4.884,4.884,0,0,0,.36,1.755,5.816,5.816,0,0,0,1.785,2.625,10.047,10.047,0,0,0,4.349,2.19,2.988,2.988,0,0,0-.539.945c-3.315-1.02-5.715-3.09-6.315-5.43-.855,2.7-2.79,4.455-6.06,5.505a4.379,4.379,0,0,0-.6-.915c2.729-.735,4.514-2.055,5.46-3.975a6.751,6.751,0,0,0,.629-2.85c.045-.87.045-.87.045-3.39h-4.545a10.885,10.885,0,0,0-1.5.09v-1.035a10.141,10.141,0,0,0,1.5.09h4.545a10.4,10.4,0,0,0-.075-1.62h1.125a8.254,8.254,0,0,0-.09,1.62Zm-7.785,8.13c-.525-.495-.72-.675-1.065-.96a10.074,10.074,0,0,1-2.28,1.425,3.32,3.32,0,0,0-.6-.72,8.672,8.672,0,0,0,2.219-1.215,13.45,13.45,0,0,0-1.485-1.005l.645-.48c.661.42.871.555,1.456.975a5.206,5.206,0,0,0,1.139-1.38l.75.51c-.075.09-.075.09-.45.525a8.488,8.488,0,0,1-.8.825c.33.255.525.42,1.08.885Zm-2.4-6.585c.81.465,1.081.63,1.59.975a4.273,4.273,0,0,0,1.02-1.29l.75.48a2.657,2.657,0,0,0-.36.4,7.387,7.387,0,0,1-.765.84c.48.345.69.495,1.29.975l-.585.615c-.569-.51-.795-.69-1.274-1.065a10.831,10.831,0,0,1-2.46,1.575,3.654,3.654,0,0,0-.6-.675,8.871,8.871,0,0,0,2.4-1.35,15.5,15.5,0,0,0-1.6-.96Zm6.855-.075c.84.51,1.125.69,1.725,1.11a4.143,4.143,0,0,0,1.02-1.305l.81.51c-.076.06-.241.255-.315.33-.015.03-.165.2-.42.48a4.132,4.132,0,0,1-.45.45c.555.405.75.555,1.38,1.08l-.615.6c-.63-.585-.84-.765-1.35-1.17a10.7,10.7,0,0,1-2.22,1.4,2.526,2.526,0,0,0-.57-.675,7.89,7.89,0,0,0,2.13-1.2c-.555-.375-.856-.57-1.725-1.095Zm.45,3.615c.855.525,1.125.7,1.62,1.05a3.718,3.718,0,0,0,.885-1.155l.765.51c-.12.12-.21.225-.435.5a6.418,6.418,0,0,1-.57.615c.54.4.78.6,1.514,1.215l-.614.615c-.69-.645-.931-.855-1.471-1.29-.239.2-.449.36-.734.57-.06.03-.36.21-.931.555a2.933,2.933,0,0,0-.585-.66,6.873,6.873,0,0,0,1.606-.945c-.525-.375-.825-.555-1.665-1.065Z" fill="#4d4d4d"/>
    <path id="パス_907" data-name="パス 907" d="M1097.139,1505.512a6.259,6.259,0,0,0,.285.915c.3.885.451,1.305.661,1.98a26.548,26.548,0,0,1,3.224-.84,20.949,20.949,0,0,0-.059-2.655h1.125a13.93,13.93,0,0,0-.076,2.025c0,.015,0,.3.015.48a7.563,7.563,0,0,1,1.125-.09c2.01,0,3.3,1.08,3.3,2.76,0,1.8-1.47,3.09-3.524,3.09a6.357,6.357,0,0,1-2.536-.555,2.153,2.153,0,0,0,.015-.27,6.687,6.687,0,0,0-.09-.855,5.1,5.1,0,0,0,2.521.69,3.037,3.037,0,0,0,1.8-.585,1.819,1.819,0,0,0,.72-1.53c0-1.14-.884-1.815-2.4-1.815a17.685,17.685,0,0,0-4.89,1.065c.766,2.55,1.305,4.665,1.936,7.485a4.633,4.633,0,0,0,.194.645l-1.215.27a53.441,53.441,0,0,0-1.889-8.1,6.448,6.448,0,0,1-.811.27,14.384,14.384,0,0,0-2.055.825l-.389-1.065a16.445,16.445,0,0,0,2.2-.7c.375-.135.524-.165.764-.24a15,15,0,0,0-1.08-2.85Z" fill="#4d4d4d"/>
    <path id="パス_908" data-name="パス 908" d="M1110.275,1508.677c.54-.015,2.1-.195,3.315-.39a18.334,18.334,0,0,0,.45-3.18v-.2l1.2.135a9.221,9.221,0,0,0-.285,1.44c-.075.435-.18.99-.315,1.71a8.717,8.717,0,0,1,.885-.045,2.869,2.869,0,0,1,2.16.63,3.028,3.028,0,0,1,.735,2.415c0,2.295-.39,4.29-1.005,5.16a1.568,1.568,0,0,1-1.47.7,5.64,5.64,0,0,1-2.265-.585,3.274,3.274,0,0,0,.03-.525,2.909,2.909,0,0,0-.045-.6,5.607,5.607,0,0,0,2.235.69q.563,0,.855-.72a11.611,11.611,0,0,0,.63-4.17c0-1.59-.45-2.1-1.845-2.1a8.624,8.624,0,0,0-1.08.075,28.3,28.3,0,0,1-2.265,6.36c-.195.36-.51.96-.975,1.8l-1.02-.6a14.379,14.379,0,0,0,1.56-2.715,24.767,24.767,0,0,0,1.65-4.755c-1.29.195-2.01.315-2.145.345a8.574,8.574,0,0,0-.87.195Zm9.855-1.38a13.562,13.562,0,0,1,3.134,5.31l-.96.555a12.267,12.267,0,0,0-3.059-5.385Z" fill="#4d4d4d"/>
    <path id="パス_909" data-name="パス 909" d="M1126.481,1507.942a6.583,6.583,0,0,0,1.155.075,35.02,35.02,0,0,0,4.47-.315c-.225-.51-.466-1.11-.735-1.785-.165-.39-.255-.6-.39-.87l1.185-.165a4.726,4.726,0,0,0,.434,1.35,12.85,12.85,0,0,0,.54,1.32,17.539,17.539,0,0,0,3.63-.945l.151,1.065c-.316.06-.435.09-.885.21-.9.24-1.08.285-2.026.465l-.509.1a27.782,27.782,0,0,0,2.7,4.365l-1.005.57a3,3,0,0,0-1.035-.615,8.132,8.132,0,0,0-2.625-.39,5.318,5.318,0,0,0-2.85.63,1.7,1.7,0,0,0-.81,1.4,1.5,1.5,0,0,0,.57,1.17,5.081,5.081,0,0,0,2.925.69,9.89,9.89,0,0,0,4.26-.96l.165,1.155a12.438,12.438,0,0,1-4.411.81c-1.829,0-3.21-.405-3.9-1.125a2.415,2.415,0,0,1-.675-1.65,2.8,2.8,0,0,1,1.695-2.445,6.373,6.373,0,0,1,2.91-.555,7.485,7.485,0,0,1,3.1.54,18.427,18.427,0,0,1-1.8-2.94c-.165-.315-.165-.345-.254-.495a44.157,44.157,0,0,1-5.34.39,3.309,3.309,0,0,0-.585.045Z" fill="#4d4d4d"/>
  </g>
  <g id="グループ_179" data-name="グループ 179" transform="translate(-1015.212 -1265.805)">
    <path id="パス_910" data-name="パス 910" d="M1183.155,1516.822a12.055,12.055,0,0,0-3.06-2.145c-.254-.135-.6-.285-1-.45a4.451,4.451,0,0,1,.029.54,2.6,2.6,0,0,1-.375,1.635,3.019,3.019,0,0,1-2.534.945,3.909,3.909,0,0,1-2.326-.6,1.963,1.963,0,0,1-.809-1.575c0-.99.779-1.77,2.1-2.07a6.533,6.533,0,0,1,1.56-.15,6.689,6.689,0,0,1,1.351.12c-.016-.045-.016-.045-.016-.18a1.2,1.2,0,0,1-.015-.165c-.014-.135-.014-.45-.03-.885-.015-.2-.015-.48-.03-.87-.539.015-1.289.03-1.77.03-.9,0-1.6-.03-2.535-.1-.165-.015-.285-.015-.375-.015h-.12l.016-.99a18.394,18.394,0,0,0,3.434.24c.39,0,.915,0,1.335-.015l-.03-2.055c-.435.015-.675.015-1.02.015-1.094,0-2.309-.045-3.66-.15a1.8,1.8,0,0,0-.269-.015,1.224,1.224,0,0,0-.21.015l.014-1.02a18.637,18.637,0,0,0,3.84.3c.3,0,.811-.015,1.3-.015a11.933,11.933,0,0,0-.074-2.16h1.154a16.71,16.71,0,0,0-.1,2.115,21.144,21.144,0,0,0,4.44-.615l.075,1.02c-.255.015-.255.015-1.035.12a31.144,31.144,0,0,1-3.48.36c.015,1.23.015,1.23.03,2.025a18.1,18.1,0,0,0,4.155-.615l.06,1.035c-.2.015-.345.03-.87.1-1.035.165-2.22.285-3.33.36.031.84.031.84.09,2.3a13.129,13.129,0,0,1,4.185,2.19,5.122,5.122,0,0,0,.51.345Zm-5.069-2.835a5.514,5.514,0,0,0-1.531-.165c-1.485,0-2.46.54-2.46,1.335s.75,1.245,2.055,1.245a2.167,2.167,0,0,0,1.65-.495,1.965,1.965,0,0,0,.3-1.35Z" fill="#4d4d4d"/>
    <path id="パス_911" data-name="パス 911" d="M1188.476,1505.887a8.982,8.982,0,0,0,1.665.09c1.4,0,3.3-.09,4.335-.2a1.787,1.787,0,0,0,.615-.135l.63.87a12.076,12.076,0,0,0-1.62,1.545,27.224,27.224,0,0,1-4.095,3.675l.045.045a6.709,6.709,0,0,1,3.81-1.185c2.385,0,3.9,1.155,3.9,2.985a3.343,3.343,0,0,1-1.949,2.97,7.663,7.663,0,0,1-3.2.63,10.432,10.432,0,0,1-3.614-.7,2.055,2.055,0,0,0,.014-.27,5.713,5.713,0,0,0-.1-.945,8.471,8.471,0,0,0,3.825.93c2.325,0,3.915-1.065,3.915-2.61,0-1.305-1.14-2.1-2.985-2.1a8.9,8.9,0,0,0-4.815,1.65,7.61,7.61,0,0,0-1.17.945l-.75-.93a14.244,14.244,0,0,0,1.95-1.485c1.56-1.365,3.6-3.3,4.98-4.74a1.375,1.375,0,0,1,.135-.15l.12-.12-.03-.015a.76.76,0,0,0-.2.03c-.645.1-2.594.225-4.275.27a6.076,6.076,0,0,0-1.08.075Z" fill="#4d4d4d"/>
    <path id="パス_912" data-name="パス 912" d="M1203.833,1505.512a6.015,6.015,0,0,0,.285.915c.3.885.45,1.305.66,1.98a26.6,26.6,0,0,1,3.225-.84,20.77,20.77,0,0,0-.06-2.655h1.125a13.994,13.994,0,0,0-.075,2.025c0,.015,0,.3.014.48a7.563,7.563,0,0,1,1.125-.09c2.01,0,3.3,1.08,3.3,2.76,0,1.8-1.469,3.09-3.524,3.09a6.348,6.348,0,0,1-2.535-.555,2.322,2.322,0,0,0,.014-.27,6.566,6.566,0,0,0-.089-.855,5.1,5.1,0,0,0,2.52.69,3.038,3.038,0,0,0,1.8-.585,1.821,1.821,0,0,0,.72-1.53c0-1.14-.885-1.815-2.4-1.815a17.673,17.673,0,0,0-4.889,1.065c.765,2.55,1.3,4.665,1.935,7.485a4.769,4.769,0,0,0,.194.645l-1.214.27a53.476,53.476,0,0,0-1.89-8.1,6.448,6.448,0,0,1-.811.27,14.314,14.314,0,0,0-2.054.825l-.39-1.065a16.445,16.445,0,0,0,2.2-.7c.375-.135.525-.165.765-.24a15.063,15.063,0,0,0-1.08-2.85Z" fill="#4d4d4d"/>
    <path id="パス_913" data-name="パス 913" d="M1216.968,1508.677c.541-.015,2.1-.195,3.315-.39a18.239,18.239,0,0,0,.45-3.18v-.2l1.2.135a9.221,9.221,0,0,0-.285,1.44c-.075.435-.18.99-.314,1.71a8.7,8.7,0,0,1,.884-.045,2.871,2.871,0,0,1,2.161.63,3.032,3.032,0,0,1,.734,2.415c0,2.295-.39,4.29-1.005,5.16a1.567,1.567,0,0,1-1.47.7,5.637,5.637,0,0,1-2.264-.585,3.383,3.383,0,0,0,.029-.525,2.909,2.909,0,0,0-.045-.6,5.612,5.612,0,0,0,2.235.69c.375,0,.661-.24.855-.72a11.611,11.611,0,0,0,.63-4.17c0-1.59-.449-2.1-1.845-2.1a8.635,8.635,0,0,0-1.08.075,28.3,28.3,0,0,1-2.265,6.36c-.195.36-.509.96-.974,1.8l-1.021-.6a14.428,14.428,0,0,0,1.561-2.715,24.835,24.835,0,0,0,1.649-4.755c-1.29.195-2.01.315-2.144.345a8.516,8.516,0,0,0-.87.195Zm9.855-1.38a13.563,13.563,0,0,1,3.135,5.31l-.96.555a12.28,12.28,0,0,0-3.06-5.385Z" fill="#4d4d4d"/>
    <path id="パス_914" data-name="パス 914" d="M1233.174,1507.942a6.588,6.588,0,0,0,1.156.075,35.017,35.017,0,0,0,4.469-.315c-.225-.51-.465-1.11-.735-1.785-.165-.39-.255-.6-.39-.87l1.185-.165a4.779,4.779,0,0,0,.435,1.35,12.363,12.363,0,0,0,.54,1.32,17.556,17.556,0,0,0,3.63-.945l.15,1.065c-.315.06-.435.09-.885.21-.9.24-1.08.285-2.025.465l-.51.1a27.782,27.782,0,0,0,2.7,4.365l-1.005.57a3,3,0,0,0-1.035-.615,8.124,8.124,0,0,0-2.625-.39,5.312,5.312,0,0,0-2.849.63,1.7,1.7,0,0,0-.811,1.4,1.5,1.5,0,0,0,.57,1.17,5.081,5.081,0,0,0,2.925.69,9.89,9.89,0,0,0,4.26-.96l.165,1.155a12.437,12.437,0,0,1-4.41.81,5.5,5.5,0,0,1-3.9-1.125,2.418,2.418,0,0,1-.674-1.65,2.8,2.8,0,0,1,1.694-2.445,6.376,6.376,0,0,1,2.91-.555,7.491,7.491,0,0,1,3.1.54,18.287,18.287,0,0,1-1.8-2.94c-.165-.315-.165-.345-.255-.495a44.161,44.161,0,0,1-5.34.39,3.318,3.318,0,0,0-.585.045Z" fill="#4d4d4d"/>
  </g>
  <g id="グループ_180" data-name="グループ 180" transform="translate(-1015.212 -1265.805)">
    <path id="パス_915" data-name="パス 915" d="M1018.82,1348.072a12.058,12.058,0,0,0-1.6.06v-1.184a7.392,7.392,0,0,0,1.634.1h7.14v-7.245h-6.824a12.58,12.58,0,0,0-1.726.075v-1.2a8.219,8.219,0,0,0,1.726.1h7.2c.2,0,.405-.015.78-.03-.03.375-.03.63-.03,1.17v7.679a10.066,10.066,0,0,0,.075,1.365h-1.2v-.9Z" fill="#4d4d4d"/>
    <path id="パス_916" data-name="パス 916" d="M1037.464,1337.243a2.9,2.9,0,0,0-.331.615,14.18,14.18,0,0,1-.689,1.335c.194-.045.194-.045,4.529-.12a1.477,1.477,0,0,0,.781-.1l.644.63c-.135.18-.135.195-.3.735a15.841,15.841,0,0,1-3,5.639,14.686,14.686,0,0,1-5.219,3.75,2.261,2.261,0,0,0-.75-.885,12.757,12.757,0,0,0,5.295-3.794,13.8,13.8,0,0,0,2.58-5.025l-5.055.09a14.462,14.462,0,0,1-3.585,3.9,2.231,2.231,0,0,0-.84-.78,11.113,11.113,0,0,0,3.765-4.11,6.8,6.8,0,0,0,.945-2.19Z" fill="#4d4d4d"/>
  </g>
  <line id="線_32" data-name="線 32" x1="109.032" y1="45.163" transform="translate(33.65 81.024)" fill="none" stroke="#999" stroke-miterlimit="10" stroke-width="0.5"/>
  <line id="線_33" data-name="線 33" x1="45.162" y1="109.032" transform="translate(97.519 17.154)" fill="none" stroke="#999" stroke-miterlimit="10" stroke-width="0.5"/>
  <line id="線_34" data-name="線 34" y1="109.032" x2="45.163" transform="translate(142.682 17.154)" fill="none" stroke="#999" stroke-miterlimit="10" stroke-width="0.5"/>
  <line id="線_35" data-name="線 35" y1="45.163" x2="109.032" transform="translate(142.682 81.024)" fill="none" stroke="#999" stroke-miterlimit="10" stroke-width="0.5"/>
  <line id="線_36" data-name="線 36" x2="109.032" y2="45.162" transform="translate(142.682 126.186)" fill="none" stroke="#999" stroke-miterlimit="10" stroke-width="0.5"/>
  <line id="線_37" data-name="線 37" x2="45.163" y2="109.032" transform="translate(142.682 126.186)" fill="none" stroke="#999" stroke-miterlimit="10" stroke-width="0.5"/>
  <line id="線_38" data-name="線 38" x1="45.162" y2="109.032" transform="translate(97.519 126.186)" fill="none" stroke="#999" stroke-miterlimit="10" stroke-width="0.5"/>
  <line id="線_39" data-name="線 39" x1="109.032" y2="45.162" transform="translate(33.65 126.186)" fill="none" stroke="#999" stroke-miterlimit="10" stroke-width="0.5"/>
  <path id="パス_917" data-name="パス 917" d="M1203.056,1282.959h-90.325l-63.87,63.87v90.325l63.87,63.87h90.325l63.87-63.87v-90.325Z" transform="translate(-1015.212 -1265.805)" fill="none" stroke="#999" stroke-miterlimit="10" stroke-width="0.5"/>
</svg>
