<svg id="lineup_bancha_howto_sp" xmlns="http://www.w3.org/2000/svg" width="594" height="55" viewBox="0 0 594 55">
  <rect id="長方形_45" data-name="長方形 45" width="594" height="55" fill="#fff100" opacity="0"/>
  <g id="グループ_466" data-name="グループ 466" transform="translate(4958.629 1329.816)">
    <path id="パス_1999" data-name="パス 1999" d="M-4901.613-1287.7c1.88,0,2.2-.08,2.479-.36.361-.36,1.8-2.439,2.281-2.439s4,2.839,4,3.359-.76.52-2.079.52h-27.556c-.92,0-3.64,0-5.079.08a6.085,6.085,0,0,1-.84.12c-.12,0-.2-.12-.36-.28l-.76-.92c-.16-.16-.16-.2-.16-.24a.106.106,0,0,1,.12-.12c.28,0,1.519.12,1.8.16,1.8.08,3.6.12,5.479.12Zm-3.52-29.315c1.88,0,2.121,0,2.481-.36.359-.32,1.8-2.32,2.279-2.32s3.959,2.72,3.959,3.24-.76.52-2.039.52h-20.6c-.879,0-3.639,0-5.039.08a6.053,6.053,0,0,1-.839.12c-.161,0-.241-.12-.361-.28l-.76-.92c-.16-.16-.2-.2-.2-.28s.12-.08.16-.08c.281,0,1.52.12,1.76.16,1.84.08,3.64.12,5.48.12Zm-2.2,14.4c1.76,0,1.92,0,2.279-.319.321-.32,1.64-2.12,2.081-2.12.32,0,3.838,2.28,3.838,3,0,.48-.2.48-2,.48h-15c-.92,0-3.638,0-5.039.121-.16,0-.719.08-.84.08-.16,0-.239-.08-.359-.241l-.8-.92c-.12-.16-.16-.2-.16-.279,0-.04.04-.08.16-.08.28,0,1.52.12,1.76.12,1.839.079,3.6.159,5.479.159Z" fill="#4d4d4d"/>
    <path id="パス_2000" data-name="パス 2000" d="M-4875.541-1289.977c0,3.759-1.84,5.838-3.72,5.838-1.24,0-1.6-1.119-1.6-1.919,0-1.28.6-1.52,2.519-2.28a4.271,4.271,0,0,0,2.28-2.44c0-.04.16-.319.28-.319S-4875.541-1290.778-4875.541-1289.977Zm1.959-25.076c-.92,0-3.638,0-5.079.08a6.2,6.2,0,0,1-.84.12c-.12,0-.24-.12-.359-.28l-.761-.92c-.079-.12-.159-.2-.159-.24a.106.106,0,0,1,.12-.12c.239,0,1.239.12,1.48.12.679.04,3.639.16,5.2.16a1.016,1.016,0,0,0,.92-1.04c0-.48-.04-1-.08-1.4-.04-.24-.321-1.2-.321-1.4,0-.48.56-.56.8-.56s3.44.641,3.44,1.321c0,.239-.121.4-.6.679-.44.28-.561.48-.561,1.6a.836.836,0,0,0,.92.8h.721a6.953,6.953,0,0,0,1.959-.12c.32-.16,1.4-1.72,1.76-1.72a4.607,4.607,0,0,1,2.359,2.32c0,.6-.76.6-2.159.6Zm4.959,10.638a2.476,2.476,0,0,0,1.08-.2c.16-.08.76-.6.96-.6.16,0,2.52,1.639,2.52,2.2a.341.341,0,0,1-.281.359,10.961,10.961,0,0,1-1.079.321c-.04.04-3.16,1.839-3.4,1.959-.92.52-1.28.72-1.28,1.12,0,.2.2.44.6.44.92,0,6.72-1.2,6.72-1,0,.56-5.56,2.2-6.52,2.48-.8.2-.8.759-.8,1.92,0,2.079-.12,2.6-.48,3.119a4.126,4.126,0,0,1-2.479,1.6.679.679,0,0,1-.4-.12c-.28-.239-1.279-1.719-1.559-1.959-.16-.16-1.2-.72-1.2-.96,0-.08.24-.08.4-.08.28,0,1.68.04,1.96.04,1.239,0,1.239-.2,1.239-2.16,0-.279-.32-.519-.68-.519-.12,0-3.879.679-4.2.8a4.417,4.417,0,0,1-1.04.6c-.519,0-1.6-3.239-1.6-3.319,0-.121.04-.16.2-.16.239,0,.76.08.88.08a41.228,41.228,0,0,0,4.239.12c1.72,0,2.159-.24,2.159-1.32,0-.24-.319-1.4-.319-1.679,0-.2.2-.241.4-.241.361,0,2.08.52,2.48.52.8,0,1.96-1.759,1.96-1.839,0-.44-.441-.44-.56-.44h-3.6c-1.12,0-3.12,0-4.719.08-.12,0-1.079.12-1.159.12-.161,0-.241-.12-.361-.28l-.76-.92c-.16-.16-.16-.2-.16-.28s.08-.08.12-.08c.241,0,1.48.12,1.76.16,1.16.04,3.239.12,5.48.12Zm-.92-7.839a1.968,1.968,0,0,0,1.4-.44c.479-.48.639-.639.88-.639.359,0,2.159.92,2.159,1.639,0,.2-.64.96-.68,1.16v2.759c0,.88-1,1.28-1.64,1.28-.559,0-.6-.12-.92-.6a.911.911,0,0,0-.879-.4h-5.519a1.137,1.137,0,0,0-1.12.56c-.32.68-.52,1.2-1.44,1.2a1.061,1.061,0,0,1-1.12-.8v-2.879c0-.56-.32-3.16-.32-3.36,0-.36.2-.519.6-.519a13.9,13.9,0,0,1,2,.8,4.621,4.621,0,0,0,1.6.24Zm-5.4,1.08c-1,0-1,.64-1,1.32s0,1.319,1,1.319h5.679c.959,0,.959-.639.959-1.319s0-1.32-.959-1.32Zm5.279,20a4.48,4.48,0,0,1,3.119,3.839c0,1.28-.559,2.639-1.92,2.639-.84,0-1.08-.519-1.08-1.319a23.192,23.192,0,0,0-.159-3.959c-.04-.2-.32-1-.24-1.08C-4869.9-1291.177-4869.742-1291.177-4869.662-1291.177Zm14.957-20.2a1.1,1.1,0,0,0-1.04.56c-.04.12-.359,2.92-.439,3.44-.04.319-.361,1.8-.361,2.119a1.442,1.442,0,0,0,.441,1.12c.76.639,2.159,2,2.159,3.439,0,.64-.24,1.36-.84,1.36-.68,0-1.559-1.28-2.039-2.039a.4.4,0,0,0-.4-.281c-.321,0-.48.321-.6.6-2.24,5.72-8.519,8.4-9.079,8.4-.04,0-.119,0-.119-.08s.119-.2.239-.28a16.194,16.194,0,0,0,3.439-3.2,16.723,16.723,0,0,0,3.88-7.439,1.324,1.324,0,0,0-.16-.6,21.233,21.233,0,0,0-2.6-2.44c-.64-.48-.92-.679-.92-.76,0-.04.04-.04.16-.04a6.312,6.312,0,0,1,2.039.56c1.2.64,1.32.72,1.48.72a.8.8,0,0,0,.72-.56c.04-.559.44-3.2.44-3.8a.828.828,0,0,0-.8-.8c-.44,0-2.919.2-3.28.2-.12,0-.2-.08-.359-.24l-.761-.92c-.159-.2-.159-.2-.159-.28s.08-.08.119-.08c.641,0,3.68.24,4.4.24a1.039,1.039,0,0,0,1-1,39.37,39.37,0,0,0-.281-5.479,9.99,9.99,0,0,1-.359-1.159c0-.28.16-.361.44-.361.4,0,3.4.76,3.559.8.28.12.64.321.64.68,0,.16-.079.28-.28.44-.08.08-.6.48-.719.56-.4.36-.521,4-.521,4.64a.878.878,0,0,0,.92.92h2.24a1.742,1.742,0,0,0,1.36-.481c.679-.76.759-.84,1-.84.439,0,2.359,1.56,2.359,2.2,0,.2-.12.32-.36.48a5.932,5.932,0,0,1-.68.4c-.64.48-.8,6.359-.8,7.2,0,2.359.481,6.159,1.361,6.159.639,0,1.838-4.079,2.159-5.68.04-.239.16-.359.24-.359.12,0,.12.2.12.28,0,.12-.56,4.4-.56,5.239,0,1.8.12,2,.6,2.679a2.239,2.239,0,0,1,.4,1.08c0,.52-.4,1-1.4,1a4.641,4.641,0,0,1-3.279-1.92c-1.96-2.439-2.24-6.679-2.24-9.078,0-1.2.16-3.76.32-5.039.04-.2.2-1.24.2-1.48,0-.36-.2-.8-1.04-.8Zm-2.039,24.836a1.943,1.943,0,0,1-1.76,2c-.92,0-1.08-.68-1.4-2.64a7.713,7.713,0,0,0-1.08-3.279c-.039-.04-.159-.241-.119-.321C-4860.864-1291.177-4856.744-1289.538-4856.744-1286.538Zm10.718-.08a1.876,1.876,0,0,1-1.76,2.039c-.92,0-1-.319-2.319-3.239a25.433,25.433,0,0,0-1.92-3.079.431.431,0,0,1-.08-.32C-4851.985-1291.417-4846.026-1290.017-4846.026-1286.618Z" fill="#4d4d4d"/>
    <path id="パス_2001" data-name="パス 2001" d="M-4822.61-1286.378c-.441,0-1,0-1.16.679a2.013,2.013,0,0,1-2.28,1.72c-1.04,0-1.04-.559-1.04-.879,0-.4.161-2.92.2-3.48.12-1.879.12-7.078.12-9.118,0-1.48,0-1.64-.361-1.64a9.742,9.742,0,0,0-1.12.56c-3.959,2.16-5.678,2.439-5.839,2.439-.2,0-.279-.119-.279-.239,0-.2.159-.281,1.359-.92a41.525,41.525,0,0,0,11.119-9.6,9.143,9.143,0,0,0,1.04-1.76c0-.319-.281-.359-1-.359h-4.6c-.92,0-3.639.04-5.039.12-.16,0-.76.08-.88.08s-.2-.08-.319-.24l-.8-.92c-.16-.16-.16-.2-.16-.28,0-.04.04-.08.12-.08.279,0,1.519.12,1.8.16,1.8.08,3.6.12,5.478.12h.92c.48,0,.76,0,.76-.32,0-.12-1.12-4.32-2.2-5-.4-.28-.681-.28-1.68-.36-1.64-.12-1.8-.12-1.8-.4s.12-.28,1.36-.44a140.457,140.457,0,0,0,20.077-3.44c.359-.08,2-.759,2.359-.759.8,0,3.4,2.679,3.4,3.079,0,.16-.161.36-.521.36-.159,0-.879-.12-1.039-.12-.24,0-1.84.08-1.84.4,0,.16.96.84,1.08.92.88.559,1,.68,1,1.08,0,.28-.04.28-1.079.72-1.12.439-4.76,4-4.76,4.079,0,.2.12.2.641.2h3.519c1.36,0,1.56,0,2.32-.96.8-.96,1.439-1.76,1.72-1.76.359,0,4.079,2.8,4.079,3.32,0,.44-1.2.44-2.36.44h-12.4c-.319,0-.48.04-.48.239s4.519,7.239,14.837,8.759c1.481.24,1.72.28,1.72.44,0,.28-.479.36-.8.44a4.5,4.5,0,0,0-2.8,2.079c-.2.4-.36.8-.68.8a3.519,3.519,0,0,1-1.879-1c-.4-.321-.481-.361-.6-.361-.319,0-.72.4-.84.56-.719.721-.719,1.36-.719,2.8,0,1.32.2,7,.2,8.159,0,.68-.08.92-.441,1.16a3.707,3.707,0,0,1-1.879.679c-.76,0-.8-.279-.959-1.4-.081-.6-.681-.759-1.161-.759Zm12.678-12.238a2.362,2.362,0,0,0,1.719-.48c.241-.2.96-.84.96-1.16,0-.16-.04-.2-.56-.64-2.56-2.279-4.079-3.6-5.759-6.438a10.368,10.368,0,0,0-.72-1.161c-.16,0-.16.081-.16.48-.04.96.04,5.479.04,6.519a1.881,1.881,0,0,1-.519,1.52,2.5,2.5,0,0,1-1.48.68c-1.04,0-1.04-.76-1.04-1.159,0-.92.319-5.48.319-6.52,0-.52,0-.76-.279-.76-.16,0-.88.8-.96.92a35.077,35.077,0,0,1-5.719,5.6c-.92.68-1.04.761-1.04.92s.12.24,1,.92a2.709,2.709,0,0,0,2.2.76Zm-8.239-11.4c.64,0,1-.24,1.079-.8.04-.16.04-.6.04-4.519,0-.44-.12-.8-.639-.8-.28,0-5.239.4-6.239.44-.84.04-.92.04-.92.2,0,.04.76.56,1,.761a3.981,3.981,0,0,1,1.92,3.239c0,.16-.121.92-.121,1.08,0,.4.2.4.96.4Zm-4.6,12.437c-1.2,0-1.2.721-1.2,1.76,0,2.24,0,2.68,1.2,2.68h4.279c1.16,0,1.16-.72,1.16-1.76,0-2.12,0-2.68-1.2-2.68Zm0,5.48c-1.16,0-1.16.559-1.16,2.4,0,1.76,0,2.28,1.2,2.28h4.2c1.16,0,1.2-.48,1.2-2.839,0-1.12,0-1.84-1.16-1.84Zm9.358-5.48c-1.16,0-1.16.56-1.16,2.84,0,.88,0,1.6,1.16,1.6h4.48c1.159,0,1.159-.76,1.159-1.56,0-2.4-.079-2.88-1.2-2.88Zm4.4,10.159c1.16,0,1.239-.4,1.239-2.8,0-1.28,0-1.88-1.239-1.88h-4.32c-1.2,0-1.2.64-1.2,1.559,0,2.8,0,3.12,1.24,3.12Zm-3.56-22.6a1.611,1.611,0,0,0,1.6-.92c.839-1.36,2.519-4.279,2.519-5.6,0-.24-.08-.4-.359-.4-.2,0-1.8.16-3.44.32-1.88.16-2.08.2-2.2.52-.04.16-.04,3.159-.04,4.759,0,.72.04,1.32,1.2,1.32Z" fill="#4d4d4d"/>
    <path id="パス_2002" data-name="パス 2002" d="M-4758.816-1305.215a35.193,35.193,0,0,0,9.678,3.159c.16,0,.839.121.839.28,0,.12-.559.28-.719.321a6.909,6.909,0,0,0-3.039,2.159c-.121.16-.561,1-.76,1-.24,0-8.919-4.2-12.838-10.6-.761-1.28-.88-1.4-1.16-1.4s-.361.08-1.24,1a47.518,47.518,0,0,1-11.838,9.318c-1.36.72-5.519,2.56-6.279,2.56-.12,0-.2-.081-.2-.121s4.279-2.679,4.639-2.918c5.4-3.4,11.118-9.519,11.679-12.519.04-.319.08-.439.359-.439.2,0,3.439,1.239,3.64,1.359.12.04.519.2.519.6a2.5,2.5,0,0,1-.159.56C-4765.615-1310.294-4762.176-1306.935-4758.816-1305.215Zm-19.278-9.958c-2.959,0-4.319.08-5.079.12-.12,0-.719.08-.839.08s-.2-.08-.36-.24l-.761-.92c-.159-.2-.159-.2-.159-.28s.04-.08.119-.08c.281,0,1.521.12,1.76.12,1.96.08,3.64.16,5.52.16h1.16c.84,0,1.079-.4,1.079-1.08a6.519,6.519,0,0,0-.319-2.12,6.062,6.062,0,0,1-.241-.8c0-.2.2-.281.44-.281.28,0,2.08.44,2.52.56,1.2.32,1.44.4,1.44.76,0,.24-.04.32-.6,1.04a.978.978,0,0,0-.28.72c0,.96.319,1.2,1.4,1.2h6.6c.36,0,1.2,0,1.2-1.08a16.612,16.612,0,0,0-.12-1.8c-.04-.2-.24-1.039-.24-1.2,0-.2.24-.281.44-.281.28,0,3,.64,3.44.76s.679.28.679.64c0,.24-.16.4-.6.72a1.282,1.282,0,0,0-.521,1.12c0,1.12.641,1.12,1.281,1.12h2.04c1.758,0,1.959,0,2.559-.68,1.119-1.32,1.239-1.479,1.6-1.479.239,0,3.718,2.119,3.718,2.639,0,.56-.8.56-2.119.56h-7.8c-1.241,0-1.241.639-1.241,1.6,0,.241.04,1.6.04,1.8,0,1.48-1.2,1.72-2.039,1.72-.92,0-1.08-.16-1.08-1.52v-2.759c-.12-.76-.6-.84-1.24-.84h-6.4c-.92,0-1.48,0-1.48,1.119,0,.4.12,2.16.12,2.52,0,.76-.12,1.12-.48,1.36a2.841,2.841,0,0,1-1.52.56c-.68,0-1-.44-1-1.24,0-.32.04-1.84.04-2.12,0-1.56,0-2.2-1.24-2.2Zm2.84,20.436a20.441,20.441,0,0,1,3.079,1.88.99.99,0,0,1,.321.6c0,.48-.321.56-1.281.8-.119.04-3.558,2.719-4.2,3.2-3.6,2.559-5.879,3.479-6.079,3.479a.127.127,0,0,1-.119-.119c0-.08,2.119-1.92,2.4-2.2,3.32-3.159,5.359-6.319,5.719-7.6A.241.241,0,0,1-4775.254-1294.737Zm1.84-2.119c-3.12,0-4.279.04-5.079.119-.12,0-.721.08-.84.08s-.2-.08-.36-.239l-.76-.92c-.16-.2-.16-.2-.16-.28,0-.04.04-.08.12-.08.28,0,1.52.12,1.76.12,1.96.12,3.639.16,5.518.16h3c.4,0,1.2,0,1.2-1.08,0-.48-.241-3.72-.321-4.119,0-.08-.24-.481-.24-.56s.08-.24.4-.24c.28,0,3.08.6,3.48.72.559.12.76.479.76.679,0,.241-.08.321-.68.84-.561.48-.561.72-.561,1.92,0,1.44,0,1.84,1.2,1.84h1.759c1.76,0,1.959,0,2.56-.68,1.119-1.32,1.239-1.48,1.6-1.48.24,0,3.718,2.16,3.718,2.64,0,.56-.8.56-2.119.56h-7.558c-1.2,0-1.2.719-1.2,2,0,2.84,0,4.44.08,6.8.041.68.041,1.64.041,2.12,0,1.279-.321,2.039-2.04,2.039-.879,0-.959-.72-.959-1.4,0-.52.119-2.92.119-3.44.04-1.519.04-3,.04-4.839a24.48,24.48,0,0,0-.079-2.719c-.2-.56-.84-.56-1.161-.56Zm10.678,3.359c0-.12.2-.16.36-.16,1.48,0,10.6,2.52,10.6,5.839,0,1.28-.72,2.28-1.72,2.28-.76,0-.92-.2-2.159-2.04a19.013,19.013,0,0,0-6.879-5.759C-4762.576-1293.337-4762.736-1293.457-4762.736-1293.5Z" fill="#4d4d4d"/>
    <path id="パス_2003" data-name="パス 2003" d="M-4720.331-1313.734c0,.12.079.28.079.441a30.593,30.593,0,0,1,.4,4.319c0,2.679-.6,6.4-4.119,11.718-3.2,4.879-5.24,5.839-6.839,5.839-2.64,0-5-4.12-5-9a14.085,14.085,0,0,1,4.438-10.2,16.549,16.549,0,0,1,12.759-5.2,13.041,13.041,0,0,1,6.438,1.279,12.538,12.538,0,0,1,6.959,11.639,14.914,14.914,0,0,1-10.078,14.077,24.575,24.575,0,0,1-6.639,1.48c-.16,0-.4-.04-.4-.28,0-.12.08-.16,1.08-.56,4.159-1.64,12.838-5.079,12.838-15.037,0-1.56-.16-11.078-11.078-11.078C-4720.292-1314.293-4720.331-1313.974-4720.331-1313.734Zm-13,12.279c0,2.6,1.04,6.158,3.48,6.158,1.159,0,2.119-.48,4.879-4.639,2.119-3.239,3.918-7.679,3.918-11.638,0-2.4-.159-2.6-.679-2.6C-4725.53-1314.173-4733.329-1309.014-4733.329-1301.455Z" fill="#4d4d4d"/>
    <path id="パス_2008" data-name="パス 2008" d="M-4509.585-1297.336c-1.04,0-1.04.6-1.04,1.08,0,.959.04,5.079.04,5.919,0,.239,0,.8.64.8.32,0,3.6-1.359,3.959-1.519a.871.871,0,0,0,.56-.72,7.929,7.929,0,0,0-1.28-2.48,8.329,8.329,0,0,1-.8-1.079c0-.04.08-.04.12-.04.76,0,5.879,2.4,5.879,5.678,0,1.12-.559,1.92-1.319,1.92-.72,0-.88-.4-1.519-1.88-.241-.6-.361-.92-.8-.92-.52,0-7.679,4.68-7.958,5.32-.4.8-.441.92-.84.92-.68,0-1.68-3.2-1.68-3.48s.16-.36.44-.36c2.08,0,2.08-.24,2.08-1.96v-12c0-2.759,0-6.838-.64-6.838-.16,0-2.8,2.119-3.04,2.119-.08,0-.12,0-.12-.08,0-.04,1.08-1.4,1.28-1.68a61.322,61.322,0,0,0,6.879-11.118c.2-.76.2-.84.52-.84.24,0,3.119,1.4,3.119,2.24a.6.6,0,0,1-.36.52c-.24.12-.4.2-.4.4s0,.2,1.2.68c.76.28,4.679,1.88,4.679,4.759a1.314,1.314,0,0,1-1.319,1.48c-.4,0-.92-.12-1.68-1.72-.72-1.52-3.159-4.439-3.68-4.439-.319,0-.519.28-.72.56a53.362,53.362,0,0,1-5.279,6.119c-.12.08-.2.16-.2.28s.079.159,1,.64c1.2.6,1.32.68,1.88.68,1.16,0,1.2-.361,1.2-1.2a8.7,8.7,0,0,0-.2-2.4c-.04-.2-.32-.96-.32-1.12,0-.08.08-.2.4-.2s3.4.439,3.4,1.4c0,.12-.44.6-.519.72-.16.32-.16.48-.16,1.639,0,.561,0,1.161.84,1.161.879,0,1,0,1.319-.321.72-.84.96-1.079,1.28-1.079.279,0,2.159,1.159,2.159,1.88,0,.239-.679,1.119-.759,1.319a10.066,10.066,0,0,0-.121,1.96c0,1.079.121,6,.121,6.959,0,.76,0,2.159-1.68,2.159-.88,0-.96-.479-1.04-1.16-.12-.679-.8-.679-1.08-.679Zm4.6-6.24c1.04,0,1.04-.559,1.04-1.439,0-1.92,0-2.319-1.04-2.319h-4.6c-1.04,0-1.04.6-1.04,1.439,0,1.96,0,2.319,1.04,2.319Zm-.08,5.16c1.04,0,1.12,0,1.12-3.16,0-.92-.6-.92-1.04-.92h-4.6c-1.04,0-1.04.36-1.04,1.56,0,2.28,0,2.52,1.04,2.52Zm19-12.158a1.118,1.118,0,0,0,1.2-.64c.56-.92.6-1.04.88-1.04.319,0,3.919,1.92,3.919,2.84,0,.8-.44.839-2.64,1.12a4.672,4.672,0,0,0-2.639,1.279c-.08.04-.48.32-.52.32s-.08,0-.08-.04c0-.2.56-1.84.56-2.2,0-.6-.4-.6-.76-.6h-3.44c-.559,0-1.079.04-1.079,1,0,12.119,9,20.038,9.438,20.4.28.24,1.76,1.28,1.76,1.48,0,.12-.68.24-.72.24a7.089,7.089,0,0,0-2.4.8,3.88,3.88,0,0,1-.879.521c-.8,0-5.44-5.52-7.439-17.277-.04-.121-.12-.64-.24-.64-.16,0-.2.359-.24.76-.6,4.839-2.36,13.037-10.159,16.556a7.5,7.5,0,0,1-2.839.761c-.16,0-.2,0-.2-.121a4.279,4.279,0,0,1,.88-.56c2.119-1.079,6.319-3.239,8.439-10.478a45.1,45.1,0,0,0,1.679-12.117c0-.72,0-1.321-.92-1.321s-1,.121-1.759,1.241a32.641,32.641,0,0,1-3.28,4.2.106.106,0,0,1-.12-.12c0-.24,1.24-2.92,1.48-3.48.88-2.239,3.359-9.038,3.359-11.278,0-1.159,0-1.359.521-1.359.559,0,3.879,1.6,3.879,2.239,0,.32-.121.4-.84.84-.48.32-3.2,6.239-3.2,6.239,0,.44.44.44.68.44Z" fill="#4d4d4d"/>
    <path id="パス_2009" data-name="パス 2009" d="M-4454.587-1314.373c-.52,0-2.2,1.439-2.84,2-.519.48-2.04,1.84-3.079,1.84-1.48,0-2.6-2.839-2.6-2.96,0-.24.08-.4.319-.4s1.16.159,1.36.159c1.28,0,1.76-.08,4.16-1.6a6.867,6.867,0,0,1,3.838-1.32c2.64,0,3.24,1.8,3.24,2.4,0,.84-.36,1.319-2.44,3.239a36.359,36.359,0,0,0-5.879,8.119c0,.2.281.239.4.239.519,0,2.76-.04,3.239,0a32.4,32.4,0,0,1,7.559,1.6,1.591,1.591,0,0,0,.639.16c.521,0,.76-3.279.76-3.679,0-.32-.239-2.08-.239-2.24,0-.24.279-.24.439-.24.12,0,3.6.641,3.6,2.2a8.688,8.688,0,0,1-.88,1.56c0,.08-.56,3.279-.56,3.4,0,.52.24.64.92,1,1.56.84,5.2,2.72,5.2,4.8a1.549,1.549,0,0,1-1.481,1.52c-.8,0-1.239-.32-4.039-2.72-.08-.039-1.24-1.039-1.64-1.039-.32,0-.44.279-.559.479a17.255,17.255,0,0,1-7.839,7.4,14.752,14.752,0,0,1-4.319,1.6c-.04,0-.321,0-.321-.12a6.281,6.281,0,0,1,.76-.56c3.96-2.719,5.919-4.319,8.239-7.918a7.362,7.362,0,0,0,1.2-2.28c0-.36,0-.56-2.2-1.64a17.319,17.319,0,0,0-7.359-1.8c-2.48,0-2.56.16-3.239,1.6-3.44,7.319-4.119,8.8-6.639,8.8-2.04,0-2.64-2.2-2.64-3.2,0-3.4,3.56-6.439,7.759-7.919a1.443,1.443,0,0,0,1-.8c.92-1.479,5.919-9.038,6.119-9.4a5.671,5.671,0,0,0,.52-1.8A.515.515,0,0,0-4454.587-1314.373Zm-13.4,19.276c0,.68.32,1.16,1.04,1.16,2.2,0,4.8-5.879,4.8-6.039,0-.12-.039-.2-.159-.2C-4463.746-1300.176-4467.985-1297.456-4467.985-1295.1Z" fill="#4d4d4d"/>
    <path id="パス_2010" data-name="パス 2010" d="M-4422.765-1311.054c-.919,0-3.679,0-5.079.08a6.05,6.05,0,0,1-.84.12c-.119,0-.2-.12-.36-.28l-.759-.92c-.161-.16-.161-.2-.161-.24a.105.105,0,0,1,.12-.119c.28,0,1.52.119,1.8.159,1.8.08,3.6.12,5.479.12h7.839c1.16,0,1.16-.52,1.16-2.8a25.127,25.127,0,0,0-.2-3.679c-.04-.24-.281-1.2-.281-1.4,0-.239.281-.239.441-.239s4.239.839,4.239,1.759c0,.4-.08.44-.76,1.08-.52.44-.56,1.48-.56,2.12,0,3,.24,3.159,1.28,3.159h7.959c1.479,0,1.879,0,2.4-.6.24-.36,1.28-2.239,1.68-2.239.6,0,3.8,2.759,3.8,3.319,0,.6-.76.6-2.119.6h-17.957c-.441,0-.6,0-.6.16,0,.28.159.28,1.719.52.6.08,1.76.32,1.76.879,0,.321-1.119,1.321-1.24,1.6a11.049,11.049,0,0,0-.639,2.919c0,.8.84.8,1,.8h8.839a1.9,1.9,0,0,0,1.679-.6,4.765,4.765,0,0,1,.92-.8c.2,0,3.48,2,3.48,2.56,0,.319-1.04,1.239-1.16,1.479-.44.8-.96,4.8-1.12,5.6-1.24,5.72-2.479,7.839-3.719,9.279a7.911,7.911,0,0,1-4.6,2.64c-.479,0-.479-.28-.479-.641,0-1.719-2.08-3-3.32-3.639-.92-.48-1.04-.52-1.04-.64,0-.08.04-.32.4-.32a6.759,6.759,0,0,1,1.639.44,12.083,12.083,0,0,0,3.159.52c1.68,0,3.52-1,4.8-6.279a40.92,40.92,0,0,0,1.04-7.479c0-1.039-.679-1.039-1.279-1.039h-9.4c-1.121,0-1.2.2-1.68,2.279-3.12,13-13.318,15.478-13.838,15.478-.12,0-.36,0-.36-.12,0-.161.48-.44.96-.68a23.717,23.717,0,0,0,8.6-9.639,37.549,37.549,0,0,0,2.92-12.637c0-2.64-.68-2.64-1.48-2.64Z" fill="#4d4d4d"/>
    <g id="グループ_533" data-name="グループ 533" transform="translate(-5763.044 -2963.208)">
      <path id="パス_2251" data-name="パス 2251" d="M1092.671,1654.331c0,1.3-3,2.49-3.952,2.885-.553.2-.593.356-.671,1.739-.08.87-.08,4.071-.08,4.269,0,.238,0,.713.355.713.119,0,3.36-1.345,3.993-1.582,3.913-1.462,5.691-1.581,6.719-1.581a6.052,6.052,0,0,1,6.088,5.969c0,5.217-5.495,7.59-8.736,7.59-2.253,0-4.071-1.146-4.071-3.2a3.521,3.521,0,0,1,1.976-3.122.213.213,0,0,1,.2.2c0,.119-.08.2-.158.316a1.636,1.636,0,0,0-.355,1.067c0,1.9,2.174,1.9,2.569,1.9,2.61,0,5.93-1.739,5.93-4.9a4.1,4.1,0,0,0-3.794-4.349c-1.108,0-3.558.515-8.184,2.965-2.212,1.186-2.449,1.3-2.449,1.976,0,.435.117,2.214.117,2.609,0,1.818-.593,4.428-2.016,4.428-1.067,0-1.5-.83-1.818-1.462-1.266-2.452-1.462-2.452-1.976-2.452a3.284,3.284,0,0,0-.988.237,7.784,7.784,0,0,1-1.5.791c-.434,0-2.449-1.186-2.449-2.49,0-.711.434-1.541,1.145-1.541.237,0,1.385.2,1.622.2,1.066,0,1.779-.2,4.109-1.344,2.017-.988,2.254-1.107,2.254-2.214,0-.91-.04-4.27-.079-4.942,0-.277-.119-.87-.553-.87a9.244,9.244,0,0,0-1.818.356c-2.017.672-2.213.751-2.807.751-1.343,0-2.844-2.727-2.844-3a.279.279,0,0,1,.315-.277c.119,0,.593.158.711.158a11.49,11.49,0,0,0,1.818.2,17.266,17.266,0,0,0,5.021-1.186,29.573,29.573,0,0,0,.4-4.308,3.882,3.882,0,0,0-1.3-3.163,3.957,3.957,0,0,1-.553-.632c0-.356.633-.435.87-.435,2.648,0,4.072,1.937,4.072,2.688a15.885,15.885,0,0,1-.831,2.056,21.094,21.094,0,0,0-.394,2.569c0,.158.078.435.315.435.277,0,1.385-.435,1.385-.988,0-.079-.2-.474-.2-.553,0-.04.078-.119.157-.158C1090.775,1652.552,1092.671,1653.106,1092.671,1654.331Zm-9.012,15.139c0,.593,1.067,1.858,1.66,1.858.553,0,1.107-1.107,1.107-3.043,0-.158,0-.553-.119-.632C1086.189,1667.651,1083.66,1668.916,1083.66,1669.47Zm25.97-12.293c0,.83-.474,1.9-1.3,1.9-.237,0-1.146-.079-1.344-.079-.2.04-1.028.277-1.187.277a.184.184,0,0,1-.2-.2,2.719,2.719,0,0,1,.119-.316,2.107,2.107,0,0,0,.158-.711c0-1.581-1.976-2.134-3.321-2.134a3.435,3.435,0,0,0-1.542.4.883.883,0,0,1-.4.119c-.119,0-.158-.039-.158-.158a5.057,5.057,0,0,1,4.27-2.49C1107.772,1653.777,1109.629,1655.358,1109.629,1657.177Z" transform="translate(0 0.154)" fill="#4d4d4d"/>
      <path id="パス_2252" data-name="パス 2252" d="M1122.734,1653.718a5.418,5.418,0,0,1-.474,1.581,13.959,13.959,0,0,0-.949,5.1c0,3.993,2.055,6.878,3.28,6.878.673,0,.83-.2,2.016-2.174.237-.4.91-1.344,1.225-1.344.12,0,.2.158.2.316a4.624,4.624,0,0,1-.12.79,11.137,11.137,0,0,0-.514,3,5.373,5.373,0,0,0,.237,1.581,9.787,9.787,0,0,1,.317,1.3c0,.791-.831,1.225-1.5,1.225-2.53,0-7.509-4.15-7.509-11.7,0-1.107.552-5.968.552-7a10.924,10.924,0,0,0-.277-2.294,5.368,5.368,0,0,1-.315-1.344c0-.119.158-.158.237-.158C1120.955,1649.488,1122.734,1652.651,1122.734,1653.718Zm19.289.909a9.834,9.834,0,0,1,3.519,7.55c0,.751-.079,2.609-1.976,2.609-1.937,0-1.937-2.135-1.937-2.648,0-3.281,0-4.942-2.1-7.036-.316-.316-1.9-1.541-1.9-1.778,0-.119.157-.2.355-.2A7.689,7.689,0,0,1,1142.023,1654.627Z" transform="translate(5.362 0.529)" fill="#4d4d4d"/>
      <path id="パス_2253" data-name="パス 2253" d="M1163.484,1649.5a18.2,18.2,0,0,1-.751,2.214,95.034,95.034,0,0,0-1.66,14.072c0,3.992.751,7.55,6.047,7.55a19.475,19.475,0,0,0,8.3-2.056c.593-.277,3.6-1.937,3.755-1.937a.185.185,0,0,1,.2.2c0,.435-5.851,6.8-13.282,6.8-5.139,0-7.59-2.965-7.59-10.91,0-2.45.08-3.242.909-10.989.159-1.3.514-4.546.514-5.653a4.974,4.974,0,0,0-.355-1.937c-.04-.119-.435-1.028-.435-1.067,0-.277.315-.4.552-.4C1161.745,1645.393,1163.484,1648.594,1163.484,1649.5Z" transform="translate(10.481)" fill="#4d4d4d"/>
      <path id="パス_2254" data-name="パス 2254" d="M1194.373,1653.718a5.4,5.4,0,0,1-.475,1.581,13.984,13.984,0,0,0-.949,5.1c0,3.993,2.057,6.878,3.282,6.878.672,0,.83-.2,2.016-2.174.237-.4.909-1.344,1.225-1.344.119,0,.2.158.2.316a4.747,4.747,0,0,1-.12.79,11.093,11.093,0,0,0-.514,3,5.332,5.332,0,0,0,.237,1.581,9.921,9.921,0,0,1,.316,1.3c0,.791-.83,1.225-1.5,1.225-2.53,0-7.51-4.15-7.51-11.7,0-1.107.552-5.968.552-7a11.005,11.005,0,0,0-.277-2.294,5.365,5.365,0,0,1-.315-1.344c0-.119.157-.158.237-.158C1192.594,1649.488,1194.373,1652.651,1194.373,1653.718Zm19.289.909a9.837,9.837,0,0,1,3.518,7.55c0,.751-.078,2.609-1.976,2.609-1.935,0-1.935-2.135-1.935-2.648,0-3.281,0-4.942-2.1-7.036-.316-.316-1.9-1.541-1.9-1.778,0-.119.158-.2.356-.2A7.692,7.692,0,0,1,1213.662,1654.627Z" transform="translate(14.622 0.529)" fill="#4d4d4d"/>
    </g>
  </g>
</svg>
