<svg id="lineup_shiny_name_sp" xmlns="http://www.w3.org/2000/svg" width="750" height="230" viewBox="0 0 750 230">
  <rect id="長方形_40" data-name="長方形 40" width="750" height="230" fill="#fff279" opacity="0"/>
  <g id="グループ_431" data-name="グループ 431" transform="translate(5974.213 1370.532)">
    <g id="グループ_424" data-name="グループ 424">
      <g id="グループ_423" data-name="グループ 423">
        <path id="パス_1831" data-name="パス 1831" d="M-5731.872-1341.341c1.266-.275,1.266-.825,1.266-2.255,0-2.639-.111-3.575-.551-4.344-.22-.385-1.595-1.925-1.595-2.364,0-.5,1.32-.551,1.705-.551.88,0,1.54.055,3.9,1.43,1.156.66,1.321.77,1.321,1.485a8.614,8.614,0,0,1-.66,1.649,9.173,9.173,0,0,0-.33,2.75c0,.935.219,1.76,1.594,1.76a36.066,36.066,0,0,0,6.49-.55,22.218,22.218,0,0,1,2.639-1.1c.55,0,4.784,2.584,4.784,3.628a1.18,1.18,0,0,1-.549,1.045c-.991.715-1.1.826-1.32,1.54-1.65,4.675-6.05,17.048-17.762,24.857a23.227,23.227,0,0,1-6.435,3.189c-.165,0-.33-.109-.33-.219s.056-.22.44-.44a51.382,51.382,0,0,0,5.5-4.345c11.878-10.5,14.133-23.372,14.133-24.032,0-1.154-.934-1.154-1.7-1.154-4.894,0-12.978.495-15.563.824-4.124.551-4.124.99-4.124,1.87,0,.165.219,2.145.274,2.42a73.019,73.019,0,0,1,.77,8.359c0,1.044,0,2.8-1.265,2.8-1.374,0-2.254-1.814-2.475-3.464-.054-.275-.054-3.96-.054-4.4a17.464,17.464,0,0,0-3.025-9.844,3.5,3.5,0,0,1-.66-1.265c0-.44.99-.715,1.925-.715a5.444,5.444,0,0,1,3.024.935c1.375.88,1.816,1.1,2.64,1.1C-5736.986-1340.736-5733.026-1341.121-5731.872-1341.341Z" fill="#333"/>
        <path id="パス_1832" data-name="パス 1832" d="M-5674.726-1332.267a2.246,2.246,0,0,1-2.145,2.364c-1.374,0-1.815-1.374-2.31-2.86a26.571,26.571,0,0,0-3.959-6.983c-.384-.44-.44-.6-.44-.716a.542.542,0,0,1,.66-.439C-5680.115-1340.571-5674.726-1336.942-5674.726-1332.267Zm28.157-9.184c0,.33-.111.439-1.266,1.045-.659.385-3.024,5-3.574,5.939-10.5,17.433-26.727,23.921-27.442,23.921a.256.256,0,0,1-.274-.274,11.711,11.711,0,0,1,1.649-1.32,94.755,94.755,0,0,0,11.659-9.9c3.96-3.959,12.923-14.573,12.923-21.557a7.21,7.21,0,0,0-.5-2.7,2.122,2.122,0,0,1-.165-.55c0-.219.165-.33.385-.33C-5653.114-1347.171-5646.569-1344.421-5646.569-1341.451Zm-17.819,1.814c0,1.871-.989,3.246-2.089,3.246-1.32,0-1.65-1.595-1.87-2.75-.275-1.43-.825-2.86-2.53-6.379a12.2,12.2,0,0,1-.715-1.486c0-.165.33-.165.441-.165C-5667.962-1346.62-5664.388-1343.321-5664.388-1339.637Z" fill="#333"/>
        <path id="パス_1833" data-name="パス 1833" d="M-5610.272-1348.93c0-.55.77-.55,1.21-.55,3.849,0,5.114,2.86,5.114,3.08,0,.659-.55,1.375-1.65,2.749-.275.386-.44.6-.44.88,0,.44.66.44.88.44a31.128,31.128,0,0,0,8.359-2.2,10.3,10.3,0,0,1,2.584-.88c.495,0,.771.165,3.025,1.485.33.165,1.759.935,2.035,1.1a2,2,0,0,1,1.045,1.375c0,.77-.385.989-2.2,2.09-.6.385-.824.715-2.749,3.684A67.233,67.233,0,0,1-5612.747-1315c-6.049,3.96-10.613,5.279-10.943,5.279a.493.493,0,0,1-.5-.495c0-.219.166-.33,1.871-1.264,16.772-9.239,27.22-27.991,27.22-29.7a.594.594,0,0,0-.6-.6c-.111,0-7.7,1.7-9.019,1.7-.33,0-1.815-.165-2.144-.165-1.045,0-1.156.109-3.465,2.749-3.355,3.74-4.73,5.17-7.48,7.149-2.254,1.65-4.619,2.915-5.279,2.915-.274,0-.385-.165-.385-.33,0-.385,3.685-3.464,4.345-4.125,4.454-4.454,9.679-12.043,9.238-15.342C-5609.942-1347.5-5610.272-1348.71-5610.272-1348.93Z" fill="#333"/>
        <path id="パス_1834" data-name="パス 1834" d="M-5552.093-1332.322c0,1.1-.825,2.749-2.145,2.749-.824,0-1.1-.33-1.924-1.7a13.332,13.332,0,0,0-5-4.565c-.165-.11-.5-.33-.5-.549,0-.771,3.135-.826,3.85-.826C-5555.447-1337.217-5552.093-1335.017-5552.093-1332.322Zm-6.764,17.048c-.165-.276-1.155-1.43-1.32-1.7a2.338,2.338,0,0,1-.33-1.045c0-.22.165-.385.495-.385.494,0,2.584.715,3.025.715,2.364,0,17.157-8.249,30.3-23.152a26.2,26.2,0,0,1,2.364-2.475.2.2,0,0,1,.22.221c0,.6-4.839,12.373-27.606,28.32-.66.44-3.3,2.915-4.015,2.915C-5556.933-1311.865-5557.482-1312.745-5558.857-1315.274Zm13.363-27.991c0,1.264-.88,2.474-1.76,2.474-.6,0-.88-.221-2.859-2.585a9.586,9.586,0,0,0-4.73-2.915c-.219-.055-.825-.22-.825-.385s1.54-1.045,4.234-1.045C-5545.494-1347.721-5545.494-1343.43-5545.494-1343.265Z" fill="#333"/>
        <path id="パス_1835" data-name="パス 1835" d="M-5467.434-1335.017a48.505,48.505,0,0,0,13.308,4.344c.221,0,1.155.165,1.155.385,0,.165-.769.385-.99.441a9.511,9.511,0,0,0-4.179,2.969c-.165.22-.77,1.375-1.045,1.375-.33,0-12.263-5.774-17.653-14.573-1.045-1.76-1.209-1.925-1.6-1.925s-.5.11-1.7,1.375a65.4,65.4,0,0,1-16.278,12.813c-1.87.99-7.589,3.519-8.634,3.519-.165,0-.275-.109-.275-.165s5.885-3.684,6.38-4.013c7.424-4.675,15.288-13.089,16.057-17.213.055-.441.111-.606.5-.606.275,0,4.73,1.7,5,1.87.165.055.715.276.715.825a3.383,3.383,0,0,1-.22.77C-5476.782-1342-5472.053-1337.382-5467.434-1335.017Zm-26.506-13.693c-4.07,0-5.94.11-6.984.165-.165,0-.99.11-1.155.11s-.275-.11-.5-.33l-1.045-1.265c-.22-.274-.22-.274-.22-.385s.055-.11.165-.11c.385,0,2.09.165,2.42.165,2.694.11,5,.221,7.589.221h1.6c1.154,0,1.484-.551,1.484-1.486a8.943,8.943,0,0,0-.439-2.915,8.128,8.128,0,0,1-.33-1.1c0-.275.274-.385.6-.385.386,0,2.86.605,3.465.769,1.649.441,1.979.551,1.979,1.045,0,.33-.054.441-.824,1.43a1.346,1.346,0,0,0-.386.99c0,1.32.441,1.651,1.925,1.651h9.074c.5,0,1.65,0,1.65-1.486a22.525,22.525,0,0,0-.165-2.474c-.055-.276-.33-1.43-.33-1.65,0-.275.33-.386.6-.386.385,0,4.124.88,4.73,1.045s.934.386.934.88c0,.33-.219.551-.825.99a1.767,1.767,0,0,0-.715,1.541c0,1.54.88,1.54,1.76,1.54h2.805c2.42,0,2.695,0,3.519-.936,1.54-1.814,1.7-2.034,2.2-2.034.331,0,5.115,2.914,5.115,3.629,0,.77-1.1.77-2.915.77h-10.724c-1.7,0-1.7.88-1.7,2.2,0,.331.055,2.2.055,2.475,0,2.035-1.65,2.365-2.805,2.365-1.265,0-1.484-.22-1.484-2.09v-3.794c-.165-1.045-.826-1.155-1.706-1.155h-8.8c-1.265,0-2.036,0-2.036,1.539,0,.551.166,2.97.166,3.465,0,1.045-.166,1.54-.66,1.87a3.9,3.9,0,0,1-2.09.77c-.935,0-1.375-.6-1.375-1.7,0-.44.055-2.53.055-2.914,0-2.145,0-3.025-1.705-3.025Zm3.9,28.1a27.974,27.974,0,0,1,4.234,2.585,1.362,1.362,0,0,1,.441.825c0,.659-.441.77-1.76,1.1-.165.054-4.9,3.739-5.774,4.4-4.95,3.52-8.084,4.784-8.359,4.784a.176.176,0,0,1-.165-.165c0-.109,2.914-2.64,3.3-3.024,4.564-4.345,7.369-8.689,7.864-10.449A.33.33,0,0,1-5490.036-1320.609Zm2.53-2.914c-4.29,0-5.885.054-6.984.165-.165,0-.99.109-1.154.109s-.276-.109-.5-.33l-1.045-1.265c-.219-.274-.219-.274-.219-.384,0-.055.054-.111.164-.111.386,0,2.09.165,2.42.165,2.695.165,5,.221,7.589.221h4.125c.549,0,1.649,0,1.649-1.485,0-.66-.33-5.115-.439-5.664,0-.111-.331-.661-.331-.77s.11-.33.55-.33c.385,0,4.235.824,4.784.989.77.165,1.045.66,1.045.936,0,.33-.11.439-.934,1.154-.771.66-.771.99-.771,2.64,0,1.98,0,2.53,1.651,2.53h2.419c2.42,0,2.695,0,3.519-.935,1.54-1.815,1.705-2.035,2.2-2.035.33,0,5.115,2.97,5.115,3.629,0,.771-1.1.771-2.915.771h-10.394c-1.649,0-1.649.989-1.649,2.749,0,3.905,0,6.1.11,9.349.055.935.055,2.254.055,2.914,0,1.76-.441,2.8-2.805,2.8-1.21,0-1.319-.99-1.319-1.925,0-.715.164-4.014.164-4.729.055-2.09.055-4.124.055-6.654a33.376,33.376,0,0,0-.11-3.74c-.274-.769-1.154-.769-1.595-.769Zm14.683,4.619c0-.165.275-.22.5-.22,2.035,0,14.573,3.464,14.573,8.028,0,1.76-.99,3.135-2.365,3.135-1.045,0-1.265-.274-2.97-2.8-2.584-3.905-6.379-6.16-9.458-7.919C-5472.6-1318.684-5472.823-1318.849-5472.823-1318.9Z" fill="#333"/>
      </g>
    </g>
    <g id="グループ_426" data-name="グループ 426">
      <g id="グループ_425" data-name="グループ 425">
        <path id="パス_1836" data-name="パス 1836" d="M-5732.06-1267.846c-.54,0-1.2-.18-1.2-.96,0-.96.991-.96,1.2-.96h4.53c1.2,0,1.2.81,1.2.96,0,.96-.87.96-1.2.96Z" fill="#333"/>
        <path id="パス_1837" data-name="パス 1837" d="M-5707.989-1277.326c-1.05,0-1.05.24-1.05,2.01,0,.78.24.93.54.99,1.08.271,4.62,1.14,4.62,3.48,0,.69-.42,1.709-1.17,1.709-.45,0-.51-.149-1.08-1.589a5.388,5.388,0,0,0-2.61-2.97c-.329,0-.329.06-.329,1.65,0,1.65.179,8.909.179,10.44,0,.42,0,1.979-1.62,1.979-.6,0-.6-.42-.6-.87,0-.39.089-2.369.089-2.789.06-2.37.15-6.9.15-9.12,0-.12,0-.51-.3-.51-.149,0-.24.15-.989,1.26-1.71,2.519-4.681,5.7-5.25,5.7-.09,0-.12-.06-.12-.15,0-.12,1.679-2.281,1.889-2.58a30.657,30.657,0,0,0,4.02-8.16c0-.45-.15-.48-1.409-.48-.271,0-2.04.03-2.851.09-.09,0-.54.091-.63.091-.12,0-.149-.091-.269-.21l-.571-.691c-.089-.09-.12-.15-.12-.21s.061-.059.09-.059c.21,0,1.141.09,1.351.119,1.139.03,2.489.091,3.6.091h.66c.3,0,.81,0,.93-.511.03-.18.03-2.4.03-2.73,0-.929-.12-1.41-.929-1.41-.12,0-2.971.271-3.511.271-.239,0-.989,0-.989-.151,0-.12.21-.179.33-.21a25.965,25.965,0,0,0,7.349-2.58,17.945,17.945,0,0,1,1.65-1.109,10.2,10.2,0,0,1,2.64,2.249c0,.181-.15.271-.39.271-.15,0-.69-.06-.84-.06a15.662,15.662,0,0,0-3.06.9c-.45.33-.45,1.651-.45,2.58,0,2.25,0,2.491.9,2.491,1.289,0,1.289,0,2.039-.931.42-.54.69-.84.841-.84s2.579,1.651,2.579,2.16c0,.39-.63.39-1.62.39Zm13.139-5.939a1.034,1.034,0,0,0,.96-.39c.54-.66.6-.721.75-.721a15.42,15.42,0,0,1,1.951,1.351.677.677,0,0,1,.21.449c0,.24-.21.36-.42.45-.661.33-.661.51-.661,2.34,0,5.67,0,6.481.21,13.71,0,.3.09,1.739.09,2.069a1.241,1.241,0,0,1-.45,1.141,2.9,2.9,0,0,1-1.409.54c-.511,0-.511-.54-.511-.99,0-.63-.359-.63-.84-.63h-4.019c-.87,0-.9.269-.9,1.109,0,1.08-1.109,1.471-1.679,1.471a.688.688,0,0,1-.72-.811c0-.269.12-1.559.12-1.859.06-1.41.12-8.82.12-9.689,0-1.741,0-5.311-.24-9.21,0-.151-.15-.93-.15-1.111,0-.21.15-.269.36-.269a4.576,4.576,0,0,1,1.32.51,2.916,2.916,0,0,0,1.86.54Zm-.12,18.508c.87,0,.87-.479.87-1.139v-15.869c0-.6-.509-.72-.87-.72h-4.079a.768.768,0,0,0-.841.449c-.089.24-.089,8.91-.089,10.26,0,3.15.06,6.3.089,6.45.091.569.6.569.871.569Z" fill="#333"/>
        <path id="パス_1838" data-name="パス 1838" d="M-5675.78-1276.4a.845.845,0,0,1-.66-.241,11.271,11.271,0,0,0-3.72-3.6,6.9,6.9,0,0,0-.811-.421c-.029-.029-.12-.06-.12-.149s.151-.09.42-.09a7.683,7.683,0,0,1,1.86.179c.84.18.93.241,1.05.241.39,0,.51-.3.87-1.17a11.565,11.565,0,0,0,1.111-4.41c.029-.451.09-.84.359-.84.481,0,2.941,1.259,2.941,1.71,0,.3-.331.42-.63.54-.841.359-1.021.63-1.861,1.8a25.443,25.443,0,0,0-1.71,2.611c0,.18.18.329.451.539a2.97,2.97,0,0,1,1.319,2.131C-5674.911-1277.026-5675.211-1276.4-5675.78-1276.4Zm3.929.75c0-.091.06-.091.09-.091.51,0,4.38,1.56,4.38,3.96a1.219,1.219,0,0,1-1.11,1.32c-.6,0-.9-.72-1.08-1.23-.42-1.08-.449-1.2-.9-1.2-.03,0-1.44.27-1.65.3-.45.09-.75.18-.87.51-.09.271-.09,3.9-.09,4.439,0,1.021.181,6.451.181,6.481,0,.63-.181,1.649-1.471,1.649-.42,0-.75-.059-.75-1.469,0-.241.12-2.64.12-2.85v-6.9c0-.78,0-1.23-.479-1.23-.181,0-3.031.39-3.451.48-.179.03-.839.6-1.019.6-.66,0-1.111-2.58-1.111-2.91,0-.18.061-.39.3-.39a4.261,4.261,0,0,1,.75.36,18.13,18.13,0,0,0,3.45.39c.63,0,.871,0,1.44-.93a43.975,43.975,0,0,0,3.391-7.049c.21-.87.239-.961.6-.961.54,0,2.73,1.141,2.73,1.71,0,.24-.15.33-.39.36a1.834,1.834,0,0,0-.93.481c-.57.63-1.38,1.71-1.92,2.34-.45.569-3.06,3.719-3.06,3.869,0,.24.12.24,1.2.24.99,0,2.67,0,2.82-.27C-5670.5-1273.966-5671.851-1275.616-5671.851-1275.645Zm-3.99,6.959c0,.21-.78.75-.87.9a24.005,24.005,0,0,0-.989,2.22c-1.53,3.36-3,4.889-3.21,4.889-.061,0-.061-.03-.061-.059,0-.181.66-1.561.781-1.86a32.78,32.78,0,0,0,1.62-6.66c0-.15-.151-.72-.151-.87s.18-.21.271-.21a7.247,7.247,0,0,1,1.26.54C-5676.711-1269.556-5675.841-1269.076-5675.841-1268.686Zm8.19,3.75a1.342,1.342,0,0,1-1.26,1.469c-.66,0-.72-.21-1.29-2.1a11.172,11.172,0,0,0-1.47-3.48c-.03-.06-.21-.39-.21-.42s0-.09.06-.09a7.823,7.823,0,0,1,1.14.66C-5670.111-1268.506-5667.651-1266.706-5667.651-1264.936Zm2.67,3.99c-2.16,0-3,.029-3.78.09-.12,0-.54.059-.63.059-.12,0-.18-.059-.27-.179l-.6-.691c-.09-.119-.12-.149-.12-.179,0-.06.03-.09.12-.09.21,0,1.11.12,1.32.12,1.05.059,2.43.09,4.11.09h1.05c.179,0,.63,0,.78-.39.149-.33.149-7.41.149-8.61,0-.78,0-11.28-.089-11.61-.09-.569-.48-.6-.9-.6h-.511c-1.559,0-2.669.03-3.659.089-.09,0-.54.06-.63.06-.12,0-.18-.06-.27-.18l-.569-.689c-.121-.15-.151-.15-.151-.21,0-.03.06-.061.12-.061.21,0,1.14.09,1.32.09,1.47.09,2.7.12,4.11.12h3.63c1.439,0,1.59,0,2.04-.54.9-1.08,1.019-1.2,1.29-1.2.359,0,2.609,1.71,2.609,2.1,0,.42-.6.42-1.62.42h-3.63c-.689,0-.929.21-.929.9,0,1.681,0,19.44.06,19.71.06.48.329.6.9.6,1.469,0,1.65,0,1.889-.27.271-.27,1.231-1.74,1.59-1.74s2.641,1.92,2.641,2.37c0,.42-.6.42-1.62.42Z" fill="#333"/>
        <path id="パス_1839" data-name="パス 1839" d="M-5624.211-1275.316a26.436,26.436,0,0,0,7.26,2.37c.12,0,.63.09.63.21,0,.09-.42.21-.54.24a5.2,5.2,0,0,0-2.281,1.62c-.089.12-.419.75-.569.75-.181,0-6.69-3.15-9.63-7.95-.57-.96-.66-1.05-.87-1.05s-.27.061-.93.75a35.68,35.68,0,0,1-8.879,6.99,25.993,25.993,0,0,1-4.71,1.92c-.09,0-.151-.06-.151-.09s3.21-2.01,3.481-2.19c4.049-2.55,8.339-7.14,8.759-9.39.03-.24.06-.33.27-.33.15,0,2.58.93,2.73,1.02.09.03.39.15.39.45a1.873,1.873,0,0,1-.12.42C-5629.311-1279.126-5626.731-1276.606-5624.211-1275.316Zm-14.46-7.47c-2.22,0-3.239.061-3.809.091-.09,0-.54.059-.63.059s-.151-.059-.271-.179l-.569-.691c-.12-.149-.12-.149-.12-.21s.03-.059.09-.059c.21,0,1.139.09,1.32.09,1.47.059,2.729.12,4.14.12h.87c.63,0,.809-.3.809-.811a4.844,4.844,0,0,0-.24-1.59,4.738,4.738,0,0,1-.18-.6c0-.151.151-.21.33-.21.21,0,1.56.33,1.89.42.9.24,1.08.3,1.08.57,0,.18-.03.239-.45.779a.736.736,0,0,0-.21.54c0,.72.24.9,1.05.9h4.95c.27,0,.9,0,.9-.811a12.4,12.4,0,0,0-.09-1.349c-.03-.151-.18-.781-.18-.9,0-.149.18-.21.33-.21.21,0,2.25.481,2.58.571s.51.21.51.48c0,.18-.12.3-.45.54a.959.959,0,0,0-.39.84c0,.84.479.84.96.84h1.53c1.319,0,1.47,0,1.92-.51.84-.99.93-1.11,1.2-1.11.181,0,2.79,1.589,2.79,1.979,0,.42-.6.42-1.59.42h-5.849c-.93,0-.93.481-.93,1.2,0,.181.029,1.2.029,1.351,0,1.109-.9,1.289-1.529,1.289-.69,0-.81-.119-.81-1.14v-2.069c-.09-.57-.45-.631-.93-.631h-4.8c-.689,0-1.11,0-1.11.841,0,.3.091,1.619.091,1.89,0,.57-.091.839-.361,1.019a2.131,2.131,0,0,1-1.139.42c-.511,0-.75-.33-.75-.93,0-.24.029-1.38.029-1.59,0-1.169,0-1.65-.93-1.65Zm2.13,15.33a15.409,15.409,0,0,1,2.311,1.41.739.739,0,0,1,.239.45c0,.36-.239.419-.96.6-.09.029-2.67,2.04-3.15,2.4a18.5,18.5,0,0,1-4.559,2.61.1.1,0,0,1-.09-.09c0-.061,1.59-1.44,1.8-1.65a17.3,17.3,0,0,0,4.289-5.7A.187.187,0,0,1-5636.541-1267.456Zm1.38-1.59c-2.34,0-3.21.03-3.81.09-.09,0-.54.06-.63.06s-.15-.06-.269-.18l-.57-.69c-.121-.15-.121-.15-.121-.21,0-.03.031-.06.09-.06.21,0,1.14.09,1.321.09,1.469.09,2.729.12,4.139.12h2.25c.3,0,.9,0,.9-.81,0-.36-.18-2.79-.24-3.089,0-.061-.18-.361-.18-.421s.06-.18.3-.18c.21,0,2.309.45,2.609.54.42.09.57.36.57.51,0,.18-.06.24-.51.63-.42.36-.42.54-.42,1.44,0,1.08,0,1.38.9,1.38h1.32c1.32,0,1.47,0,1.92-.51.84-.99.93-1.11,1.2-1.11.181,0,2.79,1.62,2.79,1.98,0,.42-.6.42-1.589.42h-5.67c-.9,0-.9.54-.9,1.5,0,2.13,0,3.329.06,5.1.03.51.03,1.229.03,1.59,0,.96-.24,1.529-1.53,1.529-.66,0-.72-.539-.72-1.05,0-.389.09-2.189.09-2.579.03-1.14.03-2.25.03-3.63a18.158,18.158,0,0,0-.06-2.04c-.15-.42-.63-.42-.869-.42Zm8.01,2.52c0-.09.15-.12.27-.12,1.11,0,7.949,1.889,7.949,4.38,0,.96-.54,1.71-1.29,1.71-.569,0-.689-.151-1.62-1.531a14.239,14.239,0,0,0-5.159-4.319C-5627.031-1266.406-5627.151-1266.5-5627.151-1266.526Z" fill="#333"/>
        <path id="パス_1840" data-name="パス 1840" d="M-5606.049-1280.265a7.087,7.087,0,0,0,2.49.629c1.23,0,10.02-.839,11.309-1.41.931-.42,1.051-.479,1.261-.479.659,0,1.139.42,2.069,1.229,1.351,1.2,1.53,1.531,1.53,1.95,0,.39-.15.541-.69,1.081a4.948,4.948,0,0,0-1.17,1.889c-4.709,9.78-15.179,13.98-15.478,13.98a.2.2,0,0,1-.21-.18c0-.12.089-.181.389-.391,5.22-3.659,9.449-7.619,11.85-11.879a16.944,16.944,0,0,0,2.04-5.07c0-.51-.511-.54-.66-.54-.3,0-8.97,1.441-10.8,2.16a10.807,10.807,0,0,1-1.5.66c-.69,0-3.09-1.5-3.09-3.15,0-.569.09-.66.271-.66C-5606.379-1280.446-5606.108-1280.265-5606.049-1280.265Zm21.989-.121c0,.42-.39,1.14-.93,1.14-.48,0-.72-.3-1.529-1.439a8.918,8.918,0,0,0-1.951-1.951c-.12-.089-.42-.36-.42-.479s.27-.21.54-.21C-5586.22-1283.325-5584.06-1281.765-5584.06-1280.386Zm2.28-2.28c0,.33-.239.9-.78.9-.66,0-1.02-.54-1.53-1.231a7.45,7.45,0,0,0-2.49-1.829c-.3-.15-.39-.271-.39-.36,0-.3.9-.3,1.14-.3C-5584.57-1285.485-5581.78-1284.586-5581.78-1282.666Z" fill="#333"/>
        <path id="パス_1841" data-name="パス 1841" d="M-5566.946-1276.7a30.109,30.109,0,0,0-.24,5.64c0,.87,0,1.59.99,1.59,1.289,0,8.969-3.24,14.249-7.83.42-.36.479-.42.689-.42a.236.236,0,0,1,.24.241c0,.3-4.439,5.159-11.789,9-3.48,1.8-3.719,1.98-4.349,2.759-.151.21-.211.241-.33.241-.241,0-2.04-1.47-2.04-2.28,0-.15.239-1.35.269-1.41a22.761,22.761,0,0,0,.151-3.87c0-3.96,0-4.769-.781-6.18a5.762,5.762,0,0,1-.66-1.17c0-.12.181-.15.3-.15.329,0,3.779.6,3.779,1.83C-5566.467-1278.466-5566.887-1277.026-5566.946-1276.7Z" fill="#333"/>
        <path id="パス_1842" data-name="パス 1842" d="M-5531.412-1267.156a20.951,20.951,0,0,0-2.94,2.46c-.57.689-.629.75-1.08.75-1.62,0-3.839-1.92-3.839-3.12,0-.21.029-1.59.3-1.59a7.4,7.4,0,0,1,.9.57,4.967,4.967,0,0,0,2.04.69c1.471,0,9.42-5.31,14.4-10.23.481-.479,1.321-1.32,1.38-1.32a.194.194,0,0,1,.151.15C-5520.1-1278.526-5523.612-1272.916-5531.412-1267.156Zm-2.46-9.87c-.81,0-1.109-.48-2.1-1.98a6.756,6.756,0,0,0-2.73-2.46c-.119-.059-.27-.15-.27-.269s.241-.271.661-.271c3.209,0,5.729,1.71,5.729,3.48A1.325,1.325,0,0,1-5533.872-1277.026Z" fill="#333"/>
        <path id="パス_1843" data-name="パス 1843" d="M-5504.559-1284.315c1.081,0,3.241.96,3.241,1.92,0,.21-.3,1.08-.33,1.259a38.212,38.212,0,0,0-.3,4.2c0,.63.149.75.989.929,1.92.451,6.51,2.64,6.51,4.86a1.05,1.05,0,0,1-1.11,1.05c-.72,0-.75-.06-2.82-2.73-.84-1.08-2.25-2.52-3.18-2.52-.33,0-.419,0-.419,2.22,0,3.18.03,4.77.149,7.47.03.33.06,1.08.06,1.53,0,.72,0,2.73-.87,2.73-.929,0-1.679-2.04-1.679-2.821,0-.12.12-.75.12-.87a40.308,40.308,0,0,0,.269-6.959c0-8.88,0-9.54-.359-10.5a3.335,3.335,0,0,0-1.051-1.38.227.227,0,0,1-.059-.12C-5505.339-1284.286-5504.589-1284.315-5504.559-1284.315Zm12.63,5.13c0,.389-.33,1.139-.93,1.139-.45,0-.72-.3-1.5-1.439a8.394,8.394,0,0,0-1.95-1.95c-.12-.09-.419-.361-.419-.481,0-.149.269-.21.54-.21C-5494.059-1282.126-5491.929-1280.536-5491.929-1279.185Zm2.43-3.42c0,.33-.24.9-.78.9-.66,0-1.02-.479-1.56-1.17a7.58,7.58,0,0,0-2.58-1.71c-.3-.12-.39-.269-.39-.33,0-.18.36-.359,1.14-.359C-5491.509-1285.275-5489.5-1284.075-5489.5-1282.6Z" fill="#333"/>
        <path id="パス_1844" data-name="パス 1844" d="M-5480.291-1267.846c-.54,0-1.2-.18-1.2-.96,0-.96.99-.96,1.2-.96h4.529c1.2,0,1.2.81,1.2.96,0,.96-.871.96-1.2.96Z" fill="#333"/>
      </g>
    </g>
    <g id="グループ_428" data-name="グループ 428">
      <g id="グループ_427" data-name="グループ 427">
        <path id="パス_1845" data-name="パス 1845" d="M-5690.03-1235.07a2.971,2.971,0,0,0-2.782-1.633,2.733,2.733,0,0,0-2.9,2.461c0,1.356,1.333,2.069,2.414,2.483l1.242.483c2.46.966,4.3,2.322,4.3,5.22a5.345,5.345,0,0,1-5.542,5.4,5.4,5.4,0,0,1-5.357-4.853l2.184-.46a3.247,3.247,0,0,0,3.358,3.289,3.261,3.261,0,0,0,3.2-3.38c0-1.863-1.5-2.667-2.99-3.289l-1.2-.505c-1.977-.851-3.771-1.978-3.771-4.392,0-2.806,2.483-4.484,5.1-4.484a4.944,4.944,0,0,1,4.461,2.621Z" fill="#333"/>
        <path id="パス_1846" data-name="パス 1846" d="M-5667.556-1231.368v-6.99h2.162v17.338h-2.162v-8.325h-8.255v8.325h-2.162v-17.338h2.162v6.99Z" fill="#333"/>
        <path id="パス_1847" data-name="パス 1847" d="M-5652.4-1221.02h-2.162v-17.338h2.162Z" fill="#333"/>
        <path id="パス_1848" data-name="パス 1848" d="M-5641.609-1239.186l13.014,13.635v-12.807h2.162v18.051l-13.015-13.636v12.923h-2.161Z" fill="#333"/>
        <path id="パス_1849" data-name="パス 1849" d="M-5617.623-1238.358h2.483l4.254,7.4,4.254-7.4h2.484l-5.657,9.8v7.542h-2.162v-7.542Z" fill="#333"/>
        <path id="パス_1850" data-name="パス 1850" d="M-5572.2-1235.07a2.971,2.971,0,0,0-2.783-1.633,2.734,2.734,0,0,0-2.9,2.461c0,1.356,1.334,2.069,2.415,2.483l1.241.483c2.461.966,4.3,2.322,4.3,5.22a5.345,5.345,0,0,1-5.542,5.4,5.4,5.4,0,0,1-5.358-4.853l2.184-.46a3.248,3.248,0,0,0,3.358,3.289,3.26,3.26,0,0,0,3.2-3.38c0-1.863-1.494-2.667-2.989-3.289l-1.195-.505c-1.978-.851-3.772-1.978-3.772-4.392,0-2.806,2.483-4.484,5.1-4.484a4.945,4.945,0,0,1,4.461,2.621Z" fill="#333"/>
        <path id="パス_1851" data-name="パス 1851" d="M-5550.53-1238.358h2.828l-7.795,7.8,7.933,9.543h-2.92l-6.531-8.072-.874.829v7.243h-2.162v-17.338h2.162v7.518Z" fill="#333"/>
        <path id="パス_1852" data-name="パス 1852" d="M-5536.371-1221.02h-2.161v-17.338h2.161Z" fill="#333"/>
        <path id="パス_1853" data-name="パス 1853" d="M-5525.584-1239.186l13.016,13.635v-12.807h2.161v18.051l-13.015-13.636v12.923h-2.162Z" fill="#333"/>
      </g>
    </g>
    <g id="グループ_430" data-name="グループ 430">
      <g id="グループ_429" data-name="グループ 429">
        <path id="パス_1854" data-name="パス 1854" d="M-5701.546-1188.229a3.637,3.637,0,0,0-1.783-.287,7.117,7.117,0,0,0-1.824.41,6.1,6.1,0,0,1,4.181,1.127,4.112,4.112,0,0,1,1.394,3.834,12.443,12.443,0,0,1-1.25,4.386,33.885,33.885,0,0,1-2.316,4.018q-1.066,1.6-2.419,3.26a22.455,22.455,0,0,1-2.994,3.034,19.124,19.124,0,0,1-3.5,2.337,10.3,10.3,0,0,1-3.915,1.128,7.332,7.332,0,0,1-1.948-.1,3.029,3.029,0,0,1-1.7-.923,3.247,3.247,0,0,1-.9-1.926,8.159,8.159,0,0,1,.041-2.173,14.846,14.846,0,0,1,1.414-4.285,37.53,37.53,0,0,1,2.275-3.915,31.178,31.178,0,0,1,2.624-3.711,41.716,41.716,0,0,1,3.075-3.341,32.15,32.15,0,0,1,3.342-2.747,9.461,9.461,0,0,1,3.915-1.682,8.7,8.7,0,0,1,1.578-.123,2.184,2.184,0,0,1,1.456.451.683.683,0,0,1,.267.472.769.769,0,0,1-.1.472.753.753,0,0,1-.369.307A.659.659,0,0,1-5701.546-1188.229Zm-7.79,2.706a26.082,26.082,0,0,0-3.3,3.218,41.161,41.161,0,0,0-2.808,3.669,29.905,29.905,0,0,0-2.276,3.915,16.757,16.757,0,0,0-1.415,4.286,8.2,8.2,0,0,0-.123.922,4.909,4.909,0,0,0,.021,1,3.41,3.41,0,0,0,.246.923,1.664,1.664,0,0,0,.6.717,2.563,2.563,0,0,0,1.578.472,8.345,8.345,0,0,0,1.62-.185,11.32,11.32,0,0,0,4.1-1.722,29.011,29.011,0,0,0,3.486-2.747,26.317,26.317,0,0,0,3.053-3.362,22.077,22.077,0,0,0,2.358-3.853q.369-.74.82-1.784a10.893,10.893,0,0,0,.677-2.153,6.289,6.289,0,0,0,.082-2.132,2.762,2.762,0,0,0-.923-1.721,2.657,2.657,0,0,0-1.845-.718,10.883,10.883,0,0,0-2.049.143.671.671,0,0,1-.657-.205.876.876,0,0,1-.246-.738,16.115,16.115,0,0,0-1.619,1.025Q-5708.762-1185.975-5709.336-1185.523Z" fill="#333"/>
        <path id="パス_1855" data-name="パス 1855" d="M-5702.752-1171.912q.861-.45,1.7-.9t1.824-1.026a1.98,1.98,0,0,1,.472-1.475,1.621,1.621,0,0,1,1.414-.657.831.831,0,0,1,.738.575.99.99,0,0,1-.164.942,2.725,2.725,0,0,1-.861.82,1.376,1.376,0,0,0,.7.164,3.753,3.753,0,0,0,1.8-.307,11.943,11.943,0,0,0,1.682-.841c.491-.164.8-.108.942.164a.976.976,0,0,1-.164.984q-.206.328-.472.841a7.99,7.99,0,0,0-.45,1.045,3.611,3.611,0,0,0-.205,1.026.919.919,0,0,0,.308.779c.135.163.5.163,1.086,0s1.374-.438,2.357-.82q.492-.205,1-.472c.342-.178.689-.349,1.045-.513a2.106,2.106,0,0,0,.369-.184,2,2,0,0,1,.472-.205.7.7,0,0,1,.41,0q.185.062.184.43a.481.481,0,0,1-.184.369,2.168,2.168,0,0,1-.41.287,2.859,2.859,0,0,1-.472.206l-.369.123-1.722.779q-.452.245-1.127.614a9.39,9.39,0,0,1-1.374.615,4.057,4.057,0,0,1-1.352.246,1.177,1.177,0,0,1-1.026-.533,1.347,1.347,0,0,1-.246-.635,2.385,2.385,0,0,1,.021-.7,6.2,6.2,0,0,1,.164-.7c.068-.232.13-.457.184-.677l.328-1.352c-.136.027-.417.095-.84.205a8.277,8.277,0,0,1-1.373.225,6.931,6.931,0,0,1-1.415-.02,1.375,1.375,0,0,1-1-.533c-.466.246-.848.451-1.149.615s-.608.342-.922.532-.568.343-.758.451a2.465,2.465,0,0,0-.575.308.482.482,0,0,1-.574.061.512.512,0,0,1-.246-.451A.425.425,0,0,1-5702.752-1171.912Z" fill="#333"/>
        <path id="パス_1856" data-name="パス 1856" d="M-5683.281-1173.88c.109-.054.362-.164.759-.328a6.73,6.73,0,0,1,1.168-.369,2.2,2.2,0,0,1,.984-.02c.272.069.369.322.287.758a2.034,2.034,0,0,1-.349.739,2.778,2.778,0,0,0-.389.738,9.4,9.4,0,0,0-.472,1.311,1.385,1.385,0,0,0,.144,1.272,3.87,3.87,0,0,0,1.538-.164q.839-.246,1.537-.492a8,8,0,0,0,.779-.411q.573-.327,1.209-.635a6.782,6.782,0,0,1,1.169-.451c.355-.095.574-.062.656.1q.164.288-.2.615a3.963,3.963,0,0,1-.923.595q-.553.267-1.127.492c-.383.151-.629.253-.738.308q-.9.451-1.824.881a7.334,7.334,0,0,1-1.907.594,1.116,1.116,0,0,1-1.189-.369,2.2,2.2,0,0,1-.328-1.25,6.62,6.62,0,0,1,.226-1.64q.223-.881.471-1.619-.945.369-1.845.676a16.63,16.63,0,0,0-1.763.717q-.738.33-1.476.738a.621.621,0,0,1-.717-.225c-.178-.232-.1-.431.225-.595Zm4.8-8.282a2.38,2.38,0,0,1,.635-.922,3.841,3.841,0,0,1,.964-.636,6.115,6.115,0,0,1,1.127-.389c.4-.1.773-.17,1.128-.226a14.843,14.843,0,0,1,2.911.123,2.2,2.2,0,0,1,.553.082.364.364,0,0,1,.267.451.62.62,0,0,1-.205.349.413.413,0,0,1-.369.1,9.885,9.885,0,0,0-2.48-.185,4.408,4.408,0,0,0-2.317.759,1.333,1.333,0,0,0-.574.655,1.491,1.491,0,0,1-.492.656.646.646,0,0,1-.861,0A.671.671,0,0,1-5678.484-1182.162Z" fill="#333"/>
        <path id="パス_1857" data-name="パス 1857" d="M-5674.909-1171.871q1.065-.531,2.091-1.024t2.091-.9a14.688,14.688,0,0,1,2.275-.615,13.229,13.229,0,0,1,2.357-.205,1,1,0,0,1,.7.226c.164.151.177.4.041.758a.807.807,0,0,1-.739.411,14.07,14.07,0,0,0-2.152,0,6.6,6.6,0,0,0-2.07.492,3.465,3.465,0,0,0-.7.369,4.358,4.358,0,0,0-.676.553,1.734,1.734,0,0,0-.43.676.989.989,0,0,0,.082.78,1.481,1.481,0,0,0,1.25.819,4.241,4.241,0,0,0,1.579-.041,4.212,4.212,0,0,0,.942-.327l.739-.369a2.668,2.668,0,0,1,.594-.226.628.628,0,0,1,.553.185.866.866,0,0,1,.021.942q-.267.534-.43.9l-.574,1.354a32.006,32.006,0,0,1,2.337-2.194,18.593,18.593,0,0,1,2.624-1.866c.082-.054.19-.136.328-.246a3.9,3.9,0,0,1,.451-.307,1.9,1.9,0,0,1,.491-.2.463.463,0,0,1,.41.061c.192.138.26.274.205.41a1.215,1.215,0,0,1-.287.41q-1.066.575-2.049,1.231a18.863,18.863,0,0,0-1.927,1.475,24.283,24.283,0,0,0-2.029,1.927,24.02,24.02,0,0,0-1.785,2.132l-1.065,2.46q-.491,1.23-.984,2.5t-1.066,2.5c-.082.164-.184.362-.308.595a5.32,5.32,0,0,1-.41.656,1.812,1.812,0,0,1-.533.492,1.064,1.064,0,0,1-.677.144.745.745,0,0,1-.634-.451,1.613,1.613,0,0,1-.082-.821,5.273,5.273,0,0,1,.2-.9,7.8,7.8,0,0,1,.266-.738,21.288,21.288,0,0,1,1.949-3.588,37.348,37.348,0,0,1,2.48-3.3l1.394-3.978a10.6,10.6,0,0,1-1.579.308,6.826,6.826,0,0,1-1.579.02,3.5,3.5,0,0,1-1.332-.41,1.981,1.981,0,0,1-.882-1.065,1.993,1.993,0,0,1,.041-1.723c-.218.138-.444.281-.676.431a.7.7,0,0,1-.594.143.441.441,0,0,1-.492-.348A.416.416,0,0,1-5674.909-1171.871Z" fill="#333"/>
        <path id="パス_1858" data-name="パス 1858" d="M-5657.025-1173.88c.109-.054.362-.164.758-.328a6.783,6.783,0,0,1,1.168-.369,2.2,2.2,0,0,1,.985-.02c.272.069.369.322.287.758a2.032,2.032,0,0,1-.349.739,2.766,2.766,0,0,0-.389.738,9.4,9.4,0,0,0-.472,1.311,1.385,1.385,0,0,0,.143,1.272,3.873,3.873,0,0,0,1.539-.164q.839-.246,1.537-.492a8.127,8.127,0,0,0,.779-.411q.573-.327,1.209-.635a6.767,6.767,0,0,1,1.169-.451c.354-.095.574-.062.656.1q.163.288-.205.615a3.991,3.991,0,0,1-.923.595q-.554.267-1.127.492c-.384.151-.63.253-.738.308q-.9.451-1.824.881a7.343,7.343,0,0,1-1.907.594,1.116,1.116,0,0,1-1.189-.369,2.2,2.2,0,0,1-.328-1.25,6.62,6.62,0,0,1,.226-1.64q.223-.881.471-1.619-.946.369-1.845.676a16.63,16.63,0,0,0-1.763.717c-.492.22-.985.466-1.476.738a.624.624,0,0,1-.718-.225c-.177-.232-.1-.431.226-.595Zm4.8-8.282a2.386,2.386,0,0,1,.635-.922,3.82,3.82,0,0,1,.964-.636,6.115,6.115,0,0,1,1.127-.389c.4-.1.773-.17,1.128-.226a14.853,14.853,0,0,1,2.911.123,2.188,2.188,0,0,1,.553.082.362.362,0,0,1,.266.451.606.606,0,0,1-.205.349.41.41,0,0,1-.368.1,9.889,9.889,0,0,0-2.48-.185,4.412,4.412,0,0,0-2.318.759,1.332,1.332,0,0,0-.573.655,1.492,1.492,0,0,1-.492.656.646.646,0,0,1-.861,0A.672.672,0,0,1-5652.228-1182.162Z" fill="#333"/>
        <path id="パス_1859" data-name="パス 1859" d="M-5648.851-1171.871q.45-.246,1.558-.84t2.275-1.128a10.545,10.545,0,0,1,2.153-.738q.984-.2,1.23.328a.814.814,0,0,1-.1.8,3.421,3.421,0,0,0-.39.718l-.492,1.147a10.267,10.267,0,0,1,1.066-.574l1.067-.491q1.311-.7,2.705-1.477a13.281,13.281,0,0,1,2.829-1.188,2.022,2.022,0,0,1,.943-.021,1.186,1.186,0,0,1,.636.369,1.05,1.05,0,0,1,.226.7,1.7,1.7,0,0,1-.329.923,6.861,6.861,0,0,1-.8,1.025q-.431.452-.882.983a2.467,2.467,0,0,1-.286.328q-.207.205-.431.472t-.41.533a1.338,1.338,0,0,0-.226.471,1.538,1.538,0,0,0,.718,0,6.47,6.47,0,0,0,.86-.225c.288-.095.561-.2.821-.307s.457-.192.594-.246l1.681-.739q.163-.081.431-.246c.178-.108.362-.211.553-.307s.375-.185.554-.267a1.094,1.094,0,0,1,.43-.123.326.326,0,0,1,.369.369.641.641,0,0,1-.328.574q-.369.206-.778.39l-.862.39q-.575.327-1.107.574c-.356.163-.725.342-1.107.532q-.327.165-1.046.472a7.291,7.291,0,0,1-1.434.451,2.374,2.374,0,0,1-1.251-.041c-.356-.123-.532-.457-.532-1.005a1.363,1.363,0,0,1,.2-.737,5.21,5.21,0,0,1,.471-.636,8.071,8.071,0,0,1,.575-.595c.205-.19.389-.369.553-.533a9.2,9.2,0,0,0,.821-.86,3.338,3.338,0,0,0,.737-1.231,8.554,8.554,0,0,0-2.234.575,22.553,22.553,0,0,0-2.071.943q-1.189.575-2.46,1.291a9.517,9.517,0,0,0-2.213,1.7.8.8,0,0,1-.431.185.777.777,0,0,1-.431-.082.659.659,0,0,1-.307-.308.759.759,0,0,1-.021-.532,1.27,1.27,0,0,1,.615-.656,7.575,7.575,0,0,0,.41-.759,2.474,2.474,0,0,1,.288-.513c.053-.19.108-.389.164-.594a5.474,5.474,0,0,0,.123-.635c-.3.082-.6.177-.9.287s-.533.191-.7.246c-.383.164-.766.321-1.147.471s-.766.322-1.149.512c-.219.11-.417.22-.6.328a3.39,3.39,0,0,1-.593.287.651.651,0,0,1-.472.062.773.773,0,0,1-.349-.185.356.356,0,0,1-.1-.307Q-5649.137-1171.748-5648.851-1171.871Z" fill="#333"/>
        <path id="パス_1860" data-name="パス 1860" d="M-5630.245-1171.871q.492-.246,1.251-.635t1.619-.758c.574-.247,1.128-.478,1.66-.7s.978-.4,1.333-.533q.286-.123,1.026-.368t1.557-.451a11.786,11.786,0,0,1,1.537-.287,1.671,1.671,0,0,1,1.046.123c.328.3.39.574.185.819a1.253,1.253,0,0,1-.759.451l-1.845.2a4.338,4.338,0,0,0-.964.39q-.388.225-.88.554c-.138.109-.376.335-.718.676s-.677.711-1.005,1.107a6.488,6.488,0,0,0-.778,1.148q-.289.554,0,.8a.917.917,0,0,0,.8.082,6.337,6.337,0,0,0,1.128-.369c.382-.163.739-.334,1.066-.512a6.157,6.157,0,0,0,.656-.389,8.818,8.818,0,0,0,1.927-1.559.543.543,0,0,1,.8-.1.692.692,0,0,1,.266.841,1.111,1.111,0,0,1-.287.492l-.39.39a1.419,1.419,0,0,0-.307.513c-.11.191-.137.335-.082.43a.391.391,0,0,0,.287.184,4.428,4.428,0,0,0,1.435-.082,16.048,16.048,0,0,0,1.784-.45,18.473,18.473,0,0,0,1.824-.677q.9-.39,1.558-.718a1.679,1.679,0,0,0,.452-.225,3.446,3.446,0,0,1,.593-.308,1.6,1.6,0,0,1,.6-.123.425.425,0,0,1,.41.246.335.335,0,0,1-.02.451,1.47,1.47,0,0,1-.513.349c-.219.1-.437.185-.656.267a5.157,5.157,0,0,0-.491.2q-.7.327-1.4.635l-1.435.635q-.492.207-1.066.492a9.058,9.058,0,0,1-1.188.493,6.822,6.822,0,0,1-1.251.287,2.376,2.376,0,0,1-1.168-.123,1.224,1.224,0,0,1-.821-.8,2.114,2.114,0,0,1,.041-1.086l-1.107.655q-.7.411-1.455.841a3.994,3.994,0,0,1-1.579.513,2.154,2.154,0,0,1-1.312-.328,1.359,1.359,0,0,1-.615-1.149,2.425,2.425,0,0,1,.328-1.045,9.014,9.014,0,0,1,.841-1.312,9.7,9.7,0,0,1,1.127-1.25,5.729,5.729,0,0,1,1.148-.862,8.134,8.134,0,0,0-.923.369q-.634.288-1.434.7t-1.682.84q-.883.43-1.619.8a.494.494,0,0,1-.41.062.561.561,0,0,1-.308-.2.476.476,0,0,1-.082-.328A.418.418,0,0,1-5630.245-1171.871Z" fill="#333"/>
        <path id="パス_1861" data-name="パス 1861" d="M-5612.226-1171.912a26.153,26.153,0,0,0,2.46-1.27q1.188-.7,2.378-1.518a22.076,22.076,0,0,1,1.271-2.214q.7-1.065,1.353-2.091.7-.942,1.394-1.906t1.435-1.906q.617-.82,1.333-1.661a6.125,6.125,0,0,1,1.661-1.373,3.376,3.376,0,0,1,1.106-.349.764.764,0,0,1,.9.595,1.3,1.3,0,0,1,.021.881,3.677,3.677,0,0,1-.431.861,9.118,9.118,0,0,1-.615.82q-.328.39-.533.676a32.824,32.824,0,0,1-3.669,4.367,38.352,38.352,0,0,1-4.366,3.751q-.207.492-.472,1.046a9.908,9.908,0,0,0-.472,1.168,6.827,6.827,0,0,0-.287,1.21,3.11,3.11,0,0,0,.041,1.128c.3-.055.574-.1.821-.123q.325-.041.614-.062a1.21,1.21,0,0,0,.369-.061,18.675,18.675,0,0,0,2.419-.656q1.189-.411,2.337-.9a3.414,3.414,0,0,0,.779-.328.737.737,0,0,1,.779-.041c.3.22.341.417.123.595a2.642,2.642,0,0,1-.615.389l-4.756,1.763q-.7.246-1.353.513a4.217,4.217,0,0,1-1.353.307,1.329,1.329,0,0,1-.984-.184,1.371,1.371,0,0,1-.512-.7,2.317,2.317,0,0,1-.1-.943,5.213,5.213,0,0,1,.163-.964,14.317,14.317,0,0,1,.738-1.967,31.691,31.691,0,0,1-3.525,2.008.64.64,0,0,1-.677-.266C-5612.629-1171.549-5612.554-1171.748-5612.226-1171.912Zm8.324-5.616a31.679,31.679,0,0,0,3.525-3.9,13.953,13.953,0,0,0,1.4-1.967,4.706,4.706,0,0,1,.245-.513,5.289,5.289,0,0,0,.287-.636,4.443,4.443,0,0,0-1.086.779c-.343.329-.622.6-.841.821a21.955,21.955,0,0,0-1.763,1.988q-.819,1.046-1.64,2.152-.452.657-.861,1.292t-.779,1.291c.246-.19.5-.4.759-.635S-5604.148-1177.309-5603.9-1177.528Z" fill="#333"/>
        <path id="パス_1862" data-name="パス 1862" d="M-5583.65-1179.907a28.1,28.1,0,0,1,3.772-2.808q2.008-1.251,4.059-2.317,1.436-.736,2.952-1.394a30.587,30.587,0,0,1,3.116-1.148l.41-.491q.736-.78,1.578-1.518a5.882,5.882,0,0,1,1.825-1.106,5.131,5.131,0,0,1,.717-.164,3.357,3.357,0,0,1,.9-.041,1.333,1.333,0,0,1,.716.266q.288.227.124.758a.613.613,0,0,1-.369.41.8.8,0,0,1-.615,0,1.279,1.279,0,0,0-.779-.082,3.2,3.2,0,0,0-.841.308,5.214,5.214,0,0,0-.84.554q-.409.327-.738.574a17.57,17.57,0,0,1,2.173-.205,9.3,9.3,0,0,1,2.234.184,5.685,5.685,0,0,1,1.989.82,3.842,3.842,0,0,1,1.394,1.7,2.411,2.411,0,0,1,.061,1.967A5.344,5.344,0,0,1-5561-1181.9a11.207,11.207,0,0,1-1.763,1.435q-.962.636-1.7,1.045-1.722,1.067-3.506,1.969t-3.628,1.722a26.043,26.043,0,0,1,3.71-.472,7.3,7.3,0,0,1,3.424.6,2.878,2.878,0,0,1,1.353,1.045,3.023,3.023,0,0,1,.512,1.456,3.578,3.578,0,0,1-.246,1.578,4.013,4.013,0,0,1-.923,1.415,9.654,9.654,0,0,1-3.648,2.275,42.841,42.841,0,0,1-4.141,1.25,43.541,43.541,0,0,1-7.257,1.354,2.254,2.254,0,0,0,.615.942.656.656,0,0,1,.287.574.625.625,0,0,1-.287.451.94.94,0,0,1-.6.144.88.88,0,0,1-.635-.39,3.165,3.165,0,0,1-.451-.779,8.051,8.051,0,0,1-.287-.86,20.089,20.089,0,0,1-2.3.123,15.283,15.283,0,0,1-2.3-.164c-.22-.028-.512-.069-.882-.123a6.645,6.645,0,0,1-1.107-.267,3.075,3.075,0,0,1-.942-.492.93.93,0,0,1-.39-.759q0-.532.287-.635a.865.865,0,0,1,.636.041,5.2,5.2,0,0,1,.717.368,4.171,4.171,0,0,0,.574.308,8.706,8.706,0,0,0,2.378.492q1.23.083,2.46.082h.738a10.162,10.162,0,0,1,.431-3.157q.469-1.6.921-2.788l.206-.614c-.192.082-.383.157-.574.225s-.4.13-.615.185h-.041a1.242,1.242,0,0,1-.759-.062c-.2-.095-.294-.307-.266-.635a.608.608,0,0,1,.266-.493,2.6,2.6,0,0,1,.636-.348,4.653,4.653,0,0,1,.8-.226c.286-.054.539-.108.758-.164l.533-.123q.7-1.6,1.5-3.115t1.7-2.993q.861-1.436,1.763-2.85t1.927-2.726q-1.149.45-2.214.943t-2.009.983a27.136,27.136,0,0,0-2.932,1.66,27.753,27.753,0,0,0-2.726,2.031,3.767,3.767,0,0,0-.472.471q-.267.308-.553.615a4.3,4.3,0,0,1-.594.533.808.808,0,0,1-.6.184.667.667,0,0,1-.636-.492A.718.718,0,0,1-5583.65-1179.907Zm4.8,11.973a4.925,4.925,0,0,0-.124,1.721q1.887-.164,3.752-.492a28.338,28.338,0,0,0,3.67-.9c.6-.164,1.257-.364,1.968-.6a15.95,15.95,0,0,0,2.07-.841,12.154,12.154,0,0,0,1.866-1.127,4.852,4.852,0,0,0,1.353-1.5,1.7,1.7,0,0,0,.246-1.7,2.393,2.393,0,0,0-1.189-.984,6.718,6.718,0,0,0-1.824-.471,14.16,14.16,0,0,0-1.662-.123q-1.682.082-3.443.307a27.715,27.715,0,0,0-3.485.676l-1.8.7h-.041a22.1,22.1,0,0,0-.882,2.624A16.052,16.052,0,0,0-5578.853-1167.934Zm8.159-16.934q-1.436,1.845-2.686,3.793a42.617,42.617,0,0,0-2.275,4c-.219.384-.424.766-.615,1.149s-.369.765-.533,1.147q2.3-.779,4.531-1.763t4.366-2.091a30.008,30.008,0,0,0,2.685-1.516,18.681,18.681,0,0,0,2.44-1.846,13.461,13.461,0,0,0,1.046-1.086,2.452,2.452,0,0,0,.634-1.333,1.133,1.133,0,0,0-.142-.7,2.238,2.238,0,0,0-.492-.595,4.387,4.387,0,0,0-.657-.471,5.663,5.663,0,0,0-.635-.329,7.6,7.6,0,0,0-3.034-.533,13.848,13.848,0,0,0-3.157.451q-.41.411-.779.841T-5570.694-1184.868Z" fill="#333"/>
        <path id="パス_1863" data-name="パス 1863" d="M-5561.1-1171.912a26.273,26.273,0,0,0,2.46-1.27q1.188-.7,2.377-1.518a22.084,22.084,0,0,1,1.272-2.214q.7-1.065,1.352-2.091.7-.942,1.4-1.906t1.435-1.906q.615-.82,1.332-1.661a6.133,6.133,0,0,1,1.661-1.373,3.384,3.384,0,0,1,1.106-.349.765.765,0,0,1,.9.595,1.3,1.3,0,0,1,.02.881,3.605,3.605,0,0,1-.431.861,9.113,9.113,0,0,1-.615.82q-.329.39-.532.676a32.832,32.832,0,0,1-3.67,4.367,38.268,38.268,0,0,1-4.366,3.751c-.138.328-.294.677-.472,1.046a9.993,9.993,0,0,0-.472,1.168,6.872,6.872,0,0,0-.287,1.21,3.132,3.132,0,0,0,.041,1.128q.452-.082.821-.123.327-.041.615-.062a1.231,1.231,0,0,0,.369-.061,18.782,18.782,0,0,0,2.419-.656q1.188-.411,2.337-.9a3.421,3.421,0,0,0,.778-.328.737.737,0,0,1,.779-.041c.3.22.342.417.124.595a2.638,2.638,0,0,1-.616.389l-4.756,1.763c-.464.164-.916.335-1.352.513a4.223,4.223,0,0,1-1.354.307,1.325,1.325,0,0,1-.983-.184,1.378,1.378,0,0,1-.513-.7,2.334,2.334,0,0,1-.1-.943,5.172,5.172,0,0,1,.164-.964,14.188,14.188,0,0,1,.737-1.967,31.691,31.691,0,0,1-3.525,2.008.64.64,0,0,1-.677-.266C-5561.508-1171.549-5561.433-1171.748-5561.1-1171.912Zm8.323-5.616a31.679,31.679,0,0,0,3.525-3.9,13.993,13.993,0,0,0,1.4-1.967,5.018,5.018,0,0,1,.246-.513,5.369,5.369,0,0,0,.287-.636,4.438,4.438,0,0,0-1.087.779q-.513.493-.841.821a22.1,22.1,0,0,0-1.763,1.988q-.819,1.046-1.639,2.152-.453.657-.861,1.292t-.78,1.291c.246-.19.5-.4.759-.635Z" fill="#333"/>
        <path id="パス_1864" data-name="パス 1864" d="M-5549.116-1171.912q.738-.369,1.537-.819a13.512,13.512,0,0,1,1.62-.78,4.189,4.189,0,0,1,1.517-1.537,6.19,6.19,0,0,1,2.09-.8,5.387,5.387,0,0,1,1.333,0,1.616,1.616,0,0,1,1.168.615.639.639,0,0,1,.144.7,1.924,1.924,0,0,1-.492.7,4.891,4.891,0,0,1-.778.595q-.432.267-.636.39a5.866,5.866,0,0,1-1.619.675,5.17,5.17,0,0,1-1.785.144h-.164a2.314,2.314,0,0,0,.739,1.4,3.569,3.569,0,0,0,1.353.717,4.91,4.91,0,0,0,1.619.185,12.254,12.254,0,0,0,1.537-.164,18.229,18.229,0,0,0,1.928-.513,17.719,17.719,0,0,0,1.845-.718c.272-.136.554-.266.841-.389a8.692,8.692,0,0,0,.8-.39.785.785,0,0,1,.594.082c.2.11.226.287.062.533a1.049,1.049,0,0,1-.574.451c-.247.083-.465.165-.657.247l-2.049.9a35.158,35.158,0,0,1-3.731,1.229,6.122,6.122,0,0,1-1.661.1,4.815,4.815,0,0,1-1.558-.369,4.074,4.074,0,0,1-1.291-.882,3.227,3.227,0,0,1-.82-1.476c-.056-.218-.1-.436-.144-.656a1.307,1.307,0,0,1,.021-.614,8.007,8.007,0,0,0-.882.471l-.758.471a3.029,3.029,0,0,0-.533.308.555.555,0,0,1-.656.02.47.47,0,0,1-.226-.451A.384.384,0,0,1-5549.116-1171.912Zm4.181-1.147a4.767,4.767,0,0,0,1.908-.493,5.968,5.968,0,0,0,1.619-1.148,2.311,2.311,0,0,0-1.128-.122,3.232,3.232,0,0,0-1.025.327,3.169,3.169,0,0,0-.84.636A2.564,2.564,0,0,0-5544.935-1173.059Z" fill="#333"/>
        <path id="パス_1865" data-name="パス 1865" d="M-5534.7-1171.871q.452-.246,1.557-.84t2.277-1.128a10.472,10.472,0,0,1,2.152-.738c.655-.136,1.066-.026,1.23.328a.812.812,0,0,1-.1.8,3.412,3.412,0,0,0-.389.718l-.492,1.147a10.224,10.224,0,0,1,1.066-.574l1.066-.491q1.311-.7,2.706-1.477a13.285,13.285,0,0,1,2.829-1.188,2.02,2.02,0,0,1,.943-.021,1.184,1.184,0,0,1,.635.369,1.045,1.045,0,0,1,.226.7,1.686,1.686,0,0,1-.328.923,6.834,6.834,0,0,1-.8,1.025q-.431.452-.881.983a2.394,2.394,0,0,1-.287.328c-.138.137-.281.294-.431.472s-.287.356-.41.533a1.318,1.318,0,0,0-.225.471,1.534,1.534,0,0,0,.717,0,6.465,6.465,0,0,0,.862-.225c.286-.095.559-.2.819-.307s.458-.192.595-.246l1.681-.739q.163-.081.43-.246c.178-.108.362-.211.554-.307s.375-.185.554-.267a1.09,1.09,0,0,1,.43-.123.325.325,0,0,1,.368.369.642.642,0,0,1-.327.574c-.246.137-.507.267-.779.39s-.561.253-.861.39q-.575.327-1.107.574c-.355.163-.724.342-1.107.532q-.329.165-1.045.472a7.328,7.328,0,0,1-1.436.451,2.371,2.371,0,0,1-1.25-.041c-.356-.123-.533-.457-.533-1.005a1.36,1.36,0,0,1,.205-.737,4.881,4.881,0,0,1,.472-.636,7.845,7.845,0,0,1,.573-.595c.205-.19.39-.369.554-.533a9.226,9.226,0,0,0,.82-.86,3.338,3.338,0,0,0,.737-1.231,8.554,8.554,0,0,0-2.234.575,22.578,22.578,0,0,0-2.07.943q-1.189.575-2.46,1.291a9.544,9.544,0,0,0-2.214,1.7.789.789,0,0,1-.431.185.774.774,0,0,1-.43-.082.661.661,0,0,1-.308-.308.772.772,0,0,1-.021-.532,1.275,1.275,0,0,1,.616-.656,7.888,7.888,0,0,0,.41-.759,2.54,2.54,0,0,1,.287-.513c.055-.19.108-.389.164-.594a4.61,4.61,0,0,0,.123-.635c-.3.082-.6.177-.9.287s-.533.191-.7.246q-.573.246-1.147.471t-1.148.512c-.219.11-.417.22-.594.328a3.445,3.445,0,0,1-.595.287.65.65,0,0,1-.472.062.765.765,0,0,1-.348-.185.358.358,0,0,1-.1-.307C-5534.994-1171.686-5534.892-1171.789-5534.7-1171.871Z" fill="#333"/>
        <path id="パス_1866" data-name="パス 1866" d="M-5516.017-1171.912a13,13,0,0,0,2.03-.9q.961-.534,1.988-.985a8.4,8.4,0,0,1,1.354-.533q.694-.2,1.393-.41a5.333,5.333,0,0,1,1.764-.286.741.741,0,0,1,.614.327.594.594,0,0,1,.041.7.7.7,0,0,1-.368.349,1.751,1.751,0,0,1-.554.123c-.205.014-.41.02-.615.02h-.554a3.011,3.011,0,0,0-1.168.349,6.075,6.075,0,0,0-1.128.759,5.278,5.278,0,0,0-1.27,1.311c-.029.055-.09.171-.185.349s-.184.362-.266.554a3.574,3.574,0,0,0-.185.532.367.367,0,0,0,.062.369.4.4,0,0,0,.389.062,2.116,2.116,0,0,0,.532-.205q.267-.142.493-.287c.15-.095.253-.157.307-.184q.7-.411,1.313-.861t1.27-.9l1.927-1.722q.7-1.434,1.477-2.849t1.6-2.809q.574-.942,1.149-1.885t1.229-1.886q.615-.861,1.354-1.784a5.133,5.133,0,0,1,1.721-1.414c.192-.055.375-.11.554-.164a.95.95,0,0,1,.554,0,1.066,1.066,0,0,1,.655.328.993.993,0,0,1,.226.594,2.392,2.392,0,0,1-.082.738,2.8,2.8,0,0,1-.267.676,17,17,0,0,1-1.578,2.255q-.882,1.067-1.783,2.132-1.4,1.682-2.809,3.26t-2.973,3.055c-.136.382-.266.752-.389,1.106s-.253.725-.39,1.107q-.083.205-.184.493t-.206.615a5.676,5.676,0,0,0-.163.655,1.436,1.436,0,0,0-.02.533,4.944,4.944,0,0,0,1.5-.328q.759-.285,1.414-.574a20.335,20.335,0,0,0,2.316-1.086q1.17-.636,2.236-1.21a.76.76,0,0,1,.347-.1,1.408,1.408,0,0,1,.411.02.273.273,0,0,1,.225.2.653.653,0,0,1-.123.451,1.146,1.146,0,0,1-.614.472q-.412.144-.7.267-1.149.573-2.3,1.188t-2.255,1.231c-.22.108-.466.239-.738.389a6.282,6.282,0,0,1-.862.39,2.606,2.606,0,0,1-.881.164,1.413,1.413,0,0,1-.8-.246,1.264,1.264,0,0,1-.472-.7,2.367,2.367,0,0,1-.041-.882,4.8,4.8,0,0,1,.205-.9q.144-.43.267-.758c.026-.11.054-.212.082-.308a3.1,3.1,0,0,1,.123-.349l-2.05,1.763q-.33.33-.738.677a5.75,5.75,0,0,1-.882.615,3.862,3.862,0,0,1-.963.39,2,2,0,0,1-.985,0,1.369,1.369,0,0,1-1-.78,1.784,1.784,0,0,1,.041-1.188,5.092,5.092,0,0,1,.717-1.333,10.375,10.375,0,0,1,1.067-1.25l-1.026.409q-.409.207-.984.554a2.476,2.476,0,0,1-1.024.389.407.407,0,0,1-.411.021.529.529,0,0,1-.225-.267.611.611,0,0,1-.021-.348A.385.385,0,0,1-5516.017-1171.912Zm11.644-4.017q1.066-1.109,2.092-2.276t1.968-2.4q.408-.574.82-1.128t.778-1.168a8.948,8.948,0,0,1,.472-.78,2.753,2.753,0,0,0,.431-.984,2.572,2.572,0,0,0-1.067.779q-.492.575-.778.9a25.621,25.621,0,0,0-1.764,2.132q-.82,1.107-1.557,2.3l-1.64,2.871Z" fill="#333"/>
      </g>
    </g>
  </g>
</svg>
