<svg id="lineup_bancha_howto" xmlns="http://www.w3.org/2000/svg" width="469.9" height="32.239" viewBox="0 0 469.9 32.239">
  <g id="グループ_215" data-name="グループ 215" transform="translate(-725.452 -1722.958)">
    <path id="パス_1058" data-name="パス 1058" d="M750.025,1751.871c1.645,0,1.925-.07,2.17-.315.315-.315,1.576-2.135,1.995-2.135s3.5,2.485,3.5,2.94-.665.455-1.82.455H731.753c-.8,0-3.186,0-4.445.07a5.318,5.318,0,0,1-.736.1c-.1,0-.174-.1-.314-.245l-.665-.8c-.141-.14-.141-.175-.141-.21a.093.093,0,0,1,.106-.1c.245,0,1.33.1,1.575.14,1.575.07,3.15.1,4.795.1Zm-3.081-25.657c1.646,0,1.856,0,2.171-.316.315-.28,1.575-2.03,1.995-2.03s3.465,2.381,3.465,2.836-.665.455-1.785.455H734.764c-.771,0-3.186,0-4.411.07a5.305,5.305,0,0,1-.735.1c-.14,0-.21-.1-.315-.245l-.665-.8c-.14-.14-.175-.176-.175-.245s.1-.07.14-.07c.245,0,1.33.1,1.54.139,1.61.071,3.185.106,4.8.106Zm-1.924,12.6c1.54,0,1.679,0,1.995-.28.28-.28,1.435-1.855,1.82-1.855.28,0,3.36,1.995,3.36,2.625,0,.42-.174.42-1.75.42H737.318c-.8,0-3.185,0-4.41.1-.139,0-.63.07-.735.07-.14,0-.21-.07-.315-.21l-.7-.8c-.105-.14-.14-.175-.14-.245,0-.035.035-.07.14-.07.245,0,1.33.105,1.54.105,1.611.07,3.151.14,4.795.14Z" fill="#4d4d4d"/>
    <path id="パス_1059" data-name="パス 1059" d="M772.888,1749.876c0,3.29-1.61,5.111-3.255,5.111-1.085,0-1.4-.981-1.4-1.681,0-1.12.526-1.33,2.206-1.995a3.737,3.737,0,0,0,1.995-2.135c0-.035.14-.28.245-.28S772.888,1749.176,772.888,1749.876Zm1.716-21.947c-.806,0-3.186,0-4.446.07a5.328,5.328,0,0,1-.735.1c-.106,0-.21-.1-.316-.245l-.665-.805c-.069-.1-.139-.175-.139-.21a.093.093,0,0,1,.1-.1c.21,0,1.086.1,1.3.1.595.035,3.185.14,4.55.14a.888.888,0,0,0,.806-.91c0-.42-.036-.875-.071-1.226-.035-.21-.28-1.05-.28-1.225,0-.42.49-.49.7-.49s3.011.56,3.011,1.155c0,.21-.1.35-.525.6-.385.245-.491.421-.491,1.4a.732.732,0,0,0,.806.7h.63a6.1,6.1,0,0,0,1.715-.1c.28-.14,1.225-1.506,1.54-1.506a4.031,4.031,0,0,1,2.065,2.031c0,.525-.665.525-1.889.525Zm4.339,9.311a2.171,2.171,0,0,0,.946-.175c.14-.07.665-.525.84-.525.14,0,2.206,1.435,2.206,1.925a.3.3,0,0,1-.245.315,9.783,9.783,0,0,1-.946.28c-.035.035-2.765,1.61-2.975,1.715-.8.455-1.121.63-1.121.98,0,.175.175.385.526.385.8,0,5.881-1.05,5.881-.875,0,.49-4.866,1.925-5.706,2.17-.7.175-.7.665-.7,1.681,0,1.82-.1,2.275-.419,2.73a3.617,3.617,0,0,1-2.17,1.4.594.594,0,0,1-.351-.1c-.245-.21-1.12-1.505-1.365-1.715-.14-.14-1.05-.63-1.05-.84,0-.07.21-.07.351-.07.244,0,1.469.035,1.714.035,1.085,0,1.085-.175,1.085-1.891,0-.245-.28-.455-.594-.455-.106,0-3.4.6-3.676.7a3.866,3.866,0,0,1-.91.525c-.455,0-1.4-2.835-1.4-2.905,0-.1.036-.14.176-.14.21,0,.665.07.77.07a36.075,36.075,0,0,0,3.711.105c1.5,0,1.889-.21,1.889-1.155,0-.21-.28-1.225-.28-1.47,0-.175.176-.21.351-.21.314,0,1.82.455,2.169.455.7,0,1.716-1.54,1.716-1.61,0-.385-.385-.385-.49-.385h-3.15c-.981,0-2.731,0-4.131.07-.105,0-.945.1-1.015.1-.14,0-.21-.1-.315-.245l-.665-.8c-.14-.14-.14-.175-.14-.245s.069-.07.1-.07c.21,0,1.294.1,1.54.14,1.015.035,2.836.1,4.795.1Zm-.8-6.861a1.72,1.72,0,0,0,1.225-.385c.42-.42.56-.56.77-.56.315,0,1.89.805,1.89,1.435,0,.175-.56.84-.595,1.015v2.415c0,.77-.875,1.12-1.435,1.12-.49,0-.525-.1-.8-.525a.8.8,0,0,0-.77-.35h-4.831a1,1,0,0,0-.98.49c-.28.595-.455,1.051-1.26,1.051a.93.93,0,0,1-.98-.7v-2.521c0-.49-.28-2.765-.28-2.94,0-.315.175-.455.525-.455a12.161,12.161,0,0,1,1.75.7,4.047,4.047,0,0,0,1.4.21Zm-4.726.945c-.875,0-.875.56-.875,1.155s0,1.155.875,1.155h4.971c.84,0,.84-.56.84-1.155s0-1.155-.84-1.155Zm4.62,17.5a3.922,3.922,0,0,1,2.731,3.36c0,1.12-.491,2.31-1.68,2.31-.735,0-.945-.454-.945-1.155a20.213,20.213,0,0,0-.14-3.465c-.035-.175-.28-.875-.21-.945C777.823,1748.826,777.964,1748.826,778.033,1748.826Zm13.092-17.677a.96.96,0,0,0-.91.49c-.035.1-.315,2.555-.385,3.01-.035.28-.315,1.576-.315,1.856a1.263,1.263,0,0,0,.385.98c.665.56,1.89,1.75,1.89,3.01,0,.56-.21,1.19-.735,1.19-.595,0-1.365-1.12-1.785-1.785a.348.348,0,0,0-.35-.245c-.28,0-.42.28-.525.525a13.79,13.79,0,0,1-7.946,7.351c-.035,0-.1,0-.1-.07s.1-.175.21-.245a14.162,14.162,0,0,0,3.011-2.8,14.632,14.632,0,0,0,3.4-6.51,1.146,1.146,0,0,0-.141-.525,18.522,18.522,0,0,0-2.275-2.136c-.56-.419-.8-.595-.8-.665,0-.035.035-.035.14-.035a5.512,5.512,0,0,1,1.785.49c1.051.561,1.155.631,1.3.631a.7.7,0,0,0,.63-.49c.035-.491.385-2.8.385-3.326a.725.725,0,0,0-.7-.7c-.384,0-2.554.175-2.87.175-.1,0-.174-.07-.315-.21l-.665-.805c-.14-.175-.14-.175-.14-.245s.071-.07.106-.07c.559,0,3.219.21,3.849.21a.908.908,0,0,0,.875-.875,34.683,34.683,0,0,0-.244-4.795,8.688,8.688,0,0,1-.315-1.016c0-.245.139-.315.385-.315.35,0,2.975.665,3.115.7.245.105.56.28.56.6,0,.14-.07.245-.245.385-.07.07-.525.421-.63.49-.35.316-.455,3.5-.455,4.061a.768.768,0,0,0,.805.805h1.96a1.52,1.52,0,0,0,1.19-.42c.6-.665.665-.735.875-.735.385,0,2.066,1.365,2.066,1.925,0,.175-.106.28-.316.42a5.164,5.164,0,0,1-.594.35c-.56.42-.7,5.566-.7,6.3,0,2.065.42,5.39,1.191,5.39.559,0,1.61-3.57,1.889-4.97.036-.21.141-.315.211-.315.1,0,.1.175.1.245,0,.1-.49,3.85-.49,4.585,0,1.575.1,1.75.525,2.346a1.952,1.952,0,0,1,.35.945c0,.455-.35.875-1.225.875a4.063,4.063,0,0,1-2.87-1.68c-1.716-2.136-1.961-5.846-1.961-7.946,0-1.05.141-3.291.28-4.411.035-.175.175-1.085.175-1.3,0-.315-.175-.7-.91-.7Zm-1.785,21.737a1.7,1.7,0,0,1-1.54,1.751c-.806,0-.945-.595-1.226-2.311a6.756,6.756,0,0,0-.944-2.87c-.035-.035-.141-.21-.106-.28C785.734,1748.826,789.34,1750.261,789.34,1752.886Zm9.381-.07a1.643,1.643,0,0,1-1.54,1.786c-.805,0-.875-.28-2.031-2.836a22.138,22.138,0,0,0-1.679-2.695.377.377,0,0,1-.071-.28C793.505,1748.616,798.721,1749.841,798.721,1752.816Z" fill="#4d4d4d"/>
    <path id="パス_1060" data-name="パス 1060" d="M819.257,1753.026c-.385,0-.875,0-1.015.595a1.763,1.763,0,0,1-1.995,1.506c-.91,0-.91-.49-.91-.771,0-.35.14-2.555.175-3.045.1-1.645.1-6.2.1-7.981,0-1.295,0-1.435-.315-1.435a8.6,8.6,0,0,0-.981.49c-3.464,1.89-4.969,2.136-5.11,2.136-.175,0-.245-.106-.245-.211,0-.174.141-.245,1.19-.805a36.35,36.35,0,0,0,9.732-8.4,8.058,8.058,0,0,0,.909-1.541c0-.28-.244-.315-.875-.315H815.9c-.8,0-3.185.035-4.411.1-.139,0-.665.07-.769.07s-.176-.07-.28-.21l-.7-.8c-.14-.14-.14-.175-.14-.245,0-.035.035-.07.1-.07.245,0,1.33.1,1.575.14,1.576.07,3.151.1,4.8.1h.8c.42,0,.665,0,.665-.28,0-.1-.98-3.78-1.925-4.375-.35-.245-.6-.245-1.47-.315-1.435-.1-1.576-.1-1.576-.35s.106-.245,1.191-.385a122.933,122.933,0,0,0,17.571-3.011c.315-.07,1.751-.665,2.065-.665.7,0,2.976,2.346,2.976,2.7,0,.14-.14.315-.455.315-.14,0-.771-.1-.91-.1-.21,0-1.611.069-1.611.35,0,.14.84.735.946.805.77.49.875.595.875.945,0,.245-.035.245-.946.63-.979.385-4.165,3.5-4.165,3.57,0,.175.105.175.56.175h3.081c1.19,0,1.365,0,2.03-.84.7-.84,1.26-1.54,1.505-1.54.316,0,3.571,2.45,3.571,2.905,0,.385-1.05.385-2.066.385h-10.85c-.281,0-.421.035-.421.21s3.956,6.336,12.987,7.666c1.295.21,1.505.245,1.505.385,0,.245-.42.315-.7.385a3.946,3.946,0,0,0-2.451,1.82c-.174.35-.315.7-.594.7a3.083,3.083,0,0,1-1.646-.875c-.35-.28-.42-.315-.525-.315-.28,0-.63.35-.735.49-.63.631-.63,1.19-.63,2.451,0,1.155.175,6.125.175,7.14,0,.595-.07.8-.385,1.016a3.251,3.251,0,0,1-1.645.595c-.665,0-.7-.246-.841-1.226-.069-.525-.594-.665-1.014-.665Zm11.1-10.711a2.067,2.067,0,0,0,1.5-.42c.21-.175.84-.735.84-1.015,0-.14-.034-.175-.489-.56a21.326,21.326,0,0,1-5.041-5.636,8.98,8.98,0,0,0-.63-1.015c-.14,0-.14.07-.14.42-.035.84.035,4.8.035,5.706a1.643,1.643,0,0,1-.455,1.33,2.187,2.187,0,0,1-1.3.595c-.91,0-.91-.665-.91-1.015,0-.8.28-4.8.28-5.7,0-.456,0-.666-.245-.666-.14,0-.771.7-.84.805a30.771,30.771,0,0,1-5.006,4.9c-.8.595-.91.665-.91.8s.1.21.875.805a2.373,2.373,0,0,0,1.926.665Zm-7.211-9.976c.56,0,.875-.21.945-.7.035-.14.035-.525.035-3.955,0-.385-.1-.7-.56-.7-.246,0-4.585.35-5.46.385-.736.035-.806.035-.806.175,0,.035.665.49.875.665a3.483,3.483,0,0,1,1.681,2.835c0,.14-.106.805-.106.945,0,.35.175.35.84.35Zm-4.026,10.886c-1.05,0-1.05.63-1.05,1.54,0,1.961,0,2.346,1.05,2.346h3.745c1.016,0,1.016-.63,1.016-1.54,0-1.856,0-2.346-1.051-2.346Zm0,4.8c-1.014,0-1.014.49-1.014,2.1,0,1.54,0,1.995,1.049,1.995h3.675c1.016,0,1.051-.42,1.051-2.485,0-.98,0-1.61-1.016-1.61Zm8.191-4.8c-1.015,0-1.015.49-1.015,2.486,0,.77,0,1.4,1.015,1.4h3.921c1.014,0,1.014-.665,1.014-1.365,0-2.1-.069-2.521-1.05-2.521Zm3.85,8.891c1.016,0,1.085-.35,1.085-2.45,0-1.12,0-1.645-1.085-1.645h-3.78c-1.05,0-1.05.56-1.05,1.365,0,2.45,0,2.73,1.085,2.73Zm-3.115-19.777a1.409,1.409,0,0,0,1.4-.8c.736-1.19,2.205-3.745,2.205-4.9,0-.21-.07-.35-.315-.35-.175,0-1.575.14-3.01.28-1.645.14-1.82.175-1.925.455-.035.14-.035,2.765-.035,4.165,0,.63.035,1.155,1.05,1.155Z" fill="#4d4d4d"/>
    <path id="パス_1061" data-name="パス 1061" d="M875.137,1736.54a30.846,30.846,0,0,0,8.47,2.765c.14,0,.735.1.735.245,0,.1-.489.245-.63.28a6.061,6.061,0,0,0-2.66,1.89c-.1.14-.49.875-.665.875-.21,0-7.806-3.675-11.237-9.276-.665-1.12-.769-1.225-1.014-1.225s-.316.07-1.085.875a41.624,41.624,0,0,1-10.361,8.156,30.3,30.3,0,0,1-5.5,2.24c-.1,0-.174-.07-.174-.1s3.746-2.345,4.06-2.555c4.726-2.975,9.732-8.331,10.222-10.956.034-.28.069-.385.314-.385.175,0,3.011,1.085,3.186,1.19.1.035.455.175.455.525a2.15,2.15,0,0,1-.141.49C869.186,1732.094,872.2,1735.034,875.137,1736.54Zm-16.872-8.716c-2.591,0-3.781.07-4.446.1-.1,0-.629.07-.735.07s-.175-.07-.315-.21l-.665-.8c-.14-.175-.14-.175-.14-.245s.035-.07.1-.07c.245,0,1.33.105,1.54.105,1.715.07,3.185.14,4.831.14h1.015c.735,0,.944-.35.944-.945a5.688,5.688,0,0,0-.279-1.856,5.322,5.322,0,0,1-.21-.7c0-.175.175-.245.385-.245.245,0,1.82.385,2.205.49,1.05.28,1.26.35,1.26.665,0,.211-.034.28-.525.91a.856.856,0,0,0-.245.631c0,.84.281,1.05,1.225,1.05h5.776c.315,0,1.05,0,1.05-.945a14.562,14.562,0,0,0-.105-1.576c-.036-.175-.21-.91-.21-1.05,0-.175.21-.245.385-.245.245,0,2.625.56,3.01.665s.6.245.6.56c0,.211-.14.35-.525.63a1.126,1.126,0,0,0-.455.98c0,.981.56.981,1.121.981h1.785c1.54,0,1.715,0,2.24-.595.979-1.156,1.085-1.3,1.4-1.3.21,0,3.255,1.856,3.255,2.311,0,.49-.7.49-1.855.49h-6.825c-1.085,0-1.085.56-1.085,1.4,0,.21.035,1.4.035,1.575,0,1.3-1.051,1.505-1.785,1.505-.806,0-.946-.14-.946-1.33v-2.415c-.1-.665-.525-.735-1.085-.735h-5.6c-.806,0-1.3,0-1.3.98,0,.35.105,1.89.105,2.205,0,.665-.105.98-.42,1.19a2.485,2.485,0,0,1-1.33.49c-.6,0-.875-.385-.875-1.085,0-.28.034-1.61.034-1.855,0-1.365,0-1.925-1.085-1.925Zm2.485,17.887a17.871,17.871,0,0,1,2.7,1.645.869.869,0,0,1,.281.525c0,.42-.281.49-1.12.7-.106.035-3.117,2.38-3.676,2.8a21.55,21.55,0,0,1-5.321,3.046.112.112,0,0,1-.1-.1c0-.07,1.855-1.681,2.1-1.926,2.905-2.765,4.69-5.53,5-6.65A.215.215,0,0,1,860.75,1745.711Zm1.61-1.856c-2.73,0-3.746.035-4.446.106-.1,0-.63.069-.734.069s-.175-.069-.316-.21l-.665-.8c-.139-.175-.139-.175-.139-.245,0-.035.035-.07.1-.07.245,0,1.33.105,1.54.105,1.716.1,3.186.14,4.831.14h2.625c.351,0,1.05,0,1.05-.945,0-.42-.21-3.255-.279-3.6,0-.07-.21-.42-.21-.49s.069-.21.349-.21c.245,0,2.7.525,3.045.63.491.105.666.42.666.6,0,.21-.07.28-.6.735-.491.42-.491.63-.491,1.68,0,1.26,0,1.61,1.051,1.61h1.54c1.54,0,1.715,0,2.24-.595.98-1.155,1.085-1.295,1.4-1.295.21,0,3.255,1.89,3.255,2.31,0,.49-.7.49-1.856.49h-6.615c-1.051,0-1.051.63-1.051,1.751,0,2.485,0,3.885.071,5.95.035.595.035,1.435.035,1.855,0,1.121-.281,1.786-1.785,1.786-.771,0-.84-.631-.84-1.226,0-.455.1-2.555.1-3.01.035-1.33.035-2.625.035-4.235a21.2,21.2,0,0,0-.07-2.38c-.175-.491-.734-.491-1.015-.491Zm9.346,2.941c0-.1.175-.141.316-.141,1.294,0,9.275,2.206,9.275,5.111,0,1.12-.63,2-1.505,2-.665,0-.806-.176-1.891-1.786a16.62,16.62,0,0,0-6.02-5.04C871.846,1746.936,871.706,1746.831,871.706,1746.8Z" fill="#4d4d4d"/>
    <path id="パス_1062" data-name="パス 1062" d="M908.868,1729.084c0,.1.07.245.07.385a26.825,26.825,0,0,1,.35,3.78c0,2.346-.525,5.6-3.605,10.256-2.8,4.271-4.586,5.111-5.986,5.111-2.31,0-4.376-3.6-4.376-7.876a12.329,12.329,0,0,1,3.886-8.926,14.483,14.483,0,0,1,11.166-4.55,11.407,11.407,0,0,1,5.636,1.12,10.972,10.972,0,0,1,6.091,10.186,13.055,13.055,0,0,1-8.822,12.321,21.511,21.511,0,0,1-5.81,1.3c-.14,0-.35-.035-.35-.245,0-.1.07-.14.945-.49,3.64-1.435,11.236-4.445,11.236-13.161,0-1.365-.14-9.7-9.7-9.7C908.9,1728.594,908.868,1728.874,908.868,1729.084Zm-11.376,10.746c0,2.275.909,5.391,3.045,5.391,1.015,0,1.856-.42,4.271-4.061a20.02,20.02,0,0,0,3.43-10.186c0-2.1-.14-2.275-.595-2.275C904.317,1728.7,897.492,1733.214,897.492,1739.83Z" fill="#4d4d4d"/>
    <path id="パス_1067" data-name="パス 1067" d="M1093.66,1743.435c-.91,0-.91.526-.91.945,0,.841.035,4.446.035,5.181,0,.21,0,.7.56.7.28,0,3.15-1.19,3.466-1.33a.763.763,0,0,0,.489-.63,6.959,6.959,0,0,0-1.12-2.17,7.223,7.223,0,0,1-.7-.945c0-.036.069-.036.1-.036.665,0,5.146,2.1,5.146,4.971,0,.98-.491,1.68-1.156,1.68-.63,0-.769-.35-1.33-1.645-.21-.525-.314-.805-.7-.805-.455,0-6.721,4.1-6.966,4.655-.349.7-.385.806-.734.806-.6,0-1.471-2.8-1.471-3.046s.141-.315.386-.315c1.819,0,1.819-.21,1.819-1.715v-10.5c0-2.415,0-5.986-.559-5.986-.141,0-2.451,1.856-2.661,1.856-.07,0-.1,0-.1-.071,0-.034.945-1.225,1.12-1.47a53.737,53.737,0,0,0,6.021-9.731c.175-.665.175-.735.455-.735.21,0,2.73,1.225,2.73,1.96a.528.528,0,0,1-.314.455c-.211.105-.351.176-.351.351s0,.175,1.05.595c.665.245,4.1,1.645,4.1,4.165a1.151,1.151,0,0,1-1.156,1.295c-.349,0-.8-.1-1.469-1.505-.63-1.33-2.766-3.885-3.221-3.885-.28,0-.455.245-.63.49a46.816,46.816,0,0,1-4.62,5.355c-.106.07-.176.14-.176.245s.07.14.876.56c1.05.525,1.154.6,1.645.6,1.015,0,1.049-.315,1.049-1.05a7.619,7.619,0,0,0-.174-2.1c-.036-.175-.28-.84-.28-.98,0-.07.07-.175.35-.175s2.976.385,2.976,1.225c0,.1-.386.525-.456.63-.14.28-.14.42-.14,1.435,0,.49,0,1.015.735,1.015.771,0,.875,0,1.155-.28.63-.735.84-.945,1.121-.945.245,0,1.889,1.015,1.889,1.645,0,.21-.6.981-.665,1.155a8.947,8.947,0,0,0-.1,1.716c0,.945.1,5.25.1,6.09,0,.665,0,1.89-1.47,1.89-.77,0-.839-.419-.91-1.015-.1-.595-.7-.595-.945-.595Zm4.026-5.46c.91,0,.91-.49.91-1.26,0-1.681,0-2.031-.91-2.031h-4.026c-.91,0-.91.526-.91,1.261,0,1.715,0,2.03.91,2.03Zm-.071,4.515c.91,0,.981,0,.981-2.765,0-.8-.526-.8-.91-.8h-4.026c-.91,0-.91.315-.91,1.365,0,1.995,0,2.2.91,2.2Zm16.627-10.641a.979.979,0,0,0,1.05-.56c.49-.8.525-.91.771-.91.279,0,3.429,1.68,3.429,2.485,0,.7-.385.735-2.309.98a4.092,4.092,0,0,0-2.311,1.12c-.07.036-.42.28-.455.28s-.07,0-.07-.034c0-.176.49-1.611.49-1.926,0-.525-.35-.525-.665-.525h-3.01c-.49,0-.945.035-.945.875,0,10.607,7.876,17.537,8.261,17.852.245.21,1.54,1.12,1.54,1.3,0,.1-.595.21-.63.21a6.19,6.19,0,0,0-2.1.7,3.389,3.389,0,0,1-.769.455c-.7,0-4.761-4.83-6.511-15.121-.035-.1-.106-.56-.21-.56-.141,0-.176.315-.21.665-.525,4.235-2.065,11.411-8.892,14.491a6.561,6.561,0,0,1-2.485.665c-.14,0-.175,0-.175-.1a3.692,3.692,0,0,1,.771-.49c1.854-.945,5.53-2.835,7.385-9.17a39.476,39.476,0,0,0,1.47-10.607c0-.63,0-1.155-.8-1.155s-.875.1-1.541,1.085a28.4,28.4,0,0,1-2.871,3.676.093.093,0,0,1-.1-.1c0-.21,1.085-2.556,1.3-3.046.77-1.96,2.94-7.91,2.94-9.871,0-1.015,0-1.19.455-1.19.491,0,3.4,1.4,3.4,1.96,0,.28-.106.35-.736.735-.419.281-2.8,5.461-2.8,5.461,0,.385.384.385.594.385Z" fill="#4d4d4d"/>
    <path id="パス_1068" data-name="パス 1068" d="M1141.862,1728.524c-.454,0-1.924,1.26-2.484,1.75-.455.42-1.785,1.61-2.7,1.61-1.3,0-2.276-2.485-2.276-2.59,0-.21.07-.35.281-.35s1.014.14,1.189.14c1.12,0,1.54-.07,3.641-1.4a6.008,6.008,0,0,1,3.36-1.155c2.311,0,2.835,1.575,2.835,2.1,0,.735-.315,1.155-2.135,2.835a31.793,31.793,0,0,0-5.145,7.106c0,.175.245.21.349.21.455,0,2.415-.035,2.836,0a28.312,28.312,0,0,1,6.615,1.4,1.4,1.4,0,0,0,.561.14c.454,0,.665-2.87.665-3.22,0-.28-.211-1.82-.211-1.961,0-.21.245-.21.386-.21.1,0,3.15.561,3.15,1.926a7.555,7.555,0,0,1-.77,1.365c0,.07-.491,2.87-.491,2.975,0,.455.21.56.806.875,1.365.735,4.55,2.38,4.55,4.2a1.355,1.355,0,0,1-1.3,1.33c-.7,0-1.085-.28-3.535-2.38-.07-.035-1.085-.911-1.436-.911-.279,0-.384.245-.489.421a15.11,15.11,0,0,1-6.861,6.475,12.9,12.9,0,0,1-3.781,1.4c-.035,0-.28,0-.28-.1a5.551,5.551,0,0,1,.665-.49c3.466-2.38,5.181-3.78,7.211-6.93a6.445,6.445,0,0,0,1.051-2c0-.315,0-.49-1.926-1.435a15.159,15.159,0,0,0-6.44-1.575c-2.17,0-2.24.14-2.835,1.4-3.011,6.406-3.606,7.7-5.812,7.7-1.785,0-2.309-1.925-2.309-2.8,0-2.976,3.115-5.636,6.79-6.931a1.264,1.264,0,0,0,.876-.7c.8-1.3,5.179-7.911,5.355-8.226a4.956,4.956,0,0,0,.455-1.575A.451.451,0,0,0,1141.862,1728.524Zm-11.725,16.872c0,.595.28,1.015.91,1.015,1.925,0,4.2-5.146,4.2-5.286,0-.1-.035-.175-.14-.175C1133.847,1740.95,1130.137,1743.33,1130.137,1745.4Z" fill="#4d4d4d"/>
    <path id="パス_1069" data-name="パス 1069" d="M1169.8,1731.429c-.8,0-3.221,0-4.445.07a5.318,5.318,0,0,1-.736.1c-.1,0-.175-.1-.314-.245l-.665-.805c-.141-.14-.141-.175-.141-.21a.093.093,0,0,1,.106-.1c.245,0,1.33.1,1.575.14,1.575.07,3.15.1,4.8.1h6.861c1.015,0,1.015-.455,1.015-2.45a22.051,22.051,0,0,0-.175-3.221c-.035-.21-.245-1.05-.245-1.225,0-.21.245-.21.385-.21s3.71.735,3.71,1.541c0,.349-.07.385-.665.945-.455.385-.49,1.3-.49,1.855,0,2.625.21,2.765,1.12,2.765h6.966c1.295,0,1.645,0,2.1-.525.21-.315,1.12-1.96,1.47-1.96.525,0,3.326,2.415,3.326,2.905,0,.525-.665.525-1.856.525h-15.717c-.384,0-.524,0-.524.14,0,.245.14.245,1.505.455.525.07,1.54.28,1.54.77,0,.28-.98,1.155-1.085,1.4a9.718,9.718,0,0,0-.561,2.556c0,.7.736.7.876.7h7.736a1.659,1.659,0,0,0,1.469-.525,4.184,4.184,0,0,1,.806-.7c.175,0,3.045,1.75,3.045,2.24,0,.28-.91,1.085-1.015,1.3a35.014,35.014,0,0,0-.98,4.9c-1.085,5.006-2.17,6.861-3.255,8.121a6.929,6.929,0,0,1-4.025,2.311c-.42,0-.42-.246-.42-.56,0-1.506-1.821-2.626-2.906-3.186-.8-.42-.91-.455-.91-.56,0-.07.034-.28.35-.28a5.9,5.9,0,0,1,1.435.385,10.573,10.573,0,0,0,2.765.455c1.471,0,3.081-.875,4.2-5.495a35.912,35.912,0,0,0,.909-6.546c0-.91-.594-.91-1.12-.91h-8.225c-.98,0-1.05.175-1.47,1.995-2.73,11.376-11.656,13.546-12.111,13.546-.106,0-.316,0-.316-.1,0-.14.42-.385.84-.6a20.744,20.744,0,0,0,7.526-8.435,32.87,32.87,0,0,0,2.555-11.062c0-2.31-.595-2.31-1.295-2.31Z" fill="#4d4d4d"/>
    <g id="グループ_529" data-name="グループ 529" transform="translate(-137.963 79.565)">
      <path id="パス_2251" data-name="パス 2251" d="M1090.925,1653.444c0,1.155-2.66,2.205-3.5,2.555-.49.175-.525.315-.594,1.54-.071.77-.071,3.605-.071,3.78,0,.211,0,.631.315.631.105,0,2.975-1.191,3.536-1.4,3.465-1.295,5.04-1.4,5.95-1.4a5.359,5.359,0,0,1,5.391,5.286c0,4.62-4.866,6.721-7.736,6.721-1.995,0-3.6-1.015-3.6-2.836a3.118,3.118,0,0,1,1.75-2.765.188.188,0,0,1,.175.175c0,.1-.071.175-.14.28a1.448,1.448,0,0,0-.315.945c0,1.68,1.925,1.68,2.275,1.68,2.311,0,5.251-1.54,5.251-4.34a3.628,3.628,0,0,0-3.36-3.851c-.981,0-3.151.456-7.247,2.626-1.959,1.05-2.169,1.155-2.169,1.75,0,.385.1,1.96.1,2.31,0,1.61-.525,3.921-1.785,3.921-.945,0-1.33-.735-1.61-1.3-1.121-2.171-1.3-2.171-1.75-2.171a2.908,2.908,0,0,0-.875.21,6.9,6.9,0,0,1-1.331.7c-.384,0-2.169-1.05-2.169-2.2,0-.63.384-1.365,1.014-1.365.21,0,1.226.175,1.436.175.944,0,1.575-.175,3.639-1.19,1.786-.875,2-.98,2-1.96,0-.806-.035-3.781-.07-4.376,0-.245-.105-.77-.49-.77a8.183,8.183,0,0,0-1.61.315,7.51,7.51,0,0,1-2.486.665c-1.189,0-2.519-2.415-2.519-2.66a.247.247,0,0,1,.279-.245c.1,0,.525.14.63.14a10.182,10.182,0,0,0,1.61.175,15.291,15.291,0,0,0,4.446-1.05,26.184,26.184,0,0,0,.35-3.815,3.437,3.437,0,0,0-1.155-2.8,3.508,3.508,0,0,1-.49-.56c0-.315.56-.385.77-.385,2.345,0,3.606,1.715,3.606,2.38a14.043,14.043,0,0,1-.736,1.821,18.682,18.682,0,0,0-.349,2.275c0,.14.069.385.279.385.245,0,1.226-.385,1.226-.875,0-.07-.175-.42-.175-.49,0-.035.069-.1.139-.14C1089.246,1651.869,1090.925,1652.359,1090.925,1653.444Zm-7.98,13.406c0,.525.945,1.645,1.47,1.645.49,0,.98-.98.98-2.695,0-.14,0-.49-.1-.56C1085.185,1665.24,1082.945,1666.36,1082.945,1666.85Zm23-10.886c0,.735-.42,1.68-1.155,1.68-.21,0-1.015-.07-1.19-.07-.175.035-.91.245-1.051.245a.163.163,0,0,1-.174-.175,2.408,2.408,0,0,1,.105-.28,1.866,1.866,0,0,0,.14-.63c0-1.4-1.75-1.89-2.941-1.89a3.042,3.042,0,0,0-1.365.35.782.782,0,0,1-.35.1c-.105,0-.14-.035-.14-.14a4.478,4.478,0,0,1,3.781-2.205C1104.3,1652.954,1105.942,1654.354,1105.942,1655.964Z" fill="#4d4d4d"/>
      <path id="パス_2252" data-name="パス 2252" d="M1122.3,1653.234a4.8,4.8,0,0,1-.42,1.4,12.362,12.362,0,0,0-.84,4.515c0,3.536,1.82,6.091,2.9,6.091.6,0,.735-.175,1.785-1.925.21-.35.806-1.19,1.085-1.19.106,0,.176.14.176.28a4.093,4.093,0,0,1-.106.7,9.86,9.86,0,0,0-.455,2.66,4.758,4.758,0,0,0,.21,1.4,8.663,8.663,0,0,1,.281,1.155c0,.7-.736,1.085-1.331,1.085-2.24,0-6.65-3.675-6.65-10.361,0-.98.489-5.285.489-6.195a9.671,9.671,0,0,0-.245-2.031,4.753,4.753,0,0,1-.279-1.19c0-.105.14-.14.21-.14C1120.72,1649.488,1122.3,1652.289,1122.3,1653.234Zm17.081.8a8.709,8.709,0,0,1,3.116,6.686c0,.665-.07,2.31-1.75,2.31-1.715,0-1.715-1.891-1.715-2.345,0-2.906,0-4.376-1.856-6.231-.28-.28-1.679-1.365-1.679-1.575,0-.1.139-.175.314-.175A6.81,6.81,0,0,1,1139.376,1654.039Z" fill="#4d4d4d"/>
      <path id="パス_2253" data-name="パス 2253" d="M1162.914,1649.033a16.119,16.119,0,0,1-.665,1.961,84.142,84.142,0,0,0-1.47,12.461c0,3.535.665,6.686,5.355,6.686a17.246,17.246,0,0,0,7.351-1.821c.525-.245,3.185-1.715,3.325-1.715a.164.164,0,0,1,.176.175c0,.385-5.181,6.021-11.762,6.021-4.551,0-6.721-2.626-6.721-9.661,0-2.17.071-2.871.8-9.731.141-1.155.455-4.026.455-5.006a4.406,4.406,0,0,0-.314-1.715c-.035-.1-.385-.91-.385-.945,0-.245.279-.35.489-.35C1161.374,1645.393,1162.914,1648.228,1162.914,1649.033Z" fill="#4d4d4d"/>
      <path id="パス_2254" data-name="パス 2254" d="M1193.934,1653.234a4.778,4.778,0,0,1-.421,1.4,12.385,12.385,0,0,0-.84,4.515c0,3.536,1.821,6.091,2.906,6.091.595,0,.735-.175,1.785-1.925.21-.35.8-1.19,1.085-1.19.1,0,.176.14.176.28a4.2,4.2,0,0,1-.106.7,9.821,9.821,0,0,0-.455,2.66,4.721,4.721,0,0,0,.21,1.4,8.782,8.782,0,0,1,.28,1.155c0,.7-.735,1.085-1.33,1.085-2.24,0-6.65-3.675-6.65-10.361,0-.98.489-5.285.489-6.195a9.745,9.745,0,0,0-.245-2.031,4.75,4.75,0,0,1-.279-1.19c0-.105.139-.14.21-.14C1192.359,1649.488,1193.934,1652.289,1193.934,1653.234Zm17.081.8a8.711,8.711,0,0,1,3.115,6.686c0,.665-.069,2.31-1.75,2.31-1.714,0-1.714-1.891-1.714-2.345,0-2.906,0-4.376-1.856-6.231-.28-.28-1.68-1.365-1.68-1.575,0-.1.14-.175.315-.175A6.812,6.812,0,0,1,1211.015,1654.039Z" fill="#4d4d4d"/>
    </g>
  </g>
</svg>
