<svg xmlns="http://www.w3.org/2000/svg" width="596.606" height="95.134" viewBox="0 0 596.606 95.134">
  <g id="lineup_originalbrend" transform="translate(0.15 0.15)">
    <g id="グループ_104" data-name="グループ 104" transform="translate(-657.62 -3906.197)">
      <g id="グループ_103" data-name="グループ 103">
        <path id="パス_547" data-name="パス 547" d="M708.223,3938.751a1.031,1.031,0,0,0,.627-.132c.1-.1.528-.693.66-.693.1,0,2.31.924,2.31,1.518a.711.711,0,0,1-.363.528c-.561.429-.627.5-.726,1.155a41.115,41.115,0,0,1-1.089,5.182c-.1.4-.825,2.377-.825,2.707,0,1.055,3.267,3.729,9.374,3.729a24.178,24.178,0,0,0,7.954-1.287c.66-.231.759-.231.759-.133,0,.067-.132.2-.232.3a5.426,5.426,0,0,0-1.881,2.508,6.494,6.494,0,0,1-.4,1.287,13.925,13.925,0,0,1-1.881.066c-6.7,0-9.341-.4-12.442-2.673a17.583,17.583,0,0,0-2.179-1.716c-.3,0-1.651,1.749-1.981,2.079-1.715,1.717-3.168,2.31-3.729,2.31-.067,0-.1-.066-.1-.131a5.083,5.083,0,0,1,.858-.66c1.815-1.288,3.729-4.357,3.729-5.215a1.765,1.765,0,0,0-.33-.859,24.651,24.651,0,0,1-2.343-6.3c0-.166,0-.264.1-.264s.33.2.495.659c.693,1.882,2.277,4.523,2.707,4.523.627,0,1.617-6.734,1.617-7.031,0-.561-.363-.594-.66-.594h-1.32a.789.789,0,0,0-.727.4c-.264.528-.462.892-1.155.892-.362,0-1.122-.232-1.122-.859a19.96,19.96,0,0,1,.792-2.509,60.054,60.054,0,0,0,1.849-7c0-.362-.2-.428-.561-.428s-2.08.165-2.277.165c-.133,0-.463-.759-.628-.759-.4,0-2.574,4.521-2.574,4.818,0,.429.1.5.956.924.265.133.892.463.892.892,0,.2-.132.3-.429.528a1.752,1.752,0,0,0-.66,1.683c0,1.815.033,10.759.033,12.773,0,.527.132,3.2.132,3.8a1.335,1.335,0,0,1-.363,1.122,2.526,2.526,0,0,1-1.452.562c-.6,0-.727-.331-.727-.727,0-.231.2-1.353.2-1.617.166-2.838.166-8.68.166-11.716,0-.66-.1-4.093-.1-4.523,0-.3,0-.758-.2-.758a4.07,4.07,0,0,0-.595.792,9.176,9.176,0,0,1-2.706,3.1c-.033,0-.066,0-.066-.033a4.352,4.352,0,0,1,.429-.891c.231-.429,1.914-4.191,2.773-6.7,1.782-5.05,1.98-5.611,1.98-6.667,0-.2.032-.33.231-.33.33,0,2.9,1.419,2.9,1.981,0,.1-.066.165-.165.3-.1.1-.132.131-.132.2a15.137,15.137,0,0,0,2.542.23.783.783,0,0,0,.759-.4c.462-.6.56-.6.627-.6.1,0,1.485.793,1.65.892.231.165.726.462.726.858a.316.316,0,0,1-.165.264c-.792.461-.891.528-1.023.825-.1.3-2.014,7.2-2.014,7.261,0,.4.232.4.429.4Zm15.908-4.191c-.726,0-.858.33-.858.857v1.452c0,.33.165,1.849.165,2.179a1.452,1.452,0,0,1-1.486,1.287c-.758,0-.857-.4-.923-.759-.1-.363-.5-.462-.826-.462h-1.749c-.428,0-.891.066-.891.792,0,2.8.1,3,.99,3,.825,0,1.188-.033,1.552-.56.428-.627.594-.859.957-.859a7.37,7.37,0,0,1,2.475,1.849c0,.462-.66.462-1.782.462h-3.169c-.725,0-.891.23-.891.957,0,2.112,0,2.343.958,2.343h1.22c1.222,0,1.849,0,2.079-.528.4-.891.5-1.155.925-1.155a8.209,8.209,0,0,1,2.838,2.112c0,.462-.66.462-1.749.462h-5.313c-.4,0-.892,0-.892.826,0,.23.1,1.188.1,1.385,0,1.486-1.618,1.486-1.75,1.486-.792,0-.924-.462-.924-1.122,0-.3.132-1.618.132-1.881,0-.661-.462-.694-.759-.694a27.781,27.781,0,0,0-2.9.1c-.067,0-.4.066-.462.066-.133,0-.2-.1-.3-.231l-.627-.759c-.066-.066-.165-.165-.165-.2,0-.066.066-.1.133-.1.659,0,3.6.231,4.224.231.858,0,.858-.3.858-1.518,0-1.419,0-1.782-.726-1.782-.3,0-1.75.165-1.981.165-.1,0-.164-.1-.3-.232l-.627-.758c-.133-.132-.133-.165-.133-.2a.087.087,0,0,1,.1-.1c.461,0,2.376.165,2.772.165.792,0,.924-.364.924-.957v-1.981a.664.664,0,0,0-.726-.759c-.3,0-1.683.132-1.882.132-.1,0-.132-.1-.263-.231l-.661-.726c-.131-.165-.131-.2-.131-.231,0-.067.032-.067.1-.067.33,0,2.41.166,2.839.166.759,0,.759-.166.759-2.608,0-.627-.066-1.022-.924-1.022-.133,0-2.344.032-3.432.1-.1,0-.595.067-.694.067-.132,0-.165-.067-.3-.2l-.627-.758c-.132-.165-.132-.165-.132-.232,0-.033.033-.066.1-.066.231,0,1.254.1,1.485.1,1.123.066,2.608.132,3.7.132.825,0,.825-.1.825-2.343,0-.5-.033-.891-.759-.891-.4,0-2.475.165-2.74.165-.1,0-.165-.1-.3-.232l-.627-.758c-.066-.1-.132-.165-.132-.2a.087.087,0,0,1,.1-.1c.627,0,3.334.23,3.861.23.2,0,.6,0,.6-.593a4,4,0,0,0-.231-1.254c-.034-.165-.33-.826-.33-.957,0-.166.164-.2.231-.2.033,0,1.98.4,2.211.429.76.165,1.221.265,1.221.66,0,.264-.066.3-.66.825a.9.9,0,0,0-.3.694c0,.4.3.4.495.4H720.2a.972.972,0,0,0,.957-.428c.165-.165.5-.5.694-.5.1,0,1.551.759,1.716.826.33.165.726.4.726.725,0,.232-.858.925-.891,1.123a1.558,1.558,0,0,0-.066.627c0,.264,0,1.353.2,1.353a2.46,2.46,0,0,0,.462-.4.725.725,0,0,1,.594-.264c.462,0,1.882.99,1.882,1.42,0,.5-.595.5-1.782.5Zm-3.861-.859c.89,0,.89-.3.89-1.914,0-.858,0-1.32-.89-1.32h-1.947c-.925,0-.925.33-.925,1.848,0,.924,0,1.386.925,1.386Zm.1,4.555c.6,0,.826-.132.826-.892,0-2.507,0-2.8-.859-2.8h-2.012c-.859,0-.859.3-.859,1.452,0,2.012,0,2.244.892,2.244Z" fill="#333"/>
        <path id="パス_548" data-name="パス 548" d="M737.734,3941.227c1.88,0,5.215-1.849,5.215-2.311a2.852,2.852,0,0,0-.529-1.057c-2.211-3-2.475-3.333-2.475-4.026,0-1.056,1.749-2.211,4.851-2.211a21.376,21.376,0,0,1,3.069.231,8.581,8.581,0,0,0,1.222.1.811.811,0,0,0,.924-.891c0-.165-.23-.991-.23-1.156a.224.224,0,0,1,.23-.23,3.865,3.865,0,0,1,2.377,3.168c0,.165-.165.792-.165.957,0,.1.032.3.23.3.165,0,.826-.265.991-.3a13.293,13.293,0,0,1,3.2-.5c3.334,0,6.337,2.805,6.337,5.941,0,1.981-1.386,5.115-5.709,5.115a8.317,8.317,0,0,1-6.14-3.1c0-.1.1-.132.2-.132.067,0,1.189.4,1.387.462a8.8,8.8,0,0,0,3.234.727c1.716,0,4.489-.892,4.489-3.665a3.969,3.969,0,0,0-4.192-3.993c-2.739,0-4.456,1.089-9.671,4.423-.99.627-.99.66-.99.891a1.548,1.548,0,0,0,.363.792c1.981,3.2,5.447,9.7,5.447,12.608,0,1.287-.792,1.981-1.486,1.981-.99,0-1.419-.957-1.419-1.948a11.689,11.689,0,0,0-.363-3.961,31.038,31.038,0,0,0-3.466-8.217c-.131-.2-.263-.4-.462-.4a6.888,6.888,0,0,0-1.385.859c-.364.23-3.071,1.98-4.093,1.98-.627,0-2.344-1.782-2.344-2.179a.326.326,0,0,1,.3-.33C736.81,3941.16,737.3,3941.227,737.734,3941.227Zm4.423-7.031c0,.661.131.891,1.484,3,.6.892.628.991.892.991a1.978,1.978,0,0,0,.792-.4,48.746,48.746,0,0,1,4.356-2.476c.33-.165.462-.3.462-.461,0-.132-.1-.2-1.023-.595a25.252,25.252,0,0,0-4.587-1.782A1.82,1.82,0,0,0,742.157,3934.2Z" fill="#333"/>
        <path id="パス_549" data-name="パス 549" d="M776.7,3937.563a.292.292,0,0,1,.3-.264c.1,0,1.815.462,2.178.462a55.227,55.227,0,0,0,5.545-.99c.561-.4.594-3.73.594-3.9a4.175,4.175,0,0,0-.826-2.806c-.5-.593-.56-.66-.56-.758,0-.232.395-.264.528-.264,2.211,0,3.5,1.254,3.5,2.112,0,.066-1.254,4.257-1.254,4.885,0,.2.132.3.364.3.165,0,1.682-.165,1.947-.165,2.474,0,4.39,1.187,4.39,4.224,0,2.608-.925,8.285-2.839,10.6a5.12,5.12,0,0,1-3.366,2.013c-1.254,0-1.585-1.221-1.948-2.277-.066-.165-.429-1.024-.429-1.089a.155.155,0,0,1,.165-.165,6.168,6.168,0,0,1,.825.23,10.359,10.359,0,0,0,1.683.232c.957,0,2.179-.462,3.136-4.027a26.307,26.307,0,0,0,1.023-5.743c0-2.311-1.321-2.476-2.278-2.476a7.185,7.185,0,0,0-3.168.792c-.132.165-.165.3-.495,1.42-1.32,4.489-4.521,12.608-7.2,12.608a.97.97,0,0,1-1.056-1.056c0-.693.231-.957,2.211-3.136.892-.99,2.277-2.508,4.06-7.459a8.958,8.958,0,0,0,.462-1.551c0-.1-.034-.264-.231-.264-.727,0-3.8,1.32-4.456,1.32C778.221,3940.368,776.7,3938.289,776.7,3937.563Zm23.038,6.865c-.33,0-1.848-.892-2.245-.99-.165-.067-1.055-.132-1.055-.232,0-.2,1.089-.759,1.287-.924,1.221-.923,1.353-1.023,1.353-1.914a4.245,4.245,0,0,0-2.673-3.8c-.264-.131-.793-.363-.793-.5,0-.2.132-.2.232-.2,4.224,0,5.775,4.158,5.775,5.842C801.621,3942.117,801.126,3944.428,799.74,3944.428Z" fill="#333"/>
        <path id="パス_550" data-name="パス 550" d="M819.663,3938.091c-3.4,0-4.851-2.541-4.851-3.169,0-.165.033-.3.263-.3a8.679,8.679,0,0,1,1.354.627,8.277,8.277,0,0,0,3.4.892c1.254,0,3.5-.594,3.5-1.122,0-.3-1.089-1.057-1.517-1.354-.892-.627-2.112-1.749-2.112-2.706a1.591,1.591,0,0,1,1.65-1.584c.692,0,1.022.2,2.541,1.089a5.511,5.511,0,0,0,3.1.759c.4,0,2.08-.033,2.443,0a1.145,1.145,0,0,1,1.122,1.188c0,.859-1.552,2.046-2.014,2.311-.89.56-.99.627-.99.857a.934.934,0,0,0,.4.627c1.715,1.519,6.039,5.348,6.039,8.714a2.057,2.057,0,0,1-2.178,2.211c-.594,0-.825-.132-2.806-1.221a12.118,12.118,0,0,0-5.61-1.717,4.451,4.451,0,0,0-4.621,3.829c0,2.113,2.08,2.938,4.885,2.938.561,0,3.367-.3,3.432-.3a1.394,1.394,0,0,1,1.617,1.287c0,1.749-3.168,1.749-3.762,1.749a11.087,11.087,0,0,1-5.314-1.023,4.844,4.844,0,0,1-2.838-4.093c0-3.268,3.366-5.247,7.03-5.247a11.741,11.741,0,0,1,3.564.594,10.322,10.322,0,0,0,2.707.66,1.059,1.059,0,0,0,1.155-1.057c0-2.144-4.389-7.062-5.346-7.062-.2,0-3.5,1.22-4.193,1.385A9.5,9.5,0,0,1,819.663,3938.091Zm5.809-3.9c.2,0,1.222-.33,1.222-1.056,0-.429-.1-.528-1.156-1.156-2.178-1.319-2.442-1.452-2.805-1.452a.612.612,0,0,0-.627.595c0,.792,1.188,1.749,1.452,1.947A5.547,5.547,0,0,0,825.472,3934.2Z" fill="#333"/>
        <path id="パス_551" data-name="パス 551" d="M853.967,3943.9c.99-.923,1.42-1.352,1.42-1.782a8.452,8.452,0,0,0-.3-1.023,10.61,10.61,0,0,1-.561-3.861c0-.759.165-4.588.165-5.446a3.085,3.085,0,0,0-.991-2.674c-.693-.725-.792-.825-.792-.923,0-.132.792-.166.891-.166,1.882,0,3.565,1.519,3.565,2.476,0,.3-.4,1.782-.462,2.112a31.07,31.07,0,0,0-.3,4.357c0,1.254,0,3.928.858,3.928.462,0,.66-.133,2.442-1.255.364-.231,2.443-1.551,3.4-1.551a1.267,1.267,0,0,1,1.254,1.221c0,.99-1.353,1.518-2.541,1.98-7.856,3.169-8.978,5.578-8.978,7.724,0,2.244,1.914,3.069,4.588,3.069a14.722,14.722,0,0,0,3.961-.595,8.994,8.994,0,0,1,2.475-.494c1.122,0,2.178.759,2.178,1.584,0,1.683-6.733,1.848-8.482,1.848-1.519,0-6.3,0-6.3-5.182A7.484,7.484,0,0,1,853.967,3943.9Z" fill="#333"/>
        <path id="パス_552" data-name="パス 552" d="M902.241,3932.414c1.486,0,1.651,0,2.113-.561.924-1.089,1.022-1.221,1.32-1.221.2,0,3.1,1.749,3.1,2.178,0,.495-.661.495-1.784.495h-10.2c-.857,0-.857.628-.857,1.683,0,1.386,0,1.981.857,1.981h1.552c1.32,0,1.584-.033,1.881-.265.263-.2,1.254-1.517,1.552-1.517s2.871,1.617,2.871,2.079c0,.593-.727.593-1.849.593h-6.007c-.89,0-.89.76-.89,1.354,0,1.254,0,1.914.89,1.914h6.073c1.486,0,1.651,0,2.113-.56.924-1.09,1.023-1.222,1.32-1.222.231,0,3.1,1.782,3.1,2.212,0,.462-.661.462-1.783.462H885.64c-2.871,0-3.829.065-4.158.1-.133,0-.595.067-.694.067-.131,0-.2-.1-.3-.2l-.66-.792c-.1-.165-.132-.165-.132-.2,0-.066.033-.1.132-.1.231,0,1.221.1,1.452.131,1.618.066,2.97.1,4.522.1h7.03c.858,0,.858-.56.858-1.98,0-.594,0-1.288-.858-1.288H889.4c-2.872,0-3.829.067-4.16.067a4.972,4.972,0,0,1-.692.1c-.133,0-.2-.1-.3-.23l-.627-.76c-.132-.165-.132-.165-.132-.23,0-.033.034-.067.1-.067.232,0,1.255.1,1.453.1,1.617.1,2.97.132,4.522.132H892.8c.858,0,.858-.495.858-1.882,0-1.056,0-1.782-.891-1.782h-6.007c-2.9,0-3.861.066-4.192.066a5.012,5.012,0,0,1-.693.1c-.1,0-.2-.1-.3-.231l-.627-.759c-.131-.165-.131-.165-.131-.231s.032-.066.1-.066c.232,0,1.254.1,1.452.1,1.617.066,3,.132,4.555.132h9.109c1.189,0,2.608-2.805,2.608-4.786,0-.759,0-1.023.33-1.023.165,0,1.98.726,2.31.858.693.265,1.188.462,1.188.99,0,.4-.4.43-.692.462-.628.1-.793.232-2.344,1.585-.264.2-1.354,1.089-1.551,1.287-.165.165-.3.264-.3.4,0,.231.265.231.628.231Zm-15.776,15.446c-2.9,0-3.829.066-4.191.1-.1,0-.595.066-.694.066s-.165-.1-.3-.231l-.626-.759c-.133-.165-.133-.165-.133-.231,0-.032.033-.066.1-.066.231,0,1.254.1,1.452.1,1.618.1,3,.132,4.555.132h5.875c.857,0,.857-.561.857-1.518a6.462,6.462,0,0,0-.164-1.882,4.208,4.208,0,0,1-.2-.825c0-.23.3-.23.462-.23.429,0,3,.23,3,.99a12.517,12.517,0,0,1-.429,1.188c-.033.231-.165,1.617-.165,1.716,0,.3.034.561.726.561h5.083c1.65,0,1.683,0,2.377-.759.263-.3.726-.825,1.089-.825a9.492,9.492,0,0,1,3.036,2.079c0,.4-.792.4-1.749.4H897.06c-.4,0-.595,0-.595.231,0,.463,5.116,5.38,12.939,5.38.165,0,.89-.033,1.022-.033.066,0,.2,0,.2.066s-1.155.594-1.353.726a12.051,12.051,0,0,0-2.31,1.915c-.1.2-.264.428-.429.428a20.326,20.326,0,0,1-8.45-5.28,18.306,18.306,0,0,1-2.079-2.509c-.1-.132-.23-.363-.4-.363s-.165.1-.4.693c-2.145,5.875-9.241,6.5-11.65,6.5a10.983,10.983,0,0,1-3.829-.495c0-.033,1.485-.2,1.617-.2,8.846-.924,11.486-5.247,11.486-6.568,0-.495-.265-.495-.726-.495Zm5.083-15.677c-.495,0-.66-.231-1.848-2.211a11.564,11.564,0,0,0-2.212-2.574c-.033-.067-.2-.2-.2-.33,0-.034.1-.067.132-.067a15.124,15.124,0,0,1,2.509.825c1.716.759,2.8,1.287,2.8,2.871C892.736,3931.358,892.439,3932.183,891.548,3932.183Z" fill="#333"/>
        <path id="パス_553" data-name="パス 553" d="M928.908,3932.051a15.339,15.339,0,0,1-.627,1.848,79.189,79.189,0,0,0-1.387,11.749c0,3.335.627,6.3,5.05,6.3a16.244,16.244,0,0,0,6.93-1.717c.495-.23,3-1.617,3.136-1.617a.154.154,0,0,1,.165.165c0,.364-4.885,5.677-11.09,5.677-4.29,0-6.337-2.476-6.337-9.109,0-2.046.067-2.706.76-9.175.132-1.09.429-3.8.429-4.72a4.151,4.151,0,0,0-.3-1.617c-.033-.1-.363-.858-.363-.892,0-.23.263-.33.461-.33C927.455,3928.618,928.908,3931.292,928.908,3932.051Z" fill="#333"/>
        <path id="パス_554" data-name="パス 554" d="M961.874,3938.091c-3.4,0-4.851-2.541-4.851-3.169,0-.165.033-.3.263-.3a8.677,8.677,0,0,1,1.354.627,8.277,8.277,0,0,0,3.4.892c1.254,0,3.5-.594,3.5-1.122,0-.3-1.088-1.057-1.517-1.354-.892-.627-2.112-1.749-2.112-2.706a1.591,1.591,0,0,1,1.65-1.584c.692,0,1.022.2,2.541,1.089a5.511,5.511,0,0,0,3.1.759c.4,0,2.08-.033,2.443,0a1.145,1.145,0,0,1,1.122,1.188c0,.859-1.552,2.046-2.014,2.311-.89.56-.99.627-.99.857a.936.936,0,0,0,.4.627c1.716,1.519,6.041,5.348,6.041,8.714a2.058,2.058,0,0,1-2.179,2.211c-.594,0-.825-.132-2.806-1.221a12.118,12.118,0,0,0-5.61-1.717,4.451,4.451,0,0,0-4.621,3.829c0,2.113,2.08,2.938,4.884,2.938.562,0,3.368-.3,3.433-.3a1.394,1.394,0,0,1,1.617,1.287c0,1.749-3.168,1.749-3.762,1.749a11.087,11.087,0,0,1-5.314-1.023,4.844,4.844,0,0,1-2.838-4.093c0-3.268,3.366-5.247,7.03-5.247a11.736,11.736,0,0,1,3.564.594,10.322,10.322,0,0,0,2.707.66,1.059,1.059,0,0,0,1.155-1.057c0-2.144-4.389-7.062-5.347-7.062-.2,0-3.5,1.22-4.192,1.385A9.5,9.5,0,0,1,961.874,3938.091Zm5.809-3.9c.2,0,1.222-.33,1.222-1.056,0-.429-.1-.528-1.156-1.156-2.179-1.319-2.442-1.452-2.805-1.452a.612.612,0,0,0-.627.595c0,.792,1.188,1.749,1.452,1.947A5.547,5.547,0,0,0,967.683,3934.2Z" fill="#333"/>
        <path id="パス_555" data-name="パス 555" d="M1004.032,3932.183c0,.1.066.231.066.363a25.32,25.32,0,0,1,.33,3.564c0,2.212-.495,5.282-3.4,9.671-2.641,4.027-4.325,4.819-5.645,4.819-2.178,0-4.125-3.4-4.125-7.426a11.628,11.628,0,0,1,3.663-8.417,13.656,13.656,0,0,1,10.528-4.29,10.762,10.762,0,0,1,5.315,1.056,10.346,10.346,0,0,1,5.742,9.6,12.308,12.308,0,0,1-8.316,11.618,20.3,20.3,0,0,1-5.48,1.221c-.132,0-.33-.033-.33-.231,0-.1.067-.132.892-.462,3.432-1.353,10.594-4.192,10.594-12.41,0-1.287-.131-9.142-9.142-9.142C1004.065,3931.721,1004.032,3931.984,1004.032,3932.183ZM993.3,3942.316c0,2.145.858,5.082,2.872,5.082.957,0,1.749-.4,4.026-3.829a18.875,18.875,0,0,0,3.235-9.6c0-1.981-.132-2.145-.562-2.145C999.741,3931.82,993.3,3936.077,993.3,3942.316Z" fill="#333"/>
        <path id="パス_556" data-name="パス 556" d="M1031.054,3949.246a44.439,44.439,0,0,0,4.356-12.145c0-.33-.131-.33-1.187-.33a6.357,6.357,0,0,1-2.938-.594,3.179,3.179,0,0,1-1.716-1.782.139.139,0,0,1,.132-.133,6.971,6.971,0,0,1,.759.3,12.142,12.142,0,0,0,2.938.362,7.185,7.185,0,0,0,2.342-.3,9.51,9.51,0,0,0,.364-2.706,4.548,4.548,0,0,0-.4-2.046c-.133-.165-.925-.99-.925-1.222,0-.33.627-.758,1.486-.758a2.976,2.976,0,0,1,2.64,1.749c0,.165-.363.825-.363.99,0,.627,2.641,1.188,2.971,1.188.132,0,.858-.066,1.023-.066a.944.944,0,0,1,1.089,1.023c0,1.848-2.805,2.8-4.983,3.4-1.123.3-1.255.33-1.387.924a88.483,88.483,0,0,1-2.409,9.373c-2.277,6.865-3.466,6.865-4.093,6.865-.792,0-.891-1.089-.891-1.452C1029.866,3951.49,1030.032,3951.16,1031.054,3949.246Zm6.964-15.083c.165,0,2.674-.89,2.674-1.32,0-.33-1.783-1.056-2.146-1.056-.2,0-.3.066-.363.4-.132.66-.132.76-.3,1.551C1037.853,3933.965,1037.82,3934.163,1038.018,3934.163Zm2.509,13.994c.693,2.871,4.257,3.5,6.765,3.5.562,0,3.07-.23,3.6-.23,1.122,0,2.641.56,2.641,1.65,0,.957-1.222,1.122-4.027,1.122-5.346,0-9.8-1.353-9.8-5.511,0-.76.2-1.452.462-1.452C1040.3,3947.234,1040.493,3948.059,1040.527,3948.157Zm7.293-11.485c3.136,0,5.512.924,5.512,2.376,0,.792-.693.792-.957.792-.3,0-1.584-.1-1.848-.1a5.538,5.538,0,0,0-2.443.529,5.75,5.75,0,0,1-1.385.428c-.067,0-.166,0-.166-.1,0-.231,1.716-1.485,1.716-1.848,0-.495-2.342-.528-2.838-.528a19.522,19.522,0,0,0-2.377.132c-.2.033-.957.131-1.089.131-.033,0-.263,0-.3-.065C1041.417,3937.992,1044.289,3936.672,1047.82,3936.672Z" fill="#333"/>
        <path id="パス_557" data-name="パス 557" d="M1077.361,3953.966c-.561,0-.627,0-.627-.165,0-.1.1-.165.957-.429,4.357-1.419,10.4-4.291,10.4-10.264,0-5.149-4.917-6.734-6.4-6.734-.5,0-.562.2-1.42,2.212a27.987,27.987,0,0,1-2.508,4.72.859.859,0,0,0-.165.462.647.647,0,0,0,.495.627c1.122.593,1.486.858,1.486,1.65,0,.858-.694,1.056-1.222,1.056a3.27,3.27,0,0,1-1.848-.561c-.463-.231-.495-.264-.693-.264-.33,0-.4.066-.99.693-2.674,2.8-4.852,3.631-5.776,3.631-2.145,0-2.509-3.366-2.509-4.687a10.9,10.9,0,0,1,3.466-7.459,1.059,1.059,0,0,0,.362-.858c0-.3-1.319-4.258-1.484-4.72-.1-.264-.693-1.452-.693-1.551,0-.033,0-.1.065-.1a3.492,3.492,0,0,1,2.674,1.782,14.2,14.2,0,0,0,.858,3.267.679.679,0,0,0,.594.364,9.507,9.507,0,0,0,1.584-.694,16.01,16.01,0,0,1,5.15-1.188.847.847,0,0,0,.824-.429,7.472,7.472,0,0,0,.463-2.442,6.494,6.494,0,0,0-.694-2.739.569.569,0,0,1-.066-.165c0-.1.265-.1.33-.1,1.485,0,3.268,1.221,3.268,2.013a30.837,30.837,0,0,0-1.156,3.4c0,.528.364.595.627.627,4.621.793,7.889,4.093,7.889,8.449C1090.6,3950.435,1083.236,3953.966,1077.361,3953.966Zm-3.7-9.67a13.492,13.492,0,0,1-2.244-3.8c-.165-.462-.3-.792-.594-.792-.429,0-2.673,2.277-2.673,5.61,0,1.783.66,2.971,1.419,2.971,1.221,0,4.324-2.706,4.324-3.4A.749.749,0,0,0,1073.664,3944.3Zm5.017-8.087a10.787,10.787,0,0,0-5.017,1.222c-.56.33-.89.561-.89,1.023,0,.561,1.881,4.192,2.772,4.192.329,0,.462-.067,1.154-1.189a20.872,20.872,0,0,0,2.443-4.852C1079.143,3936.209,1078.813,3936.209,1078.681,3936.209Z" fill="#333"/>
        <path id="パス_558" data-name="パス 558" d="M1117.143,3932.183c0,.1.066.231.066.363a25.32,25.32,0,0,1,.33,3.564c0,2.212-.495,5.282-3.4,9.671-2.641,4.027-4.324,4.819-5.645,4.819-2.177,0-4.125-3.4-4.125-7.426a11.633,11.633,0,0,1,3.663-8.417,13.659,13.659,0,0,1,10.529-4.29,10.756,10.756,0,0,1,5.314,1.056,10.344,10.344,0,0,1,5.742,9.6,12.308,12.308,0,0,1-8.316,11.618,20.294,20.294,0,0,1-5.479,1.221c-.132,0-.331-.033-.331-.231,0-.1.067-.132.892-.462,3.433-1.353,10.595-4.192,10.595-12.41,0-1.287-.132-9.142-9.143-9.142C1117.176,3931.721,1117.143,3931.984,1117.143,3932.183Zm-10.727,10.133c0,2.145.859,5.082,2.872,5.082.957,0,1.749-.4,4.027-3.829a18.873,18.873,0,0,0,3.234-9.6c0-1.981-.132-2.145-.562-2.145C1112.853,3931.82,1106.416,3936.077,1106.416,3942.316Z" fill="#333"/>
        <path id="パス_559" data-name="パス 559" d="M1155.2,3936.209c0,1.09-2.507,2.08-3.3,2.41-.463.165-.495.3-.562,1.452-.066.726-.066,3.4-.066,3.565,0,.2,0,.594.3.594.1,0,2.8-1.122,3.333-1.321a15.534,15.534,0,0,1,5.611-1.32,5.053,5.053,0,0,1,5.082,4.984c0,4.357-4.587,6.337-7.294,6.337-1.881,0-3.4-.957-3.4-2.674a2.943,2.943,0,0,1,1.65-2.607.178.178,0,0,1,.165.165c0,.1-.066.165-.132.265a1.356,1.356,0,0,0-.3.89c0,1.584,1.815,1.584,2.145,1.584,2.178,0,4.951-1.452,4.951-4.091a3.419,3.419,0,0,0-3.169-3.631c-.924,0-2.97.428-6.832,2.475-1.848.99-2.046,1.089-2.046,1.65,0,.363.1,1.848.1,2.178,0,1.519-.495,3.7-1.683,3.7-.892,0-1.255-.693-1.519-1.221-1.055-2.047-1.22-2.047-1.65-2.047a2.784,2.784,0,0,0-.825.2,6.431,6.431,0,0,1-1.254.66c-.363,0-2.046-.99-2.046-2.079,0-.593.363-1.287.957-1.287.2,0,1.156.165,1.353.165.891,0,1.485-.165,3.432-1.122,1.684-.825,1.882-.925,1.882-1.848,0-.759-.033-3.565-.066-4.125,0-.232-.1-.727-.462-.727a7.7,7.7,0,0,0-1.519.3,7.066,7.066,0,0,1-2.342.627c-1.122,0-2.377-2.278-2.377-2.508a.234.234,0,0,1,.264-.231c.1,0,.495.131.594.131a9.484,9.484,0,0,0,1.519.165,14.383,14.383,0,0,0,4.191-.99,24.656,24.656,0,0,0,.33-3.6,3.241,3.241,0,0,0-1.089-2.641,3.324,3.324,0,0,1-.463-.528c0-.3.529-.364.727-.364,2.211,0,3.4,1.618,3.4,2.244a13.245,13.245,0,0,1-.693,1.717,17.862,17.862,0,0,0-.33,2.146c0,.132.066.362.264.362.231,0,1.156-.362,1.156-.824,0-.067-.165-.4-.165-.463,0-.032.065-.1.132-.132C1153.617,3934.725,1155.2,3935.187,1155.2,3936.209Zm-7.524,12.642c0,.495.891,1.55,1.386,1.55.462,0,.924-.923.924-2.541,0-.131,0-.462-.1-.528C1149.789,3947.332,1147.677,3948.389,1147.677,3948.851Zm21.684-10.265c0,.693-.4,1.584-1.089,1.584-.2,0-.957-.065-1.122-.065-.165.032-.859.23-.991.23a.154.154,0,0,1-.165-.165,2.42,2.42,0,0,1,.1-.264,1.736,1.736,0,0,0,.132-.594c0-1.32-1.65-1.783-2.773-1.783a2.888,2.888,0,0,0-1.287.33.723.723,0,0,1-.33.1c-.1,0-.132-.033-.132-.132a4.223,4.223,0,0,1,3.565-2.08C1167.81,3935.747,1169.361,3937.068,1169.361,3938.586Z" fill="#333"/>
        <path id="パス_560" data-name="パス 560" d="M1201.617,3939.213a29.06,29.06,0,0,0,7.988,2.607c.132,0,.693.1.693.232,0,.1-.462.23-.595.264a5.728,5.728,0,0,0-2.508,1.782c-.1.132-.461.825-.626.825-.2,0-7.361-3.466-10.595-8.746-.627-1.057-.727-1.155-.957-1.155s-.3.065-1.024.825a39.18,39.18,0,0,1-9.769,7.689,28.476,28.476,0,0,1-5.182,2.112c-.1,0-.165-.065-.165-.1s3.531-2.211,3.829-2.409c4.455-2.806,9.175-7.856,9.637-10.331.033-.264.066-.363.3-.363.165,0,2.839,1.023,3,1.122.1.034.429.165.429.5a2.074,2.074,0,0,1-.132.461C1196.007,3935.022,1198.845,3937.794,1201.617,3939.213ZM1185.709,3931c-2.442,0-3.564.066-4.191.1-.1,0-.594.066-.693.066s-.166-.066-.3-.2l-.627-.76c-.132-.165-.132-.165-.132-.23s.032-.067.1-.067c.232,0,1.254.1,1.453.1,1.617.065,3,.132,4.554.132h.957c.694,0,.892-.33.892-.892a5.346,5.346,0,0,0-.265-1.749,5.121,5.121,0,0,1-.2-.66c0-.165.165-.231.362-.231.232,0,1.717.363,2.079.463.991.263,1.189.33,1.189.626,0,.2-.033.264-.495.859a.8.8,0,0,0-.231.594c0,.792.264.99,1.155.99h5.446c.3,0,.99,0,.99-.892a14.057,14.057,0,0,0-.1-1.485c-.034-.164-.2-.858-.2-.989,0-.166.2-.232.364-.232.23,0,2.474.529,2.837.627s.562.232.562.528c0,.2-.133.33-.495.594a1.058,1.058,0,0,0-.43.925c0,.924.528.924,1.057.924h1.682c1.453,0,1.618,0,2.113-.562.925-1.089,1.023-1.22,1.32-1.22.2,0,3.069,1.749,3.069,2.177,0,.463-.66.463-1.749.463h-6.435c-1.024,0-1.024.528-1.024,1.32,0,.2.033,1.32.033,1.485,0,1.222-.99,1.42-1.683,1.42-.759,0-.891-.133-.891-1.255v-2.277c-.1-.627-.495-.693-1.023-.693h-5.28c-.76,0-1.222,0-1.222.924,0,.33.1,1.782.1,2.079,0,.627-.1.924-.4,1.122a2.336,2.336,0,0,1-1.254.462c-.561,0-.825-.362-.825-1.022,0-.265.032-1.519.032-1.75,0-1.287,0-1.815-1.022-1.815Zm2.344,16.865a16.96,16.96,0,0,1,2.541,1.551.819.819,0,0,1,.264.5c0,.4-.264.462-1.056.661-.1.033-2.938,2.244-3.466,2.64a20.271,20.271,0,0,1-5.016,2.871.1.1,0,0,1-.1-.1c0-.067,1.749-1.584,1.98-1.816,2.74-2.607,4.422-5.215,4.719-6.27A.2.2,0,0,1,1188.053,3947.86Zm1.517-1.749c-2.574,0-3.531.033-4.191.1-.1,0-.594.066-.693.066s-.165-.066-.3-.2l-.627-.76c-.132-.165-.132-.165-.132-.23,0-.033.033-.066.1-.066.231,0,1.255.1,1.452.1,1.617.1,3,.132,4.555.132h2.475c.33,0,.99,0,.99-.892,0-.4-.2-3.069-.263-3.4,0-.065-.2-.4-.2-.462s.066-.2.331-.2c.23,0,2.541.5,2.871.595.462.1.627.4.627.56,0,.2-.066.265-.561.693-.462.4-.462.594-.462,1.584,0,1.189,0,1.519.989,1.519h1.453c1.453,0,1.618,0,2.113-.561.924-1.089,1.022-1.221,1.319-1.221.2,0,3.07,1.782,3.07,2.177,0,.463-.66.463-1.75.463H1196.5c-.99,0-.99.594-.99,1.65,0,2.344,0,3.664.065,5.611.034.561.034,1.354.034,1.749,0,1.057-.264,1.684-1.684,1.684-.726,0-.792-.595-.792-1.156,0-.428.1-2.409.1-2.838.033-1.254.033-2.475.033-3.993a19.75,19.75,0,0,0-.067-2.245c-.165-.462-.693-.462-.957-.462Zm8.813,2.772c0-.1.165-.132.3-.132,1.222,0,8.746,2.08,8.746,4.819,0,1.056-.594,1.881-1.419,1.881-.627,0-.759-.165-1.782-1.683a15.662,15.662,0,0,0-5.677-4.752C1198.515,3949.016,1198.383,3948.916,1198.383,3948.883Z" fill="#333"/>
      </g>
    </g>
    <g id="グループ_105" data-name="グループ 105" transform="translate(-657.62 -3906.197)">
      <path id="パス_561" data-name="パス 561" d="M876.564,3972.754a3.1,3.1,0,0,0-1.523-.245,6.121,6.121,0,0,0-1.556.35,5.206,5.206,0,0,1,3.569.963,3.513,3.513,0,0,1,1.19,3.272,10.626,10.626,0,0,1-1.067,3.744,29.133,29.133,0,0,1-1.977,3.431q-.912,1.365-2.066,2.782a19.061,19.061,0,0,1-2.555,2.59,16.376,16.376,0,0,1-2.992,1.995,8.765,8.765,0,0,1-3.343.963,6.2,6.2,0,0,1-1.663-.088,2.588,2.588,0,0,1-1.452-.787,2.774,2.774,0,0,1-.769-1.645,7.012,7.012,0,0,1,.034-1.855,12.717,12.717,0,0,1,1.208-3.658,32.117,32.117,0,0,1,1.942-3.342,26.7,26.7,0,0,1,2.24-3.168,35.74,35.74,0,0,1,2.625-2.852,27.426,27.426,0,0,1,2.853-2.345,8.084,8.084,0,0,1,3.342-1.435,7.425,7.425,0,0,1,1.347-.1,1.869,1.869,0,0,1,1.244.385.584.584,0,0,1,.227.4.663.663,0,0,1-.088.4.638.638,0,0,1-.315.262A.562.562,0,0,1,876.564,3972.754Zm-6.65,2.31a22.462,22.462,0,0,0-2.817,2.747,34.68,34.68,0,0,0-2.4,3.133,25.293,25.293,0,0,0-1.943,3.343,14.326,14.326,0,0,0-1.208,3.657,6.466,6.466,0,0,0-.1.787,4.146,4.146,0,0,0,.017.857,2.877,2.877,0,0,0,.21.789,1.416,1.416,0,0,0,.507.612,2.185,2.185,0,0,0,1.348.4,7.129,7.129,0,0,0,1.382-.157,9.664,9.664,0,0,0,3.5-1.47,24.822,24.822,0,0,0,2.975-2.345,22.388,22.388,0,0,0,2.607-2.87,18.89,18.89,0,0,0,2.013-3.29c.21-.421.444-.927.7-1.522a9.372,9.372,0,0,0,.578-1.838,5.4,5.4,0,0,0,.07-1.82,2.361,2.361,0,0,0-.788-1.47,2.264,2.264,0,0,0-1.575-.612,9.24,9.24,0,0,0-1.75.122.576.576,0,0,1-.56-.175.748.748,0,0,1-.21-.63,13.712,13.712,0,0,0-1.382.875Q870.4,3974.68,869.914,3975.064Z" fill="#333"/>
      <path id="パス_562" data-name="パス 562" d="M875.546,3986.684q.735-.386,1.452-.77t1.558-.875a1.694,1.694,0,0,1,.4-1.26,1.386,1.386,0,0,1,1.208-.56.711.711,0,0,1,.63.49.849.849,0,0,1-.139.8,2.344,2.344,0,0,1-.736.7,1.175,1.175,0,0,0,.595.141,3.208,3.208,0,0,0,1.54-.263,10.083,10.083,0,0,0,1.435-.717q.63-.21.8.14a.837.837,0,0,1-.139.84c-.118.187-.251.426-.4.718a6.945,6.945,0,0,0-.385.891,3.089,3.089,0,0,0-.174.875.789.789,0,0,0,.262.666q.176.21.928,0t2.012-.7q.42-.175.857-.4t.893-.438a1.737,1.737,0,0,0,.315-.157,1.782,1.782,0,0,1,.4-.175.6.6,0,0,1,.351,0c.1.036.157.158.157.368a.413.413,0,0,1-.157.315,1.867,1.867,0,0,1-.351.245,2.444,2.444,0,0,1-.4.175c-.139.047-.245.082-.315.1l-1.47.666-.962.525a8.054,8.054,0,0,1-1.173.525,3.461,3.461,0,0,1-1.155.21,1,1,0,0,1-.875-.455,1.152,1.152,0,0,1-.21-.543,2.009,2.009,0,0,1,.018-.594,5.508,5.508,0,0,1,.139-.6q.089-.3.158-.578l.28-1.155c-.116.024-.356.082-.717.175a6.965,6.965,0,0,1-1.173.192,5.831,5.831,0,0,1-1.207-.017,1.175,1.175,0,0,1-.858-.455q-.6.315-.98.525t-.787.455c-.268.163-.485.292-.647.385a2.065,2.065,0,0,0-.491.263.413.413,0,0,1-.49.052.44.44,0,0,1-.21-.385A.363.363,0,0,1,875.546,3986.684Z" fill="#333"/>
      <path id="パス_563" data-name="パス 563" d="M892.185,3985c.093-.046.308-.14.647-.28a5.777,5.777,0,0,1,1-.315,1.88,1.88,0,0,1,.841-.018q.35.088.245.648a1.735,1.735,0,0,1-.3.63,2.356,2.356,0,0,0-.333.63,8.15,8.15,0,0,0-.4,1.12,1.181,1.181,0,0,0,.123,1.085,3.3,3.3,0,0,0,1.313-.14q.715-.21,1.312-.42a6.924,6.924,0,0,0,.665-.35c.326-.186.67-.368,1.032-.543a5.878,5.878,0,0,1,1-.384q.454-.123.56.087.14.245-.175.525a3.4,3.4,0,0,1-.788.508c-.314.151-.636.292-.962.42s-.537.215-.631.262c-.512.257-1.032.507-1.556.752a6.283,6.283,0,0,1-1.628.508.954.954,0,0,1-1.015-.315,1.883,1.883,0,0,1-.28-1.068,5.637,5.637,0,0,1,.192-1.4q.192-.753.4-1.383-.805.315-1.576.577a14.264,14.264,0,0,0-1.505.613q-.629.281-1.259.63a.532.532,0,0,1-.613-.193c-.151-.2-.087-.367.193-.507Zm4.1-7.07a2.041,2.041,0,0,1,.543-.788,3.245,3.245,0,0,1,.822-.542,5.131,5.131,0,0,1,.963-.333q.506-.122.962-.192a12.6,12.6,0,0,1,2.485.1,1.891,1.891,0,0,1,.473.07.31.31,0,0,1,.227.385.515.515,0,0,1-.176.3.349.349,0,0,1-.314.088,8.445,8.445,0,0,0-2.117-.157,3.759,3.759,0,0,0-1.978.647,1.14,1.14,0,0,0-.49.56,1.28,1.28,0,0,1-.42.56.551.551,0,0,1-.735,0A.575.575,0,0,1,896.28,3977.934Z" fill="#333"/>
      <path id="パス_564" data-name="パス 564" d="M899.345,3986.719q.909-.454,1.785-.875t1.785-.77a12.368,12.368,0,0,1,1.943-.525,11.177,11.177,0,0,1,2.012-.175.852.852,0,0,1,.6.192c.14.129.151.345.035.647a.685.685,0,0,1-.63.351,12.015,12.015,0,0,0-1.837,0,5.7,5.7,0,0,0-1.768.42,2.954,2.954,0,0,0-.6.315,3.821,3.821,0,0,0-.578.472,1.48,1.48,0,0,0-.367.578.844.844,0,0,0,.07.665,1.262,1.262,0,0,0,1.067.7,3.571,3.571,0,0,0,2.153-.314l.63-.315a2.305,2.305,0,0,1,.508-.193.535.535,0,0,1,.472.158.742.742,0,0,1,.018.8c-.153.3-.275.56-.368.77l-.49,1.155q.945-.98,2-1.872a15.87,15.87,0,0,1,2.24-1.593c.07-.047.163-.116.28-.21a3.209,3.209,0,0,1,.385-.263,1.624,1.624,0,0,1,.42-.174.393.393,0,0,1,.35.052q.244.175.175.35a1.082,1.082,0,0,1-.245.35q-.91.491-1.75,1.05a16.284,16.284,0,0,0-1.646,1.26,21.135,21.135,0,0,0-1.732,1.645,20.16,20.16,0,0,0-1.522,1.82l-.91,2.1q-.42,1.05-.84,2.135t-.91,2.135c-.07.14-.158.309-.262.508a4.712,4.712,0,0,1-.351.559,1.526,1.526,0,0,1-.455.42.9.9,0,0,1-.577.123.638.638,0,0,1-.542-.385,1.388,1.388,0,0,1-.07-.7,4.548,4.548,0,0,1,.174-.769q.123-.386.228-.63a18.16,18.16,0,0,1,1.662-3.062,32.073,32.073,0,0,1,2.118-2.818l1.19-3.4a9.015,9.015,0,0,1-1.348.262,5.833,5.833,0,0,1-1.347.018,3.012,3.012,0,0,1-1.137-.35,1.684,1.684,0,0,1-.753-.91,1.7,1.7,0,0,1,.035-1.471c-.187.118-.38.241-.577.369a.6.6,0,0,1-.508.122.378.378,0,0,1-.42-.3A.355.355,0,0,1,899.345,3986.719Z" fill="#333"/>
      <path id="パス_565" data-name="パス 565" d="M914.626,3985c.093-.046.309-.14.648-.28a5.777,5.777,0,0,1,1-.315,1.88,1.88,0,0,1,.841-.018q.348.088.245.648a1.751,1.751,0,0,1-.3.63,2.327,2.327,0,0,0-.333.63,7.891,7.891,0,0,0-.4,1.12,1.178,1.178,0,0,0,.123,1.085,3.3,3.3,0,0,0,1.312-.14q.717-.21,1.313-.42a7.055,7.055,0,0,0,.665-.35c.326-.186.67-.368,1.032-.543a5.842,5.842,0,0,1,1-.384c.3-.082.49-.053.56.087.093.163.036.338-.174.525a3.388,3.388,0,0,1-.789.508c-.314.151-.635.292-.961.42s-.538.215-.631.262q-.77.386-1.557.752a6.258,6.258,0,0,1-1.628.508.952.952,0,0,1-1.014-.315,1.875,1.875,0,0,1-.281-1.068,5.638,5.638,0,0,1,.193-1.4q.192-.753.4-1.383-.805.315-1.575.577a14.1,14.1,0,0,0-1.5.613q-.63.281-1.26.63a.53.53,0,0,1-.612-.193c-.151-.2-.088-.367.192-.507Zm4.1-7.07a2.052,2.052,0,0,1,.543-.788,3.264,3.264,0,0,1,.822-.542,5.131,5.131,0,0,1,.963-.333c.338-.081.658-.145.962-.192a12.592,12.592,0,0,1,2.485.1,1.891,1.891,0,0,1,.473.07c.175.047.25.175.228.385a.526.526,0,0,1-.176.3.351.351,0,0,1-.315.088,8.438,8.438,0,0,0-2.117-.157,3.758,3.758,0,0,0-1.977.647,1.137,1.137,0,0,0-.491.56,1.272,1.272,0,0,1-.42.56.551.551,0,0,1-.735,0A.575.575,0,0,1,918.721,3977.934Z" fill="#333"/>
      <path id="パス_566" data-name="パス 566" d="M921.621,3986.719q.386-.21,1.33-.717t1.943-.963a8.861,8.861,0,0,1,1.838-.63c.559-.117.91-.023,1.05.28a.7.7,0,0,1-.087.683,2.854,2.854,0,0,0-.333.612l-.42.979a8.781,8.781,0,0,1,.91-.489l.91-.42q1.119-.594,2.31-1.26a11.268,11.268,0,0,1,2.415-1.015,1.736,1.736,0,0,1,.8-.018,1.011,1.011,0,0,1,.543.316.889.889,0,0,1,.193.6,1.437,1.437,0,0,1-.281.787,5.775,5.775,0,0,1-.682.875q-.366.386-.752.84a2.172,2.172,0,0,1-.245.28c-.117.117-.24.251-.367.4a5.73,5.73,0,0,0-.351.455,1.127,1.127,0,0,0-.192.4,1.3,1.3,0,0,0,.612,0,5.511,5.511,0,0,0,.735-.192c.245-.081.478-.169.7-.262s.391-.163.507-.21l1.436-.63c.092-.046.215-.117.367-.21s.31-.18.473-.262.32-.158.472-.228a.939.939,0,0,1,.367-.1.279.279,0,0,1,.316.315.55.55,0,0,1-.28.49c-.21.117-.432.227-.665.333s-.479.215-.736.332q-.489.281-.944.49c-.3.139-.619.292-.945.455-.187.094-.485.227-.893.4a6.209,6.209,0,0,1-1.225.385,2.032,2.032,0,0,1-1.067-.034c-.3-.106-.455-.391-.455-.858a1.155,1.155,0,0,1,.175-.63,4.155,4.155,0,0,1,.4-.542,6.87,6.87,0,0,1,.49-.508c.175-.163.332-.315.473-.455a7.9,7.9,0,0,0,.7-.735,2.858,2.858,0,0,0,.63-1.05,7.329,7.329,0,0,0-1.908.49q-.963.386-1.768.805-1.014.49-2.1,1.1a8.129,8.129,0,0,0-1.89,1.453.676.676,0,0,1-.368.157.66.66,0,0,1-.367-.07.566.566,0,0,1-.263-.262.655.655,0,0,1-.018-.455,1.088,1.088,0,0,1,.526-.56,6.766,6.766,0,0,0,.349-.648,2.165,2.165,0,0,1,.245-.437c.047-.163.093-.332.141-.507a4.313,4.313,0,0,0,.1-.543q-.386.105-.77.245c-.258.094-.455.163-.6.21q-.49.21-.979.4t-.981.438c-.186.093-.355.187-.506.28a2.96,2.96,0,0,1-.508.245.554.554,0,0,1-.4.052.645.645,0,0,1-.3-.157.3.3,0,0,1-.087-.263C921.371,3986.877,921.458,3986.789,921.621,3986.719Z" fill="#333"/>
      <path id="パス_567" data-name="パス 567" d="M937.522,3986.719q.42-.21,1.067-.543t1.383-.647q.735-.315,1.417-.595t1.138-.455q.245-.105.875-.315t1.33-.385a10.44,10.44,0,0,1,1.312-.245,1.434,1.434,0,0,1,.893.1q.42.386.157.7a1.072,1.072,0,0,1-.647.386l-1.575.175a3.7,3.7,0,0,0-.823.332c-.222.129-.473.286-.752.473q-.176.14-.612.578t-.859.944a5.623,5.623,0,0,0-.664.981c-.164.314-.164.542,0,.682a.786.786,0,0,0,.682.07,5.472,5.472,0,0,0,.963-.315q.489-.21.91-.437a5.334,5.334,0,0,0,.56-.333,7.558,7.558,0,0,0,1.645-1.33.463.463,0,0,1,.683-.087.59.59,0,0,1,.227.717.977.977,0,0,1-.245.42c-.117.117-.227.228-.333.332a1.248,1.248,0,0,0-.263.438c-.092.164-.116.286-.069.367a.336.336,0,0,0,.245.158,3.8,3.8,0,0,0,1.225-.07,13.9,13.9,0,0,0,1.522-.385,15.229,15.229,0,0,0,1.558-.578q.77-.331,1.33-.612a1.407,1.407,0,0,0,.385-.193,3.041,3.041,0,0,1,.508-.262,1.352,1.352,0,0,1,.506-.1.363.363,0,0,1,.351.21.286.286,0,0,1-.018.385,1.257,1.257,0,0,1-.437.3c-.188.082-.374.157-.56.227s-.327.128-.421.175q-.594.281-1.189.542l-1.226.543c-.279.117-.583.257-.909.42a7.827,7.827,0,0,1-1.015.42,5.745,5.745,0,0,1-1.068.245,2.008,2.008,0,0,1-1-.1,1.044,1.044,0,0,1-.7-.682,1.8,1.8,0,0,1,.035-.928l-.945.56q-.6.35-1.242.717a3.385,3.385,0,0,1-1.348.438,1.828,1.828,0,0,1-1.12-.28,1.161,1.161,0,0,1-.526-.98,2.068,2.068,0,0,1,.281-.892,7.7,7.7,0,0,1,.717-1.12,8.49,8.49,0,0,1,.962-1.068,4.881,4.881,0,0,1,.981-.735,6.788,6.788,0,0,0-.787.315q-.543.245-1.226.595t-1.434.718q-.753.368-1.383.682a.421.421,0,0,1-.35.052.479.479,0,0,1-.263-.175.4.4,0,0,1-.07-.28A.358.358,0,0,1,937.522,3986.719Z" fill="#333"/>
      <path id="パス_568" data-name="パス 568" d="M952.918,3986.684a22.418,22.418,0,0,0,2.1-1.085q1.016-.594,2.03-1.3a18.943,18.943,0,0,1,1.085-1.89q.6-.911,1.155-1.785.6-.805,1.19-1.627t1.225-1.628q.525-.7,1.138-1.417a5.2,5.2,0,0,1,1.417-1.173,2.9,2.9,0,0,1,.945-.3.651.651,0,0,1,.77.507,1.1,1.1,0,0,1,.017.753,3.088,3.088,0,0,1-.367.734,7.96,7.96,0,0,1-.525.7c-.187.223-.338.415-.455.578a28.252,28.252,0,0,1-3.132,3.728,32.761,32.761,0,0,1-3.728,3.2c-.117.28-.25.577-.4.893a8.384,8.384,0,0,0-.4,1,5.729,5.729,0,0,0-.244,1.033,2.633,2.633,0,0,0,.034.962q.386-.069.7-.1c.187-.023.361-.041.525-.052a1.051,1.051,0,0,0,.315-.053,15.71,15.71,0,0,0,2.065-.56q1.016-.349,1.995-.77a2.87,2.87,0,0,0,.665-.28.629.629,0,0,1,.666-.035q.383.281.1.507a2.251,2.251,0,0,1-.524.333l-4.061,1.5c-.4.14-.782.286-1.155.438a3.586,3.586,0,0,1-1.155.262,1.134,1.134,0,0,1-.839-.158,1.169,1.169,0,0,1-.438-.595,2.01,2.01,0,0,1-.088-.8,4.542,4.542,0,0,1,.14-.823,12.2,12.2,0,0,1,.63-1.68,27.114,27.114,0,0,1-3.01,1.715.544.544,0,0,1-.577-.228C952.575,3986.994,952.638,3986.824,952.918,3986.684Zm7.106-4.8a27.157,27.157,0,0,0,3.009-3.325,11.866,11.866,0,0,0,1.19-1.68,4.761,4.761,0,0,1,.21-.437,4.333,4.333,0,0,0,.245-.543,3.777,3.777,0,0,0-.928.665c-.292.28-.53.514-.717.7a18.69,18.69,0,0,0-1.5,1.7q-.7.892-1.4,1.838-.386.56-.735,1.1t-.665,1.1q.315-.245.647-.543Z" fill="#333"/>
      <path id="パス_569" data-name="パス 569" d="M977.314,3979.859a24.037,24.037,0,0,1,3.219-2.4q1.715-1.066,3.465-1.977,1.226-.63,2.52-1.19a25.892,25.892,0,0,1,2.66-.98l.351-.42q.63-.665,1.347-1.295a5.016,5.016,0,0,1,1.557-.945,4.561,4.561,0,0,1,.613-.14,2.891,2.891,0,0,1,.77-.035,1.149,1.149,0,0,1,.612.228q.245.192.105.647a.524.524,0,0,1-.315.35.681.681,0,0,1-.524,0,1.078,1.078,0,0,0-.665-.07,2.7,2.7,0,0,0-.718.262,4.477,4.477,0,0,0-.718.473q-.35.281-.63.49a15.389,15.389,0,0,1,1.856-.175,7.972,7.972,0,0,1,1.907.157,4.869,4.869,0,0,1,1.7.7,3.281,3.281,0,0,1,1.19,1.452,2.069,2.069,0,0,1,.053,1.68,4.575,4.575,0,0,1-1.015,1.488,9.616,9.616,0,0,1-1.505,1.224q-.824.545-1.452.893-1.471.91-2.994,1.68t-3.1,1.47a22.5,22.5,0,0,1,3.167-.4,6.228,6.228,0,0,1,2.923.508,2.464,2.464,0,0,1,1.154.892,2.563,2.563,0,0,1,.437,1.243,3.034,3.034,0,0,1-.21,1.347,3.425,3.425,0,0,1-.787,1.208,8.273,8.273,0,0,1-3.115,1.943,36.437,36.437,0,0,1-3.535,1.067,37.134,37.134,0,0,1-6.194,1.155,1.936,1.936,0,0,0,.524.805.557.557,0,0,1,.245.49.534.534,0,0,1-.245.385.806.806,0,0,1-.507.122.749.749,0,0,1-.543-.332,2.74,2.74,0,0,1-.385-.665,7.111,7.111,0,0,1-.245-.735,17.118,17.118,0,0,1-1.96.1,12.953,12.953,0,0,1-1.96-.14c-.187-.024-.437-.058-.753-.1a5.53,5.53,0,0,1-.944-.228,2.639,2.639,0,0,1-.806-.419.8.8,0,0,1-.332-.648c0-.3.081-.484.246-.543a.732.732,0,0,1,.541.035,4.278,4.278,0,0,1,.613.316,3.636,3.636,0,0,0,.49.262,7.508,7.508,0,0,0,2.03.42q1.051.069,2.1.07h.63a8.669,8.669,0,0,1,.368-2.7q.4-1.365.787-2.38l.175-.525c-.163.07-.327.135-.489.192a5.225,5.225,0,0,1-.526.158h-.035a1.056,1.056,0,0,1-.647-.052q-.262-.123-.228-.543a.515.515,0,0,1,.228-.42,2.2,2.2,0,0,1,.543-.3,3.952,3.952,0,0,1,.682-.192q.366-.069.648-.14l.454-.1q.594-1.365,1.278-2.66t1.452-2.555q.735-1.225,1.505-2.433t1.646-2.327q-.982.386-1.891.805t-1.715.84a22.846,22.846,0,0,0-2.5,1.418,23.6,23.6,0,0,0-2.328,1.732,3.221,3.221,0,0,0-.4.4c-.153.175-.31.351-.473.526a3.627,3.627,0,0,1-.508.455.687.687,0,0,1-.506.157.569.569,0,0,1-.543-.42A.611.611,0,0,1,977.314,3979.859Zm4.094,10.22a4.186,4.186,0,0,0-.105,1.47q1.609-.14,3.2-.42a24.151,24.151,0,0,0,3.132-.77c.514-.14,1.073-.31,1.681-.508a13.531,13.531,0,0,0,1.767-.717,10.229,10.229,0,0,0,1.592-.962,4.138,4.138,0,0,0,1.155-1.278,1.449,1.449,0,0,0,.21-1.453,2.06,2.06,0,0,0-1.014-.84,5.827,5.827,0,0,0-1.558-.4,12.082,12.082,0,0,0-1.418-.1q-1.435.071-2.94.262a23.58,23.58,0,0,0-2.975.578l-1.54.595h-.034a18.527,18.527,0,0,0-.753,2.24A13.7,13.7,0,0,0,981.408,3990.079Zm6.965-14.455q-1.225,1.575-2.293,3.238a36.369,36.369,0,0,0-1.942,3.412c-.187.327-.361.653-.525.98s-.315.654-.455.98q1.961-.664,3.868-1.5t3.727-1.785a25.839,25.839,0,0,0,2.293-1.3,15.944,15.944,0,0,0,2.082-1.575,11.759,11.759,0,0,0,.893-.928,2.107,2.107,0,0,0,.543-1.137.978.978,0,0,0-.123-.595,1.914,1.914,0,0,0-.42-.507,3.859,3.859,0,0,0-.56-.4,4.882,4.882,0,0,0-.543-.28,6.454,6.454,0,0,0-2.59-.455,11.729,11.729,0,0,0-2.7.385q-.349.349-.665.718T988.373,3975.624Z" fill="#333"/>
      <path id="パス_570" data-name="パス 570" d="M996.567,3986.684a22.523,22.523,0,0,0,2.1-1.085q1.016-.594,2.031-1.3a18.741,18.741,0,0,1,1.085-1.89q.594-.911,1.155-1.785.594-.805,1.189-1.627t1.226-1.628q.523-.7,1.137-1.417a5.208,5.208,0,0,1,1.418-1.173,2.888,2.888,0,0,1,.945-.3.65.65,0,0,1,.769.507,1.109,1.109,0,0,1,.018.753,3.088,3.088,0,0,1-.367.734,7.769,7.769,0,0,1-.526.7c-.186.223-.338.415-.455.578a28.1,28.1,0,0,1-3.132,3.728,32.745,32.745,0,0,1-3.727,3.2q-.176.42-.4.893a8.225,8.225,0,0,0-.4,1,5.729,5.729,0,0,0-.244,1.033,2.633,2.633,0,0,0,.034.962c.257-.046.491-.081.7-.1.187-.023.362-.041.526-.052a1.049,1.049,0,0,0,.314-.053,15.726,15.726,0,0,0,2.066-.56q1.016-.349,2-.77a2.906,2.906,0,0,0,.665-.28.628.628,0,0,1,.665-.035q.384.281.1.507a2.231,2.231,0,0,1-.524.333l-4.061,1.5c-.4.14-.782.286-1.155.438a3.587,3.587,0,0,1-1.154.262,1.136,1.136,0,0,1-.84-.158,1.167,1.167,0,0,1-.437-.595,1.991,1.991,0,0,1-.088-.8,4.549,4.549,0,0,1,.139-.823,12.2,12.2,0,0,1,.63-1.68,27.119,27.119,0,0,1-3.01,1.715.545.545,0,0,1-.577-.228C996.223,3986.994,996.286,3986.824,996.567,3986.684Zm7.1-4.8a27.086,27.086,0,0,0,3.01-3.325,11.858,11.858,0,0,0,1.189-1.68,4.764,4.764,0,0,1,.21-.437,4.333,4.333,0,0,0,.245-.543,3.772,3.772,0,0,0-.927.665q-.438.42-.717.7a18.86,18.86,0,0,0-1.505,1.7q-.7.892-1.4,1.838-.385.56-.736,1.1t-.665,1.1q.315-.245.648-.543T1003.672,3981.889Z" fill="#333"/>
      <path id="パス_571" data-name="パス 571" d="M1006.815,3986.684q.63-.315,1.312-.7a11.517,11.517,0,0,1,1.382-.665,3.594,3.594,0,0,1,1.3-1.313,5.319,5.319,0,0,1,1.785-.682,4.7,4.7,0,0,1,1.138,0,1.391,1.391,0,0,1,1,.525.552.552,0,0,1,.122.595,1.653,1.653,0,0,1-.42.595,4.158,4.158,0,0,1-.665.508c-.245.152-.426.262-.543.332a5,5,0,0,1-1.382.578,4.472,4.472,0,0,1-1.522.122h-.141a1.978,1.978,0,0,0,.63,1.19,3.042,3.042,0,0,0,1.155.612,4.2,4.2,0,0,0,1.383.158,10.494,10.494,0,0,0,1.313-.14,15.388,15.388,0,0,0,1.644-.438,14.728,14.728,0,0,0,1.575-.612c.234-.117.473-.227.718-.333a7.141,7.141,0,0,0,.683-.332.661.661,0,0,1,.507.07c.175.093.193.245.052.455a.894.894,0,0,1-.49.385c-.21.07-.4.14-.56.21l-1.75.77a29.833,29.833,0,0,1-3.184,1.05,5.221,5.221,0,0,1-1.418.087,4.079,4.079,0,0,1-1.33-.315,3.492,3.492,0,0,1-1.1-.752,2.783,2.783,0,0,1-.7-1.26c-.047-.186-.087-.373-.122-.56a1.126,1.126,0,0,1,.018-.525,6.675,6.675,0,0,0-.753.4l-.648.4a2.571,2.571,0,0,0-.455.263.471.471,0,0,1-.559.017.4.4,0,0,1-.193-.385A.324.324,0,0,1,1006.815,3986.684Zm3.569-.98a4.046,4.046,0,0,0,1.628-.42,5.114,5.114,0,0,0,1.383-.98,1.977,1.977,0,0,0-.963-.1,2.712,2.712,0,0,0-1.593.822A2.212,2.212,0,0,0,1010.384,3985.7Z" fill="#333"/>
      <path id="パス_572" data-name="パス 572" d="M1019.134,3986.719q.386-.21,1.33-.717t1.943-.963a8.873,8.873,0,0,1,1.837-.63c.56-.117.911-.023,1.05.28a.692.692,0,0,1-.087.683,2.943,2.943,0,0,0-.333.612l-.42.979a8.993,8.993,0,0,1,.91-.489l.911-.42q1.119-.594,2.309-1.26a11.31,11.31,0,0,1,2.415-1.015,1.739,1.739,0,0,1,.8-.018,1.016,1.016,0,0,1,.543.316.889.889,0,0,1,.192.6,1.444,1.444,0,0,1-.28.787,5.726,5.726,0,0,1-.683.875q-.366.386-.751.84a2.2,2.2,0,0,1-.246.28q-.175.175-.367.4c-.129.152-.245.3-.35.455a1.148,1.148,0,0,0-.193.4,1.307,1.307,0,0,0,.613,0,5.508,5.508,0,0,0,.735-.192c.245-.081.477-.169.7-.262s.391-.163.507-.21l1.435-.63c.093-.046.216-.117.368-.21s.309-.18.472-.262.321-.158.473-.228a.93.93,0,0,1,.367-.1.279.279,0,0,1,.316.315.549.549,0,0,1-.281.49c-.21.117-.431.227-.665.333s-.478.215-.735.332c-.326.187-.642.35-.944.49s-.62.292-.946.455c-.186.094-.484.227-.892.4a6.231,6.231,0,0,1-1.225.385,2.032,2.032,0,0,1-1.067-.034c-.3-.106-.455-.391-.455-.858a1.162,1.162,0,0,1,.174-.63,4.158,4.158,0,0,1,.4-.542,6.688,6.688,0,0,1,.49-.508c.175-.163.332-.315.473-.455a8.033,8.033,0,0,0,.7-.735,2.858,2.858,0,0,0,.63-1.05,7.33,7.33,0,0,0-1.908.49q-.963.386-1.768.805-1.016.49-2.1,1.1a8.148,8.148,0,0,0-1.889,1.453.679.679,0,0,1-.368.157.664.664,0,0,1-.368-.07.564.564,0,0,1-.262-.262.649.649,0,0,1-.018-.455,1.086,1.086,0,0,1,.525-.56,6.549,6.549,0,0,0,.35-.648,2.112,2.112,0,0,1,.245-.437c.047-.163.093-.332.141-.507a4.145,4.145,0,0,0,.1-.543q-.386.105-.769.245c-.258.094-.455.163-.6.21q-.49.21-.979.4c-.328.129-.654.275-.981.438-.187.093-.355.187-.507.28a2.888,2.888,0,0,1-.508.245.551.551,0,0,1-.4.052.654.654,0,0,1-.3-.157.307.307,0,0,1-.087-.263C1018.884,3986.877,1018.971,3986.789,1019.134,3986.719Z" fill="#333"/>
      <path id="パス_573" data-name="パス 573" d="M1035.1,3986.684a11.092,11.092,0,0,0,1.732-.77q.822-.454,1.7-.84a6.943,6.943,0,0,1,1.155-.455l1.189-.35a4.531,4.531,0,0,1,1.505-.245.637.637,0,0,1,.526.28.511.511,0,0,1,.035.595.608.608,0,0,1-.316.3,1.462,1.462,0,0,1-.472.1q-.263.018-.525.018h-.472a2.536,2.536,0,0,0-1,.3,5.074,5.074,0,0,0-.962.647,4.482,4.482,0,0,0-1.085,1.12c-.024.047-.077.146-.158.3s-.158.31-.227.473a3.021,3.021,0,0,0-.158.455.314.314,0,0,0,.052.315.343.343,0,0,0,.333.052,1.82,1.82,0,0,0,.455-.175c.152-.081.291-.163.42-.245s.215-.134.262-.157a13.053,13.053,0,0,0,1.12-.735q.526-.384,1.085-.77l1.646-1.47q.594-1.226,1.259-2.432t1.366-2.4q.489-.806.979-1.61t1.051-1.61q.525-.735,1.154-1.523a4.39,4.39,0,0,1,1.471-1.207c.162-.047.32-.093.472-.14a.826.826,0,0,1,.472,0,.92.92,0,0,1,.561.28.854.854,0,0,1,.192.508,2.01,2.01,0,0,1-.07.63,2.427,2.427,0,0,1-.228.577,14.53,14.53,0,0,1-1.347,1.925q-.753.91-1.523,1.82-1.189,1.436-2.4,2.782t-2.537,2.608q-.176.49-.333.945c-.1.3-.216.619-.332.945-.047.117-.1.257-.158.42s-.117.339-.175.525a4.79,4.79,0,0,0-.14.56,1.245,1.245,0,0,0-.018.455,4.247,4.247,0,0,0,1.278-.28q.647-.245,1.208-.491a17.58,17.58,0,0,0,1.977-.926q1-.543,1.908-1.033a.639.639,0,0,1,.3-.087,1.132,1.132,0,0,1,.35.017.231.231,0,0,1,.192.175.558.558,0,0,1-.1.385.969.969,0,0,1-.526.4q-.349.123-.594.228-.981.49-1.96,1.015t-1.925,1.05c-.187.093-.4.2-.631.332a5.37,5.37,0,0,1-.734.333,2.2,2.2,0,0,1-.753.14,1.207,1.207,0,0,1-.683-.21,1.07,1.07,0,0,1-.4-.595,1.978,1.978,0,0,1-.035-.753,4.015,4.015,0,0,1,.176-.769c.081-.245.157-.461.226-.648.024-.093.047-.181.07-.263s.059-.18.106-.3l-1.75,1.5c-.188.188-.4.38-.63.579a4.883,4.883,0,0,1-.753.524,3.291,3.291,0,0,1-.822.333,1.7,1.7,0,0,1-.84,0,1.163,1.163,0,0,1-.857-.665,1.523,1.523,0,0,1,.034-1.015,4.341,4.341,0,0,1,.613-1.137,8.96,8.96,0,0,1,.909-1.068l-.875.35q-.35.175-.84.472a2.1,2.1,0,0,1-.875.333.341.341,0,0,1-.349.017.451.451,0,0,1-.193-.227.505.505,0,0,1-.017-.3A.322.322,0,0,1,1035.1,3986.684Zm9.939-3.43q.91-.945,1.785-1.943t1.68-2.047q.35-.49.7-.963t.665-1a7.758,7.758,0,0,1,.4-.665,2.363,2.363,0,0,0,.368-.84,2.181,2.181,0,0,0-.91.664c-.281.328-.5.584-.665.771a21.987,21.987,0,0,0-1.505,1.82q-.7.945-1.33,1.96l-1.4,2.449Z" fill="#333"/>
    </g>
    <path id="パス_574" data-name="パス 574" d="M663.62,3946.039V3912.2h21.016v-6H657.62v94.535h27.016v-6H663.62v-48.693Z" transform="translate(-657.62 -3906.197)" fill="none" stroke="#333" stroke-miterlimit="10" stroke-width="0.3"/>
    <path id="パス_575" data-name="パス 575" d="M1247.926,3960.89v33.842H1226.91v6h27.016V3906.2H1226.91v6h21.016v48.693Z" transform="translate(-657.62 -3906.197)" fill="none" stroke="#333" stroke-miterlimit="10" stroke-width="0.3"/>
  </g>
</svg>
