<svg id="lineup_smart_howto_sp" xmlns="http://www.w3.org/2000/svg" width="594" height="55" viewBox="0 0 594 55">
  <rect id="長方形_49" data-name="長方形 49" width="594" height="55" fill="#fff100" opacity="0"/>
  <path id="パス_2049" data-name="パス 2049" d="M-5011.742-922.6a1.56,1.56,0,0,1,.68,1.039c0,.36-.64,1.92-.68,2.28-.16,1.4-.24,4.959-.24,6.639a.669.669,0,0,0,.76.719c.8,0,9.518-4.239,9.518-6.4,0-.24-.28-1.36-.28-1.48,0-.16.28-.16.56-.16a4.119,4.119,0,0,1,4.12,3.36c0,.919-.6,1.039-1.76,1.279-.92.2-4.52,2-5.28,2.32-1.12.48-7.039,2.6-7.238,2.719-.48.32-.48.52-.48,2.04,0,5.239.759,6.319,6,6.319a25.464,25.464,0,0,0,5.839-.72,23.53,23.53,0,0,1,2.759-.48,1.548,1.548,0,0,1,1.6,1.4c0,3-7.679,3-10.158,3-8.279,0-8.479-3.56-8.479-9.239,0-1.44.12-7.719.12-9.039,0-3.279-.6-4.759-1.04-5.6a8.158,8.158,0,0,1-.679-1.321c0-.239.559-.359.92-.359C-5014.022-924.278-5013.462-924-5011.742-922.6Z" transform="translate(5039.364 938.64)" fill="#4d4d4d"/>
  <path id="パス_2050" data-name="パス 2050" d="M-4961.32-896.883c0,.76-.279,1.52-.88,1.52-1.76,0-2.4-3.48-2.72-5.159-.2-1-1.079-5.36-1.239-6.279-.16-.72-.36-1.24-1.08-1.24-.16,0-4.919,1.119-6.879,1.76a21.165,21.165,0,0,1-2.439,1.039c-.6,0-4.6-1.759-4.6-2.959,0-.32.28-.4.48-.4.361,0,2.041.16,2.4.16a45.525,45.525,0,0,0,9.719-1.36c1.039-.2,1.319-.36,1.319-1.04a23.984,23.984,0,0,0-.88-4c-.24-1-.439-1.4-1.04-1.4a48.591,48.591,0,0,0-5.519,1.52c-.959,0-3.639-1.44-3.639-2.16,0-.28.44-.28.8-.28a37.1,37.1,0,0,0,6.159-.68c1.4-.319,2.04-.559,2.04-1.319,0-.16-.521-3.96-2.28-5.479a16.647,16.647,0,0,1-1.84-1.44c0-.24,1.2-.68,2.08-.68.8,0,3.6.88,3.72,1.68.08.56.159,2.879.239,3.36.36,2.6.8,2.6,1.36,2.6a24.372,24.372,0,0,0,3.48-1.08c1.719-.76,1.919-.84,2.479-.84,1.279,0,2.4.84,2.4,1.48,0,.8-.8.96-3.72,1.519a33.008,33.008,0,0,0-4.039.88.886.886,0,0,0-.76,1,26.011,26.011,0,0,0,.72,3.6c.36,1.359.52,1.719,1.24,1.719a26.959,26.959,0,0,0,5.119-1.519,8.168,8.168,0,0,1,3.959-1c2.12,0,3,1.08,3,1.76,0,1.2-1.64,1.239-3.079,1.239a42.25,42.25,0,0,0-7.2,1.16c-1.68.36-1.76.6-1.76,1.36C-4964.2-906.8-4961.32-898.643-4961.32-896.883Z" transform="translate(5039.364 938.64)" fill="#4d4d4d"/>
  <path id="パス_2051" data-name="パス 2051" d="M-4930.106-912.16c0,.8-.6,2-1.561,2-.6,0-.8-.24-1.4-1.24a9.693,9.693,0,0,0-3.64-3.319c-.119-.08-.359-.24-.359-.4,0-.56,2.279-.6,2.8-.6C-4932.546-915.72-4930.106-914.12-4930.106-912.16Zm-4.92,12.4c-.119-.2-.84-1.04-.959-1.241a1.689,1.689,0,0,1-.24-.759c0-.16.12-.28.359-.28.36,0,1.88.52,2.2.52,1.72,0,12.478-6,22.036-16.837a19.2,19.2,0,0,1,1.72-1.8.147.147,0,0,1,.16.16c0,.44-3.519,9-20.077,20.6-.479.32-2.4,2.12-2.919,2.12C-4933.626-897.283-4934.026-897.923-4935.026-899.762Zm9.719-20.357c0,.92-.64,1.8-1.28,1.8-.44,0-.64-.16-2.08-1.88a6.96,6.96,0,0,0-3.439-2.12c-.16-.04-.6-.16-.6-.279s1.119-.761,3.079-.761C-4925.307-923.359-4925.307-920.239-4925.307-920.119Z" transform="translate(5039.364 938.64)" fill="#4d4d4d"/>
  <path id="パス_2052" data-name="パス 2052" d="M-4887.4-915.44a21.569,21.569,0,0,0,2.519,1.08c.84,0,2-2.8,2.48-3.959a19.717,19.717,0,0,0,1.479-4.8,1.79,1.79,0,0,0-.279-.92c-.12-.239-.24-.359-.24-.479a.328.328,0,0,1,.32-.361,6.238,6.238,0,0,1,2.679,1.281,5.254,5.254,0,0,1,1.72,2.879c0,.32-.121.36-1,.8-.441.24-.561.44-1.6,2.4-.68,1.319-1.44,2.679-2.279,4a1.827,1.827,0,0,0-.4,1,1.588,1.588,0,0,0,.68,1.079c3.439,3.04,3.919,5.2,3.919,6.2a1.255,1.255,0,0,1-1.279,1.32c-1.441,0-2.04-1.04-3.44-3.519-.4-.72-1.16-2.08-1.72-2.08a1.148,1.148,0,0,0-.839.56C-4892-899.8-4900-896.4-4900.356-896.4c-.12,0-.28-.04-.28-.2s.759-.76,1.24-1.16c6.8-5.319,9.478-8.438,10.6-9.8.96-1.2,2.88-3.68,2.88-4.28,0-.839-3.679-3.039-5.2-3.879-.76-.4-.84-.44-.84-.64,0-.16.08-.319.361-.319A16.064,16.064,0,0,1-4887.4-915.44Z" transform="translate(5039.364 938.64)" fill="#4d4d4d"/>
  <path id="パス_2053" data-name="パス 2053" d="M-4833.872-914.12a35.265,35.265,0,0,0,9.678,3.159c.16,0,.84.12.84.281,0,.119-.56.279-.72.319a6.923,6.923,0,0,0-3.039,2.16c-.12.16-.561,1-.76,1-.24,0-8.919-4.2-12.838-10.6-.76-1.279-.88-1.4-1.16-1.4s-.36.08-1.24,1a47.524,47.524,0,0,1-11.838,9.318c-1.359.72-5.519,2.559-6.278,2.559-.12,0-.2-.079-.2-.119s4.28-2.68,4.639-2.92c5.4-3.4,11.118-9.519,11.679-12.518.04-.32.08-.44.359-.44.2,0,3.44,1.24,3.64,1.36.12.04.519.2.519.6a2.484,2.484,0,0,1-.159.56C-4840.671-919.2-4837.231-915.84-4833.872-914.12Zm-19.277-9.958c-2.959,0-4.32.079-5.079.119-.12,0-.72.08-.84.08s-.2-.08-.36-.239l-.76-.92c-.159-.2-.159-.2-.159-.28s.04-.08.119-.08c.28,0,1.52.12,1.759.12,1.96.08,3.64.16,5.52.16h1.16c.84,0,1.079-.4,1.079-1.08a6.532,6.532,0,0,0-.319-2.12,6.074,6.074,0,0,1-.24-.8c0-.2.2-.279.439-.279.28,0,2.08.439,2.52.559,1.2.32,1.44.4,1.44.76,0,.24-.04.32-.6,1.04a.976.976,0,0,0-.281.72c0,.96.32,1.2,1.4,1.2h6.6c.361,0,1.2,0,1.2-1.08a16.61,16.61,0,0,0-.12-1.8c-.04-.2-.24-1.04-.24-1.2,0-.2.24-.28.441-.28.28,0,3,.639,3.439.759s.68.28.68.64c0,.24-.16.4-.6.72a1.283,1.283,0,0,0-.52,1.12c0,1.12.64,1.12,1.28,1.12h2.04c1.76,0,1.959,0,2.559-.68,1.12-1.32,1.24-1.48,1.6-1.48.239,0,3.719,2.12,3.719,2.64,0,.56-.8.56-2.119.56h-7.8c-1.24,0-1.24.64-1.24,1.6,0,.24.04,1.6.04,1.8,0,1.48-1.2,1.72-2.039,1.72-.92,0-1.08-.16-1.08-1.52v-2.76c-.121-.76-.6-.839-1.241-.839h-6.4c-.92,0-1.48,0-1.48,1.119,0,.4.12,2.16.12,2.52,0,.76-.12,1.12-.48,1.36a2.845,2.845,0,0,1-1.52.56c-.679,0-1-.44-1-1.241,0-.319.041-1.839.041-2.119,0-1.559,0-2.2-1.241-2.2Zm2.84,20.436a20.466,20.466,0,0,1,3.079,1.88.991.991,0,0,1,.32.6c0,.48-.32.56-1.28.8-.12.041-3.559,2.72-4.2,3.2-3.6,2.56-5.879,3.48-6.08,3.48a.127.127,0,0,1-.119-.12c0-.081,2.119-1.92,2.4-2.2,3.319-3.16,5.358-6.319,5.719-7.6A.241.241,0,0,1-4850.309-903.642Zm1.84-2.119c-3.121,0-4.28.04-5.08.12-.12,0-.72.08-.839.08s-.2-.08-.361-.24l-.76-.92c-.16-.2-.16-.2-.16-.28,0-.04.04-.08.12-.08.281,0,1.52.119,1.76.119,1.96.12,3.64.161,5.519.161h3c.4,0,1.2,0,1.2-1.08,0-.48-.24-3.719-.32-4.12,0-.08-.241-.479-.241-.559s.08-.241.4-.241c.279,0,3.079.6,3.479.72.56.12.76.481.76.68,0,.24-.08.32-.68.84-.56.48-.56.72-.56,1.92,0,1.44,0,1.84,1.2,1.84h1.76c1.76,0,1.959,0,2.559-.68,1.119-1.32,1.24-1.48,1.6-1.48.24,0,3.72,2.16,3.72,2.639,0,.561-.8.561-2.12.561h-7.559c-1.2,0-1.2.719-1.2,2,0,2.839,0,4.44.08,6.8.04.68.04,1.64.04,2.12,0,1.28-.32,2.04-2.04,2.04-.879,0-.959-.721-.959-1.4,0-.52.119-2.92.119-3.44.04-1.52.04-3,.04-4.839a24.662,24.662,0,0,0-.079-2.72c-.2-.559-.84-.559-1.16-.559Zm10.677,3.359c0-.12.2-.16.361-.16,1.479,0,10.6,2.519,10.6,5.839,0,1.28-.719,2.28-1.719,2.28-.76,0-.92-.2-2.16-2.04a19,19,0,0,0-6.879-5.759C-4837.632-902.242-4837.792-902.362-4837.792-902.4Z" transform="translate(5039.364 938.64)" fill="#4d4d4d"/>
  <path id="パス_2054" data-name="パス 2054" d="M-4795.386-922.638c0,.119.079.279.079.439a30.638,30.638,0,0,1,.4,4.319c0,2.68-.6,6.4-4.119,11.719-3.2,4.879-5.239,5.839-6.839,5.839-2.64,0-5-4.12-5-9a14.085,14.085,0,0,1,4.438-10.2,16.549,16.549,0,0,1,12.758-5.2,13.018,13.018,0,0,1,6.44,1.28,12.534,12.534,0,0,1,6.959,11.637,14.915,14.915,0,0,1-10.078,14.078,24.579,24.579,0,0,1-6.64,1.48c-.159,0-.4-.04-.4-.28,0-.12.08-.16,1.08-.56,4.159-1.639,12.837-5.079,12.837-15.037,0-1.56-.16-11.078-11.078-11.078C-4795.347-923.2-4795.386-922.879-4795.386-922.638Zm-13,12.277c0,2.6,1.041,6.159,3.48,6.159,1.159,0,2.119-.479,4.879-4.639,2.119-3.24,3.919-7.679,3.919-11.638,0-2.4-.159-2.6-.68-2.6C-4800.586-923.079-4808.385-917.92-4808.385-910.361Z" transform="translate(5039.364 938.64)" fill="#4d4d4d"/>
  <path id="パス_2059" data-name="パス 2059" d="M-4584.641-906.241c-1.04,0-1.04.6-1.04,1.079,0,.96.04,5.079.04,5.919,0,.24,0,.8.639.8.321,0,3.6-1.359,3.959-1.52a.871.871,0,0,0,.561-.719,7.951,7.951,0,0,0-1.28-2.48,8.223,8.223,0,0,1-.8-1.08c0-.04.08-.04.12-.04.76,0,5.879,2.4,5.879,5.679,0,1.12-.56,1.92-1.32,1.92-.719,0-.879-.4-1.519-1.88-.24-.6-.36-.92-.8-.92-.519,0-7.679,4.68-7.958,5.319-.4.8-.44.92-.84.92-.679,0-1.679-3.2-1.679-3.479s.16-.36.439-.36c2.08,0,2.08-.24,2.08-1.96v-12c0-2.76,0-6.839-.64-6.839-.16,0-2.8,2.12-3.04,2.12-.08,0-.12,0-.12-.08,0-.04,1.08-1.4,1.281-1.679a61.338,61.338,0,0,0,6.878-11.118c.2-.76.2-.84.52-.84.24,0,3.119,1.4,3.119,2.239a.6.6,0,0,1-.359.52c-.24.12-.4.2-.4.4s0,.2,1.2.68c.759.28,4.678,1.879,4.678,4.759a1.314,1.314,0,0,1-1.319,1.48c-.4,0-.92-.12-1.68-1.72-.719-1.519-3.159-4.439-3.679-4.439-.32,0-.52.28-.72.56a53.53,53.53,0,0,1-5.279,6.118c-.121.08-.2.161-.2.281s.079.16,1,.639c1.2.6,1.321.68,1.88.68,1.16,0,1.2-.359,1.2-1.2a8.678,8.678,0,0,0-.2-2.4c-.04-.2-.32-.96-.32-1.12,0-.08.08-.2.4-.2s3.4.44,3.4,1.4c0,.12-.441.6-.52.72-.16.319-.16.48-.16,1.64,0,.559,0,1.159.84,1.159.88,0,1,0,1.319-.319.72-.84.96-1.08,1.28-1.08.28,0,2.16,1.16,2.16,1.879,0,.24-.68,1.12-.76,1.32a10.107,10.107,0,0,0-.12,1.96c0,1.08.12,6,.12,6.959,0,.76,0,2.159-1.68,2.159-.88,0-.96-.48-1.04-1.159-.12-.68-.8-.68-1.08-.68Zm4.6-6.239c1.04,0,1.04-.56,1.04-1.44,0-1.92,0-2.32-1.04-2.32h-4.6c-1.04,0-1.04.6-1.04,1.44,0,1.959,0,2.32,1.04,2.32Zm-.08,5.159c1.04,0,1.12,0,1.12-3.16,0-.92-.6-.92-1.04-.92h-4.6c-1.04,0-1.04.36-1.04,1.56,0,2.28,0,2.52,1.04,2.52Zm19-12.158a1.119,1.119,0,0,0,1.2-.64c.56-.92.6-1.04.88-1.04.32,0,3.919,1.92,3.919,2.84,0,.8-.439.84-2.639,1.119a4.682,4.682,0,0,0-2.64,1.28c-.08.04-.48.32-.52.32s-.08,0-.08-.04c0-.2.56-1.839.56-2.2,0-.6-.4-.6-.76-.6h-3.439c-.56,0-1.079.04-1.079,1,0,12.118,9,20.037,9.437,20.4.28.24,1.76,1.28,1.76,1.48,0,.12-.68.24-.72.24a7.037,7.037,0,0,0-2.4.8,3.924,3.924,0,0,1-.88.519c-.8,0-5.44-5.519-7.439-17.276-.04-.121-.12-.641-.24-.641-.16,0-.2.361-.24.76-.6,4.839-2.359,13.038-10.158,16.558a7.526,7.526,0,0,1-2.839.76c-.16,0-.2,0-.2-.121a4.181,4.181,0,0,1,.88-.559c2.119-1.08,6.318-3.24,8.438-10.479a45.081,45.081,0,0,0,1.68-12.118c0-.72,0-1.319-.92-1.319s-1,.12-1.76,1.239a32.661,32.661,0,0,1-3.279,4.2.106.106,0,0,1-.12-.12c0-.24,1.24-2.92,1.479-3.479.88-2.241,3.359-9.039,3.359-11.279,0-1.16,0-1.36.521-1.36.56,0,3.879,1.6,3.879,2.24,0,.32-.12.4-.84.84-.479.32-3.2,6.239-3.2,6.239,0,.44.439.44.68.44Z" transform="translate(5039.364 938.64)" fill="#4d4d4d"/>
  <path id="パス_2060" data-name="パス 2060" d="M-4529.642-923.279c-.521,0-2.2,1.44-2.84,2-.52.48-2.04,1.84-3.079,1.84-1.481,0-2.6-2.84-2.6-2.96,0-.239.08-.4.319-.4s1.161.161,1.361.161c1.279,0,1.76-.08,4.159-1.6a6.87,6.87,0,0,1,3.839-1.319c2.639,0,3.239,1.8,3.239,2.4,0,.84-.359,1.32-2.439,3.24a36.362,36.362,0,0,0-5.879,8.118c0,.2.28.241.4.241.52,0,2.76-.04,3.239,0a32.345,32.345,0,0,1,7.559,1.6,1.593,1.593,0,0,0,.64.16c.52,0,.759-3.279.759-3.679,0-.321-.239-2.08-.239-2.24,0-.24.279-.24.44-.24.12,0,3.6.64,3.6,2.2a8.625,8.625,0,0,1-.88,1.56c0,.08-.559,3.279-.559,3.4,0,.52.239.64.92,1,1.559.839,5.2,2.719,5.2,4.8a1.549,1.549,0,0,1-1.481,1.52c-.8,0-1.239-.32-4.039-2.72-.08-.04-1.24-1.04-1.639-1.04-.321,0-.441.28-.56.481a17.262,17.262,0,0,1-7.839,7.4,14.758,14.758,0,0,1-4.319,1.6c-.04,0-.32,0-.32-.121a6.339,6.339,0,0,1,.759-.559c3.96-2.72,5.919-4.319,8.24-7.919a7.368,7.368,0,0,0,1.2-2.279c0-.36,0-.56-2.2-1.64a17.323,17.323,0,0,0-7.36-1.8c-2.479,0-2.559.16-3.239,1.6-3.439,7.319-4.119,8.8-6.639,8.8-2.04,0-2.639-2.2-2.639-3.2,0-3.4,3.559-6.439,7.758-7.919a1.445,1.445,0,0,0,1-.8c.92-1.48,5.919-9.039,6.12-9.4a5.652,5.652,0,0,0,.519-1.8A.515.515,0,0,0-4529.642-923.279Zm-13.4,19.277c0,.68.321,1.16,1.04,1.16,2.2,0,4.8-5.879,4.8-6.039,0-.12-.04-.2-.16-.2C-4538.8-909.081-4543.041-906.361-4543.041-904Z" transform="translate(5039.364 938.64)" fill="#4d4d4d"/>
  <path id="パス_2061" data-name="パス 2061" d="M-4497.822-919.959c-.919,0-3.679,0-5.079.08a6.043,6.043,0,0,1-.84.119c-.119,0-.2-.119-.359-.279l-.76-.92c-.16-.16-.16-.2-.16-.24a.106.106,0,0,1,.12-.12c.279,0,1.519.12,1.8.16,1.8.08,3.6.12,5.478.12h7.839c1.16,0,1.16-.52,1.16-2.8a25.126,25.126,0,0,0-.2-3.679c-.04-.24-.28-1.2-.28-1.4,0-.24.28-.24.44-.24s4.239.84,4.239,1.76c0,.4-.08.44-.759,1.08-.521.44-.561,1.479-.561,2.12,0,3,.24,3.159,1.28,3.159h7.959c1.48,0,1.879,0,2.4-.6.239-.36,1.279-2.24,1.679-2.24.6,0,3.8,2.76,3.8,3.32,0,.6-.759.6-2.119.6H-4488.7c-.44,0-.6,0-.6.16,0,.28.16.28,1.719.52.6.08,1.76.32,1.76.88,0,.32-1.119,1.319-1.239,1.6a11.052,11.052,0,0,0-.64,2.92c0,.8.84.8,1,.8h8.839a1.9,1.9,0,0,0,1.68-.6,4.723,4.723,0,0,1,.92-.8c.2,0,3.479,2,3.479,2.559,0,.321-1.04,1.241-1.16,1.48-.44.8-.96,4.8-1.119,5.6-1.24,5.719-2.48,7.839-3.72,9.279a7.906,7.906,0,0,1-4.6,2.639c-.479,0-.479-.28-.479-.639,0-1.72-2.08-3-3.319-3.64-.92-.48-1.04-.52-1.04-.64,0-.08.04-.32.4-.32a6.765,6.765,0,0,1,1.64.44,12.075,12.075,0,0,0,3.159.52c1.68,0,3.519-1,4.8-6.279a41.005,41.005,0,0,0,1.04-7.479c0-1.04-.68-1.04-1.28-1.04h-9.4c-1.12,0-1.2.2-1.68,2.28-3.12,13-13.318,15.478-13.838,15.478-.12,0-.36,0-.36-.121,0-.159.48-.439.96-.679a23.725,23.725,0,0,0,8.6-9.638,37.569,37.569,0,0,0,2.92-12.639c0-2.639-.681-2.639-1.481-2.639Z" transform="translate(5039.364 938.64)" fill="#4d4d4d"/>
  <g id="グループ_538" data-name="グループ 538" transform="translate(-798.415 -1633.393)">
    <path id="パス_2251" data-name="パス 2251" d="M1092.671,1654.331c0,1.3-3,2.49-3.952,2.885-.553.2-.593.356-.671,1.739-.08.87-.08,4.071-.08,4.269,0,.238,0,.713.355.713.119,0,3.36-1.345,3.993-1.582,3.913-1.462,5.691-1.581,6.719-1.581a6.052,6.052,0,0,1,6.088,5.969c0,5.217-5.495,7.59-8.736,7.59-2.253,0-4.071-1.146-4.071-3.2a3.521,3.521,0,0,1,1.976-3.122.213.213,0,0,1,.2.2c0,.119-.08.2-.158.316a1.636,1.636,0,0,0-.355,1.067c0,1.9,2.174,1.9,2.569,1.9,2.61,0,5.93-1.739,5.93-4.9a4.1,4.1,0,0,0-3.794-4.349c-1.108,0-3.558.515-8.184,2.965-2.212,1.186-2.449,1.3-2.449,1.976,0,.435.117,2.214.117,2.609,0,1.818-.593,4.428-2.016,4.428-1.067,0-1.5-.83-1.818-1.462-1.266-2.452-1.462-2.452-1.976-2.452a3.284,3.284,0,0,0-.988.237,7.784,7.784,0,0,1-1.5.791c-.434,0-2.449-1.186-2.449-2.49,0-.711.434-1.541,1.145-1.541.237,0,1.385.2,1.622.2,1.066,0,1.779-.2,4.109-1.344,2.017-.988,2.254-1.107,2.254-2.214,0-.91-.04-4.27-.079-4.942,0-.277-.119-.87-.553-.87a9.244,9.244,0,0,0-1.818.356c-2.017.672-2.213.751-2.807.751-1.343,0-2.844-2.727-2.844-3a.279.279,0,0,1,.315-.277c.119,0,.593.158.711.158a11.49,11.49,0,0,0,1.818.2,17.266,17.266,0,0,0,5.021-1.186,29.573,29.573,0,0,0,.4-4.308,3.882,3.882,0,0,0-1.3-3.163,3.957,3.957,0,0,1-.553-.632c0-.356.633-.435.87-.435,2.648,0,4.072,1.937,4.072,2.688a15.885,15.885,0,0,1-.831,2.056,21.094,21.094,0,0,0-.394,2.569c0,.158.078.435.315.435.277,0,1.385-.435,1.385-.988,0-.079-.2-.474-.2-.553,0-.04.078-.119.157-.158C1090.775,1652.552,1092.671,1653.106,1092.671,1654.331Zm-9.012,15.139c0,.593,1.067,1.858,1.66,1.858.553,0,1.107-1.107,1.107-3.043,0-.158,0-.553-.119-.632C1086.189,1667.651,1083.66,1668.916,1083.66,1669.47Zm25.97-12.293c0,.83-.474,1.9-1.3,1.9-.237,0-1.146-.079-1.344-.079-.2.04-1.028.277-1.187.277a.184.184,0,0,1-.2-.2,2.719,2.719,0,0,1,.119-.316,2.107,2.107,0,0,0,.158-.711c0-1.581-1.976-2.134-3.321-2.134a3.435,3.435,0,0,0-1.542.4.883.883,0,0,1-.4.119c-.119,0-.158-.039-.158-.158a5.057,5.057,0,0,1,4.27-2.49C1107.772,1653.777,1109.629,1655.358,1109.629,1657.177Z" transform="translate(0 0.154)" fill="#4d4d4d"/>
    <path id="パス_2252" data-name="パス 2252" d="M1122.734,1653.718a5.418,5.418,0,0,1-.474,1.581,13.959,13.959,0,0,0-.949,5.1c0,3.993,2.055,6.878,3.28,6.878.673,0,.83-.2,2.016-2.174.237-.4.91-1.344,1.225-1.344.12,0,.2.158.2.316a4.624,4.624,0,0,1-.12.79,11.137,11.137,0,0,0-.514,3,5.373,5.373,0,0,0,.237,1.581,9.787,9.787,0,0,1,.317,1.3c0,.791-.831,1.225-1.5,1.225-2.53,0-7.509-4.15-7.509-11.7,0-1.107.552-5.968.552-7a10.924,10.924,0,0,0-.277-2.294,5.368,5.368,0,0,1-.315-1.344c0-.119.158-.158.237-.158C1120.955,1649.488,1122.734,1652.651,1122.734,1653.718Zm19.289.909a9.834,9.834,0,0,1,3.519,7.55c0,.751-.079,2.609-1.976,2.609-1.937,0-1.937-2.135-1.937-2.648,0-3.281,0-4.942-2.1-7.036-.316-.316-1.9-1.541-1.9-1.778,0-.119.157-.2.355-.2A7.689,7.689,0,0,1,1142.023,1654.627Z" transform="translate(5.362 0.529)" fill="#4d4d4d"/>
    <path id="パス_2253" data-name="パス 2253" d="M1163.484,1649.5a18.2,18.2,0,0,1-.751,2.214,95.034,95.034,0,0,0-1.66,14.072c0,3.992.751,7.55,6.047,7.55a19.475,19.475,0,0,0,8.3-2.056c.593-.277,3.6-1.937,3.755-1.937a.185.185,0,0,1,.2.2c0,.435-5.851,6.8-13.282,6.8-5.139,0-7.59-2.965-7.59-10.91,0-2.45.08-3.242.909-10.989.159-1.3.514-4.546.514-5.653a4.974,4.974,0,0,0-.355-1.937c-.04-.119-.435-1.028-.435-1.067,0-.277.315-.4.552-.4C1161.745,1645.393,1163.484,1648.594,1163.484,1649.5Z" transform="translate(10.481)" fill="#4d4d4d"/>
    <path id="パス_2254" data-name="パス 2254" d="M1194.373,1653.718a5.4,5.4,0,0,1-.475,1.581,13.984,13.984,0,0,0-.949,5.1c0,3.993,2.057,6.878,3.282,6.878.672,0,.83-.2,2.016-2.174.237-.4.909-1.344,1.225-1.344.119,0,.2.158.2.316a4.747,4.747,0,0,1-.12.79,11.093,11.093,0,0,0-.514,3,5.332,5.332,0,0,0,.237,1.581,9.921,9.921,0,0,1,.316,1.3c0,.791-.83,1.225-1.5,1.225-2.53,0-7.51-4.15-7.51-11.7,0-1.107.552-5.968.552-7a11.005,11.005,0,0,0-.277-2.294,5.365,5.365,0,0,1-.315-1.344c0-.119.157-.158.237-.158C1192.594,1649.488,1194.373,1652.651,1194.373,1653.718Zm19.289.909a9.837,9.837,0,0,1,3.518,7.55c0,.751-.078,2.609-1.976,2.609-1.935,0-1.935-2.135-1.935-2.648,0-3.281,0-4.942-2.1-7.036-.316-.316-1.9-1.541-1.9-1.778,0-.119.158-.2.356-.2A7.692,7.692,0,0,1,1213.662,1654.627Z" transform="translate(14.622 0.529)" fill="#4d4d4d"/>
  </g>
</svg>
