<svg id="lineup_reset_howto_sp" xmlns="http://www.w3.org/2000/svg" width="594" height="55" viewBox="0 0 594 55">
  <rect id="長方形_50" data-name="長方形 50" width="594" height="55" fill="#fff100" opacity="0"/>
  <g id="グループ_481" data-name="グループ 481" transform="translate(5047.803 851.454)">
    <path id="パス_2062" data-name="パス 2062" d="M-5021.572-837.132c.96,0,3.159,1.4,3.159,2.08,0,.2-.08,1.12-.08,1.32,0,4.639.08,8.238.12,9.2.04.48.24,2.48.24,2.88,0,1.04-.92,2.04-1.52,2.04-.88,0-1.8-2.12-1.8-3.16,0-.32.2-1.68.2-2,.08-1.8.08-3.36.08-4.08,0-4.479-.2-5.4-1.439-6.839-.32-.36-.521-.6-.521-.92C-5023.133-836.891-5022.492-837.132-5021.572-837.132Zm11-1.119c-.48-.64-.52-.721-.52-.8,0-.12,0-.24,1.16-.24,2.4,0,4.4,1,4.4,2.039a15.47,15.47,0,0,1-.4,1.6c-.159,1.08-.2,7.079-.32,8.479a25.3,25.3,0,0,1-10,18.557c-1.159.92-3.159,2.359-3.6,2.359-.16,0-.241-.08-.241-.2,0-.16,2.6-2.719,3.08-3.239,7.718-8.238,8-15.2,8-23.2C-5009.014-836.012-5009.734-837.052-5010.574-838.251Z" fill="#4d4d4d"/>
    <path id="パス_2063" data-name="パス 2063" d="M-4986.9-826.134a8.871,8.871,0,0,0,1.48.12c1.6,0,2.28-.2,8.359-1.8,1.08-.28,1.159-.6,1.159-2.72,0-4.319-.48-5-1.439-6.439a7.759,7.759,0,0,1-.48-.759c0-.361,1.48-.68,1.84-.68.479,0,.919.2,2.759,1.759.12.12.84.8.84,1.2a12.151,12.151,0,0,1-.76,1.8,33.466,33.466,0,0,0-.6,3.839.706.706,0,0,0,.8.76,48.634,48.634,0,0,0,6-1.679,11.3,11.3,0,0,1,1.72-.84c1.08,0,5.359,3.079,5.359,4.719,0,.28-.2.6-.72.6-.16,0-.92-.08-1.08-.08-.84,0-1.28.279-2.719,1.159a33.212,33.212,0,0,1-3,1.8.231.231,0,0,1-.24-.24c0-.04.68-1.159.76-1.319a6.854,6.854,0,0,0,1.12-3.32c0-.24-.04-.8-.48-.8-.08,0-6.079,1.96-6.6,2.12a1.5,1.5,0,0,0-1.24,1.719c0,3.36,0,6.959.08,7.719.32,3.16,2.559,3.52,4.959,3.52a33.882,33.882,0,0,0,4.4-.4,15.078,15.078,0,0,1,3.32-.56,1.549,1.549,0,0,1,1.679,1.28c0,2.559-6.718,2.559-8.878,2.559-6.919,0-7.758-1.8-7.758-8.439,0-.8.08-4.279.08-4.959,0-.64-.241-.919-.8-.919a29.109,29.109,0,0,0-3.76,1.119c-2.359,1.24-2.6,1.36-3.479,1.36-2.039,0-3.64-3.04-3.64-3.2,0-.119.16-.159.24-.159A2.35,2.35,0,0,1-4986.9-826.134Z" fill="#4d4d4d"/>
    <path id="パス_2064" data-name="パス 2064" d="M-4937.352-820.494a1.454,1.454,0,0,1-1.361,1.519c-.88,0-1.159-.919-1.439-1.8a14.293,14.293,0,0,0-2.319-4.039c-.2-.281-.281-.4-.281-.521,0-.239.241-.359.521-.359C-4941.272-825.693-4937.352-823.694-4937.352-820.494Zm12.357-8.239a2.55,2.55,0,0,1-.08-.36.272.272,0,0,1,.28-.28,8.87,8.87,0,0,1,1.8,1c.64.32,2.239,1.28,2.239,2.44,0,.32-.159.36-.839.759a32.61,32.61,0,0,0-2.04,3.44c-6.119,10.158-15.958,14.117-16.277,14.117a.257.257,0,0,1-.24-.239,17.051,17.051,0,0,1,2.239-1.68c8.519-6.519,13.2-14.038,13.2-17.478A4.05,4.05,0,0,0-4925-828.733Zm-6.238,3.88c0,1.159-.641,2.039-1.361,2.039-.879,0-1.08-1-1.2-1.68a12.557,12.557,0,0,0-1.48-3.8,4.514,4.514,0,0,1-.44-.88c0-.12.2-.24.4-.2A5.068,5.068,0,0,1-4931.233-824.853Z" fill="#4d4d4d"/>
    <path id="パス_2065" data-name="パス 2065" d="M-4899.674-839.011c1.441,0,4.32,1.28,4.32,2.559a11.583,11.583,0,0,1-.48,1.68,51.814,51.814,0,0,0-.36,5.559c0,.88.16,1,1.32,1.28,2.44.56,8.639,3.479,8.639,6.479a1.369,1.369,0,0,1-1.441,1.4c-1,0-1.119-.16-3.8-3.639-1.12-1.48-3-3.359-4.24-3.359-.4,0-.56,0-.56,2.959,0,4.24.04,6.359.2,9.958.04.441.08,1.44.08,2.04,0,1,0,3.64-1.159,3.64-1.2,0-2.24-2.72-2.24-3.76,0-.16.16-1,.16-1.16a82.81,82.81,0,0,0,.36-9.278c0-11.438,0-12.718-.48-14a4.445,4.445,0,0,0-1.36-1.839l-.08-.16C-4900.753-839.011-4899.713-839.011-4899.674-839.011Z" fill="#4d4d4d"/>
    <path id="パス_2066" data-name="パス 2066" d="M-4843.719-826.933a35.208,35.208,0,0,0,9.678,3.159c.16,0,.84.12.84.28,0,.12-.56.28-.72.32a6.929,6.929,0,0,0-3.039,2.159c-.12.161-.56,1-.759,1-.241,0-8.919-4.2-12.838-10.6-.761-1.279-.88-1.4-1.161-1.4s-.36.08-1.24,1a47.523,47.523,0,0,1-11.838,9.319c-1.359.719-5.518,2.559-6.278,2.559-.12,0-.2-.08-.2-.12s4.279-2.679,4.638-2.919c5.4-3.4,11.119-9.518,11.679-12.518.04-.32.08-.44.36-.44.2,0,3.439,1.24,3.639,1.36.12.04.52.2.52.6a2.484,2.484,0,0,1-.159.56C-4850.517-832.013-4847.078-828.653-4843.719-826.933ZM-4863-836.891c-2.959,0-4.319.08-5.079.12-.12,0-.72.08-.84.08s-.2-.08-.359-.241l-.761-.919c-.159-.2-.159-.2-.159-.281s.04-.079.119-.079c.28,0,1.521.119,1.76.119,1.96.08,3.639.16,5.519.16h1.16c.84,0,1.08-.4,1.08-1.079a6.507,6.507,0,0,0-.32-2.12,6.025,6.025,0,0,1-.24-.8c0-.2.2-.28.439-.28.281,0,2.081.44,2.52.56,1.2.32,1.44.4,1.44.76,0,.24-.04.32-.6,1.04a.977.977,0,0,0-.28.72c0,.96.319,1.2,1.4,1.2h6.6c.36,0,1.2,0,1.2-1.079a16.61,16.61,0,0,0-.12-1.8c-.04-.2-.241-1.039-.241-1.2,0-.2.241-.28.441-.28.28,0,3,.64,3.439.76s.68.28.68.64c0,.24-.16.4-.6.72a1.282,1.282,0,0,0-.52,1.12c0,1.119.641,1.119,1.28,1.119h2.04c1.76,0,1.959,0,2.56-.679,1.119-1.32,1.239-1.48,1.6-1.48.24,0,3.719,2.119,3.719,2.639,0,.561-.8.561-2.119.561h-7.8c-1.24,0-1.24.639-1.24,1.6,0,.24.04,1.6.04,1.8,0,1.479-1.2,1.72-2.039,1.72-.92,0-1.08-.161-1.08-1.52v-2.76c-.12-.759-.6-.839-1.24-.839h-6.4c-.92,0-1.479,0-1.479,1.119,0,.4.12,2.16.12,2.52,0,.76-.12,1.119-.481,1.36a2.837,2.837,0,0,1-1.519.56c-.68,0-1-.44-1-1.24,0-.32.04-1.84.04-2.12,0-1.56,0-2.2-1.24-2.2Zm2.84,20.436a20.456,20.456,0,0,1,3.079,1.88.989.989,0,0,1,.32.6c0,.479-.32.56-1.28.8-.12.04-3.558,2.72-4.2,3.2-3.6,2.559-5.879,3.479-6.079,3.479a.127.127,0,0,1-.119-.12c0-.08,2.119-1.919,2.4-2.2,3.319-3.159,5.358-6.319,5.719-7.6A.241.241,0,0,1-4860.156-816.455Zm1.84-2.12c-3.12,0-4.279.04-5.079.12-.12,0-.721.08-.84.08s-.2-.08-.36-.24l-.76-.92c-.16-.2-.16-.2-.16-.279,0-.04.04-.08.12-.08.28,0,1.519.12,1.759.12,1.96.12,3.64.16,5.519.16h3c.4,0,1.2,0,1.2-1.08,0-.48-.24-3.72-.32-4.119,0-.08-.24-.481-.24-.56s.08-.24.4-.24c.279,0,3.079.6,3.48.72.559.12.759.479.759.679,0,.24-.08.321-.679.84-.561.48-.561.72-.561,1.92,0,1.439,0,1.84,1.2,1.84h1.76c1.76,0,1.959,0,2.56-.68,1.119-1.32,1.239-1.48,1.6-1.48.24,0,3.72,2.16,3.72,2.639,0,.56-.8.56-2.12.56h-7.559c-1.2,0-1.2.72-1.2,2,0,2.84,0,4.439.08,6.8.04.679.04,1.639.04,2.12,0,1.279-.32,2.039-2.04,2.039-.879,0-.959-.72-.959-1.4,0-.521.119-2.92.119-3.44.04-1.519.04-3,.04-4.839a24.51,24.51,0,0,0-.079-2.72c-.2-.56-.84-.56-1.16-.56Zm10.678,3.36c0-.12.2-.16.36-.16,1.479,0,10.6,2.52,10.6,5.839,0,1.279-.72,2.279-1.72,2.279-.76,0-.92-.2-2.159-2.039-1.88-2.84-4.64-4.479-6.879-5.76C-4847.478-815.056-4847.638-815.175-4847.638-815.215Z" fill="#4d4d4d"/>
    <path id="パス_2067" data-name="パス 2067" d="M-4805.233-835.452c0,.12.079.28.079.44a30.713,30.713,0,0,1,.4,4.32c0,2.679-.6,6.4-4.119,11.717-3.2,4.879-5.239,5.839-6.839,5.839-2.639,0-5-4.119-5-9a14.087,14.087,0,0,1,4.439-10.2,16.548,16.548,0,0,1,12.758-5.2,13.042,13.042,0,0,1,6.439,1.279,12.537,12.537,0,0,1,6.959,11.638,14.916,14.916,0,0,1-10.078,14.078,24.56,24.56,0,0,1-6.64,1.479c-.159,0-.4-.04-.4-.279,0-.12.08-.16,1.08-.56,4.159-1.64,12.838-5.079,12.838-15.037,0-1.56-.16-11.079-11.078-11.079C-4805.194-836.012-4805.233-835.692-4805.233-835.452Zm-13,12.278c0,2.6,1.04,6.159,3.479,6.159,1.159,0,2.119-.48,4.879-4.639,2.119-3.239,3.919-7.679,3.919-11.638,0-2.4-.159-2.6-.68-2.6C-4810.432-835.891-4818.231-830.732-4818.231-823.174Z" fill="#4d4d4d"/>
    <path id="パス_2072" data-name="パス 2072" d="M-4594.487-819.055c-1.04,0-1.04.6-1.04,1.08,0,.96.04,5.08.04,5.919,0,.24,0,.8.64.8.32,0,3.6-1.36,3.959-1.519a.872.872,0,0,0,.56-.721,7.966,7.966,0,0,0-1.28-2.479,8.274,8.274,0,0,1-.8-1.08c0-.04.08-.04.12-.04.76,0,5.879,2.4,5.879,5.679,0,1.12-.56,1.92-1.319,1.92-.72,0-.88-.4-1.52-1.88-.24-.6-.36-.92-.8-.92-.519,0-7.678,4.679-7.958,5.32-.4.8-.44.919-.839.919-.68,0-1.68-3.2-1.68-3.479s.16-.36.439-.36c2.08,0,2.08-.24,2.08-1.96v-12c0-2.759,0-6.838-.639-6.838-.16,0-2.8,2.119-3.04,2.119-.08,0-.12,0-.12-.08,0-.04,1.08-1.4,1.28-1.68a61.4,61.4,0,0,0,6.879-11.118c.2-.76.2-.84.519-.84.241,0,3.119,1.4,3.119,2.24a.6.6,0,0,1-.359.52c-.24.12-.4.2-.4.4s0,.2,1.2.68c.76.28,4.679,1.879,4.679,4.759a1.314,1.314,0,0,1-1.32,1.48c-.4,0-.92-.12-1.679-1.72-.72-1.52-3.16-4.439-3.68-4.439-.319,0-.52.279-.72.56a53.5,53.5,0,0,1-5.279,6.119c-.12.08-.2.159-.2.28s.079.159,1,.64c1.2.6,1.32.679,1.88.679,1.16,0,1.2-.36,1.2-1.2a8.674,8.674,0,0,0-.2-2.4c-.041-.2-.321-.96-.321-1.12,0-.08.08-.2.4-.2s3.4.44,3.4,1.4c0,.12-.44.6-.52.72-.16.32-.16.48-.16,1.639,0,.561,0,1.16.84,1.16.88,0,1,0,1.32-.32.719-.84.959-1.08,1.28-1.08.279,0,2.159,1.16,2.159,1.88,0,.24-.68,1.12-.76,1.32a10.108,10.108,0,0,0-.12,1.96c0,1.079.12,6,.12,6.959,0,.759,0,2.159-1.679,2.159-.88,0-.96-.48-1.041-1.16-.12-.68-.8-.68-1.08-.68Zm4.6-6.239c1.04,0,1.04-.559,1.04-1.439,0-1.92,0-2.32-1.04-2.32h-4.6c-1.04,0-1.04.6-1.04,1.44,0,1.96,0,2.319,1.04,2.319Zm-.081,5.159c1.041,0,1.121,0,1.121-3.159,0-.92-.6-.92-1.04-.92h-4.6c-1.04,0-1.04.36-1.04,1.56,0,2.28,0,2.519,1.04,2.519Zm19-12.157a1.119,1.119,0,0,0,1.2-.641c.559-.919.6-1.039.88-1.039.319,0,3.919,1.919,3.919,2.839,0,.8-.44.84-2.64,1.12a4.686,4.686,0,0,0-2.64,1.28c-.08.04-.479.32-.519.32s-.08,0-.08-.04c0-.2.559-1.84.559-2.2,0-.6-.4-.6-.76-.6h-3.439c-.56,0-1.079.04-1.079,1,0,12.118,9,20.037,9.437,20.4.281.24,1.76,1.28,1.76,1.48,0,.119-.68.239-.72.239a7.108,7.108,0,0,0-2.4.8,3.913,3.913,0,0,1-.88.521c-.8,0-5.439-5.52-7.438-17.278-.04-.12-.12-.639-.241-.639-.16,0-.2.359-.24.759-.6,4.839-2.359,13.038-10.158,16.557a7.518,7.518,0,0,1-2.839.76c-.16,0-.2,0-.2-.12a4.231,4.231,0,0,1,.88-.56c2.119-1.079,6.318-3.239,8.438-10.478a45.073,45.073,0,0,0,1.68-12.118c0-.72,0-1.32-.92-1.32s-1,.12-1.76,1.24a32.65,32.65,0,0,1-3.279,4.2.106.106,0,0,1-.12-.12c0-.241,1.24-2.92,1.479-3.48.88-2.239,3.36-9.038,3.36-11.278,0-1.159,0-1.36.52-1.36.56,0,3.879,1.6,3.879,2.24,0,.32-.12.4-.84.839-.479.321-3.2,6.24-3.2,6.24,0,.44.44.44.68.44Z" fill="#4d4d4d"/>
    <path id="パス_2073" data-name="パス 2073" d="M-4539.489-836.092c-.521,0-2.2,1.44-2.84,2-.519.48-2.04,1.84-3.079,1.84-1.48,0-2.6-2.84-2.6-2.96,0-.24.08-.4.32-.4s1.16.16,1.36.16c1.279,0,1.76-.08,4.159-1.6a6.872,6.872,0,0,1,3.839-1.319c2.64,0,3.239,1.8,3.239,2.4,0,.84-.359,1.32-2.439,3.24a36.353,36.353,0,0,0-5.879,8.118c0,.2.28.24.4.24.52,0,2.76-.04,3.24,0a32.341,32.341,0,0,1,7.558,1.6,1.6,1.6,0,0,0,.64.16c.52,0,.76-3.279.76-3.679,0-.32-.24-2.08-.24-2.24,0-.24.28-.24.44-.24.12,0,3.6.64,3.6,2.2a8.622,8.622,0,0,1-.88,1.559c0,.081-.56,3.28-.56,3.4,0,.52.239.639.92,1,1.56.84,5.2,2.72,5.2,4.8a1.549,1.549,0,0,1-1.48,1.52c-.8,0-1.24-.32-4.039-2.72-.08-.04-1.241-1.04-1.64-1.04-.32,0-.44.28-.56.48a17.261,17.261,0,0,1-7.838,7.4,14.753,14.753,0,0,1-4.32,1.6c-.04,0-.32,0-.32-.12a6.236,6.236,0,0,1,.76-.56c3.96-2.719,5.919-4.32,8.239-7.919a7.373,7.373,0,0,0,1.2-2.279c0-.36,0-.561-2.2-1.64a17.322,17.322,0,0,0-7.359-1.8c-2.48,0-2.56.16-3.24,1.6-3.439,7.319-4.119,8.8-6.638,8.8-2.04,0-2.64-2.2-2.64-3.2,0-3.4,3.56-6.439,7.759-7.919a1.447,1.447,0,0,0,1-.8c.92-1.479,5.919-9.038,6.119-9.4a5.652,5.652,0,0,0,.519-1.8A.516.516,0,0,0-4539.489-836.092Zm-13.4,19.277c0,.68.32,1.16,1.04,1.16,2.2,0,4.8-5.879,4.8-6.039,0-.12-.04-.2-.16-.2C-4548.648-821.894-4552.887-819.175-4552.887-816.815Z" fill="#4d4d4d"/>
    <path id="パス_2074" data-name="パス 2074" d="M-4507.669-832.772c-.919,0-3.678,0-5.079.08a6.039,6.039,0,0,1-.84.12c-.119,0-.2-.12-.359-.28l-.76-.92c-.16-.16-.16-.2-.16-.24a.106.106,0,0,1,.12-.12c.279,0,1.52.12,1.8.16,1.8.08,3.6.12,5.478.12h7.839c1.161,0,1.161-.52,1.161-2.8a25.112,25.112,0,0,0-.2-3.679c-.04-.24-.28-1.2-.28-1.4,0-.24.28-.24.44-.24s4.24.84,4.24,1.76c0,.4-.08.44-.76,1.08-.521.44-.561,1.48-.561,2.119,0,3,.241,3.16,1.281,3.16h7.959c1.479,0,1.879,0,2.4-.6.239-.36,1.279-2.239,1.68-2.239.6,0,3.8,2.759,3.8,3.319,0,.6-.76.6-2.12.6h-17.957c-.44,0-.6,0-.6.16,0,.28.159.28,1.719.519.6.08,1.759.321,1.759.88,0,.321-1.119,1.321-1.239,1.6a11.087,11.087,0,0,0-.64,2.92c0,.8.84.8,1,.8h8.839a1.9,1.9,0,0,0,1.68-.6,4.752,4.752,0,0,1,.92-.8c.2,0,3.479,2,3.479,2.56,0,.319-1.04,1.239-1.16,1.479-.439.8-.96,4.8-1.119,5.6-1.24,5.72-2.479,7.839-3.72,9.279a7.91,7.91,0,0,1-4.6,2.639c-.48,0-.48-.279-.48-.64,0-1.72-2.08-3-3.319-3.639-.92-.48-1.04-.52-1.04-.64,0-.08.04-.32.4-.32a6.753,6.753,0,0,1,1.64.44,12.081,12.081,0,0,0,3.159.52c1.68,0,3.52-1,4.8-6.279a41,41,0,0,0,1.04-7.479c0-1.039-.68-1.039-1.279-1.039h-9.4c-1.12,0-1.2.2-1.679,2.279-3.121,13-13.319,15.477-13.838,15.477-.12,0-.361,0-.361-.12,0-.16.481-.44.96-.679a23.713,23.713,0,0,0,8.6-9.639,37.573,37.573,0,0,0,2.92-12.638c0-2.639-.681-2.639-1.481-2.639Z" fill="#4d4d4d"/>
    <g id="グループ_536" data-name="グループ 536" transform="translate(-5847.218 -2484.847)">
      <path id="パス_2251" data-name="パス 2251" d="M1092.671,1654.331c0,1.3-3,2.49-3.952,2.885-.553.2-.593.356-.671,1.739-.08.87-.08,4.071-.08,4.269,0,.238,0,.713.355.713.119,0,3.36-1.345,3.993-1.582,3.913-1.462,5.691-1.581,6.719-1.581a6.052,6.052,0,0,1,6.088,5.969c0,5.217-5.495,7.59-8.736,7.59-2.253,0-4.071-1.146-4.071-3.2a3.521,3.521,0,0,1,1.976-3.122.213.213,0,0,1,.2.2c0,.119-.08.2-.158.316a1.636,1.636,0,0,0-.355,1.067c0,1.9,2.174,1.9,2.569,1.9,2.61,0,5.93-1.739,5.93-4.9a4.1,4.1,0,0,0-3.794-4.349c-1.108,0-3.558.515-8.184,2.965-2.212,1.186-2.449,1.3-2.449,1.976,0,.435.117,2.214.117,2.609,0,1.818-.593,4.428-2.016,4.428-1.067,0-1.5-.83-1.818-1.462-1.266-2.452-1.462-2.452-1.976-2.452a3.284,3.284,0,0,0-.988.237,7.784,7.784,0,0,1-1.5.791c-.434,0-2.449-1.186-2.449-2.49,0-.711.434-1.541,1.145-1.541.237,0,1.385.2,1.622.2,1.066,0,1.779-.2,4.109-1.344,2.017-.988,2.254-1.107,2.254-2.214,0-.91-.04-4.27-.079-4.942,0-.277-.119-.87-.553-.87a9.244,9.244,0,0,0-1.818.356c-2.017.672-2.213.751-2.807.751-1.343,0-2.844-2.727-2.844-3a.279.279,0,0,1,.315-.277c.119,0,.593.158.711.158a11.49,11.49,0,0,0,1.818.2,17.266,17.266,0,0,0,5.021-1.186,29.573,29.573,0,0,0,.4-4.308,3.882,3.882,0,0,0-1.3-3.163,3.957,3.957,0,0,1-.553-.632c0-.356.633-.435.87-.435,2.648,0,4.072,1.937,4.072,2.688a15.885,15.885,0,0,1-.831,2.056,21.094,21.094,0,0,0-.394,2.569c0,.158.078.435.315.435.277,0,1.385-.435,1.385-.988,0-.079-.2-.474-.2-.553,0-.04.078-.119.157-.158C1090.775,1652.552,1092.671,1653.106,1092.671,1654.331Zm-9.012,15.139c0,.593,1.067,1.858,1.66,1.858.553,0,1.107-1.107,1.107-3.043,0-.158,0-.553-.119-.632C1086.189,1667.651,1083.66,1668.916,1083.66,1669.47Zm25.97-12.293c0,.83-.474,1.9-1.3,1.9-.237,0-1.146-.079-1.344-.079-.2.04-1.028.277-1.187.277a.184.184,0,0,1-.2-.2,2.719,2.719,0,0,1,.119-.316,2.107,2.107,0,0,0,.158-.711c0-1.581-1.976-2.134-3.321-2.134a3.435,3.435,0,0,0-1.542.4.883.883,0,0,1-.4.119c-.119,0-.158-.039-.158-.158a5.057,5.057,0,0,1,4.27-2.49C1107.772,1653.777,1109.629,1655.358,1109.629,1657.177Z" transform="translate(0 0.154)" fill="#4d4d4d"/>
      <path id="パス_2252" data-name="パス 2252" d="M1122.734,1653.718a5.418,5.418,0,0,1-.474,1.581,13.959,13.959,0,0,0-.949,5.1c0,3.993,2.055,6.878,3.28,6.878.673,0,.83-.2,2.016-2.174.237-.4.91-1.344,1.225-1.344.12,0,.2.158.2.316a4.624,4.624,0,0,1-.12.79,11.137,11.137,0,0,0-.514,3,5.373,5.373,0,0,0,.237,1.581,9.787,9.787,0,0,1,.317,1.3c0,.791-.831,1.225-1.5,1.225-2.53,0-7.509-4.15-7.509-11.7,0-1.107.552-5.968.552-7a10.924,10.924,0,0,0-.277-2.294,5.368,5.368,0,0,1-.315-1.344c0-.119.158-.158.237-.158C1120.955,1649.488,1122.734,1652.651,1122.734,1653.718Zm19.289.909a9.834,9.834,0,0,1,3.519,7.55c0,.751-.079,2.609-1.976,2.609-1.937,0-1.937-2.135-1.937-2.648,0-3.281,0-4.942-2.1-7.036-.316-.316-1.9-1.541-1.9-1.778,0-.119.157-.2.355-.2A7.689,7.689,0,0,1,1142.023,1654.627Z" transform="translate(5.362 0.529)" fill="#4d4d4d"/>
      <path id="パス_2253" data-name="パス 2253" d="M1163.484,1649.5a18.2,18.2,0,0,1-.751,2.214,95.034,95.034,0,0,0-1.66,14.072c0,3.992.751,7.55,6.047,7.55a19.475,19.475,0,0,0,8.3-2.056c.593-.277,3.6-1.937,3.755-1.937a.185.185,0,0,1,.2.2c0,.435-5.851,6.8-13.282,6.8-5.139,0-7.59-2.965-7.59-10.91,0-2.45.08-3.242.909-10.989.159-1.3.514-4.546.514-5.653a4.974,4.974,0,0,0-.355-1.937c-.04-.119-.435-1.028-.435-1.067,0-.277.315-.4.552-.4C1161.745,1645.393,1163.484,1648.594,1163.484,1649.5Z" transform="translate(10.481)" fill="#4d4d4d"/>
      <path id="パス_2254" data-name="パス 2254" d="M1194.373,1653.718a5.4,5.4,0,0,1-.475,1.581,13.984,13.984,0,0,0-.949,5.1c0,3.993,2.057,6.878,3.282,6.878.672,0,.83-.2,2.016-2.174.237-.4.909-1.344,1.225-1.344.119,0,.2.158.2.316a4.747,4.747,0,0,1-.12.79,11.093,11.093,0,0,0-.514,3,5.332,5.332,0,0,0,.237,1.581,9.921,9.921,0,0,1,.316,1.3c0,.791-.83,1.225-1.5,1.225-2.53,0-7.51-4.15-7.51-11.7,0-1.107.552-5.968.552-7a11.005,11.005,0,0,0-.277-2.294,5.365,5.365,0,0,1-.315-1.344c0-.119.157-.158.237-.158C1192.594,1649.488,1194.373,1652.651,1194.373,1653.718Zm19.289.909a9.837,9.837,0,0,1,3.518,7.55c0,.751-.078,2.609-1.976,2.609-1.935,0-1.935-2.135-1.935-2.648,0-3.281,0-4.942-2.1-7.036-.316-.316-1.9-1.541-1.9-1.778,0-.119.158-.2.356-.2A7.692,7.692,0,0,1,1213.662,1654.627Z" transform="translate(14.622 0.529)" fill="#4d4d4d"/>
    </g>
  </g>
</svg>
