<svg id="lineup_warm_name_sp" xmlns="http://www.w3.org/2000/svg" width="750" height="230" viewBox="0 0 750 230">
  <rect id="長方形_41" data-name="長方形 41" width="750" height="230" fill="#fff279" opacity="0"/>
  <g id="グループ_441" data-name="グループ 441" transform="translate(5972.049 1095.452)">
    <g id="グループ_434" data-name="グループ 434">
      <g id="グループ_433" data-name="グループ 433">
        <path id="パス_1867" data-name="パス 1867" d="M-5730.506-1057.572c0-.11,0-.44.77-.44a22.639,22.639,0,0,1,4.894.879,29.946,29.946,0,0,0,3.41,1.045c1.265,0,2.694-2.309,4.014-4.454.551-.934,2.64-4.564,2.64-5.994a.681.681,0,0,0-.715-.769c-.33,0-9.623,2.2-11.713,2.968a23.3,23.3,0,0,1-2.805,1.156,5.72,5.72,0,0,1-3.959-2.8,10.728,10.728,0,0,1-1.32-2.859c0-.165.11-.385.275-.385.11,0,1.54.6,1.705.659a7.09,7.09,0,0,0,2.8.715c.77,0,15.068-2.089,16.223-3.025,1.32-1.045,1.43-1.154,1.925-1.154.99,0,3.574,1.98,4.4,2.64a1.86,1.86,0,0,1,.66,1.429c0,.88-.165.99-1.76,1.98-1.1.715-1.429,1.21-4.289,5.72-.55.88-3.41,4.839-3.41,5.388,0,.495.275.606,2.75,1.87,3.08,1.54,8.359,5,8.359,7.974a1.5,1.5,0,0,1-1.485,1.705c-1.76,0-2.31-.495-7.094-5.114-.99-.936-3.684-3.19-4.784-3.19a2.752,2.752,0,0,0-1.87,1.1c-9.239,9.514-19.742,13.363-20.732,13.363a.3.3,0,0,1-.275-.275c0-.274,2.694-2.09,3.189-2.419a94.066,94.066,0,0,0,14.9-12.154c.385-.44.935-.99.825-1.6C-5723.192-1054.823-5730.506-1056.8-5730.506-1057.572Z" fill="#333"/>
        <path id="パス_1868" data-name="パス 1868" d="M-5665.92-1073.85c0-.55.77-.55,1.21-.55,3.849,0,5.115,2.86,5.115,3.08,0,.659-.55,1.375-1.65,2.749-.275.386-.44.605-.44.88,0,.44.66.44.88.44a31.134,31.134,0,0,0,8.359-2.2,10.3,10.3,0,0,1,2.584-.88c.495,0,.77.165,3.025,1.486.329.165,1.76.934,2.035,1.1a1.991,1.991,0,0,1,1.044,1.375c0,.77-.385.989-2.2,2.09-.6.385-.825.715-2.75,3.685a67.238,67.238,0,0,1-19.687,20.676c-6.05,3.96-10.614,5.28-10.944,5.28a.493.493,0,0,1-.5-.495c0-.22.165-.331,1.87-1.265,16.773-9.238,27.221-27.991,27.221-29.7a.6.6,0,0,0-.6-.605c-.111,0-7.7,1.705-9.019,1.705-.331,0-1.815-.165-2.145-.165-1.045,0-1.155.11-3.465,2.749-3.354,3.74-4.729,5.17-7.479,7.15-2.254,1.649-4.619,2.915-5.279,2.915-.275,0-.385-.165-.385-.33,0-.386,3.685-3.465,4.344-4.125,4.455-4.455,9.679-12.043,9.239-15.343C-5665.59-1072.421-5665.92-1073.63-5665.92-1073.85Z" fill="#333"/>
        <path id="パス_1869" data-name="パス 1869" d="M-5611.953-1068.406a78.563,78.563,0,0,0,16.993-2.034c.715-.165,3.629-1.375,4.289-1.375.44,0,4.565.825,4.565,2.694,0,1.21-1.43,1.486-3.52,1.651-5.939.549-9.073.824-9.513.989a.854.854,0,0,0-.551.66c0,.6.88,1.375,1.045,1.54.77.715,1.045.935,1.045,1.375a18.172,18.172,0,0,1-1.045,2.364,5.374,5.374,0,0,0-.329,1.265c0,.715.439.99,1.154.99,1.485,0,9.019-1.21,10.669-1.54.55-.11,2.859-.66,3.354-.66.991,0,5.445,1.266,5.445,4.455a1.042,1.042,0,0,1-1.1.989c-.275,0-3.519-.659-4.18-.769a25.753,25.753,0,0,0-4.674-.385,54.442,54.442,0,0,0-10.449,1.154c-.714.33-.77,1.1-.77,2.2,0,7.04.826,7.864,1.485,8.524,1.87,1.925,6.82,2.09,7.424,2.09.715,0,3.96-.495,4.619-.495,1.155,0,3.52.99,3.52,2.42,0,2.144-4.509,2.144-6.214,2.144-1.484,0-6.434,0-10.5-1.7-3.079-1.266-3.684-3.52-3.684-7.2,0-.221.11-5.005.11-5.94s-.275-1.375-1.155-1.375a72.641,72.641,0,0,0-10.394,2.31,18.968,18.968,0,0,1-2.8.99c-1.375,0-5.445-3.024-5.445-4.29a.312.312,0,0,1,.33-.329c.275,0,2.09.22,2.475.22,2.475,0,13.144-1.486,15.893-2.035,1.045-.22,1.375-.6,1.375-1.925,0-3.19-.055-6.269-2.09-6.269-.6,0-4.784.715-4.949.715-1.21,0-3.96-2.309-3.96-3.3a.244.244,0,0,1,.165-.219A11.356,11.356,0,0,1-5611.953-1068.406Z" fill="#333"/>
        <path id="パス_1870" data-name="パス 1870" d="M-5549.059-1073.96c1.319,0,4.343,1.925,4.343,2.86,0,.275-.109,1.54-.109,1.814,0,6.38.109,11.329.165,12.649.055.66.329,3.41.329,3.96,0,1.429-1.264,2.8-2.089,2.8-1.21,0-2.474-2.915-2.474-4.345,0-.44.274-2.309.274-2.75.111-2.474.111-4.619.111-5.609,0-6.159-.276-7.424-1.98-9.4-.44-.495-.716-.825-.716-1.265C-5551.205-1073.63-5550.325-1073.96-5549.059-1073.96Zm15.123-1.54c-.66-.88-.715-.99-.715-1.1,0-.165,0-.33,1.595-.33,3.3,0,6.048,1.375,6.048,2.8a21.589,21.589,0,0,1-.549,2.2c-.22,1.486-.276,9.735-.441,11.66-.33,3.9-1.374,15.673-13.748,25.516-1.595,1.265-4.345,3.244-4.949,3.244-.22,0-.33-.11-.33-.275,0-.22,3.575-3.739,4.234-4.454,10.615-11.328,11-20.9,11-31.9C-5531.792-1072.421-5532.782-1073.85-5533.936-1075.5Z" fill="#333"/>
        <path id="パス_1871" data-name="パス 1871" d="M-5463-1059.937a48.5,48.5,0,0,0,13.308,4.344c.221,0,1.155.166,1.155.385,0,.165-.769.385-.99.441a9.511,9.511,0,0,0-4.179,2.969c-.165.22-.77,1.375-1.045,1.375-.33,0-12.263-5.774-17.653-14.573-1.045-1.76-1.209-1.925-1.595-1.925s-.5.11-1.7,1.375a65.394,65.394,0,0,1-16.278,12.813c-1.87.99-7.589,3.519-8.634,3.519-.165,0-.275-.109-.275-.165s5.885-3.684,6.38-4.013c7.423-4.675,15.288-13.089,16.057-17.213.055-.441.111-.606.5-.606.275,0,4.73,1.705,5,1.87.165.055.715.276.715.826a3.385,3.385,0,0,1-.22.769C-5472.353-1066.921-5467.624-1062.3-5463-1059.937Zm-26.506-13.693c-4.07,0-5.94.11-6.984.165-.165,0-.99.11-1.155.11s-.275-.11-.5-.33l-1.045-1.265c-.22-.274-.22-.274-.22-.385s.055-.11.165-.11c.385,0,2.09.165,2.42.165,2.694.11,5,.221,7.589.221h1.595c1.154,0,1.484-.551,1.484-1.486a8.942,8.942,0,0,0-.439-2.915,8.2,8.2,0,0,1-.33-1.1c0-.275.274-.385.6-.385.386,0,2.86.6,3.465.769,1.649.441,1.979.551,1.979,1.045,0,.33-.054.441-.824,1.43a1.346,1.346,0,0,0-.386.99c0,1.321.441,1.651,1.925,1.651h9.074c.5,0,1.65,0,1.65-1.486a22.774,22.774,0,0,0-.165-2.474c-.055-.276-.33-1.43-.33-1.65,0-.275.33-.385.6-.385.385,0,4.124.879,4.73,1.044s.934.386.934.88c0,.33-.219.551-.825.991a1.763,1.763,0,0,0-.715,1.54c0,1.54.88,1.54,1.76,1.54h2.8c2.42,0,2.7,0,3.519-.936,1.54-1.814,1.705-2.034,2.2-2.034.33,0,5.115,2.914,5.115,3.629,0,.77-1.1.77-2.915.77h-10.724c-1.7,0-1.7.88-1.7,2.2,0,.33.055,2.2.055,2.474,0,2.035-1.65,2.365-2.8,2.365-1.265,0-1.485-.22-1.485-2.089v-3.795c-.165-1.045-.825-1.155-1.705-1.155h-8.8c-1.265,0-2.036,0-2.036,1.539,0,.551.165,2.97.165,3.465,0,1.045-.165,1.54-.659,1.87a3.907,3.907,0,0,1-2.09.77c-.935,0-1.375-.6-1.375-1.705,0-.44.055-2.529.055-2.914,0-2.145,0-3.025-1.705-3.025Zm3.9,28.1a28.05,28.05,0,0,1,4.234,2.585,1.358,1.358,0,0,1,.441.825c0,.659-.441.77-1.76,1.1-.165.054-4.9,3.739-5.775,4.4-4.949,3.52-8.083,4.784-8.358,4.784a.176.176,0,0,1-.165-.165c0-.109,2.914-2.639,3.3-3.024,4.564-4.345,7.369-8.689,7.864-10.448A.327.327,0,0,1-5485.607-1045.529Zm2.53-2.914c-4.29,0-5.885.055-6.984.165-.165,0-.99.109-1.155.109s-.275-.109-.5-.33l-1.045-1.264c-.219-.275-.219-.275-.219-.385,0-.055.054-.111.164-.111.386,0,2.09.166,2.42.166,2.7.165,5,.22,7.589.22h4.125c.549,0,1.649,0,1.649-1.485,0-.66-.33-5.114-.439-5.664,0-.111-.331-.66-.331-.77s.11-.33.55-.33c.385,0,4.235.824,4.784.989.77.165,1.045.661,1.045.936,0,.33-.11.439-.934,1.154-.771.66-.771.991-.771,2.64,0,1.98,0,2.53,1.651,2.53h2.419c2.42,0,2.7,0,3.519-.935,1.54-1.815,1.705-2.035,2.2-2.035.33,0,5.115,2.97,5.115,3.629,0,.771-1.1.771-2.915.771h-10.394c-1.649,0-1.649.989-1.649,2.749,0,3.905,0,6.1.11,9.35.055.934.055,2.253.055,2.914,0,1.759-.441,2.8-2.8,2.8-1.21,0-1.319-.99-1.319-1.925,0-.714.164-4.014.164-4.729.055-2.09.055-4.124.055-6.654a33.384,33.384,0,0,0-.11-3.74c-.274-.769-1.154-.769-1.6-.769Zm14.683,4.619c0-.165.275-.22.5-.22,2.035,0,14.573,3.464,14.573,8.029,0,1.759-.99,3.134-2.365,3.134-1.045,0-1.265-.274-2.97-2.8-2.584-3.9-6.379-6.159-9.458-7.919C-5468.175-1043.6-5468.394-1043.769-5468.394-1043.824Z" fill="#333"/>
      </g>
    </g>
    <g id="グループ_436" data-name="グループ 436">
      <g id="グループ_435" data-name="グループ 435">
        <path id="パス_1872" data-name="パス 1872" d="M-5744.357-992.766c-.54,0-1.2-.18-1.2-.96,0-.96.99-.96,1.2-.96h4.53c1.2,0,1.2.81,1.2.96,0,.96-.87.96-1.2.96Z" fill="#333"/>
        <path id="パス_1873" data-name="パス 1873" d="M-5711.343-987.1c1.41,0,1.649-.06,1.859-.27.27-.27,1.35-1.83,1.71-1.83s3,2.13,3,2.52-.569.39-1.56.39H-5727c-.69,0-2.73,0-3.81.06a4.524,4.524,0,0,1-.63.09c-.089,0-.149-.09-.27-.21l-.569-.69c-.121-.12-.121-.15-.121-.181a.08.08,0,0,1,.091-.089c.21,0,1.139.089,1.349.12,1.35.06,2.7.09,4.11.09Zm-2.64-21.99c1.41,0,1.59,0,1.86-.269.27-.24,1.35-1.74,1.71-1.74s2.969,2.04,2.969,2.429-.569.391-1.529.391h-15.45c-.66,0-2.73,0-3.78.059a4.383,4.383,0,0,1-.63.09c-.12,0-.179-.09-.27-.21l-.57-.689c-.12-.12-.149-.151-.149-.21s.089-.061.12-.061c.21,0,1.139.09,1.319.12,1.38.061,2.73.09,4.11.09Zm-1.65,10.8c1.32,0,1.44,0,1.71-.24.24-.239,1.23-1.59,1.56-1.59.24,0,2.879,1.71,2.879,2.25,0,.36-.15.36-1.5.36h-11.25c-.69,0-2.73,0-3.78.09-.12,0-.539.06-.63.06-.12,0-.179-.06-.27-.18l-.6-.689c-.091-.12-.121-.151-.121-.21,0-.031.03-.061.121-.061.21,0,1.139.09,1.319.09,1.38.061,2.7.12,4.11.12Z" fill="#333"/>
        <path id="パス_1874" data-name="パス 1874" d="M-5690.487-988.806c0,2.82-1.379,4.38-2.789,4.38-.93,0-1.2-.84-1.2-1.44,0-.96.45-1.141,1.89-1.71a3.207,3.207,0,0,0,1.71-1.83c0-.03.119-.24.21-.24S-5690.487-989.406-5690.487-988.806Zm1.471-18.809c-.69,0-2.73,0-3.81.06a4.551,4.551,0,0,1-.63.089c-.09,0-.18-.089-.27-.21l-.57-.689c-.06-.091-.12-.15-.12-.181a.079.079,0,0,1,.09-.089c.18,0,.93.089,1.11.089.51.031,2.729.12,3.9.12a.76.76,0,0,0,.69-.78c0-.359-.029-.749-.059-1.05-.031-.179-.24-.9-.24-1.049,0-.36.419-.42.6-.42s2.579.48,2.579.99c0,.18-.09.3-.449.51-.331.21-.42.36-.42,1.2a.626.626,0,0,0,.69.6h.54a5.271,5.271,0,0,0,1.469-.089c.241-.12,1.05-1.29,1.32-1.29a3.454,3.454,0,0,1,1.77,1.74c0,.45-.57.45-1.619.45Zm3.719,7.98a1.846,1.846,0,0,0,.81-.151c.121-.059.57-.45.72-.45.12,0,1.89,1.23,1.89,1.65a.256.256,0,0,1-.21.27,8.285,8.285,0,0,1-.81.24c-.029.03-2.369,1.38-2.549,1.47-.69.39-.96.54-.96.84,0,.15.149.33.449.33.691,0,5.04-.9,5.04-.75,0,.42-4.17,1.65-4.889,1.86-.6.15-.6.57-.6,1.441,0,1.559-.09,1.949-.36,2.339a3.1,3.1,0,0,1-1.861,1.2.5.5,0,0,1-.3-.09c-.21-.18-.96-1.29-1.17-1.47-.121-.12-.9-.54-.9-.72,0-.06.18-.06.3-.06.209,0,1.26.03,1.47.03.929,0,.929-.15.929-1.62,0-.21-.239-.39-.509-.39-.09,0-2.911.51-3.15.6a3.31,3.31,0,0,1-.78.45c-.39,0-1.2-2.43-1.2-2.49,0-.09.03-.12.15-.12.18,0,.57.06.66.06a30.925,30.925,0,0,0,3.18.09c1.29,0,1.62-.18,1.62-.99,0-.18-.241-1.05-.241-1.26,0-.149.151-.18.3-.18.27,0,1.559.39,1.86.39.6,0,1.469-1.319,1.469-1.38,0-.33-.329-.33-.42-.33h-2.7c-.84,0-2.34,0-3.54.061-.09,0-.81.089-.871.089-.119,0-.179-.089-.269-.209l-.57-.691c-.12-.12-.12-.149-.12-.21s.06-.059.09-.059c.18,0,1.11.089,1.32.12.87.029,2.429.09,4.11.09Zm-.69-5.88a1.472,1.472,0,0,0,1.05-.33c.361-.361.48-.48.66-.48.27,0,1.621.69,1.621,1.23,0,.15-.48.719-.511.87v2.069c0,.66-.75.96-1.23.96-.42,0-.449-.09-.69-.449a.682.682,0,0,0-.66-.3h-4.139a.854.854,0,0,0-.84.42c-.241.511-.39.9-1.08.9a.8.8,0,0,1-.84-.6v-2.16c0-.42-.24-2.371-.24-2.52,0-.271.15-.391.45-.391a10.3,10.3,0,0,1,1.5.6,3.466,3.466,0,0,0,1.2.18Zm-4.049.809c-.75,0-.75.481-.75.99s0,.991.75.991h4.259c.721,0,.721-.481.721-.991s0-.99-.721-.99Zm3.96,15a3.36,3.36,0,0,1,2.339,2.88c0,.96-.419,1.98-1.439,1.98-.63,0-.811-.39-.811-.991a17.3,17.3,0,0,0-.12-2.969c-.029-.15-.239-.75-.179-.81C-5686.257-989.706-5686.136-989.706-5686.076-989.706Zm11.219-15.149a.824.824,0,0,0-.78.42c-.03.09-.27,2.189-.33,2.58-.03.239-.27,1.349-.27,1.59a1.082,1.082,0,0,0,.33.839,4,4,0,0,1,1.62,2.581c0,.479-.18,1.019-.63,1.019-.51,0-1.17-.96-1.53-1.53a.3.3,0,0,0-.3-.21c-.24,0-.36.24-.45.45a11.823,11.823,0,0,1-6.81,6.3c-.03,0-.089,0-.089-.06s.089-.15.179-.21a12.162,12.162,0,0,0,2.58-2.4,12.542,12.542,0,0,0,2.91-5.58.989.989,0,0,0-.12-.449,15.816,15.816,0,0,0-1.95-1.83c-.48-.361-.69-.51-.69-.571,0-.03.03-.03.12-.03a4.754,4.754,0,0,1,1.53.42c.9.48.99.54,1.11.54a.6.6,0,0,0,.54-.42c.03-.42.33-2.4.33-2.85a.621.621,0,0,0-.6-.6c-.33,0-2.19.149-2.46.149-.09,0-.15-.059-.27-.179l-.57-.691c-.12-.149-.12-.149-.12-.21s.06-.059.09-.059c.48,0,2.76.179,3.3.179a.779.779,0,0,0,.75-.75,29.617,29.617,0,0,0-.21-4.109,7.411,7.411,0,0,1-.27-.87c0-.21.12-.27.33-.27.3,0,2.55.57,2.67.6.21.09.48.24.48.51,0,.12-.06.21-.21.33-.06.06-.45.36-.54.42-.3.27-.39,3-.39,3.48a.659.659,0,0,0,.69.69h1.68a1.3,1.3,0,0,0,1.02-.361c.51-.569.57-.63.75-.63.33,0,1.77,1.17,1.77,1.651,0,.149-.09.24-.27.359a4.411,4.411,0,0,1-.51.3c-.48.359-.6,4.769-.6,5.4,0,1.77.36,4.62,1.02,4.62.48,0,1.38-3.06,1.62-4.259.03-.181.12-.271.18-.271.09,0,.09.15.09.21,0,.09-.42,3.3-.42,3.93,0,1.35.09,1.5.45,2.01a1.675,1.675,0,0,1,.3.81c0,.39-.3.75-1.05.75a3.485,3.485,0,0,1-2.46-1.44c-1.47-1.829-1.68-5.01-1.68-6.81,0-.9.12-2.819.24-3.779.03-.151.15-.931.15-1.111,0-.269-.15-.6-.78-.6Zm-1.53,18.629a1.457,1.457,0,0,1-1.32,1.5c-.69,0-.81-.51-1.05-1.98a5.791,5.791,0,0,0-.81-2.46c-.03-.03-.12-.18-.09-.24C-5679.477-989.706-5676.387-988.476-5676.387-986.226Zm8.04-.06a1.407,1.407,0,0,1-1.32,1.529c-.69,0-.75-.239-1.74-2.429a18.823,18.823,0,0,0-1.44-2.31.325.325,0,0,1-.06-.24C-5672.817-989.886-5668.347-988.836-5668.347-986.286Z" fill="#333"/>
        <path id="パス_1875" data-name="パス 1875" d="M-5649.491-986.106c-.33,0-.75,0-.871.51a1.509,1.509,0,0,1-1.709,1.29c-.78,0-.78-.42-.78-.661,0-.3.12-2.189.15-2.609.089-1.41.089-5.309.089-6.84,0-1.11,0-1.23-.27-1.23a7.237,7.237,0,0,0-.839.42,14.075,14.075,0,0,1-4.38,1.83c-.15,0-.21-.09-.21-.18,0-.15.12-.21,1.02-.69a31.161,31.161,0,0,0,8.34-7.2,6.829,6.829,0,0,0,.779-1.32c0-.239-.21-.269-.75-.269h-3.449c-.69,0-2.73.03-3.78.089-.12,0-.57.06-.66.06s-.15-.06-.24-.18l-.6-.689c-.12-.12-.12-.151-.12-.21,0-.03.03-.061.09-.061.21,0,1.14.09,1.35.12,1.35.06,2.7.09,4.11.09h.69c.359,0,.569,0,.569-.24,0-.09-.839-3.239-1.65-3.749-.3-.21-.509-.21-1.259-.27-1.23-.09-1.35-.09-1.35-.3s.089-.21,1.02-.33a105.477,105.477,0,0,0,15.059-2.58c.27-.06,1.5-.57,1.77-.57.6,0,2.55,2.01,2.55,2.31,0,.12-.12.269-.39.269-.12,0-.66-.089-.78-.089-.18,0-1.38.06-1.38.3,0,.12.72.63.81.691.66.42.75.51.75.809,0,.21-.03.21-.81.54a21.227,21.227,0,0,0-3.57,3.061c0,.149.09.149.48.149h2.64c1.02,0,1.17,0,1.74-.719.6-.72,1.08-1.321,1.29-1.321.27,0,3.06,2.1,3.06,2.491,0,.33-.9.33-1.77.33h-9.3c-.24,0-.36.03-.36.179s3.39,5.43,11.13,6.571c1.109.179,1.29.21,1.29.329,0,.21-.36.27-.6.33a3.383,3.383,0,0,0-2.1,1.56c-.15.3-.27.6-.51.6a2.642,2.642,0,0,1-1.41-.75c-.3-.24-.36-.27-.45-.27-.24,0-.54.3-.63.42-.54.54-.54,1.02-.54,2.1,0,.99.15,5.25.15,6.12,0,.51-.06.69-.33.87a2.785,2.785,0,0,1-1.41.51c-.57,0-.6-.21-.72-1.05-.06-.45-.51-.57-.87-.57Zm9.509-9.18a1.773,1.773,0,0,0,1.29-.36c.18-.15.72-.63.72-.869,0-.12-.03-.151-.42-.481a18.27,18.27,0,0,1-4.32-4.83,7.825,7.825,0,0,0-.54-.87c-.12,0-.12.061-.12.36-.03.72.03,4.111.03,4.89a1.411,1.411,0,0,1-.39,1.141,1.878,1.878,0,0,1-1.11.509c-.78,0-.78-.57-.78-.87,0-.69.24-4.11.24-4.889,0-.391,0-.571-.21-.571-.12,0-.66.6-.72.691a26.393,26.393,0,0,1-4.289,4.2c-.691.511-.781.57-.781.69s.09.18.75.69a2.034,2.034,0,0,0,1.65.57Zm-6.18-8.55c.48,0,.75-.179.81-.6.031-.12.031-.45.031-3.39,0-.33-.091-.6-.48-.6-.21,0-3.931.3-4.681.331-.63.03-.69.03-.69.15,0,.029.571.42.75.569a2.985,2.985,0,0,1,1.44,2.431c0,.119-.089.689-.089.81,0,.3.149.3.719.3Zm-3.45,9.33c-.9,0-.9.54-.9,1.32,0,1.68,0,2.01.9,2.01h3.21c.87,0,.87-.54.87-1.32,0-1.59,0-2.01-.9-2.01Zm0,4.11c-.87,0-.87.42-.87,1.8,0,1.32,0,1.71.9,1.71h3.15c.87,0,.9-.36.9-2.13,0-.84,0-1.38-.87-1.38Zm7.02-4.11c-.87,0-.87.42-.87,2.13,0,.66,0,1.2.87,1.2h3.36c.87,0,.87-.57.87-1.17,0-1.8-.06-2.16-.9-2.16Zm3.3,7.62c.87,0,.93-.3.93-2.1,0-.96,0-1.41-.93-1.41h-3.24c-.9,0-.9.48-.9,1.17,0,2.1,0,2.34.93,2.34Zm-2.67-16.95a1.208,1.208,0,0,0,1.2-.689c.63-1.021,1.89-3.21,1.89-4.2,0-.18-.06-.3-.27-.3-.15,0-1.35.12-2.58.24-1.41.119-1.56.15-1.65.39-.03.12-.03,2.37-.03,3.569,0,.54.03.99.9.99Z" fill="#333"/>
        <path id="パス_1876" data-name="パス 1876" d="M-5600.346-1000.236a26.447,26.447,0,0,0,7.26,2.37c.12,0,.63.09.63.21,0,.09-.42.21-.54.24a5.194,5.194,0,0,0-2.28,1.62c-.09.12-.42.75-.57.75-.18,0-6.69-3.15-9.63-7.95-.57-.96-.659-1.05-.87-1.05s-.27.061-.93.75a35.725,35.725,0,0,1-8.879,6.991,26.029,26.029,0,0,1-4.71,1.92c-.09,0-.15-.061-.15-.091s3.21-2.01,3.48-2.19c4.049-2.55,8.339-7.139,8.759-9.389.03-.241.06-.33.27-.33.15,0,2.581.929,2.73,1.019.09.03.39.15.39.45a1.867,1.867,0,0,1-.12.42C-5605.446-1004.046-5602.866-1001.526-5600.346-1000.236Zm-14.459-7.47c-2.22,0-3.24.061-3.81.091-.09,0-.54.06-.63.06s-.15-.06-.27-.18l-.57-.691c-.12-.149-.12-.149-.12-.209s.03-.06.09-.06c.21,0,1.14.09,1.32.09,1.47.059,2.73.12,4.14.12h.87c.63,0,.81-.3.81-.811a4.853,4.853,0,0,0-.241-1.589,4.71,4.71,0,0,1-.179-.6c0-.15.15-.21.329-.21.211,0,1.56.33,1.891.42.9.24,1.08.3,1.08.57,0,.18-.031.239-.451.779a.74.74,0,0,0-.21.541c0,.719.241.9,1.05.9h4.95c.27,0,.9,0,.9-.811a12.532,12.532,0,0,0-.09-1.349c-.03-.151-.18-.781-.18-.9,0-.149.18-.21.33-.21.21,0,2.25.481,2.58.571s.51.21.51.48c0,.18-.12.3-.45.54a.958.958,0,0,0-.39.84c0,.84.48.84.96.84h1.53c1.32,0,1.47,0,1.92-.51.84-.99.93-1.11,1.2-1.11.18,0,2.79,1.59,2.79,1.979,0,.42-.6.42-1.59.42h-5.85c-.93,0-.93.481-.93,1.2,0,.181.03,1.2.03,1.351,0,1.109-.9,1.289-1.53,1.289-.69,0-.81-.119-.81-1.14v-2.069c-.09-.57-.45-.631-.93-.631h-4.8c-.69,0-1.111,0-1.111.841,0,.3.091,1.619.091,1.89,0,.57-.091.84-.36,1.019a2.133,2.133,0,0,1-1.14.42c-.511,0-.75-.33-.75-.93,0-.24.029-1.379.029-1.589,0-1.17,0-1.651-.929-1.651Zm2.13,15.33a15.4,15.4,0,0,1,2.31,1.41.742.742,0,0,1,.239.45c0,.36-.239.42-.96.6-.089.03-2.67,2.04-3.15,2.4a18.426,18.426,0,0,1-4.559,2.61.1.1,0,0,1-.09-.09c0-.06,1.59-1.44,1.8-1.65a17.291,17.291,0,0,0,4.289-5.7A.184.184,0,0,1-5612.675-992.376Zm1.379-1.59c-2.339,0-3.21.03-3.809.09-.091,0-.54.06-.63.06s-.15-.06-.27-.18l-.57-.69c-.12-.15-.12-.15-.12-.21,0-.03.03-.06.09-.06.21,0,1.139.09,1.32.09,1.47.09,2.73.12,4.139.12h2.25c.3,0,.9,0,.9-.809,0-.361-.179-2.79-.24-3.09,0-.061-.18-.361-.18-.421s.06-.18.3-.18c.21,0,2.309.45,2.609.54.42.09.57.361.57.51,0,.181-.06.24-.51.63-.42.36-.42.54-.42,1.44,0,1.08,0,1.38.9,1.38h1.32c1.32,0,1.47,0,1.92-.51.84-.99.93-1.11,1.2-1.11.18,0,2.79,1.62,2.79,1.981,0,.419-.6.419-1.59.419H-5605c-.9,0-.9.54-.9,1.5,0,2.13,0,3.33.06,5.1.03.51.03,1.23.03,1.59,0,.96-.24,1.529-1.53,1.529-.66,0-.719-.539-.719-1.05,0-.389.089-2.189.089-2.579.03-1.14.03-2.25.03-3.63a18.16,18.16,0,0,0-.06-2.04c-.15-.42-.63-.42-.869-.42Zm8.01,2.52c0-.09.15-.12.27-.12,1.11,0,7.95,1.89,7.95,4.38,0,.96-.54,1.71-1.29,1.71-.57,0-.69-.151-1.62-1.531a14.26,14.26,0,0,0-5.16-4.319C-5603.166-991.326-5603.286-991.416-5603.286-991.446Z" fill="#333"/>
        <path id="パス_1877" data-name="パス 1877" d="M-5582.183-1005.185a7.091,7.091,0,0,0,2.49.63c1.229,0,10.019-.84,11.309-1.411.93-.419,1.05-.479,1.26-.479.66,0,1.14.42,2.07,1.229,1.35,1.2,1.53,1.531,1.53,1.951,0,.389-.151.54-.691,1.08a4.962,4.962,0,0,0-1.169,1.889c-4.709,9.78-15.179,13.98-15.48,13.98a.2.2,0,0,1-.21-.18c0-.12.091-.18.391-.39,5.219-3.66,9.449-7.62,11.849-11.879a16.944,16.944,0,0,0,2.04-5.071c0-.509-.51-.54-.66-.54-.3,0-8.97,1.441-10.8,2.16a10.858,10.858,0,0,1-1.5.661c-.689,0-3.089-1.5-3.089-3.151,0-.569.089-.66.27-.66C-5582.513-1005.366-5582.244-1005.185-5582.183-1005.185Zm21.989-.12c0,.42-.391,1.139-.931,1.139-.479,0-.719-.3-1.529-1.439a8.918,8.918,0,0,0-1.95-1.95c-.12-.09-.42-.361-.42-.48s.269-.21.54-.21C-5562.354-1008.245-5560.194-1006.685-5560.194-1005.3Zm2.279-2.281c0,.33-.239.9-.779.9-.66,0-1.021-.54-1.53-1.231a7.477,7.477,0,0,0-2.491-1.829c-.3-.15-.389-.27-.389-.36,0-.3.9-.3,1.139-.3C-5560.7-1010.405-5557.915-1009.506-5557.915-1007.586Z" fill="#333"/>
        <path id="パス_1878" data-name="パス 1878" d="M-5543.082-1001.616a30.143,30.143,0,0,0-.24,5.64c0,.87,0,1.591.99,1.591,1.289,0,8.969-3.241,14.249-7.831.42-.36.48-.419.69-.419a.237.237,0,0,1,.24.24c0,.3-4.439,5.159-11.789,9-3.481,1.8-3.72,1.98-4.35,2.76-.15.21-.211.24-.33.24-.24,0-2.04-1.47-2.04-2.28,0-.15.239-1.35.27-1.41a22.9,22.9,0,0,0,.15-3.87c0-3.96,0-4.769-.78-6.179a5.79,5.79,0,0,1-.66-1.17c0-.121.18-.151.3-.151.33,0,3.78.6,3.78,1.83C-5542.6-1003.385-5543.022-1001.946-5543.082-1001.616Z" fill="#333"/>
        <path id="パス_1879" data-name="パス 1879" d="M-5507.548-992.076a20.919,20.919,0,0,0-2.939,2.46c-.57.69-.63.75-1.08.75-1.62,0-3.84-1.92-3.84-3.12,0-.21.029-1.59.3-1.59a7.383,7.383,0,0,1,.9.57,4.976,4.976,0,0,0,2.04.69c1.471,0,9.42-5.31,14.4-10.23.48-.479,1.32-1.32,1.38-1.32a.194.194,0,0,1,.15.15C-5496.238-1003.446-5499.748-997.836-5507.548-992.076Zm-2.46-9.87c-.809,0-1.109-.48-2.1-1.98a6.756,6.756,0,0,0-2.731-2.459c-.119-.06-.269-.151-.269-.27s.24-.271.66-.271c3.21,0,5.73,1.71,5.73,3.48A1.325,1.325,0,0,1-5510.008-1001.946Z" fill="#333"/>
        <path id="パス_1880" data-name="パス 1880" d="M-5480.694-1009.235c1.08,0,3.24.96,3.24,1.92,0,.21-.3,1.08-.33,1.26a38.435,38.435,0,0,0-.3,4.2c0,.63.15.75.99.929,1.919.451,6.509,2.64,6.509,4.86a1.049,1.049,0,0,1-1.109,1.05c-.721,0-.75-.06-2.82-2.73-.84-1.08-2.25-2.519-3.18-2.519-.33,0-.42,0-.42,2.219,0,3.18.03,4.77.149,7.47.031.33.061,1.08.061,1.53,0,.72,0,2.73-.87,2.73-.93,0-1.68-2.04-1.68-2.82,0-.121.12-.75.12-.871a40.246,40.246,0,0,0,.27-6.959c0-8.879,0-9.54-.36-10.5a3.339,3.339,0,0,0-1.05-1.379.232.232,0,0,1-.06-.121C-5481.474-1009.206-5480.724-1009.235-5480.694-1009.235Zm12.63,5.13c0,.389-.33,1.139-.931,1.139-.449,0-.72-.3-1.5-1.439a8.389,8.389,0,0,0-1.949-1.95c-.12-.09-.42-.361-.42-.481,0-.149.27-.21.54-.21C-5470.194-1007.046-5468.064-1005.456-5468.064-1004.1Zm2.43-3.42c0,.33-.241.9-.781.9-.66,0-1.019-.479-1.559-1.17a7.579,7.579,0,0,0-2.58-1.71c-.3-.12-.39-.269-.39-.33,0-.179.359-.359,1.14-.359C-5467.644-1010.2-5465.634-1008.995-5465.634-1007.525Z" fill="#333"/>
        <path id="パス_1881" data-name="パス 1881" d="M-5456.426-992.766c-.541,0-1.2-.18-1.2-.96,0-.96.991-.96,1.2-.96h4.529c1.2,0,1.2.81,1.2.96,0,.96-.87.96-1.2.96Z" fill="#333"/>
      </g>
    </g>
    <g id="グループ_438" data-name="グループ 438">
      <g id="グループ_437" data-name="グループ 437">
        <path id="パス_1882" data-name="パス 1882" d="M-5714.891-950.861l4.9-12.785,4.9,12.785,4.852-12.417h2.345l-7.2,18.027-4.9-12.716-4.9,12.716-7.2-18.027h2.346Z" fill="#333"/>
        <path id="パス_1883" data-name="パス 1883" d="M-5688.119-950.286l-1.977,4.346h-2.323l8.278-18.074,8.278,18.074h-2.322l-1.978-4.346Zm3.978-8.991-3.081,7.014h6.163Z" fill="#333"/>
        <path id="パス_1884" data-name="パス 1884" d="M-5655.932-945.94h-2.622l-5.1-7.335h-.9v7.335h-2.162v-17.338h2.621a9.156,9.156,0,0,1,4.576.8,4.8,4.8,0,0,1,2.277,4.138,4.721,4.721,0,0,1-4.162,4.853Zm-8.623-9.129h.689c2.208,0,4.6-.414,4.6-3.174,0-2.713-2.575-3.1-4.714-3.1h-.574Z" fill="#333"/>
        <path id="パス_1885" data-name="パス 1885" d="M-5643.051-957.391h-.046l-2.024,11.451h-2.23l3.541-18.074,5.956,13.659,5.955-13.659,3.542,18.074h-2.231l-2.024-11.451h-.045l-5.2,11.819Z" fill="#333"/>
        <path id="パス_1886" data-name="パス 1886" d="M-5601.537-961.3v4.875h6.025v1.978h-6.025v8.508h-2.161v-17.338h8.393v1.977Z" fill="#333"/>
        <path id="パス_1887" data-name="パス 1887" d="M-5585.653-963.278h9.313v1.977h-7.151v4.852h6.944v1.978h-6.944v6.553h7.151v1.978h-9.313Z" fill="#333"/>
        <path id="パス_1888" data-name="パス 1888" d="M-5566.268-963.278h9.313v1.977h-7.151v4.852h6.944v1.978h-6.944v6.553h7.151v1.978h-9.313Z" fill="#333"/>
        <path id="パス_1889" data-name="パス 1889" d="M-5544.722-947.918h5.265v1.978h-7.427v-17.338h2.162Z" fill="#333"/>
        <path id="パス_1890" data-name="パス 1890" d="M-5528.231-945.94h-2.161v-17.338h2.161Z" fill="#333"/>
        <path id="パス_1891" data-name="パス 1891" d="M-5517.444-964.106l13.016,13.636v-12.808h2.161v18.051l-13.015-13.636v12.923h-2.162Z" fill="#333"/>
        <path id="パス_1892" data-name="パス 1892" d="M-5475.472-954.678v.69a8.053,8.053,0,0,1-8.209,8.416,8.973,8.973,0,0,1-8.762-8.991,9.039,9.039,0,0,1,8.991-9.083,9.088,9.088,0,0,1,7.06,3.357l-1.518,1.448a6.928,6.928,0,0,0-5.45-2.828,6.939,6.939,0,0,0-6.921,7.036c0,3.634,2.989,7.083,6.737,7.083,2.691,0,5.588-2.323,5.68-5.151h-4.483v-1.977Z" fill="#333"/>
      </g>
    </g>
    <g id="グループ_440" data-name="グループ 440">
      <g id="グループ_439" data-name="グループ 439">
        <path id="パス_1893" data-name="パス 1893" d="M-5695.761-913.149a3.64,3.64,0,0,0-1.784-.287,7.121,7.121,0,0,0-1.824.41,6.1,6.1,0,0,1,4.181,1.127,4.115,4.115,0,0,1,1.394,3.834,12.455,12.455,0,0,1-1.25,4.387,33.818,33.818,0,0,1-2.317,4.017q-1.065,1.6-2.418,3.26a22.391,22.391,0,0,1-2.994,3.034,19.153,19.153,0,0,1-3.5,2.337,10.257,10.257,0,0,1-3.916,1.128,7.294,7.294,0,0,1-1.947-.1,3.031,3.031,0,0,1-1.7-.922,3.249,3.249,0,0,1-.9-1.927,8.219,8.219,0,0,1,.041-2.173,14.871,14.871,0,0,1,1.414-4.285,37.446,37.446,0,0,1,2.276-3.915,31.067,31.067,0,0,1,2.624-3.711,41.428,41.428,0,0,1,3.074-3.341,32.247,32.247,0,0,1,3.342-2.747,9.462,9.462,0,0,1,3.916-1.682,8.692,8.692,0,0,1,1.578-.123,2.189,2.189,0,0,1,1.455.451.679.679,0,0,1,.267.472.78.78,0,0,1-.1.472.753.753,0,0,1-.369.307A.658.658,0,0,1-5695.761-913.149Zm-7.79,2.706a26.1,26.1,0,0,0-3.3,3.218,41.113,41.113,0,0,0-2.808,3.67,29.884,29.884,0,0,0-2.276,3.915,16.737,16.737,0,0,0-1.414,4.285,7.975,7.975,0,0,0-.123.922,4.887,4.887,0,0,0,.02,1.005,3.4,3.4,0,0,0,.246.922,1.66,1.66,0,0,0,.594.717,2.561,2.561,0,0,0,1.579.472,8.341,8.341,0,0,0,1.62-.185,11.316,11.316,0,0,0,4.1-1.721,29.2,29.2,0,0,0,3.486-2.747,26.371,26.371,0,0,0,3.054-3.363,22.157,22.157,0,0,0,2.357-3.853q.369-.738.821-1.783a10.958,10.958,0,0,0,.676-2.154,6.277,6.277,0,0,0,.082-2.132,2.763,2.763,0,0,0-.922-1.721,2.664,2.664,0,0,0-1.846-.718,10.882,10.882,0,0,0-2.049.143.671.671,0,0,1-.657-.2.875.875,0,0,1-.245-.738,16.085,16.085,0,0,0-1.62,1.026Q-5702.977-910.895-5703.551-910.443Z" fill="#333"/>
        <path id="パス_1894" data-name="パス 1894" d="M-5696.967-896.832q.861-.45,1.7-.9t1.824-1.026a1.98,1.98,0,0,1,.472-1.475,1.619,1.619,0,0,1,1.415-.656.829.829,0,0,1,.737.574.991.991,0,0,1-.164.942,2.762,2.762,0,0,1-.86.821,1.38,1.38,0,0,0,.7.164,3.765,3.765,0,0,0,1.8-.308,11.956,11.956,0,0,0,1.682-.841c.491-.164.805-.108.943.164a.979.979,0,0,1-.165.985c-.137.218-.293.5-.471.84a7.872,7.872,0,0,0-.451,1.045,3.616,3.616,0,0,0-.2,1.026.922.922,0,0,0,.308.779q.2.244,1.086,0t2.357-.82c.329-.137.663-.294,1-.472s.69-.349,1.045-.513a2.1,2.1,0,0,0,.369-.184,2.012,2.012,0,0,1,.472-.205.7.7,0,0,1,.41,0q.185.062.184.43a.484.484,0,0,1-.184.37,2.215,2.215,0,0,1-.41.287,2.9,2.9,0,0,1-.472.205l-.369.123-1.721.779c-.3.163-.677.368-1.128.614a9.5,9.5,0,0,1-1.373.616,4.061,4.061,0,0,1-1.353.246,1.176,1.176,0,0,1-1.025-.534,1.318,1.318,0,0,1-.246-.635,2.369,2.369,0,0,1,.02-.7,6.369,6.369,0,0,1,.164-.7c.068-.232.13-.457.185-.677l.327-1.352c-.136.027-.417.1-.84.205a8.266,8.266,0,0,1-1.373.225,6.852,6.852,0,0,1-1.415-.02,1.377,1.377,0,0,1-1-.533q-.7.369-1.148.615t-.923.532q-.472.289-.759.451a2.491,2.491,0,0,0-.573.308.485.485,0,0,1-.574.062.514.514,0,0,1-.247-.452A.424.424,0,0,1-5696.967-896.832Z" fill="#333"/>
        <path id="パス_1895" data-name="パス 1895" d="M-5677.5-898.8c.109-.054.362-.164.759-.328a6.738,6.738,0,0,1,1.168-.369,2.2,2.2,0,0,1,.984-.02q.409.1.287.758a2.031,2.031,0,0,1-.348.739,2.743,2.743,0,0,0-.39.738,9.412,9.412,0,0,0-.472,1.312,1.384,1.384,0,0,0,.144,1.271,3.87,3.87,0,0,0,1.538-.164q.84-.246,1.537-.492a8.243,8.243,0,0,0,.779-.41q.573-.328,1.21-.636a6.754,6.754,0,0,1,1.168-.451c.355-.1.574-.062.656.1q.163.288-.205.615a4,4,0,0,1-.922.6q-.554.267-1.128.492c-.383.151-.629.253-.738.308q-.9.451-1.824.881a7.38,7.38,0,0,1-1.907.6,1.116,1.116,0,0,1-1.189-.37,2.207,2.207,0,0,1-.328-1.25,6.624,6.624,0,0,1,.226-1.64q.226-.881.471-1.619-.943.369-1.845.676a16.958,16.958,0,0,0-1.763.717q-.738.33-1.476.739a.623.623,0,0,1-.717-.226c-.178-.231-.1-.431.225-.595Zm4.8-8.282a2.4,2.4,0,0,1,.636-.922,3.806,3.806,0,0,1,.963-.635,6.175,6.175,0,0,1,1.128-.39c.4-.1.772-.17,1.127-.226a14.853,14.853,0,0,1,2.911.123,2.192,2.192,0,0,1,.553.082.363.363,0,0,1,.267.452.611.611,0,0,1-.2.348.412.412,0,0,1-.369.1,9.877,9.877,0,0,0-2.48-.185,4.407,4.407,0,0,0-2.317.759,1.336,1.336,0,0,0-.574.655,1.5,1.5,0,0,1-.492.657.649.649,0,0,1-.861,0A.675.675,0,0,1-5672.7-907.082Z" fill="#333"/>
        <path id="パス_1896" data-name="パス 1896" d="M-5669.125-896.791q1.065-.531,2.091-1.024t2.091-.9a14.71,14.71,0,0,1,2.275-.615,13.323,13.323,0,0,1,2.358-.205,1,1,0,0,1,.7.226q.245.227.041.759a.806.806,0,0,1-.738.41,14.067,14.067,0,0,0-2.153,0,6.614,6.614,0,0,0-2.07.492,3.474,3.474,0,0,0-.7.369,4.366,4.366,0,0,0-.677.553,1.724,1.724,0,0,0-.43.677.989.989,0,0,0,.082.779,1.48,1.48,0,0,0,1.25.819,4.242,4.242,0,0,0,1.579-.041,4.235,4.235,0,0,0,.943-.327l.738-.369a2.674,2.674,0,0,1,.594-.226.628.628,0,0,1,.554.185.864.864,0,0,1,.02.942c-.178.356-.321.656-.43.9l-.574,1.353q1.107-1.149,2.337-2.194a18.569,18.569,0,0,1,2.624-1.865c.082-.055.191-.137.328-.247a3.881,3.881,0,0,1,.451-.307,1.905,1.905,0,0,1,.492-.205.465.465,0,0,1,.41.061c.191.138.259.274.205.41a1.257,1.257,0,0,1-.287.411q-1.066.573-2.05,1.23a18.947,18.947,0,0,0-1.927,1.476,24.2,24.2,0,0,0-2.03,1.926,23.913,23.913,0,0,0-1.783,2.132l-1.066,2.46q-.492,1.23-.984,2.5t-1.066,2.5q-.123.246-.308.6a5.389,5.389,0,0,1-.41.656,1.815,1.815,0,0,1-.533.492,1.06,1.06,0,0,1-.676.144.748.748,0,0,1-.635-.451,1.6,1.6,0,0,1-.082-.821,5.343,5.343,0,0,1,.2-.9q.144-.453.267-.738a21.279,21.279,0,0,1,1.947-3.588,37.559,37.559,0,0,1,2.481-3.3l1.394-3.978a10.569,10.569,0,0,1-1.579.308,6.872,6.872,0,0,1-1.578.021,3.522,3.522,0,0,1-1.333-.411,1.977,1.977,0,0,1-.881-1.065,1.99,1.99,0,0,1,.041-1.723q-.329.207-.677.431a.7.7,0,0,1-.594.144.443.443,0,0,1-.492-.349A.419.419,0,0,1-5669.125-896.791Z" fill="#333"/>
        <path id="パス_1897" data-name="パス 1897" d="M-5651.241-898.8c.109-.054.362-.164.758-.328a6.761,6.761,0,0,1,1.169-.369,2.2,2.2,0,0,1,.984-.02q.409.1.287.758a2.023,2.023,0,0,1-.348.739,2.714,2.714,0,0,0-.39.738,9.407,9.407,0,0,0-.472,1.312,1.384,1.384,0,0,0,.144,1.271,3.871,3.871,0,0,0,1.538-.164q.839-.246,1.537-.492a8.293,8.293,0,0,0,.779-.41q.573-.328,1.209-.636a6.761,6.761,0,0,1,1.169-.451c.355-.1.574-.062.656.1q.164.288-.2.615a4,4,0,0,1-.922.6q-.553.267-1.128.492c-.383.151-.629.253-.738.308q-.9.451-1.824.881a7.388,7.388,0,0,1-1.907.6,1.116,1.116,0,0,1-1.189-.37,2.2,2.2,0,0,1-.328-1.25,6.645,6.645,0,0,1,.225-1.64q.225-.881.472-1.619-.943.369-1.845.676a16.879,16.879,0,0,0-1.763.717q-.738.33-1.476.739a.624.624,0,0,1-.718-.226c-.177-.231-.1-.431.226-.595Zm4.8-8.282a2.393,2.393,0,0,1,.636-.922,3.806,3.806,0,0,1,.963-.635,6.18,6.18,0,0,1,1.128-.39c.4-.1.771-.17,1.127-.226a14.85,14.85,0,0,1,2.911.123,2.192,2.192,0,0,1,.553.082.365.365,0,0,1,.267.452.614.614,0,0,1-.205.348.413.413,0,0,1-.369.1,9.875,9.875,0,0,0-2.48-.185,4.406,4.406,0,0,0-2.317.759,1.333,1.333,0,0,0-.574.655,1.5,1.5,0,0,1-.492.657.649.649,0,0,1-.861,0A.675.675,0,0,1-5646.444-907.082Z" fill="#333"/>
        <path id="パス_1898" data-name="パス 1898" d="M-5643.067-896.791q.451-.246,1.558-.84t2.276-1.128a10.484,10.484,0,0,1,2.152-.738q.984-.2,1.23.328a.812.812,0,0,1-.1.8,3.431,3.431,0,0,0-.389.718l-.493,1.147a10.48,10.48,0,0,1,1.066-.574l1.067-.491q1.311-.7,2.705-1.477a13.3,13.3,0,0,1,2.829-1.188,2.021,2.021,0,0,1,.943-.021,1.183,1.183,0,0,1,.636.37,1.041,1.041,0,0,1,.226.7,1.689,1.689,0,0,1-.329.923,6.864,6.864,0,0,1-.8,1.025q-.43.452-.882.983a2.361,2.361,0,0,1-.286.329c-.138.136-.281.294-.431.471s-.287.356-.41.533a1.34,1.34,0,0,0-.226.471,1.542,1.542,0,0,0,.718,0,6.682,6.682,0,0,0,.861-.224q.431-.144.82-.308t.594-.246l1.682-.738c.108-.055.252-.137.43-.247s.362-.21.553-.307.376-.185.554-.267a1.1,1.1,0,0,1,.43-.123.326.326,0,0,1,.369.369.644.644,0,0,1-.328.575q-.369.2-.778.389c-.274.123-.561.253-.862.39q-.574.328-1.107.574c-.355.163-.724.342-1.107.532q-.327.165-1.045.472a7.3,7.3,0,0,1-1.435.451,2.373,2.373,0,0,1-1.251-.041c-.355-.123-.532-.457-.532-1.005a1.372,1.372,0,0,1,.2-.737,5.075,5.075,0,0,1,.472-.636,7.748,7.748,0,0,1,.574-.6c.205-.19.389-.369.553-.533a9,9,0,0,0,.821-.86,3.341,3.341,0,0,0,.737-1.231,8.55,8.55,0,0,0-2.234.575,22.552,22.552,0,0,0-2.071.943q-1.189.574-2.46,1.291a9.581,9.581,0,0,0-2.214,1.7.786.786,0,0,1-.43.185.774.774,0,0,1-.43-.082.657.657,0,0,1-.308-.308.756.756,0,0,1-.021-.532,1.276,1.276,0,0,1,.615-.656,7.661,7.661,0,0,0,.41-.759,2.449,2.449,0,0,1,.288-.513q.081-.285.164-.594a4.923,4.923,0,0,0,.123-.635c-.3.082-.6.177-.9.287s-.532.191-.7.246q-.575.246-1.147.472c-.384.15-.766.321-1.148.511-.22.11-.417.22-.595.328a3.483,3.483,0,0,1-.594.288.648.648,0,0,1-.472.061.761.761,0,0,1-.349-.185.357.357,0,0,1-.1-.307Q-5643.353-896.668-5643.067-896.791Z" fill="#333"/>
        <path id="パス_1899" data-name="パス 1899" d="M-5624.461-896.791q.492-.246,1.251-.635t1.619-.758q.861-.369,1.661-.7t1.332-.533q.286-.123,1.026-.368t1.557-.451a11.821,11.821,0,0,1,1.538-.287,1.667,1.667,0,0,1,1.045.123q.492.452.185.819a1.249,1.249,0,0,1-.759.451l-1.845.205a4.343,4.343,0,0,0-.963.39q-.39.225-.882.554c-.137.109-.375.335-.717.677s-.677.71-1,1.106a6.457,6.457,0,0,0-.778,1.148c-.192.37-.192.635,0,.8a.918.918,0,0,0,.8.082,6.375,6.375,0,0,0,1.127-.369c.383-.163.739-.334,1.066-.512a6.153,6.153,0,0,0,.656-.389,8.8,8.8,0,0,0,1.927-1.559.544.544,0,0,1,.8-.1.693.693,0,0,1,.267.84,1.129,1.129,0,0,1-.288.493c-.137.136-.266.266-.389.389a1.419,1.419,0,0,0-.308.513c-.109.191-.136.335-.082.43a.393.393,0,0,0,.287.184,4.4,4.4,0,0,0,1.435-.082,15.974,15.974,0,0,0,1.784-.45,18.134,18.134,0,0,0,1.824-.677q.9-.39,1.558-.718a1.67,1.67,0,0,0,.452-.225,3.446,3.446,0,0,1,.594-.308,1.6,1.6,0,0,1,.6-.123.423.423,0,0,1,.409.246.335.335,0,0,1-.02.451,1.471,1.471,0,0,1-.513.349c-.219.1-.437.185-.656.267a5.159,5.159,0,0,0-.491.2c-.466.219-.93.43-1.4.636s-.942.417-1.435.634q-.492.207-1.066.493a9.246,9.246,0,0,1-1.188.492,6.823,6.823,0,0,1-1.251.287,2.377,2.377,0,0,1-1.168-.123,1.224,1.224,0,0,1-.821-.8,2.114,2.114,0,0,1,.041-1.086l-1.107.655c-.464.274-.95.554-1.455.841a4,4,0,0,1-1.579.513,2.155,2.155,0,0,1-1.312-.328,1.359,1.359,0,0,1-.615-1.149,2.415,2.415,0,0,1,.329-1.045,8.956,8.956,0,0,1,.84-1.312,9.749,9.749,0,0,1,1.127-1.25,5.728,5.728,0,0,1,1.148-.862,7.948,7.948,0,0,0-.922.37q-.636.287-1.435.7t-1.681.84q-.882.43-1.619.8a.5.5,0,0,1-.411.061.555.555,0,0,1-.307-.205.463.463,0,0,1-.082-.328A.415.415,0,0,1-5624.461-896.791Z" fill="#333"/>
        <path id="パス_1900" data-name="パス 1900" d="M-5606.442-896.832a26,26,0,0,0,2.46-1.27q1.189-.7,2.378-1.518a22.178,22.178,0,0,1,1.271-2.214q.7-1.065,1.353-2.091.7-.941,1.394-1.906t1.435-1.906q.616-.82,1.333-1.661a6.122,6.122,0,0,1,1.661-1.373,3.414,3.414,0,0,1,1.107-.349.763.763,0,0,1,.9.595,1.306,1.306,0,0,1,.021.881,3.661,3.661,0,0,1-.431.861,8.959,8.959,0,0,1-.615.82c-.219.26-.4.486-.533.676a32.751,32.751,0,0,1-3.669,4.367,38.237,38.237,0,0,1-4.366,3.751q-.207.492-.472,1.046a9.984,9.984,0,0,0-.472,1.168,6.8,6.8,0,0,0-.286,1.21,3.1,3.1,0,0,0,.04,1.128q.452-.082.82-.123c.219-.027.424-.048.615-.061a1.239,1.239,0,0,0,.369-.062,18.677,18.677,0,0,0,2.419-.656q1.189-.411,2.337-.9a3.425,3.425,0,0,0,.78-.328.737.737,0,0,1,.778-.041c.3.22.342.417.123.6a2.665,2.665,0,0,1-.614.39l-4.757,1.762q-.7.246-1.353.513a4.238,4.238,0,0,1-1.353.308,1.334,1.334,0,0,1-.984-.185,1.375,1.375,0,0,1-.512-.7,2.351,2.351,0,0,1-.1-.943,5.241,5.241,0,0,1,.163-.963,14.221,14.221,0,0,1,.738-1.968,31.728,31.728,0,0,1-3.525,2.009.642.642,0,0,1-.677-.267C-5606.844-896.468-5606.77-896.668-5606.442-896.832Zm8.324-5.616a31.823,31.823,0,0,0,3.526-3.9,14.137,14.137,0,0,0,1.394-1.968,5.309,5.309,0,0,1,.245-.513,5.08,5.08,0,0,0,.287-.636,4.413,4.413,0,0,0-1.086.78q-.513.492-.84.82a21.908,21.908,0,0,0-1.764,1.988q-.82,1.046-1.64,2.153-.451.656-.861,1.292t-.778,1.291c.245-.191.5-.4.758-.636S-5598.364-902.229-5598.118-902.448Z" fill="#333"/>
        <path id="パス_1901" data-name="パス 1901" d="M-5577.866-904.827a28.178,28.178,0,0,1,3.773-2.808q2.007-1.25,4.058-2.317,1.436-.736,2.952-1.393a30.319,30.319,0,0,1,3.116-1.149l.411-.491q.737-.78,1.578-1.518a5.877,5.877,0,0,1,1.824-1.106,5.245,5.245,0,0,1,.718-.164,3.342,3.342,0,0,1,.9-.041,1.34,1.34,0,0,1,.717.266q.286.227.123.758a.613.613,0,0,1-.368.41.8.8,0,0,1-.615,0,1.282,1.282,0,0,0-.78-.082,3.265,3.265,0,0,0-.841.308,5.165,5.165,0,0,0-.839.554q-.411.327-.739.574a17.792,17.792,0,0,1,2.173-.205,9.315,9.315,0,0,1,2.235.184,5.7,5.7,0,0,1,1.989.82,3.852,3.852,0,0,1,1.393,1.7,2.417,2.417,0,0,1,.062,1.968,5.348,5.348,0,0,1-1.19,1.742,11.2,11.2,0,0,1-1.762,1.435q-.965.636-1.7,1.045-1.724,1.066-3.506,1.969t-3.628,1.722a26.157,26.157,0,0,1,3.71-.472,7.306,7.306,0,0,1,3.424.6,2.885,2.885,0,0,1,1.352,1.045,3.01,3.01,0,0,1,.513,1.456,3.571,3.571,0,0,1-.246,1.578,4.026,4.026,0,0,1-.923,1.415,9.671,9.671,0,0,1-3.649,2.275,42.784,42.784,0,0,1-4.14,1.25,43.447,43.447,0,0,1-7.258,1.354,2.272,2.272,0,0,0,.615.942.655.655,0,0,1,.287.574.628.628,0,0,1-.287.452.943.943,0,0,1-.595.143.875.875,0,0,1-.634-.389,3.121,3.121,0,0,1-.451-.78,7.746,7.746,0,0,1-.288-.86,20.085,20.085,0,0,1-2.295.123,15.284,15.284,0,0,1-2.3-.164c-.22-.028-.513-.069-.882-.123a6.686,6.686,0,0,1-1.108-.267,3.081,3.081,0,0,1-.942-.492.93.93,0,0,1-.39-.759q0-.533.287-.635a.863.863,0,0,1,.636.041,5,5,0,0,1,.717.369,4.129,4.129,0,0,0,.574.307,8.728,8.728,0,0,0,2.378.492q1.23.082,2.46.082h.738a10.2,10.2,0,0,1,.431-3.157q.472-1.6.922-2.788l.205-.614c-.191.082-.383.157-.573.225s-.4.13-.615.185h-.041a1.25,1.25,0,0,1-.759-.061q-.308-.144-.267-.636a.6.6,0,0,1,.267-.492,2.574,2.574,0,0,1,.635-.349,4.671,4.671,0,0,1,.8-.226c.286-.054.539-.108.758-.164l.533-.123q.7-1.6,1.5-3.115t1.7-2.993q.861-1.435,1.762-2.85t1.927-2.726q-1.149.45-2.214.943t-2.009.983a27.116,27.116,0,0,0-2.931,1.661,27.706,27.706,0,0,0-2.727,2.03,3.716,3.716,0,0,0-.472.472c-.177.2-.362.409-.552.614a4.3,4.3,0,0,1-.595.533.811.811,0,0,1-.6.185.666.666,0,0,1-.635-.493A.719.719,0,0,1-5577.866-904.827Zm4.8,11.973a4.892,4.892,0,0,0-.123,1.721q1.887-.164,3.752-.492a28.228,28.228,0,0,0,3.67-.9q.9-.246,1.968-.595a16.024,16.024,0,0,0,2.07-.841,12.065,12.065,0,0,0,1.865-1.127,4.832,4.832,0,0,0,1.354-1.5,1.694,1.694,0,0,0,.246-1.7,2.4,2.4,0,0,0-1.19-.984,6.718,6.718,0,0,0-1.824-.471,14.182,14.182,0,0,0-1.661-.123q-1.682.082-3.443.307a27.959,27.959,0,0,0-3.486.676l-1.8.7h-.041a21.916,21.916,0,0,0-.881,2.624A15.955,15.955,0,0,0-5573.069-892.854Zm8.159-16.934q-1.436,1.847-2.685,3.793a42.958,42.958,0,0,0-2.276,4q-.328.576-.615,1.149t-.532,1.147q2.3-.777,4.53-1.763t4.366-2.09a30.371,30.371,0,0,0,2.686-1.517,18.7,18.7,0,0,0,2.439-1.846,13.3,13.3,0,0,0,1.046-1.086,2.458,2.458,0,0,0,.635-1.333,1.141,1.141,0,0,0-.143-.7,2.24,2.24,0,0,0-.492-.595,4.471,4.471,0,0,0-.656-.471,5.618,5.618,0,0,0-.636-.328,7.579,7.579,0,0,0-3.034-.534,13.859,13.859,0,0,0-3.156.451q-.411.411-.78.841T-5564.91-909.788Z" fill="#333"/>
        <path id="パス_1902" data-name="パス 1902" d="M-5555.32-896.832a26,26,0,0,0,2.46-1.27q1.189-.7,2.378-1.518a22.178,22.178,0,0,1,1.271-2.214q.7-1.065,1.353-2.091.7-.941,1.394-1.906t1.435-1.906q.615-.82,1.332-1.661a6.152,6.152,0,0,1,1.661-1.373,3.411,3.411,0,0,1,1.107-.349.765.765,0,0,1,.9.595,1.306,1.306,0,0,1,.02.881,3.619,3.619,0,0,1-.43.861,9.331,9.331,0,0,1-.615.82c-.219.26-.4.486-.533.676a32.722,32.722,0,0,1-3.67,4.367,38.07,38.07,0,0,1-4.366,3.751q-.207.492-.471,1.046a9.984,9.984,0,0,0-.472,1.168,6.681,6.681,0,0,0-.287,1.21,3.1,3.1,0,0,0,.041,1.128q.452-.082.82-.123c.219-.027.424-.048.615-.061a1.239,1.239,0,0,0,.369-.062,18.719,18.719,0,0,0,2.419-.656q1.188-.411,2.337-.9a3.417,3.417,0,0,0,.779-.328.74.74,0,0,1,.779-.041c.3.22.342.417.123.6a2.679,2.679,0,0,1-.615.39l-4.756,1.762q-.7.246-1.353.513a4.238,4.238,0,0,1-1.353.308,1.332,1.332,0,0,1-.984-.185,1.375,1.375,0,0,1-.512-.7,2.351,2.351,0,0,1-.1-.943,5.24,5.24,0,0,1,.164-.963,14.221,14.221,0,0,1,.738-1.968,31.875,31.875,0,0,1-3.526,2.009.643.643,0,0,1-.677-.267C-5555.723-896.468-5555.648-896.668-5555.32-896.832Zm8.323-5.616a31.78,31.78,0,0,0,3.526-3.9,13.938,13.938,0,0,0,1.394-1.968,5.6,5.6,0,0,1,.246-.513,5.3,5.3,0,0,0,.287-.636,4.436,4.436,0,0,0-1.087.78q-.512.492-.84.82a22.117,22.117,0,0,0-1.763,1.988q-.82,1.046-1.64,2.153-.451.656-.861,1.292t-.779,1.291c.246-.191.5-.4.758-.636Z" fill="#333"/>
        <path id="パス_1903" data-name="パス 1903" d="M-5543.332-896.832q.738-.369,1.537-.819a13.427,13.427,0,0,1,1.62-.779,4.194,4.194,0,0,1,1.517-1.538,6.2,6.2,0,0,1,2.091-.8,5.38,5.38,0,0,1,1.333,0,1.618,1.618,0,0,1,1.168.615.641.641,0,0,1,.143.7,1.907,1.907,0,0,1-.492.7,4.848,4.848,0,0,1-.778.595q-.431.267-.636.39a5.856,5.856,0,0,1-1.619.676,5.186,5.186,0,0,1-1.784.143h-.164a2.305,2.305,0,0,0,.738,1.4,3.576,3.576,0,0,0,1.354.717,4.9,4.9,0,0,0,1.619.185,12.293,12.293,0,0,0,1.537-.164,18.329,18.329,0,0,0,1.928-.513,17.809,17.809,0,0,0,1.844-.717c.273-.137.554-.267.841-.39a8.492,8.492,0,0,0,.8-.39.791.791,0,0,1,.595.082c.205.111.225.287.061.533a1.049,1.049,0,0,1-.574.452q-.369.123-.656.246l-2.05.9a35.415,35.415,0,0,1-3.731,1.23,6.16,6.16,0,0,1-1.661.1,4.808,4.808,0,0,1-1.557-.369,4.065,4.065,0,0,1-1.291-.882,3.234,3.234,0,0,1-.821-1.475c-.055-.219-.1-.437-.143-.657a1.314,1.314,0,0,1,.02-.614,7.973,7.973,0,0,0-.881.471q-.432.267-.758.471a3.069,3.069,0,0,0-.534.308.556.556,0,0,1-.656.021.47.47,0,0,1-.225-.452A.382.382,0,0,1-5543.332-896.832Zm4.182-1.147a4.775,4.775,0,0,0,1.907-.492,5.985,5.985,0,0,0,1.619-1.149,2.311,2.311,0,0,0-1.128-.122,3.215,3.215,0,0,0-1.024.327,3.161,3.161,0,0,0-.841.636A2.55,2.55,0,0,0-5539.15-897.979Z" fill="#333"/>
        <path id="パス_1904" data-name="パス 1904" d="M-5528.917-896.791q.451-.246,1.558-.84t2.276-1.128a10.472,10.472,0,0,1,2.153-.738q.983-.2,1.229.328a.811.811,0,0,1-.1.8,3.439,3.439,0,0,0-.39.718l-.491,1.147a10.364,10.364,0,0,1,1.065-.574l1.067-.491q1.31-.7,2.706-1.477a13.281,13.281,0,0,1,2.829-1.188,2.017,2.017,0,0,1,.942-.021,1.182,1.182,0,0,1,.636.37,1.045,1.045,0,0,1,.225.7,1.687,1.687,0,0,1-.328.923,6.834,6.834,0,0,1-.8,1.025q-.431.452-.88.983a2.553,2.553,0,0,1-.287.329c-.138.136-.282.294-.431.471s-.287.356-.41.533a1.331,1.331,0,0,0-.226.471,1.543,1.543,0,0,0,.718,0,6.661,6.661,0,0,0,.861-.224q.429-.144.82-.308c.259-.109.458-.191.594-.246l1.681-.738c.109-.055.253-.137.431-.247s.362-.21.553-.307.375-.185.554-.267a1.1,1.1,0,0,1,.431-.123.326.326,0,0,1,.368.369.646.646,0,0,1-.327.575c-.246.136-.507.266-.78.389l-.861.39q-.574.328-1.106.574c-.356.163-.725.342-1.108.532q-.328.165-1.045.472a7.315,7.315,0,0,1-1.435.451,2.369,2.369,0,0,1-1.25-.041c-.357-.123-.533-.457-.533-1.005a1.355,1.355,0,0,1,.2-.737,4.881,4.881,0,0,1,.471-.636,7.575,7.575,0,0,1,.574-.6c.2-.19.389-.369.553-.533a9,9,0,0,0,.821-.86,3.361,3.361,0,0,0,.737-1.231,8.549,8.549,0,0,0-2.235.575,22.661,22.661,0,0,0-2.07.943q-1.189.574-2.46,1.291a9.581,9.581,0,0,0-2.214,1.7.783.783,0,0,1-.43.185.777.777,0,0,1-.431-.082.665.665,0,0,1-.308-.308.762.762,0,0,1-.02-.532,1.27,1.27,0,0,1,.615-.656,7.464,7.464,0,0,0,.41-.759,2.591,2.591,0,0,1,.287-.513c.055-.19.109-.388.164-.594a4.923,4.923,0,0,0,.124-.635c-.3.082-.6.177-.9.287s-.533.191-.7.246q-.575.246-1.148.472t-1.148.511c-.219.11-.417.22-.594.328a3.514,3.514,0,0,1-.594.288.651.651,0,0,1-.472.061.758.758,0,0,1-.349-.185.355.355,0,0,1-.1-.307C-5529.21-896.606-5529.107-896.709-5528.917-896.791Z" fill="#333"/>
        <path id="パス_1905" data-name="パス 1905" d="M-5510.232-896.832a12.945,12.945,0,0,0,2.029-.9q.963-.534,1.988-.985a8.377,8.377,0,0,1,1.354-.533q.7-.2,1.394-.41a5.324,5.324,0,0,1,1.763-.286.741.741,0,0,1,.614.327.593.593,0,0,1,.041.7.7.7,0,0,1-.368.349,1.748,1.748,0,0,1-.553.123c-.2.014-.411.021-.616.021h-.553a2.989,2.989,0,0,0-1.168.348,5.992,5.992,0,0,0-1.128.759,5.261,5.261,0,0,0-1.271,1.312c-.028.054-.09.17-.184.348s-.185.362-.267.554a3.745,3.745,0,0,0-.185.532.367.367,0,0,0,.062.369.4.4,0,0,0,.39.062,2.15,2.15,0,0,0,.532-.205c.178-.095.342-.191.492-.286s.253-.158.308-.185a15.452,15.452,0,0,0,1.312-.861q.614-.452,1.271-.9l1.926-1.721q.7-1.434,1.477-2.85t1.6-2.809q.573-.941,1.148-1.885t1.23-1.886q.615-.861,1.353-1.784a5.154,5.154,0,0,1,1.722-1.414q.286-.082.553-.164a.949.949,0,0,1,.554,0,1.064,1.064,0,0,1,.655.328.993.993,0,0,1,.226.595,2.344,2.344,0,0,1-.082.737,2.75,2.75,0,0,1-.267.677,16.988,16.988,0,0,1-1.578,2.254q-.882,1.066-1.783,2.132-1.395,1.681-2.808,3.26t-2.973,3.055q-.206.574-.39,1.106c-.123.357-.253.725-.389,1.108q-.083.2-.185.492c-.068.191-.137.4-.205.615a5.731,5.731,0,0,0-.163.655,1.444,1.444,0,0,0-.021.534,4.963,4.963,0,0,0,1.5-.329q.759-.285,1.414-.574a20.408,20.408,0,0,0,2.317-1.086q1.168-.636,2.235-1.21a.773.773,0,0,1,.348-.1,1.4,1.4,0,0,1,.41.02.276.276,0,0,1,.226.2.658.658,0,0,1-.123.451,1.142,1.142,0,0,1-.615.472q-.411.144-.7.267-1.148.574-2.3,1.188t-2.255,1.231c-.219.108-.466.239-.738.389a6.249,6.249,0,0,1-.861.39,2.6,2.6,0,0,1-.881.164,1.413,1.413,0,0,1-.8-.246,1.268,1.268,0,0,1-.472-.7,2.368,2.368,0,0,1-.041-.882,4.83,4.83,0,0,1,.205-.9q.144-.432.267-.759c.026-.11.055-.212.082-.308a3.185,3.185,0,0,1,.123-.349l-2.05,1.763c-.219.22-.466.445-.738.677a5.66,5.66,0,0,1-.882.615,3.849,3.849,0,0,1-.963.39,2,2,0,0,1-.984,0,1.37,1.37,0,0,1-1-.779,1.79,1.79,0,0,1,.041-1.189,5.1,5.1,0,0,1,.718-1.333,10.418,10.418,0,0,1,1.066-1.25l-1.025.409q-.411.207-.985.554a2.487,2.487,0,0,1-1.024.39.405.405,0,0,1-.41.02.527.527,0,0,1-.226-.267.6.6,0,0,1-.02-.348A.383.383,0,0,1-5510.232-896.832Zm11.643-4.017q1.066-1.109,2.092-2.276t1.968-2.4q.408-.574.82-1.128t.779-1.168a9.035,9.035,0,0,1,.471-.779,2.747,2.747,0,0,0,.431-.985,2.562,2.562,0,0,0-1.066.78q-.493.573-.779.9a25.52,25.52,0,0,0-1.763,2.132q-.82,1.107-1.558,2.3l-1.64,2.87Z" fill="#333"/>
      </g>
    </g>
  </g>
</svg>
