<svg id="lineup_refreshing_name" xmlns="http://www.w3.org/2000/svg" width="200.073" height="131.925" viewBox="0 0 200.073 131.925">
  <g id="グループ_184" data-name="グループ 184" transform="translate(-862.803 -1065.45)">
    <path id="パス_931" data-name="パス 931" d="M878.418,1075.29c-.265,0-8.244,1.862-8.434,1.938a16.335,16.335,0,0,1-1.71.722,7.925,7.925,0,0,1-2.583-1.368,7.726,7.726,0,0,1-.912-2.2c0-.19.038-.3.227-.3.038,0,.874.228.989.266a6.759,6.759,0,0,0,2.013.38c1.292,0,8.435-.608,10.41-1.406a14.5,14.5,0,0,1,2.09-1.177c.912,0,3.23,1.937,3.23,2.887,0,.342-1.4,1.368-1.634,1.634-.76.912-3.762,5.357-4.369,6.231a1.249,1.249,0,0,0-.3.76c0,.342.076.418,1.672,1.292,1.709.988,8.511,4.825,8.511,8.282a1.642,1.642,0,0,1-1.559,1.672c-.873,0-1.025-.266-2.355-2.622-2.621-4.6-5.965-7.484-6.8-7.484-.38,0-.494.114-1.33,1.063-1.329,1.407-5.2,5.661-10.145,8.131a9.332,9.332,0,0,1-2.355.874c-.076,0-.266,0-.266-.228a11.764,11.764,0,0,1,1.747-1.406c9.917-7.18,14.439-17.021,14.324-17.629A.426.426,0,0,0,878.418,1075.29Z" fill="#333"/>
    <path id="パス_932" data-name="パス 932" d="M910.424,1086.157a1.381,1.381,0,0,1-1.292,1.443c-.836,0-1.1-.874-1.368-1.71a13.619,13.619,0,0,0-2.2-3.837c-.19-.266-.267-.38-.267-.494,0-.228.229-.342.495-.342C906.7,1081.217,910.424,1083.117,910.424,1086.157Zm11.741-7.827a2.43,2.43,0,0,1-.077-.342.259.259,0,0,1,.266-.267,8.416,8.416,0,0,1,1.71.951c.607.3,2.128,1.216,2.128,2.317,0,.3-.152.342-.8.722a30.882,30.882,0,0,0-1.938,3.267,33.269,33.269,0,0,1-15.463,13.412.244.244,0,0,1-.229-.227,16.145,16.145,0,0,1,2.128-1.6c8.093-6.193,12.538-13.336,12.538-16.6A3.864,3.864,0,0,0,922.165,1078.33Zm-5.928,3.685c0,1.1-.608,1.938-1.292,1.938-.836,0-1.026-.95-1.14-1.6a11.9,11.9,0,0,0-1.4-3.609,4.322,4.322,0,0,1-.418-.836c0-.114.189-.229.38-.191A4.817,4.817,0,0,1,916.237,1082.015Z" fill="#333"/>
    <path id="パス_933" data-name="パス 933" d="M963.294,1096.415c0,.722-.265,1.444-.835,1.444-1.671,0-2.28-3.305-2.584-4.9-.19-.949-1.026-5.091-1.177-5.965-.153-.684-.342-1.178-1.027-1.178-.151,0-4.673,1.064-6.535,1.672a20.182,20.182,0,0,1-2.317.988c-.57,0-4.369-1.671-4.369-2.812,0-.3.265-.379.456-.379.341,0,1.937.151,2.279.151a43.232,43.232,0,0,0,9.232-1.292c.989-.189,1.254-.341,1.254-.987a22.752,22.752,0,0,0-.836-3.8c-.227-.949-.418-1.329-.987-1.329a46.044,46.044,0,0,0-5.243,1.444c-.912,0-3.458-1.369-3.458-2.052,0-.266.418-.266.76-.266a35.246,35.246,0,0,0,5.851-.646c1.33-.3,1.938-.532,1.938-1.254,0-.152-.494-3.761-2.165-5.2a15.575,15.575,0,0,1-1.748-1.368c0-.228,1.139-.646,1.975-.646.76,0,3.42.836,3.533,1.6.077.532.153,2.736.229,3.191.342,2.47.76,2.47,1.292,2.47a23.111,23.111,0,0,0,3.3-1.026c1.633-.722,1.824-.8,2.356-.8,1.216,0,2.279.8,2.279,1.4,0,.76-.759.912-3.533,1.444a31.385,31.385,0,0,0-3.838.836.84.84,0,0,0-.721.949,24.812,24.812,0,0,0,.683,3.42c.342,1.292.494,1.634,1.178,1.634a25.5,25.5,0,0,0,4.863-1.444,7.764,7.764,0,0,1,3.762-.949c2.014,0,2.85,1.025,2.85,1.671,0,1.14-1.558,1.178-2.926,1.178a40.173,40.173,0,0,0-6.839,1.1c-1.6.342-1.672.57-1.672,1.292C960.559,1086.992,963.294,1094.743,963.294,1096.415Z" fill="#333"/>
    <path id="パス_934" data-name="パス 934" d="M993.084,1070.351c.913,0,3,1.329,3,1.975,0,.19-.076,1.064-.076,1.254,0,4.408.076,7.827.114,8.739.039.456.228,2.356.228,2.736,0,.988-.874,1.937-1.443,1.937-.836,0-1.71-2.014-1.71-3,0-.3.19-1.6.19-1.9.075-1.71.075-3.192.075-3.875,0-4.256-.189-5.13-1.367-6.5-.3-.342-.494-.57-.494-.874C991.6,1070.579,992.21,1070.351,993.084,1070.351Zm10.45-1.064c-.456-.608-.494-.684-.494-.76,0-.114,0-.228,1.1-.228,2.279,0,4.18.95,4.18,1.938a15.041,15.041,0,0,1-.38,1.52c-.152,1.026-.191,6.724-.3,8.054a24.032,24.032,0,0,1-9.5,17.63,15.12,15.12,0,0,1-3.42,2.241c-.151,0-.227-.076-.227-.19,0-.151,2.469-2.583,2.925-3.077,7.333-7.827,7.6-14.438,7.6-22.037C1005.015,1071.415,1004.332,1070.427,1003.534,1069.287Z" fill="#333"/>
    <path id="パス_935" data-name="パス 935" d="M1052.883,1080.039a33.485,33.485,0,0,0,9.195,3c.152,0,.8.114.8.266,0,.114-.532.266-.684.3a6.592,6.592,0,0,0-2.888,2.051c-.113.152-.531.95-.721.95-.228,0-8.473-3.989-12.2-10.068-.721-1.216-.836-1.33-1.1-1.33s-.342.076-1.178.95a45.154,45.154,0,0,1-11.246,8.852c-1.292.684-5.244,2.432-5.966,2.432-.113,0-.189-.076-.189-.114s4.065-2.545,4.407-2.774c5.129-3.229,10.562-9.042,11.094-11.891.038-.3.076-.418.342-.418.19,0,3.268,1.178,3.457,1.291.115.038.494.19.494.57a2.381,2.381,0,0,1-.152.532C1046.424,1075.214,1049.692,1078.406,1052.883,1080.039Zm-18.313-9.46c-2.812,0-4.1.076-4.825.114-.114,0-.684.075-.8.075s-.19-.075-.342-.227l-.722-.874c-.152-.19-.152-.19-.152-.266s.038-.076.114-.076c.266,0,1.444.114,1.672.114,1.861.076,3.457.152,5.243.152h1.1c.8,0,1.026-.38,1.026-1.026a6.14,6.14,0,0,0-.3-2.013,5.835,5.835,0,0,1-.227-.761c0-.19.189-.266.418-.266.266,0,1.975.418,2.393.532,1.14.3,1.369.38,1.369.722,0,.228-.039.3-.571.988a.932.932,0,0,0-.265.684c0,.912.3,1.14,1.329,1.14h6.269c.342,0,1.14,0,1.14-1.026a15.773,15.773,0,0,0-.114-1.71c-.037-.19-.228-.988-.228-1.139,0-.191.228-.266.418-.266.266,0,2.85.607,3.268.722s.645.265.645.607c0,.228-.151.38-.569.684a1.216,1.216,0,0,0-.494,1.064c0,1.064.607,1.064,1.216,1.064h1.937c1.672,0,1.862,0,2.432-.646,1.064-1.254,1.177-1.406,1.519-1.406.229,0,3.534,2.014,3.534,2.508,0,.532-.759.532-2.013.532h-7.409c-1.178,0-1.178.607-1.178,1.519,0,.228.038,1.52.038,1.71,0,1.406-1.14,1.634-1.939,1.634-.873,0-1.025-.152-1.025-1.444v-2.621c-.114-.722-.57-.8-1.178-.8h-6.079c-.874,0-1.406,0-1.406,1.063,0,.38.114,2.052.114,2.394,0,.722-.114,1.064-.456,1.292a2.7,2.7,0,0,1-1.443.532c-.647,0-.95-.418-.95-1.178,0-.3.038-1.748.038-2.013,0-1.483,0-2.09-1.178-2.09Zm2.7,19.415a19.428,19.428,0,0,1,2.925,1.786.937.937,0,0,1,.3.569c0,.456-.3.533-1.215.76-.115.038-3.382,2.584-3.99,3.04a23.325,23.325,0,0,1-5.775,3.3.121.121,0,0,1-.114-.113c0-.077,2.013-1.825,2.279-2.09,3.154-3,5.092-6,5.434-7.219A.229.229,0,0,1,1037.268,1089.994Zm1.747-2.014c-2.963,0-4.065.038-4.825.114-.113,0-.684.076-.8.076s-.189-.076-.342-.228l-.721-.874c-.153-.19-.153-.19-.153-.265,0-.039.038-.077.115-.077.265,0,1.443.115,1.671.115,1.862.113,3.457.151,5.244.151h2.849c.38,0,1.14,0,1.14-1.025,0-.456-.228-3.534-.3-3.914,0-.076-.228-.456-.228-.532s.076-.228.379-.228c.267,0,2.926.57,3.306.684.532.114.722.456.722.646,0,.228-.075.3-.646.8-.532.456-.532.684-.532,1.823,0,1.368,0,1.748,1.141,1.748h1.671c1.671,0,1.862,0,2.431-.646,1.065-1.253,1.179-1.4,1.521-1.4.227,0,3.533,2.051,3.533,2.507,0,.532-.76.532-2.014.532h-7.18c-1.14,0-1.14.684-1.14,1.9,0,2.7,0,4.217.075,6.459.038.646.038,1.558.038,2.013,0,1.216-.3,1.938-1.937,1.938-.836,0-.912-.684-.912-1.329,0-.494.114-2.774.114-3.268.038-1.444.038-2.849.038-4.6a23.01,23.01,0,0,0-.076-2.584c-.19-.532-.8-.532-1.1-.532Zm10.145,3.192c0-.115.19-.152.341-.152,1.407,0,10.07,2.393,10.07,5.547,0,1.216-.685,2.165-1.634,2.165-.723,0-.874-.189-2.052-1.937a18.038,18.038,0,0,0-6.535-5.471C1049.312,1091.324,1049.16,1091.21,1049.16,1091.172Z" fill="#333"/>
  </g>
  <g id="グループ_185" data-name="グループ 185" transform="translate(-862.803 -1065.45)">
    <path id="パス_936" data-name="パス 936" d="M872.011,1122.75c-.324,0-.72-.109-.72-.576,0-.577.594-.577.72-.577h2.719c.72,0,.72.486.72.577,0,.576-.523.576-.72.576Z" fill="#333"/>
    <path id="パス_937" data-name="パス 937" d="M891.926,1128.153c.847,0,.99-.036,1.116-.162.163-.163.811-1.1,1.027-1.1a5.845,5.845,0,0,1,1.8,1.513c0,.233-.342.233-.937.233h-12.4c-.414,0-1.639,0-2.287.037a2.74,2.74,0,0,1-.378.054c-.054,0-.09-.054-.162-.126l-.342-.415c-.072-.071-.072-.09-.072-.107a.048.048,0,0,1,.054-.054c.126,0,.684.054.81.071.81.037,1.621.055,2.467.055Zm-1.584-13.2c.846,0,.954,0,1.116-.162.163-.145.811-1.045,1.027-1.045a5.608,5.608,0,0,1,1.782,1.459c0,.234-.342.234-.918.234h-9.272c-.4,0-1.639,0-2.27.036a2.718,2.718,0,0,1-.378.054c-.072,0-.107-.054-.162-.126l-.342-.414c-.072-.072-.09-.09-.09-.126s.054-.036.073-.036c.126,0,.683.054.792.072.828.035,1.638.054,2.466.054Zm-.99,6.481c.792,0,.864,0,1.026-.143.144-.145.739-.955.936-.955.144,0,1.728,1.027,1.728,1.351,0,.216-.089.216-.9.216H885.39c-.414,0-1.638,0-2.268.054-.072,0-.324.036-.378.036-.073,0-.108-.036-.162-.108l-.36-.415c-.055-.071-.072-.089-.072-.126,0-.018.017-.036.072-.036.126,0,.684.055.792.055.828.036,1.62.071,2.467.071Z" fill="#333"/>
    <path id="パス_938" data-name="パス 938" d="M904.512,1127.126c0,1.693-.828,2.629-1.674,2.629-.558,0-.72-.5-.72-.864,0-.576.27-.684,1.134-1.026a1.925,1.925,0,0,0,1.027-1.1c0-.018.071-.144.126-.144S904.512,1126.766,904.512,1127.126Zm.883-11.289c-.414,0-1.639,0-2.287.036a2.738,2.738,0,0,1-.378.054c-.054,0-.108-.054-.162-.126l-.342-.414c-.036-.054-.072-.09-.072-.108a.048.048,0,0,1,.054-.055c.108,0,.558.055.666.055.306.018,1.638.072,2.34.072a.456.456,0,0,0,.414-.468c0-.216-.017-.451-.035-.63-.018-.109-.144-.541-.144-.631,0-.216.252-.252.36-.252s1.548.288,1.548.595c0,.107-.054.179-.27.305-.2.126-.252.217-.252.721a.376.376,0,0,0,.414.36h.325a3.136,3.136,0,0,0,.882-.054c.144-.073.629-.775.791-.775a2.072,2.072,0,0,1,1.063,1.045c0,.27-.342.27-.972.27Zm2.232,4.789a1.117,1.117,0,0,0,.487-.09c.072-.036.342-.27.431-.27.073,0,1.135.739,1.135.991a.155.155,0,0,1-.126.162,4.687,4.687,0,0,1-.486.143c-.018.019-1.422.829-1.53.883-.415.234-.577.324-.577.5,0,.09.09.2.27.2.415,0,3.025-.54,3.025-.45,0,.252-2.5.99-2.934,1.116-.361.09-.361.342-.361.865,0,.936-.053,1.17-.215,1.4a1.86,1.86,0,0,1-1.118.72.3.3,0,0,1-.179-.054c-.126-.108-.577-.774-.7-.882-.073-.072-.54-.324-.54-.432,0-.036.108-.036.179-.036.126,0,.757.018.883.018.558,0,.558-.09.558-.973,0-.126-.144-.234-.306-.234-.054,0-1.747.306-1.891.361a2.014,2.014,0,0,1-.467.27c-.235,0-.721-1.459-.721-1.495,0-.054.018-.072.09-.072.108,0,.342.036.4.036a18.539,18.539,0,0,0,1.908.054c.775,0,.973-.108.973-.594,0-.108-.144-.631-.144-.756,0-.09.09-.108.18-.108.162,0,.936.233,1.116.233.361,0,.882-.792.882-.828,0-.2-.2-.2-.252-.2h-1.62c-.5,0-1.4,0-2.125.035-.054,0-.486.054-.522.054-.072,0-.108-.054-.161-.126l-.343-.414c-.073-.071-.073-.09-.073-.126s.037-.036.055-.036c.108,0,.666.055.792.072.523.019,1.458.054,2.467.054Zm-.414-3.529a.883.883,0,0,0,.63-.2c.217-.216.288-.288.4-.288.162,0,.972.414.972.738,0,.09-.288.433-.306.522v1.243c0,.4-.45.576-.739.576-.251,0-.269-.054-.414-.27a.409.409,0,0,0-.4-.18h-2.485a.509.509,0,0,0-.5.252c-.145.306-.235.54-.649.54a.478.478,0,0,1-.5-.36v-1.3c0-.252-.144-1.423-.144-1.513,0-.162.091-.234.27-.234a6.313,6.313,0,0,1,.9.36,2.075,2.075,0,0,0,.719.108Zm-2.43.486c-.45,0-.45.288-.45.595s0,.594.45.594h2.556c.433,0,.433-.288.433-.594s0-.595-.433-.595Zm2.377,9a2.017,2.017,0,0,1,1.4,1.729c0,.576-.252,1.188-.864,1.188-.378,0-.487-.234-.487-.594a10.4,10.4,0,0,0-.072-1.783c-.018-.09-.144-.45-.107-.486C907.051,1126.586,907.123,1126.586,907.16,1126.586Zm6.733-9.093a.494.494,0,0,0-.468.252c-.017.055-.162,1.315-.2,1.549-.018.144-.162.81-.162.954a.649.649,0,0,0,.2.5,2.4,2.4,0,0,1,.973,1.549c0,.288-.109.612-.379.612-.306,0-.7-.576-.918-.918a.179.179,0,0,0-.18-.126c-.144,0-.217.144-.27.269a7.093,7.093,0,0,1-4.087,3.782c-.019,0-.054,0-.054-.036s.054-.09.108-.126a7.275,7.275,0,0,0,1.548-1.441,7.513,7.513,0,0,0,1.746-3.348.611.611,0,0,0-.071-.271,9.629,9.629,0,0,0-1.171-1.1c-.288-.216-.414-.306-.414-.342,0-.018.018-.018.072-.018a2.84,2.84,0,0,1,.918.252c.54.288.6.324.666.324a.358.358,0,0,0,.325-.252c.018-.252.2-1.44.2-1.711a.373.373,0,0,0-.36-.36c-.2,0-1.315.09-1.477.09-.054,0-.09-.035-.162-.108l-.342-.414c-.072-.09-.072-.09-.072-.126s.036-.036.055-.036c.288,0,1.656.108,1.98.108a.467.467,0,0,0,.45-.45,17.769,17.769,0,0,0-.126-2.466,4.5,4.5,0,0,1-.162-.523c0-.126.071-.162.2-.162.18,0,1.531.342,1.6.36.127.054.288.144.288.306,0,.072-.035.127-.126.2-.035.036-.27.217-.324.252a7.661,7.661,0,0,0-.234,2.089.4.4,0,0,0,.414.414h1.008a.785.785,0,0,0,.613-.216c.306-.342.342-.378.45-.378.2,0,1.062.7,1.062.991,0,.09-.053.143-.162.216a2.625,2.625,0,0,1-.3.179c-.289.217-.361,2.863-.361,3.241,0,1.063.216,2.773.612,2.773.289,0,.829-1.836.972-2.557.019-.107.072-.161.108-.161.054,0,.054.089.054.126,0,.054-.252,1.98-.252,2.358,0,.811.054.9.271,1.207a1,1,0,0,1,.179.486c0,.234-.179.45-.629.45a2.091,2.091,0,0,1-1.477-.864,7.085,7.085,0,0,1-1.009-4.088c0-.54.073-1.692.145-2.268.017-.09.09-.558.09-.667,0-.162-.09-.36-.468-.36Zm-.918,11.182a.874.874,0,0,1-.792.9c-.414,0-.486-.306-.631-1.188a3.475,3.475,0,0,0-.485-1.477c-.019-.018-.072-.108-.055-.144C911.121,1126.586,912.975,1127.324,912.975,1128.675Zm4.825-.037a.845.845,0,0,1-.792.919c-.414,0-.45-.144-1.044-1.459a11.4,11.4,0,0,0-.864-1.386c-.018-.018-.055-.108-.036-.144C915.118,1126.478,917.8,1127.108,917.8,1128.638Z" fill="#333"/>
    <path id="パス_939" data-name="パス 939" d="M929.183,1128.747c-.2,0-.45,0-.522.306a.907.907,0,0,1-1.027.774c-.468,0-.468-.252-.468-.4,0-.18.072-1.314.09-1.566.054-.847.054-3.187.054-4.1,0-.667,0-.739-.162-.739a4.4,4.4,0,0,0-.5.252,8.444,8.444,0,0,1-2.629,1.1c-.09,0-.126-.054-.126-.108,0-.089.072-.125.612-.414a18.668,18.668,0,0,0,5.006-4.321,4.131,4.131,0,0,0,.468-.792c0-.144-.126-.162-.45-.162h-2.07c-.414,0-1.639.018-2.269.054-.072,0-.343.036-.4.036s-.09-.036-.144-.109l-.36-.414c-.073-.071-.073-.089-.073-.126,0-.017.018-.036.054-.036.126,0,.685.055.811.073.81.036,1.62.053,2.466.053h.414c.216,0,.342,0,.342-.143,0-.054-.5-1.945-.99-2.251-.18-.126-.306-.126-.756-.162-.738-.054-.81-.054-.81-.18s.054-.126.612-.2a63.276,63.276,0,0,0,9.039-1.549c.162-.036.9-.342,1.062-.342.36,0,1.531,1.207,1.531,1.387,0,.072-.072.162-.235.162-.072,0-.4-.054-.467-.054-.109,0-.829.035-.829.18,0,.072.432.378.486.414.4.252.45.306.45.486,0,.126-.018.126-.486.324a12.778,12.778,0,0,0-2.143,1.836c0,.09.055.09.288.09h1.585c.612,0,.7,0,1.044-.431.36-.433.649-.793.775-.793a6.621,6.621,0,0,1,1.836,1.495c0,.2-.54.2-1.062.2h-5.582c-.144,0-.216.018-.216.107a9.446,9.446,0,0,0,6.68,3.944c.667.108.774.126.774.2,0,.126-.216.162-.36.2a2.024,2.024,0,0,0-1.26.936c-.09.181-.162.36-.307.36a1.588,1.588,0,0,1-.845-.45c-.181-.144-.216-.162-.271-.162-.143,0-.324.181-.378.252-.324.325-.324.613-.324,1.261,0,.594.09,3.151.09,3.673,0,.306-.036.414-.2.522a1.671,1.671,0,0,1-.846.306c-.342,0-.36-.126-.433-.63-.035-.27-.305-.342-.521-.342Zm5.707-5.51a1.066,1.066,0,0,0,.775-.216c.108-.09.432-.378.432-.522,0-.072-.018-.09-.252-.288a10.975,10.975,0,0,1-2.593-2.9,4.687,4.687,0,0,0-.324-.522c-.072,0-.072.036-.072.216-.018.432.017,2.466.017,2.935a.844.844,0,0,1-.233.684,1.126,1.126,0,0,1-.666.306c-.469,0-.469-.342-.469-.522,0-.414.145-2.467.145-2.935,0-.234,0-.342-.126-.342-.072,0-.4.36-.433.414a15.836,15.836,0,0,1-2.574,2.521c-.414.306-.469.342-.469.414s.055.108.45.414a1.223,1.223,0,0,0,.991.342Zm-3.709-5.132c.288,0,.45-.107.486-.36.019-.071.019-.27.019-2.034,0-.2-.055-.36-.288-.36-.127,0-2.359.18-2.81.2-.378.018-.414.018-.414.09,0,.018.343.252.45.342a1.792,1.792,0,0,1,.865,1.458c0,.073-.054.414-.054.487,0,.179.09.179.432.179Zm-2.07,5.6c-.54,0-.54.324-.54.792,0,1.009,0,1.207.54,1.207h1.927c.522,0,.522-.324.522-.792,0-.955,0-1.207-.541-1.207Zm0,2.467c-.523,0-.523.252-.523,1.08,0,.793,0,1.027.54,1.027h1.891c.522,0,.541-.217.541-1.279,0-.5,0-.828-.522-.828Zm4.213-2.467c-.522,0-.522.252-.522,1.279,0,.4,0,.72.522.72h2.016c.523,0,.523-.342.523-.7,0-1.081-.036-1.3-.54-1.3Zm1.98,4.574c.523,0,.559-.181.559-1.261,0-.576,0-.846-.559-.846H933.36c-.54,0-.54.288-.54.7,0,1.261,0,1.405.558,1.405Zm-1.6-10.174a.724.724,0,0,0,.719-.414,7.6,7.6,0,0,0,1.135-2.52c0-.108-.036-.18-.162-.18-.091,0-.811.072-1.549.144-.847.072-.936.089-.99.234-.018.072-.018,1.422-.018,2.143,0,.324.018.593.54.593Z" fill="#333"/>
    <path id="パス_940" data-name="パス 940" d="M958.743,1120.266a15.846,15.846,0,0,0,4.357,1.423c.072,0,.378.054.378.126,0,.054-.252.126-.324.144a3.111,3.111,0,0,0-1.368.972c-.054.072-.252.45-.342.45a14.739,14.739,0,0,1-5.78-4.771c-.342-.576-.4-.631-.523-.631s-.161.036-.558.451a21.375,21.375,0,0,1-5.33,4.195,15.549,15.549,0,0,1-2.826,1.152c-.055,0-.09-.036-.09-.054s1.926-1.206,2.088-1.314c2.431-1.53,5.006-4.285,5.258-5.636.018-.144.036-.2.162-.2.09,0,1.549.559,1.639.612.054.018.233.09.233.27a1.115,1.115,0,0,1-.071.253A9.154,9.154,0,0,0,958.743,1120.266Zm-8.679-4.483c-1.332,0-1.944.036-2.287.054-.054,0-.323.036-.378.036s-.09-.036-.162-.108l-.342-.414c-.072-.09-.072-.09-.072-.127s.018-.035.054-.035c.126,0,.684.054.792.054.882.036,1.639.072,2.485.072h.522c.378,0,.487-.18.487-.486a2.929,2.929,0,0,0-.145-.955,2.727,2.727,0,0,1-.107-.36c0-.09.089-.126.2-.126.126,0,.936.2,1.135.252.54.144.648.18.648.342,0,.109-.019.144-.27.468a.442.442,0,0,0-.126.325c0,.432.144.54.629.54H956.1c.162,0,.54,0,.54-.486a7.506,7.506,0,0,0-.054-.811c-.018-.089-.108-.468-.108-.54,0-.09.108-.126.2-.126.126,0,1.35.288,1.548.342s.307.126.307.288c0,.109-.072.18-.271.324a.58.58,0,0,0-.234.5c0,.5.288.5.576.5h.919c.792,0,.882,0,1.152-.306.5-.6.558-.666.72-.666.108,0,1.675.954,1.675,1.188,0,.252-.36.252-.954.252H958.6c-.557,0-.557.288-.557.72,0,.108.017.72.017.81,0,.666-.54.775-.918.775-.414,0-.486-.073-.486-.685v-1.242c-.054-.342-.27-.378-.558-.378h-2.881c-.414,0-.667,0-.667.5,0,.18.055.973.055,1.135,0,.341-.055.5-.217.612a1.275,1.275,0,0,1-.683.252c-.307,0-.451-.2-.451-.559,0-.144.018-.828.018-.954,0-.7,0-.99-.558-.99Zm1.278,9.2a9.225,9.225,0,0,1,1.387.846.445.445,0,0,1,.143.27c0,.216-.143.252-.576.36-.053.018-1.6,1.224-1.89,1.44a11.044,11.044,0,0,1-2.737,1.567.056.056,0,0,1-.053-.054c0-.036.954-.864,1.08-.99A10.387,10.387,0,0,0,951.27,1125,.111.111,0,0,1,951.342,1124.984Zm.828-.955c-1.4,0-1.926.019-2.286.054-.054,0-.324.036-.379.036s-.089-.036-.161-.107L949,1123.6c-.072-.09-.072-.09-.072-.126,0-.018.019-.036.055-.036.126,0,.683.054.792.054.882.054,1.639.072,2.484.072h1.351c.18,0,.54,0,.54-.486,0-.216-.108-1.674-.144-1.854,0-.037-.108-.216-.108-.252s.036-.109.181-.109c.126,0,1.385.271,1.566.324.252.055.342.217.342.307,0,.107-.036.144-.306.378-.253.216-.253.324-.253.864,0,.648,0,.828.541.828h.792c.792,0,.882,0,1.153-.306.5-.594.557-.666.719-.666.109,0,1.675.972,1.675,1.188,0,.252-.36.252-.954.252h-3.4c-.54,0-.54.324-.54.9,0,1.278,0,2,.036,3.061.017.306.017.738.017.954,0,.576-.143.918-.918.918-.4,0-.432-.324-.432-.63,0-.234.054-1.314.054-1.549.018-.684.018-1.35.018-2.178a10.894,10.894,0,0,0-.036-1.224c-.09-.253-.378-.253-.522-.253Zm4.808,1.513c0-.054.09-.072.162-.072.666,0,4.772,1.134,4.772,2.628,0,.577-.325,1.027-.775,1.027-.342,0-.414-.09-.971-.918a8.559,8.559,0,0,0-3.1-2.593C957.05,1125.614,956.978,1125.56,956.978,1125.542Z" fill="#333"/>
    <path id="パス_941" data-name="パス 941" d="M969.74,1117.3a4.241,4.241,0,0,0,1.494.379,46.661,46.661,0,0,0,6.788-.847c.559-.252.63-.288.756-.288.4,0,.684.252,1.243.738.81.721.918.919.918,1.171,0,.233-.09.324-.414.648a2.979,2.979,0,0,0-.7,1.134,18.328,18.328,0,0,1-9.291,8.391.12.12,0,0,1-.126-.108c0-.072.053-.108.234-.234a23.427,23.427,0,0,0,7.111-7.131,10.147,10.147,0,0,0,1.225-3.043c0-.3-.306-.323-.4-.323a59.1,59.1,0,0,0-6.483,1.3,6.482,6.482,0,0,1-.9.4c-.414,0-1.855-.9-1.855-1.891,0-.342.054-.4.162-.4C969.541,1117.187,969.7,1117.3,969.74,1117.3Zm13.2-.072c0,.252-.233.685-.558.685-.288,0-.432-.181-.918-.865a5.349,5.349,0,0,0-1.17-1.17c-.073-.054-.252-.216-.252-.288s.162-.126.324-.126C981.641,1115.459,982.937,1116.4,982.937,1117.223Zm1.369-1.368c0,.2-.144.54-.469.54-.395,0-.612-.324-.918-.738a4.48,4.48,0,0,0-1.494-1.1c-.18-.089-.234-.162-.234-.215,0-.181.54-.181.684-.181C982.631,1114.162,984.306,1114.7,984.306,1115.855Z" fill="#333"/>
    <path id="パス_942" data-name="パス 942" d="M993.315,1119.438a18.09,18.09,0,0,0-.144,3.385c0,.522,0,.954.594.954.775,0,5.384-1.944,8.553-4.7.252-.216.288-.252.414-.252a.141.141,0,0,1,.143.144,22.615,22.615,0,0,1-7.075,5.4c-2.089,1.081-2.233,1.189-2.611,1.657-.09.126-.126.144-.2.144-.144,0-1.224-.882-1.224-1.368,0-.09.144-.811.161-.847a13.588,13.588,0,0,0,.091-2.322c0-2.377,0-2.863-.469-3.709a3.489,3.489,0,0,1-.395-.7c0-.072.107-.089.179-.089.2,0,2.269.359,2.269,1.1C993.6,1118.376,993.351,1119.24,993.315,1119.438Z" fill="#333"/>
    <path id="パス_943" data-name="パス 943" d="M1014.781,1125.164a12.575,12.575,0,0,0-1.765,1.476c-.342.415-.378.45-.647.45-.973,0-2.3-1.152-2.3-1.872,0-.126.018-.955.18-.955a4.693,4.693,0,0,1,.54.342,2.965,2.965,0,0,0,1.224.414c.882,0,5.654-3.186,8.643-6.139.288-.288.792-.792.828-.792a.114.114,0,0,1,.09.09C1021.569,1118.34,1019.462,1121.707,1014.781,1125.164Zm-1.477-5.924c-.486,0-.666-.288-1.26-1.188a4.06,4.06,0,0,0-1.638-1.477c-.073-.036-.162-.09-.162-.162s.143-.162.4-.162c1.926,0,3.439,1.026,3.439,2.089A.8.8,0,0,1,1013.3,1119.24Z" fill="#333"/>
    <path id="パス_944" data-name="パス 944" d="M1031.041,1114.865c.649,0,1.945.576,1.945,1.152,0,.126-.18.648-.2.756a22.844,22.844,0,0,0-.181,2.521c0,.378.09.45.595.558,1.152.27,3.907,1.584,3.907,2.917a.631.631,0,0,1-.667.63c-.432,0-.45-.036-1.693-1.638-.5-.648-1.35-1.513-1.908-1.513-.2,0-.252,0-.252,1.333,0,1.908.018,2.862.09,4.483.018.2.036.648.036.918,0,.432,0,1.639-.522,1.639-.558,0-1.008-1.225-1.008-1.692,0-.073.071-.451.071-.523a24.062,24.062,0,0,0,.162-4.177c0-5.33,0-5.726-.215-6.3a2.017,2.017,0,0,0-.63-.829.124.124,0,0,1-.036-.071C1030.574,1114.883,1031.024,1114.865,1031.041,1114.865Zm7.581,3.079c0,.234-.2.684-.558.684-.271,0-.433-.18-.9-.865a5.047,5.047,0,0,0-1.171-1.17c-.072-.054-.252-.216-.252-.288,0-.09.162-.126.324-.126C1037.343,1116.179,1038.622,1117.134,1038.622,1117.944Zm1.459-2.053c0,.2-.145.54-.469.54-.4,0-.613-.288-.936-.7a4.546,4.546,0,0,0-1.549-1.027c-.179-.071-.234-.161-.234-.2,0-.109.217-.217.685-.217C1038.873,1114.288,1040.081,1115.009,1040.081,1115.891Z" fill="#333"/>
    <path id="パス_945" data-name="パス 945" d="M1045.715,1122.75c-.324,0-.72-.109-.72-.576,0-.577.594-.577.72-.577h2.719c.72,0,.72.486.72.577,0,.576-.522.576-.72.576Z" fill="#333"/>
  </g>
  <g id="グループ_187" data-name="グループ 187" transform="translate(-862.803 -1065.45)">
    <g id="グループ_186" data-name="グループ 186">
      <path id="パス_946" data-name="パス 946" d="M904.407,1154.648h-1.6l-3.11-4.468h-.546v4.468h-1.317v-10.561h1.6a5.574,5.574,0,0,1,2.787.49,2.923,2.923,0,0,1,1.387,2.521,2.875,2.875,0,0,1-2.535,2.956Zm-5.253-5.56h.42c1.344,0,2.8-.253,2.8-1.934,0-1.652-1.568-1.891-2.871-1.891h-.35Z" fill="#333"/>
      <path id="パス_947" data-name="パス 947" d="M910.764,1144.087h5.673v1.2h-4.356v2.956h4.23v1.2h-4.23v3.992h4.356v1.2h-5.673Z" fill="#333"/>
      <path id="パス_948" data-name="パス 948" d="M924.61,1145.291v2.97h3.67v1.2h-3.67v5.182h-1.318v-10.561h5.114v1.2Z" fill="#333"/>
      <path id="パス_949" data-name="パス 949" d="M941.585,1154.648h-1.6l-3.111-4.468h-.545v4.468h-1.317v-10.561h1.6a5.574,5.574,0,0,1,2.787.49,2.923,2.923,0,0,1,1.387,2.521,2.875,2.875,0,0,1-2.536,2.956Zm-5.252-5.56h.419c1.345,0,2.8-.253,2.8-1.934,0-1.652-1.568-1.891-2.871-1.891h-.35Z" fill="#333"/>
      <path id="パス_950" data-name="パス 950" d="M947.944,1144.087h5.673v1.2H949.26v2.956h4.231v1.2H949.26v3.992h4.357v1.2h-5.673Z" fill="#333"/>
      <path id="パス_951" data-name="パス 951" d="M965.016,1146.09a1.808,1.808,0,0,0-1.7-.994,1.665,1.665,0,0,0-1.765,1.5c0,.827.813,1.26,1.471,1.512l.757.3c1.5.588,2.619,1.414,2.619,3.18a3.257,3.257,0,0,1-3.376,3.292,3.292,3.292,0,0,1-3.264-2.956l1.331-.28a2,2,0,1,0,3.992-.056c0-1.135-.911-1.625-1.821-2l-.728-.309c-1.205-.518-2.3-1.205-2.3-2.675a2.88,2.88,0,0,1,3.109-2.732,3.012,3.012,0,0,1,2.718,1.6Z" fill="#333"/>
      <path id="パス_952" data-name="パス 952" d="M979.432,1148.345v-4.258h1.316v10.561h-1.316v-5.07H974.4v5.07h-1.317v-10.561H974.4v4.258Z" fill="#333"/>
      <path id="パス_953" data-name="パス 953" d="M989.388,1154.648h-1.316v-10.561h1.316Z" fill="#333"/>
      <path id="パス_954" data-name="パス 954" d="M996.686,1143.582l7.928,8.306v-7.8h1.317v11L998,1146.776v7.872h-1.316Z" fill="#333"/>
      <path id="パス_955" data-name="パス 955" d="M1022.972,1149.325v.421a4.906,4.906,0,0,1-5,5.127,5.507,5.507,0,0,1,.141-11.011,5.537,5.537,0,0,1,4.3,2.046l-.925.882a4.163,4.163,0,0,0-7.535,2.563,4.313,4.313,0,0,0,4.1,4.315,3.547,3.547,0,0,0,3.46-3.138h-2.731v-1.205Z" fill="#333"/>
    </g>
  </g>
  <g id="グループ_188" data-name="グループ 188" transform="translate(-862.803 -1065.45)">
    <path id="パス_956" data-name="パス 956" d="M896.173,1175.564a2.393,2.393,0,0,0-1.168-.188,4.779,4.779,0,0,0-1.2.268,4,4,0,0,1,2.739.739,2.7,2.7,0,0,1,.913,2.51,8.169,8.169,0,0,1-.818,2.874,22.173,22.173,0,0,1-1.518,2.632q-.7,1.047-1.585,2.135a14.6,14.6,0,0,1-1.959,1.987,12.526,12.526,0,0,1-2.3,1.531,6.709,6.709,0,0,1-2.565.738,4.728,4.728,0,0,1-1.275-.067,1.989,1.989,0,0,1-1.115-.6,2.128,2.128,0,0,1-.591-1.263,5.41,5.41,0,0,1,.027-1.423,9.743,9.743,0,0,1,.927-2.806,24.623,24.623,0,0,1,1.49-2.565,20.321,20.321,0,0,1,1.719-2.429,27.262,27.262,0,0,1,2.013-2.19,21.376,21.376,0,0,1,2.189-1.8,6.206,6.206,0,0,1,2.564-1.1,5.692,5.692,0,0,1,1.035-.081,1.423,1.423,0,0,1,.953.3.442.442,0,0,1,.175.308.514.514,0,0,1-.068.309.487.487,0,0,1-.241.2A.434.434,0,0,1,896.173,1175.564Zm-5.1,1.772a17.1,17.1,0,0,0-2.162,2.108,27.35,27.35,0,0,0-1.84,2.4,19.591,19.591,0,0,0-1.49,2.565,10.971,10.971,0,0,0-.927,2.807,4.994,4.994,0,0,0-.08.6,3.138,3.138,0,0,0,.013.658,2.222,2.222,0,0,0,.161.6,1.1,1.1,0,0,0,.389.47,1.687,1.687,0,0,0,1.034.309,5.623,5.623,0,0,0,1.061-.121,7.4,7.4,0,0,0,2.685-1.128,19.053,19.053,0,0,0,2.284-1.8,17.286,17.286,0,0,0,2-2.2,14.626,14.626,0,0,0,1.544-2.524c.161-.323.339-.712.537-1.168a7.206,7.206,0,0,0,.443-1.41,4.113,4.113,0,0,0,.054-1.4,1.813,1.813,0,0,0-.605-1.128,1.735,1.735,0,0,0-1.208-.47,7.231,7.231,0,0,0-1.343.094.438.438,0,0,1-.429-.135.573.573,0,0,1-.161-.482,10.114,10.114,0,0,0-1.061.671Q891.448,1177.042,891.072,1177.336Z" fill="#333"/>
    <path id="パス_957" data-name="パス 957" d="M895.4,1186.252q.564-.3,1.114-.591t1.195-.671a1.3,1.3,0,0,1,.309-.967,1.063,1.063,0,0,1,.927-.429.545.545,0,0,1,.483.376.654.654,0,0,1-.107.617,1.806,1.806,0,0,1-.565.537.9.9,0,0,0,.457.107,2.465,2.465,0,0,0,1.182-.2,7.776,7.776,0,0,0,1.1-.551q.484-.161.619.108a.641.641,0,0,1-.108.644c-.09.144-.193.327-.309.551a4.939,4.939,0,0,0-.295.685,2.342,2.342,0,0,0-.135.671.607.607,0,0,0,.2.51q.133.162.711,0t1.545-.537q.322-.133.657-.308c.224-.117.452-.229.686-.336a1.462,1.462,0,0,0,.241-.121,1.232,1.232,0,0,1,.309-.134.436.436,0,0,1,.268,0c.081.026.121.121.121.282a.314.314,0,0,1-.121.241,1.428,1.428,0,0,1-.268.189,1.913,1.913,0,0,1-.309.133c-.107.037-.188.064-.241.081l-1.128.51-.739.4a6.183,6.183,0,0,1-.9.4,2.664,2.664,0,0,1-.886.161.77.77,0,0,1-.671-.349.882.882,0,0,1-.162-.417,1.588,1.588,0,0,1,.014-.456,4.029,4.029,0,0,1,.108-.457q.066-.227.121-.442l.214-.887c-.089.019-.273.064-.55.135a5.467,5.467,0,0,1-.9.147,4.521,4.521,0,0,1-.926-.013.9.9,0,0,1-.659-.349c-.3.161-.554.3-.752.4s-.4.224-.6.349-.372.224-.5.295a1.594,1.594,0,0,0-.376.2.316.316,0,0,1-.376.041.335.335,0,0,1-.161-.3A.276.276,0,0,1,895.4,1186.252Z" fill="#333"/>
    <path id="パス_958" data-name="パス 958" d="M908.194,1184.963c.071-.035.237-.108.5-.215a4.3,4.3,0,0,1,.765-.241,1.428,1.428,0,0,1,.644-.014q.269.067.189.5a1.344,1.344,0,0,1-.229.483,1.841,1.841,0,0,0-.255.484,6.014,6.014,0,0,0-.308.859.9.9,0,0,0,.093.832,2.54,2.54,0,0,0,1.007-.107q.551-.162,1.007-.322a5.067,5.067,0,0,0,.511-.269c.25-.143.513-.282.792-.416a4.447,4.447,0,0,1,.765-.3c.233-.062.376-.04.43.067.071.126.026.26-.135.4a2.588,2.588,0,0,1-.6.388c-.241.118-.488.225-.739.323s-.412.166-.483.2q-.591.294-1.2.577a4.83,4.83,0,0,1-1.248.389.736.736,0,0,1-.78-.242,1.445,1.445,0,0,1-.214-.819,4.334,4.334,0,0,1,.148-1.074q.147-.578.309-1.061c-.413.162-.816.309-1.209.444a10.86,10.86,0,0,0-1.155.469q-.483.216-.966.484a.406.406,0,0,1-.47-.148c-.116-.152-.068-.282.147-.389Zm3.141-5.425a1.573,1.573,0,0,1,.416-.6,2.533,2.533,0,0,1,.632-.417,4.063,4.063,0,0,1,.739-.254c.258-.063.505-.112.738-.148a9.678,9.678,0,0,1,1.906.08,1.464,1.464,0,0,1,.363.054.238.238,0,0,1,.174.3.389.389,0,0,1-.134.228.269.269,0,0,1-.242.067,6.389,6.389,0,0,0-1.624-.12,2.881,2.881,0,0,0-1.517.5.872.872,0,0,0-.376.429.968.968,0,0,1-.323.43.421.421,0,0,1-.563,0A.442.442,0,0,1,911.335,1179.538Z" fill="#333"/>
    <path id="パス_959" data-name="パス 959" d="M913.708,1186.279q.7-.348,1.37-.672c.447-.215.9-.411,1.37-.591a9.62,9.62,0,0,1,1.49-.4,8.575,8.575,0,0,1,1.544-.135.655.655,0,0,1,.457.148q.16.147.026.5a.524.524,0,0,1-.483.268,9.49,9.49,0,0,0-1.409,0,4.395,4.395,0,0,0-1.357.323,2.216,2.216,0,0,0-.457.242,2.81,2.81,0,0,0-.442.362,1.11,1.11,0,0,0-.282.444.643.643,0,0,0,.053.509.968.968,0,0,0,.82.537,2.786,2.786,0,0,0,1.033-.026,2.849,2.849,0,0,0,.618-.215l.483-.242a1.766,1.766,0,0,1,.389-.147.407.407,0,0,1,.363.121.568.568,0,0,1,.013.617q-.174.348-.281.591l-.376.885q.724-.751,1.53-1.436a12.356,12.356,0,0,1,1.719-1.222c.054-.035.125-.089.215-.161a2.442,2.442,0,0,1,.3-.2,1.216,1.216,0,0,1,.322-.135.3.3,0,0,1,.268.041c.125.09.17.179.134.269a.824.824,0,0,1-.187.268q-.7.376-1.343.806a12.378,12.378,0,0,0-1.263.966,15.975,15.975,0,0,0-1.329,1.262,15.488,15.488,0,0,0-1.168,1.4l-.7,1.611q-.322.805-.645,1.638c-.214.555-.448,1.1-.7,1.639q-.081.16-.2.388a3.5,3.5,0,0,1-.269.43,1.16,1.16,0,0,1-.349.322.688.688,0,0,1-.443.095.492.492,0,0,1-.417-.3,1.07,1.07,0,0,1-.053-.537,3.406,3.406,0,0,1,.135-.591q.093-.3.173-.483a13.911,13.911,0,0,1,1.277-2.35,24.759,24.759,0,0,1,1.624-2.162l.913-2.605a6.879,6.879,0,0,1-1.033.2,4.447,4.447,0,0,1-1.035.013,2.328,2.328,0,0,1-.873-.268,1.455,1.455,0,0,1-.55-1.826q-.215.133-.443.282a.46.46,0,0,1-.389.094.291.291,0,0,1-.323-.229A.272.272,0,0,1,913.708,1186.279Z" fill="#333"/>
    <path id="パス_960" data-name="パス 960" d="M925.452,1184.963c.071-.035.237-.108.5-.215a4.288,4.288,0,0,1,.764-.241,1.432,1.432,0,0,1,.645-.014q.269.067.188.5a1.325,1.325,0,0,1-.228.483,1.843,1.843,0,0,0-.255.484,6.127,6.127,0,0,0-.309.859.906.906,0,0,0,.094.832,2.54,2.54,0,0,0,1.007-.107q.551-.162,1.007-.322a4.974,4.974,0,0,0,.51-.269q.375-.214.793-.416a4.447,4.447,0,0,1,.765-.3q.35-.093.43.067c.071.126.026.26-.135.4a2.588,2.588,0,0,1-.6.388c-.242.118-.488.225-.739.323s-.412.166-.483.2q-.591.294-1.2.577a4.83,4.83,0,0,1-1.248.389.736.736,0,0,1-.78-.242,1.445,1.445,0,0,1-.215-.819,4.338,4.338,0,0,1,.149-1.074q.147-.578.308-1.061c-.412.162-.815.309-1.209.444a10.938,10.938,0,0,0-1.154.469q-.483.216-.967.484a.4.4,0,0,1-.469-.148q-.176-.228.147-.389Zm3.141-5.425a1.573,1.573,0,0,1,.416-.6,2.533,2.533,0,0,1,.632-.417,4.051,4.051,0,0,1,.738-.254c.259-.063.506-.112.739-.148a9.678,9.678,0,0,1,1.906.08,1.47,1.47,0,0,1,.363.054.238.238,0,0,1,.174.3.4.4,0,0,1-.134.228.269.269,0,0,1-.242.067,6.4,6.4,0,0,0-1.624-.12,2.887,2.887,0,0,0-1.518.5.881.881,0,0,0-.376.429.96.96,0,0,1-.322.43.421.421,0,0,1-.563,0A.441.441,0,0,1,928.593,1179.538Z" fill="#333"/>
    <path id="パス_961" data-name="パス 961" d="M930.841,1186.279c.2-.107.537-.291,1.021-.551s.98-.506,1.49-.738a6.809,6.809,0,0,1,1.41-.483q.645-.135.806.214a.531.531,0,0,1-.068.524,2.232,2.232,0,0,0-.254.47l-.323.752a6.532,6.532,0,0,1,.7-.376l.7-.323q.858-.454,1.772-.966a8.7,8.7,0,0,1,1.853-.779,1.327,1.327,0,0,1,.618-.013.776.776,0,0,1,.416.241.686.686,0,0,1,.147.457,1.107,1.107,0,0,1-.214.6,4.457,4.457,0,0,1-.524.671q-.282.3-.577.645a1.585,1.585,0,0,1-.189.215c-.089.089-.183.192-.282.308s-.187.234-.268.35a.886.886,0,0,0-.148.308,1,1,0,0,0,.47,0,4.28,4.28,0,0,0,.564-.147q.282-.094.538-.2c.17-.072.3-.125.388-.161l1.1-.484c.071-.036.165-.09.282-.161s.236-.139.362-.2.246-.12.363-.174a.713.713,0,0,1,.282-.081.213.213,0,0,1,.241.242.42.42,0,0,1-.215.376c-.161.09-.331.174-.51.255l-.564.255c-.251.144-.492.269-.725.376s-.474.224-.725.35c-.143.071-.371.173-.685.308a4.731,4.731,0,0,1-.939.3,1.563,1.563,0,0,1-.82-.026q-.348-.122-.348-.658a.892.892,0,0,1,.134-.484,3.362,3.362,0,0,1,.308-.416,5.1,5.1,0,0,1,.376-.39q.2-.187.363-.348a5.939,5.939,0,0,0,.538-.565,2.187,2.187,0,0,0,.483-.8,5.57,5.57,0,0,0-1.464.376,14.782,14.782,0,0,0-1.356.618q-.78.376-1.612.846a6.249,6.249,0,0,0-1.45,1.114.528.528,0,0,1-.281.121.51.51,0,0,1-.282-.054.431.431,0,0,1-.2-.2.5.5,0,0,1-.014-.35.832.832,0,0,1,.4-.429,4.983,4.983,0,0,0,.269-.5,1.636,1.636,0,0,1,.188-.335c.035-.125.072-.256.108-.39a3.249,3.249,0,0,0,.08-.416c-.2.054-.394.116-.591.188s-.349.126-.456.161c-.251.107-.5.211-.752.308s-.5.211-.752.336c-.144.072-.274.144-.39.215a2.225,2.225,0,0,1-.389.189.432.432,0,0,1-.309.04.506.506,0,0,1-.227-.122.232.232,0,0,1-.068-.2C930.649,1186.4,930.716,1186.333,930.841,1186.279Z" fill="#333"/>
    <path id="パス_962" data-name="パス 962" d="M943.06,1186.279q.321-.161.818-.417t1.061-.5q.564-.242,1.088-.457c.349-.143.639-.259.873-.349.125-.053.348-.134.671-.242s.662-.2,1.02-.3a7.838,7.838,0,0,1,1.007-.188,1.1,1.1,0,0,1,.686.081c.214.2.255.376.12.537a.819.819,0,0,1-.5.3l-1.209.135a2.735,2.735,0,0,0-.631.255q-.255.147-.577.362c-.09.072-.246.22-.47.443s-.443.466-.658.725a4.32,4.32,0,0,0-.511.752q-.187.363,0,.524a.606.606,0,0,0,.524.054,4.245,4.245,0,0,0,.739-.242c.25-.108.483-.219.7-.336a4.154,4.154,0,0,0,.43-.255,5.779,5.779,0,0,0,1.261-1.021.356.356,0,0,1,.524-.067.455.455,0,0,1,.175.551.741.741,0,0,1-.188.322l-.256.255a.95.95,0,0,0-.2.336c-.071.126-.09.22-.054.282a.264.264,0,0,0,.189.121,2.946,2.946,0,0,0,.939-.054,10.531,10.531,0,0,0,1.168-.3,11.643,11.643,0,0,0,1.2-.444q.59-.255,1.02-.47a1.1,1.1,0,0,0,.295-.147,2.281,2.281,0,0,1,.39-.2,1.037,1.037,0,0,1,.389-.081.278.278,0,0,1,.269.161.22.22,0,0,1-.014.3.935.935,0,0,1-.336.227c-.143.064-.286.121-.429.175s-.251.1-.323.135q-.456.215-.913.416l-.939.416c-.215.09-.447.2-.7.322a5.9,5.9,0,0,1-.779.322,4.247,4.247,0,0,1-.819.188,1.543,1.543,0,0,1-.766-.08.8.8,0,0,1-.537-.524,1.373,1.373,0,0,1,.027-.711l-.725.429q-.457.268-.953.551a2.589,2.589,0,0,1-1.034.335,1.4,1.4,0,0,1-.86-.215.883.883,0,0,1-.4-.751,1.579,1.579,0,0,1,.215-.685,5.843,5.843,0,0,1,.55-.86,6.449,6.449,0,0,1,.739-.818,3.7,3.7,0,0,1,.752-.565,5.448,5.448,0,0,0-.6.243c-.277.125-.591.277-.939.456s-.717.362-1.1.55-.738.363-1.06.524a.322.322,0,0,1-.269.04.358.358,0,0,1-.2-.134.3.3,0,0,1-.054-.215A.272.272,0,0,1,943.06,1186.279Z" fill="#333"/>
    <path id="パス_963" data-name="パス 963" d="M954.893,1186.252a17.019,17.019,0,0,0,1.611-.832q.778-.458,1.558-.994a14.343,14.343,0,0,1,.832-1.451q.457-.7.887-1.369.454-.618.913-1.249t.939-1.249q.4-.536.873-1.087a4.028,4.028,0,0,1,1.088-.9,2.226,2.226,0,0,1,.725-.228.5.5,0,0,1,.591.389.857.857,0,0,1,.013.578,2.4,2.4,0,0,1-.282.564,6.151,6.151,0,0,1-.4.537c-.144.171-.26.318-.35.443a21.476,21.476,0,0,1-2.4,2.86,25.024,25.024,0,0,1-2.861,2.457q-.133.323-.308.685a6.4,6.4,0,0,0-.309.766,4.367,4.367,0,0,0-.188.792,2.016,2.016,0,0,0,.027.738c.2-.035.376-.063.537-.08.143-.019.278-.031.4-.041a.805.805,0,0,0,.242-.04,12.154,12.154,0,0,0,1.584-.43q.779-.268,1.531-.591a2.2,2.2,0,0,0,.51-.215.483.483,0,0,1,.511-.026c.2.144.223.273.08.389a1.76,1.76,0,0,1-.4.256l-3.115,1.154c-.3.107-.6.22-.887.336a2.779,2.779,0,0,1-.885.2.874.874,0,0,1-.645-.121.906.906,0,0,1-.336-.456,1.559,1.559,0,0,1-.067-.618,3.344,3.344,0,0,1,.107-.631,9.381,9.381,0,0,1,.483-1.289,20.706,20.706,0,0,1-2.309,1.316.416.416,0,0,1-.442-.175Q954.571,1186.413,954.893,1186.252Zm5.451-3.679a20.754,20.754,0,0,0,2.31-2.552,9.071,9.071,0,0,0,.913-1.289c.036-.089.09-.2.161-.335a3.41,3.41,0,0,0,.188-.417,2.917,2.917,0,0,0-.711.511c-.225.215-.408.394-.551.537a14.39,14.39,0,0,0-1.155,1.3q-.537.684-1.074,1.409c-.2.287-.385.568-.564.846s-.349.56-.51.846q.242-.187.5-.417C960.018,1182.864,960.183,1182.717,960.344,1182.573Z" fill="#333"/>
    <path id="パス_964" data-name="パス 964" d="M973.609,1181.015a18.417,18.417,0,0,1,2.471-1.839q1.315-.819,2.659-1.518.939-.483,1.932-.913a20.028,20.028,0,0,1,2.041-.751l.269-.322q.483-.511,1.034-.994a3.847,3.847,0,0,1,1.2-.725,3.483,3.483,0,0,1,.47-.107,2.208,2.208,0,0,1,.591-.028.885.885,0,0,1,.47.175q.188.148.081.5a.406.406,0,0,1-.242.269.53.53,0,0,1-.4,0,.825.825,0,0,0-.511-.054,2.04,2.04,0,0,0-.549.2,3.505,3.505,0,0,0-.551.362q-.27.216-.483.376a11.553,11.553,0,0,1,1.422-.133,6.072,6.072,0,0,1,1.464.12,3.735,3.735,0,0,1,1.3.537,2.522,2.522,0,0,1,.913,1.114,1.587,1.587,0,0,1,.04,1.289,3.521,3.521,0,0,1-.779,1.142,7.361,7.361,0,0,1-1.155.94q-.63.416-1.114.685-1.128.7-2.3,1.289t-2.377,1.128a17.253,17.253,0,0,1,2.431-.31,4.786,4.786,0,0,1,2.242.39,1.882,1.882,0,0,1,.886.684,1.984,1.984,0,0,1,.336.954,2.357,2.357,0,0,1-.161,1.034,2.635,2.635,0,0,1-.6.926,6.319,6.319,0,0,1-2.389,1.491,28.147,28.147,0,0,1-2.713.819,28.463,28.463,0,0,1-4.753.886,1.478,1.478,0,0,0,.4.618.432.432,0,0,1,.188.376.41.41,0,0,1-.188.295.629.629,0,0,1-.39.095.58.58,0,0,1-.416-.256,2.053,2.053,0,0,1-.295-.51,5.175,5.175,0,0,1-.188-.565,13.1,13.1,0,0,1-1.5.081,9.979,9.979,0,0,1-1.5-.107c-.143-.018-.336-.045-.577-.081a4.344,4.344,0,0,1-.725-.174,2.029,2.029,0,0,1-.618-.322.612.612,0,0,1-.256-.5c0-.234.064-.372.189-.416a.569.569,0,0,1,.416.026,3.46,3.46,0,0,1,.47.242,2.933,2.933,0,0,0,.376.2,5.786,5.786,0,0,0,1.557.322c.537.035,1.075.054,1.612.054h.483a6.648,6.648,0,0,1,.282-2.068q.309-1.047.6-1.826l.134-.4c-.125.053-.251.1-.376.147a4.03,4.03,0,0,1-.4.121h-.027a.81.81,0,0,1-.5-.04c-.135-.062-.194-.2-.175-.416a.4.4,0,0,1,.175-.322,1.663,1.663,0,0,1,.416-.229,3.047,3.047,0,0,1,.523-.147c.188-.036.354-.071.5-.108l.349-.081q.457-1.047.98-2.041t1.115-1.96q.564-.939,1.154-1.866t1.263-1.786q-.753.3-1.451.617t-1.315.645a17.544,17.544,0,0,0-1.921,1.088,17.985,17.985,0,0,0-1.785,1.329,2.548,2.548,0,0,0-.309.309c-.117.134-.238.269-.363.4a2.727,2.727,0,0,1-.389.349.52.52,0,0,1-.389.12.435.435,0,0,1-.416-.322A.467.467,0,0,1,973.609,1181.015Zm3.142,7.841a3.235,3.235,0,0,0-.081,1.128q1.236-.107,2.457-.322a18.326,18.326,0,0,0,2.4-.591q.59-.161,1.289-.389a10.514,10.514,0,0,0,1.356-.55,7.868,7.868,0,0,0,1.222-.739,3.168,3.168,0,0,0,.887-.98,1.111,1.111,0,0,0,.161-1.114,1.567,1.567,0,0,0-.78-.645,4.383,4.383,0,0,0-1.194-.308,9.276,9.276,0,0,0-1.088-.082q-1.1.055-2.256.2a18.129,18.129,0,0,0-2.282.443l-1.181.457h-.028a14.286,14.286,0,0,0-.577,1.719A10.511,10.511,0,0,0,976.751,1188.856Zm5.344-11.091q-.94,1.209-1.759,2.485a27.944,27.944,0,0,0-1.49,2.618c-.143.251-.278.5-.4.752s-.241.5-.349.752q1.5-.51,2.967-1.154t2.86-1.371a19.085,19.085,0,0,0,1.759-.993,12.13,12.13,0,0,0,1.6-1.209,8.488,8.488,0,0,0,.684-.711,1.6,1.6,0,0,0,.417-.873.742.742,0,0,0-.094-.457,1.454,1.454,0,0,0-.323-.388,2.836,2.836,0,0,0-.429-.31,3.988,3.988,0,0,0-.416-.215,4.963,4.963,0,0,0-1.988-.348,8.951,8.951,0,0,0-2.067.295c-.18.179-.35.363-.511.55S982.238,1177.569,982.095,1177.765Z" fill="#333"/>
    <path id="パス_965" data-name="パス 965" d="M988.4,1186.252a17.01,17.01,0,0,0,1.611-.832q.779-.458,1.558-.994a14.343,14.343,0,0,1,.832-1.451q.457-.7.887-1.369.454-.618.913-1.249t.939-1.249q.4-.536.873-1.087a4.028,4.028,0,0,1,1.088-.9,2.217,2.217,0,0,1,.725-.228.5.5,0,0,1,.591.389.858.858,0,0,1,.013.578,2.4,2.4,0,0,1-.282.564,6.151,6.151,0,0,1-.4.537c-.144.171-.26.318-.35.443a21.55,21.55,0,0,1-2.4,2.86,25.019,25.019,0,0,1-2.861,2.457q-.133.323-.308.685a6.407,6.407,0,0,0-.309.766,4.357,4.357,0,0,0-.188.792,2.015,2.015,0,0,0,.027.738c.2-.035.376-.063.537-.08.143-.019.278-.031.4-.041a.805.805,0,0,0,.242-.04,12.157,12.157,0,0,0,1.584-.43q.778-.268,1.531-.591a2.213,2.213,0,0,0,.51-.215.481.481,0,0,1,.51-.026c.2.144.224.273.081.389a1.76,1.76,0,0,1-.4.256l-3.115,1.154c-.3.107-.6.22-.887.336a2.778,2.778,0,0,1-.885.2.873.873,0,0,1-.645-.121.906.906,0,0,1-.336-.456,1.559,1.559,0,0,1-.067-.618,3.339,3.339,0,0,1,.107-.631A9.381,9.381,0,0,1,991,1185.5a20.712,20.712,0,0,1-2.309,1.316.418.418,0,0,1-.443-.175Q988.073,1186.413,988.4,1186.252Zm5.451-3.679a20.754,20.754,0,0,0,2.31-2.552,9.066,9.066,0,0,0,.913-1.289c.036-.089.09-.2.161-.335a3.4,3.4,0,0,0,.188-.417,2.9,2.9,0,0,0-.711.511c-.225.215-.408.394-.551.537a14.4,14.4,0,0,0-1.155,1.3q-.537.684-1.074,1.409c-.2.287-.386.568-.564.846s-.349.56-.51.846q.241-.187.5-.417C993.52,1182.864,993.685,1182.717,993.846,1182.573Z" fill="#333"/>
    <path id="パス_966" data-name="パス 966" d="M996.279,1186.252q.483-.242,1.007-.537a8.788,8.788,0,0,1,1.06-.51,2.758,2.758,0,0,1,.994-1.008,4.061,4.061,0,0,1,1.369-.523,3.532,3.532,0,0,1,.874,0,1.067,1.067,0,0,1,.765.4.422.422,0,0,1,.094.456,1.3,1.3,0,0,1-.322.457,3.174,3.174,0,0,1-.511.389c-.188.117-.326.2-.416.256a3.83,3.83,0,0,1-1.061.442,3.409,3.409,0,0,1-1.168.095h-.107a1.509,1.509,0,0,0,.483.913,2.343,2.343,0,0,0,.886.47,3.265,3.265,0,0,0,1.061.121,8.245,8.245,0,0,0,1.007-.108,11.839,11.839,0,0,0,2.471-.805q.268-.135.55-.256a5.412,5.412,0,0,0,.524-.255.514.514,0,0,1,.389.053c.135.073.147.189.04.35a.684.684,0,0,1-.375.295c-.161.054-.3.107-.43.161l-1.342.591a23.118,23.118,0,0,1-2.445.806,4.082,4.082,0,0,1-1.087.067,3.13,3.13,0,0,1-1.02-.242,2.675,2.675,0,0,1-.847-.577,2.117,2.117,0,0,1-.537-.967c-.036-.143-.066-.286-.094-.43a.873.873,0,0,1,.014-.4,5.167,5.167,0,0,0-.577.308l-.5.309a2.047,2.047,0,0,0-.35.2.362.362,0,0,1-.43.014.309.309,0,0,1-.147-.295A.251.251,0,0,1,996.279,1186.252Zm2.739-.752a3.112,3.112,0,0,0,1.249-.322,3.96,3.96,0,0,0,1.061-.752,1.5,1.5,0,0,0-.739-.08,2.123,2.123,0,0,0-.672.214,2.084,2.084,0,0,0-.55.416A1.665,1.665,0,0,0,999.018,1185.5Z" fill="#333"/>
    <path id="パス_967" data-name="パス 967" d="M1005.753,1186.279l1.021-.551q.725-.389,1.49-.738a6.81,6.81,0,0,1,1.41-.483q.645-.135.806.214a.533.533,0,0,1-.067.524,2.194,2.194,0,0,0-.255.47l-.323.752a6.526,6.526,0,0,1,.7-.376l.7-.323q.858-.454,1.772-.966a8.7,8.7,0,0,1,1.853-.779,1.327,1.327,0,0,1,.618-.013.776.776,0,0,1,.416.241.686.686,0,0,1,.148.457,1.109,1.109,0,0,1-.215.6,4.391,4.391,0,0,1-.524.671q-.282.3-.577.645a1.636,1.636,0,0,1-.188.215c-.09.089-.184.192-.283.308s-.187.234-.268.35a.886.886,0,0,0-.148.308,1,1,0,0,0,.47,0,4.336,4.336,0,0,0,.565-.147q.281-.094.537-.2c.17-.072.3-.125.388-.161l1.1-.484c.071-.036.165-.09.282-.161s.236-.139.362-.2.247-.12.363-.174a.713.713,0,0,1,.282-.081.213.213,0,0,1,.241.242.42.42,0,0,1-.215.376c-.161.09-.331.174-.509.255s-.368.166-.565.255q-.376.216-.724.376c-.234.107-.475.224-.726.35-.143.071-.371.173-.685.308a4.733,4.733,0,0,1-.939.3,1.558,1.558,0,0,1-.819-.026q-.349-.122-.349-.658a.892.892,0,0,1,.134-.484,3.471,3.471,0,0,1,.308-.416c.117-.135.243-.264.376-.39s.256-.241.364-.348a6.107,6.107,0,0,0,.537-.565,2.187,2.187,0,0,0,.483-.8,5.571,5.571,0,0,0-1.464.376,14.789,14.789,0,0,0-1.356.618q-.78.376-1.612.846a6.25,6.25,0,0,0-1.45,1.114.528.528,0,0,1-.281.121.51.51,0,0,1-.282-.054.436.436,0,0,1-.2-.2.5.5,0,0,1-.014-.35.832.832,0,0,1,.4-.429,4.958,4.958,0,0,0,.269-.5,1.639,1.639,0,0,1,.188-.335c.035-.125.072-.256.108-.39a3.26,3.26,0,0,0,.08-.416c-.2.054-.394.116-.591.188s-.349.126-.456.161c-.251.107-.5.211-.752.308s-.5.211-.752.336c-.144.072-.273.144-.39.215a2.225,2.225,0,0,1-.389.189.432.432,0,0,1-.309.04.506.506,0,0,1-.227-.122.232.232,0,0,1-.068-.2C1005.561,1186.4,1005.628,1186.333,1005.753,1186.279Z" fill="#333"/>
    <path id="パス_968" data-name="パス 968" d="M1018.023,1186.252a8.441,8.441,0,0,0,1.329-.591q.632-.348,1.3-.645a5.477,5.477,0,0,1,.886-.348l.913-.269a3.48,3.48,0,0,1,1.155-.188.485.485,0,0,1,.4.215.392.392,0,0,1,.028.457.46.46,0,0,1-.243.227,1.124,1.124,0,0,1-.362.081c-.135.009-.268.014-.4.014h-.363a1.963,1.963,0,0,0-.764.227,3.959,3.959,0,0,0-.739.5,3.434,3.434,0,0,0-.832.859c-.019.036-.059.112-.122.228s-.121.238-.174.363a2.347,2.347,0,0,0-.121.349.24.24,0,0,0,.041.242.26.26,0,0,0,.254.04,1.436,1.436,0,0,0,.35-.134c.116-.063.224-.125.322-.189s.165-.1.2-.12a10.277,10.277,0,0,0,.86-.564q.4-.3.832-.591l1.263-1.128q.455-.939.966-1.866t1.047-1.84q.376-.617.752-1.235t.806-1.236c.268-.376.563-.764.886-1.168a3.382,3.382,0,0,1,1.127-.927c.125-.035.247-.071.364-.107a.636.636,0,0,1,.362,0,.7.7,0,0,1,.43.215.655.655,0,0,1,.147.39,1.53,1.53,0,0,1-.054.483,1.8,1.8,0,0,1-.174.443,11.277,11.277,0,0,1-1.033,1.477q-.579.7-1.169,1.4-.914,1.1-1.839,2.135t-1.948,2q-.133.376-.254.726c-.082.232-.166.474-.255.724-.036.09-.078.2-.121.323s-.09.259-.135.4a3.873,3.873,0,0,0-.108.43.932.932,0,0,0-.012.348,3.25,3.25,0,0,0,.979-.215c.331-.125.641-.25.927-.376a13.125,13.125,0,0,0,1.517-.712c.51-.277,1-.541,1.463-.792a.518.518,0,0,1,.229-.067.872.872,0,0,1,.269.014.176.176,0,0,1,.147.135.437.437,0,0,1-.08.294.746.746,0,0,1-.4.309c-.179.064-.331.121-.456.175q-.751.376-1.5.779t-1.477.805q-.216.108-.483.256a4.438,4.438,0,0,1-.565.255,1.7,1.7,0,0,1-.577.107.927.927,0,0,1-.523-.161.82.82,0,0,1-.31-.457,1.532,1.532,0,0,1-.026-.577,3.154,3.154,0,0,1,.133-.591c.064-.188.122-.353.175-.5.018-.072.036-.139.054-.2s.045-.138.081-.228l-1.343,1.154c-.143.144-.3.291-.483.444a3.778,3.778,0,0,1-.577.4,2.56,2.56,0,0,1-.632.255,1.305,1.305,0,0,1-.645,0,.892.892,0,0,1-.657-.51,1.17,1.17,0,0,1,.026-.778,3.36,3.36,0,0,1,.47-.873,6.757,6.757,0,0,1,.7-.819l-.67.268q-.27.135-.645.362a1.6,1.6,0,0,1-.672.256.263.263,0,0,1-.268.013.345.345,0,0,1-.148-.174.4.4,0,0,1-.013-.228A.25.25,0,0,1,1018.023,1186.252Zm7.627-2.632q.7-.725,1.369-1.49t1.289-1.572q.269-.375.537-.738c.179-.241.349-.5.51-.765a5.645,5.645,0,0,1,.31-.51,1.817,1.817,0,0,0,.281-.645,1.682,1.682,0,0,0-.7.51q-.321.376-.509.591a17.136,17.136,0,0,0-1.155,1.4q-.537.726-1.02,1.5l-1.074,1.88Z" fill="#333"/>
  </g>
</svg>
