<svg id="lineup_refreshing_graph" xmlns="http://www.w3.org/2000/svg" width="285.779" height="252.307" viewBox="0 0 285.779 252.307">
  <path id="パス_969" data-name="パス 969" d="M1185.03,1326.478h-54.273l-38.377,38.377v54.273l20.35,81.9,80.877-22.81,50.508-50.508v-71.429Z" transform="translate(-1015.211 -1265.806)" fill="#dbdfb8"/>
  <path id="パス_970" data-name="パス 970" d="M1193.608,1305.769h-71.429l-50.508,50.508v71.429l50.508,50.508h71.429l50.508-50.508v-71.429Z" transform="translate(-1015.211 -1265.806)" fill="none" stroke="#999" stroke-miterlimit="10" stroke-width="0.5"/>
  <path id="パス_971" data-name="パス 971" d="M1185.03,1326.478h-54.273l-38.377,38.377v54.273l38.377,38.377h54.273l38.376-38.377v-54.273Z" transform="translate(-1015.211 -1265.806)" fill="none" stroke="#999" stroke-miterlimit="10" stroke-width="0.5"/>
  <path id="パス_972" data-name="パス 972" d="M1175.875,1348.579h-35.963l-25.43,25.43v35.964l25.43,25.43h35.963l25.43-25.43v-35.964Z" transform="translate(-1015.211 -1265.806)" fill="none" stroke="#999" stroke-miterlimit="10" stroke-width="0.5"/>
  <path id="パス_973" data-name="パス 973" d="M1167.092,1369.785h-18.4l-13.008,13.008v18.4L1148.7,1414.2h18.4l13.008-13.008v-18.4Z" transform="translate(-1015.211 -1265.806)" fill="none" stroke="#999" stroke-miterlimit="10" stroke-width="0.5"/>
  <g id="グループ_190" data-name="グループ 190" transform="translate(-1015.211 -1265.806)">
    <path id="パス_974" data-name="パス 974" d="M1097.585,1269.5c0,.33.09.405.5.5a25.7,25.7,0,0,0,3.674.119c3.8,0,4.365-.029,4.65-.3a3.274,3.274,0,0,0,.435-1.814,3.635,3.635,0,0,0,.914.405,3.806,3.806,0,0,1-.7,2.13c-.435.4-.945.449-5.985.449a16.088,16.088,0,0,1-3.795-.224c-.479-.151-.63-.39-.63-1.02v-2.52a6.506,6.506,0,0,0-.09-1.29h1.125a5.012,5.012,0,0,0-.09,1.23v.705c1.53-.165,2.655-.33,3.855-.57a19.1,19.1,0,0,0,4.6-1.3l.736.9c-2.775.78-2.775.78-4.08,1.049-1.875.361-3.135.556-5.115.765Zm6.96,2.82a13.99,13.99,0,0,0,1.815-.074,13.8,13.8,0,0,0-.075,1.829v3.225a13.14,13.14,0,0,0,.09,1.86h-1.035v-.7h-7.185v.7h-1.02a12.982,12.982,0,0,0,.09-1.86v-3.225c0-.84-.03-1.335-.075-1.829a13.18,13.18,0,0,0,1.8.074Zm-6.39,2.566h7.185v-1.726h-7.185Zm0,2.729h7.185v-1.9h-7.185Z" fill="#4d4d4d"/>
    <path id="パス_975" data-name="パス 975" d="M1111.276,1277.131a12.149,12.149,0,0,0,.09-1.619v-7.02c0-.615-.03-1.11-.06-1.455a9.185,9.185,0,0,0,1.23.059h1.335a9.683,9.683,0,0,0,1.26-.059,12.928,12.928,0,0,0-.045,1.394v6.21a16.344,16.344,0,0,0,.06,1.65h-.96v-.779h-1.905v1.619Zm1.005-2.46h1.905v-6.7h-1.905Zm9.854-6.45a10.566,10.566,0,0,0,1.575-.089v1.035a11.633,11.633,0,0,0-1.589-.091h-1.965v2.535h2.535a11.977,11.977,0,0,0,1.71-.09v1.035a11.769,11.769,0,0,0-1.695-.089h-2.3a11.77,11.77,0,0,0,1.65,2.489,12.147,12.147,0,0,0,2.819,2.295,3.938,3.938,0,0,0-.644.93,16.432,16.432,0,0,1-2.415-2.205,10.063,10.063,0,0,1-1.725-2.79c.045.555.06.975.06,1.65v2.94a10.334,10.334,0,0,0,.09,1.59h-1.08a12.344,12.344,0,0,0,.089-1.59v-2.94c0-.57,0-.765.061-1.65a12.232,12.232,0,0,1-4.56,5.19,3.332,3.332,0,0,0-.72-.735,13.089,13.089,0,0,0,4.964-5.174h-2.1a8.678,8.678,0,0,0-1.441.074v-1.005a8.761,8.761,0,0,0,1.456.075h2.339v-2.535h-1.679a12.141,12.141,0,0,0-1.545.075v-1.005a14.749,14.749,0,0,0,1.545.075h1.679v-1.2a6.518,6.518,0,0,0-.074-1.215h1.05a6.711,6.711,0,0,0-.075,1.215v1.2Z" fill="#4d4d4d"/>
  </g>
  <g id="グループ_191" data-name="グループ 191" transform="translate(-1015.211 -1265.806)">
    <path id="パス_976" data-name="パス 976" d="M1194.241,1266.9a6.431,6.431,0,0,0-.091-1.08h1.1a6.2,6.2,0,0,0-.091,1.08v.48h3.6v-.48a6.535,6.535,0,0,0-.089-1.08h1.094a6.163,6.163,0,0,0-.09,1.08v.48h2.325a12.085,12.085,0,0,0,1.68-.09v1.034a12.393,12.393,0,0,0-1.68-.074h-2.325v.405a5.257,5.257,0,0,0,.075.975h-1.05a6.683,6.683,0,0,0,.06-.975v-.405h-3.6v.405a6.608,6.608,0,0,0,.06.989h-1.049a6.449,6.449,0,0,0,.075-.989v-.405h-2.176a12.121,12.121,0,0,0-1.664.074v-1.034a12.114,12.114,0,0,0,1.664.09h2.176Zm6.554,7.169a7.365,7.365,0,0,0,1.095-.059,7.219,7.219,0,0,0-.075,1.2v2.8a9.767,9.767,0,0,0,.09,1.365h-1.05v-.855h-7.5v.855h-1.05a10.108,10.108,0,0,0,.09-1.365v-2.8a7.569,7.569,0,0,0-.074-1.2,7.347,7.347,0,0,0,1.095.059h3.014v-2.01h-4.319a15.734,15.734,0,0,0-1.695.076v-1.05a12.008,12.008,0,0,0,1.695.09h4.319v-.855a5.206,5.206,0,0,0-.09-1.216h1.11a6.728,6.728,0,0,0-.09,1.216v.855h4.6a12.03,12.03,0,0,0,1.7-.09v1.05a16.2,16.2,0,0,0-1.7-.076h-4.6v2.01Zm-7.44,3.57h7.5v-2.714h-7.5Z" fill="#4d4d4d"/>
    <path id="パス_977" data-name="パス 977" d="M1206.89,1277.131a11.986,11.986,0,0,0,.09-1.619v-7.02c0-.615-.029-1.11-.06-1.455a9.194,9.194,0,0,0,1.23.059h1.335a9.7,9.7,0,0,0,1.261-.059,12.663,12.663,0,0,0-.045,1.394v6.21a16.39,16.39,0,0,0,.059,1.65h-.96v-.779H1207.9v1.619Zm1.005-2.46h1.905v-6.7H1207.9Zm9.855-6.45a10.584,10.584,0,0,0,1.575-.089v1.035a11.648,11.648,0,0,0-1.59-.091h-1.965v2.535h2.535a11.959,11.959,0,0,0,1.71-.09v1.035a11.76,11.76,0,0,0-1.7-.089h-2.295a11.77,11.77,0,0,0,1.65,2.489,12.13,12.13,0,0,0,2.82,2.295,3.91,3.91,0,0,0-.645.93,16.482,16.482,0,0,1-2.415-2.205,10.086,10.086,0,0,1-1.725-2.79c.045.555.06.975.06,1.65v2.94a10.458,10.458,0,0,0,.09,1.59h-1.08a12.328,12.328,0,0,0,.09-1.59v-2.94c0-.57,0-.765.06-1.65a12.229,12.229,0,0,1-4.559,5.19,3.359,3.359,0,0,0-.721-.735,13.1,13.1,0,0,0,4.965-5.174h-2.1a8.658,8.658,0,0,0-1.44.074v-1.005a8.74,8.74,0,0,0,1.455.075h2.34v-2.535h-1.68a12.15,12.15,0,0,0-1.545.075v-1.005a14.748,14.748,0,0,0,1.545.075h1.68v-1.2a6.5,6.5,0,0,0-.075-1.215h1.05a6.8,6.8,0,0,0-.075,1.215v1.2Z" fill="#4d4d4d"/>
  </g>
  <g id="グループ_192" data-name="グループ 192" transform="translate(-1015.211 -1265.806)">
    <path id="パス_978" data-name="パス 978" d="M1280.286,1337.3a11.372,11.372,0,0,0-.09-1.725h1.185a11.294,11.294,0,0,0-.1,1.725v.84h.974a13.826,13.826,0,0,0,1.771-.1v1.14a14.8,14.8,0,0,0-1.771-.1h-.974v7.994a14.188,14.188,0,0,0,.1,1.77h-1.095v-.96h-5.834v.96h-1.1a12.11,12.11,0,0,0,.105-1.755v-8.009h-.975a11.358,11.358,0,0,0-1.71.1v-1.14a11.078,11.078,0,0,0,1.71.1h.975v-.9a9.733,9.733,0,0,0-.105-1.665h1.185a11.994,11.994,0,0,0-.089,1.665v.9h5.834Zm-5.834,1.77v3.239h5.834v-3.239Zm0,4.154v3.735h5.834v-3.735Z" fill="#4d4d4d"/>
    <path id="パス_979" data-name="パス 979" d="M1287.243,1346.747a12.158,12.158,0,0,0,.09-1.619v-7.02c0-.615-.03-1.11-.06-1.455a9.153,9.153,0,0,0,1.229.06h1.335a9.662,9.662,0,0,0,1.261-.06,12.939,12.939,0,0,0-.045,1.4v6.21a16.346,16.346,0,0,0,.06,1.65h-.96v-.78h-1.906v1.619Zm1-2.46h1.906v-6.7h-1.906Zm9.855-6.449a10.576,10.576,0,0,0,1.575-.09v1.035a11.677,11.677,0,0,0-1.59-.09h-1.965v2.534h2.536a12.005,12.005,0,0,0,1.71-.089v1.035a11.763,11.763,0,0,0-1.7-.09h-2.3a11.847,11.847,0,0,0,1.651,2.49,12.1,12.1,0,0,0,2.819,2.294,3.94,3.94,0,0,0-.644.931,16.44,16.44,0,0,1-2.415-2.2,10.094,10.094,0,0,1-1.725-2.79c.045.554.059.975.059,1.649v2.94a10.444,10.444,0,0,0,.09,1.59h-1.08a12.134,12.134,0,0,0,.09-1.59v-2.94c0-.569,0-.765.061-1.649a12.242,12.242,0,0,1-4.56,5.189,3.332,3.332,0,0,0-.721-.734,13.093,13.093,0,0,0,4.965-5.175h-2.1a8.558,8.558,0,0,0-1.441.075v-1.005a8.755,8.755,0,0,0,1.455.074h2.34v-2.534h-1.68a12.177,12.177,0,0,0-1.545.074v-1a15.048,15.048,0,0,0,1.545.075h1.68v-1.2a6.5,6.5,0,0,0-.074-1.215h1.05a6.679,6.679,0,0,0-.076,1.215v1.2Z" fill="#4d4d4d"/>
  </g>
  <g id="グループ_193" data-name="グループ 193" transform="translate(-1015.211 -1265.806)">
    <path id="パス_980" data-name="パス 980" d="M1272.216,1432.255a10.679,10.679,0,0,0-1.455.09v-.975a9.621,9.621,0,0,0,1.455.09h3.3a9.178,9.178,0,0,0,1.4-.09v.96a9.55,9.55,0,0,0-1.38-.09h-.659v1.785h.494a11.382,11.382,0,0,0,1.17-.045,13.947,13.947,0,0,0-.045,1.575v6.674l.015.8.015.555c-.225-.015-.855-.029-1.23-.029h-3.33v1.139h-.9a13.02,13.02,0,0,0,.09-1.71v-7.394c0-.645-.015-1.125-.06-1.62a8.05,8.05,0,0,0,1.185.06h.525v-1.77Zm-.269,8.144h3.749v-1.905c-.3.016-.39.016-.465.016a1.43,1.43,0,0,1-.87-.165c-.135-.1-.165-.226-.165-.661v-2.955h-.7v.165c0,2.311-.285,3.571-1.051,4.71a3.416,3.416,0,0,0-.494-.585Zm0-1.469c.63-.84.854-1.89.854-4.05v-.151h-.854Zm0,3.839h3.749v-1.65h-3.749Zm1.545-8.744h.7v-1.785h-.7Zm1.38,3.449c0,.286.029.316.3.316h.525v-3.061h-.824Zm7.2.915a5.593,5.593,0,0,0,1.005-.075l.525.555a6.809,6.809,0,0,0-.391.585,11.272,11.272,0,0,1-1.9,2.4,8.313,8.313,0,0,0,3.39,1.7,4.462,4.462,0,0,0-.45.944,10.545,10.545,0,0,1-3.585-2.085,11.6,11.6,0,0,1-3.99,2.13,2.881,2.881,0,0,0-.54-.825,9.941,9.941,0,0,0,3.93-1.86,8.968,8.968,0,0,1-1.425-1.95,10.392,10.392,0,0,1-1.41,1.41,2.5,2.5,0,0,0-.585-.675,7.444,7.444,0,0,0,2.25-2.415,5.067,5.067,0,0,0,.615-1.379l.9.285c-.315.614-.42.8-.7,1.259Zm-1.321-4.3c-.449.045-.659.075-1.2.135a4.917,4.917,0,0,1-.42,1.7,4.26,4.26,0,0,1-1.995,2.024,2.822,2.822,0,0,0-.554-.719,3.135,3.135,0,0,0,2.129-2.925c-1.365.1-1.365.1-1.754.165l-.106-.93a6.9,6.9,0,0,0,.765.029h.39a11.63,11.63,0,0,0,1.275-2.8l.93.33a25.231,25.231,0,0,1-1.29,2.429,28.113,28.113,0,0,0,3.57-.419,10.457,10.457,0,0,0-1.29-1.29l.645-.42a17.672,17.672,0,0,1,2.46,2.7l-.75.495c-.27-.42-.36-.54-.57-.856-.93.181-.93.181-1.41.241v2.174c0,.27.09.3.75.3s.945-.045,1.049-.194a2.928,2.928,0,0,0,.181-1.215,1.888,1.888,0,0,0,.75.315c-.15,1.7-.3,1.83-2.04,1.83-1.306,0-1.516-.12-1.516-.826Zm-1.544,5.054c-.03.045-.045.061-.09.121a8.157,8.157,0,0,0,1.575,2.054,9.47,9.47,0,0,0,1.74-2.175Z" fill="#4d4d4d"/>
    <path id="パス_981" data-name="パス 981" d="M1287.385,1442.334a11.978,11.978,0,0,0,.09-1.619v-7.02c0-.615-.029-1.11-.059-1.455a9.141,9.141,0,0,0,1.229.06h1.335a9.67,9.67,0,0,0,1.261-.06,12.685,12.685,0,0,0-.045,1.4v6.21a16.367,16.367,0,0,0,.059,1.649h-.96v-.779h-1.905v1.619Zm1.005-2.46h1.905v-6.7h-1.905Zm9.855-6.449a10.555,10.555,0,0,0,1.575-.09v1.035a11.666,11.666,0,0,0-1.59-.09h-1.965v2.534h2.535a11.959,11.959,0,0,0,1.71-.09v1.036a11.72,11.72,0,0,0-1.7-.09h-2.295a11.77,11.77,0,0,0,1.65,2.489,12.132,12.132,0,0,0,2.82,2.295,3.977,3.977,0,0,0-.645.931,16.537,16.537,0,0,1-2.415-2.2,10.086,10.086,0,0,1-1.724-2.791c.044.555.059.976.059,1.65v2.94a10.458,10.458,0,0,0,.09,1.59h-1.08a12.328,12.328,0,0,0,.09-1.59v-2.94c0-.569,0-.765.06-1.65a12.229,12.229,0,0,1-4.559,5.19,3.335,3.335,0,0,0-.721-.734,13.1,13.1,0,0,0,4.965-5.175h-2.1a8.658,8.658,0,0,0-1.44.074v-1a8.753,8.753,0,0,0,1.455.074h2.34v-2.534h-1.68a12.175,12.175,0,0,0-1.545.074v-1.005a14.715,14.715,0,0,0,1.545.076h1.68v-1.2a6.586,6.586,0,0,0-.074-1.214h1.049a6.79,6.79,0,0,0-.075,1.214v1.2Z" fill="#4d4d4d"/>
  </g>
  <g id="グループ_194" data-name="グループ 194" transform="translate(-1015.211 -1265.806)">
    <path id="パス_982" data-name="パス 982" d="M1015.782,1434.865a18.81,18.81,0,0,1,2.609,1.9l-.615.826a12.474,12.474,0,0,0-2.565-2.025Zm2.67,4.949a25.634,25.634,0,0,1-1.981,4.05c-.18.3-.224.39-.314.57l-.887-.795a12.835,12.835,0,0,0,2.371-4.424Zm-1.786-8.534a13.5,13.5,0,0,1,2.415,1.965l-.629.765a12.028,12.028,0,0,0-2.416-2.07Zm10.44,4.935a10.564,10.564,0,0,0,1.545-.09v1.019a11.309,11.309,0,0,0-1.545-.089h-6.99a9.419,9.419,0,0,0-1.44.075v-.991a8.659,8.659,0,0,0,1.41.076h.465v-2.685a8.636,8.636,0,0,0-.09-1.306h1.094a8.4,8.4,0,0,0-.09,1.321v2.67h1.9v-3.885a8.017,8.017,0,0,0-.09-1.29h1.111a7.836,7.836,0,0,0-.09,1.3v.78h2.25a8.9,8.9,0,0,0,1.364-.09v1.02a9.373,9.373,0,0,0-1.379-.09H1024.3v2.25Zm-4.065,5.835a19.505,19.505,0,0,1-3.255,2.054c-.3.15-.42.21-.6.315l-.5-.989a6.038,6.038,0,0,0,1.6-.691,13.3,13.3,0,0,0,2.43-1.59Zm-2.775-4.425a17.89,17.89,0,0,1,2.744,2.039l-.66.75a12.6,12.6,0,0,0-2.744-2.1Zm3.764,2.279a11.278,11.278,0,0,0,1.711-1.26,5.826,5.826,0,0,0,1.064-1.154l.84.614a17.372,17.372,0,0,1-2.955,2.505Zm3.81,4.56a18.67,18.67,0,0,0-3.765-2.64l.615-.644a22.432,22.432,0,0,1,3.721,2.4Z" fill="#4d4d4d"/>
    <path id="パス_983" data-name="パス 983" d="M1032.813,1432.24a7.177,7.177,0,0,0,1.455.09c.824,0,2.025-.045,2.52-.106a1.084,1.084,0,0,0,.554-.179l.795.63a8.025,8.025,0,0,0-.824,2.174c-.33,1.021-.436,1.306-.7,2.1a11.751,11.751,0,0,1,4.1,1.185,17.118,17.118,0,0,0,.179-3.045,3.656,3.656,0,0,0-.06-.736l1.125.016a5.762,5.762,0,0,0-.061.93,20.4,20.4,0,0,1-.269,3.255c.81.419,1.32.689,2.054,1.125a2.846,2.846,0,0,0,.436.224l-.4,1.155a17.323,17.323,0,0,0-2.34-1.484,7.1,7.1,0,0,1-1.545,2.714,8.106,8.106,0,0,1-2.387,1.83,3.836,3.836,0,0,0-.8-.78,6.609,6.609,0,0,0,2.432-1.725,5.832,5.832,0,0,0,1.379-2.519,11.042,11.042,0,0,0-4.139-1.246,29.122,29.122,0,0,1-1.41,3.616c-.541,1.034-1.1,1.484-1.816,1.484a2.214,2.214,0,0,1-1.979-2.46,3.37,3.37,0,0,1,1.785-2.97,4.9,4.9,0,0,1,2.7-.644c.495-1.47.674-2.04,1.2-3.78-1.184.089-1.411.1-2.834.15a8.286,8.286,0,0,0-1.1.075Zm0,6.51a2.5,2.5,0,0,0-.719,1.724c0,.8.434,1.425.975,1.425.615,0,1.125-.929,2.219-4.125A3.638,3.638,0,0,0,1032.813,1438.75Z" fill="#4d4d4d"/>
  </g>
  <g id="グループ_195" data-name="グループ 195" transform="translate(-1015.211 -1265.806)">
    <path id="パス_984" data-name="パス 984" d="M1090.028,1506.129a10,10,0,0,0,1.5-.091v1.035a10.446,10.446,0,0,0-1.5-.09h-4.845c-.016,2.43-.016,2.43-.075,3.54a4.859,4.859,0,0,0,.36,1.755,5.823,5.823,0,0,0,1.784,2.625,10.057,10.057,0,0,0,4.35,2.19,2.971,2.971,0,0,0-.539.945c-3.316-1.02-5.715-3.09-6.316-5.43-.854,2.7-2.789,4.455-6.059,5.505a4.385,4.385,0,0,0-.6-.915c2.73-.735,4.515-2.055,5.46-3.975a6.735,6.735,0,0,0,.63-2.85c.045-.87.045-.87.045-3.39h-4.545a10.876,10.876,0,0,0-1.5.09v-1.035a10.12,10.12,0,0,0,1.5.091h4.545a10.392,10.392,0,0,0-.075-1.62h1.125a8.253,8.253,0,0,0-.09,1.62Zm-7.785,8.129c-.525-.5-.72-.675-1.065-.96a10.074,10.074,0,0,1-2.28,1.425,3.322,3.322,0,0,0-.6-.72,8.667,8.667,0,0,0,2.22-1.215,13.45,13.45,0,0,0-1.485-1.005l.645-.479c.66.419.87.554,1.455.974a5.188,5.188,0,0,0,1.14-1.38l.75.51c-.075.09-.075.09-.45.525a8.5,8.5,0,0,1-.8.825c.33.255.525.42,1.08.885Zm-2.4-6.584c.81.464,1.08.63,1.59.974a4.271,4.271,0,0,0,1.02-1.29l.75.481a2.685,2.685,0,0,0-.36.4,7.49,7.49,0,0,1-.765.84c.48.346.69.495,1.29.975l-.585.615c-.57-.51-.795-.69-1.275-1.065a10.788,10.788,0,0,1-2.46,1.575,3.647,3.647,0,0,0-.6-.675,8.889,8.889,0,0,0,2.4-1.35,15.622,15.622,0,0,0-1.6-.96Zm6.855-.076c.84.51,1.125.69,1.724,1.11a4.12,4.12,0,0,0,1.021-1.305l.809.51c-.075.06-.24.255-.314.33-.016.03-.165.195-.42.48a4.224,4.224,0,0,1-.45.45c.554.405.75.555,1.38,1.08l-.615.6c-.63-.585-.84-.765-1.35-1.17a10.734,10.734,0,0,1-2.22,1.4,2.526,2.526,0,0,0-.57-.675,7.89,7.89,0,0,0,2.13-1.2c-.555-.375-.856-.569-1.725-1.095Zm.45,3.615c.854.525,1.125.7,1.62,1.05a3.735,3.735,0,0,0,.885-1.155l.764.51c-.12.12-.209.225-.434.495a6.7,6.7,0,0,1-.57.615c.54.405.78.6,1.514,1.215l-.614.615c-.691-.645-.931-.855-1.471-1.29-.239.2-.449.36-.734.57-.061.03-.361.21-.931.555a2.963,2.963,0,0,0-.585-.66,6.9,6.9,0,0,0,1.606-.945c-.526-.375-.826-.555-1.665-1.065Z" fill="#4d4d4d"/>
    <path id="パス_985" data-name="パス 985" d="M1097.139,1505.513a6.033,6.033,0,0,0,.285.916c.3.884.451,1.3.66,1.979a26.6,26.6,0,0,1,3.225-.84,21.238,21.238,0,0,0-.059-2.655h1.125a13.939,13.939,0,0,0-.076,2.025c0,.015,0,.3.015.48a7.563,7.563,0,0,1,1.125-.09c2.01,0,3.3,1.08,3.3,2.76,0,1.8-1.47,3.09-3.525,3.09a6.356,6.356,0,0,1-2.535-.555,2.155,2.155,0,0,0,.015-.27,6.684,6.684,0,0,0-.09-.855,5.1,5.1,0,0,0,2.521.69,3.037,3.037,0,0,0,1.8-.585,1.817,1.817,0,0,0,.72-1.53c0-1.14-.885-1.814-2.4-1.814a17.678,17.678,0,0,0-4.89,1.064c.766,2.55,1.305,4.665,1.936,7.485a4.628,4.628,0,0,0,.194.645l-1.215.27a53.356,53.356,0,0,0-1.89-8.1,6.351,6.351,0,0,1-.81.27,14.278,14.278,0,0,0-2.055.826l-.389-1.066a16.563,16.563,0,0,0,2.2-.7c.375-.135.524-.165.764-.24a15.1,15.1,0,0,0-1.08-2.85Z" fill="#4d4d4d"/>
    <path id="パス_986" data-name="パス 986" d="M1110.275,1508.679c.54-.016,2.1-.2,3.314-.391a18.243,18.243,0,0,0,.451-3.18v-.2l1.2.136a9,9,0,0,0-.285,1.439c-.076.436-.18.99-.315,1.71a8.717,8.717,0,0,1,.885-.045,2.87,2.87,0,0,1,2.16.63,3.033,3.033,0,0,1,.734,2.415c0,2.3-.389,4.29-1,5.16a1.568,1.568,0,0,1-1.47.7,5.636,5.636,0,0,1-2.265-.585,3.382,3.382,0,0,0,.029-.525,2.973,2.973,0,0,0-.044-.6,5.607,5.607,0,0,0,2.235.69q.563,0,.854-.72a11.589,11.589,0,0,0,.63-4.17c0-1.59-.449-2.1-1.844-2.1a8.577,8.577,0,0,0-1.081.074,28.294,28.294,0,0,1-2.264,6.36c-.195.36-.51.96-.975,1.8l-1.02-.6a14.379,14.379,0,0,0,1.56-2.715,24.847,24.847,0,0,0,1.65-4.754c-1.29.194-2.01.314-2.145.344a8.281,8.281,0,0,0-.87.2Zm9.854-1.38a13.543,13.543,0,0,1,3.135,5.309l-.96.555a12.267,12.267,0,0,0-3.059-5.385Z" fill="#4d4d4d"/>
    <path id="パス_987" data-name="パス 987" d="M1126.481,1507.943a6.565,6.565,0,0,0,1.155.075,35.032,35.032,0,0,0,4.47-.315c-.226-.51-.466-1.109-.735-1.784-.165-.391-.255-.6-.39-.87l1.185-.165a4.734,4.734,0,0,0,.434,1.349,12.5,12.5,0,0,0,.54,1.321,17.613,17.613,0,0,0,3.63-.946l.15,1.066c-.315.059-.434.089-.884.21-.9.239-1.08.284-2.026.464-.359.076-.359.076-.51.1a27.862,27.862,0,0,0,2.7,4.365l-1.005.57a3,3,0,0,0-1.035-.615,8.132,8.132,0,0,0-2.625-.39,5.318,5.318,0,0,0-2.85.63,1.705,1.705,0,0,0-.811,1.4,1.5,1.5,0,0,0,.571,1.17,5.079,5.079,0,0,0,2.925.69,9.886,9.886,0,0,0,4.259-.96l.165,1.155a12.433,12.433,0,0,1-4.41.81c-1.829,0-3.21-.4-3.9-1.125a2.415,2.415,0,0,1-.675-1.65,2.8,2.8,0,0,1,1.694-2.445,6.381,6.381,0,0,1,2.911-.555,7.486,7.486,0,0,1,3.1.54,18.427,18.427,0,0,1-1.8-2.94c-.165-.315-.165-.345-.255-.495a44.149,44.149,0,0,1-5.34.39,3.406,3.406,0,0,0-.584.045Z" fill="#4d4d4d"/>
  </g>
  <g id="グループ_196" data-name="グループ 196" transform="translate(-1015.211 -1265.806)">
    <path id="パス_988" data-name="パス 988" d="M1183.155,1516.823a12.073,12.073,0,0,0-3.06-2.145c-.255-.135-.6-.285-1.005-.45a4.308,4.308,0,0,1,.03.54,2.6,2.6,0,0,1-.375,1.635,3.02,3.02,0,0,1-2.535.945,3.908,3.908,0,0,1-2.325-.6,1.961,1.961,0,0,1-.809-1.575c0-.99.779-1.77,2.1-2.07a6.534,6.534,0,0,1,1.56-.15,6.673,6.673,0,0,1,1.35.12c-.015-.045-.015-.045-.015-.18a1.2,1.2,0,0,1-.015-.165c-.014-.135-.014-.45-.03-.885-.015-.2-.015-.48-.03-.87-.539.015-1.289.03-1.77.03-.9,0-1.6-.03-2.535-.105-.165-.015-.285-.015-.375-.015h-.12l.015-.99a18.406,18.406,0,0,0,3.435.24c.39,0,.915,0,1.335-.015l-.03-2.055c-.435.015-.675.015-1.02.015-1.1,0-2.309-.045-3.66-.149a1.7,1.7,0,0,0-.27-.016,1.141,1.141,0,0,0-.209.016l.014-1.021a18.567,18.567,0,0,0,3.84.3c.3,0,.811-.015,1.3-.015a11.7,11.7,0,0,0-.075-2.159h1.155a16.673,16.673,0,0,0-.1,2.114,21.171,21.171,0,0,0,4.44-.614l.075,1.02a10.023,10.023,0,0,0-1.035.12,30.924,30.924,0,0,1-3.48.359c.015,1.23.015,1.23.03,2.025a18.1,18.1,0,0,0,4.155-.615l.059,1.035c-.194.015-.344.03-.869.1-1.035.165-2.22.285-3.33.36.03.84.03.84.09,2.3a13.14,13.14,0,0,1,4.185,2.19,5.238,5.238,0,0,0,.509.345Zm-5.07-2.835a5.505,5.505,0,0,0-1.53-.165c-1.485,0-2.46.54-2.46,1.335s.75,1.245,2.055,1.245a2.167,2.167,0,0,0,1.65-.495,1.965,1.965,0,0,0,.3-1.35Z" fill="#4d4d4d"/>
    <path id="パス_989" data-name="パス 989" d="M1188.476,1505.888a8.9,8.9,0,0,0,1.665.09c1.4,0,3.3-.09,4.335-.194a1.783,1.783,0,0,0,.615-.136l.63.87a12.076,12.076,0,0,0-1.62,1.545,27.216,27.216,0,0,1-4.095,3.675l.045.045a6.709,6.709,0,0,1,3.81-1.185c2.385,0,3.9,1.155,3.9,2.985a3.343,3.343,0,0,1-1.949,2.97,7.663,7.663,0,0,1-3.2.63,10.441,10.441,0,0,1-3.615-.7,1.923,1.923,0,0,0,.015-.27,5.713,5.713,0,0,0-.1-.945,8.471,8.471,0,0,0,3.825.93c2.325,0,3.915-1.065,3.915-2.61,0-1.305-1.14-2.1-2.985-2.1a8.9,8.9,0,0,0-4.815,1.65,7.6,7.6,0,0,0-1.17.945l-.75-.93a14.244,14.244,0,0,0,1.95-1.485c1.56-1.365,3.6-3.3,4.98-4.739a1.22,1.22,0,0,1,.135-.151l.12-.12-.031-.015a.759.759,0,0,0-.194.03c-.645.1-2.595.225-4.275.27a6.172,6.172,0,0,0-1.08.075Z" fill="#4d4d4d"/>
    <path id="パス_990" data-name="パス 990" d="M1203.833,1505.513a6.022,6.022,0,0,0,.285.916c.3.884.45,1.3.66,1.979a26.548,26.548,0,0,1,3.224-.84,20.962,20.962,0,0,0-.059-2.655h1.125a14,14,0,0,0-.075,2.025c0,.015,0,.3.014.48a7.563,7.563,0,0,1,1.125-.09c2.01,0,3.3,1.08,3.3,2.76,0,1.8-1.47,3.09-3.524,3.09a6.357,6.357,0,0,1-2.536-.555,2.155,2.155,0,0,0,.015-.27,6.684,6.684,0,0,0-.09-.855,5.1,5.1,0,0,0,2.521.69,3.043,3.043,0,0,0,1.8-.585,1.819,1.819,0,0,0,.719-1.53c0-1.14-.884-1.814-2.4-1.814a17.678,17.678,0,0,0-4.89,1.064c.766,2.55,1.305,4.665,1.936,7.485a4.628,4.628,0,0,0,.194.645l-1.215.27a53.444,53.444,0,0,0-1.889-8.1,6.49,6.49,0,0,1-.811.27,14.311,14.311,0,0,0-2.054.826l-.39-1.066a16.445,16.445,0,0,0,2.2-.7c.375-.135.524-.165.765-.24a15.092,15.092,0,0,0-1.08-2.85Z" fill="#4d4d4d"/>
    <path id="パス_991" data-name="パス 991" d="M1216.968,1508.679c.54-.016,2.1-.2,3.315-.391a18.226,18.226,0,0,0,.45-3.18v-.2l1.2.136a9.233,9.233,0,0,0-.285,1.439c-.075.436-.18.99-.315,1.71a8.717,8.717,0,0,1,.885-.045,2.867,2.867,0,0,1,2.16.63,3.029,3.029,0,0,1,.735,2.415c0,2.3-.39,4.29-1.005,5.16a1.568,1.568,0,0,1-1.47.7,5.644,5.644,0,0,1-2.265-.585,3.273,3.273,0,0,0,.03-.525,2.909,2.909,0,0,0-.045-.6,5.607,5.607,0,0,0,2.235.69q.563,0,.855-.72a11.611,11.611,0,0,0,.63-4.17c0-1.59-.45-2.1-1.845-2.1a8.564,8.564,0,0,0-1.08.074,28.3,28.3,0,0,1-2.265,6.36c-.195.36-.51.96-.974,1.8l-1.021-.6a14.428,14.428,0,0,0,1.561-2.715,24.848,24.848,0,0,0,1.649-4.754c-1.29.194-2.01.314-2.145.344a8.4,8.4,0,0,0-.87.2Zm9.855-1.38a13.566,13.566,0,0,1,3.135,5.309l-.961.555a12.267,12.267,0,0,0-3.059-5.385Z" fill="#4d4d4d"/>
    <path id="パス_992" data-name="パス 992" d="M1233.174,1507.943a6.577,6.577,0,0,0,1.156.075,35.017,35.017,0,0,0,4.469-.315c-.225-.51-.466-1.109-.735-1.784-.165-.391-.255-.6-.39-.87l1.185-.165a4.734,4.734,0,0,0,.434,1.349,13.033,13.033,0,0,0,.54,1.321,17.577,17.577,0,0,0,3.63-.946l.151,1.066c-.316.059-.435.089-.885.21-.9.239-1.08.284-2.025.464-.36.076-.36.076-.51.1a27.777,27.777,0,0,0,2.7,4.365l-1.005.57a3,3,0,0,0-1.035-.615,8.132,8.132,0,0,0-2.625-.39,5.318,5.318,0,0,0-2.85.63,1.7,1.7,0,0,0-.81,1.4,1.5,1.5,0,0,0,.57,1.17,5.081,5.081,0,0,0,2.925.69,9.89,9.89,0,0,0,4.26-.96l.165,1.155a12.437,12.437,0,0,1-4.41.81,5.5,5.5,0,0,1-3.9-1.125,2.419,2.419,0,0,1-.675-1.65,2.8,2.8,0,0,1,1.695-2.445,6.376,6.376,0,0,1,2.91-.555,7.486,7.486,0,0,1,3.1.54,18.353,18.353,0,0,1-1.8-2.94c-.166-.315-.166-.345-.255-.495a44.184,44.184,0,0,1-5.34.39,3.419,3.419,0,0,0-.585.045Z" fill="#4d4d4d"/>
  </g>
  <g id="グループ_197" data-name="グループ 197" transform="translate(-1015.211 -1265.806)">
    <path id="パス_993" data-name="パス 993" d="M1018.819,1348.074a12.021,12.021,0,0,0-1.6.06v-1.185a7.33,7.33,0,0,0,1.635.1h7.139v-7.245h-6.824a12.554,12.554,0,0,0-1.725.075v-1.2a8.2,8.2,0,0,0,1.725.1h7.2c.195,0,.406-.015.781-.03-.031.375-.031.63-.031,1.17v7.68a10.007,10.007,0,0,0,.076,1.364h-1.2v-.9Z" fill="#4d4d4d"/>
    <path id="パス_994" data-name="パス 994" d="M1037.463,1337.244a2.953,2.953,0,0,0-.33.615,14.7,14.7,0,0,1-.689,1.335c.193-.045.193-.045,4.529-.12a1.467,1.467,0,0,0,.779-.1l.645.63c-.135.18-.135.195-.3.735a15.872,15.872,0,0,1-3,5.639,14.66,14.66,0,0,1-5.221,3.75,2.233,2.233,0,0,0-.75-.884,12.755,12.755,0,0,0,5.3-3.8,13.749,13.749,0,0,0,2.58-5.025l-5.054.09a14.456,14.456,0,0,1-3.584,3.9,2.246,2.246,0,0,0-.84-.78,11.12,11.12,0,0,0,3.764-4.11,6.777,6.777,0,0,0,.945-2.19Z" fill="#4d4d4d"/>
  </g>
  <line id="線_40" data-name="線 40" x1="109.032" y1="45.163" transform="translate(33.651 81.023)" fill="none" stroke="#999" stroke-miterlimit="10" stroke-width="0.5"/>
  <line id="線_41" data-name="線 41" x1="45.163" y1="109.032" transform="translate(97.52 17.153)" fill="none" stroke="#999" stroke-miterlimit="10" stroke-width="0.5"/>
  <line id="線_42" data-name="線 42" y1="109.032" x2="45.163" transform="translate(142.683 17.153)" fill="none" stroke="#999" stroke-miterlimit="10" stroke-width="0.5"/>
  <line id="線_43" data-name="線 43" y1="45.163" x2="109.032" transform="translate(142.683 81.023)" fill="none" stroke="#999" stroke-miterlimit="10" stroke-width="0.5"/>
  <line id="線_44" data-name="線 44" x2="109.032" y2="45.162" transform="translate(142.683 126.185)" fill="none" stroke="#999" stroke-miterlimit="10" stroke-width="0.5"/>
  <line id="線_45" data-name="線 45" x2="45.163" y2="109.032" transform="translate(142.683 126.185)" fill="none" stroke="#999" stroke-miterlimit="10" stroke-width="0.5"/>
  <line id="線_46" data-name="線 46" x1="45.163" y2="109.032" transform="translate(97.52 126.185)" fill="none" stroke="#999" stroke-miterlimit="10" stroke-width="0.5"/>
  <line id="線_47" data-name="線 47" x1="109.032" y2="45.162" transform="translate(33.651 126.185)" fill="none" stroke="#999" stroke-miterlimit="10" stroke-width="0.5"/>
  <path id="パス_995" data-name="パス 995" d="M1203.056,1282.959h-90.325l-63.87,63.87v90.325l63.87,63.87h90.325l63.87-63.87v-90.325Z" transform="translate(-1015.211 -1265.806)" fill="none" stroke="#999" stroke-miterlimit="10" stroke-width="0.5"/>
</svg>
