<svg id="lineup_smart_name_sp" xmlns="http://www.w3.org/2000/svg" width="750" height="230" viewBox="0 0 750 230">
  <rect id="長方形_39" data-name="長方形 39" width="750" height="230" fill="#fff279" opacity="0"/>
  <g id="グループ_421" data-name="グループ 421" transform="translate(6008.997 1641.025)">
    <g id="グループ_416" data-name="グループ 416">
      <path id="パス_1792" data-name="パス 1792" d="M-5768.36-1617.169a2.15,2.15,0,0,1,.935,1.43c0,.495-.88,2.64-.935,3.135-.22,1.925-.33,6.819-.33,9.129a.92.92,0,0,0,1.045.99c1.1,0,13.089-5.829,13.089-8.8,0-.33-.386-1.87-.386-2.035,0-.22.386-.22.77-.22,3.74,0,5.664,3.244,5.664,4.619,0,1.265-.824,1.43-2.419,1.76-1.265.276-6.214,2.75-7.259,3.19-1.54.66-9.679,3.574-9.954,3.739-.66.44-.66.716-.66,2.8,0,7.2,1.045,8.689,8.249,8.689a35.009,35.009,0,0,0,8.029-.99,32.322,32.322,0,0,1,3.795-.66,2.127,2.127,0,0,1,2.2,1.924c0,4.125-10.558,4.125-13.968,4.125-11.383,0-11.658-4.894-11.658-12.7,0-1.98.165-10.614.165-12.428,0-4.51-.825-6.544-1.43-7.7a11.251,11.251,0,0,1-.935-1.814c0-.33.77-.495,1.265-.495C-5771.494-1619.478-5770.724-1619.093-5768.36-1617.169Z" fill="#333"/>
      <path id="パス_1793" data-name="パス 1793" d="M-5694.068-1581.808c0,1.045-.385,2.09-1.21,2.09-2.419,0-3.3-4.785-3.739-7.094-.275-1.375-1.485-7.369-1.705-8.634-.22-.99-.495-1.7-1.485-1.7-.219,0-6.763,1.54-9.458,2.42a29.247,29.247,0,0,1-3.355,1.43c-.825,0-6.324-2.42-6.324-4.07,0-.44.385-.55.66-.55.5,0,2.8.22,3.3.22,4.179,0,7.479-.66,13.363-1.87,1.429-.274,1.814-.495,1.814-1.43a33.142,33.142,0,0,0-1.209-5.5c-.33-1.375-.6-1.924-1.43-1.924-1.265,0-7.479,2.089-7.589,2.089-1.32,0-5-1.979-5-2.969,0-.385.6-.385,1.1-.385a51.044,51.044,0,0,0,8.469-.936c1.925-.439,2.805-.769,2.805-1.814,0-.22-.715-5.444-3.135-7.534a22.688,22.688,0,0,1-2.529-1.98c0-.33,1.649-.934,2.859-.934,1.1,0,4.949,1.21,5.114,2.309.11.77.221,3.959.331,4.619.495,3.575,1.1,3.575,1.869,3.575a33.43,33.43,0,0,0,4.785-1.485c2.364-1.045,2.639-1.155,3.409-1.155,1.76,0,3.3,1.155,3.3,2.035,0,1.1-1.1,1.319-5.114,2.09a45.155,45.155,0,0,0-5.555,1.21,1.216,1.216,0,0,0-1.045,1.375,35.832,35.832,0,0,0,.99,4.949c.5,1.869.715,2.364,1.705,2.364a36.961,36.961,0,0,0,7.039-2.089,11.225,11.225,0,0,1,5.444-1.375c2.915,0,4.125,1.485,4.125,2.419,0,1.65-2.255,1.706-4.235,1.706a58.053,58.053,0,0,0-9.9,1.594c-2.309.495-2.419.825-2.419,1.869C-5698.027-1595.446-5694.068-1584.228-5694.068-1581.808Z" fill="#333"/>
      <path id="パス_1794" data-name="パス 1794" d="M-5646.117-1602.815c0,1.1-.825,2.749-2.144,2.749-.826,0-1.1-.33-1.925-1.7a13.332,13.332,0,0,0-5-4.565c-.165-.11-.494-.33-.494-.549,0-.771,3.134-.826,3.849-.826C-5649.471-1607.71-5646.117-1605.51-5646.117-1602.815Zm-6.764,17.048c-.165-.276-1.155-1.43-1.32-1.705a2.336,2.336,0,0,1-.329-1.045c0-.22.164-.385.494-.385.5,0,2.585.715,3.025.715,2.365,0,17.158-8.249,30.3-23.153a26.353,26.353,0,0,1,2.366-2.474.2.2,0,0,1,.219.221c0,.6-4.839,12.373-27.606,28.32-.66.44-3.3,2.915-4.014,2.915C-5650.956-1582.358-5651.506-1583.238-5652.881-1585.767Zm13.363-27.991c0,1.264-.88,2.474-1.76,2.474-.6,0-.879-.221-2.859-2.585a9.581,9.581,0,0,0-4.729-2.915c-.221-.055-.825-.22-.825-.385s1.539-1.045,4.234-1.045C-5639.518-1618.214-5639.518-1613.924-5639.518-1613.758Z" fill="#333"/>
      <path id="パス_1795" data-name="パス 1795" d="M-5582.438-1607.325a29.726,29.726,0,0,0,3.465,1.485c1.154,0,2.749-3.849,3.409-5.444.99-2.365,2.035-5.5,2.035-6.6a2.434,2.434,0,0,0-.386-1.265c-.165-.33-.329-.495-.329-.66a.449.449,0,0,1,.44-.495,8.576,8.576,0,0,1,3.684,1.759,7.229,7.229,0,0,1,2.364,3.96c0,.44-.165.495-1.374,1.1-.6.33-.77.6-2.2,3.3-.934,1.814-1.979,3.684-3.135,5.5a2.531,2.531,0,0,0-.549,1.375,2.19,2.19,0,0,0,.934,1.484c4.73,4.18,5.39,7.15,5.39,8.525a1.725,1.725,0,0,1-1.76,1.814c-1.979,0-2.8-1.43-4.729-4.839-.55-.99-1.595-2.86-2.365-2.86a1.584,1.584,0,0,0-1.155.77c-10.063,12.593-21.062,17.268-21.557,17.268-.165,0-.384-.055-.384-.276s1.044-1.044,1.7-1.594c9.348-7.314,13.033-11.6,14.573-13.473,1.32-1.65,3.959-5.059,3.959-5.885,0-1.154-5.059-4.178-7.148-5.334-1.045-.549-1.156-.6-1.156-.88,0-.219.111-.44.5-.44A22.146,22.146,0,0,1-5582.438-1607.325Z" fill="#333"/>
      <path id="パス_1796" data-name="パス 1796" d="M-5503.768-1605.51a48.488,48.488,0,0,0,13.307,4.344c.221,0,1.156.165,1.156.385,0,.165-.77.385-.991.441a9.513,9.513,0,0,0-4.178,2.969c-.165.22-.771,1.375-1.045,1.375-.33,0-12.264-5.774-17.654-14.573-1.044-1.76-1.21-1.925-1.594-1.925s-.494.11-1.7,1.375a65.372,65.372,0,0,1-16.279,12.813c-1.869.99-7.589,3.519-8.634,3.519-.165,0-.274-.109-.274-.165s5.884-3.684,6.379-4.013c7.424-4.675,15.288-13.089,16.058-17.213.054-.441.11-.606.5-.606.274,0,4.729,1.705,5,1.87.165.055.714.276.714.825a3.435,3.435,0,0,1-.219.77C-5513.117-1612.494-5508.387-1607.875-5503.768-1605.51Zm-26.507-13.693c-4.069,0-5.94.11-6.984.165-.165,0-.99.11-1.155.11s-.275-.11-.5-.33l-1.045-1.265c-.22-.275-.22-.275-.22-.385s.055-.11.165-.11c.385,0,2.09.165,2.42.165,2.695.11,5,.221,7.589.221h1.6c1.154,0,1.484-.551,1.484-1.486a8.942,8.942,0,0,0-.439-2.915,8.128,8.128,0,0,1-.33-1.1c0-.275.274-.385.6-.385.385,0,2.861.6,3.465.769,1.65.441,1.98.551,1.98,1.045,0,.33-.055.441-.825,1.43a1.344,1.344,0,0,0-.385.99c0,1.32.44,1.651,1.925,1.651h9.074c.5,0,1.649,0,1.649-1.486a22.525,22.525,0,0,0-.165-2.474c-.055-.276-.33-1.43-.33-1.65,0-.275.33-.386.606-.386.384,0,4.124.88,4.729,1.045s.935.386.935.88c0,.33-.22.551-.826.99a1.766,1.766,0,0,0-.714,1.54c0,1.541.879,1.541,1.759,1.541h2.805c2.42,0,2.695,0,3.52-.936,1.54-1.814,1.7-2.034,2.2-2.034.33,0,5.114,2.914,5.114,3.629,0,.77-1.1.77-2.915.77h-10.724c-1.7,0-1.7.88-1.7,2.2,0,.33.055,2.2.055,2.475,0,2.035-1.65,2.365-2.805,2.365-1.264,0-1.484-.22-1.484-2.09v-3.795c-.165-1.044-.825-1.154-1.705-1.154h-8.8c-1.265,0-2.035,0-2.035,1.539,0,.551.165,2.97.165,3.465,0,1.045-.165,1.54-.66,1.87a3.905,3.905,0,0,1-2.089.77c-.936,0-1.375-.6-1.375-1.705,0-.44.054-2.53.054-2.914,0-2.145,0-3.025-1.705-3.025Zm3.9,28.1a28,28,0,0,1,4.235,2.585,1.36,1.36,0,0,1,.44.825c0,.659-.44.769-1.76,1.1-.165.054-4.894,3.739-5.774,4.4-4.949,3.519-8.084,4.784-8.359,4.784a.175.175,0,0,1-.165-.165c0-.109,2.914-2.64,3.3-3.024,4.565-4.345,7.369-8.689,7.864-10.449A.331.331,0,0,1-5526.371-1591.1Zm2.53-2.914c-4.29,0-5.884.054-6.984.165-.165,0-.99.109-1.155.109s-.275-.109-.494-.33l-1.045-1.265c-.221-.274-.221-.274-.221-.384,0-.055.056-.111.165-.111.386,0,2.09.165,2.42.165,2.694.165,5,.221,7.589.221h4.125c.55,0,1.649,0,1.649-1.485,0-.66-.33-5.115-.439-5.664,0-.111-.33-.661-.33-.77s.109-.33.55-.33c.384,0,4.234.824,4.784.989.769.165,1.045.66,1.045.936,0,.33-.111.439-.935,1.154-.77.66-.77.99-.77,2.64,0,1.98,0,2.53,1.65,2.53h2.419c2.42,0,2.695,0,3.519-.936,1.54-1.814,1.706-2.034,2.2-2.034.33,0,5.114,2.97,5.114,3.629,0,.771-1.1.771-2.915.771h-10.394c-1.649,0-1.649.989-1.649,2.749,0,3.9,0,6.1.11,9.349.055.935.055,2.254.055,2.914,0,1.76-.44,2.805-2.805,2.805-1.21,0-1.32-.99-1.32-1.925,0-.715.165-4.014.165-4.729.056-2.09.056-4.124.056-6.654a33.082,33.082,0,0,0-.111-3.74c-.274-.769-1.154-.769-1.594-.769Zm14.683,4.619c0-.165.275-.22.5-.22,2.035,0,14.573,3.464,14.573,8.028,0,1.76-.99,3.135-2.365,3.135-1.045,0-1.264-.274-2.969-2.8-2.585-3.9-6.379-6.16-9.459-7.919C-5508.938-1589.177-5509.158-1589.342-5509.158-1589.4Z" fill="#333"/>
    </g>
    <g id="グループ_419" data-name="グループ 419">
      <g id="グループ_418" data-name="グループ 418">
        <path id="パス_1806" data-name="パス 1806" d="M-5770.066-1505.563a2.969,2.969,0,0,0-2.782-1.633,2.733,2.733,0,0,0-2.9,2.461c0,1.356,1.333,2.069,2.414,2.483l1.242.483c2.46.966,4.3,2.322,4.3,5.22a5.345,5.345,0,0,1-5.542,5.4,5.4,5.4,0,0,1-5.358-4.853l2.185-.46a3.247,3.247,0,0,0,3.357,3.289,3.261,3.261,0,0,0,3.2-3.38c0-1.863-1.495-2.667-2.99-3.289l-1.195-.505c-1.978-.851-3.772-1.978-3.772-4.392,0-2.806,2.483-4.484,5.105-4.484a4.945,4.945,0,0,1,4.461,2.621Z" fill="#333"/>
        <path id="パス_1807" data-name="パス 1807" d="M-5754.979-1502.965h-.046l-2.024,11.452h-2.23l3.541-18.075,5.956,13.66,5.955-13.66,3.542,18.075h-2.231l-2.024-11.452h-.046l-5.2,11.82Z" fill="#333"/>
        <path id="パス_1808" data-name="パス 1808" d="M-5727.492-1495.859l-1.977,4.346h-2.323l8.278-18.075,8.278,18.075h-2.322l-1.978-4.346Zm3.978-8.991-3.081,7.013h6.163Z" fill="#333"/>
        <path id="パス_1809" data-name="パス 1809" d="M-5695.305-1491.513h-2.622l-5.105-7.335h-.9v7.335h-2.162v-17.338h2.621a9.166,9.166,0,0,1,4.576.8,4.8,4.8,0,0,1,2.277,4.139,4.721,4.721,0,0,1-4.163,4.853Zm-8.623-9.129h.689c2.208,0,4.6-.414,4.6-3.174,0-2.713-2.575-3.1-4.714-3.1h-.574Z" fill="#333"/>
        <path id="パス_1810" data-name="パス 1810" d="M-5681.635-1491.513h-2.162v-15.361h-4.116v-1.977h10.394v1.977h-4.116Z" fill="#333"/>
        <path id="パス_1811" data-name="パス 1811" d="M-5650.609-1495.859l-1.977,4.346h-2.323l8.278-18.075,8.279,18.075h-2.323l-1.978-4.346Zm3.978-8.991-3.081,7.013h6.163Z" fill="#333"/>
        <path id="パス_1812" data-name="パス 1812" d="M-5629.308-1509.679l13.015,13.635v-12.807h2.161v18.051l-13.014-13.636v12.923h-2.162Z" fill="#333"/>
        <path id="パス_1813" data-name="パス 1813" d="M-5603.355-1508.851h3.587c5.312,0,9.727,2.8,9.727,8.577,0,5.909-4.323,8.761-9.8,8.761h-3.518Zm2.161,15.36h.759c4.415,0,8.232-1.655,8.232-6.691,0-5.059-3.817-6.692-8.232-6.692h-.759Z" fill="#333"/>
        <path id="パス_1814" data-name="パス 1814" d="M-5557.425-1505.563a2.973,2.973,0,0,0-2.784-1.633,2.732,2.732,0,0,0-2.9,2.461c0,1.356,1.333,2.069,2.414,2.483l1.241.483c2.461.966,4.3,2.322,4.3,5.22a5.345,5.345,0,0,1-5.542,5.4,5.4,5.4,0,0,1-5.358-4.853l2.184-.46a3.248,3.248,0,0,0,3.357,3.289,3.261,3.261,0,0,0,3.2-3.38c0-1.863-1.494-2.667-2.989-3.289l-1.2-.505c-1.977-.851-3.771-1.978-3.771-4.392,0-2.806,2.483-4.484,5.1-4.484a4.945,4.945,0,0,1,4.461,2.621Z" fill="#333"/>
        <path id="パス_1815" data-name="パス 1815" d="M-5543.115-1493.491h5.266v1.978h-7.428v-17.338h2.162Z" fill="#333"/>
        <path id="パス_1816" data-name="パス 1816" d="M-5526.624-1491.513h-2.161v-17.338h2.161Z" fill="#333"/>
        <path id="パス_1817" data-name="パス 1817" d="M-5512.725-1502.965h-.046l-2.024,11.452h-2.23l3.541-18.075,5.956,13.66,5.956-13.66,3.541,18.075h-2.23l-2.024-11.452h-.046l-5.2,11.82Z" fill="#333"/>
      </g>
    </g>
    <g id="グループ_420" data-name="グループ 420">
      <path id="パス_1818" data-name="パス 1818" d="M-5735.949-1458.722a3.637,3.637,0,0,0-1.783-.287,7.142,7.142,0,0,0-1.825.41,6.1,6.1,0,0,1,4.182,1.127,4.117,4.117,0,0,1,1.394,3.834,12.471,12.471,0,0,1-1.25,4.386,33.879,33.879,0,0,1-2.317,4.018q-1.066,1.6-2.419,3.26a22.442,22.442,0,0,1-2.993,3.034,19.19,19.19,0,0,1-3.5,2.337,10.294,10.294,0,0,1-3.916,1.128,7.333,7.333,0,0,1-1.947-.1,3.027,3.027,0,0,1-1.7-.923,3.246,3.246,0,0,1-.9-1.926,8.219,8.219,0,0,1,.041-2.173,14.861,14.861,0,0,1,1.414-4.285,37.447,37.447,0,0,1,2.276-3.915,31.066,31.066,0,0,1,2.624-3.711,41.275,41.275,0,0,1,3.074-3.341,32.159,32.159,0,0,1,3.342-2.747,9.458,9.458,0,0,1,3.915-1.682,8.709,8.709,0,0,1,1.579-.123,2.183,2.183,0,0,1,1.455.451.679.679,0,0,1,.267.472.786.786,0,0,1-.1.472.753.753,0,0,1-.369.307A.66.66,0,0,1-5735.949-1458.722Zm-7.789,2.706a26.094,26.094,0,0,0-3.3,3.217,41.413,41.413,0,0,0-2.808,3.67,29.911,29.911,0,0,0-2.276,3.915,16.717,16.717,0,0,0-1.414,4.286,7.774,7.774,0,0,0-.123.921,4.884,4.884,0,0,0,.02,1.005,3.4,3.4,0,0,0,.246.923,1.665,1.665,0,0,0,.594.717,2.567,2.567,0,0,0,1.579.472,8.335,8.335,0,0,0,1.619-.185,11.315,11.315,0,0,0,4.1-1.722,28.9,28.9,0,0,0,3.485-2.747,26.237,26.237,0,0,0,3.055-3.362,22.127,22.127,0,0,0,2.357-3.853q.369-.739.82-1.784a10.931,10.931,0,0,0,.677-2.153,6.3,6.3,0,0,0,.082-2.132,2.762,2.762,0,0,0-.923-1.721,2.657,2.657,0,0,0-1.845-.718,10.88,10.88,0,0,0-2.049.143.67.67,0,0,1-.657-.2.878.878,0,0,1-.246-.738,16.361,16.361,0,0,0-1.619,1.025Q-5743.164-1456.468-5743.738-1456.016Z" fill="#333"/>
      <path id="パス_1819" data-name="パス 1819" d="M-5737.154-1442.405q.861-.45,1.7-.9t1.824-1.026a1.98,1.98,0,0,1,.472-1.475,1.623,1.623,0,0,1,1.415-.657.831.831,0,0,1,.737.575.991.991,0,0,1-.164.942,2.748,2.748,0,0,1-.86.82,1.37,1.37,0,0,0,.7.164,3.753,3.753,0,0,0,1.8-.307,11.963,11.963,0,0,0,1.682-.841c.491-.164.805-.108.943.164a.977.977,0,0,1-.165.984q-.206.328-.471.841a7.861,7.861,0,0,0-.451,1.045,3.576,3.576,0,0,0-.2,1.026.923.923,0,0,0,.308.779q.2.244,1.086,0t2.357-.82c.329-.137.663-.294,1-.472s.69-.349,1.045-.513a2.106,2.106,0,0,0,.369-.184,1.992,1.992,0,0,1,.472-.2.7.7,0,0,1,.41,0q.185.061.184.43a.481.481,0,0,1-.184.369,2.172,2.172,0,0,1-.41.287,2.949,2.949,0,0,1-.472.206l-.369.123-1.721.779c-.3.163-.677.368-1.128.614a9.4,9.4,0,0,1-1.373.615,4.067,4.067,0,0,1-1.353.246,1.178,1.178,0,0,1-1.026-.533,1.327,1.327,0,0,1-.245-.635,2.369,2.369,0,0,1,.02-.7,6.314,6.314,0,0,1,.164-.7c.068-.232.13-.457.184-.677l.328-1.352q-.206.04-.84.2a8.293,8.293,0,0,1-1.374.225,6.983,6.983,0,0,1-1.414-.02,1.378,1.378,0,0,1-1-.533q-.7.369-1.148.615t-.923.532q-.472.288-.759.451a2.448,2.448,0,0,0-.573.308.482.482,0,0,1-.574.061.511.511,0,0,1-.247-.451A.424.424,0,0,1-5737.154-1442.405Z" fill="#333"/>
      <path id="パス_1820" data-name="パス 1820" d="M-5717.684-1444.373c.109-.054.362-.164.759-.328a6.732,6.732,0,0,1,1.168-.369,2.2,2.2,0,0,1,.984-.02q.409.1.287.758a2.033,2.033,0,0,1-.349.739,2.767,2.767,0,0,0-.389.738,9.4,9.4,0,0,0-.472,1.311,1.384,1.384,0,0,0,.144,1.272,3.868,3.868,0,0,0,1.538-.164q.839-.246,1.537-.492a8.107,8.107,0,0,0,.779-.411q.573-.327,1.21-.635a6.764,6.764,0,0,1,1.168-.451c.355-.095.574-.062.656.1.109.191.041.4-.205.615a3.98,3.98,0,0,1-.923.595q-.552.267-1.127.492c-.383.151-.629.253-.738.308q-.9.452-1.825.881a7.319,7.319,0,0,1-1.906.594,1.118,1.118,0,0,1-1.189-.369,2.207,2.207,0,0,1-.328-1.25,6.618,6.618,0,0,1,.226-1.64q.226-.88.471-1.619-.943.369-1.845.676a16.759,16.759,0,0,0-1.763.717q-.738.33-1.476.738a.622.622,0,0,1-.717-.225q-.267-.348.225-.595Zm4.8-8.282a2.4,2.4,0,0,1,.635-.922,3.789,3.789,0,0,1,.964-.636,6.109,6.109,0,0,1,1.128-.389c.4-.1.772-.17,1.127-.226a14.858,14.858,0,0,1,2.911.123,2.2,2.2,0,0,1,.553.082.363.363,0,0,1,.267.451.622.622,0,0,1-.205.349.412.412,0,0,1-.369.1,9.878,9.878,0,0,0-2.481-.185,4.408,4.408,0,0,0-2.316.759,1.336,1.336,0,0,0-.574.655,1.5,1.5,0,0,1-.492.656.647.647,0,0,1-.861,0A.674.674,0,0,1-5712.887-1452.655Z" fill="#333"/>
      <path id="パス_1821" data-name="パス 1821" d="M-5709.312-1442.364q1.065-.531,2.091-1.024t2.091-.9a14.717,14.717,0,0,1,2.275-.615,13.232,13.232,0,0,1,2.358-.2,1,1,0,0,1,.7.226q.245.227.041.758a.807.807,0,0,1-.738.411,14.051,14.051,0,0,0-2.153,0,6.611,6.611,0,0,0-2.07.492,3.47,3.47,0,0,0-.7.369,4.369,4.369,0,0,0-.677.553,1.727,1.727,0,0,0-.43.676.992.992,0,0,0,.082.78,1.482,1.482,0,0,0,1.25.819,4.241,4.241,0,0,0,1.579-.041,4.255,4.255,0,0,0,.943-.327l.738-.369a2.677,2.677,0,0,1,.594-.226.628.628,0,0,1,.554.185.864.864,0,0,1,.02.942q-.267.534-.431.9l-.573,1.354q1.107-1.149,2.337-2.194a18.593,18.593,0,0,1,2.624-1.866c.082-.054.191-.136.328-.246a3.859,3.859,0,0,1,.45-.307,1.928,1.928,0,0,1,.493-.205.465.465,0,0,1,.41.061c.191.138.259.274.2.41a1.227,1.227,0,0,1-.286.41q-1.068.574-2.051,1.231a19.032,19.032,0,0,0-1.926,1.475,24.371,24.371,0,0,0-2.03,1.927,23.912,23.912,0,0,0-1.783,2.132l-1.066,2.46q-.492,1.23-.984,2.5t-1.066,2.5q-.123.246-.308.595a5.379,5.379,0,0,1-.41.656,1.814,1.814,0,0,1-.533.492,1.06,1.06,0,0,1-.676.144.749.749,0,0,1-.636-.452,1.619,1.619,0,0,1-.082-.82,5.42,5.42,0,0,1,.2-.9q.144-.453.267-.738a21.274,21.274,0,0,1,1.947-3.588,37.359,37.359,0,0,1,2.481-3.3l1.394-3.978a10.561,10.561,0,0,1-1.579.308,6.811,6.811,0,0,1-1.578.02,3.5,3.5,0,0,1-1.333-.41,1.977,1.977,0,0,1-.881-1.065,1.99,1.99,0,0,1,.041-1.723c-.219.138-.445.281-.677.431a.7.7,0,0,1-.594.143.443.443,0,0,1-.492-.348A.418.418,0,0,1-5709.312-1442.364Z" fill="#333"/>
      <path id="パス_1822" data-name="パス 1822" d="M-5691.428-1444.373c.109-.054.362-.164.758-.328a6.755,6.755,0,0,1,1.169-.369,2.2,2.2,0,0,1,.984-.02q.409.1.287.758a2.025,2.025,0,0,1-.349.739,2.737,2.737,0,0,0-.389.738,9.39,9.39,0,0,0-.472,1.311,1.385,1.385,0,0,0,.144,1.272,3.864,3.864,0,0,0,1.537-.164q.839-.246,1.538-.492a8.155,8.155,0,0,0,.779-.411q.573-.327,1.209-.635a6.772,6.772,0,0,1,1.169-.451c.355-.095.574-.062.656.1.109.191.041.4-.2.615a3.984,3.984,0,0,1-.923.595q-.552.267-1.127.492c-.383.151-.629.253-.738.308q-.9.452-1.825.881a7.327,7.327,0,0,1-1.906.594,1.117,1.117,0,0,1-1.189-.369,2.2,2.2,0,0,1-.328-1.25,6.639,6.639,0,0,1,.225-1.64q.225-.88.472-1.619-.943.369-1.845.676a16.682,16.682,0,0,0-1.763.717q-.738.33-1.476.738a.624.624,0,0,1-.718-.225q-.266-.348.226-.595Zm4.8-8.282a2.391,2.391,0,0,1,.635-.922,3.789,3.789,0,0,1,.964-.636,6.126,6.126,0,0,1,1.128-.389c.4-.1.771-.17,1.127-.226a14.854,14.854,0,0,1,2.911.123,2.2,2.2,0,0,1,.553.082.364.364,0,0,1,.267.451.622.622,0,0,1-.205.349.414.414,0,0,1-.369.1,9.877,9.877,0,0,0-2.481-.185,4.406,4.406,0,0,0-2.316.759,1.333,1.333,0,0,0-.574.655,1.5,1.5,0,0,1-.492.656.647.647,0,0,1-.861,0A.673.673,0,0,1-5686.631-1452.655Z" fill="#333"/>
      <path id="パス_1823" data-name="パス 1823" d="M-5683.254-1442.364q.451-.246,1.558-.84t2.276-1.128a10.48,10.48,0,0,1,2.152-.738q.984-.2,1.23.328a.812.812,0,0,1-.1.8,3.431,3.431,0,0,0-.389.718l-.493,1.147a10.267,10.267,0,0,1,1.066-.574l1.066-.491q1.313-.7,2.706-1.477a13.3,13.3,0,0,1,2.829-1.188,2.02,2.02,0,0,1,.943-.021,1.192,1.192,0,0,1,.636.369,1.045,1.045,0,0,1,.225.7,1.684,1.684,0,0,1-.328.922,6.831,6.831,0,0,1-.8,1.026q-.43.452-.882.983a2.36,2.36,0,0,1-.287.328q-.205.206-.43.472c-.151.178-.287.356-.41.533a1.324,1.324,0,0,0-.226.471,1.541,1.541,0,0,0,.718,0,6.541,6.541,0,0,0,.861-.225q.431-.143.82-.307t.594-.246l1.681-.739c.109-.054.252-.136.431-.246s.362-.211.553-.307.375-.185.554-.267a1.1,1.1,0,0,1,.43-.123.326.326,0,0,1,.369.369.642.642,0,0,1-.328.574q-.369.205-.779.39l-.861.39q-.574.327-1.107.574c-.355.163-.724.342-1.107.532q-.329.164-1.045.472a7.291,7.291,0,0,1-1.435.451,2.373,2.373,0,0,1-1.251-.041c-.355-.123-.533-.457-.533-1.005a1.364,1.364,0,0,1,.205-.737,5.072,5.072,0,0,1,.472-.636,7.853,7.853,0,0,1,.574-.595c.205-.19.389-.369.553-.533a9.024,9.024,0,0,0,.82-.86,3.344,3.344,0,0,0,.738-1.231,8.564,8.564,0,0,0-2.234.574q-1.128.451-2.071.944-1.189.574-2.46,1.291a9.554,9.554,0,0,0-2.214,1.7.794.794,0,0,1-.43.185.774.774,0,0,1-.43-.082.658.658,0,0,1-.308-.308.756.756,0,0,1-.021-.532,1.281,1.281,0,0,1,.615-.657,7.53,7.53,0,0,0,.41-.758,2.509,2.509,0,0,1,.287-.513c.055-.19.109-.389.165-.594a5.009,5.009,0,0,0,.123-.635c-.3.082-.6.177-.9.287s-.532.191-.7.246q-.575.246-1.147.471c-.384.151-.766.322-1.148.512-.22.109-.417.22-.595.328a3.414,3.414,0,0,1-.594.287.649.649,0,0,1-.472.062.773.773,0,0,1-.349-.185.357.357,0,0,1-.1-.307C-5683.547-1442.179-5683.445-1442.282-5683.254-1442.364Z" fill="#333"/>
      <path id="パス_1824" data-name="パス 1824" d="M-5664.648-1442.364q.492-.246,1.251-.635t1.619-.758c.574-.247,1.128-.478,1.661-.7s.977-.4,1.332-.533q.286-.123,1.026-.368t1.557-.451a11.811,11.811,0,0,1,1.538-.287,1.666,1.666,0,0,1,1.045.123c.328.3.39.574.185.819a1.254,1.254,0,0,1-.759.451l-1.845.205a4.293,4.293,0,0,0-.963.39q-.39.225-.882.554-.206.164-.717.676t-1,1.107a6.519,6.519,0,0,0-.779,1.148q-.287.554,0,.8a.92.92,0,0,0,.8.082,6.37,6.37,0,0,0,1.127-.369q.574-.244,1.066-.512a6.329,6.329,0,0,0,.656-.389,8.83,8.83,0,0,0,1.927-1.559.544.544,0,0,1,.8-.1.693.693,0,0,1,.266.841,1.109,1.109,0,0,1-.287.492l-.389.39a1.418,1.418,0,0,0-.308.513c-.109.191-.137.335-.082.429a.392.392,0,0,0,.287.185,4.426,4.426,0,0,0,1.435-.082,16.022,16.022,0,0,0,1.784-.45,18.427,18.427,0,0,0,1.824-.677q.9-.39,1.558-.718a1.644,1.644,0,0,0,.451-.225,3.513,3.513,0,0,1,.6-.308,1.6,1.6,0,0,1,.594-.123.424.424,0,0,1,.41.246.335.335,0,0,1-.02.451,1.471,1.471,0,0,1-.513.349q-.329.144-.656.267a5.308,5.308,0,0,0-.492.205q-.7.327-1.394.635c-.465.2-.943.417-1.435.635q-.492.207-1.066.492a9.088,9.088,0,0,1-1.189.493,6.8,6.8,0,0,1-1.25.287,2.384,2.384,0,0,1-1.169-.123,1.225,1.225,0,0,1-.82-.8,2.114,2.114,0,0,1,.041-1.086l-1.107.655q-.7.411-1.455.841a4,4,0,0,1-1.579.513,2.149,2.149,0,0,1-1.312-.329,1.357,1.357,0,0,1-.615-1.148,2.415,2.415,0,0,1,.329-1.045,8.949,8.949,0,0,1,.84-1.312,9.612,9.612,0,0,1,1.127-1.25,5.726,5.726,0,0,1,1.148-.862,8.066,8.066,0,0,0-.922.369q-.636.288-1.435.7t-1.681.84q-.882.43-1.619.8a.5.5,0,0,1-.411.062.561.561,0,0,1-.307-.205.465.465,0,0,1-.082-.328A.415.415,0,0,1-5664.648-1442.364Z" fill="#333"/>
      <path id="パス_1825" data-name="パス 1825" d="M-5646.629-1442.405a26.213,26.213,0,0,0,2.46-1.27q1.188-.7,2.378-1.518a21.981,21.981,0,0,1,1.271-2.214q.7-1.065,1.353-2.091.7-.942,1.394-1.906t1.435-1.906q.615-.82,1.332-1.661a6.136,6.136,0,0,1,1.661-1.373,3.389,3.389,0,0,1,1.107-.349.764.764,0,0,1,.9.595,1.305,1.305,0,0,1,.02.881,3.656,3.656,0,0,1-.43.861,9.5,9.5,0,0,1-.615.82q-.329.39-.533.676a32.824,32.824,0,0,1-3.67,4.367,38.16,38.16,0,0,1-4.366,3.751q-.205.492-.472,1.046a9.816,9.816,0,0,0-.471,1.168,6.7,6.7,0,0,0-.287,1.21,3.1,3.1,0,0,0,.041,1.128q.45-.083.82-.123.327-.04.615-.062a1.214,1.214,0,0,0,.369-.061,18.657,18.657,0,0,0,2.419-.656q1.188-.411,2.337-.9a3.42,3.42,0,0,0,.779-.328.737.737,0,0,1,.779-.041c.3.22.341.417.123.595a2.66,2.66,0,0,1-.615.389l-4.756,1.763q-.7.246-1.353.513a4.223,4.223,0,0,1-1.353.307,1.328,1.328,0,0,1-.984-.184,1.383,1.383,0,0,1-.513-.7,2.351,2.351,0,0,1-.1-.943,5.249,5.249,0,0,1,.164-.964,14.259,14.259,0,0,1,.738-1.967,31.625,31.625,0,0,1-3.526,2.008.641.641,0,0,1-.677-.266Q-5647.121-1442.158-5646.629-1442.405Zm8.323-5.616a31.761,31.761,0,0,0,3.526-3.9,13.981,13.981,0,0,0,1.394-1.967,5.131,5.131,0,0,1,.246-.513,5.233,5.233,0,0,0,.287-.636,4.438,4.438,0,0,0-1.087.779q-.513.493-.84.821a21.9,21.9,0,0,0-1.763,1.988q-.822,1.045-1.64,2.152-.451.657-.861,1.292t-.779,1.291c.246-.19.5-.4.758-.635Z" fill="#333"/>
      <path id="パス_1826" data-name="パス 1826" d="M-5618.053-1450.4a28.106,28.106,0,0,1,3.772-2.808q2.008-1.251,4.059-2.317,1.434-.736,2.952-1.394a30.545,30.545,0,0,1,3.116-1.148l.409-.491q.738-.78,1.579-1.518a5.877,5.877,0,0,1,1.824-1.106,5.17,5.17,0,0,1,.718-.164,3.334,3.334,0,0,1,.9-.041,1.336,1.336,0,0,1,.717.266q.288.227.123.758a.61.61,0,0,1-.369.41.8.8,0,0,1-.614,0,1.271,1.271,0,0,0-.779-.082,3.2,3.2,0,0,0-.841.308,5.256,5.256,0,0,0-.84.553c-.274.219-.519.411-.738.575a17.553,17.553,0,0,1,2.173-.2,9.3,9.3,0,0,1,2.234.184,5.692,5.692,0,0,1,1.988.82,3.837,3.837,0,0,1,1.4,1.7,2.422,2.422,0,0,1,.061,1.967,5.375,5.375,0,0,1-1.189,1.743,11.267,11.267,0,0,1-1.763,1.435q-.963.636-1.7,1.045-1.722,1.066-3.506,1.969t-3.629,1.722a26.065,26.065,0,0,1,3.711-.472,7.288,7.288,0,0,1,3.424.595,2.875,2.875,0,0,1,1.353,1.045,3.018,3.018,0,0,1,.512,1.456,3.573,3.573,0,0,1-.246,1.578,4.026,4.026,0,0,1-.923,1.415,9.681,9.681,0,0,1-3.648,2.275,42.9,42.9,0,0,1-4.142,1.25,43.535,43.535,0,0,1-7.257,1.354,2.271,2.271,0,0,0,.616.942.661.661,0,0,1,.287.574.627.627,0,0,1-.287.451.938.938,0,0,1-.595.144.881.881,0,0,1-.635-.39,3.145,3.145,0,0,1-.451-.779,8.015,8.015,0,0,1-.287-.86,20.089,20.089,0,0,1-2.3.123,15.285,15.285,0,0,1-2.3-.164c-.22-.028-.513-.069-.882-.123a6.658,6.658,0,0,1-1.107-.267,3.089,3.089,0,0,1-.943-.492.932.932,0,0,1-.389-.759q0-.532.287-.635a.864.864,0,0,1,.636.041,5.156,5.156,0,0,1,.716.368,4.214,4.214,0,0,0,.575.308,8.706,8.706,0,0,0,2.378.492q1.23.082,2.46.082h.738a10.148,10.148,0,0,1,.431-3.157q.469-1.6.921-2.788l.205-.614c-.191.082-.382.157-.574.225s-.4.13-.614.185h-.041a1.244,1.244,0,0,1-.759-.062q-.308-.142-.266-.635a.606.606,0,0,1,.266-.493,2.6,2.6,0,0,1,.636-.348,4.653,4.653,0,0,1,.8-.226c.287-.054.54-.108.759-.164l.533-.123q.7-1.6,1.5-3.115t1.7-2.993q.859-1.436,1.763-2.85t1.926-2.726q-1.148.45-2.213.943t-2.009.983a27.143,27.143,0,0,0-2.932,1.66,27.7,27.7,0,0,0-2.726,2.031,3.768,3.768,0,0,0-.472.471c-.178.2-.362.41-.553.615a4.228,4.228,0,0,1-.595.533.8.8,0,0,1-.594.184.666.666,0,0,1-.636-.492A.718.718,0,0,1-5618.053-1450.4Zm4.8,11.973a4.938,4.938,0,0,0-.123,1.721q1.885-.163,3.752-.492a28.344,28.344,0,0,0,3.669-.9c.6-.164,1.257-.364,1.969-.595a16,16,0,0,0,2.07-.841,12.126,12.126,0,0,0,1.866-1.127,4.823,4.823,0,0,0,1.352-1.5,1.694,1.694,0,0,0,.246-1.7,2.4,2.4,0,0,0-1.188-.984,6.723,6.723,0,0,0-1.824-.471,14.185,14.185,0,0,0-1.662-.123q-1.682.082-3.443.306a27.911,27.911,0,0,0-3.485.677l-1.8.7h-.041a22.009,22.009,0,0,0-.882,2.624A16.054,16.054,0,0,0-5613.257-1438.427Zm8.16-16.934q-1.436,1.845-2.686,3.793a42.727,42.727,0,0,0-2.275,4q-.328.576-.616,1.148t-.533,1.148q2.3-.778,4.532-1.763t4.366-2.091a30.085,30.085,0,0,0,2.685-1.516,18.785,18.785,0,0,0,2.44-1.846,13.3,13.3,0,0,0,1.045-1.086,2.454,2.454,0,0,0,.635-1.333,1.127,1.127,0,0,0-.143-.7,2.243,2.243,0,0,0-.492-.6,4.375,4.375,0,0,0-.656-.472,5.922,5.922,0,0,0-.635-.328,7.6,7.6,0,0,0-3.035-.533,13.825,13.825,0,0,0-3.157.451q-.409.411-.778.841T-5605.1-1455.361Z" fill="#333"/>
      <path id="パス_1827" data-name="パス 1827" d="M-5595.508-1442.405a26.213,26.213,0,0,0,2.46-1.27q1.188-.7,2.378-1.518a21.989,21.989,0,0,1,1.272-2.214q.7-1.065,1.352-2.091.7-.942,1.394-1.906t1.435-1.906q.616-.82,1.333-1.661a6.121,6.121,0,0,1,1.661-1.373,3.38,3.38,0,0,1,1.106-.349.764.764,0,0,1,.9.595,1.305,1.305,0,0,1,.021.881,3.661,3.661,0,0,1-.431.861,9.025,9.025,0,0,1-.615.82q-.328.39-.533.676a32.854,32.854,0,0,1-3.669,4.367,38.244,38.244,0,0,1-4.366,3.751c-.138.328-.294.677-.472,1.046a9.9,9.9,0,0,0-.472,1.168,6.825,6.825,0,0,0-.287,1.21,3.122,3.122,0,0,0,.041,1.128c.3-.055.574-.1.821-.123.218-.027.422-.048.615-.062a1.212,1.212,0,0,0,.368-.061,18.714,18.714,0,0,0,2.42-.656q1.188-.411,2.337-.9a3.413,3.413,0,0,0,.778-.328.738.738,0,0,1,.779-.041c.3.22.342.417.123.595a2.63,2.63,0,0,1-.615.389l-4.756,1.763c-.464.164-.916.335-1.352.513a4.223,4.223,0,0,1-1.354.307,1.324,1.324,0,0,1-.983-.184,1.377,1.377,0,0,1-.513-.7,2.351,2.351,0,0,1-.1-.943,5.168,5.168,0,0,1,.164-.964,14.127,14.127,0,0,1,.737-1.967,31.7,31.7,0,0,1-3.525,2.008.64.64,0,0,1-.677-.266Q-5596-1442.158-5595.508-1442.405Zm8.324-5.616a31.631,31.631,0,0,0,3.525-3.9,13.946,13.946,0,0,0,1.4-1.967,4.73,4.73,0,0,1,.246-.513,5.3,5.3,0,0,0,.286-.636,4.442,4.442,0,0,0-1.086.779q-.513.493-.841.821a22.118,22.118,0,0,0-1.763,1.988q-.819,1.045-1.639,2.152-.453.657-.862,1.292t-.779,1.291c.246-.19.5-.4.759-.635Z" fill="#333"/>
      <path id="パス_1828" data-name="パス 1828" d="M-5583.519-1442.405q.738-.369,1.537-.819a13.371,13.371,0,0,1,1.62-.78,4.184,4.184,0,0,1,1.517-1.537,6.192,6.192,0,0,1,2.09-.8,5.374,5.374,0,0,1,1.333,0,1.616,1.616,0,0,1,1.168.615.639.639,0,0,1,.144.7,1.929,1.929,0,0,1-.492.7,4.856,4.856,0,0,1-.779.595q-.431.267-.635.39a5.882,5.882,0,0,1-1.619.675,5.174,5.174,0,0,1-1.785.144h-.164a2.314,2.314,0,0,0,.739,1.395,3.573,3.573,0,0,0,1.353.717,4.912,4.912,0,0,0,1.619.185,12.275,12.275,0,0,0,1.537-.164,18.281,18.281,0,0,0,1.928-.513,17.739,17.739,0,0,0,1.845-.718c.272-.136.554-.266.84-.389a8.347,8.347,0,0,0,.8-.39.786.786,0,0,1,.595.082c.205.11.226.287.062.533a1.05,1.05,0,0,1-.575.451c-.246.082-.464.165-.656.247l-2.05.9a35.223,35.223,0,0,1-3.73,1.229,6.121,6.121,0,0,1-1.661.1,4.812,4.812,0,0,1-1.558-.369,4.089,4.089,0,0,1-1.292-.882,3.238,3.238,0,0,1-.819-1.476c-.056-.218-.1-.436-.144-.656a1.3,1.3,0,0,1,.021-.614,7.9,7.9,0,0,0-.882.471l-.758.471a3,3,0,0,0-.533.308.555.555,0,0,1-.656.02.469.469,0,0,1-.226-.451A.384.384,0,0,1-5583.519-1442.405Zm4.181-1.147a4.763,4.763,0,0,0,1.908-.493,5.96,5.96,0,0,0,1.619-1.148,2.311,2.311,0,0,0-1.128-.122,3.22,3.22,0,0,0-1.025.327,3.174,3.174,0,0,0-.84.636A2.57,2.57,0,0,0-5579.338-1443.552Z" fill="#333"/>
      <path id="パス_1829" data-name="パス 1829" d="M-5569.1-1442.364q.451-.246,1.557-.84t2.276-1.128a10.487,10.487,0,0,1,2.153-.738c.655-.136,1.066-.026,1.23.328a.809.809,0,0,1-.1.8,3.439,3.439,0,0,0-.39.718l-.491,1.147a10.169,10.169,0,0,1,1.066-.574l1.066-.491q1.311-.7,2.706-1.477a13.294,13.294,0,0,1,2.828-1.188,2.024,2.024,0,0,1,.944-.021,1.183,1.183,0,0,1,.635.369,1.045,1.045,0,0,1,.226.7,1.68,1.68,0,0,1-.328.922,6.865,6.865,0,0,1-.8,1.026q-.431.452-.881.983a2.49,2.49,0,0,1-.287.328c-.138.137-.281.294-.431.472s-.287.356-.41.533a1.328,1.328,0,0,0-.225.471,1.537,1.537,0,0,0,.717,0,6.482,6.482,0,0,0,.861-.225q.431-.143.82-.307c.26-.11.458-.192.6-.246l1.68-.739c.11-.054.253-.136.431-.246s.362-.211.554-.307.375-.185.554-.267a1.086,1.086,0,0,1,.429-.123.326.326,0,0,1,.369.369.641.641,0,0,1-.328.574c-.245.137-.506.267-.778.39l-.861.39q-.574.327-1.107.574c-.356.163-.724.342-1.107.532q-.328.164-1.046.472a7.291,7.291,0,0,1-1.435.451,2.374,2.374,0,0,1-1.251-.041c-.355-.123-.532-.457-.532-1.005a1.355,1.355,0,0,1,.205-.737,4.969,4.969,0,0,1,.471-.636,8.048,8.048,0,0,1,.574-.595c.205-.19.39-.369.554-.533a9.153,9.153,0,0,0,.82-.86,3.334,3.334,0,0,0,.737-1.231,8.58,8.58,0,0,0-2.234.574,22.724,22.724,0,0,0-2.07.944q-1.189.574-2.46,1.291a9.513,9.513,0,0,0-2.214,1.7.793.793,0,0,1-.431.185.773.773,0,0,1-.43-.082.661.661,0,0,1-.308-.308.77.77,0,0,1-.021-.532,1.278,1.278,0,0,1,.616-.657,7.732,7.732,0,0,0,.41-.758,2.484,2.484,0,0,1,.287-.513c.055-.19.108-.389.164-.594a4.764,4.764,0,0,0,.123-.635c-.3.082-.6.177-.9.287s-.534.191-.7.246q-.573.246-1.147.471t-1.148.512c-.219.109-.417.22-.594.328a3.471,3.471,0,0,1-.595.287.65.65,0,0,1-.472.062.77.77,0,0,1-.348-.185.359.359,0,0,1-.1-.307C-5569.4-1442.179-5569.295-1442.282-5569.1-1442.364Z" fill="#333"/>
      <path id="パス_1830" data-name="パス 1830" d="M-5550.421-1442.405a12.991,12.991,0,0,0,2.03-.9q.962-.534,1.988-.985a8.355,8.355,0,0,1,1.353-.533q.7-.2,1.394-.41a5.335,5.335,0,0,1,1.764-.286.743.743,0,0,1,.614.327.6.6,0,0,1,.041.7.706.706,0,0,1-.369.349,1.739,1.739,0,0,1-.553.123c-.2.014-.41.02-.615.02h-.554a3.016,3.016,0,0,0-1.168.349,6.029,6.029,0,0,0-1.128.759,5.253,5.253,0,0,0-1.27,1.311c-.029.055-.09.171-.185.349s-.184.362-.266.554a3.629,3.629,0,0,0-.185.532.367.367,0,0,0,.062.369.4.4,0,0,0,.389.062,2.123,2.123,0,0,0,.532-.2q.267-.143.493-.287c.15-.095.253-.157.307-.184a15.65,15.65,0,0,0,1.313-.862q.614-.45,1.27-.9l1.927-1.722q.7-1.434,1.477-2.849t1.6-2.809q.575-.942,1.149-1.885t1.229-1.886q.615-.861,1.354-1.784a5.125,5.125,0,0,1,1.721-1.414c.191-.055.375-.11.554-.165a.962.962,0,0,1,.553,0,1.072,1.072,0,0,1,.656.329.992.992,0,0,1,.226.594,2.377,2.377,0,0,1-.082.738,2.82,2.82,0,0,1-.267.676,17.173,17.173,0,0,1-1.578,2.255q-.882,1.067-1.783,2.132-1.395,1.681-2.809,3.26t-2.973,3.055c-.137.382-.266.752-.389,1.106s-.253.725-.39,1.107q-.082.205-.184.493c-.069.191-.137.4-.206.615a5.787,5.787,0,0,0-.164.655,1.457,1.457,0,0,0-.02.533,4.95,4.95,0,0,0,1.5-.328q.757-.285,1.414-.574a20.415,20.415,0,0,0,2.316-1.086q1.17-.636,2.235-1.21a.766.766,0,0,1,.348-.1,1.4,1.4,0,0,1,.411.02.272.272,0,0,1,.225.205.657.657,0,0,1-.123.451,1.142,1.142,0,0,1-.615.472q-.411.144-.7.267-1.148.573-2.3,1.188t-2.256,1.231c-.219.108-.465.239-.737.389a6.407,6.407,0,0,1-.862.39,2.6,2.6,0,0,1-.882.164,1.409,1.409,0,0,1-.8-.246,1.256,1.256,0,0,1-.472-.7,2.348,2.348,0,0,1-.041-.882,4.69,4.69,0,0,1,.205-.9c.1-.287.184-.54.267-.758.026-.11.054-.212.082-.308a3.193,3.193,0,0,1,.123-.349l-2.05,1.763q-.33.33-.739.677a5.721,5.721,0,0,1-.881.615,3.863,3.863,0,0,1-.963.39,2,2,0,0,1-.985,0,1.368,1.368,0,0,1-1-.78,1.775,1.775,0,0,1,.041-1.188,5.081,5.081,0,0,1,.717-1.333,10.426,10.426,0,0,1,1.067-1.25l-1.026.409q-.409.207-.984.554a2.481,2.481,0,0,1-1.024.389.408.408,0,0,1-.411.021.53.53,0,0,1-.225-.267.611.611,0,0,1-.021-.348A.385.385,0,0,1-5550.421-1442.405Zm11.644-4.018q1.066-1.107,2.091-2.275t1.969-2.4q.408-.575.819-1.128t.779-1.168a8.965,8.965,0,0,1,.472-.78,2.749,2.749,0,0,0,.43-.984,2.568,2.568,0,0,0-1.066.779q-.491.574-.779.9a25.908,25.908,0,0,0-1.763,2.132q-.82,1.107-1.558,2.3l-1.64,2.871Z" fill="#333"/>
    </g>
    <g id="グループ_493" data-name="グループ 493" transform="translate(-6652.632 -2670.304)">
      <path id="パス_2138" data-name="パス 2138" d="M872.791,1123.445c-.52,0-1.156-.173-1.156-.925,0-.925.955-.925,1.156-.925h4.365c1.156,0,1.156.78,1.156.925,0,.925-.838.925-1.156.925Z" transform="translate(0 5.034)" fill="#333"/>
      <path id="パス_2139" data-name="パス 2139" d="M890.341,1122.4c-1.011,0-1.011.231-1.011,1.936,0,.751.233.9.52.953,1.042.26,4.451,1.1,4.451,3.353,0,.665-.4,1.647-1.127,1.647-.433,0-.491-.145-1.042-1.531a5.181,5.181,0,0,0-2.514-2.862c-.316,0-.316.058-.316,1.591,0,1.589.172,8.583.172,10.057,0,.406,0,1.909-1.56,1.909-.578,0-.578-.4-.578-.838,0-.376.087-2.284.087-2.689.058-2.283.143-6.647.143-8.787,0-.116,0-.491-.287-.491-.144,0-.231.145-.954,1.215-1.647,2.427-4.511,5.492-5.058,5.492-.087,0-.117-.058-.117-.146,0-.114,1.62-2.2,1.822-2.485a29.593,29.593,0,0,0,3.872-7.861c0-.433-.145-.463-1.356-.463-.262,0-1.967.029-2.747.087-.087,0-.522.087-.607.087-.117,0-.145-.087-.26-.2l-.549-.666a.292.292,0,0,1-.116-.2c0-.058.058-.058.085-.058.2,0,1.1.089,1.3.116,1.1.029,2.4.087,3.469.087h.634c.291,0,.782,0,.9-.491.029-.173.029-2.312.029-2.63,0-.9-.117-1.358-.9-1.358-.116,0-2.862.26-3.381.26-.233,0-.955,0-.955-.145,0-.115.2-.173.318-.2a25.113,25.113,0,0,0,7.081-2.486,17.045,17.045,0,0,1,1.589-1.069,9.79,9.79,0,0,1,2.544,2.167c0,.173-.144.26-.376.26-.145,0-.665-.058-.809-.058a15.1,15.1,0,0,0-2.949.869c-.433.318-.433,1.589-.433,2.485,0,2.167,0,2.4.869,2.4,1.241,0,1.241,0,1.963-.9.406-.52.664-.809.811-.809s2.485,1.591,2.485,2.08c0,.377-.607.377-1.56.377ZM903,1116.682a1,1,0,0,0,.925-.376c.52-.637.578-.7.722-.7a14.7,14.7,0,0,1,1.878,1.3.643.643,0,0,1,.2.433c0,.231-.2.347-.4.433-.634.318-.634.491-.634,2.254,0,5.463,0,6.243.2,13.21,0,.289.085,1.676.085,1.994a1.2,1.2,0,0,1-.432,1.1,2.8,2.8,0,0,1-1.36.52c-.491,0-.491-.52-.491-.953,0-.607-.347-.607-.811-.607h-3.872c-.838,0-.867.26-.867,1.069,0,1.04-1.071,1.416-1.618,1.416a.662.662,0,0,1-.7-.78c0-.26.115-1.5.115-1.791.058-1.358.116-8.5.116-9.336,0-1.676,0-5.116-.231-8.872,0-.144-.145-.9-.145-1.071,0-.2.145-.26.348-.26a4.454,4.454,0,0,1,1.272.491,2.811,2.811,0,0,0,1.791.522Zm-.117,17.833c.839,0,.839-.462.839-1.1v-15.29c0-.578-.493-.693-.839-.693h-3.93a.738.738,0,0,0-.809.433c-.087.231-.087,8.583-.087,9.885,0,3.034.058,6.07.087,6.214.087.549.578.549.838.549Z" transform="translate(5.758 0.152)" fill="#333"/>
      <path id="パス_2140" data-name="パス 2140" d="M906.56,1135.216c0,1.82-.982,4.1-2.226,4.1a1.544,1.544,0,0,1-1.357-1.533c0-.376.056-.462,1.069-2.08a9.167,9.167,0,0,0,1.154-4.1c0-.173-.085-.433-.085-.52a.061.061,0,0,1,.058-.058,3.625,3.625,0,0,1,1.185,2.341A11.549,11.549,0,0,1,906.56,1135.216Zm4.422-17.573c.576,0,.751-.029,1.1-.636a8.237,8.237,0,0,0,1.042-3.035c0-.087-.087-.463-.087-.549,0-.116.145-.144.231-.144.2,0,1.533.4,2.052.549.867.26,1.331.375,1.331.78,0,.347-.088.376-1.04.809a10.048,10.048,0,0,0-2.458,2.053c0,.173.2.173.433.173h8.15a.658.658,0,0,0,.695-.376c.2-.289.462-.665.78-.665.231,0,2.2.925,2.2,1.416,0,.231-.318.462-.462.549-.376.26-.462.376-.462,1.1,0,.289.144,3.151.144,3.324a1.456,1.456,0,0,1-1.56,1.358c-.664,0-.664-.433-.693-.838-.029-.665-.637-.665-.867-.665h-11.36c-.4,0-.807.058-.925.549-.027.115-.027,1.734-.027,1.82,0,.78.145,1.011.952,1.011h12.11c1.186,0,1.329,0,1.562-.2s1.242-1.56,1.589-1.56,2.718,1.589,2.718,2.138c0,.375-.579.375-1.531.375H910.115c-.9,0-.9.464-.9.955,0,1.965,0,2.2.984,2.2h14.51c.374,0,.665,0,.836-.376.2-.4.375-.78.664-.78.233,0,2.254.982,2.254,1.531,0,.144-.114.289-.4.491a1.3,1.3,0,0,0-.666,1.04c-.116.608-.665,3.729-.836,4.423a3.993,3.993,0,0,1-3.989,3.238c-.636,0-.665-.173-.839-.694a4.052,4.052,0,0,0-1.531-1.62c-.114-.087-.693-.289-.693-.433,0-.029.029-.087.144-.087.087,0,.231.087.435.116a8.448,8.448,0,0,0,1.82.231c2.427,0,2.687-1.416,2.86-2.254.318-1.618.551-3.238.551-3.469,0-.607-.464-.607-.867-.607H909.913c-.551,0-.637.144-.78.491a1.467,1.467,0,0,1-1.417.982c-.462,0-.665-.144-.665-.607,0-.145.058-1.271.058-1.5.087-1.734.115-2.429.115-10.261a12.606,12.606,0,0,0-.2-2.572c-.029-.145-.347-.869-.347-1.04,0-.117.087-.117.173-.117a6.487,6.487,0,0,1,1.994.753c.925.578,1.04.636,1.647.636Zm-.84.78c-.925,0-.952,0-.952,2.341,0,1.1,0,1.331.952,1.331H921.5c.9,0,.983,0,.983-2.573,0-.9-.058-1.1-.925-1.1Zm2.458,17.891c0,.52-.029,1.88-1.446,1.88-.634,0-.665-.724-.692-2.053a13.729,13.729,0,0,0-.319-2.572c-.027-.145-.085-.347-.085-.4s.027-.117.058-.117a7.423,7.423,0,0,1,1.5,1.1A2.842,2.842,0,0,1,912.6,1136.314Zm5.578-.665a1.382,1.382,0,0,1-1.215,1.5c-.894,0-1.069-.925-1.185-1.82a10.583,10.583,0,0,0-.462-1.966c-.029-.114-.316-.576-.316-.664,0-.056.087-.087.172-.087a3.977,3.977,0,0,1,1.475.751A2.932,2.932,0,0,1,918.179,1135.65Zm5-.867a1.284,1.284,0,0,1-1.242,1.242c-.608,0-.811-.607-1.242-1.878a5.088,5.088,0,0,0-.925-1.706,2.8,2.8,0,0,1-.347-.462c0-.058.145-.058.172-.058a5.681,5.681,0,0,1,1.764.578C923.063,1133.454,923.179,1134.523,923.179,1134.783Z" transform="translate(18.97 0)" fill="#333"/>
      <path id="パス_2141" data-name="パス 2141" d="M933.712,1122.207a4.573,4.573,0,0,0,.925-.029c.26-.058,1.214-1.042,1.329-1.042.2,0,1.793,1.244,1.793,1.562,0,.26-.433.289-.578.289h-8.323a29.91,29.91,0,0,0-3.093.087c-.058,0-.348.058-.435.058s-.143-.087-.23-.2l-.578-.666c-.117-.116-.117-.143-.117-.172,0-.059.031-.088.117-.088.547,0,3.063.175,3.554.175.375,0,.522-.058.522-.261a8.89,8.89,0,0,0-.377-1.821c-.115-.347-.433-1.127-.549-1.445l.029-.058c.116,0,2.312,1.041,2.312,2.63,0,.144-.173.693-.173.809,0,.175.2.175.318.175h1.127c.377,0,.579-.029.782-.522a13.412,13.412,0,0,0,.722-2.86c0-.491,0-.578.26-.578.087,0,1.647.52,1.792.578a.35.35,0,0,1,.175.289c0,.145-.607.491-.7.607A10,10,0,0,0,932.7,1122c0,.2.2.2.318.2Zm-.4-4.885a4.585,4.585,0,0,0,.9-.029c.289-.087,1.157-1.3,1.3-1.3.117,0,1.649,1.389,1.649,1.707,0,.376-.637.376-1.531.376h-5.06c-2.543,0-3.352.058-3.641.086-.117,0-.522.087-.607.087-.117,0-.175-.087-.26-.2l-.549-.665c-.088-.087-.145-.144-.145-.173,0-.06.056-.087.114-.087.637,0,3.469.2,4.048.2.518,0,.634-.231.634-1.157,0-.231-.085-1.56-.172-2.08a3.56,3.56,0,0,1-.175-.607.135.135,0,0,1,.144-.144c.117,0,2.862.664,2.862,1.242,0,.173-.087.231-.578.52-.348.2-.348.924-.348,1.215,0,.693.059,1.011.7,1.011Zm-3.96,15.492c-.376,0-.78.029-.78.722,0,.751.087,4.045.087,4.711a1.249,1.249,0,0,1-1.416,1.3c-.578,0-.578-.289-.578-.954,0-1.417.143-7.631.143-8.9a22.418,22.418,0,0,0-.143-4.191c-.029-.144-.262-.665-.262-.78,0-.058.031-.087.117-.087a11.486,11.486,0,0,1,1.907.809,2.846,2.846,0,0,0,1.1.173h3.438c.491,0,.809-.029,1.069-.4.2-.318.26-.375.491-.375.2,0,2.082.693,2.082,1.3,0,.115-.145.26-.462.549-.291.291-.291.493-.291,2.082,0,1.214.146,6.561.146,7.63,0,.809,0,3.006-2.429,3.006-.318,0-.347-.058-.607-.722a1.879,1.879,0,0,0-1.3-1.331c-.289-.087-.377-.087-.377-.173,0-.058.059-.087.117-.087h2.052c.607-.087.607-.693.607-1.531,0-.318,0-2.138-.029-2.283-.087-.433-.4-.462-.722-.462Zm3.931-4.018c.751,0,.751-.231.751-1.271,0-.84,0-1.157-.751-1.157h-3.96c-.751,0-.751.26-.751,1.3,0,.838,0,1.127.751,1.127Zm-3.96.78c-.751,0-.751.231-.751,1.329,0,.867,0,1.156.751,1.156h3.96c.751,0,.751-.231.751-1.329,0-.867,0-1.156-.751-1.156Zm15.695-5.607c.839,0,.839-.115.839-2.169,0-.549-.03-.953-.811-.953h-3.5c-.291,0-.578,0-.753.347a1.647,1.647,0,0,1-1.474.953c-.4,0-.578-.347-.578-.751,0-.144.058-.664.058-.722.029-.347.029-3.612.029-4.565a20.182,20.182,0,0,0-.087-2.14c0-.058-.087-.347-.087-.4s0-.174.117-.174c.027,0,2.6.462,2.6.867,0,.144-.462.635-.549.751-.116.174-.116.26-.116,1.069,0,.58.26.7.807.7h3.5c1.042,0,1.1-.059,1.214-.2.2-.2.9-1.331,1.157-1.331.145,0,2.138,1.533,2.138,1.907,0,.406-.491.406-1.242.406h-6.765c-.78,0-.838.318-.838.925,0,1.531.146,1.589.838,1.589h3.411a1.452,1.452,0,0,0,.782-.144c.087-.087.49-.52.607-.52a6.531,6.531,0,0,1,1.965,1.445c0,.144-.058.173-.433.491-.289.26-.289.462-.289,1.244,0,.2.056,1.618.056,1.676a1.185,1.185,0,0,1-1.271,1.127c-.4,0-.49-.115-.692-.462-.145-.2-.462-.2-.637-.2H941.4c-.634,0-.809.173-.809,1.156,0,.869.347.869.751.869h2.833c.925,0,1.013,0,1.215-.146.172-.174.894-.983,1.1-.983.146,0,2,1.214,2,1.531,0,.348-.376.348-1.04.348h-6.1c-.607,0-.751.231-.751.867,0,1.329.031,1.474.809,1.474h2.573c.925,0,1.013,0,1.215-.144.172-.145.894-.983,1.1-.983.146,0,2,1.214,2,1.531,0,.347-.376.347-1.04.347H941.43c-.753,0-.782.4-.782.982,0,1.1,0,1.418.809,1.418H944c.9,0,1.011,0,1.156-.174.173-.146.867-1.013,1.069-1.013.173,0,2.312,1.3,2.312,1.648,0,.289-.49.289-1.241.289h-5.809c-.811,0-.811.376-.811,1.185,0,.665,0,1.734.318,1.994.435.376,1.271.4,2.978.4,4.076,0,4.134-.174,4.625-1.994.231-.9.231-.954.722-3.209.029-.173.058-.26.145-.26.058,0,.058.087.058.116a8.444,8.444,0,0,0,.491,3.584c.087.2.809,1.011.809,1.214,0,.693-.952,1.242-1.243,1.416-.809.522-1.734.955-5.549.955-4.971,0-5.231-1.069-5.231-2.487,0-2.918,0-11.157-.027-11.475,0-.231-.2-1.733-.2-1.878,0-.116.145-.116.173-.116a6.7,6.7,0,0,1,1.531.52,2.393,2.393,0,0,0,1.157.26Z" transform="translate(31.939 0.033)" fill="#333"/>
      <path id="パス_2142" data-name="パス 2142" d="M965.9,1124.45a25.567,25.567,0,0,0,7,2.284c.116,0,.607.085.607.2,0,.086-.4.2-.52.233a5,5,0,0,0-2.2,1.56c-.085.115-.4.722-.547.722-.175,0-6.447-3.036-9.28-7.66-.547-.925-.636-1.011-.838-1.011s-.258.058-.9.722a34.38,34.38,0,0,1-8.556,6.736,24.965,24.965,0,0,1-4.536,1.849c-.088,0-.144-.058-.144-.087s3.092-1.936,3.352-2.109c3.9-2.458,8.036-6.88,8.44-9.047.029-.231.058-.318.26-.318.144,0,2.486.9,2.631.983.085.029.374.144.374.433a1.786,1.786,0,0,1-.114.4C960.992,1120.779,963.477,1123.207,965.9,1124.45Zm-13.93-7.2c-2.138,0-3.122.058-3.671.087-.087,0-.52.058-.607.058s-.144-.058-.26-.173l-.549-.665c-.116-.144-.116-.144-.116-.2s.029-.056.087-.056c.2,0,1.1.085,1.271.085,1.416.058,2.631.115,3.989.115h.838c.607,0,.78-.289.78-.78a4.69,4.69,0,0,0-.231-1.531,4.416,4.416,0,0,1-.173-.578c0-.145.145-.2.318-.2.2,0,1.5.318,1.82.4.868.231,1.042.289,1.042.549,0,.174-.03.231-.435.751a.712.712,0,0,0-.2.52c0,.7.233.867,1.011.867h4.771c.26,0,.867,0,.867-.78a11.537,11.537,0,0,0-.088-1.3c-.027-.144-.172-.751-.172-.866,0-.145.172-.2.318-.2.2,0,2.167.462,2.485.549s.493.2.493.462c0,.174-.117.289-.435.52a.927.927,0,0,0-.376.809c0,.809.462.809.925.809h1.475c1.271,0,1.416,0,1.849-.491.809-.953.9-1.069,1.156-1.069.173,0,2.689,1.531,2.689,1.909,0,.4-.58.4-1.531.4h-5.638c-.9,0-.9.462-.9,1.156,0,.173.029,1.156.029,1.3,0,1.069-.867,1.242-1.474,1.242-.665,0-.78-.115-.78-1.1v-1.993c-.087-.549-.433-.607-.9-.607h-4.625c-.664,0-1.071,0-1.071.809,0,.289.088,1.561.088,1.82,0,.549-.088.809-.349.982a2.047,2.047,0,0,1-1.1.4c-.491,0-.722-.318-.722-.9,0-.231.029-1.329.029-1.531,0-1.127,0-1.589-.9-1.589Zm2.051,14.769a14.825,14.825,0,0,1,2.227,1.359.714.714,0,0,1,.229.434c0,.347-.229.4-.925.578-.087.029-2.572,1.965-3.034,2.312a17.747,17.747,0,0,1-4.394,2.515.09.09,0,0,1-.085-.086c0-.058,1.531-1.388,1.734-1.591a16.64,16.64,0,0,0,4.132-5.492A.177.177,0,0,1,954.025,1132.022Zm1.329-1.532c-2.254,0-3.093.029-3.67.087-.088,0-.52.058-.608.058s-.145-.058-.259-.173l-.551-.665c-.116-.145-.116-.145-.116-.2,0-.029.031-.058.088-.058.2,0,1.1.087,1.271.087,1.416.086,2.629.116,3.988.116h2.169c.289,0,.867,0,.867-.78,0-.347-.173-2.689-.231-2.978,0-.058-.173-.347-.173-.4s.058-.174.289-.174c.2,0,2.225.434,2.515.52.4.087.549.347.549.491,0,.174-.059.231-.491.607-.406.349-.406.52-.406,1.389,0,1.04,0,1.329.869,1.329h1.271c1.271,0,1.416,0,1.849-.491.809-.954.9-1.069,1.156-1.069.173,0,2.689,1.561,2.689,1.907,0,.4-.578.4-1.531.4h-5.464c-.867,0-.867.52-.867,1.445,0,2.053,0,3.209.059,4.914.027.491.027,1.186.027,1.533,0,.925-.229,1.474-1.474,1.474-.636,0-.694-.52-.694-1.011,0-.376.087-2.111.087-2.487.029-1.1.029-2.167.029-3.5a17.517,17.517,0,0,0-.058-1.965c-.145-.4-.607-.4-.838-.4Zm7.718,2.429c0-.087.144-.116.26-.116,1.069,0,7.659,1.821,7.659,4.219,0,.925-.52,1.649-1.242,1.649-.549,0-.665-.144-1.56-1.475a13.726,13.726,0,0,0-4.971-4.16C963.188,1133.035,963.073,1132.948,963.073,1132.919Z" transform="translate(45.004 0.044)" fill="#333"/>
      <path id="パス_2143" data-name="パス 2143" d="M969.634,1119.19a6.805,6.805,0,0,0,2.4.607c1.185,0,9.652-.809,10.9-1.358.9-.4,1.011-.462,1.214-.462.636,0,1.1.4,2,1.185,1.3,1.156,1.474,1.474,1.474,1.878,0,.376-.145.522-.665,1.042a4.763,4.763,0,0,0-1.127,1.82c-4.54,9.423-14.627,13.468-14.914,13.468a.192.192,0,0,1-.2-.173c0-.116.085-.173.376-.375,5.029-3.525,9.1-7.341,11.415-11.446a16.3,16.3,0,0,0,1.966-4.885c0-.491-.491-.52-.636-.52-.289,0-8.641,1.389-10.405,2.082a10.5,10.5,0,0,1-1.445.636c-.664,0-2.978-1.445-2.978-3.036,0-.549.087-.636.26-.636C969.315,1119.017,969.575,1119.19,969.634,1119.19Zm21.185-.115c0,.4-.376,1.1-.9,1.1-.462,0-.693-.289-1.474-1.387a8.6,8.6,0,0,0-1.88-1.878c-.115-.087-.4-.347-.4-.462s.262-.2.522-.2C988.738,1116.243,990.819,1117.746,990.819,1119.075Zm2.2-2.2c0,.318-.233.867-.753.867-.634,0-.982-.52-1.474-1.185a7.165,7.165,0,0,0-2.4-1.764c-.291-.144-.376-.26-.376-.347,0-.289.867-.289,1.1-.289C990.328,1114.161,993.016,1115.028,993.016,1116.879Z" transform="translate(58.929 0.534)" fill="#333"/>
      <path id="パス_2144" data-name="パス 2144" d="M994.276,1120.832a28.88,28.88,0,0,0-.231,5.434c0,.838,0,1.531.953,1.531,1.243,0,8.643-3.121,13.73-7.543.4-.347.462-.406.665-.406a.227.227,0,0,1,.229.233c0,.289-4.276,4.97-11.357,8.67-3.353,1.733-3.584,1.908-4.191,2.66-.145.2-.2.231-.318.231-.231,0-1.965-1.416-1.965-2.2,0-.145.23-1.3.259-1.358a21.837,21.837,0,0,0,.146-3.729c0-3.814,0-4.594-.753-5.954a5.555,5.555,0,0,1-.634-1.127c0-.116.172-.145.287-.145.32,0,3.642.578,3.642,1.763C994.739,1119.127,994.334,1120.514,994.276,1120.832Z" transform="translate(72.131 2.332)" fill="#333"/>
      <path id="パス_2145" data-name="パス 2145" d="M1017.29,1130.556a20.188,20.188,0,0,0-2.833,2.371c-.549.664-.607.722-1.04.722-1.56,0-3.7-1.849-3.7-3.007,0-.2.027-1.531.287-1.531a7.192,7.192,0,0,1,.869.549,4.782,4.782,0,0,0,1.965.665c1.416,0,9.074-5.114,13.874-9.856.462-.463,1.271-1.271,1.329-1.271a.185.185,0,0,1,.145.144C1028.187,1119.6,1024.8,1125.006,1017.29,1130.556Zm-2.371-9.508c-.78,0-1.069-.462-2.023-1.909a6.519,6.519,0,0,0-2.629-2.37c-.117-.058-.262-.144-.262-.26s.231-.26.637-.26c3.092,0,5.519,1.647,5.519,3.352A1.277,1.277,0,0,1,1014.919,1121.048Z" transform="translate(83.576 1.798)" fill="#333"/>
      <path id="パス_2146" data-name="パス 2146" d="M1031,1115.212c1.042,0,3.122.924,3.122,1.851,0,.2-.289,1.04-.318,1.214a37.062,37.062,0,0,0-.289,4.047c0,.607.145.723.954.9,1.851.433,6.273,2.543,6.273,4.682a1.012,1.012,0,0,1-1.071,1.011c-.693,0-.724-.058-2.718-2.631-.809-1.04-2.167-2.427-3.063-2.427-.318,0-.4,0-.4,2.138,0,3.064.029,4.6.144,7.2.029.318.058,1.04.058,1.473,0,.693,0,2.63-.838,2.63-.9,0-1.618-1.965-1.618-2.716,0-.115.114-.722.114-.838a38.613,38.613,0,0,0,.26-6.7c0-8.556,0-9.192-.347-10.116a3.223,3.223,0,0,0-1.01-1.331.212.212,0,0,1-.059-.115C1030.25,1115.241,1030.973,1115.212,1031,1115.212Zm12.168,4.943c0,.376-.318,1.1-.894,1.1-.435,0-.7-.289-1.446-1.387a8.068,8.068,0,0,0-1.88-1.878c-.114-.087-.4-.347-.4-.463,0-.144.26-.2.52-.2C1041.116,1117.322,1043.168,1118.854,1043.168,1120.154Zm2.342-3.294c0,.318-.231.867-.751.867-.636,0-.984-.462-1.5-1.127a7.315,7.315,0,0,0-2.486-1.649c-.287-.115-.376-.26-.376-.318,0-.173.348-.347,1.1-.347C1043.572,1114.287,1045.51,1115.443,1045.51,1116.86Z" transform="translate(95.967 0.61)" fill="#333"/>
      <path id="パス_2147" data-name="パス 2147" d="M1045.805,1123.445c-.52,0-1.158-.173-1.158-.925,0-.925.955-.925,1.158-.925h4.365c1.156,0,1.156.78,1.156.925,0,.925-.838.925-1.156.925Z" transform="translate(104.717 5.034)" fill="#333"/>
    </g>
  </g>
</svg>
