<svg id="lineup_bancha_name_sp" xmlns="http://www.w3.org/2000/svg" width="750" height="190" viewBox="0 0 750 190">
  <rect id="長方形_34" data-name="長方形 34" width="750" height="190" fill="#fff279" opacity="0"/>
  <g id="グループ_376" data-name="グループ 376" transform="translate(6850.951 1921.743)">
    <g id="グループ_371" data-name="グループ 371">
      <g id="グループ_370" data-name="グループ 370">
        <path id="パス_1651" data-name="パス 1651" d="M-6569.9-1862.031c2.585,0,3.025-.109,3.41-.494.5-.495,2.475-3.356,3.134-3.356s5.5,3.906,5.5,4.62-1.045.715-2.86.715h-37.89c-1.265,0-5,0-6.984.11a8.322,8.322,0,0,1-1.155.165c-.165,0-.275-.165-.494-.385l-1.045-1.265c-.221-.219-.221-.275-.221-.33a.146.146,0,0,1,.165-.165c.385,0,2.09.165,2.475.22,2.475.11,4.949.165,7.534.165Zm-4.839-40.31c2.585,0,2.915,0,3.41-.5.494-.439,2.474-3.189,3.134-3.189s5.444,3.74,5.444,4.455-1.045.715-2.8.715h-28.322c-1.209,0-5,0-6.928.109a8.208,8.208,0,0,1-1.155.165c-.22,0-.33-.165-.5-.385l-1.045-1.264c-.22-.22-.275-.276-.275-.385s.165-.11.22-.11c.385,0,2.09.165,2.42.219,2.529.111,5,.165,7.533.165Zm-3.025,19.8c2.42,0,2.64,0,3.135-.44.44-.44,2.255-2.914,2.86-2.914.44,0,5.279,3.133,5.279,4.124,0,.66-.275.66-2.75.66h-20.622c-1.265,0-5,0-6.929.165-.22,0-.99.109-1.155.109-.22,0-.33-.109-.495-.329l-1.1-1.265c-.165-.22-.22-.275-.22-.385,0-.055.055-.11.22-.11.385,0,2.09.164,2.42.164,2.53.111,4.949.221,7.534.221Z" fill="#333"/>
        <path id="パス_1652" data-name="パス 1652" d="M-6528.837-1865.166c0,5.17-2.529,8.029-5.114,8.029-1.7,0-2.2-1.54-2.2-2.639,0-1.76.826-2.09,3.465-3.135,1.76-.715,2.31-1.814,3.134-3.354,0-.055.221-.44.386-.44S-6528.837-1866.265-6528.837-1865.166Zm2.695-34.479c-1.264,0-5,0-6.984.109a8.2,8.2,0,0,1-1.155.165c-.165,0-.33-.165-.5-.385l-1.045-1.264c-.109-.165-.22-.276-.22-.33a.146.146,0,0,1,.165-.165c.33,0,1.705.165,2.035.165.935.054,5,.219,7.149.219a1.4,1.4,0,0,0,1.265-1.429c0-.661-.055-1.375-.11-1.925-.055-.33-.44-1.65-.44-1.925,0-.66.77-.77,1.1-.77s4.729.88,4.729,1.815c0,.33-.165.55-.824.934-.6.386-.77.661-.77,2.2a1.147,1.147,0,0,0,1.264,1.1h.99a9.572,9.572,0,0,0,2.695-.165c.44-.219,1.925-2.364,2.42-2.364.824,0,3.244,2.42,3.244,3.189,0,.826-1.045.826-2.969.826Zm6.819,14.628a3.4,3.4,0,0,0,1.485-.276c.22-.109,1.045-.825,1.32-.825.22,0,3.465,2.255,3.465,3.025a.471.471,0,0,1-.386.495,15.07,15.07,0,0,1-1.485.44c-.054.055-4.344,2.529-4.674,2.694-1.265.715-1.76.991-1.76,1.54,0,.276.275.6.826.6,1.264,0,9.238-1.65,9.238-1.374,0,.769-7.644,3.024-8.964,3.409-1.1.275-1.1,1.045-1.1,2.64,0,2.859-.165,3.574-.659,4.289a5.676,5.676,0,0,1-3.41,2.2.93.93,0,0,1-.55-.165c-.385-.33-1.76-2.365-2.145-2.694-.22-.221-1.649-.991-1.649-1.321,0-.11.329-.11.55-.11.384,0,2.309.056,2.694.056,1.705,0,1.705-.276,1.705-2.97,0-.385-.44-.715-.935-.715-.165,0-5.334.935-5.774,1.1a6.077,6.077,0,0,1-1.43.825c-.715,0-2.2-4.454-2.2-4.565,0-.165.055-.219.275-.219.33,0,1.045.109,1.21.109a56.739,56.739,0,0,0,5.829.165c2.365,0,2.97-.33,2.97-1.814,0-.331-.44-1.925-.44-2.31,0-.275.275-.33.55-.33.5,0,2.86.715,3.409.715,1.1,0,2.695-2.42,2.695-2.53,0-.6-.6-.6-.77-.6h-4.949c-1.54,0-4.29,0-6.489.11-.165,0-1.485.165-1.595.165-.22,0-.33-.165-.5-.384l-1.045-1.266c-.22-.22-.22-.274-.22-.385s.11-.109.165-.109c.33,0,2.035.164,2.42.22,1.6.054,4.454.165,7.534.165Zm-1.265-10.78a2.7,2.7,0,0,0,1.925-.6c.66-.66.88-.88,1.21-.88.5,0,2.969,1.265,2.969,2.255,0,.274-.88,1.319-.934,1.595v3.793c0,1.21-1.375,1.76-2.255,1.76-.77,0-.825-.165-1.265-.824a1.253,1.253,0,0,0-1.21-.55h-7.589a1.562,1.562,0,0,0-1.54.77c-.44.934-.714,1.649-1.979,1.649a1.459,1.459,0,0,1-1.54-1.1v-3.959c0-.771-.44-4.345-.44-4.621,0-.494.275-.714.825-.714a19.107,19.107,0,0,1,2.75,1.1,6.374,6.374,0,0,0,2.2.329Zm-7.423,1.486c-1.375,0-1.375.88-1.375,1.814s0,1.816,1.375,1.816h7.808c1.32,0,1.32-.881,1.32-1.816s0-1.814-1.32-1.814Zm7.258,27.5c.77,0,4.29,2.09,4.29,5.279,0,1.76-.77,3.63-2.64,3.63-1.155,0-1.485-.715-1.485-1.816a31.722,31.722,0,0,0-.22-5.444c-.055-.274-.439-1.374-.329-1.484C-6521.083-1866.815-6520.863-1866.815-6520.753-1866.815Zm20.568-27.772a1.509,1.509,0,0,0-1.43.771c-.055.165-.495,4.013-.6,4.729-.055.44-.495,2.475-.495,2.914a1.984,1.984,0,0,0,.6,1.54c1.045.88,2.97,2.75,2.97,4.73,0,.88-.33,1.869-1.155,1.869-.935,0-2.145-1.76-2.805-2.8a.546.546,0,0,0-.55-.384c-.44,0-.66.44-.825.825-3.079,7.864-11.713,11.549-12.483,11.549-.055,0-.165,0-.165-.111s.165-.275.33-.385a22.271,22.271,0,0,0,4.729-4.4,22.982,22.982,0,0,0,5.334-10.228,1.831,1.831,0,0,0-.219-.826,29.189,29.189,0,0,0-3.575-3.354c-.88-.66-1.265-.935-1.265-1.045,0-.055.055-.055.22-.055a8.67,8.67,0,0,1,2.8.77c1.649.88,1.815.99,2.034.99a1.094,1.094,0,0,0,.99-.771c.055-.769.605-4.4.605-5.223a1.139,1.139,0,0,0-1.1-1.1c-.6,0-4.014.276-4.509.276-.165,0-.275-.111-.495-.33l-1.045-1.265c-.22-.275-.22-.275-.22-.385s.11-.11.165-.11c.88,0,5.059.33,6.05.33a1.428,1.428,0,0,0,1.374-1.375,54.317,54.317,0,0,0-.385-7.534,13.487,13.487,0,0,1-.5-1.595c0-.385.221-.495.6-.495.55,0,4.675,1.045,4.9,1.1.385.165.88.44.88.935,0,.22-.111.385-.386.6-.109.111-.824.661-.989.771-.55.495-.715,5.5-.715,6.379a1.207,1.207,0,0,0,1.265,1.265h3.079a2.39,2.39,0,0,0,1.87-.661c.935-1.044,1.045-1.154,1.375-1.154.6,0,3.244,2.145,3.244,3.025,0,.275-.165.44-.5.66a8.25,8.25,0,0,1-.934.549c-.88.661-1.1,8.745-1.1,9.9,0,3.245.66,8.469,1.87,8.469.88,0,2.529-5.61,2.969-7.809.055-.33.22-.495.33-.495.165,0,.165.275.165.385,0,.165-.77,6.05-.77,7.2,0,2.474.165,2.75.825,3.684a3.076,3.076,0,0,1,.55,1.486c0,.715-.55,1.374-1.925,1.374-2.365,0-4.124-2.145-4.509-2.64-2.7-3.354-3.08-9.183-3.08-12.483,0-1.65.22-5.169.44-6.929.055-.274.275-1.7.275-2.034,0-.495-.275-1.1-1.429-1.1Zm-2.805,34.151a2.673,2.673,0,0,1-2.419,2.75c-1.266,0-1.485-.935-1.925-3.63a10.618,10.618,0,0,0-1.485-4.509c-.055-.056-.22-.33-.165-.44C-6508.654-1866.815-6502.99-1864.56-6502.99-1860.436Zm14.738-.11a2.581,2.581,0,0,1-2.42,2.805c-1.264,0-1.375-.44-3.189-4.455a34.659,34.659,0,0,0-2.64-4.235.588.588,0,0,1-.11-.439C-6496.446-1867.145-6488.252-1865.221-6488.252-1860.546Z" fill="#333"/>
        <path id="パス_1653" data-name="パス 1653" d="M-6450.821-1860.216c-.6,0-1.375,0-1.594.935-.165.769-.6,2.364-3.135,2.364-1.43,0-1.43-.769-1.43-1.21,0-.55.221-4.013.276-4.784.165-2.584.165-9.733.165-12.538,0-2.035,0-2.255-.5-2.255a13.18,13.18,0,0,0-1.54.771c-5.445,2.968-7.809,3.354-8.029,3.354-.275,0-.385-.165-.385-.33,0-.275.22-.385,1.87-1.265,5.664-3.134,12.7-9.569,15.288-13.2a12.708,12.708,0,0,0,1.429-2.42c0-.44-.384-.495-1.375-.495h-6.324c-1.265,0-5,.055-6.929.165-.219,0-1.044.11-1.21.11s-.275-.11-.44-.33l-1.1-1.264c-.219-.221-.219-.276-.219-.386,0-.055.054-.109.165-.109.385,0,2.09.165,2.474.219,2.475.111,4.95.165,7.535.165h1.264c.66,0,1.045,0,1.045-.44,0-.165-1.54-5.939-3.024-6.874-.55-.385-.936-.385-2.31-.494-2.255-.165-2.474-.165-2.474-.551s.164-.385,1.869-.6c5.774-.66,17.543-1.979,27.606-4.729.5-.109,2.75-1.045,3.245-1.045,1.1,0,4.674,3.685,4.674,4.234,0,.221-.22.5-.715.5-.22,0-1.21-.165-1.429-.165-.331,0-2.53.11-2.53.549,0,.22,1.32,1.156,1.485,1.265,1.21.77,1.375.936,1.375,1.485,0,.385-.056.385-1.486.99-1.539.6-6.544,5.5-6.544,5.609,0,.275.165.275.88.275h4.84c1.869,0,2.145,0,3.189-1.32,1.1-1.319,1.98-2.419,2.365-2.419.5,0,5.609,3.85,5.609,4.565,0,.6-1.649.6-3.244.6h-17.048c-.44,0-.66.055-.66.33s6.214,9.953,20.4,12.043c2.034.33,2.365.386,2.365.606,0,.384-.66.495-1.1.6a6.2,6.2,0,0,0-3.85,2.86c-.274.55-.5,1.1-.934,1.1a4.84,4.84,0,0,1-2.585-1.375c-.55-.44-.66-.495-.824-.495-.441,0-.991.55-1.156.77-.99.99-.99,1.87-.99,3.849,0,1.815.275,9.624.275,11.219,0,.934-.11,1.264-.6,1.595a5.112,5.112,0,0,1-2.585.935c-1.045,0-1.1-.386-1.32-1.925-.11-.825-.935-1.045-1.595-1.045Zm17.433-16.828a3.247,3.247,0,0,0,2.365-.66c.33-.274,1.32-1.154,1.32-1.595,0-.219-.055-.274-.77-.88-3.519-3.134-5.609-4.949-7.919-8.853a14.233,14.233,0,0,0-.99-1.595c-.22,0-.22.11-.22.66-.054,1.32.055,7.534.055,8.963a2.575,2.575,0,0,1-.715,2.09,3.436,3.436,0,0,1-2.034.936c-1.43,0-1.43-1.045-1.43-1.595,0-1.266.44-7.534.44-8.964,0-.715,0-1.045-.385-1.045-.22,0-1.21,1.1-1.32,1.265-3.3,3.684-4.95,5.553-7.864,7.7-1.265.935-1.429,1.045-1.429,1.265s.164.33,1.374,1.264a3.728,3.728,0,0,0,3.025,1.045Zm-11.328-15.673c.88,0,1.375-.33,1.484-1.1.056-.221.056-.825.056-6.215,0-.6-.165-1.1-.88-1.1-.385,0-7.2.55-8.579.606-1.155.054-1.265.054-1.265.274,0,.055,1.045.771,1.375,1.045a5.473,5.473,0,0,1,2.64,4.454c0,.221-.165,1.266-.165,1.486,0,.549.274.549,1.319.549Zm-6.324,17.1c-1.65,0-1.65.99-1.65,2.42,0,3.079,0,3.684,1.65,3.684h5.884c1.594,0,1.594-.99,1.594-2.42,0-2.914,0-3.684-1.649-3.684Zm0,7.534c-1.595,0-1.595.77-1.595,3.3,0,2.419,0,3.134,1.649,3.134h5.775c1.595,0,1.649-.66,1.649-3.905,0-1.539,0-2.529-1.594-2.529Zm12.868-7.534c-1.6,0-1.6.77-1.6,3.9,0,1.21,0,2.2,1.6,2.2h6.159c1.6,0,1.6-1.045,1.6-2.144,0-3.3-.11-3.96-1.65-3.96Zm6.05,13.968c1.594,0,1.7-.55,1.7-3.849,0-1.76,0-2.585-1.7-2.585h-5.94c-1.65,0-1.65.88-1.65,2.145,0,3.849,0,4.289,1.705,4.289Zm-4.9-31.071a2.215,2.215,0,0,0,2.2-1.264c1.156-1.87,3.465-5.885,3.465-7.7,0-.33-.11-.549-.5-.549-.274,0-2.475.219-4.729.439-2.584.221-2.86.276-3.025.715-.054.221-.054,4.345-.054,6.545,0,.989.054,1.814,1.649,1.814Z" fill="#333"/>
        <path id="パス_1654" data-name="パス 1654" d="M-6357.857-1886.118a48.472,48.472,0,0,0,13.308,4.345c.221,0,1.155.165,1.155.384,0,.166-.769.385-.99.441a9.521,9.521,0,0,0-4.179,2.97c-.165.219-.77,1.375-1.045,1.375-.33,0-12.263-5.775-17.653-14.574-1.045-1.759-1.209-1.924-1.595-1.924s-.5.109-1.7,1.375a65.381,65.381,0,0,1-16.278,12.812c-1.87.99-7.589,3.52-8.634,3.52-.165,0-.275-.11-.275-.165s5.884-3.685,6.38-4.014c7.423-4.675,15.288-13.089,16.057-17.213.055-.44.111-.6.5-.6.275,0,4.73,1.7,5,1.87.165.054.715.275.715.825a3.383,3.383,0,0,1-.22.769C-6367.205-1893.1-6362.476-1888.482-6357.857-1886.118Zm-26.507-13.692c-4.069,0-5.939.109-6.983.165-.165,0-.99.109-1.155.109s-.276-.109-.5-.33l-1.045-1.265c-.22-.274-.22-.274-.22-.384s.055-.111.165-.111c.385,0,2.09.165,2.42.165,2.694.111,5,.221,7.589.221h1.595c1.154,0,1.484-.551,1.484-1.485a8.935,8.935,0,0,0-.439-2.915,8.258,8.258,0,0,1-.331-1.1c0-.274.275-.385.6-.385.386,0,2.86.606,3.465.77,1.649.44,1.979.55,1.979,1.045,0,.33-.054.44-.824,1.429a1.35,1.35,0,0,0-.386.991c0,1.32.441,1.65,1.925,1.65h9.074c.5,0,1.65,0,1.65-1.485a22.814,22.814,0,0,0-.165-2.475c-.055-.275-.33-1.43-.33-1.649,0-.276.33-.386.6-.386.385,0,4.124.88,4.73,1.045s.934.385.934.88c0,.33-.22.55-.825.99a1.763,1.763,0,0,0-.715,1.54c0,1.54.88,1.54,1.76,1.54h2.8c2.419,0,2.7,0,3.519-.936,1.54-1.814,1.705-2.034,2.2-2.034.33,0,5.115,2.914,5.115,3.629,0,.771-1.1.771-2.915.771H-6358.3c-1.7,0-1.7.879-1.7,2.2,0,.33.054,2.2.054,2.474,0,2.036-1.649,2.366-2.8,2.366-1.265,0-1.485-.221-1.485-2.09v-3.8c-.165-1.045-.825-1.154-1.705-1.154h-8.8c-1.264,0-2.035,0-2.035,1.539,0,.55.165,2.969.165,3.465,0,1.044-.165,1.54-.659,1.87a3.912,3.912,0,0,1-2.09.769c-.935,0-1.375-.6-1.375-1.7,0-.439.055-2.529.055-2.914,0-2.145,0-3.024-1.7-3.024Zm3.9,28.1a28.049,28.049,0,0,1,4.234,2.585,1.359,1.359,0,0,1,.441.825c0,.66-.441.77-1.76,1.1-.165.055-4.9,3.739-5.775,4.4-4.949,3.52-8.084,4.785-8.358,4.785a.176.176,0,0,1-.165-.165c0-.11,2.914-2.64,3.3-3.025,4.564-4.345,7.369-8.688,7.864-10.448A.327.327,0,0,1-6380.459-1871.71Zm2.53-2.914c-4.29,0-5.885.055-6.984.165-.165,0-.991.11-1.155.11s-.275-.11-.5-.331l-1.045-1.264c-.219-.275-.219-.275-.219-.385,0-.055.054-.11.164-.11.385,0,2.09.165,2.42.165,2.7.165,5,.22,7.588.22h4.125c.55,0,1.65,0,1.65-1.485,0-.66-.33-5.114-.44-5.664,0-.11-.33-.66-.33-.769s.11-.331.55-.331c.385,0,4.235.825,4.784.99.77.165,1.045.66,1.045.935,0,.33-.11.44-.934,1.155-.771.66-.771.99-.771,2.639,0,1.981,0,2.53,1.651,2.53h2.419c2.419,0,2.695,0,3.519-.935,1.54-1.815,1.705-2.034,2.2-2.034.33,0,5.114,2.969,5.114,3.629,0,.77-1.1.77-2.915.77h-10.393c-1.65,0-1.65.989-1.65,2.749,0,3.905,0,6.1.111,9.35.055.934.055,2.254.055,2.914,0,1.76-.441,2.8-2.8,2.8-1.21,0-1.32-.991-1.32-1.925,0-.715.165-4.015.165-4.73.055-2.09.055-4.124.055-6.654a33.355,33.355,0,0,0-.11-3.739c-.275-.77-1.154-.77-1.6-.77Zm14.683,4.619c0-.165.275-.219.5-.219,2.035,0,14.573,3.463,14.573,8.028,0,1.76-.99,3.135-2.365,3.135-1.045,0-1.265-.275-2.97-2.8-2.584-3.9-6.379-6.159-9.458-7.919C-6363.027-1869.785-6363.246-1869.95-6363.246-1870.005Z" fill="#333"/>
      </g>
    </g>
    <g id="グループ_373" data-name="グループ 373">
      <g id="グループ_372" data-name="グループ 372">
        <path id="パス_1655" data-name="パス 1655" d="M-6540.852-1829.459h2.116c3.265,0,6.346.851,6.346,4.76a3.726,3.726,0,0,1-1.862,3.288v.046a4.464,4.464,0,0,1,3.472,4.393c0,3.471-2.966,4.851-6.025,4.851h-4.047Zm2.162,7.68h.552c2.046,0,3.725-.414,3.725-2.9,0-2.437-1.656-2.85-3.68-2.85h-.6Zm0,7.726h1.656c2,0,4.092-.6,4.092-3.058,0-2.438-2.483-2.944-4.415-2.944h-1.333Z" fill="#333"/>
        <path id="パス_1656" data-name="パス 1656" d="M-6518.547-1816.467l-1.978,4.346h-2.322l8.278-18.074,8.278,18.074h-2.323l-1.977-4.346Zm3.978-8.991-3.082,7.014h6.163Z" fill="#333"/>
        <path id="パス_1657" data-name="パス 1657" d="M-6497.246-1830.287l13.015,13.636v-12.808h2.161v18.051l-13.015-13.636v12.923h-2.161Z" fill="#333"/>
        <path id="パス_1658" data-name="パス 1658" d="M-6458.554-1826.148a7,7,0,0,0-4.576-1.7,6.95,6.95,0,0,0-6.853,7.082,6.916,6.916,0,0,0,6.807,7.037,6.94,6.94,0,0,0,4.622-1.794v2.552a9.374,9.374,0,0,1-4.554,1.219,8.975,8.975,0,0,1-9.036-8.945,9.113,9.113,0,0,1,9.221-9.129,8.365,8.365,0,0,1,4.369,1.173Z" fill="#333"/>
        <path id="パス_1659" data-name="パス 1659" d="M-6438.412-1822.469v-6.99h2.161v17.338h-2.161v-8.324h-8.256v8.324h-2.161v-17.338h2.161v6.99Z" fill="#333"/>
        <path id="パス_1660" data-name="パス 1660" d="M-6422.884-1816.467l-1.978,4.346h-2.322l8.278-18.074,8.278,18.074h-2.322l-1.978-4.346Zm3.978-8.991-3.082,7.014h6.164Z" fill="#333"/>
      </g>
    </g>
    <g id="グループ_375" data-name="グループ 375">
      <g id="グループ_374" data-name="グループ 374">
        <path id="パス_1661" data-name="パス 1661" d="M-6561.357-1770.762a12.755,12.755,0,0,0,1.435-1.516,7.713,7.713,0,0,0,1.107-1.824,5.66,5.66,0,0,0,.45-2.01,4.1,4.1,0,0,0-.45-2.029,4.462,4.462,0,0,0-1.148-1.435,3.232,3.232,0,0,0-1.681-.738,2.39,2.39,0,0,0-1.64.41,6.481,6.481,0,0,0-1.271,1.189,4.57,4.57,0,0,0-.964,1.948,6.556,6.556,0,0,0-.1,2.131,9.987,9.987,0,0,0,.492,2.153,18.94,18.94,0,0,0,.82,2.009q.492.984.984,1.927a18.147,18.147,0,0,1,.861,1.907,10.992,10.992,0,0,1,.553,2.008,7.8,7.8,0,0,1,.062,2.194,9.492,9.492,0,0,1-1.353,4,13.394,13.394,0,0,1-2.85,3.341,12.716,12.716,0,0,1-3.792,2.213,9.807,9.807,0,0,1-4.223.616,5.626,5.626,0,0,1-3.116-1.168,5.671,5.671,0,0,1-1.927-2.768,6.739,6.739,0,0,1-.328-2.07,7.951,7.951,0,0,1,.266-2.051,10.8,10.8,0,0,1,.738-1.968,12.919,12.919,0,0,1,1.087-1.824,10.883,10.883,0,0,1,1.332-1.559,10.35,10.35,0,0,1,1.661-1.311,8.539,8.539,0,0,1,1.885-.9,5.788,5.788,0,0,1,2.051-.288,5.285,5.285,0,0,1,2.091.513,4.457,4.457,0,0,1,1.6,1.251,4.006,4.006,0,0,1,.8,1.8,3.8,3.8,0,0,1-.266,2.132.919.919,0,0,1-.492.369.788.788,0,0,1-.533-.021.716.716,0,0,1-.369-.328.537.537,0,0,1,.082-.554,2.642,2.642,0,0,0,.184-2.008,2.585,2.585,0,0,0-1.25-1.558,4.176,4.176,0,0,0-2.009-.533,5.511,5.511,0,0,0-1.989.369,7.735,7.735,0,0,0-1.824,1,9.872,9.872,0,0,0-1.517,1.374,11.392,11.392,0,0,0-1.251,1.8,8.851,8.851,0,0,0-.84,2.049,6.754,6.754,0,0,0-.226,2.154,5.25,5.25,0,0,0,.554,2.07,4.354,4.354,0,0,0,1.271,1.619,4.553,4.553,0,0,0,1.722.821,6.391,6.391,0,0,0,1.988.143,8.547,8.547,0,0,0,2.03-.41,11.8,11.8,0,0,0,3.936-2.05,10.841,10.841,0,0,0,2.788-3.239,9.047,9.047,0,0,0,1.127-4.018,8.38,8.38,0,0,0-1.045-4.346q-.534-1.025-1.087-2.071a19.347,19.347,0,0,1-.963-2.111,11.931,11.931,0,0,1-.615-2.214,8.581,8.581,0,0,1-.082-2.378,6.269,6.269,0,0,1,.553-2.112,6.105,6.105,0,0,1,1.25-1.824,4.655,4.655,0,0,1,1.784-1.127,3.44,3.44,0,0,1,2.194.02,4.138,4.138,0,0,1,1.906,1.127,5.216,5.216,0,0,1,1.128,1.8,6.2,6.2,0,0,1,.369,2.153,8.041,8.041,0,0,1-.287,2.173,9.516,9.516,0,0,1-.9,2.091,21.489,21.489,0,0,1-1.271,1.927,4.323,4.323,0,0,1-.513.656.6.6,0,0,1-.758.123.555.555,0,0,1-.472-.513A.759.759,0,0,1-6561.357-1770.762Z" fill="#333"/>
        <path id="パス_1662" data-name="パス 1662" d="M-6555.72-1764.98q.164-.083.758-.328a6.761,6.761,0,0,1,1.169-.37,2.211,2.211,0,0,1,.984-.02q.409.1.287.759a2.026,2.026,0,0,1-.348.738,2.715,2.715,0,0,0-.39.738,9.407,9.407,0,0,0-.472,1.312,1.384,1.384,0,0,0,.144,1.271,3.864,3.864,0,0,0,1.537-.164q.841-.246,1.538-.492a8.039,8.039,0,0,0,.779-.41q.573-.328,1.209-.636a6.841,6.841,0,0,1,1.169-.451c.355-.1.574-.062.656.1q.164.288-.2.616a4,4,0,0,1-.922.594q-.554.267-1.128.493c-.383.15-.629.253-.738.307q-.9.452-1.824.881a7.39,7.39,0,0,1-1.907.6,1.117,1.117,0,0,1-1.189-.369,2.2,2.2,0,0,1-.328-1.25,6.646,6.646,0,0,1,.225-1.641q.225-.881.472-1.619-.943.369-1.845.677a16.649,16.649,0,0,0-1.763.716q-.738.33-1.476.739a.623.623,0,0,1-.718-.226q-.266-.347.226-.595Zm4.8-8.283a2.381,2.381,0,0,1,.636-.921,3.78,3.78,0,0,1,.963-.636,6.186,6.186,0,0,1,1.127-.39c.4-.1.772-.17,1.128-.225a14.7,14.7,0,0,1,2.911.123,2.146,2.146,0,0,1,.553.082.363.363,0,0,1,.267.451.611.611,0,0,1-.205.348.413.413,0,0,1-.369.1,9.878,9.878,0,0,0-2.48-.185,4.405,4.405,0,0,0-2.317.759,1.332,1.332,0,0,0-.574.656,1.5,1.5,0,0,1-.492.656.647.647,0,0,1-.861,0A.674.674,0,0,1-6550.923-1773.263Z" fill="#333"/>
        <path id="パス_1663" data-name="パス 1663" d="M-6547.545-1762.972q.45-.246,1.558-.839t2.275-1.128a10.437,10.437,0,0,1,2.153-.739q.984-.2,1.23.329a.81.81,0,0,1-.1.8,3.394,3.394,0,0,0-.39.718l-.492,1.148a10.2,10.2,0,0,1,1.066-.575l1.066-.491q1.311-.7,2.706-1.476a13.306,13.306,0,0,1,2.829-1.189,2.007,2.007,0,0,1,.943-.02,1.174,1.174,0,0,1,.635.369,1.041,1.041,0,0,1,.226.7,1.7,1.7,0,0,1-.328.923,6.829,6.829,0,0,1-.8,1.025q-.431.452-.882.984a2.453,2.453,0,0,1-.287.328q-.205.205-.431.471t-.41.534a1.324,1.324,0,0,0-.225.47,1.536,1.536,0,0,0,.717,0,6.477,6.477,0,0,0,.861-.224c.287-.1.56-.2.821-.308s.457-.191.594-.246l1.681-.738q.163-.083.43-.246c.178-.109.362-.211.554-.308s.375-.184.554-.267a1.1,1.1,0,0,1,.43-.123.326.326,0,0,1,.369.37.642.642,0,0,1-.328.574c-.246.137-.506.266-.779.389s-.561.253-.861.39q-.574.328-1.107.574c-.356.163-.725.342-1.107.533q-.329.164-1.046.471a7.206,7.206,0,0,1-1.435.451,2.369,2.369,0,0,1-1.25-.041c-.356-.123-.533-.457-.533-1.005a1.364,1.364,0,0,1,.205-.737,5.037,5.037,0,0,1,.471-.636,7.545,7.545,0,0,1,.575-.594c.2-.191.389-.369.553-.533a8.949,8.949,0,0,0,.82-.861,3.334,3.334,0,0,0,.738-1.23,8.53,8.53,0,0,0-2.234.574,22.591,22.591,0,0,0-2.071.943q-1.189.575-2.46,1.291a9.54,9.54,0,0,0-2.214,1.7.788.788,0,0,1-.431.185.766.766,0,0,1-.43-.082.657.657,0,0,1-.308-.308.761.761,0,0,1-.02-.532,1.268,1.268,0,0,1,.615-.656,7.87,7.87,0,0,0,.41-.759,2.513,2.513,0,0,1,.287-.513c.054-.19.109-.388.164-.593a4.9,4.9,0,0,0,.123-.636q-.451.123-.9.287t-.7.246q-.575.246-1.148.472t-1.148.512c-.219.109-.417.219-.595.328a3.477,3.477,0,0,1-.594.287.648.648,0,0,1-.472.061.77.77,0,0,1-.348-.184.36.36,0,0,1-.1-.308C-6547.839-1762.787-6547.736-1762.889-6547.545-1762.972Z" fill="#333"/>
        <path id="パス_1664" data-name="パス 1664" d="M-6528.784-1762.972q1.066-.531,2.091-1.024t2.091-.9a14.626,14.626,0,0,1,2.276-.616,13.3,13.3,0,0,1,2.357-.2,1,1,0,0,1,.7.226q.246.227.041.759a.807.807,0,0,1-.738.41,14.038,14.038,0,0,0-2.152,0,6.662,6.662,0,0,0-2.071.492,3.466,3.466,0,0,0-.7.369,4.388,4.388,0,0,0-.677.553,1.738,1.738,0,0,0-.43.677.991.991,0,0,0,.082.779,1.481,1.481,0,0,0,1.251.819,4.213,4.213,0,0,0,1.578-.041,4.214,4.214,0,0,0,.943-.327l.738-.369a2.723,2.723,0,0,1,.595-.225.624.624,0,0,1,.553.184.866.866,0,0,1,.02.942q-.266.534-.43.9l-.574,1.353q1.107-1.148,2.337-2.194a18.733,18.733,0,0,1,2.624-1.865c.082-.055.191-.137.328-.246a3.893,3.893,0,0,1,.451-.308,1.91,1.91,0,0,1,.492-.2.464.464,0,0,1,.41.061c.191.138.259.274.205.411a1.263,1.263,0,0,1-.287.41q-1.066.575-2.05,1.23a19,19,0,0,0-1.927,1.476,23.948,23.948,0,0,0-2.029,1.927,23.676,23.676,0,0,0-1.784,2.131l-1.066,2.46q-.491,1.232-.984,2.5t-1.066,2.5c-.082.164-.184.363-.307.6a5.383,5.383,0,0,1-.41.656,1.846,1.846,0,0,1-.534.493,1.06,1.06,0,0,1-.676.143.748.748,0,0,1-.635-.451,1.62,1.62,0,0,1-.082-.82,5.382,5.382,0,0,1,.2-.9q.144-.453.267-.738a21.208,21.208,0,0,1,1.948-3.588,37.561,37.561,0,0,1,2.48-3.3l1.394-3.977a10.69,10.69,0,0,1-1.578.307,6.776,6.776,0,0,1-1.579.021,3.538,3.538,0,0,1-1.333-.41,1.981,1.981,0,0,1-.881-1.066,1.991,1.991,0,0,1,.041-1.722c-.219.137-.445.281-.677.43a.7.7,0,0,1-.594.144.442.442,0,0,1-.492-.349A.419.419,0,0,1-6528.784-1762.972Z" fill="#333"/>
        <path id="パス_1665" data-name="パス 1665" d="M-6515-1763.013a25.725,25.725,0,0,0,2.46-1.27q1.189-.7,2.378-1.518a22.088,22.088,0,0,1,1.271-2.213q.7-1.065,1.353-2.091.7-.942,1.394-1.907t1.435-1.906q.615-.82,1.333-1.661a6.127,6.127,0,0,1,1.66-1.373,3.424,3.424,0,0,1,1.107-.349.764.764,0,0,1,.9.595,1.309,1.309,0,0,1,.021.881,3.642,3.642,0,0,1-.431.861,9.128,9.128,0,0,1-.615.821c-.219.259-.4.485-.533.675a32.822,32.822,0,0,1-3.669,4.368,38.4,38.4,0,0,1-4.367,3.751q-.206.492-.471,1.045a10.053,10.053,0,0,0-.472,1.168,6.781,6.781,0,0,0-.287,1.21,3.1,3.1,0,0,0,.041,1.128q.452-.081.82-.123c.219-.027.424-.048.615-.061a1.2,1.2,0,0,0,.369-.062,18.7,18.7,0,0,0,2.419-.656q1.189-.41,2.337-.9a3.406,3.406,0,0,0,.779-.329.739.739,0,0,1,.779-.041c.3.22.341.417.123.6a2.664,2.664,0,0,1-.615.39l-4.756,1.763q-.7.246-1.353.512a4.21,4.21,0,0,1-1.353.308,1.328,1.328,0,0,1-.984-.185,1.367,1.367,0,0,1-.512-.7,2.348,2.348,0,0,1-.1-.942,5.253,5.253,0,0,1,.164-.964,14.334,14.334,0,0,1,.738-1.968,31.76,31.76,0,0,1-3.526,2.009.64.64,0,0,1-.676-.267Q-6515.492-1762.765-6515-1763.013Zm8.323-5.616a31.74,31.74,0,0,0,3.526-3.9,13.92,13.92,0,0,0,1.394-1.968,5.443,5.443,0,0,1,.246-.513,5.279,5.279,0,0,0,.287-.635,4.408,4.408,0,0,0-1.086.779c-.343.328-.622.6-.841.82a22.123,22.123,0,0,0-1.763,1.988q-.82,1.047-1.64,2.153-.451.656-.861,1.292t-.779,1.291c.246-.191.5-.4.759-.636Z" fill="#333"/>
        <path id="パス_1666" data-name="パス 1666" d="M-6503.011-1763.013q.738-.369,1.537-.819a13.491,13.491,0,0,1,1.619-.779,4.189,4.189,0,0,1,1.517-1.537,6.191,6.191,0,0,1,2.092-.8,5.366,5.366,0,0,1,1.332,0,1.625,1.625,0,0,1,1.169.615.642.642,0,0,1,.143.7,1.927,1.927,0,0,1-.492.7,4.851,4.851,0,0,1-.779.594q-.431.267-.636.39a5.868,5.868,0,0,1-1.619.676,5.184,5.184,0,0,1-1.783.143h-.164a2.305,2.305,0,0,0,.737,1.4,3.592,3.592,0,0,0,1.353.718,4.916,4.916,0,0,0,1.62.184,12.309,12.309,0,0,0,1.538-.164,18.048,18.048,0,0,0,1.926-.512,18.1,18.1,0,0,0,1.846-.718q.409-.205.84-.39a8.444,8.444,0,0,0,.8-.39.789.789,0,0,1,.594.082c.2.111.226.288.061.534a1.052,1.052,0,0,1-.574.451c-.245.082-.465.164-.656.246l-2.049.9a35.019,35.019,0,0,1-3.731,1.23,6.168,6.168,0,0,1-1.661.1,4.815,4.815,0,0,1-1.558-.369,4.075,4.075,0,0,1-1.292-.882,3.23,3.23,0,0,1-.819-1.475c-.056-.219-.1-.437-.144-.656a1.312,1.312,0,0,1,.021-.615,7.9,7.9,0,0,0-.882.471l-.759.472a3.04,3.04,0,0,0-.533.307.553.553,0,0,1-.655.021.469.469,0,0,1-.226-.451A.382.382,0,0,1-6503.011-1763.013Zm4.182-1.147a4.743,4.743,0,0,0,1.906-.492,6,6,0,0,0,1.62-1.149,2.335,2.335,0,0,0-1.128-.122,3.221,3.221,0,0,0-1.025.327,3.178,3.178,0,0,0-.841.636A2.551,2.551,0,0,0-6498.829-1764.16Z" fill="#333"/>
        <path id="パス_1667" data-name="パス 1667" d="M-6457.134-1779.33a3.632,3.632,0,0,0-1.783-.287,7.171,7.171,0,0,0-1.824.41,6.1,6.1,0,0,1,4.181,1.127,4.116,4.116,0,0,1,1.4,3.834,12.455,12.455,0,0,1-1.25,4.387,33.99,33.99,0,0,1-2.317,4.017q-1.066,1.6-2.42,3.26a22.406,22.406,0,0,1-2.992,3.034,19.114,19.114,0,0,1-3.506,2.337,10.25,10.25,0,0,1-3.915,1.128,7.288,7.288,0,0,1-1.947-.1,3.031,3.031,0,0,1-1.7-.923,3.249,3.249,0,0,1-.9-1.927,8.22,8.22,0,0,1,.041-2.173,14.884,14.884,0,0,1,1.415-4.285,37.356,37.356,0,0,1,2.275-3.915,31.12,31.12,0,0,1,2.624-3.711,41.686,41.686,0,0,1,3.075-3.341,32.182,32.182,0,0,1,3.341-2.747,9.482,9.482,0,0,1,3.916-1.682,8.717,8.717,0,0,1,1.578-.123,2.184,2.184,0,0,1,1.455.452.679.679,0,0,1,.268.471.787.787,0,0,1-.1.472.755.755,0,0,1-.369.308A.664.664,0,0,1-6457.134-1779.33Zm-7.789,2.706a26.226,26.226,0,0,0-3.3,3.218,41.264,41.264,0,0,0-2.809,3.67,29.768,29.768,0,0,0-2.275,3.915,16.716,16.716,0,0,0-1.415,4.285,7.979,7.979,0,0,0-.123.922,4.884,4.884,0,0,0,.021,1.005,3.4,3.4,0,0,0,.246.923,1.653,1.653,0,0,0,.594.716,2.551,2.551,0,0,0,1.578.472,8.415,8.415,0,0,0,1.62-.184,11.322,11.322,0,0,0,4.1-1.722,29.189,29.189,0,0,0,3.486-2.747,26.308,26.308,0,0,0,3.054-3.363,22.311,22.311,0,0,0,2.358-3.853c.246-.492.517-1.087.818-1.783a10.921,10.921,0,0,0,.678-2.154,6.3,6.3,0,0,0,.082-2.131,2.767,2.767,0,0,0-.924-1.722,2.658,2.658,0,0,0-1.844-.718,10.816,10.816,0,0,0-2.051.144.675.675,0,0,1-.656-.205.881.881,0,0,1-.246-.739,16.133,16.133,0,0,0-1.619,1.026Q-6464.35-1777.074-6464.923-1776.624Z" fill="#333"/>
        <path id="パス_1668" data-name="パス 1668" d="M-6458.338-1763.013q.861-.449,1.7-.9t1.825-1.025a1.983,1.983,0,0,1,.471-1.476,1.622,1.622,0,0,1,1.415-.656.831.831,0,0,1,.738.574.992.992,0,0,1-.164.942,2.769,2.769,0,0,1-.861.821,1.384,1.384,0,0,0,.7.164,3.757,3.757,0,0,0,1.8-.308,11.916,11.916,0,0,0,1.681-.841c.492-.164.806-.108.943.164a.979.979,0,0,1-.164.985q-.206.328-.472.841a7.758,7.758,0,0,0-.451,1.045,3.551,3.551,0,0,0-.2,1.025.924.924,0,0,0,.306.779q.206.244,1.087,0t2.358-.82c.328-.137.662-.294,1-.472s.689-.348,1.045-.512a2.131,2.131,0,0,0,.369-.185,2,2,0,0,1,.471-.2.7.7,0,0,1,.411,0q.185.062.184.431a.484.484,0,0,1-.184.369,2.232,2.232,0,0,1-.411.287,2.921,2.921,0,0,1-.471.205l-.369.123-1.722.779q-.452.244-1.128.615a9.364,9.364,0,0,1-1.373.615,4.058,4.058,0,0,1-1.354.246,1.178,1.178,0,0,1-1.024-.533,1.32,1.32,0,0,1-.246-.636,2.378,2.378,0,0,1,.02-.7,6.339,6.339,0,0,1,.165-.7q.1-.348.184-.676l.328-1.353c-.137.027-.417.1-.841.2a8.161,8.161,0,0,1-1.373.226,6.93,6.93,0,0,1-1.415-.021,1.375,1.375,0,0,1-1-.533q-.7.369-1.147.615t-.923.532q-.471.289-.758.452a2.448,2.448,0,0,0-.574.307.483.483,0,0,1-.574.062.514.514,0,0,1-.246-.451A.425.425,0,0,1-6458.338-1763.013Z" fill="#333"/>
        <path id="パス_1669" data-name="パス 1669" d="M-6438.868-1764.98q.164-.083.758-.328a6.775,6.775,0,0,1,1.169-.37,2.211,2.211,0,0,1,.984-.02q.409.1.287.759a2.013,2.013,0,0,1-.349.738,2.754,2.754,0,0,0-.389.738,9.358,9.358,0,0,0-.471,1.312,1.378,1.378,0,0,0,.143,1.271,3.867,3.867,0,0,0,1.538-.164q.839-.246,1.537-.492a8.039,8.039,0,0,0,.779-.41c.383-.219.785-.431,1.21-.636a6.8,6.8,0,0,1,1.168-.451c.355-.1.574-.062.656.1.108.192.041.4-.205.616a3.972,3.972,0,0,1-.923.594q-.554.267-1.127.493c-.384.15-.629.253-.738.307q-.9.452-1.824.881a7.39,7.39,0,0,1-1.907.6,1.119,1.119,0,0,1-1.189-.369,2.207,2.207,0,0,1-.328-1.25,6.646,6.646,0,0,1,.225-1.641q.226-.881.472-1.619-.943.369-1.845.677a16.734,16.734,0,0,0-1.763.716q-.738.33-1.476.739a.622.622,0,0,1-.718-.226q-.266-.347.226-.595Zm4.8-8.283a2.369,2.369,0,0,1,.635-.921,3.8,3.8,0,0,1,.964-.636,6.181,6.181,0,0,1,1.127-.39c.4-.1.772-.17,1.128-.225a14.7,14.7,0,0,1,2.911.123,2.159,2.159,0,0,1,.554.082c.205.055.293.2.266.451a.616.616,0,0,1-.205.348.413.413,0,0,1-.369.1,9.883,9.883,0,0,0-2.48-.185,4.405,4.405,0,0,0-2.317.759,1.329,1.329,0,0,0-.574.656,1.489,1.489,0,0,1-.492.656.647.647,0,0,1-.861,0A.673.673,0,0,1-6434.071-1773.263Z" fill="#333"/>
        <path id="パス_1670" data-name="パス 1670" d="M-6430.5-1762.972q1.066-.531,2.09-1.024t2.091-.9a14.655,14.655,0,0,1,2.276-.616,13.324,13.324,0,0,1,2.358-.2,1,1,0,0,1,.7.226q.246.227.041.759a.806.806,0,0,1-.737.41,14.051,14.051,0,0,0-2.153,0,6.668,6.668,0,0,0-2.071.492,3.493,3.493,0,0,0-.7.369,4.4,4.4,0,0,0-.676.553,1.727,1.727,0,0,0-.43.677.985.985,0,0,0,.082.779,1.482,1.482,0,0,0,1.25.819,4.218,4.218,0,0,0,1.579-.041,4.223,4.223,0,0,0,.942-.327l.739-.369a2.738,2.738,0,0,1,.594-.225.625.625,0,0,1,.554.184.87.87,0,0,1,.02.942q-.267.534-.43.9l-.574,1.353q1.107-1.148,2.336-2.194a18.8,18.8,0,0,1,2.625-1.865q.123-.082.328-.246a3.893,3.893,0,0,1,.451-.308,1.914,1.914,0,0,1,.492-.2.462.462,0,0,1,.409.061c.192.138.26.274.205.411a1.234,1.234,0,0,1-.287.41q-1.066.575-2.05,1.23a19.046,19.046,0,0,0-1.926,1.476,24.108,24.108,0,0,0-2.03,1.927,23.827,23.827,0,0,0-1.783,2.131l-1.066,2.46q-.492,1.232-.985,2.5t-1.065,2.5c-.082.164-.185.363-.308.6a5.324,5.324,0,0,1-.41.656,1.83,1.83,0,0,1-.533.493,1.062,1.062,0,0,1-.676.143.75.75,0,0,1-.636-.451,1.62,1.62,0,0,1-.082-.82,5.291,5.291,0,0,1,.205-.9c.095-.3.185-.548.267-.738a21.309,21.309,0,0,1,1.947-3.588,37.764,37.764,0,0,1,2.481-3.3l1.393-3.977a10.665,10.665,0,0,1-1.578.307,6.767,6.767,0,0,1-1.578.021,3.541,3.541,0,0,1-1.333-.41,1.988,1.988,0,0,1-.882-1.066,1.994,1.994,0,0,1,.041-1.722c-.219.137-.444.281-.676.43a.7.7,0,0,1-.594.144.442.442,0,0,1-.492-.349A.418.418,0,0,1-6430.5-1762.972Z" fill="#333"/>
        <path id="パス_1671" data-name="パス 1671" d="M-6412.613-1764.98q.165-.083.759-.328a6.761,6.761,0,0,1,1.169-.37,2.211,2.211,0,0,1,.984-.02q.409.1.287.759a2.013,2.013,0,0,1-.349.738,2.757,2.757,0,0,0-.39.738,9.425,9.425,0,0,0-.47,1.312,1.378,1.378,0,0,0,.143,1.271,3.864,3.864,0,0,0,1.537-.164q.84-.246,1.537-.492a7.912,7.912,0,0,0,.78-.41q.574-.328,1.21-.636a6.8,6.8,0,0,1,1.168-.451c.355-.1.574-.062.656.1.108.192.041.4-.205.616a3.986,3.986,0,0,1-.923.594q-.553.267-1.127.493c-.384.15-.629.253-.738.307q-.9.452-1.824.881a7.39,7.39,0,0,1-1.907.6,1.118,1.118,0,0,1-1.189-.369,2.2,2.2,0,0,1-.328-1.25,6.669,6.669,0,0,1,.225-1.641q.226-.881.472-1.619-.943.369-1.845.677a16.734,16.734,0,0,0-1.763.716q-.739.33-1.476.739a.622.622,0,0,1-.718-.226q-.266-.347.226-.595Zm4.8-8.283a2.374,2.374,0,0,1,.635-.921,3.788,3.788,0,0,1,.964-.636,6.13,6.13,0,0,1,1.127-.39c.4-.1.772-.17,1.128-.225a14.71,14.71,0,0,1,2.911.123,2.159,2.159,0,0,1,.554.082c.205.055.293.2.266.451a.613.613,0,0,1-.205.348.413.413,0,0,1-.369.1,9.882,9.882,0,0,0-2.48-.185,4.405,4.405,0,0,0-2.317.759,1.328,1.328,0,0,0-.574.656,1.494,1.494,0,0,1-.492.656.647.647,0,0,1-.862,0A.674.674,0,0,1-6407.815-1773.263Z" fill="#333"/>
        <path id="パス_1672" data-name="パス 1672" d="M-6404.437-1762.972q.451-.246,1.558-.839t2.276-1.128a10.417,10.417,0,0,1,2.153-.739q.983-.2,1.229.329a.809.809,0,0,1-.1.8,3.439,3.439,0,0,0-.39.718l-.491,1.148a10.192,10.192,0,0,1,1.065-.575l1.066-.491q1.313-.7,2.707-1.476a13.285,13.285,0,0,1,2.829-1.189,2,2,0,0,1,.942-.02,1.178,1.178,0,0,1,.636.369,1.046,1.046,0,0,1,.225.7,1.683,1.683,0,0,1-.328.923,6.737,6.737,0,0,1-.8,1.025q-.431.452-.88.984a2.5,2.5,0,0,1-.288.328c-.137.137-.281.294-.43.471s-.287.356-.41.534a1.328,1.328,0,0,0-.226.47,1.541,1.541,0,0,0,.718,0,6.5,6.5,0,0,0,.861-.224c.286-.1.56-.2.819-.308s.458-.191.6-.246l1.681-.738c.109-.055.253-.137.431-.246s.362-.211.553-.308.375-.184.554-.267a1.1,1.1,0,0,1,.431-.123.326.326,0,0,1,.368.37.645.645,0,0,1-.327.574c-.246.137-.507.266-.78.389l-.861.39q-.574.328-1.106.574c-.356.163-.725.342-1.108.533q-.328.164-1.045.471a7.246,7.246,0,0,1-1.435.451,2.368,2.368,0,0,1-1.25-.041c-.357-.123-.534-.457-.534-1.005a1.356,1.356,0,0,1,.206-.737,4.944,4.944,0,0,1,.471-.636,7.612,7.612,0,0,1,.573-.594q.308-.287.554-.533a9.1,9.1,0,0,0,.821-.861,3.355,3.355,0,0,0,.737-1.23,8.553,8.553,0,0,0-2.235.574q-1.128.452-2.07.943-1.189.575-2.46,1.291a9.591,9.591,0,0,0-2.214,1.7.782.782,0,0,1-.43.185.767.767,0,0,1-.431-.082.66.66,0,0,1-.308-.308.764.764,0,0,1-.02-.532,1.27,1.27,0,0,1,.615-.656,7.464,7.464,0,0,0,.41-.759,2.59,2.59,0,0,1,.287-.513c.055-.19.109-.388.164-.593a4.745,4.745,0,0,0,.123-.636c-.3.082-.6.178-.9.287s-.533.191-.7.246q-.575.246-1.148.472t-1.148.512c-.219.109-.417.219-.594.328a3.518,3.518,0,0,1-.595.287.648.648,0,0,1-.471.061.768.768,0,0,1-.349-.184.358.358,0,0,1-.1-.308C-6404.73-1762.787-6404.627-1762.889-6404.437-1762.972Z" fill="#333"/>
      </g>
    </g>
  </g>
</svg>
