<svg id="logo_s" xmlns="http://www.w3.org/2000/svg" width="54.844" height="54.687" viewBox="0 0 54.844 54.687">
  <path id="パス_280" data-name="パス 280" d="M247.409,4138.124a20.621,20.621,0,0,0-39.068-9.232,23.073,23.073,0,0,1,3.757-.467,17.653,17.653,0,1,1,15.582,27.256c-.3.015-.6.046-.908.046a17.622,17.622,0,0,1-17.6-17.6c0-.374.033-.74.056-1.109a15.042,15.042,0,0,0-3.087,1.216,20.652,20.652,0,0,0,20.293,20.515c.114,0,.225.017.34.017a20.716,20.716,0,0,0,20.637-20.639Z" transform="translate(-192.565 -4117.488)" fill="#ece8de"/>
  <path id="パス_281" data-name="パス 281" d="M227.9,4161.128a17.536,17.536,0,1,1,2.9-9.592h.027a17.547,17.547,0,0,0,2.965-.867,20.6,20.6,0,1,0-2.04,9.883h-.023A24.384,24.384,0,0,1,227.9,4161.128Z" transform="translate(-192.565 -4117.488)" fill="#ece8de"/>
</svg>
