<svg id="nav_ochart" xmlns="http://www.w3.org/2000/svg" width="342.021" height="58.632" viewBox="0 0 342.021 58.632">
  <rect id="長方形_10" data-name="長方形 10" width="342.021" height="58.632" fill="#a61527" opacity="0"/>
  <g id="グループ_75" data-name="グループ 75" transform="translate(-614.652 -1199.186)">
    <path id="パス_342" data-name="パス 342" d="M626.349,1249.786c-2.509,0-4.251-2.055-4.251-4.98s1.729-4.992,4.251-4.992c2.5,0,4.238,2.054,4.238,4.992C630.587,1247.718,628.858,1249.786,626.349,1249.786Zm3-5.1c0-1.2-.338-4.446-3-4.446-2.912,0-3.016,3.822-3.016,4.68,0,1.248.377,4.433,3.016,4.433C629.248,1249.356,629.352,1245.573,629.352,1244.689Z" fill="#333"/>
    <path id="パス_343" data-name="パス 343" d="M641.359,1239.97c0,.013.845,2.054.845,2.2a.244.244,0,0,1-.247.234c-.117,0-.143-.039-.416-.416a3.452,3.452,0,0,0-2.808-1.742c-2.041,0-3.094,2.5-3.094,4.745,0,3.016,1.768,4.2,3.315,4.2a3.183,3.183,0,0,0,2.808-1.846c.3-.507.3-.52.4-.52a.2.2,0,0,1,.2.208,4.288,4.288,0,0,1-.741,1.313,3.79,3.79,0,0,1-3.055,1.444c-2.743,0-4.082-2.224-4.082-4.772,0-3.042,1.885-5.2,4.082-5.2a4.509,4.509,0,0,1,1.1.156,6.319,6.319,0,0,0,.78.208.536.536,0,0,0,.351-.13c.208-.208.234-.234.338-.234A.3.3,0,0,1,641.359,1239.97Z" fill="#333"/>
    <path id="パス_344" data-name="パス 344" d="M652.007,1244.481c.351,0,.351-.078.351-1.794,0-1.885,0-2.21-1.209-2.21-.1,0-.338,0-.338-.221,0-.195.234-.195.351-.195h3.315c.091,0,.338,0,.338.208s-.169.221-.571.221a.825.825,0,0,0-.794.481c-.1.273-.117.312-.117,5.018a20.787,20.787,0,0,0,.1,2.639c.182.495.715.495.962.495.2,0,.416,0,.416.208s-.247.208-.338.208h-3.315c-.13,0-.351,0-.351-.195s.234-.208.377-.208a1.269,1.269,0,0,0,.91-.261c.26-.259.26-.273.26-2.651,0-1.21,0-1.313-.351-1.313h-3.5a.347.347,0,0,0-.3.155c-.052.143-.052,1.431-.052,1.678,0,2.131,0,2.392,1.222,2.392.091,0,.325,0,.325.22,0,.183-.234.183-.351.183H646.04c-.078,0-.338,0-.338-.208s.169-.208.572-.208a.827.827,0,0,0,.845-.664c.052-.312.052-3.471.052-5.135a18.608,18.608,0,0,0-.091-2.34c-.169-.494-.715-.494-.962-.494-.2,0-.416,0-.416-.221s.247-.208.338-.208h3.315c.13,0,.351,0,.351.195,0,.221-.221.221-.377.221-1.17,0-1.17.39-1.17,2.054,0,.234,0,1.664.052,1.781a.314.314,0,0,0,.3.169Z" fill="#333"/>
    <path id="パス_345" data-name="パス 345" d="M665.086,1249.539c-.143,0-.312-.04-.312-.208,0-.208.208-.208.52-.208a.572.572,0,0,0,.534-.573,7.073,7.073,0,0,0-.481-1.521c-.287-.728-.326-.819-.754-.819h-2.822c-.481,0-.533.13-.741.715a10.355,10.355,0,0,0-.468,1.691c0,.507.416.507.728.507.156,0,.3.025.3.208,0,.208-.2.208-.3.208h-2.5c-.1,0-.273-.014-.273-.195,0-.221.143-.221.442-.221a1.094,1.094,0,0,0,.988-.521,38.539,38.539,0,0,0,1.547-4.381c.169-.52,1-3.068,1.17-3.653.13-.455.208-.754,1.131-.754a.3.3,0,0,1,.286.208,8.588,8.588,0,0,1,.43,1.17c.91,2.821.987,3.133,1.807,5.538.74,2.21.832,2.393,1.572,2.393.169,0,.3.078.3.221,0,.195-.208.195-.3.195Zm-.611-3.758c.144,0,.326-.065.326-.208,0-.273-1.236-3.887-1.47-4.589-.078-.221-.1-.338-.194-.338s-.092.039-.235.468c-.364,1.053-1.378,4.355-1.378,4.472,0,.195.2.195.365.195Z" fill="#333"/>
    <path id="パス_346" data-name="パス 346" d="M675.735,1240.061c.624,0,3.588.065,3.588,2.249a2.531,2.531,0,0,1-1.729,2.275c-.455.221-.507.247-.507.391a23.025,23.025,0,0,0,1.352,3.106,1.617,1.617,0,0,0,1.534,1.041c.13,0,.39,0,.39.208,0,.182-.26.208-.326.208h-1.625a.636.636,0,0,1-.61-.377c-.079-.13-1-2.145-1.144-2.471-.715-1.572-.807-1.78-1.262-1.78h-.714c-.091,0-.261.051-.3.155-.053.13-.053,1.847-.053,2.145,0,1.574,0,1.912,1.2,1.912.091,0,.273,0,.273.208s-.235.208-.377.208h-3.212c-.13,0-.324-.026-.324-.208,0-.208.181-.208.363-.208.9,0,1.027-.417,1.066-.9.027-.442.027-4.018.027-4.629a20.894,20.894,0,0,0-.1-2.626c-.17-.481-.728-.481-1.028-.481-.078,0-.351,0-.351-.234,0-.195.235-.195.39-.195Zm-.469.429c-.936,0-.936.585-.936,1.925,0,2.041,0,2.08.352,2.08h1.053a2.1,2.1,0,0,0,2.353-2.055c0-.91-.494-1.95-2.184-1.95Z" fill="#333"/>
    <path id="パス_347" data-name="パス 347" d="M690.535,1240.061c.7,0,.858,0,1.079.585.1.286.663,1.755.663,1.885a.2.2,0,0,1-.208.195c-.1,0-.143-.052-.442-.546a2.847,2.847,0,0,0-2.34-1.69c-.507,0-.819.208-.9.65-.039.234-.039,3.172-.039,3.718,0,.364,0,3.368.039,3.589.117.662.728.676,1.079.676.481,0,.585,0,.585.208s-.182.208-.39.208h-3.64c-.182,0-.377,0-.377-.208s.208-.208.286-.208c.767,0,1.248,0,1.378-.676a34.516,34.516,0,0,0,.039-3.679c0-3.212,0-3.563-.091-3.81a.811.811,0,0,0-.832-.468,2.968,2.968,0,0,0-2.34,1.677c-.312.507-.338.559-.455.559a.211.211,0,0,1-.208-.195c0-.1.585-1.664.689-1.924.208-.546.416-.546,1.066-.546Z" fill="#333"/>
    <path id="パス_348" data-name="パス 348" d="M633.681,1214.542c0,.825-1.9,1.575-2.5,1.825-.35.125-.375.225-.425,1.1-.05.549-.05,2.574-.05,2.7,0,.15,0,.45.225.45.075,0,2.124-.85,2.524-1a11.748,11.748,0,0,1,4.249-1,3.827,3.827,0,0,1,3.849,3.774c0,3.3-3.474,4.8-5.523,4.8-1.425,0-2.575-.725-2.575-2.024a2.228,2.228,0,0,1,1.25-1.975.134.134,0,0,1,.125.125c0,.075-.05.125-.1.2a1.034,1.034,0,0,0-.225.675c0,1.2,1.375,1.2,1.624,1.2,1.65,0,3.75-1.1,3.75-3.1a2.59,2.59,0,0,0-2.4-2.749c-.7,0-2.249.325-5.173,1.875-1.4.749-1.55.825-1.55,1.249,0,.275.075,1.4.075,1.65,0,1.15-.375,2.8-1.275,2.8-.675,0-.95-.525-1.149-.924-.8-1.55-.925-1.55-1.25-1.55a2.075,2.075,0,0,0-.625.15,4.943,4.943,0,0,1-.95.5c-.275,0-1.549-.75-1.549-1.575,0-.45.274-.975.724-.975.15,0,.875.125,1.025.125a5.338,5.338,0,0,0,2.6-.85c1.275-.624,1.425-.7,1.425-1.4,0-.575-.025-2.7-.05-3.124,0-.175-.075-.55-.35-.55a5.858,5.858,0,0,0-1.15.225,5.335,5.335,0,0,1-1.774.474c-.85,0-1.8-1.724-1.8-1.9a.177.177,0,0,1,.2-.175c.075,0,.375.1.45.1a7.27,7.27,0,0,0,1.15.125,10.911,10.911,0,0,0,3.174-.75,18.682,18.682,0,0,0,.25-2.724,2.455,2.455,0,0,0-.825-2,2.543,2.543,0,0,1-.35-.4c0-.226.4-.276.55-.276a2.5,2.5,0,0,1,2.574,1.7,9.929,9.929,0,0,1-.525,1.3,13.57,13.57,0,0,0-.249,1.624c0,.1.05.275.2.275.174,0,.875-.275.875-.624,0-.05-.125-.3-.125-.351,0-.024.049-.074.1-.1C632.481,1213.418,633.681,1213.767,633.681,1214.542Zm-5.7,9.573c0,.375.675,1.175,1.05,1.175.35,0,.7-.7.7-1.925,0-.1,0-.35-.075-.4C629.582,1222.965,627.982,1223.765,627.982,1224.115Zm16.422-7.773c0,.525-.3,1.2-.826,1.2-.149,0-.724-.05-.849-.05-.125.025-.65.175-.75.175a.117.117,0,0,1-.125-.125,1.711,1.711,0,0,1,.075-.2,1.316,1.316,0,0,0,.1-.45c0-1-1.25-1.35-2.1-1.35a2.17,2.17,0,0,0-.975.25.558.558,0,0,1-.25.075c-.075,0-.1-.025-.1-.1a3.2,3.2,0,0,1,2.7-1.575C643.229,1214.192,644.4,1215.192,644.4,1216.342Z" fill="#333"/>
    <path id="パス_349" data-name="パス 349" d="M670.182,1216.817a22.059,22.059,0,0,0,6.049,1.974c.1,0,.525.075.525.175,0,.075-.35.175-.45.2a4.328,4.328,0,0,0-1.9,1.35c-.075.1-.349.625-.474.625-.15,0-5.574-2.625-8.023-6.624-.476-.8-.55-.875-.726-.875s-.225.05-.774.625a29.726,29.726,0,0,1-7.4,5.824,21.631,21.631,0,0,1-3.925,1.6c-.074,0-.125-.051-.125-.075s2.675-1.675,2.9-1.825c3.374-2.124,6.948-5.948,7.3-7.823.025-.2.05-.275.225-.275.125,0,2.15.775,2.275.85.074.025.324.125.324.375a1.561,1.561,0,0,1-.1.35C665.933,1213.642,668.083,1215.742,670.182,1216.817Zm-12.047-6.224c-1.849,0-2.7.05-3.174.075-.075,0-.45.05-.525.05s-.125-.05-.225-.15l-.475-.575c-.1-.125-.1-.125-.1-.175s.024-.05.074-.05c.175,0,.95.076,1.1.076,1.225.049,2.274.1,3.449.1h.725c.525,0,.675-.25.675-.674a4.064,4.064,0,0,0-.2-1.325,3.788,3.788,0,0,1-.15-.5c0-.125.125-.175.275-.175.175,0,1.3.275,1.575.35.75.2.9.25.9.475,0,.15-.024.2-.375.65a.613.613,0,0,0-.174.45c0,.6.2.749.874.749h4.124c.225,0,.75,0,.75-.674a10.383,10.383,0,0,0-.075-1.125c-.025-.125-.15-.65-.15-.75,0-.125.15-.175.275-.175.175,0,1.874.4,2.149.475s.425.175.425.4c0,.15-.1.25-.374.45a.8.8,0,0,0-.326.7c0,.7.4.7.8.7h1.275c1.1,0,1.225,0,1.6-.424.7-.825.775-.925,1-.925.15,0,2.325,1.325,2.325,1.649,0,.35-.5.35-1.325.35h-4.874c-.775,0-.775.4-.775,1,0,.15.026,1,.026,1.125,0,.924-.75,1.075-1.275,1.075-.575,0-.675-.1-.675-.95v-1.725c-.075-.475-.375-.525-.775-.525h-4c-.575,0-.925,0-.925.7,0,.25.076,1.35.076,1.575,0,.475-.076.7-.3.85a1.777,1.777,0,0,1-.95.349c-.425,0-.625-.274-.625-.774,0-.2.025-1.15.025-1.325,0-.975,0-1.375-.775-1.375Zm1.775,12.772a12.785,12.785,0,0,1,1.924,1.175.621.621,0,0,1,.2.375c0,.3-.2.35-.8.5-.075.025-2.225,1.7-2.625,2a15.344,15.344,0,0,1-3.8,2.175.08.08,0,0,1-.075-.075c0-.05,1.325-1.2,1.5-1.375a14.42,14.42,0,0,0,3.574-4.749A.15.15,0,0,1,659.91,1223.365Zm1.149-1.325c-1.949,0-2.674.026-3.174.076-.075,0-.45.049-.524.049s-.125-.049-.225-.15l-.475-.574c-.1-.125-.1-.125-.1-.175,0-.025.025-.05.075-.05.174,0,.949.075,1.1.075,1.225.075,2.275.1,3.449.1h1.875c.25,0,.75,0,.75-.675,0-.3-.15-2.325-.2-2.575,0-.05-.15-.3-.15-.349s.05-.151.25-.151c.175,0,1.925.375,2.174.45.35.075.475.3.475.425,0,.15-.05.2-.425.525-.35.3-.35.45-.35,1.2,0,.9,0,1.15.75,1.15h1.1c1.1,0,1.225,0,1.6-.425.7-.825.774-.925,1-.925.149,0,2.324,1.35,2.324,1.65,0,.349-.5.349-1.325.349h-4.724c-.75,0-.75.45-.75,1.25,0,1.775,0,2.775.05,4.249.026.425.026,1.025.026,1.325,0,.8-.2,1.275-1.275,1.275-.55,0-.6-.45-.6-.875,0-.325.075-1.825.075-2.15.025-.95.025-1.874.025-3.024a15.151,15.151,0,0,0-.05-1.7c-.125-.35-.525-.35-.725-.35Zm6.674,2.1c0-.075.125-.1.225-.1.925,0,6.623,1.575,6.623,3.649,0,.8-.45,1.425-1.074,1.425-.475,0-.575-.125-1.35-1.275a11.881,11.881,0,0,0-4.3-3.6C667.833,1224.24,667.733,1224.165,667.733,1224.14Z" fill="#333"/>
    <path id="パス_350" data-name="パス 350" d="M696.806,1213.692c-.175,0-5.424,1.225-5.549,1.275a10.82,10.82,0,0,1-1.125.475,5.222,5.222,0,0,1-1.7-.9,5.1,5.1,0,0,1-.6-1.449c0-.125.025-.2.15-.2.025,0,.575.15.65.175a4.45,4.45,0,0,0,1.324.25,34.586,34.586,0,0,0,6.849-.925,9.49,9.49,0,0,1,1.375-.775c.6,0,2.124,1.275,2.124,1.9,0,.225-.925.9-1.075,1.074-.5.6-2.474,3.525-2.874,4.1a.822.822,0,0,0-.2.5c0,.225.05.275,1.1.85,1.124.65,5.6,3.174,5.6,5.449a1.079,1.079,0,0,1-1.025,1.1c-.574,0-.674-.175-1.549-1.724-1.724-3.024-3.924-4.924-4.474-4.924-.25,0-.325.075-.875.7a25.1,25.1,0,0,1-6.673,5.349,6.126,6.126,0,0,1-1.55.574c-.05,0-.175,0-.175-.15a7.775,7.775,0,0,1,1.15-.924c6.523-4.724,9.5-11.2,9.423-11.6A.281.281,0,0,0,696.806,1213.692Z" fill="#333"/>
    <path id="パス_351" data-name="パス 351" d="M715.085,1227.714c5.124-2.9,8.548-6.973,8.548-7.748s-2.974-2.674-3.6-2.674c-.575,0-3.6,3.274-4.424,3.274a.117.117,0,0,1-.125-.125,8.2,8.2,0,0,1,.9-1.075c2.974-3.224,5.024-6.748,5.024-8.173,0-.2-.4-1-.4-1.175,0-.15.325-.15.475-.15a2.23,2.23,0,0,1,2.249,1.475c0,.15-.275.825-.275.975,0,.375.525.425.85.425a15.3,15.3,0,0,0,3.749-.6,6,6,0,0,1,.925-.55c.25,0,2.05,1.125,2.05,1.925,0,.374-.176.449-.625.649-.375.175-.475.3-1.225,1.475-.35.55-2.05,2.924-2.35,3.424-.224.35-.275.425-.275.625,0,.225.025.275.476.85a3.493,3.493,0,0,1,1.049,2.2,1.076,1.076,0,0,1-1.074,1.2c-.525,0-.625-.175-1.575-1.775-.05-.1-.325-.574-.575-.574-.225,0-.375.174-.875.7a21.583,21.583,0,0,1-9.222,6.024c-.051,0-.275,0-.225-.225C714.56,1227.989,714.611,1227.989,715.085,1227.714Zm12.722-13.846c0-.275-.25-.35-.425-.35-.374,0-2.574.325-3.024.325a2.3,2.3,0,0,1-.75-.1,1.679,1.679,0,0,0-.6-.1.392.392,0,0,0-.3.1,20.433,20.433,0,0,0-2.124,2.8c0,.35.225.425.85.675a27.92,27.92,0,0,1,2.749,1.274,1.409,1.409,0,0,0,.575.175C725.308,1218.566,727.807,1214.717,727.807,1213.868Z" fill="#333"/>
    <path id="パス_352" data-name="パス 352" d="M751.593,1216.142c.975.6,1.075.7,1.075.925,0,.15-.275.85-.3,1a24.134,24.134,0,0,0-.15,4.424c0,.675.025,2.025.075,3,.025.3.175,1.749.175,2.074,0,.25,0,1.1-.6,1.1-.7,0-1.55-1.075-1.55-1.75,0-.25.25-1.349.275-1.6.151-1.35.25-3.275.25-4.6,0-.9,0-3.524-.65-3.524-.124,0-.224.1-.425.3a27.446,27.446,0,0,1-7.1,4.773c-.075,0-.125-.05-.125-.149a.225.225,0,0,1,.075-.175c.65-.575,1.35-1.15,1.75-1.5,5.9-5.049,7.848-9.3,7.848-10a1.414,1.414,0,0,0-.2-.7,2.765,2.765,0,0,1-.175-.4.246.246,0,0,1,.25-.2c.375,0,2.9,1.049,2.9,2a.628.628,0,0,1-.225.5,7.166,7.166,0,0,0-1.7,2.049c-.425.6-1.225,1.5-1.7,2.1A.4.4,0,0,0,751.593,1216.142Z" fill="#333"/>
    <path id="パス_353" data-name="パス 353" d="M772.715,1219.966c-1.5,3.249-4.124,4.749-4.624,4.749a.117.117,0,0,1-.125-.125,7.038,7.038,0,0,1,1-1.325c2.749-3.774,3.024-6.5,3.024-7.323a5.475,5.475,0,0,0-.425-2.149,1.855,1.855,0,0,1-.1-.45c0-.075.025-.125.125-.125.175,0,2.824.849,2.824,2.124C774.414,1215.417,773.14,1219.016,772.715,1219.966Zm4.049,2.324c0-.125.125-.774.149-.9.076-.475.1-2.45.1-3.075a15.316,15.316,0,0,0-.475-4.7,6.5,6.5,0,0,1-.325-.9c0-.1.1-.125.15-.125.125,0,2.749.45,2.749,1.749,0,.3-.35,1.6-.4,1.875-.1.675-.2,3.7-.2,4.524,0,.325.025.825.475.825.75,0,3.049-1.65,5.449-4.074.425-.425,2.549-2.675,2.649-2.675a.107.107,0,0,1,.1.1c0,.2-1.449,3.3-5.823,7.149a13.827,13.827,0,0,0-1.725,1.6c-.425.475-.65.65-.825.675C778.088,1224.465,776.764,1222.99,776.764,1222.29Z" fill="#333"/>
    <path id="パス_354" data-name="パス 354" d="M803.392,1211.893c1.175,0,1.3,0,1.6-.425.4-.575.425-.625.625-.625a3.464,3.464,0,0,1,1.824,1.425c0,.275-.15.275-1.349.275h-4.45c-2.174,0-2.9.05-3.148.075-.076,0-.451.05-.525.05-.1,0-.15-.05-.225-.15l-.475-.575c-.1-.125-.125-.125-.125-.175,0-.025.05-.05.1-.05.175,0,.949.075,1.1.075,1.224.05,2.249.1,3.423.1Zm-.875,3.049c.55,0,.7,0,1.025-.5.15-.25.375-.625.575-.625.25,0,1.5,1.15,1.5,1.475,0,.3-.325.3-.825.3h-3.774c-.5,0-1.025,0-1.625.05-.1,0-.524.05-.625.05s-.149-.075-.2-.15l-.425-.55c-.074-.1-.074-.125-.074-.175,0-.025.025-.05.074-.05.1,0,.575.075.675.075.5.05,1.65.1,2.125.1Zm-.149,3.024c.524,0,.6,0,.849-.325.425-.6.55-.8.7-.8.35,0,1.275,1.174,1.275,1.5,0,.3-.3.3-.825.3h-3.3c-.4,0-1.075,0-1.625.025a6.036,6.036,0,0,1-.625.075c-.074,0-.125-.05-.175-.15l-.424-.575c-.076-.1-.076-.125-.076-.149s0-.075.05-.075c.026,0,.575.1.7.1.675.05,1.375.075,2.125.075Zm-1.325,8.723c-.225,0-.8,0-.8.6,0,.125.05.775.05.925,0,.375,0,1.325-1.2,1.325-.675,0-.675-.4-.675-.575,0-.125.025-.65.05-.775.05-1.325.1-2.924.1-4.149,0-.625-.025-1.375-.074-2.2,0-.076-.051-.675-.051-.725,0-.1.025-.35.2-.35a5.011,5.011,0,0,1,1.5.55,1.832,1.832,0,0,0,.875.175h1.475a1.116,1.116,0,0,0,1.1-.525c.225-.325.325-.375.45-.375.3,0,1.4.725,1.4,1.049a.942.942,0,0,1-.2.45c-.275.3-.275.4-.275,1.275,0,.45.175,2.6.175,3.1a1.2,1.2,0,0,1-1.325,1.275c-.3,0-.3,0-.475-.675-.1-.375-.5-.375-.775-.375Zm1.175-18.07c.6,0,.7,0,.974-.425.1-.15.325-.5.575-.5a2.924,2.924,0,0,1,1.525,1.3c0,.3-.35.3-.825.3h-3.049c-.5,0-1,0-1.625.025-.1,0-.525.075-.625.075-.075,0-.15-.1-.2-.151l-.4-.574a.211.211,0,0,1-.074-.125c0-.075.049-.1.125-.1a6.326,6.326,0,0,1,.674.1c1.225.075,1.575.075,2.075.075Zm-1.3,13.546c-.8,0-.8.25-.8,1.4,0,2.35,0,2.449.825,2.449h1.624c.8,0,.8-.2.8-2.174,0-1.5,0-1.675-.8-1.675Zm3.574,7.624c6.973-2,11.047-5.674,12.1-7.024.15-.2.7-1.224.925-1.224.1,0,2.274,1.274,2.274,1.674,0,.2-.1.25-.9.55a18.22,18.22,0,0,0-2.325,1.525,29.332,29.332,0,0,1-8.473,4.124,23.253,23.253,0,0,1-3.6.549.268.268,0,0,1-.15-.049C804.342,1229.889,804.367,1229.814,804.492,1229.789Zm8.548-20.645c0,.2.075.4.45,1.024a15.233,15.233,0,0,0,6.073,6,12.831,12.831,0,0,1,1.275.725c0,.05-.225.075-.3.075a4.3,4.3,0,0,0-1.25.2,7.873,7.873,0,0,1-1.2.625c-.275,0-1.575-1.375-1.85-1.675a14.652,14.652,0,0,1-3.424-5.374c-.225-.65-.225-.725-.425-.725a.277.277,0,0,0-.225.175c-.55.825-1.35,2.175-1.875,3-2.974,4.6-5.1,5.848-5.1,5.6a.305.305,0,0,1,.1-.225c2.049-2.324,5.049-7.848,5.324-10.422.1-.9.1-.925.3-.925.175,0,.325.05,1.25.525,1,.5,1.1.575,1.125.75C813.315,1208.594,813.04,1209.019,813.04,1209.144Zm-5.349,11.572c2.874-3,3.774-4.949,3.824-5.549.075-.65.075-.725.25-.725.1,0,1.4.675,1.65.8.65.35.725.375.725.575s-.125.25-.575.5c-.175.1-2.65,2.674-3.175,3.149a15.881,15.881,0,0,1-3.1,2.4,6.49,6.49,0,0,1-1.125.524c-.025,0-.074,0-.074-.05C806.067,1222.316,807.491,1220.941,807.691,1220.716Zm2.1,2.949c2.15-1.8,4.075-3.549,4.475-5.049.125-.425.125-.45.3-.45.2,0,2.1,1.075,2.1,1.425,0,.2-.2.325-.7.6-.45.25-2.175,1.75-2.524,2.024a17.6,17.6,0,0,1-6.074,3.4c-.125.024-.2,0-.2-.025C807.116,1225.515,809.39,1223.99,809.79,1223.665Z" fill="#333"/>
    <path id="パス_355" data-name="パス 355" d="M845.37,1216.692c-.6,0-.85.1-.9.775-.325,4.623-.45,6.123-1.375,8.723-.649,1.8-2.049,3.524-2.374,3.524-.1,0-.125-.05-.125-.075,0-.1.325-.575.325-.7,0-.2-.1-.2-.925-.2h-6.573c-.625,0-.65.075-.875.65a1.265,1.265,0,0,1-1.25.824c-.225,0-.35-.125-.35-.5,0-1.875.125-11.148.125-13.247,0-1.75-.025-6.274-.225-7.7a8.429,8.429,0,0,1-.225-.85c0-.1.1-.1.2-.1.75,0,2.275.675,2.275,1.1a3.49,3.49,0,0,1-.35.574,20.733,20.733,0,0,0-.1,2.6c0,1.8.05,10.722.05,12.747,0,.05,0,.225.1.225.375,0,3.1-6.674,3.1-8.1a.361.361,0,0,0-.375-.4c-.25,0-1.624.125-1.849.125-.1,0-.125-.05-.225-.175l-.475-.575c-.125-.125-.125-.125-.125-.15,0-.05.075-.075.1-.075.425,0,2.474.175,2.949.175.5,0,.65-.25.675-.6,0-.175.025-2.149.025-2.474a39.964,39.964,0,0,0-.175-4.549c-.025-.175-.35-.9-.35-.95s.05-.05.1-.05c.025,0,1.425.25,1.775.35.375.1.974.25.974.55,0,.125-.6.525-.7.65-.076.075-.076.125-.076.475,0,.824-.125,4.9-.125,5.848,0,.5.125.75.7.75a1.016,1.016,0,0,0,.824-.25c.125-.1.625-.775.8-.775.275,0,1.45,1.275,1.45,1.35,0,.35-.475.35-1.325.35h-1.624c-.5,0-.775.15-.775.9,0,.5.174.65.674,1.049,1.625,1.25,2.25,1.725,2.25,2.6a1.18,1.18,0,0,1-1,1.125c-.4,0-.45-.125-.75-1.325-.2-.75-.625-1.775-.95-1.775-.175,0-.175.325-.175.4,0,.3.125,5.7.125,6.649,0,.974-1.049,1.149-1.374,1.149-.375,0-.425-.275-.425-.575,0-.875.075-5.124.075-6.1,0-.05,0-.275-.125-.275-.05,0-.1.025-.175.2a15.024,15.024,0,0,1-3.074,4.849c-.45.524-.45.574-.45,1.8,0,.475.05.85.8.85h3.6c1.049,0,1.375,0,1.6-.425.424-.725.474-.825.7-.825.325,0,1.475,1.25,1.825,1.25.15,0,.225-.1.3-.275,1.124-2.524,1.4-5.7,1.4-9.348,0-.674-.05-6.523-.1-7.123-.05-.625-.224-1.975-.224-2.074,0-.075.024-.1.125-.1.274,0,1.474.5,1.749.5a18.93,18.93,0,0,0,4.724-1.875c.15-.075.725-.55.9-.55,0,0,2.149,1.125,2.149,1.575,0,.175-.05.175-.925.3-.8.124-4.824.7-5.748.8-.775.074-.875.1-.975.374-.05.175-.1,3.625-.1,4.124,0,1.35,0,1.625.875,1.625h3.649a3.084,3.084,0,0,0,1.225-.1c.225-.1.875-1.325,1.149-1.325.3,0,1.2,1.55,1.2,1.75,0,.15-.15.225-.25.275a5.082,5.082,0,0,1-1.25.05h-1.449c-.4,0-.75,0-.85.55-.05.225-.05,6.448-.05,7.048,0,1.4.125,2.974.175,3.6a6.153,6.153,0,0,1,.05.7,1.3,1.3,0,0,1-1.375,1.525c-.425,0-.624-.125-.624-.725,0-.075.074-.95.074-1.05.025-.4.125-4.849.125-5.424,0-.775-.025-4.649-.025-5.448,0-.675-.3-.775-.875-.775Zm-9.923-3.449a1.017,1.017,0,0,1-1.025,1.149c-.5,0-.524-.175-.774-1.7a11.36,11.36,0,0,0-.35-1.625c-.025-.1-.175-.45-.175-.525s.05-.05.1-.025C833.973,1210.943,835.447,1212.218,835.447,1213.243Zm4.624-2.825c.25,0,1.674.975,1.674,1.35,0,.15,0,.175-.549.4a11.6,11.6,0,0,0-1.55,1.774,6.922,6.922,0,0,1-1.049.9c-.025,0,.949-2.424,1.049-2.9.05-.225.15-1.15.2-1.325C839.9,1210.493,839.946,1210.418,840.071,1210.418Z" fill="#333"/>
  </g>
</svg>
