<svg id="nav_garelly" xmlns="http://www.w3.org/2000/svg" width="342.021" height="58.632" viewBox="0 0 342.021 58.632">
  <rect id="長方形_11" data-name="長方形 11" width="342.021" height="58.632" fill="#a61527" opacity="0"/>
  <g id="グループ_77" data-name="グループ 77" transform="translate(-614.652 -1319.222)">
    <path id="パス_356" data-name="パス 356" d="M626.349,1369.822c-2.509,0-4.251-2.054-4.251-4.98s1.729-4.992,4.251-4.992c2.5,0,4.238,2.054,4.238,4.992C630.587,1367.754,628.858,1369.822,626.349,1369.822Zm3-5.1c0-1.2-.338-4.447-3-4.447-2.912,0-3.016,3.823-3.016,4.68,0,1.248.377,4.434,3.016,4.434C629.248,1369.393,629.352,1365.609,629.352,1364.726Z" fill="#333"/>
    <path id="パス_357" data-name="パス 357" d="M641.359,1360.006c0,.013.845,2.054.845,2.2a.244.244,0,0,1-.247.233c-.117,0-.143-.039-.416-.416a3.452,3.452,0,0,0-2.808-1.742c-2.041,0-3.094,2.5-3.094,4.745,0,3.016,1.768,4.2,3.315,4.2a3.184,3.184,0,0,0,2.808-1.847c.3-.506.3-.52.4-.52a.2.2,0,0,1,.2.208,4.275,4.275,0,0,1-.741,1.313,3.79,3.79,0,0,1-3.055,1.444c-2.743,0-4.082-2.223-4.082-4.772,0-3.042,1.885-5.2,4.082-5.2a4.509,4.509,0,0,1,1.1.156,6.319,6.319,0,0,0,.78.208.536.536,0,0,0,.351-.13c.208-.208.234-.234.338-.234A.3.3,0,0,1,641.359,1360.006Z" fill="#333"/>
    <path id="パス_358" data-name="パス 358" d="M652.007,1364.518c.351,0,.351-.079.351-1.794,0-1.886,0-2.211-1.209-2.211-.1,0-.338,0-.338-.221,0-.195.234-.195.351-.195h3.315c.091,0,.338,0,.338.208s-.169.221-.571.221a.827.827,0,0,0-.794.481c-.1.273-.117.312-.117,5.018a20.784,20.784,0,0,0,.1,2.639c.182.5.715.5.962.5.2,0,.416,0,.416.208s-.247.208-.338.208h-3.315c-.13,0-.351,0-.351-.195s.234-.208.377-.208a1.269,1.269,0,0,0,.91-.26c.26-.26.26-.273.26-2.652,0-1.21,0-1.313-.351-1.313h-3.5a.347.347,0,0,0-.3.155c-.052.144-.052,1.431-.052,1.678,0,2.132,0,2.392,1.222,2.392.091,0,.325,0,.325.221,0,.182-.234.182-.351.182H646.04c-.078,0-.338,0-.338-.208s.169-.208.572-.208a.826.826,0,0,0,.845-.663c.052-.312.052-3.472.052-5.136a18.616,18.616,0,0,0-.091-2.34c-.169-.494-.715-.494-.962-.494-.2,0-.416,0-.416-.221s.247-.208.338-.208h3.315c.13,0,.351,0,.351.195,0,.221-.221.221-.377.221-1.17,0-1.17.39-1.17,2.054,0,.234,0,1.664.052,1.782a.314.314,0,0,0,.3.169Z" fill="#333"/>
    <path id="パス_359" data-name="パス 359" d="M665.086,1369.575c-.143,0-.312-.039-.312-.208,0-.208.208-.208.52-.208a.572.572,0,0,0,.534-.573,7.076,7.076,0,0,0-.481-1.521c-.287-.728-.326-.818-.754-.818h-2.822c-.481,0-.533.129-.741.714a10.355,10.355,0,0,0-.468,1.691c0,.507.416.507.728.507.156,0,.3.026.3.208,0,.208-.2.208-.3.208h-2.5c-.1,0-.273-.014-.273-.195,0-.221.143-.221.442-.221a1.093,1.093,0,0,0,.988-.52,38.562,38.562,0,0,0,1.547-4.382c.169-.52,1-3.068,1.17-3.653.13-.455.208-.754,1.131-.754a.3.3,0,0,1,.286.208,8.588,8.588,0,0,1,.43,1.17c.91,2.821.987,3.133,1.807,5.539.74,2.21.832,2.392,1.572,2.392.169,0,.3.078.3.221,0,.195-.208.195-.3.195Zm-.611-3.758c.144,0,.326-.065.326-.208,0-.273-1.236-3.887-1.47-4.589-.078-.221-.1-.338-.194-.338s-.092.039-.235.468c-.364,1.054-1.378,4.355-1.378,4.473,0,.194.2.194.365.194Z" fill="#333"/>
    <path id="パス_360" data-name="パス 360" d="M686.666,1365.505c.1,0,.3,0,.3.208a.2.2,0,0,1-.221.208.73.73,0,0,0-.65.365c-.156.247-.169.467-.169,2.47,0,.429-.052.429-.546.429a2.376,2.376,0,0,0-.78.233,4.185,4.185,0,0,1-1.755.4c-2.587,0-4.03-2.119-4.03-4.914,0-2.939,1.612-5.058,3.861-5.058a4.056,4.056,0,0,1,1.248.234,2.319,2.319,0,0,0,.611.13.437.437,0,0,0,.3-.13c.208-.182.247-.234.364-.234.2,0,.221.091.481.871.078.221.533,1.56.533,1.625a.228.228,0,0,1-.234.221c-.1,0-.13-.039-.338-.4a3.639,3.639,0,0,0-2.912-1.885c-1.755,0-2.743,2.314-2.743,4.576,0,2.393,1.092,4.551,2.977,4.551a2.061,2.061,0,0,0,1.482-.6,1.875,1.875,0,0,0,.494-1.56c0-1.223-.377-1.313-1.352-1.313-.078,0-.273,0-.273-.222s.2-.208.351-.208Z" fill="#333"/>
    <path id="パス_361" data-name="パス 361" d="M696.566,1369.575c-.143,0-.312-.039-.312-.208,0-.208.208-.208.52-.208a.571.571,0,0,0,.533-.573,7.076,7.076,0,0,0-.481-1.521c-.286-.728-.325-.818-.754-.818H693.25c-.481,0-.532.129-.74.714a10.265,10.265,0,0,0-.469,1.691c0,.507.416.507.728.507.157,0,.3.026.3.208,0,.208-.2.208-.3.208h-2.5c-.1,0-.273-.014-.273-.195,0-.221.143-.221.442-.221a1.1,1.1,0,0,0,.989-.52,38.577,38.577,0,0,0,1.546-4.382c.169-.52,1-3.068,1.171-3.653.13-.455.208-.754,1.131-.754a.3.3,0,0,1,.286.208,8.584,8.584,0,0,1,.429,1.17c.91,2.821.988,3.133,1.807,5.539.741,2.21.832,2.392,1.573,2.392.169,0,.3.078.3.221,0,.195-.208.195-.3.195Zm-.612-3.758c.144,0,.326-.065.326-.208,0-.273-1.235-3.887-1.47-4.589-.077-.221-.1-.338-.194-.338s-.091.039-.234.468c-.365,1.054-1.378,4.355-1.378,4.473,0,.194.195.194.364.194Z" fill="#333"/>
    <path id="パス_362" data-name="パス 362" d="M707.214,1360.1c.624,0,3.588.066,3.588,2.249a2.534,2.534,0,0,1-1.729,2.276c-.455.22-.507.247-.507.39a23.087,23.087,0,0,0,1.352,3.107,1.618,1.618,0,0,0,1.534,1.04c.13,0,.39,0,.39.208,0,.182-.26.208-.326.208h-1.625a.636.636,0,0,1-.61-.377c-.078-.13-1-2.145-1.144-2.471-.715-1.572-.807-1.78-1.262-1.78h-.714c-.091,0-.261.051-.3.155-.053.13-.053,1.847-.053,2.146,0,1.573,0,1.911,1.2,1.911.091,0,.273,0,.273.208s-.235.208-.377.208H703.69c-.13,0-.324-.026-.324-.208,0-.208.181-.208.363-.208.9,0,1.027-.416,1.066-.9.027-.442.027-4.017.027-4.629a20.894,20.894,0,0,0-.1-2.626c-.17-.481-.728-.481-1.028-.481-.078,0-.351,0-.351-.234,0-.195.235-.195.39-.195Zm-.469.429c-.936,0-.936.585-.936,1.925,0,2.041,0,2.08.352,2.08h1.053a2.1,2.1,0,0,0,2.353-2.054c0-.911-.494-1.951-2.184-1.951Z" fill="#333"/>
    <path id="パス_363" data-name="パス 363" d="M719.812,1369.159a3.38,3.38,0,0,0,3.107-1.613c.325-.507.351-.558.455-.558a.207.207,0,0,1,.221.208c0,.065-.468,1.3-.546,1.495-.325.845-.338.884-1.183.884h-6.123c-.221,0-.4,0-.4-.208s.13-.208.494-.208a.862.862,0,0,0,.988-.676c.039-.221.052-3.212.052-3.589,0-.52,0-3.471-.039-3.705-.13-.663-.689-.663-1.209-.663-.091,0-.286,0-.286-.208s.182-.221.4-.221h5.928c.806,0,.871.026,1.131.663.078.182.559,1.378.559,1.469a.2.2,0,0,1-.208.195c-.078,0-.1-.026-.4-.442a3.165,3.165,0,0,0-2.5-1.456h-1.443a.9.9,0,0,0-.78.338c-.156.234-.156.351-.156,1.379,0,.169,0,1.937.039,2.041a.362.362,0,0,0,.312.169h1.144c1.469,0,1.469-.885,1.469-1.456,0-.04,0-.261.208-.261s.208.221.208.325c-.013.481,0,2.809,0,3.329,0,.065,0,.273-.208.273s-.208-.169-.208-.43c0-1.1-.741-1.364-1.469-1.364h-1.144a.312.312,0,0,0-.338.3c-.013.1-.013,2.249-.013,2.445,0,.909,0,1.547.936,1.547Z" fill="#333"/>
    <path id="パス_364" data-name="パス 364" d="M730.6,1369.159a3.84,3.84,0,0,0,3.276-1.768c.247-.364.273-.4.365-.4a.182.182,0,0,1,.194.195c0,.078-.494,1.352-.571,1.56-.326.818-.378.832-1.223.832H727.2c-.2,0-.377,0-.377-.208s.143-.208.468-.208a.862.862,0,0,0,.988-.676c.039-.221.039-3.212.039-3.589,0-.52,0-3.471-.039-3.705-.117-.663-.689-.663-1.17-.663-.091,0-.286,0-.286-.208s.182-.221.377-.221h3.224c.208,0,.39,0,.39.221s-.143.208-.468.208a.87.87,0,0,0-.988.663c-.039.234-.039,3-.039,3.615a34.516,34.516,0,0,0,.039,3.679.832.832,0,0,0,.9.676Z" fill="#333"/>
    <path id="パス_365" data-name="パス 365" d="M741.433,1369.159a3.84,3.84,0,0,0,3.277-1.768c.247-.364.273-.4.364-.4a.182.182,0,0,1,.2.195c0,.078-.494,1.352-.572,1.56-.326.818-.377.832-1.223.832h-5.447c-.2,0-.377,0-.377-.208s.143-.208.469-.208a.861.861,0,0,0,.987-.676c.039-.221.039-3.212.039-3.589,0-.52,0-3.471-.039-3.705-.116-.663-.689-.663-1.17-.663-.09,0-.286,0-.286-.208s.182-.221.377-.221h3.224c.208,0,.39,0,.39.221s-.143.208-.467.208a.872.872,0,0,0-.989.663c-.039.234-.039,3-.039,3.615a34.516,34.516,0,0,0,.039,3.679.832.832,0,0,0,.9.676Z" fill="#333"/>
    <path id="パス_366" data-name="パス 366" d="M756.272,1360.1a.219.219,0,0,1,.221.221c0,.208-.2.208-.312.208a1.775,1.775,0,0,0-1.469.923c-.585,1.014-1.976,3.406-2.184,3.94-.13.312-.13.416-.13,1.43,0,1.573.013,1.755.143,1.963.221.338.558.377.988.377s.559,0,.559.208-.2.208-.351.208h-3.705c-.157,0-.351,0-.351-.208s.208-.208.272-.208c1.262,0,1.417-.13,1.417-1.431,0-1.819.014-2.015-.337-2.651-.183-.338-1.158-2.055-1.352-2.392-.819-1.47-1.184-2.12-1.963-2.159-.157,0-.339-.013-.339-.208,0-.221.2-.221.339-.221h3.068c.156,0,.351,0,.351.221s-.208.208-.273.208c-.4,0-.832,0-.832.469,0,.22.039.3.429.987.234.43,1.286,2.288,1.494,2.665.053.1.143.273.235.273s.181-.194.234-.286c.286-.507,1.729-2.99,1.833-3.276a1.294,1.294,0,0,0,.065-.351c0-.481-.637-.481-.858-.481-.338,0-.481,0-.481-.208s.2-.221.338-.221Z" fill="#333"/>
    <path id="パス_367" data-name="パス 367" d="M633.681,1334.578c0,.825-1.9,1.575-2.5,1.825-.35.125-.375.225-.425,1.1-.05.549-.05,2.574-.05,2.7,0,.15,0,.45.225.45.075,0,2.124-.85,2.524-1a11.748,11.748,0,0,1,4.249-1,3.827,3.827,0,0,1,3.849,3.774c0,3.3-3.474,4.8-5.523,4.8-1.425,0-2.575-.725-2.575-2.024a2.228,2.228,0,0,1,1.25-1.975.134.134,0,0,1,.125.125c0,.075-.05.125-.1.2a1.034,1.034,0,0,0-.225.675c0,1.2,1.375,1.2,1.624,1.2,1.65,0,3.75-1.1,3.75-3.1a2.59,2.59,0,0,0-2.4-2.749c-.7,0-2.249.325-5.173,1.874-1.4.75-1.55.825-1.55,1.25,0,.275.075,1.4.075,1.65,0,1.15-.375,2.8-1.275,2.8-.675,0-.95-.525-1.149-.925-.8-1.549-.925-1.549-1.25-1.549a2.075,2.075,0,0,0-.625.15,4.943,4.943,0,0,1-.95.5c-.275,0-1.549-.75-1.549-1.575,0-.45.274-.975.724-.975.15,0,.875.125,1.025.125a5.338,5.338,0,0,0,2.6-.85c1.275-.624,1.425-.7,1.425-1.4,0-.575-.025-2.7-.05-3.125,0-.174-.075-.549-.35-.549a5.938,5.938,0,0,0-1.15.224,5.324,5.324,0,0,1-1.774.475c-.85,0-1.8-1.724-1.8-1.9a.177.177,0,0,1,.2-.175c.075,0,.375.1.45.1a7.27,7.27,0,0,0,1.15.125,10.911,10.911,0,0,0,3.174-.75,18.682,18.682,0,0,0,.25-2.724,2.455,2.455,0,0,0-.825-2,2.5,2.5,0,0,1-.35-.4c0-.225.4-.275.55-.275a2.5,2.5,0,0,1,2.574,1.7,9.929,9.929,0,0,1-.525,1.3,13.57,13.57,0,0,0-.249,1.624c0,.1.05.275.2.275.174,0,.875-.275.875-.625,0-.05-.125-.3-.125-.35,0-.025.049-.075.1-.1C632.481,1333.453,633.681,1333.8,633.681,1334.578Zm-5.7,9.573c0,.375.675,1.175,1.05,1.175.35,0,.7-.7.7-1.925,0-.1,0-.35-.075-.4C629.582,1343,627.982,1343.8,627.982,1344.151Zm16.422-7.773c0,.525-.3,1.2-.826,1.2-.149,0-.724-.05-.849-.05-.125.026-.65.175-.75.175a.117.117,0,0,1-.125-.125,1.625,1.625,0,0,1,.075-.2,1.316,1.316,0,0,0,.1-.45c0-1-1.25-1.35-2.1-1.35a2.17,2.17,0,0,0-.975.25.558.558,0,0,1-.25.075c-.075,0-.1-.025-.1-.1a3.2,3.2,0,0,1,2.7-1.575C643.229,1334.228,644.4,1335.228,644.4,1336.378Z" fill="#333"/>
    <path id="パス_368" data-name="パス 368" d="M670.182,1336.853a22.059,22.059,0,0,0,6.049,1.974c.1,0,.525.075.525.175,0,.075-.35.175-.45.2a4.328,4.328,0,0,0-1.9,1.35c-.075.1-.349.625-.474.625-.15,0-5.574-2.625-8.023-6.624-.476-.8-.55-.875-.726-.875s-.225.05-.774.625a29.726,29.726,0,0,1-7.4,5.824,21.617,21.617,0,0,1-3.925,1.6c-.074,0-.125-.05-.125-.075s2.675-1.674,2.9-1.824c3.374-2.125,6.948-5.949,7.3-7.823.025-.2.05-.275.225-.275.125,0,2.15.775,2.275.85.074.025.324.125.324.375a1.561,1.561,0,0,1-.1.35C665.933,1333.678,668.083,1335.778,670.182,1336.853Zm-12.047-6.224c-1.849,0-2.7.05-3.174.075-.075,0-.45.05-.525.05s-.125-.05-.225-.15l-.475-.575c-.1-.125-.1-.125-.1-.175s.024-.05.074-.05c.175,0,.95.075,1.1.075,1.225.05,2.274.1,3.449.1h.725c.525,0,.675-.25.675-.674a4.06,4.06,0,0,0-.2-1.325,3.788,3.788,0,0,1-.15-.5c0-.125.125-.175.275-.175.175,0,1.3.275,1.575.35.75.2.9.25.9.475,0,.15-.024.2-.375.65a.613.613,0,0,0-.174.45c0,.6.2.749.874.749h4.124c.225,0,.75,0,.75-.674a10.383,10.383,0,0,0-.075-1.125c-.025-.125-.15-.65-.15-.75,0-.125.15-.175.275-.175.175,0,1.874.4,2.149.475s.425.175.425.4c0,.15-.1.25-.374.45a.8.8,0,0,0-.326.7c0,.7.4.7.8.7h1.275c1.1,0,1.225,0,1.6-.424.7-.825.775-.925,1-.925.15,0,2.325,1.324,2.325,1.649,0,.35-.5.35-1.325.35h-4.874c-.775,0-.775.4-.775,1,0,.15.026,1,.026,1.125,0,.924-.75,1.074-1.275,1.074-.575,0-.675-.1-.675-.95v-1.724c-.075-.475-.375-.525-.775-.525h-4c-.575,0-.925,0-.925.7,0,.25.076,1.35.076,1.575,0,.474-.076.7-.3.849a1.779,1.779,0,0,1-.95.35c-.425,0-.625-.275-.625-.775,0-.2.025-1.149.025-1.324,0-.975,0-1.375-.775-1.375Zm1.775,12.772a12.785,12.785,0,0,1,1.924,1.175.621.621,0,0,1,.2.375c0,.3-.2.35-.8.5-.075.025-2.225,1.7-2.625,2a15.344,15.344,0,0,1-3.8,2.175.08.08,0,0,1-.075-.075c0-.05,1.325-1.2,1.5-1.375a14.42,14.42,0,0,0,3.574-4.749A.15.15,0,0,1,659.91,1343.4Zm1.149-1.325c-1.949,0-2.674.025-3.174.075-.075,0-.45.05-.524.05s-.125-.05-.225-.15l-.475-.574c-.1-.125-.1-.125-.1-.175,0-.026.025-.05.075-.05.174,0,.949.074,1.1.074,1.225.075,2.275.1,3.449.1h1.875c.25,0,.75,0,.75-.675,0-.3-.15-2.325-.2-2.575,0-.05-.15-.3-.15-.35s.05-.15.25-.15c.175,0,1.925.375,2.174.45.35.075.475.3.475.425,0,.15-.05.2-.425.525-.35.3-.35.45-.35,1.2,0,.9,0,1.15.75,1.15h1.1c1.1,0,1.225,0,1.6-.425.7-.825.774-.925,1-.925.149,0,2.324,1.35,2.324,1.649,0,.35-.5.35-1.325.35h-4.724c-.75,0-.75.45-.75,1.25,0,1.775,0,2.774.05,4.249.026.425.026,1.025.026,1.325,0,.8-.2,1.274-1.275,1.274-.55,0-.6-.45-.6-.874,0-.325.075-1.825.075-2.15.025-.95.025-1.875.025-3.024a15.151,15.151,0,0,0-.05-1.7c-.125-.35-.525-.35-.725-.35Zm6.674,2.1c0-.075.125-.1.225-.1.925,0,6.623,1.574,6.623,3.649,0,.8-.45,1.425-1.074,1.425-.475,0-.575-.125-1.35-1.275a11.872,11.872,0,0,0-4.3-3.6C667.833,1344.276,667.733,1344.2,667.733,1344.176Z" fill="#333"/>
    <path id="パス_369" data-name="パス 369" d="M699.2,1347.625c0,.475-.175.95-.55.95-1.1,0-1.5-2.175-1.7-3.224-.125-.625-.675-3.35-.8-3.924-.075-.45-.2-.775-.65-.775-.1,0-3.074.7-4.3,1.1a13.427,13.427,0,0,1-1.524.649c-.375,0-2.875-1.1-2.875-1.849,0-.2.175-.25.3-.25.225,0,1.275.1,1.5.1a28.441,28.441,0,0,0,6.073-.85c.65-.125.8-.225.8-.65a13.922,13.922,0,0,0-.525-2.5c-.175-.625-.275-.875-.649-.875a32.407,32.407,0,0,0-3.474.95c-.576,0-2.275-.9-2.275-1.35,0-.175.3-.175.525-.175a23.185,23.185,0,0,0,3.849-.425c.875-.2,1.25-.35,1.25-.825,0-.1-.3-2.474-1.4-3.424a10.208,10.208,0,0,1-1.15-.9c0-.149.75-.424,1.3-.424.5,0,2.249.549,2.324,1.049.05.35.1,1.8.15,2.1.225,1.624.5,1.624.85,1.624a15.266,15.266,0,0,0,2.174-.674c1.075-.475,1.2-.525,1.55-.525.8,0,1.475.525,1.475.924,0,.5-.475.6-2.3.95-2.024.4-2.249.475-2.524.55-.45.15-.475.35-.475.625a16.26,16.26,0,0,0,.45,2.249c.225.85.325,1.075.775,1.075a16.8,16.8,0,0,0,3.2-.95,5.107,5.107,0,0,1,2.474-.625c1.325,0,1.875.675,1.875,1.1,0,.75-1.025.775-1.925.775a26.423,26.423,0,0,0-4.5.725c-1.049.225-1.1.375-1.1.85C697.4,1341.427,699.2,1346.525,699.2,1347.625Zm6.349-14.546c0,.3-.3.949-.775.949-.35,0-.575-.225-1.25-1.2a6.908,6.908,0,0,0-1.65-1.625c-.074-.075-.324-.3-.324-.4,0-.125.225-.175.449-.175C703.794,1330.629,705.544,1331.954,705.544,1333.079Zm2.274-2.325c0,.275-.2.75-.65.75-.525,0-.849-.425-1.274-1a6.406,6.406,0,0,0-2.1-1.5c-.25-.125-.325-.224-.325-.3,0-.25.8-.25.95-.25C705.769,1328.455,707.818,1329.329,707.818,1330.754Z" fill="#333"/>
    <path id="パス_370" data-name="パス 370" d="M733.259,1338c0,.4-.349.525-.8.675a5.616,5.616,0,0,0-1.774,1.1,11.279,11.279,0,0,1-2.274,1.35.129.129,0,0,1-.125-.125c0-.275,2.174-2.6,2.174-3.225,0-.175-.175-.2-.275-.2-.125,0-3.124.725-3.474.8-.9.225-1,.25-1,.65a57.646,57.646,0,0,0,2.15,6.674,6.739,6.739,0,0,1,.7,2.3c0,.525-.25,1.05-.524,1.05a2.6,2.6,0,0,1-1.5-1.4c-.125-.4-1.475-6.223-1.825-7.373-.3-1-.349-1.125-.7-1.125a15.023,15.023,0,0,0-2.825.8c-1.025.425-1.125.475-1.275.475-.25,0-.375-.075-1.474-.825a1,1,0,0,1-.5-.9c0-.15.025-.625.225-.625.075,0,.45.15.55.175a3.954,3.954,0,0,0,1.324.2,18.66,18.66,0,0,0,3.5-.45.454.454,0,0,0,.351-.4,4.848,4.848,0,0,0-1.225-2.8c-.1-.075-.5-.325-.575-.375a.191.191,0,0,1-.05-.125c0-.4,1.025-.4,1.249-.4,1.025,0,1.85.2,1.85,1,0,1.225,0,2.575.575,2.575a24.362,24.362,0,0,0,3.7-.775,12.638,12.638,0,0,1,1.475-.65C731.61,1336.053,733.259,1337.353,733.259,1338Z" fill="#333"/>
    <path id="パス_371" data-name="パス 371" d="M749.172,1347.375c7.8-4.2,9.847-9.6,9.847-10.122,0-.3-.174-.475-.525-.475-.849,0-7.123,1.1-8.222,1.424a10.705,10.705,0,0,1-1.15.425c-1.075,0-2.849-2.149-2.849-2.849a.14.14,0,0,1,.15-.125,3.528,3.528,0,0,1,.449.2,7.023,7.023,0,0,0,2.475.425c2.049,0,7.023-.65,7.948-.75.05,0,1.7-.15,1.724-.15a4.291,4.291,0,0,1,.725-.275c.425,0,2.2,1.475,2.2,2.05,0,.374-.1.475-.675.949a7,7,0,0,0-1.35,1.775c-1.974,3-3.524,4.874-7.048,6.673a17.655,17.655,0,0,1-4.424,1.625.2.2,0,0,1-.225-.2.269.269,0,0,1,.05-.15C748.322,1347.775,749.022,1347.45,749.172,1347.375Zm.625-16.346a6.142,6.142,0,0,0,1.324.1,23.9,23.9,0,0,0,4-.275c.375-.075,2.1-.5,2.45-.5.425,0,1.525.225,1.525.95,0,.775-.875.85-2.325.975-.4.05-5.774.525-5.948.525-1.325,0-2.075-1.7-2.075-1.875,0-.125.05-.175.15-.175C749.047,1330.754,749.647,1331,749.8,1331.029Z" fill="#333"/>
    <path id="パス_372" data-name="パス 372" d="M776.537,1330.479c.6,0,1.975.875,1.975,1.3,0,.125-.05.7-.05.825,0,2.9.05,5.149.074,5.748.026.3.151,1.55.151,1.8,0,.65-.575,1.275-.95,1.275-.55,0-1.125-1.325-1.125-1.975,0-.2.125-1.05.125-1.25.05-1.124.05-2.1.05-2.549,0-2.8-.125-3.374-.9-4.274-.2-.225-.325-.375-.325-.575C775.562,1330.629,775.962,1330.479,776.537,1330.479Zm6.874-.7c-.3-.4-.326-.45-.326-.5,0-.075,0-.15.725-.15,1.5,0,2.75.625,2.75,1.275a9.729,9.729,0,0,1-.25,1c-.1.675-.125,4.424-.2,5.3a15.812,15.812,0,0,1-6.249,11.6,9.933,9.933,0,0,1-2.249,1.474c-.1,0-.15-.05-.15-.125,0-.1,1.624-1.7,1.925-2.024,4.823-5.149,5-9.5,5-14.5A4.785,4.785,0,0,0,783.411,1329.779Z" fill="#333"/>
    <path id="パス_373" data-name="パス 373" d="M817.244,1337.577c.15,0,.425-.024.55-.024,1.525,0,1.749.924,1.749,1.1,0,.7-1.024.775-2.074.775-.575,0-3.074-.05-3.574-.05-3.449,0-9.173.325-9.773.45-.3.05-1.649.45-1.949.45-1.075,0-2.225-1.55-2.225-2.4,0-.151.075-.3.2-.3s.725.275.85.3a13.7,13.7,0,0,0,3.049.224C804.872,1338.1,813.595,1337.777,817.244,1337.577Z" fill="#333"/>
  </g>
</svg>
