<svg id="nav_story_sp" xmlns="http://www.w3.org/2000/svg" width="745" height="90" viewBox="0 0 745 90">
  <rect id="長方形_14" data-name="長方形 14" width="745" height="90" fill="#ffc946" opacity="0"/>
  <g id="グループ_276" data-name="グループ 276" transform="translate(-1358.914 -1208.742)">
    <g id="グループ_273" data-name="グループ 273">
      <g id="グループ_272" data-name="グループ 272">
        <path id="パス_1299" data-name="パス 1299" d="M1690.692,1286.928c-.153-.4-1.1-2.874-1.1-3.006a.464.464,0,0,1,.482-.461c.241,0,.285.11.812.922a6.485,6.485,0,0,0,5.156,3.006,3.163,3.163,0,0,0,3.248-3.314c0-2-1.316-2.7-4.1-3.664-3.049-1.053-5.068-2.216-5.068-4.827a4.135,4.135,0,0,1,4.389-4.257,8.719,8.719,0,0,1,1.557.175c.242.044,1.163.242,1.317.242a.834.834,0,0,0,.483-.132c.307-.241.351-.285.5-.285.264,0,.33.2.549.768.154.351,1.185,2.94,1.185,3.072a.345.345,0,0,1-.373.351c-.175,0-.22-.066-.571-.636a5.085,5.085,0,0,0-4.475-2.831,2.806,2.806,0,0,0-2.985,2.9c0,1.821,1.317,2.48,4.192,3.489,4.431,1.536,5.023,3.291,5.023,4.981a4.652,4.652,0,0,1-4.761,4.74,7.062,7.062,0,0,1-2.37-.439,2.856,2.856,0,0,0-.877-.22,1.132,1.132,0,0,0-.834.286c-.373.329-.417.373-.637.373C1691.153,1288.157,1691.109,1288.025,1690.692,1286.928Z" fill="#333"/>
        <path id="パス_1300" data-name="パス 1300" d="M1717.485,1271.744c1.186,0,1.45,0,1.823.987.175.483,1.119,2.962,1.119,3.182a.338.338,0,0,1-.352.329c-.176,0-.241-.088-.746-.922-1.163-1.909-2.457-2.852-3.949-2.852-.856,0-1.383.351-1.514,1.1-.066.4-.066,5.354-.066,6.276,0,.614,0,5.682.066,6.055.2,1.119,1.229,1.141,1.821,1.141.812,0,.988,0,.988.352s-.308.351-.658.351h-6.145c-.307,0-.637,0-.637-.351s.352-.352.484-.352c1.294,0,2.106,0,2.325-1.141.066-.351.066-.373.066-6.209,0-5.42,0-6.012-.154-6.429a1.367,1.367,0,0,0-1.4-.79c-1.755,0-3.049,1.382-3.949,2.83-.527.856-.571.944-.768.944a.357.357,0,0,1-.352-.329c0-.176.989-2.809,1.163-3.248.351-.921.7-.921,1.8-.921Z" fill="#333"/>
        <path id="パス_1301" data-name="パス 1301" d="M1732.733,1288.157c-4.235,0-7.175-3.467-7.175-8.4s2.918-8.426,7.175-8.426c4.213,0,7.153,3.467,7.153,8.426C1739.886,1284.668,1736.968,1288.157,1732.733,1288.157Zm5.069-8.6c0-2.019-.571-7.5-5.069-7.5-4.916,0-5.09,6.451-5.09,7.9,0,2.107.635,7.482,5.09,7.482C1737.626,1287.432,1737.8,1281.047,1737.8,1279.555Z" fill="#333"/>
        <path id="パス_1302" data-name="パス 1302" d="M1750.739,1271.744c1.053,0,6.056.109,6.056,3.8,0,2.238-1.691,3.247-2.919,3.84-.768.373-.856.417-.856.658a38.918,38.918,0,0,0,2.283,5.244,2.732,2.732,0,0,0,2.589,1.755c.219,0,.658,0,.658.352,0,.307-.439.351-.549.351h-2.742a1.074,1.074,0,0,1-1.031-.637c-.132-.219-1.69-3.62-1.932-4.169-1.206-2.655-1.359-3.006-2.128-3.006h-1.206c-.154,0-.44.088-.506.263-.087.22-.087,3.116-.087,3.621,0,2.655,0,3.225,2.019,3.225.153,0,.461,0,.461.352s-.4.351-.637.351h-5.42c-.219,0-.549-.044-.549-.351,0-.352.308-.352.615-.352,1.514,0,1.734-.7,1.8-1.514.044-.746.044-6.779.044-7.811a35.352,35.352,0,0,0-.175-4.432c-.285-.812-1.229-.812-1.734-.812-.131,0-.592,0-.592-.4,0-.329.4-.329.658-.329Zm-.791.724c-1.579,0-1.579.987-1.579,3.247,0,3.445,0,3.511.593,3.511h1.777c2.151,0,3.971-1.185,3.971-3.467,0-1.536-.834-3.291-3.686-3.291Z" fill="#333"/>
        <path id="パス_1303" data-name="パス 1303" d="M1776.716,1271.744a.368.368,0,0,1,.373.373c0,.351-.329.351-.527.351a3,3,0,0,0-2.479,1.558c-.987,1.711-3.336,5.749-3.687,6.648-.219.527-.219.7-.219,2.414,0,2.655.022,2.962.242,3.313.373.571.943.636,1.668.636.745,0,.943,0,.943.352s-.33.351-.593.351h-6.253c-.263,0-.593,0-.593-.351s.351-.352.461-.352c2.129,0,2.392-.219,2.392-2.413,0-3.072.022-3.4-.57-4.476-.308-.571-1.953-3.467-2.283-4.038-1.382-2.479-2-3.576-3.313-3.642-.263,0-.57-.022-.57-.351,0-.373.328-.373.57-.373h5.178c.264,0,.593,0,.593.373,0,.351-.351.351-.461.351-.681,0-1.4,0-1.4.79,0,.373.065.5.723,1.668.4.723,2.173,3.861,2.524,4.5.088.175.242.46.4.46s.308-.329.4-.482c.482-.856,2.918-5.047,3.093-5.53a2.219,2.219,0,0,0,.11-.592c0-.812-1.075-.812-1.448-.812-.571,0-.812,0-.812-.351,0-.373.328-.373.57-.373Z" fill="#333"/>
      </g>
    </g>
    <g id="グループ_275" data-name="グループ 275">
      <g id="グループ_274" data-name="グループ 274">
        <path id="パス_1304" data-name="パス 1304" d="M1515.6,1223.393c2.05,0,2.507,0,3.153,1.709.3.836,1.937,5.13,1.937,5.51a.584.584,0,0,1-.608.57c-.3,0-.418-.152-1.291-1.6-2.014-3.306-4.256-4.94-6.84-4.94-1.481,0-2.392.609-2.621,1.9-.113.684-.113,9.271-.113,10.867,0,1.063,0,9.84.113,10.486.342,1.938,2.128,1.976,3.153,1.976,1.407,0,1.71,0,1.71.608s-.531.608-1.139.608h-10.639c-.532,0-1.1,0-1.1-.608s.609-.608.836-.608c2.242,0,3.648,0,4.028-1.976.114-.608.114-.646.114-10.752,0-9.385,0-10.411-.267-11.132a2.369,2.369,0,0,0-2.431-1.369c-3.04,0-5.282,2.394-6.839,4.9-.912,1.482-.988,1.634-1.33,1.634a.618.618,0,0,1-.608-.57c0-.3,1.709-4.864,2.014-5.623.607-1.6,1.216-1.6,3.115-1.6Z" fill="#333"/>
        <path id="パス_1305" data-name="パス 1305" d="M1536.385,1249.685c-.267-.684-1.9-4.977-1.9-5.205a.8.8,0,0,1,.836-.8c.418,0,.493.19,1.406,1.6a11.223,11.223,0,0,0,8.928,5.205,5.476,5.476,0,0,0,5.623-5.738c0-3.457-2.279-4.673-7.1-6.344-5.281-1.824-8.776-3.838-8.776-8.359a7.158,7.158,0,0,1,7.6-7.371,15,15,0,0,1,2.7.3c.418.076,2.014.418,2.28.418a1.445,1.445,0,0,0,.836-.228c.532-.418.608-.494.874-.494.456,0,.57.342.949,1.33.266.608,2.053,5.091,2.053,5.319a.6.6,0,0,1-.647.608c-.3,0-.38-.114-.988-1.1-1.026-1.634-3.077-4.9-7.75-4.9a4.86,4.86,0,0,0-5.168,5.015c0,3.154,2.28,4.293,7.258,6.041,7.673,2.659,8.7,5.7,8.7,8.625a8.055,8.055,0,0,1-8.245,8.206,12.213,12.213,0,0,1-4.1-.759,4.953,4.953,0,0,0-1.519-.38,1.964,1.964,0,0,0-1.444.494c-.646.57-.722.645-1.1.645C1537.183,1251.812,1537.106,1251.585,1536.385,1249.685Z" fill="#333"/>
        <path id="パス_1306" data-name="パス 1306" d="M1592.294,1223.393c.494,0,1.064,0,1.064.646,0,.607-.532.607-1.177.607-2.7,0-2.889,2.166-2.926,3.344-.038,1.9,0,11.322,0,13.45,0,2.7-.114,5.623-2.432,7.979a8.856,8.856,0,0,1-6.422,2.393c-1.632,0-9.422-.531-9.65-8.4-.037-2.128.039-12.463.039-14.78,0-2.926-.19-3.99-3.534-3.99-.228,0-.836,0-.836-.607,0-.646.57-.646,1.14-.646h9.308c.456,0,1.027,0,1.027.646,0,.607-.495.607-1.216.607a2.54,2.54,0,0,0-2.774,1.71c-.19.57-.19,7.789-.19,9.119,0,8.359,0,9.005.645,10.79a6.667,6.667,0,0,0,6.5,4.1,6.747,6.747,0,0,0,5.927-2.964c1.292-1.9,1.292-3.495,1.292-12.31,0-8.4-.076-8.587-.532-9.309a2.913,2.913,0,0,0-2.7-1.14c-.418,0-.76-.19-.76-.607,0-.646.57-.646.912-.646Z" fill="#333"/>
        <path id="パス_1307" data-name="パス 1307" d="M1608.367,1251.091c-.569,0-1.139,0-1.139-.608s.455-.608,1.406-.608c.493,0,2.431,0,3.039-1.71.3-.874.342-.912.342-10.98,0-9.575,0-9.613-.115-10.259-.456-2.28-2.546-2.28-3.837-2.28-.228,0-.835,0-.835-.607,0-.646.57-.646,1.139-.646h3.686c2.735,0,2.811.114,4.749,3.078,2.318,3.495,6.041,9.08,8.359,12.575.494.761,3.988,6.079,4.217,6.079.152,0,.266-.265.266-.759,0-1.064.039-7.295.039-8.625,0-1.368,0-8.093-.116-8.777-.455-2.318-2.392-2.318-3.646-2.318-.229,0-.8,0-.8-.607,0-.646.533-.646,1.065-.646h7.9c.418,0,.988,0,.988.646,0,.607-.531.607-1.14.607-3.153,0-3.153,1.71-3.153,6.27,0,2.849.037,16.907.037,20.061,0,.19,0,.835-.493.835a.667.667,0,0,1-.494-.3c-.228-.266-15.122-22.645-15.312-22.911-.683-1.1-.759-1.254-.95-1.254s-.3.3-.3.722c0,1.368-.039,7.979-.039,9.5s0,9.08.115,9.8c.455,2.508,2.545,2.508,4.179,2.508.3,0,.873,0,.873.608s-.494.608-1.215.608Z" fill="#333"/>
        <path id="パス_1308" data-name="パス 1308" d="M1666.079,1251.091c-.418,0-.912-.114-.912-.608,0-.608.607-.608,1.52-.608a1.668,1.668,0,0,0,1.557-1.672,20.545,20.545,0,0,0-1.405-4.445c-.836-2.128-.95-2.394-2.2-2.394h-8.245c-1.406,0-1.558.38-2.166,2.09a30.309,30.309,0,0,0-1.368,4.939c0,1.482,1.216,1.482,2.128,1.482.456,0,.874.076.874.608,0,.608-.57.608-.874.608h-7.3c-.3,0-.8-.038-.8-.57,0-.646.418-.646,1.291-.646a3.194,3.194,0,0,0,2.888-1.52c.873-1.178,3.686-10.107,4.521-12.8.494-1.52,2.926-8.967,3.42-10.677.38-1.329.608-2.2,3.305-2.2a.868.868,0,0,1,.836.608,25.063,25.063,0,0,1,1.254,3.419c2.659,8.245,2.887,9.157,5.281,16.186,2.165,6.459,2.432,6.991,4.6,6.991.494,0,.874.228.874.646,0,.57-.607.57-.874.57Zm-1.786-10.981c.418,0,.95-.19.95-.608,0-.8-3.609-11.36-4.294-13.412-.227-.645-.3-.988-.569-.988-.229,0-.267.115-.685,1.369-1.063,3.077-4.027,12.728-4.027,13.069,0,.57.569.57,1.063.57Z" fill="#333"/>
        <path id="パス_1309" data-name="パス 1309" d="M1710.317,1239.2c.3,0,.873,0,.873.608a.588.588,0,0,1-.645.607,2.123,2.123,0,0,0-1.9,1.064c-.457.722-.494,1.368-.494,7.219,0,1.254-.152,1.254-1.595,1.254a6.88,6.88,0,0,0-2.28.684,12.258,12.258,0,0,1-5.13,1.177c-7.561,0-11.778-6.193-11.778-14.361,0-8.587,4.711-14.78,11.284-14.78a11.855,11.855,0,0,1,3.648.684,6.778,6.778,0,0,0,1.786.38,1.28,1.28,0,0,0,.874-.38c.607-.532.722-.684,1.063-.684.57,0,.646.266,1.406,2.546.228.645,1.558,4.559,1.558,4.749a.666.666,0,0,1-.683.646c-.3,0-.381-.114-.989-1.178-1.824-3.191-5.319-5.509-8.51-5.509-5.13,0-8.017,6.763-8.017,13.374,0,6.991,3.191,13.3,8.7,13.3a6.022,6.022,0,0,0,4.331-1.748c1.027-1.026,1.445-2.052,1.445-4.559,0-3.572-1.1-3.838-3.952-3.838-.228,0-.8,0-.8-.645,0-.608.569-.608,1.025-.608Z" fill="#333"/>
        <path id="パス_1310" data-name="パス 1310" d="M1748.837,1223.393c.494,0,1.064,0,1.064.646,0,.607-.532.607-1.177.607-2.7,0-2.889,2.166-2.926,3.344-.038,1.9,0,11.322,0,13.45,0,2.7-.114,5.623-2.432,7.979a8.856,8.856,0,0,1-6.422,2.393c-1.632,0-9.422-.531-9.65-8.4-.037-2.128.039-12.463.039-14.78,0-2.926-.19-3.99-3.534-3.99-.228,0-.836,0-.836-.607,0-.646.57-.646,1.14-.646h9.308c.456,0,1.026,0,1.026.646,0,.607-.494.607-1.215.607a2.54,2.54,0,0,0-2.774,1.71c-.19.57-.19,7.789-.19,9.119,0,8.359,0,9.005.645,10.79a6.667,6.667,0,0,0,6.5,4.1,6.747,6.747,0,0,0,5.927-2.964c1.292-1.9,1.292-3.495,1.292-12.31,0-8.4-.076-8.587-.532-9.309a2.913,2.913,0,0,0-2.7-1.14c-.418,0-.76-.19-.76-.607,0-.646.57-.646.912-.646Z" fill="#333"/>
        <path id="パス_1311" data-name="パス 1311" d="M1783.952,1223.393c2.053,0,2.508,0,3.154,1.709.3.836,1.938,5.13,1.938,5.51a.584.584,0,0,1-.607.57c-.305,0-.418-.152-1.293-1.6-2.014-3.306-4.255-4.94-6.838-4.94-1.483,0-2.4.609-2.622,1.9-.115.684-.115,9.271-.115,10.867,0,1.063,0,9.84.115,10.486.341,1.938,2.128,1.976,3.153,1.976,1.406,0,1.71,0,1.71.608s-.532.608-1.14.608h-10.638c-.532,0-1.1,0-1.1-.608s.607-.608.836-.608c2.241,0,3.647,0,4.027-1.976.114-.608.114-.646.114-10.752,0-9.385,0-10.411-.266-11.132a2.371,2.371,0,0,0-2.432-1.369c-3.039,0-5.281,2.394-6.839,4.9-.911,1.482-.987,1.634-1.329,1.634a.618.618,0,0,1-.608-.57c0-.3,1.71-4.864,2.014-5.623.608-1.6,1.215-1.6,3.115-1.6Z" fill="#333"/>
        <path id="パス_1312" data-name="パス 1312" d="M1815.843,1251.812c-7.332,0-12.424-6-12.424-14.551s5.053-14.59,12.424-14.59c7.295,0,12.386,6,12.386,14.59C1828.229,1245.771,1823.177,1251.812,1815.843,1251.812Zm8.777-14.893c0-3.5-.988-12.994-8.777-12.994-8.51,0-8.815,11.17-8.815,13.678,0,3.647,1.1,12.956,8.815,12.956C1824.315,1250.559,1824.62,1239.5,1824.62,1236.919Z" fill="#333"/>
        <path id="パス_1313" data-name="パス 1313" d="M1863.722,1225.786c0,.114.076.267.076.418a29.132,29.132,0,0,1,.38,4.1c0,2.545-.57,6.079-3.913,11.132-3.04,4.636-4.978,5.547-6.5,5.547-2.507,0-4.748-3.913-4.748-8.549a13.386,13.386,0,0,1,4.216-9.688,15.721,15.721,0,0,1,12.12-4.939,12.368,12.368,0,0,1,6.118,1.216,11.908,11.908,0,0,1,6.61,11.056,14.171,14.171,0,0,1-9.574,13.374,23.352,23.352,0,0,1-6.307,1.406c-.152,0-.381-.038-.381-.266,0-.114.076-.152,1.027-.532,3.952-1.558,12.2-4.825,12.2-14.286,0-1.482-.152-10.524-10.524-10.524C1863.76,1225.255,1863.722,1225.558,1863.722,1225.786Zm-12.348,11.665c0,2.469.987,5.851,3.3,5.851,1.1,0,2.013-.456,4.635-4.408,2.014-3.077,3.724-7.3,3.724-11.056,0-2.28-.152-2.469-.646-2.469C1858.782,1225.369,1851.374,1230.27,1851.374,1237.451Z" fill="#333"/>
        <path id="パス_1314" data-name="パス 1314" d="M1893.325,1251.319c-.569,0-1.4-.115-1.4-.95,0-.684.152-.874,1.71-2.432a10.157,10.157,0,0,0,2.621-5.053c.114-.608.228-1.064.342-1.064.457,0,.533,2.052.533,2.546C1897.126,1245.315,1896.974,1251.319,1893.325,1251.319Zm9.8-25.191c-.684,0-.76.494-.76.646a1.1,1.1,0,0,0,.494.874c3.192,2.356,4.408,3.268,4.408,4.939a1.815,1.815,0,0,1-1.482,1.786c-.57,0-.8-.646-1.025-1.748-.3-1.482-1.711-4.027-2.053-4.027-.113,0-.379.114-.379.532,0,.342.037,1.938.037,2.28,0,1.025.266,6,.266,6.383,0,.342,0,2.242-1.671,2.242-1.026,0-1.026-1.026-1.026-1.331,0-.721.228-4.179.228-4.977,0-.379.076-2.279.076-2.7a.375.375,0,0,0-.381-.342c-.189,0-.265.114-.911.95-4.788,6.42-6.46,6.535-6.535,6.535-.038,0-.038-.038-.038-.076,0-.077,2.2-3.078,2.584-3.648a38.02,38.02,0,0,0,4.217-7.713.592.592,0,0,0-.571-.608c-2.659,0-4.027.115-4.254.115-.115,0-.684.075-.836.075-.115,0-.191-.075-.3-.228l-.76-.873c-.152-.19-.152-.19-.152-.266s.076-.077.152-.077c.19,0,1.14.115,1.367.115,1.445.075,3.914.151,5.358.151.494,0,1.14,0,1.14-1.139a23.543,23.543,0,0,0-.152-2.964c-.038-.228-.305-1.216-.305-1.444s.305-.266.457-.266c.114,0,3.495.95,3.495,1.6,0,.266-1.139,1.178-1.215,1.482a6.135,6.135,0,0,0-.191,1.976.786.786,0,0,0,.761.759,1.988,1.988,0,0,0,1.063-.3c.191-.153.912-1.292,1.178-1.292.191,0,2.774,1.595,2.774,2.09s-.76.493-2.052.493Zm1.406,15.654a.811.811,0,0,1,.57.646c0,.266-.341.494-1.064.95-.38.228-.38,2.621-.38,3.3,0,2.66,0,3.724,3.534,3.724,1.406,0,6.42-.228,7.37-1.178a12.621,12.621,0,0,0,1.748-3.951c.152-.533.228-.874.457-.874.189,0,.189.152.265,1.367.038.684.153,2.166,1.065,2.812.8.532,1.025.722,1.025,1.064,0,.418-.646,3.267-9.5,3.267-8.588,0-8.588-1.785-8.588-4.863,0-.494.076-2.736.076-3.191,0-.722-.037-1.482-.076-2.242,0-.19-.113-1.026-.113-1.216,0-.266,0-.684.607-.684a3.454,3.454,0,0,1,1.065.266C1902.786,1241.06,1904.5,1241.744,1904.534,1241.782Zm6.27,4.332c-.836,0-.951-.456-1.483-2.356a11.938,11.938,0,0,0-1.443-3.23c-.191-.3-.229-.38-.229-.57,0-.038.038-.113.077-.113s4.483,1.9,4.483,4.445A1.682,1.682,0,0,1,1910.8,1246.114Zm2.583-8.815c-.266,0-.911,0-1.064.646-.19.646-.494,1.9-1.937,1.9-.723,0-.95-.381-.95-1.141,0-.456.038-1.557.075-2.127.115-1.786.115-7.371.115-7.675,0-1.672-.076-5.091-.229-6.725-.038-.19-.228-1.178-.228-1.406a.336.336,0,0,1,.381-.38,14.588,14.588,0,0,1,2.166,1.1,3.027,3.027,0,0,0,1.443.3h5.813a1.523,1.523,0,0,0,1.1-.38c.153-.152.761-1.254,1.027-1.254.227,0,2.963,1.938,2.963,2.508,0,.19-.683.836-.8,1.026-.3.494-.3,4.1-.3,4.939,0,2.089.037,4.217.076,6.307,0,.342.075,1.938.075,2.318,0,2.013-1.254,2.431-1.71,2.431-.873,0-.949-.531-1.063-1.557-.076-.836-.685-.836-1.14-.836Zm-.152-14.514c-1.254,0-1.254.532-1.254,1.938s0,1.938,1.254,1.938h5.927c1.216,0,1.216-.533,1.216-1.938s0-1.938-1.216-1.938Zm-.039,4.863c-1.177,0-1.177.418-1.177,1.938s0,1.938,1.177,1.938h6.041c1.179,0,1.217-.418,1.217-1.938s-.038-1.938-1.217-1.938Zm0,4.864c-.455,0-1.138,0-1.138.949,0,2.546,0,2.85,1.138,2.85h6.08c.455,0,1.14,0,1.14-.988,0-2.508,0-2.811-1.14-2.811Zm11.78,18.313c-1.292,0-1.6-.95-2.356-3.762a10.663,10.663,0,0,0-2.812-4.407,5.278,5.278,0,0,1-.646-.684c0-.114.038-.114.075-.114a16.419,16.419,0,0,1,1.825.57c3.343,1.368,5.091,4.294,5.091,6.573C1926.153,1250.217,1925.507,1250.825,1924.976,1250.825Z" fill="#333"/>
        <path id="パス_1315" data-name="パス 1315" d="M1946.088,1230.194a5.206,5.206,0,0,1-.456,1.52,13.432,13.432,0,0,0-.912,4.9c0,3.837,1.976,6.611,3.154,6.611.646,0,.8-.19,1.938-2.09.227-.38.873-1.291,1.177-1.291.114,0,.19.151.19.3a4.549,4.549,0,0,1-.114.76,10.662,10.662,0,0,0-.494,2.888,5.084,5.084,0,0,0,.229,1.519,9.681,9.681,0,0,1,.3,1.254c0,.76-.8,1.178-1.444,1.178-2.431,0-7.219-3.989-7.219-11.246,0-1.064.532-5.737.532-6.725a10.564,10.564,0,0,0-.266-2.2,5.13,5.13,0,0,1-.3-1.292c0-.114.152-.152.228-.152C1944.378,1226.128,1946.088,1229.168,1946.088,1230.194Zm18.541.874a9.454,9.454,0,0,1,3.382,7.257c0,.721-.076,2.507-1.9,2.507-1.861,0-1.861-2.051-1.861-2.546,0-3.153,0-4.749-2.014-6.762-.3-.3-1.824-1.482-1.824-1.71,0-.114.152-.19.343-.19A7.394,7.394,0,0,1,1964.629,1231.068Z" fill="#333"/>
      </g>
    </g>
  </g>
</svg>
