<svg id="nav_ochart_sp" xmlns="http://www.w3.org/2000/svg" width="745" height="90" viewBox="0 0 745 90">
  <rect id="長方形_17" data-name="長方形 17" width="745" height="90" fill="#ffc946" opacity="0"/>
  <g id="グループ_294" data-name="グループ 294" transform="translate(-1359.745 -1655.2)">
    <g id="グループ_291" data-name="グループ 291">
      <g id="グループ_290" data-name="グループ 290">
        <path id="パス_1359" data-name="パス 1359" d="M1681.945,1734.632c-4.235,0-7.176-3.466-7.176-8.4s2.918-8.426,7.176-8.426c4.213,0,7.152,3.467,7.152,8.426C1689.1,1731.144,1686.179,1734.632,1681.945,1734.632Zm5.068-8.6c0-2.019-.57-7.5-5.068-7.5-4.916,0-5.091,6.451-5.091,7.9,0,2.106.636,7.482,5.091,7.482C1686.838,1733.908,1687.013,1727.523,1687.013,1726.031Z" fill="#333"/>
        <path id="パス_1360" data-name="パス 1360" d="M1706.116,1718.066c0,.022,1.427,3.467,1.427,3.708a.411.411,0,0,1-.417.395c-.2,0-.242-.065-.7-.7-1.865-2.633-3.818-2.94-4.74-2.94-3.444,0-5.221,4.213-5.221,8.009,0,5.09,2.983,7.087,5.594,7.087,1.537,0,3.292-.658,4.74-3.116.5-.856.5-.877.68-.877a.342.342,0,0,1,.33.351,7.259,7.259,0,0,1-1.252,2.216,6.4,6.4,0,0,1-5.156,2.435c-4.629,0-6.89-3.752-6.89-8.052,0-5.135,3.182-8.777,6.89-8.777a7.62,7.62,0,0,1,1.865.263,10.774,10.774,0,0,0,1.317.351.906.906,0,0,0,.592-.219c.351-.351.4-.4.571-.4A.5.5,0,0,1,1706.116,1718.066Z" fill="#333"/>
        <path id="パス_1361" data-name="パス 1361" d="M1722.92,1725.68c.591,0,.591-.132.591-3.028,0-3.182,0-3.73-2.04-3.73-.175,0-.57,0-.57-.373,0-.329.4-.329.593-.329h5.594c.154,0,.571,0,.571.351,0,.372-.285.372-.966.372a1.392,1.392,0,0,0-1.338.812c-.176.461-.2.527-.2,8.47a34.989,34.989,0,0,0,.176,4.454c.306.834,1.207.834,1.623.834.329,0,.7,0,.7.351s-.417.351-.571.351h-5.594c-.22,0-.593,0-.593-.329,0-.351.4-.351.636-.351a2.142,2.142,0,0,0,1.536-.439c.438-.439.438-.46.438-4.476,0-2.04,0-2.216-.591-2.216h-5.9a.588.588,0,0,0-.505.263c-.088.242-.088,2.414-.088,2.831,0,3.6,0,4.037,2.063,4.037.153,0,.549,0,.549.373,0,.307-.4.307-.593.307h-5.595c-.132,0-.571,0-.571-.351s.285-.351.966-.351a1.4,1.4,0,0,0,1.427-1.119c.087-.526.087-5.858.087-8.667a31.352,31.352,0,0,0-.154-3.95c-.285-.834-1.207-.834-1.623-.834-.33,0-.7,0-.7-.372,0-.351.418-.351.571-.351h5.595c.22,0,.593,0,.593.329,0,.373-.373.373-.636.373-1.976,0-1.976.658-1.976,3.467,0,.4,0,2.808.088,3.006a.532.532,0,0,0,.505.285Z" fill="#333"/>
        <path id="パス_1362" data-name="パス 1362" d="M1743.839,1734.215c-.242,0-.527-.065-.527-.351,0-.351.352-.351.878-.351a.962.962,0,0,0,.9-.965,11.877,11.877,0,0,0-.811-2.567c-.483-1.229-.548-1.383-1.273-1.383h-4.761c-.812,0-.9.219-1.25,1.207a17.489,17.489,0,0,0-.791,2.852c0,.856.7.856,1.229.856.263,0,.505.044.505.351,0,.351-.33.351-.505.351h-4.213c-.175,0-.461-.022-.461-.329,0-.373.242-.373.746-.373a1.843,1.843,0,0,0,1.667-.877c.505-.681,2.129-5.837,2.612-7.4.285-.878,1.689-5.178,1.974-6.166.22-.768.352-1.272,1.91-1.272a.5.5,0,0,1,.483.351,14.59,14.59,0,0,1,.724,1.975c1.536,4.761,1.667,5.288,3.049,9.347,1.251,3.73,1.405,4.037,2.656,4.037.285,0,.505.132.505.373,0,.329-.352.329-.505.329Zm-1.031-6.341c.241,0,.549-.11.549-.351,0-.461-2.085-6.56-2.48-7.746-.131-.373-.176-.57-.329-.57-.132,0-.154.066-.4.79-.614,1.777-2.326,7.351-2.326,7.548,0,.329.329.329.614.329Z" fill="#333"/>
        <path id="パス_1363" data-name="パス 1363" d="M1760.656,1718.22c1.053,0,6.056.109,6.056,3.8,0,2.238-1.691,3.247-2.919,3.84-.768.373-.856.417-.856.658a39.035,39.035,0,0,0,2.282,5.244,2.735,2.735,0,0,0,2.589,1.755c.22,0,.658,0,.658.351,0,.308-.438.351-.548.351h-2.743a1.076,1.076,0,0,1-1.031-.636c-.132-.22-1.689-3.62-1.931-4.169-1.207-2.655-1.36-3.006-2.128-3.006h-1.206c-.155,0-.44.088-.506.263-.087.22-.087,3.116-.087,3.621,0,2.655,0,3.225,2.018,3.225.154,0,.461,0,.461.351s-.394.351-.636.351h-5.42c-.219,0-.549-.043-.549-.351,0-.351.307-.351.615-.351,1.514,0,1.733-.7,1.8-1.514.044-.746.044-6.78.044-7.811a35.376,35.376,0,0,0-.175-4.433c-.285-.812-1.23-.812-1.734-.812-.131,0-.592,0-.592-.394,0-.329.394-.329.658-.329Zm-.791.723c-1.579,0-1.579.988-1.579,3.248,0,3.445,0,3.511.593,3.511h1.777c2.15,0,3.971-1.185,3.971-3.467,0-1.536-.834-3.292-3.686-3.292Z" fill="#333"/>
        <path id="パス_1364" data-name="パス 1364" d="M1784.469,1718.22c1.185,0,1.449,0,1.822.987.175.483,1.119,2.962,1.119,3.182a.338.338,0,0,1-.352.329c-.175,0-.24-.088-.746-.922-1.162-1.909-2.457-2.853-3.949-2.853-.856,0-1.383.352-1.514,1.1-.066.4-.066,5.354-.066,6.276,0,.614,0,5.682.066,6.055.2,1.119,1.229,1.141,1.822,1.141.811,0,.987,0,.987.351s-.307.351-.658.351h-6.145c-.307,0-.636,0-.636-.351s.351-.351.483-.351c1.295,0,2.106,0,2.326-1.141.065-.351.065-.373.065-6.209,0-5.42,0-6.012-.153-6.429a1.368,1.368,0,0,0-1.4-.791c-1.755,0-3.05,1.383-3.95,2.831-.526.856-.571.944-.768.944a.357.357,0,0,1-.351-.329c0-.176.988-2.809,1.163-3.248.351-.921.7-.921,1.8-.921Z" fill="#333"/>
      </g>
    </g>
    <g id="グループ_293" data-name="グループ 293">
      <g id="グループ_292" data-name="グループ 292">
        <path id="パス_1365" data-name="パス 1365" d="M1574.118,1676.9c0,1.254-2.888,2.394-3.8,2.773-.531.19-.569.343-.646,1.672-.076.836-.076,3.914-.076,4.1,0,.228,0,.683.343.683.113,0,3.229-1.291,3.837-1.519,3.761-1.406,5.472-1.52,6.459-1.52a5.818,5.818,0,0,1,5.851,5.737c0,5.015-5.282,7.3-8.4,7.3-2.166,0-3.913-1.1-3.913-3.077a3.388,3.388,0,0,1,1.9-3,.2.2,0,0,1,.19.19c0,.114-.075.19-.152.3a1.573,1.573,0,0,0-.341,1.026c0,1.824,2.089,1.824,2.469,1.824,2.508,0,5.7-1.672,5.7-4.712a3.937,3.937,0,0,0-3.649-4.179c-1.062,0-3.419.494-7.864,2.849-2.128,1.14-2.356,1.254-2.356,1.9,0,.418.115,2.128.115,2.508,0,1.748-.571,4.255-1.938,4.255-1.026,0-1.444-.8-1.748-1.405-1.216-2.356-1.406-2.356-1.9-2.356a3.153,3.153,0,0,0-.949.228,7.537,7.537,0,0,1-1.444.759c-.418,0-2.356-1.139-2.356-2.393,0-.684.418-1.482,1.1-1.482.228,0,1.329.19,1.557.19,1.026,0,1.711-.19,3.952-1.292,1.938-.949,2.165-1.064,2.165-2.128,0-.873-.037-4.1-.076-4.749,0-.266-.113-.835-.531-.835a8.971,8.971,0,0,0-1.748.341c-1.938.646-2.127.722-2.7.722-1.292,0-2.736-2.621-2.736-2.887a.27.27,0,0,1,.305-.266c.113,0,.57.152.683.152a11.038,11.038,0,0,0,1.748.19,16.6,16.6,0,0,0,4.826-1.14,28.4,28.4,0,0,0,.379-4.141,3.73,3.73,0,0,0-1.253-3.04,3.762,3.762,0,0,1-.532-.608c0-.342.608-.418.836-.418,2.545,0,3.913,1.862,3.913,2.584a15.1,15.1,0,0,1-.8,1.975,20.307,20.307,0,0,0-.38,2.47c0,.152.076.418.3.418.266,0,1.33-.418,1.33-.95,0-.076-.19-.456-.19-.532,0-.038.076-.114.152-.152C1572.3,1675.189,1574.118,1675.721,1574.118,1676.9Zm-8.663,14.552c0,.57,1.026,1.785,1.6,1.785.533,0,1.065-1.063,1.065-2.925,0-.152,0-.532-.114-.608C1567.886,1689.7,1565.455,1690.919,1565.455,1691.451Zm24.963-11.816c0,.8-.456,1.823-1.254,1.823-.229,0-1.1-.076-1.292-.076-.191.039-.988.267-1.14.267a.178.178,0,0,1-.189-.191,2.625,2.625,0,0,1,.113-.3,2,2,0,0,0,.152-.684c0-1.519-1.9-2.051-3.191-2.051a3.3,3.3,0,0,0-1.483.38.845.845,0,0,1-.38.114c-.114,0-.151-.038-.151-.152a4.86,4.86,0,0,1,4.1-2.394C1588.631,1676.367,1590.418,1677.887,1590.418,1679.635Z" fill="#333"/>
        <path id="パス_1366" data-name="パス 1366" d="M1629.383,1680.357a33.541,33.541,0,0,0,9.195,3c.152,0,.8.114.8.266,0,.114-.533.266-.685.3a6.587,6.587,0,0,0-2.888,2.052c-.113.151-.531.95-.721.95-.228,0-8.473-3.99-12.2-10.069-.721-1.216-.836-1.33-1.1-1.33s-.342.076-1.178.95a45.181,45.181,0,0,1-11.246,8.853c-1.292.684-5.244,2.431-5.965,2.431-.115,0-.19-.075-.19-.114s4.065-2.545,4.407-2.773c5.129-3.229,10.562-9.043,11.094-11.893.039-.3.076-.418.341-.418.191,0,3.268,1.179,3.458,1.292.115.039.495.19.495.57a2.425,2.425,0,0,1-.152.533C1622.924,1675.531,1626.192,1678.723,1629.383,1680.357Zm-18.313-9.461c-2.811,0-4.1.076-4.825.114-.115,0-.684.076-.8.076s-.19-.076-.342-.228l-.722-.874c-.152-.19-.152-.19-.152-.266s.038-.076.114-.076c.266,0,1.444.114,1.672.114,1.862.076,3.457.152,5.243.152h1.1c.8,0,1.026-.38,1.026-1.026a6.174,6.174,0,0,0-.3-2.014,5.721,5.721,0,0,1-.228-.759c0-.19.19-.266.418-.266.266,0,1.976.418,2.394.532,1.139.3,1.367.38,1.367.721,0,.228-.037.305-.57.988a.933.933,0,0,0-.266.684c0,.912.305,1.14,1.33,1.14h6.269c.342,0,1.14,0,1.14-1.026a15.562,15.562,0,0,0-.114-1.71c-.037-.189-.228-.987-.228-1.139,0-.19.228-.266.418-.266.267,0,2.85.608,3.268.721s.645.267.645.608c0,.228-.152.381-.57.684a1.22,1.22,0,0,0-.493,1.064c0,1.064.608,1.064,1.216,1.064h1.937c1.672,0,1.862,0,2.432-.646,1.064-1.254,1.178-1.4,1.519-1.4.229,0,3.534,2.013,3.534,2.507,0,.532-.76.532-2.014.532h-7.408c-1.178,0-1.178.608-1.178,1.52,0,.228.037,1.52.037,1.71,0,1.405-1.139,1.633-1.937,1.633-.873,0-1.026-.152-1.026-1.443v-2.622c-.113-.722-.57-.8-1.178-.8h-6.079c-.874,0-1.405,0-1.405,1.064,0,.38.113,2.051.113,2.394,0,.721-.113,1.063-.456,1.291a2.693,2.693,0,0,1-1.443.532c-.646,0-.95-.418-.95-1.178,0-.3.038-1.747.038-2.014,0-1.481,0-2.089-1.178-2.089Zm2.7,19.415a19.34,19.34,0,0,1,2.926,1.786.944.944,0,0,1,.305.57c0,.456-.305.532-1.217.759-.113.038-3.381,2.584-3.988,3.04a23.347,23.347,0,0,1-5.776,3.306.122.122,0,0,1-.114-.114c0-.076,2.014-1.824,2.28-2.09,3.153-3,5.091-6,5.433-7.219A.227.227,0,0,1,1613.767,1690.311Zm1.748-2.014c-2.963,0-4.064.039-4.824.114-.115,0-.685.076-.8.076s-.189-.076-.342-.228l-.721-.874c-.153-.19-.153-.19-.153-.265,0-.038.038-.076.115-.076.265,0,1.443.113,1.672.113,1.861.115,3.457.153,5.243.153h2.849c.38,0,1.14,0,1.14-1.026,0-.456-.229-3.534-.3-3.914,0-.076-.227-.456-.227-.532s.075-.228.379-.228c.266,0,2.925.57,3.306.684.531.114.721.456.721.646,0,.228-.076.3-.646.8-.532.456-.532.684-.532,1.824,0,1.368,0,1.748,1.141,1.748h1.672c1.672,0,1.861,0,2.431-.646,1.064-1.254,1.178-1.406,1.52-1.406.227,0,3.533,2.052,3.533,2.507,0,.532-.76.532-2.014.532h-7.181c-1.139,0-1.139.684-1.139,1.9,0,2.7,0,4.218.076,6.459.037.646.037,1.558.037,2.014,0,1.216-.3,1.938-1.937,1.938-.836,0-.912-.685-.912-1.33,0-.494.114-2.774.114-3.268.038-1.443.038-2.849.038-4.6a23.01,23.01,0,0,0-.076-2.584c-.19-.532-.8-.532-1.1-.532Zm10.145,3.192c0-.114.19-.152.342-.152,1.406,0,10.068,2.394,10.068,5.547,0,1.216-.684,2.166-1.633,2.166-.723,0-.874-.19-2.052-1.938a18.058,18.058,0,0,0-6.535-5.471C1625.812,1691.641,1625.66,1691.527,1625.66,1691.489Z" fill="#333"/>
        <path id="パス_1367" data-name="パス 1367" d="M1669.607,1675.607c-.266,0-8.244,1.862-8.435,1.938a16.414,16.414,0,0,1-1.709.722,7.921,7.921,0,0,1-2.584-1.368,7.742,7.742,0,0,1-.912-2.2c0-.19.038-.3.228-.3.039,0,.874.228.988.266a6.769,6.769,0,0,0,2.014.38c1.292,0,8.434-.608,10.41-1.406a14.586,14.586,0,0,1,2.09-1.177c.912,0,3.229,1.937,3.229,2.887,0,.342-1.405,1.368-1.633,1.634-.76.912-3.762,5.357-4.37,6.231a1.249,1.249,0,0,0-.3.76c0,.342.076.418,1.672,1.292,1.711.988,8.511,4.825,8.511,8.283a1.64,1.64,0,0,1-1.558,1.672c-.873,0-1.026-.267-2.356-2.622-2.621-4.6-5.965-7.485-6.8-7.485-.38,0-.495.114-1.331,1.064-1.33,1.4-5.2,5.661-10.144,8.13a9.265,9.265,0,0,1-2.356.874c-.076,0-.265,0-.265-.228a11.672,11.672,0,0,1,1.748-1.405c9.916-7.182,14.437-17.022,14.323-17.63A.426.426,0,0,0,1669.607,1675.607Z" fill="#333"/>
        <path id="パス_1368" data-name="パス 1368" d="M1697.084,1696.922c7.789-4.407,12.994-10.6,12.994-11.778s-4.522-4.066-5.471-4.066c-.875,0-5.472,4.978-6.726,4.978a.178.178,0,0,1-.19-.19,12.469,12.469,0,0,1,1.368-1.634c4.522-4.9,7.637-10.259,7.637-12.424,0-.3-.608-1.52-.608-1.786,0-.228.494-.228.722-.228,2.014,0,3.42,1.482,3.42,2.242,0,.228-.418,1.254-.418,1.482,0,.57.8.645,1.291.645a23.267,23.267,0,0,0,5.7-.911,9.12,9.12,0,0,1,1.407-.836c.379,0,3.115,1.71,3.115,2.925,0,.57-.266.684-.949.988-.571.266-.723.456-1.863,2.242-.532.836-3.115,4.445-3.571,5.2-.342.532-.418.646-.418.95,0,.342.038.418.722,1.292.912,1.177,1.595,2.013,1.595,3.343a1.636,1.636,0,0,1-1.633,1.824c-.8,0-.95-.266-2.394-2.7-.075-.151-.493-.874-.874-.874-.342,0-.57.267-1.33,1.064a32.8,32.8,0,0,1-14.02,9.157c-.076,0-.418,0-.341-.342C1696.286,1697.34,1696.361,1697.34,1697.084,1696.922Zm19.338-21.049c0-.418-.379-.532-.645-.532-.57,0-3.914.494-4.6.494a3.446,3.446,0,0,1-1.139-.152,2.558,2.558,0,0,0-.912-.152.6.6,0,0,0-.457.152c-.037,0-3.228,3.8-3.228,4.256,0,.531.342.646,1.291,1.025a42.662,42.662,0,0,1,4.18,1.938,2.137,2.137,0,0,0,.873.266C1712.623,1683.016,1716.422,1677.165,1716.422,1675.873Z" fill="#333"/>
        <path id="パス_1369" data-name="パス 1369" d="M1752.254,1679.331c1.482.911,1.634,1.064,1.634,1.4,0,.228-.418,1.292-.457,1.52-.151.684-.227,1.482-.227,6.725,0,1.026.038,3.078.114,4.56.038.456.266,2.659.266,3.153,0,.38,0,1.672-.913,1.672-1.063,0-2.355-1.634-2.355-2.66,0-.38.381-2.052.418-2.431.229-2.052.381-4.978.381-6.991,0-1.368,0-5.358-.988-5.358-.191,0-.342.152-.647.456-3.723,3.572-10.1,7.257-10.79,7.257-.114,0-.19-.076-.19-.228a.344.344,0,0,1,.114-.265c.988-.874,2.052-1.748,2.659-2.28,8.967-7.675,11.931-14.134,11.931-15.2a2.16,2.16,0,0,0-.3-1.064,4.226,4.226,0,0,1-.266-.608.375.375,0,0,1,.379-.3c.571,0,4.408,1.6,4.408,3.04a.961.961,0,0,1-.341.76c-1.027.836-1.178,1.064-2.584,3.115-.647.912-1.862,2.28-2.584,3.192A.615.615,0,0,0,1752.254,1679.331Z" fill="#333"/>
        <path id="パス_1370" data-name="パス 1370" d="M1783.993,1685.144c-2.28,4.939-6.269,7.219-7.029,7.219a.177.177,0,0,1-.19-.19,10.759,10.759,0,0,1,1.52-2.014c4.179-5.737,4.6-9.879,4.6-11.133a8.338,8.338,0,0,0-.644-3.267,2.831,2.831,0,0,1-.153-.684c0-.113.037-.19.19-.19.265,0,4.293,1.292,4.293,3.23C1786.576,1678.229,1784.638,1683.7,1783.993,1685.144Zm6.155,3.533c0-.19.19-1.177.228-1.367.114-.722.152-3.724.152-4.674,0-4.635-.456-6.193-.722-7.143a9.859,9.859,0,0,1-.494-1.367c0-.153.152-.19.229-.19.189,0,4.178.683,4.178,2.659,0,.456-.532,2.431-.608,2.849-.151,1.026-.3,5.624-.3,6.877,0,.495.038,1.254.722,1.254,1.141,0,4.636-2.507,8.283-6.193.647-.646,3.875-4.065,4.027-4.065a.163.163,0,0,1,.153.152c0,.3-2.2,5.015-8.854,10.867a21.2,21.2,0,0,0-2.621,2.431c-.646.722-.988.988-1.254,1.026C1792.162,1691.983,1790.148,1689.741,1790.148,1688.677Z" fill="#333"/>
        <path id="パス_1371" data-name="パス 1371" d="M1830.425,1672.872c1.786,0,1.976,0,2.432-.646.607-.874.646-.95.949-.95a5.26,5.26,0,0,1,2.774,2.166c0,.417-.228.417-2.051.417h-6.764c-3.3,0-4.407.077-4.787.114-.113,0-.683.076-.8.076-.151,0-.227-.076-.342-.228l-.721-.874c-.153-.19-.191-.19-.191-.265,0-.038.077-.076.153-.076.265,0,1.444.114,1.671.114,1.862.076,3.42.152,5.206.152Zm-1.33,4.635c.836,0,1.065,0,1.558-.76.227-.38.57-.95.874-.95.38,0,2.279,1.748,2.279,2.242,0,.456-.494.456-1.254.456h-5.736c-.76,0-1.559,0-2.47.076-.152,0-.8.076-.95.076s-.228-.114-.3-.228l-.645-.836c-.114-.152-.114-.19-.114-.266,0-.038.038-.076.114-.076.151,0,.873.114,1.025.114.76.076,2.508.152,3.23.152Zm-.228,4.6c.8,0,.912,0,1.293-.494.645-.912.836-1.215,1.063-1.215.532,0,1.938,1.785,1.938,2.279,0,.456-.456.456-1.254.456h-5.015c-.608,0-1.635,0-2.471.038a9.113,9.113,0,0,1-.949.114c-.114,0-.189-.076-.265-.228l-.647-.874c-.113-.152-.113-.19-.113-.228s0-.114.076-.114c.037,0,.873.152,1.063.152,1.026.077,2.089.114,3.23.114Zm-2.014,13.26c-.342,0-1.215,0-1.215.912,0,.19.076,1.178.076,1.406,0,.57,0,2.013-1.824,2.013-1.025,0-1.025-.607-1.025-.873,0-.19.037-.988.075-1.178.076-2.014.152-4.445.152-6.307,0-.95-.038-2.09-.114-3.344,0-.113-.076-1.026-.076-1.1,0-.153.038-.533.305-.533a7.646,7.646,0,0,1,2.279.836,2.784,2.784,0,0,0,1.33.267h2.241a1.7,1.7,0,0,0,1.672-.8c.342-.494.494-.57.685-.57.455,0,2.127,1.1,2.127,1.6a1.442,1.442,0,0,1-.3.683c-.418.456-.418.608-.418,1.938,0,.684.266,3.951.266,4.712a1.818,1.818,0,0,1-2.014,1.937c-.456,0-.456,0-.722-1.026-.152-.57-.76-.57-1.178-.57Zm1.786-27.47c.912,0,1.064,0,1.482-.645.152-.228.494-.761.875-.761a4.444,4.444,0,0,1,2.316,1.976c0,.456-.531.456-1.253.456h-4.636c-.759,0-1.519,0-2.468.038-.153,0-.8.114-.951.114-.114,0-.228-.152-.3-.228l-.609-.874a.319.319,0,0,1-.114-.19c0-.113.076-.151.19-.151a9.485,9.485,0,0,1,1.026.151c1.862.114,2.394.114,3.153.114Zm-1.975,20.593c-1.216,0-1.216.38-1.216,2.128,0,3.572,0,3.723,1.254,3.723h2.469c1.216,0,1.216-.3,1.216-3.305,0-2.28,0-2.546-1.216-2.546Zm5.433,11.589c10.6-3.04,16.793-8.625,18.389-10.677.228-.3,1.064-1.862,1.406-1.862.153,0,3.457,1.938,3.457,2.546,0,.3-.152.38-1.367.836a27.846,27.846,0,0,0-3.533,2.317,44.507,44.507,0,0,1-12.881,6.269,35.244,35.244,0,0,1-5.471.836.407.407,0,0,1-.228-.075C1831.869,1700.228,1831.907,1700.113,1832.1,1700.076Zm12.994-31.384c0,.3.114.608.684,1.558a23.177,23.177,0,0,0,9.232,9.119,19.593,19.593,0,0,1,1.938,1.1c0,.077-.342.115-.455.115a6.511,6.511,0,0,0-1.9.3,11.719,11.719,0,0,1-1.824.95c-.418,0-2.392-2.089-2.81-2.545a22.251,22.251,0,0,1-5.2-8.169c-.342-.988-.342-1.1-.647-1.1a.421.421,0,0,0-.342.266c-.836,1.254-2.051,3.305-2.849,4.559-4.522,6.991-7.751,8.891-7.751,8.511a.467.467,0,0,1,.151-.342c3.116-3.533,7.676-11.93,8.094-15.844.152-1.367.152-1.405.455-1.405.267,0,.494.076,1.9.8,1.52.759,1.672.874,1.709,1.139C1845.509,1667.857,1845.091,1668.5,1845.091,1668.692Zm-8.13,17.592c4.369-4.56,5.736-7.523,5.812-8.435.114-.988.114-1.1.381-1.1.151,0,2.127,1.026,2.507,1.216.988.532,1.1.57,1.1.874s-.19.38-.875.76c-.265.152-4.027,4.065-4.824,4.787a24.153,24.153,0,0,1-4.712,3.647,9.7,9.7,0,0,1-1.71.8c-.037,0-.113,0-.113-.076C1834.491,1688.715,1836.656,1686.626,1836.961,1686.284Zm3.191,4.483c3.268-2.736,6.193-5.4,6.8-7.675.189-.646.189-.684.456-.684.3,0,3.191,1.634,3.191,2.166,0,.3-.3.494-1.063.912-.684.38-3.306,2.66-3.838,3.077-5.053,3.914-8.055,4.826-9.233,5.168-.189.038-.3,0-.3-.039C1836.087,1693.579,1839.545,1691.261,1840.152,1690.767Z" fill="#333"/>
        <path id="パス_1372" data-name="パス 1372" d="M1894.058,1680.167c-.912,0-1.292.151-1.368,1.177-.493,7.029-.684,9.309-2.09,13.261-.987,2.735-3.115,5.357-3.609,5.357-.152,0-.191-.076-.191-.114,0-.153.495-.874.495-1.064,0-.3-.152-.3-1.406-.3H1875.9c-.949,0-.987.114-1.329.988a1.924,1.924,0,0,1-1.9,1.253c-.342,0-.533-.19-.533-.759,0-2.85.191-16.946.191-20.137,0-2.66-.039-9.537-.343-11.7a12.779,12.779,0,0,1-.342-1.291c0-.153.152-.153.3-.153,1.141,0,3.458,1.026,3.458,1.672a5.38,5.38,0,0,1-.532.874,31.292,31.292,0,0,0-.153,3.951c0,2.736.077,16.3.077,19.378,0,.076,0,.342.152.342.57,0,4.711-10.145,4.711-12.31a.549.549,0,0,0-.57-.608c-.379,0-2.469.19-2.811.19-.152,0-.19-.077-.342-.266l-.722-.875c-.19-.189-.19-.189-.19-.227,0-.076.113-.114.152-.114.645,0,3.761.266,4.483.266.76,0,.988-.38,1.025-.912,0-.266.039-3.267.039-3.762a61,61,0,0,0-.265-6.915c-.039-.266-.534-1.367-.534-1.443s.077-.076.153-.076c.038,0,2.166.38,2.7.532.57.151,1.482.38,1.482.836,0,.19-.912.8-1.064.987-.113.114-.113.19-.113.722,0,1.254-.19,7.447-.19,8.891,0,.76.19,1.14,1.063,1.14a1.546,1.546,0,0,0,1.254-.38c.19-.152.95-1.178,1.216-1.178.418,0,2.2,1.938,2.2,2.051,0,.533-.722.533-2.014.533h-2.47c-.76,0-1.178.228-1.178,1.367,0,.76.267.988,1.027,1.6,2.469,1.9,3.419,2.622,3.419,3.952a1.794,1.794,0,0,1-1.52,1.709c-.608,0-.684-.19-1.139-2.013-.305-1.14-.951-2.7-1.445-2.7-.265,0-.265.494-.265.608,0,.456.19,8.663.19,10.107,0,1.481-1.6,1.747-2.09,1.747-.57,0-.646-.418-.646-.874,0-1.329.114-7.788.114-9.27,0-.077,0-.418-.19-.418-.077,0-.152.038-.266.3a22.818,22.818,0,0,1-4.674,7.37c-.683.8-.683.874-.683,2.736,0,.722.076,1.292,1.215,1.292h5.472c1.6,0,2.09,0,2.432-.646.645-1.1.721-1.254,1.063-1.254.494,0,2.241,1.9,2.775,1.9.226,0,.341-.152.455-.418,1.71-3.838,2.128-8.663,2.128-14.21,0-1.026-.077-9.917-.152-10.828-.076-.95-.343-3-.343-3.154,0-.114.039-.152.191-.152.418,0,2.241.76,2.659.76,1.178,0,5.281-1.823,7.181-2.849.228-.115,1.1-.836,1.368-.836,0,0,3.267,1.709,3.267,2.393,0,.266-.076.266-1.405.456-1.217.19-7.334,1.064-8.739,1.216-1.178.114-1.33.152-1.482.57-.076.266-.152,5.509-.152,6.269,0,2.052,0,2.47,1.33,2.47h5.547a4.64,4.64,0,0,0,1.861-.153c.342-.151,1.33-2.013,1.748-2.013.457,0,1.825,2.356,1.825,2.659,0,.229-.229.343-.381.418a7.624,7.624,0,0,1-1.9.077h-2.2c-.607,0-1.138,0-1.291.836-.076.341-.076,9.8-.076,10.714,0,2.127.19,4.521.266,5.471a9.131,9.131,0,0,1,.076,1.064,1.97,1.97,0,0,1-2.09,2.317c-.645,0-.949-.189-.949-1.1,0-.114.113-1.444.113-1.6.039-.608.191-7.371.191-8.245,0-1.178-.039-7.067-.039-8.283,0-1.026-.456-1.177-1.33-1.177Zm-15.084-5.244a1.546,1.546,0,0,1-1.557,1.748c-.761,0-.8-.266-1.179-2.583a17.128,17.128,0,0,0-.531-2.47c-.038-.152-.266-.684-.266-.8s.076-.076.152-.038C1876.732,1671.428,1878.974,1673.365,1878.974,1674.923Zm7.03-4.293c.378,0,2.544,1.482,2.544,2.052,0,.228,0,.265-.835.608a17.623,17.623,0,0,0-2.356,2.7,10.533,10.533,0,0,1-1.6,1.368c-.038,0,1.444-3.685,1.6-4.408.076-.341.229-1.747.3-2.013C1885.737,1670.744,1885.813,1670.63,1886,1670.63Z" fill="#333"/>
      </g>
    </g>
  </g>
</svg>
