<svg id="nav_talk" xmlns="http://www.w3.org/2000/svg" width="342.021" height="58.632" viewBox="0 0 342.021 58.632">
  <rect id="長方形_9" data-name="長方形 9" width="342.021" height="58.632" fill="#a61527" opacity="0"/>
  <g id="グループ_73" data-name="グループ 73" transform="translate(-614.652 -1080.168)">
    <path id="パス_318" data-name="パス 318" d="M626.349,1130.781c-2.509,0-4.251-2.055-4.251-4.98s1.729-4.992,4.251-4.992c2.5,0,4.238,2.054,4.238,4.992C630.587,1128.713,628.858,1130.781,626.349,1130.781Zm3-5.1c0-1.2-.338-4.446-3-4.446-2.912,0-3.016,3.822-3.016,4.68,0,1.248.377,4.433,3.016,4.433C629.248,1130.351,629.352,1126.568,629.352,1125.684Z" fill="#333"/>
    <path id="パス_319" data-name="パス 319" d="M641.359,1120.965c0,.013.845,2.054.845,2.2a.244.244,0,0,1-.247.234c-.117,0-.143-.039-.416-.416a3.452,3.452,0,0,0-2.808-1.742c-2.041,0-3.094,2.5-3.094,4.745,0,3.016,1.768,4.2,3.315,4.2a3.183,3.183,0,0,0,2.808-1.846c.3-.507.3-.52.4-.52a.2.2,0,0,1,.2.208,4.288,4.288,0,0,1-.741,1.313,3.79,3.79,0,0,1-3.055,1.444c-2.743,0-4.082-2.224-4.082-4.772,0-3.042,1.885-5.2,4.082-5.2a4.509,4.509,0,0,1,1.1.156,6.319,6.319,0,0,0,.78.208.536.536,0,0,0,.351-.13c.208-.208.234-.234.338-.234A.3.3,0,0,1,641.359,1120.965Z" fill="#333"/>
    <path id="パス_320" data-name="パス 320" d="M652.007,1125.476c.351,0,.351-.078.351-1.794,0-1.885,0-2.21-1.209-2.21-.1,0-.338,0-.338-.221,0-.195.234-.195.351-.195h3.315c.091,0,.338,0,.338.208s-.169.221-.571.221a.825.825,0,0,0-.794.481c-.1.273-.117.312-.117,5.018a20.787,20.787,0,0,0,.1,2.639c.182.494.715.494.962.494.2,0,.416,0,.416.208s-.247.208-.338.208h-3.315c-.13,0-.351,0-.351-.194s.234-.208.377-.208a1.269,1.269,0,0,0,.91-.261c.26-.259.26-.273.26-2.651,0-1.21,0-1.313-.351-1.313h-3.5a.347.347,0,0,0-.3.155c-.052.143-.052,1.43-.052,1.678,0,2.131,0,2.392,1.222,2.392.091,0,.325,0,.325.22,0,.182-.234.182-.351.182H646.04c-.078,0-.338,0-.338-.208s.169-.208.572-.208a.826.826,0,0,0,.845-.663c.052-.312.052-3.471.052-5.135a18.608,18.608,0,0,0-.091-2.34c-.169-.494-.715-.494-.962-.494-.2,0-.416,0-.416-.221s.247-.208.338-.208h3.315c.13,0,.351,0,.351.195,0,.221-.221.221-.377.221-1.17,0-1.17.39-1.17,2.054,0,.234,0,1.664.052,1.781a.314.314,0,0,0,.3.169Z" fill="#333"/>
    <path id="パス_321" data-name="パス 321" d="M665.086,1130.533c-.143,0-.312-.039-.312-.208,0-.208.208-.208.52-.208a.571.571,0,0,0,.534-.572,7.073,7.073,0,0,0-.481-1.521c-.287-.728-.326-.819-.754-.819h-2.822c-.481,0-.533.13-.741.715a10.355,10.355,0,0,0-.468,1.691c0,.506.416.506.728.506.156,0,.3.026.3.208,0,.208-.2.208-.3.208h-2.5c-.1,0-.273-.013-.273-.194,0-.222.143-.222.442-.222a1.093,1.093,0,0,0,.988-.52,38.539,38.539,0,0,0,1.547-4.381c.169-.52,1-3.068,1.17-3.653.13-.455.208-.754,1.131-.754a.3.3,0,0,1,.286.208,8.588,8.588,0,0,1,.43,1.17c.91,2.821.987,3.133,1.807,5.538.74,2.21.832,2.392,1.572,2.392.169,0,.3.079.3.222,0,.194-.208.194-.3.194Zm-.611-3.757c.144,0,.326-.065.326-.208,0-.273-1.236-3.887-1.47-4.589-.078-.221-.1-.338-.194-.338s-.092.039-.235.468c-.364,1.053-1.378,4.355-1.378,4.472,0,.195.2.195.365.195Z" fill="#333"/>
    <path id="パス_322" data-name="パス 322" d="M679.113,1130.053c-.091-.234-.65-1.7-.65-1.782a.275.275,0,0,1,.286-.273c.143,0,.169.065.481.546a3.838,3.838,0,0,0,3.055,1.781,1.873,1.873,0,0,0,1.924-1.962c0-1.184-.78-1.6-2.431-2.172-1.807-.624-3-1.313-3-2.86a2.45,2.45,0,0,1,2.6-2.522,5.139,5.139,0,0,1,.923.1c.143.026.689.143.78.143a.494.494,0,0,0,.286-.078c.182-.143.208-.169.3-.169.156,0,.195.117.325.455.091.208.7,1.742.7,1.82a.2.2,0,0,1-.221.208c-.1,0-.13-.039-.338-.377a3.013,3.013,0,0,0-2.652-1.677,1.663,1.663,0,0,0-1.768,1.716c0,1.079.78,1.469,2.483,2.067,2.626.91,2.977,1.95,2.977,2.951a2.757,2.757,0,0,1-2.821,2.809,4.157,4.157,0,0,1-1.4-.261,1.733,1.733,0,0,0-.52-.13.676.676,0,0,0-.494.169c-.221.2-.247.222-.377.222C679.386,1130.781,679.36,1130.7,679.113,1130.053Z" fill="#333"/>
    <path id="パス_323" data-name="パス 323" d="M694.642,1125.476c.351,0,.351-.078.351-1.794,0-1.885,0-2.21-1.209-2.21-.1,0-.338,0-.338-.221,0-.195.234-.195.351-.195h3.315c.091,0,.338,0,.338.208s-.169.221-.572.221a.825.825,0,0,0-.793.481c-.1.273-.117.312-.117,5.018a20.787,20.787,0,0,0,.1,2.639c.182.494.715.494.962.494.2,0,.416,0,.416.208s-.247.208-.338.208H693.8c-.13,0-.351,0-.351-.194s.234-.208.377-.208a1.269,1.269,0,0,0,.91-.261c.26-.259.26-.273.26-2.651,0-1.21,0-1.313-.351-1.313h-3.5a.346.346,0,0,0-.3.155c-.052.143-.052,1.43-.052,1.678,0,2.131,0,2.392,1.221,2.392.092,0,.326,0,.326.22,0,.182-.234.182-.351.182h-3.315c-.078,0-.339,0-.339-.208s.17-.208.573-.208a.826.826,0,0,0,.845-.663c.052-.312.052-3.471.052-5.135a18.608,18.608,0,0,0-.091-2.34c-.169-.494-.716-.494-.963-.494-.2,0-.416,0-.416-.221s.247-.208.339-.208h3.315c.129,0,.351,0,.351.195,0,.221-.222.221-.377.221-1.17,0-1.17.39-1.17,2.054,0,.234,0,1.664.052,1.781a.314.314,0,0,0,.3.169Z" fill="#333"/>
    <path id="パス_324" data-name="パス 324" d="M704.99,1130.781c-2.51,0-4.252-2.055-4.252-4.98s1.73-4.992,4.252-4.992c2.5,0,4.238,2.054,4.238,4.992C709.228,1128.713,707.5,1130.781,704.99,1130.781Zm3-5.1c0-1.2-.338-4.446-3-4.446-2.912,0-3.017,3.822-3.017,4.68,0,1.248.377,4.433,3.017,4.433C707.889,1130.351,707.993,1126.568,707.993,1125.684Z" fill="#333"/>
    <path id="パス_325" data-name="パス 325" d="M716.351,1121.056c.624,0,3.589.065,3.589,2.249a2.532,2.532,0,0,1-1.73,2.275c-.454.221-.507.247-.507.39a23,23,0,0,0,1.353,3.107,1.618,1.618,0,0,0,1.534,1.04c.13,0,.39,0,.39.208,0,.183-.26.208-.325.208H719.03a.639.639,0,0,1-.612-.376c-.077-.13-1-2.145-1.144-2.471-.715-1.572-.8-1.78-1.26-1.78H715.3c-.091,0-.26.051-.3.155-.051.13-.051,1.847-.051,2.145,0,1.574,0,1.911,1.2,1.911.091,0,.273,0,.273.208s-.234.208-.377.208h-3.211c-.13,0-.325-.025-.325-.208,0-.208.182-.208.365-.208.9,0,1.026-.416,1.065-.9.026-.441.026-4.017.026-4.628a20.894,20.894,0,0,0-.1-2.626c-.169-.481-.728-.481-1.027-.481-.078,0-.351,0-.351-.234,0-.195.234-.195.391-.195Zm-.467.429c-.936,0-.936.585-.936,1.924,0,2.041,0,2.081.35,2.081h1.053a2.1,2.1,0,0,0,2.353-2.055c0-.91-.494-1.95-2.184-1.95Z" fill="#333"/>
    <path id="パス_326" data-name="パス 326" d="M731.152,1121.056c.7,0,.858,0,1.079.585.1.286.663,1.755.663,1.885a.2.2,0,0,1-.208.195c-.1,0-.143-.052-.442-.546a2.847,2.847,0,0,0-2.34-1.69c-.507,0-.819.208-.9.65-.039.234-.039,3.172-.039,3.718,0,.364,0,3.367.039,3.589.117.662.728.675,1.079.675.481,0,.585,0,.585.208s-.182.208-.39.208h-3.64c-.182,0-.377,0-.377-.208s.208-.208.286-.208c.767,0,1.248,0,1.378-.675a34.553,34.553,0,0,0,.039-3.68c0-3.211,0-3.562-.091-3.809a.811.811,0,0,0-.832-.468,2.968,2.968,0,0,0-2.34,1.677c-.312.507-.338.559-.455.559a.211.211,0,0,1-.208-.195c0-.1.585-1.664.689-1.924.208-.546.416-.546,1.066-.546Z" fill="#333"/>
    <path id="パス_327" data-name="パス 327" d="M750.548,1121.056c.7,0,.858,0,1.079.585.1.286.663,1.755.663,1.885a.2.2,0,0,1-.208.195c-.1,0-.143-.052-.442-.546a2.847,2.847,0,0,0-2.34-1.69c-.507,0-.819.208-.9.65-.039.234-.039,3.172-.039,3.718,0,.364,0,3.367.039,3.589.117.662.728.675,1.079.675.481,0,.585,0,.585.208s-.182.208-.39.208h-3.64c-.182,0-.377,0-.377-.208s.208-.208.286-.208c.767,0,1.248,0,1.378-.675a34.553,34.553,0,0,0,.039-3.68c0-3.211,0-3.562-.091-3.809a.811.811,0,0,0-.832-.468,2.968,2.968,0,0,0-2.34,1.677c-.312.507-.338.559-.455.559a.211.211,0,0,1-.208-.195c0-.1.585-1.664.689-1.924.208-.546.416-.546,1.066-.546Z" fill="#333"/>
    <path id="パス_328" data-name="パス 328" d="M761.5,1130.533c-.143,0-.312-.039-.312-.208,0-.208.208-.208.52-.208a.57.57,0,0,0,.533-.572,7.073,7.073,0,0,0-.481-1.521c-.286-.728-.325-.819-.754-.819h-2.821c-.481,0-.533.13-.741.715a10.36,10.36,0,0,0-.468,1.691c0,.506.416.506.728.506.156,0,.3.026.3.208,0,.208-.2.208-.3.208h-2.5c-.1,0-.273-.013-.273-.194,0-.222.143-.222.442-.222a1.093,1.093,0,0,0,.988-.52,38.539,38.539,0,0,0,1.547-4.381c.169-.52,1-3.068,1.17-3.653.13-.455.208-.754,1.131-.754a.3.3,0,0,1,.286.208,8.584,8.584,0,0,1,.429,1.17c.91,2.821.988,3.133,1.807,5.538.741,2.21.832,2.392,1.573,2.392.169,0,.3.079.3.222,0,.194-.208.194-.3.194Zm-.611-3.757c.143,0,.325-.065.325-.208,0-.273-1.235-3.887-1.469-4.589-.078-.221-.1-.338-.2-.338s-.091.039-.234.468c-.364,1.053-1.378,4.355-1.378,4.472,0,.195.2.195.364.195Z" fill="#333"/>
    <path id="パス_329" data-name="パス 329" d="M772.044,1130.117a3.837,3.837,0,0,0,3.276-1.768c.247-.363.273-.4.364-.4a.182.182,0,0,1,.2.194c0,.079-.494,1.352-.572,1.56-.325.819-.377.832-1.222.832h-5.447c-.2,0-.377,0-.377-.208s.143-.208.468-.208a.862.862,0,0,0,.988-.675c.039-.222.039-3.212.039-3.589,0-.52,0-3.471-.039-3.705-.117-.663-.689-.663-1.17-.663-.091,0-.286,0-.286-.208s.182-.221.377-.221h3.224c.208,0,.39,0,.39.221s-.143.208-.468.208a.87.87,0,0,0-.988.663c-.039.234-.039,3-.039,3.614a34.553,34.553,0,0,0,.039,3.68.831.831,0,0,0,.9.675Z" fill="#333"/>
    <path id="パス_330" data-name="パス 330" d="M784.642,1130.533c-.129,0-.325,0-.325-.208s.182-.208.377-.208c.416,0,.559-.221.559-.416a.774.774,0,0,0-.051-.286c-.04-.116-1.366-2.223-1.521-2.483-.7-1.118-.781-1.248-.924-1.248s-.364.2-.65.507c-.52.572-.571.7-.571,1.2v1.833c0,.9.7.9,1.091.9.117,0,.261.04.261.208,0,.208-.2.208-.312.208h-3.082c-.13,0-.325,0-.325-.208s.182-.208.364-.208c.455,0,.975-.168.975-.9v-6.838c0-.9-.7-.9-1.092-.9-.1,0-.247-.039-.247-.208,0-.221.2-.221.312-.221h3.068c.143,0,.339,0,.339.221s-.2.208-.365.208c-.416,0-.987.143-.987.9v3.328c0,.117.012.26.155.26.065,0,.117-.064.143-.078.118-.13,2.094-2.288,2.483-2.717.832-.91.936-1.014.936-1.261,0-.429-.507-.429-.884-.429-.039,0-.26,0-.26-.208s.2-.221.339-.221h3.211c.155,0,.351,0,.351.221s-.182.208-.43.208a2.5,2.5,0,0,0-1.521.481c-.273.208-1.69,1.768-2.235,2.366a.6.6,0,0,0-.208.4,1,1,0,0,0,.194.468c.495.78.715,1.131,2.718,4.3a1.868,1.868,0,0,0,1.429.61c.247,0,.247.183.247.208,0,.208-.194.208-.312.208Z" fill="#333"/>
    <path id="パス_331" data-name="パス 331" d="M633.681,1095.537c0,.824-1.9,1.574-2.5,1.824-.35.125-.375.225-.425,1.1-.05.55-.05,2.574-.05,2.7,0,.15,0,.45.225.45.075,0,2.124-.85,2.524-1a11.759,11.759,0,0,1,4.249-1,3.826,3.826,0,0,1,3.849,3.774c0,3.3-3.474,4.8-5.523,4.8-1.425,0-2.575-.725-2.575-2.025a2.226,2.226,0,0,1,1.25-1.974.134.134,0,0,1,.125.125c0,.075-.05.125-.1.2a1.028,1.028,0,0,0-.225.674c0,1.2,1.375,1.2,1.624,1.2,1.65,0,3.75-1.1,3.75-3.1a2.59,2.59,0,0,0-2.4-2.75c-.7,0-2.249.325-5.173,1.875-1.4.75-1.55.825-1.55,1.25,0,.275.075,1.4.075,1.649,0,1.15-.375,2.8-1.275,2.8-.675,0-.95-.525-1.149-.925-.8-1.55-.925-1.55-1.25-1.55a2.075,2.075,0,0,0-.625.15,4.943,4.943,0,0,1-.95.5c-.275,0-1.549-.75-1.549-1.574,0-.45.274-.975.724-.975.15,0,.875.125,1.025.125a5.338,5.338,0,0,0,2.6-.85c1.275-.625,1.425-.7,1.425-1.4,0-.575-.025-2.7-.05-3.124,0-.175-.075-.55-.35-.55a5.858,5.858,0,0,0-1.15.225,5.352,5.352,0,0,1-1.774.475c-.85,0-1.8-1.725-1.8-1.9a.177.177,0,0,1,.2-.175c.075,0,.375.1.45.1a7.27,7.27,0,0,0,1.15.125,10.916,10.916,0,0,0,3.174-.749,18.694,18.694,0,0,0,.25-2.725,2.453,2.453,0,0,0-.825-2,2.5,2.5,0,0,1-.35-.4c0-.225.4-.275.55-.275a2.505,2.505,0,0,1,2.574,1.7,9.929,9.929,0,0,1-.525,1.3,13.592,13.592,0,0,0-.249,1.625c0,.1.05.275.2.275.174,0,.875-.275.875-.625,0-.05-.125-.3-.125-.35,0-.025.049-.075.1-.1C632.481,1094.412,633.681,1094.762,633.681,1095.537Zm-5.7,9.572c0,.375.675,1.175,1.05,1.175.35,0,.7-.7.7-1.925,0-.1,0-.349-.075-.4C629.582,1103.96,627.982,1104.759,627.982,1105.109Zm16.422-7.773c0,.525-.3,1.2-.826,1.2-.149,0-.724-.05-.849-.05-.125.025-.65.175-.75.175a.117.117,0,0,1-.125-.125,1.711,1.711,0,0,1,.075-.2,1.316,1.316,0,0,0,.1-.45c0-1-1.25-1.35-2.1-1.35a2.17,2.17,0,0,0-.975.25.558.558,0,0,1-.25.075c-.075,0-.1-.025-.1-.1a3.2,3.2,0,0,1,2.7-1.574C643.229,1095.187,644.4,1096.187,644.4,1097.336Z" fill="#333"/>
    <path id="パス_332" data-name="パス 332" d="M670.182,1097.811a22.033,22.033,0,0,0,6.049,1.975c.1,0,.525.075.525.174,0,.076-.35.176-.45.2a4.328,4.328,0,0,0-1.9,1.35c-.075.1-.349.625-.474.625-.15,0-5.574-2.624-8.023-6.623-.476-.8-.55-.875-.726-.875s-.225.05-.774.625a29.711,29.711,0,0,1-7.4,5.823,21.631,21.631,0,0,1-3.925,1.6c-.074,0-.125-.05-.125-.075s2.675-1.675,2.9-1.825c3.374-2.124,6.948-5.948,7.3-7.823.025-.2.05-.275.225-.275.125,0,2.15.775,2.275.85.074.025.324.125.324.375a1.561,1.561,0,0,1-.1.35C665.933,1094.637,668.083,1096.736,670.182,1097.811Zm-12.047-6.223c-1.849,0-2.7.05-3.174.075-.075,0-.45.05-.525.05s-.125-.05-.225-.15l-.475-.575c-.1-.125-.1-.125-.1-.175s.024-.05.074-.05c.175,0,.95.075,1.1.075,1.225.05,2.274.1,3.449.1h.725c.525,0,.675-.25.675-.675a4.064,4.064,0,0,0-.2-1.325,3.826,3.826,0,0,1-.15-.5c0-.125.125-.176.275-.176.175,0,1.3.275,1.575.35.75.2.9.25.9.475,0,.15-.024.2-.375.65a.613.613,0,0,0-.174.45c0,.6.2.75.874.75h4.124c.225,0,.75,0,.75-.675a10.388,10.388,0,0,0-.075-1.125c-.025-.125-.15-.65-.15-.75,0-.125.15-.175.275-.175.175,0,1.874.4,2.149.475s.425.175.425.4c0,.15-.1.25-.374.45a.8.8,0,0,0-.326.7c0,.7.4.7.8.7h1.275c1.1,0,1.225,0,1.6-.425.7-.825.775-.925,1-.925.15,0,2.325,1.325,2.325,1.65,0,.35-.5.35-1.325.35h-4.874c-.775,0-.775.4-.775,1,0,.15.026,1,.026,1.125,0,.925-.75,1.075-1.275,1.075-.575,0-.675-.1-.675-.95v-1.724c-.075-.475-.375-.525-.775-.525h-4c-.575,0-.925,0-.925.7,0,.25.076,1.35.076,1.575,0,.475-.076.7-.3.85a1.779,1.779,0,0,1-.95.35c-.425,0-.625-.275-.625-.775,0-.2.025-1.15.025-1.325,0-.974,0-1.374-.775-1.374Zm1.775,12.771a12.785,12.785,0,0,1,1.924,1.175.621.621,0,0,1,.2.375c0,.3-.2.35-.8.5-.075.025-2.225,1.7-2.625,2a15.344,15.344,0,0,1-3.8,2.175.08.08,0,0,1-.075-.075c0-.05,1.325-1.2,1.5-1.375a14.419,14.419,0,0,0,3.574-4.748A.146.146,0,0,1,659.91,1104.359Zm1.149-1.324c-1.949,0-2.674.025-3.174.075-.075,0-.45.05-.524.05s-.125-.05-.225-.15l-.475-.575c-.1-.125-.1-.125-.1-.175,0-.025.025-.05.075-.05.174,0,.949.075,1.1.075,1.225.075,2.275.1,3.449.1h1.875c.25,0,.75,0,.75-.675,0-.3-.15-2.324-.2-2.574,0-.05-.15-.3-.15-.35s.05-.15.25-.15c.175,0,1.925.375,2.174.45.35.075.475.3.475.425,0,.15-.05.2-.425.525-.35.3-.35.449-.35,1.2,0,.9,0,1.15.75,1.15h1.1c1.1,0,1.225,0,1.6-.425.7-.825.774-.925,1-.925.149,0,2.324,1.35,2.324,1.65,0,.35-.5.35-1.325.35h-4.724c-.75,0-.75.45-.75,1.249,0,1.775,0,2.775.05,4.249.026.425.026,1.025.026,1.325,0,.8-.2,1.275-1.275,1.275-.55,0-.6-.45-.6-.875,0-.325.075-1.824.075-2.149.025-.95.025-1.875.025-3.025a15.132,15.132,0,0,0-.05-1.7c-.125-.35-.525-.35-.725-.35Zm6.674,2.1c0-.075.125-.1.225-.1.925,0,6.623,1.575,6.623,3.649,0,.8-.45,1.425-1.074,1.425-.475,0-.575-.125-1.35-1.274a11.875,11.875,0,0,0-4.3-3.6C667.833,1105.234,667.733,1105.159,667.733,1105.134Z" fill="#333"/>
    <path id="パス_333" data-name="パス 333" d="M687.945,1101.535c0-.75.7-1.549,2.4-3.524a11.493,11.493,0,0,0,2.124-3.724c0-.15-.175-.175-.275-.175-.25,0-1.275.2-1.5.2a2.653,2.653,0,0,1-2.225-2.2c0-.075,0-.175.15-.175a5.612,5.612,0,0,1,.95.474,3.973,3.973,0,0,0,1.65.45c2.049,0,2.049-.674,2.049-1.174a2,2,0,0,0-.2-.875c-.075-.125-.6-.575-.6-.725,0-.2.65-.4,1.1-.4.6,0,1.225.225,1.275.775.025.325.125.375,1.124.45.175,0,1.125.125,1.125.65,0,.824-1.825,1.524-2.974,1.974-.375.15-.4.2-.95,1.475a19.374,19.374,0,0,1-1.35,2.7c-.125.225-.175.3-.175.4a.092.092,0,0,0,.1.1,5,5,0,0,0,.775-.275,2.337,2.337,0,0,1,.975-.2,2.255,2.255,0,0,1,2.125,1.525c.174.425.2.475.25.475a11.855,11.855,0,0,0,1.024-1.35c.825-1.15,2.45-3.424,4.624-3.424a2.359,2.359,0,0,1,2.35,2.224c0,1.175-1.975,2-3.525,2.675-.625.275-3.449,1.4-3.9,1.674-.4.25-.425.525-.425,1.05,0,.225.05,1.275.05,1.5,0,.4,0,1.824-.925,1.824-.674,0-.774-.825-.774-1.275,0-.249.075-1.449.075-1.474,0-.1,0-.3-.175-.3-.2,0-2.425,1.549-2.425,2.974,0,1.725,2.5,1.725,3.225,1.725a7.737,7.737,0,0,0,1.6-.15c.35-.05,1.95-.45,2.275-.45.525,0,1.224.25,1.224.85,0,1.549-3.874,1.649-4.474,1.649-3.174,0-4.848-1.3-4.848-3.274,0-1.6.949-2.4,3.3-4.3a1.065,1.065,0,0,0,.375-.875c0-1.124-.2-2.524-1.2-2.524-.95,0-2.425,1.15-3.075,2.649-.274.625-.549,1.225-1.349,1.225C688.42,1102.36,687.945,1102.21,687.945,1101.535Zm6.374-9.448c.05,0,1.249-.325,1.249-.6,0-.325-.624-.375-.849-.375-.35,0-.45.7-.45.8S694.269,1092.087,694.319,1092.087Zm2.274,8.1c0,.049.025.125.1.125s5-2,5-3.65a.769.769,0,0,0-.875-.749C698.743,1095.912,696.593,1099.786,696.593,1100.186Z" fill="#333"/>
    <path id="パス_334" data-name="パス 334" d="M724.448,1091.038c0,.225-1.175,2.324-1.175,2.749,0,.175.125.35.45.575.6.425.9.7.9,1.075,0,.4-.275.6-1.85,1.149-.675.225-.724.4-1.2,1.975a13.017,13.017,0,0,0-.525,2.174c0,.4.1.4,1.849.55.6.05,1.775.425,1.775,1.05,0,.45-.675.725-1.3.725-.375,0-2.174-.325-2.3-.325-.625,0-.625,1.175-.625,1.725.025,1.124.325,3.724,3.449,3.724a3.318,3.318,0,0,0,3.6-3.4c0-1.074-.225-2.5-2.474-5.648a.4.4,0,0,1-.1-.25c0-.225.55.25.625.3,2.874,2.324,4,4.3,4,6.048,0,2.375-2.4,4.5-5.324,4.5-.475,0-4.774,0-4.774-4.524,0-.4.2-2.1.2-2.449,0-.3-.05-.475-.475-.8a2.716,2.716,0,0,1-1.349-2.125c0-.749.274-1.574,1.849-2.849,1.3-1.049,1.45-1.15,1.45-1.5,0-.325-.125-.425-.675-.85-.725-.575-1.675-1.325-1.675-2.375,0-.175.051-.449.225-.449.125,0,.55.524.65.6a3.7,3.7,0,0,0,1.7.875c.7,0,.9-2.224.9-2.574a6.564,6.564,0,0,0-.25-1.675.5.5,0,0,1-.049-.25C722.7,1088.713,724.448,1090.363,724.448,1091.038Zm-4.149,6.3c-.575,0-1.825.85-1.825,1.8a1.641,1.641,0,0,0,1.275,1.5.319.319,0,0,0,.275-.2,16.165,16.165,0,0,0,.6-2.675C720.624,1097.561,720.624,1097.336,720.3,1097.336Z" fill="#333"/>
    <path id="パス_335" data-name="パス 335" d="M742.688,1100.535c0-.3.15-.4.349-.4s1.05.25,1.225.25c.475,0,.75-.125,3.174-1.125a17.349,17.349,0,0,1,5.549-1.475,4.994,4.994,0,0,1,5.1,4.949c0,3.849-4.074,5.8-7.923,5.8-.25,0-.625,0-.625-.3,0-.224.1-.249.875-.349,4.574-.625,6.023-3.8,6.023-5.9a3.244,3.244,0,0,0-3.124-3.4c-1.574,0-3.649,1-6.1,2.624-1.45.975-1.625,1.075-2.175,1.075A2.565,2.565,0,0,1,742.688,1100.535Z" fill="#333"/>
    <path id="パス_336" data-name="パス 336" d="M774.527,1101.36c.749-.7,1.074-1.025,1.074-1.349a6.181,6.181,0,0,0-.225-.775,8.061,8.061,0,0,1-.424-2.924c0-.575.125-3.475.125-4.124a2.339,2.339,0,0,0-.75-2.025c-.525-.55-.6-.625-.6-.7,0-.1.6-.125.675-.125,1.425,0,2.7,1.15,2.7,1.875,0,.225-.3,1.349-.35,1.6a23.536,23.536,0,0,0-.225,3.3c0,.949,0,2.974.65,2.974.35,0,.5-.1,1.85-.95a7.718,7.718,0,0,1,2.574-1.175.96.96,0,0,1,.95.925c0,.75-1.025,1.15-1.925,1.5-5.948,2.4-6.8,4.224-6.8,5.848,0,1.7,1.449,2.325,3.474,2.325a11.176,11.176,0,0,0,3-.45,6.8,6.8,0,0,1,1.875-.375c.85,0,1.65.575,1.65,1.2,0,1.274-5.1,1.4-6.424,1.4-1.15,0-4.774,0-4.774-3.924A5.667,5.667,0,0,1,774.527,1101.36Z" fill="#333"/>
    <path id="パス_337" data-name="パス 337" d="M800.488,1103.11c-2.2,0-2.925.05-3.175.05a3.745,3.745,0,0,1-.525.075c-.1,0-.125-.075-.224-.175l-.475-.575a.38.38,0,0,1-.1-.15.066.066,0,0,1,.075-.075c.175,0,.95.1,1.1.1,1.225.05,2.25.075,3.425.075h5.348c.475,0,.65-.125.65-.675a9.07,9.07,0,0,0-.125-1.249c-.025-.151-.225-.825-.225-.975,0-.125.025-.3.35-.3.2,0,1.5.35,1.675.4.2.075.425.175.425.4a4.462,4.462,0,0,1-.3.6,1.315,1.315,0,0,0-.225.925c0,.6.025.875.75.875h5.148c1.075,0,1.2,0,1.425-.225.175-.15.825-1.05,1.05-1.05a5.764,5.764,0,0,1,1.874,1.6c0,.35-.525.35-1.35.35h-7.547c-.225,0-.426,0-.426.275,0,.825,4.524,4.349,9.6,4.773.05,0,.45.026.45.1s-.025.075-.3.149a2.964,2.964,0,0,0-2.074,1.525c-.125.3-.125.35-.225.35-.25,0-5.949-2.649-7.9-6.148-.15-.3-.2-.4-.3-.4-.175,0-.175.3-.175.35,0,.949.15,5.048.15,5.9a.967.967,0,0,1-.975,1.075c-.275,0-.95-.15-.95-1.125,0-.875.175-4.7.175-5.473,0-.075,0-.25-.175-.25a9.31,9.31,0,0,0-1.2,1.1,18.17,18.17,0,0,1-8.572,4.324c-.675.125-1.075.2-1.125.2-.075,0-.125-.025-.125-.1s.05-.1.425-.25c4.274-1.624,8.848-5.3,8.848-6.1,0-.275-.4-.275-.575-.275Zm-1.575-2.225c-.025.15-.025.4-.35.4-.2,0-2.1-1.374-2.1-1.749,0-.15.074-.175.8-.55.924-.475,5.373-3.7,5.4-3.7a.08.08,0,0,1,.075.075c0,.225-3.049,4.074-3.6,4.774A1.171,1.171,0,0,0,798.913,1100.885Zm1.4-6.823c-.475,0-.65-.3-.85-.675a9.044,9.044,0,0,0-2.4-2.9,1.419,1.419,0,0,1-.2-.175c0-.05.049-.075.125-.075a6.953,6.953,0,0,1,2.1.5c1.8.725,2.249,1.149,2.249,2.149A1.114,1.114,0,0,1,800.313,1094.062Zm8.772-2.974a1.28,1.28,0,0,0,.875-.25c.1-.1.55-.75.7-.75.2,0,1.7,1,1.7,1.425a.566.566,0,0,1-.2.35c-.325.3-.35.325-.35.575,0,.849.225,4.948.225,5.9,0,.9-.45,1.5-1.15,1.5-.675,0-.724-.6-.75-.8-.05-.65-.325-.7-.7-.7h-3.874a.613.613,0,0,0-.724.575c-.026.475-.075,1.249-1.15,1.249-.725,0-.725-.549-.725-.8,0-.675.15-4,.15-4.749a23.448,23.448,0,0,0-.2-3.4,8.011,8.011,0,0,1-.175-.825c0-.175.125-.225.3-.225.325,0,1.7.925,2.049.925.45,0,.676-1.375.676-2,0-.1-.051-.525-.051-.625,0-.225.125-.274.375-.274s2.375.449,2.375.924c0,.15-.075.2-.65.575-.175.125-1.3.975-1.3,1.225,0,.175.15.175.475.175Zm.25,3.124c.826,0,.826-.4.826-1.2,0-.9,0-1.274-.826-1.274h-3.749c-.824,0-.824.375-.824,1.149,0,1,0,1.325.824,1.325Zm.026,3.449c.8,0,.8-.3.8-1.45,0-1,0-1.349-.8-1.349h-3.775c-.824,0-.824.375-.824,1.2,0,1.349,0,1.6.824,1.6Zm7.8,2.749c-.4,0-.475-.1-2.05-1.849-.4-.45-2.649-2.725-2.649-2.774,0-.075.05-.075.075-.075.25,0,5.323,1.449,5.323,3.874C817.858,1100.21,817.484,1100.41,817.159,1100.41Zm-3.924-6.023c-.075,0-.1-.05-.1-.075s.625-.75.749-.9a10.85,10.85,0,0,0,1.85-3.174c.05-.35.05-.425.2-.425a6.256,6.256,0,0,1,2.324,1.775c0,.2-.125.225-.525.325a1.891,1.891,0,0,0-.874.4A18.2,18.2,0,0,1,813.235,1094.387Z" fill="#333"/>
    <path id="パス_338" data-name="パス 338" d="M834.617,1092.387a11.324,11.324,0,0,1-.476,1.4,60.2,60.2,0,0,0-1.049,8.9c0,2.524.475,4.774,3.824,4.774a12.307,12.307,0,0,0,5.248-1.3c.375-.175,2.275-1.225,2.375-1.225a.117.117,0,0,1,.125.125,11.688,11.688,0,0,1-8.4,4.3c-3.249,0-4.8-1.874-4.8-6.9a56.976,56.976,0,0,1,.575-6.948c.1-.825.325-2.875.325-3.574a3.149,3.149,0,0,0-.225-1.225c-.025-.075-.275-.65-.275-.675,0-.175.2-.25.35-.25C833.517,1089.788,834.617,1091.813,834.617,1092.387Z" fill="#333"/>
    <path id="パス_339" data-name="パス 339" d="M862.161,1090.563c.2.85.25,1.075.8,1.125,1.175.125,1.625.175,1.625.924,0,.625-.55,1.025-1.4,1.4-.25.1-1.424.45-1.674.6-.375.225-.475,1.775-.475,2.049a.753.753,0,0,0,.275.6,2.624,2.624,0,0,1,.825,2.025,4.139,4.139,0,0,1-1.325,3.124c-.275.2-.35.275-.35.55,0,.225.275,1.25.275,1.5a.9.9,0,0,1-.55.824c-.45.225-.55.275-.55.55,0,1.25,1.425,1.825,4.2,1.825,4.6,0,5.1-1.225,5.174-5.6.05-2.2.15-6.6,2.824-6.6,1.55,0,3.124,2.949,3.124,4.373a1.08,1.08,0,0,1-.824,1.175,9.233,9.233,0,0,1-1.2-.624c-.25-.075-1.575-.375-1.575-.525s.875-.375,1.025-.475a.857.857,0,0,0,.475-.875c0-1.075-.65-2.225-1.475-2.225-1.45,0-1.749,2.2-1.749,4.9,0,.825.1,2.2.174,2.925.051.374.426,2.149.426,2.574,0,2.624-5.049,2.724-6.324,2.724-4.924,0-5.249-2.2-5.249-2.849,0-.225.2-1.225.2-1.45,0-.325-.05-.375-.55-.95a6.985,6.985,0,0,1-1.424-4.023,3.285,3.285,0,0,1,2.074-3.15c.125-.05.775-.2.925-.25.175-.05.225-1.349.225-1.449,0-.325-.125-.35-.275-.35-.25,0-1.525.325-1.824.325a2.347,2.347,0,0,1-1.9-2.1c0-.075.025-.35.2-.35.2,0,1.15.275,1.375.325a6.068,6.068,0,0,0,1.474.15c1.175,0,1.375,0,1.375-.925a3.993,3.993,0,0,0-.4-1.724c-.075-.15-.575-.775-.575-.95,0-.325.625-.275.825-.25C860.962,1089.538,862.012,1089.913,862.161,1090.563Zm-2.749,7.573c-.625,0-1.375.7-1.375,2,0,.874.451,1.824,1.15,1.824.3,0,.425-.325.5-.55a20.877,20.877,0,0,0,.3-2.474C859.987,1098.386,859.787,1098.136,859.412,1098.136Zm2.4-5.674c0,.175.051.25.176.25.025,0,.849-.225.849-.5a.5.5,0,0,0-.525-.4.6.6,0,0,0-.25.05C861.811,1092.012,861.811,1092.412,861.811,1092.462Z" fill="#333"/>
    <path id="パス_340" data-name="パス 340" d="M891.909,1096.686c-.35.05-.6.25-1.249,1.1a28.7,28.7,0,0,1-5.3,5.874,4.472,4.472,0,0,1-1.4.85c-.05,0-.1,0-.1-.05s1.275-1.625,1.5-1.95a35.842,35.842,0,0,0,4-6.823c.325-.85.35-.95.475-.95a16.435,16.435,0,0,1,2.374,1.1c.3.176.425.426.325.625C892.459,1096.636,892.359,1096.636,891.909,1096.686Zm5.574-7.148c0,.2-.1.275-.475.6-.2.15-.325.4-.35,1-.075,1.474-.1,3-.1,4.5,0,2.2,0,10.822-.025,11.7a3.078,3.078,0,0,1-1.15,2.749,3.433,3.433,0,0,1-1.774.675c-.125,0-.125,0-.4-.75-.3-.775-.55-.95-1.65-1.549-.3-.176-.524-.3-.524-.4s.149-.1.274-.1c.3,0,1.6.125,1.875.125.575,0,1.225-.1,1.425-.775.175-.625.175-6.974.175-8.073,0-4.474-.1-7.773-.15-9.573,0-.15-.1-.775-.1-.925s.174-.175.274-.175c.2,0,1,.175,1.25.225C896.708,1088.913,897.483,1089.088,897.483,1089.538Zm8.023,14.672c-.55,0-.575-.025-1.725-2.1a29.057,29.057,0,0,0-4.174-5.848c-.225-.225-.449-.5-.449-.625,0-.1.1-.1.149-.1.575,0,7.1,3.8,7.1,7.148C906.406,1102.96,906.406,1104.21,905.506,1104.21Z" fill="#333"/>
    <path id="パス_341" data-name="パス 341" d="M922.115,1093.012c.3,0,.4,0,.65-.375.625-.875.675-.974.9-.974.375,0,2.05,1.3,2.05,1.7,0,.3-.325.3-.925.3h-5.7c-.525,0-1.35,0-2.025.05a4.409,4.409,0,0,1-.525.075c-.075,0-.1-.05-.15-.15l-.35-.575c-.049-.125-.074-.125-.074-.175,0-.025.025-.05.074-.05,0,0,.525.075.625.075.65.05,1.9.1,2.525.1Zm-.725,3c.375,0,.4-.025.7-.375.55-.6.6-.675.725-.675.425,0,1.7,1.05,1.7,1.4,0,.3-.375.3-1.075.3h-3.1c-.45,0-1.4,0-2.049.05-.075,0-.425.075-.5.075s-.125-.075-.175-.15l-.325-.6c-.075-.1-.075-.125-.075-.15s.025-.051.075-.051c0,0,.5.051.6.076.65.049,1.9.1,2.524.1Zm-1.524,12.822c-.775,0-.775.324-.775.949a1.051,1.051,0,0,1-1.075,1.075c-.7,0-.7-.625-.7-.825,0-.675.075-4.074.075-4.849a13,13,0,0,0-.075-1.949c0-.1-.1-.625-.1-.725,0-.15.05-.325.225-.325a3.556,3.556,0,0,1,.975.3,1.976,1.976,0,0,0,1.175.325h1.8a.917.917,0,0,0,.825-.275c.35-.425.4-.475.6-.475.125,0,1.7.6,1.7,1.15,0,.15-.15.275-.25.35-.275.175-.326.225-.351.35-.024.1-.024,2.724-.024,2.849,0,.55,0,.825.024,1.1.025.15.125.924.125,1.024a1.1,1.1,0,0,1-1.149,1.05c-.475,0-.5-.2-.575-.675-.075-.424-.575-.424-.7-.424Zm.549-18.221c-.625,0-1.474,0-2.049.05-.075,0-.45.075-.525.075-.05,0-.1-.075-.15-.15l-.325-.575c-.075-.125-.075-.125-.075-.175,0-.025,0-.05.05-.05.025,0,.525.05.625.075.65.05,1.9.1,2.525.1.7,0,.724,0,1.024-.375.575-.775.65-.875.825-.875.35,0,1.749,1.175,1.749,1.575,0,.325-.324.325-.874.325Zm1.275,8.773a.651.651,0,0,0,.7-.35c.325-.425.475-.65.675-.65a3.567,3.567,0,0,1,1.474,1.375c0,.3-.375.3-1.024.3h-3.1a15,15,0,0,0-2.2.075c-.05,0-.3.05-.35.05-.075,0-.1-.05-.175-.175l-.325-.575c-.075-.1-.075-.125-.075-.15,0-.05.025-.05.075-.05,0,0,.525.075.625.075.7.075,1.824.075,2.5.075Zm-1.925,4.1c-.274,0-.75.025-.75.725,0,.8,0,2.974.1,3.524.075.45.475.45.725.45h1.774a.6.6,0,0,0,.7-.675v-3.324c0-.525-.25-.7-.7-.7Zm14.272-7.848c1.05,0,1.325,0,1.6-.45.4-.675.574-.95.875-.95.324,0,2.124,1.25,2.124,1.65s-.575.4-1.425.4h-4.2c-.374,0-.7.1-.725.55-.024.275-.024,3.724-.024,4.174,0,.7.424.7.824.7h.85a.988.988,0,0,0,.85-.275c.275-.375.3-.425.525-.425a3.532,3.532,0,0,1,1.724,1.225c0,.15-.5.55-.575.65a.847.847,0,0,0-.125.525c0,.375.026,2.949.075,3.874,0,.275.15,1.474.15,1.724a1.142,1.142,0,0,1-1.249,1.125c-.5,0-.55-.15-.625-.7-.075-.425-.525-.45-.775-.45h-4.924c-.325,0-.8.025-.8.65,0,.425,0,1.175-1.049,1.175-.8,0-.8-.55-.8-.8,0-.175.05-.825.05-.875.025-.549.025-3.074.025-3.774a25.588,25.588,0,0,0-.075-3.224c0-.1-.1-.625-.1-.725,0-.2.1-.35.3-.35a4.343,4.343,0,0,1,1.4.475,1.624,1.624,0,0,0,.85.175h1.025c.775,0,.85-.2.85-.95v-3.8c0-.524-.3-.675-.725-.675h-.65c-2.174,0-2.9.05-3.149.075-.075,0-.45.05-.525.05-.1,0-.15-.05-.225-.149l-.475-.575c-.1-.125-.125-.125-.125-.175s.05-.05.1-.05c.175,0,.95.075,1.1.075,1.225.05,2.25.1,3.424.1h.525c.725,0,.725-.425.725-.7v-3.175c0-.4-.05-.624-.5-.624-.6,0-3.3.35-3.849.35-.125,0-.275-.05-.275-.125,0-.2,4.249-1.1,4.824-1.3.575-.175,2.924-.975,3.249-1.15.525-.275.6-.325.7-.325a11.915,11.915,0,0,1,1.274.625c.875.45.95.5.95.775,0,.225-.25.375-.549.375-.076,0-.75-.025-.8-.025-.151,0-2.85.575-3.049.625-.25.05-.351.125-.351.75,0,1.174,0,3.424.025,3.5.076.425.55.425.7.425Zm-5.124,6.748c-.8,0-.875.225-.875,1,0,.675,0,4.174.125,4.6.1.35.525.35.825.35h4.9c.325,0,.825,0,.825-.625v-4.624c0-.7-.475-.7-.8-.7Z" fill="#333"/>
  </g>
</svg>
