<svg id="nav_subscription_sp" xmlns="http://www.w3.org/2000/svg" width="745" height="90" viewBox="0 0 745 90">
  <rect id="長方形_15" data-name="長方形 15" width="745" height="90" fill="#ffc946" opacity="0"/>
  <g id="グループ_495" data-name="グループ 495" transform="translate(-17.618 -498.298)">
    <g id="グループ_496" data-name="グループ 496">
      <g id="グループ_495-2" data-name="グループ 495">
        <path id="パス_2169" data-name="パス 2169" d="M272.652,577.088c-.154-.4-1.1-2.874-1.1-3.006a.464.464,0,0,1,.482-.461c.242,0,.285.11.813.922a6.48,6.48,0,0,0,5.156,3.006,3.162,3.162,0,0,0,3.247-3.314c0-2-1.316-2.7-4.1-3.664-3.05-1.053-5.069-2.216-5.069-4.827a4.135,4.135,0,0,1,4.389-4.257,8.636,8.636,0,0,1,1.557.176c.243.044,1.163.241,1.317.241a.83.83,0,0,0,.482-.132c.308-.241.352-.285.506-.285.263,0,.328.2.548.768.153.351,1.185,2.94,1.185,3.072a.346.346,0,0,1-.374.351c-.175,0-.218-.066-.57-.636a5.084,5.084,0,0,0-4.476-2.831,2.807,2.807,0,0,0-2.984,2.9c0,1.822,1.317,2.48,4.191,3.49,4.432,1.535,5.025,3.291,5.025,4.98a4.652,4.652,0,0,1-4.762,4.74,7.048,7.048,0,0,1-2.369-.439,2.878,2.878,0,0,0-.879-.219,1.13,1.13,0,0,0-.833.285c-.373.329-.417.373-.636.373C273.112,578.317,273.068,578.185,272.652,577.088Z" fill="#333"/>
        <path id="パス_2170" data-name="パス 2170" d="M301.775,561.9c.286,0,.614,0,.614.373,0,.351-.307.351-.68.351-1.558,0-1.668,1.251-1.689,1.931-.022,1.1,0,6.539,0,7.768,0,1.557-.067,3.247-1.4,4.608a5.115,5.115,0,0,1-3.709,1.382c-.943,0-5.441-.307-5.572-4.849-.022-1.229.022-7.2.022-8.536,0-1.689-.11-2.3-2.041-2.3-.131,0-.483,0-.483-.351,0-.373.329-.373.658-.373h5.376c.264,0,.593,0,.593.373,0,.351-.285.351-.7.351a1.467,1.467,0,0,0-1.6.988c-.109.329-.109,4.5-.109,5.266,0,4.827,0,5.2.373,6.231a3.849,3.849,0,0,0,3.752,2.37,3.9,3.9,0,0,0,3.424-1.712c.746-1.1.746-2.018.746-7.109,0-4.849-.045-4.959-.308-5.375a1.68,1.68,0,0,0-1.557-.659c-.243,0-.44-.109-.44-.351,0-.373.329-.373.528-.373Z" fill="#333"/>
        <path id="パス_2171" data-name="パス 2171" d="M314.7,561.9c2.457,0,5.573.812,5.573,3.533a3.949,3.949,0,0,1-2.655,3.554c-.131.044-.526.2-.526.308s.921.307,1.1.372a4.339,4.339,0,0,1,3.005,3.819c0,2.084-1.864,4.41-5.967,4.41h-7.351c-.329,0-.658,0-.658-.351s.329-.351.679-.351c.725,0,1.69,0,1.888-1.141.088-.439.132-6.627.132-7.482a37.687,37.687,0,0,0-.2-5.135c-.285-.812-1.317-.812-1.537-.812-.724,0-.965,0-.965-.373,0-.351.22-.351.855-.351Zm-2.567,7.877a.588.588,0,0,0-.505.285c-.088.2-.088,3.314-.088,3.818,0,2.392,0,3.314,1.6,3.314h1.91c2.369,0,4.058-1.339,4.058-3.643a3.7,3.7,0,0,0-3.993-3.774Zm2.37-.7c2.062,0,3.73-1.1,3.73-3.335,0-2.128-1.47-3.116-3.533-3.116h-1.558c-1.579,0-1.579.988-1.579,2.9,0,1.1,0,3.073.065,3.27a.613.613,0,0,0,.505.285Z" fill="#333"/>
        <path id="パス_2172" data-name="パス 2172" d="M327.283,577.088c-.154-.4-1.1-2.874-1.1-3.006a.464.464,0,0,1,.482-.461c.242,0,.286.11.813.922a6.48,6.48,0,0,0,5.156,3.006,3.163,3.163,0,0,0,3.248-3.314c0-2-1.317-2.7-4.1-3.664-3.05-1.053-5.068-2.216-5.068-4.827a4.135,4.135,0,0,1,4.389-4.257,8.635,8.635,0,0,1,1.556.176c.242.044,1.164.241,1.318.241a.832.832,0,0,0,.482-.132c.308-.241.351-.285.505-.285.264,0,.329.2.549.768.153.351,1.184,2.94,1.184,3.072a.345.345,0,0,1-.373.351c-.175,0-.219-.066-.571-.636a5.083,5.083,0,0,0-4.476-2.831,2.805,2.805,0,0,0-2.983,2.9c0,1.822,1.316,2.48,4.19,3.49,4.433,1.535,5.025,3.291,5.025,4.98a4.652,4.652,0,0,1-4.762,4.74,7.057,7.057,0,0,1-2.369-.439,2.875,2.875,0,0,0-.878-.219,1.129,1.129,0,0,0-.833.285c-.373.329-.418.373-.637.373C327.744,578.317,327.7,578.185,327.283,577.088Z" fill="#333"/>
        <path id="パス_2173" data-name="パス 2173" d="M354.037,561.75c0,.022,1.426,3.467,1.426,3.708a.412.412,0,0,1-.417.4c-.2,0-.241-.066-.7-.7-1.865-2.632-3.819-2.94-4.739-2.94-3.445,0-5.222,4.213-5.222,8.009,0,5.091,2.983,7.088,5.6,7.088,1.536,0,3.292-.659,4.739-3.116.5-.856.5-.878.681-.878a.344.344,0,0,1,.329.351,7.269,7.269,0,0,1-1.251,2.216,6.4,6.4,0,0,1-5.157,2.436c-4.629,0-6.889-3.753-6.889-8.053,0-5.135,3.181-8.777,6.889-8.777a7.651,7.651,0,0,1,1.866.263,10.615,10.615,0,0,0,1.316.352.906.906,0,0,0,.593-.22c.35-.351.394-.4.57-.4A.507.507,0,0,1,354.037,561.75Z" fill="#333"/>
        <path id="パス_2174" data-name="パス 2174" d="M366.674,561.9c1.053,0,6.057.11,6.057,3.8,0,2.238-1.691,3.247-2.919,3.84-.769.373-.857.417-.857.658a38.865,38.865,0,0,0,2.283,5.244,2.732,2.732,0,0,0,2.589,1.756c.22,0,.658,0,.658.351,0,.307-.438.351-.548.351h-2.744a1.076,1.076,0,0,1-1.031-.636c-.131-.22-1.689-3.621-1.931-4.169-1.206-2.656-1.36-3.007-2.127-3.007H364.9c-.155,0-.44.088-.505.264-.087.219-.087,3.116-.087,3.62,0,2.655,0,3.226,2.017,3.226.155,0,.461,0,.461.351s-.394.351-.636.351h-5.419c-.22,0-.549-.044-.549-.351,0-.351.307-.351.614-.351,1.514,0,1.734-.7,1.8-1.514.044-.746.044-6.78.044-7.811a35.187,35.187,0,0,0-.176-4.433c-.285-.812-1.229-.812-1.733-.812-.132,0-.593,0-.593-.4,0-.329.394-.329.658-.329Zm-.79.724c-1.579,0-1.579.988-1.579,3.247,0,3.445,0,3.511.592,3.511h1.777c2.15,0,3.972-1.184,3.972-3.467,0-1.535-.834-3.291-3.687-3.291Z" fill="#333"/>
        <path id="パス_2175" data-name="パス 2175" d="M379.682,577.9c-.286,0-.616,0-.616-.351s.176-.351,1.032-.351c.636,0,1.689,0,1.909-1.141.065-.373.065-5.42.065-6.056,0-.9,0-5.859-.065-6.254-.22-1.119-1.009-1.119-2.458-1.119-.131,0-.483,0-.483-.351,0-.373.33-.373.637-.373h6.451c.263,0,.592,0,.592.373,0,.329-.2.329-1.01.329-.658,0-1.6.022-1.886,1.01-.088.307-.088,5.244-.088,6.253,0,5.815,0,5.837.066,6.188.2,1.141.987,1.141,2.457,1.141.111,0,.461,0,.461.351s-.329.351-.592.351Z" fill="#333"/>
        <path id="パス_2176" data-name="パス 2176" d="M397.8,561.9c.833,0,6.253,0,6.253,4.147,0,2.282-1.755,4.279-5.683,4.279H396.26c-.592,0-.592.175-.592,1.843,0,4.015,0,4.037.24,4.41a1.644,1.644,0,0,0,1.471.615c.482,0,.746,0,.746.351s-.307.351-.615.351h-5.419c-.329,0-.636,0-.636-.351s.328-.351.548-.351c.746,0,1.689,0,1.909-1.141.066-.351.066-.373.066-6.21,0-1.031,0-5.727-.066-6.1a1.456,1.456,0,0,0-1.668-1.119c-.549,0-.789,0-.789-.351,0-.373.307-.373.636-.373Zm.132,7.7c2.9,0,4.037-1.6,4.037-3.467,0-2.414-1.777-3.511-3.775-3.511h-.943c-1.579,0-1.579.966-1.579,2.874,0,.308,0,3.424.022,3.621a.533.533,0,0,0,.57.483Z" fill="#333"/>
        <path id="パス_2177" data-name="パス 2177" d="M421.248,561.9c1.185,0,1.447,0,1.82.988.176.482,1.12,2.962,1.12,3.181a.337.337,0,0,1-.351.329c-.176,0-.241-.088-.746-.922-1.163-1.908-2.458-2.852-3.95-2.852-.856,0-1.382.351-1.514,1.1-.065.4-.065,5.354-.065,6.276,0,.614,0,5.683.065,6.056.2,1.119,1.229,1.141,1.821,1.141.812,0,.988,0,.988.351s-.307.351-.659.351h-6.143c-.308,0-.636,0-.636-.351s.351-.351.483-.351c1.294,0,2.106,0,2.326-1.141.065-.351.065-.373.065-6.21,0-5.42,0-6.012-.153-6.429a1.37,1.37,0,0,0-1.4-.79c-1.756,0-3.051,1.383-3.951,2.83-.526.856-.57.944-.767.944a.355.355,0,0,1-.351-.329c0-.176.986-2.808,1.162-3.247.352-.922.7-.922,1.8-.922Z" fill="#333"/>
        <path id="パス_2178" data-name="パス 2178" d="M429.148,577.9c-.285,0-.614,0-.614-.351s.176-.351,1.031-.351c.637,0,1.691,0,1.91-1.141.066-.373.066-5.42.066-6.056,0-.9,0-5.859-.066-6.254-.219-1.119-1.01-1.119-2.457-1.119-.133,0-.484,0-.484-.351,0-.373.329-.373.637-.373h6.45c.264,0,.593,0,.593.373,0,.329-.2.329-1.009.329-.658,0-1.6.022-1.887,1.01-.087.307-.087,5.244-.087,6.253,0,5.815,0,5.837.065,6.188.2,1.141.987,1.141,2.458,1.141.109,0,.46,0,.46.351s-.329.351-.593.351Z" fill="#333"/>
        <path id="パス_2179" data-name="パス 2179" d="M447.266,578.317c-4.235,0-7.175-3.467-7.175-8.4s2.918-8.426,7.175-8.426c4.213,0,7.153,3.467,7.153,8.426C454.419,574.828,451.5,578.317,447.266,578.317Zm5.068-8.6c0-2.018-.57-7.5-5.068-7.5-4.915,0-5.09,6.451-5.09,7.9,0,2.107.636,7.483,5.09,7.483C452.158,577.593,452.334,571.208,452.334,569.715Z" fill="#333"/>
        <path id="パス_2180" data-name="パス 2180" d="M459.187,577.9c-.33,0-.659,0-.659-.351s.263-.351.812-.351a1.735,1.735,0,0,0,1.756-.988c.176-.5.2-.526.2-6.341a55.307,55.307,0,0,0-.065-5.924c-.264-1.317-1.47-1.317-2.216-1.317-.133,0-.484,0-.484-.351,0-.373.329-.373.659-.373h2.128c1.58,0,1.625.066,2.743,1.778,1.339,2.018,3.489,5.244,4.827,7.262.285.439,2.3,3.511,2.435,3.511.088,0,.155-.154.155-.439,0-.614.021-4.213.021-4.981,0-.79,0-4.673-.066-5.068-.263-1.339-1.382-1.339-2.106-1.339-.132,0-.461,0-.461-.351,0-.373.307-.373.615-.373h4.563c.242,0,.57,0,.57.373,0,.351-.306.351-.658.351-1.82,0-1.82.988-1.82,3.621,0,1.646.021,9.764.021,11.585,0,.11,0,.483-.285.483a.384.384,0,0,1-.285-.176c-.132-.153-8.732-13.077-8.843-13.231-.395-.636-.438-.724-.548-.724s-.175.176-.175.417c0,.79-.023,4.608-.023,5.485s0,5.245.066,5.662c.263,1.448,1.47,1.448,2.414,1.448.175,0,.505,0,.505.351s-.286.351-.7.351Z" fill="#333"/>
      </g>
    </g>
    <g id="グループ_498" data-name="グループ 498">
      <g id="グループ_497" data-name="グループ 497">
        <path id="パス_2181" data-name="パス 2181" d="M253.284,520.583c0,1.253-2.887,2.393-3.8,2.773-.531.19-.569.342-.645,1.672-.076.836-.076,3.913-.076,4.1,0,.228,0,.684.343.684.113,0,3.228-1.292,3.836-1.52,3.761-1.4,5.472-1.52,6.459-1.52a5.817,5.817,0,0,1,5.851,5.738c0,5.015-5.281,7.295-8.4,7.295-2.166,0-3.914-1.1-3.914-3.078a3.385,3.385,0,0,1,1.9-3,.2.2,0,0,1,.189.189c0,.115-.075.19-.151.3a1.569,1.569,0,0,0-.342,1.026c0,1.823,2.089,1.823,2.47,1.823,2.508,0,5.7-1.672,5.7-4.711a3.936,3.936,0,0,0-3.648-4.179c-1.063,0-3.419.493-7.865,2.849-2.128,1.14-2.355,1.254-2.355,1.9,0,.418.114,2.128.114,2.507,0,1.748-.57,4.256-1.937,4.256-1.027,0-1.445-.8-1.748-1.406-1.216-2.356-1.407-2.356-1.9-2.356a3.162,3.162,0,0,0-.949.228,7.528,7.528,0,0,1-1.443.76c-.418,0-2.357-1.14-2.357-2.394,0-.683.418-1.481,1.1-1.481.227,0,1.329.19,1.556.19,1.027,0,1.711-.19,3.953-1.292,1.937-.95,2.165-1.064,2.165-2.128,0-.874-.038-4.1-.077-4.749,0-.266-.113-.836-.531-.836a8.9,8.9,0,0,0-1.748.342c-1.937.646-2.127.722-2.7.722-1.292,0-2.736-2.622-2.736-2.888a.269.269,0,0,1,.3-.266c.113,0,.571.152.684.152a11.027,11.027,0,0,0,1.748.19,16.59,16.59,0,0,0,4.825-1.14,28.391,28.391,0,0,0,.38-4.141,3.728,3.728,0,0,0-1.254-3.039,3.883,3.883,0,0,1-.531-.608c0-.343.607-.418.836-.418,2.545,0,3.913,1.862,3.913,2.583a15.317,15.317,0,0,1-.8,1.976,20.238,20.238,0,0,0-.381,2.47c0,.151.076.418.3.418.265,0,1.33-.418,1.33-.95,0-.076-.191-.456-.191-.532,0-.038.077-.114.153-.152C251.461,518.873,253.284,519.405,253.284,520.583Zm-8.663,14.551c0,.57,1.027,1.786,1.6,1.786.532,0,1.064-1.064,1.064-2.925,0-.152,0-.533-.114-.608C247.053,533.387,244.621,534.6,244.621,535.134Zm24.963-11.816c0,.8-.456,1.824-1.254,1.824-.228,0-1.1-.076-1.292-.076-.19.038-.987.266-1.14.266a.177.177,0,0,1-.189-.19,2.627,2.627,0,0,1,.113-.3,2,2,0,0,0,.153-.684c0-1.52-1.9-2.051-3.192-2.051a3.3,3.3,0,0,0-1.482.379.853.853,0,0,1-.38.114c-.114,0-.151-.038-.151-.152a4.858,4.858,0,0,1,4.1-2.393C267.8,520.051,269.584,521.57,269.584,523.318Z" fill="#333"/>
        <path id="パス_2182" data-name="パス 2182" d="M308.55,524.04a33.5,33.5,0,0,0,9.194,3c.153,0,.8.114.8.266,0,.113-.532.265-.685.3a6.578,6.578,0,0,0-2.887,2.052c-.114.152-.531.95-.722.95-.227,0-8.473-3.989-12.2-10.069-.722-1.215-.836-1.329-1.1-1.329s-.342.076-1.178.95a45.148,45.148,0,0,1-11.246,8.852c-1.292.684-5.244,2.432-5.964,2.432-.116,0-.191-.076-.191-.114s4.066-2.546,4.407-2.773c5.129-3.23,10.563-9.043,11.094-11.893.039-.3.076-.418.342-.418.19,0,3.267,1.178,3.458,1.292.114.038.494.19.494.57a2.416,2.416,0,0,1-.151.532C302.091,519.215,305.358,522.406,308.55,524.04Zm-18.314-9.46c-2.81,0-4.1.075-4.825.113-.114,0-.683.077-.8.077s-.189-.077-.341-.228l-.722-.875c-.152-.189-.152-.189-.152-.266s.038-.075.114-.075c.265,0,1.443.113,1.672.113,1.861.077,3.457.153,5.243.153h1.1c.8,0,1.027-.381,1.027-1.026a6.15,6.15,0,0,0-.3-2.014,5.922,5.922,0,0,1-.227-.76c0-.19.19-.266.417-.266.266,0,1.976.418,2.394.532,1.14.3,1.367.38,1.367.722,0,.228-.037.3-.569.988a.93.93,0,0,0-.267.684c0,.912.305,1.14,1.33,1.14h6.27c.342,0,1.14,0,1.14-1.026a15.492,15.492,0,0,0-.115-1.71c-.037-.19-.227-.988-.227-1.14,0-.19.227-.266.418-.266.266,0,2.849.608,3.267.722s.646.266.646.608c0,.228-.153.38-.571.684a1.221,1.221,0,0,0-.493,1.064c0,1.064.609,1.064,1.216,1.064h1.938c1.672,0,1.861,0,2.431-.646,1.065-1.254,1.178-1.406,1.52-1.406.228,0,3.533,2.014,3.533,2.507,0,.533-.76.533-2.014.533h-7.408c-1.178,0-1.178.608-1.178,1.519,0,.228.038,1.52.038,1.71,0,1.406-1.139,1.634-1.938,1.634-.873,0-1.025-.152-1.025-1.444v-2.622c-.114-.722-.571-.8-1.178-.8h-6.079c-.874,0-1.4,0-1.4,1.063,0,.38.113,2.052.113,2.394,0,.722-.113,1.064-.456,1.292a2.7,2.7,0,0,1-1.444.532c-.645,0-.95-.418-.95-1.178,0-.3.038-1.748.038-2.014,0-1.481,0-2.089-1.177-2.089Zm2.7,19.415a19.383,19.383,0,0,1,2.925,1.785.938.938,0,0,1,.3.57c0,.456-.3.532-1.217.76-.113.038-3.381,2.584-3.988,3.039a23.376,23.376,0,0,1-5.775,3.306.122.122,0,0,1-.115-.114c0-.076,2.014-1.823,2.281-2.09,3.152-3,5.09-6,5.432-7.218A.23.23,0,0,1,292.934,533.995Zm1.748-2.014c-2.963,0-4.065.038-4.825.114-.115,0-.684.076-.8.076s-.19-.076-.342-.228l-.722-.874c-.152-.19-.152-.19-.152-.266,0-.038.038-.076.114-.076.266,0,1.443.114,1.672.114,1.861.114,3.457.152,5.243.152h2.85c.38,0,1.139,0,1.139-1.026,0-.456-.228-3.533-.3-3.913,0-.076-.228-.456-.228-.532s.075-.228.379-.228c.267,0,2.926.57,3.307.684.531.114.72.456.72.646,0,.228-.076.3-.645.8-.532.456-.532.684-.532,1.824,0,1.368,0,1.748,1.14,1.748h1.672c1.672,0,1.861,0,2.432-.646,1.063-1.254,1.178-1.406,1.519-1.406.228,0,3.534,2.052,3.534,2.508,0,.532-.76.532-2.014.532H302.66c-1.138,0-1.138.684-1.138,1.9,0,2.7,0,4.218.076,6.46.037.645.037,1.557.037,2.014,0,1.215-.3,1.937-1.938,1.937-.836,0-.912-.684-.912-1.33,0-.494.114-2.773.114-3.267.039-1.444.039-2.85.039-4.6a22.718,22.718,0,0,0-.077-2.583c-.189-.532-.8-.532-1.1-.532Zm10.144,3.191c0-.113.191-.151.342-.151,1.406,0,10.068,2.393,10.068,5.546,0,1.216-.683,2.166-1.632,2.166-.723,0-.874-.19-2.052-1.938a18.059,18.059,0,0,0-6.535-5.471C304.979,535.324,304.826,535.21,304.826,535.172Z" fill="#333"/>
        <path id="パス_2183" data-name="パス 2183" d="M348.934,515.947c0,.114.076.266.076.418a29.117,29.117,0,0,1,.381,4.1c0,2.545-.571,6.079-3.914,11.132-3.039,4.635-4.977,5.547-6.5,5.547-2.507,0-4.749-3.913-4.749-8.549a13.381,13.381,0,0,1,4.216-9.688,15.722,15.722,0,0,1,12.121-4.939,12.374,12.374,0,0,1,6.118,1.216,11.908,11.908,0,0,1,6.61,11.056,14.17,14.17,0,0,1-9.575,13.374,23.366,23.366,0,0,1-6.307,1.405c-.152,0-.38-.038-.38-.266,0-.113.076-.152,1.027-.531,3.951-1.558,12.2-4.826,12.2-14.286,0-1.482-.151-10.525-10.524-10.525C348.973,515.415,348.934,515.719,348.934,515.947Zm-12.348,11.664c0,2.47.988,5.851,3.306,5.851,1.1,0,2.013-.455,4.635-4.407,2.014-3.077,3.723-7.295,3.723-11.056,0-2.28-.152-2.47-.645-2.47C343.994,515.529,336.586,520.431,336.586,527.611Z" fill="#333"/>
        <path id="パス_2184" data-name="パス 2184" d="M389.967,523.622c-3.344,0-4.407.076-4.787.114-.153,0-.684.076-.8.076-.151,0-.228-.076-.342-.228l-.722-.874c-.152-.19-.19-.19-.19-.266,0-.038.076-.076.151-.076.267,0,1.445.114,1.672.114,1.863.076,3.42.152,5.205.152h10.3c1.635,0,2.014,0,2.432-.646.912-1.367.988-1.519,1.368-1.519.645,0,3.268,1.9,3.268,2.583,0,.57-.685.57-2.052.57h-7.333c-1.064,0-1.064.38-1.064,3.534,0,2.963,0,3.267,1.064,3.267h2.622c1.633,0,1.974,0,2.392-.646.723-1.1.8-1.254,1.141-1.254.455,0,2.735,1.938,2.735,2.432,0,.228-.227.418-.569.456a11.258,11.258,0,0,1-1.406.038h-6.8c-1.178,0-1.178.228-1.178,2.508,0,1.292,0,5.585.114,5.774.152.3.456.3.912.343.3.038,2.279.152,4.217.152a46.959,46.959,0,0,0,10.144-1.178,7.259,7.259,0,0,1,1.179-.418c.038,0,.114,0,.114.152,0,.228-2.318,1.862-2.7,2.318a12.839,12.839,0,0,0-.609,1.519c-.265.494-1.785.532-2.316.532-15.236,0-17.061-2.166-19.529-5.053a8.885,8.885,0,0,1-1.635-2.736c-.075-.228-.151-.341-.266-.341-.152,0-.227.151-.57.683-3.533,5.661-6.838,6.5-7.105,6.5-.151,0-.227-.076-.227-.152,0-.038.57-.608.645-.684,4.446-4.749,6.345-10.638,6.5-13.374.114-1.709.114-1.861.379-1.861.228,0,3.268.873,3.268,1.406,0,.228-.76.836-.836.987-.266.57-.911,3.192-1.1,3.724,0,.038-.645,1.938-.645,2.014,0,1.9,4.9,5.243,6.953,5.243.493,0,.493-.532.493-.8,0-2.128.076-11.664.076-13.6,0-.95,0-1.482-1.139-1.482Zm-5.7-6.877c-.495,0-.722.038-.95.684-.722,2.279-1.9,3.154-2.812,3.154a1.11,1.11,0,0,1-1.254-1.064c0-.532.152-.722,1.1-1.71a10.247,10.247,0,0,0,1.9-3.382c.152-.455.228-.645.381-.645.265,0,.569.608.8,1.329.152.57.381.646.874.646h9.043c.911,0,1.026-.532,1.026-1.177,0-.608-.076-2.28-.115-2.888-.037-.3-.266-1.71-.266-2.014,0-.19.114-.19.153-.19s2.584.57,3.875.874a.48.48,0,0,1,.265.38c0,.19-.873.874-.987,1.1a10.128,10.128,0,0,0-.191,2.431c0,1.368.3,1.482,1.178,1.482h7.447c1.027,0,1.217-.076,1.71-.456.495-.418.912-.8,1.33-.8.266,0,3.5,1.938,3.5,2.964,0,.76-.873.76-1.1.76-.266,0-1.634-.114-1.976-.114a4.707,4.707,0,0,0-2.166.532,5.077,5.077,0,0,1-1.1.57.1.1,0,0,1-.114-.114c0-.3.912-1.71.912-2.09,0-.266-.229-.266-.76-.266Z" fill="#333"/>
        <path id="パス_2185" data-name="パス 2185" d="M432.661,532.323c-1.178,0-2.888,0-4.218.114-.113,0-.683.076-.8.076-.153,0-.229-.076-.343-.228l-.76-.874c-.151-.19-.151-.19-.151-.266s.075-.076.151-.076c.532,0,3.116.228,3.724.228a.9.9,0,0,0,1.025-.836c.038-.3.114-11.854.114-12.956,0-.646-.19-1.1-1.063-1.1-.266,0-1.635.152-1.862.152-.115,0-.19-.076-.342-.228l-.722-.874c-.152-.19-.152-.19-.152-.265s.076-.077.114-.077c.418,0,2.47.152,2.926.152,1.139,0,1.139-.493,1.139-1.481,0-.722,0-1.52-.038-2.2,0-.228-.076-1.368-.076-1.406,0-.266.228-.3.38-.3.076,0,3.078.456,3.078,1.064,0,.19-.266.342-.76.722a7.788,7.788,0,0,0-.228,2.47c0,1.253.57,1.253,1.33,1.253h2.85c.835,0,1.443,0,1.443-1.14,0-.531-.113-3.3-.113-3.913a.3.3,0,0,1,.341-.342c.038,0,3.116.608,3.116,1.254,0,.152-.571.608-.647.76a8.216,8.216,0,0,0-.265,2.621c0,.342,0,.646.3.646.342,0,.646-.38.8-.532.608-.835.685-.912.988-.912a5.246,5.246,0,0,1,2.319,2.128c0,.418-.723.418-1.748.418h-1.368c-1.369,0-1.406.266-1.406,1.9v12.386c0,.19,0,.57.3.57a1.031,1.031,0,0,0,.722-.532c.646-1.14.721-1.254,1.177-1.254.571,0,2.2,2.09,2.2,2.394,0,.494-.493.494-1.4.494Zm3.154,3.723c0,.38-.266.494-1.064.874-.836.38-6.5,6.725-8.131,6.725-.152,0-.227-.076-.227-.152,0-.038,2.316-2.66,2.7-3.229a27.723,27.723,0,0,0,3.229-5.472c.152-.456.266-.835.456-.835a5.514,5.514,0,0,1,1.558.8C435.662,535.628,435.815,535.742,435.815,536.046Zm2.051-15.425c1.6,0,1.6-.3,1.6-2.812,0-1.368-.38-1.444-1.6-1.444H435.4c-1.6,0-1.6.3-1.6,2.812,0,1.367.38,1.444,1.6,1.444Zm0,5.433c.912,0,1.6,0,1.6-1.14v-2.356c0-.95-.8-.95-1.6-.95H435.4c-.913,0-1.6,0-1.6,1.14,0,.266,0,2.242.038,2.318,0,.988.76.988,1.558.988Zm-2.622.988c-.911,0-1.4.038-1.4,1.291v1.71c0,1.254.418,1.292,1.4,1.292h2.775c.911,0,1.4-.038,1.4-1.292v-1.671c0-1.292-.418-1.33-1.4-1.33Zm8.967,12.5c0,.722-.418,1.558-1.254,1.558-.873,0-1.178-.836-1.785-2.508a8.354,8.354,0,0,0-2.09-3.343c-.152-.153-.646-.646-.646-.761a.14.14,0,0,1,.152-.152,16.271,16.271,0,0,1,2.622,1.292C442.16,536.16,444.211,537.3,444.211,539.542Zm11.171-27.926a2.142,2.142,0,0,0,.95-.114c.19-.114.987-.912,1.254-.912.3,0,2.7,1.026,2.7,1.748a.777.777,0,0,1-.3.57c-.532.456-.57.531-.684.721a56.3,56.3,0,0,0-.228,6.459c0,2.318.115,13.223.191,17.63,0,.3.113,1.824.113,2.166a3.291,3.291,0,0,1-3.191,3.609c-.494,0-.608-.076-.949-.608a6.535,6.535,0,0,0-2.965-2.355c-.037,0-.721-.342-.493-.418.19-.076,2.431,0,2.887,0,1.482,0,1.785-.19,1.938-.874.113-.57.113-6.915.113-8.055,0-1.444-.228-1.6-1.48-1.6H450.9c-1.519,0-1.482.152-1.557,1.748-.228,6.079-4.294,12.424-5.13,12.424a.171.171,0,0,1-.189-.152,9.272,9.272,0,0,1,.379-.912c2.736-6.155,2.736-12.728,2.736-18.237,0-7.1-.228-9.727-.571-11.93-.037-.3-.3-1.786-.3-1.862,0-.152.113-.228.265-.228a29.931,29.931,0,0,1,2.963,1.1,5.763,5.763,0,0,0,1.141.076Zm-.038,8.435c.988,0,1.406-.076,1.406-1.254v-4.863c0-1.292-.494-1.292-1.482-1.292h-4.331c-1.064,0-1.482.076-1.482,1.367,0,.684.076,4.028.076,4.788,0,1.254.493,1.254,1.557,1.254Zm-.113,8.548c.873,0,1.48,0,1.48-1.14.039-1.367.039-3.723.039-5.129,0-1.253-.57-1.291-1.444-1.291h-4.218c-.987,0-1.557,0-1.557,1.253,0,.722-.039,4.332-.039,5.129,0,1.141.494,1.178,1.406,1.178Z" fill="#333"/>
        <path id="パス_2186" data-name="パス 2186" d="M481.951,521.342c-.228.722-.266,9.081-.266,10.563,0,1.672.076,9,.076,10.486,0,1.14-.8,1.6-1.823,1.6-.836,0-.989-.494-.989-1.1,0-.38.19-2.2.19-2.545.152-2.622.228-6.383.228-8.929,0-2.014-.038-6.345-.076-8.511,0-.228,0-.76-.228-.76-.114,0-.418.418-.57.608-.761,1.064-3.077,3.5-3.419,3.5-.152,0-.228-.077-.228-.266,0-.114,1.557-2.508,1.824-3a45.012,45.012,0,0,0,5.318-12.88c.077-.722.077-.8.342-.8.152,0,3.649,1.33,3.649,2.166,0,.418-.418.608-.8.76a1.31,1.31,0,0,0-.873.8,55.936,55.936,0,0,1-2.926,5.244,2.08,2.08,0,0,0-.342.722c0,.266.19.342.455.456a2.352,2.352,0,0,1,1.178.76C482.672,520.431,482.026,521.152,481.951,521.342Zm17.44,8.511c-1.027,0-1.1.532-1.141,1.178a18,18,0,0,1-.684,4.863,15.381,15.381,0,0,0-.646,1.862c0,.418.152.494,1.71,1.064a29.471,29.471,0,0,0,9.954,1.747c.19,0,1.141-.075,1.368-.075.076,0,.228,0,.228.113,0,.19-.493.418-.76.533a4.013,4.013,0,0,0-1.709,1.519c-.418.836-.532,1.064-1.141,1.064-2.621,0-8.015-2.318-9.726-3.344-.949-.569-1.064-.646-1.291-.646a4.54,4.54,0,0,0-1.406.913,16.219,16.219,0,0,1-9.157,3.419c-.152,0-.57,0-.57-.266,0-.19.152-.228.95-.38,3.077-.608,8.4-4.1,8.4-5.281,0-.266-.076-.342-.76-1.14a20,20,0,0,1-3.04-5.433.319.319,0,0,1,.342-.342c.19,0,.381.3.76.95.951,1.519,2.925,4.369,3.61,4.369.721,0,1.177-3.989,1.177-5.395,0-.684-.038-1.292-1.026-1.292H490.8c-.608,0-.836.114-.988.342a2.129,2.129,0,0,1-1.862,1.216c-.873,0-.873-.912-.873-1.406,0-.684.113-4.1.113-4.863,0-1.938-.037-3.913-.227-6.535,0-.266-.151-1.558-.151-1.862,0-.38.151-.38.265-.38a7.8,7.8,0,0,1,2.051.722,3.75,3.75,0,0,0,2.129.57h3.533c1.14,0,1.14-.418,1.14-2.394,0-1.519,0-2.127-1.064-2.127h-2.013c-1.065,0-2.965,0-4.485.075-.113,0-1.025.115-1.1.115-.114,0-.19-.076-.342-.228l-.722-.874c-.152-.152-.152-.19-.152-.266s.076-.076.114-.076c.266,0,1.406.114,1.672.114,1.1.076,3.077.152,5.205.152H502.2c1.938,0,2.053,0,2.7-1.026.836-1.406.952-1.52,1.293-1.52.684,0,3.116,2.356,3.116,3,0,.532-.723.532-2.052.532H499.5c-1.178,0-1.178.456-1.178,2.052,0,1.937,0,2.469,1.14,2.469h3.458a1.544,1.544,0,0,0,1.14-.38c.645-.722.683-.76.874-.76.3,0,2.849,1.482,2.849,1.976,0,.266-.228.418-.608.608a.767.767,0,0,0-.532.874c0,1.254.039,2.773.076,4.027.038.836.228,4.863.228,5.775,0,1.444-1.6,1.748-1.976,1.748-.418,0-.684-.19-.8-.912-.114-.76-.836-.76-1.141-.76Zm-4.561-6.611c1.1,0,1.1-.266,1.1-2.811,0-1.254,0-1.786-1.1-1.786h-4.064c-1.141,0-1.141.266-1.141,2.812,0,1.253,0,1.785,1.141,1.785Zm.039,5.623c1.064,0,1.064-.532,1.064-1.747,0-2.584,0-2.888-1.064-2.888h-4.142c-1.026,0-1.026.494-1.026,1.634,0,2.7,0,3,1.1,3Zm4.635-10.22c-1.178,0-1.178.494-1.178,1.709,0,2.128,0,2.394.266,2.622a1.1,1.1,0,0,0,.912.266h3.533c1.178,0,1.178-.494,1.178-1.71,0-1.975,0-2.393-.266-2.621a1.1,1.1,0,0,0-.912-.266Zm.038,5.585c-1.216,0-1.216.608-1.216,1.6,0,2.736,0,3.039,1.216,3.039h3.495c1.217,0,1.217-.608,1.217-1.595,0-2.736,0-3.04-1.217-3.04Z" fill="#333"/>
      </g>
    </g>
  </g>
</svg>
