<svg id="nav_subscription" xmlns="http://www.w3.org/2000/svg" width="342.021" height="58.632" viewBox="0 0 342.021 58.632">
  <rect id="長方形_8" data-name="長方形 8" width="342.021" height="58.632" fill="#a61527" opacity="0"/>
  <g id="グループ_494" data-name="グループ 494" transform="translate(-993.596 -399.553)">
    <path id="パス_2151" data-name="パス 2151" d="M1001.246,449.492c-.091-.234-.65-1.7-.65-1.781a.275.275,0,0,1,.286-.273c.143,0,.169.065.481.546a3.841,3.841,0,0,0,3.055,1.781,1.873,1.873,0,0,0,1.924-1.963c0-1.183-.78-1.6-2.431-2.171-1.807-.624-3-1.313-3-2.86a2.45,2.45,0,0,1,2.6-2.523,5.054,5.054,0,0,1,.923.105c.143.026.689.142.78.142a.5.5,0,0,0,.286-.077c.182-.143.208-.17.3-.17.156,0,.2.117.325.455.091.208.7,1.742.7,1.821a.2.2,0,0,1-.221.208c-.1,0-.13-.039-.338-.377a3.014,3.014,0,0,0-2.652-1.678,1.663,1.663,0,0,0-1.768,1.717c0,1.079.78,1.468,2.483,2.067,2.626.91,2.977,1.95,2.977,2.951a2.756,2.756,0,0,1-2.821,2.808,4.177,4.177,0,0,1-1.4-.26,1.7,1.7,0,0,0-.52-.13.672.672,0,0,0-.494.169c-.221.2-.247.221-.377.221C1001.519,450.22,1001.493,450.142,1001.246,449.492Z" fill="#333"/>
    <path id="パス_2152" data-name="パス 2152" d="M1019.193,440.495c.169,0,.364,0,.364.221s-.182.208-.4.208c-.923,0-.988.742-1,1.145-.014.649,0,3.874,0,4.6a3.571,3.571,0,0,1-.832,2.73,3.033,3.033,0,0,1-2.2.819c-.558,0-3.224-.182-3.3-2.873-.014-.728.012-4.264.012-5.057,0-1-.065-1.366-1.209-1.366-.078,0-.286,0-.286-.208s.2-.221.39-.221h3.185c.157,0,.351,0,.351.221s-.169.208-.416.208a.868.868,0,0,0-.948.585c-.066.2-.066,2.665-.066,3.121,0,2.86,0,3.081.221,3.692a2.282,2.282,0,0,0,2.224,1.4,2.306,2.306,0,0,0,2.027-1.014c.443-.65.443-1.2.443-4.212,0-2.873-.027-2.938-.182-3.185a1,1,0,0,0-.923-.391c-.143,0-.26-.064-.26-.208,0-.221.194-.221.312-.221Z" fill="#333"/>
    <path id="パス_2153" data-name="パス 2153" d="M1027.533,440.495c1.456,0,3.3.482,3.3,2.094a2.34,2.34,0,0,1-1.573,2.105c-.078.027-.312.118-.312.183s.546.182.65.221a2.57,2.57,0,0,1,1.782,2.262c0,1.235-1.1,2.613-3.537,2.613h-4.355c-.2,0-.39,0-.39-.208s.2-.208.4-.208c.429,0,1,0,1.118-.676.052-.26.078-3.926.078-4.434a22.3,22.3,0,0,0-.117-3.042c-.169-.481-.78-.481-.91-.481-.429,0-.572,0-.572-.221s.13-.208.507-.208Zm-1.521,4.668a.347.347,0,0,0-.3.169c-.052.116-.052,1.963-.052,2.262,0,1.417,0,1.963.949,1.963h1.131a2.147,2.147,0,0,0,2.405-2.158,2.19,2.19,0,0,0-2.365-2.236Zm1.4-.416a1.963,1.963,0,0,0,2.21-1.976c0-1.262-.871-1.847-2.093-1.847h-.923c-.936,0-.936.585-.936,1.717,0,.65,0,1.82.039,1.937a.365.365,0,0,0,.3.169Z" fill="#333"/>
    <path id="パス_2154" data-name="パス 2154" d="M1035.673,449.492c-.092-.234-.651-1.7-.651-1.781a.276.276,0,0,1,.286-.273c.143,0,.169.065.481.546a3.843,3.843,0,0,0,3.055,1.781,1.874,1.874,0,0,0,1.925-1.963c0-1.183-.78-1.6-2.431-2.171-1.807-.624-3-1.313-3-2.86a2.45,2.45,0,0,1,2.6-2.523,5.055,5.055,0,0,1,.924.105c.143.026.689.142.779.142a.5.5,0,0,0,.287-.077c.182-.143.208-.17.3-.17.157,0,.2.117.326.455.09.208.7,1.742.7,1.821a.2.2,0,0,1-.221.208c-.1,0-.13-.039-.338-.377a3.016,3.016,0,0,0-2.653-1.678,1.663,1.663,0,0,0-1.768,1.717c0,1.079.781,1.468,2.484,2.067,2.626.91,2.977,1.95,2.977,2.951a2.756,2.756,0,0,1-2.822,2.808,4.177,4.177,0,0,1-1.4-.26,1.7,1.7,0,0,0-.52-.13.676.676,0,0,0-.495.169c-.221.2-.247.221-.377.221C1035.946,450.22,1035.92,450.142,1035.673,449.492Z" fill="#333"/>
    <path id="パス_2155" data-name="パス 2155" d="M1052.21,440.4c0,.014.845,2.055.845,2.2a.245.245,0,0,1-.247.234c-.117,0-.143-.039-.416-.416a3.454,3.454,0,0,0-2.808-1.743c-2.041,0-3.094,2.5-3.094,4.746,0,3.016,1.768,4.2,3.315,4.2a3.183,3.183,0,0,0,2.808-1.846c.3-.507.3-.52.4-.52a.2.2,0,0,1,.2.208,4.3,4.3,0,0,1-.741,1.313,3.791,3.791,0,0,1-3.055,1.443c-2.743,0-4.082-2.223-4.082-4.772,0-3.042,1.885-5.2,4.082-5.2a4.509,4.509,0,0,1,1.1.156,6.154,6.154,0,0,0,.78.208.54.54,0,0,0,.351-.129c.208-.208.234-.235.338-.235A.3.3,0,0,1,1052.21,440.4Z" fill="#333"/>
    <path id="パス_2156" data-name="パス 2156" d="M1060.388,440.495c.624,0,3.588.066,3.588,2.249a2.533,2.533,0,0,1-1.729,2.276c-.455.22-.507.247-.507.39a22.924,22.924,0,0,0,1.353,3.107,1.617,1.617,0,0,0,1.533,1.04c.131,0,.39,0,.39.208,0,.182-.259.208-.325.208h-1.625a.638.638,0,0,1-.611-.377c-.078-.13-1-2.145-1.144-2.47-.715-1.573-.806-1.781-1.261-1.781h-.715c-.091,0-.26.052-.3.156-.052.13-.052,1.846-.052,2.145,0,1.573,0,1.911,1.2,1.911.091,0,.273,0,.273.208s-.234.208-.377.208h-3.211c-.13,0-.325-.026-.325-.208,0-.208.182-.208.364-.208.9,0,1.027-.416,1.066-.9.026-.442.026-4.017.026-4.629a20.9,20.9,0,0,0-.1-2.626c-.169-.481-.728-.481-1.027-.481-.078,0-.351,0-.351-.233,0-.2.234-.2.39-.2Zm-.468.429c-.936,0-.936.585-.936,1.925,0,2.041,0,2.08.351,2.08h1.053a2.1,2.1,0,0,0,2.353-2.054c0-.91-.494-1.951-2.184-1.951Z" fill="#333"/>
    <path id="パス_2157" data-name="パス 2157" d="M1068.775,449.973c-.17,0-.365,0-.365-.208s.1-.208.611-.208c.378,0,1,0,1.132-.676.039-.221.039-3.211.039-3.588,0-.534,0-3.472-.039-3.7-.13-.664-.6-.664-1.456-.664-.079,0-.287,0-.287-.208s.195-.221.377-.221h3.823c.155,0,.351,0,.351.221,0,.2-.117.2-.6.2-.391,0-.95.013-1.119.6-.051.183-.051,3.107-.051,3.706a34.25,34.25,0,0,0,.039,3.666c.116.676.585.676,1.456.676.065,0,.273,0,.273.208s-.2.208-.351.208Z" fill="#333"/>
    <path id="パス_2158" data-name="パス 2158" d="M1080.19,440.495c.494,0,3.705,0,3.705,2.457,0,1.353-1.04,2.535-3.367,2.535h-1.248c-.351,0-.351.1-.351,1.093,0,2.379,0,2.392.143,2.613a.972.972,0,0,0,.871.364c.286,0,.442,0,.442.208s-.182.208-.364.208h-3.211c-.2,0-.377,0-.377-.208s.2-.208.325-.208c.442,0,1,0,1.131-.676a34.568,34.568,0,0,0,.039-3.679c0-.612,0-3.393-.039-3.614a.864.864,0,0,0-.988-.664c-.325,0-.468,0-.468-.208s.182-.221.377-.221Zm.078,4.564c1.716,0,2.392-.949,2.392-2.054a2.025,2.025,0,0,0-2.236-2.081h-.559c-.936,0-.936.572-.936,1.7,0,.182,0,2.027.013,2.145a.317.317,0,0,0,.338.286Z" fill="#333"/>
    <path id="パス_2159" data-name="パス 2159" d="M1094.771,440.495c.7,0,.858,0,1.079.585.1.286.663,1.756.663,1.885a.2.2,0,0,1-.208.2c-.1,0-.143-.051-.442-.546a2.849,2.849,0,0,0-2.34-1.69c-.507,0-.819.208-.9.65-.039.235-.039,3.173-.039,3.719,0,.363,0,3.367.039,3.588.117.663.728.676,1.079.676.481,0,.585,0,.585.208s-.182.208-.39.208h-3.64c-.183,0-.377,0-.377-.208s.208-.208.286-.208c.767,0,1.248,0,1.378-.676a34.46,34.46,0,0,0,.039-3.679c0-3.212,0-3.563-.091-3.809a.813.813,0,0,0-.832-.469,2.967,2.967,0,0,0-2.34,1.678c-.313.507-.338.558-.456.558a.211.211,0,0,1-.208-.2c0-.1.585-1.664.689-1.923.208-.547.416-.547,1.067-.547Z" fill="#333"/>
    <path id="パス_2160" data-name="パス 2160" d="M1100.141,449.973c-.169,0-.364,0-.364-.208s.1-.208.611-.208c.377,0,1,0,1.131-.676.039-.221.039-3.211.039-3.588,0-.534,0-3.472-.039-3.7-.13-.664-.6-.664-1.456-.664-.078,0-.286,0-.286-.208s.2-.221.377-.221h3.822c.156,0,.351,0,.351.221,0,.2-.117.2-.6.2-.39,0-.949.013-1.118.6-.052.183-.052,3.107-.052,3.706a34.25,34.25,0,0,0,.039,3.666c.117.676.585.676,1.456.676.065,0,.273,0,.273.208s-.2.208-.351.208Z" fill="#333"/>
    <path id="パス_2161" data-name="パス 2161" d="M1111.571,450.22c-2.51,0-4.252-2.054-4.252-4.98s1.73-4.992,4.252-4.992c2.5,0,4.238,2.054,4.238,4.992C1115.809,448.152,1114.079,450.22,1111.571,450.22Zm3-5.1c0-1.2-.337-4.447-3-4.447-2.913,0-3.017,3.823-3.017,4.681,0,1.248.377,4.433,3.017,4.433C1114.469,449.791,1114.573,446.007,1114.573,445.124Z" fill="#333"/>
    <path id="パス_2162" data-name="パス 2162" d="M1119.327,449.973c-.2,0-.39,0-.39-.208s.156-.208.481-.208a1.027,1.027,0,0,0,1.04-.585c.1-.3.117-.312.117-3.757a32.446,32.446,0,0,0-.039-3.511c-.156-.78-.871-.78-1.313-.78-.078,0-.286,0-.286-.208s.195-.221.39-.221h1.261c.936,0,.963.039,1.625,1.053.794,1.2,2.068,3.107,2.86,4.3.169.259,1.366,2.08,1.443,2.08.053,0,.092-.091.092-.26,0-.364.012-2.5.012-2.951s0-2.77-.039-3c-.155-.793-.819-.793-1.248-.793-.077,0-.273,0-.273-.208s.182-.221.365-.221h2.7c.143,0,.338,0,.338.221s-.183.208-.391.208c-1.079,0-1.079.585-1.079,2.145,0,.976.013,5.786.013,6.865,0,.065,0,.286-.168.286a.223.223,0,0,1-.169-.1c-.079-.091-5.175-7.749-5.24-7.839-.234-.377-.26-.43-.325-.43s-.1.1-.1.247c0,.469-.013,2.73-.013,3.251s0,3.107.04,3.354c.155.858.87.858,1.429.858.1,0,.3,0,.3.208s-.169.208-.416.208Z" fill="#333"/>
    <path id="パス_2163" data-name="パス 2163" d="M1012.595,414.976c0,.824-1.9,1.574-2.5,1.824-.349.125-.374.225-.424,1.1-.05.55-.05,2.574-.05,2.7,0,.15,0,.45.224.45.076,0,2.125-.85,2.525-1a11.754,11.754,0,0,1,4.249-1,3.826,3.826,0,0,1,3.849,3.774c0,3.3-3.474,4.8-5.523,4.8-1.425,0-2.575-.725-2.575-2.025a2.226,2.226,0,0,1,1.25-1.974.134.134,0,0,1,.125.125c0,.075-.05.125-.1.2a1.028,1.028,0,0,0-.225.674c0,1.2,1.375,1.2,1.624,1.2,1.65,0,3.75-1.1,3.75-3.1a2.589,2.589,0,0,0-2.4-2.749c-.7,0-2.249.324-5.174,1.874-1.4.75-1.549.825-1.549,1.25,0,.275.075,1.4.075,1.649,0,1.15-.375,2.8-1.275,2.8-.675,0-.95-.525-1.149-.925-.8-1.55-.925-1.55-1.25-1.55a2.077,2.077,0,0,0-.625.15,4.939,4.939,0,0,1-.95.5c-.275,0-1.549-.75-1.549-1.574,0-.45.274-.975.724-.975.15,0,.875.125,1.025.125a5.338,5.338,0,0,0,2.6-.85c1.275-.625,1.425-.7,1.425-1.4,0-.575-.025-2.7-.05-3.124,0-.175-.075-.55-.35-.55a5.86,5.86,0,0,0-1.15.225,5.354,5.354,0,0,1-1.774.475c-.85,0-1.8-1.725-1.8-1.9a.177.177,0,0,1,.2-.175c.075,0,.375.1.45.1a7.266,7.266,0,0,0,1.15.125,10.917,10.917,0,0,0,3.174-.749,18.7,18.7,0,0,0,.25-2.725,2.453,2.453,0,0,0-.825-2,2.5,2.5,0,0,1-.35-.4c0-.225.4-.275.55-.275a2.5,2.5,0,0,1,2.574,1.7,9.974,9.974,0,0,1-.525,1.3A13.38,13.38,0,0,0,1010,414.7c0,.1.05.275.2.275.174,0,.875-.275.875-.625,0-.05-.125-.3-.125-.35,0-.025.049-.075.1-.1C1011.4,413.851,1012.595,414.2,1012.595,414.976Zm-5.7,9.572c0,.375.675,1.175,1.05,1.175.35,0,.7-.7.7-1.925,0-.1,0-.349-.075-.4C1008.5,423.4,1006.9,424.2,1006.9,424.548Zm16.422-7.773c0,.525-.3,1.2-.826,1.2-.149,0-.724-.05-.849-.05-.125.025-.65.175-.75.175a.117.117,0,0,1-.125-.125,1.721,1.721,0,0,1,.075-.2,1.316,1.316,0,0,0,.1-.45c0-1-1.25-1.35-2.1-1.35a2.17,2.17,0,0,0-.975.25.547.547,0,0,1-.25.075c-.075,0-.1-.024-.1-.1a3.2,3.2,0,0,1,2.7-1.574C1022.143,414.626,1023.318,415.626,1023.318,416.775Z" fill="#333"/>
    <path id="パス_2164" data-name="パス 2164" d="M1049.1,417.25a22.036,22.036,0,0,0,6.049,1.975c.1,0,.525.075.525.175,0,.075-.35.175-.45.2a4.327,4.327,0,0,0-1.9,1.349c-.075.1-.35.625-.475.625-.149,0-5.573-2.624-8.022-6.623-.476-.8-.55-.875-.726-.875s-.225.05-.774.625a29.716,29.716,0,0,1-7.4,5.823,21.666,21.666,0,0,1-3.925,1.6c-.074,0-.125-.05-.125-.075s2.675-1.675,2.9-1.824c3.374-2.125,6.948-5.949,7.3-7.824.025-.2.05-.275.225-.275.125,0,2.15.775,2.275.85.074.025.324.125.324.375a1.56,1.56,0,0,1-.1.35C1044.847,414.076,1047,416.175,1049.1,417.25Zm-12.047-6.223c-1.85,0-2.7.05-3.174.075-.075,0-.45.05-.525.05s-.125-.05-.225-.15l-.475-.575c-.1-.125-.1-.125-.1-.175s.024-.05.074-.05c.175,0,.95.075,1.1.075,1.225.05,2.274.1,3.449.1h.725c.525,0,.675-.25.675-.675a4.062,4.062,0,0,0-.2-1.325,3.827,3.827,0,0,1-.15-.5c0-.125.125-.175.275-.175.175,0,1.3.274,1.574.349.75.2.9.25.9.475,0,.15-.025.2-.375.65a.609.609,0,0,0-.174.45c0,.6.2.75.874.75h4.124c.225,0,.75,0,.75-.675a10.42,10.42,0,0,0-.075-1.125c-.025-.125-.15-.65-.15-.749,0-.125.15-.176.275-.176.175,0,1.874.4,2.149.475s.425.175.425.4c0,.15-.1.25-.374.45a.8.8,0,0,0-.326.7c0,.7.4.7.8.7h1.275c1.1,0,1.225,0,1.6-.425.7-.825.775-.925,1-.925.15,0,2.325,1.325,2.325,1.65,0,.35-.5.35-1.325.35H1048.9c-.775,0-.775.4-.775,1,0,.149.026,1,.026,1.124,0,.925-.75,1.075-1.275,1.075-.575,0-.675-.1-.675-.95v-1.724c-.075-.475-.375-.525-.775-.525h-4c-.575,0-.925,0-.925.7,0,.25.075,1.35.075,1.575,0,.475-.075.7-.3.85a1.778,1.778,0,0,1-.951.35c-.424,0-.624-.275-.624-.775,0-.2.025-1.15.025-1.325,0-.974,0-1.374-.775-1.374Zm1.775,12.771a12.785,12.785,0,0,1,1.924,1.175.62.62,0,0,1,.2.375c0,.3-.2.35-.8.5-.076.025-2.225,1.7-2.625,2a15.361,15.361,0,0,1-3.8,2.174.08.08,0,0,1-.075-.075c0-.05,1.325-1.2,1.5-1.375a14.418,14.418,0,0,0,3.574-4.748A.146.146,0,0,1,1038.824,423.8Zm1.149-1.324c-1.949,0-2.674.025-3.174.075-.075,0-.45.05-.524.05s-.125-.05-.225-.15l-.476-.575c-.1-.125-.1-.125-.1-.175,0-.025.025-.05.075-.05.174,0,.949.075,1.1.075,1.225.075,2.275.1,3.449.1h1.875c.25,0,.75,0,.75-.675,0-.3-.15-2.324-.2-2.574,0-.05-.15-.3-.15-.35s.05-.15.25-.15c.175,0,1.925.375,2.174.45.35.075.475.3.475.425,0,.15-.05.2-.425.525-.35.3-.35.449-.35,1.2,0,.9,0,1.15.75,1.15h1.1c1.1,0,1.225,0,1.6-.425.7-.825.774-.925,1-.925.149,0,2.324,1.35,2.324,1.65,0,.35-.5.35-1.325.35h-4.724c-.75,0-.75.45-.75,1.25,0,1.774,0,2.774.05,4.249.026.424.026,1.024.026,1.324,0,.8-.2,1.275-1.275,1.275-.55,0-.6-.45-.6-.875,0-.325.075-1.824.075-2.149.025-.95.025-1.875.025-3.025a15.159,15.159,0,0,0-.05-1.7c-.125-.35-.525-.35-.725-.35Zm6.674,2.1c0-.075.125-.1.225-.1.925,0,6.623,1.575,6.623,3.649,0,.8-.45,1.425-1.074,1.425-.475,0-.576-.125-1.35-1.274a11.875,11.875,0,0,0-4.3-3.6C1046.747,424.673,1046.647,424.6,1046.647,424.573Z" fill="#333"/>
    <path id="パス_2165" data-name="パス 2165" d="M1075.785,411.926c0,.075.05.175.05.275a19.149,19.149,0,0,1,.25,2.7c0,1.674-.375,4-2.575,7.323-2,3.049-3.274,3.649-4.273,3.649-1.65,0-3.125-2.574-3.125-5.624a8.8,8.8,0,0,1,2.774-6.373,10.344,10.344,0,0,1,7.974-3.249,8.143,8.143,0,0,1,4.024.8,7.834,7.834,0,0,1,4.349,7.273,9.322,9.322,0,0,1-6.3,8.8,15.4,15.4,0,0,1-4.149.925c-.1,0-.25-.026-.25-.176,0-.074.05-.1.675-.349,2.6-1.025,8.023-3.175,8.023-9.4,0-.975-.1-6.923-6.923-6.923C1075.81,411.577,1075.785,411.777,1075.785,411.926Zm-8.123,7.674c0,1.624.65,3.849,2.174,3.849.725,0,1.325-.3,3.049-2.9a14.29,14.29,0,0,0,2.45-7.273c0-1.5-.1-1.624-.425-1.624C1072.536,411.652,1067.662,414.876,1067.662,419.6Z" fill="#333"/>
    <path id="パス_2166" data-name="パス 2166" d="M1102.926,416.975c-2.2,0-2.9.05-3.149.075-.1,0-.45.05-.525.05-.1,0-.15-.05-.225-.15l-.475-.575c-.1-.125-.125-.125-.125-.175,0-.025.05-.049.1-.049.175,0,.95.074,1.1.074,1.224.051,2.249.1,3.424.1h6.773c1.075,0,1.325,0,1.6-.424.6-.9.649-1,.9-1,.425,0,2.15,1.25,2.15,1.7,0,.375-.45.375-1.35.375H1108.3c-.7,0-.7.25-.7,2.325,0,1.949,0,2.149.7,2.149h1.724c1.075,0,1.3,0,1.575-.425.474-.725.525-.825.749-.825.3,0,1.8,1.275,1.8,1.6,0,.15-.15.275-.375.3a7.387,7.387,0,0,1-.925.025h-4.474c-.774,0-.774.15-.774,1.65,0,.849,0,3.674.075,3.8.1.2.3.2.6.225.2.025,1.5.1,2.774.1a30.887,30.887,0,0,0,6.673-.775,4.792,4.792,0,0,1,.775-.275c.025,0,.075,0,.075.1,0,.15-1.524,1.225-1.774,1.524a8.349,8.349,0,0,0-.4,1c-.176.325-1.175.35-1.525.35-10.023,0-11.222-1.425-12.847-3.324a5.852,5.852,0,0,1-1.075-1.8c-.05-.15-.1-.225-.174-.225-.1,0-.151.1-.375.45-2.325,3.724-4.5,4.274-4.674,4.274-.1,0-.151-.05-.151-.1,0-.025.375-.4.426-.45a16.09,16.09,0,0,0,4.274-8.8c.074-1.125.074-1.225.25-1.225.15,0,2.149.575,2.149.925,0,.15-.5.55-.55.649-.175.375-.6,2.1-.725,2.45,0,.025-.425,1.274-.425,1.325,0,1.249,3.224,3.449,4.574,3.449.325,0,.325-.35.325-.525,0-1.4.05-7.673.05-8.948,0-.625,0-.975-.75-.975Zm-3.749-4.524c-.325,0-.475.025-.625.45-.475,1.5-1.25,2.075-1.85,2.075a.729.729,0,0,1-.824-.7c0-.35.1-.475.724-1.125a6.728,6.728,0,0,0,1.25-2.224c.1-.3.15-.425.25-.425.175,0,.375.4.525.875.1.375.25.424.575.424h5.948c.6,0,.675-.349.675-.774,0-.4-.05-1.5-.075-1.9-.025-.2-.175-1.125-.175-1.325,0-.125.075-.125.1-.125s1.7.375,2.549.575a.315.315,0,0,1,.176.25c0,.125-.576.575-.65.725a6.7,6.7,0,0,0-.125,1.6c0,.9.2.974.775.974h4.9c.675,0,.8-.049,1.125-.3.325-.275.6-.525.875-.525.175,0,2.3,1.274,2.3,1.949,0,.5-.575.5-.725.5-.174,0-1.074-.075-1.3-.075a3.1,3.1,0,0,0-1.425.35,3.342,3.342,0,0,1-.725.375.066.066,0,0,1-.075-.075c0-.2.6-1.125.6-1.375,0-.175-.15-.175-.5-.175Z" fill="#333"/>
    <path id="パス_2167" data-name="パス 2167" d="M1131.137,422.7c-.775,0-1.9,0-2.774.075-.075,0-.45.05-.525.05-.1,0-.15-.05-.225-.15l-.5-.575c-.1-.125-.1-.125-.1-.175s.05-.05.1-.05c.35,0,2.049.15,2.449.15a.593.593,0,0,0,.675-.55c.025-.2.075-7.8.075-8.523,0-.425-.125-.725-.7-.725-.176,0-1.075.1-1.226.1-.074,0-.124-.049-.224-.15l-.475-.575c-.1-.124-.1-.124-.1-.174s.05-.05.075-.05c.275,0,1.624.1,1.924.1.75,0,.75-.325.75-.975,0-.475,0-1-.025-1.45,0-.15-.05-.9-.05-.925,0-.174.15-.2.25-.2.05,0,2.025.3,2.025.7,0,.125-.175.225-.5.475a5.123,5.123,0,0,0-.15,1.625c0,.825.375.825.874.825h1.875c.55,0,.95,0,.95-.75,0-.35-.075-2.175-.075-2.575a.2.2,0,0,1,.225-.225c.025,0,2.049.4,2.049.825,0,.1-.375.4-.424.5a5.364,5.364,0,0,0-.176,1.725c0,.225,0,.425.2.425.226,0,.425-.25.525-.35.4-.55.45-.6.65-.6a3.453,3.453,0,0,1,1.525,1.4c0,.275-.475.275-1.15.275h-.9c-.9,0-.924.175-.924,1.25V421.6c0,.125,0,.375.2.375a.676.676,0,0,0,.475-.35c.425-.75.475-.825.775-.825.375,0,1.45,1.375,1.45,1.575,0,.325-.325.325-.925.325Zm2.075,2.449c0,.25-.176.325-.7.575-.549.25-4.273,4.424-5.348,4.424-.1,0-.15-.05-.15-.1,0-.025,1.525-1.749,1.774-2.124a18.191,18.191,0,0,0,2.125-3.6c.1-.3.175-.549.3-.549a3.652,3.652,0,0,1,1.025.524C1133.112,424.873,1133.212,424.948,1133.212,425.148ZM1134.561,415c1.05,0,1.05-.2,1.05-1.85,0-.9-.25-.95-1.05-.95h-1.624c-1.05,0-1.05.2-1.05,1.85,0,.9.25.95,1.05.95Zm0,3.574c.6,0,1.05,0,1.05-.75v-1.549c0-.625-.525-.625-1.05-.625h-1.624c-.6,0-1.05,0-1.05.749,0,.175,0,1.475.025,1.525,0,.65.5.65,1.025.65Zm-1.724.65c-.6,0-.925.025-.925.849V421.2c0,.825.275.85.925.85h1.824c.6,0,.925-.025.925-.85v-1.1c0-.85-.275-.875-.925-.875Zm5.9,8.223a.93.93,0,0,1-.825,1.024c-.574,0-.775-.549-1.174-1.649a5.5,5.5,0,0,0-1.375-2.2c-.1-.1-.425-.425-.425-.5a.091.091,0,0,1,.1-.1,10.608,10.608,0,0,1,1.724.849C1137.385,425.223,1138.735,425.973,1138.735,427.448Zm7.348-18.371a1.409,1.409,0,0,0,.625-.075c.125-.075.65-.6.825-.6.2,0,1.774.675,1.774,1.15a.509.509,0,0,1-.2.375c-.35.3-.375.35-.451.475a37.3,37.3,0,0,0-.149,4.249c0,1.524.075,8.7.125,11.6,0,.2.075,1.2.075,1.425a2.165,2.165,0,0,1-2.1,2.374c-.325,0-.4-.05-.625-.4a4.3,4.3,0,0,0-1.949-1.549c-.025,0-.475-.225-.325-.275.125-.05,1.6,0,1.9,0,.974,0,1.174-.125,1.274-.575.075-.375.075-4.549.075-5.3,0-.95-.15-1.05-.975-1.05h-2.849c-1,0-.975.1-1.025,1.15-.15,4-2.824,8.173-3.374,8.173a.113.113,0,0,1-.125-.1,6.1,6.1,0,0,1,.25-.6c1.8-4.049,1.8-8.373,1.8-12a49.387,49.387,0,0,0-.374-7.848c-.025-.2-.2-1.175-.2-1.225,0-.1.075-.15.175-.15a19.737,19.737,0,0,1,1.949.725,3.785,3.785,0,0,0,.75.05Zm-.025,5.549c.65,0,.925-.05.925-.825v-3.2c0-.85-.325-.85-.974-.85h-2.85c-.7,0-.975.05-.975.9,0,.45.05,2.649.05,3.149,0,.825.325.825,1.025.825Zm-.075,5.623c.575,0,.975,0,.975-.749.025-.9.025-2.45.025-3.375,0-.824-.375-.849-.95-.849h-2.774c-.65,0-1.025,0-1.025.824,0,.475-.025,2.85-.025,3.375,0,.75.325.774.925.774Z" fill="#333"/>
    <path id="パス_2168" data-name="パス 2168" d="M1163.686,415.476c-.15.475-.175,5.973-.175,6.948,0,1.1.05,5.924.05,6.9,0,.75-.525,1.05-1.2,1.05-.55,0-.65-.325-.65-.725,0-.25.125-1.45.125-1.674.1-1.725.15-4.2.15-5.874,0-1.325-.025-4.174-.05-5.6,0-.15,0-.5-.15-.5-.075,0-.275.276-.375.4a11.532,11.532,0,0,1-2.25,2.3c-.1,0-.15-.05-.15-.175,0-.075,1.025-1.65,1.2-1.975a29.667,29.667,0,0,0,3.5-8.473c.049-.475.049-.524.224-.524.1,0,2.4.874,2.4,1.424,0,.275-.275.4-.525.5a.864.864,0,0,0-.575.525,37.171,37.171,0,0,1-1.924,3.449,1.369,1.369,0,0,0-.225.475c0,.175.125.225.3.3a1.555,1.555,0,0,1,.775.5C1164.161,414.876,1163.737,415.351,1163.686,415.476Zm11.472,5.6c-.674,0-.724.35-.749.775a11.859,11.859,0,0,1-.45,3.2,10.131,10.131,0,0,0-.425,1.225c0,.275.1.325,1.125.7a19.384,19.384,0,0,0,6.548,1.149c.125,0,.75-.05.9-.05.05,0,.15,0,.15.076,0,.125-.325.275-.5.349a2.651,2.651,0,0,0-1.125,1c-.275.55-.35.7-.749.7-1.725,0-5.274-1.524-6.4-2.2-.625-.374-.7-.424-.85-.424a2.98,2.98,0,0,0-.924.6,10.67,10.67,0,0,1-6.024,2.249c-.1,0-.375,0-.375-.175,0-.125.1-.15.625-.25,2.024-.4,5.524-2.7,5.524-3.474,0-.175-.051-.225-.5-.75a13.159,13.159,0,0,1-2-3.574.21.21,0,0,1,.225-.225c.125,0,.25.2.5.625.625,1,1.925,2.874,2.374,2.874.475,0,.775-2.624.775-3.549,0-.45-.025-.85-.675-.85h-2.649c-.4,0-.55.075-.65.225a1.4,1.4,0,0,1-1.225.8c-.574,0-.574-.6-.574-.925,0-.45.074-2.7.074-3.2,0-1.275-.024-2.574-.149-4.3,0-.175-.1-1.025-.1-1.225,0-.25.1-.25.176-.25a5.125,5.125,0,0,1,1.349.475,2.467,2.467,0,0,0,1.4.375h2.325c.749,0,.749-.275.749-1.574,0-1,0-1.4-.7-1.4h-1.324c-.7,0-1.95,0-2.95.05-.075,0-.674.075-.724.075-.075,0-.125-.05-.225-.15l-.475-.575c-.1-.1-.1-.125-.1-.175s.05-.05.075-.05c.175,0,.924.075,1.1.075.725.05,2.025.1,3.425.1h6.023c1.275,0,1.35,0,1.775-.675.55-.924.624-1,.85-1a4.485,4.485,0,0,1,2.049,1.974c0,.35-.475.35-1.35.35h-5.1c-.775,0-.775.3-.775,1.35,0,1.274,0,1.624.75,1.624h2.274a1.016,1.016,0,0,0,.75-.25c.425-.475.45-.5.575-.5.2,0,1.874.975,1.874,1.3,0,.175-.15.275-.4.4a.5.5,0,0,0-.35.575c0,.825.025,1.824.051,2.649.025.55.15,3.2.15,3.8,0,.95-1.05,1.15-1.3,1.15-.275,0-.45-.125-.525-.6-.075-.5-.55-.5-.75-.5Zm-3-4.349c.725,0,.725-.175.725-1.849,0-.825,0-1.175-.725-1.175h-2.674c-.75,0-.75.175-.75,1.85,0,.824,0,1.174.75,1.174Zm.025,3.7c.7,0,.7-.35.7-1.149,0-1.7,0-1.9-.7-1.9h-2.724c-.675,0-.675.325-.675,1.075,0,1.775,0,1.974.725,1.974Zm3.05-6.723c-.775,0-.775.325-.775,1.125,0,1.4,0,1.574.175,1.724a.724.724,0,0,0,.6.175h2.324c.775,0,.775-.325.775-1.125,0-1.3,0-1.574-.175-1.724a.724.724,0,0,0-.6-.175Zm.025,3.674c-.8,0-.8.4-.8,1.05,0,1.8,0,2,.8,2h2.3c.8,0,.8-.4.8-1.049,0-1.8,0-2-.8-2Z" fill="#333"/>
  </g>
</svg>
