<svg id="nav_talk_sp" xmlns="http://www.w3.org/2000/svg" width="745" height="90" viewBox="0 0 745 90">
  <rect id="長方形_16" data-name="長方形 16" width="745" height="90" fill="#ffc946" opacity="0"/>
  <g id="グループ_288" data-name="グループ 288" transform="translate(-1359.717 -1506.374)">
    <g id="グループ_285" data-name="グループ 285">
      <g id="グループ_284" data-name="グループ 284">
        <path id="パス_1335" data-name="パス 1335" d="M1606.272,1585.826c-4.234,0-7.175-3.467-7.175-8.4s2.918-8.425,7.175-8.425c4.213,0,7.153,3.466,7.153,8.425C1613.425,1582.337,1610.506,1585.826,1606.272,1585.826Zm5.068-8.6c0-2.019-.57-7.5-5.068-7.5-4.915,0-5.09,6.45-5.09,7.9,0,2.106.636,7.482,5.09,7.482C1611.165,1585.1,1611.34,1578.717,1611.34,1577.225Z" fill="#333"/>
        <path id="パス_1336" data-name="パス 1336" d="M1630.444,1569.26c0,.022,1.426,3.467,1.426,3.708a.411.411,0,0,1-.417.4c-.2,0-.241-.066-.7-.7-1.866-2.633-3.819-2.94-4.74-2.94-3.444,0-5.221,4.213-5.221,8.009,0,5.09,2.983,7.087,5.594,7.087,1.537,0,3.292-.658,4.74-3.116.505-.856.505-.878.68-.878a.343.343,0,0,1,.329.351,7.237,7.237,0,0,1-1.251,2.217,6.4,6.4,0,0,1-5.156,2.435c-4.63,0-6.889-3.752-6.889-8.053,0-5.134,3.181-8.776,6.889-8.776a7.633,7.633,0,0,1,1.865.263,10.66,10.66,0,0,0,1.317.351.912.912,0,0,0,.593-.219c.35-.351.394-.4.57-.4A.5.5,0,0,1,1630.444,1569.26Z" fill="#333"/>
        <path id="パス_1337" data-name="パス 1337" d="M1647.247,1576.874c.592,0,.592-.132.592-3.028,0-3.182,0-3.73-2.04-3.73-.175,0-.57,0-.57-.373,0-.329.4-.329.592-.329h5.6c.153,0,.57,0,.57.351,0,.372-.285.372-.966.372a1.394,1.394,0,0,0-1.339.812c-.176.461-.2.527-.2,8.47a34.991,34.991,0,0,0,.176,4.454c.306.834,1.207.834,1.623.834.33,0,.7,0,.7.351s-.417.351-.57.351h-5.6c-.219,0-.592,0-.592-.329,0-.351.4-.351.636-.351a2.143,2.143,0,0,0,1.536-.439c.438-.439.438-.46.438-4.476,0-2.041,0-2.216-.592-2.216h-5.9a.588.588,0,0,0-.5.263c-.087.242-.087,2.414-.087,2.83,0,3.6,0,4.038,2.062,4.038.153,0,.549,0,.549.373,0,.307-.4.307-.593.307h-5.595c-.132,0-.571,0-.571-.351s.285-.351.966-.351a1.4,1.4,0,0,0,1.426-1.119c.088-.526.088-5.858.088-8.667a31.352,31.352,0,0,0-.154-3.95c-.286-.834-1.207-.834-1.624-.834-.329,0-.7,0-.7-.372,0-.351.417-.351.571-.351h5.595c.22,0,.593,0,.593.329,0,.373-.373.373-.637.373-1.974,0-1.974.658-1.974,3.467,0,.4,0,2.808.087,3.005a.53.53,0,0,0,.5.286Z" fill="#333"/>
        <path id="パス_1338" data-name="パス 1338" d="M1668.167,1585.409c-.242,0-.527-.066-.527-.351,0-.351.351-.351.878-.351a.964.964,0,0,0,.9-.965,11.971,11.971,0,0,0-.812-2.568c-.483-1.228-.549-1.382-1.273-1.382h-4.762c-.812,0-.9.219-1.25,1.207a17.556,17.556,0,0,0-.79,2.852c0,.856.7.856,1.228.856.264,0,.505.044.505.351,0,.351-.329.351-.505.351h-4.213c-.174,0-.459-.022-.459-.329,0-.373.24-.373.746-.373a1.847,1.847,0,0,0,1.667-.877c.5-.681,2.128-5.837,2.611-7.395.285-.878,1.689-5.179,1.975-6.166.219-.768.35-1.272,1.909-1.272a.5.5,0,0,1,.482.351,14.769,14.769,0,0,1,.725,1.974c1.535,4.762,1.667,5.288,3.049,9.347,1.252,3.731,1.4,4.038,2.656,4.038.285,0,.5.132.5.373,0,.329-.352.329-.5.329Zm-1.032-6.341c.242,0,.549-.11.549-.351,0-.461-2.084-6.561-2.479-7.746-.132-.373-.176-.57-.329-.57-.132,0-.155.066-.4.79-.615,1.777-2.326,7.351-2.326,7.548,0,.329.328.329.614.329Z" fill="#333"/>
        <path id="パス_1339" data-name="パス 1339" d="M1689.652,1584.6c-.153-.4-1.1-2.874-1.1-3.006a.464.464,0,0,1,.483-.461c.241,0,.285.11.811.922a6.484,6.484,0,0,0,5.156,3.006,3.162,3.162,0,0,0,3.248-3.313c0-2-1.317-2.7-4.1-3.664-3.05-1.054-5.069-2.217-5.069-4.828a4.134,4.134,0,0,1,4.388-4.256,8.72,8.72,0,0,1,1.559.175c.241.044,1.162.242,1.316.242a.834.834,0,0,0,.483-.132c.306-.241.351-.285.505-.285.262,0,.329.2.547.768.155.351,1.186,2.94,1.186,3.071a.346.346,0,0,1-.373.352c-.176,0-.22-.066-.57-.637a5.086,5.086,0,0,0-4.477-2.83,2.806,2.806,0,0,0-2.984,2.9c0,1.821,1.316,2.479,4.191,3.489,4.432,1.536,5.025,3.291,5.025,4.98a4.652,4.652,0,0,1-4.761,4.74,7.049,7.049,0,0,1-2.37-.439,2.873,2.873,0,0,0-.878-.219,1.13,1.13,0,0,0-.834.285c-.373.329-.416.373-.637.373C1690.112,1585.826,1690.069,1585.694,1689.652,1584.6Z" fill="#333"/>
        <path id="パス_1340" data-name="パス 1340" d="M1714.7,1576.874c.593,0,.593-.132.593-3.028,0-3.182,0-3.73-2.04-3.73-.176,0-.571,0-.571-.373,0-.329.395-.329.592-.329h5.6c.153,0,.57,0,.57.351,0,.372-.285.372-.966.372a1.394,1.394,0,0,0-1.339.812c-.175.461-.2.527-.2,8.47a34.991,34.991,0,0,0,.176,4.454c.307.834,1.207.834,1.623.834.33,0,.7,0,.7.351s-.417.351-.57.351h-5.6c-.219,0-.592,0-.592-.329,0-.351.395-.351.636-.351a2.143,2.143,0,0,0,1.536-.439c.439-.439.439-.46.439-4.476,0-2.041,0-2.216-.593-2.216h-5.9a.587.587,0,0,0-.5.263c-.088.242-.088,2.414-.088,2.83,0,3.6,0,4.038,2.062,4.038.154,0,.549,0,.549.373,0,.307-.395.307-.593.307h-5.594c-.133,0-.572,0-.572-.351s.285-.351.966-.351a1.4,1.4,0,0,0,1.426-1.119c.088-.526.088-5.858.088-8.667a31.327,31.327,0,0,0-.154-3.95c-.286-.834-1.207-.834-1.624-.834-.329,0-.7,0-.7-.372,0-.351.417-.351.572-.351h5.594c.22,0,.593,0,.593.329,0,.373-.373.373-.637.373-1.974,0-1.974.658-1.974,3.467,0,.4,0,2.808.088,3.005a.529.529,0,0,0,.5.286Z" fill="#333"/>
        <path id="パス_1341" data-name="パス 1341" d="M1730.99,1585.826c-4.236,0-7.175-3.467-7.175-8.4s2.918-8.425,7.175-8.425c4.213,0,7.153,3.466,7.153,8.425C1738.143,1582.337,1735.225,1585.826,1730.99,1585.826Zm5.069-8.6c0-2.019-.571-7.5-5.069-7.5-4.915,0-5.091,6.45-5.091,7.9,0,2.106.637,7.482,5.091,7.482C1735.883,1585.1,1736.059,1578.717,1736.059,1577.225Z" fill="#333"/>
        <path id="パス_1342" data-name="パス 1342" d="M1749,1569.414c1.053,0,6.055.109,6.055,3.8,0,2.237-1.689,3.247-2.918,3.839-.767.373-.855.417-.855.659a39.013,39.013,0,0,0,2.281,5.244,2.736,2.736,0,0,0,2.59,1.755c.219,0,.658,0,.658.351,0,.307-.439.351-.549.351h-2.742a1.074,1.074,0,0,1-1.031-.636c-.133-.22-1.689-3.621-1.932-4.169-1.207-2.655-1.36-3.006-2.128-3.006h-1.207c-.153,0-.438.088-.505.263-.087.22-.087,3.116-.087,3.62,0,2.656,0,3.226,2.019,3.226.152,0,.461,0,.461.351s-.395.351-.637.351h-5.42c-.219,0-.548-.044-.548-.351,0-.351.307-.351.615-.351,1.513,0,1.732-.7,1.8-1.514.043-.746.043-6.78.043-7.811a35.377,35.377,0,0,0-.175-4.433c-.285-.812-1.23-.812-1.734-.812-.131,0-.592,0-.592-.394,0-.329.4-.329.659-.329Zm-.79.723c-1.58,0-1.58.988-1.58,3.248,0,3.445,0,3.511.592,3.511H1749c2.15,0,3.971-1.185,3.971-3.467,0-1.536-.834-3.292-3.686-3.292Z" fill="#333"/>
        <path id="パス_1343" data-name="パス 1343" d="M1772.809,1569.414c1.186,0,1.448,0,1.821.987.176.482,1.12,2.962,1.12,3.182a.338.338,0,0,1-.351.329c-.176,0-.242-.088-.746-.922-1.164-1.909-2.458-2.853-3.95-2.853-.856,0-1.382.352-1.514,1.1-.065.4-.065,5.354-.065,6.276,0,.615,0,5.683.065,6.056.2,1.119,1.229,1.141,1.821,1.141.812,0,.988,0,.988.351s-.308.351-.659.351H1765.2c-.308,0-.637,0-.637-.351s.352-.351.483-.351c1.3,0,2.106,0,2.326-1.141.066-.351.066-.373.066-6.21,0-5.419,0-6.012-.154-6.429a1.369,1.369,0,0,0-1.4-.79c-1.756,0-3.05,1.383-3.95,2.831-.527.856-.57.944-.767.944a.356.356,0,0,1-.352-.329c0-.176.988-2.809,1.162-3.248.352-.921.7-.921,1.8-.921Z" fill="#333"/>
        <path id="パス_1344" data-name="パス 1344" d="M1803.356,1569.414c1.186,0,1.448,0,1.821.987.176.482,1.119,2.962,1.119,3.182a.337.337,0,0,1-.35.329c-.176,0-.242-.088-.746-.922-1.164-1.909-2.458-2.853-3.95-2.853-.856,0-1.382.352-1.514,1.1-.065.4-.065,5.354-.065,6.276,0,.615,0,5.683.065,6.056.2,1.119,1.228,1.141,1.821,1.141.812,0,.988,0,.988.351s-.308.351-.659.351h-6.143c-.308,0-.637,0-.637-.351s.352-.351.482-.351c1.3,0,2.107,0,2.327-1.141.066-.351.066-.373.066-6.21,0-5.419,0-6.012-.154-6.429a1.37,1.37,0,0,0-1.405-.79c-1.755,0-3.049,1.383-3.949,2.831-.527.856-.57.944-.767.944a.356.356,0,0,1-.352-.329c0-.176.987-2.809,1.162-3.248.352-.921.7-.921,1.8-.921Z" fill="#333"/>
        <path id="パス_1345" data-name="パス 1345" d="M1820.655,1585.409c-.241,0-.526-.066-.526-.351,0-.351.35-.351.877-.351a.964.964,0,0,0,.9-.965,11.916,11.916,0,0,0-.812-2.568c-.483-1.228-.548-1.382-1.273-1.382h-4.762c-.811,0-.9.219-1.25,1.207a17.567,17.567,0,0,0-.79,2.852c0,.856.7.856,1.229.856.263,0,.505.044.505.351,0,.351-.33.351-.505.351h-4.213c-.175,0-.46-.022-.46-.329,0-.373.24-.373.746-.373a1.846,1.846,0,0,0,1.667-.877c.505-.681,2.128-5.837,2.611-7.395.285-.878,1.69-5.179,1.975-6.166.22-.768.35-1.272,1.909-1.272a.5.5,0,0,1,.482.351,14.471,14.471,0,0,1,.725,1.974c1.535,4.762,1.667,5.288,3.049,9.347,1.252,3.731,1.4,4.038,2.656,4.038.285,0,.5.132.5.373,0,.329-.352.329-.5.329Zm-1.031-6.341c.241,0,.548-.11.548-.351,0-.461-2.084-6.561-2.479-7.746-.132-.373-.176-.57-.329-.57-.132,0-.154.066-.4.79-.615,1.777-2.326,7.351-2.326,7.548,0,.329.328.329.614.329Z" fill="#333"/>
        <path id="パス_1346" data-name="パス 1346" d="M1837.3,1584.707a6.483,6.483,0,0,0,5.53-2.984c.417-.615.461-.68.614-.68a.306.306,0,0,1,.329.329c0,.131-.834,2.282-.966,2.633-.549,1.382-.635,1.4-2.062,1.4h-9.194c-.329,0-.636,0-.636-.351s.242-.351.79-.351a1.456,1.456,0,0,0,1.668-1.141c.065-.373.065-5.419.065-6.056,0-.878,0-5.859-.065-6.254-.2-1.119-1.163-1.119-1.976-1.119-.152,0-.482,0-.482-.35,0-.373.307-.373.636-.373h5.442c.351,0,.658,0,.658.373,0,.35-.241.35-.789.35a1.469,1.469,0,0,0-1.668,1.119c-.066.4-.066,5.069-.066,6.1,0,5.837,0,5.859.066,6.21a1.4,1.4,0,0,0,1.514,1.141Z" fill="#333"/>
        <path id="パス_1347" data-name="パス 1347" d="M1857.393,1585.409c-.22,0-.549,0-.549-.351s.307-.351.637-.351c.7,0,.943-.373.943-.7a1.285,1.285,0,0,0-.087-.483c-.067-.2-2.3-3.752-2.568-4.191-1.184-1.887-1.316-2.106-1.557-2.106-.264,0-.615.329-1.1.856-.877.965-.965,1.184-.965,2.018v3.094c0,1.514,1.185,1.514,1.843,1.514.2,0,.438.066.438.351,0,.351-.328.351-.525.351h-5.2c-.219,0-.549,0-.549-.351s.308-.351.615-.351c.768,0,1.646-.285,1.646-1.514v-11.542c0-1.514-1.185-1.514-1.843-1.514-.176,0-.418-.065-.418-.35,0-.373.33-.373.527-.373h5.178c.242,0,.57,0,.57.373,0,.35-.328.35-.613.35-.7,0-1.668.242-1.668,1.514v5.618c0,.2.022.439.264.439.109,0,.2-.11.24-.132.2-.22,3.533-3.862,4.191-4.586,1.405-1.536,1.58-1.712,1.58-2.129,0-.724-.855-.724-1.492-.724-.066,0-.439,0-.439-.35,0-.373.33-.373.571-.373h5.419c.264,0,.593,0,.593.373,0,.35-.308.35-.724.35a4.205,4.205,0,0,0-2.567.812c-.461.351-2.853,2.985-3.775,3.994a1.027,1.027,0,0,0-.35.68,1.693,1.693,0,0,0,.329.79c.834,1.317,1.207,1.909,4.586,7.263a3.156,3.156,0,0,0,2.414,1.031c.416,0,.416.307.416.351,0,.351-.329.351-.526.351Z" fill="#333"/>
      </g>
    </g>
    <g id="グループ_287" data-name="グループ 287">
      <g id="グループ_286" data-name="グループ 286">
        <path id="パス_1348" data-name="パス 1348" d="M1509.13,1528.092c0,1.254-2.887,2.394-3.8,2.774-.532.19-.57.342-.646,1.672-.076.836-.076,3.913-.076,4.1,0,.228,0,.684.343.684.113,0,3.228-1.292,3.837-1.52,3.76-1.406,5.471-1.52,6.459-1.52a5.817,5.817,0,0,1,5.85,5.737c0,5.016-5.281,7.3-8.4,7.3-2.166,0-3.913-1.1-3.913-3.077a3.386,3.386,0,0,1,1.9-3,.2.2,0,0,1,.19.19c0,.115-.076.19-.152.3a1.572,1.572,0,0,0-.342,1.026c0,1.824,2.089,1.824,2.47,1.824,2.508,0,5.7-1.672,5.7-4.711a3.936,3.936,0,0,0-3.648-4.18c-1.063,0-3.419.494-7.864,2.85-2.128,1.14-2.356,1.253-2.356,1.9,0,.418.114,2.128.114,2.508,0,1.748-.57,4.256-1.937,4.256-1.026,0-1.444-.8-1.748-1.406-1.216-2.356-1.406-2.356-1.9-2.356a3.166,3.166,0,0,0-.949.228,7.5,7.5,0,0,1-1.443.76c-.418,0-2.357-1.14-2.357-2.394,0-.683.418-1.482,1.1-1.482.228,0,1.329.191,1.557.191,1.026,0,1.711-.191,3.952-1.292,1.937-.95,2.165-1.064,2.165-2.128,0-.874-.037-4.1-.076-4.749,0-.266-.114-.836-.532-.836a8.9,8.9,0,0,0-1.748.342c-1.937.646-2.127.722-2.7.722-1.292,0-2.736-2.622-2.736-2.888a.269.269,0,0,1,.3-.266c.114,0,.571.152.684.152a11.039,11.039,0,0,0,1.748.19,16.593,16.593,0,0,0,4.825-1.14,28.259,28.259,0,0,0,.38-4.141,3.728,3.728,0,0,0-1.254-3.04,3.833,3.833,0,0,1-.531-.607c0-.343.607-.418.836-.418,2.545,0,3.913,1.861,3.913,2.583a15.306,15.306,0,0,1-.8,1.976,20.257,20.257,0,0,0-.381,2.469c0,.152.076.418.305.418.266,0,1.33-.418,1.33-.949,0-.077-.19-.456-.19-.533,0-.037.076-.113.152-.151C1507.307,1526.382,1509.13,1526.915,1509.13,1528.092Zm-8.663,14.552c0,.57,1.027,1.786,1.6,1.786.532,0,1.065-1.064,1.065-2.926,0-.151,0-.532-.115-.607C1502.9,1540.9,1500.467,1542.112,1500.467,1542.644Zm24.963-11.816c0,.8-.456,1.824-1.254,1.824-.228,0-1.1-.076-1.292-.076-.19.038-.987.266-1.139.266a.177.177,0,0,1-.19-.19,2.621,2.621,0,0,1,.114-.3,2,2,0,0,0,.152-.684c0-1.52-1.9-2.052-3.192-2.052a3.3,3.3,0,0,0-1.482.38.849.849,0,0,1-.38.114c-.114,0-.151-.038-.151-.152a4.859,4.859,0,0,1,4.1-2.393C1523.644,1527.561,1525.43,1529.08,1525.43,1530.828Z" fill="#333"/>
        <path id="パス_1349" data-name="パス 1349" d="M1564.4,1531.55a33.461,33.461,0,0,0,9.194,3c.153,0,.8.115.8.266,0,.114-.532.267-.684.3a6.587,6.587,0,0,0-2.888,2.052c-.113.152-.531.95-.722.95-.227,0-8.472-3.99-12.2-10.069-.722-1.216-.836-1.329-1.1-1.329s-.341.075-1.177.949a45.174,45.174,0,0,1-11.246,8.853c-1.292.684-5.245,2.432-5.965,2.432-.115,0-.191-.076-.191-.114s4.066-2.546,4.408-2.774c5.128-3.229,10.562-9.043,11.093-11.892.039-.3.077-.418.342-.418.191,0,3.268,1.178,3.458,1.292.114.038.494.19.494.57a2.417,2.417,0,0,1-.151.532C1557.937,1526.725,1561.2,1529.916,1564.4,1531.55Zm-18.313-9.461c-2.811,0-4.1.076-4.826.114-.114,0-.683.076-.8.076s-.19-.076-.342-.228l-.722-.874c-.152-.19-.152-.19-.152-.266s.038-.076.114-.076c.266,0,1.443.114,1.672.114,1.861.076,3.457.152,5.243.152h1.1c.8,0,1.026-.38,1.026-1.025a6.15,6.15,0,0,0-.305-2.014,5.923,5.923,0,0,1-.227-.76c0-.19.19-.266.418-.266.265,0,1.975.418,2.393.532,1.14.3,1.367.38,1.367.722,0,.228-.037.3-.569.988a.931.931,0,0,0-.266.683c0,.913.3,1.14,1.33,1.14h6.269c.342,0,1.14,0,1.14-1.025a15.556,15.556,0,0,0-.114-1.71c-.038-.19-.228-.988-.228-1.14,0-.19.228-.266.418-.266.267,0,2.85.608,3.268.722s.645.266.645.608c0,.228-.152.379-.57.684a1.218,1.218,0,0,0-.493,1.064c0,1.063.608,1.063,1.215,1.063h1.938c1.672,0,1.861,0,2.432-.645,1.064-1.254,1.177-1.406,1.519-1.406.229,0,3.533,2.014,3.533,2.507,0,.532-.76.532-2.013.532h-7.409c-1.177,0-1.177.608-1.177,1.52,0,.228.037,1.52.037,1.71,0,1.406-1.139,1.634-1.938,1.634-.873,0-1.025-.153-1.025-1.444v-2.622c-.113-.722-.57-.8-1.178-.8h-6.079c-.874,0-1.405,0-1.405,1.064,0,.38.113,2.052.113,2.394,0,.722-.113,1.063-.456,1.291a2.687,2.687,0,0,1-1.443.533c-.646,0-.951-.418-.951-1.179,0-.3.039-1.747.039-2.013,0-1.482,0-2.09-1.178-2.09Zm2.7,19.415a19.449,19.449,0,0,1,2.926,1.786.942.942,0,0,1,.3.57c0,.456-.3.532-1.216.76-.114.038-3.381,2.584-3.989,3.039a23.379,23.379,0,0,1-5.775,3.306.121.121,0,0,1-.114-.114c0-.076,2.013-1.824,2.28-2.09,3.152-3,5.091-6,5.433-7.218A.223.223,0,0,1,1548.78,1541.5Zm1.748-2.013c-2.963,0-4.065.038-4.824.114-.116,0-.685.076-.8.076s-.19-.076-.342-.228l-.722-.874c-.152-.19-.152-.19-.152-.266,0-.038.038-.076.114-.076.266,0,1.444.114,1.672.114,1.862.114,3.457.152,5.243.152h2.85c.38,0,1.14,0,1.14-1.026,0-.456-.229-3.534-.3-3.913,0-.077-.228-.457-.228-.532s.076-.228.379-.228c.267,0,2.926.57,3.307.683.531.115.721.456.721.646,0,.228-.077.3-.646.8-.532.456-.532.684-.532,1.824,0,1.368,0,1.748,1.141,1.748h1.671c1.672,0,1.862,0,2.432-.646,1.064-1.254,1.178-1.406,1.52-1.406.227,0,3.533,2.052,3.533,2.508,0,.532-.76.532-2.014.532h-7.182c-1.138,0-1.138.683-1.138,1.9,0,2.7,0,4.218.076,6.459.037.646.037,1.558.037,2.014,0,1.216-.3,1.938-1.937,1.938-.836,0-.913-.684-.913-1.33,0-.494.115-2.774.115-3.267.038-1.444.038-2.85.038-4.6a23.019,23.019,0,0,0-.076-2.584c-.19-.531-.8-.531-1.1-.531Zm10.144,3.191c0-.114.191-.152.342-.152,1.407,0,10.069,2.394,10.069,5.547,0,1.216-.684,2.166-1.633,2.166-.723,0-.874-.19-2.052-1.938a18.058,18.058,0,0,0-6.535-5.471C1560.825,1542.834,1560.672,1542.72,1560.672,1542.682Z" fill="#333"/>
        <path id="パス_1350" data-name="パス 1350" d="M1591.171,1537.211c0-1.14,1.064-2.356,3.647-5.357a17.467,17.467,0,0,0,3.229-5.662c0-.228-.265-.265-.418-.265-.379,0-1.937.3-2.279.3a4.031,4.031,0,0,1-3.382-3.343c0-.114,0-.266.228-.266a8.5,8.5,0,0,1,1.444.722,6.038,6.038,0,0,0,2.507.684c3.116,0,3.116-1.026,3.116-1.786a3.056,3.056,0,0,0-.3-1.33c-.115-.19-.913-.873-.913-1.1,0-.305.989-.608,1.672-.608.912,0,1.862.341,1.938,1.177.038.495.189.57,1.71.685.265,0,1.71.189,1.71.987,0,1.254-2.774,2.318-4.522,3-.57.228-.608.3-1.443,2.241a29.467,29.467,0,0,1-2.053,4.1c-.189.342-.265.456-.265.608a.139.139,0,0,0,.152.152,7.631,7.631,0,0,0,1.178-.418,3.551,3.551,0,0,1,1.481-.3,3.428,3.428,0,0,1,3.23,2.317c.265.646.3.722.379.722a17.587,17.587,0,0,0,1.558-2.051c1.254-1.748,3.724-5.206,7.029-5.206a3.585,3.585,0,0,1,3.572,3.382c0,1.786-3,3.04-5.357,4.066-.95.418-5.244,2.127-5.928,2.545-.607.38-.646.8-.646,1.6,0,.341.076,1.938.076,2.279,0,.608,0,2.774-1.4,2.774-1.026,0-1.178-1.254-1.178-1.938,0-.379.114-2.2.114-2.241,0-.152,0-.456-.266-.456-.3,0-3.685,2.355-3.685,4.521,0,2.622,3.8,2.622,4.9,2.622a11.747,11.747,0,0,0,2.431-.228c.533-.076,2.964-.684,3.457-.684.8,0,1.863.379,1.863,1.292,0,2.355-5.89,2.507-6.8,2.507-4.825,0-7.371-1.976-7.371-4.977,0-2.432,1.444-3.648,5.014-6.535a1.617,1.617,0,0,0,.571-1.33c0-1.71-.3-3.837-1.824-3.837-1.444,0-3.685,1.747-4.672,4.027-.418.95-.836,1.862-2.053,1.862C1591.892,1538.465,1591.171,1538.237,1591.171,1537.211Zm9.688-14.362c.076,0,1.9-.494,1.9-.912,0-.494-.949-.57-1.291-.57-.532,0-.684,1.064-.684,1.216S1600.783,1522.849,1600.859,1522.849Zm3.458,12.31c0,.076.037.19.151.19s7.6-3.039,7.6-5.547a1.169,1.169,0,0,0-1.33-1.14C1607.585,1528.662,1604.317,1534.551,1604.317,1535.159Z" fill="#333"/>
        <path id="パス_1351" data-name="パス 1351" d="M1646.329,1521.253c0,.342-1.785,3.534-1.785,4.18,0,.266.189.531.683.874.912.646,1.367,1.064,1.367,1.633,0,.608-.418.912-2.81,1.748-1.027.342-1.1.608-1.824,3a19.7,19.7,0,0,0-.8,3.306c0,.608.151.608,2.811.836.912.076,2.7.646,2.7,1.6,0,.684-1.026,1.1-1.976,1.1-.569,0-3.306-.494-3.495-.494-.95,0-.95,1.785-.95,2.621.038,1.71.494,5.661,5.243,5.661,1.595,0,5.47-.684,5.47-5.167,0-1.633-.341-3.8-3.76-8.586a.61.61,0,0,1-.152-.38c0-.342.836.38.95.456,4.369,3.533,6.079,6.534,6.079,9.194,0,3.609-3.648,6.839-8.093,6.839-.722,0-7.257,0-7.257-6.877,0-.608.3-3.191.3-3.723,0-.456-.076-.722-.722-1.216-1.368-1.026-2.052-2.052-2.052-3.23,0-1.14.418-2.393,2.812-4.331,1.975-1.6,2.2-1.748,2.2-2.28,0-.494-.19-.645-1.026-1.291-1.1-.874-2.546-2.014-2.546-3.61,0-.266.076-.684.342-.684.19,0,.835.8.988.912a5.623,5.623,0,0,0,2.584,1.33c1.063,0,1.367-3.381,1.367-3.914a9.976,9.976,0,0,0-.379-2.545.752.752,0,0,1-.076-.38C1643.669,1517.72,1646.329,1520.228,1646.329,1521.253Zm-6.307,9.575c-.874,0-2.773,1.292-2.773,2.736a2.5,2.5,0,0,0,1.937,2.279.484.484,0,0,0,.418-.3,24.561,24.561,0,0,0,.912-4.065C1640.516,1531.17,1640.516,1530.828,1640.022,1530.828Z" fill="#333"/>
        <path id="パス_1352" data-name="パス 1352" d="M1673.717,1535.691c0-.456.229-.607.533-.607s1.595.379,1.862.379c.721,0,1.139-.19,4.824-1.71,1.483-.607,5.51-2.241,8.436-2.241a7.592,7.592,0,0,1,7.75,7.523c0,5.851-6.194,8.814-12.044,8.814-.38,0-.95,0-.95-.455,0-.343.152-.38,1.33-.533,6.953-.949,9.156-5.775,9.156-8.966a4.931,4.931,0,0,0-4.748-5.167c-2.4,0-5.548,1.52-9.272,3.989-2.2,1.482-2.468,1.634-3.3,1.634C1675.465,1538.351,1673.717,1536.6,1673.717,1535.691Z" fill="#333"/>
        <path id="パス_1353" data-name="パス 1353" d="M1721.783,1536.945c1.139-1.064,1.634-1.558,1.634-2.052a9.661,9.661,0,0,0-.342-1.178,12.209,12.209,0,0,1-.647-4.445c0-.874.191-5.281.191-6.269a3.551,3.551,0,0,0-1.14-3.078c-.8-.836-.912-.949-.912-1.063,0-.152.912-.191,1.025-.191,2.166,0,4.1,1.749,4.1,2.85,0,.342-.455,2.052-.531,2.432a35.594,35.594,0,0,0-.342,5.015c0,1.444,0,4.521.987,4.521.532,0,.761-.152,2.812-1.444.418-.265,2.812-1.785,3.914-1.785a1.459,1.459,0,0,1,1.443,1.406c0,1.14-1.558,1.748-2.926,2.279-9.043,3.648-10.334,6.421-10.334,8.891,0,2.584,2.2,3.534,5.282,3.534a16.977,16.977,0,0,0,4.558-.684,10.342,10.342,0,0,1,2.85-.57c1.292,0,2.508.874,2.508,1.824,0,1.937-7.75,2.127-9.764,2.127-1.748,0-7.258,0-7.258-5.965A8.617,8.617,0,0,1,1721.783,1536.945Z" fill="#333"/>
        <path id="パス_1354" data-name="パス 1354" d="M1760.981,1539.6c-3.344,0-4.445.076-4.826.076a5.756,5.756,0,0,1-.8.113c-.152,0-.19-.113-.343-.265l-.721-.874a.574.574,0,0,1-.153-.228.1.1,0,0,1,.114-.114c.267,0,1.445.152,1.672.152,1.863.076,3.419.114,5.2.114h8.131c.722,0,.988-.19.988-1.026a13.826,13.826,0,0,0-.19-1.9c-.038-.228-.342-1.254-.342-1.482,0-.19.038-.456.532-.456.3,0,2.28.533,2.546.608.3.115.646.266.646.608a6.8,6.8,0,0,1-.456.912,1.993,1.993,0,0,0-.342,1.406c0,.912.037,1.33,1.14,1.33h7.827c1.633,0,1.823,0,2.165-.342.267-.228,1.254-1.6,1.6-1.6s2.849,2.014,2.849,2.432c0,.532-.8.532-2.052.532H1774.7c-.342,0-.646,0-.646.417,0,1.254,6.878,6.611,14.59,7.257.076,0,.685.038.685.153s-.039.113-.457.227a4.508,4.508,0,0,0-3.153,2.318c-.19.456-.19.532-.341.532-.381,0-9.043-4.028-12.007-9.346-.228-.456-.3-.609-.456-.609-.266,0-.266.456-.266.532,0,1.444.228,7.675.228,8.967a1.469,1.469,0,0,1-1.482,1.634c-.418,0-1.443-.228-1.443-1.71,0-1.33.265-7.143.265-8.321,0-.113,0-.38-.265-.38a13.927,13.927,0,0,0-1.824,1.672,27.63,27.63,0,0,1-13.033,6.573c-1.026.19-1.633.3-1.71.3-.113,0-.189-.038-.189-.152s.076-.152.646-.38c6.5-2.469,13.45-8.055,13.45-9.271,0-.417-.608-.417-.874-.417Zm-2.394-3.382c-.038.228-.038.608-.532.608-.3,0-3.191-2.09-3.191-2.66,0-.228.113-.266,1.215-.836,1.406-.721,8.17-5.623,8.207-5.623a.122.122,0,0,1,.114.114c0,.342-4.636,6.194-5.472,7.258A1.783,1.783,0,0,0,1758.587,1536.223Zm2.127-10.372c-.721,0-.987-.456-1.292-1.026a13.716,13.716,0,0,0-3.646-4.407,2.135,2.135,0,0,1-.305-.267c0-.075.076-.113.19-.113a10.6,10.6,0,0,1,3.192.759c2.735,1.1,3.419,1.748,3.419,3.268A1.692,1.692,0,0,1,1760.714,1525.851Zm13.336-4.522a1.947,1.947,0,0,0,1.33-.38c.152-.152.836-1.139,1.064-1.139.305,0,2.584,1.519,2.584,2.165a.853.853,0,0,1-.3.532c-.493.456-.531.494-.531.874,0,1.292.342,7.523.342,8.967,0,1.367-.684,2.279-1.748,2.279a1.141,1.141,0,0,1-1.139-1.215c-.076-.988-.494-1.064-1.064-1.064h-5.889a.934.934,0,0,0-1.1.874c-.038.721-.114,1.9-1.747,1.9-1.1,0-1.1-.836-1.1-1.216,0-1.026.227-6.079.227-7.218a35.905,35.905,0,0,0-.3-5.168,11.9,11.9,0,0,1-.267-1.253c0-.266.19-.343.456-.343.494,0,2.584,1.406,3.115,1.406.684,0,1.026-2.089,1.026-3.039,0-.152-.076-.8-.076-.95,0-.342.191-.418.57-.418s3.609.684,3.609,1.406c0,.228-.113.3-.987.874-.267.19-1.976,1.482-1.976,1.862,0,.265.229.265.722.265Zm.38,4.75c1.254,0,1.254-.608,1.254-1.824,0-1.368,0-1.938-1.254-1.938h-5.7c-1.254,0-1.254.57-1.254,1.748,0,1.52,0,2.014,1.254,2.014Zm.038,5.243c1.216,0,1.216-.456,1.216-2.2,0-1.52,0-2.052-1.216-2.052h-5.737c-1.254,0-1.254.57-1.254,1.824,0,2.052,0,2.432,1.254,2.432Zm11.855,4.179c-.608,0-.722-.152-3.115-2.812-.609-.683-4.028-4.141-4.028-4.217,0-.114.076-.114.114-.114.38,0,8.093,2.2,8.093,5.89C1787.387,1535.2,1786.817,1535.5,1786.323,1535.5Zm-5.965-9.156c-.114,0-.152-.076-.152-.115s.949-1.139,1.139-1.367c.951-1.254,2.659-3.686,2.812-4.825.076-.533.076-.646.305-.646.607,0,3.533,2.279,3.533,2.7,0,.3-.19.342-.8.494a2.883,2.883,0,0,0-1.33.608C1784.727,1523.989,1781.08,1526.345,1780.358,1526.345Z" fill="#333"/>
        <path id="パス_1355" data-name="パス 1355" d="M1812.584,1523.305a17.485,17.485,0,0,1-.722,2.128,91.291,91.291,0,0,0-1.6,13.526c0,3.837.722,7.257,5.813,7.257a18.728,18.728,0,0,0,7.979-1.976c.57-.266,3.458-1.862,3.61-1.862a.178.178,0,0,1,.19.19c0,.418-5.623,6.535-12.767,6.535-4.939,0-7.295-2.85-7.295-10.486,0-2.356.077-3.116.875-10.563.152-1.254.494-4.369.494-5.433a4.806,4.806,0,0,0-.342-1.862c-.039-.113-.418-.987-.418-1.026,0-.265.3-.379.531-.379C1810.912,1519.354,1812.584,1522.431,1812.584,1523.305Z" fill="#333"/>
        <path id="パス_1356" data-name="パス 1356" d="M1854.145,1520.531c.3,1.292.379,1.634,1.215,1.71,1.786.19,2.471.266,2.471,1.406,0,.95-.836,1.558-2.129,2.127-.379.153-2.165.685-2.545.913-.57.341-.723,2.7-.723,3.115a1.148,1.148,0,0,0,.418.912,3.985,3.985,0,0,1,1.254,3.078,6.288,6.288,0,0,1-2.014,4.749c-.418.3-.531.418-.531.835,0,.343.418,1.9.418,2.28a1.363,1.363,0,0,1-.836,1.254c-.683.342-.836.418-.836.836,0,1.9,2.166,2.774,6.383,2.774,6.991,0,7.751-1.862,7.865-8.511.076-3.343.228-10.03,4.293-10.03,2.356,0,4.75,4.482,4.75,6.648a1.643,1.643,0,0,1-1.254,1.786,14.017,14.017,0,0,1-1.824-.95c-.38-.114-2.393-.57-2.393-.8s1.329-.571,1.557-.723a1.3,1.3,0,0,0,.723-1.329c0-1.634-.988-3.382-2.242-3.382-2.2,0-2.661,3.344-2.661,7.447,0,1.254.153,3.343.267,4.446.075.569.646,3.267.646,3.913,0,3.989-7.675,4.141-9.613,4.141-7.485,0-7.979-3.344-7.979-4.331,0-.342.3-1.862.3-2.2,0-.494-.076-.57-.835-1.444a10.6,10.6,0,0,1-2.166-6.116,4.992,4.992,0,0,1,3.154-4.788c.189-.076,1.178-.3,1.405-.38.267-.076.342-2.052.342-2.2,0-.494-.191-.532-.418-.532-.38,0-2.317.494-2.773.494a3.567,3.567,0,0,1-2.888-3.191c0-.114.038-.532.3-.532.3,0,1.748.418,2.089.494a9.253,9.253,0,0,0,2.242.228c1.787,0,2.089,0,2.089-1.406a6.064,6.064,0,0,0-.607-2.621c-.113-.228-.874-1.178-.874-1.444,0-.494.95-.418,1.254-.38C1852.321,1518.974,1853.917,1519.543,1854.145,1520.531Zm-4.18,11.512c-.95,0-2.089,1.064-2.089,3.041,0,1.329.683,2.773,1.748,2.773.455,0,.645-.494.759-.836a31.525,31.525,0,0,0,.455-3.762C1850.838,1532.424,1850.536,1532.043,1849.965,1532.043Zm3.648-8.624c0,.266.075.38.266.38.038,0,1.292-.342,1.292-.76a.767.767,0,0,0-.8-.608.913.913,0,0,0-.38.076C1853.613,1522.735,1853.613,1523.343,1853.613,1523.419Z" fill="#333"/>
        <path id="パス_1357" data-name="パス 1357" d="M1899.141,1529.84c-.533.076-.912.38-1.9,1.672a43.613,43.613,0,0,1-8.055,8.928,6.8,6.8,0,0,1-2.128,1.292c-.075,0-.151,0-.151-.076s1.937-2.469,2.279-2.963c.722-.988,4.522-6.269,6.079-10.373.493-1.292.532-1.444.722-1.444a24.821,24.821,0,0,1,3.609,1.672c.456.266.647.646.494.95C1899.976,1529.764,1899.825,1529.764,1899.141,1529.84Zm8.473-10.866c0,.3-.152.418-.723.911-.3.228-.494.609-.531,1.52-.114,2.242-.152,4.559-.152,6.839,0,3.344,0,16.452-.038,17.782a4.682,4.682,0,0,1-1.748,4.179,5.224,5.224,0,0,1-2.7,1.026c-.19,0-.19,0-.608-1.14-.455-1.178-.836-1.444-2.508-2.356-.455-.266-.8-.456-.8-.608s.228-.151.418-.151c.455,0,2.432.19,2.85.19.873,0,1.861-.152,2.165-1.178.266-.95.266-10.6.266-12.273,0-6.8-.152-11.816-.228-14.551,0-.228-.153-1.178-.153-1.406s.267-.266.418-.266c.305,0,1.52.266,1.9.342C1906.436,1518.024,1907.614,1518.29,1907.614,1518.974Zm12.195,22.3c-.836,0-.873-.038-2.621-3.191a44.215,44.215,0,0,0-6.346-8.891c-.341-.342-.683-.76-.683-.95,0-.152.152-.152.228-.152.873,0,10.79,5.776,10.79,10.867C1921.177,1539.376,1921.177,1541.276,1919.809,1541.276Z" fill="#333"/>
        <path id="パス_1358" data-name="パス 1358" d="M1944.854,1524.255c.457,0,.609,0,.988-.57.951-1.33,1.026-1.482,1.369-1.482.569,0,3.115,1.976,3.115,2.584,0,.456-.493.456-1.405.456h-8.664c-.8,0-2.051,0-3.077.076a6.658,6.658,0,0,1-.8.114c-.113,0-.151-.076-.227-.228l-.532-.874c-.076-.19-.114-.19-.114-.266,0-.038.038-.076.114-.076,0,0,.8.114.95.114.987.076,2.888.152,3.837.152Zm-1.1,4.559c.57,0,.608-.038,1.064-.57.836-.911.912-1.026,1.1-1.026.646,0,2.584,1.6,2.584,2.128,0,.456-.571.456-1.635.456h-4.711c-.684,0-2.127,0-3.115.076-.114,0-.647.114-.76.114s-.19-.114-.266-.228l-.494-.912c-.114-.152-.114-.19-.114-.228s.038-.076.114-.076c0,0,.76.076.912.114.987.076,2.887.152,3.837.152Zm-2.318,19.491c-1.178,0-1.178.494-1.178,1.444a1.6,1.6,0,0,1-1.633,1.634c-1.065,0-1.065-.95-1.065-1.254,0-1.026.115-6.193.115-7.371a19.613,19.613,0,0,0-.115-2.964c0-.151-.151-.949-.151-1.1,0-.228.076-.494.342-.494a5.387,5.387,0,0,1,1.481.456,3.014,3.014,0,0,0,1.786.493h2.736a1.392,1.392,0,0,0,1.253-.417c.533-.646.609-.722.913-.722.189,0,2.584.912,2.584,1.747,0,.228-.229.418-.381.533-.418.265-.493.341-.532.531-.038.152-.038,4.142-.038,4.332,0,.836,0,1.254.038,1.672.039.227.19,1.406.19,1.557a1.68,1.68,0,0,1-1.747,1.6c-.722,0-.761-.3-.874-1.026-.114-.646-.874-.646-1.065-.646Zm.836-27.7c-.95,0-2.241,0-3.116.077-.113,0-.684.113-.8.113-.076,0-.152-.113-.229-.228l-.494-.874c-.113-.19-.113-.19-.113-.265,0-.038,0-.076.076-.076.037,0,.8.076.949.114.989.075,2.888.152,3.838.152,1.064,0,1.1,0,1.558-.57.874-1.178.987-1.33,1.254-1.33.532,0,2.659,1.785,2.659,2.393,0,.494-.494.494-1.33.494Zm1.938,13.336a.988.988,0,0,0,1.063-.531c.494-.646.723-.988,1.026-.988a5.425,5.425,0,0,1,2.242,2.089c0,.456-.57.456-1.557.456h-4.712a22.485,22.485,0,0,0-3.343.115c-.076,0-.457.075-.533.075-.113,0-.151-.075-.266-.266l-.494-.873c-.113-.152-.113-.19-.113-.228,0-.077.037-.077.113-.077,0,0,.8.115.951.115,1.063.113,2.774.113,3.8.113Zm-2.925,6.231c-.418,0-1.141.038-1.141,1.1,0,1.216,0,4.522.153,5.357.113.684.721.684,1.1.684h2.7a.916.916,0,0,0,1.065-1.025v-5.054c0-.8-.38-1.064-1.065-1.064Zm21.694-11.93c1.6,0,2.014,0,2.432-.683.608-1.026.874-1.444,1.329-1.444.494,0,3.23,1.9,3.23,2.507s-.874.608-2.166.608h-6.382c-.571,0-1.065.152-1.1.836-.039.418-.039,5.661-.039,6.345,0,1.064.646,1.064,1.254,1.064h1.293a1.5,1.5,0,0,0,1.291-.418c.418-.57.456-.646.8-.646a5.377,5.377,0,0,1,2.622,1.862c0,.228-.76.836-.874.988a1.27,1.27,0,0,0-.191.8c0,.569.038,4.483.115,5.889,0,.418.227,2.241.227,2.621a1.736,1.736,0,0,1-1.9,1.71c-.76,0-.836-.228-.951-1.064-.113-.646-.8-.684-1.177-.684H1955.3c-.494,0-1.215.038-1.215.988,0,.646,0,1.786-1.6,1.786-1.216,0-1.216-.836-1.216-1.216,0-.266.076-1.254.076-1.33.037-.836.037-4.673.037-5.737a39.234,39.234,0,0,0-.113-4.9c0-.152-.152-.95-.152-1.1,0-.3.152-.532.456-.532a6.621,6.621,0,0,1,2.128.722,2.464,2.464,0,0,0,1.291.266h1.558c1.178,0,1.291-.3,1.291-1.444v-5.775c0-.8-.455-1.026-1.1-1.026h-.988c-3.305,0-4.407.076-4.788.114-.113,0-.683.076-.8.076-.152,0-.228-.076-.341-.228l-.723-.874c-.152-.19-.189-.19-.189-.266s.076-.075.151-.075c.266,0,1.444.113,1.672.113,1.862.076,3.419.152,5.206.152h.8c1.1,0,1.1-.646,1.1-1.064v-4.825c0-.608-.075-.95-.76-.95-.912,0-5.014.532-5.85.532-.191,0-.418-.076-.418-.19,0-.3,6.459-1.671,7.333-1.975.873-.267,4.445-1.482,4.939-1.748.8-.418.912-.494,1.064-.494a18.386,18.386,0,0,1,1.937.95c1.33.684,1.445.76,1.445,1.178,0,.342-.381.57-.836.57-.114,0-1.141-.039-1.216-.039-.228,0-4.331.875-4.636.95-.38.076-.531.19-.531,1.14,0,1.786,0,5.2.037,5.319.114.646.836.646,1.065.646Zm-7.789,10.259c-1.216,0-1.329.342-1.329,1.519,0,1.026,0,6.346.189,6.992.153.531.8.531,1.254.531h7.448c.494,0,1.253,0,1.253-.949v-7.03c0-1.063-.722-1.063-1.216-1.063Z" fill="#333"/>
      </g>
    </g>
  </g>
</svg>
