<svg id="nav_story" xmlns="http://www.w3.org/2000/svg" width="342.021" height="58.632" viewBox="0 0 342.021 58.632">
  <rect id="長方形_7" data-name="長方形 7" width="342.021" height="58.632" fill="#a61527" opacity="0"/>
  <g id="グループ_69" data-name="グループ 69" transform="translate(-614.652 -839.328)">
    <path id="パス_282" data-name="パス 282" d="M622.332,889.188c-.091-.234-.65-1.7-.65-1.782a.275.275,0,0,1,.286-.273c.143,0,.169.065.481.546a3.839,3.839,0,0,0,3.055,1.782,1.873,1.873,0,0,0,1.924-1.963c0-1.183-.78-1.6-2.431-2.172-1.807-.624-3-1.313-3-2.86a2.45,2.45,0,0,1,2.6-2.522,5.135,5.135,0,0,1,.923.1c.143.026.689.143.78.143a.494.494,0,0,0,.286-.078c.182-.143.208-.169.3-.169.156,0,.2.117.325.455.091.208.7,1.742.7,1.82a.2.2,0,0,1-.221.208c-.1,0-.13-.039-.338-.377a3.013,3.013,0,0,0-2.652-1.677,1.663,1.663,0,0,0-1.768,1.716c0,1.08.78,1.469,2.483,2.067,2.626.91,2.977,1.951,2.977,2.951a2.757,2.757,0,0,1-2.821,2.809,4.155,4.155,0,0,1-1.4-.261,1.731,1.731,0,0,0-.52-.13.676.676,0,0,0-.494.169c-.221.2-.247.222-.377.222C622.6,889.916,622.579,889.837,622.332,889.188Z" fill="#333"/>
    <path id="パス_283" data-name="パス 283" d="M638.9,880.191c.7,0,.858,0,1.078.585.1.286.664,1.755.664,1.885a.2.2,0,0,1-.208.2c-.1,0-.144-.052-.442-.546a2.847,2.847,0,0,0-2.34-1.69c-.508,0-.82.208-.9.65-.038.234-.038,3.172-.038,3.718,0,.364,0,3.368.038,3.589.118.662.728.676,1.079.676.481,0,.585,0,.585.208s-.181.208-.389.208h-3.64c-.182,0-.377,0-.377-.208s.208-.208.285-.208c.767,0,1.248,0,1.379-.676a35.4,35.4,0,0,0,.038-3.679c0-3.212,0-3.563-.091-3.81a.809.809,0,0,0-.832-.468,2.965,2.965,0,0,0-2.339,1.677c-.312.507-.339.559-.455.559a.21.21,0,0,1-.208-.2c0-.1.584-1.664.688-1.924.209-.546.417-.546,1.066-.546Z" fill="#333"/>
    <path id="パス_284" data-name="パス 284" d="M648.62,889.916c-2.508,0-4.251-2.055-4.251-4.98s1.729-4.992,4.251-4.992c2.5,0,4.239,2.054,4.239,4.992C652.859,887.848,651.13,889.916,648.62,889.916Zm3-5.1c0-1.2-.338-4.446-3-4.446-2.912,0-3.016,3.822-3.016,4.68,0,1.248.377,4.433,3.016,4.433C651.52,889.486,651.624,885.7,651.624,884.819Z" fill="#333"/>
    <path id="パス_285" data-name="パス 285" d="M659.983,880.191c.624,0,3.588.065,3.588,2.249a2.531,2.531,0,0,1-1.729,2.275c-.455.221-.507.247-.507.391a23.02,23.02,0,0,0,1.352,3.106,1.618,1.618,0,0,0,1.534,1.041c.13,0,.39,0,.39.208,0,.182-.26.208-.325.208h-1.625a.637.637,0,0,1-.611-.377c-.078-.13-1-2.145-1.144-2.471-.715-1.572-.807-1.78-1.262-1.78h-.714c-.091,0-.261.051-.3.155-.053.13-.053,1.847-.053,2.145,0,1.574,0,1.912,1.2,1.912.091,0,.273,0,.273.208s-.235.208-.377.208h-3.212c-.13,0-.324-.026-.324-.208,0-.208.181-.208.363-.208.9,0,1.027-.417,1.066-.9.027-.442.027-4.018.027-4.629a20.892,20.892,0,0,0-.1-2.626c-.17-.481-.728-.481-1.028-.481-.078,0-.351,0-.351-.234,0-.2.235-.2.39-.2Zm-.468.429c-.937,0-.937.585-.937,1.925,0,2.041,0,2.08.352,2.08h1.053a2.1,2.1,0,0,0,2.353-2.055c0-.91-.494-1.95-2.184-1.95Z" fill="#333"/>
    <path id="パス_286" data-name="パス 286" d="M676.07,880.191a.219.219,0,0,1,.221.221c0,.208-.194.208-.312.208a1.775,1.775,0,0,0-1.469.923c-.585,1.014-1.976,3.406-2.184,3.939-.13.313-.13.417-.13,1.431,0,1.572.013,1.755.143,1.963.221.337.559.377.989.377s.558,0,.558.208-.2.208-.35.208H669.83c-.156,0-.351,0-.351-.208s.208-.208.273-.208c1.261,0,1.417-.13,1.417-1.431,0-1.819.013-2.015-.338-2.652-.182-.337-1.157-2.054-1.352-2.392-.819-1.469-1.183-2.119-1.963-2.158-.156,0-.338-.013-.338-.208,0-.221.2-.221.338-.221h3.068c.156,0,.351,0,.351.221s-.208.208-.273.208c-.4,0-.832,0-.832.468,0,.221.039.3.429.988.234.429,1.287,2.288,1.5,2.665.052.1.143.273.234.273s.182-.2.234-.286c.286-.507,1.73-2.99,1.834-3.276a1.344,1.344,0,0,0,.064-.351c0-.481-.637-.481-.858-.481-.338,0-.481,0-.481-.208s.2-.221.338-.221Z" fill="#333"/>
    <path id="パス_287" data-name="パス 287" d="M636.056,850.048c1.349,0,1.649,0,2.074,1.125.2.549,1.275,3.374,1.275,3.624a.385.385,0,0,1-.4.375c-.2,0-.275-.1-.85-1.05-1.325-2.175-2.8-3.249-4.5-3.249-.974,0-1.575.4-1.724,1.249-.076.45-.076,6.1-.076,7.149,0,.7,0,6.473.076,6.9.225,1.275,1.4,1.3,2.074,1.3.925,0,1.125,0,1.125.4s-.35.4-.75.4h-7c-.35,0-.725,0-.725-.4s.4-.4.549-.4c1.475,0,2.4,0,2.65-1.3.075-.4.075-.425.075-7.073,0-6.174,0-6.849-.175-7.324a1.558,1.558,0,0,0-1.6-.9c-2,0-3.475,1.574-4.5,3.224-.6.975-.65,1.075-.875,1.075a.406.406,0,0,1-.4-.375c0-.2,1.125-3.2,1.324-3.7.4-1.049.8-1.049,2.05-1.049Z" fill="#333"/>
    <path id="パス_288" data-name="パス 288" d="M649.836,867.344c-.175-.45-1.25-3.275-1.25-3.424a.529.529,0,0,1,.55-.525c.275,0,.325.125.925,1.049a7.383,7.383,0,0,0,5.873,3.424,3.6,3.6,0,0,0,3.7-3.774c0-2.274-1.5-3.074-4.674-4.174-3.474-1.2-5.774-2.524-5.774-5.5a4.71,4.71,0,0,1,5-4.849,9.864,9.864,0,0,1,1.774.2c.275.05,1.325.275,1.5.275a.951.951,0,0,0,.55-.15c.35-.275.4-.325.575-.325.3,0,.375.225.625.875.175.4,1.349,3.349,1.349,3.5a.393.393,0,0,1-.424.4c-.2,0-.25-.075-.65-.725a5.793,5.793,0,0,0-5.1-3.224,3.2,3.2,0,0,0-3.4,3.3c0,2.074,1.5,2.824,4.774,3.974,5.048,1.749,5.723,3.749,5.723,5.674a5.3,5.3,0,0,1-5.424,5.4,8.032,8.032,0,0,1-2.7-.5,3.263,3.263,0,0,0-1-.25,1.289,1.289,0,0,0-.949.325c-.425.375-.475.425-.725.425C650.361,868.743,650.311,868.593,649.836,867.344Z" fill="#333"/>
    <path id="パス_289" data-name="パス 289" d="M686.734,850.048c.325,0,.7,0,.7.425,0,.4-.35.4-.774.4-1.775,0-1.9,1.424-1.925,2.2-.025,1.25,0,7.448,0,8.848,0,1.774-.075,3.7-1.6,5.249a5.827,5.827,0,0,1-4.224,1.574c-1.074,0-6.2-.35-6.348-5.523-.025-1.4.025-8.2.025-9.723,0-1.924-.125-2.624-2.324-2.624-.15,0-.55,0-.55-.4,0-.425.374-.425.749-.425h6.124c.3,0,.675,0,.675.425,0,.4-.325.4-.8.4A1.669,1.669,0,0,0,674.638,852c-.125.375-.125,5.124-.125,6,0,5.5,0,5.924.424,7.1a4.385,4.385,0,0,0,4.274,2.7,4.438,4.438,0,0,0,3.9-1.95c.85-1.25.85-2.3.85-8.1,0-5.524-.05-5.649-.35-6.124a1.916,1.916,0,0,0-1.774-.749c-.275,0-.5-.125-.5-.4,0-.425.375-.425.6-.425Z" fill="#333"/>
    <path id="パス_290" data-name="パス 290" d="M697.4,868.268c-.375,0-.75,0-.75-.4s.3-.4.925-.4a1.974,1.974,0,0,0,2-1.125c.2-.575.225-.6.225-7.223,0-6.3,0-6.324-.075-6.749-.3-1.5-1.674-1.5-2.524-1.5-.15,0-.55,0-.55-.4,0-.425.375-.425.75-.425h2.424c1.8,0,1.85.075,3.125,2.024,1.524,2.3,3.973,5.974,5.5,8.273.325.5,2.625,4,2.774,4,.1,0,.175-.175.175-.5,0-.7.025-4.8.025-5.674,0-.9,0-5.324-.075-5.774-.3-1.524-1.574-1.524-2.4-1.524-.15,0-.525,0-.525-.4,0-.425.35-.425.7-.425h5.2c.274,0,.649,0,.649.425,0,.4-.35.4-.75.4-2.074,0-2.074,1.124-2.074,4.124,0,1.874.025,11.122.025,13.2,0,.125,0,.55-.325.55a.436.436,0,0,1-.325-.2c-.15-.175-9.947-14.9-10.072-15.071-.45-.725-.5-.825-.625-.825s-.2.2-.2.475c0,.9-.025,5.249-.025,6.248s0,5.974.075,6.449c.3,1.65,1.674,1.65,2.749,1.65.2,0,.575,0,.575.4s-.325.4-.8.4Z" fill="#333"/>
    <path id="パス_291" data-name="パス 291" d="M735.494,868.268c-.274,0-.6-.075-.6-.4,0-.4.4-.4,1-.4a1.1,1.1,0,0,0,1.025-1.1,13.513,13.513,0,0,0-.925-2.924c-.549-1.4-.625-1.575-1.449-1.575h-5.424c-.924,0-1.024.25-1.424,1.375a19.933,19.933,0,0,0-.9,3.249c0,.975.8.975,1.4.975.3,0,.574.05.574.4,0,.4-.375.4-.574.4h-4.8c-.2,0-.525-.025-.525-.375,0-.424.275-.424.85-.424a2.1,2.1,0,0,0,1.9-1c.575-.775,2.424-6.649,2.974-8.423.325-1,1.925-5.9,2.25-7.023.25-.875.4-1.45,2.174-1.45a.57.57,0,0,1,.55.4,16.551,16.551,0,0,1,.825,2.249c1.749,5.424,1.9,6.024,3.474,10.648,1.425,4.249,1.6,4.6,3.024,4.6.325,0,.575.149.575.424,0,.375-.4.375-.575.375Zm-1.174-7.223c.275,0,.625-.125.625-.4,0-.525-2.375-7.473-2.825-8.823-.149-.424-.2-.649-.375-.649-.149,0-.174.075-.449.9-.7,2.025-2.65,8.373-2.65,8.6,0,.375.375.375.7.375Z" fill="#333"/>
    <path id="パス_292" data-name="パス 292" d="M764.736,860.445c.2,0,.575,0,.575.4a.388.388,0,0,1-.425.4,1.4,1.4,0,0,0-1.25.7c-.3.475-.325.9-.325,4.749,0,.825-.1.825-1.049.825a4.512,4.512,0,0,0-1.5.45,8.077,8.077,0,0,1-3.374.774c-4.974,0-7.748-4.074-7.748-9.448,0-5.648,3.1-9.722,7.423-9.722a7.8,7.8,0,0,1,2.4.45,4.467,4.467,0,0,0,1.175.25.841.841,0,0,0,.575-.25c.4-.35.474-.45.7-.45.375,0,.425.175.925,1.675.15.424,1.025,3,1.025,3.124a.439.439,0,0,1-.45.425c-.2,0-.25-.075-.65-.775a7,7,0,0,0-5.6-3.624c-3.374,0-5.273,4.449-5.273,8.8,0,4.6,2.1,8.747,5.724,8.747a3.963,3.963,0,0,0,2.849-1.149c.675-.675.949-1.35.949-3,0-2.35-.724-2.525-2.6-2.525-.15,0-.525,0-.525-.425,0-.4.375-.4.675-.4Z" fill="#333"/>
    <path id="パス_293" data-name="パス 293" d="M790.2,850.048c.325,0,.7,0,.7.425,0,.4-.35.4-.775.4-1.775,0-1.9,1.424-1.925,2.2-.025,1.25,0,7.448,0,8.848,0,1.774-.075,3.7-1.6,5.249a5.826,5.826,0,0,1-4.223,1.574c-1.075,0-6.2-.35-6.349-5.523-.025-1.4.025-8.2.025-9.723,0-1.924-.125-2.624-2.324-2.624-.15,0-.55,0-.55-.4,0-.425.375-.425.75-.425h6.123c.3,0,.675,0,.675.425,0,.4-.325.4-.8.4A1.67,1.67,0,0,0,778.1,852c-.125.375-.125,5.124-.125,6,0,5.5,0,5.924.425,7.1a4.384,4.384,0,0,0,4.274,2.7,4.44,4.44,0,0,0,3.9-1.95c.85-1.25.85-2.3.85-8.1,0-5.524-.051-5.649-.35-6.124a1.919,1.919,0,0,0-1.775-.749c-.275,0-.5-.125-.5-.4,0-.425.375-.425.6-.425Z" fill="#333"/>
    <path id="パス_294" data-name="パス 294" d="M813.416,850.048c1.349,0,1.649,0,2.074,1.125.2.549,1.275,3.374,1.275,3.624a.385.385,0,0,1-.4.375c-.2,0-.275-.1-.85-1.05-1.324-2.175-2.8-3.249-4.5-3.249-.974,0-1.574.4-1.724,1.249-.075.45-.075,6.1-.075,7.149,0,.7,0,6.473.075,6.9.225,1.275,1.4,1.3,2.075,1.3.924,0,1.124,0,1.124.4s-.35.4-.75.4h-7c-.35,0-.725,0-.725-.4s.4-.4.55-.4c1.475,0,2.4,0,2.649-1.3.075-.4.075-.425.075-7.073,0-6.174,0-6.849-.174-7.324a1.558,1.558,0,0,0-1.6-.9c-2,0-3.474,1.574-4.5,3.224-.6.975-.65,1.075-.875,1.075a.406.406,0,0,1-.4-.375c0-.2,1.125-3.2,1.325-3.7.4-1.049.8-1.049,2.05-1.049Z" fill="#333"/>
    <path id="パス_295" data-name="パス 295" d="M834.509,868.743c-4.824,0-8.173-3.949-8.173-9.572s3.325-9.6,8.173-9.6c4.8,0,8.148,3.949,8.148,9.6C842.657,864.769,839.333,868.743,834.509,868.743Zm5.774-9.8c0-2.3-.65-8.548-5.774-8.548-5.6,0-5.8,7.348-5.8,9,0,2.4.724,8.523,5.8,8.523C840.083,867.919,840.283,860.645,840.283,858.946Z" fill="#333"/>
    <path id="パス_296" data-name="パス 296" d="M866.008,851.622c0,.075.05.175.05.275a19.159,19.159,0,0,1,.25,2.7c0,1.674-.375,4-2.574,7.323-2,3.049-3.275,3.649-4.274,3.649-1.65,0-3.125-2.574-3.125-5.624a8.8,8.8,0,0,1,2.775-6.373,10.341,10.341,0,0,1,7.973-3.249,8.143,8.143,0,0,1,4.024.8,7.834,7.834,0,0,1,4.349,7.273,9.323,9.323,0,0,1-6.3,8.8,15.388,15.388,0,0,1-4.15.924c-.1,0-.249-.025-.249-.175,0-.075.049-.1.674-.349,2.6-1.025,8.023-3.175,8.023-9.4,0-.975-.1-6.923-6.923-6.923C866.033,851.273,866.008,851.472,866.008,851.622Zm-8.123,7.673c0,1.625.65,3.85,2.174,3.85.726,0,1.325-.3,3.05-2.9a14.3,14.3,0,0,0,2.449-7.273c0-1.5-.1-1.625-.425-1.625C862.759,851.347,857.885,854.572,857.885,859.295Z" fill="#333"/>
    <path id="パス_297" data-name="パス 297" d="M885.486,868.418c-.375,0-.925-.075-.925-.624,0-.45.1-.575,1.124-1.6a6.681,6.681,0,0,0,1.725-3.324c.075-.4.15-.7.225-.7.3,0,.35,1.35.35,1.675C887.985,864.469,887.885,868.418,885.486,868.418Zm6.448-16.571c-.45,0-.5.325-.5.425a.723.723,0,0,0,.325.575c2.1,1.55,2.9,2.15,2.9,3.249a1.194,1.194,0,0,1-.976,1.175c-.375,0-.524-.425-.674-1.15a6.142,6.142,0,0,0-1.35-2.649c-.075,0-.25.075-.25.35,0,.225.025,1.275.025,1.5,0,.674.175,3.949.175,4.2,0,.224,0,1.474-1.1,1.474-.675,0-.675-.675-.675-.875,0-.474.15-2.749.15-3.274,0-.25.051-1.5.051-1.774a.247.247,0,0,0-.25-.225c-.125,0-.175.075-.6.625-3.148,4.223-4.248,4.3-4.3,4.3-.025,0-.025-.025-.025-.049,0-.051,1.449-2.025,1.7-2.4a24.992,24.992,0,0,0,2.775-5.074.39.39,0,0,0-.375-.4c-1.75,0-2.65.075-2.8.075-.076,0-.451.05-.55.05-.075,0-.125-.05-.2-.15l-.5-.574c-.1-.125-.1-.125-.1-.175s.05-.05.1-.05c.125,0,.75.074.9.074.95.051,2.575.1,3.525.1.325,0,.749,0,.749-.75a15.354,15.354,0,0,0-.1-1.95c-.025-.15-.2-.8-.2-.95s.2-.175.3-.175c.076,0,2.3.625,2.3,1.05,0,.175-.75.775-.8.975a4.064,4.064,0,0,0-.125,1.3.518.518,0,0,0,.5.5,1.306,1.306,0,0,0,.7-.2c.125-.1.6-.85.774-.85.125,0,1.825,1.05,1.825,1.375s-.5.324-1.349.324Zm.925,10.3a.533.533,0,0,1,.375.425c0,.175-.225.325-.7.625-.25.15-.25,1.724-.25,2.174,0,1.75,0,2.449,2.324,2.449.925,0,4.224-.149,4.849-.774a8.331,8.331,0,0,0,1.15-2.6c.1-.35.15-.575.3-.575.125,0,.125.1.175.9a2.478,2.478,0,0,0,.7,1.85c.525.35.674.475.674.7,0,.275-.424,2.149-6.248,2.149-5.649,0-5.649-1.175-5.649-3.2,0-.325.05-1.8.05-2.1,0-.475-.025-.974-.05-1.474,0-.125-.075-.675-.075-.8,0-.175,0-.45.4-.45a2.27,2.27,0,0,1,.7.175C891.709,861.67,892.834,862.12,892.859,862.145Zm4.124,2.849c-.55,0-.625-.3-.975-1.549a7.876,7.876,0,0,0-.95-2.125c-.125-.2-.15-.25-.15-.375,0-.025.025-.075.05-.075s2.95,1.25,2.95,2.925A1.106,1.106,0,0,1,896.983,864.994Zm1.7-5.8c-.175,0-.6,0-.7.424-.124.425-.324,1.25-1.274,1.25-.475,0-.625-.25-.625-.75,0-.3.025-1.024.05-1.4.075-1.175.075-4.849.075-5.049,0-1.1-.05-3.349-.15-4.424-.025-.125-.15-.775-.15-.925a.221.221,0,0,1,.25-.25,9.518,9.518,0,0,1,1.424.725,2,2,0,0,0,.951.2h3.823a1,1,0,0,0,.725-.25c.1-.1.5-.825.675-.825.15,0,1.949,1.275,1.949,1.65,0,.125-.449.55-.524.675a16.547,16.547,0,0,0-.2,3.249c0,1.375.025,2.774.05,4.149,0,.225.05,1.275.05,1.525,0,1.324-.825,1.6-1.125,1.6-.575,0-.625-.35-.7-1.025-.05-.549-.449-.549-.75-.549Zm-.1-9.548c-.824,0-.824.35-.824,1.275s0,1.274.824,1.274h3.9c.8,0,.8-.35.8-1.274s0-1.275-.8-1.275Zm-.025,3.2c-.774,0-.774.275-.774,1.275s0,1.275.774,1.275h3.975c.774,0,.8-.275.8-1.275s-.025-1.275-.8-1.275Zm0,3.2c-.3,0-.75,0-.75.625,0,1.675,0,1.875.75,1.875h4c.3,0,.749,0,.749-.65,0-1.65,0-1.85-.749-1.85Zm7.749,12.047c-.851,0-1.05-.624-1.55-2.474a7.008,7.008,0,0,0-1.85-2.9,3.514,3.514,0,0,1-.425-.45c0-.075.025-.075.051-.075a10.959,10.959,0,0,1,1.2.375,5.071,5.071,0,0,1,3.349,4.324C907.08,867.693,906.656,868.093,906.306,868.093Z" fill="#333"/>
    <path id="パス_298" data-name="パス 298" d="M920.357,854.522a3.425,3.425,0,0,1-.3,1,8.82,8.82,0,0,0-.6,3.224c0,2.524,1.3,4.349,2.075,4.349.424,0,.525-.125,1.274-1.375.15-.25.575-.85.775-.85.075,0,.125.1.125.2a3,3,0,0,1-.075.5,7.015,7.015,0,0,0-.325,1.9,3.372,3.372,0,0,0,.15,1,6.271,6.271,0,0,1,.2.825c0,.5-.525.775-.95.775-1.6,0-4.749-2.624-4.749-7.4,0-.7.35-3.774.35-4.424a6.949,6.949,0,0,0-.175-1.45,3.375,3.375,0,0,1-.2-.85c0-.075.1-.1.15-.1C919.232,851.847,920.357,853.847,920.357,854.522Zm12.2.575a6.22,6.22,0,0,1,2.224,4.773c0,.475-.05,1.65-1.249,1.65-1.225,0-1.225-1.35-1.225-1.674,0-2.075,0-3.125-1.325-4.449-.2-.2-1.2-.975-1.2-1.125,0-.075.1-.125.224-.125A4.863,4.863,0,0,1,932.554,855.1Z" fill="#333"/>
  </g>
</svg>
