<svg id="nav_garelly_sp" xmlns="http://www.w3.org/2000/svg" width="745" height="90" viewBox="0 0 745 90">
  <rect id="長方形_18" data-name="長方形 18" width="745" height="90" fill="#ffc946" opacity="0"/>
  <g id="グループ_300" data-name="グループ 300" transform="translate(-1359.408 -1804.02)">
    <g id="グループ_297" data-name="グループ 297">
      <g id="グループ_296" data-name="グループ 296">
        <path id="パス_1373" data-name="パス 1373" d="M1632.3,1883.453c-4.234,0-7.175-3.466-7.175-8.4s2.918-8.426,7.175-8.426c4.213,0,7.153,3.467,7.153,8.426C1639.455,1879.965,1636.536,1883.453,1632.3,1883.453Zm5.068-8.6c0-2.019-.57-7.5-5.068-7.5-4.915,0-5.09,6.451-5.09,7.9,0,2.106.636,7.482,5.09,7.482C1637.195,1882.729,1637.37,1876.344,1637.37,1874.852Z" fill="#333"/>
        <path id="パス_1374" data-name="パス 1374" d="M1656.474,1866.887c0,.022,1.426,3.467,1.426,3.708a.411.411,0,0,1-.417.4c-.2,0-.241-.065-.7-.7-1.866-2.633-3.819-2.94-4.74-2.94-3.444,0-5.221,4.213-5.221,8.009,0,5.09,2.983,7.087,5.594,7.087,1.537,0,3.292-.658,4.74-3.116.505-.856.505-.878.68-.878a.343.343,0,0,1,.329.351,7.234,7.234,0,0,1-1.251,2.217,6.4,6.4,0,0,1-5.156,2.435c-4.63,0-6.889-3.752-6.889-8.052,0-5.135,3.181-8.777,6.889-8.777a7.639,7.639,0,0,1,1.865.263,10.661,10.661,0,0,0,1.317.351.912.912,0,0,0,.593-.219c.35-.351.394-.4.57-.4A.5.5,0,0,1,1656.474,1866.887Z" fill="#333"/>
        <path id="パス_1375" data-name="パス 1375" d="M1673.277,1874.5c.592,0,.592-.132.592-3.028,0-3.182,0-3.73-2.04-3.73-.175,0-.57,0-.57-.373,0-.329.4-.329.592-.329h5.6c.153,0,.57,0,.57.351,0,.372-.285.372-.966.372a1.394,1.394,0,0,0-1.339.812c-.176.461-.2.527-.2,8.47a34.99,34.99,0,0,0,.176,4.454c.306.834,1.207.834,1.623.834.33,0,.7,0,.7.351s-.417.351-.57.351h-5.6c-.219,0-.592,0-.592-.329,0-.351.4-.351.636-.351a2.143,2.143,0,0,0,1.536-.439c.438-.439.438-.46.438-4.476,0-2.04,0-2.216-.592-2.216h-5.9a.589.589,0,0,0-.5.263c-.087.242-.087,2.414-.087,2.831,0,3.6,0,4.037,2.062,4.037.153,0,.549,0,.549.373,0,.307-.4.307-.593.307h-5.595c-.132,0-.571,0-.571-.351s.285-.351.966-.351a1.4,1.4,0,0,0,1.426-1.119c.088-.526.088-5.858.088-8.667a31.351,31.351,0,0,0-.154-3.95c-.286-.834-1.207-.834-1.624-.834-.329,0-.7,0-.7-.372,0-.351.417-.351.571-.351h5.595c.22,0,.593,0,.593.329,0,.373-.373.373-.637.373-1.974,0-1.974.658-1.974,3.467,0,.4,0,2.808.087,3.006a.531.531,0,0,0,.5.285Z" fill="#333"/>
        <path id="パス_1376" data-name="パス 1376" d="M1694.2,1883.036c-.242,0-.527-.066-.527-.351,0-.351.351-.351.878-.351a.964.964,0,0,0,.9-.965,11.966,11.966,0,0,0-.812-2.568c-.483-1.228-.549-1.382-1.273-1.382H1688.6c-.812,0-.9.219-1.25,1.207a17.569,17.569,0,0,0-.79,2.852c0,.856.7.856,1.228.856.264,0,.505.044.505.351,0,.351-.329.351-.505.351h-4.212c-.175,0-.46-.022-.46-.329,0-.373.24-.373.746-.373a1.847,1.847,0,0,0,1.667-.877c.505-.681,2.128-5.837,2.611-7.4.285-.878,1.689-5.178,1.975-6.166.219-.768.35-1.272,1.909-1.272a.5.5,0,0,1,.482.351,14.752,14.752,0,0,1,.725,1.974c1.535,4.762,1.667,5.289,3.049,9.348,1.252,3.73,1.4,4.037,2.656,4.037.285,0,.5.132.5.373,0,.329-.352.329-.5.329Zm-1.032-6.341c.242,0,.549-.11.549-.351,0-.461-2.084-6.561-2.479-7.746-.132-.373-.176-.57-.329-.57-.132,0-.155.066-.4.79-.615,1.777-2.326,7.351-2.326,7.548,0,.329.328.329.614.329Z" fill="#333"/>
        <path id="パス_1377" data-name="パス 1377" d="M1728.43,1876.169c.176,0,.505,0,.505.351a.341.341,0,0,1-.373.351,1.224,1.224,0,0,0-1.1.614c-.262.417-.285.79-.285,4.169,0,.724-.088.724-.922.724a3.968,3.968,0,0,0-1.316.395,7.083,7.083,0,0,1-2.961.68c-4.367,0-6.8-3.576-6.8-8.294,0-4.959,2.721-8.535,6.517-8.535a6.841,6.841,0,0,1,2.106.4,3.937,3.937,0,0,0,1.031.219.74.74,0,0,0,.505-.219c.351-.307.417-.4.615-.4.329,0,.373.153.812,1.47.131.373.9,2.633.9,2.743a.384.384,0,0,1-.394.373c-.176,0-.219-.066-.57-.681a6.143,6.143,0,0,0-4.915-3.181c-2.962,0-4.63,3.906-4.63,7.723,0,4.038,1.843,7.68,5.025,7.68a3.478,3.478,0,0,0,2.5-1.009,3.159,3.159,0,0,0,.834-2.633c0-2.063-.637-2.217-2.282-2.217-.132,0-.461,0-.461-.372,0-.351.329-.351.593-.351Z" fill="#333"/>
        <path id="パス_1378" data-name="パス 1378" d="M1743.972,1883.036c-.242,0-.527-.066-.527-.351,0-.351.351-.351.878-.351a.963.963,0,0,0,.9-.965,11.906,11.906,0,0,0-.811-2.568c-.484-1.228-.548-1.382-1.273-1.382h-4.762c-.811,0-.9.219-1.25,1.207a17.466,17.466,0,0,0-.791,2.852c0,.856.7.856,1.23.856.262,0,.505.044.505.351,0,.351-.33.351-.505.351h-4.213c-.176,0-.461-.022-.461-.329,0-.373.241-.373.746-.373a1.844,1.844,0,0,0,1.667-.877c.505-.681,2.129-5.837,2.611-7.4.286-.878,1.69-5.178,1.975-6.166.22-.768.352-1.272,1.909-1.272a.5.5,0,0,1,.484.351,14.48,14.48,0,0,1,.723,1.974c1.536,4.762,1.667,5.289,3.05,9.348,1.251,3.73,1.4,4.037,2.655,4.037.285,0,.5.132.5.373,0,.329-.351.329-.5.329Zm-1.031-6.341c.241,0,.549-.11.549-.351,0-.461-2.085-6.561-2.481-7.746-.131-.373-.176-.57-.328-.57-.133,0-.154.066-.4.79-.615,1.777-2.327,7.351-2.327,7.548,0,.329.329.329.615.329Z" fill="#333"/>
        <path id="パス_1379" data-name="パス 1379" d="M1760.788,1867.041c1.053,0,6.057.109,6.057,3.8,0,2.237-1.69,3.247-2.919,3.839-.768.374-.856.417-.856.659a38.781,38.781,0,0,0,2.283,5.244,2.731,2.731,0,0,0,2.589,1.755c.219,0,.658,0,.658.351,0,.307-.439.351-.549.351h-2.743a1.075,1.075,0,0,1-1.031-.636c-.131-.22-1.69-3.621-1.931-4.169-1.206-2.655-1.36-3.006-2.128-3.006h-1.207c-.154,0-.439.088-.505.263-.087.22-.087,3.116-.087,3.621,0,2.655,0,3.225,2.018,3.225.154,0,.461,0,.461.351s-.395.351-.637.351h-5.419c-.22,0-.549-.044-.549-.351,0-.351.308-.351.615-.351,1.513,0,1.734-.7,1.8-1.514.044-.746.044-6.78.044-7.811a35.4,35.4,0,0,0-.175-4.433c-.286-.812-1.229-.812-1.734-.812-.132,0-.593,0-.593-.394,0-.329.4-.329.659-.329Zm-.79.723c-1.579,0-1.579.988-1.579,3.248,0,3.445,0,3.511.592,3.511h1.777c2.151,0,3.972-1.185,3.972-3.467,0-1.536-.834-3.292-3.686-3.292Z" fill="#333"/>
        <path id="パス_1380" data-name="パス 1380" d="M1780.9,1882.334a5.7,5.7,0,0,0,5.244-2.721c.548-.855.593-.943.768-.943a.35.35,0,0,1,.373.351c0,.11-.791,2.194-.921,2.523-.549,1.426-.571,1.492-2,1.492h-10.335c-.373,0-.68,0-.68-.351s.219-.351.834-.351a1.455,1.455,0,0,0,1.667-1.141c.065-.373.088-5.419.088-6.056,0-.878,0-5.858-.066-6.253-.219-1.12-1.163-1.12-2.041-1.12-.154,0-.482,0-.482-.35,0-.373.307-.373.68-.373h10.005c1.361,0,1.471.043,1.91,1.118.131.308.943,2.327.943,2.48a.342.342,0,0,1-.351.329c-.132,0-.175-.043-.68-.746a5.342,5.342,0,0,0-4.213-2.458h-2.436a1.523,1.523,0,0,0-1.317.571c-.263.4-.263.592-.263,2.326,0,.285,0,3.269.066,3.445a.608.608,0,0,0,.527.285h1.931c2.479,0,2.479-1.492,2.479-2.457,0-.066,0-.439.352-.439.373,0,.35.373.35.548-.022.812,0,4.74,0,5.617,0,.11,0,.461-.35.461s-.352-.285-.352-.724c0-1.865-1.251-2.3-2.479-2.3h-1.931a.527.527,0,0,0-.57.505c-.023.176-.023,3.8-.023,4.125,0,1.536,0,2.611,1.58,2.611Z" fill="#333"/>
        <path id="パス_1381" data-name="パス 1381" d="M1797.952,1882.334a6.484,6.484,0,0,0,5.53-2.984c.416-.614.46-.68.613-.68a.307.307,0,0,1,.33.329c0,.132-.834,2.282-.966,2.633-.548,1.382-.635,1.4-2.062,1.4H1792.2c-.328,0-.635,0-.635-.351s.241-.351.79-.351a1.456,1.456,0,0,0,1.668-1.141c.065-.373.065-5.419.065-6.056,0-.878,0-5.858-.065-6.253-.2-1.12-1.164-1.12-1.976-1.12-.153,0-.482,0-.482-.35,0-.373.307-.373.635-.373h5.442c.351,0,.659,0,.659.373,0,.35-.241.35-.79.35a1.469,1.469,0,0,0-1.668,1.12c-.065.4-.065,5.068-.065,6.1,0,5.836,0,5.858.065,6.209a1.4,1.4,0,0,0,1.514,1.141Z" fill="#333"/>
        <path id="パス_1382" data-name="パス 1382" d="M1815.07,1882.334a6.482,6.482,0,0,0,5.529-2.984c.416-.614.46-.68.613-.68a.307.307,0,0,1,.33.329c0,.132-.834,2.282-.965,2.633-.549,1.382-.636,1.4-2.063,1.4h-9.194c-.328,0-.636,0-.636-.351s.241-.351.79-.351a1.456,1.456,0,0,0,1.668-1.141c.065-.373.065-5.419.065-6.056,0-.878,0-5.858-.065-6.253-.2-1.12-1.164-1.12-1.976-1.12-.153,0-.482,0-.482-.35,0-.373.308-.373.636-.373h5.441c.352,0,.659,0,.659.373,0,.35-.241.35-.79.35a1.47,1.47,0,0,0-1.668,1.12c-.065.4-.065,5.068-.065,6.1,0,5.836,0,5.858.065,6.209a1.4,1.4,0,0,0,1.514,1.141Z" fill="#333"/>
        <path id="パス_1383" data-name="パス 1383" d="M1838.921,1867.041a.368.368,0,0,1,.373.373c0,.35-.328.35-.525.35a3,3,0,0,0-2.481,1.558c-.986,1.712-3.335,5.749-3.685,6.649-.22.527-.22.7-.22,2.413,0,2.656.023,2.963.241,3.314.373.57.944.636,1.668.636.746,0,.944,0,.944.351s-.329.351-.592.351h-6.254c-.264,0-.593,0-.593-.351s.351-.351.461-.351c2.128,0,2.392-.219,2.392-2.413,0-3.072.021-3.4-.571-4.476-.307-.571-1.953-3.468-2.282-4.038-1.382-2.48-2-3.577-3.313-3.643-.264,0-.571-.021-.571-.35,0-.373.33-.373.571-.373h5.178c.263,0,.593,0,.593.373,0,.35-.351.35-.461.35-.68,0-1.4,0-1.4.79,0,.373.065.505.724,1.668.4.724,2.172,3.862,2.523,4.5.088.176.241.461.4.461s.306-.329.394-.483c.483-.856,2.918-5.046,3.094-5.529a2.2,2.2,0,0,0,.109-.593c0-.812-1.074-.812-1.447-.812-.57,0-.813,0-.813-.35,0-.373.33-.373.571-.373Z" fill="#333"/>
      </g>
    </g>
    <g id="グループ_299" data-name="グループ 299">
      <g id="グループ_298" data-name="グループ 298">
        <path id="パス_1384" data-name="パス 1384" d="M1598.79,1825.719c0,1.254-2.887,2.394-3.8,2.774-.534.19-.571.342-.647,1.672-.076.836-.076,3.913-.076,4.1,0,.228,0,.684.342.684.114,0,3.23-1.292,3.838-1.52,3.761-1.405,5.47-1.52,6.459-1.52a5.818,5.818,0,0,1,5.851,5.738c0,5.015-5.281,7.295-8.4,7.295-2.165,0-3.913-1.1-3.913-3.078a3.386,3.386,0,0,1,1.9-3,.2.2,0,0,1,.19.19c0,.115-.076.19-.152.3a1.571,1.571,0,0,0-.342,1.025c0,1.824,2.09,1.824,2.47,1.824,2.507,0,5.7-1.672,5.7-4.711a3.936,3.936,0,0,0-3.646-4.18c-1.065,0-3.42.494-7.865,2.85-2.127,1.14-2.356,1.254-2.356,1.9,0,.418.113,2.128.113,2.507,0,1.748-.569,4.256-1.937,4.256-1.026,0-1.444-.8-1.747-1.406-1.216-2.356-1.406-2.356-1.9-2.356a3.175,3.175,0,0,0-.95.228,7.5,7.5,0,0,1-1.444.76c-.418,0-2.356-1.14-2.356-2.394,0-.683.418-1.482,1.1-1.482.228,0,1.33.191,1.559.191,1.025,0,1.709-.191,3.951-1.292,1.937-.95,2.166-1.064,2.166-2.128,0-.874-.039-4.1-.076-4.749,0-.266-.115-.836-.533-.836a8.882,8.882,0,0,0-1.747.342c-1.938.646-2.129.722-2.7.722-1.292,0-2.735-2.622-2.735-2.888a.269.269,0,0,1,.3-.266c.115,0,.57.152.685.152a11.03,11.03,0,0,0,1.747.19,16.59,16.59,0,0,0,4.825-1.14,28.381,28.381,0,0,0,.38-4.141,3.728,3.728,0,0,0-1.254-3.039,3.948,3.948,0,0,1-.532-.608c0-.343.608-.418.836-.418,2.546,0,3.914,1.861,3.914,2.583a15.467,15.467,0,0,1-.8,1.976,20.282,20.282,0,0,0-.38,2.469c0,.152.076.418.3.418.267,0,1.329-.418,1.329-.949,0-.076-.189-.456-.189-.532,0-.038.076-.114.152-.152C1596.966,1824.009,1598.79,1824.542,1598.79,1825.719Zm-8.662,14.552c0,.57,1.026,1.786,1.6,1.786.531,0,1.063-1.064,1.063-2.925,0-.152,0-.533-.114-.608C1592.56,1838.524,1590.128,1839.739,1590.128,1840.271Zm24.962-11.816c0,.8-.456,1.824-1.254,1.824-.227,0-1.1-.076-1.292-.076-.189.038-.988.266-1.139.266a.178.178,0,0,1-.191-.19,2.614,2.614,0,0,1,.114-.3,1.976,1.976,0,0,0,.152-.684c0-1.52-1.9-2.052-3.192-2.052a3.3,3.3,0,0,0-1.481.38.847.847,0,0,1-.38.114c-.113,0-.152-.038-.152-.152a4.857,4.857,0,0,1,4.1-2.393C1613.3,1825.188,1615.09,1826.707,1615.09,1828.455Z" fill="#333"/>
        <path id="パス_1385" data-name="パス 1385" d="M1654.056,1829.177a33.422,33.422,0,0,0,9.195,3c.152,0,.8.115.8.267,0,.113-.531.266-.683.3a6.577,6.577,0,0,0-2.887,2.052c-.115.152-.533.95-.723.95-.228,0-8.472-3.99-12.2-10.069-.722-1.215-.836-1.329-1.1-1.329s-.341.075-1.177.949a45.155,45.155,0,0,1-11.247,8.853c-1.291.684-5.243,2.432-5.965,2.432-.114,0-.19-.076-.19-.114s4.065-2.546,4.408-2.774c5.128-3.229,10.562-9.043,11.094-11.892.037-.3.076-.418.342-.418.189,0,3.268,1.178,3.457,1.292.114.038.494.19.494.57a2.373,2.373,0,0,1-.152.532C1647.6,1824.352,1650.865,1827.543,1654.056,1829.177Zm-18.312-9.46c-2.813,0-4.1.075-4.827.113-.113,0-.683.076-.8.076s-.19-.076-.341-.228l-.722-.874c-.152-.19-.152-.19-.152-.266s.038-.075.114-.075c.267,0,1.444.113,1.672.113,1.861.077,3.458.152,5.243.152h1.1c.8,0,1.025-.38,1.025-1.025a6.174,6.174,0,0,0-.3-2.014,5.627,5.627,0,0,1-.228-.76c0-.19.189-.266.418-.266.265,0,1.975.418,2.393.532,1.14.3,1.368.38,1.368.722,0,.228-.039.3-.57.988a.928.928,0,0,0-.266.684c0,.912.3,1.139,1.33,1.139h6.269c.342,0,1.14,0,1.14-1.025a15.771,15.771,0,0,0-.114-1.71c-.039-.19-.228-.988-.228-1.14,0-.19.228-.266.418-.266.265,0,2.849.608,3.267.722s.647.266.647.608c0,.228-.152.38-.57.684a1.216,1.216,0,0,0-.495,1.064c0,1.063.608,1.063,1.216,1.063h1.938c1.672,0,1.862,0,2.431-.645,1.064-1.254,1.178-1.406,1.521-1.406.227,0,3.533,2.014,3.533,2.507,0,.533-.76.533-2.014.533h-7.409c-1.177,0-1.177.607-1.177,1.519,0,.228.038,1.52.038,1.71,0,1.406-1.141,1.634-1.938,1.634-.875,0-1.026-.153-1.026-1.444v-2.622c-.114-.722-.57-.8-1.178-.8h-6.079c-.874,0-1.406,0-1.406,1.063,0,.38.114,2.052.114,2.394,0,.722-.114,1.064-.456,1.292a2.7,2.7,0,0,1-1.443.532c-.647,0-.951-.418-.951-1.178,0-.3.038-1.748.038-2.014,0-1.482,0-2.089-1.177-2.089Zm2.7,19.415a19.543,19.543,0,0,1,2.926,1.785.944.944,0,0,1,.3.57c0,.456-.3.532-1.215.76-.114.038-3.381,2.584-3.99,3.039a23.339,23.339,0,0,1-5.774,3.306.121.121,0,0,1-.114-.114c0-.076,2.013-1.824,2.279-2.09,3.154-3,5.092-6,5.433-7.218A.232.232,0,0,1,1638.441,1839.132Zm1.748-2.014c-2.965,0-4.067.038-4.826.114-.114,0-.684.076-.8.076s-.191-.076-.342-.228l-.722-.874c-.152-.19-.152-.19-.152-.266,0-.038.038-.076.114-.076.267,0,1.445.114,1.672.114,1.861.114,3.458.152,5.243.152h2.85c.38,0,1.14,0,1.14-1.026,0-.456-.228-3.533-.3-3.913,0-.077-.229-.456-.229-.532s.076-.228.381-.228c.266,0,2.925.57,3.305.683.532.115.723.457.723.646,0,.228-.077.3-.647.8-.531.456-.531.684-.531,1.824,0,1.368,0,1.748,1.138,1.748h1.672c1.672,0,1.863,0,2.432-.646,1.064-1.254,1.178-1.406,1.519-1.406.229,0,3.535,2.052,3.535,2.508,0,.532-.76.532-2.014.532h-7.181c-1.14,0-1.14.683-1.14,1.9,0,2.7,0,4.218.076,6.459.038.646.038,1.558.038,2.014,0,1.216-.3,1.938-1.938,1.938-.835,0-.912-.684-.912-1.33,0-.494.115-2.774.115-3.267.038-1.444.038-2.85.038-4.6a23.026,23.026,0,0,0-.076-2.583c-.191-.532-.8-.532-1.1-.532Zm10.144,3.191c0-.113.19-.152.342-.152,1.4,0,10.069,2.394,10.069,5.547,0,1.216-.684,2.166-1.635,2.166-.721,0-.873-.19-2.051-1.938a18.065,18.065,0,0,0-6.535-5.471C1650.485,1840.461,1650.333,1840.347,1650.333,1840.309Z" fill="#333"/>
        <path id="パス_1386" data-name="パス 1386" d="M1697.958,1845.552c0,.723-.265,1.444-.836,1.444-1.671,0-2.279-3.3-2.584-4.9-.189-.95-1.025-5.091-1.214-5.965-.116-.684-.3-1.178-.989-1.178-.152,0-4.674,1.064-6.535,1.672a20.122,20.122,0,0,1-2.318.988c-.57,0-4.369-1.672-4.369-2.812,0-.3.265-.38.456-.38.342,0,1.938.152,2.28.152a43.249,43.249,0,0,0,9.232-1.292c.989-.189,1.216-.342,1.216-.987a21.2,21.2,0,0,0-.8-3.8c-.265-.95-.418-1.33-.988-1.33a49.442,49.442,0,0,0-5.281,1.444c-.873,0-3.457-1.368-3.457-2.052,0-.266.455-.266.8-.266a35.237,35.237,0,0,0,5.85-.646c1.33-.3,1.9-.531,1.9-1.253,0-.152-.456-3.762-2.128-5.206a15.7,15.7,0,0,1-1.748-1.367c0-.228,1.139-.646,1.975-.646.76,0,3.42.836,3.533,1.595.077.533.153,2.736.229,3.192.342,2.469.76,2.469,1.292,2.469a23.133,23.133,0,0,0,3.306-1.025c1.632-.722,1.823-.8,2.355-.8,1.216,0,2.242.8,2.242,1.405,0,.761-.722.913-3.5,1.444-3.078.608-3.42.722-3.838.836-.683.228-.72.532-.72.95a24.737,24.737,0,0,0,.683,3.42c.342,1.291.494,1.634,1.178,1.634a25.546,25.546,0,0,0,4.863-1.444,7.766,7.766,0,0,1,3.762-.95c2.014,0,2.85,1.026,2.85,1.672,0,1.14-1.559,1.177-2.926,1.177a40.157,40.157,0,0,0-6.84,1.1c-1.6.342-1.672.57-1.672,1.292C1695.222,1836.13,1697.958,1843.881,1697.958,1845.552Zm9.651-22.112c0,.456-.456,1.444-1.178,1.444-.532,0-.874-.342-1.9-1.824a10.488,10.488,0,0,0-2.507-2.47c-.114-.114-.494-.456-.494-.608,0-.19.341-.265.684-.265C1704.949,1819.717,1707.609,1821.73,1707.609,1823.44Zm3.457-3.534c0,.418-.3,1.14-.988,1.14-.8,0-1.292-.646-1.938-1.519a9.7,9.7,0,0,0-3.191-2.28c-.379-.19-.494-.342-.494-.456,0-.38,1.216-.38,1.444-.38C1707.951,1816.411,1711.066,1817.74,1711.066,1819.906Z" fill="#333"/>
        <path id="パス_1387" data-name="パス 1387" d="M1749.47,1830.925c0,.607-.532.8-1.216,1.025-.8.267-.987.418-2.7,1.672-.645.456-2.963,2.052-3.457,2.052a.2.2,0,0,1-.189-.19c0-.418,3.3-3.952,3.3-4.9,0-.266-.265-.3-.418-.3-.189,0-4.749,1.1-5.281,1.216-1.367.342-1.52.38-1.52.988a87.793,87.793,0,0,0,3.268,10.144c.874,2.242,1.064,2.812,1.064,3.495,0,.8-.38,1.6-.8,1.6a3.95,3.95,0,0,1-2.28-2.127c-.189-.608-2.242-9.461-2.773-11.209-.456-1.519-.532-1.709-1.065-1.709a22.82,22.82,0,0,0-4.292,1.215c-1.558.646-1.709.722-1.938.722-.38,0-.57-.114-2.242-1.254a1.517,1.517,0,0,1-.76-1.368c0-.228.038-.949.342-.949.114,0,.684.228.836.265a6,6,0,0,0,2.013.305,28.429,28.429,0,0,0,5.321-.684.692.692,0,0,0,.531-.608c0-.608-.607-3.23-1.861-4.256-.153-.114-.76-.493-.874-.57a.287.287,0,0,1-.076-.19c0-.607,1.557-.607,1.9-.607,1.559,0,2.812.3,2.812,1.52,0,1.861,0,3.913.873,3.913a37.033,37.033,0,0,0,5.624-1.178,19.121,19.121,0,0,1,2.242-.988C1746.962,1827.961,1749.47,1829.937,1749.47,1830.925Z" fill="#333"/>
        <path id="パス_1388" data-name="パス 1388" d="M1773.359,1845.173c11.855-6.383,14.97-14.59,14.97-15.388,0-.456-.265-.722-.8-.722-1.292,0-10.83,1.672-12.5,2.166a16.55,16.55,0,0,1-1.747.646c-1.634,0-4.332-3.268-4.332-4.332a.213.213,0,0,1,.228-.19,5.533,5.533,0,0,1,.685.3,10.646,10.646,0,0,0,3.76.646c3.117,0,10.677-.988,12.082-1.14.077,0,2.584-.228,2.622-.228a6.556,6.556,0,0,1,1.1-.418c.646,0,3.344,2.242,3.344,3.116,0,.57-.153.722-1.026,1.444a10.633,10.633,0,0,0-2.052,2.7c-3,4.56-5.358,7.409-10.714,10.145a26.83,26.83,0,0,1-6.726,2.469.3.3,0,0,1-.342-.3.4.4,0,0,1,.077-.228C1772.068,1845.78,1773.132,1845.286,1773.359,1845.173Zm.951-24.849a9.328,9.328,0,0,0,2.014.152,36.321,36.321,0,0,0,6.078-.418c.57-.114,3.191-.759,3.723-.759.646,0,2.318.341,2.318,1.443,0,1.178-1.329,1.292-3.533,1.482-.608.076-8.777.8-9.043.8-2.014,0-3.153-2.584-3.153-2.85,0-.19.075-.266.228-.266C1773.169,1819.906,1774.081,1820.286,1774.31,1820.324Z" fill="#333"/>
        <path id="パス_1389" data-name="パス 1389" d="M1814.624,1819.488c.912,0,3,1.33,3,1.976,0,.19-.076,1.064-.076,1.254,0,4.407.076,7.827.114,8.739.038.455.228,2.355.228,2.735,0,.988-.874,1.938-1.443,1.938-.836,0-1.71-2.014-1.71-3,0-.3.189-1.6.189-1.9.076-1.71.076-3.192.076-3.876,0-4.255-.189-5.129-1.367-6.5-.3-.342-.494-.57-.494-.874C1813.142,1819.717,1813.749,1819.488,1814.624,1819.488Zm10.448-1.063c-.455-.608-.494-.685-.494-.76,0-.115,0-.228,1.1-.228,2.28,0,4.179.949,4.179,1.937a14.688,14.688,0,0,1-.379,1.52c-.153,1.026-.191,6.725-.3,8.055a24.028,24.028,0,0,1-9.5,17.629,15.124,15.124,0,0,1-3.42,2.242c-.152,0-.227-.076-.227-.19,0-.152,2.469-2.583,2.924-3.078,7.334-7.826,7.6-14.438,7.6-22.036C1826.554,1820.552,1825.87,1819.564,1825.072,1818.425Z" fill="#333"/>
        <path id="パス_1390" data-name="パス 1390" d="M1876.2,1830.279c.227,0,.645-.038.836-.038,2.316,0,2.659,1.406,2.659,1.671,0,1.064-1.558,1.179-3.154,1.179-.875,0-4.673-.077-5.433-.077-5.243,0-13.944.495-14.856.684-.456.076-2.507.684-2.963.684-1.634,0-3.382-2.355-3.382-3.647,0-.228.114-.456.3-.456s1.1.417,1.291.456a20.7,20.7,0,0,0,4.636.342C1857.389,1831.077,1870.649,1830.583,1876.2,1830.279Z" fill="#333"/>
      </g>
    </g>
  </g>
</svg>
