<svg id="news_h_sp" xmlns="http://www.w3.org/2000/svg" width="745" height="90" viewBox="0 0 745 90">
  <rect id="長方形_19" data-name="長方形 19" width="745" height="90" fill="#ffc946" opacity="0"/>
  <g id="グループ_302" data-name="グループ 302" transform="translate(-1357.639 -1958.723)">
    <path id="パス_1391" data-name="パス 1391" d="M1630.146,2023.768c-.825,0-1.65,0-1.65-.88s.66-.88,2.034-.88c.715,0,3.52,0,4.4-2.475.44-1.265.495-1.32.495-15.893,0-13.858,0-13.913-.165-14.848-.66-3.3-3.685-3.3-5.554-3.3-.33,0-1.21,0-1.21-.88,0-.935.825-.935,1.65-.935h5.334c3.959,0,4.07.165,6.874,4.454,3.355,5.06,8.744,13.144,12.1,18.2.715,1.1,5.775,8.8,6.1,8.8.221,0,.386-.385.386-1.1,0-1.54.055-10.559.055-12.484,0-1.979,0-11.713-.165-12.7-.66-3.354-3.465-3.354-5.28-3.354-.33,0-1.155,0-1.155-.88,0-.935.77-.935,1.54-.935h11.439c.6,0,1.429,0,1.429.935,0,.88-.769.88-1.649.88-4.564,0-4.564,2.474-4.564,9.073,0,4.125.054,24.472.054,29.037,0,.274,0,1.21-.715,1.21a.956.956,0,0,1-.714-.44c-.331-.385-21.888-32.776-22.163-33.161-.989-1.6-1.1-1.815-1.375-1.815s-.439.44-.439,1.045c0,1.98-.055,11.549-.055,13.748s0,13.143.165,14.188c.66,3.63,3.684,3.63,6.049,3.63.44,0,1.265,0,1.265.88s-.715.88-1.76.88Z" fill="#333"/>
    <path id="パス_1392" data-name="パス 1392" d="M1704.816,2022.008c3.464,0,9.129-.5,13.143-6.819,1.375-2.145,1.485-2.365,1.925-2.365a.878.878,0,0,1,.935.88c0,.275-1.98,5.5-2.31,6.324-1.375,3.575-1.43,3.74-5,3.74h-25.9c-.935,0-1.705,0-1.705-.88s.55-.88,2.09-.88c1.32,0,3.685-.165,4.18-2.86.164-.935.219-13.583.219-15.178,0-2.2,0-14.683-.165-15.673-.549-2.8-2.914-2.8-5.114-2.8-.385,0-1.21,0-1.21-.88,0-.935.77-.935,1.705-.935h25.077c3.409,0,3.684.11,4.784,2.8.33.77,2.365,5.83,2.365,6.215a.858.858,0,0,1-.88.824c-.33,0-.44-.109-1.7-1.869-1.705-2.42-5.279-6.159-10.559-6.159h-6.1a3.817,3.817,0,0,0-3.3,1.429c-.66.991-.66,1.485-.66,5.829,0,.715,0,8.2.165,8.634a1.524,1.524,0,0,0,1.32.716h4.839c6.214,0,6.214-3.74,6.214-6.16,0-.165,0-1.1.88-1.1.935,0,.88.935.88,1.375-.055,2.035,0,11.879,0,14.078,0,.275,0,1.155-.88,1.155s-.88-.715-.88-1.815c0-4.674-3.134-5.774-6.214-5.774h-4.839a1.323,1.323,0,0,0-1.43,1.265c-.055.44-.055,9.514-.055,10.338,0,3.85,0,6.545,3.959,6.545Z" fill="#333"/>
    <path id="パス_1393" data-name="パス 1393" d="M1769.483,1983.678c.33,0,1.264,0,1.264.935,0,.715-.659.77-2.144.88-.88.054-2.75.165-2.75,2.639a6.981,6.981,0,0,0,.22,1.6c.44,2.255,4.62,16.883,5.884,21.228.715,2.474.77,2.749,1.21,2.749.33,0,.495-.33.55-.55.44-1.1,5.554-21.392,5.994-23.262a9.062,9.062,0,0,0,.22-1.76c0-2.42-2.585-2.585-3.354-2.639-2.09-.165-2.31-.165-2.31-.935s.715-.88,1.21-.88H1786.7c.549,0,1.484,0,1.484.88,0,.77-.22.77-2.254.935-3.41.275-3.96,2.529-5.445,8.414-1.979,7.919-5.224,20.567-7.2,28.486-.385,1.649-.6,2.42-1.265,2.42s-.77-.386-1.7-3.63c-.989-3.465-5.719-20.457-6.818-24.252-.661-2.255-.715-2.53-1.045-2.53-.275,0-.44.661-.66,1.375-1.98,6.819-5.335,17.6-7.315,24.417-.659,2.309-1.374,4.62-2.089,4.62-.44,0-.825-.771-.99-1.54-.6-2.42-3.63-14.354-4.289-17.048-5.115-20.732-5.39-20.732-8.964-20.732-.77,0-1.87,0-1.87-.99,0-.605.55-.825,1.155-.825h13.253c.385,0,1.54,0,1.54.935,0,.88-.6.88-2.31.88-1.43,0-2.915.44-2.915,2.529a7.634,7.634,0,0,0,.331,2.2c.824,3.08,4.729,18.2,5.609,21.612.055.165.495,1.925,1.045,1.925.329,0,.66-.77.77-1.045.88-2.255,6.434-20.182,6.434-22.712a5.218,5.218,0,0,0-1.76-3.849,4.268,4.268,0,0,0-2.75-.66c-.769,0-1.7-.055-1.7-.99,0-.825.935-.825,1.154-.825Z" fill="#333"/>
    <path id="パス_1394" data-name="パス 1394" d="M1806.155,2021.733c-.385-.99-2.75-7.2-2.75-7.534a1.164,1.164,0,0,1,1.21-1.155c.6,0,.715.275,2.035,2.31,2.42,3.794,7.369,7.534,12.923,7.534a7.925,7.925,0,0,0,8.139-8.3c0-5-3.3-6.763-10.284-9.183-7.643-2.64-12.7-5.554-12.7-12.1,0-5.719,3.96-10.669,11-10.669a21.732,21.732,0,0,1,3.905.44c.6.11,2.914.6,3.3.6a2.092,2.092,0,0,0,1.21-.33c.77-.6.88-.715,1.265-.715.66,0,.824.495,1.375,1.925.384.88,2.969,7.369,2.969,7.7a.865.865,0,0,1-.935.88c-.44,0-.55-.165-1.429-1.595-1.485-2.365-4.455-7.094-11.219-7.094a7.034,7.034,0,0,0-7.479,7.259c0,4.564,3.3,6.214,10.5,8.744,11.109,3.849,12.594,8.249,12.594,12.483a11.661,11.661,0,0,1-11.934,11.879,17.674,17.674,0,0,1-5.939-1.1,7.19,7.19,0,0,0-2.2-.549,2.84,2.84,0,0,0-2.09.714c-.935.826-1.045.936-1.595.936C1807.31,2024.813,1807.2,2024.482,1806.155,2021.733Z" fill="#333"/>
  </g>
</svg>
