<svg id="news_h" xmlns="http://www.w3.org/2000/svg" width="130.044" height="26.848" viewBox="0 0 130.044 26.848">
  <path id="パス_91" data-name="パス 91" d="M903.782,1176.224c-.525,0-1.05,0-1.05-.56s.42-.56,1.295-.56c.455,0,2.24,0,2.8-1.575.281-.805.316-.84.316-10.116,0-8.821,0-8.856-.106-9.451-.42-2.1-2.345-2.1-3.535-2.1-.21,0-.77,0-.77-.56,0-.595.525-.595,1.05-.595h3.4c2.521,0,2.591.1,4.376,2.836,2.135,3.22,5.565,8.366,7.7,11.586.455.7,3.675,5.6,3.885,5.6.14,0,.245-.245.245-.7,0-.98.035-6.72.035-7.946,0-1.26,0-7.455-.1-8.085-.42-2.136-2.205-2.136-3.36-2.136-.21,0-.735,0-.735-.56,0-.595.49-.595.98-.595h7.281c.385,0,.91,0,.91.595,0,.56-.49.56-1.05.56-2.906,0-2.906,1.576-2.906,5.776,0,2.625.035,15.577.035,18.482,0,.175,0,.77-.455.77a.611.611,0,0,1-.455-.28c-.21-.245-13.931-20.862-14.106-21.107-.63-1.015-.7-1.155-.875-1.155s-.281.28-.281.665c0,1.26-.034,7.351-.034,8.75s0,8.366.1,9.031c.42,2.311,2.345,2.311,3.85,2.311.28,0,.8,0,.8.56s-.455.56-1.12.56Z" transform="translate(-902.732 -1150.041)" fill="#333"/>
  <path id="パス_92" data-name="パス 92" d="M951.495,1175.1a9.1,9.1,0,0,0,8.366-4.34c.875-1.366.945-1.506,1.225-1.506a.559.559,0,0,1,.6.56c0,.175-1.26,3.5-1.47,4.026-.875,2.275-.91,2.38-3.185,2.38H940.539c-.6,0-1.085,0-1.085-.56s.35-.56,1.33-.56a2.321,2.321,0,0,0,2.66-1.821c.105-.594.14-8.645.14-9.66,0-1.4,0-9.346-.1-9.976-.35-1.786-1.855-1.786-3.255-1.786-.245,0-.77,0-.77-.56,0-.595.49-.595,1.085-.595H956.5c2.17,0,2.345.07,3.045,1.786.21.489,1.505,3.71,1.505,3.955a.546.546,0,0,1-.56.525c-.21,0-.28-.07-1.085-1.19-1.086-1.54-3.36-3.921-6.721-3.921H948.8a2.431,2.431,0,0,0-2.1.911c-.42.63-.42.945-.42,3.71,0,.455,0,5.215.1,5.495a.967.967,0,0,0,.841.455h3.08c3.955,0,3.955-2.38,3.955-3.92,0-.1,0-.7.56-.7.595,0,.561.595.561.875-.036,1.3,0,7.561,0,8.961,0,.175,0,.735-.561.735s-.56-.455-.56-1.155c0-2.975-1.995-3.675-3.955-3.675h-3.08a.841.841,0,0,0-.91.805c-.036.28-.036,6.055-.036,6.58,0,2.451,0,4.166,2.521,4.166Z" transform="translate(-902.732 -1150.041)" fill="#333"/>
  <path id="パス_93" data-name="パス 93" d="M992.891,1150.706c.21,0,.8,0,.8.595,0,.455-.419.49-1.365.56-.559.035-1.75.1-1.75,1.681a4.5,4.5,0,0,0,.14,1.015c.28,1.435,2.941,10.746,3.746,13.511.455,1.575.49,1.75.77,1.75.21,0,.315-.21.35-.35.28-.7,3.535-13.616,3.815-14.806a5.765,5.765,0,0,0,.14-1.12c0-1.541-1.645-1.646-2.135-1.681-1.33-.1-1.47-.1-1.47-.595s.455-.56.77-.56h7.141c.35,0,.945,0,.945.56,0,.49-.14.49-1.435.595-2.171.175-2.52,1.61-3.466,5.356-1.26,5.04-3.325,13.091-4.585,18.132-.245,1.05-.385,1.54-.805,1.54s-.49-.245-1.085-2.31c-.631-2.2-3.641-13.022-4.341-15.437-.42-1.435-.455-1.61-.665-1.61-.175,0-.28.42-.42.875-1.26,4.341-3.4,11.2-4.655,15.542-.42,1.47-.875,2.94-1.33,2.94-.281,0-.526-.49-.631-.98-.385-1.54-2.31-9.136-2.73-10.851-3.255-13.2-3.431-13.2-5.7-13.2-.491,0-1.191,0-1.191-.63,0-.385.35-.525.736-.525h8.435c.245,0,.981,0,.981.595,0,.56-.386.56-1.471.56-.91,0-1.855.28-1.855,1.61a4.875,4.875,0,0,0,.21,1.4c.525,1.96,3.011,11.586,3.571,13.756.034.1.315,1.225.665,1.225.21,0,.42-.49.489-.665.56-1.435,4.1-12.846,4.1-14.456a3.323,3.323,0,0,0-1.12-2.45,2.711,2.711,0,0,0-1.75-.421c-.49,0-1.085-.034-1.085-.63,0-.525.595-.525.734-.525Z" transform="translate(-902.732 -1150.041)" fill="#333"/>
  <path id="パス_94" data-name="パス 94" d="M1016.465,1174.929c-.246-.63-1.751-4.586-1.751-4.8a.741.741,0,0,1,.771-.735c.384,0,.455.175,1.294,1.47a10.343,10.343,0,0,0,8.227,4.8,5.044,5.044,0,0,0,5.18-5.286c0-3.185-2.1-4.305-6.546-5.845-4.865-1.68-8.086-3.536-8.086-7.7a6.6,6.6,0,0,1,7-6.791,13.821,13.821,0,0,1,2.485.28c.386.07,1.856.385,2.1.385a1.333,1.333,0,0,0,.77-.21c.49-.385.56-.455.8-.455.42,0,.525.315.875,1.225.245.561,1.89,4.691,1.89,4.9a.551.551,0,0,1-.595.56c-.28,0-.35-.105-.91-1.015-.945-1.505-2.835-4.516-7.141-4.516a4.478,4.478,0,0,0-4.761,4.621c0,2.905,2.1,3.955,6.686,5.565,7.071,2.451,8.016,5.251,8.016,7.946a7.421,7.421,0,0,1-7.6,7.561,11.245,11.245,0,0,1-3.78-.7,4.569,4.569,0,0,0-1.4-.35,1.809,1.809,0,0,0-1.33.455c-.6.525-.665.6-1.016.6C1017.2,1176.889,1017.13,1176.679,1016.465,1174.929Z" transform="translate(-902.732 -1150.041)" fill="#333"/>
</svg>
