<svg id="ochart_q_5_active" xmlns="http://www.w3.org/2000/svg" width="50.101" height="50.101" viewBox="0 0 50.101 50.101">
  <circle id="楕円形_10" data-name="楕円形 10" cx="25.05" cy="25.05" r="25.05" fill="#333"/>
  <g id="グループ_17" data-name="グループ 17" transform="translate(-520.7 -182.052)">
    <path id="パス_33" data-name="パス 33" d="M545.243,213.844l-.792.974-1.715-1.419a7.2,7.2,0,0,1-3.151.825,6.307,6.307,0,0,1-3.694-1.237,6.617,6.617,0,0,1-2.112-5.064,6.732,6.732,0,0,1,2.112-5.064,6.136,6.136,0,0,1,7.389,0,7.189,7.189,0,0,1,.412,9.732Zm-4.949-2.457.759-.924,1.5,1.2a5.6,5.6,0,0,0,1.27-3.744,5.46,5.46,0,0,0-1.319-3.761,4.269,4.269,0,0,0-5.84,0,6.022,6.022,0,0,0,0,7.522,4.062,4.062,0,0,0,2.92,1.154,4.444,4.444,0,0,0,1.93-.445Z" fill="#f7f8f3"/>
    <path id="パス_34" data-name="パス 34" d="M550.223,208.533l.907-6.383h6.037V203.6h-4.882l-.462,3.233a2.79,2.79,0,0,1,2.062-.693,3.182,3.182,0,0,1,1.517.264,3.535,3.535,0,0,1,2.343,3.778,3.98,3.98,0,0,1-2.046,3.53,5.2,5.2,0,0,1-1.7.511,5.08,5.08,0,0,1-1.616-.2,3.351,3.351,0,0,1-2.524-3.052h1.485a2.241,2.241,0,0,0,2.573,1.864,2.324,2.324,0,0,0,2.243-2.177c.181-2.26-1.1-3.167-2.425-3.167a2.686,2.686,0,0,0-2.194,1.039Z" fill="#f7f8f3"/>
  </g>
</svg>
