<svg id="ochart_ttl_sp" xmlns="http://www.w3.org/2000/svg" width="745" height="90" viewBox="0 0 745 90">
  <rect id="長方形_15" data-name="長方形 15" width="745" height="90" fill="#ffc946" opacity="0"/>
  <g id="グループ_499" data-name="グループ 499" transform="translate(210 11)">
    <g id="グループ_2" data-name="グループ 2" transform="translate(0 0)">
      <path id="パス_7" data-name="パス 7" d="M745,326.433c0,1.237-2.847,2.36-3.746,2.735-.524.188-.562.337-.637,1.648-.075.824-.075,3.859-.075,4.046,0,.224,0,.675.337.675.112,0,3.184-1.274,3.784-1.5,3.708-1.386,5.394-1.5,6.368-1.5A5.735,5.735,0,0,1,756.8,338.2c0,4.945-5.207,7.193-8.278,7.193-2.135,0-3.858-1.087-3.858-3.035a3.338,3.338,0,0,1,1.873-2.959.2.2,0,0,1,.187.187c0,.113-.075.188-.15.3a1.552,1.552,0,0,0-.337,1.012c0,1.8,2.06,1.8,2.435,1.8,2.472,0,5.619-1.648,5.619-4.645a3.881,3.881,0,0,0-3.6-4.121c-1.049,0-3.371.487-7.754,2.809-2.1,1.124-2.323,1.237-2.323,1.873,0,.412.113,2.1.113,2.472,0,1.723-.562,4.2-1.911,4.2-1.011,0-1.423-.787-1.723-1.386-1.2-2.323-1.386-2.323-1.873-2.323a3.132,3.132,0,0,0-.936.225,7.427,7.427,0,0,1-1.423.749c-.412,0-2.323-1.124-2.323-2.36,0-.674.412-1.461,1.086-1.461.225,0,1.312.188,1.536.188,1.012,0,1.686-.188,3.9-1.274,1.911-.937,2.135-1.049,2.135-2.1,0-.862-.037-4.046-.075-4.683,0-.262-.112-.824-.524-.824a8.763,8.763,0,0,0-1.723.337,8.031,8.031,0,0,1-2.66.712c-1.274,0-2.7-2.585-2.7-2.847a.266.266,0,0,1,.3-.262c.112,0,.562.15.674.15a10.893,10.893,0,0,0,1.723.187,16.358,16.358,0,0,0,4.758-1.124,28.049,28.049,0,0,0,.374-4.083,3.677,3.677,0,0,0-1.236-3,3.729,3.729,0,0,1-.524-.6c0-.337.6-.411.824-.411,2.51,0,3.859,1.835,3.859,2.547a15.072,15.072,0,0,1-.787,1.947,20.055,20.055,0,0,0-.375,2.435c0,.15.075.412.3.412.263,0,1.312-.412,1.312-.936,0-.075-.188-.449-.188-.524,0-.037.075-.112.15-.15C743.2,324.748,745,325.273,745,326.433Zm-8.541,14.347c0,.562,1.012,1.761,1.573,1.761.524,0,1.049-1.049,1.049-2.884,0-.15,0-.525-.112-.6C738.854,339.057,736.456,340.256,736.456,340.78Zm24.611-11.65c0,.787-.449,1.8-1.236,1.8-.224,0-1.086-.075-1.273-.075-.187.037-.974.262-1.124.262a.175.175,0,0,1-.187-.188,2.576,2.576,0,0,1,.112-.3,1.975,1.975,0,0,0,.15-.675c0-1.5-1.873-2.023-3.147-2.023a3.252,3.252,0,0,0-1.461.375.836.836,0,0,1-.374.112c-.113,0-.15-.037-.15-.15a4.791,4.791,0,0,1,4.046-2.36C759.307,325.909,761.067,327.408,761.067,329.131Z" transform="translate(-730.538 -315.458)" fill="#333"/>
      <path id="パス_8" data-name="パス 8" d="M817.691,328.035a33.007,33.007,0,0,0,9.065,2.959c.15,0,.787.112.787.262,0,.112-.524.262-.674.3a6.491,6.491,0,0,0-2.847,2.023c-.112.15-.524.937-.712.937-.224,0-8.353-3.934-12.024-9.927-.711-1.2-.824-1.311-1.086-1.311s-.337.075-1.161.936a44.541,44.541,0,0,1-11.088,8.729,32.463,32.463,0,0,1-5.882,2.4c-.112,0-.187-.075-.187-.113s4.008-2.51,4.346-2.734c5.057-3.184,10.414-8.915,10.938-11.725.037-.3.075-.412.337-.412.187,0,3.222,1.161,3.409,1.274.112.037.487.188.487.562a2.342,2.342,0,0,1-.15.525C811.322,323.278,814.544,326.425,817.691,328.035Zm-18.055-9.328c-2.772,0-4.046.075-4.758.112-.112,0-.674.075-.787.075s-.187-.075-.337-.224l-.711-.861c-.15-.188-.15-.188-.15-.262s.037-.075.112-.075c.262,0,1.424.112,1.649.112,1.835.075,3.409.15,5.169.15h1.087c.787,0,1.011-.375,1.011-1.012a6.1,6.1,0,0,0-.3-1.985,5.669,5.669,0,0,1-.225-.749c0-.187.188-.262.412-.262.262,0,1.948.412,2.36.524,1.123.3,1.348.375,1.348.712,0,.224-.037.3-.562.974a.917.917,0,0,0-.262.674c0,.9.3,1.124,1.311,1.124h6.181c.337,0,1.124,0,1.124-1.012a15.6,15.6,0,0,0-.112-1.686c-.037-.187-.225-.974-.225-1.124,0-.187.225-.262.412-.262.262,0,2.81.6,3.222.711s.636.262.636.6c0,.224-.15.375-.562.675a1.2,1.2,0,0,0-.487,1.048c0,1.049.6,1.049,1.2,1.049h1.91c1.649,0,1.836,0,2.4-.637,1.049-1.236,1.161-1.386,1.5-1.386.225,0,3.484,1.985,3.484,2.472,0,.524-.749.524-1.985.524h-7.3c-1.161,0-1.161.6-1.161,1.5,0,.224.037,1.5.037,1.686,0,1.386-1.124,1.611-1.91,1.611-.861,0-1.012-.15-1.012-1.424v-2.585c-.112-.712-.562-.787-1.161-.787h-5.993c-.861,0-1.386,0-1.386,1.049,0,.374.112,2.022.112,2.359,0,.712-.112,1.049-.449,1.274a2.659,2.659,0,0,1-1.423.525c-.636,0-.936-.412-.936-1.161,0-.3.037-1.723.037-1.985,0-1.461,0-2.06-1.161-2.06Zm2.659,19.142a19.115,19.115,0,0,1,2.884,1.76.926.926,0,0,1,.3.562c0,.449-.3.525-1.2.749-.112.037-3.334,2.547-3.933,3a23.028,23.028,0,0,1-5.694,3.259.12.12,0,0,1-.113-.112c0-.075,1.985-1.8,2.248-2.06,3.109-2.959,5.019-5.918,5.357-7.117A.225.225,0,0,1,802.294,337.85Zm1.724-1.985c-2.922,0-4.008.037-4.758.112-.112,0-.674.075-.787.075s-.187-.075-.337-.224l-.711-.862c-.15-.188-.15-.188-.15-.262,0-.037.037-.075.112-.075.263,0,1.424.112,1.648.112,1.836.112,3.409.15,5.17.15h2.81c.374,0,1.124,0,1.124-1.011,0-.449-.225-3.484-.3-3.858,0-.075-.225-.45-.225-.525s.075-.224.375-.224c.262,0,2.884.562,3.259.674.524.113.712.449.712.637,0,.225-.075.3-.637.787-.524.449-.524.674-.524,1.8,0,1.349,0,1.723,1.124,1.723h1.648c1.648,0,1.835,0,2.4-.636,1.048-1.236,1.161-1.386,1.5-1.386.225,0,3.484,2.022,3.484,2.472,0,.524-.749.524-1.985.524h-7.08c-1.123,0-1.123.674-1.123,1.873,0,2.66,0,4.159.075,6.368.037.637.037,1.536.037,1.985,0,1.2-.3,1.91-1.911,1.91-.823,0-.9-.674-.9-1.311,0-.487.113-2.734.113-3.222.037-1.423.037-2.809.037-4.533a22.724,22.724,0,0,0-.075-2.547c-.188-.524-.787-.524-1.087-.524Zm10,3.146c0-.112.187-.15.337-.15,1.386,0,9.927,2.36,9.927,5.469,0,1.2-.674,2.136-1.611,2.136-.712,0-.861-.188-2.023-1.911a17.8,17.8,0,0,0-6.443-5.394C814.169,339.161,814.02,339.049,814.02,339.01Z" transform="translate(-750.914 -313.651)" fill="#333"/>
      <path id="パス_9" data-name="パス 9" d="M878.946,326.632c-.262,0-8.128,1.836-8.316,1.911a16.273,16.273,0,0,1-1.686.712,7.821,7.821,0,0,1-2.548-1.349,7.647,7.647,0,0,1-.9-2.172c0-.187.037-.3.225-.3.037,0,.862.225.974.262a6.671,6.671,0,0,0,1.985.375c1.274,0,8.316-.6,10.264-1.386a14.292,14.292,0,0,1,2.06-1.161c.9,0,3.184,1.91,3.184,2.847,0,.337-1.386,1.348-1.611,1.611-.749.9-3.708,5.281-4.308,6.143a1.228,1.228,0,0,0-.3.749c0,.337.075.412,1.648,1.274,1.686.974,8.391,4.757,8.391,8.166a1.617,1.617,0,0,1-1.536,1.648c-.862,0-1.011-.262-2.322-2.585-2.584-4.533-5.881-7.38-6.706-7.38-.374,0-.487.112-1.311,1.049-1.311,1.386-5.132,5.581-10,8.016a9.21,9.21,0,0,1-2.323.862c-.075,0-.262,0-.262-.224a11.538,11.538,0,0,1,1.723-1.386c9.776-7.08,14.234-16.781,14.122-17.381A.421.421,0,0,0,878.946,326.632Z" transform="translate(-774.721 -316.93)" fill="#333"/>
      <path id="パス_10" data-name="パス 10" d="M923.31,346.342c7.679-4.345,12.811-10.451,12.811-11.612s-4.458-4.008-5.394-4.008c-.862,0-5.394,4.907-6.63,4.907a.175.175,0,0,1-.188-.187,12.311,12.311,0,0,1,1.349-1.611c4.458-4.832,7.529-10.114,7.529-12.249,0-.3-.6-1.5-.6-1.76,0-.225.487-.225.711-.225,1.986,0,3.372,1.461,3.372,2.211,0,.224-.412,1.236-.412,1.461,0,.562.787.637,1.273.637a22.961,22.961,0,0,0,5.618-.9,8.952,8.952,0,0,1,1.386-.824c.375,0,3.072,1.686,3.072,2.884,0,.562-.262.674-.937.974-.562.262-.712.449-1.835,2.21-.525.824-3.072,4.383-3.521,5.132-.337.524-.412.637-.412.936,0,.337.037.412.712,1.274.9,1.161,1.573,1.985,1.573,3.3a1.613,1.613,0,0,1-1.611,1.8c-.787,0-.936-.262-2.36-2.66-.075-.15-.487-.862-.862-.862-.337,0-.562.262-1.311,1.049a32.333,32.333,0,0,1-13.823,9.028c-.075,0-.412,0-.337-.337C922.523,346.755,922.6,346.755,923.31,346.342Zm19.067-20.752c0-.412-.375-.524-.637-.524-.562,0-3.858.487-4.533.487a3.411,3.411,0,0,1-1.124-.15,2.507,2.507,0,0,0-.9-.15.589.589,0,0,0-.449.15c-.037,0-3.184,3.746-3.184,4.2,0,.524.337.636,1.274,1.011a41.924,41.924,0,0,1,4.121,1.911,2.112,2.112,0,0,0,.861.262C938.63,332.632,942.377,326.863,942.377,325.59Z" transform="translate(-794.294 -315.626)" fill="#333"/>
      <path id="パス_11" data-name="パス 11" d="M994.965,328.458c1.46.9,1.611,1.049,1.611,1.386,0,.224-.412,1.274-.449,1.5-.15.675-.225,1.461-.225,6.63,0,1.012.037,3.035.113,4.5.037.45.262,2.623.262,3.109,0,.375,0,1.648-.9,1.648-1.048,0-2.322-1.611-2.322-2.622,0-.375.374-2.023.411-2.4.225-2.023.375-4.907.375-6.893,0-1.348,0-5.282-.974-5.282-.187,0-.337.15-.637.449-3.67,3.521-9.964,7.155-10.639,7.155-.112,0-.187-.075-.187-.225a.342.342,0,0,1,.112-.262c.974-.861,2.023-1.723,2.623-2.247,8.84-7.567,11.762-13.935,11.762-14.984a2.122,2.122,0,0,0-.3-1.048,4.076,4.076,0,0,1-.262-.6.37.37,0,0,1,.375-.3c.562,0,4.345,1.573,4.345,3a.946.946,0,0,1-.337.749,10.7,10.7,0,0,0-2.548,3.071c-.636.9-1.835,2.248-2.547,3.147A.6.6,0,0,0,994.965,328.458Z" transform="translate(-813.869 -315.086)" fill="#333"/>
      <path id="パス_12" data-name="パス 12" d="M1041.485,336.761c-2.248,4.87-6.181,7.118-6.93,7.118a.175.175,0,0,1-.187-.188,10.613,10.613,0,0,1,1.5-1.985c4.12-5.656,4.532-9.739,4.532-10.975a8.213,8.213,0,0,0-.636-3.222,2.764,2.764,0,0,1-.15-.675c0-.112.037-.187.188-.187.262,0,4.233,1.274,4.233,3.184C1044.032,329.943,1042.122,335.337,1041.485,336.761Zm6.068,3.484c0-.188.187-1.161.224-1.349.113-.711.15-3.67.15-4.607,0-4.57-.45-6.106-.712-7.042a9.744,9.744,0,0,1-.487-1.348c0-.15.15-.188.224-.188.188,0,4.12.674,4.12,2.623,0,.449-.524,2.4-.6,2.809-.15,1.012-.3,5.544-.3,6.78,0,.487.037,1.236.712,1.236,1.124,0,4.57-2.472,8.166-6.106.637-.636,3.821-4.008,3.971-4.008a.162.162,0,0,1,.15.15c0,.3-2.173,4.945-8.728,10.713a20.817,20.817,0,0,0-2.585,2.4c-.637.711-.974.974-1.236,1.011C1049.538,343.5,1047.554,341.293,1047.554,340.245Z" transform="translate(-831.461 -317.657)" fill="#333"/>
      <path id="パス_13" data-name="パス 13" d="M1105.7,320.656c1.76,0,1.948,0,2.4-.637.6-.862.636-.936.936-.936a5.194,5.194,0,0,1,2.735,2.135c0,.412-.225.412-2.023.412h-6.667c-3.259,0-4.346.075-4.72.112-.112,0-.674.075-.787.075-.15,0-.225-.075-.337-.225l-.712-.861c-.15-.188-.188-.188-.188-.262,0-.037.075-.075.15-.075.263,0,1.424.112,1.649.112,1.835.076,3.371.15,5.132.15Zm-1.311,4.57c.824,0,1.048,0,1.536-.749.224-.375.562-.936.861-.936.375,0,2.247,1.723,2.247,2.21,0,.449-.487.449-1.236.449h-5.656c-.749,0-1.536,0-2.435.075-.15,0-.787.075-.936.075s-.225-.113-.3-.225l-.636-.824c-.112-.15-.112-.187-.112-.262,0-.037.037-.075.112-.075.15,0,.861.113,1.011.113.749.075,2.472.15,3.184.15Zm-.225,4.533c.787,0,.9,0,1.274-.487.637-.9.824-1.2,1.049-1.2.524,0,1.91,1.76,1.91,2.247,0,.449-.449.449-1.235.449h-4.945c-.6,0-1.611,0-2.435.038a9.048,9.048,0,0,1-.937.112c-.112,0-.187-.075-.262-.225l-.637-.862c-.112-.15-.112-.187-.112-.224s0-.113.075-.113c.037,0,.862.15,1.049.15,1.011.075,2.06.112,3.183.112Zm-1.985,13.073c-.337,0-1.2,0-1.2.9,0,.187.076,1.161.076,1.386,0,.562,0,1.985-1.8,1.985-1.011,0-1.011-.6-1.011-.861,0-.187.037-.974.075-1.161.075-1.985.15-4.382.15-6.218,0-.936-.038-2.06-.112-3.3,0-.112-.075-1.011-.075-1.087,0-.15.037-.524.3-.524a7.516,7.516,0,0,1,2.247.824,2.741,2.741,0,0,0,1.311.262h2.211a1.674,1.674,0,0,0,1.648-.787c.337-.487.487-.562.674-.562.45,0,2.1,1.086,2.1,1.573a1.424,1.424,0,0,1-.3.674c-.413.449-.413.6-.413,1.911,0,.674.263,3.9.263,4.645a1.793,1.793,0,0,1-1.986,1.911c-.449,0-.449,0-.711-1.012-.15-.562-.749-.562-1.161-.562Zm1.761-27.083c.9,0,1.049,0,1.461-.637.15-.224.487-.749.861-.749a4.381,4.381,0,0,1,2.285,1.948c0,.449-.524.449-1.236.449h-4.57c-.749,0-1.5,0-2.435.037-.15,0-.787.113-.937.113-.113,0-.225-.15-.3-.225l-.6-.861a.317.317,0,0,1-.112-.187c0-.113.075-.15.187-.15a9.264,9.264,0,0,1,1.012.15c1.836.112,2.36.112,3.109.112Zm-1.948,20.3c-1.2,0-1.2.375-1.2,2.1,0,3.521,0,3.671,1.236,3.671h2.435c1.2,0,1.2-.3,1.2-3.259,0-2.247,0-2.51-1.2-2.51Zm5.356,11.425c10.451-3,16.558-8.5,18.13-10.526.225-.3,1.049-1.836,1.386-1.836.15,0,3.409,1.911,3.409,2.51,0,.3-.149.375-1.348.824a27.4,27.4,0,0,0-3.484,2.285,43.914,43.914,0,0,1-12.7,6.181,34.937,34.937,0,0,1-5.394.824.4.4,0,0,1-.224-.075C1107.127,347.626,1107.164,347.514,1107.351,347.477Zm12.811-30.941c0,.3.113.6.675,1.536a22.837,22.837,0,0,0,9.1,8.99,19.31,19.31,0,0,1,1.911,1.087c0,.075-.337.112-.449.112a6.448,6.448,0,0,0-1.873.3,11.741,11.741,0,0,1-1.8.936c-.412,0-2.36-2.06-2.772-2.51a21.952,21.952,0,0,1-5.132-8.053c-.337-.974-.337-1.087-.636-1.087a.415.415,0,0,0-.337.262c-.824,1.236-2.023,3.259-2.809,4.5-4.458,6.892-7.642,8.765-7.642,8.391a.459.459,0,0,1,.15-.337c3.072-3.483,7.567-11.762,7.979-15.62.15-1.348.15-1.386.45-1.386.262,0,.487.075,1.872.787,1.5.749,1.648.861,1.686,1.123C1120.574,315.711,1120.162,316.348,1120.162,316.535Zm-8.016,17.344c4.307-4.5,5.656-7.417,5.731-8.316.112-.974.112-1.087.374-1.087.15,0,2.1,1.011,2.472,1.2.974.524,1.087.562,1.087.862s-.187.375-.862.749c-.262.15-3.97,4.008-4.757,4.72a23.8,23.8,0,0,1-4.645,3.6,9.568,9.568,0,0,1-1.685.787c-.037,0-.112,0-.112-.075C1109.711,336.276,1111.846,334.216,1112.146,333.879Zm3.146,4.42c3.221-2.7,6.106-5.319,6.706-7.567.187-.636.187-.674.449-.674.3,0,3.146,1.611,3.146,2.135,0,.3-.3.487-1.048.9-.675.375-3.259,2.622-3.783,3.034-4.982,3.859-7.942,4.758-9.1,5.095-.187.037-.3,0-.3-.037C1111.285,341.071,1114.693,338.786,1115.292,338.3Z" transform="translate(-852.046 -313.651)" fill="#333"/>
      <path id="パス_14" data-name="パス 14" d="M1190.136,327.866c-.9,0-1.274.15-1.348,1.161-.487,6.93-.675,9.177-2.06,13.073-.974,2.7-3.072,5.282-3.559,5.282-.149,0-.187-.075-.187-.112,0-.15.487-.861.487-1.049,0-.3-.15-.3-1.386-.3h-9.852c-.936,0-.974.113-1.311.974a1.9,1.9,0,0,1-1.873,1.236c-.337,0-.524-.188-.524-.749,0-2.81.187-16.707.187-19.853,0-2.623-.037-9.4-.337-11.538a12.62,12.62,0,0,1-.337-1.274c0-.15.15-.15.3-.15,1.124,0,3.408,1.011,3.408,1.648a5.319,5.319,0,0,1-.524.862,31.078,31.078,0,0,0-.15,3.9c0,2.7.075,16.071.075,19.1,0,.075,0,.337.149.337.562,0,4.646-10,4.646-12.137a.541.541,0,0,0-.562-.6c-.375,0-2.435.187-2.772.187-.15,0-.187-.075-.337-.262l-.711-.862c-.188-.188-.188-.188-.188-.225,0-.075.113-.112.15-.112.637,0,3.708.262,4.42.262.749,0,.974-.375,1.011-.9,0-.262.037-3.222.037-3.708a59.829,59.829,0,0,0-.263-6.817c-.037-.262-.524-1.349-.524-1.424s.075-.075.15-.075c.037,0,2.135.375,2.659.524.562.15,1.461.375,1.461.824,0,.188-.9.787-1.049.974-.112.113-.112.188-.112.712,0,1.236-.188,7.342-.188,8.766,0,.749.188,1.123,1.049,1.123a1.523,1.523,0,0,0,1.236-.375c.187-.15.936-1.161,1.2-1.161.412,0,2.172,1.91,2.172,2.022,0,.525-.712.525-1.985.525h-2.435c-.749,0-1.161.224-1.161,1.348,0,.749.262.974,1.012,1.573,2.435,1.873,3.371,2.584,3.371,3.9a1.768,1.768,0,0,1-1.5,1.686c-.6,0-.674-.188-1.123-1.985-.3-1.124-.937-2.66-1.424-2.66-.262,0-.262.487-.262.6,0,.449.187,8.541.187,9.964,0,1.461-1.573,1.723-2.06,1.723-.562,0-.637-.412-.637-.861,0-1.311.113-7.679.113-9.14,0-.075,0-.412-.188-.412-.075,0-.15.037-.262.3a22.5,22.5,0,0,1-4.607,7.267c-.674.787-.674.861-.674,2.7,0,.711.075,1.274,1.2,1.274h5.394c1.573,0,2.06,0,2.4-.637.636-1.086.712-1.236,1.049-1.236.487,0,2.21,1.873,2.734,1.873.225,0,.337-.15.449-.412,1.686-3.783,2.1-8.541,2.1-14.01,0-1.012-.075-9.777-.15-10.676-.075-.937-.337-2.959-.337-3.109,0-.112.037-.15.188-.15.412,0,2.21.749,2.622.749,1.161,0,5.207-1.8,7.08-2.81.225-.113,1.086-.824,1.348-.824,0,0,3.222,1.686,3.222,2.359,0,.262-.075.262-1.386.45-1.2.187-7.23,1.048-8.616,1.2-1.161.113-1.311.15-1.46.562-.076.262-.15,5.431-.15,6.181,0,2.023,0,2.435,1.311,2.435h5.469a4.625,4.625,0,0,0,1.836-.15c.337-.15,1.311-1.985,1.723-1.985.449,0,1.8,2.322,1.8,2.622,0,.225-.225.337-.375.412a7.64,7.64,0,0,1-1.873.075h-2.172c-.6,0-1.124,0-1.274.824-.074.337-.074,9.665-.074,10.564,0,2.1.187,4.458.262,5.394a9.184,9.184,0,0,1,.075,1.049,1.943,1.943,0,0,1-2.06,2.285c-.636,0-.936-.187-.936-1.086,0-.113.112-1.424.112-1.573.037-.6.188-7.267.188-8.129,0-1.161-.037-6.967-.037-8.166,0-1.011-.45-1.161-1.312-1.161Zm-14.871-5.169a1.525,1.525,0,0,1-1.536,1.723c-.749,0-.787-.262-1.161-2.547a16.93,16.93,0,0,0-.524-2.435c-.037-.15-.262-.675-.262-.787s.075-.075.15-.037C1173.055,319.251,1175.265,321.161,1175.265,322.7Zm6.93-4.233c.375,0,2.51,1.461,2.51,2.023,0,.225,0,.262-.824.6a17.373,17.373,0,0,0-2.323,2.659,10.364,10.364,0,0,1-1.573,1.349c-.038,0,1.423-3.634,1.573-4.346.075-.337.225-1.723.3-1.986C1181.933,318.577,1182.007,318.464,1182.2,318.464Z" transform="translate(-875.862 -313.67)" fill="#333"/>
    </g>
  </g>
  <g id="グループ_500" data-name="グループ 500" transform="translate(314 63.453)">
    <path id="パス_1" data-name="パス 1" d="M918.6,401.075c-4.187,0-7.094-3.427-7.094-8.308s2.885-8.33,7.094-8.33c4.164,0,7.071,3.428,7.071,8.33C925.67,397.626,922.785,401.075,918.6,401.075Zm5.01-8.5c0-2-.564-7.418-5.01-7.418-4.859,0-5.033,6.377-5.033,7.808,0,2.083.629,7.4,5.033,7.4C923.436,400.359,923.609,394.047,923.609,392.572Z" transform="translate(-911.505 -384.437)" fill="#333"/>
    <path id="パス_2" data-name="パス 2" d="M944.886,384.7c0,.022,1.41,3.427,1.41,3.666a.408.408,0,0,1-.413.391c-.195,0-.239-.066-.694-.695-1.844-2.6-3.774-2.906-4.685-2.906-3.406,0-5.162,4.164-5.162,7.917,0,5.032,2.949,7.006,5.531,7.006,1.518,0,3.254-.651,4.685-3.08.5-.846.5-.868.672-.868a.339.339,0,0,1,.326.347,7.181,7.181,0,0,1-1.237,2.191,6.322,6.322,0,0,1-5.1,2.408c-4.577,0-6.812-3.709-6.812-7.961,0-5.076,3.146-8.677,6.812-8.677a7.561,7.561,0,0,1,1.844.26,10.544,10.544,0,0,0,1.3.347.9.9,0,0,0,.586-.216c.347-.347.39-.391.564-.391A.5.5,0,0,1,944.886,384.7Z" transform="translate(-912.815 -384.437)" fill="#333"/>
    <path id="パス_3" data-name="パス 3" d="M963.767,392.251c.586,0,.586-.13.586-2.994,0-3.145,0-3.687-2.017-3.687-.174,0-.565,0-.565-.369,0-.325.391-.325.586-.325h5.532c.151,0,.564,0,.564.347,0,.369-.282.369-.955.369a1.375,1.375,0,0,0-1.323.8c-.174.455-.2.52-.2,8.372a34.623,34.623,0,0,0,.174,4.4c.3.824,1.193.824,1.606.824.324,0,.694,0,.694.348s-.413.347-.564.347h-5.532c-.216,0-.586,0-.586-.325,0-.348.391-.348.63-.348a2.119,2.119,0,0,0,1.518-.433c.434-.433.434-.455.434-4.425,0-2.018,0-2.192-.586-2.192h-5.835a.584.584,0,0,0-.5.26c-.087.239-.087,2.386-.087,2.8,0,3.558,0,3.991,2.039,3.991.151,0,.542,0,.542.37,0,.3-.39.3-.586.3h-5.53c-.131,0-.564,0-.564-.347s.282-.348.954-.348a1.379,1.379,0,0,0,1.41-1.106c.086-.521.086-5.792.086-8.568a31.144,31.144,0,0,0-.151-3.9c-.281-.825-1.193-.825-1.6-.825-.325,0-.694,0-.694-.369,0-.347.412-.347.564-.347h5.53c.217,0,.586,0,.586.325,0,.369-.369.369-.628.369-1.953,0-1.953.651-1.953,3.427,0,.391,0,2.776.087,2.972a.526.526,0,0,0,.5.282Z" transform="translate(-914.001 -384.463)" fill="#333"/>
    <path id="パス_4" data-name="パス 4" d="M986.886,400.663c-.238,0-.52-.066-.52-.347,0-.348.347-.348.868-.348a.951.951,0,0,0,.889-.954,11.743,11.743,0,0,0-.8-2.538c-.478-1.215-.542-1.367-1.258-1.367h-4.708c-.8,0-.889.217-1.236,1.193a17.368,17.368,0,0,0-.78,2.821c0,.845.694.845,1.215.845.259,0,.5.044.5.348,0,.347-.325.347-.5.347h-4.165c-.174,0-.455-.022-.455-.325,0-.37.238-.37.737-.37a1.823,1.823,0,0,0,1.648-.867c.5-.673,2.1-5.77,2.582-7.31.282-.868,1.67-5.119,1.952-6.1.217-.759.347-1.258,1.887-1.258a.5.5,0,0,1,.478.348,14.17,14.17,0,0,1,.716,1.952c1.519,4.707,1.649,5.228,3.015,9.24,1.236,3.688,1.389,3.991,2.625,3.991.282,0,.5.131.5.37,0,.325-.348.325-.5.325Zm-1.019-6.269c.239,0,.542-.108.542-.347,0-.456-2.061-6.485-2.451-7.657-.13-.369-.174-.564-.325-.564-.131,0-.152.065-.391.78-.607,1.757-2.3,7.267-2.3,7.462,0,.325.325.325.607.325Z" transform="translate(-915.358 -384.437)" fill="#333"/>
    <path id="パス_5" data-name="パス 5" d="M1006.007,384.876c1.041,0,5.987.108,5.987,3.752,0,2.212-1.671,3.211-2.885,3.8-.759.369-.846.412-.846.651a38.554,38.554,0,0,0,2.256,5.184,2.7,2.7,0,0,0,2.559,1.735c.217,0,.651,0,.651.348,0,.3-.434.347-.542.347h-2.711a1.063,1.063,0,0,1-1.02-.629c-.13-.217-1.67-3.579-1.909-4.122-1.193-2.625-1.345-2.972-2.1-2.972h-1.193c-.151,0-.433.087-.5.26-.085.217-.085,3.08-.085,3.579,0,2.625,0,3.188,2,3.188.151,0,.456,0,.456.348s-.391.347-.63.347h-5.357c-.217,0-.543-.043-.543-.347,0-.348.3-.348.607-.348,1.5,0,1.714-.694,1.779-1.5.043-.737.043-6.7.043-7.722a34.764,34.764,0,0,0-.174-4.381c-.282-.8-1.215-.8-1.713-.8-.131,0-.586,0-.586-.39,0-.325.39-.325.651-.325Zm-.78.715c-1.562,0-1.562.976-1.562,3.211,0,3.405,0,3.47.585,3.47h1.757c2.126,0,3.926-1.172,3.926-3.427,0-1.518-.825-3.254-3.644-3.254Z" transform="translate(-916.77 -384.463)" fill="#333"/>
    <path id="パス_6" data-name="パス 6" d="M1031.855,384.876c1.172,0,1.432,0,1.8.976.174.477,1.107,2.929,1.107,3.145a.333.333,0,0,1-.347.325c-.174,0-.239-.087-.737-.911-1.15-1.887-2.429-2.82-3.906-2.82-.845,0-1.366.347-1.5,1.085-.066.39-.066,5.292-.066,6.2,0,.607,0,5.618.066,5.987.2,1.106,1.215,1.127,1.8,1.127.8,0,.976,0,.976.348s-.3.347-.651.347h-6.074c-.3,0-.63,0-.63-.347s.348-.348.478-.348c1.281,0,2.083,0,2.3-1.127.065-.347.065-.369.065-6.139,0-5.358,0-5.944-.151-6.356a1.354,1.354,0,0,0-1.389-.781c-1.735,0-3.015,1.367-3.9,2.8-.521.846-.564.933-.759.933a.352.352,0,0,1-.347-.325c0-.173.976-2.776,1.149-3.21.347-.911.695-.911,1.779-.911Z" transform="translate(-917.993 -384.463)" fill="#333"/>
  </g>
</svg>
