<svg xmlns="http://www.w3.org/2000/svg" width="51.101" height="51.101" viewBox="0 0 51.101 51.101">
  <g id="ochart_q_4" transform="translate(0.5 0.5)">
    <circle id="楕円形_4" data-name="楕円形 4" cx="25.05" cy="25.05" r="25.05" fill="none" stroke="#999" stroke-miterlimit="10" stroke-width="1"/>
    <g id="グループ_11" data-name="グループ 11" transform="translate(-449.713 -116.76)">
      <g id="グループ_10" data-name="グループ 10">
        <path id="パス_21" data-name="パス 21" d="M473.553,148.552l-.792.974-1.715-1.419a7.2,7.2,0,0,1-3.151.825A6.307,6.307,0,0,1,464.2,147.7a6.617,6.617,0,0,1-2.112-5.064,6.732,6.732,0,0,1,2.112-5.064,6.136,6.136,0,0,1,7.389,0A7.189,7.189,0,0,1,472,147.3ZM468.6,146.1l.759-.924,1.5,1.2a5.6,5.6,0,0,0,1.27-3.744,5.46,5.46,0,0,0-1.319-3.761,4.267,4.267,0,0,0-5.839,0,6.018,6.018,0,0,0,0,7.522,4.058,4.058,0,0,0,2.919,1.154,4.444,4.444,0,0,0,1.93-.445Z" fill="#333"/>
        <path id="パス_22" data-name="パス 22" d="M478.041,145.8v-1.551l5.328-7.389h1.089v7.571h1.7V145.8h-1.7v2.754h-1.386V145.8Zm5.031-6.6-3.727,5.229h3.727Z" fill="#333"/>
      </g>
    </g>
  </g>
</svg>
