<svg id="ochart_btn_sp" xmlns="http://www.w3.org/2000/svg" width="650" height="95" viewBox="0 0 650 95">
  <rect id="長方形_25" data-name="長方形 25" width="650" height="95" rx="9.182"/>
  <g id="グループ_333" data-name="グループ 333" transform="translate(-1373.604 -2943.683)">
    <g id="グループ_332" data-name="グループ 332">
      <path id="パス_1487" data-name="パス 1487" d="M1417.411,3003.754a9.747,9.747,0,0,0,8.317-4.488c.628-.924.694-1.023.925-1.023a.462.462,0,0,1,.495.5c0,.2-1.255,3.432-1.452,3.961-.826,2.079-.958,2.112-3.1,2.112h-13.829c-.495,0-.957,0-.957-.528s.363-.529,1.188-.529a2.188,2.188,0,0,0,2.508-1.715c.1-.561.1-8.153.1-9.11,0-1.32,0-8.812-.1-9.406-.3-1.684-1.749-1.684-2.97-1.684-.231,0-.726,0-.726-.527,0-.562.462-.562.957-.562h8.185c.528,0,.99,0,.99.562,0,.527-.363.527-1.188.527a2.21,2.21,0,0,0-2.508,1.684c-.1.594-.1,7.624-.1,9.176,0,8.779,0,8.811.1,9.34a2.11,2.11,0,0,0,2.277,1.715Z" fill="#fff"/>
      <path id="パス_1488" data-name="パス 1488" d="M1431.874,3004.811c-.429,0-.925,0-.925-.528s.265-.529,1.552-.529c.957,0,2.541,0,2.871-1.715.1-.561.1-8.153.1-9.11,0-1.353,0-8.812-.1-9.406-.33-1.684-1.518-1.684-3.7-1.684-.2,0-.726,0-.726-.527,0-.562.5-.562.957-.562h9.7c.4,0,.891,0,.891.562,0,.495-.3.495-1.518.495-.99,0-2.41.032-2.839,1.518-.132.462-.132,7.888-.132,9.406,0,8.747,0,8.779.1,9.308.3,1.715,1.484,1.715,3.7,1.715.165,0,.693,0,.693.529s-.495.528-.891.528Z" fill="#fff"/>
      <path id="パス_1489" data-name="パス 1489" d="M1448.024,3004.811c-.495,0-.991,0-.991-.528s.4-.529,1.222-.529a2.608,2.608,0,0,0,2.64-1.484c.264-.76.3-.792.3-9.539,0-8.316,0-8.35-.1-8.911-.4-1.981-2.211-1.981-3.334-1.981-.2,0-.726,0-.726-.527,0-.562.5-.562.991-.562h3.2c2.376,0,2.442.1,4.125,2.674,2.014,3.036,5.248,7.888,7.262,10.924.429.66,3.465,5.281,3.663,5.281.132,0,.231-.231.231-.66,0-.924.033-6.337.033-7.492,0-1.188,0-7.03-.1-7.624-.4-2.014-2.079-2.014-3.168-2.014-.2,0-.694,0-.694-.527,0-.562.463-.562.925-.562h6.865c.363,0,.858,0,.858.562,0,.527-.462.527-.99.527-2.74,0-2.74,1.486-2.74,5.447,0,2.475.033,14.686.033,17.426,0,.165,0,.726-.429.726a.576.576,0,0,1-.429-.264c-.2-.231-13.136-19.671-13.3-19.9-.594-.957-.66-1.089-.825-1.089s-.264.264-.264.627c0,1.189-.033,6.931-.033,8.251s0,7.889.1,8.516c.4,2.177,2.211,2.177,3.631,2.177.263,0,.759,0,.759.529s-.429.528-1.057.528Z" fill="#fff"/>
      <path id="パス_1490" data-name="パス 1490" d="M1487.417,3003.754a8.579,8.579,0,0,0,7.888-4.091c.825-1.288.891-1.42,1.155-1.42a.527.527,0,0,1,.561.528c0,.165-1.188,3.3-1.386,3.8-.825,2.145-.858,2.244-3,2.244h-15.546c-.561,0-1.023,0-1.023-.528s.33-.529,1.254-.529a2.187,2.187,0,0,0,2.508-1.715c.1-.561.133-8.153.133-9.11,0-1.32,0-8.812-.1-9.406-.33-1.684-1.75-1.684-3.07-1.684-.231,0-.726,0-.726-.527,0-.562.462-.562,1.023-.562h15.05c2.046,0,2.211.067,2.872,1.684.2.462,1.419,3.5,1.419,3.73a.516.516,0,0,1-.528.495c-.2,0-.264-.067-1.023-1.122-1.024-1.453-3.169-3.7-6.337-3.7h-3.664a2.287,2.287,0,0,0-1.98.859c-.4.593-.4.891-.4,3.5,0,.428,0,4.917.1,5.181a.913.913,0,0,0,.792.429h2.905c3.729,0,3.729-2.244,3.729-3.7,0-.1,0-.66.528-.66.561,0,.528.56.528.825-.033,1.221,0,7.129,0,8.449,0,.165,0,.693-.528.693s-.528-.429-.528-1.089c0-2.806-1.881-3.465-3.729-3.465h-2.905a.794.794,0,0,0-.858.759c-.033.263-.033,5.709-.033,6.2,0,2.309,0,3.926,2.376,3.926Z" fill="#fff"/>
      <path id="パス_1491" data-name="パス 1491" d="M1510.5,2979.365c1.024,0,1.122-.067,1.75-.892.528-.693.594-.759.759-.759a.994.994,0,0,1,.3.066c.231.133,1.287.925,1.551,1.122.792.561.891.628.891.891,0,.3-.2.4-.66.594a1.7,1.7,0,0,0-.66.595,27.367,27.367,0,0,1-9.076,9.34c-.66.4-3.565,1.947-4.753,1.947-.033,0-.1,0-.1-.065,0-.1.3-.265.4-.33.726-.463,2.013-1.354,2.971-2.047a22.538,22.538,0,0,0,4.158-4.027c0-.066-.429-.2-.561-.3a22.962,22.962,0,0,1-1.881-2.707,8.38,8.38,0,0,1-.594-.692c0-.033.065-.066.131-.066,2.806,0,3.7,1.056,3.9,1.452.066.1.2.825.363.825s2.278-2.773,2.278-3.631c0-.462-.462-.462-.76-.462h-2.673c-.759,0-3,0-4.159.1-.1,0-.593.065-.693.065s-.165-.065-.3-.2l-.628-.76c-.132-.165-.132-.165-.132-.23s.066-.067.1-.067c.2,0,1.222.1,1.453.1.957.066,2.673.133,4.521.133Zm12.938,25.149c1.023,0,1.387-.033,1.717-.4.3-.33,1.386-2.343,1.815-2.343.264,0,3.432,2.541,3.432,3.1,0,.5-.627.5-1.782.5h-20.694c-2.476,0-3.6.065-4.159.1-.131,0-.594.067-.692.067-.133,0-.2-.067-.3-.2l-.66-.759c-.1-.165-.132-.165-.132-.231,0-.033.033-.066.132-.066.231,0,1.221.1,1.453.1,1.617.1,2.97.132,4.521.132h7.789c.891,0,1.32,0,2.212-1.815a12.038,12.038,0,0,0,1.551-5.017c0-.132,0-.4.264-.4.165,0,2.046,1.221,2.376,1.42.957.66,1.089.725,1.089,1.022,0,.528-.528.595-1.023.693a2.472,2.472,0,0,0-.858.694c-.4.428-2.178,2.177-2.541,2.574-.066.065-.3.3-.3.462,0,.363.495.363.891.363Zm-15.38-6.5a.186.186,0,0,1,.2-.165c.066,0,4.786,1.749,4.786,4.488,0,.529-.33,1.882-1.42,1.882-.824,0-.923-.463-1.287-1.848a9.384,9.384,0,0,0-1.683-3.631A4.824,4.824,0,0,1,1508.054,2998.012Zm11.156-7.558a1.827,1.827,0,0,0,1.782-.759c.528-.529.594-.594.825-.594.264,0,2.409,1.386,2.409,1.914,0,.231-.066.264-.593.693-.265.2-.3.528-.3,1.056,0,.4.1,2.344.1,2.773,0,.66,0,2.013-1.386,2.013a1.276,1.276,0,0,1-1.221-.792c-.165-.264-.495-.264-.825-.264h-7.954c-.331,0-.693,0-.858.3a1.584,1.584,0,0,1-1.651,1.089c-.825,0-.99-.561-.99-1.155a6.911,6.911,0,0,1,.066-.825c.066-.892.1-2.014.1-2.9a14.651,14.651,0,0,0-.132-2.245c-.033-.165-.231-.958-.231-1.155a.415.415,0,0,1,.429-.43c.3,0,.462.067,1.849.859a2.857,2.857,0,0,0,1.715.429Zm-3.532-2.74c-2.343,0-3.5.1-3.73.1-.1,0-.593.065-.692.065-.132,0-.165-.065-.3-.2l-.628-.759c-.132-.131-.132-.165-.132-.23,0-.033.033-.067.1-.067.23,0,1.253.1,1.484.1,1.288.067,2.773.132,4.06.132a4.608,4.608,0,0,0,1.353-.132c.4-.165,1.684-1.584,2.08-1.584.462,0,2.343,1.552,2.343,2.112,0,.462-.627.462-1.782.462Zm4.291,7.921c.924,0,.924-.494.924-1.584,0-2.607,0-2.706-.924-2.706h-7.921c-.957,0-.957.462-.957,1.551,0,2.607,0,2.739.957,2.739Zm3.927-10.462c.561,0,2.377-2.377,2.641-2.739.4-.595.495-.727.759-.727.363,0,.462.067,1.551,1.156,1.023,1.023,1.122,1.122,1.122,1.386,0,.231-.066.231-.858.3-.363.034-3.861,1.023-3.861,1.584,0,.726,3.564,2.344,5.446,2.773.131.033.857.2.857.33,0,.1-.065.1-.759.165a6.483,6.483,0,0,0-2.541,1.089,2.8,2.8,0,0,1-.726.429c-.528,0-5.809-3.73-8.581-8.449a22.494,22.494,0,0,1-2.014-4.588c-.066-.165-.2-.594-.231-.726a.121.121,0,0,1,.132-.132c.165,0,3.4,4.951,3.994,4.951.462,0,1.65-2.245,1.782-3.169.132-.725.165-.825.561-.825.165,0,2.608,1.617,2.641,1.617a1.027,1.027,0,0,1,.3.66c0,.529-.6.594-.957.661a17.248,17.248,0,0,0-1.684.99c-.594.33-1.485.825-1.551,1.22C1521.85,2983.721,1523.467,2985.173,1523.9,2985.173Z" fill="#fff"/>
      <path id="パス_1492" data-name="パス 1492" d="M1537.681,2993.326c-.132-.165-.132-.165-.132-.232s.066-.065.1-.065c.627,0,3.762.2,4.456.2.957,0,.957-.362.957-2.145,0-1.419,0-1.848-.858-1.848-.2,0-1.32.132-1.486.132-.1,0-.131-.067-.4-.364a.383.383,0,0,0-.23-.1c-.2,0-.43.263-.991.825-1.056,1.122-3.7,3.433-3.7,3.036a2.67,2.67,0,0,1,.4-.594,44.849,44.849,0,0,0,5.644-8.713c1.947-3.994,1.947-4.125,1.947-5.578,0-.4.231-.429.363-.429.033,0,3.234.693,3.234,1.518,0,.067-.1.462-.1.529,0,.33.231.461.529.627.627.363,2.574,1.485,2.574,3.333,0,.693-.231,1.353-.957,1.353s-.859-.23-2.08-2.806c-.462-.923-.693-1.254-1.122-1.254-.363,0-.627.429-.759.694a51.5,51.5,0,0,1-3.366,5.115c-.529.727-.726.99-.726,1.222,0,.33.33.363.561.4.362.033,2.343.133,2.607.133.99,0,1.188,0,1.617-.561.627-.859.693-.957.991-.957.461,0,2.045,1.452,2.045,1.947,0,.165-.131.3-.362.363a7.027,7.027,0,0,1-1.552.1h-.825c-1.089,0-1.089.263-1.089,1.815,0,1.981,0,2.211.825,2.211a1.006,1.006,0,0,0,1.023-.594c.693-1.089.792-1.089,1.023-1.089.5,0,2.212,1.618,2.212,2.145,0,.2-.132.3-.4.363a9.532,9.532,0,0,1-1.683.067h-1.915c-.363,0-.792,0-.957.363a23.562,23.562,0,0,0-.2,3.861c0,.364,0,4.357.066,4.588.1.4.264.627.726.627.2,0,2.74-.3,3.2-.3.065,0,.2,0,.2.132,0,.627-8.053,2.607-8.912,3.168-.132.1-.759.792-.957.792-.693,0-1.518-3.5-1.518-3.564,0-.165.066-.231.2-.231.165,0,.231.033.726.231a9.427,9.427,0,0,0,2.211.165c1.387,0,1.981-.034,2.146-.594.1-.264.066-3.5.066-5.281,0-.561,0-3.168-.1-3.5-.132-.462-.693-.462-.957-.462-.595,0-2.377.1-2.938.131-.066,0-.4.034-.462.034-.1,0-.165-.067-.3-.2Zm4.555,7.294c0,1.023-.627,1.947-1.32,1.947-.859,0-.958-.66-1.255-2.277a7.011,7.011,0,0,0-.957-2.905,2.221,2.221,0,0,1-.2-.4.071.071,0,0,1,.066-.066,5.705,5.705,0,0,1,2.211,1.221A2.951,2.951,0,0,1,1542.236,3000.62Zm8.284-2.905c0,.429-.264.495-.924.66-.3.1-3.664,4.555-4.159,4.555-.066,0-.066-.033-.066-.066s.462-1.024.528-1.189c1.024-2.474,1.452-3.63,1.452-4.752,0-.726,0-.958.4-.958a4.87,4.87,0,0,1,1.486.562Q1550.52,2997.171,1550.52,2997.715Zm7.855-18.845a2.051,2.051,0,0,0,1.717-.627c.561-.562.758-.694,1.022-.694s2.41,1.056,2.41,1.651c0,.3-.165.362-.792.66a.95.95,0,0,0-.661.627c-.1.3-.1,5.71-.1,6.534,0,1.32,0,1.485.33,1.485.265,0,.43-.23.561-.4.661-.957.727-1.09.991-1.09a4.72,4.72,0,0,1,2.244,2.145c0,.2-.165.3-.429.364a6.1,6.1,0,0,1-1.65.1h-4.324c-.264,0-.66,0-.66.595,0,.132,1.089,5.38,1.914,5.38.561,0,2.212-1.815,2.476-2.245.3-.494.429-.726.759-.726.2,0,2.211,1.354,2.211,2.014,0,.362-.363.4-.594.4-.759.034-1.089.166-3.994,1.222-.2.066-.495.231-.495.528,0,1.122,2.905,4.951,5.05,6.139a4.242,4.242,0,0,1,.759.5c0,.066-.033.1-.264.132a4.325,4.325,0,0,0-1.98.726c-.165.1-.825.792-1.056.792-1.386,0-4.159-6.369-5.215-12.608-.033-.2-.165-.99-.264-.99-.132,0-.132.033-.132.429v3c0,1.287.033,3.2.1,6.535,0,.429.132,2.639.132,3.135a2.135,2.135,0,0,1-.891,2.013,4.673,4.673,0,0,1-1.915.727c-.4,0-.495-.2-.593-.463a2.941,2.941,0,0,0-1.221-1.848,5.27,5.27,0,0,1-.76-.4.147.147,0,0,1,.132-.1c.033-.033,1.155-.033,1.254-.033.858,0,1.42-.033,1.684-.4a40.416,40.416,0,0,0,.132-4.191c0-.1-.033-.759-.3-.759s-.429.132-1.849,1.486c-2.673,2.507-2.8,2.64-3.135,3.134-.363.529-.363.562-.528.562a5.61,5.61,0,0,1-2.112-2.673c0-.2.2-.231.693-.265a11.564,11.564,0,0,0,2.937-1.023c4.224-2.013,4.224-2.409,4.224-4.125,0-.627-.1-3.8-.1-4.522,0-1.915,0-2.112-1.354-2.112-.923,0-2.607.032-3.465.132-.066,0-.4.065-.495.065s-.165-.1-.264-.23l-.66-.759c-.132-.165-.132-.165-.132-.2,0-.1.066-.1.1-.1.231,0,1.221.133,1.452.133.957.066,2.673.1,4.555.1h2.673c1.122,0,1.122-.067,1.122-2.938,0-1.287,0-1.65-1.122-1.65h-.891c-.792,0-3,0-4.159.066a5.012,5.012,0,0,1-.693.1c-.132,0-.165-.066-.3-.231l-.627-.759c-.165-.165-.165-.165-.165-.2,0-.065.1-.1.132-.1.2,0,1.221.132,1.452.132.958.033,2.641.1,4.522.1h.726c1.089,0,1.089-.33,1.089-1.585,0-1.584,0-1.914-1.056-1.914h-1.287c-.792,0-3,0-4.159.067a4.973,4.973,0,0,1-.693.1c-.132,0-.2-.065-.3-.23l-.627-.76c-.165-.165-.165-.165-.165-.2,0-.066.066-.1.132-.1.2,0,1.221.132,1.452.132.957.033,2.641.1,4.522.1Zm-4.224,16.963a1.467,1.467,0,0,1-1.189,1.519c-.528,0-.759-.3-.99-1.353a23.17,23.17,0,0,0-1.386-3.07,3.182,3.182,0,0,1-.264-.462c0-.1.066-.132.1-.132a10.853,10.853,0,0,1,2.31,1.254A3.07,3.07,0,0,1,1554.151,2995.833Z" fill="#fff"/>
      <path id="パス_1493" data-name="パス 1493" d="M1573.331,2985.4c1.386,0,1.882-.132,6.4-1.419,2.938-.825,10.5-2.971,12.674-2.971,1.188,0,2.673.463,2.673,1.585a1.319,1.319,0,0,1-1.353,1.221c-.429,0-2.31-.363-2.673-.363-4.192,0-8.879,3.862-8.879,12.376,0,5.545,2.08,5.909,4.027,5.909.495,0,2.839-.2,3.136-.2,1.023,0,1.617.429,1.617,1.222,0,1.749-3.631,1.749-3.829,1.749-6.733,0-6.733-5.512-6.733-7.063,0-1.452.033-8.45,4.786-12.706a6.552,6.552,0,0,0,.825-.694c0-.066-.132-.066-.2-.066-1.914,0-8.746,2.9-9.835,3.531a2.51,2.51,0,0,1-1.123.43c-1.65,0-3.234-2.212-2.805-2.674C1572.176,2985.107,1573.134,2985.4,1573.331,2985.4Zm21.091,7.295a1.339,1.339,0,0,1-1.156,1.352c-.594,0-.891-.627-1.419-1.914a8.637,8.637,0,0,0-1.65-2.574,1.79,1.79,0,0,1-.33-.594c0-.165.363-.2.66-.133C1593.332,2989.6,1594.422,2991.642,1594.422,2992.7Zm3.993-1.585c0,.858-.528,1.221-.957,1.221-.792,0-1.156-.957-1.486-1.749a8.537,8.537,0,0,0-2.178-2.64c-.165-.132-.3-.265-.3-.43,0-.2.363-.2.462-.2a3.006,3.006,0,0,1,.825.165C1596.732,2988.111,1598.415,2989.53,1598.415,2991.114Z" fill="#fff"/>
      <path id="パス_1494" data-name="パス 1494" d="M1617.3,2986.856c0,1.09-2.509,2.08-3.3,2.41-.462.165-.495.3-.561,1.452-.066.726-.066,3.4-.066,3.565,0,.2,0,.593.3.593.1,0,2.806-1.122,3.334-1.32a15.512,15.512,0,0,1,5.61-1.32,5.054,5.054,0,0,1,5.083,4.984c0,4.357-4.587,6.337-7.294,6.337-1.881,0-3.4-.957-3.4-2.674a2.941,2.941,0,0,1,1.65-2.607.177.177,0,0,1,.165.165c0,.1-.066.165-.132.265a1.359,1.359,0,0,0-.3.89c0,1.584,1.815,1.584,2.145,1.584,2.179,0,4.951-1.452,4.951-4.092a3.42,3.42,0,0,0-3.168-3.631c-.925,0-2.971.429-6.832,2.476-1.849.99-2.047,1.089-2.047,1.649,0,.364.1,1.849.1,2.179,0,1.519-.495,3.7-1.683,3.7-.891,0-1.254-.692-1.518-1.22-1.057-2.047-1.222-2.047-1.65-2.047a2.768,2.768,0,0,0-.825.2,6.5,6.5,0,0,1-1.255.66c-.363,0-2.046-.99-2.046-2.079,0-.594.363-1.287.957-1.287.2,0,1.155.165,1.353.165.891,0,1.486-.165,3.433-1.122,1.683-.825,1.881-.925,1.881-1.849,0-.758-.033-3.564-.066-4.125,0-.231-.1-.726-.462-.726a7.723,7.723,0,0,0-1.518.3,7.086,7.086,0,0,1-2.343.627c-1.123,0-2.377-2.278-2.377-2.508a.234.234,0,0,1,.264-.232c.1,0,.495.132.594.132a9.488,9.488,0,0,0,1.519.165,14.415,14.415,0,0,0,4.191-.99,24.681,24.681,0,0,0,.33-3.6,3.24,3.24,0,0,0-1.089-2.64,3.319,3.319,0,0,1-.462-.529c0-.3.528-.363.726-.363,2.211,0,3.4,1.617,3.4,2.244a13.256,13.256,0,0,1-.693,1.717,17.666,17.666,0,0,0-.33,2.146c0,.131.066.362.265.362.23,0,1.154-.362,1.154-.824,0-.067-.165-.4-.165-.463,0-.032.067-.1.133-.132C1615.717,2985.372,1617.3,2985.833,1617.3,2986.856Zm-7.525,12.642c0,.495.891,1.55,1.386,1.55.462,0,.924-.924.924-2.541,0-.132,0-.462-.1-.528C1611.889,2997.979,1609.777,2999.036,1609.777,2999.5Zm21.684-10.265c0,.693-.4,1.584-1.089,1.584-.2,0-.958-.066-1.123-.066-.164.033-.858.231-.99.231a.154.154,0,0,1-.165-.165,2.275,2.275,0,0,1,.1-.264,1.736,1.736,0,0,0,.132-.595c0-1.319-1.65-1.782-2.772-1.782a2.878,2.878,0,0,0-1.287.33.729.729,0,0,1-.33.1c-.1,0-.133-.033-.133-.132a4.223,4.223,0,0,1,3.565-2.08C1629.909,2986.394,1631.461,2987.714,1631.461,2989.233Z" fill="#fff"/>
      <path id="パス_1495" data-name="パス 1495" d="M1658.107,2989.86a29.081,29.081,0,0,0,7.987,2.607c.132,0,.694.1.694.232,0,.1-.463.23-.594.263a5.714,5.714,0,0,0-2.509,1.783c-.1.131-.462.825-.627.825-.2,0-7.36-3.466-10.594-8.746-.627-1.057-.726-1.156-.957-1.156s-.3.066-1.024.826a39.212,39.212,0,0,1-9.769,7.689,28.488,28.488,0,0,1-5.182,2.112c-.1,0-.165-.065-.165-.1s3.532-2.211,3.829-2.409c4.455-2.806,9.175-7.856,9.637-10.331.033-.264.066-.363.3-.363.165,0,2.838,1.023,3,1.122.1.033.429.165.429.495a2.081,2.081,0,0,1-.133.462C1652.5,2985.668,1655.335,2988.441,1658.107,2989.86Zm-15.908-8.218c-2.442,0-3.565.065-4.191.1-.1,0-.6.066-.694.066s-.165-.066-.3-.2l-.627-.76c-.132-.165-.132-.165-.132-.23s.033-.067.1-.067c.231,0,1.255.1,1.452.1,1.617.065,3,.132,4.555.132h.957c.693,0,.891-.33.891-.892a5.371,5.371,0,0,0-.264-1.749,4.977,4.977,0,0,1-.2-.66c0-.165.165-.231.363-.231.231,0,1.716.363,2.08.462.99.264,1.188.33,1.188.627,0,.2-.033.264-.5.859a.807.807,0,0,0-.231.593c0,.792.265.991,1.156.991h5.446c.3,0,.99,0,.99-.892a13.715,13.715,0,0,0-.1-1.485c-.033-.164-.2-.858-.2-.99,0-.165.2-.231.363-.231.231,0,2.475.528,2.838.627s.561.231.561.528c0,.2-.132.33-.5.594a1.059,1.059,0,0,0-.429.925c0,.924.528.924,1.056.924h1.684c1.452,0,1.617,0,2.112-.562.924-1.089,1.023-1.221,1.32-1.221.2,0,3.07,1.749,3.07,2.178,0,.463-.661.463-1.75.463h-6.436c-1.023,0-1.023.527-1.023,1.319,0,.2.033,1.321.033,1.486,0,1.221-.99,1.42-1.683,1.42-.759,0-.891-.133-.891-1.255v-2.278c-.1-.627-.495-.692-1.023-.692h-5.281c-.759,0-1.221,0-1.221.924,0,.33.1,1.782.1,2.079,0,.627-.1.924-.4,1.122a2.342,2.342,0,0,1-1.255.462c-.561,0-.825-.362-.825-1.022,0-.265.033-1.519.033-1.75,0-1.288,0-1.815-1.023-1.815Zm2.343,16.865a16.9,16.9,0,0,1,2.542,1.551.817.817,0,0,1,.264.495c0,.4-.264.462-1.056.66-.1.034-2.938,2.244-3.466,2.641a20.272,20.272,0,0,1-5.017,2.871.1.1,0,0,1-.1-.1c0-.066,1.75-1.584,1.981-1.815,2.739-2.607,4.422-5.215,4.719-6.27A.2.2,0,0,1,1644.542,2998.507Zm1.519-1.749c-2.575,0-3.532.033-4.192.1-.1,0-.594.066-.693.066s-.165-.066-.3-.2l-.627-.76c-.132-.165-.132-.165-.132-.23,0-.033.033-.067.1-.067.231,0,1.254.1,1.452.1,1.617.1,3,.132,4.555.132h2.475c.33,0,.99,0,.99-.892,0-.4-.2-3.069-.264-3.4,0-.066-.2-.4-.2-.462s.066-.2.33-.2c.231,0,2.541.5,2.871.594.463.1.627.4.627.561,0,.2-.066.265-.561.693-.462.4-.462.594-.462,1.584,0,1.189,0,1.519.991,1.519h1.452c1.452,0,1.617,0,2.112-.562.924-1.089,1.023-1.22,1.32-1.22.2,0,3.07,1.782,3.07,2.177,0,.463-.66.463-1.749.463h-6.239c-.989,0-.989.594-.989,1.65,0,2.343,0,3.664.066,5.611.032.561.032,1.354.032,1.749,0,1.057-.263,1.684-1.683,1.684-.726,0-.792-.595-.792-1.156,0-.428.1-2.409.1-2.839.033-1.253.033-2.474.033-3.993a20.021,20.021,0,0,0-.066-2.244c-.165-.462-.693-.462-.957-.462Zm8.812,2.772c0-.1.165-.132.3-.132,1.221,0,8.746,2.08,8.746,4.819,0,1.056-.594,1.881-1.419,1.881-.627,0-.759-.165-1.782-1.683a15.678,15.678,0,0,0-5.677-4.752C1655.005,2999.663,1654.873,2999.563,1654.873,2999.53Z" fill="#fff"/>
      <path id="パス_1496" data-name="パス 1496" d="M1685.856,2985.734c-.231,0-7.162,1.617-7.327,1.683a14.065,14.065,0,0,1-1.485.627,6.886,6.886,0,0,1-2.244-1.188,6.729,6.729,0,0,1-.792-1.914c0-.165.033-.264.2-.264.032,0,.759.2.858.231a5.843,5.843,0,0,0,1.749.33c1.122,0,7.327-.528,9.043-1.221a12.658,12.658,0,0,1,1.816-1.023c.792,0,2.805,1.683,2.805,2.508,0,.3-1.221,1.189-1.419,1.419-.66.792-3.268,4.654-3.8,5.413a1.086,1.086,0,0,0-.264.661c0,.3.066.362,1.452,1.122,1.486.858,7.393,4.191,7.393,7.2a1.425,1.425,0,0,1-1.353,1.452c-.759,0-.891-.231-2.046-2.277-2.277-3.994-5.182-6.5-5.908-6.5-.33,0-.429.1-1.155.924a33.164,33.164,0,0,1-8.812,7.062,8.09,8.09,0,0,1-2.047.76c-.066,0-.231,0-.231-.2a10.253,10.253,0,0,1,1.518-1.221c8.615-6.238,12.542-14.786,12.443-15.314A.37.37,0,0,0,1685.856,2985.734Z" fill="#fff"/>
      <path id="パス_1497" data-name="パス 1497" d="M1702.552,3004.249c6.767-3.828,11.288-9.208,11.288-10.231s-3.928-3.531-4.752-3.531c-.76,0-4.753,4.324-5.842,4.324a.154.154,0,0,1-.165-.165,10.762,10.762,0,0,1,1.188-1.42c3.927-4.257,6.634-8.911,6.634-10.792,0-.265-.528-1.32-.528-1.552,0-.2.428-.2.627-.2,1.749,0,2.97,1.288,2.97,1.947,0,.2-.363,1.09-.363,1.288,0,.5.693.561,1.122.561a20.217,20.217,0,0,0,4.951-.792,7.933,7.933,0,0,1,1.221-.727c.33,0,2.707,1.486,2.707,2.542,0,.5-.231.594-.826.859-.5.23-.627.4-1.617,1.947-.462.726-2.706,3.861-3.1,4.522-.3.461-.363.56-.363.825,0,.3.033.362.627,1.122a4.6,4.6,0,0,1,1.386,2.9,1.42,1.42,0,0,1-1.419,1.584c-.693,0-.826-.23-2.079-2.343-.066-.132-.43-.759-.76-.759-.3,0-.495.231-1.155.924a28.5,28.5,0,0,1-12.179,7.954c-.066,0-.363,0-.3-.3C1701.86,3004.613,1701.925,3004.613,1702.552,3004.249Zm16.8-18.284c0-.363-.33-.462-.561-.462-.495,0-3.4.429-3.994.429a3,3,0,0,1-.99-.132,2.238,2.238,0,0,0-.792-.132.519.519,0,0,0-.4.132,27.015,27.015,0,0,0-2.805,3.7c0,.461.3.561,1.122.891a36.819,36.819,0,0,1,3.63,1.683,1.862,1.862,0,0,0,.759.231C1716.051,2992.17,1719.352,2987.087,1719.352,2985.965Z" fill="#fff"/>
      <path id="パス_1498" data-name="パス 1498" d="M1743.312,2988.969c1.288.792,1.42.924,1.42,1.221,0,.2-.364,1.122-.4,1.32-.132.594-.2,1.287-.2,5.842,0,.891.034,2.673.1,3.961.033.4.23,2.31.23,2.739,0,.33,0,1.452-.792,1.452-.924,0-2.046-1.42-2.046-2.31,0-.33.33-1.782.363-2.112.2-1.783.33-4.324.33-6.074,0-1.187,0-4.653-.858-4.653-.165,0-.3.132-.561.4-3.234,3.1-8.779,6.3-9.373,6.3-.1,0-.165-.066-.165-.2a.3.3,0,0,1,.1-.232c.858-.758,1.782-1.517,2.31-1.979,7.789-6.667,10.363-12.278,10.363-13.2a1.866,1.866,0,0,0-.263-.924,3.714,3.714,0,0,1-.232-.528.327.327,0,0,1,.33-.265c.495,0,3.829,1.387,3.829,2.641a.833.833,0,0,1-.3.66,9.436,9.436,0,0,0-2.245,2.706c-.561.793-1.617,1.98-2.244,2.772A.534.534,0,0,0,1743.312,2988.969Z" fill="#fff"/>
      <path id="パス_1499" data-name="パス 1499" d="M1763.732,2994.018c-1.981,4.291-5.446,6.272-6.106,6.272a.155.155,0,0,1-.165-.166,9.38,9.38,0,0,1,1.32-1.749c3.63-4.984,3.994-8.582,3.994-9.67a7.254,7.254,0,0,0-.561-2.838,2.424,2.424,0,0,1-.133-.595c0-.1.033-.165.165-.165.231,0,3.73,1.122,3.73,2.806C1765.976,2988.011,1764.293,2992.764,1763.732,2994.018Zm5.346,3.07c0-.165.165-1.023.2-1.188.1-.627.131-3.234.131-4.06a20.245,20.245,0,0,0-.627-6.205,8.7,8.7,0,0,1-.429-1.188c0-.132.132-.165.2-.165.166,0,3.631.594,3.631,2.31,0,.4-.462,2.113-.528,2.476-.132.89-.264,4.885-.264,5.973,0,.429.033,1.089.627,1.089.99,0,4.026-2.177,7.2-5.379.561-.561,3.366-3.532,3.5-3.532a.143.143,0,0,1,.133.132c0,.265-1.915,4.357-7.691,9.44a18.31,18.31,0,0,0-2.277,2.112c-.561.627-.858.858-1.089.891C1770.828,2999.959,1769.078,2998.012,1769.078,2997.088Z" fill="#fff"/>
      <path id="パス_1500" data-name="パス 1500" d="M1796.861,2983.358c1.551,0,1.716,0,2.112-.562.528-.758.561-.824.825-.824a4.576,4.576,0,0,1,2.409,1.881c0,.363-.2.363-1.782.363h-5.875c-2.871,0-3.828.066-4.158.1-.1,0-.594.066-.694.066-.131,0-.2-.066-.3-.2l-.627-.759c-.133-.165-.165-.165-.165-.231,0-.033.065-.067.131-.067.231,0,1.255.1,1.453.1,1.617.065,2.97.132,4.522.132Zm-1.156,4.026c.726,0,.925,0,1.354-.66.2-.33.495-.825.759-.825.33,0,1.98,1.518,1.98,1.947,0,.4-.429.4-1.089.4h-4.984c-.66,0-1.353,0-2.145.066-.132,0-.693.065-.825.065s-.2-.1-.264-.2l-.561-.725c-.1-.132-.1-.165-.1-.232,0-.033.032-.065.1-.065.132,0,.759.1.891.1.66.067,2.178.132,2.8.132Zm-.2,3.994c.692,0,.792,0,1.122-.429.561-.792.726-1.056.924-1.056.462,0,1.683,1.551,1.683,1.981,0,.4-.4.4-1.089.4h-4.357c-.528,0-1.419,0-2.145.033a7.986,7.986,0,0,1-.825.1c-.1,0-.165-.066-.231-.2l-.561-.76c-.1-.132-.1-.165-.1-.2s0-.1.066-.1c.033,0,.759.132.924.132.891.066,1.815.1,2.8.1Zm-1.75,11.519c-.3,0-1.056,0-1.056.792,0,.165.066,1.023.066,1.221,0,.5,0,1.75-1.584,1.75-.891,0-.891-.529-.891-.76,0-.165.033-.858.066-1.023.066-1.75.132-3.862.132-5.479,0-.825-.033-1.816-.1-2.9,0-.1-.066-.891-.066-.957,0-.132.033-.462.264-.462a6.6,6.6,0,0,1,1.98.725,2.407,2.407,0,0,0,1.155.232h1.948a1.474,1.474,0,0,0,1.452-.694c.3-.428.429-.495.594-.495.4,0,1.848.957,1.848,1.387a1.253,1.253,0,0,1-.264.594c-.363.4-.363.528-.363,1.683,0,.594.231,3.433.231,4.093a1.579,1.579,0,0,1-1.749,1.683c-.4,0-.4,0-.627-.891-.132-.5-.661-.5-1.023-.5Zm1.551-23.862c.793,0,.925,0,1.287-.562.133-.2.43-.66.76-.66a3.857,3.857,0,0,1,2.013,1.717c0,.4-.462.4-1.089.4h-4.027c-.66,0-1.32,0-2.145.033-.132,0-.693.1-.825.1-.1,0-.2-.132-.264-.2l-.528-.76a.282.282,0,0,1-.1-.165c0-.1.066-.132.165-.132a8.3,8.3,0,0,1,.891.132c1.617.1,2.079.1,2.739.1Zm-1.716,17.888c-1.056,0-1.056.33-1.056,1.848,0,3.1,0,3.234,1.089,3.234h2.146c1.056,0,1.056-.263,1.056-2.871,0-1.98,0-2.211-1.056-2.211Zm4.72,10.067c9.208-2.641,14.588-7.492,15.974-9.275.2-.264.924-1.617,1.222-1.617.131,0,3,1.683,3,2.211,0,.264-.132.33-1.189.727a24.057,24.057,0,0,0-3.069,2.012,38.671,38.671,0,0,1-11.188,5.447,30.864,30.864,0,0,1-4.753.725.361.361,0,0,1-.2-.065C1798.115,3007.122,1798.148,3007.022,1798.313,3006.99Zm11.287-27.263c0,.265.1.528.595,1.354a20.11,20.11,0,0,0,8.02,7.92,17.15,17.15,0,0,1,1.683.957c0,.067-.3.1-.4.1a5.668,5.668,0,0,0-1.65.264,10.36,10.36,0,0,1-1.585.825c-.363,0-2.079-1.815-2.442-2.211a19.358,19.358,0,0,1-4.522-7.1c-.3-.857-.3-.957-.561-.957a.363.363,0,0,0-.3.232c-.727,1.089-1.783,2.871-2.476,3.96-3.928,6.073-6.733,7.723-6.733,7.393a.4.4,0,0,1,.132-.3c2.706-3.069,6.667-10.363,7.03-13.763.132-1.188.132-1.221.4-1.221.231,0,.429.066,1.651.693,1.319.661,1.452.759,1.484.991C1809.964,2979,1809.6,2979.562,1809.6,2979.727Zm-7.063,15.281c3.8-3.96,4.984-6.534,5.05-7.327.1-.857.1-.957.33-.957.133,0,1.848.892,2.178,1.057.859.462.958.495.958.759s-.165.33-.759.66c-.231.132-3.5,3.531-4.192,4.158a20.939,20.939,0,0,1-4.093,3.169,8.456,8.456,0,0,1-1.485.693c-.033,0-.1,0-.1-.066C1800.392,2997.121,1802.274,2995.3,1802.537,2995.008Zm2.773,3.9c2.838-2.376,5.38-4.687,5.907-6.667.166-.561.166-.594.4-.594.264,0,2.772,1.419,2.772,1.881,0,.265-.264.43-.924.793-.594.33-2.871,2.309-3.333,2.673-4.39,3.4-7,4.191-8.02,4.489-.165.032-.265,0-.265-.033C1801.779,3001.345,1804.782,2999.332,1805.31,2998.9Z" fill="#fff"/>
      <path id="パス_1501" data-name="パス 1501" d="M1844.921,2989.7c-.792,0-1.122.132-1.189,1.023-.429,6.106-.594,8.086-1.815,11.519-.858,2.376-2.706,4.653-3.135,4.653-.133,0-.165-.065-.165-.1,0-.131.429-.759.429-.923,0-.265-.132-.265-1.221-.265h-8.681c-.825,0-.858.1-1.155.858a1.672,1.672,0,0,1-1.65,1.089c-.3,0-.462-.165-.462-.66,0-2.475.165-14.72.165-17.492,0-2.311-.033-8.284-.3-10.166a11.145,11.145,0,0,1-.3-1.122c0-.132.132-.132.264-.132.99,0,3,.892,3,1.452,0,.132-.4.627-.463.76a27.338,27.338,0,0,0-.132,3.432c0,2.377.066,14.159.066,16.833,0,.065,0,.3.132.3.495,0,4.093-8.812,4.093-10.693a.477.477,0,0,0-.495-.528c-.33,0-2.146.165-2.443.165-.132,0-.165-.067-.3-.232l-.627-.758c-.165-.165-.165-.165-.165-.2,0-.065.1-.1.132-.1.561,0,3.268.231,3.9.231.66,0,.858-.33.89-.793,0-.23.034-2.838.034-3.266a52.8,52.8,0,0,0-.231-6.008c-.033-.231-.463-1.188-.463-1.254s.067-.066.133-.066c.032,0,1.881.33,2.343.462.495.132,1.287.33,1.287.726,0,.165-.792.693-.924.858-.1.1-.1.165-.1.627,0,1.089-.166,6.469-.166,7.724,0,.66.166.99.924.99a1.341,1.341,0,0,0,1.089-.33c.165-.133.825-1.023,1.057-1.023.362,0,1.914,1.683,1.914,1.782,0,.462-.627.462-1.749.462h-2.146c-.66,0-1.023.2-1.023,1.188,0,.66.231.858.892,1.386,2.145,1.65,2.969,2.277,2.969,3.433a1.558,1.558,0,0,1-1.319,1.485c-.528,0-.595-.165-.99-1.749-.265-.99-.826-2.344-1.255-2.344-.231,0-.231.429-.231.528,0,.4.165,7.526.165,8.78,0,1.287-1.386,1.517-1.815,1.517-.495,0-.562-.362-.562-.758,0-1.156.1-6.766.1-8.053,0-.067,0-.363-.165-.363-.066,0-.132.033-.231.263a19.826,19.826,0,0,1-4.06,6.4c-.594.693-.594.758-.594,2.376,0,.626.066,1.122,1.056,1.122H1834c1.387,0,1.815,0,2.112-.561.562-.957.627-1.089.924-1.089.43,0,1.947,1.65,2.41,1.65.2,0,.3-.132.4-.363,1.485-3.334,1.848-7.525,1.848-12.343,0-.892-.066-8.615-.132-9.408-.066-.824-.3-2.606-.3-2.739,0-.1.033-.132.165-.132.363,0,1.947.66,2.31.66,1.024,0,4.588-1.584,6.238-2.475.2-.1.957-.726,1.188-.726,0,0,2.839,1.486,2.839,2.079,0,.232-.067.232-1.221.4-1.057.165-6.37.924-7.592,1.055-1.022.1-1.155.132-1.287.5-.065.231-.132,4.786-.132,5.446,0,1.782,0,2.144,1.156,2.144h4.818a4.085,4.085,0,0,0,1.617-.131c.3-.132,1.155-1.749,1.519-1.749.4,0,1.584,2.045,1.584,2.31,0,.2-.2.3-.33.362a6.609,6.609,0,0,1-1.651.067h-1.914c-.528,0-.99,0-1.122.726-.066.3-.066,8.515-.066,9.307,0,1.849.165,3.928.231,4.753a8.118,8.118,0,0,1,.067.924,1.712,1.712,0,0,1-1.816,2.013c-.561,0-.825-.165-.825-.957,0-.1.1-1.254.1-1.386.033-.528.165-6.4.165-7.162,0-1.023-.034-6.139-.034-7.2,0-.891-.395-1.023-1.154-1.023Zm-13.1-4.555a1.344,1.344,0,0,1-1.353,1.519c-.661,0-.694-.232-1.024-2.244a15,15,0,0,0-.462-2.146c-.033-.132-.231-.595-.231-.693s.066-.067.133-.034C1829.871,2982.1,1831.818,2983.787,1831.818,2985.14Zm6.106-3.729c.33,0,2.21,1.287,2.21,1.782,0,.2,0,.231-.725.528a15.371,15.371,0,0,0-2.047,2.343,9.087,9.087,0,0,1-1.386,1.188c-.033,0,1.254-3.2,1.386-3.828.066-.3.2-1.518.265-1.75C1837.692,2981.509,1837.759,2981.411,1837.924,2981.411Z" fill="#fff"/>
      <path id="パス_1502" data-name="パス 1502" d="M1860.63,2994.778c0-.99.923-2.047,3.168-4.654a15.2,15.2,0,0,0,2.805-4.917c0-.2-.231-.232-.363-.232-.33,0-1.683.264-1.981.264a3.5,3.5,0,0,1-2.936-2.905c0-.1,0-.23.2-.23a7.357,7.357,0,0,1,1.255.627,5.245,5.245,0,0,0,2.178.594c2.707,0,2.707-.891,2.707-1.551a2.634,2.634,0,0,0-.265-1.155c-.1-.165-.792-.759-.792-.957,0-.265.859-.529,1.452-.529.792,0,1.618.3,1.684,1.024.033.428.165.5,1.485.593.231,0,1.485.166,1.485.859,0,1.089-2.409,2.013-3.927,2.607-.495.2-.528.264-1.255,1.948a25.6,25.6,0,0,1-1.782,3.564c-.165.3-.231.4-.231.528a.121.121,0,0,0,.132.132,6.626,6.626,0,0,0,1.024-.363,3.084,3.084,0,0,1,1.287-.264,2.975,2.975,0,0,1,2.8,2.013c.232.561.265.627.331.627a15.471,15.471,0,0,0,1.353-1.782c1.089-1.518,3.234-4.522,6.105-4.522a3.114,3.114,0,0,1,3.1,2.938c0,1.551-2.607,2.64-4.653,3.531-.825.363-4.555,1.849-5.149,2.212-.528.33-.561.692-.561,1.386,0,.3.066,1.683.066,1.98,0,.528,0,2.409-1.222,2.409-.89,0-1.022-1.089-1.022-1.682,0-.33.1-1.915.1-1.948,0-.132,0-.4-.232-.4-.263,0-3.2,2.046-3.2,3.928,0,2.277,3.3,2.277,4.258,2.277a10.207,10.207,0,0,0,2.112-.2c.462-.067,2.574-.594,3-.594.693,0,1.617.33,1.617,1.122,0,2.046-5.115,2.178-5.907,2.178-4.191,0-6.4-1.716-6.4-4.324,0-2.112,1.255-3.168,4.356-5.676a1.406,1.406,0,0,0,.495-1.156c0-1.485-.263-3.333-1.584-3.333-1.254,0-3.2,1.518-4.059,3.5-.364.826-.726,1.618-1.782,1.618C1861.257,2995.867,1860.63,2995.668,1860.63,2994.778Zm8.416-12.476c.066,0,1.65-.429,1.65-.793,0-.428-.825-.5-1.122-.5-.462,0-.595.925-.595,1.057S1868.979,2982.3,1869.046,2982.3Zm3,10.694c0,.065.032.165.131.165s6.6-2.641,6.6-4.82a1.015,1.015,0,0,0-1.155-.99C1874.887,2987.351,1872.05,2992.467,1872.05,2993Z" fill="#fff"/>
      <path id="パス_1503" data-name="パス 1503" d="M1897.692,2986.064a1.39,1.39,0,0,0,1.024-.33c.131-.1.693-.792.89-.792.232,0,2.245,1.188,2.245,1.552,0,.165-.133.33-.495.593-.462.33-.495.5-.792,1.914-1.255,5.744-1.288,5.875-2.047,7.856a9.205,9.205,0,0,0-.462,1.353.861.861,0,0,0,.33.759c2.278,2.113,2.278,3.168,2.278,3.663,0,1.255-.627,1.849-1.189,1.849-.462,0-.593-.3-1.815-2.739-.5-.957-.66-.991-.891-.991a.566.566,0,0,0-.528.3,15.646,15.646,0,0,1-7.756,5.875c-.033,0-.1,0-.1-.066s.067-.132.661-.594c4.422-3.4,6.37-6.832,6.37-7.492,0-.759-2.079-2.376-2.244-2.376-.264,0-.3.2-.33.3-.132.66-.4,1.815-1.783,1.815-.363,0-1.023-.2-1.023-.66,0-.066.693-2.607.76-2.9.23-.792,1.419-6.8,1.419-7.162a.791.791,0,0,0-.892-.792c-.23,0-1.518.1-1.683.1-.131,0-.2-.066-.3-.2l-.66-.759c-.132-.165-.132-.165-.132-.231s.066-.066.132-.066c.363,0,2.541.166,3,.166a.844.844,0,0,0,.957-.694,54.545,54.545,0,0,0,.825-6.8c0-.165-.1-.957-.1-.99,0-.165.033-.264.23-.264a12.715,12.715,0,0,1,1.75.792c1.485.726,1.65.826,1.65,1.122a.475.475,0,0,1-.231.429c-.132.1-.759.4-.858.5a38.387,38.387,0,0,0-1.024,5.149c0,.594.463.825.991.825Zm-2.277.858c-.792,0-.924.4-1.023,1.024-.066.627-1.288,7.03-1.288,7.327,0,.4.33.527.529.627.4.165,2.211,1.188,2.31,1.188.528,0,.66-.429.891-1.123a52.23,52.23,0,0,0,1.65-8.217c0-.826-.725-.826-1.056-.826Zm18.912.627c.23-.033.462-.132.462-.428a10.775,10.775,0,0,0-1.287-2.113c-.2-.231-1.486-1.815-1.486-1.815,0-.1.132-.132.2-.132.66,0,6.1,3.466,6.1,6.7a1.475,1.475,0,0,1-1.287,1.617c-.561,0-.594-.231-.99-1.42-.495-1.584-.594-1.749-1.122-1.749-.165,0-6.04,1.354-7.2,1.584-3.036.562-3.1.661-3.564,1.156-.527.594-.726.693-.957.693-.693,0-1.551-3.729-1.551-3.861a.106.106,0,0,1,.1-.1,8.675,8.675,0,0,1,.99.3c.66.065,1.815.1,2.014.1.33,0,.825,0,1.022-.529a49.282,49.282,0,0,0,2.377-9.241c.1-1.155.1-1.287.4-1.287a7.813,7.813,0,0,1,2.146.693c.825.3,1.089.4,1.089.792a.546.546,0,0,1-.164.364c-.1.1-.628.527-.727.627-.132.131-1.848,3.464-2.211,4.125-.33.594-2.277,3.927-2.277,4.027a.44.44,0,0,0,.462.4C1908.683,2988.044,1911.158,2987.814,1914.327,2987.549Zm-7.691,17.13c-.957,0-.957.561-.957,1.056,0,1.188-1.254,1.287-1.782,1.287-.263,0-.594,0-.594-.924,0-.99.132-5.743.132-6.832,0-1.881-.066-3.763-.1-4.455,0-.165-.066-.958-.066-1.023,0-.232.033-.4.3-.4s.4.066,1.65.627a3.719,3.719,0,0,0,1.486.3h6.3a1.147,1.147,0,0,0,1.023-.495c.165-.364.33-.727.594-.727.033,0,2.8,1.321,2.8,1.981,0,.2-.066.263-.495.627s-.462.792-.462,1.782.165,5.941.165,7.063,0,2.343-1.75,2.343c-.923,0-.923-.264-.923-1.221,0-.792-.3-.99-.891-.99Zm-.065-9.506a.808.808,0,0,0-.925.925v6.8a.811.811,0,0,0,.925.924h6.667c.957,0,.957-.66.957-.99,0-.5-.033-6.733-.033-6.832-.033-.694-.495-.826-.924-.826Z" fill="#fff"/>
      <path id="パス_1504" data-name="パス 1504" d="M1936.051,3004.613c-.56,0-.626,0-.626-.165,0-.1.1-.165.957-.429,4.356-1.419,10.4-4.291,10.4-10.265,0-5.148-4.917-6.733-6.4-6.733-.495,0-.562.2-1.42,2.212a27.987,27.987,0,0,1-2.508,4.72.86.86,0,0,0-.165.462.645.645,0,0,0,.495.626c1.122.594,1.485.859,1.485,1.651,0,.858-.693,1.056-1.221,1.056a3.278,3.278,0,0,1-1.848-.561c-.463-.231-.495-.264-.693-.264-.33,0-.4.066-.991.693-2.673,2.8-4.851,3.631-5.775,3.631-2.145,0-2.509-3.367-2.509-4.687a10.9,10.9,0,0,1,3.466-7.459,1.06,1.06,0,0,0,.362-.858c0-.3-1.319-4.258-1.484-4.72-.1-.264-.693-1.452-.693-1.551,0-.033,0-.1.065-.1a3.492,3.492,0,0,1,2.674,1.782,14.143,14.143,0,0,0,.858,3.267.679.679,0,0,0,.594.364,9.5,9.5,0,0,0,1.584-.694,16.011,16.011,0,0,1,5.149-1.188.852.852,0,0,0,.826-.429,7.5,7.5,0,0,0,.462-2.442,6.5,6.5,0,0,0-.694-2.74.546.546,0,0,1-.066-.165c0-.1.264-.1.33-.1,1.485,0,3.267,1.22,3.267,2.012a30.968,30.968,0,0,0-1.155,3.4c0,.528.363.6.627.627,4.621.793,7.889,4.093,7.889,8.449C1949.287,3001.082,1941.926,3004.613,1936.051,3004.613Zm-3.7-9.67a13.494,13.494,0,0,1-2.244-3.8c-.165-.462-.3-.792-.594-.792-.429,0-2.674,2.277-2.674,5.61,0,1.783.661,2.971,1.419,2.971,1.222,0,4.325-2.706,4.325-3.4A.749.749,0,0,0,1932.355,2994.943Zm5.017-8.087a10.79,10.79,0,0,0-5.017,1.222c-.56.33-.89.561-.89,1.023,0,.561,1.88,4.191,2.772,4.191.329,0,.462-.066,1.154-1.188a20.914,20.914,0,0,0,2.443-4.852C1937.834,2986.856,1937.5,2986.856,1937.372,2986.856Z" fill="#fff"/>
      <path id="パス_1505" data-name="パス 1505" d="M1974.871,2997.187c0-2.706-2.278-5.017-5.578-5.017-4.357,0-7.162,4.522-7.756,5.545-.66,1.122-.99,1.749-1.882,1.749a.91.91,0,0,1-.957-.923c0-.826.265-1.552,2.607-4.292,2.146-2.508,2.476-2.937,7.459-9.934,1.09-1.551,1.552-2.244,1.552-2.608,0-.23-.231-.461-.627-.461-1.222,0-3.169,1.65-3.729,2.112-1.321,1.089-1.783,1.188-2.344,1.188-1.551,0-2.574-2.112-2.574-2.277,0-.1.1-.1.792-.1a16.042,16.042,0,0,0,5.116-1.187c2.046-.892,2.277-.99,3-.99,1.32,0,3.466.825,3.466,2.277,0,.957-.76,1.485-2.344,2.574-2.376,1.684-5.28,6.205-5.28,6.766,0,.1.1.231.2.231.2-.066.628-.231.825-.3a7.99,7.99,0,0,1,2.9-.528,7.125,7.125,0,0,1,7.427,6.865c0,4.192-4.059,7.129-8.251,7.129-3.267,0-5.611-1.749-5.611-3.4a3.177,3.177,0,0,1,3.267-2.674,4.874,4.874,0,0,1,3.763,2.112c.462.595.66.892,1.122.892C1972.56,3001.94,1974.871,2999.926,1974.871,2997.187Zm-8.483,2.971a1.348,1.348,0,0,0-1.385,1.155c0,.857,1.419,1.551,2.838,1.551a.547.547,0,0,0,.561-.594A2.246,2.246,0,0,0,1966.388,3000.158Z" fill="#fff"/>
    </g>
  </g>
</svg>
