<svg xmlns="http://www.w3.org/2000/svg" width="51.101" height="51.101" viewBox="0 0 51.101 51.101">
  <g id="ochart_q_3" transform="translate(0.5 0.5)">
    <circle id="楕円形_3" data-name="楕円形 3" cx="25.05" cy="25.05" r="25.05" fill="none" stroke="#999" stroke-miterlimit="10" stroke-width="1"/>
    <g id="グループ_9" data-name="グループ 9" transform="translate(-378.726 -116.76)">
      <g id="グループ_8" data-name="グループ 8">
        <path id="パス_19" data-name="パス 19" d="M402.418,148.552l-.792.974-1.715-1.419a7.2,7.2,0,0,1-3.15.825,6.311,6.311,0,0,1-3.695-1.237,6.612,6.612,0,0,1-2.111-5.064,6.731,6.731,0,0,1,2.111-5.064,6.137,6.137,0,0,1,7.39,0,7.191,7.191,0,0,1,.412,9.732ZM397.47,146.1l.758-.924,1.5,1.2a5.6,5.6,0,0,0,1.27-3.744,5.455,5.455,0,0,0-1.319-3.761,4.267,4.267,0,0,0-5.839,0,6.018,6.018,0,0,0,0,7.522,4.059,4.059,0,0,0,2.92,1.154,4.439,4.439,0,0,0,1.929-.445Z" fill="#333"/>
        <path id="パス_20" data-name="パス 20" d="M408.3,145.154a2.211,2.211,0,0,0,2.112,2.458c2.111.083,2.952-1.121,2.837-2.474-.132-1.732-1.336-2.062-3.217-1.93v-1.254c1.8-.032,2.87-.2,2.837-1.962-.115-1.666-1.27-1.831-2.293-1.831a2.123,2.123,0,0,0-2.012,2.491l-1.385-.017c.032-2.375,1.22-3.777,3.562-3.777,1.98,0,3.646.989,3.646,3.332a2.68,2.68,0,0,1-1.4,2.325,2.678,2.678,0,0,1,1.749,2.8,3.283,3.283,0,0,1-2.309,3.3,6.23,6.23,0,0,1-1.584.314,5.741,5.741,0,0,1-1.055-.066c-2.161-.429-2.771-2.062-2.87-3.712Z" fill="#333"/>
      </g>
    </g>
  </g>
</svg>
