<svg id="ochart_stit_sbscription" xmlns="http://www.w3.org/2000/svg" width="408" height="104" viewBox="0 0 408 104">
  <rect id="長方形_28" data-name="長方形 28" width="408" height="104" fill="#ff0202" opacity="0.003"/>
  <g id="グループ_503" data-name="グループ 503" transform="translate(-389 -414)">
    <g id="グループ_29" data-name="グループ 29" transform="translate(-365.028 -1720.867)">
      <g id="グループ_28" data-name="グループ 28">
        <path id="パス_35" data-name="パス 35" d="M890.2,2199.679c-.1-.252-.7-1.835-.7-1.919a.3.3,0,0,1,.308-.294c.154,0,.182.07.518.588a4.138,4.138,0,0,0,3.292,1.919,2.018,2.018,0,0,0,2.073-2.115c0-1.274-.841-1.723-2.619-2.339-1.947-.673-3.236-1.415-3.236-3.082a2.639,2.639,0,0,1,2.8-2.717,5.524,5.524,0,0,1,.994.112c.154.028.742.154.841.154a.533.533,0,0,0,.308-.084c.2-.154.224-.182.322-.182.168,0,.21.126.35.49.1.224.756,1.877.756,1.961a.219.219,0,0,1-.237.224c-.113,0-.141-.042-.365-.406a3.246,3.246,0,0,0-2.857-1.807,1.791,1.791,0,0,0-1.9,1.849c0,1.162.84,1.583,2.675,2.227,2.829.981,3.207,2.1,3.207,3.18a2.969,2.969,0,0,1-3.039,3.025,4.507,4.507,0,0,1-1.513-.28,1.822,1.822,0,0,0-.56-.14.723.723,0,0,0-.532.182c-.238.211-.267.238-.406.238C890.5,2200.463,890.47,2200.379,890.2,2199.679Z" fill="#333"/>
        <path id="パス_36" data-name="パス 36" d="M909.532,2189.986c.182,0,.392,0,.392.238s-.2.224-.434.224c-.994,0-1.064.8-1.078,1.233-.015.7,0,4.174,0,4.958a3.847,3.847,0,0,1-.9,2.942,3.268,3.268,0,0,1-2.368.882c-.6,0-3.473-.2-3.557-3.095-.014-.784.014-4.595.014-5.449,0-1.079-.07-1.471-1.3-1.471-.084,0-.308,0-.308-.224s.21-.238.42-.238h3.432c.168,0,.379,0,.379.238s-.183.224-.449.224a.937.937,0,0,0-1.023.63c-.069.211-.069,2.872-.069,3.362,0,3.082,0,3.32.238,3.978a2.454,2.454,0,0,0,2.395,1.513,2.487,2.487,0,0,0,2.185-1.093c.476-.7.476-1.288.476-4.538,0-3.095-.028-3.166-.2-3.432a1.073,1.073,0,0,0-.994-.42c-.154,0-.28-.07-.28-.224,0-.238.21-.238.336-.238Z" fill="#333"/>
        <path id="パス_37" data-name="パス 37" d="M918.509,2189.986c1.569,0,3.557.518,3.557,2.255a2.521,2.521,0,0,1-1.694,2.269c-.084.028-.336.126-.336.2s.588.2.7.238a2.772,2.772,0,0,1,1.919,2.438c0,1.33-1.191,2.815-3.81,2.815h-4.693c-.21,0-.42,0-.42-.224s.21-.224.434-.224c.463,0,1.079,0,1.2-.728.056-.281.084-4.23.084-4.777a24.029,24.029,0,0,0-.126-3.278c-.182-.518-.84-.518-.98-.518-.463,0-.617,0-.617-.238s.14-.224.546-.224Zm-1.639,5.029a.37.37,0,0,0-.322.182c-.056.126-.056,2.115-.056,2.437,0,1.527,0,2.115,1.022,2.115h1.219a2.312,2.312,0,0,0,2.591-2.325,2.359,2.359,0,0,0-2.549-2.409Zm1.513-.449a2.115,2.115,0,0,0,2.381-2.129c0-1.359-.939-1.989-2.255-1.989h-.995c-1.008,0-1.008.63-1.008,1.849,0,.7,0,1.961.042,2.087a.389.389,0,0,0,.322.182Z" fill="#333"/>
        <path id="パス_38" data-name="パス 38" d="M927.269,2199.679c-.1-.252-.7-1.835-.7-1.919a.3.3,0,0,1,.308-.294c.154,0,.183.07.518.588a4.138,4.138,0,0,0,3.292,1.919,2.019,2.019,0,0,0,2.074-2.115c0-1.274-.841-1.723-2.62-2.339-1.947-.673-3.236-1.415-3.236-3.082a2.639,2.639,0,0,1,2.8-2.717,5.524,5.524,0,0,1,.994.112c.154.028.742.154.841.154a.533.533,0,0,0,.308-.084c.2-.154.224-.182.322-.182.168,0,.21.126.35.49.1.224.757,1.877.757,1.961a.221.221,0,0,1-.239.224c-.111,0-.14-.042-.364-.406a3.246,3.246,0,0,0-2.857-1.807,1.791,1.791,0,0,0-1.9,1.849c0,1.162.84,1.583,2.675,2.227,2.83.981,3.208,2.1,3.208,3.18a2.969,2.969,0,0,1-3.04,3.025,4.5,4.5,0,0,1-1.512-.28,1.831,1.831,0,0,0-.561-.14.724.724,0,0,0-.532.182c-.238.211-.266.238-.406.238C927.563,2200.463,927.536,2200.379,927.269,2199.679Z" fill="#333"/>
        <path id="パス_39" data-name="パス 39" d="M945.08,2189.888c0,.014.91,2.213.91,2.367a.263.263,0,0,1-.266.252c-.126,0-.154-.042-.448-.448a3.72,3.72,0,0,0-3.026-1.877c-2.2,0-3.334,2.689-3.334,5.112,0,3.25,1.9,4.525,3.572,4.525a3.429,3.429,0,0,0,3.026-1.989c.322-.546.322-.56.434-.56a.218.218,0,0,1,.21.224,4.639,4.639,0,0,1-.8,1.415,4.086,4.086,0,0,1-3.292,1.554c-2.956,0-4.4-2.395-4.4-5.14,0-3.278,2.031-5.6,4.4-5.6a4.819,4.819,0,0,1,1.191.168,6.822,6.822,0,0,0,.84.224.576.576,0,0,0,.378-.14c.225-.224.252-.252.365-.252A.322.322,0,0,1,945.08,2189.888Z" fill="#333"/>
        <path id="パス_40" data-name="パス 40" d="M953.881,2189.986c.673,0,3.866.07,3.866,2.423a2.728,2.728,0,0,1-1.863,2.451c-.491.239-.546.266-.546.421a24.834,24.834,0,0,0,1.457,3.347,1.743,1.743,0,0,0,1.652,1.121c.141,0,.421,0,.421.224,0,.2-.28.224-.35.224h-1.751a.687.687,0,0,1-.659-.406c-.084-.14-1.078-2.311-1.233-2.662-.77-1.694-.868-1.919-1.358-1.919h-.771c-.1,0-.28.057-.322.169-.056.14-.056,1.989-.056,2.311,0,1.7,0,2.059,1.289,2.059.1,0,.294,0,.294.224s-.252.224-.406.224h-3.46c-.14,0-.35-.028-.35-.224,0-.224.2-.224.392-.224.967,0,1.106-.448,1.148-.966.029-.477.029-4.329.029-4.987a22.318,22.318,0,0,0-.113-2.83c-.181-.518-.784-.518-1.106-.518-.084,0-.378,0-.378-.252,0-.21.252-.21.42-.21Zm-.5.462c-1.009,0-1.009.63-1.009,2.073,0,2.2,0,2.241.378,2.241h1.135a2.261,2.261,0,0,0,2.535-2.213c0-.981-.532-2.1-2.353-2.1Z" fill="#333"/>
        <path id="パス_41" data-name="パス 41" d="M962.907,2200.2c-.181,0-.391,0-.391-.224s.111-.224.658-.224c.406,0,1.078,0,1.219-.728.042-.238.042-3.46.042-3.867,0-.574,0-3.739-.042-3.991-.141-.715-.645-.715-1.57-.715-.084,0-.307,0-.307-.224s.21-.238.406-.238h4.118c.168,0,.378,0,.378.238,0,.21-.126.21-.645.21-.42,0-1.022.014-1.2.644-.056.2-.056,3.348-.056,3.992a37.021,37.021,0,0,0,.042,3.951c.126.728.63.728,1.569.728.07,0,.294,0,.294.224s-.21.224-.378.224Z" fill="#333"/>
        <path id="パス_42" data-name="パス 42" d="M975.2,2189.986c.532,0,3.992,0,3.992,2.647,0,1.457-1.121,2.732-3.628,2.732H974.22c-.379,0-.379.112-.379,1.177,0,2.563,0,2.577.154,2.815a1.049,1.049,0,0,0,.939.392c.308,0,.476,0,.476.224s-.2.224-.392.224h-3.46c-.21,0-.406,0-.406-.224s.21-.224.35-.224c.476,0,1.079,0,1.219-.728a37.235,37.235,0,0,0,.042-3.964c0-.659,0-3.657-.042-3.894a.93.93,0,0,0-1.065-.715c-.35,0-.5,0-.5-.224s.2-.238.406-.238Zm.084,4.916c1.849,0,2.577-1.022,2.577-2.213a2.181,2.181,0,0,0-2.409-2.241h-.6c-1.009,0-1.009.616-1.009,1.835,0,.2,0,2.185.014,2.311a.341.341,0,0,0,.365.308Z" fill="#333"/>
        <path id="パス_43" data-name="パス 43" d="M990.9,2189.986c.756,0,.925,0,1.162.63.113.308.715,1.891.715,2.031a.215.215,0,0,1-.224.21c-.112,0-.154-.056-.476-.588a3.068,3.068,0,0,0-2.521-1.821c-.547,0-.883.224-.967.7-.042.252-.042,3.418-.042,4.006,0,.393,0,3.629.042,3.867.126.714.784.728,1.162.728.518,0,.631,0,.631.224s-.2.224-.42.224h-3.923c-.2,0-.406,0-.406-.224s.224-.224.308-.224c.827,0,1.345,0,1.485-.728a37.235,37.235,0,0,0,.042-3.964c0-3.46,0-3.839-.1-4.1a.873.873,0,0,0-.9-.5,3.2,3.2,0,0,0-2.522,1.807c-.336.546-.364.6-.49.6a.227.227,0,0,1-.224-.21c0-.112.63-1.793.742-2.073.225-.588.449-.588,1.149-.588Z" fill="#333"/>
        <path id="パス_44" data-name="パス 44" d="M996.675,2200.2c-.182,0-.392,0-.392-.224s.111-.224.658-.224c.406,0,1.078,0,1.219-.728.042-.238.042-3.46.042-3.867,0-.574,0-3.739-.042-3.991-.141-.715-.644-.715-1.569-.715-.084,0-.308,0-.308-.224s.21-.238.406-.238h4.118c.168,0,.378,0,.378.238,0,.21-.125.21-.644.21-.42,0-1.023.014-1.205.644-.056.2-.056,3.348-.056,3.992a37.021,37.021,0,0,0,.042,3.951c.126.728.631.728,1.569.728.07,0,.294,0,.294.224s-.21.224-.378.224Z" fill="#333"/>
        <path id="パス_45" data-name="パス 45" d="M1008.982,2200.463c-2.7,0-4.581-2.213-4.581-5.364s1.864-5.379,4.581-5.379c2.689,0,4.567,2.213,4.567,5.379C1013.549,2198.236,1011.685,2200.463,1008.982,2200.463Zm3.236-5.49c0-1.289-.365-4.791-3.236-4.791-3.138,0-3.25,4.118-3.25,5.043,0,1.344.407,4.776,3.25,4.776C1012.1,2200,1012.218,2195.925,1012.218,2194.973Z" fill="#333"/>
        <path id="パス_46" data-name="パス 46" d="M1017.329,2200.2c-.21,0-.42,0-.42-.224s.168-.224.518-.224a1.108,1.108,0,0,0,1.121-.63c.112-.323.126-.336.126-4.049a34.848,34.848,0,0,0-.042-3.781c-.169-.841-.939-.841-1.415-.841-.084,0-.308,0-.308-.224s.21-.238.42-.238h1.358c1.009,0,1.037.042,1.751,1.134.855,1.289,2.228,3.348,3.082,4.637.182.28,1.471,2.241,1.555,2.241.056,0,.1-.1.1-.28,0-.392.014-2.69.014-3.18s0-2.983-.042-3.236c-.168-.854-.882-.854-1.345-.854-.084,0-.294,0-.294-.224s.2-.238.392-.238h2.914c.154,0,.364,0,.364.238s-.2.224-.42.224c-1.163,0-1.163.63-1.163,2.311,0,1.051.014,6.234.014,7.4,0,.07,0,.308-.182.308a.243.243,0,0,1-.182-.111c-.084-.1-5.575-8.349-5.645-8.447-.252-.406-.28-.463-.35-.463s-.112.113-.112.267c0,.5-.014,2.941-.014,3.5s0,3.349.042,3.615c.168.924.938.924,1.541.924.112,0,.322,0,.322.224s-.182.224-.448.224Z" fill="#333"/>
      </g>
    </g>
    <g id="グループ_31" data-name="グループ 31" transform="translate(-365.028 -1720.867)">
      <g id="グループ_30" data-name="グループ 30">
        <path id="パス_47" data-name="パス 47" d="M792.466,2150.186c0,1.319-3.04,2.519-4,2.919-.56.2-.6.36-.68,1.76-.08.88-.08,4.119-.08,4.319,0,.24,0,.72.36.72.12,0,3.4-1.36,4.039-1.6,3.96-1.48,5.76-1.6,6.8-1.6a6.122,6.122,0,0,1,6.159,6.039c0,5.278-5.559,7.678-8.838,7.678-2.28,0-4.12-1.16-4.12-3.239a3.565,3.565,0,0,1,2-3.16.214.214,0,0,1,.2.2c0,.12-.079.2-.16.32a1.654,1.654,0,0,0-.36,1.08c0,1.919,2.2,1.919,2.6,1.919,2.639,0,6-1.759,6-4.958a4.144,4.144,0,0,0-3.84-4.4c-1.119,0-3.6.52-8.278,3-2.24,1.2-2.48,1.319-2.48,2,0,.44.12,2.239.12,2.639,0,1.84-.6,4.479-2.039,4.479-1.08,0-1.52-.84-1.84-1.48-1.28-2.479-1.48-2.479-2-2.479a3.341,3.341,0,0,0-1,.24,7.87,7.87,0,0,1-1.519.8c-.44,0-2.48-1.2-2.48-2.52,0-.72.44-1.56,1.16-1.56.24,0,1.4.2,1.64.2,1.079,0,1.8-.2,4.159-1.359,2.039-1,2.28-1.12,2.28-2.24,0-.92-.04-4.32-.081-5,0-.28-.12-.88-.559-.88a9.334,9.334,0,0,0-1.84.36c-2.04.68-2.24.76-2.84.76-1.359,0-2.879-2.76-2.879-3.04a.284.284,0,0,1,.32-.28c.12,0,.6.16.72.16a11.637,11.637,0,0,0,1.839.2,17.424,17.424,0,0,0,5.079-1.2,29.749,29.749,0,0,0,.4-4.359,3.922,3.922,0,0,0-1.321-3.2,4.056,4.056,0,0,1-.559-.64c0-.36.639-.44.88-.44,2.679,0,4.119,1.96,4.119,2.719a16.117,16.117,0,0,1-.84,2.08,21.369,21.369,0,0,0-.4,2.6c0,.16.08.44.32.44.28,0,1.4-.44,1.4-1,0-.08-.2-.48-.2-.56,0-.04.08-.12.16-.16C790.546,2148.386,792.466,2148.946,792.466,2150.186Zm-9.119,15.317c0,.6,1.08,1.88,1.68,1.88.56,0,1.119-1.12,1.119-3.08,0-.16,0-.56-.12-.64C785.907,2163.663,783.347,2164.943,783.347,2165.5Zm26.275-12.438c0,.84-.479,1.92-1.319,1.92-.24,0-1.16-.08-1.36-.08-.2.04-1.04.28-1.2.28a.187.187,0,0,1-.2-.2,2.755,2.755,0,0,1,.12-.32,2.106,2.106,0,0,0,.16-.72c0-1.6-2-2.16-3.359-2.16a3.473,3.473,0,0,0-1.56.4.9.9,0,0,1-.4.12c-.12,0-.16-.04-.16-.16a5.116,5.116,0,0,1,4.32-2.52C807.743,2149.625,809.622,2151.226,809.622,2153.065Z" fill="#333"/>
        <path id="パス_48" data-name="パス 48" d="M829.532,2149.506a80.835,80.835,0,0,0,10.878-1.36c2.079-.36,2.319-.4,2.319-1.44a23.951,23.951,0,0,0-.559-5.439c-.04-.2-.68-.92-.68-1.12,0-.28.6-.28.84-.28,1.759,0,3.319.72,3.319,2,0,.2-.16,1.04-.16,1.24,0,.919,1.16,1.519,3.519,2.519a8.791,8.791,0,0,0,3.52.8c.4,0,2.079-.2,2.4-.2.519,0,2.279.16,2.279,1.56,0,1.04-.76,1.4-2.16,1.4-.84,0-4.559-.36-5.319-.36a18.648,18.648,0,0,0-4.319.4c-.56.24-.64.8-.64,4.319a5.224,5.224,0,0,0,.52,2.6,12.671,12.671,0,0,1,1.16,5.4c0,7.759-6.039,12.719-7.279,12.719-.08,0-.2-.04-.2-.16,0-.081,1.64-2,1.92-2.4,1.04-1.56,2.239-4.16,2.239-5.879,0-.12,0-.56-.4-.56-.12,0-.719.08-.839.08-2.16,0-4.08-2.04-4.08-5.239,0-.52,0-4.919,3.879-5.519,1.121-.16,1.121-.4,1.121-2.44,0-2.16,0-2.4-.8-2.4a49.411,49.411,0,0,0-7.079,1.6c-.68.2-3.6,1.6-4.28,1.6-.88,0-4.2-1.68-4.2-3.32,0-.159.08-.359.2-.4C827.052,2149.266,828.972,2149.506,829.532,2149.506Zm11.878,6.639c-1,0-2.28,1.639-2.28,3.679a2.9,2.9,0,0,0,2.6,3.2c1.56,0,1.6-2.4,1.6-3.039a7.77,7.77,0,0,0-.519-2.8A1.691,1.691,0,0,0,841.41,2156.145Zm3.679-9.559c0,.64.16.76.72.76.16,0,2.759-.08,2.759-.68a8.67,8.67,0,0,0-3.039-2.12C845.249,2144.626,845.089,2145.546,845.089,2146.586Z" fill="#333"/>
        <path id="パス_49" data-name="パス 49" d="M878.4,2149.506a80.832,80.832,0,0,0,10.879-1.36c2.079-.36,2.32-.4,2.32-1.44a23.946,23.946,0,0,0-.56-5.439c-.041-.2-.681-.92-.681-1.12,0-.28.6-.28.84-.28,1.76,0,3.32.72,3.32,2,0,.2-.16,1.04-.16,1.24,0,.919,1.16,1.519,3.519,2.519a8.79,8.79,0,0,0,3.519.8c.4,0,2.081-.2,2.4-.2.52,0,2.28.16,2.28,1.56,0,1.04-.76,1.4-2.16,1.4-.84,0-4.559-.36-5.319-.36a18.654,18.654,0,0,0-4.319.4c-.56.24-.64.8-.64,4.319a5.224,5.224,0,0,0,.52,2.6,12.671,12.671,0,0,1,1.16,5.4c0,7.759-6.039,12.719-7.279,12.719-.08,0-.2-.04-.2-.16,0-.081,1.639-2,1.92-2.4,1.04-1.56,2.239-4.16,2.239-5.879,0-.12,0-.56-.4-.56-.121,0-.721.08-.84.08-2.16,0-4.08-2.04-4.08-5.239,0-.52,0-4.919,3.88-5.519,1.12-.16,1.12-.4,1.12-2.44,0-2.16,0-2.4-.8-2.4a49.437,49.437,0,0,0-7.078,1.6c-.68.2-3.6,1.6-4.28,1.6-.879,0-4.2-1.68-4.2-3.32,0-.159.08-.359.2-.4C875.92,2149.266,877.84,2149.506,878.4,2149.506Zm11.878,6.639c-1,0-2.279,1.639-2.279,3.679a2.9,2.9,0,0,0,2.6,3.2c1.559,0,1.6-2.4,1.6-3.039a7.792,7.792,0,0,0-.519-2.8A1.69,1.69,0,0,0,890.277,2156.145Zm3.68-9.559c0,.64.16.76.72.76.16,0,2.759-.08,2.759-.68a8.67,8.67,0,0,0-3.039-2.12C894.117,2144.626,893.957,2145.546,893.957,2146.586Z" fill="#333"/>
        <path id="パス_50" data-name="パス 50" d="M936.586,2171.7c-.68,0-.76,0-.76-.2,0-.12.12-.2,1.16-.52,5.279-1.72,12.6-5.2,12.6-12.438,0-6.239-5.959-8.158-7.759-8.158-.6,0-.68.239-1.72,2.679a33.824,33.824,0,0,1-3.04,5.719,1.049,1.049,0,0,0-.2.56.784.784,0,0,0,.6.76c1.359.72,1.8,1.04,1.8,2,0,1.04-.84,1.279-1.48,1.279a3.962,3.962,0,0,1-2.24-.679c-.56-.281-.6-.321-.84-.321-.4,0-.479.08-1.2.84-3.239,3.4-5.879,4.4-7,4.4-2.6,0-3.04-4.08-3.04-5.68,0-4.159,2.519-7.358,4.2-9.038a1.284,1.284,0,0,0,.44-1.04c0-.36-1.6-5.159-1.8-5.719-.121-.32-.84-1.759-.84-1.879,0-.04,0-.121.08-.121a4.232,4.232,0,0,1,3.239,2.16,17.18,17.18,0,0,0,1.04,3.96.827.827,0,0,0,.72.44,11.756,11.756,0,0,0,1.92-.84,19.377,19.377,0,0,1,6.239-1.44,1.03,1.03,0,0,0,1-.52,9.066,9.066,0,0,0,.56-2.96,7.881,7.881,0,0,0-.84-3.319.665.665,0,0,1-.079-.2c0-.12.319-.12.4-.12,1.8,0,3.96,1.48,3.96,2.44a37.456,37.456,0,0,0-1.4,4.119c0,.64.44.72.759.76,5.6.959,9.559,4.959,9.559,10.238C952.623,2167.423,943.705,2171.7,936.586,2171.7Zm-4.48-11.718a16.346,16.346,0,0,1-2.719-4.6c-.2-.56-.36-.96-.72-.96-.52,0-3.239,2.76-3.239,6.8,0,2.159.8,3.6,1.719,3.6,1.48,0,5.24-3.28,5.24-4.119A.905.905,0,0,0,932.106,2159.984Zm6.079-9.8a13.073,13.073,0,0,0-6.079,1.48c-.679.4-1.079.679-1.079,1.239,0,.68,2.28,5.079,3.359,5.079.4,0,.56-.08,1.4-1.44a25.418,25.418,0,0,0,2.96-5.878C938.746,2150.186,938.346,2150.186,938.185,2150.186Z" fill="#333"/>
        <path id="パス_51" data-name="パス 51" d="M986.685,2145.306c0,.12.081.28.081.44a30.664,30.664,0,0,1,.4,4.319c0,2.68-.6,6.4-4.119,11.719-3.2,4.879-5.239,5.839-6.839,5.839-2.639,0-5-4.12-5-9a14.087,14.087,0,0,1,4.439-10.2,16.549,16.549,0,0,1,12.758-5.2,13.036,13.036,0,0,1,6.439,1.279,12.535,12.535,0,0,1,6.959,11.639,14.913,14.913,0,0,1-10.078,14.077,24.58,24.58,0,0,1-6.639,1.48c-.16,0-.4-.04-.4-.28,0-.12.081-.16,1.081-.56,4.159-1.64,12.837-5.079,12.837-15.037,0-1.56-.16-11.078-11.078-11.078C986.726,2144.747,986.685,2145.066,986.685,2145.306Zm-13,12.278c0,2.6,1.04,6.159,3.48,6.159,1.16,0,2.12-.48,4.879-4.639,2.12-3.239,3.92-7.679,3.92-11.638,0-2.4-.16-2.6-.68-2.6C981.486,2144.866,973.687,2150.025,973.687,2157.584Z" fill="#333"/>
        <path id="パス_52" data-name="パス 52" d="M1020.632,2147.226a9.42,9.42,0,0,0,3.319.84c1.64,0,13.358-1.12,15.077-1.88,1.24-.56,1.4-.64,1.68-.64.88,0,1.52.56,2.76,1.64,1.8,1.6,2.04,2.04,2.04,2.6,0,.52-.2.719-.92,1.44a6.6,6.6,0,0,0-1.56,2.519c-6.279,13.038-20.237,18.637-20.636,18.637a.267.267,0,0,1-.281-.24c0-.16.12-.24.52-.52,6.959-4.879,12.6-10.158,15.8-15.837a22.577,22.577,0,0,0,2.719-6.759c0-.68-.68-.72-.88-.72-.4,0-11.958,1.92-14.4,2.88a14.625,14.625,0,0,1-2,.879c-.92,0-4.119-2-4.119-4.2,0-.76.12-.88.36-.88C1020.191,2146.986,1020.552,2147.226,1020.632,2147.226Zm32.194-2.68a3.86,3.86,0,1,1-7.719,0,3.8,3.8,0,0,1,3.92-3.8A3.722,3.722,0,0,1,1052.826,2144.546Zm-6.4.121a2.543,2.543,0,0,0,5.079-.041,2.675,2.675,0,0,0-2.559-2.519A2.573,2.573,0,0,0,1046.427,2144.667Z" fill="#333"/>
        <path id="パス_53" data-name="パス 53" d="M1073.463,2170.662c12.477-6.719,15.757-15.357,15.757-16.2,0-.48-.28-.76-.84-.76-1.36,0-11.4,1.76-13.157,2.279a17.186,17.186,0,0,1-1.84.681c-1.72,0-4.56-3.44-4.56-4.56a.224.224,0,0,1,.24-.2,5.6,5.6,0,0,1,.72.32,11.231,11.231,0,0,0,3.96.68c3.279,0,11.237-1.04,12.717-1.2.08,0,2.72-.24,2.76-.24a6.87,6.87,0,0,1,1.16-.44c.68,0,3.519,2.36,3.519,3.28,0,.6-.16.76-1.08,1.52a11.2,11.2,0,0,0-2.159,2.839c-3.16,4.8-5.64,7.8-11.278,10.678a28.265,28.265,0,0,1-7.079,2.6.319.319,0,0,1-.36-.32.429.429,0,0,1,.08-.24C1072.1,2171.3,1073.223,2170.782,1073.463,2170.662Zm1-26.156a9.766,9.766,0,0,0,2.119.161,38.36,38.36,0,0,0,6.4-.44c.6-.121,3.36-.8,3.919-.8.68,0,2.44.36,2.44,1.519,0,1.24-1.4,1.36-3.719,1.56-.641.08-9.239.84-9.519.84-2.12,0-3.319-2.72-3.319-3,0-.2.08-.281.24-.281C1073.263,2144.066,1074.223,2144.466,1074.463,2144.506Z" fill="#333"/>
        <path id="パス_54" data-name="パス 54" d="M1123.489,2164.7a28.045,28.045,0,0,0-3.919,3.279c-.76.92-.84,1-1.44,1-2.159,0-5.119-2.559-5.119-4.159,0-.28.04-2.119.4-2.119a9.955,9.955,0,0,1,1.2.759,6.62,6.62,0,0,0,2.72.92c1.959,0,12.558-7.079,19.2-13.637.64-.641,1.76-1.76,1.84-1.76a.257.257,0,0,1,.2.2C1138.567,2149.545,1133.888,2157.024,1123.489,2164.7Zm-3.279-13.158c-1.08,0-1.48-.64-2.8-2.639a9.01,9.01,0,0,0-3.64-3.28c-.16-.08-.36-.2-.36-.359s.32-.361.88-.361c4.279,0,7.639,2.28,7.639,4.639A1.766,1.766,0,0,1,1120.21,2151.545Z" fill="#333"/>
      </g>
    </g>
    <line id="線_1" data-name="線 1" x2="150" transform="translate(520.615 513.917)" fill="none" stroke="#333" stroke-miterlimit="10" stroke-width="1"/>
  </g>
</svg>
