<svg id="ochart_btn" xmlns="http://www.w3.org/2000/svg" width="487.718" height="58.734" viewBox="0 0 487.718 58.734">
  <rect id="長方形_6" data-name="長方形 6" width="487.718" height="58.734" rx="10"/>
  <g id="グループ_66" data-name="グループ 66" transform="translate(-716.421 -3632.407)">
    <path id="パス_261" data-name="パス 261" d="M770.051,3668.45a5.851,5.851,0,0,0,4.992-2.693c.377-.555.416-.614.554-.614a.276.276,0,0,1,.3.3c0,.119-.752,2.06-.871,2.377-.495,1.247-.574,1.267-1.861,1.267h-8.3c-.3,0-.574,0-.574-.317s.218-.317.713-.317a1.313,1.313,0,0,0,1.505-1.029c.059-.337.059-4.893.059-5.467,0-.792,0-5.288-.059-5.645-.178-1.01-1.05-1.01-1.783-1.01-.138,0-.435,0-.435-.316,0-.337.277-.337.574-.337h4.912c.317,0,.594,0,.594.337,0,.316-.218.316-.713.316a1.327,1.327,0,0,0-1.506,1.01c-.058.357-.058,4.575-.058,5.507a53.828,53.828,0,0,0,.058,5.6,1.268,1.268,0,0,0,1.367,1.029Z" fill="#f6f7f2"/>
    <path id="パス_262" data-name="パス 262" d="M781.194,3669.084c-.258,0-.555,0-.555-.317s.158-.317.931-.317c.574,0,1.525,0,1.723-1.029.059-.337.059-4.893.059-5.467,0-.812,0-5.288-.059-5.645-.2-1.01-.911-1.01-2.218-1.01-.119,0-.436,0-.436-.316,0-.337.3-.337.574-.337h5.824c.237,0,.534,0,.534.337,0,.3-.178.3-.911.3-.594,0-1.445.02-1.7.912-.079.277-.079,4.733-.079,5.644a52.629,52.629,0,0,0,.059,5.586c.178,1.029.891,1.029,2.218,1.029.1,0,.416,0,.416.317s-.3.317-.534.317Z" fill="#f6f7f2"/>
    <path id="パス_263" data-name="パス 263" d="M793.335,3669.084c-.3,0-.594,0-.594-.317s.237-.317.732-.317a1.565,1.565,0,0,0,1.585-.891c.159-.455.178-.475.178-5.724a48.847,48.847,0,0,0-.06-5.348c-.237-1.188-1.327-1.188-2-1.188-.119,0-.435,0-.435-.316,0-.337.3-.337.594-.337h1.921c1.426,0,1.465.059,2.476,1.6,1.208,1.822,3.149,4.734,4.356,6.556.258.4,2.081,3.169,2.2,3.169.079,0,.138-.139.138-.4,0-.554.02-3.8.02-4.495,0-.714,0-4.219-.06-4.576-.237-1.208-1.248-1.208-1.9-1.208-.119,0-.416,0-.416-.316,0-.337.277-.337.555-.337h4.12c.218,0,.514,0,.514.337,0,.316-.277.316-.594.316-1.644,0-1.644.892-1.644,3.268,0,1.486.02,8.814.02,10.457,0,.1,0,.437-.257.437a.348.348,0,0,1-.258-.159c-.119-.139-7.883-11.8-7.981-11.943-.357-.574-.4-.654-.5-.654s-.159.159-.159.377c0,.713-.019,4.159-.019,4.951s0,4.734.059,5.11c.238,1.307,1.328,1.307,2.179,1.307.158,0,.455,0,.455.317s-.257.317-.634.317Z" fill="#f6f7f2"/>
    <path id="パス_264" data-name="パス 264" d="M819.426,3668.45a5.146,5.146,0,0,0,4.733-2.456c.495-.772.535-.851.693-.851a.317.317,0,0,1,.337.317c0,.1-.713,1.98-.832,2.277-.495,1.287-.515,1.347-1.8,1.347h-9.328c-.337,0-.614,0-.614-.317s.2-.317.753-.317a1.312,1.312,0,0,0,1.505-1.029c.059-.337.079-4.893.079-5.467,0-.792,0-5.288-.059-5.645-.2-1.01-1.049-1.01-1.842-1.01-.138,0-.436,0-.436-.316,0-.337.277-.337.614-.337h9.031c1.229,0,1.328.039,1.724,1.01.118.277.852,2.1.852,2.238a.31.31,0,0,1-.318.3c-.118,0-.158-.04-.613-.673a4.817,4.817,0,0,0-3.8-2.219h-2.2a1.371,1.371,0,0,0-1.187.515c-.239.357-.239.535-.239,2.1,0,.257,0,2.951.06,3.109a.547.547,0,0,0,.475.257h1.743c2.238,0,2.238-1.346,2.238-2.218,0-.059,0-.4.317-.4.337,0,.317.337.317.495-.02.733,0,4.279,0,5.071,0,.1,0,.416-.317.416s-.317-.258-.317-.654c0-1.683-1.129-2.08-2.238-2.08h-1.743a.477.477,0,0,0-.515.456c-.02.158-.02,3.427-.02,3.723,0,1.387,0,2.357,1.426,2.357Z" fill="#f6f7f2"/>
    <path id="パス_265" data-name="パス 265" d="M835.757,3653.814c.613,0,.672-.04,1.049-.535.317-.416.357-.456.455-.456a.572.572,0,0,1,.179.04c.139.08.773.554.931.673.475.337.534.377.534.535,0,.179-.118.238-.4.357a1.01,1.01,0,0,0-.4.356,16.405,16.405,0,0,1-5.446,5.6,9.359,9.359,0,0,1-2.853,1.169c-.019,0-.058,0-.058-.04,0-.059.177-.158.237-.2.435-.277,1.208-.812,1.782-1.228a13.579,13.579,0,0,0,2.5-2.416c0-.04-.258-.119-.337-.178a14.029,14.029,0,0,1-1.129-1.624,5.27,5.27,0,0,1-.356-.416c0-.02.039-.04.079-.04,1.684,0,2.218.634,2.337.872.04.059.119.495.218.495a6.159,6.159,0,0,0,1.367-2.179c0-.277-.278-.277-.456-.277h-1.605c-.455,0-1.8,0-2.495.059-.059,0-.356.04-.416.04s-.1-.04-.178-.119l-.377-.456c-.079-.1-.079-.1-.079-.138s.04-.04.06-.04c.119,0,.732.059.871.059.574.04,1.6.08,2.714.08Zm7.763,15.092c.614,0,.832-.02,1.031-.238.177-.2.831-1.406,1.088-1.406.158,0,2.06,1.525,2.06,1.862,0,.3-.376.3-1.069.3H834.212c-1.486,0-2.16.04-2.5.059-.08,0-.357.04-.416.04-.08,0-.119-.04-.178-.119l-.4-.456c-.059-.1-.079-.1-.079-.138,0-.02.02-.04.079-.04.139,0,.734.06.872.06.97.059,1.783.079,2.713.079h4.675c.534,0,.792,0,1.326-1.089a7.209,7.209,0,0,0,.932-3.011c0-.079,0-.238.158-.238.1,0,1.228.733,1.426.852.574.4.653.435.653.614,0,.317-.316.357-.613.416a1.483,1.483,0,0,0-.516.416c-.237.257-1.306,1.307-1.524,1.545-.04.039-.179.178-.179.277,0,.218.3.218.535.218Zm-9.229-3.9a.111.111,0,0,1,.119-.1c.039,0,2.871,1.05,2.871,2.694,0,.317-.2,1.129-.852,1.129-.495,0-.554-.278-.772-1.11a5.626,5.626,0,0,0-1.01-2.178A2.905,2.905,0,0,1,834.291,3665Zm6.694-4.536a1.1,1.1,0,0,0,1.069-.455c.318-.317.357-.357.5-.357.158,0,1.446.832,1.446,1.149,0,.139-.04.158-.357.416-.159.119-.178.317-.178.634,0,.237.059,1.406.059,1.664,0,.4,0,1.208-.832,1.208a.765.765,0,0,1-.732-.475c-.1-.159-.3-.159-.495-.159h-4.774c-.2,0-.416,0-.515.178a.948.948,0,0,1-.99.654c-.495,0-.594-.337-.594-.693a4.117,4.117,0,0,1,.04-.5c.039-.534.059-1.208.059-1.742a8.7,8.7,0,0,0-.08-1.347c-.019-.1-.139-.575-.139-.693a.249.249,0,0,1,.258-.258c.179,0,.278.039,1.11.515a1.714,1.714,0,0,0,1.029.257Zm-2.119-1.643c-1.406,0-2.1.059-2.238.059-.06,0-.357.039-.416.039-.08,0-.1-.039-.178-.118l-.377-.456c-.079-.079-.079-.1-.079-.138,0-.02.019-.04.059-.04.139,0,.753.059.892.059.772.04,1.663.08,2.436.08a2.736,2.736,0,0,0,.812-.08c.237-.1,1.01-.95,1.248-.95.277,0,1.406.931,1.406,1.267,0,.278-.377.278-1.07.278Zm2.574,4.753c.555,0,.555-.3.555-.95,0-1.565,0-1.625-.555-1.625h-4.753c-.574,0-.574.277-.574.931,0,1.565,0,1.644.574,1.644Zm2.357-6.279c.337,0,1.426-1.425,1.585-1.643.238-.357.3-.436.456-.436.217,0,.277.039.93.693.614.614.674.673.674.832,0,.139-.04.139-.516.178-.217.02-2.317.614-2.317.951,0,.436,2.14,1.406,3.269,1.664.079.019.514.118.514.2,0,.06-.039.06-.455.1a3.882,3.882,0,0,0-1.525.653,1.662,1.662,0,0,1-.436.258,14.936,14.936,0,0,1-5.149-5.071,13.328,13.328,0,0,1-1.208-2.753c-.04-.1-.119-.356-.139-.435a.073.073,0,0,1,.079-.08c.1,0,2.04,2.972,2.4,2.972.277,0,.99-1.348,1.069-1.9.079-.436.1-.5.337-.5.1,0,1.564.97,1.584.97a.616.616,0,0,1,.179.4c0,.316-.357.356-.574.4a10.035,10.035,0,0,0-1.011.594c-.357.2-.891.495-.931.732C842.57,3656.428,843.54,3657.3,843.8,3657.3Z" fill="#f6f7f2"/>
    <path id="パス_266" data-name="パス 266" d="M854.537,3662.192c-.079-.1-.079-.1-.079-.139s.04-.04.059-.04c.376,0,2.258.119,2.674.119.574,0,.574-.218.574-1.287,0-.852,0-1.11-.514-1.11-.119,0-.793.08-.892.08-.059,0-.079-.04-.237-.218a.228.228,0,0,0-.139-.059c-.119,0-.258.158-.595.495-.633.673-2.217,2.059-2.217,1.822a1.559,1.559,0,0,1,.237-.356,26.939,26.939,0,0,0,3.387-5.229c1.168-2.4,1.168-2.476,1.168-3.348,0-.237.139-.257.218-.257.02,0,1.941.416,1.941.911,0,.04-.059.277-.059.317,0,.2.139.277.317.376.376.218,1.545.892,1.545,2,0,.416-.139.812-.575.812s-.514-.139-1.248-1.684c-.277-.554-.416-.752-.673-.752-.218,0-.377.257-.456.416a30.757,30.757,0,0,1-2.02,3.069c-.317.436-.436.595-.436.733,0,.2.2.218.337.238.218.02,1.406.079,1.565.079.594,0,.713,0,.97-.337.376-.514.416-.574.594-.574.277,0,1.229.872,1.229,1.169,0,.1-.08.178-.218.217a4.137,4.137,0,0,1-.931.06h-.495c-.654,0-.654.158-.654,1.089,0,1.189,0,1.327.495,1.327a.6.6,0,0,0,.614-.357c.416-.653.476-.653.614-.653.3,0,1.328.97,1.328,1.287,0,.119-.081.179-.239.219a5.865,5.865,0,0,1-1.009.039h-1.149c-.219,0-.476,0-.575.218a14.243,14.243,0,0,0-.118,2.317c0,.218,0,2.615.039,2.753.059.238.159.377.435.377.119,0,1.645-.179,1.922-.179.039,0,.118,0,.118.08,0,.376-4.832,1.564-5.346,1.9-.08.059-.456.475-.576.475-.416,0-.911-2.1-.911-2.139,0-.1.04-.138.12-.138.1,0,.138.019.435.138a5.646,5.646,0,0,0,1.327.1c.832,0,1.189-.02,1.287-.357.06-.158.04-2.1.04-3.168,0-.337,0-1.9-.059-2.1-.079-.277-.416-.277-.574-.277-.357,0-1.426.059-1.763.079-.04,0-.237.02-.277.02-.06,0-.1-.04-.179-.119Zm2.733,4.377c0,.614-.376,1.168-.792,1.168-.515,0-.574-.4-.753-1.366a4.191,4.191,0,0,0-.574-1.743,1.393,1.393,0,0,1-.119-.238.041.041,0,0,1,.04-.039,3.438,3.438,0,0,1,1.327.732A1.771,1.771,0,0,1,857.27,3666.569Zm4.972-1.743c0,.257-.159.3-.555.4-.179.059-2.2,2.733-2.5,2.733-.039,0-.039-.02-.039-.039s.277-.615.316-.713a8.052,8.052,0,0,0,.873-2.852c0-.436,0-.575.237-.575a2.912,2.912,0,0,1,.891.337Q862.242,3664.5,862.242,3664.826Zm4.713-11.309a1.228,1.228,0,0,0,1.03-.377c.337-.336.456-.416.614-.416s1.446.634,1.446.991c0,.178-.1.218-.475.4a.573.573,0,0,0-.4.376c-.059.178-.059,3.427-.059,3.922,0,.792,0,.891.2.891.158,0,.258-.139.337-.238.4-.574.436-.653.594-.653a2.834,2.834,0,0,1,1.347,1.287c0,.119-.1.178-.257.218a3.665,3.665,0,0,1-.991.059h-2.594c-.16,0-.4,0-.4.357,0,.079.654,3.228,1.149,3.228.337,0,1.327-1.089,1.486-1.347.178-.3.257-.436.455-.436.119,0,1.327.813,1.327,1.209,0,.218-.217.238-.356.238a8.158,8.158,0,0,0-2.4.732c-.119.04-.3.139-.3.317,0,.673,1.743,2.971,3.031,3.684a2.588,2.588,0,0,1,.455.3c0,.04-.02.06-.158.08a2.6,2.6,0,0,0-1.189.435c-.1.06-.495.475-.634.475-.832,0-2.5-3.822-3.13-7.565-.019-.119-.1-.594-.158-.594-.079,0-.079.019-.079.257v1.8c0,.773.02,1.922.06,3.922,0,.257.079,1.584.079,1.881a1.28,1.28,0,0,1-.535,1.208,2.8,2.8,0,0,1-1.149.436c-.237,0-.3-.119-.356-.277a1.762,1.762,0,0,0-.733-1.109,3.22,3.22,0,0,1-.456-.238.088.088,0,0,1,.079-.059c.021-.02.694-.02.753-.02.515,0,.852-.02,1.01-.238a24.3,24.3,0,0,0,.079-2.515c0-.06-.019-.456-.178-.456s-.257.08-1.109.892a12.44,12.44,0,0,0-1.882,1.881c-.217.317-.217.337-.316.337a3.366,3.366,0,0,1-1.268-1.6c0-.119.119-.139.416-.159a6.99,6.99,0,0,0,1.763-.614c2.535-1.208,2.535-1.446,2.535-2.475,0-.377-.06-2.278-.06-2.714,0-1.149,0-1.267-.811-1.267-.555,0-1.565.019-2.08.079-.04,0-.237.039-.3.039s-.1-.059-.158-.138l-.4-.456c-.079-.1-.079-.1-.079-.119,0-.059.039-.059.06-.059.139,0,.732.079.871.079.574.04,1.6.06,2.733.06h1.6c.673,0,.673-.04.673-1.763,0-.773,0-.99-.673-.99H866.5c-.476,0-1.8,0-2.495.039a2.989,2.989,0,0,1-.417.06c-.079,0-.1-.04-.178-.139l-.376-.455c-.1-.1-.1-.1-.1-.12,0-.039.06-.059.079-.059.119,0,.734.079.872.079.575.02,1.584.06,2.713.06h.437c.653,0,.653-.2.653-.951,0-.95,0-1.149-.634-1.149h-.772c-.476,0-1.8,0-2.5.04a2.979,2.979,0,0,1-.415.059c-.08,0-.119-.039-.179-.138l-.376-.456c-.1-.1-.1-.1-.1-.118,0-.04.04-.06.079-.06.119,0,.733.079.872.079.574.02,1.584.06,2.713.06Zm-2.535,10.18a.88.88,0,0,1-.713.911c-.317,0-.455-.178-.594-.812a13.8,13.8,0,0,0-.832-1.842,2.008,2.008,0,0,1-.158-.277c0-.06.039-.08.059-.08a6.522,6.522,0,0,1,1.386.753A1.841,1.841,0,0,1,864.42,3663.7Z" fill="#f6f7f2"/>
    <path id="パス_267" data-name="パス 267" d="M878.422,3657.438c.832,0,1.129-.079,3.842-.852,1.763-.495,6.3-1.782,7.606-1.782.713,0,1.6.277,1.6.951a.791.791,0,0,1-.812.732c-.257,0-1.387-.217-1.6-.217-2.514,0-5.327,2.317-5.327,7.427,0,3.327,1.247,3.545,2.416,3.545.3,0,1.7-.119,1.882-.119.614,0,.971.258.971.733,0,1.05-2.179,1.05-2.3,1.05-4.04,0-4.04-3.308-4.04-4.239,0-.871.019-5.07,2.871-7.625a3.821,3.821,0,0,0,.495-.416c0-.04-.079-.04-.118-.04-1.15,0-5.249,1.744-5.9,2.12a1.522,1.522,0,0,1-.674.257c-.991,0-1.941-1.327-1.684-1.6C877.729,3657.26,878.3,3657.438,878.422,3657.438Zm12.656,4.378a.8.8,0,0,1-.694.812c-.356,0-.534-.377-.851-1.149a5.2,5.2,0,0,0-.99-1.545,1.069,1.069,0,0,1-.2-.357c0-.1.218-.118.4-.079A2.863,2.863,0,0,1,891.078,3661.816Zm2.4-.951c0,.515-.316.732-.574.732-.475,0-.693-.574-.892-1.049a5.121,5.121,0,0,0-1.306-1.585c-.1-.079-.179-.158-.179-.257,0-.119.218-.119.278-.119a1.854,1.854,0,0,1,.495.1C892.465,3659.062,893.474,3659.914,893.474,3660.865Z" fill="#f6f7f2"/>
    <path id="パス_268" data-name="パス 268" d="M907.3,3658.31c0,.653-1.505,1.247-1.981,1.445-.277.1-.3.179-.337.872-.039.436-.039,2.04-.039,2.139,0,.119,0,.357.178.357.059,0,1.683-.674,2-.793a9.29,9.29,0,0,1,3.366-.792,3.033,3.033,0,0,1,3.051,2.991c0,2.614-2.753,3.8-4.377,3.8-1.129,0-2.04-.575-2.04-1.6a1.764,1.764,0,0,1,.99-1.564.106.106,0,0,1,.1.1c0,.06-.04.1-.079.159a.816.816,0,0,0-.179.535c0,.95,1.09.95,1.288.95,1.306,0,2.971-.871,2.971-2.456a2.052,2.052,0,0,0-1.9-2.178,10.111,10.111,0,0,0-4.1,1.485c-1.11.595-1.229.654-1.229.991,0,.217.06,1.108.06,1.307,0,.911-.3,2.218-1.01,2.218-.535,0-.753-.416-.911-.733-.634-1.228-.734-1.228-.99-1.228a1.677,1.677,0,0,0-.5.119,3.929,3.929,0,0,1-.753.4c-.217,0-1.227-.594-1.227-1.248,0-.356.218-.772.574-.772.118,0,.693.1.812.1a4.232,4.232,0,0,0,2.059-.673c1.011-.5,1.13-.555,1.13-1.109,0-.456-.02-2.139-.04-2.476,0-.139-.059-.436-.277-.436a4.7,4.7,0,0,0-.911.178,4.251,4.251,0,0,1-1.407.377c-.673,0-1.425-1.367-1.425-1.506a.14.14,0,0,1,.158-.138c.059,0,.3.079.356.079a5.807,5.807,0,0,0,.911.1,8.658,8.658,0,0,0,2.516-.594,14.825,14.825,0,0,0,.2-2.159,1.946,1.946,0,0,0-.654-1.585,2,2,0,0,1-.277-.316c0-.179.317-.218.436-.218a1.986,1.986,0,0,1,2.04,1.346,7.991,7.991,0,0,1-.416,1.03,10.57,10.57,0,0,0-.2,1.288c0,.079.039.218.158.218.139,0,.694-.218.694-.5,0-.04-.1-.238-.1-.278,0-.019.039-.059.079-.079C906.349,3657.419,907.3,3657.7,907.3,3658.31Zm-4.516,7.585c0,.3.535.931.832.931.277,0,.555-.554.555-1.525,0-.079,0-.277-.06-.317C904.051,3664.984,902.784,3665.618,902.784,3665.9Zm13.013-6.16c0,.416-.239.952-.655.952-.118,0-.574-.04-.673-.04-.1.02-.514.138-.594.138a.092.092,0,0,1-.1-.1c0-.04.06-.139.06-.159a1.059,1.059,0,0,0,.079-.356c0-.793-.99-1.07-1.664-1.07a1.72,1.72,0,0,0-.773.2.445.445,0,0,1-.2.059c-.06,0-.08-.02-.08-.079a2.536,2.536,0,0,1,2.14-1.248C914.866,3658.032,915.8,3658.825,915.8,3659.735Z" fill="#f6f7f2"/>
    <path id="パス_269" data-name="パス 269" d="M934.277,3660.112a17.477,17.477,0,0,0,4.793,1.565c.079,0,.416.059.416.139,0,.059-.277.138-.357.158a3.419,3.419,0,0,0-1.505,1.069c-.06.08-.278.5-.376.5-.119,0-4.417-2.079-6.359-5.248-.376-.634-.435-.693-.574-.693s-.178.039-.613.5a23.542,23.542,0,0,1-5.864,4.615,17.14,17.14,0,0,1-3.109,1.267c-.059,0-.1-.039-.1-.059s2.119-1.327,2.3-1.446c2.674-1.684,5.507-4.714,5.784-6.2.02-.159.04-.218.178-.218.1,0,1.7.614,1.8.673.059.02.257.1.257.3a1.2,1.2,0,0,1-.079.277A10.062,10.062,0,0,0,934.277,3660.112Zm-9.547-4.932c-1.466,0-2.138.04-2.515.06-.06,0-.357.039-.417.039s-.1-.039-.177-.118l-.377-.456c-.079-.1-.079-.1-.079-.138s.02-.04.059-.04c.139,0,.753.059.872.059.97.04,1.8.079,2.733.079h.575c.415,0,.534-.2.534-.535a3.209,3.209,0,0,0-.158-1.049,3.02,3.02,0,0,1-.119-.4c0-.1.1-.139.218-.139.138,0,1.03.218,1.248.277.593.159.713.2.713.377,0,.118-.02.158-.3.515a.479.479,0,0,0-.139.356c0,.476.158.594.693.594h3.268c.179,0,.6,0,.6-.535a8.18,8.18,0,0,0-.06-.891c-.019-.1-.119-.515-.119-.594,0-.1.119-.139.218-.139.138,0,1.485.317,1.7.377s.337.139.337.317c0,.118-.079.2-.3.356a.636.636,0,0,0-.258.555c0,.554.317.554.634.554h1.011c.871,0,.969,0,1.267-.336.555-.654.613-.733.792-.733.119,0,1.842,1.05,1.842,1.307,0,.277-.4.277-1.05.277h-3.862c-.613,0-.613.317-.613.793,0,.118.019.792.019.891,0,.733-.595.851-1.011.851-.455,0-.534-.079-.534-.752V3655.6c-.059-.376-.3-.416-.614-.416H928.2c-.455,0-.733,0-.733.555,0,.2.06,1.069.06,1.248,0,.376-.06.554-.238.673a1.4,1.4,0,0,1-.752.277c-.337,0-.495-.218-.495-.614,0-.158.019-.911.019-1.049,0-.773,0-1.09-.614-1.09Zm1.406,10.121a10.187,10.187,0,0,1,1.526.931.491.491,0,0,1,.158.3c0,.238-.158.277-.634.4-.059.02-1.763,1.347-2.08,1.585a12.178,12.178,0,0,1-3.01,1.723.063.063,0,0,1-.059-.06c0-.039,1.05-.95,1.188-1.089a11.4,11.4,0,0,0,2.832-3.763A.119.119,0,0,1,926.136,3665.3Zm.911-1.049c-1.544,0-2.119.019-2.515.059-.06,0-.356.04-.416.04s-.1-.04-.178-.119l-.377-.456c-.079-.1-.079-.1-.079-.139,0-.019.021-.039.06-.039.138,0,.753.059.871.059.97.06,1.8.079,2.733.079h1.486c.2,0,.594,0,.594-.534,0-.238-.119-1.842-.158-2.04,0-.04-.119-.238-.119-.278s.039-.118.2-.118c.139,0,1.525.3,1.723.356.277.06.376.238.376.337,0,.119-.039.158-.336.416-.278.237-.278.356-.278.95,0,.713,0,.911.594.911h.872c.871,0,.97,0,1.268-.336.554-.654.613-.733.792-.733.119,0,1.842,1.069,1.842,1.307,0,.278-.4.278-1.05.278h-3.743c-.594,0-.594.356-.594.99,0,1.406,0,2.2.039,3.367.02.336.02.812.02,1.049,0,.634-.159,1.011-1.01,1.011-.436,0-.476-.357-.476-.694,0-.257.06-1.446.06-1.7.019-.752.019-1.485.019-2.4a12.187,12.187,0,0,0-.039-1.347c-.1-.277-.416-.277-.574-.277Zm5.289,1.663c0-.06.1-.079.177-.079.734,0,5.249,1.248,5.249,2.892,0,.633-.356,1.129-.851,1.129-.376,0-.456-.1-1.069-1.011a9.412,9.412,0,0,0-3.408-2.852C932.415,3665.994,932.336,3665.935,932.336,3665.915Z" fill="#f6f7f2"/>
    <path id="パス_270" data-name="パス 270" d="M953.431,3657.636c-.138,0-4.3.971-4.4,1.011a8.682,8.682,0,0,1-.892.376,4.149,4.149,0,0,1-1.346-.713,4.048,4.048,0,0,1-.476-1.149c0-.1.02-.158.119-.158.02,0,.455.118.515.138a3.534,3.534,0,0,0,1.05.2,27.458,27.458,0,0,0,5.426-.732,7.514,7.514,0,0,1,1.09-.615c.475,0,1.684,1.011,1.684,1.506,0,.178-.734.713-.853.851-.4.476-1.96,2.793-2.277,3.248a.653.653,0,0,0-.158.4c0,.178.039.217.871.673.891.515,4.436,2.515,4.436,4.317a.855.855,0,0,1-.811.872c-.456,0-.535-.139-1.229-1.367-1.366-2.4-3.109-3.9-3.545-3.9-.2,0-.257.059-.693.554a19.9,19.9,0,0,1-5.288,4.239,4.89,4.89,0,0,1-1.228.455c-.04,0-.138,0-.138-.119a6.163,6.163,0,0,1,.911-.733c5.169-3.743,7.525-8.873,7.467-9.189A.224.224,0,0,0,953.431,3657.636Z" fill="#f6f7f2"/>
    <path id="パス_271" data-name="パス 271" d="M965.99,3668.747c4.061-2.3,6.773-5.525,6.773-6.139s-2.356-2.12-2.851-2.12c-.456,0-2.853,2.595-3.506,2.595a.093.093,0,0,1-.1-.1,6.452,6.452,0,0,1,.713-.852c2.357-2.555,3.981-5.347,3.981-6.476,0-.159-.317-.793-.317-.931,0-.119.257-.119.376-.119a1.769,1.769,0,0,1,1.783,1.168c0,.119-.218.654-.218.773,0,.3.416.337.673.337a12.1,12.1,0,0,0,2.971-.476,4.754,4.754,0,0,1,.734-.435c.2,0,1.624.891,1.624,1.525,0,.3-.139.356-.495.515-.3.138-.377.237-.971,1.168-.278.436-1.624,2.318-1.863,2.714-.177.277-.217.336-.217.495,0,.178.02.218.377.673a2.771,2.771,0,0,1,.831,1.743.853.853,0,0,1-.852.951c-.416,0-.495-.139-1.247-1.406-.04-.08-.258-.456-.456-.456-.178,0-.3.139-.693.554a17.107,17.107,0,0,1-7.308,4.774c-.04,0-.219,0-.179-.178C965.574,3668.965,965.614,3668.965,965.99,3668.747Zm10.081-10.972c0-.218-.2-.277-.336-.277-.3,0-2.04.257-2.4.257a1.809,1.809,0,0,1-.594-.079,1.317,1.317,0,0,0-.476-.079.311.311,0,0,0-.237.079,16.162,16.162,0,0,0-1.684,2.218c0,.278.179.337.674.535a22.342,22.342,0,0,1,2.179,1.01,1.118,1.118,0,0,0,.455.139C974.091,3661.5,976.071,3658.448,976.071,3657.775Z" fill="#f6f7f2"/>
    <path id="パス_272" data-name="パス 272" d="M993,3659.577c.772.476.851.555.851.733,0,.119-.217.674-.237.792a19.152,19.152,0,0,0-.119,3.506c0,.535.019,1.6.06,2.376.019.238.138,1.387.138,1.645,0,.2,0,.871-.476.871-.554,0-1.227-.852-1.227-1.387,0-.2.2-1.069.218-1.267.118-1.07.2-2.594.2-3.644,0-.713,0-2.793-.515-2.793-.1,0-.177.079-.336.238a21.783,21.783,0,0,1-5.624,3.783c-.06,0-.1-.04-.1-.119a.179.179,0,0,1,.059-.139c.515-.455,1.07-.911,1.387-1.188,4.674-4,6.219-7.368,6.219-7.922a1.128,1.128,0,0,0-.158-.555,2.081,2.081,0,0,1-.139-.317.2.2,0,0,1,.2-.159c.3,0,2.3.832,2.3,1.585a.5.5,0,0,1-.178.4,5.666,5.666,0,0,0-1.347,1.624c-.336.475-.97,1.189-1.347,1.664A.319.319,0,0,0,993,3659.577Z" fill="#f6f7f2"/>
    <path id="パス_273" data-name="パス 273" d="M1007.816,3662.608a6.9,6.9,0,0,1-3.664,3.763.093.093,0,0,1-.1-.1,5.611,5.611,0,0,1,.792-1.05c2.179-2.991,2.4-5.15,2.4-5.8a4.348,4.348,0,0,0-.337-1.7,1.441,1.441,0,0,1-.079-.356c0-.06.019-.1.1-.1.138,0,2.238.673,2.238,1.683C1009.163,3659,1008.153,3661.855,1007.816,3662.608Zm3.209,1.841c0-.1.1-.613.118-.713.06-.376.079-1.94.079-2.436a12.136,12.136,0,0,0-.376-3.723,5.1,5.1,0,0,1-.258-.713c0-.079.08-.1.12-.1.1,0,2.178.356,2.178,1.386,0,.238-.277,1.268-.316,1.486-.08.535-.159,2.931-.159,3.585,0,.257.02.653.377.653.594,0,2.416-1.307,4.317-3.228.337-.337,2.021-2.12,2.1-2.12a.086.086,0,0,1,.079.08c0,.158-1.149,2.614-4.615,5.664a11.039,11.039,0,0,0-1.367,1.268c-.336.376-.514.515-.653.534C1012.074,3666.172,1011.025,3665,1011.025,3664.449Z" fill="#f6f7f2"/>
    <path id="パス_274" data-name="パス 274" d="M1030.176,3656.21c.93,0,1.03,0,1.267-.336.317-.456.337-.5.495-.5a2.746,2.746,0,0,1,1.446,1.128c0,.218-.119.218-1.069.218h-3.526c-1.723,0-2.3.04-2.495.06-.06,0-.357.039-.416.039-.08,0-.12-.039-.178-.119l-.377-.455c-.079-.1-.1-.1-.1-.139,0-.02.039-.04.079-.04.139,0,.753.06.872.06.97.04,1.783.079,2.713.079Zm-.694,2.417c.436,0,.555,0,.813-.4.119-.2.3-.495.455-.495.2,0,1.188.912,1.188,1.169,0,.238-.257.238-.653.238h-2.991c-.4,0-.812,0-1.287.039-.08,0-.416.04-.5.04s-.119-.06-.158-.119l-.337-.436c-.059-.079-.059-.1-.059-.139,0-.019.02-.039.059-.039.079,0,.456.059.535.059.4.04,1.307.08,1.684.08Zm-.118,2.4c.416,0,.474,0,.673-.257.337-.476.435-.634.555-.634.277,0,1.009.931,1.009,1.188,0,.238-.237.238-.653.238h-2.614c-.317,0-.852,0-1.287.02-.08.019-.436.059-.5.059s-.1-.04-.138-.119l-.337-.455c-.06-.079-.06-.1-.06-.119s0-.06.04-.06c.02,0,.455.079.555.079.534.04,1.089.06,1.683.06Zm-1.05,6.912c-.179,0-.634,0-.634.476,0,.1.039.613.039.733,0,.3,0,1.049-.95,1.049-.535,0-.535-.317-.535-.455,0-.1.02-.515.04-.614.039-1.05.079-2.318.079-3.288,0-.495-.019-1.089-.059-1.743,0-.059-.04-.535-.04-.574,0-.079.02-.278.159-.278a3.977,3.977,0,0,1,1.188.436,1.449,1.449,0,0,0,.693.139h1.169a.885.885,0,0,0,.871-.416c.178-.258.258-.3.356-.3.238,0,1.11.574,1.11.832a.756.756,0,0,1-.159.356c-.218.238-.218.317-.218,1.01,0,.357.139,2.06.139,2.456a.948.948,0,0,1-1.05,1.01c-.237,0-.237,0-.376-.534-.08-.3-.4-.3-.614-.3Zm.931-14.319c.475,0,.555,0,.772-.337.079-.119.258-.4.455-.4a2.313,2.313,0,0,1,1.209,1.03c0,.237-.277.237-.654.237h-2.416c-.4,0-.792,0-1.287.02-.079,0-.416.06-.495.06-.06,0-.119-.08-.159-.119l-.317-.456c-.019-.02-.059-.059-.059-.1,0-.059.04-.079.1-.079a4.887,4.887,0,0,1,.535.079c.971.06,1.249.06,1.644.06Zm-1.03,10.735c-.634,0-.634.2-.634,1.109,0,1.861,0,1.94.654,1.94h1.287c.634,0,.634-.158.634-1.723,0-1.188,0-1.326-.634-1.326Zm2.832,6.04c5.526-1.584,8.754-4.5,9.586-5.565.119-.159.555-.971.733-.971.079,0,1.8,1.01,1.8,1.327,0,.159-.079.2-.713.436a14.38,14.38,0,0,0-1.843,1.208,23.205,23.205,0,0,1-6.714,3.268,18.392,18.392,0,0,1-2.852.436.211.211,0,0,1-.119-.04C1030.928,3670.47,1030.948,3670.411,1031.047,3670.391Zm6.774-16.36c0,.159.06.318.356.813a12.075,12.075,0,0,0,4.813,4.753,10.087,10.087,0,0,1,1.01.575c0,.039-.178.059-.238.059a3.436,3.436,0,0,0-.99.158,6.175,6.175,0,0,1-.95.5c-.219,0-1.248-1.089-1.466-1.327a11.6,11.6,0,0,1-2.714-4.258c-.177-.515-.177-.574-.337-.574a.216.216,0,0,0-.177.138c-.436.654-1.07,1.723-1.486,2.377-2.357,3.644-4.041,4.635-4.041,4.437a.242.242,0,0,1,.08-.178c1.624-1.843,4-6.22,4.218-8.26.08-.713.08-.733.238-.733.139,0,.257.04.991.416.792.4.871.456.891.595C1038.039,3653.6,1037.821,3653.933,1037.821,3654.031Zm-4.238,9.171c2.277-2.377,2.99-3.922,3.03-4.4.059-.515.059-.575.2-.575.08,0,1.11.535,1.308.634.514.278.574.3.574.456s-.1.2-.455.4c-.139.079-2.1,2.119-2.516,2.495a12.554,12.554,0,0,1-2.456,1.9,5.088,5.088,0,0,1-.891.416c-.02,0-.059,0-.059-.04C1032.3,3664.469,1033.423,3663.38,1033.583,3663.2Zm1.663,2.337c1.7-1.426,3.228-2.813,3.545-4,.1-.337.1-.356.238-.356.158,0,1.664.851,1.664,1.129,0,.158-.159.257-.555.475-.356.2-1.723,1.386-2,1.6a13.957,13.957,0,0,1-4.812,2.694c-.1.02-.158,0-.158-.02C1033.127,3667,1034.929,3665.8,1035.246,3665.539Z" fill="#f6f7f2"/>
    <path id="パス_275" data-name="パス 275" d="M1061.484,3660.013c-.475,0-.674.079-.713.614-.258,3.664-.356,4.853-1.09,6.912a6.052,6.052,0,0,1-1.88,2.793c-.081,0-.1-.04-.1-.059,0-.08.258-.456.258-.555,0-.158-.079-.158-.734-.158h-5.209c-.495,0-.514.059-.692.514a1,1,0,0,1-.99.654c-.179,0-.278-.1-.278-.4,0-1.486.1-8.833.1-10.5,0-1.387-.02-4.972-.179-6.1a6.9,6.9,0,0,1-.178-.673c0-.079.08-.079.159-.079.594,0,1.8.535,1.8.871,0,.08-.238.377-.277.456a16.435,16.435,0,0,0-.079,2.06c0,1.426.039,8.5.039,10.1,0,.039,0,.178.079.178.3,0,2.456-5.288,2.456-6.417a.286.286,0,0,0-.3-.317c-.2,0-1.287.1-1.465.1-.08,0-.1-.04-.178-.139l-.377-.455c-.1-.1-.1-.1-.1-.119,0-.04.06-.06.079-.06.337,0,1.961.139,2.337.139.4,0,.516-.2.535-.475,0-.139.02-1.7.02-1.961a31.6,31.6,0,0,0-.139-3.605c-.019-.138-.277-.712-.277-.752s.04-.04.079-.04c.021,0,1.129.2,1.406.277.3.079.773.2.773.436,0,.1-.475.416-.555.515-.059.06-.059.1-.059.376,0,.654-.1,3.882-.1,4.635,0,.4.1.594.555.594a.8.8,0,0,0,.653-.2c.1-.079.495-.614.634-.614.217,0,1.149,1.01,1.149,1.07,0,.277-.377.277-1.05.277h-1.288c-.4,0-.613.119-.613.713,0,.4.139.515.534.832,1.288.99,1.783,1.366,1.783,2.06a.935.935,0,0,1-.793.891c-.316,0-.356-.1-.593-1.05-.159-.594-.5-1.406-.753-1.406-.139,0-.139.257-.139.317,0,.237.1,4.516.1,5.268,0,.773-.833.911-1.09.911-.3,0-.337-.217-.337-.455,0-.694.059-4.06.059-4.833,0-.039,0-.218-.1-.218-.04,0-.079.02-.139.159a11.877,11.877,0,0,1-2.437,3.842c-.356.416-.356.455-.356,1.426,0,.376.04.674.634.674h2.852c.832,0,1.089,0,1.268-.337.337-.575.376-.654.555-.654.256,0,1.168.991,1.445.991.119,0,.179-.08.238-.218a18.549,18.549,0,0,0,1.109-7.408c0-.535-.039-5.169-.08-5.645-.038-.495-.177-1.564-.177-1.644,0-.059.019-.079.1-.079.218,0,1.169.4,1.387.4a14.993,14.993,0,0,0,3.743-1.485c.12-.06.574-.436.713-.436,0,0,1.7.891,1.7,1.248,0,.139-.039.139-.732.238-.634.1-3.823.555-4.556.634-.614.059-.693.079-.772.3-.039.138-.079,2.872-.079,3.268,0,1.069,0,1.287.693,1.287h2.892a2.452,2.452,0,0,0,.97-.079c.178-.08.694-1.05.911-1.05.238,0,.951,1.228.951,1.386,0,.119-.12.179-.2.218a3.979,3.979,0,0,1-.99.04h-1.148c-.318,0-.594,0-.674.436-.039.178-.039,5.11-.039,5.585,0,1.109.1,2.357.139,2.852a5.057,5.057,0,0,1,.039.555,1.027,1.027,0,0,1-1.089,1.207c-.337,0-.495-.1-.495-.574,0-.059.059-.752.059-.832.02-.316.1-3.842.1-4.3,0-.613-.02-3.683-.02-4.317,0-.535-.238-.614-.693-.614Zm-7.863-2.733a.806.806,0,0,1-.812.911c-.4,0-.416-.139-.614-1.347a9.011,9.011,0,0,0-.277-1.287c-.02-.079-.139-.357-.139-.416s.04-.04.079-.02C1052.453,3655.458,1053.621,3656.468,1053.621,3657.28Zm3.664-2.238c.2,0,1.327.772,1.327,1.069,0,.119,0,.139-.436.317a9.265,9.265,0,0,0-1.228,1.406,5.426,5.426,0,0,1-.831.713c-.021,0,.752-1.921.831-2.3.04-.179.119-.911.159-1.05C1057.146,3655.1,1057.186,3655.042,1057.285,3655.042Z" fill="#f6f7f2"/>
    <path id="パス_276" data-name="パス 276" d="M1073.426,3663.063c0-.594.554-1.228,1.9-2.792a9.121,9.121,0,0,0,1.683-2.952c0-.119-.138-.138-.217-.138-.2,0-1.01.158-1.189.158a2.1,2.1,0,0,1-1.762-1.743c0-.059,0-.138.119-.138a4.4,4.4,0,0,1,.752.376,3.15,3.15,0,0,0,1.307.357c1.624,0,1.624-.535,1.624-.932a1.578,1.578,0,0,0-.158-.692c-.06-.1-.476-.456-.476-.575,0-.158.515-.317.872-.317.475,0,.97.178,1.01.614.02.258.1.3.892.357.138,0,.891.1.891.515,0,.653-1.446,1.208-2.357,1.564-.3.119-.317.159-.753,1.169a15.422,15.422,0,0,1-1.069,2.139c-.1.178-.139.238-.139.317a.073.073,0,0,0,.079.079,3.987,3.987,0,0,0,.615-.218,1.845,1.845,0,0,1,.772-.158,1.787,1.787,0,0,1,1.684,1.208c.138.336.158.376.2.376a9.266,9.266,0,0,0,.812-1.069c.654-.912,1.942-2.714,3.664-2.714a1.869,1.869,0,0,1,1.862,1.763c0,.931-1.565,1.584-2.792,2.119-.495.218-2.734,1.109-3.09,1.327-.318.2-.337.416-.337.832,0,.178.04,1.01.04,1.188,0,.317,0,1.446-.733,1.446-.535,0-.614-.653-.614-1.01,0-.2.059-1.149.059-1.168,0-.08,0-.238-.139-.238-.158,0-1.921,1.228-1.921,2.357,0,1.366,1.981,1.366,2.555,1.366a6.077,6.077,0,0,0,1.268-.119c.277-.039,1.544-.356,1.8-.356.416,0,.971.2.971.673,0,1.228-3.07,1.307-3.546,1.307-2.514,0-3.842-1.029-3.842-2.594,0-1.267.753-1.9,2.615-3.407a.843.843,0,0,0,.3-.693c0-.891-.158-2-.95-2a3.407,3.407,0,0,0-2.436,2.1c-.218.495-.436.971-1.07.971C1073.8,3663.717,1073.426,3663.6,1073.426,3663.063Zm5.05-7.487c.04,0,.991-.257.991-.475,0-.257-.5-.3-.674-.3-.277,0-.357.555-.357.634S1078.436,3655.576,1078.476,3655.576Zm1.8,6.418c0,.039.019.1.079.1s3.961-1.584,3.961-2.891a.609.609,0,0,0-.693-.594C1081.982,3658.607,1080.279,3661.677,1080.279,3661.994Z" fill="#f6f7f2"/>
    <path id="パス_277" data-name="パス 277" d="M1098.161,3657.834a.832.832,0,0,0,.614-.2c.079-.059.416-.475.535-.475.139,0,1.347.713,1.347.931,0,.1-.079.2-.3.356-.277.2-.3.3-.476,1.149a24.656,24.656,0,0,1-1.228,4.714,5.5,5.5,0,0,0-.277.812.515.515,0,0,0,.2.455c1.367,1.268,1.367,1.9,1.367,2.2,0,.752-.377,1.109-.714,1.109-.276,0-.356-.178-1.089-1.644-.3-.575-.4-.594-.535-.594a.339.339,0,0,0-.316.178,9.4,9.4,0,0,1-4.655,3.526c-.019,0-.059,0-.059-.04s.04-.079.4-.356c2.654-2.04,3.823-4.1,3.823-4.5,0-.456-1.248-1.426-1.347-1.426-.158,0-.179.118-.2.178-.079.4-.238,1.089-1.07,1.089-.217,0-.614-.119-.614-.4,0-.04.416-1.565.456-1.743.138-.475.852-4.08.852-4.3a.476.476,0,0,0-.536-.475c-.138,0-.911.059-1.009.059-.079,0-.119-.039-.179-.118l-.4-.456c-.08-.1-.08-.1-.08-.139s.04-.039.08-.039c.217,0,1.524.1,1.8.1a.507.507,0,0,0,.575-.416,32.787,32.787,0,0,0,.495-4.08c0-.1-.06-.575-.06-.594,0-.1.021-.159.139-.159a7.566,7.566,0,0,1,1.05.476c.891.435.99.5.99.673a.282.282,0,0,1-.139.257c-.079.06-.455.238-.514.3a22.9,22.9,0,0,0-.615,3.089c0,.357.278.495.595.495Zm-1.366.515c-.476,0-.555.238-.615.614-.039.376-.772,4.219-.772,4.4,0,.238.2.317.317.376.238.1,1.327.713,1.386.713.317,0,.4-.257.535-.673a31.4,31.4,0,0,0,.99-4.932c0-.495-.435-.495-.633-.495Zm11.348.377c.139-.02.278-.079.278-.258a6.512,6.512,0,0,0-.773-1.268c-.119-.138-.891-1.089-.891-1.089,0-.059.079-.079.119-.079.4,0,3.664,2.079,3.664,4.021a.886.886,0,0,1-.773.97c-.337,0-.356-.139-.594-.851-.3-.951-.356-1.05-.673-1.05-.1,0-3.624.812-4.318.95-1.822.337-1.862.4-2.139.694-.317.356-.436.416-.575.416-.416,0-.93-2.239-.93-2.318a.062.062,0,0,1,.059-.059,5.089,5.089,0,0,1,.594.178c.4.04,1.09.059,1.209.059.2,0,.495,0,.613-.316a29.5,29.5,0,0,0,1.426-5.546c.06-.693.06-.773.238-.773a4.709,4.709,0,0,1,1.288.416c.495.179.653.238.653.476a.322.322,0,0,1-.1.218c-.059.059-.376.317-.435.376-.079.079-1.11,2.08-1.327,2.476-.2.356-1.367,2.357-1.367,2.416a.265.265,0,0,0,.278.238C1104.757,3659.023,1106.242,3658.884,1108.143,3658.726ZM1103.529,3669c-.575,0-.575.336-.575.634,0,.713-.752.772-1.07.772-.158,0-.356,0-.356-.554,0-.595.079-3.447.079-4.1,0-1.129-.039-2.258-.06-2.674,0-.1-.038-.575-.038-.614,0-.139.019-.238.177-.238s.239.04.99.377a2.244,2.244,0,0,0,.892.178h3.783a.691.691,0,0,0,.615-.3c.1-.218.2-.436.356-.436.02,0,1.684.792,1.684,1.188,0,.119-.04.159-.3.377s-.278.475-.278,1.069.1,3.565.1,4.239,0,1.406-1.05,1.406c-.554,0-.554-.159-.554-.733,0-.475-.179-.594-.536-.594Zm-.04-5.7a.485.485,0,0,0-.555.554v4.08a.487.487,0,0,0,.555.555h4c.574,0,.574-.4.574-.594,0-.3-.019-4.041-.019-4.1a.479.479,0,0,0-.555-.495Z" fill="#f6f7f2"/>
    <path id="パス_278" data-name="パス 278" d="M1123.672,3668.965c-.337,0-.376,0-.376-.1,0-.059.059-.1.574-.257,2.614-.852,6.238-2.575,6.238-6.16a4.12,4.12,0,0,0-3.842-4.04c-.3,0-.337.118-.851,1.326a16.7,16.7,0,0,1-1.506,2.833.518.518,0,0,0-.1.277.389.389,0,0,0,.3.377c.674.356.892.514.892.99,0,.515-.416.634-.734.634a1.956,1.956,0,0,1-1.108-.337c-.277-.139-.3-.158-.416-.158-.2,0-.238.039-.595.415-1.6,1.684-2.911,2.179-3.466,2.179-1.287,0-1.5-2.02-1.5-2.813a6.544,6.544,0,0,1,2.079-4.476.634.634,0,0,0,.217-.514c0-.179-.792-2.556-.89-2.833-.06-.158-.416-.871-.416-.93,0-.02,0-.06.039-.06a2.1,2.1,0,0,1,1.6,1.069,8.432,8.432,0,0,0,.516,1.961.406.406,0,0,0,.356.218,5.708,5.708,0,0,0,.951-.416,9.6,9.6,0,0,1,3.089-.713.513.513,0,0,0,.5-.257,4.51,4.51,0,0,0,.277-1.466,3.9,3.9,0,0,0-.416-1.644.335.335,0,0,1-.04-.1c0-.059.159-.059.2-.059.892,0,1.961.733,1.961,1.208a18.517,18.517,0,0,0-.693,2.04c0,.317.217.357.377.376,2.772.476,4.733,2.456,4.733,5.071C1131.614,3666.846,1127.2,3668.965,1123.672,3668.965Zm-2.218-5.8a8.091,8.091,0,0,1-1.348-2.278c-.1-.277-.178-.475-.356-.475a4.006,4.006,0,0,0-1.6,3.367c0,1.07.4,1.783.852,1.783a4.781,4.781,0,0,0,2.594-2.04A.452.452,0,0,0,1121.454,3663.162Zm3.009-4.852a6.482,6.482,0,0,0-3.009.732c-.337.2-.535.337-.535.614,0,.337,1.128,2.516,1.664,2.516.2,0,.277-.04.692-.713a12.517,12.517,0,0,0,1.466-2.912C1124.741,3658.31,1124.543,3658.31,1124.463,3658.31Z" fill="#f6f7f2"/>
    <path id="パス_279" data-name="パス 279" d="M1149.492,3664.509a3.134,3.134,0,0,0-3.347-3.01c-2.614,0-4.3,2.713-4.654,3.327-.4.673-.595,1.05-1.129,1.05a.546.546,0,0,1-.575-.555c0-.5.159-.931,1.565-2.575a65.117,65.117,0,0,0,4.476-5.961c.654-.931.931-1.347.931-1.565,0-.139-.138-.277-.377-.277-.732,0-1.9.99-2.238,1.267-.792.654-1.069.713-1.406.713-.931,0-1.545-1.267-1.545-1.366,0-.06.06-.06.476-.06a9.6,9.6,0,0,0,3.07-.713c1.228-.534,1.366-.594,1.8-.594.793,0,2.08.5,2.08,1.367,0,.574-.456.891-1.406,1.545a12.063,12.063,0,0,0-3.169,4.06c0,.059.059.138.119.138.118-.039.376-.138.495-.178a4.782,4.782,0,0,1,1.742-.317,4.276,4.276,0,0,1,4.457,4.12c0,2.515-2.437,4.278-4.952,4.278-1.96,0-3.366-1.05-3.366-2.04a1.905,1.905,0,0,1,1.96-1.6,2.923,2.923,0,0,1,2.258,1.267c.277.357.4.535.673.535A2.929,2.929,0,0,0,1149.492,3664.509Zm-5.09,1.783a.808.808,0,0,0-.832.692c0,.516.852.932,1.7.932a.328.328,0,0,0,.337-.357A1.348,1.348,0,0,0,1144.4,3666.292Z" fill="#f6f7f2"/>
  </g>
</svg>
