<svg id="ochart_q_1_active" xmlns="http://www.w3.org/2000/svg" width="50.101" height="50.101" viewBox="0 0 50.101 50.101">
  <circle id="楕円形_6" data-name="楕円形 6" cx="25.05" cy="25.05" r="25.05" fill="#333"/>
  <g id="グループ_13" data-name="グループ 13" transform="translate(-236.752 -182.052)">
    <path id="パス_25" data-name="パス 25" d="M261.172,213.845l-.792.973-1.715-1.419a7.185,7.185,0,0,1-3.15.825,6.311,6.311,0,0,1-3.695-1.237,6.617,6.617,0,0,1-2.112-5.064,6.736,6.736,0,0,1,2.112-5.064,6.136,6.136,0,0,1,7.389,0,7.19,7.19,0,0,1,.413,9.732Zm-4.948-2.458.758-.924,1.5,1.2a5.6,5.6,0,0,0,1.27-3.744,5.455,5.455,0,0,0-1.319-3.761,4.267,4.267,0,0,0-5.839,0,6.018,6.018,0,0,0,0,7.522,4.059,4.059,0,0,0,2.92,1.154,4.44,4.44,0,0,0,1.929-.445Z" fill="#f7f8f3"/>
    <path id="パス_26" data-name="パス 26" d="M268.831,213.845V205.6h-2.656v-1.122c2.359-.362,2.507-.527,3.068-2.325h.973v11.7Z" fill="#f7f8f3"/>
  </g>
</svg>
