<svg id="ochart_h" xmlns="http://www.w3.org/2000/svg" width="306.455" height="51.479" viewBox="0 0 306.455 51.479">
  <g id="グループ_34" data-name="グループ 34" transform="translate(-806.695 -3504.278)">
    <path id="パス_155" data-name="パス 155" d="M925.574,3555.757c-2.78,0-4.71-2.275-4.71-5.517s1.915-5.531,4.71-5.531c2.766,0,4.7,2.276,4.7,5.531C930.269,3553.467,928.354,3555.757,925.574,3555.757Zm3.327-5.647c0-1.325-.374-4.925-3.327-4.925-3.227,0-3.342,4.234-3.342,5.185,0,1.383.418,4.912,3.342,4.912C928.786,3555.282,928.9,3551.09,928.9,3550.11Z" fill="#333"/>
    <path id="パス_156" data-name="パス 156" d="M942.193,3544.882c0,.015.937,2.276.937,2.435a.269.269,0,0,1-.274.258c-.13,0-.158-.043-.461-.461a3.824,3.824,0,0,0-3.111-1.929c-2.262,0-3.429,2.765-3.429,5.257,0,3.342,1.959,4.653,3.674,4.653a3.528,3.528,0,0,0,3.111-2.046c.331-.562.331-.576.447-.576a.224.224,0,0,1,.215.23,4.741,4.741,0,0,1-.82,1.455,4.2,4.2,0,0,1-3.386,1.6c-3.039,0-4.522-2.463-4.522-5.286,0-3.371,2.088-5.762,4.522-5.762a5,5,0,0,1,1.225.173,7.079,7.079,0,0,0,.864.23.591.591,0,0,0,.389-.144c.23-.23.26-.259.375-.259A.331.331,0,0,1,942.193,3544.882Z" fill="#333"/>
    <path id="パス_157" data-name="パス 157" d="M953.98,3549.88c.39,0,.39-.086.39-1.987,0-2.089,0-2.45-1.34-2.45-.115,0-.374,0-.374-.244,0-.216.259-.216.389-.216h3.672c.1,0,.375,0,.375.23,0,.245-.187.245-.633.245a.912.912,0,0,0-.879.533c-.115.3-.13.346-.13,5.56a23.081,23.081,0,0,0,.115,2.924c.2.548.792.548,1.066.548.216,0,.461,0,.461.23s-.274.231-.375.231h-3.672c-.145,0-.389,0-.389-.216,0-.231.259-.231.417-.231a1.405,1.405,0,0,0,1.009-.288c.288-.288.288-.3.288-2.938,0-1.34,0-1.456-.39-1.456h-3.874a.383.383,0,0,0-.331.173c-.058.159-.058,1.585-.058,1.859,0,2.362,0,2.65,1.354,2.65.1,0,.36,0,.36.245,0,.2-.259.2-.388.2h-3.674c-.086,0-.374,0-.374-.231s.186-.23.634-.23a.915.915,0,0,0,.935-.735c.059-.345.059-3.846.059-5.69a20.4,20.4,0,0,0-.1-2.593c-.187-.547-.792-.547-1.065-.547-.216,0-.461,0-.461-.245,0-.23.273-.23.374-.23h3.674c.143,0,.388,0,.388.216,0,.244-.245.244-.418.244-1.3,0-1.3.433-1.3,2.277,0,.259,0,1.844.058,1.973a.347.347,0,0,0,.331.187Z" fill="#333"/>
    <path id="パス_158" data-name="パス 158" d="M968.461,3555.484c-.159,0-.346-.043-.346-.231,0-.23.23-.23.576-.23a.633.633,0,0,0,.591-.634,7.841,7.841,0,0,0-.533-1.686c-.318-.806-.361-.907-.835-.907h-3.126c-.533,0-.591.144-.821.792a11.478,11.478,0,0,0-.519,1.873c0,.562.461.562.807.562.172,0,.331.028.331.23,0,.231-.216.231-.331.231h-2.766c-.115,0-.3-.015-.3-.216,0-.245.159-.245.49-.245a1.211,1.211,0,0,0,1.095-.577,42.794,42.794,0,0,0,1.714-4.854c.187-.576,1.109-3.4,1.3-4.047.145-.5.23-.836,1.254-.836a.327.327,0,0,1,.316.231,9.4,9.4,0,0,1,.476,1.3c1.009,3.125,1.095,3.471,2,6.136.821,2.449.922,2.651,1.743,2.651.187,0,.331.086.331.245,0,.216-.231.216-.331.216Zm-.677-4.164c.158,0,.36-.071.36-.23,0-.3-1.369-4.307-1.628-5.085-.087-.244-.115-.374-.215-.374s-.1.043-.26.518c-.4,1.168-1.528,4.826-1.528,4.956,0,.215.217.215.405.215Z" fill="#333"/>
    <path id="パス_159" data-name="パス 159" d="M980.248,3544.983c.691,0,3.974.072,3.974,2.492a2.8,2.8,0,0,1-1.915,2.52c-.505.245-.561.274-.561.433a25.428,25.428,0,0,0,1.5,3.442,1.793,1.793,0,0,0,1.7,1.153c.145,0,.432,0,.432.23,0,.2-.287.231-.36.231h-1.8a.7.7,0,0,1-.677-.418c-.087-.144-1.11-2.377-1.268-2.737-.792-1.743-.893-1.974-1.4-1.974h-.792c-.1,0-.288.058-.331.173-.059.144-.059,2.046-.059,2.377,0,1.743,0,2.118,1.326,2.118.1,0,.3,0,.3.23s-.259.231-.417.231h-3.559c-.143,0-.359-.029-.359-.231,0-.23.2-.23.4-.23.995,0,1.139-.461,1.182-.995.029-.489.029-4.45.029-5.128a23.2,23.2,0,0,0-.115-2.909c-.187-.533-.806-.533-1.139-.533-.086,0-.388,0-.388-.259,0-.216.26-.216.431-.216Zm-.52.475c-1.037,0-1.037.649-1.037,2.132,0,2.262,0,2.3.39,2.3h1.167a2.326,2.326,0,0,0,2.606-2.276c0-1.009-.547-2.161-2.42-2.161Z" fill="#333"/>
    <path id="パス_160" data-name="パス 160" d="M996.636,3544.983c.778,0,.951,0,1.2.648.115.317.734,1.944.734,2.089a.222.222,0,0,1-.23.216c-.116,0-.159-.058-.491-.6-.762-1.254-1.613-1.873-2.591-1.873-.563,0-.909.231-1,.72-.042.26-.042,3.515-.042,4.12,0,.4,0,3.73.042,3.975.129.735.807.75,1.2.75.533,0,.648,0,.648.23s-.2.231-.432.231h-4.034c-.2,0-.417,0-.417-.231s.231-.23.317-.23c.849,0,1.383,0,1.527-.75a38.441,38.441,0,0,0,.043-4.076c0-3.558,0-3.947-.1-4.22a.9.9,0,0,0-.922-.519,3.284,3.284,0,0,0-2.592,1.859c-.346.561-.375.619-.505.619a.234.234,0,0,1-.23-.216c0-.115.648-1.844.763-2.132.231-.6.461-.6,1.181-.6Z" fill="#333"/>
  </g>
  <g id="グループ_36" data-name="グループ 36" transform="translate(-806.695 -3504.278)">
    <g id="グループ_35" data-name="グループ 35">
      <path id="パス_161" data-name="パス 161" d="M820.206,3514.534c0,1.156-2.66,2.205-3.5,2.555-.49.176-.526.315-.595,1.541-.07.77-.07,3.605-.07,3.78,0,.21,0,.63.314.63.106,0,2.976-1.19,3.536-1.4,3.465-1.295,5.04-1.4,5.951-1.4a5.359,5.359,0,0,1,5.39,5.285c0,4.621-4.865,6.721-7.735,6.721-1.995,0-3.606-1.015-3.606-2.835a3.119,3.119,0,0,1,1.75-2.765.187.187,0,0,1,.175.174c0,.1-.07.176-.14.281a1.447,1.447,0,0,0-.315.945c0,1.68,1.926,1.68,2.275,1.68,2.311,0,5.251-1.54,5.251-4.341a3.626,3.626,0,0,0-3.36-3.85c-.98,0-3.15.455-7.246,2.625-1.96,1.051-2.17,1.156-2.17,1.75,0,.386.1,1.961.1,2.311,0,1.61-.526,3.92-1.786,3.92-.945,0-1.33-.735-1.61-1.3-1.12-2.17-1.295-2.17-1.75-2.17a2.916,2.916,0,0,0-.875.21,6.916,6.916,0,0,1-1.33.7c-.385,0-2.17-1.05-2.17-2.206,0-.629.385-1.364,1.015-1.364.21,0,1.225.175,1.435.175.945,0,1.575-.175,3.64-1.19,1.785-.876,2-.981,2-1.961,0-.8-.035-3.78-.07-4.375,0-.245-.106-.77-.491-.77a8.2,8.2,0,0,0-1.61.315,7.507,7.507,0,0,1-2.485.665c-1.19,0-2.52-2.415-2.52-2.661a.248.248,0,0,1,.279-.245c.106,0,.526.14.63.14a10.167,10.167,0,0,0,1.611.175,15.282,15.282,0,0,0,4.445-1.05,26.034,26.034,0,0,0,.351-3.815,3.435,3.435,0,0,0-1.156-2.8,3.547,3.547,0,0,1-.49-.56c0-.315.561-.386.771-.386,2.344,0,3.6,1.716,3.6,2.381a14.118,14.118,0,0,1-.735,1.82,18.687,18.687,0,0,0-.35,2.275c0,.14.069.385.279.385.246,0,1.226-.385,1.226-.875,0-.07-.175-.42-.175-.49,0-.035.07-.1.14-.14C818.526,3512.959,820.206,3513.449,820.206,3514.534Zm-7.981,13.407c0,.525.946,1.645,1.47,1.645.49,0,.981-.981.981-2.695,0-.14,0-.491-.106-.56C814.466,3526.331,812.225,3527.451,812.225,3527.941Zm23-10.886c0,.735-.42,1.679-1.155,1.679-.21,0-1.015-.069-1.189-.069-.175.035-.911.245-1.051.245a.164.164,0,0,1-.175-.176,2.46,2.46,0,0,1,.105-.279,1.847,1.847,0,0,0,.14-.63c0-1.4-1.75-1.89-2.94-1.89a3.038,3.038,0,0,0-1.365.349.772.772,0,0,1-.35.1c-.106,0-.141-.034-.141-.139a4.479,4.479,0,0,1,3.781-2.206C833.578,3514.044,835.222,3515.444,835.222,3517.055Z" fill="#333"/>
      <path id="パス_162" data-name="パス 162" d="M869.41,3517.72a30.851,30.851,0,0,0,8.471,2.765c.139,0,.734.1.734.245,0,.1-.489.245-.63.28a6.06,6.06,0,0,0-2.66,1.89c-.105.14-.49.875-.665.875-.21,0-7.806-3.675-11.237-9.276-.665-1.12-.769-1.225-1.014-1.225s-.316.07-1.085.875a41.617,41.617,0,0,1-10.361,8.156,30.327,30.327,0,0,1-5.5,2.241c-.1,0-.175-.071-.175-.1s3.746-2.346,4.06-2.556c4.726-2.975,9.732-8.331,10.222-10.956.034-.28.069-.385.314-.385.175,0,3.011,1.085,3.186,1.19.1.035.455.175.455.525a2.15,2.15,0,0,1-.141.49C863.459,3513.274,866.469,3516.214,869.41,3517.72ZM852.538,3509c-2.591,0-3.781.07-4.446.1-.1,0-.629.07-.735.07s-.175-.07-.315-.21l-.665-.8c-.14-.176-.14-.176-.14-.245s.035-.07.1-.07c.245,0,1.33.1,1.54.1,1.715.069,3.185.14,4.831.14h1.015c.735,0,.944-.35.944-.946a5.686,5.686,0,0,0-.279-1.855,5.311,5.311,0,0,1-.21-.7c0-.175.175-.245.385-.245.245,0,1.82.386,2.205.49,1.05.28,1.26.35,1.26.666,0,.209-.034.279-.525.909a.856.856,0,0,0-.245.631c0,.839.281,1.05,1.225,1.05h5.776c.315,0,1.05,0,1.05-.946a14.538,14.538,0,0,0-.105-1.575c-.036-.175-.21-.91-.21-1.05,0-.175.21-.245.385-.245.245,0,2.625.56,3.01.665s.6.245.6.561c0,.209-.14.35-.524.629a1.124,1.124,0,0,0-.456.98c0,.981.56.981,1.121.981h1.785c1.54,0,1.715,0,2.24-.595.979-1.156,1.085-1.3,1.4-1.3.21,0,3.255,1.856,3.255,2.311,0,.49-.7.49-1.855.49H869.13c-1.085,0-1.085.56-1.085,1.4,0,.21.035,1.4.035,1.575,0,1.295-1.051,1.5-1.785,1.5-.806,0-.946-.14-.946-1.33v-2.415c-.1-.665-.525-.735-1.085-.735h-5.6c-.806,0-1.3,0-1.3.98,0,.35.105,1.89.105,2.205,0,.665-.105.98-.42,1.19a2.485,2.485,0,0,1-1.33.49c-.6,0-.875-.385-.875-1.085,0-.28.034-1.61.034-1.855,0-1.365,0-1.925-1.085-1.925Zm2.485,17.887a17.88,17.88,0,0,1,2.7,1.645.87.87,0,0,1,.281.525c0,.42-.281.49-1.12.7-.106.035-3.117,2.38-3.676,2.8a21.546,21.546,0,0,1-5.321,3.046.113.113,0,0,1-.105-.1c0-.071,1.855-1.681,2.1-1.926,2.905-2.765,4.69-5.53,5-6.651A.22.22,0,0,1,855.023,3526.891Zm1.61-1.856c-2.73,0-3.746.035-4.446.1-.1,0-.63.071-.734.071s-.175-.071-.316-.21l-.665-.806c-.139-.175-.139-.175-.139-.245,0-.035.035-.07.1-.07.245,0,1.33.105,1.54.105,1.716.1,3.186.14,4.831.14h2.625c.351,0,1.05,0,1.05-.945,0-.42-.21-3.255-.279-3.6,0-.07-.21-.42-.21-.49s.069-.21.349-.21c.245,0,2.7.525,3.045.63.491.105.666.42.666.6,0,.21-.07.28-.6.735-.491.42-.491.63-.491,1.68,0,1.26,0,1.61,1.051,1.61h1.54c1.54,0,1.715,0,2.241-.595.979-1.155,1.084-1.295,1.4-1.295.21,0,3.255,1.89,3.255,2.311,0,.489-.7.489-1.856.489h-6.615c-1.051,0-1.051.631-1.051,1.751,0,2.485,0,3.885.071,5.95.035.595.035,1.436.035,1.855,0,1.12-.281,1.786-1.785,1.786-.771,0-.84-.63-.84-1.226,0-.455.1-2.555.1-3.01.035-1.33.035-2.625.035-4.235a21.228,21.228,0,0,0-.07-2.381c-.175-.49-.734-.49-1.015-.49Zm9.346,2.941c0-.1.175-.14.316-.14,1.3,0,9.275,2.205,9.275,5.11,0,1.121-.63,2-1.505,2-.665,0-.806-.176-1.89-1.786a16.631,16.631,0,0,0-6.021-5.04C866.119,3528.116,865.979,3528.011,865.979,3527.976Z" fill="#333"/>
      <path id="パス_163" data-name="パス 163" d="M904.758,3513.344c-.244,0-7.595,1.715-7.77,1.786a15.316,15.316,0,0,1-1.575.665,7.306,7.306,0,0,1-2.38-1.261,7.139,7.139,0,0,1-.84-2.03c0-.175.034-.28.21-.28.034,0,.8.21.91.245a6.239,6.239,0,0,0,1.855.35c1.19,0,7.771-.56,9.59-1.3a13.432,13.432,0,0,1,1.926-1.085c.84,0,2.976,1.785,2.976,2.66,0,.315-1.3,1.26-1.506,1.5-.7.84-3.465,4.936-4.025,5.741a1.151,1.151,0,0,0-.28.7c0,.315.07.385,1.54,1.19,1.576.91,7.841,4.446,7.841,7.631a1.512,1.512,0,0,1-1.435,1.54c-.8,0-.946-.245-2.17-2.415-2.415-4.236-5.5-6.9-6.266-6.9-.351,0-.455.1-1.226.98a35.139,35.139,0,0,1-9.345,7.491,8.626,8.626,0,0,1-2.17.805c-.071,0-.245,0-.245-.21a10.8,10.8,0,0,1,1.609-1.295c9.137-6.616,13.3-15.682,13.2-16.242A.394.394,0,0,0,904.758,3513.344Z" fill="#333"/>
      <path id="パス_164" data-name="パス 164" d="M928.377,3532.981c7.175-4.06,11.97-9.766,11.97-10.851s-4.165-3.745-5.04-3.745c-.8,0-5.041,4.585-6.2,4.585a.163.163,0,0,1-.175-.175,11.5,11.5,0,0,1,1.26-1.5c4.166-4.516,7.036-9.451,7.036-11.446,0-.28-.56-1.4-.56-1.645,0-.211.455-.211.666-.211,1.854,0,3.15,1.366,3.15,2.066,0,.21-.386,1.155-.386,1.365,0,.525.736.595,1.191.595a21.456,21.456,0,0,0,5.25-.84,8.492,8.492,0,0,1,1.295-.77c.35,0,2.871,1.575,2.871,2.7,0,.525-.246.63-.875.91-.526.245-.665.42-1.716,2.065-.489.77-2.87,4.1-3.29,4.8-.315.49-.385.595-.385.875,0,.315.035.385.665,1.19.84,1.085,1.47,1.855,1.47,3.081a1.506,1.506,0,0,1-1.505,1.679c-.735,0-.875-.244-2.205-2.484-.071-.141-.455-.806-.806-.806-.314,0-.524.245-1.224.98a30.228,30.228,0,0,1-12.916,8.436c-.071,0-.386,0-.316-.315C927.641,3533.366,927.712,3533.366,928.377,3532.981Zm17.816-19.392c0-.385-.35-.49-.595-.49-.525,0-3.605.455-4.235.455a3.191,3.191,0,0,1-1.051-.14,2.35,2.35,0,0,0-.84-.14.551.551,0,0,0-.42.14c-.035,0-2.975,3.5-2.975,3.921,0,.49.315.595,1.19.945a39.136,39.136,0,0,1,3.851,1.785,1.97,1.97,0,0,0,.8.245C942.693,3520.17,946.193,3514.779,946.193,3513.589Z" fill="#333"/>
      <path id="パス_165" data-name="パス 165" d="M977.514,3516.774c1.366.84,1.505.981,1.505,1.3,0,.211-.385,1.191-.42,1.4-.14.63-.21,1.365-.21,6.2,0,.944.036,2.835.105,4.2.035.42.245,2.45.245,2.905,0,.35,0,1.54-.84,1.54-.98,0-2.17-1.505-2.17-2.45,0-.35.35-1.89.385-2.24.21-1.891.349-4.586.349-6.441,0-1.26,0-4.935-.91-4.935-.174,0-.314.14-.594.42-3.431,3.29-9.311,6.685-9.942,6.685-.1,0-.175-.07-.175-.21a.315.315,0,0,1,.106-.244c.91-.806,1.89-1.611,2.45-2.1,8.261-7.071,10.991-13.022,10.991-14a1.977,1.977,0,0,0-.28-.98,3.933,3.933,0,0,1-.245-.56.345.345,0,0,1,.351-.28c.524,0,4.059,1.469,4.059,2.8a.887.887,0,0,1-.314.7,9.977,9.977,0,0,0-2.38,2.87c-.6.84-1.716,2.1-2.381,2.94A.565.565,0,0,0,977.514,3516.774Z" fill="#333"/>
      <path id="パス_166" data-name="パス 166" d="M1005.076,3522.13c-2.1,4.551-5.775,6.651-6.476,6.651a.163.163,0,0,1-.174-.176,9.976,9.976,0,0,1,1.4-1.854c3.851-5.286,4.236-9.1,4.236-10.257a7.679,7.679,0,0,0-.595-3.01,2.6,2.6,0,0,1-.14-.63c0-.1.035-.175.175-.175.245,0,3.955,1.19,3.955,2.975C1007.456,3515.759,1005.671,3520.8,1005.076,3522.13Zm5.671,3.255c0-.174.175-1.085.21-1.26.1-.665.139-3.43.139-4.3a21.465,21.465,0,0,0-.665-6.581,9.1,9.1,0,0,1-.455-1.26c0-.14.141-.175.21-.175.175,0,3.851.63,3.851,2.45,0,.42-.49,2.24-.561,2.626-.139.945-.279,5.18-.279,6.335,0,.455.035,1.155.665,1.155,1.05,0,4.27-2.31,7.631-5.705.6-.6,3.57-3.745,3.71-3.745a.15.15,0,0,1,.14.139c0,.28-2.03,4.621-8.156,10.011a19.5,19.5,0,0,0-2.415,2.241c-.6.665-.91.91-1.155.945C1012.6,3528.431,1010.747,3526.365,1010.747,3525.385Z" fill="#333"/>
      <path id="パス_167" data-name="パス 167" d="M1046.133,3510.824c1.646,0,1.821,0,2.241-.595.56-.8.595-.875.876-.875a4.85,4.85,0,0,1,2.554,2c0,.385-.21.385-1.889.385h-6.232c-3.045,0-4.059.07-4.41.105-.1,0-.63.07-.735.07-.14,0-.21-.07-.315-.21l-.665-.8c-.14-.175-.175-.175-.175-.245,0-.035.07-.07.14-.07.245,0,1.33.1,1.54.1,1.715.07,3.15.14,4.8.14Zm-1.224,4.27c.77,0,.98,0,1.435-.7.21-.35.525-.875.805-.875.35,0,2.1,1.611,2.1,2.066,0,.42-.455.42-1.156.42h-5.286c-.7,0-1.434,0-2.275.069-.14,0-.735.071-.875.071s-.21-.1-.279-.21l-.6-.771c-.1-.14-.1-.175-.1-.244,0-.036.035-.071.1-.071.14,0,.805.1.945.1.7.07,2.311.14,2.976.14Zm-.21,4.236c.735,0,.84,0,1.19-.455.595-.84.77-1.12.98-1.12.49,0,1.785,1.645,1.785,2.1,0,.42-.42.42-1.155.42h-4.62c-.561,0-1.505,0-2.276.035a8.455,8.455,0,0,1-.875.1c-.1,0-.175-.07-.245-.21l-.6-.805c-.1-.14-.1-.175-.1-.21s0-.1.07-.1c.035,0,.8.14.981.14.944.07,1.924.1,2.974.1Zm-1.856,12.216c-.314,0-1.12,0-1.12.84,0,.175.071,1.085.071,1.295,0,.525,0,1.855-1.681,1.855-.944,0-.944-.559-.944-.8,0-.176.034-.911.069-1.086.07-1.855.141-4.095.141-5.81,0-.875-.036-1.926-.106-3.081,0-.1-.07-.945-.07-1.015,0-.14.035-.49.28-.49a7.03,7.03,0,0,1,2.1.77,2.56,2.56,0,0,0,1.224.245h2.066a1.564,1.564,0,0,0,1.54-.735c.315-.455.455-.525.63-.525.421,0,1.961,1.015,1.961,1.47a1.333,1.333,0,0,1-.281.63c-.384.42-.384.561-.384,1.786,0,.63.245,3.64.245,4.34a1.676,1.676,0,0,1-1.856,1.785c-.42,0-.42,0-.665-.945-.141-.525-.7-.525-1.085-.525Zm1.646-25.308c.84,0,.979,0,1.365-.595.14-.21.455-.7.805-.7a4.1,4.1,0,0,1,2.136,1.82c0,.421-.491.421-1.156.421h-4.27c-.7,0-1.4,0-2.276.034-.139,0-.735.1-.875.1-.1,0-.21-.139-.28-.21l-.559-.8a.3.3,0,0,1-.106-.175c0-.1.07-.14.175-.14a8.713,8.713,0,0,1,.945.14c1.715.1,2.205.1,2.905.1Zm-1.82,18.973c-1.121,0-1.121.35-1.121,1.96,0,3.29,0,3.43,1.156,3.43h2.275c1.12,0,1.12-.28,1.12-3.045,0-2.1,0-2.345-1.12-2.345Zm5.006,10.675c9.765-2.8,15.471-7.945,16.941-9.836.21-.279.98-1.715,1.3-1.715.14,0,3.185,1.786,3.185,2.346,0,.28-.139.349-1.259.77a25.49,25.49,0,0,0-3.256,2.135,41.036,41.036,0,0,1-11.866,5.775,32.484,32.484,0,0,1-5.04.77.371.371,0,0,1-.21-.069C1047.465,3536.026,1047.5,3535.922,1047.675,3535.886Zm11.97-28.912c0,.28.106.559.63,1.435a21.348,21.348,0,0,0,8.506,8.4,17.722,17.722,0,0,1,1.785,1.015c0,.07-.314.1-.42.1a6.03,6.03,0,0,0-1.75.28,11,11,0,0,1-1.679.875c-.386,0-2.207-1.925-2.591-2.346a20.48,20.48,0,0,1-4.795-7.525c-.316-.91-.316-1.015-.6-1.015a.383.383,0,0,0-.314.244c-.771,1.156-1.891,3.046-2.626,4.2-4.165,6.441-7.141,8.191-7.141,7.841a.425.425,0,0,1,.141-.315c2.87-3.255,7.07-10.991,7.455-14.6.14-1.26.14-1.295.42-1.295.245,0,.455.07,1.751.735,1.4.7,1.54.805,1.575,1.051C1060.03,3506.2,1059.645,3506.8,1059.645,3506.974Zm-7.49,16.206c4.025-4.2,5.285-6.93,5.355-7.771.1-.91.1-1.015.35-1.015.14,0,1.96.945,2.311,1.12.91.491,1.014.526,1.014.805s-.175.351-.8.7c-.246.14-3.711,3.745-4.446,4.41a22.224,22.224,0,0,1-4.341,3.36,9,9,0,0,1-1.575.735c-.035,0-.1,0-.1-.07C1049.88,3525.421,1051.875,3523.5,1052.155,3523.18Zm2.939,4.131c3.011-2.521,5.707-4.971,6.267-7.071.175-.595.175-.63.42-.63.279,0,2.939,1.5,2.939,1.995,0,.28-.279.455-.979.84-.63.35-3.046,2.451-3.535,2.835-4.656,3.606-7.421,4.446-8.506,4.761-.176.035-.28,0-.28-.035C1051.349,3529.9,1054.535,3527.766,1055.094,3527.311Z" fill="#333"/>
      <path id="パス_168" data-name="パス 168" d="M1103.035,3517.545c-.841,0-1.191.14-1.261,1.085-.455,6.475-.63,8.576-1.925,12.216-.91,2.52-2.87,4.935-3.325,4.935-.14,0-.176-.07-.176-.1,0-.14.455-.8.455-.98,0-.28-.139-.28-1.294-.28H1086.3c-.875,0-.91.106-1.224.91a1.774,1.774,0,0,1-1.75,1.156c-.316,0-.49-.175-.49-.7,0-2.625.174-15.611.174-18.551,0-2.451-.035-8.787-.315-10.782a11.805,11.805,0,0,1-.315-1.19c0-.14.14-.14.28-.14,1.051,0,3.185.946,3.185,1.54a4.951,4.951,0,0,1-.49.8,29.035,29.035,0,0,0-.14,3.641c0,2.52.071,15.017.071,17.852,0,.07,0,.315.139.315.526,0,4.341-9.346,4.341-11.341a.505.505,0,0,0-.525-.56c-.35,0-2.276.175-2.59.175-.141,0-.176-.07-.315-.246l-.666-.805c-.174-.175-.174-.175-.174-.21,0-.07.1-.1.139-.1.6,0,3.466.245,4.131.245.7,0,.91-.35.945-.839,0-.246.035-3.011.035-3.466a56,56,0,0,0-.245-6.371c-.035-.244-.49-1.26-.49-1.33s.07-.07.14-.07c.035,0,1.995.35,2.485.49.526.14,1.366.35,1.366.771,0,.174-.84.734-.981.91-.1.1-.1.174-.1.665,0,1.154-.176,6.86-.176,8.19,0,.7.176,1.05.98,1.05a1.426,1.426,0,0,0,1.156-.35c.174-.139.875-1.085,1.12-1.085.385,0,2.03,1.785,2.03,1.891,0,.49-.665.49-1.856.49H1093.9c-.7,0-1.085.21-1.085,1.26,0,.7.245.91.946,1.47,2.275,1.75,3.15,2.415,3.15,3.64a1.654,1.654,0,0,1-1.4,1.576c-.56,0-.63-.176-1.05-1.856-.281-1.05-.875-2.485-1.33-2.485-.245,0-.245.455-.245.56,0,.42.174,7.981.174,9.311,0,1.365-1.47,1.61-1.924,1.61-.526,0-.6-.385-.6-.805,0-1.225.1-7.176.1-8.541,0-.07,0-.385-.175-.385-.07,0-.14.035-.245.28a21.049,21.049,0,0,1-4.305,6.791c-.63.735-.63.805-.63,2.52,0,.665.069,1.19,1.12,1.19h5.04c1.471,0,1.926,0,2.24-.6.6-1.015.665-1.155.981-1.155.455,0,2.065,1.75,2.554,1.75.211,0,.316-.14.421-.385,1.575-3.535,1.96-7.981,1.96-13.091,0-.945-.07-9.136-.141-9.976-.069-.875-.314-2.765-.314-2.906,0-.1.035-.14.175-.14.385,0,2.065.7,2.45.7,1.085,0,4.865-1.681,6.616-2.626.21-.1,1.015-.77,1.26-.77,0,0,3.011,1.575,3.011,2.206,0,.244-.07.244-1.3.42-1.12.174-6.756.98-8.051,1.12-1.085.1-1.224.14-1.365.525-.069.245-.14,5.075-.14,5.775,0,1.891,0,2.275,1.226,2.275h5.11a4.287,4.287,0,0,0,1.715-.14c.316-.139,1.226-1.855,1.61-1.855.42,0,1.68,2.171,1.68,2.45,0,.21-.21.315-.349.386a7.145,7.145,0,0,1-1.75.07h-2.031c-.56,0-1.05,0-1.19.77-.071.315-.071,9.031-.071,9.871,0,1.96.176,4.165.246,5.04a8.6,8.6,0,0,1,.07.98,1.815,1.815,0,0,1-1.925,2.135c-.6,0-.875-.174-.875-1.015,0-.1.1-1.33.1-1.469.035-.561.174-6.791.174-7.6,0-1.085-.035-6.51-.035-7.63,0-.945-.42-1.085-1.224-1.085Zm-13.9-4.831a1.425,1.425,0,0,1-1.435,1.61c-.7,0-.736-.245-1.085-2.38a16.2,16.2,0,0,0-.49-2.275c-.036-.14-.246-.63-.246-.735s.071-.07.14-.036C1087.073,3509.494,1089.138,3511.279,1089.138,3512.714Zm6.476-3.955c.349,0,2.345,1.365,2.345,1.89,0,.21,0,.245-.77.56a16.3,16.3,0,0,0-2.171,2.485,9.65,9.65,0,0,1-1.47,1.26c-.035,0,1.331-3.4,1.47-4.06.07-.315.21-1.61.28-1.855C1095.369,3508.864,1095.438,3508.759,1095.614,3508.759Z" fill="#333"/>
    </g>
  </g>
</svg>
