<svg id="ochart_h_sp" xmlns="http://www.w3.org/2000/svg" width="745" height="100" viewBox="0 0 745 100">
  <rect id="長方形_23" data-name="長方形 23" width="745" height="100" fill="#ffc946" opacity="0"/>
  <g id="グループ_324" data-name="グループ 324" transform="translate(-1366.027 -2606.986)">
    <g id="グループ_321" data-name="グループ 321">
      <g id="グループ_320" data-name="グループ 320">
        <path id="パス_1455" data-name="パス 1455" d="M1685.358,2699.189c-4.438,0-7.519-3.634-7.519-8.807s3.058-8.83,7.519-8.83c4.415,0,7.5,3.633,7.5,8.83C1692.854,2695.533,1689.8,2699.189,1685.358,2699.189Zm5.312-9.014c0-2.117-.6-7.865-5.312-7.865-5.151,0-5.335,6.761-5.335,8.279,0,2.208.667,7.84,5.335,7.84C1690.486,2698.429,1690.67,2691.738,1690.67,2690.175Z" fill="#333"/>
        <path id="パス_1456" data-name="パス 1456" d="M1711.835,2681.828c0,.022,1.494,3.633,1.494,3.886a.431.431,0,0,1-.437.414c-.207,0-.253-.07-.736-.736-1.954-2.759-4-3.082-4.967-3.082-3.61,0-5.473,4.415-5.473,8.393,0,5.336,3.127,7.428,5.865,7.428,1.609,0,3.449-.69,4.967-3.266.528-.9.528-.92.712-.92a.36.36,0,0,1,.345.369,7.6,7.6,0,0,1-1.31,2.322,6.71,6.71,0,0,1-5.405,2.553c-4.851,0-7.22-3.932-7.22-8.439,0-5.381,3.335-9.2,7.22-9.2a7.937,7.937,0,0,1,1.955.276,11.389,11.389,0,0,0,1.379.367.945.945,0,0,0,.621-.229c.369-.369.414-.414.6-.414A.528.528,0,0,1,1711.835,2681.828Z" fill="#333"/>
        <path id="パス_1457" data-name="パス 1457" d="M1730.591,2689.806c.622,0,.622-.137.622-3.172,0-3.335,0-3.91-2.139-3.91-.184,0-.6,0-.6-.39,0-.346.414-.346.621-.346h5.864c.161,0,.6,0,.6.368,0,.392-.3.392-1.011.392a1.459,1.459,0,0,0-1.4.849c-.184.484-.207.553-.207,8.877a36.791,36.791,0,0,0,.184,4.668c.322.873,1.264.873,1.7.873.345,0,.735,0,.735.369s-.436.368-.6.368H1729.1c-.23,0-.621,0-.621-.345,0-.368.414-.368.667-.368a2.247,2.247,0,0,0,1.61-.46c.46-.46.46-.484.46-4.691,0-2.138,0-2.322-.622-2.322h-6.185a.616.616,0,0,0-.529.276c-.092.252-.092,2.529-.092,2.966,0,3.771,0,4.231,2.162,4.231.16,0,.574,0,.574.39,0,.323-.414.323-.62.323h-5.864c-.138,0-.6,0-.6-.368s.3-.369,1.012-.369a1.46,1.46,0,0,0,1.494-1.171c.093-.553.093-6.141.093-9.084a32.9,32.9,0,0,0-.161-4.139c-.3-.873-1.265-.873-1.7-.873-.344,0-.735,0-.735-.392,0-.368.437-.368.6-.368h5.864c.23,0,.62,0,.62.346,0,.39-.39.39-.667.39-2.069,0-2.069.69-2.069,3.633,0,.414,0,2.944.092,3.151a.557.557,0,0,0,.529.3Z" fill="#333"/>
        <path id="パス_1458" data-name="パス 1458" d="M1753.66,2698.752c-.253,0-.552-.069-.552-.368,0-.369.368-.369.92-.369a1.008,1.008,0,0,0,.942-1.011,12.442,12.442,0,0,0-.85-2.69c-.506-1.288-.574-1.449-1.333-1.449h-4.99c-.851,0-.944.23-1.311,1.265a18.359,18.359,0,0,0-.828,2.989c0,.9.735.9,1.288.9.275,0,.528.047.528.369,0,.368-.344.368-.528.368h-4.415c-.185,0-.483-.024-.483-.345,0-.392.252-.392.782-.392a1.93,1.93,0,0,0,1.747-.92c.529-.712,2.23-6.116,2.736-7.748.3-.919,1.771-5.427,2.07-6.462.23-.8.368-1.333,2-1.333a.523.523,0,0,1,.506.368,15.165,15.165,0,0,1,.759,2.069c1.61,4.989,1.748,5.542,3.2,9.8,1.311,3.909,1.472,4.23,2.783,4.23.3,0,.529.139.529.392,0,.345-.368.345-.529.345Zm-1.08-6.646c.253,0,.574-.115.574-.368,0-.482-2.185-6.875-2.6-8.117-.137-.391-.183-.6-.344-.6-.138,0-.162.069-.414.828-.644,1.863-2.438,7.7-2.438,7.91,0,.345.346.345.645.345Z" fill="#333"/>
        <path id="パス_1459" data-name="パス 1459" d="M1772.431,2681.988c1.1,0,6.347.115,6.347,3.979,0,2.345-1.771,3.4-3.059,4.023-.8.392-.9.438-.9.69a40.757,40.757,0,0,0,2.392,5.5,2.862,2.862,0,0,0,2.712,1.838c.231,0,.691,0,.691.369,0,.322-.46.368-.575.368h-2.874a1.125,1.125,0,0,1-1.081-.667c-.138-.23-1.771-3.794-2.024-4.369-1.265-2.783-1.426-3.15-2.23-3.15h-1.265c-.161,0-.46.092-.529.276-.092.23-.092,3.265-.092,3.794,0,2.782,0,3.379,2.115,3.379.161,0,.484,0,.484.369s-.415.368-.667.368h-5.68c-.231,0-.575-.046-.575-.368,0-.369.322-.369.644-.369,1.586,0,1.817-.735,1.885-1.586.046-.782.046-7.1.046-8.186a36.992,36.992,0,0,0-.184-4.646c-.3-.849-1.288-.849-1.816-.849-.138,0-.621,0-.621-.414,0-.346.414-.346.69-.346Zm-.828.76c-1.655,0-1.655,1.034-1.655,3.4,0,3.611,0,3.68.621,3.68h1.862c2.254,0,4.162-1.242,4.162-3.633,0-1.61-.874-3.449-3.863-3.449Z" fill="#333"/>
        <path id="パス_1460" data-name="パス 1460" d="M1798.535,2681.988c1.242,0,1.518,0,1.909,1.035.184.506,1.173,3.1,1.173,3.334a.355.355,0,0,1-.368.346c-.184,0-.253-.093-.783-.967-1.218-2-2.575-2.988-4.138-2.988-.9,0-1.448.367-1.587,1.148-.068.414-.068,5.612-.068,6.577,0,.644,0,5.956.068,6.347.207,1.173,1.288,1.195,1.909,1.195.851,0,1.034,0,1.034.369s-.321.368-.689.368h-6.439c-.322,0-.667,0-.667-.368s.368-.369.506-.369c1.357,0,2.207,0,2.438-1.195.068-.367.068-.391.068-6.508,0-5.679,0-6.3-.16-6.737a1.437,1.437,0,0,0-1.472-.827c-1.84,0-3.2,1.448-4.139,2.966-.552.9-.6.989-.805.989a.374.374,0,0,1-.368-.346c0-.183,1.035-2.943,1.218-3.4.369-.967.737-.967,1.886-.967Z" fill="#333"/>
      </g>
    </g>
    <g id="グループ_323" data-name="グループ 323">
      <g id="グループ_322" data-name="グループ 322">
        <path id="パス_1461" data-name="パス 1461" d="M1520.961,2630.9c0,1.816-4.179,3.464-5.5,4.015-.769.275-.825.494-.934,2.42-.111,1.209-.111,5.664-.111,5.939,0,.329,0,.99.495.99.165,0,4.675-1.871,5.555-2.2,5.444-2.034,7.919-2.2,9.349-2.2a8.42,8.42,0,0,1,8.468,8.3c0,7.259-7.644,10.558-12.153,10.558-3.135,0-5.664-1.594-5.664-4.454,0-2.585,2.254-4.344,2.749-4.344a.294.294,0,0,1,.275.274c0,.166-.11.275-.219.44a2.279,2.279,0,0,0-.495,1.486c0,2.638,3.024,2.638,3.574,2.638,3.63,0,8.249-2.418,8.249-6.818,0-3.9-2.915-6.049-5.28-6.049-1.54,0-4.949.715-11.383,4.124-3.079,1.65-3.409,1.815-3.409,2.749,0,.606.165,3.08.165,3.63,0,2.531-.826,6.159-2.805,6.159-1.485,0-2.09-1.154-2.53-2.035-1.76-3.409-2.035-3.409-2.749-3.409a4.583,4.583,0,0,0-1.375.33,10.931,10.931,0,0,1-2.09,1.1c-.605,0-3.409-1.651-3.409-3.465,0-.99.6-2.145,1.594-2.145.33,0,1.925.275,2.255.275,1.485,0,2.475-.275,5.719-1.87,2.805-1.375,3.135-1.539,3.135-3.079,0-1.265-.055-5.94-.111-6.874,0-.385-.165-1.21-.769-1.21a12.8,12.8,0,0,0-2.53.495c-2.8.934-3.08,1.045-3.9,1.045-1.869,0-3.959-3.8-3.959-4.18a.39.39,0,0,1,.44-.385c.165,0,.825.22.99.22a15.976,15.976,0,0,0,2.529.274,24.028,24.028,0,0,0,6.985-1.649c.275-.385.549-5.39.549-5.994a5.4,5.4,0,0,0-1.814-4.4,5.427,5.427,0,0,1-.77-.88c0-.495.88-.6,1.209-.6,3.685,0,5.665,2.694,5.665,3.739a22.028,22.028,0,0,1-1.155,2.86,29.392,29.392,0,0,0-.55,3.575c0,.22.111.6.44.6.386,0,1.925-.6,1.925-1.375,0-.11-.275-.659-.275-.769,0-.056.11-.165.22-.22C1518.321,2628.421,1520.961,2629.191,1520.961,2630.9Zm-12.538,21.062c0,.826,1.485,2.586,2.31,2.586.77,0,1.54-1.541,1.54-4.235,0-.22,0-.77-.165-.88C1511.943,2649.428,1508.423,2651.187,1508.423,2651.957Zm36.13-17.1c0,1.155-.659,2.639-1.815,2.639-.33,0-1.594-.109-1.869-.109-.275.054-1.43.384-1.65.384a.256.256,0,0,1-.274-.275,3.862,3.862,0,0,1,.165-.44,2.916,2.916,0,0,0,.219-.99c0-2.2-2.75-2.969-4.619-2.969a4.786,4.786,0,0,0-2.145.549,1.221,1.221,0,0,1-.55.166c-.165,0-.22-.055-.22-.22a7.034,7.034,0,0,1,5.94-3.465C1541.969,2630.125,1544.553,2632.325,1544.553,2634.855Z" fill="#333"/>
        <path id="パス_1462" data-name="パス 1462" d="M1597.806,2635.9a48.488,48.488,0,0,0,13.307,4.344c.221,0,1.156.165,1.156.385,0,.165-.77.384-.991.44a9.525,9.525,0,0,0-4.178,2.97c-.165.22-.771,1.375-1.045,1.375-.33,0-12.264-5.776-17.653-14.574-1.045-1.76-1.21-1.924-1.595-1.924s-.494.109-1.7,1.375a65.328,65.328,0,0,1-16.279,12.812c-1.869.991-7.588,3.52-8.633,3.52-.165,0-.275-.11-.275-.164s5.884-3.686,6.379-4.016c7.424-4.674,15.288-13.088,16.058-17.212.054-.44.11-.6.495-.6.274,0,4.729,1.7,5,1.869.165.055.715.275.715.824a3.43,3.43,0,0,1-.22.771C1588.457,2628.916,1593.187,2633.535,1597.806,2635.9Zm-26.507-13.693c-4.069,0-5.939.109-6.984.164-.164,0-.99.11-1.155.11s-.275-.11-.495-.329l-1.045-1.266c-.219-.275-.219-.275-.219-.384s.054-.11.165-.11c.384,0,2.089.164,2.42.164,2.694.111,5,.221,7.588.221h1.595c1.154,0,1.484-.551,1.484-1.485a8.938,8.938,0,0,0-.439-2.915,8.2,8.2,0,0,1-.33-1.1c0-.275.274-.385.6-.385.385,0,2.861.606,3.465.77,1.65.44,1.98.551,1.98,1.045,0,.33-.055.44-.824,1.429a1.344,1.344,0,0,0-.386.991c0,1.32.44,1.65,1.925,1.65h9.074c.495,0,1.649,0,1.649-1.485a22.638,22.638,0,0,0-.165-2.475c-.054-.274-.33-1.43-.33-1.649,0-.276.33-.385.606-.385.384,0,4.124.879,4.729,1.045s.935.385.935.879c0,.33-.22.551-.826.99a1.767,1.767,0,0,0-.714,1.54c0,1.54.88,1.54,1.759,1.54h2.805c2.42,0,2.695,0,3.52-.935,1.54-1.815,1.705-2.036,2.2-2.036.33,0,5.114,2.915,5.114,3.63,0,.771-1.1.771-2.915.771h-10.724c-1.7,0-1.7.879-1.7,2.2,0,.33.055,2.2.055,2.475,0,2.035-1.649,2.365-2.8,2.365-1.264,0-1.484-.221-1.484-2.09v-3.795c-.165-1.045-.825-1.154-1.7-1.154h-8.8c-1.265,0-2.035,0-2.035,1.539,0,.551.165,2.97.165,3.465,0,1.045-.165,1.54-.66,1.869a3.906,3.906,0,0,1-2.089.77c-.936,0-1.375-.6-1.375-1.7,0-.44.055-2.53.055-2.915,0-2.145,0-3.024-1.706-3.024Zm3.9,28.1a28.085,28.085,0,0,1,4.235,2.584,1.363,1.363,0,0,1,.44.825c0,.66-.44.77-1.76,1.1-.165.055-4.894,3.739-5.774,4.4-4.949,3.519-8.084,4.784-8.358,4.784a.177.177,0,0,1-.166-.165c0-.11,2.915-2.64,3.3-3.025,4.565-4.344,7.369-8.688,7.865-10.448A.328.328,0,0,1,1575.2,2650.308Zm2.531-2.915c-4.29,0-5.885.055-6.985.165-.165,0-.99.11-1.155.11s-.274-.11-.494-.33l-1.045-1.265c-.221-.274-.221-.274-.221-.385,0-.054.056-.11.165-.11.386,0,2.09.166,2.42.166,2.694.164,5.005.219,7.589.219h4.125c.55,0,1.649,0,1.649-1.485,0-.66-.33-5.114-.439-5.664,0-.109-.33-.66-.33-.769s.109-.33.55-.33c.384,0,4.234.824,4.784.99.769.164,1.045.659,1.045.933,0,.331-.111.441-.935,1.156-.77.66-.77.99-.77,2.639,0,1.981,0,2.53,1.65,2.53h2.419c2.42,0,2.7,0,3.52-.934,1.54-1.815,1.7-2.035,2.2-2.035.33,0,5.114,2.969,5.114,3.629,0,.77-1.1.77-2.915.77h-10.394c-1.649,0-1.649.99-1.649,2.749,0,3.905,0,6.1.11,9.35.055.935.055,2.254.055,2.914,0,1.76-.44,2.8-2.805,2.8-1.21,0-1.32-.991-1.32-1.925,0-.715.165-4.015.165-4.73.056-2.089.056-4.124.056-6.654a33.025,33.025,0,0,0-.111-3.739c-.274-.77-1.154-.77-1.594-.77Zm14.682,4.619c0-.165.276-.219.495-.219,2.035,0,14.574,3.465,14.574,8.029,0,1.76-.991,3.134-2.366,3.134-1.045,0-1.264-.275-2.968-2.805-2.585-3.9-6.38-6.159-9.459-7.919C1592.636,2652.232,1592.416,2652.068,1592.416,2652.012Z" fill="#333"/>
        <path id="パス_1463" data-name="パス 1463" d="M1652.829,2629.025c-.384,0-11.933,2.7-12.208,2.805a23.86,23.86,0,0,1-2.474,1.045c-.826,0-3.411-1.65-3.741-1.98a11.23,11.23,0,0,1-1.319-3.189c0-.275.055-.441.33-.441.055,0,1.265.33,1.43.385a9.772,9.772,0,0,0,2.914.551c1.87,0,12.209-.881,15.068-2.035.495-.22,2.53-1.705,3.025-1.705,1.32,0,4.674,2.8,4.674,4.179,0,.5-2.035,1.981-2.365,2.366-1.1,1.319-5.444,7.754-6.324,9.018a1.806,1.806,0,0,0-.439,1.1c0,.495.11.6,2.42,1.87,2.474,1.43,12.318,6.984,12.318,11.988a2.375,2.375,0,0,1-2.255,2.42c-1.265,0-1.485-.385-3.41-3.8-3.794-6.654-8.634-10.834-9.843-10.834-.551,0-.716.166-1.925,1.54-1.925,2.035-7.534,8.2-14.683,11.769a13.506,13.506,0,0,1-3.41,1.265c-.11,0-.384,0-.384-.33a16.959,16.959,0,0,1,2.529-2.035c14.354-10.393,20.9-24.637,20.732-25.516A.617.617,0,0,0,1652.829,2629.025Z" fill="#333"/>
        <path id="パス_1464" data-name="パス 1464" d="M1689.27,2659.877c11.273-6.379,18.807-15.344,18.807-17.048s-6.544-5.884-7.919-5.884c-1.264,0-7.919,7.2-9.734,7.2a.255.255,0,0,1-.274-.274,18.036,18.036,0,0,1,1.979-2.364c6.544-7.095,11.054-14.849,11.054-17.984,0-.44-.88-2.2-.88-2.585,0-.33.715-.33,1.045-.33,2.914,0,4.949,2.146,4.949,3.245,0,.33-.6,1.816-.6,2.145,0,.825,1.154.934,1.869.934a33.7,33.7,0,0,0,8.249-1.319,13.188,13.188,0,0,1,2.035-1.21c.55,0,4.509,2.475,4.509,4.234,0,.826-.385.991-1.375,1.43-.825.385-1.044.66-2.695,3.245-.769,1.21-4.509,6.435-5.169,7.534-.495.77-.6.935-.6,1.375,0,.495.056.6,1.045,1.87,1.32,1.705,2.309,2.914,2.309,4.839a2.366,2.366,0,0,1-2.364,2.639c-1.155,0-1.375-.385-3.465-3.9-.109-.22-.715-1.265-1.264-1.265-.495,0-.826.386-1.925,1.54-9.349,10.064-19.907,13.253-20.292,13.253-.11,0-.606,0-.495-.5C1688.114,2660.481,1688.225,2660.481,1689.27,2659.877Zm27.991-30.467c0-.6-.55-.77-.935-.77-.825,0-5.665.715-6.654.715a5,5,0,0,1-1.65-.219,3.675,3.675,0,0,0-1.32-.22.866.866,0,0,0-.66.22c-.055,0-4.674,5.5-4.674,6.159,0,.769.494.935,1.869,1.484a61.454,61.454,0,0,1,6.05,2.8,3.1,3.1,0,0,0,1.265.385C1711.762,2639.75,1717.261,2631.28,1717.261,2629.41Z" fill="#333"/>
        <path id="パス_1465" data-name="パス 1465" d="M1765.778,2634.415c2.144,1.319,2.364,1.54,2.364,2.034,0,.33-.6,1.87-.66,2.2-.22.989-.33,2.145-.33,9.734,0,1.485.055,4.455.165,6.6.055.66.384,3.85.384,4.565,0,.549,0,2.42-1.319,2.42-1.54,0-3.409-2.366-3.409-3.85,0-.551.55-2.97.6-3.52.33-2.969.55-7.2.55-10.119,0-1.979,0-7.754-1.43-7.754-.275,0-.495.221-.934.661-5.39,5.168-14.628,10.5-15.618,10.5-.165,0-.276-.11-.276-.33a.5.5,0,0,1,.165-.384c1.431-1.266,2.97-2.531,3.85-3.3,12.978-11.109,17.268-20.458,17.268-22a3.12,3.12,0,0,0-.44-1.54,6.2,6.2,0,0,1-.385-.88.543.543,0,0,1,.55-.44c.824,0,6.379,2.309,6.379,4.4a1.386,1.386,0,0,1-.495,1.1c-1.484,1.21-1.7,1.54-3.739,4.509-.935,1.32-2.695,3.3-3.74,4.619A.889.889,0,0,0,1765.778,2634.415Z" fill="#333"/>
        <path id="パス_1466" data-name="パス 1466" d="M1808.3,2642.829c-3.3,7.149-9.074,10.448-10.174,10.448a.256.256,0,0,1-.274-.275c0-.44,1.76-2.365,2.2-2.914,6.05-8.3,6.654-14.3,6.654-16.114a12.046,12.046,0,0,0-.934-4.728,4.046,4.046,0,0,1-.221-.99c0-.165.056-.276.275-.276.385,0,6.214,1.87,6.214,4.675C1812.038,2632.82,1809.234,2640.739,1808.3,2642.829Zm8.909,5.114c0-.275.275-1.705.329-1.98.165-1.045.221-5.389.221-6.764,0-6.709-.66-8.964-1.045-10.338a14.308,14.308,0,0,1-.715-1.98c0-.22.22-.276.33-.276.275,0,6.049.99,6.049,3.85,0,.66-.769,3.519-.88,4.125-.219,1.484-.44,8.139-.44,9.953,0,.715.055,1.815,1.045,1.815,1.65,0,6.71-3.629,11.989-8.963.935-.936,5.608-5.885,5.829-5.885a.237.237,0,0,1,.22.22c0,.44-3.19,7.259-12.814,15.728a30.5,30.5,0,0,0-3.794,3.52c-.935,1.044-1.43,1.429-1.815,1.485C1820.122,2652.727,1817.208,2649.482,1817.208,2647.943Z" fill="#333"/>
        <path id="パス_1467" data-name="パス 1467" d="M1872.4,2625.066c2.585,0,2.859,0,3.519-.935.88-1.264.935-1.374,1.375-1.374,1.045,0,4.015,2.474,4.015,3.133,0,.606-.33.606-2.97.606h-9.789c-4.784,0-6.379.109-6.929.165-.165,0-.99.11-1.155.11-.22,0-.33-.11-.495-.33l-1.044-1.265c-.221-.275-.275-.275-.275-.385,0-.055.11-.11.219-.11.385,0,2.09.164,2.42.164,2.7.111,4.949.221,7.534.221Zm-1.925,6.709c1.21,0,1.54,0,2.255-1.1.33-.551.825-1.375,1.264-1.375.55,0,3.3,2.529,3.3,3.244,0,.66-.715.66-1.814.66h-8.305c-1.1,0-2.254,0-3.574.11-.22,0-1.154.111-1.375.111s-.33-.166-.44-.331l-.935-1.21c-.164-.219-.164-.275-.164-.385,0-.055.054-.11.164-.11.221,0,1.265.165,1.485.165,1.1.111,3.63.22,4.674.22Zm-.33,6.654c1.155,0,1.32,0,1.87-.714.934-1.321,1.21-1.76,1.54-1.76.769,0,2.805,2.584,2.805,3.3,0,.66-.661.66-1.816.66h-7.259c-.879,0-2.364,0-3.574.055a13.361,13.361,0,0,1-1.375.166c-.165,0-.275-.111-.385-.331l-.935-1.265c-.165-.22-.165-.275-.165-.33s0-.164.11-.164c.055,0,1.265.219,1.54.219,1.485.111,3.025.165,4.674.165Zm-2.914,19.193c-.495,0-1.76,0-1.76,1.319,0,.276.109,1.705.109,2.035,0,.825,0,2.914-2.639,2.914-1.485,0-1.485-.879-1.485-1.263,0-.276.055-1.431.11-1.7.11-2.915.22-6.435.22-9.129,0-1.375-.055-3.026-.165-4.84,0-.164-.11-1.484-.11-1.595,0-.22.055-.769.44-.769.6,0,1.43.384,3.3,1.21a4.032,4.032,0,0,0,1.925.384h3.245a2.458,2.458,0,0,0,2.42-1.154c.494-.716.715-.826.989-.826.66,0,3.08,1.6,3.08,2.31a2.1,2.1,0,0,1-.44.991c-.6.659-.6.879-.6,2.8,0,.99.385,5.719.385,6.819a2.631,2.631,0,0,1-2.915,2.8c-.659,0-.659,0-1.045-1.484-.219-.825-1.1-.825-1.7-.825Zm2.584-39.76c1.32,0,1.54,0,2.145-.934.22-.331.715-1.1,1.265-1.1.824,0,3.354,2.2,3.354,2.859s-.77.66-1.814.66h-6.71c-1.1,0-2.2,0-3.574.055-.22,0-1.156.164-1.375.164-.165,0-.33-.219-.44-.329l-.88-1.265a.471.471,0,0,1-.165-.275c0-.165.11-.22.275-.22a13.836,13.836,0,0,1,1.485.22c2.694.165,3.464.165,4.565.165Zm-2.86,29.806c-1.759,0-1.759.551-1.759,3.08,0,5.169,0,5.388,1.814,5.388h3.575c1.76,0,1.76-.439,1.76-4.784,0-3.3,0-3.684-1.76-3.684Zm7.865,16.773c15.342-4.4,24.306-12.484,26.616-15.453.33-.439,1.54-2.7,2.035-2.7.22,0,5,2.8,5,3.685,0,.44-.22.549-1.98,1.209-.66.276-1.1.606-5.114,3.356-5.225,3.574-12.374,7.478-18.642,9.073a51.241,51.241,0,0,1-7.919,1.21.591.591,0,0,1-.331-.11C1874.486,2664.661,1874.541,2664.5,1874.817,2664.441Zm18.807-45.424c0,.44.165.879.989,2.254a33.522,33.522,0,0,0,13.364,13.2,28.42,28.42,0,0,1,2.8,1.594c0,.111-.495.166-.66.166a9.427,9.427,0,0,0-2.749.44,17.256,17.256,0,0,1-2.639,1.375c-.606,0-3.465-3.026-4.07-3.686a32.2,32.2,0,0,1-7.534-11.822c-.495-1.43-.495-1.6-.934-1.6a.611.611,0,0,0-.5.385c-1.21,1.815-2.969,4.785-4.125,6.6-6.544,10.119-11.217,12.868-11.217,12.318a.667.667,0,0,1,.219-.494c4.509-5.115,11.109-17.269,11.713-22.933.221-1.979.221-2.034.66-2.034.385,0,.715.109,2.75,1.154,2.2,1.1,2.42,1.265,2.475,1.651C1894.229,2617.806,1893.624,2618.742,1893.624,2619.017Zm-11.768,25.461c6.324-6.6,8.3-10.888,8.414-12.208.165-1.43.165-1.594.55-1.594.219,0,3.079,1.484,3.628,1.759,1.431.77,1.595.825,1.595,1.265s-.274.55-1.265,1.1c-.384.219-5.829,5.883-6.983,6.928a34.95,34.95,0,0,1-6.819,5.28,14.131,14.131,0,0,1-2.475,1.155c-.056,0-.165,0-.165-.11C1878.281,2648,1881.415,2644.973,1881.856,2644.478Zm4.619,6.49c4.729-3.96,8.964-7.81,9.844-11.109.275-.935.275-.99.66-.99.439,0,4.619,2.365,4.619,3.135,0,.439-.44.715-1.54,1.32-.989.55-4.784,3.85-5.554,4.454-7.314,5.664-11.659,6.983-13.363,7.48-.276.054-.441,0-.441-.056C1880.591,2655.037,1885.595,2651.682,1886.475,2650.968Z" fill="#333"/>
        <path id="パス_1468" data-name="パス 1468" d="M1961.428,2635.625c-1.32,0-1.87.219-1.98,1.705-.714,10.174-.99,13.473-3.024,19.191-1.431,3.96-4.51,7.754-5.225,7.754-.219,0-.275-.109-.275-.164,0-.221.715-1.266.715-1.54,0-.44-.22-.44-2.034-.44h-14.463c-1.375,0-1.431.166-1.925,1.429a2.786,2.786,0,0,1-2.75,1.816c-.495,0-.77-.275-.77-1.1,0-4.124.275-24.525.275-29.145,0-3.85-.055-13.8-.495-16.938a18.529,18.529,0,0,1-.494-1.87c0-.22.219-.22.439-.22,1.649,0,5,1.486,5,2.419a7.742,7.742,0,0,1-.77,1.266,45.766,45.766,0,0,0-.219,5.719c0,3.96.11,23.591.11,28.047,0,.109,0,.494.22.494.824,0,6.819-14.683,6.819-17.817a.8.8,0,0,0-.825-.881c-.55,0-3.575.276-4.069.276-.221,0-.276-.111-.5-.385l-1.044-1.266c-.276-.274-.276-.274-.276-.33,0-.109.165-.164.221-.164.934,0,5.444.385,6.489.385,1.1,0,1.43-.55,1.484-1.32,0-.385.055-4.729.055-5.444a87.955,87.955,0,0,0-.385-10.009c-.054-.385-.769-1.979-.769-2.09s.109-.11.22-.11c.054,0,3.134.55,3.9.77.825.221,2.144.551,2.144,1.211,0,.274-1.319,1.154-1.539,1.43-.165.164-.165.274-.165,1.044,0,1.815-.275,10.778-.275,12.868,0,1.1.275,1.65,1.54,1.65a2.235,2.235,0,0,0,1.814-.55c.276-.22,1.375-1.7,1.76-1.7.606,0,3.19,2.8,3.19,2.97,0,.769-1.045.769-2.914.769h-3.576c-1.1,0-1.7.33-1.7,1.981,0,1.1.385,1.43,1.485,2.308,3.574,2.75,4.949,3.8,4.949,5.72a2.6,2.6,0,0,1-2.2,2.475c-.88,0-.991-.275-1.651-2.915-.439-1.649-1.374-3.905-2.089-3.905-.385,0-.385.715-.385.881,0,.659.275,12.538.275,14.627,0,2.146-2.31,2.531-3.024,2.531-.826,0-.936-.6-.936-1.265,0-1.925.165-11.274.165-13.418,0-.11,0-.606-.274-.606-.111,0-.221.055-.385.44a33.041,33.041,0,0,1-6.765,10.669c-.989,1.155-.989,1.264-.989,3.96,0,1.045.109,1.869,1.76,1.869h7.918c2.31,0,3.025,0,3.519-.935.936-1.594,1.045-1.814,1.54-1.814.715,0,3.245,2.749,4.015,2.749.33,0,.495-.22.66-.6,2.475-5.553,3.079-12.538,3.079-20.567,0-1.484-.109-14.353-.219-15.673-.111-1.375-.5-4.345-.5-4.564,0-.165.056-.22.276-.22.6,0,3.244,1.1,3.849,1.1,1.7,0,7.644-2.64,10.394-4.125.33-.164,1.595-1.209,1.979-1.209,0,0,4.73,2.474,4.73,3.465,0,.384-.11.384-2.035.659-1.76.275-10.613,1.54-12.649,1.759-1.7.165-1.923.22-2.144.826-.11.384-.22,7.973-.22,9.074,0,2.969,0,3.574,1.925,3.574h8.029c1.869,0,2.419-.055,2.695-.221.495-.219,1.924-2.914,2.529-2.914.66,0,2.639,3.41,2.639,3.85,0,.33-.33.494-.549.6a11.079,11.079,0,0,1-2.749.111h-3.191c-.88,0-1.649,0-1.869,1.21-.11.5-.11,14.188-.11,15.508,0,3.079.275,6.543.384,7.918a13.28,13.28,0,0,1,.111,1.54c0,.88,0,3.355-3.025,3.355-.935,0-1.375-.275-1.375-1.6,0-.164.165-2.089.165-2.308.055-.881.275-10.669.275-11.934,0-1.705-.055-10.228-.055-11.988,0-1.486-.66-1.705-1.925-1.705Zm-21.832-7.589a2.239,2.239,0,0,1-2.255,2.529c-1.1,0-1.155-.385-1.7-3.739a24.927,24.927,0,0,0-.77-3.574c-.054-.221-.384-.991-.384-1.156s.109-.11.219-.055C1936.351,2622.976,1939.6,2625.781,1939.6,2628.036Zm10.174-6.214c.55,0,3.684,2.145,3.684,2.969,0,.33,0,.385-1.21.881-.77.329-2.915,3.353-3.41,3.9a15.225,15.225,0,0,1-2.309,1.979c-.055,0,2.089-5.335,2.309-6.379.111-.5.33-2.53.441-2.915C1949.385,2621.986,1949.494,2621.822,1949.77,2621.822Z" fill="#333"/>
      </g>
    </g>
  </g>
</svg>
