<svg id="ochart_q_2_active" xmlns="http://www.w3.org/2000/svg" width="50.101" height="50.101" viewBox="0 0 50.101 50.101">
  <circle id="楕円形_7" data-name="楕円形 7" cx="25.05" cy="25.05" r="25.05" fill="#333"/>
  <g id="グループ_14" data-name="グループ 14" transform="translate(-307.739 -182.052)">
    <path id="パス_27" data-name="パス 27" d="M331.434,213.844l-.792.974-1.716-1.419a7.2,7.2,0,0,1-3.15.825,6.311,6.311,0,0,1-3.7-1.237,6.612,6.612,0,0,1-2.111-5.064,6.731,6.731,0,0,1,2.111-5.064,6.137,6.137,0,0,1,7.39,0,7.191,7.191,0,0,1,.412,9.732Zm-4.949-2.457.759-.924,1.5,1.2a5.608,5.608,0,0,0,1.27-3.744,5.46,5.46,0,0,0-1.32-3.761,4.267,4.267,0,0,0-5.839,0,6.022,6.022,0,0,0,0,7.522,4.062,4.062,0,0,0,2.92,1.154,4.447,4.447,0,0,0,1.93-.445Z" fill="#f7f8f3"/>
    <path id="パス_28" data-name="パス 28" d="M339.583,210.051c-.247.132-2.1,1.3-2.078,2.408h6.219v1.385h-7.769c.2-2.045.3-3.332,3.051-4.931l1.748-.99a2.752,2.752,0,0,0,1.584-2.161,2.2,2.2,0,0,0-2.326-2.326c-1.8.066-2.326,1.2-2.392,2.771h-1.4a4.058,4.058,0,0,1,1.336-3.282,3.921,3.921,0,0,1,2.772-.775,3.32,3.32,0,0,1,3.4,2.771c.511,1.9-1.073,3.546-2.227,4.14Z" fill="#f7f8f3"/>
  </g>
</svg>
