<svg xmlns="http://www.w3.org/2000/svg" width="51.101" height="51.101" viewBox="0 0 51.101 51.101">
  <g id="ochart_q_1" transform="translate(0.5 0.5)">
    <circle id="楕円形_1" data-name="楕円形 1" cx="25.05" cy="25.05" r="25.05" fill="none" stroke="#999" stroke-miterlimit="10" stroke-width="1"/>
    <g id="グループ_5" data-name="グループ 5" transform="translate(-236.752 -116.76)">
      <path id="パス_15" data-name="パス 15" d="M261.172,148.553l-.792.973-1.715-1.419a7.185,7.185,0,0,1-3.15.825,6.311,6.311,0,0,1-3.695-1.237,6.617,6.617,0,0,1-2.112-5.064,6.736,6.736,0,0,1,2.112-5.064,6.136,6.136,0,0,1,7.389,0,7.19,7.19,0,0,1,.413,9.732Zm-4.948-2.458.758-.924,1.5,1.2a5.6,5.6,0,0,0,1.27-3.744,5.455,5.455,0,0,0-1.319-3.761,4.267,4.267,0,0,0-5.839,0,6.018,6.018,0,0,0,0,7.522,4.059,4.059,0,0,0,2.92,1.154,4.439,4.439,0,0,0,1.929-.445Z" fill="#333"/>
      <path id="パス_16" data-name="パス 16" d="M268.831,148.553V140.3h-2.656v-1.122c2.359-.362,2.507-.527,3.068-2.325h.973v11.695Z" fill="#333"/>
    </g>
  </g>
</svg>
