<svg id="ochart_stit_other" xmlns="http://www.w3.org/2000/svg" width="408" height="104" viewBox="0 0 408 104">
  <rect id="長方形_29" data-name="長方形 29" width="408" height="104" fill="#ff0202" opacity="0.003"/>
  <g id="グループ_504" data-name="グループ 504" transform="translate(-388 -576)">
    <g id="グループ_34" data-name="グループ 34" transform="translate(-369.677 -2432.065)">
      <g id="グループ_33" data-name="グループ 33">
        <path id="パス_55" data-name="パス 55" d="M932.382,3074.062c-2.7,0-4.58-2.214-4.58-5.365s1.863-5.379,4.58-5.379c2.69,0,4.567,2.213,4.567,5.379C936.949,3071.834,935.086,3074.062,932.382,3074.062Zm3.236-5.491c0-1.289-.364-4.791-3.236-4.791-3.137,0-3.249,4.118-3.249,5.043,0,1.345.406,4.776,3.249,4.776C935.506,3073.6,935.618,3069.523,935.618,3068.571Z" fill="#333"/>
        <path id="パス_56" data-name="パス 56" d="M948.621,3063.584c.756,0,.924,0,1.163.63.111.308.714,1.891.714,2.031a.216.216,0,0,1-.224.211c-.112,0-.154-.057-.476-.589a3.069,3.069,0,0,0-2.522-1.821c-.546,0-.883.224-.966.7-.042.252-.042,3.418-.042,4,0,.393,0,3.629.042,3.867.125.714.784.728,1.163.728.518,0,.629,0,.629.224s-.2.224-.419.224h-3.922c-.2,0-.407,0-.407-.224s.224-.224.308-.224c.827,0,1.345,0,1.485-.728a37.146,37.146,0,0,0,.042-3.964c0-3.46,0-3.839-.1-4.1a.874.874,0,0,0-.9-.5,3.2,3.2,0,0,0-2.521,1.807c-.336.546-.364.6-.49.6a.227.227,0,0,1-.224-.211c0-.112.63-1.793.742-2.073.224-.588.448-.588,1.149-.588Z" fill="#333"/>
        <path id="パス_57" data-name="パス 57" d="M960.929,3068.347c.378,0,.378-.085.378-1.933,0-2.032,0-2.382-1.3-2.382-.111,0-.364,0-.364-.238,0-.21.253-.21.378-.21h3.572c.1,0,.365,0,.365.224s-.183.238-.617.238a.891.891,0,0,0-.855.518c-.111.294-.126.336-.126,5.407a22.234,22.234,0,0,0,.113,2.844c.2.532.77.532,1.036.532.21,0,.449,0,.449.224s-.267.224-.365.224h-3.572c-.14,0-.378,0-.378-.21s.253-.224.406-.224a1.368,1.368,0,0,0,.981-.28c.28-.28.28-.294.28-2.857,0-1.3,0-1.415-.378-1.415h-3.768a.374.374,0,0,0-.322.168c-.056.154-.056,1.541-.056,1.807,0,2.3,0,2.577,1.317,2.577.1,0,.349,0,.349.238,0,.2-.252.2-.378.2H954.5c-.084,0-.364,0-.364-.224s.182-.224.616-.224a.89.89,0,0,0,.911-.714c.056-.337.056-3.74.056-5.533a20.051,20.051,0,0,0-.1-2.521c-.182-.533-.77-.533-1.037-.533-.21,0-.448,0-.448-.238s.266-.224.364-.224h3.572c.14,0,.378,0,.378.21,0,.238-.238.238-.406.238-1.26,0-1.26.42-1.26,2.213,0,.253,0,1.793.056,1.92a.339.339,0,0,0,.322.182Z" fill="#333"/>
        <path id="パス_58" data-name="パス 58" d="M972.693,3073.347a3.641,3.641,0,0,0,3.348-1.737c.35-.546.378-.6.49-.6a.223.223,0,0,1,.238.224c0,.07-.5,1.4-.588,1.611-.35.91-.365.952-1.275.952h-6.6c-.239,0-.435,0-.435-.224s.141-.224.533-.224a.928.928,0,0,0,1.064-.728c.043-.238.056-3.46.056-3.867,0-.56,0-3.739-.042-3.991-.14-.715-.742-.715-1.3-.715-.1,0-.309,0-.309-.224s.2-.238.435-.238H974.7c.868,0,.939.028,1.219.714.084.2.6,1.485.6,1.583a.219.219,0,0,1-.224.21c-.084,0-.112-.028-.434-.476a3.409,3.409,0,0,0-2.69-1.569h-1.555a.972.972,0,0,0-.84.364c-.168.253-.168.379-.168,1.485,0,.182,0,2.087.042,2.2a.387.387,0,0,0,.336.182h1.233c1.583,0,1.583-.952,1.583-1.568,0-.042,0-.281.223-.281.239,0,.225.239.225.351-.014.518,0,3.025,0,3.586,0,.07,0,.294-.225.294s-.223-.182-.223-.463c0-1.19-.8-1.47-1.583-1.47h-1.233a.337.337,0,0,0-.364.322c-.014.112-.014,2.423-.014,2.633,0,.981,0,1.667,1.008,1.667Z" fill="#333"/>
        <path id="パス_59" data-name="パス 59" d="M984.422,3063.584c.673,0,3.866.07,3.866,2.423a2.729,2.729,0,0,1-1.863,2.452c-.49.238-.546.266-.546.42a24.884,24.884,0,0,0,1.457,3.348,1.744,1.744,0,0,0,1.652,1.12c.141,0,.421,0,.421.224,0,.2-.28.224-.35.224h-1.751a.687.687,0,0,1-.659-.406c-.084-.14-1.078-2.311-1.233-2.661-.77-1.7-.868-1.919-1.358-1.919h-.771c-.1,0-.28.056-.322.168-.056.14-.056,1.989-.056,2.311,0,1.695,0,2.059,1.289,2.059.1,0,.294,0,.294.224s-.252.224-.406.224h-3.46c-.14,0-.35-.027-.35-.224,0-.224.2-.224.392-.224.967,0,1.106-.448,1.148-.966.029-.477.029-4.329.029-4.987a22.341,22.341,0,0,0-.113-2.83c-.181-.518-.784-.518-1.106-.518-.084,0-.378,0-.378-.252,0-.21.252-.21.42-.21Zm-.5.462c-1.009,0-1.009.63-1.009,2.073,0,2.2,0,2.241.378,2.241h1.135a2.262,2.262,0,0,0,2.535-2.213c0-.98-.532-2.1-2.353-2.1Z" fill="#333"/>
      </g>
    </g>
    <g id="グループ_36" data-name="グループ 36" transform="translate(-369.677 -2432.065)">
      <g id="グループ_35" data-name="グループ 35">
        <path id="パス_60" data-name="パス 60" d="M842.354,3018.185c0,.6-.24,1.04-1.52,1.879a111.236,111.236,0,0,0-9.238,8,30.165,30.165,0,0,0-3.719,4.319c0,.16.16.24.359.24.88,0,5.8-1.879,7.119-2.4,4.28-1.64,6.439-2.44,8.079-2.44.88,0,3.719.52,3.719,1.96,0,1-1.519,1.279-2.079,1.279-.24,0-1.28-.08-1.48-.08-3.2,0-10.838,1.56-10.838,7.279,0,3.759,2.519,4.36,7.158,5.439,2,.48,2.4,1.68,2.4,2.04,0,.84-1.24,1.28-2.639,1.28-.281,0-8.519-.48-8.519-7.239a9.841,9.841,0,0,1,1.76-5.559,15.312,15.312,0,0,0,.96-1.24c0-.04-.04-.12-.16-.12a13.206,13.206,0,0,0-3,1.6c-2.159,1.559-2.719,1.959-3.959,1.959-1.64,0-2.08-1.959-2.08-2.319,0-.76.36-1.12,1.52-2.16.36-.279,7.359-8.558,8.838-10.038,1.24-1.24,3.68-3.759,3.68-4.679a.673.673,0,0,0-.68-.68,4.67,4.67,0,0,0-2.559,1.44c-1.081,1.119-1.52,1.6-3,1.6-2.16,0-2.8-3.4-2.8-3.519s.04-.32.28-.32c.12,0,1.68.28,1.96.28a4.9,4.9,0,0,0,1.4-.2c3.92-1,4.36-1.12,5.32-1.12A3.625,3.625,0,0,1,842.354,3018.185Z" fill="#333"/>
        <path id="パス_61" data-name="パス 61" d="M882.771,3018.9c0,.12.081.281.081.44a30.828,30.828,0,0,1,.4,4.32c0,2.679-.6,6.4-4.119,11.718-3.2,4.879-5.239,5.839-6.839,5.839-2.64,0-5-4.119-5-9a14.089,14.089,0,0,1,4.439-10.2,16.547,16.547,0,0,1,12.758-5.2,13.028,13.028,0,0,1,6.439,1.28,12.535,12.535,0,0,1,6.959,11.638,14.914,14.914,0,0,1-10.079,14.077,24.579,24.579,0,0,1-6.638,1.48c-.16,0-.4-.04-.4-.28,0-.12.081-.16,1.081-.56,4.159-1.64,12.837-5.079,12.837-15.037,0-1.56-.16-11.078-11.078-11.078C882.811,3018.345,882.771,3018.665,882.771,3018.9Zm-13,12.279c0,2.6,1.04,6.158,3.48,6.158,1.16,0,2.119-.48,4.879-4.639,2.12-3.239,3.919-7.679,3.919-11.638,0-2.4-.159-2.6-.679-2.6C877.572,3018.464,869.773,3023.624,869.773,3031.183Z" fill="#333"/>
        <path id="パス_62" data-name="パス 62" d="M918.838,3025.9c-.16.16-3.44,3.44-3.84,3.44a.213.213,0,0,1-.2-.2c0-.16.04-.24.519-.84a69.861,69.861,0,0,0,8.439-14.678c.52-1.4.56-1.56.76-1.56.28,0,3.359,2.081,3.359,2.72,0,.28-.04.32-1.359.96-.6.32-3.92,5.479-3.96,5.559a.445.445,0,0,0-.039.2c0,.44.479.72.8.88.2.12.52.32.52.68,0,.32-.16.48-.68,1-.36.4-.36,1.121-.36,4.84,0,10.678.08,11.4.2,17.077,0,.12.04.48.04.64a2.118,2.118,0,0,1-1.88,2.279c-1.039,0-1.039-.96-1.039-1.439,0-1.76.239-15.478.239-18.077,0-.64,0-4.2-.439-4.36C919.678,3024.943,919.437,3025.224,918.838,3025.9Zm24.515-3.2a2.1,2.1,0,0,0,1.241-1.16c.279-.44.719-1.16,1.159-1.16.32,0,3.04,1.12,3.04,1.88a.7.7,0,0,1-.24.48c-.12.12-.6.48-.68.6-.4.44-.4.52-.4,4.439,0,2.12,0,8.519-.48,9.958a3.967,3.967,0,0,1-2.84,2.72.462.462,0,0,1-.4-.2,4.807,4.807,0,0,0-2.08-1.96c-.2-.12-1.48-.52-1.48-.759,0-.2.2-.2.88-.2,2.56,0,3.319,0,3.679-1.479.28-1.2.28-4.96.28-10.119,0-1.079,0-2.279-.559-2.279a1.225,1.225,0,0,0-.44.08l-3.48,1.359a1.527,1.527,0,0,0-1.079,1.08c-.121.68-.121,7.439-.121,8.559,0,.84.04,4.839.04,5.759a1.816,1.816,0,0,1-1.8,1.84c-.84,0-.84-.92-.84-1.28,0-.8.16-4.759.16-5.679,0-1.08-.04-6.439-.04-7.639,0-.32,0-.96-.4-.96a1.993,1.993,0,0,0-.52.12l-2.84,1.12a1.359,1.359,0,0,0-.8,1.36c-.04,1.12-.08,8.758-.08,10.6,0,4.919.56,5.319,7.4,5.319,4.8,0,6.679-.32,7.8-1.16,1.04-.759,2.08-3.519,2.6-5.159.2-.719.239-.88.48-.88s.239.12.239.96c0,.32-.04,1.96-.04,2.32a4.716,4.716,0,0,0,.4,1.88c.6.679.68.759.68,1.079,0,.76-1.04,1.96-2.639,2.6-2.2.88-6.919.88-8.718.88-9.359,0-10.6-.72-10.719-5.12-.04-1.119-.04-7.158-.04-8.6,0-4.319,0-4.439-.56-4.439a37.074,37.074,0,0,0-4.2,1.76.533.533,0,0,1-.36-.12l-1.04-.6c-.12-.08-.24-.119-.24-.2s0-.12.32-.2c.84-.24,3-.96,3.88-1.28,2.119-.72,2.119-.84,2.119-2.48,0-.32-.08-5.479-.16-6.519,0-.2-.12-1.2-.12-1.439,0-.321.12-.44.4-.44.16,0,1.76.48,2.6.68.4.12,1.08.279,1.08.839a.788.788,0,0,1-.24.48,5.081,5.081,0,0,0-.679.76c-.241.48-.241.88-.241,4.319,0,1.56,0,1.72.481,1.72a1.021,1.021,0,0,0,.439-.08l2.52-1c1.32-.52,1.32-.8,1.32-4.36,0-1.24-.12-7.359-.12-8.759,0-.44.12-.48.36-.48s3.479.52,3.479,1.121a.943.943,0,0,1-.279.52c-.721.639-.8.719-.92,1.039-.161.56-.161,7.479-.161,8.4,0,.2,0,.8.6.8a4.19,4.19,0,0,0,.481-.12Z" fill="#333"/>
        <path id="パス_63" data-name="パス 63" d="M983,3018.9c0,.12.08.281.08.44a30.667,30.667,0,0,1,.4,4.32c0,2.679-.6,6.4-4.119,11.718-3.2,4.879-5.239,5.839-6.839,5.839-2.639,0-5-4.119-5-9a14.089,14.089,0,0,1,4.439-10.2,16.547,16.547,0,0,1,12.758-5.2,13.028,13.028,0,0,1,6.439,1.28,12.535,12.535,0,0,1,6.959,11.638,14.914,14.914,0,0,1-10.079,14.077,24.571,24.571,0,0,1-6.638,1.48c-.16,0-.4-.04-.4-.28,0-.12.08-.16,1.079-.56,4.16-1.64,12.838-5.079,12.838-15.037,0-1.56-.159-11.078-11.078-11.078C983.043,3018.345,983,3018.665,983,3018.9Zm-13,12.279c0,2.6,1.039,6.158,3.479,6.158,1.159,0,2.119-.48,4.879-4.639,2.12-3.239,3.919-7.679,3.919-11.638,0-2.4-.16-2.6-.68-2.6C977.8,3018.464,970.006,3023.624,970.006,3031.183Z" fill="#333"/>
        <path id="パス_64" data-name="パス 64" d="M1031.012,3023.784c0,1.32-3.04,2.519-4,2.919-.56.2-.6.36-.68,1.76-.08.88-.08,4.119-.08,4.319,0,.24,0,.72.36.72.12,0,3.4-1.36,4.039-1.6,3.96-1.48,5.76-1.6,6.8-1.6a6.123,6.123,0,0,1,6.159,6.039c0,5.279-5.559,7.679-8.839,7.679-2.279,0-4.119-1.161-4.119-3.24a3.563,3.563,0,0,1,2-3.159.213.213,0,0,1,.2.2c0,.12-.08.2-.16.32a1.654,1.654,0,0,0-.36,1.08c0,1.92,2.2,1.92,2.6,1.92,2.639,0,6-1.76,6-4.959a4.144,4.144,0,0,0-3.84-4.4c-1.119,0-3.6.52-8.279,3-2.239,1.2-2.479,1.32-2.479,2,0,.44.12,2.239.12,2.639,0,1.84-.6,4.479-2.039,4.479-1.08,0-1.52-.839-1.84-1.48-1.28-2.479-1.48-2.479-2-2.479a3.34,3.34,0,0,0-1,.24,7.917,7.917,0,0,1-1.519.8c-.44,0-2.48-1.2-2.48-2.52,0-.72.44-1.56,1.16-1.56.24,0,1.4.2,1.639.2,1.08,0,1.8-.2,4.16-1.36,2.039-1,2.279-1.12,2.279-2.24,0-.92-.04-4.319-.08-5,0-.28-.12-.88-.559-.88a9.353,9.353,0,0,0-1.84.36c-2.04.68-2.24.76-2.84.76-1.359,0-2.879-2.76-2.879-3.04a.283.283,0,0,1,.32-.28c.12,0,.6.161.72.161a11.727,11.727,0,0,0,1.839.2,17.47,17.47,0,0,0,5.079-1.2,29.915,29.915,0,0,0,.4-4.36,3.927,3.927,0,0,0-1.321-3.2,4.037,4.037,0,0,1-.559-.64c0-.36.639-.44.88-.44,2.679,0,4.119,1.96,4.119,2.72a16.148,16.148,0,0,1-.84,2.079,21.391,21.391,0,0,0-.4,2.6c0,.16.08.44.32.44.28,0,1.4-.44,1.4-1,0-.08-.2-.48-.2-.56,0-.04.08-.12.16-.16C1029.092,3021.984,1031.012,3022.544,1031.012,3023.784Zm-9.119,15.317c0,.6,1.08,1.88,1.68,1.88.56,0,1.119-1.12,1.119-3.08,0-.16,0-.56-.12-.64C1024.453,3037.261,1021.893,3038.541,1021.893,3039.1Zm26.275-12.438c0,.84-.48,1.92-1.319,1.92-.24,0-1.16-.08-1.36-.08-.2.04-1.04.28-1.2.28a.187.187,0,0,1-.2-.2,2.755,2.755,0,0,1,.12-.32,2.106,2.106,0,0,0,.16-.72c0-1.6-2-2.16-3.359-2.16a3.473,3.473,0,0,0-1.56.4.893.893,0,0,1-.4.12c-.12,0-.16-.04-.16-.16a5.115,5.115,0,0,1,4.319-2.519C1046.289,3023.224,1048.168,3024.824,1048.168,3026.663Z" fill="#333"/>
        <path id="パス_65" data-name="パス 65" d="M1089.158,3027.423a35.287,35.287,0,0,0,9.678,3.16c.16,0,.84.12.84.279,0,.12-.56.281-.72.321a6.912,6.912,0,0,0-3.039,2.159c-.12.16-.561,1-.76,1-.24,0-8.919-4.2-12.838-10.6-.76-1.28-.88-1.4-1.16-1.4s-.36.08-1.24,1a47.53,47.53,0,0,1-11.838,9.318c-1.359.72-5.519,2.56-6.278,2.56-.12,0-.2-.08-.2-.12s4.28-2.68,4.64-2.92c5.4-3.4,11.118-9.518,11.678-12.517.04-.321.08-.44.359-.44.2,0,3.44,1.239,3.64,1.359.12.04.52.2.52.6a2.5,2.5,0,0,1-.16.56C1082.359,3022.344,1085.8,3025.7,1089.158,3027.423Zm-19.277-9.958c-2.959,0-4.32.08-5.079.12-.12,0-.72.08-.84.08s-.2-.08-.36-.24l-.76-.92c-.16-.2-.16-.2-.16-.28s.04-.08.12-.08c.28,0,1.52.12,1.76.12,1.959.08,3.639.16,5.519.16h1.16c.84,0,1.079-.4,1.079-1.08a6.489,6.489,0,0,0-.319-2.119,6.145,6.145,0,0,1-.24-.8c0-.2.2-.28.44-.28.279,0,2.079.439,2.519.56,1.2.319,1.44.4,1.44.759,0,.241-.04.32-.6,1.04a.978.978,0,0,0-.28.72c0,.96.32,1.2,1.4,1.2h6.6c.36,0,1.2,0,1.2-1.08a16.652,16.652,0,0,0-.12-1.8c-.04-.2-.239-1.04-.239-1.2,0-.2.239-.281.44-.281.28,0,3,.641,3.439.761s.68.279.68.639c0,.241-.16.4-.6.721a1.279,1.279,0,0,0-.52,1.119c0,1.12.64,1.12,1.28,1.12h2.039c1.76,0,1.96,0,2.56-.68,1.12-1.32,1.24-1.48,1.6-1.48.24,0,3.719,2.12,3.719,2.64,0,.56-.8.56-2.119.56h-7.8c-1.24,0-1.24.64-1.24,1.6,0,.241.04,1.6.04,1.8,0,1.48-1.2,1.72-2.039,1.72-.92,0-1.081-.16-1.081-1.52V3018.3c-.12-.76-.6-.84-1.239-.84h-6.4c-.92,0-1.48,0-1.48,1.119,0,.4.12,2.16.12,2.52,0,.76-.12,1.12-.48,1.36a2.839,2.839,0,0,1-1.52.56c-.679,0-1-.44-1-1.24,0-.32.04-1.84.04-2.119,0-1.56,0-2.2-1.239-2.2Zm2.84,20.436a20.522,20.522,0,0,1,3.079,1.88.991.991,0,0,1,.32.6c0,.48-.32.56-1.28.8-.12.04-3.559,2.719-4.2,3.2-3.6,2.56-5.879,3.48-6.079,3.48a.128.128,0,0,1-.12-.12c0-.08,2.119-1.92,2.4-2.2,3.319-3.16,5.359-6.319,5.718-7.6A.244.244,0,0,1,1072.721,3037.9Zm1.839-2.119c-3.12,0-4.279.04-5.079.12-.12,0-.72.079-.84.079s-.2-.079-.36-.239l-.76-.92c-.16-.2-.16-.2-.16-.28,0-.04.04-.08.12-.08.281,0,1.52.12,1.76.12,1.96.12,3.64.16,5.519.16h3c.4,0,1.2,0,1.2-1.08,0-.48-.239-3.719-.319-4.119,0-.08-.241-.48-.241-.56s.08-.24.4-.24c.28,0,3.079.6,3.479.72.56.12.76.48.76.68,0,.24-.08.319-.68.839-.56.48-.56.72-.56,1.92,0,1.44,0,1.84,1.2,1.84h1.76c1.759,0,1.959,0,2.559-.68,1.12-1.32,1.24-1.48,1.6-1.48.24,0,3.719,2.16,3.719,2.64,0,.56-.8.56-2.119.56h-7.559c-1.2,0-1.2.719-1.2,2,0,2.84,0,4.44.08,6.8.04.68.04,1.64.04,2.12,0,1.28-.32,2.039-2.04,2.039-.88,0-.96-.719-.96-1.4,0-.52.12-2.92.12-3.44.04-1.52.04-3,.04-4.839a24.228,24.228,0,0,0-.08-2.719c-.2-.56-.839-.56-1.159-.56Zm10.678,3.359c0-.12.2-.16.361-.16,1.479,0,10.6,2.519,10.6,5.839,0,1.28-.719,2.28-1.719,2.28-.76,0-.92-.2-2.16-2.04a19.008,19.008,0,0,0-6.879-5.759C1085.4,3039.3,1085.238,3039.181,1085.238,3039.141Z" fill="#333"/>
      </g>
    </g>
    <line id="線_2" data-name="線 2" x2="150" transform="translate(515.966 676.316)" fill="none" stroke="#333" stroke-miterlimit="10" stroke-width="1"/>
  </g>
</svg>
