<svg id="ochart_q_4_active" xmlns="http://www.w3.org/2000/svg" width="50.101" height="50.101" viewBox="0 0 50.101 50.101">
  <circle id="楕円形_9" data-name="楕円形 9" cx="25.05" cy="25.05" r="25.05" fill="#333"/>
  <g id="グループ_16" data-name="グループ 16" transform="translate(-449.713 -182.052)">
    <path id="パス_31" data-name="パス 31" d="M473.553,213.844l-.792.974-1.715-1.419a7.2,7.2,0,0,1-3.151.825,6.307,6.307,0,0,1-3.694-1.237,6.617,6.617,0,0,1-2.112-5.064,6.732,6.732,0,0,1,2.112-5.064,6.136,6.136,0,0,1,7.389,0,7.189,7.189,0,0,1,.412,9.732Zm-4.949-2.457.759-.924,1.5,1.2a5.6,5.6,0,0,0,1.27-3.744,5.46,5.46,0,0,0-1.319-3.761,4.267,4.267,0,0,0-5.839,0,6.018,6.018,0,0,0,0,7.522,4.058,4.058,0,0,0,2.919,1.154,4.444,4.444,0,0,0,1.93-.445Z" fill="#f7f8f3"/>
    <path id="パス_32" data-name="パス 32" d="M478.041,211.09v-1.551l5.328-7.389h1.089v7.571h1.7v1.369h-1.7v2.754h-1.386V211.09Zm5.031-6.6-3.727,5.229h3.727Z" fill="#f7f8f3"/>
  </g>
</svg>
