<svg id="ochart_ttl" xmlns="http://www.w3.org/2000/svg" width="745" height="130" viewBox="0 0 745 130">
  <rect id="長方形_27" data-name="長方形 27" width="745" height="130" fill="#ffc946" opacity="0"/>
  <path id="パス_1" data-name="パス 1" d="M919.05,402.133c-4.453,0-7.545-3.645-7.545-8.836s3.069-8.86,7.545-8.86c4.429,0,7.521,3.646,7.521,8.86C926.571,398.465,923.5,402.133,919.05,402.133Zm5.329-9.044c0-2.122-.6-7.89-5.329-7.89-5.168,0-5.353,6.783-5.353,8.3,0,2.215.669,7.868,5.353,7.868C924.2,401.372,924.379,394.658,924.379,393.089Z" transform="translate(-609.538 -307.651)" fill="#333"/>
  <path id="パス_2" data-name="パス 2" d="M945.616,384.714c0,.023,1.5,3.645,1.5,3.9a.434.434,0,0,1-.439.416c-.207,0-.254-.07-.738-.739-1.961-2.768-4.014-3.091-4.983-3.091-3.623,0-5.491,4.429-5.491,8.421,0,5.352,3.137,7.452,5.883,7.452,1.615,0,3.461-.692,4.983-3.276.531-.9.531-.923.715-.923a.36.36,0,0,1,.347.369,7.641,7.641,0,0,1-1.316,2.33,6.725,6.725,0,0,1-5.421,2.561c-4.868,0-7.245-3.945-7.245-8.467,0-5.4,3.346-9.229,7.245-9.229a8.04,8.04,0,0,1,1.961.277,11.218,11.218,0,0,0,1.384.369.955.955,0,0,0,.623-.23c.369-.369.415-.416.6-.416A.532.532,0,0,1,945.616,384.714Z" transform="translate(-609.538 -307.651)" fill="#333"/>
  <path id="パス_3" data-name="パス 3" d="M964.436,392.72c.623,0,.623-.138.623-3.184,0-3.345,0-3.922-2.145-3.922-.185,0-.6,0-.6-.392,0-.346.416-.346.623-.346h5.884c.161,0,.6,0,.6.369,0,.392-.3.392-1.016.392a1.463,1.463,0,0,0-1.407.854c-.185.484-.208.553-.208,8.9a36.827,36.827,0,0,0,.185,4.684c.323.876,1.269.876,1.708.876.345,0,.738,0,.738.37s-.439.369-.6.369h-5.884c-.23,0-.623,0-.623-.346,0-.37.416-.37.67-.37a2.254,2.254,0,0,0,1.615-.461c.461-.461.461-.484.461-4.706,0-2.146,0-2.331-.623-2.331H958.23a.621.621,0,0,0-.531.277c-.092.254-.092,2.538-.092,2.976,0,3.784,0,4.245,2.169,4.245.161,0,.576,0,.576.393,0,.323-.415.323-.623.323h-5.882c-.139,0-.6,0-.6-.369s.3-.37,1.015-.37a1.466,1.466,0,0,0,1.5-1.176c.091-.554.091-6.16.091-9.113a33.121,33.121,0,0,0-.161-4.153c-.3-.877-1.269-.877-1.707-.877-.346,0-.738,0-.738-.392,0-.369.438-.369.6-.369h5.882c.231,0,.623,0,.623.346,0,.392-.392.392-.668.392-2.077,0-2.077.692-2.077,3.645,0,.416,0,2.953.092,3.161a.559.559,0,0,0,.531.3Z" transform="translate(-609.538 -307.651)" fill="#333"/>
  <path id="パス_4" data-name="パス 4" d="M987.583,401.7c-.253,0-.553-.07-.553-.369,0-.37.369-.37.923-.37a1.012,1.012,0,0,0,.945-1.015,12.485,12.485,0,0,0-.853-2.7c-.508-1.292-.577-1.454-1.338-1.454H981.7c-.853,0-.946.231-1.315,1.269a18.465,18.465,0,0,0-.83,3c0,.9.738.9,1.292.9.276,0,.53.047.53.37,0,.369-.346.369-.53.369h-4.43c-.185,0-.484-.023-.484-.346,0-.393.253-.393.784-.393a1.938,1.938,0,0,0,1.753-.922c.531-.716,2.238-6.137,2.746-7.775.3-.923,1.776-5.445,2.076-6.484.231-.807.369-1.338,2.007-1.338a.527.527,0,0,1,.508.37,15.1,15.1,0,0,1,.761,2.076c1.616,5.006,1.754,5.56,3.207,9.828,1.315,3.922,1.477,4.245,2.792,4.245.3,0,.531.139.531.393,0,.346-.37.346-.531.346Zm-1.084-6.668c.254,0,.577-.115.577-.369,0-.485-2.192-6.9-2.607-8.144-.138-.392-.185-.6-.346-.6-.139,0-.162.069-.416.83-.646,1.869-2.445,7.729-2.445,7.937,0,.346.346.346.646.346Z" transform="translate(-609.538 -307.651)" fill="#333"/>
  <path id="パス_5" data-name="パス 5" d="M1006.418,384.876c1.107,0,6.368.115,6.368,3.991,0,2.353-1.777,3.415-3.069,4.038-.807.392-.9.438-.9.692a40.993,40.993,0,0,0,2.4,5.514,2.873,2.873,0,0,0,2.722,1.845c.231,0,.693,0,.693.37,0,.323-.462.369-.577.369h-2.884a1.131,1.131,0,0,1-1.085-.669c-.138-.231-1.776-3.807-2.03-4.384-1.269-2.792-1.43-3.161-2.238-3.161h-1.269c-.161,0-.461.093-.531.277-.091.231-.091,3.276-.091,3.807,0,2.792,0,3.391,2.122,3.391.161,0,.485,0,.485.37s-.416.369-.67.369h-5.7c-.231,0-.577-.046-.577-.369,0-.37.323-.37.646-.37,1.592,0,1.823-.738,1.892-1.592.046-.784.046-7.129.046-8.213a36.979,36.979,0,0,0-.185-4.66c-.3-.854-1.292-.854-1.822-.854-.139,0-.623,0-.623-.415,0-.346.415-.346.692-.346Zm-.83.761c-1.661,0-1.661,1.038-1.661,3.415,0,3.622,0,3.691.622,3.691h1.869c2.261,0,4.176-1.246,4.176-3.645,0-1.615-.877-3.461-3.876-3.461Z" transform="translate(-609.538 -307.651)" fill="#333"/>
  <path id="パス_6" data-name="パス 6" d="M1032.61,384.876c1.246,0,1.523,0,1.915,1.038.185.507,1.177,3.115,1.177,3.345a.354.354,0,0,1-.369.346c-.185,0-.254-.092-.784-.969-1.223-2.007-2.584-3-4.154-3-.9,0-1.453.369-1.591,1.154-.07.415-.07,5.629-.07,6.6,0,.646,0,5.975.07,6.368.208,1.176,1.292,1.2,1.915,1.2.853,0,1.038,0,1.038.37s-.323.369-.692.369h-6.46c-.323,0-.67,0-.67-.369s.37-.37.508-.37c1.362,0,2.215,0,2.446-1.2.069-.369.069-.393.069-6.529,0-5.7,0-6.322-.161-6.76a1.44,1.44,0,0,0-1.477-.831c-1.845,0-3.207,1.454-4.153,2.976-.554.9-.6.992-.807.992a.374.374,0,0,1-.369-.346c0-.184,1.038-2.953,1.222-3.414.369-.969.739-.969,1.892-.969Z" transform="translate(-609.538 -307.651)" fill="#333"/>
  <path id="パス_7" data-name="パス 7" d="M752.189,330.085c0,1.852-4.263,3.534-5.609,4.1-.785.281-.841.505-.954,2.468-.112,1.234-.112,5.778-.112,6.058,0,.336,0,1.01.505,1.01.168,0,4.768-1.907,5.666-2.244,5.552-2.075,8.077-2.244,9.535-2.244a8.588,8.588,0,0,1,8.638,8.47c0,7.4-7.8,10.77-12.4,10.77-3.2,0-5.777-1.627-5.777-4.544,0-2.636,2.3-4.431,2.8-4.431a.3.3,0,0,1,.28.28c0,.169-.112.281-.224.449a2.323,2.323,0,0,0-.505,1.515c0,2.692,3.085,2.692,3.646,2.692,3.7,0,8.414-2.468,8.414-6.955,0-3.983-2.973-6.17-5.385-6.17-1.571,0-5.048.729-11.611,4.206-3.141,1.683-3.478,1.852-3.478,2.8,0,.617.169,3.141.169,3.7,0,2.58-.841,6.282-2.861,6.282-1.514,0-2.131-1.178-2.58-2.075-1.795-3.478-2.075-3.478-2.8-3.478a4.69,4.69,0,0,0-1.4.337,11.123,11.123,0,0,1-2.131,1.122c-.617,0-3.478-1.683-3.478-3.534,0-1.01.617-2.188,1.626-2.188.337,0,1.964.281,2.3.281,1.515,0,2.524-.281,5.834-1.907,2.861-1.4,3.2-1.571,3.2-3.141,0-1.29-.056-6.058-.112-7.012,0-.392-.168-1.234-.785-1.234a13.121,13.121,0,0,0-2.58.505c-2.861.954-3.142,1.066-3.983,1.066-1.907,0-4.039-3.871-4.039-4.263a.4.4,0,0,1,.449-.393c.168,0,.842.225,1.01.225a16.312,16.312,0,0,0,2.58.28,24.494,24.494,0,0,0,7.124-1.683c.28-.392.56-5.5.56-6.114a5.506,5.506,0,0,0-1.851-4.487,5.584,5.584,0,0,1-.785-.9c0-.5.9-.616,1.234-.616,3.758,0,5.778,2.748,5.778,3.814a22.577,22.577,0,0,1-1.178,2.916,30.02,30.02,0,0,0-.561,3.646c0,.225.112.617.448.617.393,0,1.964-.617,1.964-1.4,0-.112-.281-.673-.281-.785,0-.056.112-.168.225-.224C749.5,327.561,752.189,328.347,752.189,330.085ZM739.4,351.568c0,.842,1.515,2.637,2.356,2.637.785,0,1.571-1.571,1.571-4.319,0-.225,0-.786-.168-.9C742.99,348.988,739.4,350.783,739.4,351.568Zm36.852-17.444c0,1.178-.673,2.692-1.851,2.692-.336,0-1.626-.112-1.907-.112-.28.056-1.458.393-1.683.393a.262.262,0,0,1-.28-.281,3.859,3.859,0,0,1,.168-.448,2.959,2.959,0,0,0,.225-1.01c0-2.244-2.8-3.029-4.712-3.029a4.87,4.87,0,0,0-2.188.561,1.252,1.252,0,0,1-.56.168c-.169,0-.225-.056-.225-.224,0-.393,2.356-3.534,6.058-3.534C773.616,329.3,776.252,331.544,776.252,334.124Z" transform="translate(-609.538 -307.651)" fill="#333"/>
  <path id="パス_8" data-name="パス 8" d="M830.528,335.19a49.424,49.424,0,0,0,13.574,4.431c.224,0,1.178.168,1.178.393,0,.168-.785.392-1.01.448a9.721,9.721,0,0,0-4.263,3.029c-.168.225-.785,1.4-1.066,1.4-.336,0-12.508-5.89-18.005-14.865-1.065-1.795-1.234-1.963-1.626-1.963s-.505.112-1.739,1.4a66.7,66.7,0,0,1-16.6,13.07c-1.908,1.009-7.741,3.59-8.807,3.59-.168,0-.28-.113-.28-.169s6-3.758,6.507-4.094c7.572-4.768,15.593-13.35,16.378-17.557.056-.449.112-.617.505-.617.28,0,4.824,1.739,5.1,1.907.168.056.729.281.729.841a3.511,3.511,0,0,1-.224.786C820.992,328.066,825.816,332.778,830.528,335.19Zm-27.036-13.967c-4.151,0-6.058.112-7.124.168-.168,0-1.01.112-1.178.112s-.28-.112-.505-.336l-1.065-1.29c-.225-.281-.225-.281-.225-.393s.056-.112.168-.112c.393,0,2.132.168,2.469.168,2.748.112,5.1.225,7.74.225H805.4c1.178,0,1.514-.561,1.514-1.515a9.134,9.134,0,0,0-.448-2.973,8.489,8.489,0,0,1-.337-1.122c0-.28.281-.392.617-.392.393,0,2.917.617,3.534.785,1.682.449,2.019.561,2.019,1.066,0,.336-.056.449-.842,1.458a1.373,1.373,0,0,0-.392,1.01c0,1.346.449,1.683,1.963,1.683h9.255c.505,0,1.683,0,1.683-1.515a23.356,23.356,0,0,0-.168-2.524c-.056-.28-.337-1.458-.337-1.683,0-.28.337-.392.617-.392.393,0,4.207.9,4.824,1.065s.953.393.953.9c0,.336-.224.561-.841,1.01a1.8,1.8,0,0,0-.729,1.57c0,1.571.9,1.571,1.795,1.571h2.86c2.469,0,2.749,0,3.59-.954,1.571-1.851,1.739-2.075,2.244-2.075.337,0,5.217,2.972,5.217,3.7,0,.785-1.122.785-2.973.785H830.079c-1.739,0-1.739.9-1.739,2.244,0,.336.056,2.243.056,2.524,0,2.075-1.683,2.412-2.86,2.412-1.29,0-1.515-.225-1.515-2.132V322.4c-.168-1.066-.841-1.178-1.739-1.178h-8.974c-1.29,0-2.076,0-2.076,1.571,0,.56.168,3.028.168,3.533,0,1.066-.168,1.571-.673,1.907a3.981,3.981,0,0,1-2.131.786c-.953,0-1.4-.617-1.4-1.739,0-.449.056-2.58.056-2.973,0-2.188,0-3.085-1.739-3.085Zm3.982,28.663a28.624,28.624,0,0,1,4.319,2.636,1.387,1.387,0,0,1,.449.841c0,.673-.449.786-1.795,1.122-.168.056-4.992,3.814-5.889,4.487-5.049,3.59-8.246,4.88-8.526,4.88a.179.179,0,0,1-.169-.168c0-.112,2.973-2.692,3.366-3.085,4.655-4.431,7.516-8.862,8.021-10.657A.337.337,0,0,1,807.474,349.886Zm2.581-2.973c-4.376,0-6,.056-7.124.168-.168,0-1.01.112-1.178.112s-.28-.112-.505-.336l-1.065-1.29c-.225-.281-.225-.281-.225-.393,0-.056.056-.112.168-.112.393,0,2.132.168,2.468.168,2.749.168,5.1.224,7.741.224h4.207c.56,0,1.683,0,1.683-1.514,0-.673-.337-5.217-.449-5.777,0-.113-.337-.674-.337-.786s.112-.336.561-.336c.393,0,4.319.841,4.88,1.009.785.169,1.066.673,1.066.954,0,.337-.113.449-.954,1.178-.785.673-.785,1.01-.785,2.692,0,2.02,0,2.58,1.683,2.58h2.468c2.468,0,2.748,0,3.59-.953,1.57-1.851,1.738-2.075,2.243-2.075.337,0,5.217,3.028,5.217,3.7,0,.785-1.122.785-2.973.785h-10.6c-1.682,0-1.682,1.009-1.682,2.8,0,3.983,0,6.227.112,9.536.056.954.056,2.3.056,2.973,0,1.795-.448,2.86-2.861,2.86-1.233,0-1.346-1.009-1.346-1.963,0-.729.169-4.094.169-4.824.056-2.131.056-4.206.056-6.787a34.041,34.041,0,0,0-.112-3.814c-.281-.785-1.179-.785-1.627-.785Zm14.976,4.711c0-.168.28-.224.505-.224,2.075,0,14.864,3.534,14.864,8.189,0,1.8-1.01,3.2-2.412,3.2-1.066,0-1.29-.281-3.029-2.861-2.636-3.982-6.507-6.282-9.648-8.077C825.255,351.849,825.031,351.681,825.031,351.624Z" transform="translate(-609.538 -307.651)" fill="#333"/>
  <path id="パス_9" data-name="パス 9" d="M886.6,328.178c-.393,0-12.171,2.749-12.452,2.861a24.364,24.364,0,0,1-2.524,1.066c-.841,0-3.478-1.683-3.815-2.02a11.449,11.449,0,0,1-1.346-3.253c0-.28.056-.449.337-.449.056,0,1.29.337,1.458.393a9.989,9.989,0,0,0,2.973.561c1.907,0,12.452-.9,15.369-2.075.5-.225,2.581-1.739,3.085-1.739,1.346,0,4.768,2.86,4.768,4.263,0,.5-2.075,2.019-2.412,2.412-1.122,1.346-5.553,7.908-6.45,9.2a1.839,1.839,0,0,0-.449,1.121c0,.505.112.617,2.468,1.908,2.524,1.458,12.564,7.123,12.564,12.227a2.422,2.422,0,0,1-2.3,2.468c-1.29,0-1.514-.392-3.477-3.87-3.87-6.787-8.806-11.05-10.041-11.05-.56,0-.729.168-1.963,1.571-1.963,2.075-7.684,8.357-14.976,12a13.789,13.789,0,0,1-3.478,1.29c-.112,0-.392,0-.392-.336a17.281,17.281,0,0,1,2.58-2.076c14.639-10.6,21.314-25.128,21.146-26.026A.63.63,0,0,0,886.6,328.178Z" transform="translate(-609.538 -307.651)" fill="#333"/>
  <path id="パス_10" data-name="パス 10" d="M923.725,359.645c11.5-6.506,19.183-15.649,19.183-17.388s-6.675-6-8.077-6c-1.29,0-8.077,7.348-9.928,7.348a.262.262,0,0,1-.281-.28,18.429,18.429,0,0,1,2.02-2.412c6.675-7.236,11.274-15.145,11.274-18.342,0-.449-.9-2.243-.9-2.636,0-.337.729-.337,1.065-.337,2.974,0,5.049,2.188,5.049,3.31,0,.336-.617,1.851-.617,2.187,0,.842,1.178.954,1.907.954a34.384,34.384,0,0,0,8.413-1.346,13.4,13.4,0,0,1,2.076-1.234c.561,0,4.6,2.524,4.6,4.319,0,.841-.393,1.009-1.4,1.458-.841.393-1.066.673-2.748,3.309-.786,1.234-4.6,6.563-5.273,7.685-.505.785-.617.954-.617,1.4,0,.5.056.617,1.066,1.907,1.346,1.739,2.356,2.973,2.356,4.936a2.415,2.415,0,0,1-2.412,2.693c-1.178,0-1.4-.393-3.534-3.983-.112-.224-.729-1.29-1.29-1.29-.505,0-.842.393-1.963,1.571-9.536,10.265-20.3,13.518-20.7,13.518-.112,0-.617,0-.5-.505C922.547,360.263,922.66,360.263,923.725,359.645Zm28.551-31.074c0-.617-.561-.785-.954-.785-.841,0-5.777.729-6.787.729a5.107,5.107,0,0,1-1.683-.224,3.755,3.755,0,0,0-1.346-.225.882.882,0,0,0-.673.225c-.056,0-4.768,5.609-4.768,6.282,0,.785.505.953,1.908,1.514a62.783,62.783,0,0,1,6.17,2.861,3.164,3.164,0,0,0,1.29.393C946.666,339.116,952.276,330.478,952.276,328.571Z" transform="translate(-609.538 -307.651)" fill="#333"/>
  <path id="パス_11" data-name="パス 11" d="M1001.71,333.675c2.187,1.346,2.412,1.571,2.412,2.076,0,.336-.617,1.907-.673,2.243-.224,1.01-.337,2.188-.337,9.928,0,1.515.056,4.544.169,6.731.056.674.392,3.927.392,4.656,0,.561,0,2.468-1.346,2.468-1.57,0-3.477-2.412-3.477-3.926,0-.561.56-3.029.616-3.59.337-3.029.561-7.348.561-10.321,0-2.019,0-7.909-1.458-7.909-.28,0-.5.224-.954.673-5.5,5.273-14.92,10.714-15.93,10.714-.168,0-.28-.113-.28-.337a.512.512,0,0,1,.168-.393c1.459-1.29,3.029-2.58,3.927-3.365,13.237-11.33,17.612-20.866,17.612-22.437a3.178,3.178,0,0,0-.448-1.57,6.094,6.094,0,0,1-.393-.9.554.554,0,0,1,.561-.448c.841,0,6.506,2.356,6.506,4.487a1.416,1.416,0,0,1-.5,1.122c-1.515,1.234-1.739,1.57-3.815,4.6-.953,1.347-2.748,3.366-3.814,4.712A.9.9,0,0,0,1001.71,333.675Z" transform="translate(-609.538 -307.651)" fill="#333"/>
  <path id="パス_12" data-name="パス 12" d="M1045.025,342.257c-3.366,7.292-9.255,10.658-10.377,10.658a.262.262,0,0,1-.28-.281c0-.449,1.795-2.412,2.243-2.973,6.17-8.469,6.787-14.583,6.787-16.434a12.3,12.3,0,0,0-.953-4.824,4.134,4.134,0,0,1-.225-1.01c0-.168.056-.28.281-.28.392,0,6.338,1.907,6.338,4.767C1048.839,332.049,1045.978,340.126,1045.025,342.257Zm9.087,5.217c0-.281.28-1.739.336-2.02.169-1.065.225-5.5.225-6.9,0-6.843-.674-9.143-1.066-10.545a14.59,14.59,0,0,1-.729-2.019c0-.225.224-.281.336-.281.281,0,6.17,1.01,6.17,3.927,0,.673-.785,3.59-.9,4.206-.224,1.515-.449,8.3-.449,10.153,0,.729.056,1.851,1.066,1.851,1.683,0,6.843-3.7,12.227-9.143.954-.953,5.722-6,5.946-6a.242.242,0,0,1,.225.225c0,.448-3.254,7.4-13.069,16.042a31.184,31.184,0,0,0-3.871,3.59c-.954,1.065-1.458,1.458-1.851,1.514C1057.084,352.354,1054.112,349.044,1054.112,347.474Z" transform="translate(-609.538 -307.651)" fill="#333"/>
  <path id="パス_13" data-name="パス 13" d="M1110.361,324.14c2.636,0,2.917,0,3.59-.954.9-1.29.953-1.4,1.4-1.4,1.066,0,4.095,2.524,4.095,3.2,0,.617-.337.617-3.029.617h-9.984c-4.88,0-6.507.112-7.068.168-.168,0-1.01.113-1.178.113-.224,0-.337-.113-.5-.337l-1.066-1.29c-.225-.281-.281-.281-.281-.393,0-.056.112-.112.224-.112.393,0,2.132.168,2.469.168,2.748.113,5.048.225,7.684.225Zm-1.963,6.843c1.234,0,1.57,0,2.3-1.122.336-.561.841-1.4,1.29-1.4.561,0,3.365,2.58,3.365,3.309,0,.673-.729.673-1.851.673h-8.47c-1.121,0-2.3,0-3.646.112-.224,0-1.178.113-1.4.113s-.337-.169-.449-.337l-.953-1.234c-.168-.224-.168-.28-.168-.393,0-.056.056-.112.168-.112.224,0,1.29.169,1.514.169,1.122.112,3.7.224,4.768.224Zm-.337,6.787c1.178,0,1.346,0,1.907-.729.954-1.346,1.234-1.795,1.571-1.795.785,0,2.86,2.636,2.86,3.365,0,.673-.672.673-1.85.673h-7.4c-.9,0-2.412,0-3.646.057a13.542,13.542,0,0,1-1.4.168c-.168,0-.28-.112-.392-.337l-.954-1.29c-.168-.224-.168-.28-.168-.336s0-.169.112-.169c.056,0,1.29.225,1.571.225,1.514.112,3.085.168,4.767.168Zm-2.973,19.576c-.505,0-1.8,0-1.8,1.346,0,.28.113,1.739.113,2.075,0,.842,0,2.973-2.693,2.973-1.514,0-1.514-.9-1.514-1.29,0-.28.056-1.458.112-1.739.112-2.972.224-6.562.224-9.311,0-1.4-.056-3.085-.168-4.936,0-.168-.112-1.514-.112-1.627,0-.224.056-.785.449-.785.617,0,1.458.393,3.365,1.234a4.105,4.105,0,0,0,1.963.393h3.31a2.507,2.507,0,0,0,2.468-1.178c.5-.729.729-.841,1.009-.841.674,0,3.141,1.626,3.141,2.355a2.133,2.133,0,0,1-.448,1.01c-.618.673-.618.9-.618,2.861,0,1.009.394,5.833.394,6.955a2.685,2.685,0,0,1-2.974,2.861c-.672,0-.672,0-1.065-1.515-.225-.841-1.122-.841-1.739-.841Zm2.637-40.554c1.346,0,1.57,0,2.187-.954.225-.336.73-1.122,1.29-1.122.842,0,3.422,2.244,3.422,2.917s-.785.673-1.851.673h-6.843c-1.122,0-2.244,0-3.646.056-.224,0-1.178.169-1.4.169-.169,0-.337-.225-.449-.337l-.9-1.29a.476.476,0,0,1-.168-.28c0-.169.112-.225.28-.225a13.878,13.878,0,0,1,1.515.225c2.749.168,3.534.168,4.655.168Zm-2.917,30.4c-1.8,0-1.8.561-1.8,3.141,0,5.273,0,5.5,1.851,5.5h3.646c1.8,0,1.8-.448,1.8-4.88,0-3.365,0-3.758-1.8-3.758Zm8.021,17.108c15.649-4.487,24.793-12.733,27.148-15.761.337-.449,1.571-2.749,2.076-2.749.224,0,5.1,2.861,5.1,3.758,0,.449-.224.561-2.019,1.234-.674.281-1.122.617-5.217,3.422-5.329,3.646-12.62,7.628-19.015,9.255a52.31,52.31,0,0,1-8.077,1.234.6.6,0,0,1-.336-.112C1112.493,364.525,1112.549,364.357,1112.829,364.3Zm19.183-46.331c0,.448.169.9,1.01,2.3,3.2,5.552,6.9,9.535,13.63,13.461a28.908,28.908,0,0,1,2.861,1.627c0,.112-.5.168-.673.168a9.653,9.653,0,0,0-2.8.449,17.6,17.6,0,0,1-2.692,1.4c-.617,0-3.534-3.085-4.151-3.758a32.87,32.87,0,0,1-7.685-12.059c-.505-1.459-.505-1.627-.953-1.627a.621.621,0,0,0-.505.393c-1.234,1.85-3.029,4.88-4.207,6.731-6.675,10.32-11.443,13.125-11.443,12.564a.688.688,0,0,1,.225-.505c4.6-5.216,11.331-17.613,11.947-23.39.225-2.019.225-2.075.674-2.075.392,0,.729.112,2.8,1.178,2.244,1.121,2.468,1.29,2.524,1.682C1132.629,316.736,1132.012,317.689,1132.012,317.97Zm-12,25.97c6.45-6.731,8.469-11.106,8.582-12.452.168-1.459.168-1.627.56-1.627.225,0,3.142,1.514,3.7,1.8,1.459.785,1.627.841,1.627,1.29s-.28.561-1.29,1.122c-.393.224-5.945,6-7.124,7.067a35.637,35.637,0,0,1-6.955,5.385,14.33,14.33,0,0,1-2.524,1.178c-.056,0-.168,0-.168-.112C1116.363,347.53,1119.56,344.445,1120.009,343.94Zm4.711,6.619c4.824-4.039,9.143-7.965,10.041-11.331.28-.953.28-1.009.673-1.009.449,0,4.711,2.412,4.711,3.2,0,.449-.448.729-1.57,1.346-1.01.561-4.88,3.926-5.665,4.543-7.46,5.778-11.892,7.124-13.631,7.629-.28.056-.448,0-.448-.056C1118.719,354.709,1123.823,351.288,1124.72,350.559Z" transform="translate(-609.538 -307.651)" fill="#333"/>
  <path id="パス_14" data-name="パス 14" d="M1201.129,334.909c-1.346,0-1.907.225-2.019,1.739-.729,10.377-1.01,13.742-3.085,19.576-1.459,4.039-4.6,7.909-5.329,7.909-.224,0-.28-.112-.28-.168,0-.225.729-1.29.729-1.571,0-.449-.225-.449-2.076-.449h-14.752c-1.4,0-1.458.169-1.963,1.459a2.841,2.841,0,0,1-2.8,1.851c-.505,0-.785-.281-.785-1.122,0-4.207.28-25.017.28-29.728,0-3.927-.056-14.079-.505-17.277a18.875,18.875,0,0,1-.505-1.907c0-.224.225-.224.449-.224,1.683,0,5.1,1.514,5.1,2.468a7.952,7.952,0,0,1-.785,1.29,46.556,46.556,0,0,0-.224,5.833c0,4.039.112,24.064.112,28.607,0,.112,0,.505.224.505.842,0,6.956-14.977,6.956-18.174a.81.81,0,0,0-.842-.9c-.561,0-3.646.28-4.151.28-.224,0-.28-.112-.505-.392l-1.065-1.29c-.281-.281-.281-.281-.281-.337,0-.112.169-.168.225-.168.954,0,5.553.392,6.619.392,1.121,0,1.458-.561,1.514-1.346,0-.393.056-4.824.056-5.553a89.612,89.612,0,0,0-.393-10.208c-.056-.393-.785-2.02-.785-2.132s.112-.112.225-.112c.056,0,3.2.561,3.982.785.841.224,2.188.561,2.188,1.234,0,.281-1.347,1.178-1.571,1.458-.168.169-.168.281-.168,1.066,0,1.851-.281,10.994-.281,13.126,0,1.121.281,1.682,1.571,1.682a2.281,2.281,0,0,0,1.851-.561c.28-.224,1.4-1.738,1.795-1.738.617,0,3.253,2.86,3.253,3.028,0,.786-1.066.786-2.973.786h-3.646c-1.121,0-1.739.336-1.739,2.019,0,1.122.393,1.458,1.515,2.356,3.646,2.8,5.048,3.87,5.048,5.833a2.648,2.648,0,0,1-2.244,2.525c-.9,0-1.009-.281-1.682-2.973-.449-1.683-1.4-3.983-2.132-3.983-.392,0-.392.729-.392.9,0,.673.28,12.789.28,14.92,0,2.188-2.356,2.58-3.085,2.58-.841,0-.954-.617-.954-1.29,0-1.963.169-11.5.169-13.686,0-.112,0-.617-.281-.617-.112,0-.224.056-.392.449a33.694,33.694,0,0,1-6.9,10.881c-1.01,1.178-1.01,1.29-1.01,4.039,0,1.065.112,1.907,1.795,1.907h8.077c2.356,0,3.085,0,3.59-.954.953-1.626,1.066-1.851,1.571-1.851.729,0,3.309,2.8,4.094,2.8.337,0,.505-.224.673-.617,2.524-5.665,3.141-12.789,3.141-20.978,0-1.515-.112-14.64-.224-15.986-.112-1.4-.505-4.431-.505-4.656,0-.168.056-.224.281-.224.617,0,3.309,1.122,3.926,1.122,1.739,0,7.8-2.693,10.6-4.207.337-.169,1.627-1.234,2.019-1.234,0,0,4.824,2.524,4.824,3.533,0,.393-.112.393-2.075.674-1.8.28-10.826,1.57-12.9,1.794-1.739.169-1.963.225-2.187.842-.113.393-.225,8.133-.225,9.255,0,3.029,0,3.646,1.963,3.646h8.189c1.908,0,2.469-.056,2.749-.224.505-.225,1.963-2.973,2.58-2.973.673,0,2.693,3.477,2.693,3.926,0,.337-.337.505-.561.617a11.443,11.443,0,0,1-2.805.112h-3.253c-.9,0-1.683,0-1.908,1.234-.111.505-.111,14.472-.111,15.818,0,3.141.28,6.675.392,8.077a13.813,13.813,0,0,1,.112,1.571c0,.9,0,3.421-3.085,3.421-.953,0-1.4-.28-1.4-1.626,0-.169.168-2.132.168-2.356.056-.9.281-10.882.281-12.172,0-1.739-.056-10.433-.056-12.228,0-1.514-.674-1.739-1.964-1.739Zm-22.268-7.74a2.283,2.283,0,0,1-2.3,2.58c-1.122,0-1.178-.393-1.739-3.814a25.344,25.344,0,0,0-.785-3.646c-.056-.225-.393-1.01-.393-1.178s.113-.112.225-.056C1175.552,322.008,1178.861,324.869,1178.861,327.169Zm10.377-6.339c.561,0,3.758,2.188,3.758,3.029,0,.337,0,.393-1.234.9-.785.336-2.973,3.421-3.478,3.982a15.513,15.513,0,0,1-2.355,2.02c-.057,0,2.131-5.441,2.355-6.507.112-.505.337-2.58.449-2.973C1188.845,321,1188.957,320.83,1189.238,320.83Z" transform="translate(-609.538 -307.651)" fill="#333"/>
</svg>
