<?xml version="1.0" encoding="utf-8"?>
<!-- Generator: Adobe Illustrator 24.1.2, SVG Export Plug-In . SVG Version: 6.00 Build 0)  -->
<svg version="1.1" id="ochart_stit_sbscription" xmlns="http://www.w3.org/2000/svg" xmlns:xlink="http://www.w3.org/1999/xlink"
	 x="0px" y="0px" width="500.5px" height="104px" viewBox="0 0 500.5 104" style="enable-background:new 0 0 500.5 104;"
	 xml:space="preserve">
<style type="text/css">
	.st0{opacity:3.000000e-03;fill:#FF0202;enable-background:new    ;}
	.st1{fill:#333333;}
	.st2{fill:none;stroke:#333333;stroke-miterlimit:10;}
</style>
<rect id="長方形_28" x="45.9" y="0" class="st0" width="408" height="104"/>
<g id="グループ_503" transform="translate(-389 -414)">
	<g id="グループ_29" transform="translate(-365.028 -1720.867)">
		<g id="グループ_28">
			<path id="パス_35" class="st1" d="M936.1,2199.7c-0.1-0.3-0.7-1.8-0.7-1.9c0-0.2,0.1-0.3,0.3-0.3c0,0,0,0,0,0
				c0.2,0,0.2,0.1,0.5,0.6c0.7,1.1,1.9,1.9,3.3,1.9c1.1,0,2-0.8,2.1-2c0-0.1,0-0.1,0-0.2c0-1.3-0.8-1.7-2.6-2.3
				c-1.9-0.7-3.2-1.4-3.2-3.1c0-1.5,1.1-2.7,2.6-2.7c0.1,0,0.2,0,0.2,0c0.3,0,0.7,0,1,0.1c0.2,0,0.7,0.2,0.8,0.2
				c0.1,0,0.2,0,0.3-0.1c0.2-0.2,0.2-0.2,0.3-0.2c0.2,0,0.2,0.1,0.3,0.5c0.1,0.2,0.8,1.9,0.8,2c0,0.1-0.1,0.2-0.2,0.2c0,0,0,0,0,0
				c-0.1,0-0.1,0-0.4-0.4c-0.5-1.1-1.6-1.8-2.9-1.8c-1-0.1-1.8,0.7-1.9,1.7c0,0.1,0,0.1,0,0.2c0,1.2,0.8,1.6,2.7,2.2
				c2.8,1,3.2,2.1,3.2,3.2c0,1.6-1.3,3-2.9,3c0,0-0.1,0-0.1,0c-0.5,0-1-0.1-1.5-0.3c-0.2-0.1-0.4-0.1-0.6-0.1
				c-0.2,0-0.4,0.1-0.5,0.2c-0.2,0.2-0.3,0.2-0.4,0.2C936.4,2200.5,936.4,2200.4,936.1,2199.7z"/>
			<path id="パス_36" class="st1" d="M955.5,2190c0.2,0,0.4,0,0.4,0.2s-0.2,0.2-0.4,0.2c-1,0-1.1,0.8-1.1,1.2c0,0.7,0,4.2,0,5
				c0.1,1.1-0.2,2.1-0.9,2.9c-0.6,0.6-1.5,0.9-2.4,0.9c-0.6,0-3.5-0.2-3.6-3.1c0-0.8,0-4.6,0-5.4c0-1.1-0.1-1.5-1.3-1.5
				c-0.1,0-0.3,0-0.3-0.2s0.2-0.2,0.4-0.2h3.4c0.2,0,0.4,0,0.4,0.2s-0.2,0.2-0.4,0.2c-0.4-0.1-0.9,0.2-1,0.6
				c-0.1,0.2-0.1,2.9-0.1,3.4c0,3.1,0,3.3,0.2,4c0.4,1,1.4,1.6,2.4,1.5c0.9,0,1.7-0.4,2.2-1.1c0.5-0.7,0.5-1.3,0.5-4.5
				c0-3.1,0-3.2-0.2-3.4c-0.2-0.3-0.6-0.5-1-0.4c-0.2,0-0.3-0.1-0.3-0.2c0-0.2,0.2-0.2,0.3-0.2H955.5z"/>
			<path id="パス_37" class="st1" d="M964.4,2190c1.6,0,3.6,0.5,3.6,2.3c0,1-0.7,1.9-1.7,2.3c-0.1,0-0.3,0.1-0.3,0.2
				s0.6,0.2,0.7,0.2c1.1,0.3,1.8,1.3,1.9,2.4c0,1.3-1.2,2.8-3.8,2.8h-4.7c-0.2,0-0.4,0-0.4-0.2s0.2-0.2,0.4-0.2c0.5,0,1.1,0,1.2-0.7
				c0.1-0.3,0.1-4.2,0.1-4.8c0-1.1,0-2.2-0.1-3.3c-0.2-0.5-0.8-0.5-1-0.5c-0.5,0-0.6,0-0.6-0.2s0.1-0.2,0.5-0.2L964.4,2190z
				 M962.8,2195c-0.1,0-0.3,0.1-0.3,0.2c-0.1,0.1-0.1,2.1-0.1,2.4c0,1.5,0,2.1,1,2.1h1.2c1.3,0.2,2.4-0.7,2.6-2c0-0.1,0-0.2,0-0.3
				c0-1.3-1-2.4-2.3-2.4c-0.1,0-0.2,0-0.2,0H962.8z M964.3,2194.6c1.2,0.1,2.2-0.7,2.4-1.8c0-0.1,0-0.2,0-0.3c0-1.4-0.9-2-2.3-2h-1
				c-1,0-1,0.6-1,1.8c0,0.7,0,2,0,2.1c0.1,0.1,0.2,0.2,0.3,0.2H964.3z"/>
			<path id="パス_38" class="st1" d="M973.2,2199.7c-0.1-0.3-0.7-1.8-0.7-1.9c0-0.2,0.1-0.3,0.3-0.3c0,0,0,0,0,0
				c0.2,0,0.2,0.1,0.5,0.6c0.7,1.1,1.9,1.9,3.3,1.9c1.1,0,2-0.8,2.1-2c0-0.1,0-0.1,0-0.2c0-1.3-0.8-1.7-2.6-2.3
				c-1.9-0.7-3.2-1.4-3.2-3.1c0-1.5,1.1-2.7,2.6-2.7c0.1,0,0.2,0,0.2,0c0.3,0,0.7,0,1,0.1c0.2,0,0.7,0.2,0.8,0.2
				c0.1,0,0.2,0,0.3-0.1c0.2-0.2,0.2-0.2,0.3-0.2c0.2,0,0.2,0.1,0.3,0.5c0.1,0.2,0.8,1.9,0.8,2c0,0.1-0.1,0.2-0.2,0.2c0,0,0,0,0,0
				c-0.1,0-0.1,0-0.4-0.4c-0.5-1.1-1.6-1.8-2.9-1.8c-1-0.1-1.8,0.7-1.9,1.7c0,0.1,0,0.1,0,0.2c0,1.2,0.8,1.6,2.7,2.2
				c2.8,1,3.2,2.1,3.2,3.2c0,1.6-1.3,3-2.9,3c0,0-0.1,0-0.1,0c-0.5,0-1-0.1-1.5-0.3c-0.2-0.1-0.4-0.1-0.6-0.1
				c-0.2,0-0.4,0.1-0.5,0.2c-0.2,0.2-0.3,0.2-0.4,0.2C973.5,2200.5,973.5,2200.4,973.2,2199.7z"/>
			<path id="パス_39" class="st1" d="M991,2189.9c0,0,0.9,2.2,0.9,2.4c0,0.1-0.1,0.3-0.3,0.3c-0.1,0-0.2,0-0.4-0.4
				c-0.6-1.1-1.8-1.8-3-1.9c-2.2,0-3.3,2.7-3.3,5.1c0,3.2,1.9,4.5,3.6,4.5c1.3,0,2.5-0.8,3-2c0.3-0.5,0.3-0.6,0.4-0.6
				c0.1,0,0.2,0.1,0.2,0.2c-0.2,0.5-0.5,1-0.8,1.4c-0.8,1-2,1.6-3.3,1.6c-3,0-4.4-2.4-4.4-5.1c0-3.3,2-5.6,4.4-5.6
				c0.4,0,0.8,0.1,1.2,0.2c0.3,0.1,0.6,0.2,0.8,0.2c0.1,0,0.3,0,0.4-0.1c0.2-0.2,0.3-0.3,0.4-0.3
				C990.9,2189.7,991,2189.8,991,2189.9z"/>
			<path id="パス_40" class="st1" d="M999.8,2190c0.7,0,3.9,0.1,3.9,2.4c-0.1,1.1-0.8,2.1-1.9,2.5c-0.5,0.2-0.5,0.3-0.5,0.4
				c0.4,1.1,0.9,2.3,1.5,3.3c0.3,0.7,0.9,1.1,1.7,1.1c0.1,0,0.4,0,0.4,0.2c0,0.2-0.3,0.2-0.3,0.2h-1.8c-0.3,0-0.5-0.1-0.7-0.4
				c-0.1-0.1-1.1-2.3-1.2-2.7c-0.8-1.7-0.9-1.9-1.4-1.9h-0.8c-0.1,0-0.3,0.1-0.3,0.2c-0.1,0.1-0.1,2-0.1,2.3c0,1.7,0,2.1,1.3,2.1
				c0.1,0,0.3,0,0.3,0.2s-0.3,0.2-0.4,0.2H996c-0.1,0-0.3,0-0.3-0.2c0-0.2,0.2-0.2,0.4-0.2c1,0,1.1-0.4,1.1-1c0-0.5,0-4.3,0-5
				c0-0.9,0-1.9-0.1-2.8c-0.2-0.5-0.8-0.5-1.1-0.5c-0.1,0-0.4,0-0.4-0.3c0-0.2,0.3-0.2,0.4-0.2H999.8z M999.3,2190.4
				c-1,0-1,0.6-1,2.1c0,2.2,0,2.2,0.4,2.2h1.1c1.2,0.2,2.4-0.7,2.5-2c0-0.1,0-0.2,0-0.2c0-1-0.5-2.1-2.4-2.1L999.3,2190.4z"/>
			<path id="パス_41" class="st1" d="M1008.8,2200.2c-0.2,0-0.4,0-0.4-0.2s0.1-0.2,0.7-0.2c0.4,0,1.1,0,1.2-0.7c0-0.2,0-3.5,0-3.9
				c0-0.6,0-3.7,0-4c-0.1-0.7-0.6-0.7-1.6-0.7c-0.1,0-0.3,0-0.3-0.2s0.2-0.2,0.4-0.2h4.1c0.2,0,0.4,0,0.4,0.2c0,0.2-0.1,0.2-0.6,0.2
				c-0.4,0-1,0-1.2,0.6c-0.1,0.2-0.1,3.3-0.1,4c-0.1,1.3,0,2.6,0,4c0.1,0.7,0.6,0.7,1.6,0.7c0.1,0,0.3,0,0.3,0.2s-0.2,0.2-0.4,0.2
				L1008.8,2200.2z"/>
			<path id="パス_42" class="st1" d="M1021.1,2190c0.5,0,4,0,4,2.6c0,1.5-1.1,2.7-3.6,2.7h-1.3c-0.4,0-0.4,0.1-0.4,1.2
				c0,2.6,0,2.6,0.2,2.8c0.2,0.3,0.6,0.4,0.9,0.4c0.3,0,0.5,0,0.5,0.2s-0.2,0.2-0.4,0.2h-3.5c-0.2,0-0.4,0-0.4-0.2s0.2-0.2,0.3-0.2
				c0.5,0,1.1,0,1.2-0.7c0.1-1.3,0.1-2.6,0-4c0-0.7,0-3.7,0-3.9c-0.1-0.5-0.6-0.8-1.1-0.7c-0.3,0-0.5,0-0.5-0.2s0.2-0.2,0.4-0.2
				L1021.1,2190z M1021.2,2194.9c1.8,0,2.6-1,2.6-2.2c0-1.2-0.9-2.2-2.1-2.3c-0.1,0-0.2,0-0.3,0h-0.6c-1,0-1,0.6-1,1.8
				c0,0.2,0,2.2,0,2.3c0,0.2,0.2,0.3,0.4,0.3L1021.2,2194.9z"/>
			<path id="パス_43" class="st1" d="M1036.8,2190c0.8,0,0.9,0,1.2,0.6c0.1,0.3,0.7,1.9,0.7,2c0,0.1-0.1,0.2-0.2,0.2c0,0,0,0,0,0
				c-0.1,0-0.2-0.1-0.5-0.6c-0.4-1-1.4-1.7-2.5-1.8c-0.5,0-0.9,0.2-1,0.7c0,0.3,0,3.4,0,4c0,0.4,0,3.6,0,3.9
				c0.1,0.7,0.8,0.7,1.2,0.7c0.5,0,0.6,0,0.6,0.2s-0.2,0.2-0.4,0.2h-3.9c-0.2,0-0.4,0-0.4-0.2s0.2-0.2,0.3-0.2c0.8,0,1.3,0,1.5-0.7
				c0.1-1.3,0.1-2.6,0-4c0-3.5,0-3.8-0.1-4.1c-0.2-0.3-0.5-0.5-0.9-0.5c-1.1,0.1-2,0.8-2.5,1.8c-0.3,0.5-0.4,0.6-0.5,0.6
				c-0.1,0-0.2-0.1-0.2-0.2c0-0.1,0.6-1.8,0.7-2.1c0.2-0.6,0.4-0.6,1.1-0.6L1036.8,2190z"/>
			<path id="パス_44" class="st1" d="M1042.6,2200.2c-0.2,0-0.4,0-0.4-0.2s0.1-0.2,0.7-0.2c0.4,0,1.1,0,1.2-0.7c0-0.2,0-3.5,0-3.9
				c0-0.6,0-3.7,0-4c-0.1-0.7-0.6-0.7-1.6-0.7c-0.1,0-0.3,0-0.3-0.2s0.2-0.2,0.4-0.2h4.1c0.2,0,0.4,0,0.4,0.2c0,0.2-0.1,0.2-0.6,0.2
				c-0.4,0-1,0-1.2,0.6c-0.1,0.2-0.1,3.3-0.1,4c-0.1,1.3,0,2.6,0,4c0.1,0.7,0.6,0.7,1.6,0.7c0.1,0,0.3,0,0.3,0.2s-0.2,0.2-0.4,0.2
				L1042.6,2200.2z"/>
			<path id="パス_45" class="st1" d="M1054.9,2200.5c-2.7,0-4.6-2.2-4.6-5.4s1.9-5.4,4.6-5.4c2.7,0,4.6,2.2,4.6,5.4
				C1059.5,2198.2,1057.6,2200.5,1054.9,2200.5z M1058.2,2195c0-1.3-0.4-4.8-3.2-4.8c-3.1,0-3.2,4.1-3.2,5c0,1.3,0.4,4.8,3.2,4.8
				C1058,2200,1058.2,2195.9,1058.2,2195z"/>
			<path id="パス_46" class="st1" d="M1063.3,2200.2c-0.2,0-0.4,0-0.4-0.2s0.2-0.2,0.5-0.2c0.5,0.1,0.9-0.2,1.1-0.6
				c0.1-0.3,0.1-0.3,0.1-4c0.1-1.3,0-2.5,0-3.8c-0.2-0.8-0.9-0.8-1.4-0.8c-0.1,0-0.3,0-0.3-0.2s0.2-0.2,0.4-0.2h1.4c1,0,1,0,1.8,1.1
				c0.9,1.3,2.2,3.3,3.1,4.6c0.2,0.3,1.5,2.2,1.6,2.2c0.1,0,0.1-0.1,0.1-0.3c0-0.4,0-2.7,0-3.2s0-3,0-3.2c-0.2-0.9-0.9-0.9-1.3-0.9
				c-0.1,0-0.3,0-0.3-0.2s0.2-0.2,0.4-0.2h2.9c0.2,0,0.4,0,0.4,0.2s-0.2,0.2-0.4,0.2c-1.2,0-1.2,0.6-1.2,2.3c0,1.1,0,6.2,0,7.4
				c0,0.1,0,0.3-0.2,0.3c-0.1,0-0.1,0-0.2-0.1c-0.1-0.1-5.6-8.3-5.6-8.4c-0.3-0.4-0.3-0.5-0.3-0.5s-0.1,0.1-0.1,0.3
				c0,0.5,0,2.9,0,3.5s0,3.3,0,3.6c0.2,0.9,0.9,0.9,1.5,0.9c0.1,0,0.3,0,0.3,0.2s-0.2,0.2-0.4,0.2L1063.3,2200.2z"/>
		</g>
	</g>
	<g id="グループ_31" transform="translate(-365.028 -1720.867)">
		<g id="グループ_30">
			<path id="パス47" class="st1" d="M777.7,2152.4c0,1.3-3,2.5-4,2.9c-0.6,0.2-0.6,0.4-0.7,1.8c-0.1,0.9-0.1,4.1-0.1,4.3
				c0,0.2,0,0.7,0.4,0.7c0.1,0,3.4-1.4,4-1.6c4-1.5,5.8-1.6,6.8-1.6c2.9,0,6.2,2.3,6.2,6c0,5.3-5.6,7.7-8.8,7.7
				c-2.3,0-4.1-1.2-4.1-3.2c0-1.9,1.6-3.2,2-3.2c0.1,0,0.2,0.1,0.2,0.2c0,0.1-0.1,0.2-0.2,0.3c-0.1,0.2-0.4,0.5-0.4,1.1
				c0,1.9,2.2,1.9,2.6,1.9c2.6,0,6-1.8,6-5c0-2.8-2.1-4.4-3.8-4.4c-1.1,0-3.6,0.5-8.3,3c-2.2,1.2-2.5,1.3-2.5,2
				c0,0.4,0.1,2.2,0.1,2.6c0,1.8-0.6,4.5-2,4.5c-1.1,0-1.5-0.8-1.8-1.5c-1.3-2.5-1.5-2.5-2-2.5c-0.4,0-0.8,0.2-1,0.2
				c-0.2,0.1-1.2,0.8-1.5,0.8c-0.4,0-2.5-1.2-2.5-2.5c0-0.7,0.4-1.6,1.2-1.6c0.2,0,1.4,0.2,1.6,0.2c1.1,0,1.8-0.2,4.2-1.4
				c2-1,2.3-1.1,2.3-2.2c0-0.9,0-4.3-0.1-5c0-0.3-0.1-0.9-0.6-0.9c-0.5,0-1.6,0.3-1.8,0.4c-2,0.7-2.2,0.8-2.8,0.8
				c-1.4,0-2.9-2.8-2.9-3c0-0.2,0.2-0.3,0.3-0.3c0.1,0,0.6,0.2,0.7,0.2c0.7,0.1,1.3,0.2,1.8,0.2c1.4,0,4.8-1,5.1-1.2
				c0.2-0.3,0.4-3.9,0.4-4.4c0-1.2-0.2-2-1.3-3.2c-0.1-0.1-0.6-0.6-0.6-0.6c0-0.4,0.6-0.4,0.9-0.4c2.7,0,4.1,2,4.1,2.7
				c0,0.4-0.8,1.8-0.8,2.1c0,0.3-0.4,1.9-0.4,2.6c0,0.2,0.1,0.4,0.3,0.4c0.3,0,1.4-0.4,1.4-1c0-0.1-0.2-0.5-0.2-0.6
				c0,0,0.1-0.1,0.2-0.2C775.8,2150.6,777.7,2151.2,777.7,2152.4z M768.6,2167.8c0,0.6,1.1,1.9,1.7,1.9c0.6,0,1.1-1.1,1.1-3.1
				c0-0.2,0-0.6-0.1-0.6C771.2,2165.9,768.6,2167.2,768.6,2167.8z M794.9,2155.3c0,0.8-0.5,1.9-1.3,1.9c-0.2,0-1.2-0.1-1.4-0.1
				c-0.2,0-1,0.3-1.2,0.3c-0.1,0-0.2,0-0.2-0.2c0-0.1,0.1-0.3,0.1-0.3c0.1-0.2,0.2-0.4,0.2-0.7c0-1.6-2-2.2-3.4-2.2
				c-0.6,0-1,0.2-1.6,0.4c-0.2,0.1-0.3,0.1-0.4,0.1c-0.1,0-0.2,0-0.2-0.2c0-0.3,1.7-2.5,4.3-2.5
				C793,2151.9,794.9,2153.5,794.9,2155.3z"/>
			<path id="パス48" class="st1" d="M835.9,2156.1c4.2,2.2,8.8,3,9.7,3.2c0.2,0,0.8,0.1,0.8,0.3c0,0.1-0.6,0.3-0.7,0.3
				c-0.9,0.3-2.3,1.2-3,2.2c-0.1,0.2-0.6,1-0.8,1c-0.2,0-8.9-4.2-12.8-10.6c-0.8-1.3-0.9-1.4-1.2-1.4c-0.3,0-0.4,0.1-1.2,1
				c-5.7,6-10.6,8.7-11.8,9.3c-1.4,0.7-5.5,2.6-6.3,2.6c-0.1,0-0.2-0.1-0.2-0.1c0,0,4.3-2.7,4.6-2.9c5.4-3.4,11.1-9.5,11.7-12.5
				c0-0.3,0.1-0.4,0.4-0.4c0.2,0,3.4,1.2,3.6,1.4c0.1,0,0.5,0.2,0.5,0.6c0,0.1-0.1,0.3-0.2,0.6
				C829.1,2151,832.5,2154.4,835.9,2156.1z M816.6,2146.1c-3,0-4.3,0.1-5.1,0.1c-0.1,0-0.7,0.1-0.8,0.1c-0.1,0-0.2-0.1-0.4-0.2
				l-0.8-0.9c-0.2-0.2-0.2-0.2-0.2-0.3s0-0.1,0.1-0.1c0.3,0,1.5,0.1,1.8,0.1c2,0.1,3.6,0.2,5.5,0.2h1.2c0.8,0,1.1-0.4,1.1-1.1
				c0-0.7-0.1-1.4-0.3-2.1c0-0.1-0.2-0.7-0.2-0.8c0-0.2,0.2-0.3,0.4-0.3c0.3,0,2.1,0.4,2.5,0.6c1.2,0.3,1.4,0.4,1.4,0.8
				c0,0.2,0,0.3-0.6,1c-0.2,0.3-0.3,0.4-0.3,0.7c0,1,0.3,1.2,1.4,1.2h6.6c0.4,0,1.2,0,1.2-1.1c0-0.6-0.1-1.5-0.1-1.8
				c0-0.2-0.2-1-0.2-1.2c0-0.2,0.2-0.3,0.4-0.3c0.3,0,3,0.6,3.4,0.8c0.4,0.1,0.7,0.3,0.7,0.6c0,0.2-0.2,0.4-0.6,0.7
				c-0.2,0.2-0.5,0.4-0.5,1.1c0,1.1,0.6,1.1,1.3,1.1h2c1.8,0,2,0,2.6-0.7c1.1-1.3,1.2-1.5,1.6-1.5c0.2,0,3.7,2.1,3.7,2.6
				c0,0.6-0.8,0.6-2.1,0.6h-7.8c-1.2,0-1.2,0.6-1.2,1.6c0,0.2,0,1.6,0,1.8c0,1.5-1.2,1.7-2,1.7c-0.9,0-1.1-0.2-1.1-1.5v-2.8
				c-0.1-0.8-0.6-0.8-1.2-0.8h-6.4c-0.9,0-1.5,0-1.5,1.1c0,0.4,0.1,2.2,0.1,2.5c0,0.8-0.1,1.1-0.5,1.4c-0.4,0.3-1,0.6-1.5,0.6
				c-0.7,0-1-0.4-1-1.2c0-0.3,0-1.8,0-2.1c0-1.6,0-2.2-1.2-2.2H816.6z M819.4,2166.6c0.3,0,2.9,1.7,3.1,1.9c0.2,0.2,0.3,0.4,0.3,0.6
				c0,0.5-0.3,0.6-1.3,0.8c-0.1,0-3.6,2.7-4.2,3.2c-3.6,2.6-5.9,3.5-6.1,3.5c-0.1,0-0.1-0.1-0.1-0.1c0-0.1,2.1-1.9,2.4-2.2
				c3.3-3.2,5.4-6.3,5.7-7.6C819.3,2166.6,819.4,2166.6,819.4,2166.6z M821.3,2164.4c-3.1,0-4.3,0-5.1,0.1c-0.1,0-0.7,0.1-0.8,0.1
				c-0.1,0-0.2-0.1-0.4-0.2l-0.8-0.9c-0.2-0.2-0.2-0.2-0.2-0.3c0,0,0-0.1,0.1-0.1c0.3,0,1.5,0.1,1.8,0.1c2,0.1,3.6,0.2,5.5,0.2h3
				c0.4,0,1.2,0,1.2-1.1c0-0.5-0.2-3.7-0.3-4.1c0-0.1-0.2-0.5-0.2-0.6s0.1-0.2,0.4-0.2c0.3,0,3.1,0.6,3.5,0.7
				c0.6,0.1,0.8,0.5,0.8,0.7c0,0.2-0.1,0.3-0.7,0.8c-0.6,0.5-0.6,0.7-0.6,1.9c0,1.4,0,1.8,1.2,1.8h1.8c1.8,0,2,0,2.6-0.7
				c1.1-1.3,1.2-1.5,1.6-1.5c0.2,0,3.7,2.2,3.7,2.6c0,0.6-0.8,0.6-2.1,0.6h-7.6c-1.2,0-1.2,0.7-1.2,2c0,2.8,0,4.4,0.1,6.8
				c0,0.7,0,1.6,0,2.1c0,1.3-0.3,2-2,2c-0.9,0-1-0.7-1-1.4c0-0.5,0.1-2.9,0.1-3.4c0-1.5,0-3,0-4.8c0-0.9,0-2.5-0.1-2.7
				c-0.2-0.6-0.8-0.6-1.2-0.6H821.3z M832,2167.8c0-0.1,0.2-0.2,0.4-0.2c1.5,0,10.6,2.5,10.6,5.8c0,1.3-0.7,2.3-1.7,2.3
				c-0.8,0-0.9-0.2-2.2-2c-1.9-2.8-4.6-4.5-6.9-5.8C832.1,2168,832,2167.8,832,2167.8z"/>
			<path id="パス49" class="st1" d="M878.4,2147.6c0,0.1,0.1,0.3,0.1,0.4c0.2,1.3,0.4,2.6,0.4,4.3c0,2.7-0.6,6.4-4.1,11.7
				c-3.2,4.9-5.2,5.8-6.8,5.8c-2.6,0-5-4.1-5-9c0-2.1,0.4-6.2,4.4-10.2c5.1-5.2,10.4-5.2,12.8-5.2c3.6,0,5.3,0.7,6.4,1.3
				c4.3,2.1,7,6.4,7,11.6c0,5.2-3,11.6-10.1,14.1c-3.4,1.2-6,1.5-6.6,1.5c-0.2,0-0.4,0-0.4-0.3c0-0.1,0.1-0.2,1.1-0.6
				c4.2-1.6,12.8-5.1,12.8-15c0-1.6-0.2-11.1-11.1-11.1C878.4,2147,878.4,2147.3,878.4,2147.6z M865.4,2159.8c0,2.6,1,6.2,3.5,6.2
				c1.2,0,2.1-0.5,4.9-4.6c2.1-3.2,3.9-7.7,3.9-11.6c0-2.4-0.2-2.6-0.7-2.6C873.2,2147.1,865.4,2152.3,865.4,2159.8z"/>
			<path id="パス50" class="st1" d="M921.5,2155.6c-3.5,0-4.6,0.1-5,0.1c-0.2,0-0.7,0.1-0.8,0.1c-0.2,0-0.2-0.1-0.4-0.2l-0.8-0.9
				c-0.2-0.2-0.2-0.2-0.2-0.3c0,0,0.1-0.1,0.2-0.1c0.3,0,1.5,0.1,1.8,0.1c2,0.1,3.6,0.2,5.5,0.2h10.8c1.7,0,2.1,0,2.6-0.7
				c1-1.4,1-1.6,1.4-1.6c0.7,0,3.4,2,3.4,2.7c0,0.6-0.7,0.6-2.2,0.6h-7.7c-1.1,0-1.1,0.4-1.1,3.7c0,3.1,0,3.4,1.1,3.4h2.8
				c1.7,0,2.1,0,2.5-0.7c0.8-1.2,0.8-1.3,1.2-1.3c0.5,0,2.9,2,2.9,2.6c0,0.2-0.2,0.4-0.6,0.5c-0.4,0-0.5,0-1.5,0h-7.2
				c-1.2,0-1.2,0.2-1.2,2.6c0,1.4,0,5.9,0.1,6.1c0.2,0.3,0.5,0.3,1,0.4c0.3,0,2.4,0.2,4.4,0.2c4.3,0,9.4-0.8,10.7-1.2
				c0.2-0.1,1-0.4,1.2-0.4c0,0,0.1,0,0.1,0.2c0,0.2-2.4,2-2.8,2.4c-0.2,0.2-0.6,1.4-0.6,1.6c-0.3,0.5-1.9,0.6-2.4,0.6
				c-16,0-18-2.3-20.6-5.3c-1-1.2-1.4-2.2-1.7-2.9c-0.1-0.2-0.2-0.4-0.3-0.4c-0.2,0-0.2,0.2-0.6,0.7c-3.7,6-7.2,6.8-7.5,6.8
				c-0.2,0-0.2-0.1-0.2-0.2c0,0,0.6-0.6,0.7-0.7c4.7-5,6.7-11.2,6.8-14.1c0.1-1.8,0.1-2,0.4-2c0.2,0,3.4,0.9,3.4,1.5
				c0,0.2-0.8,0.9-0.9,1c-0.3,0.6-1,3.4-1.2,3.9c0,0-0.7,2-0.7,2.1c0,2,5.2,5.5,7.3,5.5c0.5,0,0.5-0.6,0.5-0.8
				c0-2.2,0.1-12.3,0.1-14.3c0-1,0-1.6-1.2-1.6H921.5z M915.5,2148.4c-0.5,0-0.8,0-1,0.7c-0.8,2.4-2,3.3-3,3.3
				c-0.6,0-1.3-0.3-1.3-1.1c0-0.6,0.2-0.8,1.2-1.8c0.8-0.9,1.6-2.4,2-3.6c0.2-0.5,0.2-0.7,0.4-0.7c0.3,0,0.6,0.6,0.8,1.4
				c0.2,0.6,0.4,0.7,0.9,0.7h9.5c1,0,1.1-0.6,1.1-1.2c0-0.6-0.1-2.4-0.1-3c0-0.3-0.3-1.8-0.3-2.1c0-0.2,0.1-0.2,0.2-0.2
				s2.7,0.6,4.1,0.9c0.1,0,0.3,0.2,0.3,0.4c0,0.2-0.9,0.9-1,1.2c-0.2,0.4-0.2,2.1-0.2,2.6c0,1.4,0.3,1.6,1.2,1.6h7.8
				c1.1,0,1.3-0.1,1.8-0.5c0.5-0.4,1-0.8,1.4-0.8c0.3,0,3.7,2,3.7,3.1c0,0.8-0.9,0.8-1.2,0.8c-0.3,0-1.7-0.1-2.1-0.1
				c-1.2,0-2,0.4-2.3,0.6c-0.2,0.1-1,0.6-1.2,0.6c-0.1,0-0.1,0-0.1-0.1c0-0.3,1-1.8,1-2.2c0-0.3-0.2-0.3-0.8-0.3H915.5z"/>
			<path id="パス51" class="st1" d="M966.4,2164.8c-1.2,0-3,0-4.4,0.1c-0.1,0-0.7,0.1-0.8,0.1c-0.2,0-0.2-0.1-0.4-0.2l-0.8-0.9
				c-0.2-0.2-0.2-0.2-0.2-0.3s0.1-0.1,0.2-0.1c0.6,0,3.3,0.2,3.9,0.2c0.7,0,1-0.4,1.1-0.9c0-0.3,0.1-12.5,0.1-13.6
				c0-0.7-0.2-1.2-1.1-1.2c-0.3,0-1.7,0.2-2,0.2c-0.1,0-0.2-0.1-0.4-0.2l-0.8-0.9c-0.2-0.2-0.2-0.2-0.2-0.3s0.1-0.1,0.1-0.1
				c0.4,0,2.6,0.2,3.1,0.2c1.2,0,1.2-0.5,1.2-1.6c0-0.8,0-1.6,0-2.3c0-0.2-0.1-1.4-0.1-1.5c0-0.3,0.2-0.3,0.4-0.3
				c0.1,0,3.2,0.5,3.2,1.1c0,0.2-0.3,0.4-0.8,0.8c-0.2,0.2-0.2,2-0.2,2.6c0,1.3,0.6,1.3,1.4,1.3h3c0.9,0,1.5,0,1.5-1.2
				c0-0.6-0.1-3.5-0.1-4.1c0-0.2,0.1-0.4,0.4-0.4c0,0,3.3,0.6,3.3,1.3c0,0.2-0.6,0.6-0.7,0.8c-0.3,0.4-0.3,2.1-0.3,2.8
				c0,0.4,0,0.7,0.3,0.7c0.4,0,0.7-0.4,0.8-0.6c0.6-0.9,0.7-1,1-1c0.5,0,2.4,1.8,2.4,2.2c0,0.4-0.8,0.4-1.8,0.4h-1.4
				c-1.4,0-1.5,0.3-1.5,2v13c0,0.2,0,0.6,0.3,0.6c0.3,0,0.6-0.3,0.8-0.6c0.7-1.2,0.8-1.3,1.2-1.3c0.6,0,2.3,2.2,2.3,2.5
				c0,0.5-0.5,0.5-1.5,0.5H966.4z M969.8,2168.7c0,0.4-0.3,0.5-1.1,0.9c-0.9,0.4-6.8,7.1-8.6,7.1c-0.2,0-0.2-0.1-0.2-0.2
				c0,0,2.4-2.8,2.8-3.4c0.9-1.2,2.8-3.9,3.4-5.8c0.2-0.5,0.3-0.9,0.5-0.9c0.4,0,1.2,0.6,1.6,0.8
				C969.6,2168.3,969.8,2168.4,969.8,2168.7z M971.9,2152.5c1.7,0,1.7-0.3,1.7-3c0-1.4-0.4-1.5-1.7-1.5h-2.6c-1.7,0-1.7,0.3-1.7,3
				c0,1.4,0.4,1.5,1.7,1.5H971.9z M971.9,2158.2c1,0,1.7,0,1.7-1.2v-2.5c0-1-0.8-1-1.7-1h-2.6c-1,0-1.7,0-1.7,1.2c0,0.3,0,2.4,0,2.4
				c0,1,0.8,1,1.6,1H971.9z M969.2,2159.2c-1,0-1.5,0-1.5,1.4v1.8c0,1.3,0.4,1.4,1.5,1.4h2.9c1,0,1.5,0,1.5-1.4v-1.8
				c0-1.4-0.4-1.4-1.5-1.4H969.2z M978.6,2172.4c0,0.8-0.4,1.6-1.3,1.6c-0.9,0-1.2-0.9-1.9-2.6c-0.5-1.2-0.9-2.2-2.2-3.5
				c-0.2-0.2-0.7-0.7-0.7-0.8c0-0.1,0-0.2,0.2-0.2c0.3,0,2.1,1,2.8,1.4C976.4,2168.8,978.6,2170,978.6,2172.4z M990.4,2143
				c0.4,0,0.8,0,1-0.1c0.2-0.1,1-1,1.3-1c0.3,0,2.8,1.1,2.8,1.8c0,0.2-0.2,0.5-0.3,0.6c-0.6,0.5-0.6,0.6-0.7,0.8
				c-0.2,0.5-0.2,5.7-0.2,6.8c0,2.4,0.1,13.9,0.2,18.6c0,0.3,0.1,1.9,0.1,2.3c0,3-2.2,3.8-3.4,3.8c-0.5,0-0.6-0.1-1-0.6
				c-0.9-1.4-2-2-3.1-2.5c0,0-0.8-0.4-0.5-0.4c0.2-0.1,2.6,0,3,0c1.6,0,1.9-0.2,2-0.9c0.1-0.6,0.1-7.3,0.1-8.5
				c0-1.5-0.2-1.7-1.6-1.7h-4.6c-1.6,0-1.6,0.2-1.6,1.8c-0.2,6.4-4.5,13.1-5.4,13.1c-0.2,0-0.2-0.1-0.2-0.2c0-0.2,0.4-0.8,0.4-1
				c2.9-6.5,2.9-13.4,2.9-19.2c0-7.5-0.2-10.2-0.6-12.6c0-0.3-0.3-1.9-0.3-2c0-0.2,0.1-0.2,0.3-0.2c0.4,0,2.8,1.1,3.1,1.2
				c0.4,0.1,0.8,0.1,1.2,0.1H990.4z M990.3,2151.9c1,0,1.5-0.1,1.5-1.3v-5.1c0-1.4-0.5-1.4-1.6-1.4h-4.6c-1.1,0-1.6,0.1-1.6,1.4
				c0,0.7,0.1,4.2,0.1,5c0,1.3,0.5,1.3,1.6,1.3H990.3z M990.2,2160.9c0.9,0,1.6,0,1.6-1.2c0-1.4,0-3.9,0-5.4c0-1.3-0.6-1.4-1.5-1.4
				h-4.4c-1,0-1.6,0-1.6,1.3c0,0.8,0,4.6,0,5.4c0,1.2,0.5,1.2,1.5,1.2H990.2z"/>
			<path id="パス52" class="st1" d="M1018.3,2153.2c-0.2,0.8-0.3,9.6-0.3,11.1c0,1.8,0.1,9.5,0.1,11c0,1.2-0.8,1.7-1.9,1.7
				c-0.9,0-1-0.5-1-1.2c0-0.4,0.2-2.3,0.2-2.7c0.2-2.8,0.2-6.7,0.2-9.4c0-2.1,0-6.7-0.1-9c0-0.2,0-0.8-0.2-0.8
				c-0.1,0-0.4,0.4-0.6,0.6c-0.8,1.1-3.2,3.7-3.6,3.7c-0.2,0-0.2-0.1-0.2-0.3c0-0.1,1.6-2.6,1.9-3.2c3.9-6.8,5.5-12.5,5.6-13.6
				c0.1-0.8,0.1-0.8,0.4-0.8c0.2,0,3.8,1.4,3.8,2.3c0,0.4-0.4,0.6-0.8,0.8c-0.5,0.2-0.7,0.4-0.9,0.8c-1.9,3.6-2.1,4-3.1,5.5
				c-0.1,0.2-0.4,0.6-0.4,0.8c0,0.3,0.2,0.4,0.5,0.5c0.7,0.2,1.2,0.7,1.2,0.8C1019.1,2152.3,1018.4,2153,1018.3,2153.2z
				 M1036.7,2162.2c-1.1,0-1.2,0.6-1.2,1.2c-0.1,2.4-0.3,3.8-0.7,5.1c-0.1,0.3-0.7,1.6-0.7,2c0,0.4,0.2,0.5,1.8,1.1
				c1.7,0.6,5.5,1.8,10.5,1.8c0.2,0,1.2-0.1,1.4-0.1c0.1,0,0.2,0,0.2,0.1c0,0.2-0.5,0.4-0.8,0.6c-0.8,0.4-1.6,1.2-1.8,1.6
				c-0.4,0.9-0.6,1.1-1.2,1.1c-2.8,0-8.4-2.4-10.2-3.5c-1-0.6-1.1-0.7-1.4-0.7c-0.3,0-1,0.6-1.5,1c-2.6,2.1-6.6,3.6-9.6,3.6
				c-0.2,0-0.6,0-0.6-0.3c0-0.2,0.2-0.2,1-0.4c3.2-0.6,8.8-4.3,8.8-5.6c0-0.3-0.1-0.4-0.8-1.2c-1.3-1.5-3.2-5.2-3.2-5.7
				c0-0.2,0.1-0.4,0.4-0.4c0.2,0,0.4,0.3,0.8,1c1,1.6,3.1,4.6,3.8,4.6c0.8,0,1.2-4.2,1.2-5.7c0-0.7,0-1.4-1.1-1.4h-4.2
				c-0.6,0-0.9,0.1-1,0.4c-0.4,0.6-0.9,1.3-2,1.3c-0.9,0-0.9-1-0.9-1.5c0-0.7,0.1-4.3,0.1-5.1c0-2,0-4.1-0.2-6.9
				c0-0.3-0.2-1.6-0.2-2c0-0.4,0.2-0.4,0.3-0.4c0.4,0,1.7,0.5,2.2,0.8c1,0.5,1.2,0.6,2.2,0.6h3.7c1.2,0,1.2-0.4,1.2-2.5
				c0-1.6,0-2.2-1.1-2.2h-2.1c-1.1,0-3.1,0-4.7,0.1c-0.1,0-1.1,0.1-1.2,0.1c-0.1,0-0.2-0.1-0.4-0.2l-0.8-0.9
				c-0.2-0.2-0.2-0.2-0.2-0.3s0.1-0.1,0.1-0.1c0.3,0,1.5,0.1,1.8,0.1c1.2,0.1,3.2,0.2,5.5,0.2h9.6c2,0,2.2,0,2.8-1.1
				c0.9-1.5,1-1.6,1.4-1.6c0.7,0,3.3,2.5,3.3,3.2c0,0.6-0.8,0.6-2.2,0.6h-8.2c-1.2,0-1.2,0.5-1.2,2.2c0,2,0,2.6,1.2,2.6h3.6
				c0.4,0,0.9-0.1,1.2-0.4c0.7-0.8,0.7-0.8,0.9-0.8c0.3,0,3,1.6,3,2.1c0,0.3-0.2,0.4-0.6,0.6c-0.6,0.2-0.6,0.6-0.6,0.9
				c0,1.3,0,2.9,0.1,4.2c0,0.9,0.2,5.1,0.2,6.1c0,1.5-1.7,1.8-2.1,1.8c-0.4,0-0.7-0.2-0.8-1c-0.1-0.8-0.9-0.8-1.2-0.8H1036.7z
				 M1031.9,2155.2c1.2,0,1.2-0.3,1.2-3c0-1.3,0-1.9-1.2-1.9h-4.3c-1.2,0-1.2,0.3-1.2,3c0,1.3,0,1.9,1.2,1.9H1031.9z M1031.9,2161.2
				c1.1,0,1.1-0.6,1.1-1.8c0-2.7,0-3-1.1-3h-4.4c-1.1,0-1.1,0.5-1.1,1.7c0,2.8,0,3.2,1.2,3.2H1031.9z M1036.8,2150.4
				c-1.2,0-1.2,0.5-1.2,1.8c0,2.2,0,2.5,0.3,2.8c0.3,0.3,0.6,0.3,1,0.3h3.7c1.2,0,1.2-0.5,1.2-1.8c0-2.1,0-2.5-0.3-2.8
				c-0.3-0.3-0.6-0.3-1-0.3H1036.8z M1036.8,2156.3c-1.3,0-1.3,0.6-1.3,1.7c0,2.9,0,3.2,1.3,3.2h3.7c1.3,0,1.3-0.6,1.3-1.7
				c0-2.9,0-3.2-1.3-3.2H1036.8z"/>
			<path id="パス53" class="st1" d="M1065.3,2150.7c1.7,0,2.3-0.2,7.8-1.7c3.6-1,12.7-3.6,15.4-3.6c1.4,0,3.2,0.6,3.2,1.9
				c0,1-1,1.5-1.6,1.5c-0.5,0-2.8-0.4-3.2-0.4c-5.1,0-10.8,4.7-10.8,15c0,6.7,2.5,7.2,4.9,7.2c0.6,0,3.4-0.2,3.8-0.2
				c1.2,0,2,0.5,2,1.5c0,2.1-4.4,2.1-4.6,2.1c-8.2,0-8.2-6.7-8.2-8.6c0-1.8,0-10.2,5.8-15.4c0.2-0.1,1-0.8,1-0.8s-0.2-0.1-0.2-0.1
				c-2.3,0-10.6,3.5-11.9,4.3c-0.5,0.3-0.9,0.5-1.4,0.5c-2,0-3.9-2.7-3.4-3.2C1063.9,2150.3,1065.1,2150.7,1065.3,2150.7z
				 M1090.9,2159.5c0,0.9-0.8,1.6-1.4,1.6c-0.7,0-1.1-0.8-1.7-2.3c-0.4-1.1-0.7-1.5-2-3.1c-0.1-0.2-0.4-0.6-0.4-0.7
				c0-0.2,0.4-0.2,0.8-0.2C1089.5,2155.8,1090.9,2158.2,1090.9,2159.5z M1095.7,2157.6c0,1-0.6,1.5-1.2,1.5c-1,0-1.4-1.2-1.8-2.1
				c-0.4-0.9-1.6-2.3-2.6-3.2c-0.2-0.2-0.4-0.3-0.4-0.5c0-0.2,0.4-0.2,0.6-0.2c0.3,0,0.8,0.1,1,0.2
				C1093.7,2154,1095.7,2155.7,1095.7,2157.6z"/>
			<path id="パス54" class="st1" d="M1124,2168.9c0.5,0,2.1-0.2,3.8-0.4c0.6-0.1,3.2-0.5,3.7-0.5c1.4,0,2.6,1,2.6,1.9
				c0,2.2-6.8,2.4-9,2.4c-5.4,0-12.4-1.2-12.4-7.1c0-1.3,0.4-1.8,0.6-1.8c0.2,0,0.2,0.1,0.4,1c0.9,3.2,4.8,4.5,7.9,4.5
				C1121.8,2168.8,1123.6,2168.9,1124,2168.9z M1117.9,2147c3,0,5.9-0.6,6.4-0.7c1.4-0.3,1.8-0.3,2-0.3c1.9,0,3.7,1.9,3.7,2.7
				c0,0.6-0.3,0.7-3,1.3c-2,0.5-3.4,1.6-4.7,2.6c-0.3,0.3-0.4,0.3-0.5,0.3c-0.1,0-0.1-0.1-0.1-0.1c0-0.3,1.8-2.4,1.8-2.9
				c0-0.3-0.1-0.3-1.4-0.3c-4.7-0.1-7.6-2.2-7.6-2.7c0-0.1,0.2-0.2,0.3-0.2c0.1,0,0.2,0,1.3,0.2
				C1116.8,2147,1117.5,2147,1117.9,2147z M1134.8,2152c1.2,0.8,1.7,1.7,1.7,2.3c0,0.8-0.5,1.6-1.1,1.6c-0.5,0-0.8-0.2-2.2-1.6
				c-0.8-0.9-1.1-1.1-2.9-2.2c-0.2-0.2-0.6-0.4-0.6-0.6c0-0.1,0.3-0.4,0.7-0.4C1132.1,2151.1,1133.3,2151.1,1134.8,2152z
				 M1140.7,2151.1c0,0.4-0.3,1.2-1,1.2c-0.8,0-1.3-0.6-2.1-1.5c-0.5-0.6-2.2-1.8-3.5-2.2c-0.4-0.2-0.5-0.3-0.5-0.4
				c0-0.3,0.8-0.5,1.5-0.5C1138.7,2147.6,1140.7,2149.5,1140.7,2151.1z"/>
			<path id="パス55" class="st1" d="M1163.5,2155.4c0,0.7-0.5,1.6-1.3,1.6c-0.6,0-0.8-0.2-1.9-1.8c-0.6-1-1.8-2.2-3.1-3.4
				c-0.1-0.1-0.6-0.4-0.6-0.5c0-0.1,0.1-0.1,0.3-0.1C1158.2,2151.2,1163.5,2152.1,1163.5,2155.4z M1166.3,2154.5
				c0,0.3-0.8,2.9-1,3.4c-1.8,6.4-2.4,8.6-2.4,10.8c0,1,0,1.1,0.6,3.6c0.2,0.8,0.3,1.6,0.3,2c0,1.6-1.2,2.3-2,2.3
				c-1.6,0-1.6-1.6-1.6-2.3c0-2.7,0-4.7-1.6-6c-0.2-0.1-1.2-0.7-1.2-0.8c0-0.2,0.4-0.2,0.5-0.2c1.9,0,2,0,6.3-9.3
				c0.4-0.8,1.5-3.3,1.8-3.6c0.1-0.1,0.2-0.2,0.2-0.1C1166.3,2154.3,1166.3,2154.4,1166.3,2154.5z M1167.1,2147
				c0,1.2-0.9,1.8-1.4,1.8c-0.9,0-1.2-0.6-2.6-2.7c-1.1-1.6-1.6-2.2-2.5-3.1c-0.2-0.2-0.4-0.4-0.4-0.6c0-0.2,0.1-0.2,0.3-0.2
				C1161.4,2142.2,1167.1,2143.7,1167.1,2147z M1176.3,2162.4c-0.7,0-3.2,0-4.8,0.1c-0.2,0-1,0.1-1.1,0.1c-0.1,0-0.2-0.1-0.2-0.2
				l-0.9-1c-0.2-0.2-0.2-0.2-0.2-0.2c0-0.1,0.1-0.1,0.2-0.1c0.3,0,1.5,0.1,1.8,0.1c2.6,0.1,4.1,0.2,5.5,0.2h0.8c1,0,1-0.9,1-1.3
				c0-4.2,0-7,0-7.9c0-0.5-0.1-1.3-1-1.3h-2.8c-2.6,0-3.8,0-4.2,0c-0.2,0-1.4,0.2-1.6,0.2c-0.1,0-0.2,0-0.2-0.1l-1-1.1
				c-0.2-0.2-0.2-0.2-0.2-0.2c0-0.1,0.1-0.1,0.2-0.1c0.3,0,1.5,0.1,1.8,0.2c2.6,0.1,4.1,0.1,5.4,0.1h11.6c2,0,2.2-0.3,2.6-1
				c0.8-1.6,0.9-1.8,1.3-1.8c0.6,0,3.6,2.8,3.6,3.4c0,0.5-0.2,0.5-2.1,0.5h-9c-0.4,0-0.9,0-1.1,0.5c-0.1,0.3-0.2,3.8-0.2,4.6
				c0,0.6,0,4.4,0,4.5c0.1,0.5,0.4,0.9,1,0.9h2.2c2.1,0,2.4,0,3-1c0.8-1.3,0.9-1.4,1.3-1.4c0.6,0,3.2,2.6,3.2,3
				c0,0.4-0.2,0.4-2.1,0.4h-7.6c-1,0-1,0.9-1,1.2c0,1.4,0,7.7,0,9c0,0.4,0,1.2,1.1,1.2h4.5c1.7,0,2.2,0,3-1.5c0.5-1,0.8-1.4,1.2-1.4
				c0.8,0,3.8,3.1,3.8,3.4c0,0.6-0.8,0.6-2.1,0.6h-19.6c-1.1,0-2.8,0-4.2,0c-0.3,0-1.4,0.2-1.6,0.2c-0.2,0-0.2,0-0.3-0.2l-0.9-1
				c-0.2-0.2-0.2-0.2-0.2-0.2c0-0.1,0.1-0.1,0.2-0.1c0.3,0,1.5,0.1,1.8,0.2c2.2,0.1,3.8,0.1,5.4,0.1h3.9c1.2,0,1.3-0.2,1.3-4.3v-6
				c0-0.2,0-1-1-1H1176.3z M1182.5,2146.9c0,1.4-1.1,2-1.9,2c-1,0-1.1-0.3-2.1-2.7c-0.2-0.6-0.9-2.2-2.4-3.8c-0.9-1-1-1.1-1-1.2
				c0-0.1,0-0.2,0.1-0.2C1175.5,2141,1182.5,2143.1,1182.5,2146.9z"/>
			<path id="パス56" class="st1" d="M1221.1,2149.2c-0.2,0-0.5,0.1-0.5,0.4c0,0.1,0.8,3,1.5,5.1c3,8.2,5.1,8.8,5.2,8.8
				c1.3,0,4.8-9.4,4.8-13.5c0-0.2,0-0.5,0.3-0.5c0.1,0,3.9,1.4,3.9,2c0,0.2-0.2,0.3-0.6,0.6c-0.4,0.3-0.8,1.3-0.8,1.4
				c-1.5,4.2-2.5,7-4.2,10.1c-0.5,0.9-1,1.8-1,2c0,1,2.5,3.1,6.8,5.1c4.5,2.2,8.2,2.4,8.8,2.4c0.1,0,0.4,0,0.4,0.2
				c0,0.3-0.1,0.3-1.1,0.6c-0.9,0.2-2.2,0.7-2.8,1.2c-0.2,0.2-1.3,1.2-1.6,1.2c-0.6,0-5-2-9.3-5.6c-2.8-2.3-2.8-2.3-3.1-2.3
				c-0.3,0-0.4,0.1-2,1.4c-4.8,4-11,6.9-15.8,6.9c-0.3,0-0.4-0.1-0.4-0.2c0-0.2,2.1-0.8,2.5-0.9c8-3,13.5-8.4,13.5-9.8
				c0-0.4-0.2-0.6-1.5-3c-2.4-4.4-3.8-9.4-4.2-12.8c-0.1-0.8-0.1-0.9-0.9-0.9h-2c-1,0-3.7,0-5,0.1c-0.1,0-0.7,0.1-0.9,0.1
				c-0.1,0-0.2-0.1-0.3-0.2l-0.8-0.9c-0.2-0.2-0.2-0.2-0.2-0.3c0-0.1,0.1-0.1,0.2-0.1c0.2,0,1.4,0.1,1.7,0.1c1.2,0,3.2,0.2,5.5,0.2
				h7.1c1.2,0,1.2-0.7,1.2-1.3c0-2-0.1-3.7-0.2-4.3c0-0.2-0.2-1.1-0.2-1.4c0-0.2,0.1-0.2,0.3-0.2c0.4,0,2.5,0.4,3.1,0.6
				c0.2,0,1.2,0.2,1.2,0.9c0,0.2-0.9,1-1,1.2c-0.2,0.4-0.2,1.5-0.2,1.9c0,2.1,0,2.6,1.2,2.6h7.8c0.9,0,1.6,0,1.9-0.2
				c0.4-0.2,1.8-2,2.2-2c0.2,0,3.7,2.1,3.7,2.7c0,0.5-0.8,0.5-2.1,0.5H1221.1z"/>
		</g>
	</g>
	<line id="線_1" class="st2" x1="566.5" y1="513.9" x2="716.5" y2="513.9"/>
</g>
</svg>
