<svg id="result_ttl" xmlns="http://www.w3.org/2000/svg" width="190.874" height="71.181" viewBox="0 0 190.874 71.181">
  <g id="グループ_506" data-name="グループ 506" transform="translate(-863.32 -249.133)">
    <g id="グループ_505" data-name="グループ 505">
      <path id="パス_66" data-name="パス 66" d="M873.319,256.612c1.879,0,2.079,0,2.559-.68.64-.92.68-1,1-1,.76,0,2.92,1.8,2.92,2.28,0,.439-.24.439-2.16.439h-7.119c-3.479,0-4.639.08-5.039.12-.12,0-.72.081-.84.081-.16,0-.24-.081-.36-.24l-.76-.92c-.16-.2-.2-.2-.2-.28,0-.04.08-.08.16-.08.28,0,1.52.12,1.76.12,1.96.08,3.6.16,5.479.16Zm-1.4,4.879c.88,0,1.12,0,1.64-.8.24-.4.6-1,.919-1,.4,0,2.4,1.84,2.4,2.36,0,.48-.52.48-1.319.48h-6.04c-.8,0-1.639,0-2.6.08-.16,0-.84.08-1,.08s-.24-.12-.32-.24l-.68-.88c-.12-.16-.12-.2-.12-.28,0-.04.04-.08.12-.08.16,0,.92.12,1.08.12.8.08,2.64.16,3.4.16Zm-.24,4.839c.839,0,.96,0,1.36-.52.68-.959.88-1.28,1.12-1.28.56,0,2.039,1.88,2.039,2.4,0,.48-.48.48-1.32.48H869.6c-.641,0-1.72,0-2.6.04a9.676,9.676,0,0,1-1,.12c-.12,0-.2-.08-.28-.24l-.68-.92c-.12-.16-.12-.2-.12-.24s0-.12.08-.12c.04,0,.92.16,1.12.16,1.08.08,2.2.12,3.4.12Zm-2.119,13.958c-.361,0-1.281,0-1.281.96,0,.2.08,1.239.08,1.48,0,.6,0,2.119-1.919,2.119-1.08,0-1.08-.64-1.08-.92,0-.2.04-1.04.08-1.239.08-2.12.16-4.68.16-6.64,0-1-.04-2.2-.12-3.519,0-.12-.08-1.08-.08-1.16,0-.16.04-.559.32-.559a8,8,0,0,1,2.4.879,2.926,2.926,0,0,0,1.4.28h2.36a1.787,1.787,0,0,0,1.76-.84c.359-.52.52-.6.719-.6.48,0,2.24,1.16,2.24,1.68a1.52,1.52,0,0,1-.32.72c-.44.48-.44.64-.44,2.04,0,.719.28,4.159.28,4.959a1.914,1.914,0,0,1-2.12,2.04c-.48,0-.48,0-.759-1.08-.16-.6-.8-.6-1.24-.6Zm1.879-28.915c.96,0,1.12,0,1.56-.68.16-.24.519-.8.92-.8a4.679,4.679,0,0,1,2.439,2.08c0,.48-.56.48-1.319.48h-4.88c-.8,0-1.6,0-2.6.04-.161,0-.84.119-1,.119-.12,0-.24-.159-.32-.239l-.64-.92a.34.34,0,0,1-.12-.2c0-.12.08-.16.2-.16a10.047,10.047,0,0,1,1.08.16c1.96.12,2.519.12,3.319.12Zm-2.08,21.676c-1.279,0-1.279.4-1.279,2.24,0,3.759,0,3.919,1.319,3.919H872c1.28,0,1.28-.32,1.28-3.479,0-2.4,0-2.68-1.28-2.68Zm5.719,12.2c11.158-3.2,17.677-9.079,19.357-11.238.24-.32,1.12-1.96,1.48-1.96.16,0,3.64,2.04,3.64,2.68,0,.32-.161.4-1.441.879a29.49,29.49,0,0,0-3.719,2.44c-3.8,2.6-9,5.439-13.558,6.6a37.232,37.232,0,0,1-5.759.88.429.429,0,0,1-.24-.08C874.838,285.407,874.878,285.287,875.078,285.247Zm13.678-33.035c0,.32.12.641.72,1.64a24.383,24.383,0,0,0,9.718,9.6,20.22,20.22,0,0,1,2.04,1.159c0,.08-.36.12-.48.12a6.945,6.945,0,0,0-2,.32,12.473,12.473,0,0,1-1.919,1c-.441,0-2.52-2.2-2.96-2.679a23.44,23.44,0,0,1-5.479-8.6c-.36-1.04-.36-1.16-.68-1.16a.444.444,0,0,0-.36.28c-.879,1.32-2.159,3.48-3,4.8-4.759,7.359-8.159,9.359-8.159,8.959a.489.489,0,0,1,.16-.36c3.28-3.719,8.078-12.558,8.519-16.677.16-1.44.16-1.48.479-1.48.281,0,.521.08,2,.84,1.6.8,1.76.92,1.8,1.2C889.2,251.333,888.756,252.013,888.756,252.212ZM880.2,270.73c4.6-4.8,6.039-7.919,6.119-8.879.12-1.04.12-1.16.4-1.16.159,0,2.239,1.08,2.639,1.28,1.04.56,1.16.6,1.16.92s-.2.4-.92.8c-.28.161-4.24,4.28-5.079,5.04a25.509,25.509,0,0,1-4.959,3.839,10.276,10.276,0,0,1-1.8.84c-.04,0-.12,0-.12-.08C877.6,273.289,879.878,271.089,880.2,270.73Zm3.36,4.719c3.439-2.88,6.519-5.679,7.159-8.079.2-.68.2-.72.48-.72.32,0,3.359,1.72,3.359,2.28,0,.32-.32.52-1.12.96-.719.4-3.479,2.8-4.039,3.239-5.319,4.12-8.479,5.079-9.718,5.439-.2.04-.321,0-.321-.04C879.278,278.408,882.917,275.969,883.557,275.449Z" fill="#333"/>
      <path id="パス_67" data-name="パス 67" d="M940.276,264.291c-.96,0-1.36.16-1.44,1.239-.52,7.4-.719,9.8-2.2,13.958-1.04,2.88-3.28,5.639-3.8,5.639-.159,0-.2-.08-.2-.12,0-.16.519-.92.519-1.12,0-.32-.16-.32-1.479-.32H921.159c-1,0-1.039.12-1.4,1.04a2.026,2.026,0,0,1-2,1.32c-.36,0-.56-.2-.56-.8,0-3,.2-17.837.2-21.2,0-2.8-.04-10.039-.36-12.318a13.5,13.5,0,0,1-.36-1.36c0-.16.16-.16.32-.16,1.2,0,3.64,1.08,3.64,1.76a5.662,5.662,0,0,1-.56.919,33.154,33.154,0,0,0-.16,4.16c0,2.879.079,17.157.079,20.4,0,.08,0,.36.161.36.6,0,4.959-10.678,4.959-12.958a.579.579,0,0,0-.6-.64c-.4,0-2.6.2-2.958.2-.161,0-.2-.081-.361-.28l-.76-.92c-.2-.2-.2-.2-.2-.24,0-.08.12-.12.16-.12.68,0,3.96.28,4.72.28.8,0,1.04-.4,1.079-.96,0-.28.04-3.44.04-3.96a64.186,64.186,0,0,0-.279-7.278c-.04-.28-.561-1.44-.561-1.52s.08-.08.161-.08c.04,0,2.279.4,2.839.56.6.16,1.56.4,1.56.88,0,.2-.96.84-1.12,1.039-.12.121-.12.2-.12.761,0,1.319-.2,7.838-.2,9.358,0,.8.2,1.2,1.12,1.2a1.628,1.628,0,0,0,1.32-.4c.2-.16,1-1.24,1.279-1.24.441,0,2.32,2.04,2.32,2.16,0,.559-.76.559-2.12.559h-2.6c-.8,0-1.24.241-1.24,1.44,0,.8.28,1.04,1.08,1.68,2.6,2,3.6,2.76,3.6,4.159a1.888,1.888,0,0,1-1.6,1.8c-.64,0-.72-.2-1.2-2.12-.319-1.2-1-2.839-1.519-2.839-.28,0-.28.52-.28.64,0,.48.2,9.118.2,10.638,0,1.56-1.68,1.84-2.2,1.84-.6,0-.681-.44-.681-.92,0-1.4.121-8.2.121-9.759,0-.08,0-.44-.2-.44-.08,0-.16.041-.28.32a24.03,24.03,0,0,1-4.919,7.759c-.721.84-.721.92-.721,2.879,0,.761.081,1.36,1.28,1.36h5.76c1.679,0,2.2,0,2.559-.679.68-1.16.76-1.32,1.12-1.32.52,0,2.359,2,2.92,2,.239,0,.359-.159.479-.44,1.8-4.039,2.24-9.118,2.24-14.957,0-1.08-.08-10.438-.16-11.4-.08-1-.36-3.16-.36-3.319,0-.121.04-.161.2-.161.44,0,2.359.8,2.8.8,1.24,0,5.559-1.919,7.559-3,.24-.12,1.16-.88,1.44-.88,0,0,3.439,1.8,3.439,2.519,0,.281-.08.281-1.479.48-1.28.2-7.719,1.12-9.2,1.28-1.24.12-1.4.16-1.56.6-.08.28-.16,5.8-.16,6.6,0,2.16,0,2.6,1.4,2.6h5.839a4.967,4.967,0,0,0,1.96-.159c.36-.16,1.4-2.12,1.839-2.12.48,0,1.92,2.48,1.92,2.8,0,.24-.24.359-.4.439a8.053,8.053,0,0,1-2,.081h-2.32c-.64,0-1.2,0-1.36.879-.08.36-.08,10.319-.08,11.278,0,2.24.2,4.76.28,5.76a9.8,9.8,0,0,1,.08,1.119,2.074,2.074,0,0,1-2.2,2.44c-.68,0-1-.2-1-1.16,0-.12.12-1.52.12-1.68.04-.639.2-7.759.2-8.678,0-1.24-.04-7.439-.04-8.719,0-1.079-.48-1.239-1.4-1.239Zm-15.877-5.52a1.628,1.628,0,0,1-1.64,1.84c-.8,0-.84-.28-1.24-2.719a18.169,18.169,0,0,0-.56-2.6c-.04-.16-.279-.72-.279-.84s.08-.08.16-.04C922.039,255.092,924.4,257.132,924.4,258.771Zm7.4-4.519c.4,0,2.679,1.56,2.679,2.16,0,.24,0,.28-.879.64-.561.24-2.121,2.439-2.48,2.839a11.082,11.082,0,0,1-1.68,1.44c-.04,0,1.52-3.879,1.68-4.639.08-.36.239-1.84.319-2.12C931.518,254.372,931.6,254.252,931.8,254.252Z" fill="#333"/>
      <path id="パス_68" data-name="パス 68" d="M980.014,269.57c-.6,0-.88-.56-1-.88-.48-1.16-.52-1.28-.72-1.28a8.948,8.948,0,0,0-2.319.56c-.32.24-.32.6-.32,3.8,0,2.2.04,4.359.079,6.519,0,.8.16,4.159.16,4.879,0,.64,0,2.24-1.959,2.24-.68,0-1-.2-1-1.12,0-.28.12-1.559.12-1.88.08-3.8.12-5.2.12-8.838,0-.44-.04-4-.08-4.159a.633.633,0,0,0-.72-.64c-.4,0-3.239.56-3.4.6a12.656,12.656,0,0,1-1.52.679c-.44,0-1.2-2.719-1.2-2.8a.189.189,0,0,1,.2-.2c.16,0,1.04.12,1.24.12,1.12,0,1.4-.08,1.88-.52a51.666,51.666,0,0,0,6.959-10c.319-.68.4-.76.56-.76.279,0,3.039,1.359,3.039,2.08a.534.534,0,0,1-.44.559c-.8.24-1,.281-2.16,1.56a72.821,72.821,0,0,1-6.078,6.159c-.4.36-.44.6-.44.64,0,.2.279.2.479.2.521,0,6.44-.48,6.44-.96,0-.2-.121-.52-1.121-1.759a4.619,4.619,0,0,1-.639-.721c0-.119.08-.159.239-.159.88,0,5,1.8,5,4.359a1.671,1.671,0,0,1-1,1.64A1,1,0,0,1,980.014,269.57Zm-7.8,4c0,.2-.8.92-.92,1.08-.44.64-3.559,7.679-4.519,7.679-.08,0-.12-.08-.12-.161,0-.2,1.08-3.8,1.24-4.4a26.069,26.069,0,0,0,.84-5.2c0-.72,0-.8.2-.8a14.746,14.746,0,0,1,1.561.56C971.056,272.609,972.215,273.169,972.215,273.569Zm-.52-15.277a3.1,3.1,0,0,1,1.44,2.319,1.5,1.5,0,0,1-1.4,1.52,1.824,1.824,0,0,1-1.519-.96,8.075,8.075,0,0,0-1.84-3c-.16-.159-1-.759-1-1s.48-.24.64-.24c.2,0,1.2.2,1.4.2.479,0,.56-.12,1.2-1.16a13.129,13.129,0,0,0,2.04-5.159c.04-.6.12-1.52.28-1.52.72,0,3.4,1.16,3.4,2.04,0,.2-.68.72-1.16,1.08-.32.239-2.48,2.959-3.28,4.039-.679.92-.719,1-.719,1.279C971.176,257.932,971.295,258.052,971.7,258.292Zm9.839,19.116c0,.44-.04,1.72-1.16,1.72-.88,0-1-.72-1.32-2.279-.16-.64-1.28-4-1.28-4.12a.212.212,0,0,1,.241-.24,6.526,6.526,0,0,1,2.319,1.88A4.573,4.573,0,0,1,981.534,277.408Zm-.641-21c-.079-.12-.159-.2-.159-.24a.128.128,0,0,1,.119-.12c.281,0,1.48.12,1.76.16,3.24.12,4.32.12,6.119.12.48,0,1.12-.12,1.12-1.08,0-.76-.24-4.519-.24-5.359,0-.48.16-.6.48-.6.04,0,3.679.52,3.679,1.32,0,.2-.719.76-.839.92-.32.44-.44.6-.44,3.2,0,.84,0,1.6,1.12,1.6h1.44c.84,0,1.039,0,1.4-.32.28-.24,1.56-1.92,2-1.92.48,0,3.719,1.92,3.719,2.76,0,.56-.8.56-2.159.56h-6.2c-1.039,0-1.239.4-1.239,1.2,0,.92,0,4.52.12,5.28.08.6.28.96,1,.96,2.08,0,2.281,0,2.72-.681.88-1.359.96-1.479,1.4-1.479.52,0,3.28,2.039,3.28,2.639,0,.56-.8.56-2.16.56h-9.359c-.96,0-3.639,0-5.039.12-.12,0-.72.08-.84.08-.16,0-.24-.08-.36-.24l-.76-.92c-.079-.119-.2-.2-.2-.28s.121-.08.161-.08c.239,0,1.44.12,1.719.12,1.24.04,3.559.161,4.72.161,1.079,0,1.079-.84,1.079-2.6,0-4.839-.159-4.839-1.24-4.839h-.879c-.96,0-3.68,0-5.04.08a6.626,6.626,0,0,1-.879.12c-.121,0-.2-.12-.32-.28Zm14.318,15.4a2.9,2.9,0,0,0,1.2-.12c.24-.12,1.16-1.2,1.44-1.2.6,0,2.879,1.4,2.879,1.92a1.705,1.705,0,0,1-.559.96c-.361.4-.4.44-.4,1.4,0,1.16.241,6.959.241,8.238,0,1.52-1.241,1.72-2.08,1.72-.96,0-.96-.72-.96-1.56,0-.919-.32-.919-1.039-.919h-8.639c-.84,0-.88.56-.88,1.079a1.9,1.9,0,0,1-2.12,2.12c-.92,0-.92-.2-.92-2.12,0-4.519,0-6.159-.239-10.678,0-.24-.16-1.44-.16-1.72,0-.2,0-.44.2-.44a15.543,15.543,0,0,1,2.679,1.16,3.779,3.779,0,0,0,1.52.16Zm-7.958,1.08c-1.12,0-1.16.68-1.16,1.36,0,3.519.04,5.6.04,5.8,0,.76.44,1.119,1.2,1.119h8.519c1.2,0,1.2-.4,1.2-2.559,0-.44-.12-4.679-.16-4.879a.989.989,0,0,0-1.16-.84Z" fill="#333"/>
      <path id="パス_69" data-name="パス 69" d="M1041.276,251.573a5.78,5.78,0,0,0,1.92-.16c.32-.121,1.48-1.24,1.76-1.24a3.851,3.851,0,0,1,2.519,2.24c0,.159-.64.719-.72.839-.279.32-.36.88-.36,1.92,0,.12.04,3.4.081,4.12,0,.719.2,4,.2,4.679s0,2.359-1.919,2.359a1.129,1.129,0,0,1-1.24-.8c-.161-.4-.4-.679-1.56-.679h-4.2c-1.48,0-1.84.239-1.84,2.239s0,2.76,2.319,2.76h6.919c1.6,0,1.96,0,2.84-1.52.48-.8.84-1.2,1.24-1.2.72,0,3.839,2.72,3.839,3.2,0,.559-.8.559-2.119.559h-12.519c-.239,0-.6,0-.6.44,0,1.2,5.919,7.2,14.117,9.439.32.08,1.76.4,1.92.44.12.04.32.16.32.32,0,.24-.32.24-.48.24a6.215,6.215,0,0,0-2.719.92,10.475,10.475,0,0,1-2.04,1.319c-1.44,0-8.359-6.039-11.118-9.918-.88-1.24-1.04-1.4-1.36-1.4-.48,0-.6.44-.6,3.28,0,1.24.2,6.558.2,7.678a1.829,1.829,0,0,1-2.04,1.88c-1,0-1-1.08-1-1.36,0-.56.279-7.8.279-9.278,0-.76,0-1.4-.36-1.4-.319,0-2.279,2.24-2.719,2.639-5.679,5.36-12.4,8.519-13.238,8.519a.225.225,0,0,1-.24-.2c0-.2.08-.28,1-.84,8.638-5.319,13.038-11.318,13.038-12.278,0-.44-.28-.44-.8-.44h-6.479c-1.12,0-2.759,0-4.2.08-.28,0-1.4.12-1.64.12a.345.345,0,0,1-.32-.12l-.92-1.079a1.319,1.319,0,0,1-.12-.241c0-.04.08-.079.16-.079.28,0,1.52.119,1.76.119,2.56.121,4.119.161,5.479.161h7.239c2.2,0,2.319-.8,2.319-2.28,0-2.279-.2-2.719-1.88-2.719h-4.6c-.72,0-.92.04-1.24.519a2.1,2.1,0,0,1-2.08,1.12c-1.08,0-1.12-.56-1.12-1.719,0-.161.08-1.76.12-2.08,0-1.2.04-4.48.04-5.44,0-.639-.12-4.519-.2-5.238-.04-.281-.28-1.68-.28-1.84,0-.12,0-.24.12-.24.08,0,2.04.84,2.48,1a8.375,8.375,0,0,0,2.96.64Zm-14.318,1.039c-1.52,0-1.759.6-1.759,2.6,0,1.96.48,2.36,1.8,2.36h4.52c1.479,0,1.759-.52,1.759-2.56,0-2-.439-2.4-1.759-2.4Zm.081,6c-1.68,0-1.84.321-1.84,2.44,0,2.2,0,2.72,1.68,2.72h4.879c1.479,0,1.559-.64,1.559-2.44,0-2.28,0-2.72-1.759-2.72Zm10.6,0c-1.72,0-1.72.321-1.72,2.96,0,2.2.24,2.2,1.76,2.2h4.239c1.76,0,1.76-.28,1.76-2.96,0-2.2-.241-2.2-1.72-2.2Zm0-6c-1.68,0-1.68.56-1.68,3,0,1.44.2,1.96,1.68,1.96h4.279c1.8,0,1.8-.52,1.8-2.88,0-1.319-.04-2.08-1.68-2.08Z" fill="#333"/>
    </g>
  </g>
  <line id="線_3" data-name="線 3" x2="150" transform="translate(22.323 70.681)" fill="none" stroke="#333" stroke-miterlimit="10" stroke-width="1"/>
</svg>
