<svg id="story_ttl_sp" xmlns="http://www.w3.org/2000/svg" width="745" height="130" viewBox="0 0 745 130">
  <rect id="長方形_26" data-name="長方形 26" width="745" height="130" fill="#ffc946" opacity="0"/>
  <g id="グループ_338" data-name="グループ 338" transform="translate(2546.017 -1457.944)">
    <g id="グループ_335" data-name="グループ 335">
      <g id="グループ_334" data-name="グループ 334">
        <path id="パス_1506" data-name="パス 1506" d="M-2217.8,1549.676c-.16-.414-1.149-3.012-1.149-3.15a.486.486,0,0,1,.506-.483c.253,0,.3.115.85.966a6.8,6.8,0,0,0,5.405,3.15,3.313,3.313,0,0,0,3.4-3.472c0-2.093-1.38-2.828-4.3-3.84-3.2-1.1-5.312-2.323-5.312-5.059a4.333,4.333,0,0,1,4.6-4.461,9.087,9.087,0,0,1,1.632.184c.253.046,1.219.253,1.38.253a.882.882,0,0,0,.506-.138c.322-.253.368-.3.529-.3.276,0,.345.207.574.8.162.369,1.243,3.082,1.243,3.22a.362.362,0,0,1-.391.368c-.185,0-.231-.069-.6-.667a5.33,5.33,0,0,0-4.691-2.966,2.94,2.94,0,0,0-3.127,3.035c0,1.908,1.379,2.6,4.392,3.656,4.645,1.61,5.265,3.449,5.265,5.22a4.875,4.875,0,0,1-4.989,4.967,7.392,7.392,0,0,1-2.484-.46,3,3,0,0,0-.92-.23,1.186,1.186,0,0,0-.873.3c-.391.345-.438.391-.667.391C-2217.32,1550.964-2217.366,1550.826-2217.8,1549.676Z" fill="#333"/>
        <path id="パス_1507" data-name="パス 1507" d="M-2188.58,1533.764c1.242,0,1.518,0,1.909,1.034.184.506,1.172,3.1,1.172,3.334a.354.354,0,0,1-.367.346c-.184,0-.253-.093-.782-.966-1.219-2-2.576-2.989-4.139-2.989-.9,0-1.449.367-1.587,1.149-.069.414-.069,5.611-.069,6.577,0,.644,0,5.956.069,6.346.207,1.173,1.287,1.2,1.908,1.2.852,0,1.035,0,1.035.368s-.322.368-.689.368h-6.44c-.321,0-.666,0-.666-.368s.368-.368.506-.368c1.357,0,2.207,0,2.438-1.2.068-.367.068-.39.068-6.507,0-5.68,0-6.3-.16-6.738a1.436,1.436,0,0,0-1.473-.827c-1.838,0-3.2,1.448-4.138,2.966-.552.9-.6.989-.8.989a.374.374,0,0,1-.368-.346c0-.183,1.035-2.943,1.219-3.4.368-.966.735-.966,1.885-.966Z" fill="#333"/>
        <path id="パス_1508" data-name="パス 1508" d="M-2171.453,1550.964c-4.439,0-7.52-3.633-7.52-8.807s3.059-8.83,7.52-8.83c4.415,0,7.5,3.633,7.5,8.83C-2163.957,1547.308-2167.015,1550.964-2171.453,1550.964Zm5.311-9.014c0-2.116-.6-7.864-5.311-7.864-5.151,0-5.335,6.76-5.335,8.278,0,2.207.667,7.841,5.335,7.841C-2166.325,1550.2-2166.142,1543.513-2166.142,1541.95Z" fill="#333"/>
        <path id="パス_1509" data-name="パス 1509" d="M-2151.44,1533.764c1.1,0,6.345.115,6.345,3.978,0,2.345-1.769,3.4-3.057,4.024-.8.391-.9.437-.9.69a40.81,40.81,0,0,0,2.392,5.5,2.865,2.865,0,0,0,2.714,1.839c.229,0,.689,0,.689.368,0,.322-.46.368-.574.368h-2.875a1.125,1.125,0,0,1-1.08-.667c-.139-.23-1.772-3.794-2.024-4.369-1.265-2.782-1.425-3.15-2.23-3.15h-1.266c-.16,0-.46.092-.528.276-.093.23-.093,3.265-.093,3.794,0,2.783,0,3.38,2.116,3.38.162,0,.483,0,.483.368s-.413.368-.667.368h-5.68c-.229,0-.574-.046-.574-.368,0-.368.322-.368.644-.368,1.586,0,1.816-.736,1.885-1.586.046-.782.046-7.106.046-8.187a36.987,36.987,0,0,0-.184-4.645c-.3-.85-1.287-.85-1.817-.85-.137,0-.621,0-.621-.414,0-.345.414-.345.691-.345Zm-.828.759c-1.657,0-1.657,1.034-1.657,3.4,0,3.61,0,3.679.621,3.679h1.864c2.253,0,4.162-1.242,4.162-3.633,0-1.61-.874-3.449-3.864-3.449Z" fill="#333"/>
        <path id="パス_1510" data-name="パス 1510" d="M-2123.072,1533.764a.385.385,0,0,1,.39.39c0,.369-.344.369-.551.369a3.138,3.138,0,0,0-2.6,1.632c-1.034,1.794-3.495,6.025-3.862,6.968-.231.551-.231.736-.231,2.529,0,2.782.024,3.1.253,3.472.391.6.989.667,1.747.667.782,0,.99,0,.99.368s-.345.368-.622.368h-6.553c-.276,0-.62,0-.62-.368s.368-.368.482-.368c2.23,0,2.507-.23,2.507-2.529,0-3.219.022-3.565-.6-4.691-.322-.6-2.047-3.633-2.391-4.231-1.45-2.6-2.093-3.749-3.473-3.817-.276,0-.6-.023-.6-.369,0-.39.345-.39.6-.39h5.427c.276,0,.621,0,.621.39,0,.369-.368.369-.483.369-.713,0-1.472,0-1.472.827,0,.391.069.529.759,1.748.414.759,2.276,4.047,2.644,4.714.093.184.253.483.414.483s.322-.345.414-.506c.506-.9,3.059-5.289,3.242-5.795a2.3,2.3,0,0,0,.116-.621c0-.85-1.127-.85-1.518-.85-.6,0-.851,0-.851-.369,0-.39.345-.39.6-.39Z" fill="#333"/>
      </g>
    </g>
    <g id="グループ_337" data-name="グループ 337">
      <g id="グループ_336" data-name="グループ 336">
        <path id="パス_1511" data-name="パス 1511" d="M-2433.7,1470.317c3.078,0,3.762,0,4.731,2.565.456,1.254,2.907,7.7,2.907,8.266a.877.877,0,0,1-.912.855c-.456,0-.627-.228-1.938-2.394-3.022-4.96-6.385-7.411-10.261-7.411-2.224,0-3.592.912-3.934,2.85-.17,1.026-.17,13.91-.17,16.3,0,1.6,0,14.765.17,15.734.513,2.907,3.193,2.964,4.732,2.964,2.109,0,2.565,0,2.565.913s-.8.912-1.71.912h-15.962c-.8,0-1.653,0-1.653-.912s.912-.913,1.254-.913c3.363,0,5.473,0,6.043-2.964.171-.912.171-.969.171-16.133,0-14.08,0-15.62-.4-16.7-.571-1.539-2.11-2.052-3.649-2.052-4.56,0-7.924,3.591-10.261,7.354-1.368,2.223-1.482,2.451-2,2.451a.926.926,0,0,1-.912-.855c0-.456,2.565-7.3,3.022-8.437.912-2.394,1.824-2.394,4.673-2.394Z" fill="#333"/>
        <path id="パス_1512" data-name="パス 1512" d="M-2413.7,1509.765c-.4-1.026-2.851-7.467-2.851-7.809a1.206,1.206,0,0,1,1.254-1.2c.627,0,.741.286,2.11,2.394,2.508,3.934,7.638,7.811,13.4,7.811a8.216,8.216,0,0,0,8.437-8.608c0-5.188-3.42-7.013-10.661-9.52-7.923-2.737-13.168-5.758-13.168-12.542,0-5.929,4.1-11.059,11.4-11.059a22.464,22.464,0,0,1,4.048.456c.627.113,3.021.627,3.42.627a2.162,2.162,0,0,0,1.253-.342c.8-.628.913-.741,1.312-.741.685,0,.854.513,1.425,1.995.4.912,3.078,7.639,3.078,7.981a.9.9,0,0,1-.969.912c-.456,0-.57-.171-1.482-1.654-1.539-2.451-4.617-7.353-11.629-7.353-6.385,0-7.753,5.13-7.753,7.525,0,4.731,3.421,6.442,10.888,9.064,11.515,3.99,13.054,8.551,13.054,12.94a12.087,12.087,0,0,1-12.37,12.314,18.322,18.322,0,0,1-6.157-1.14,7.407,7.407,0,0,0-2.279-.57,2.946,2.946,0,0,0-2.167.741c-.969.855-1.083.969-1.654.969C-2412.5,1512.958-2412.615,1512.616-2413.7,1509.765Z" fill="#333"/>
        <path id="パス_1513" data-name="パス 1513" d="M-2341.03,1470.317c.74,0,1.595,0,1.595.969,0,.912-.8.912-1.767.912-4.047,0-4.332,3.249-4.389,5.017-.057,2.85,0,16.988,0,20.18,0,4.048-.172,8.437-3.648,11.971a13.3,13.3,0,0,1-9.635,3.592c-2.451,0-14.138-.8-14.479-12.6-.058-3.192.056-18.7.056-22.175,0-4.39-.284-5.986-5.3-5.986-.341,0-1.253,0-1.253-.912,0-.969.855-.969,1.71-.969h13.966c.685,0,1.54,0,1.54.969,0,.912-.742.912-1.824.912-1.255,0-3.478.171-4.162,2.565-.285.855-.285,11.687-.285,13.682,0,12.541,0,13.511.969,16.19.912,2.451,3.877,6.157,9.748,6.157a10.124,10.124,0,0,0,8.893-4.447c1.939-2.85,1.939-5.245,1.939-18.47,0-12.6-.115-12.884-.8-13.967a4.369,4.369,0,0,0-4.047-1.71c-.627,0-1.141-.285-1.141-.912,0-.969.856-.969,1.369-.969Z" fill="#333"/>
        <path id="パス_1514" data-name="パス 1514" d="M-2328.063,1511.875c-.855,0-1.709,0-1.709-.912s.683-.913,2.108-.913c.741,0,3.648,0,4.561-2.565.456-1.311.512-1.368.512-16.475,0-14.366,0-14.422-.17-15.392-.684-3.42-3.82-3.42-5.757-3.42-.342,0-1.254,0-1.254-.912,0-.969.854-.969,1.709-.969h5.53c4.1,0,4.219.171,7.126,4.617,3.477,5.245,9.064,13.625,12.541,18.869.741,1.141,5.986,9.121,6.328,9.121.228,0,.4-.4.4-1.14,0-1.6.058-10.945.058-12.94,0-2.052,0-12.143-.171-13.169-.683-3.477-3.592-3.477-5.473-3.477-.341,0-1.2,0-1.2-.912,0-.969.8-.969,1.6-.969h11.857c.627,0,1.483,0,1.483.969,0,.912-.8.912-1.71.912-4.732,0-4.732,2.565-4.732,9.406,0,4.276.057,25.368.057,30.1,0,.285,0,1.254-.74,1.254a1,1,0,0,1-.742-.456c-.342-.4-22.689-33.976-22.973-34.375-1.027-1.654-1.141-1.882-1.426-1.882s-.456.456-.456,1.084c0,2.052-.058,11.971-.058,14.251s0,13.625.172,14.708c.684,3.762,3.82,3.762,6.271,3.762.456,0,1.311,0,1.311.913s-.741.912-1.824.912Z" fill="#333"/>
        <path id="パス_1515" data-name="パス 1515" d="M-2252.735,1511.875c-.627,0-1.367-.171-1.367-.912,0-.913.912-.913,2.279-.913a2.5,2.5,0,0,0,2.338-2.508c0-1.254-1.483-5.187-2.11-6.67-1.254-3.192-1.425-3.591-3.306-3.591h-12.37c-2.11,0-2.337.57-3.249,3.135-.514,1.54-2.053,6.1-2.053,7.411,0,2.223,1.824,2.223,3.192,2.223.685,0,1.312.115,1.312.913,0,.912-.856.912-1.312.912h-10.945c-.456,0-1.2-.057-1.2-.855,0-.97.627-.97,1.938-.97a4.789,4.789,0,0,0,4.332-2.28c1.312-1.767,5.53-15.164,6.784-19.211.742-2.281,4.39-13.454,5.131-16.019.57-1.995.912-3.306,4.96-3.306a1.3,1.3,0,0,1,1.254.912,37.664,37.664,0,0,1,1.881,5.13c3.99,12.371,4.332,13.739,7.924,24.285,3.25,9.692,3.648,10.489,6.9,10.489.74,0,1.311.342,1.311.97,0,.855-.912.855-1.311.855Zm-2.679-16.475c.627,0,1.425-.285,1.425-.913,0-1.2-5.416-17.044-6.442-20.123-.341-.969-.456-1.482-.855-1.482-.342,0-.4.171-1.025,2.052-1.6,4.618-6.043,19.1-6.043,19.611,0,.855.855.855,1.595.855Z" fill="#333"/>
        <path id="パス_1516" data-name="パス 1516" d="M-2197.661,1494.031c.456,0,1.31,0,1.31.913a.883.883,0,0,1-.968.912,3.184,3.184,0,0,0-2.85,1.6c-.684,1.083-.742,2.052-.742,10.831,0,1.882-.228,1.882-2.394,1.882a10.332,10.332,0,0,0-3.421,1.026,18.393,18.393,0,0,1-7.695,1.767c-11.345,0-17.672-9.292-17.672-21.549,0-12.883,7.069-22.175,16.931-22.175a17.782,17.782,0,0,1,5.473,1.025,10.168,10.168,0,0,0,2.678.571,1.92,1.92,0,0,0,1.312-.571c.912-.8,1.083-1.025,1.6-1.025.854,0,.968.4,2.109,3.819.342.969,2.337,6.841,2.337,7.126a1,1,0,0,1-1.027.969c-.456,0-.57-.171-1.482-1.767-2.736-4.789-7.98-8.266-12.77-8.266-7.695,0-12.028,10.147-12.028,20.066,0,10.49,4.789,19.952,13.055,19.952a9.037,9.037,0,0,0,6.5-2.622c1.539-1.539,2.166-3.078,2.166-6.84,0-5.359-1.653-5.758-5.929-5.758-.342,0-1.2,0-1.2-.969,0-.913.855-.913,1.54-.913Z" fill="#333"/>
        <path id="パス_1517" data-name="パス 1517" d="M-2151.1,1470.317c.742,0,1.6,0,1.6.969,0,.912-.8.912-1.767.912-4.048,0-4.333,3.249-4.39,5.017-.058,2.85,0,16.988,0,20.18,0,4.048-.171,8.437-3.649,11.971a13.289,13.289,0,0,1-9.633,3.592c-2.452,0-14.139-.8-14.481-12.6-.056-3.192.058-18.7.058-22.175,0-4.39-.285-5.986-5.3-5.986-.342,0-1.254,0-1.254-.912,0-.969.855-.969,1.71-.969h13.967c.683,0,1.539,0,1.539.969,0,.912-.741.912-1.824.912-1.255,0-3.478.171-4.161,2.565-.286.855-.286,11.687-.286,13.682,0,12.541,0,13.511.969,16.19.912,2.451,3.877,6.157,9.748,6.157a10.124,10.124,0,0,0,8.893-4.447c1.939-2.85,1.939-5.245,1.939-18.47,0-12.6-.115-12.884-.8-13.967a4.368,4.368,0,0,0-4.046-1.71c-.627,0-1.141-.285-1.141-.912,0-.969.855-.969,1.368-.969Z" fill="#333"/>
        <path id="パス_1518" data-name="パス 1518" d="M-2109.626,1470.317c3.078,0,3.763,0,4.732,2.565.456,1.254,2.907,7.7,2.907,8.266a.878.878,0,0,1-.912.855c-.456,0-.627-.228-1.938-2.394-3.021-4.96-6.385-7.411-10.262-7.411-2.222,0-3.591.912-3.933,2.85-.171,1.026-.171,13.91-.171,16.3,0,1.6,0,14.765.171,15.734.514,2.907,3.192,2.964,4.731,2.964,2.11,0,2.566,0,2.566.913s-.8.912-1.71.912h-15.962c-.8,0-1.653,0-1.653-.912s.912-.913,1.253-.913c3.365,0,5.473,0,6.043-2.964.171-.912.171-.969.171-16.133,0-14.08,0-15.62-.4-16.7-.57-1.539-2.11-2.052-3.649-2.052-4.56,0-7.923,3.591-10.261,7.354-1.368,2.223-1.483,2.451-2,2.451a.926.926,0,0,1-.913-.855c0-.456,2.566-7.3,3.022-8.437.912-2.394,1.824-2.394,4.675-2.394Z" fill="#333"/>
        <path id="パス_1519" data-name="パス 1519" d="M-2072.994,1512.958c-11,0-18.642-9.007-18.642-21.834s7.582-21.89,18.642-21.89c10.945,0,18.584,9.007,18.584,21.89C-2054.41,1503.894-2061.992,1512.958-2072.994,1512.958Zm13.169-22.347c0-5.245-1.483-19.5-13.169-19.5-12.77,0-13.226,16.76-13.226,20.522,0,5.473,1.653,19.44,13.226,19.44C-2060.282,1511.077-2059.825,1494.487-2059.825,1490.611Z" fill="#333"/>
        <path id="パス_1520" data-name="パス 1520" d="M-2019.317,1473.908c0,.171.113.4.113.627a43.717,43.717,0,0,1,.57,6.157c0,3.819-.854,9.121-5.871,16.7-4.56,6.955-7.469,8.323-9.748,8.323-3.763,0-7.126-5.872-7.126-12.827,0-3.021.627-8.779,6.327-14.536a23.588,23.588,0,0,1,18.186-7.411c5.187,0,7.582,1.026,9.178,1.824,6.157,3.021,9.92,9.121,9.92,16.589a21.259,21.259,0,0,1-14.367,20.066,35.054,35.054,0,0,1-9.463,2.11c-.227,0-.57-.057-.57-.4,0-.17.114-.228,1.539-.8,5.929-2.338,18.3-7.241,18.3-21.435,0-2.224-.229-15.791-15.791-15.791C-2019.261,1473.11-2019.317,1473.566-2019.317,1473.908Zm-18.528,17.5c0,3.706,1.483,8.779,4.959,8.779,1.655,0,3.022-.684,6.955-6.613,3.022-4.617,5.587-10.945,5.587-16.589,0-3.42-.227-3.7-.968-3.7C-2026.728,1473.281-2037.845,1480.635-2037.845,1491.409Z" fill="#333"/>
        <path id="パス_1521" data-name="パス 1521" d="M-1982.841,1512.216c-.854,0-2.108-.17-2.108-1.424,0-1.027.227-1.312,2.565-3.649a15.234,15.234,0,0,0,3.934-7.582c.17-.912.342-1.6.513-1.6.684,0,.8,3.079.8,3.819C-1977.14,1503.21-1977.368,1512.216-1982.841,1512.216Zm14.709-37.795c-1.027,0-1.14.741-1.14.969a1.645,1.645,0,0,0,.741,1.311c4.788,3.535,6.612,4.9,6.612,7.411a2.724,2.724,0,0,1-2.223,2.68c-.855,0-1.2-.97-1.539-2.622-.457-2.224-2.566-6.043-3.079-6.043-.171,0-.569.171-.569.8,0,.514.057,2.908.057,3.421,0,1.539.4,9.007.4,9.578,0,.512,0,3.363-2.508,3.363-1.539,0-1.539-1.539-1.539-1.995,0-1.084.342-6.271.342-7.469,0-.569.114-3.42.114-4.047a.562.562,0,0,0-.57-.513c-.285,0-.4.171-1.368,1.425-7.183,9.634-9.692,9.8-9.805,9.8-.058,0-.058-.057-.058-.113,0-.115,3.307-4.618,3.877-5.473,3.591-5.3,6.328-10.945,6.328-11.573a.888.888,0,0,0-.855-.912c-3.991,0-6.043.171-6.385.171-.171,0-1.026.114-1.255.114-.17,0-.285-.114-.455-.342l-1.14-1.311c-.229-.285-.229-.285-.229-.4s.114-.114.229-.114c.285,0,1.71.171,2.052.171,2.166.114,5.872.228,8.038.228.741,0,1.71,0,1.71-1.71a35.013,35.013,0,0,0-.228-4.447c-.057-.342-.456-1.824-.456-2.166s.456-.4.684-.4c.171,0,5.245,1.425,5.245,2.394,0,.4-1.71,1.768-1.825,2.224a9.269,9.269,0,0,0-.285,2.964,1.18,1.18,0,0,0,1.141,1.14,2.979,2.979,0,0,0,1.6-.456c.285-.228,1.368-1.938,1.767-1.938.285,0,4.161,2.394,4.161,3.135s-1.139.741-3.078.741Zm2.109,23.487a1.217,1.217,0,0,1,.855.969c0,.4-.513.741-1.6,1.425-.57.342-.57,3.934-.57,4.96,0,3.991,0,5.586,5.3,5.586,2.109,0,9.634-.342,11.058-1.767,1.027-1.083,2.053-4.047,2.623-5.929.228-.8.342-1.311.684-1.311.285,0,.285.228.4,2.053.057,1.026.228,3.249,1.6,4.218,1.2.8,1.539,1.083,1.539,1.6,0,.627-.969,4.9-14.251,4.9-12.884,0-12.884-2.679-12.884-7.3,0-.741.115-4.1.115-4.788,0-1.083-.058-2.224-.115-3.364,0-.285-.17-1.539-.17-1.824,0-.4,0-1.026.912-1.026a5.179,5.179,0,0,1,1.595.4C-1968.645,1496.825-1966.08,1497.851-1966.023,1497.908Zm9.406,6.5c-1.254,0-1.425-.684-2.224-3.535a17.932,17.932,0,0,0-2.166-4.845c-.285-.456-.342-.57-.342-.855,0-.057.057-.171.115-.171s6.726,2.85,6.726,6.67C-1954.508,1503.152-1955.477,1504.407-1956.617,1504.407Zm3.876-13.226c-.4,0-1.367,0-1.6.969-.285.969-.741,2.851-2.907,2.851-1.083,0-1.425-.571-1.425-1.71,0-.685.057-2.338.113-3.193.172-2.679.172-11.059.172-11.515,0-2.509-.114-7.639-.343-10.091-.056-.284-.341-1.767-.341-2.109a.5.5,0,0,1,.57-.57c.513,0,2.736,1.425,3.249,1.653a4.543,4.543,0,0,0,2.166.457h8.723a2.283,2.283,0,0,0,1.652-.571c.229-.228,1.141-1.881,1.54-1.881.342,0,4.446,2.908,4.446,3.763,0,.285-1.026,1.254-1.2,1.539-.456.741-.456,6.156-.456,7.411,0,3.135.058,6.327.114,9.463,0,.513.114,2.907.114,3.477,0,3.022-1.881,3.649-2.565,3.649-1.311,0-1.426-.8-1.6-2.338-.114-1.254-1.026-1.254-1.709-1.254Zm-.228-21.777c-1.881,0-1.881.8-1.881,2.908s0,2.907,1.881,2.907h8.894c1.824,0,1.824-.8,1.824-2.907s0-2.908-1.824-2.908Zm-.056,7.3c-1.768,0-1.768.628-1.768,2.908s0,2.907,1.768,2.907h9.063c1.768,0,1.824-.627,1.824-2.907s-.056-2.908-1.824-2.908Zm0,7.3c-.685,0-1.71,0-1.71,1.425,0,3.82,0,4.276,1.71,4.276h9.121c.683,0,1.71,0,1.71-1.482,0-3.763,0-4.219-1.71-4.219Zm17.672,27.478c-1.939,0-2.4-1.426-3.535-5.644a16,16,0,0,0-4.218-6.613,7.943,7.943,0,0,1-.969-1.026c0-.171.057-.171.113-.171a24.789,24.789,0,0,1,2.736.855c5.018,2.052,7.639,6.442,7.639,9.862C-1933.587,1510.564-1934.556,1511.476-1935.353,1511.476Z" fill="#333"/>
        <path id="パス_1522" data-name="パス 1522" d="M-1915.049,1480.521a7.809,7.809,0,0,1-.684,2.28,20.139,20.139,0,0,0-1.368,7.354c0,5.758,2.964,9.919,4.731,9.919.97,0,1.2-.285,2.908-3.135.342-.57,1.311-1.938,1.768-1.938.17,0,.284.228.284.456a6.838,6.838,0,0,1-.171,1.14,15.993,15.993,0,0,0-.741,4.332,7.663,7.663,0,0,0,.343,2.281,14.608,14.608,0,0,1,.455,1.881c0,1.14-1.2,1.767-2.166,1.767-3.649,0-10.831-5.986-10.831-16.874,0-1.6.8-8.608.8-10.09a15.851,15.851,0,0,0-.4-3.306,7.743,7.743,0,0,1-.457-1.939c0-.171.228-.228.343-.228C-1917.614,1474.421-1915.049,1478.982-1915.049,1480.521Zm27.82,1.311a14.191,14.191,0,0,1,5.074,10.888c0,1.083-.115,3.763-2.852,3.763-2.793,0-2.793-3.079-2.793-3.82,0-4.731,0-7.125-3.021-10.147-.455-.456-2.737-2.223-2.737-2.565,0-.171.229-.285.514-.285A11.1,11.1,0,0,1-1887.229,1481.832Z" fill="#333"/>
      </g>
    </g>
    <line id="線_80" data-name="線 80" x2="150" transform="translate(-2243.724 1581.671)" fill="none" stroke="#333" stroke-miterlimit="10" stroke-width="1"/>
  </g>
</svg>
