<svg id="story_ttl" xmlns="http://www.w3.org/2000/svg" width="470.827" height="95.104" viewBox="0 0 470.827 95.104">
  <g id="グループ_41" data-name="グループ 41" transform="translate(-720.851 -250.845)">
    <g id="グループ_40" data-name="グループ 40">
      <path id="パス_187" data-name="パス 187" d="M929.53,310.345c-.1-.252-.7-1.835-.7-1.919a.3.3,0,0,1,.307-.294c.155,0,.183.07.519.588a4.139,4.139,0,0,0,3.292,1.919,2.019,2.019,0,0,0,2.073-2.115c0-1.275-.841-1.723-2.62-2.34-1.947-.672-3.235-1.414-3.235-3.081a2.639,2.639,0,0,1,2.8-2.717,5.613,5.613,0,0,1,.994.111c.155.029.743.155.841.155a.54.54,0,0,0,.308-.084c.2-.155.224-.182.322-.182.168,0,.211.125.351.49.1.224.756,1.877.756,1.961a.22.22,0,0,1-.238.224c-.112,0-.14-.042-.365-.406a3.246,3.246,0,0,0-2.857-1.808,1.792,1.792,0,0,0-1.9,1.85c0,1.162.84,1.583,2.676,2.227,2.829.981,3.207,2.1,3.207,3.18a2.969,2.969,0,0,1-3.039,3.025,4.5,4.5,0,0,1-1.513-.28,1.823,1.823,0,0,0-.561-.14.725.725,0,0,0-.532.182c-.238.21-.266.238-.406.238C929.824,311.129,929.8,311.045,929.53,310.345Z" fill="#333"/>
      <path id="パス_188" data-name="パス 188" d="M947.367,300.652c.756,0,.924,0,1.162.63.112.308.715,1.891.715,2.031a.215.215,0,0,1-.224.21c-.112,0-.154-.056-.477-.588a3.067,3.067,0,0,0-2.521-1.821c-.546,0-.883.224-.967.7-.042.252-.042,3.418-.042,4.006,0,.393,0,3.629.042,3.866.126.715.785.729,1.163.729.518,0,.63,0,.63.224s-.2.224-.42.224h-3.922c-.2,0-.406,0-.406-.224s.224-.224.308-.224c.826,0,1.345,0,1.485-.729a37.188,37.188,0,0,0,.042-3.964c0-3.46,0-3.838-.1-4.1a.872.872,0,0,0-.9-.5,3.2,3.2,0,0,0-2.521,1.807c-.336.546-.364.6-.49.6a.227.227,0,0,1-.224-.21c0-.112.63-1.793.742-2.073.224-.588.448-.588,1.148-.588Z" fill="#333"/>
      <path id="パス_189" data-name="パス 189" d="M957.834,311.129c-2.7,0-4.581-2.213-4.581-5.364s1.864-5.379,4.581-5.379c2.69,0,4.567,2.213,4.567,5.379C962.4,308.9,960.538,311.129,957.834,311.129Zm3.236-5.49c0-1.29-.364-4.792-3.236-4.792-3.138,0-3.25,4.119-3.25,5.043,0,1.345.407,4.777,3.25,4.777C960.958,310.667,961.07,306.591,961.07,305.639Z" fill="#333"/>
      <path id="パス_190" data-name="パス 190" d="M970.065,300.652c.673,0,3.866.069,3.866,2.423a2.726,2.726,0,0,1-1.863,2.451c-.49.239-.546.266-.546.421a24.826,24.826,0,0,0,1.457,3.347,1.743,1.743,0,0,0,1.652,1.121c.141,0,.421,0,.421.224,0,.2-.28.224-.35.224h-1.751a.688.688,0,0,1-.659-.406c-.083-.14-1.078-2.311-1.232-2.662-.77-1.7-.869-1.919-1.359-1.919h-.771c-.1,0-.28.056-.322.169-.056.139-.056,1.988-.056,2.311,0,1.7,0,2.059,1.289,2.059.1,0,.294,0,.294.224s-.252.224-.406.224h-3.46c-.14,0-.35-.028-.35-.224,0-.224.2-.224.392-.224.967,0,1.106-.448,1.148-.966.029-.477.029-4.329.029-4.987a22.526,22.526,0,0,0-.112-2.83c-.182-.518-.785-.518-1.107-.518-.084,0-.378,0-.378-.252,0-.21.252-.21.42-.21Zm-.5.462c-1.009,0-1.009.63-1.009,2.073,0,2.2,0,2.241.378,2.241h1.135a2.262,2.262,0,0,0,2.536-2.213c0-.981-.533-2.1-2.353-2.1Z" fill="#333"/>
      <path id="パス_191" data-name="パス 191" d="M987.389,300.652a.236.236,0,0,1,.239.238c0,.224-.211.224-.337.224a1.913,1.913,0,0,0-1.583.994c-.63,1.093-2.129,3.67-2.353,4.245-.14.336-.14.448-.14,1.54,0,1.7.014,1.891.154,2.116.238.364.6.406,1.064.406.477,0,.6,0,.6.224s-.21.224-.378.224h-3.992c-.168,0-.379,0-.379-.224s.224-.224.295-.224c1.358,0,1.526-.14,1.526-1.541,0-1.961.014-2.171-.364-2.858-.2-.364-1.246-2.212-1.457-2.577-.882-1.583-1.275-2.283-2.115-2.325-.168,0-.364-.014-.364-.224,0-.238.21-.238.364-.238h3.306c.168,0,.378,0,.378.238s-.224.224-.294.224c-.435,0-.9,0-.9.5,0,.238.042.322.461,1.064.253.463,1.387,2.466,1.612,2.872.055.112.154.3.252.3s.2-.21.252-.309c.308-.546,1.863-3.221,1.975-3.529a1.417,1.417,0,0,0,.07-.379c0-.518-.686-.518-.925-.518-.363,0-.518,0-.518-.224s.21-.238.364-.238Z" fill="#333"/>
    </g>
  </g>
  <g id="グループ_43" data-name="グループ 43" transform="translate(-720.851 -250.845)">
    <g id="グループ_42" data-name="グループ 42">
      <path id="パス_192" data-name="パス 192" d="M741.634,254.91c2.052,0,2.508,0,3.154,1.709.3.836,1.937,5.13,1.937,5.51a.584.584,0,0,1-.607.57c-.3,0-.418-.152-1.292-1.6-2.014-3.306-4.256-4.94-6.839-4.94-1.482,0-2.394.609-2.622,1.9-.114.684-.114,9.271-.114,10.867,0,1.063,0,9.84.114,10.486.342,1.938,2.128,1.976,3.154,1.976,1.405,0,1.709,0,1.709.608s-.532.608-1.14.608H728.45c-.532,0-1.1,0-1.1-.608s.608-.608.836-.608c2.242,0,3.648,0,4.027-1.976.115-.608.115-.646.115-10.752,0-9.385,0-10.411-.266-11.132a2.371,2.371,0,0,0-2.432-1.369c-3.04,0-5.281,2.394-6.839,4.9-.912,1.482-.988,1.634-1.33,1.634a.618.618,0,0,1-.608-.57c0-.3,1.71-4.864,2.014-5.623.608-1.6,1.216-1.6,3.116-1.6Z" fill="#333"/>
      <path id="パス_193" data-name="パス 193" d="M762.418,281.2c-.265-.684-1.9-4.977-1.9-5.2a.8.8,0,0,1,.836-.8c.418,0,.494.19,1.406,1.6a11.226,11.226,0,0,0,8.929,5.2,5.476,5.476,0,0,0,5.623-5.738c0-3.457-2.28-4.673-7.1-6.344-5.282-1.824-8.777-3.838-8.777-8.359a7.159,7.159,0,0,1,7.6-7.371,15.01,15.01,0,0,1,2.7.3c.417.076,2.013.418,2.279.418a1.445,1.445,0,0,0,.836-.228c.532-.418.608-.494.874-.494.456,0,.57.342.95,1.33.266.608,2.051,5.091,2.051,5.319a.6.6,0,0,1-.645.608c-.3,0-.38-.114-.989-1.1-1.025-1.634-3.077-4.9-7.751-4.9a4.859,4.859,0,0,0-5.166,5.015c0,3.154,2.279,4.293,7.256,6.041,7.675,2.66,8.7,5.7,8.7,8.625a8.055,8.055,0,0,1-8.245,8.206,12.208,12.208,0,0,1-4.1-.759,4.952,4.952,0,0,0-1.52-.38,1.961,1.961,0,0,0-1.443.494c-.646.57-.723.645-1.1.645C763.217,283.329,763.141,283.1,762.418,281.2Z" fill="#333"/>
      <path id="パス_194" data-name="パス 194" d="M818.328,254.91c.494,0,1.064,0,1.064.646,0,.607-.532.607-1.178.607-2.7,0-2.887,2.166-2.925,3.344-.038,1.9,0,11.322,0,13.45,0,2.7-.115,5.623-2.432,7.979a8.854,8.854,0,0,1-6.421,2.393c-1.634,0-9.423-.531-9.65-8.4-.038-2.128.037-12.463.037-14.78,0-2.926-.19-3.99-3.533-3.99-.228,0-.836,0-.836-.607,0-.646.57-.646,1.14-.646H802.9c.456,0,1.026,0,1.026.646,0,.607-.494.607-1.216.607a2.54,2.54,0,0,0-2.773,1.71c-.19.57-.19,7.789-.19,9.119,0,8.359,0,9.005.646,10.791a6.666,6.666,0,0,0,6.5,4.1,6.749,6.749,0,0,0,5.927-2.964c1.292-1.9,1.292-3.495,1.292-12.31,0-8.4-.076-8.587-.532-9.308a2.914,2.914,0,0,0-2.7-1.141c-.418,0-.759-.189-.759-.607,0-.646.569-.646.911-.646Z" fill="#333"/>
      <path id="パス_195" data-name="パス 195" d="M834.4,282.608c-.57,0-1.14,0-1.14-.608s.456-.608,1.406-.608c.494,0,2.431,0,3.04-1.71.3-.874.341-.912.341-10.98,0-9.575,0-9.613-.114-10.259-.455-2.28-2.545-2.28-3.837-2.28-.228,0-.836,0-.836-.607,0-.646.57-.646,1.14-.646h3.685c2.736,0,2.812.114,4.749,3.078,2.318,3.495,6.042,9.08,8.359,12.575.494.761,3.99,6.079,4.218,6.079.152,0,.266-.265.266-.759,0-1.064.038-7.295.038-8.625,0-1.368,0-8.093-.114-8.777-.456-2.318-2.394-2.318-3.647-2.318-.229,0-.8,0-.8-.607,0-.646.532-.646,1.064-.646h7.9c.418,0,.988,0,.988.646,0,.607-.532.607-1.14.607-3.153,0-3.153,1.71-3.153,6.27,0,2.85.037,16.907.037,20.061,0,.19,0,.835-.493.835a.66.66,0,0,1-.494-.3c-.228-.266-15.122-22.645-15.312-22.911-.684-1.1-.76-1.254-.95-1.254s-.3.3-.3.722c0,1.368-.038,7.979-.038,9.5s0,9.08.114,9.8c.456,2.508,2.546,2.508,4.18,2.508.3,0,.873,0,.873.608s-.493.608-1.216.608Z" fill="#333"/>
      <path id="パス_196" data-name="パス 196" d="M892.113,282.608c-.418,0-.912-.114-.912-.608,0-.608.608-.608,1.52-.608a1.668,1.668,0,0,0,1.558-1.672,20.55,20.55,0,0,0-1.406-4.445c-.836-2.128-.95-2.394-2.2-2.394h-8.245c-1.405,0-1.557.38-2.165,2.09a30.312,30.312,0,0,0-1.368,4.939c0,1.482,1.216,1.482,2.128,1.482.456,0,.873.076.873.608,0,.608-.569.608-.873.608h-7.295c-.3,0-.8-.038-.8-.57,0-.646.418-.646,1.291-.646a3.193,3.193,0,0,0,2.888-1.52c.874-1.178,3.686-10.107,4.522-12.8.494-1.52,2.925-8.967,3.419-10.677.38-1.329.608-2.2,3.306-2.2a.866.866,0,0,1,.835.608,25.077,25.077,0,0,1,1.254,3.419c2.66,8.245,2.888,9.157,5.281,16.186,2.166,6.459,2.432,6.991,4.6,6.991.494,0,.874.228.874.646,0,.57-.608.57-.874.57Zm-1.786-10.981c.418,0,.95-.19.95-.608,0-.8-3.609-11.36-4.293-13.412-.229-.645-.3-.988-.57-.988-.228,0-.266.115-.684,1.369-1.064,3.077-4.027,12.728-4.027,13.069,0,.57.57.57,1.063.57Z" fill="#333"/>
      <path id="パス_197" data-name="パス 197" d="M936.352,270.716c.3,0,.873,0,.873.608a.588.588,0,0,1-.645.607,2.122,2.122,0,0,0-1.9,1.064c-.456.722-.494,1.368-.494,7.219,0,1.254-.152,1.254-1.6,1.254a6.88,6.88,0,0,0-2.28.684,12.251,12.251,0,0,1-5.129,1.177c-7.561,0-11.778-6.193-11.778-14.361,0-8.587,4.711-14.78,11.284-14.78a11.847,11.847,0,0,1,3.647.684,6.791,6.791,0,0,0,1.787.38,1.278,1.278,0,0,0,.873-.38c.608-.532.722-.684,1.064-.684.57,0,.646.266,1.406,2.546.228.645,1.558,4.559,1.558,4.749a.667.667,0,0,1-.685.646c-.3,0-.379-.114-.987-1.178-1.824-3.191-5.319-5.509-8.511-5.509-5.129,0-8.017,6.763-8.017,13.374,0,6.991,3.192,13.3,8.7,13.3a6.026,6.026,0,0,0,4.332-1.748c1.025-1.026,1.443-2.052,1.443-4.559,0-3.572-1.1-3.838-3.951-3.838-.228,0-.8,0-.8-.645,0-.608.57-.608,1.026-.608Z" fill="#333"/>
      <path id="パス_198" data-name="パス 198" d="M974.872,254.91c.494,0,1.064,0,1.064.646,0,.607-.532.607-1.179.607-2.7,0-2.887,2.166-2.925,3.344-.038,1.9,0,11.322,0,13.45,0,2.7-.114,5.623-2.432,7.979a8.853,8.853,0,0,1-6.42,2.393c-1.634,0-9.423-.531-9.651-8.4-.038-2.128.038-12.463.038-14.78,0-2.926-.19-3.99-3.534-3.99-.227,0-.835,0-.835-.607,0-.646.569-.646,1.139-.646h9.309c.456,0,1.026,0,1.026.646,0,.607-.494.607-1.216.607a2.541,2.541,0,0,0-2.774,1.71c-.189.57-.189,7.789-.189,9.119,0,8.359,0,9.005.645,10.791a6.666,6.666,0,0,0,6.5,4.1,6.751,6.751,0,0,0,5.928-2.964c1.291-1.9,1.291-3.495,1.291-12.31,0-8.4-.075-8.587-.531-9.308a2.915,2.915,0,0,0-2.7-1.141c-.418,0-.76-.189-.76-.607,0-.646.57-.646.912-.646Z" fill="#333"/>
      <path id="パス_199" data-name="パス 199" d="M1009.988,254.91c2.052,0,2.508,0,3.153,1.709.3.836,1.938,5.13,1.938,5.51a.585.585,0,0,1-.608.57c-.3,0-.418-.152-1.292-1.6-2.013-3.306-4.255-4.94-6.839-4.94-1.481,0-2.393.609-2.621,1.9-.114.684-.114,9.271-.114,10.867,0,1.063,0,9.84.114,10.486.342,1.938,2.127,1.976,3.154,1.976,1.405,0,1.709,0,1.709.608s-.532.608-1.14.608H996.8c-.532,0-1.1,0-1.1-.608s.608-.608.836-.608c2.242,0,3.647,0,4.027-1.976.114-.608.114-.646.114-10.752,0-9.385,0-10.411-.265-11.132a2.372,2.372,0,0,0-2.432-1.369c-3.04,0-5.281,2.394-6.839,4.9-.912,1.482-.988,1.634-1.33,1.634a.618.618,0,0,1-.608-.57c0-.3,1.71-4.864,2.014-5.623.608-1.6,1.216-1.6,3.115-1.6Z" fill="#333"/>
      <path id="パス_200" data-name="パス 200" d="M1041.878,283.329c-7.333,0-12.424-6-12.424-14.551s5.053-14.59,12.424-14.59c7.295,0,12.386,6,12.386,14.59C1054.264,277.288,1049.211,283.329,1041.878,283.329Zm8.777-14.893c0-3.5-.988-12.994-8.777-12.994-8.511,0-8.814,11.17-8.814,13.678,0,3.647,1.1,12.956,8.814,12.956C1050.351,282.076,1050.655,271.019,1050.655,268.436Z" fill="#333"/>
      <path id="パス_201" data-name="パス 201" d="M1085.163,257.3c0,.113.076.266.076.417a29.131,29.131,0,0,1,.38,4.1c0,2.545-.571,6.079-3.914,11.132-3.04,4.636-4.977,5.547-6.5,5.547-2.507,0-4.75-3.913-4.75-8.549a13.386,13.386,0,0,1,4.218-9.688,15.72,15.72,0,0,1,12.12-4.939,12.367,12.367,0,0,1,6.118,1.216,11.908,11.908,0,0,1,6.61,11.056,14.169,14.169,0,0,1-9.574,13.374,23.351,23.351,0,0,1-6.307,1.406c-.152,0-.38-.038-.38-.266,0-.114.076-.152,1.026-.532,3.951-1.558,12.2-4.825,12.2-14.286,0-1.482-.152-10.524-10.525-10.524C1085.2,256.772,1085.163,257.075,1085.163,257.3Zm-12.348,11.664c0,2.469.987,5.851,3.305,5.851,1.1,0,2.014-.456,4.635-4.408,2.014-3.077,3.724-7.294,3.724-11.056,0-2.28-.152-2.469-.647-2.469C1080.223,256.886,1072.815,261.787,1072.815,268.968Z" fill="#333"/>
      <path id="パス_202" data-name="パス 202" d="M1116.994,282.836c-.57,0-1.406-.115-1.406-.95,0-.684.152-.874,1.71-2.432a10.157,10.157,0,0,0,2.621-5.053c.115-.608.228-1.064.342-1.064.456,0,.532,2.052.532,2.546C1120.793,276.832,1120.641,282.836,1116.994,282.836Zm9.8-25.191c-.683,0-.759.5-.759.646a1.1,1.1,0,0,0,.493.874c3.192,2.356,4.408,3.268,4.408,4.939a1.815,1.815,0,0,1-1.482,1.786c-.57,0-.8-.646-1.026-1.748-.3-1.482-1.71-4.027-2.052-4.027-.114,0-.38.114-.38.532,0,.342.039,1.938.039,2.28,0,1.025.265,6,.265,6.383,0,.342,0,2.242-1.672,2.242-1.025,0-1.025-1.026-1.025-1.331,0-.721.227-4.179.227-4.977,0-.379.077-2.279.077-2.7a.375.375,0,0,0-.38-.342c-.19,0-.266.114-.912.95-4.787,6.42-6.459,6.535-6.535,6.535-.038,0-.038-.038-.038-.076,0-.077,2.2-3.078,2.583-3.648a38,38,0,0,0,4.218-7.713.592.592,0,0,0-.57-.608c-2.659,0-4.027.115-4.256.115-.113,0-.684.075-.835.075-.114,0-.19-.075-.3-.228l-.76-.873c-.152-.19-.152-.19-.152-.266s.076-.077.152-.077c.19,0,1.14.115,1.368.115,1.444.075,3.913.152,5.357.152.494,0,1.14,0,1.14-1.14a23.146,23.146,0,0,0-.153-2.964c-.037-.228-.3-1.216-.3-1.444s.3-.265.456-.265c.114,0,3.495.949,3.495,1.6,0,.266-1.14,1.178-1.216,1.482a6.19,6.19,0,0,0-.189,1.976.786.786,0,0,0,.759.76,1.994,1.994,0,0,0,1.064-.3c.19-.152.912-1.292,1.178-1.292.19,0,2.774,1.6,2.774,2.09s-.76.493-2.052.493ZM1128.2,273.3a.811.811,0,0,1,.57.646c0,.266-.342.494-1.064.95-.379.228-.379,2.621-.379,3.305,0,2.66,0,3.724,3.533,3.724,1.406,0,6.421-.228,7.371-1.178a12.668,12.668,0,0,0,1.747-3.951c.152-.533.228-.874.456-.874.19,0,.19.152.267,1.367.037.684.151,2.166,1.063,2.812.8.532,1.026.722,1.026,1.064,0,.418-.646,3.267-9.5,3.267-8.586,0-8.586-1.785-8.586-4.863,0-.494.076-2.736.076-3.191,0-.722-.038-1.482-.076-2.242,0-.19-.114-1.026-.114-1.216,0-.266,0-.684.608-.684a3.449,3.449,0,0,1,1.063.266C1126.455,272.577,1128.164,273.261,1128.2,273.3Zm6.269,4.332c-.836,0-.95-.456-1.481-2.356a11.979,11.979,0,0,0-1.445-3.23c-.189-.3-.227-.38-.227-.57,0-.038.038-.113.076-.113s4.483,1.9,4.483,4.445A1.681,1.681,0,0,1,1134.471,277.631Zm2.584-8.815c-.266,0-.912,0-1.064.646-.19.646-.494,1.9-1.938,1.9-.721,0-.95-.381-.95-1.141,0-.456.038-1.557.076-2.127.114-1.786.114-7.371.114-7.675,0-1.672-.076-5.091-.228-6.725-.038-.19-.228-1.178-.228-1.406a.335.335,0,0,1,.38-.38,14.557,14.557,0,0,1,2.166,1.1,3.034,3.034,0,0,0,1.444.3h5.813a1.525,1.525,0,0,0,1.1-.38c.152-.152.759-1.254,1.026-1.254.228,0,2.963,1.938,2.963,2.508,0,.19-.684.836-.8,1.026-.3.494-.3,4.1-.3,4.939,0,2.089.038,4.217.077,6.307,0,.342.076,1.938.076,2.318,0,2.013-1.254,2.431-1.71,2.431-.874,0-.95-.531-1.064-1.557-.076-.836-.684-.836-1.14-.836ZM1136.9,254.3c-1.254,0-1.254.532-1.254,1.938s0,1.938,1.254,1.938h5.927c1.216,0,1.216-.533,1.216-1.938s0-1.938-1.216-1.938Zm-.038,4.863c-1.178,0-1.178.418-1.178,1.938s0,1.938,1.178,1.938h6.041c1.177,0,1.216-.418,1.216-1.938s-.039-1.938-1.216-1.938Zm0,4.864c-.456,0-1.14,0-1.14.949,0,2.546,0,2.85,1.14,2.85h6.079c.456,0,1.139,0,1.139-.988,0-2.508,0-2.811-1.139-2.811Zm11.778,18.313c-1.292,0-1.6-.95-2.355-3.762a10.662,10.662,0,0,0-2.812-4.407,5.348,5.348,0,0,1-.646-.684c0-.114.038-.114.076-.114a16.562,16.562,0,0,1,1.824.57c3.343,1.368,5.091,4.294,5.091,6.573C1149.821,281.734,1149.175,282.342,1148.643,282.342Z" fill="#333"/>
      <path id="パス_203" data-name="パス 203" d="M1169.756,261.711a5.2,5.2,0,0,1-.456,1.52,13.41,13.41,0,0,0-.912,4.9c0,3.837,1.976,6.611,3.153,6.611.646,0,.8-.19,1.938-2.09.228-.38.874-1.291,1.178-1.291.114,0,.19.152.19.3a4.563,4.563,0,0,1-.114.76,10.658,10.658,0,0,0-.494,2.888,5.121,5.121,0,0,0,.228,1.519,9.528,9.528,0,0,1,.3,1.254c0,.76-.8,1.178-1.444,1.178-2.432,0-7.219-3.989-7.219-11.246,0-1.064.532-5.737.532-6.725a10.556,10.556,0,0,0-.266-2.2,5.126,5.126,0,0,1-.3-1.292c0-.114.152-.152.228-.152C1168.046,257.645,1169.756,260.685,1169.756,261.711Zm18.541.874a9.453,9.453,0,0,1,3.381,7.257c0,.721-.075,2.507-1.9,2.507-1.862,0-1.862-2.051-1.862-2.545,0-3.154,0-4.749-2.014-6.763-.3-.3-1.823-1.482-1.823-1.71,0-.114.152-.19.341-.19A7.394,7.394,0,0,1,1188.3,262.585Z" fill="#333"/>
    </g>
  </g>
  <line id="線_4" data-name="線 4" x2="150" transform="translate(164.791 94.604)" fill="none" stroke="#333" stroke-miterlimit="10" stroke-width="1"/>
</svg>
