<svg id="story_know" xmlns="http://www.w3.org/2000/svg" width="122.562" height="38.857" viewBox="0 0 122.562 38.857">
  <g id="グループ_52" data-name="グループ 52" transform="translate(-449.685 -2394.624)">
    <path id="パス_228" data-name="パス 228" d="M462.581,2414.914c-.8,0-1.135.252-1.219.882-.084.5-.462,3.613-.462,4.033,0,.5.168.588,1.051,1.176,4.032,2.646,6.258,5.419,6.258,7.645,0,.966-.755,2.269-1.722,2.269-.839,0-.924-.294-1.68-2.983-.84-3.108-3.319-6.721-3.991-6.721-.21,0-.42.588-.756,1.554-2.52,7.352-9.2,9.914-9.745,9.914a.3.3,0,0,1-.336-.294c0-.21,0-.21.839-.8,6.386-4.411,7.772-11.468,7.772-15.627,0-1.05-.5-1.05-1.26-1.05-1.345,0-2.983,0-4.495.084-.252,0-1.512.168-1.764.168-.168,0-.211-.084-.379-.294l-.839-.966a.536.536,0,0,1-.168-.295c0-.084.084-.084.168-.084.252,0,1.554.126,1.848.126,1.26.084,3.529.169,5.713.169.5,0,1.05,0,1.26-.5.294-.546.294-5.335.294-6.428,0-1.344,0-1.932-1.3-1.932H455.23a1.643,1.643,0,0,0-1.513.8c-1.26,1.555-3.318,4.117-3.864,4.117-.042,0-.042-.042-.042-.084,0-.294,1.428-2.773,1.68-3.319a64.184,64.184,0,0,0,4.033-10.5c.293-1.3.335-1.344.5-1.344.295,0,3.907,1.723,3.907,2.1,0,.21,0,.21-.966.8a3.591,3.591,0,0,0-1.218,1.638c-.378.672-2.31,4.159-2.31,4.327,0,.336.293.336,1.008.336h5.461a4.669,4.669,0,0,0,2.226-.252c.336-.21,1.555-1.848,1.848-1.848.21,0,2.815,2.1,2.815,2.73,0,.5-.21.5-2.143.5H463c-.462,0-1.134,0-1.218,1.092-.042.378-.169,5.965-.169,6.428,0,.714.085,1.344,1.3,1.344h.882c1.764,0,1.975,0,2.31-.337.252-.251,1.429-1.89,1.849-1.89.21,0,.335,0,1.722,1.68a4.1,4.1,0,0,1,.756,1.135c0,.5-.8.5-2.184.5Zm12.812,12.812c-.8,0-1.176.336-1.176,1.26,0,.21.042,1.219.042,1.429a2.052,2.052,0,0,1-2.269,2.268c-.84,0-.924-.294-.924-1.176,0-.63.126-3.823.126-4.033v-17.055c0-2.1-.084-4.579-.336-7.141-.042-.336-.42-1.933-.42-2.269,0-.21,0-.587.42-.587a15.317,15.317,0,0,1,2.478,1.428,2.677,2.677,0,0,0,1.765.63h6.385c.588,0,.84,0,1.176-.42.462-.589.967-1.177,1.218-1.177.168,0,2.647,1.723,2.647,2.227,0,.252-.882,1.3-.966,1.554a8.127,8.127,0,0,0-.168,2.4c0,.378.084,17.9.126,18.4.084,2.016.084,2.226.084,2.562,0,2.1-1.261,2.9-2.352,2.9-.883,0-.883-.21-.883-1.849,0-.546,0-1.344-1.218-1.344Zm-.126-24.112c-1.3,0-1.3.5-1.3,2.52,0,2.941.042,18.778.168,19.66.084.756.84.84,1.218.84h5.881c.462,0,1.008-.126,1.176-.588.126-.462.252-12.9.252-13.653,0-1.134,0-7.645-.21-8.191-.168-.462-.672-.588-1.176-.588Z" fill="#333"/>
    <path id="パス_229" data-name="パス 229" d="M507.731,2414.284a2.773,2.773,0,1,1,2.773,2.772A2.77,2.77,0,0,1,507.731,2414.284Z" fill="#333"/>
    <path id="パス_230" data-name="パス 230" d="M540.91,2420.123c-3.7,0-4.915.084-5.335.084a6.388,6.388,0,0,1-.883.126c-.168,0-.21-.126-.377-.294l-.8-.967a.633.633,0,0,1-.169-.252.111.111,0,0,1,.126-.126c.295,0,1.6.168,1.849.168,2.058.084,3.781.126,5.755.126h8.989c.8,0,1.093-.21,1.093-1.133a15.15,15.15,0,0,0-.211-2.1c-.042-.252-.378-1.386-.378-1.638,0-.21.042-.5.589-.5.336,0,2.52.589,2.814.673.336.126.714.294.714.672a7.521,7.521,0,0,1-.5,1.008,2.208,2.208,0,0,0-.378,1.554c0,1.008.042,1.47,1.26,1.47h8.654c1.806,0,2.016,0,2.394-.378.294-.251,1.387-1.764,1.764-1.764s3.151,2.226,3.151,2.689c0,.588-.882.588-2.268.588H556.074c-.378,0-.714,0-.714.462,0,1.386,7.6,7.309,16.131,8.024.084,0,.756.041.756.167s-.042.126-.5.252a4.987,4.987,0,0,0-3.487,2.563c-.21.5-.21.588-.378.588-.42,0-10-4.453-13.274-10.334-.252-.5-.336-.672-.5-.672-.294,0-.294.5-.294.588,0,1.6.252,8.486.252,9.914a1.624,1.624,0,0,1-1.638,1.806c-.462,0-1.6-.252-1.6-1.89,0-1.47.295-7.9.295-9.2,0-.126,0-.42-.295-.42a15.524,15.524,0,0,0-2.016,1.848,30.549,30.549,0,0,1-14.408,7.268c-1.135.21-1.807.336-1.891.336-.126,0-.21-.042-.21-.168s.084-.168.714-.42c7.183-2.731,14.871-8.906,14.871-10.25,0-.462-.672-.462-.966-.462Zm-2.647-3.739c-.042.252-.042.672-.588.672-.336,0-3.529-2.31-3.529-2.94,0-.252.127-.294,1.345-.924,1.554-.8,9.032-6.218,9.074-6.218a.134.134,0,0,1,.125.127c0,.378-5.125,6.847-6.049,8.023A1.971,1.971,0,0,0,538.263,2416.384Zm2.353-11.468c-.8,0-1.092-.5-1.428-1.134a15.218,15.218,0,0,0-4.033-4.873,2.471,2.471,0,0,1-.337-.294c0-.084.085-.126.211-.126a11.68,11.68,0,0,1,3.528.84c3.025,1.218,3.781,1.932,3.781,3.613A1.871,1.871,0,0,1,540.616,2404.916Zm14.744-5a2.157,2.157,0,0,0,1.471-.42c.168-.168.924-1.26,1.176-1.26.336,0,2.856,1.68,2.856,2.394a.946.946,0,0,1-.336.588c-.546.505-.588.547-.588.967,0,1.428.378,8.317.378,9.913,0,1.512-.756,2.521-1.932,2.521a1.265,1.265,0,0,1-1.261-1.345c-.083-1.092-.545-1.176-1.176-1.176h-6.511a1.031,1.031,0,0,0-1.218.967c-.042.8-.126,2.1-1.932,2.1-1.219,0-1.219-.924-1.219-1.344,0-1.134.252-6.721.252-7.982a39.45,39.45,0,0,0-.336-5.713,13.444,13.444,0,0,1-.294-1.386c0-.294.21-.378.5-.378.547,0,2.857,1.554,3.445,1.554.756,0,1.135-2.31,1.135-3.36,0-.168-.084-.883-.084-1.051,0-.377.209-.461.629-.461s3.991.755,3.991,1.554c0,.252-.126.336-1.092.966-.294.21-2.184,1.638-2.184,2.058,0,.294.252.294.8.294Zm.42,5.251c1.387,0,1.387-.672,1.387-2.016,0-1.513,0-2.143-1.387-2.143h-6.3c-1.386,0-1.386.63-1.386,1.933,0,1.68,0,2.226,1.386,2.226Zm.042,5.8c1.345,0,1.345-.5,1.345-2.436,0-1.681,0-2.269-1.345-2.269h-6.343c-1.386,0-1.386.63-1.386,2.016,0,2.269,0,2.689,1.386,2.689Zm13.107,4.621c-.673,0-.8-.168-3.445-3.108-.672-.757-4.453-4.579-4.453-4.663,0-.127.084-.127.126-.127.42,0,8.948,2.437,8.948,6.512C570.1,2415.25,569.475,2415.586,568.929,2415.586Zm-6.6-10.124c-.125,0-.167-.084-.167-.126s1.05-1.26,1.26-1.512c1.05-1.386,2.94-4.075,3.108-5.335.084-.588.084-.714.336-.714.673,0,3.907,2.52,3.907,2.982,0,.336-.21.378-.882.546a3.19,3.19,0,0,0-1.471.673C567.165,2402.858,563.132,2405.462,562.333,2405.462Z" fill="#333"/>
  </g>
</svg>
