<svg id="story_beauty" xmlns="http://www.w3.org/2000/svg" width="123.991" height="38.269" viewBox="0 0 123.991 38.269">
  <g id="グループ_50" data-name="グループ 50" transform="translate(-1009.134 -1964.585)">
    <path id="パス_225" data-name="パス 225" d="M1025.181,1980.128a1.313,1.313,0,0,0,.8-.168c.126-.126.673-.882.841-.882.126,0,2.94,1.176,2.94,1.932a.906.906,0,0,1-.462.672c-.715.546-.8.63-.924,1.47a52.314,52.314,0,0,1-1.386,6.595c-.126.505-1.051,3.025-1.051,3.445,0,1.344,4.159,4.747,11.931,4.747a30.771,30.771,0,0,0,10.124-1.638c.84-.3.966-.3.966-.168,0,.084-.168.252-.294.378-1.345,1.26-1.933,1.806-2.395,3.192a8.352,8.352,0,0,1-.5,1.638,17.679,17.679,0,0,1-2.394.084c-8.528,0-11.889-.5-15.837-3.4a22.288,22.288,0,0,0-2.773-2.185c-.378,0-2.1,2.227-2.52,2.647-2.185,2.184-4.033,2.94-4.747,2.94-.084,0-.126-.084-.126-.168a6.635,6.635,0,0,1,1.093-.84c2.31-1.638,4.746-5.545,4.746-6.637a2.238,2.238,0,0,0-.42-1.092,31.408,31.408,0,0,1-2.983-8.023c0-.211,0-.337.126-.337s.42.252.63.84c.883,2.4,2.9,5.756,3.445,5.756.8,0,2.058-8.57,2.058-8.948,0-.714-.462-.756-.84-.756h-1.68a1,1,0,0,0-.924.5c-.336.672-.588,1.134-1.47,1.134-.463,0-1.429-.294-1.429-1.092a25.388,25.388,0,0,1,1.008-3.193c.5-1.68,2.353-7.687,2.353-8.905,0-.462-.252-.546-.714-.546s-2.647.21-2.9.21c-.168,0-.588-.966-.8-.966-.5,0-3.276,5.755-3.276,6.133,0,.546.126.63,1.218,1.176.336.168,1.134.588,1.134,1.134,0,.252-.168.378-.546.672a2.232,2.232,0,0,0-.84,2.143c0,2.31.042,13.694.042,16.256,0,.673.168,4.075.168,4.831a1.7,1.7,0,0,1-.462,1.429,3.208,3.208,0,0,1-1.849.714c-.756,0-.923-.42-.923-.924,0-.294.251-1.723.251-2.059.21-3.612.21-11.048.21-14.912,0-.841-.126-5.209-.126-5.756,0-.377,0-.966-.252-.966a5.327,5.327,0,0,0-.756,1.009c-1.428,2.352-3.151,3.948-3.445,3.948-.042,0-.084,0-.084-.042a5.546,5.546,0,0,1,.546-1.134c.294-.546,2.437-5.335,3.529-8.527,2.269-6.428,2.521-7.142,2.521-8.486,0-.252.042-.42.294-.42.42,0,3.7,1.806,3.7,2.52,0,.126-.084.21-.21.379-.126.125-.168.167-.168.251a19.166,19.166,0,0,0,3.235.3,1,1,0,0,0,.966-.505c.588-.756.714-.756.8-.756.126,0,1.891,1.008,2.1,1.135.294.21.924.588.924,1.092a.4.4,0,0,1-.21.336c-1.008.588-1.135.672-1.3,1.05-.126.378-2.562,9.158-2.562,9.242,0,.5.295.5.546.5Zm20.248-5.335c-.925,0-1.093.42-1.093,1.092v1.848c0,.42.21,2.353.21,2.773a1.847,1.847,0,0,1-1.889,1.638c-.967,0-1.093-.5-1.177-.966-.126-.462-.63-.588-1.05-.588H1038.2c-.546,0-1.134.084-1.134,1.008,0,3.57.126,3.823,1.26,3.823,1.049,0,1.512-.042,1.974-.714.546-.8.756-1.093,1.218-1.093.42,0,3.15,1.975,3.15,2.353,0,.588-.839.588-2.267.588h-4.033c-.924,0-1.134.294-1.134,1.218,0,2.689,0,2.983,1.218,2.983h1.554c1.554,0,2.353,0,2.647-.672.5-1.135.63-1.471,1.176-1.471.587,0,3.612,2.311,3.612,2.689,0,.588-.84.588-2.226.588h-6.763c-.5,0-1.134,0-1.134,1.05,0,.294.126,1.512.126,1.764,0,1.891-2.059,1.891-2.227,1.891-1.008,0-1.177-.589-1.177-1.429,0-.378.169-2.058.169-2.394,0-.84-.589-.882-.966-.882a35.436,35.436,0,0,0-3.7.126c-.084,0-.5.084-.588.084-.169,0-.253-.126-.379-.294l-.8-.966c-.084-.084-.21-.21-.21-.253,0-.084.084-.125.168-.125.839,0,4.579.294,5.377.294,1.092,0,1.092-.379,1.092-1.933,0-1.806,0-2.268-.924-2.268-.378,0-2.227.21-2.521.21-.126,0-.21-.126-.378-.294l-.8-.966c-.168-.168-.168-.21-.168-.253a.111.111,0,0,1,.126-.125c.588,0,3.025.21,3.529.21,1.007,0,1.176-.462,1.176-1.219v-2.52a.844.844,0,0,0-.924-.966c-.378,0-2.143.168-2.4.168-.126,0-.168-.126-.336-.294l-.84-.924c-.168-.21-.168-.252-.168-.294,0-.085.042-.085.126-.085.42,0,3.067.211,3.613.211.966,0,.966-.211.966-3.319,0-.8-.084-1.3-1.176-1.3-.168,0-2.983.042-4.369.126-.126,0-.756.084-.882.084-.168,0-.21-.084-.378-.252l-.8-.967c-.168-.21-.168-.21-.168-.293,0-.042.042-.084.126-.084.294,0,1.6.126,1.89.126,1.428.084,3.319.168,4.7.168,1.05,0,1.05-.127,1.05-2.983,0-.63-.042-1.134-.966-1.134-.5,0-3.151.21-3.487.21-.126,0-.21-.126-.378-.294l-.8-.966c-.085-.126-.169-.21-.169-.252a.112.112,0,0,1,.127-.126c.8,0,4.243.293,4.915.293.252,0,.756,0,.756-.756a5.1,5.1,0,0,0-.294-1.6c-.042-.21-.42-1.05-.42-1.218,0-.21.21-.252.294-.252.041,0,2.52.5,2.814.546.967.21,1.555.336,1.555.84,0,.336-.084.378-.84,1.05a1.145,1.145,0,0,0-.378.883c0,.5.378.5.63.5h2.772a1.239,1.239,0,0,0,1.218-.545c.21-.211.631-.63.883-.63.126,0,1.973.966,2.183,1.05.421.21.925.5.925.924,0,.294-1.093,1.176-1.135,1.428a1.984,1.984,0,0,0-.084.8c0,.336,0,1.722.252,1.722a3.172,3.172,0,0,0,.589-.5.921.921,0,0,1,.756-.337c.588,0,2.4,1.261,2.4,1.807,0,.63-.756.63-2.269.63Zm-4.915-1.092c1.134,0,1.134-.378,1.134-2.437,0-1.092,0-1.68-1.134-1.68h-2.478c-1.177,0-1.177.42-1.177,2.352,0,1.176,0,1.765,1.177,1.765Zm.126,5.8c.756,0,1.05-.168,1.05-1.135,0-3.192,0-3.57-1.092-3.57h-2.562c-1.092,0-1.092.378-1.092,1.848,0,2.562,0,2.857,1.134,2.857Z" fill="#333"/>
    <path id="パス_226" data-name="パス 226" d="M1068.232,1983.782a2.772,2.772,0,1,1,2.772,2.773A2.769,2.769,0,0,1,1068.232,1983.782Z" fill="#333"/>
    <path id="パス_227" data-name="パス 227" d="M1122.456,1972.062c1.89,0,2.1,0,2.688-.714,1.177-1.386,1.3-1.554,1.681-1.554.252,0,3.948,2.226,3.948,2.773,0,.629-.84.629-2.269.629h-12.979c-1.093,0-1.093.8-1.093,2.143,0,1.764,0,2.52,1.093,2.52h1.973c1.681,0,2.017-.042,2.395-.336.336-.252,1.6-1.932,1.975-1.932s3.654,2.058,3.654,2.646c0,.756-.924.756-2.353.756h-7.644c-1.135,0-1.135.967-1.135,1.723,0,1.6,0,2.436,1.135,2.436h7.728c1.891,0,2.1,0,2.689-.714,1.177-1.386,1.3-1.554,1.681-1.554.293,0,3.948,2.268,3.948,2.814,0,.588-.84.588-2.268.588h-27.977c-3.655,0-4.873.084-5.293.126-.168,0-.756.084-.882.084-.168,0-.252-.126-.378-.252l-.841-1.008c-.126-.21-.168-.21-.168-.252,0-.084.042-.126.168-.126.3,0,1.555.126,1.849.168,2.058.084,3.781.126,5.755.126h8.948c1.092,0,1.092-.714,1.092-2.52,0-.756,0-1.639-1.092-1.639h-4.369c-3.655,0-4.873.085-5.293.085a6.519,6.519,0,0,1-.882.125c-.168,0-.252-.125-.378-.294l-.8-.966c-.168-.21-.168-.21-.168-.294,0-.042.042-.084.126-.084.294,0,1.6.126,1.849.126,2.058.126,3.78.168,5.755.168h4.117c1.092,0,1.092-.63,1.092-2.394,0-1.344,0-2.269-1.134-2.269h-7.646c-3.7,0-4.915.085-5.335.085a6.372,6.372,0,0,1-.882.126c-.126,0-.252-.126-.378-.295l-.8-.966c-.168-.21-.168-.21-.168-.294s.042-.084.126-.084c.294,0,1.6.126,1.848.126,2.058.084,3.823.168,5.8.168h11.594c1.513,0,3.318-3.57,3.318-6.091,0-.966,0-1.3.421-1.3.21,0,2.52.924,2.941,1.092.882.336,1.511.588,1.511,1.26,0,.5-.5.547-.881.588-.8.126-1.009.3-2.983,2.017-.336.252-1.722,1.386-1.974,1.638-.21.21-.378.336-.378.5,0,.294.336.294.8.294Zm-20.08,19.66c-3.7,0-4.873.084-5.335.126-.126,0-.756.084-.882.084s-.21-.126-.378-.294l-.8-.967c-.168-.209-.168-.209-.168-.294,0-.041.042-.084.126-.084.294,0,1.6.127,1.849.127,2.057.126,3.822.167,5.8.167h7.477c1.093,0,1.093-.714,1.093-1.932a8.2,8.2,0,0,0-.21-2.394,5.376,5.376,0,0,1-.252-1.05c0-.294.378-.294.588-.294.546,0,3.822.294,3.822,1.26a16.031,16.031,0,0,1-.546,1.512c-.042.294-.21,2.058-.21,2.184,0,.379.042.714.924.714h6.47c2.1,0,2.142,0,3.024-.966.336-.378.924-1.05,1.386-1.05a12.078,12.078,0,0,1,3.865,2.647c0,.5-1.008.5-2.227.5h-11.929c-.505,0-.757,0-.757.294,0,.588,6.512,6.847,16.467,6.847.211,0,1.135-.042,1.3-.042.084,0,.252,0,.252.084s-1.469.756-1.722.924a15.426,15.426,0,0,0-2.941,2.437c-.126.252-.336.546-.546.546a25.886,25.886,0,0,1-10.753-6.721,23.312,23.312,0,0,1-2.647-3.193c-.126-.168-.294-.462-.5-.462s-.21.126-.5.882c-2.73,7.478-11.762,8.276-14.829,8.276a13.963,13.963,0,0,1-4.873-.631c0-.042,1.891-.252,2.059-.252,11.258-1.176,14.619-6.679,14.619-8.359,0-.63-.336-.63-.925-.63Zm6.469-19.954c-.63,0-.84-.294-2.352-2.814a14.669,14.669,0,0,0-2.815-3.277c-.042-.084-.252-.252-.252-.42,0-.042.126-.084.168-.084a19.09,19.09,0,0,1,3.193,1.05c2.184.966,3.571,1.639,3.571,3.655C1110.358,1970.718,1109.979,1971.768,1108.845,1971.768Z" fill="#333"/>
  </g>
</svg>
