<svg id="story_lead" xmlns="http://www.w3.org/2000/svg" width="578.325" height="92.483" viewBox="0 0 578.325 92.483">
  <path id="パス_374" data-name="パス 374" d="M673.083,530.974c-.21,0-.945,0-1.015.735-.07.911-.14,1.891-1.68,1.891-1.156,0-1.225-.7-1.225-1.3,0-.139.21-7.14.21-8.47,0-3.816,0-12.146-.28-15.682-.035-.315-.211-1.785-.211-2.1,0-.176.036-.28.211-.28.139,0,.315.07,1.645.735a3.224,3.224,0,0,0,1.75.49H683.2c.735,0,1.015,0,1.26-.35.525-.735.665-.91,1.015-.91.49,0,3.046,1.645,3.046,2.17,0,.245-.175.385-.771.91-.455.35-.629.6-.629,2.275,0,3.745.034,4.376.07,7.456.035,2,.28,10.851.28,12.671a1.761,1.761,0,0,1-1.751,1.926c-.1,0-1.015,0-1.12-1.33-.035-.6-.035-.841-.735-.841Zm10.5-12.706c1.015,0,1.015-.665,1.015-1.12,0-.42-.1-8.576-.175-8.751a.862.862,0,0,0-.875-.455H672.733a.78.78,0,0,0-.8.525c-.07.281-.07,7.876-.07,8.506,0,.665.035,1.295.98,1.295Zm-.035,11.762c.315,0,.945,0,1.015-.735.035-.211.035-7.981.035-8.787,0-.735-.07-1.33-1.015-1.33H672.873c-.91,0-1.015.526-1.015,1.226,0,1.154.105,6.79.105,8.051,0,1.12.1,1.575,1.05,1.575Z" transform="translate(-668.882 -502.622)" fill="#333"/>
  <path id="パス_375" data-name="パス 375" d="M717.376,510.007c1.015,0,1.015-.63,1.015-1.61,0-.35.035-1.785.035-2.1,0-.525-.14-2.871-.14-3.326,0-.21,0-.349.315-.349.14,0,3.08.665,3.08,1.33,0,.21-.7.91-.735,1.12-.035.139-.1,3.57-.1,3.921a.894.894,0,0,0,1.015,1.014h1.436c.56,0,1.085,0,2.975-4.48.1-.28.49-1.54.56-1.785.07-.21.175-.35.385-.35.14,0,3.29,1.89,3.29,2.38,0,.314-.14.35-1.33.7-1.085.315-3.57,3.045-3.57,3.325,0,.21.28.21.419.21h4.2a2.351,2.351,0,0,0,.946-.174,9.26,9.26,0,0,1,1.014-.526c.49,0,2.941,1.785,2.941,2.9a.561.561,0,0,1-.63.6c-.245,0-1.156-.385-1.365-.385a4.872,4.872,0,0,0-2.416,1.366,5.458,5.458,0,0,1-.7.56c-.105,0-.105-.14-.105-.176,0-.21.84-2.589.84-2.939,0-.316-.21-.316-.49-.316H708.345c-.49,0-.49.071-.525.666-.1,1.785-1.33,3.4-2.135,3.4a1.441,1.441,0,0,1-1.226-1.505,2.579,2.579,0,0,1,.6-1.506,6.756,6.756,0,0,0,.98-3.36c0-.7,0-.77.21-.77.174,0,.245.175,1.05,1.54.28.525.42.63.875.63Zm10.431,14.036a1.519,1.519,0,0,0,.735-.139c.245-.106,1.05-1.05,1.295-1.05.35,0,2.52,1.189,2.52,1.925,0,.245-.1.315-.735.63-.21.1-.244.42-.244.6,0,4.759,0,5.285-.21,5.74a4.35,4.35,0,0,1-2.906,2.345c-.385,0-.49-.105-1.225-1.19a3.722,3.722,0,0,0-1.82-1.261c-.14-.069-.421-.21-.421-.279,0-.141.176-.141.281-.141a14.876,14.876,0,0,0,2.66-.21c1.19-.21,1.19-.49,1.19-3.29,0-2.485,0-2.765-1.05-2.765H722c-1.05,0-1.05.56-1.05,1.19,0,1.05.035,5.74.035,6.721,0,1.015-.42,2.205-1.75,2.205-.98,0-.98-.77-.98-1.085,0-.035.28-6.686.28-7.946,0-.56-.035-1.085-1.085-1.085h-5.461c-1.085,0-1.12.176-1.12,3.921,0,.455.1,2.485.1,2.905a2.154,2.154,0,0,1-2.065,2.345c-.455,0-.735-.245-.735-1.225,0-1.3.21-6.966.21-8.121,0-.21-.14-1.26-.14-1.47,0-.245.1-.315.28-.315.1,0,1.295.49,1.925.77a2.366,2.366,0,0,0,1.155.279h5.916c1.05,0,1.05-.629,1.05-1.259,0-2.906-.49-2.906-1.155-2.906h-2.7c-.42,0-.77,0-.98.456-.279.525-.489.91-1.75.91-1.015,0-1.015-.665-1.015-.946,0-.665.105-3.6.105-4.235a12.986,12.986,0,0,0-.14-2.065c-.035-.281-.07-.491-.07-.56a.278.278,0,0,1,.28-.315,15.156,15.156,0,0,1,1.961.77,3.649,3.649,0,0,0,1.5.21h10.607a1.36,1.36,0,0,0,1.225-.525c.42-.665.49-.736.875-.736.42,0,2.03.875,2.03,1.681,0,.28-.14.455-.56.945-.14.175-.14.525-.14,1.155,0,.42.035,2.31.035,2.7a1.756,1.756,0,0,1-1.785,1.645c-.49,0-.56-.139-.77-.735-.14-.35-.525-.35-.771-.35h-4.62c-.105,0-.315,0-.315.14,0,.106.035.106.455.316.735.349,1.015.49,1.015.665,0,.21-.77.875-.875,1.049a1.514,1.514,0,0,0-.1.6c0,.84,0,1.4,1.085,1.4Zm-14.561-14.526c-.736,0-.876-.314-2.206-3.01a16.989,16.989,0,0,0-1.225-2.275c-.035-.07-.455-.561-.455-.6,0-.1.14-.139.21-.139a10.361,10.361,0,0,1,3.01,1.575,4.4,4.4,0,0,1,1.891,2.8C714.471,508.572,714.121,509.517,713.246,509.517Zm1.54,5.53c-1.086,0-1.086.351-1.086,2.276,0,1.155.14,1.645,1.191,1.645h10.291a.933.933,0,0,0,.98-.49,15.139,15.139,0,0,0,.105-2.485c0-.946-.735-.946-1.05-.946Z" transform="translate(-668.882 -502.622)" fill="#333"/>
  <path id="パス_376" data-name="パス 376" d="M762.407,509.1c0,.106.07.245.07.385a26.825,26.825,0,0,1,.35,3.78c0,2.346-.525,5.6-3.605,10.257-2.8,4.271-4.586,5.111-5.986,5.111-2.31,0-4.376-3.606-4.376-7.877a12.331,12.331,0,0,1,3.886-8.925,14.481,14.481,0,0,1,11.166-4.551,11.407,11.407,0,0,1,5.636,1.12,10.972,10.972,0,0,1,6.09,10.187,13.055,13.055,0,0,1-8.821,12.321,21.513,21.513,0,0,1-5.81,1.295c-.14,0-.35-.035-.35-.245,0-.105.07-.14.945-.491,3.64-1.434,11.236-4.445,11.236-13.161,0-1.365-.14-9.7-9.7-9.7C762.442,508.607,762.407,508.887,762.407,509.1Zm-11.376,10.746c0,2.276.91,5.391,3.045,5.391,1.015,0,1.855-.42,4.271-4.061a20.019,20.019,0,0,0,3.43-10.185c0-2.1-.14-2.276-.595-2.276C757.856,508.712,751.031,513.228,751.031,519.843Z" transform="translate(-668.882 -502.622)" fill="#333"/>
  <path id="パス_377" data-name="パス 377" d="M796,522.329c-.875,0-.945.455-1.016,1.225a2.308,2.308,0,0,1-2.065,1.96c-.875,0-.91-.455-.91-.91,0-.245.1-1.436.14-1.715.07-1.331.07-4.621.07-5.566,0-2.205-.07-4.481-.21-6.335,0-.176-.105-1.155-.105-1.226,0-.1,0-.245.105-.245.315,0,.56.141,2.66,1.261a3.476,3.476,0,0,0,1.891.489h5.81c1.05,0,1.05-.63,1.05-1.3,0-1.05-.035-4.235-.1-5.216-.035-.21-.21-1.085-.21-1.3s.21-.21.35-.21c.245,0,3.431.526,3.431,1.191,0,.21-.735.91-.77,1.085-.14.6-.14.875-.14,4.586,0,.524,0,1.154.979,1.154h6.511a1.1,1.1,0,0,0,1.086-.489c.665-.91.735-1.016,1.05-1.016.49,0,2.975,1.785,2.975,2.24,0,.21-.77.875-.875,1.05-.28.49-.28.91-.28,4.411,0,.7.105,4.2.105,5.005,0,.736.035,1.156-.35,1.611a2.374,2.374,0,0,1-1.716.91c-.98,0-.98-.84-.98-1.715,0-.315,0-.945-1.015-.945h-6.3c-.629,0-1.12.07-1.12,1.155,0,1.225.071,7.28.071,8.646,0,.735,0,2.765-1.856,2.765-1.155,0-1.155-1.05-1.155-1.4,0-.385.141-2.17.141-2.59.034-1.226.1-6.161.1-7.351,0-.841-.1-1.225-1.051-1.225Zm6.335-.946c.28,0,.735,0,.911-.42a48.052,48.052,0,0,0,.209-5.705c0-2.8,0-3.081-1.085-3.081h-6.511c-1.015,0-1.015.386-1.015,1.646,0,.875.071,5.216.071,6.23,0,.981.174,1.33,1.085,1.33Zm11.341,0c.316,0,.8,0,.91-.524.071-.245.176-6.861.176-7.526,0-.84-.315-1.156-1.016-1.156h-6.755c-1.015,0-1.015.7-1.015,1.191,0,.91,0,6.966.1,7.385.106.526.491.63.946.63Z" transform="translate(-668.882 -502.622)" fill="#333"/>
  <path id="パス_378" data-name="パス 378" d="M837.6,524.429c.595,0,.91-.56,1.68-2.73.21-.6.315-.875.49-.875s.175.349.175.42c0,.384-.8,4.48-.8,5.32a6.241,6.241,0,0,0,.56,1.82,3.778,3.778,0,0,1,.42,1.54,1.173,1.173,0,0,1-1.155,1.191c-2.17,0-3.78-5.951-3.78-9.312,0-2.24.28-3.255,1.47-7.631a11.875,11.875,0,0,0,.6-3.639,8.581,8.581,0,0,0-.35-2.486,4.436,4.436,0,0,1-.21-.63c0-.1.14-.175.28-.175,1.61,0,3.08,3.185,3.08,4.446,0,.385,0,.42-.665,1.609-.385.736-2.7,5.881-2.7,9.032C836.694,523.378,837.044,524.429,837.6,524.429Zm20.337,3.5c0,1.366-1.05,1.785-5.951,1.785-3.43,0-4.725-.875-5.46-1.575-.175-.175-1.085-1.085-1.085-1.75,0-.07,0-.35.175-.35a5.221,5.221,0,0,1,.84.49,8.615,8.615,0,0,0,3.745.6,28.91,28.91,0,0,0,3.046-.106c.49-.035,2.94-.28,3.08-.28C857.661,526.739,857.941,527.509,857.941,527.929ZM856.3,510.882c0,1.715-3.885,1.715-4.306,1.715-3.955,0-6.125-2.135-6.125-2.59,0-.07.035-.174.245-.174.105,0,.525.139.98.245a12.033,12.033,0,0,0,2.38.21,14.118,14.118,0,0,0,3.85-.526c1.051-.385,1.156-.42,1.506-.385A1.746,1.746,0,0,1,856.3,510.882Z" transform="translate(-668.882 -502.622)" fill="#333"/>
  <path id="パス_379" data-name="パス 379" d="M889.056,503.322c.665,0,.981.21.981.735s-.281.77-.981.77H880.69c-.944,0-.944.21-.944,4.41,0,3.921.034,21.317.034,24.888,0,.8-.174,1.12-.735,1.12-.77,0-.77-.245-.77-2.31V504.756a1.314,1.314,0,0,1,1.505-1.434Z" transform="translate(-668.882 -502.622)" fill="#333"/>
  <path id="パス_380" data-name="パス 380" d="M919.19,513.368c0,1.155-2.661,2.205-3.5,2.555-.491.175-.525.315-.6,1.54-.07.77-.07,3.606-.07,3.781,0,.21,0,.63.315.63.1,0,2.976-1.191,3.535-1.4,3.466-1.3,5.041-1.4,5.951-1.4a5.36,5.36,0,0,1,5.391,5.285c0,4.62-4.865,6.721-7.736,6.721-1.995,0-3.606-1.016-3.606-2.835a3.12,3.12,0,0,1,1.751-2.766.187.187,0,0,1,.175.175c0,.1-.07.175-.14.28a1.449,1.449,0,0,0-.315.946c0,1.679,1.925,1.679,2.275,1.679,2.31,0,5.251-1.54,5.251-4.34a3.626,3.626,0,0,0-3.361-3.85c-.98,0-3.15.455-7.245,2.625-1.961,1.049-2.171,1.155-2.171,1.75,0,.386.1,1.96.1,2.31,0,1.611-.525,3.92-1.785,3.92-.945,0-1.33-.734-1.61-1.295-1.12-2.17-1.3-2.17-1.75-2.17a2.918,2.918,0,0,0-.875.21,6.921,6.921,0,0,1-1.33.7c-.386,0-2.171-1.05-2.171-2.206,0-.63.386-1.365,1.015-1.365.21,0,1.225.175,1.435.175.946,0,1.576-.175,3.641-1.19,1.785-.875,1.995-.98,1.995-1.96,0-.805-.035-3.781-.07-4.375,0-.246-.1-.771-.49-.771a8.186,8.186,0,0,0-1.61.315,7.523,7.523,0,0,1-2.485.666c-1.191,0-2.521-2.417-2.521-2.662a.249.249,0,0,1,.281-.244c.1,0,.525.14.63.14a10.275,10.275,0,0,0,1.61.175,15.288,15.288,0,0,0,4.445-1.05,26.189,26.189,0,0,0,.35-3.816,3.437,3.437,0,0,0-1.155-2.8,3.506,3.506,0,0,1-.49-.56c0-.315.56-.385.77-.385,2.345,0,3.6,1.715,3.6,2.38a14.121,14.121,0,0,1-.735,1.821,18.7,18.7,0,0,0-.35,2.275c0,.14.07.385.281.385.244,0,1.225-.385,1.225-.875,0-.071-.176-.42-.176-.491,0-.035.071-.1.141-.139C917.51,511.792,919.19,512.283,919.19,513.368Zm-7.981,13.406c0,.525.945,1.646,1.47,1.646.49,0,.98-.981.98-2.7,0-.14,0-.49-.1-.56C913.449,525.164,911.209,526.284,911.209,526.774Zm23-10.886c0,.735-.421,1.68-1.156,1.68-.21,0-1.015-.069-1.19-.069-.175.034-.91.244-1.05.244a.163.163,0,0,1-.175-.175,2.482,2.482,0,0,1,.105-.28,1.843,1.843,0,0,0,.14-.63c0-1.4-1.75-1.89-2.941-1.89a3.032,3.032,0,0,0-1.364.35.783.783,0,0,1-.35.105c-.105,0-.14-.035-.14-.14a4.474,4.474,0,0,1,3.78-2.206C932.561,512.877,934.207,514.278,934.207,515.888Z" transform="translate(-668.882 -502.622)" fill="#333"/>
  <path id="パス_381" data-name="パス 381" d="M970.143,516.553a30.865,30.865,0,0,0,8.471,2.765c.14,0,.735.1.735.245,0,.105-.49.245-.63.28a6.063,6.063,0,0,0-2.66,1.891c-.105.14-.49.875-.665.875-.21,0-7.806-3.676-11.236-9.276-.665-1.121-.771-1.225-1.015-1.225s-.315.069-1.086.875a41.549,41.549,0,0,1-10.361,8.155,30.287,30.287,0,0,1-5.495,2.24c-.1,0-.175-.069-.175-.1s3.745-2.346,4.06-2.556c4.725-2.975,9.731-8.331,10.221-10.956.035-.28.07-.385.315-.385.175,0,3.01,1.085,3.186,1.19.105.035.455.176.455.525a2.233,2.233,0,0,1-.14.491C964.192,512.108,967.2,515.047,970.143,516.553Zm-16.872-8.716c-2.59,0-3.78.07-4.445.1-.1,0-.63.07-.735.07s-.175-.07-.315-.21l-.665-.8c-.14-.175-.14-.175-.14-.245s.035-.07.1-.07c.245,0,1.33.1,1.54.1,1.715.07,3.185.14,4.83.14h1.015c.736,0,.946-.35.946-.945a5.725,5.725,0,0,0-.28-1.856,5.222,5.222,0,0,1-.21-.7c0-.175.175-.245.385-.245.244,0,1.82.386,2.205.49,1.05.281,1.26.351,1.26.665,0,.21-.035.281-.525.911a.854.854,0,0,0-.245.629c0,.841.28,1.051,1.225,1.051H965c.315,0,1.05,0,1.05-.945a14.521,14.521,0,0,0-.1-1.575c-.035-.175-.21-.91-.21-1.05,0-.176.21-.245.385-.245.245,0,2.625.559,3.01.665s.6.245.6.559c0,.21-.14.351-.525.631a1.122,1.122,0,0,0-.455.98c0,.98.56.98,1.12.98h1.785c1.54,0,1.715,0,2.241-.6.98-1.155,1.085-1.3,1.4-1.3.21,0,3.255,1.855,3.255,2.31,0,.49-.7.49-1.855.49h-6.826c-1.085,0-1.085.56-1.085,1.4,0,.211.035,1.4.035,1.575,0,1.3-1.05,1.506-1.785,1.506-.8,0-.945-.141-.945-1.33v-2.416c-.1-.665-.525-.735-1.085-.735h-5.6c-.8,0-1.295,0-1.295.98,0,.35.1,1.891.1,2.205,0,.666-.1.98-.42,1.19a2.479,2.479,0,0,1-1.33.491c-.595,0-.875-.385-.875-1.085,0-.281.035-1.611.035-1.856,0-1.365,0-1.925-1.085-1.925Zm2.486,17.887a17.84,17.84,0,0,1,2.7,1.646.863.863,0,0,1,.28.524c0,.42-.28.49-1.12.7-.1.036-3.115,2.38-3.676,2.8a21.506,21.506,0,0,1-5.32,3.045.112.112,0,0,1-.105-.106c0-.069,1.855-1.679,2.1-1.924,2.906-2.766,4.691-5.53,5.006-6.651A.211.211,0,0,1,955.757,525.724Zm1.61-1.855c-2.73,0-3.745.035-4.446.1-.105,0-.629.069-.735.069s-.175-.069-.315-.209l-.665-.8c-.14-.175-.14-.175-.14-.245,0-.035.035-.071.105-.071.245,0,1.331.106,1.54.106,1.715.1,3.185.14,4.831.14h2.625c.35,0,1.05,0,1.05-.946,0-.42-.21-3.255-.28-3.6,0-.071-.21-.421-.21-.491s.07-.209.35-.209c.245,0,2.7.524,3.046.629.49.1.665.42.665.595,0,.21-.07.28-.6.735-.489.42-.489.63-.489,1.68,0,1.261,0,1.611,1.05,1.611h1.54c1.54,0,1.715,0,2.24-.595.98-1.155,1.085-1.3,1.4-1.3.21,0,3.255,1.89,3.255,2.309,0,.491-.7.491-1.854.491h-6.616c-1.05,0-1.05.63-1.05,1.75,0,2.485,0,3.886.069,5.951.036.595.036,1.435.036,1.854,0,1.121-.28,1.785-1.786,1.785-.77,0-.84-.629-.84-1.224,0-.455.106-2.556.106-3.011.034-1.33.034-2.625.034-4.235a21.2,21.2,0,0,0-.07-2.38c-.175-.49-.735-.49-1.015-.49Zm9.346,2.94c0-.105.175-.139.315-.139,1.295,0,9.276,2.205,9.276,5.11,0,1.12-.63,1.995-1.505,1.995-.665,0-.8-.175-1.89-1.785a16.643,16.643,0,0,0-6.021-5.041C966.853,526.949,966.713,526.844,966.713,526.809Z" transform="translate(-668.882 -502.622)" fill="#333"/>
  <path id="パス_382" data-name="パス 382" d="M993.136,534.9c-.665,0-.98-.21-.98-.735s.28-.77.98-.77h8.366c.945,0,.945-.21.945-4.411,0-3.92-.035-21.317-.035-24.888,0-.8.175-1.12.735-1.12.735,0,.735.245.735,2.311v28.177a1.289,1.289,0,0,1-1.47,1.436Z" transform="translate(-668.882 -502.622)" fill="#333"/>
  <path id="パス_383" data-name="パス 383" d="M1023.026,515.223a.309.309,0,0,1,.315-.28c.1,0,1.925.49,2.31.49a58.471,58.471,0,0,0,5.881-1.051c.595-.42.63-3.955.63-4.13a4.43,4.43,0,0,0-.875-2.975c-.525-.63-.595-.7-.595-.805,0-.245.42-.28.56-.28,2.345,0,3.71,1.33,3.71,2.24,0,.035-1.33,4.516-1.33,5.181,0,.21.14.315.385.315.175,0,1.785-.176,2.066-.176,2.625,0,4.655,1.261,4.655,4.481,0,2.766-.98,8.786-3.01,11.236a5.427,5.427,0,0,1-3.571,2.136c-1.295,0-1.645-1.225-2.065-2.416-.07-.245-.455-1.05-.455-1.154a.166.166,0,0,1,.175-.176,6.379,6.379,0,0,1,.875.245,8.711,8.711,0,0,0,1.785.245c1.015,0,2.31-.49,3.325-4.27a27.785,27.785,0,0,0,1.086-6.091c0-2.45-1.4-2.625-2.416-2.625a7.608,7.608,0,0,0-3.36.84c-.14.175-.175.315-.525,1.506-1.4,4.759-4.8,13.371-7.631,13.371a1.03,1.03,0,0,1-1.12-1.121c0-.735.245-1.015,2.345-3.325.946-1.05,2.416-2.66,4.306-7.911a9.393,9.393,0,0,0,.49-1.645c0-.1-.035-.28-.245-.28-.77,0-4.026,1.4-4.725,1.4C1024.636,518.2,1023.026,515.993,1023.026,515.223Zm24.292,7.421a17.5,17.5,0,0,1-2.379-1.051c-.246-.069-1.121-.1-1.121-.245,0-.21,1.155-.8,1.365-.979,1.3-.981,1.436-1.085,1.436-2.031a4.5,4.5,0,0,0-2.836-4.025c-.28-.141-.84-.385-.84-.525,0-.21.14-.21.245-.21,4.48,0,6.091,4.41,6.126,6.2C1049.314,520.194,1048.789,522.644,1047.318,522.644Zm1.611-11.727c0,.6-.42,1.366-1.015,1.366-.491,0-.77-.21-1.855-1.505a9.462,9.462,0,0,0-2.486-2.066c-.175-.105-.525-.385-.525-.525,0-.1.28-.314.595-.314C1048.124,507.873,1048.929,510.5,1048.929,510.917Zm2.8-2.94a.962.962,0,0,1-.875,1.016c-.77,0-1.155-.455-1.855-1.261a9.662,9.662,0,0,0-3.116-1.856c-.35-.1-.455-.244-.455-.349,0-.28.841-.49,1.261-.49C1051.029,505.037,1051.729,507.312,1051.729,507.977Z" transform="translate(-668.882 -502.622)" fill="#333"/>
  <path id="パス_384" data-name="パス 384" d="M1072.538,527.894c-1.785,1.4-3.571,2.556-5.25,2.556-1.576,0-1.716-1.785-1.716-2.415,0-3.782,3.361-7.807,7.631-10.747,1.085-.77,1.435-1.085,1.435-3.571,0-.559-.1-.734-.77-.734-.07,0-1.33.069-1.575.069a4.65,4.65,0,0,1-4.48-2.554c0-.21.14-.351.419-.351.21,0,1.261.315,1.471.351a20.609,20.609,0,0,0,2.38.139c.63,0,2.66,0,2.87-.524a13.539,13.539,0,0,0,.315-2.591c0-.35-.35-2.135-.35-2.205,0-.175.175-.21.315-.21.07,0,3.08.63,3.08,1.4,0,.035-.524,1.155-.56,1.225a4.626,4.626,0,0,0-.49,1.716c0,.279.035.349.455.349.736,0,3.956-1.155,4.621-1.155a1.354,1.354,0,0,1,1.47,1.155c0,1.12-1.26,1.436-4.235,2.17-2.066.491-2.591.63-2.8.91a4.61,4.61,0,0,0-.385,1.716c0,.8.175.875.6.875a4.32,4.32,0,0,0,1.015-.176,19.078,19.078,0,0,1,4.376-.665c5.11,0,7.946,3.537,7.946,8.017,0,7.6-6.966,9.556-10.221,10.431a11.39,11.39,0,0,1-2.415.42c-.21,0-.351-.071-.351-.245,0-.14.28-.245.7-.385,7.035-2.38,9.626-6.056,9.626-9.976,0-4.411-2.941-6.756-5.776-6.756-1.68,0-1.75.21-2.381,2.276a17.412,17.412,0,0,1-2.415,4.759,1.838,1.838,0,0,0-.385,1.261c0,.28.1,1.54.1,1.785,0,.945-.35,1.75-1.12,1.75-.595,0-.84-.419-1.085-.8-.245-.42-.28-.489-.385-.489A15.359,15.359,0,0,0,1072.538,527.894Zm1.575-4.165c.14-.351.21-4.025.21-4.411,0-.21,0-.8-.245-.8-1.3,0-6.231,5.881-6.231,8.506,0,.49.176.84.736.771C1069.773,527.649,1073.623,524.989,1074.113,523.729Zm3.955-7c-1.82,0-1.82,1.19-1.82,2.415,0,.316,0,1.681.42,1.681.525,0,1.926-2.766,1.926-3.676a.783.783,0,0,0-.1-.35C1078.418,516.728,1078.173,516.728,1078.068,516.728Z" transform="translate(-668.882 -502.622)" fill="#333"/>
  <path id="パス_385" data-name="パス 385" d="M1125.529,524.324c0-2.87-2.415-5.321-5.915-5.321-4.621,0-7.6,4.795-8.226,5.881-.7,1.19-1.051,1.855-1.995,1.855a.965.965,0,0,1-1.016-.98c0-.875.28-1.645,2.766-4.55,2.275-2.661,2.625-3.116,7.91-10.537,1.155-1.645,1.646-2.38,1.646-2.765,0-.245-.245-.49-.665-.49-1.3,0-3.361,1.75-3.956,2.241-1.4,1.154-1.89,1.259-2.485,1.259-1.645,0-2.73-2.24-2.73-2.415,0-.105.1-.105.84-.105a16.972,16.972,0,0,0,5.425-1.26c2.17-.945,2.415-1.051,3.185-1.051,1.4,0,3.676.876,3.676,2.416,0,1.015-.805,1.576-2.485,2.731-2.521,1.785-5.6,6.58-5.6,7.176,0,.1.105.244.21.244.21-.069.665-.244.875-.315a8.467,8.467,0,0,1,3.08-.56c4.481,0,7.876,3.325,7.876,7.281,0,4.446-4.3,7.561-8.751,7.561-3.465,0-5.95-1.856-5.95-3.606a3.37,3.37,0,0,1,3.465-2.835,5.167,5.167,0,0,1,3.991,2.241c.489.629.7.945,1.19.945C1123.079,529.365,1125.529,527.229,1125.529,524.324Zm-9,3.15a1.43,1.43,0,0,0-1.47,1.226c0,.91,1.505,1.644,3.01,1.644a.579.579,0,0,0,.595-.63A2.382,2.382,0,0,0,1116.533,527.474Z" transform="translate(-668.882 -502.622)" fill="#333"/>
  <path id="パス_386" data-name="パス 386" d="M1157.6,527.755c1.049,0,6.37-.736,6.545-.736a2.172,2.172,0,0,1,2.311,1.646c0,1.889-5.951,2.064-7.876,2.064-3.466,0-10.851-.63-10.851-6.125,0-1.33.384-1.715.455-1.715.244,0,.489,1.119.56,1.3.98,2.45,4.235,3.5,6.72,3.5C1155.706,527.684,1157.246,527.755,1157.6,527.755Zm.105-19.568c.42,0,2.38-.07,2.765-.07a3.677,3.677,0,0,1,3.43,2.8c0,.63-.315.63-2.73.8a9.619,9.619,0,0,0-4.411,1.681c-.35.21-.35.175-.49.175-.035,0-.1,0-.1-.071,0-.314,1.925-1.96,1.925-2.38,0-.21-.1-.245-1.12-.419-4.55-.84-6.16-3.046-6.16-3.4,0-.1.1-.1.175-.1a11.135,11.135,0,0,1,1.155.349A20.99,20.99,0,0,0,1157.7,508.187Z" transform="translate(-668.882 -502.622)" fill="#333"/>
  <path id="パス_387" data-name="パス 387" d="M1190.121,521.524c1.05-.981,1.505-1.436,1.505-1.891a8.91,8.91,0,0,0-.315-1.085,11.253,11.253,0,0,1-.6-4.095c0-.8.175-4.866.175-5.776a3.271,3.271,0,0,0-1.05-2.835c-.736-.77-.841-.875-.841-.98,0-.14.841-.175.946-.175,1.995,0,3.78,1.61,3.78,2.625,0,.315-.42,1.891-.49,2.24a32.957,32.957,0,0,0-.315,4.62c0,1.33,0,4.166.91,4.166.49,0,.7-.14,2.59-1.33.386-.245,2.591-1.645,3.606-1.645a1.344,1.344,0,0,1,1.33,1.3c0,1.051-1.435,1.61-2.7,2.1-8.331,3.361-9.521,5.916-9.521,8.191,0,2.381,2.03,3.256,4.865,3.256a15.705,15.705,0,0,0,4.2-.63,9.539,9.539,0,0,1,2.625-.526c1.19,0,2.31.8,2.31,1.68,0,1.786-7.141,1.961-9,1.961-1.61,0-6.686,0-6.686-5.5A7.935,7.935,0,0,1,1190.121,521.524Z" transform="translate(-668.882 -502.622)" fill="#333"/>
  <path id="パス_388" data-name="パス 388" d="M1233.976,509.1c0,.106.07.245.07.385a26.826,26.826,0,0,1,.35,3.78c0,2.346-.525,5.6-3.606,10.257-2.8,4.271-4.585,5.111-5.985,5.111-2.31,0-4.376-3.606-4.376-7.877a12.327,12.327,0,0,1,3.886-8.925,14.481,14.481,0,0,1,11.166-4.551,11.41,11.41,0,0,1,5.636,1.12,10.972,10.972,0,0,1,6.09,10.187,13.055,13.055,0,0,1-8.821,12.321,21.513,21.513,0,0,1-5.81,1.295c-.14,0-.35-.035-.35-.245,0-.105.069-.14.945-.491,3.64-1.434,11.236-4.445,11.236-13.161,0-1.365-.14-9.7-9.7-9.7C1234.011,508.607,1233.976,508.887,1233.976,509.1ZM1222.6,519.843c0,2.276.91,5.391,3.045,5.391,1.015,0,1.855-.42,4.27-4.061a20.021,20.021,0,0,0,3.431-10.185c0-2.1-.14-2.276-.6-2.276C1229.425,508.712,1222.6,513.228,1222.6,519.843Z" transform="translate(-668.882 -502.622)" fill="#333"/>
  <path id="パス_389" data-name="パス 389" d="M789.535,583.974c-3.08,0-4.095.069-4.446.069a5.172,5.172,0,0,1-.735.106c-.14,0-.175-.106-.315-.245l-.665-.8a.539.539,0,0,1-.14-.21.093.093,0,0,1,.1-.1c.245,0,1.33.139,1.54.139,1.715.071,3.15.106,4.8.106h7.491c.665,0,.91-.175.91-.945a12.734,12.734,0,0,0-.176-1.75c-.034-.21-.314-1.156-.314-1.366,0-.175.035-.42.49-.42.28,0,2.1.491,2.345.56.28.105.595.245.595.56a6.194,6.194,0,0,1-.42.84,1.84,1.84,0,0,0-.315,1.295c0,.841.035,1.226,1.05,1.226h7.211c1.505,0,1.68,0,1.995-.316.245-.21,1.155-1.469,1.47-1.469a8.074,8.074,0,0,1,2.625,2.24c0,.49-.735.49-1.89.49H802.171c-.315,0-.6,0-.6.385,0,1.155,6.336,6.091,13.441,6.686.07,0,.631.035.631.139s-.036.106-.42.211a4.151,4.151,0,0,0-2.906,2.135c-.175.42-.175.49-.315.49-.35,0-8.331-3.711-11.061-8.611-.21-.42-.28-.56-.42-.56-.245,0-.245.42-.245.49,0,1.331.21,7.071.21,8.261a1.353,1.353,0,0,1-1.365,1.505c-.385,0-1.331-.21-1.331-1.575,0-1.226.246-6.581.246-7.666,0-.105,0-.35-.246-.35a13.08,13.08,0,0,0-1.68,1.54,25.457,25.457,0,0,1-12.006,6.056c-.945.175-1.505.28-1.575.28-.1,0-.175-.035-.175-.14s.07-.14.595-.35c5.986-2.275,12.391-7.421,12.391-8.541,0-.385-.56-.385-.8-.385Zm-2.2-3.115c-.036.21-.036.559-.491.559-.279,0-2.94-1.924-2.94-2.45,0-.21.105-.245,1.12-.77,1.3-.665,7.526-5.18,7.561-5.18a.111.111,0,0,1,.1.1c0,.315-4.27,5.706-5.04,6.685A1.645,1.645,0,0,0,787.33,580.859Zm1.96-9.557c-.666,0-.911-.42-1.19-.945a12.668,12.668,0,0,0-3.361-4.06,2,2,0,0,1-.28-.245c0-.07.07-.1.175-.1a9.743,9.743,0,0,1,2.941.7c2.52,1.015,3.15,1.61,3.15,3.011A1.559,1.559,0,0,1,789.29,571.3Zm12.286-4.165a1.794,1.794,0,0,0,1.225-.35c.14-.14.77-1.05.98-1.05.28,0,2.381,1.4,2.381,1.995a.787.787,0,0,1-.281.49c-.455.42-.49.455-.49.8,0,1.19.316,6.931.316,8.261,0,1.26-.631,2.1-1.611,2.1a1.052,1.052,0,0,1-1.05-1.12c-.07-.91-.455-.98-.98-.98h-5.425a.858.858,0,0,0-1.015.8c-.036.665-.1,1.75-1.611,1.75-1.015,0-1.015-.769-1.015-1.12,0-.945.21-5.6.21-6.65a32.859,32.859,0,0,0-.28-4.761,11.207,11.207,0,0,1-.245-1.155c0-.245.175-.315.42-.315.455,0,2.38,1.3,2.87,1.3.631,0,.945-1.926.945-2.8,0-.139-.069-.734-.069-.875,0-.314.174-.384.525-.384s3.325.63,3.325,1.295c0,.21-.1.28-.91.8-.245.175-1.82,1.365-1.82,1.715,0,.245.21.245.665.245Zm.35,4.375c1.155,0,1.155-.559,1.155-1.679,0-1.261,0-1.786-1.155-1.786h-5.251c-1.154,0-1.154.525-1.154,1.611,0,1.4,0,1.854,1.154,1.854Zm.035,4.831c1.12,0,1.12-.42,1.12-2.03,0-1.4,0-1.891-1.12-1.891h-5.286c-1.154,0-1.154.526-1.154,1.681,0,1.89,0,2.24,1.154,2.24Zm10.921,3.851c-.56,0-.665-.141-2.87-2.591-.56-.63-3.711-3.815-3.711-3.886,0-.1.071-.1.1-.1.35,0,7.456,2.03,7.456,5.426C813.862,579.914,813.337,580.194,812.882,580.194Zm-5.495-8.437c-.105,0-.14-.069-.14-.1s.875-1.051,1.049-1.261c.876-1.155,2.451-3.4,2.591-4.445.07-.49.07-.6.28-.6a8.765,8.765,0,0,1,3.255,2.485c0,.28-.175.315-.735.455a2.661,2.661,0,0,0-1.225.56C811.412,569.587,808.052,571.757,807.387,571.757Z" transform="translate(-668.882 -502.622)" fill="#333"/>
  <path id="パス_390" data-name="パス 390" d="M837.122,568.958a16.306,16.306,0,0,1-.665,1.959,84.017,84.017,0,0,0-1.471,12.461c0,3.537.665,6.686,5.356,6.686a17.25,17.25,0,0,0,7.35-1.819c.526-.245,3.186-1.716,3.326-1.716a.163.163,0,0,1,.175.175c0,.385-5.181,6.021-11.761,6.021-4.551,0-6.721-2.626-6.721-9.661,0-2.171.07-2.87.8-9.731.14-1.156.455-4.026.455-5.006a4.407,4.407,0,0,0-.315-1.715c-.035-.1-.385-.91-.385-.945,0-.246.28-.35.49-.35C835.582,565.317,837.122,568.152,837.122,568.958Z" transform="translate(-668.882 -502.622)" fill="#333"/>
  <path id="パス_391" data-name="パス 391" d="M881.152,568.538c-.455,0-1.925,1.259-2.485,1.75-.456.42-1.786,1.61-2.7,1.61-1.295,0-2.275-2.485-2.275-2.591,0-.21.07-.349.28-.349s1.015.139,1.19.139c1.12,0,1.541-.07,3.641-1.4a6.012,6.012,0,0,1,3.36-1.155c2.31,0,2.836,1.575,2.836,2.1,0,.735-.316,1.155-2.136,2.835a31.789,31.789,0,0,0-5.145,7.107c0,.174.244.209.349.209.455,0,2.416-.035,2.836,0a28.282,28.282,0,0,1,6.616,1.4,1.4,1.4,0,0,0,.56.14c.455,0,.665-2.871.665-3.221,0-.279-.21-1.821-.21-1.96,0-.21.245-.21.385-.21.105,0,3.15.559,3.15,1.925a7.551,7.551,0,0,1-.77,1.365c0,.07-.49,2.87-.49,2.976,0,.455.21.559.8.875,1.365.735,4.55,2.379,4.55,4.2a1.355,1.355,0,0,1-1.3,1.33c-.7,0-1.085-.28-3.535-2.38-.07-.035-1.085-.91-1.435-.91-.28,0-.385.245-.49.42a15.1,15.1,0,0,1-6.861,6.475,12.878,12.878,0,0,1-3.781,1.4c-.034,0-.279,0-.279-.1a5.388,5.388,0,0,1,.665-.49c3.465-2.381,5.18-3.78,7.21-6.931a6.433,6.433,0,0,0,1.051-1.995c0-.315,0-.49-1.926-1.435a15.148,15.148,0,0,0-6.44-1.576c-2.171,0-2.241.14-2.836,1.4-3.01,6.4-3.6,7.7-5.81,7.7-1.785,0-2.311-1.925-2.311-2.8,0-2.975,3.116-5.636,6.791-6.93a1.265,1.265,0,0,0,.875-.7c.8-1.295,5.181-7.911,5.356-8.225a4.948,4.948,0,0,0,.455-1.575A.45.45,0,0,0,881.152,568.538Zm-11.726,16.871c0,.6.28,1.015.91,1.015,1.925,0,4.2-5.145,4.2-5.286,0-.1-.035-.175-.14-.175C873.136,580.963,869.426,583.343,869.426,585.409Z" transform="translate(-668.882 -502.622)" fill="#333"/>
  <path id="パス_392" data-name="パス 392" d="M911.936,581.768c0-1.05.981-2.17,3.361-4.934a16.116,16.116,0,0,0,2.975-5.216c0-.21-.245-.245-.385-.245-.35,0-1.785.28-2.1.28a3.716,3.716,0,0,1-3.116-3.081c0-.105,0-.245.21-.245a7.76,7.76,0,0,1,1.33.666,5.573,5.573,0,0,0,2.311.63c2.87,0,2.87-.946,2.87-1.646a2.809,2.809,0,0,0-.28-1.225c-.1-.175-.84-.8-.84-1.015,0-.28.91-.56,1.54-.56.84,0,1.715.315,1.785,1.085.035.455.176.525,1.575.63.246,0,1.576.175,1.576.91,0,1.156-2.556,2.135-4.165,2.765-.526.211-.561.28-1.331,2.065a27.168,27.168,0,0,1-1.89,3.781c-.175.315-.245.421-.245.56a.128.128,0,0,0,.14.14,6.994,6.994,0,0,0,1.085-.385,3.27,3.27,0,0,1,1.365-.28,3.157,3.157,0,0,1,2.976,2.136c.245.594.279.665.35.665a16.454,16.454,0,0,0,1.435-1.891c1.155-1.61,3.43-4.795,6.475-4.795a3.3,3.3,0,0,1,3.291,3.115c0,1.645-2.766,2.8-4.936,3.745-.875.385-4.83,1.96-5.461,2.345-.56.351-.594.735-.594,1.471,0,.315.07,1.785.07,2.1,0,.56,0,2.555-1.295,2.555-.946,0-1.086-1.155-1.086-1.785,0-.35.1-2.03.1-2.066,0-.139,0-.419-.244-.419-.281,0-3.4,2.171-3.4,4.166,0,2.415,3.5,2.415,4.516,2.415a10.9,10.9,0,0,0,2.24-.21c.49-.071,2.73-.63,3.185-.63.735,0,1.715.349,1.715,1.189,0,2.171-5.425,2.311-6.265,2.311-4.446,0-6.791-1.82-6.791-4.586,0-2.24,1.33-3.361,4.62-6.021a1.489,1.489,0,0,0,.525-1.224c0-1.575-.28-3.535-1.68-3.535-1.33,0-3.395,1.609-4.3,3.71-.386.875-.77,1.714-1.89,1.714C912.6,582.923,911.936,582.713,911.936,581.768Zm8.926-13.23c.07,0,1.75-.455,1.75-.841,0-.455-.875-.525-1.19-.525-.49,0-.629.98-.629,1.12S920.793,568.538,920.862,568.538Zm3.186,11.34c0,.071.035.175.14.175s7-2.8,7-5.11a1.078,1.078,0,0,0-1.226-1.05C927.058,573.893,924.048,579.318,924.048,579.878Z" transform="translate(-668.882 -502.622)" fill="#333"/>
  <path id="パス_393" data-name="パス 393" d="M956.125,587.894c-1.785,1.4-3.571,2.556-5.251,2.556-1.575,0-1.715-1.785-1.715-2.415,0-3.782,3.361-7.807,7.631-10.747,1.085-.77,1.435-1.085,1.435-3.571,0-.559-.1-.734-.77-.734-.07,0-1.33.069-1.575.069A4.653,4.653,0,0,1,951.4,570.5c0-.21.141-.351.42-.351.21,0,1.261.315,1.471.351a20.61,20.61,0,0,0,2.38.139c.63,0,2.66,0,2.87-.524a13.534,13.534,0,0,0,.315-2.591c0-.35-.35-2.135-.35-2.2,0-.175.175-.21.315-.21.07,0,3.08.63,3.08,1.4,0,.035-.524,1.155-.56,1.225a4.627,4.627,0,0,0-.49,1.716c0,.279.035.349.455.349.736,0,3.956-1.155,4.621-1.155a1.354,1.354,0,0,1,1.47,1.155c0,1.12-1.26,1.436-4.235,2.17-2.066.491-2.591.63-2.8.91a4.608,4.608,0,0,0-.385,1.716c0,.8.175.875.6.875a4.336,4.336,0,0,0,1.016-.176,19.064,19.064,0,0,1,4.375-.665c5.11,0,7.946,3.537,7.946,8.017,0,7.6-6.966,9.556-10.221,10.431a11.39,11.39,0,0,1-2.415.42c-.21,0-.351-.071-.351-.245,0-.14.28-.245.7-.385,7.035-2.38,9.626-6.056,9.626-9.976,0-4.411-2.941-6.756-5.776-6.756-1.68,0-1.75.21-2.381,2.276a17.414,17.414,0,0,1-2.415,4.759,1.838,1.838,0,0,0-.385,1.261c0,.28.105,1.54.105,1.785,0,.945-.35,1.75-1.12,1.75-.6,0-.84-.419-1.085-.8-.245-.42-.28-.489-.385-.489A15.355,15.355,0,0,0,956.125,587.894Zm1.575-4.165c.14-.351.21-4.025.21-4.411,0-.21,0-.8-.245-.8-1.295,0-6.231,5.881-6.231,8.506,0,.49.175.84.735.771C953.359,587.649,957.21,584.989,957.7,583.729Zm3.955-7c-1.819,0-1.819,1.19-1.819,2.415,0,.316,0,1.681.419,1.681.525,0,1.926-2.766,1.926-3.676a.783.783,0,0,0-.105-.35C962.005,576.728,961.76,576.728,961.655,576.728Z" transform="translate(-668.882 -502.622)" fill="#333"/>
  <path id="パス_394" data-name="パス 394" d="M998,567.767a2.857,2.857,0,0,0-.49-1.54,6.958,6.958,0,0,1-.666-.98c0-.42.736-.735,1.436-.735a2.846,2.846,0,0,1,2.52,1.54c.175.245.525.385,1.575.665.665.175,1.995.56,1.995,1.54,0,1.33-1.96,1.96-4.8,2.8-.315.106-.35.21-.665,1.436-.42,1.75-3.43,13.581-6.651,13.581-.945,0-1.085-.63-1.085-.98,0-.49.105-.665,1.155-2.171a31.3,31.3,0,0,0,4.831-11.411c0-.314-.245-.349-.77-.385-4.131-.349-4.131-2.8-4.131-2.835,0-.14.035-.419.245-.419.14,0,.245.034.945.454a5.191,5.191,0,0,0,2.7.735,4.362,4.362,0,0,0,1.54-.21A1.655,1.655,0,0,0,998,567.767Zm10.081,21.912c-.456,3.046-3.116,3.816-4.936,3.816-3.325,0-5.286-2.311-5.286-4.061,0-2.275,2.486-3.465,5.636-3.465.28,0,1.575.07,1.821.07.314,0,.489-.034.489-.385,0-.524-.139-2.87-.139-3.361,0-3.85.209-5.705,3.15-7.385,2.17-1.26,2.415-1.366,2.415-2.276a3.076,3.076,0,0,0-.98-1.785c-.315-.28-.455-.42-.455-.559,0-.106.105-.175.245-.175a11.066,11.066,0,0,1,2.065.6,3.754,3.754,0,0,1,2.555,3.57,1.662,1.662,0,0,1-1.645,1.82,2.42,2.42,0,0,1-.8-.14c-1.33-.49-1.47-.56-1.89-.56a4.19,4.19,0,0,0-2.555,1.05,3.942,3.942,0,0,0-.841,2.905c0,.875.35,6.3,1.4,7.036.315.245,1.96.8,2.275.981.735.385,2.765,1.505,2.765,2.8,0,.594-.245,1.225-.945,1.225-.35,0-.56-.105-1.085-.561-.945-.839-2.555-1.924-3.045-1.714C1008.15,589.189,1008.15,589.33,1008.08,589.679Zm-5.041-1.995c-.8,0-3.956,0-3.956,1.856,0,.84,1.051,1.889,3.151,1.889,3.4,0,3.886-2.66,3.676-3.22C1005.734,587.684,1003.844,587.684,1003.039,587.684Zm-.945-20.022c0-.245-1.225-.875-1.435-.875-.595,0-.84,1.435-.84,1.54a.382.382,0,0,0,.07.211C999.994,568.642,1002.094,568.187,1002.094,567.662Z" transform="translate(-668.882 -502.622)" fill="#333"/>
  <path id="パス_395" data-name="パス 395" d="M1033.117,587.194a47.129,47.129,0,0,0,4.62-12.881c0-.351-.14-.351-1.26-.351a6.723,6.723,0,0,1-3.115-.629,3.372,3.372,0,0,1-1.82-1.89.147.147,0,0,1,.14-.141,7.663,7.663,0,0,1,.805.316,12.919,12.919,0,0,0,3.115.384,7.679,7.679,0,0,0,2.485-.314,10.1,10.1,0,0,0,.386-2.871,4.818,4.818,0,0,0-.421-2.17c-.139-.175-.98-1.05-.98-1.295,0-.351.665-.806,1.576-.806a3.158,3.158,0,0,1,2.8,1.856c0,.175-.385.875-.385,1.05,0,.665,2.8,1.26,3.15,1.26.14,0,.91-.07,1.085-.07a1,1,0,0,1,1.155,1.085c0,1.961-2.975,2.976-5.285,3.606-1.19.315-1.331.35-1.47.98-1.785,7.631-1.82,7.666-2.556,9.94-2.415,7.282-3.675,7.282-4.34,7.282-.84,0-.945-1.155-.945-1.54C1031.857,589.575,1032.032,589.224,1033.117,587.194Zm7.386-16c.175,0,2.835-.946,2.835-1.4,0-.349-1.89-1.12-2.275-1.12-.21,0-.315.071-.385.42-.14.7-.14.8-.315,1.646C1040.328,570.988,1040.293,571.2,1040.5,571.2Zm2.66,14.841c.735,3.045,4.515,3.711,7.176,3.711.595,0,3.255-.245,3.815-.245,1.19,0,2.8.594,2.8,1.75,0,1.015-1.3,1.19-4.271,1.19-5.671,0-10.4-1.436-10.4-5.846,0-.8.21-1.54.49-1.54C1042.918,585.059,1043.128,585.934,1043.163,586.039Zm7.736-12.181c3.325,0,5.846.979,5.846,2.52,0,.84-.736.84-1.015.84-.316,0-1.681-.105-1.961-.105a5.878,5.878,0,0,0-2.59.56,6.111,6.111,0,0,1-1.471.455c-.069,0-.174,0-.174-.1,0-.245,1.82-1.575,1.82-1.96,0-.525-2.485-.561-3.011-.561a20.661,20.661,0,0,0-2.52.141c-.21.035-1.015.14-1.155.14-.035,0-.28,0-.315-.07C1044.108,575.258,1047.153,573.858,1050.9,573.858Z" transform="translate(-668.882 -502.622)" fill="#333"/>
  <path id="パス_396" data-name="パス 396" d="M1076.608,584.429c.595,0,.911-.56,1.681-2.73.209-.6.314-.875.489-.875s.176.349.176.42c0,.384-.806,4.48-.806,5.32a6.273,6.273,0,0,0,.56,1.82,3.763,3.763,0,0,1,.42,1.54,1.173,1.173,0,0,1-1.154,1.191c-2.171,0-3.781-5.951-3.781-9.312,0-2.24.28-3.255,1.47-7.631a11.873,11.873,0,0,0,.6-3.639,8.58,8.58,0,0,0-.35-2.486,4.444,4.444,0,0,1-.21-.63c0-.1.14-.175.28-.175,1.61,0,3.081,3.185,3.081,4.446,0,.385,0,.42-.665,1.609-.386.736-2.7,5.881-2.7,9.032C1075.7,583.378,1076.048,584.429,1076.608,584.429Zm20.337,3.5c0,1.366-1.05,1.785-5.95,1.785-3.431,0-4.726-.875-5.461-1.575-.175-.175-1.085-1.085-1.085-1.75,0-.07,0-.35.175-.35a5.22,5.22,0,0,1,.84.49,8.617,8.617,0,0,0,3.745.6,28.9,28.9,0,0,0,3.046-.106c.49-.035,2.94-.28,3.08-.28C1096.665,586.739,1096.945,587.509,1096.945,587.929Zm-1.645-17.047c0,1.715-3.885,1.715-4.305,1.715-3.955,0-6.126-2.135-6.126-2.59,0-.07.035-.174.245-.174.1,0,.525.139.98.245a12.037,12.037,0,0,0,2.381.21,14.126,14.126,0,0,0,3.85-.526c1.05-.385,1.155-.42,1.505-.385A1.747,1.747,0,0,1,1095.3,570.882Z" transform="translate(-668.882 -502.622)" fill="#333"/>
  <path id="パス_397" data-name="パス 397" d="M1122.948,590.554a3.885,3.885,0,1,1-7.77-.035,3.885,3.885,0,0,1,7.77.035Zm-6.79-.035a2.935,2.935,0,0,0,2.94,2.94,2.888,2.888,0,0,0,2.905-2.87,2.936,2.936,0,0,0-2.975-2.94A2.832,2.832,0,0,0,1116.158,590.519Z" transform="translate(-668.882 -502.622)" fill="#333"/>
</svg>
