<svg id="story_lead_sp" xmlns="http://www.w3.org/2000/svg" width="745" height="110" viewBox="0 0 745 110">
  <rect id="長方形_33" data-name="長方形 33" width="745" height="110" fill="#ffc946" opacity="0"/>
  <g id="グループ_369" data-name="グループ 369" transform="translate(1215.089 -2743.871)">
    <g id="グループ_368" data-name="グループ 368">
      <path id="パス_1627" data-name="パス 1627" d="M-1139.737,2782.709c-.239,0-1.079,0-1.159.84-.08,1.04-.16,2.159-1.92,2.159-1.319,0-1.4-.8-1.4-1.479,0-.161.24-8.159.24-9.679,0-4.359,0-13.877-.32-17.917-.04-.359-.24-2.039-.24-2.4,0-.2.04-.319.24-.319.16,0,.359.08,1.879.84a3.687,3.687,0,0,0,2,.56h12.238c.84,0,1.16,0,1.44-.4.6-.841.759-1.04,1.16-1.04.56,0,3.479,1.88,3.479,2.48,0,.279-.2.439-.88,1.04-.519.4-.72.679-.72,2.6,0,4.28.041,5,.08,8.519.041,2.279.32,12.4.32,14.477a2.012,2.012,0,0,1-2,2.2c-.119,0-1.159,0-1.279-1.52-.04-.68-.04-.96-.84-.96Zm12-14.518c1.16,0,1.16-.759,1.16-1.28,0-.479-.12-9.8-.2-10a.986.986,0,0,0-1-.519h-12.358a.891.891,0,0,0-.92.6c-.08.321-.08,9-.08,9.719,0,.76.04,1.479,1.12,1.479Zm-.04,13.438c.36,0,1.08,0,1.16-.84.04-.24.04-9.118.04-10.038,0-.84-.08-1.519-1.16-1.519h-12.238c-1.04,0-1.16.6-1.16,1.4,0,1.32.12,7.759.12,9.2,0,1.28.12,1.8,1.2,1.8Z" fill="#4d4d4d"/>
      <path id="パス_1628" data-name="パス 1628" d="M-1093.213,2758.753c1.16,0,1.16-.72,1.16-1.84,0-.4.04-2.039.04-2.4,0-.6-.16-3.28-.16-3.8,0-.239,0-.4.36-.4.16,0,3.52.759,3.52,1.519,0,.24-.8,1.04-.84,1.28-.041.16-.121,4.079-.121,4.479a1.022,1.022,0,0,0,1.16,1.16h1.641c.638,0,1.239,0,3.4-5.119.121-.32.561-1.76.641-2.04.08-.239.2-.4.439-.4.16,0,3.76,2.16,3.76,2.72,0,.36-.16.4-1.52.8-1.24.359-4.08,3.479-4.08,3.8,0,.24.321.24.481.24h4.8a2.669,2.669,0,0,0,1.08-.2,10.683,10.683,0,0,1,1.16-.6c.559,0,3.359,2.04,3.359,3.32a.641.641,0,0,1-.72.679c-.28,0-1.32-.439-1.559-.439-.961,0-2.2,1.079-2.76,1.559a6.313,6.313,0,0,1-.8.64c-.119,0-.119-.16-.119-.2,0-.239.959-2.959.959-3.36,0-.359-.24-.359-.559-.359h-25.036c-.56,0-.56.08-.6.76-.119,2.039-1.52,3.879-2.44,3.879a1.647,1.647,0,0,1-1.4-1.72,2.945,2.945,0,0,1,.681-1.72,7.714,7.714,0,0,0,1.12-3.839c0-.8,0-.879.24-.879.2,0,.279.2,1.2,1.759.321.6.481.72,1,.72Zm11.918,16.037a1.724,1.724,0,0,0,.84-.16c.28-.119,1.2-1.2,1.48-1.2.4,0,2.879,1.359,2.879,2.2,0,.28-.119.36-.84.72-.24.12-.279.48-.279.68,0,5.439,0,6.038-.24,6.559a4.968,4.968,0,0,1-3.32,2.68c-.44,0-.559-.12-1.4-1.361a4.244,4.244,0,0,0-2.08-1.439c-.16-.08-.481-.24-.481-.32,0-.16.2-.16.321-.16a17.109,17.109,0,0,0,3.039-.24c1.36-.24,1.36-.559,1.36-3.76,0-2.839,0-3.159-1.2-3.159h-6.719c-1.2,0-1.2.64-1.2,1.36,0,1.2.039,6.559.039,7.678,0,1.16-.479,2.52-2,2.52-1.12,0-1.12-.88-1.12-1.239,0-.041.32-7.639.32-9.079,0-.64-.04-1.24-1.24-1.24h-6.238c-1.241,0-1.281.2-1.281,4.48,0,.519.121,2.839.121,3.319a2.462,2.462,0,0,1-2.36,2.68c-.519,0-.84-.281-.84-1.4,0-1.479.241-7.958.241-9.278,0-.239-.161-1.439-.161-1.68,0-.279.12-.359.32-.359.12,0,1.479.559,2.2.88a2.7,2.7,0,0,0,1.319.319h6.759c1.2,0,1.2-.72,1.2-1.439,0-3.32-.558-3.32-1.318-3.32h-3.08c-.481,0-.88,0-1.12.52-.32.6-.56,1.04-2,1.04-1.16,0-1.16-.76-1.16-1.08,0-.76.12-4.119.12-4.839a14.825,14.825,0,0,0-.16-2.359c-.041-.321-.081-.561-.081-.641a.317.317,0,0,1,.32-.359,17.2,17.2,0,0,1,2.24.879,4.16,4.16,0,0,0,1.72.241h12.118a1.551,1.551,0,0,0,1.4-.6c.48-.76.56-.84,1-.84.48,0,2.32,1,2.32,1.92,0,.321-.161.52-.64,1.08-.159.2-.159.6-.159,1.32,0,.48.039,2.639.039,3.08a2,2,0,0,1-2.039,1.879c-.561,0-.641-.16-.881-.84-.159-.4-.6-.4-.879-.4h-5.279c-.12,0-.36,0-.36.16,0,.12.039.12.52.36.84.4,1.16.56,1.16.76,0,.24-.881,1-1,1.2a1.718,1.718,0,0,0-.121.68c0,.959,0,1.6,1.24,1.6Zm-16.637-16.6c-.84,0-1-.36-2.519-3.439a19.482,19.482,0,0,0-1.4-2.6c-.039-.08-.519-.64-.519-.679,0-.12.16-.16.24-.16.72,0,2.8,1.359,3.439,1.8,1.12.84,2.16,2.2,2.16,3.2C-1096.532,2757.113-1096.932,2758.193-1097.932,2758.193Zm1.76,6.319c-1.24,0-1.24.4-1.24,2.6,0,1.321.16,1.88,1.359,1.88h11.759a1.067,1.067,0,0,0,1.12-.559,17.478,17.478,0,0,0,.119-2.84c0-1.08-.84-1.08-1.2-1.08Z" fill="#4d4d4d"/>
      <path id="パス_1629" data-name="パス 1629" d="M-1045.837,2757.713c0,.12.08.28.08.44a30.834,30.834,0,0,1,.4,4.32c0,2.679-.6,6.4-4.119,11.718-3.2,4.878-5.238,5.838-6.838,5.838-2.64,0-5-4.119-5-9a14.085,14.085,0,0,1,4.44-10.2,16.546,16.546,0,0,1,12.758-5.2,13.046,13.046,0,0,1,6.439,1.279,12.54,12.54,0,0,1,6.959,11.639,14.916,14.916,0,0,1-10.079,14.077,24.546,24.546,0,0,1-6.639,1.479c-.16,0-.4-.04-.4-.279,0-.12.08-.16,1.079-.56,4.159-1.64,12.838-5.079,12.838-15.037,0-1.56-.16-11.079-11.078-11.079C-1045.8,2757.153-1045.837,2757.473-1045.837,2757.713Zm-13,12.278c0,2.6,1.039,6.159,3.478,6.159,1.16,0,2.119-.48,4.879-4.639,2.12-3.239,3.92-7.679,3.92-11.638,0-2.4-.16-2.6-.68-2.6C-1051.036,2757.274-1058.834,2762.433-1058.834,2769.991Z" fill="#4d4d4d"/>
      <path id="パス_1630" data-name="パス 1630" d="M-1011.528,2772.83c-1,0-1.08.521-1.16,1.4a2.634,2.634,0,0,1-2.359,2.239c-1,0-1.039-.52-1.039-1.04,0-.28.119-1.64.16-1.959.08-1.52.08-5.28.08-6.36,0-2.519-.08-5.119-.24-7.238,0-.2-.12-1.32-.12-1.4,0-.12,0-.28.12-.28.359,0,.64.16,3.039,1.44a3.963,3.963,0,0,0,2.16.559h6.639c1.2,0,1.2-.719,1.2-1.479,0-1.2-.039-4.839-.119-5.959-.041-.24-.24-1.24-.24-1.48s.24-.24.4-.24c.279,0,3.918.6,3.918,1.36,0,.24-.84,1.04-.879,1.24-.16.68-.16,1-.16,5.239,0,.6,0,1.319,1.119,1.319h7.439a1.262,1.262,0,0,0,1.241-.559c.759-1.04.84-1.16,1.2-1.16.56,0,3.4,2.04,3.4,2.559,0,.241-.88,1-1,1.2-.32.559-.32,1.04-.32,5.039,0,.8.119,4.8.119,5.718,0,.84.041,1.321-.4,1.84a2.709,2.709,0,0,1-1.96,1.04c-1.119,0-1.119-.96-1.119-1.96,0-.359,0-1.08-1.161-1.08h-7.2c-.719,0-1.279.08-1.279,1.32,0,1.4.08,8.319.08,9.878,0,.84,0,3.161-2.119,3.161-1.32,0-1.32-1.2-1.32-1.6,0-.44.16-2.481.16-2.96.039-1.4.119-7.039.119-8.4,0-.96-.119-1.4-1.2-1.4Zm7.24-1.079c.319,0,.84,0,1.04-.48a54.638,54.638,0,0,0,.24-6.519c0-3.2,0-3.519-1.24-3.519h-7.44c-1.159,0-1.159.44-1.159,1.879,0,1,.08,5.959.08,7.12,0,1.119.2,1.519,1.239,1.519Zm12.958,0c.359,0,.92,0,1.039-.6.08-.279.2-7.837.2-8.6,0-.96-.36-1.32-1.159-1.32h-7.719c-1.16,0-1.16.8-1.16,1.359,0,1.04,0,7.959.12,8.439.12.6.56.72,1.079.72Z" fill="#4d4d4d"/>
      <path id="パス_1631" data-name="パス 1631" d="M-968.083,2775.231c.679,0,1.04-.641,1.919-3.121.24-.679.36-1,.56-1s.2.4.2.48c0,.439-.92,5.119-.92,6.079a7.115,7.115,0,0,0,.64,2.079,4.319,4.319,0,0,1,.481,1.76,1.341,1.341,0,0,1-1.321,1.36c-2.479,0-4.319-6.8-4.319-10.638,0-2.56.319-3.719,1.68-8.719a13.579,13.579,0,0,0,.68-4.159,9.785,9.785,0,0,0-.4-2.839,5.07,5.07,0,0,1-.24-.721c0-.119.16-.2.32-.2,1.84,0,3.52,3.639,3.52,5.079,0,.439,0,.479-.76,1.84-.441.84-3.08,6.719-3.08,10.317C-969.123,2774.03-968.723,2775.231-968.083,2775.231Zm23.235,4c0,1.559-1.2,2.04-6.8,2.04-3.919,0-5.4-1-6.238-1.8-.2-.2-1.24-1.24-1.24-2,0-.08,0-.4.2-.4a5.977,5.977,0,0,1,.96.56,9.84,9.84,0,0,0,4.279.68,33.315,33.315,0,0,0,3.48-.12c.559-.041,3.359-.32,3.518-.32C-945.167,2777.87-944.848,2778.75-944.848,2779.23Zm-1.879-19.477c0,1.96-4.439,1.96-4.92,1.96-4.518,0-7-2.44-7-2.96,0-.08.039-.2.28-.2.121,0,.6.16,1.12.28a13.668,13.668,0,0,0,2.719.24,16.154,16.154,0,0,0,4.4-.6c1.2-.44,1.319-.48,1.72-.44A2,2,0,0,1-946.727,2759.753Z" fill="#4d4d4d"/>
      <path id="パス_1632" data-name="パス 1632" d="M-913.287,2751.114c.759,0,1.119.241,1.119.84s-.32.88-1.119.88h-9.559c-1.08,0-1.08.24-1.08,5.039,0,4.48.04,24.356.04,28.436,0,.92-.2,1.279-.84,1.279-.88,0-.88-.279-.88-2.64v-32.194a1.5,1.5,0,0,1,1.72-1.64Z" fill="#4d4d4d"/>
      <path id="パス_1633" data-name="パス 1633" d="M-882.845,2762.592c0,1.32-3.04,2.52-4,2.92-.56.2-.6.36-.68,1.76-.08.879-.08,4.119-.08,4.319,0,.24,0,.72.36.72.12,0,3.4-1.36,4.039-1.6,3.96-1.479,5.759-1.6,6.8-1.6a6.124,6.124,0,0,1,6.159,6.039c0,5.28-5.56,7.679-8.839,7.679-2.279,0-4.119-1.16-4.119-3.239a3.565,3.565,0,0,1,2-3.16.214.214,0,0,1,.2.2c0,.12-.08.2-.16.32a1.65,1.65,0,0,0-.361,1.079c0,1.92,2.2,1.92,2.6,1.92,2.641,0,6-1.759,6-4.959a4.143,4.143,0,0,0-3.84-4.4c-1.12,0-3.6.52-8.279,3-2.239,1.2-2.479,1.319-2.479,2,0,.44.12,2.24.12,2.64,0,1.839-.6,4.479-2.04,4.479-1.08,0-1.519-.84-1.839-1.479-1.28-2.48-1.481-2.48-2-2.48a3.334,3.334,0,0,0-1,.239,7.938,7.938,0,0,1-1.52.8c-.439,0-2.479-1.2-2.479-2.519,0-.72.44-1.56,1.159-1.56.24,0,1.4.2,1.64.2,1.08,0,1.8-.2,4.16-1.36,2.04-1,2.28-1.119,2.28-2.239,0-.92-.041-4.32-.08-5,0-.281-.121-.88-.561-.88a9.363,9.363,0,0,0-1.84.36c-2.039.68-2.239.76-2.839.76-1.36,0-2.879-2.76-2.879-3.04a.283.283,0,0,1,.32-.279c.119,0,.6.159.719.159a11.636,11.636,0,0,0,1.84.2,17.518,17.518,0,0,0,5.08-1.2,30.066,30.066,0,0,0,.4-4.36,3.929,3.929,0,0,0-1.319-3.2,3.941,3.941,0,0,1-.561-.64c0-.359.641-.439.88-.439,2.68,0,4.12,1.959,4.12,2.719a16.117,16.117,0,0,1-.84,2.08,21.182,21.182,0,0,0-.4,2.6c0,.161.08.44.32.44.28,0,1.4-.44,1.4-1,0-.08-.2-.481-.2-.561,0-.04.081-.12.161-.159C-884.765,2760.793-882.845,2761.353-882.845,2762.592Zm-9.118,15.318c0,.6,1.08,1.879,1.68,1.879.559,0,1.119-1.119,1.119-3.079,0-.16,0-.56-.119-.64C-889.4,2776.07-891.963,2777.35-891.963,2777.91Zm26.275-12.438c0,.84-.48,1.92-1.32,1.92-.24,0-1.159-.08-1.359-.08-.2.04-1.04.28-1.2.28a.187.187,0,0,1-.2-.2,2.762,2.762,0,0,1,.121-.321,2.1,2.1,0,0,0,.16-.719c0-1.6-2-2.16-3.359-2.16a3.47,3.47,0,0,0-1.56.4.9.9,0,0,1-.4.12c-.119,0-.16-.04-.16-.16a5.12,5.12,0,0,1,4.32-2.52C-867.568,2762.032-865.688,2763.632-865.688,2765.472Z" fill="#4d4d4d"/>
      <path id="パス_1634" data-name="パス 1634" d="M-828.7,2766.232a35.246,35.246,0,0,0,9.678,3.16c.16,0,.84.119.84.279,0,.12-.56.28-.721.32a6.93,6.93,0,0,0-3.039,2.159c-.119.161-.559,1-.759,1-.241,0-8.918-4.2-12.838-10.6-.76-1.28-.88-1.4-1.16-1.4s-.36.081-1.24,1a47.52,47.52,0,0,1-11.838,9.319c-1.36.72-5.518,2.559-6.279,2.559-.12,0-.2-.08-.2-.12s4.279-2.679,4.64-2.919c5.4-3.4,11.118-9.518,11.678-12.518.039-.32.079-.44.36-.44.2,0,3.439,1.24,3.638,1.36.121.04.521.2.521.6a2.513,2.513,0,0,1-.16.56C-835.5,2761.152-832.058,2764.512-828.7,2766.232Zm-19.277-9.958c-2.96,0-4.32.08-5.08.12-.119,0-.719.08-.84.08s-.2-.08-.359-.241l-.76-.919c-.16-.2-.16-.2-.16-.281s.04-.08.12-.08c.28,0,1.52.12,1.76.12,1.96.08,3.64.16,5.518.16h1.161c.839,0,1.08-.4,1.08-1.08a6.474,6.474,0,0,0-.321-2.119,6.025,6.025,0,0,1-.24-.8c0-.2.2-.28.441-.28.28,0,2.079.441,2.519.56,1.2.32,1.44.4,1.44.76,0,.24-.041.32-.6,1.04a.982.982,0,0,0-.28.72c0,.959.32,1.2,1.4,1.2h6.6c.36,0,1.2,0,1.2-1.08a16.317,16.317,0,0,0-.121-1.8c-.039-.2-.24-1.039-.24-1.2,0-.2.24-.28.441-.28.279,0,3,.64,3.439.76s.68.28.68.64c0,.24-.16.4-.6.72a1.28,1.28,0,0,0-.52,1.119c0,1.12.64,1.12,1.28,1.12h2.039c1.76,0,1.96,0,2.56-.679,1.12-1.321,1.239-1.48,1.6-1.48.241,0,3.72,2.119,3.72,2.64,0,.56-.8.56-2.119.56h-7.8c-1.24,0-1.24.639-1.24,1.6,0,.24.04,1.6.04,1.8,0,1.479-1.2,1.72-2.04,1.72-.92,0-1.08-.16-1.08-1.52v-2.76c-.119-.759-.6-.839-1.239-.839h-6.4c-.92,0-1.479,0-1.479,1.12,0,.4.12,2.159.12,2.519,0,.76-.12,1.119-.481,1.36a2.832,2.832,0,0,1-1.519.559c-.68,0-1-.439-1-1.239,0-.32.041-1.84.041-2.12,0-1.56,0-2.2-1.24-2.2Zm2.84,20.436a20.44,20.44,0,0,1,3.078,1.88.988.988,0,0,1,.32.6c0,.479-.32.559-1.279.8-.12.04-3.559,2.72-4.2,3.2-3.6,2.559-5.879,3.479-6.079,3.479a.128.128,0,0,1-.12-.12c0-.079,2.119-1.919,2.4-2.2,3.319-3.159,5.36-6.32,5.72-7.6A.238.238,0,0,1-845.135,2776.71Zm1.839-2.12c-3.119,0-4.279.04-5.079.12-.119,0-.72.08-.84.08s-.2-.08-.359-.24l-.76-.919c-.16-.2-.16-.2-.16-.28,0-.04.039-.08.119-.08.28,0,1.519.12,1.76.12,1.96.12,3.639.16,5.519.16h3c.4,0,1.2,0,1.2-1.08,0-.481-.24-3.72-.32-4.119,0-.08-.24-.481-.24-.561s.08-.239.4-.239c.28,0,3.08.6,3.48.72.559.12.76.479.76.679,0,.24-.08.321-.68.84-.56.481-.56.72-.56,1.92,0,1.439,0,1.84,1.2,1.84h1.76c1.76,0,1.96,0,2.56-.681,1.12-1.319,1.24-1.479,1.6-1.479.24,0,3.719,2.16,3.719,2.639,0,.56-.8.56-2.119.56H-834.9c-1.2,0-1.2.721-1.2,2,0,2.84,0,4.439.08,6.8.041.679.041,1.639.041,2.12,0,1.279-.32,2.039-2.04,2.039-.88,0-.96-.72-.96-1.4,0-.52.12-2.92.12-3.44.04-1.519.04-3,.04-4.839a24.264,24.264,0,0,0-.08-2.72c-.2-.56-.84-.56-1.16-.56Zm10.679,3.359c0-.119.2-.159.359-.159,1.48,0,10.6,2.52,10.6,5.839,0,1.279-.72,2.279-1.72,2.279-.76,0-.92-.2-2.16-2.039-1.879-2.84-4.639-4.479-6.879-5.76C-832.457,2778.109-832.617,2777.989-832.617,2777.949Z" fill="#4d4d4d"/>
      <path id="パス_1635" data-name="パス 1635" d="M-806.414,2787.189c-.76,0-1.119-.241-1.119-.84s.319-.88,1.119-.88h9.558c1.08,0,1.08-.24,1.08-5.039,0-4.48-.04-24.357-.04-28.436,0-.92.2-1.28.84-1.28.84,0,.84.28.84,2.64v32.2a1.473,1.473,0,0,1-1.68,1.64Z" fill="#4d4d4d"/>
      <path id="パス_1636" data-name="パス 1636" d="M-776.254,2764.712a.352.352,0,0,1,.359-.32c.12,0,2.2.56,2.64.56a66.883,66.883,0,0,0,6.72-1.2c.679-.479.718-4.519.718-4.719a5.058,5.058,0,0,0-1-3.4c-.6-.72-.679-.8-.679-.92,0-.28.48-.32.64-.32,2.68,0,4.239,1.519,4.239,2.559,0,.04-1.52,5.159-1.52,5.919,0,.24.16.361.441.361.2,0,2.04-.2,2.359-.2,3,0,5.319,1.44,5.319,5.119,0,3.16-1.119,10.039-3.439,12.838-1.119,1.32-2.72,2.44-4.079,2.44-1.48,0-1.88-1.4-2.361-2.76-.08-.279-.519-1.2-.519-1.319a.19.19,0,0,1,.2-.2,7.278,7.278,0,0,1,1,.281,9.958,9.958,0,0,0,2.041.279c1.159,0,2.639-.56,3.8-4.879a31.841,31.841,0,0,0,1.24-6.959c0-2.8-1.6-3-2.76-3a8.7,8.7,0,0,0-3.84.96c-.16.2-.2.359-.6,1.72-1.6,5.438-5.479,15.277-8.719,15.277a1.175,1.175,0,0,1-1.279-1.28c0-.84.279-1.159,2.68-3.8,1.079-1.2,2.758-3.04,4.917-9.039a10.664,10.664,0,0,0,.561-1.879c0-.12-.04-.32-.279-.32-.881,0-4.6,1.6-5.4,1.6C-774.414,2768.111-776.254,2765.592-776.254,2764.712Zm27.755,8.479a20.112,20.112,0,0,1-2.72-1.2c-.279-.079-1.279-.119-1.279-.279,0-.24,1.32-.92,1.559-1.12,1.48-1.12,1.64-1.239,1.64-2.319a5.141,5.141,0,0,0-3.239-4.6c-.32-.16-.96-.439-.96-.6,0-.24.16-.24.279-.24,5.119,0,6.959,5.039,7,7.079C-746.219,2770.391-746.82,2773.191-748.5,2773.191Zm1.84-13.4c0,.68-.48,1.56-1.16,1.56-.56,0-.88-.241-2.12-1.72a10.777,10.777,0,0,0-2.84-2.359c-.2-.121-.6-.441-.6-.6,0-.119.319-.359.68-.359C-747.579,2756.314-746.659,2759.313-746.659,2759.793Zm3.2-3.359a1.1,1.1,0,0,1-1,1.159c-.881,0-1.32-.52-2.12-1.44a11.043,11.043,0,0,0-3.56-2.119c-.4-.12-.519-.28-.519-.4,0-.32.959-.56,1.439-.56C-744.26,2753.074-743.459,2755.674-743.459,2756.434Z" fill="#4d4d4d"/>
      <path id="パス_1637" data-name="パス 1637" d="M-723.772,2779.19c-2.04,1.6-4.08,2.919-6,2.919-1.8,0-1.959-2.04-1.959-2.759,0-4.32,3.84-8.919,8.719-12.279,1.24-.88,1.64-1.239,1.64-4.079,0-.639-.12-.84-.88-.84-.08,0-1.52.081-1.8.081-3.56,0-5.119-2.56-5.119-2.92,0-.24.159-.4.479-.4.241,0,1.44.36,1.68.4a23.3,23.3,0,0,0,2.72.16c.72,0,3.04,0,3.28-.6a15.519,15.519,0,0,0,.359-2.96c0-.4-.4-2.439-.4-2.519,0-.2.2-.24.36-.24.08,0,3.52.72,3.52,1.6,0,.04-.6,1.319-.64,1.4a5.288,5.288,0,0,0-.56,1.96c0,.32.04.4.519.4.84,0,4.52-1.32,5.28-1.32a1.545,1.545,0,0,1,1.679,1.32c0,1.28-1.439,1.639-4.839,2.479-2.359.561-2.96.721-3.2,1.04a5.265,5.265,0,0,0-.44,1.96c0,.92.2,1,.679,1a5.01,5.01,0,0,0,1.161-.2,21.719,21.719,0,0,1,5-.76c5.837,0,9.078,4.039,9.078,9.159,0,8.678-7.959,10.917-11.678,11.917a12.934,12.934,0,0,1-2.76.481c-.24,0-.4-.08-.4-.28,0-.16.32-.281.8-.441,8.039-2.719,11-6.919,11-11.4,0-5.039-3.36-7.719-6.6-7.719-1.92,0-2,.24-2.719,2.6a19.966,19.966,0,0,1-2.759,5.438,2.094,2.094,0,0,0-.441,1.441c0,.319.12,1.759.12,2.039,0,1.08-.4,2-1.279,2-.681,0-.961-.48-1.24-.92-.281-.48-.321-.56-.44-.56A17.762,17.762,0,0,0-723.772,2779.19Zm1.8-4.759c.16-.4.24-4.6.24-5.039,0-.241,0-.92-.279-.92-1.48,0-7.119,6.719-7.119,9.718,0,.56.2.959.84.879C-726.932,2778.909-722.532,2775.87-721.973,2774.431Zm4.52-8c-2.08,0-2.08,1.359-2.08,2.759,0,.36,0,1.92.48,1.92.6,0,2.2-3.16,2.2-4.2a.888.888,0,0,0-.119-.4C-717.053,2766.432-717.333,2766.432-717.453,2766.432Z" fill="#4d4d4d"/>
      <path id="パス_1638" data-name="パス 1638" d="M-667.322,2775.11c0-3.279-2.76-6.079-6.759-6.079-5.28,0-8.679,5.48-9.4,6.719-.8,1.359-1.2,2.12-2.28,2.12a1.1,1.1,0,0,1-1.159-1.12c0-1,.319-1.88,3.159-5.2,2.6-3.039,3-3.56,9.039-12.038,1.319-1.88,1.879-2.72,1.879-3.159,0-.281-.279-.561-.76-.561-1.479,0-3.839,2-4.519,2.56-1.6,1.32-2.159,1.44-2.839,1.44-1.88,0-3.12-2.56-3.12-2.76,0-.12.121-.12.961-.12a19.424,19.424,0,0,0,6.2-1.439c2.479-1.08,2.76-1.2,3.64-1.2,1.6,0,4.2,1,4.2,2.759,0,1.16-.92,1.8-2.84,3.119-2.879,2.04-6.4,7.52-6.4,8.2a.3.3,0,0,0,.241.279c.24-.079.759-.279,1-.359a9.643,9.643,0,0,1,3.519-.64c5.119,0,9,3.8,9,8.318,0,5.079-4.92,8.639-10,8.639-3.96,0-6.8-2.12-6.8-4.119,0-1.441,1.68-3.24,3.959-3.24a5.906,5.906,0,0,1,4.559,2.559c.561.721.8,1.08,1.36,1.08C-670.122,2780.869-667.322,2778.43-667.322,2775.11Zm-10.279,3.6a1.634,1.634,0,0,0-1.679,1.4c0,1.04,1.719,1.88,3.439,1.88a.662.662,0,0,0,.68-.719A2.721,2.721,0,0,0-677.6,2778.71Z" fill="#4d4d4d"/>
      <path id="パス_1639" data-name="パス 1639" d="M-634.8,2779.029c1.2,0,7.279-.839,7.478-.839,1.561,0,2.64,1.08,2.64,1.879,0,2.16-6.8,2.36-9,2.36-3.96,0-12.4-.72-12.4-7,0-1.52.439-1.959.519-1.959.279,0,.56,1.279.64,1.479,1.12,2.8,4.839,4,7.678,4C-636.957,2778.949-635.2,2779.029-634.8,2779.029Zm.12-22.356c.48,0,2.72-.079,3.159-.079a4.2,4.2,0,0,1,3.92,3.2c0,.72-.36.72-3.119.92a10.983,10.983,0,0,0-5.04,1.919c-.4.24-.4.2-.56.2-.04,0-.12,0-.12-.08,0-.359,2.2-2.239,2.2-2.719,0-.24-.121-.28-1.28-.48-5.2-.96-7.039-3.48-7.039-3.879,0-.12.12-.12.2-.12a12.864,12.864,0,0,1,1.321.4A23.9,23.9,0,0,0-634.677,2756.673Z" fill="#4d4d4d"/>
      <path id="パス_1640" data-name="パス 1640" d="M-601.76,2771.911c1.2-1.12,1.72-1.639,1.72-2.16a10.128,10.128,0,0,0-.361-1.239,12.893,12.893,0,0,1-.679-4.68c0-.92.2-5.558.2-6.6a3.736,3.736,0,0,0-1.2-3.239c-.84-.88-.959-1-.959-1.12,0-.16.959-.2,1.079-.2,2.28,0,4.319,1.84,4.319,3,0,.359-.48,2.159-.56,2.559a37.631,37.631,0,0,0-.36,5.279c0,1.52,0,4.76,1.04,4.76.56,0,.8-.161,2.96-1.52.44-.28,2.959-1.88,4.119-1.88a1.536,1.536,0,0,1,1.52,1.48c0,1.2-1.641,1.839-3.08,2.4-9.518,3.84-10.878,6.759-10.878,9.358,0,2.72,2.319,3.72,5.559,3.72a17.874,17.874,0,0,0,4.8-.72,10.873,10.873,0,0,1,3-.6c1.36,0,2.639.919,2.639,1.919,0,2.04-8.158,2.24-10.277,2.24-1.84,0-7.639,0-7.639-6.279A9.064,9.064,0,0,1-601.76,2771.911Z" fill="#4d4d4d"/>
      <path id="パス_1641" data-name="パス 1641" d="M-555.761,2757.713c0,.12.08.28.08.44a30.8,30.8,0,0,1,.4,4.32c0,2.679-.6,6.4-4.12,11.718-3.2,4.878-5.238,5.838-6.837,5.838-2.641,0-5-4.119-5-9a14.083,14.083,0,0,1,4.439-10.2,16.546,16.546,0,0,1,12.758-5.2,13.046,13.046,0,0,1,6.439,1.279,12.538,12.538,0,0,1,6.959,11.639,14.916,14.916,0,0,1-10.079,14.077,24.545,24.545,0,0,1-6.639,1.479c-.16,0-.4-.04-.4-.279,0-.12.08-.16,1.079-.56,4.159-1.64,12.838-5.079,12.838-15.037,0-1.56-.16-11.079-11.078-11.079C-555.721,2757.153-555.761,2757.473-555.761,2757.713Zm-13,12.278c0,2.6,1.039,6.159,3.479,6.159,1.16,0,2.119-.48,4.878-4.639,2.121-3.239,3.92-7.679,3.92-11.638,0-2.4-.16-2.6-.679-2.6C-560.96,2757.274-568.758,2762.433-568.758,2769.991Z" fill="#4d4d4d"/>
      <path id="パス_1642" data-name="パス 1642" d="M-1018.807,2834.71c-3.519,0-4.68.08-5.08.08a6.017,6.017,0,0,1-.84.12c-.16,0-.2-.12-.359-.28l-.76-.92a.6.6,0,0,1-.16-.239.106.106,0,0,1,.12-.12c.28,0,1.52.16,1.759.16,1.961.08,3.6.12,5.48.12h8.559c.76,0,1.039-.2,1.039-1.08a14.693,14.693,0,0,0-.2-2c-.041-.24-.362-1.319-.362-1.56,0-.2.041-.479.561-.479.32,0,2.4.559,2.68.639.32.121.679.28.679.64a7.155,7.155,0,0,1-.48.96,2.108,2.108,0,0,0-.359,1.48c0,.96.04,1.4,1.2,1.4h8.239c1.72,0,1.92,0,2.28-.36.28-.241,1.32-1.68,1.68-1.68s3,2.119,3,2.559c0,.56-.84.56-2.159.56h-12.078c-.361,0-.68,0-.68.44,0,1.32,7.238,6.959,15.357,7.639.08,0,.719.04.719.16s-.039.119-.479.24a4.745,4.745,0,0,0-3.32,2.44c-.2.479-.2.56-.359.56-.4,0-9.52-4.24-12.639-9.839-.24-.48-.32-.64-.479-.64-.28,0-.28.481-.28.56,0,1.52.24,8.079.24,9.438a1.547,1.547,0,0,1-1.561,1.72c-.439,0-1.519-.239-1.519-1.8,0-1.4.28-7.52.28-8.759,0-.12,0-.4-.28-.4a14.663,14.663,0,0,0-1.92,1.76,29.082,29.082,0,0,1-13.717,6.919c-1.08.2-1.72.32-1.8.32-.12,0-.2-.04-.2-.16s.08-.16.68-.4c6.839-2.6,14.158-8.478,14.158-9.758,0-.44-.641-.44-.92-.44Zm-2.519-3.56c-.041.241-.041.641-.561.641-.32,0-3.359-2.2-3.359-2.8,0-.24.12-.28,1.279-.88,1.48-.759,8.6-5.919,8.639-5.919a.129.129,0,0,1,.121.121c0,.359-4.88,6.518-5.76,7.638A1.88,1.88,0,0,0-1021.326,2831.15Zm2.239-10.917c-.761,0-1.04-.48-1.36-1.08a14.468,14.468,0,0,0-3.839-4.639,2.159,2.159,0,0,1-.32-.281c0-.08.079-.12.2-.12a11.121,11.121,0,0,1,3.359.8c2.879,1.159,3.6,1.839,3.6,3.439A1.783,1.783,0,0,1-1019.087,2820.233Zm14.038-4.759a2.04,2.04,0,0,0,1.4-.4c.161-.159.881-1.2,1.122-1.2.319,0,2.718,1.6,2.718,2.279a.9.9,0,0,1-.32.56c-.52.48-.559.52-.559.92,0,1.36.36,7.919.36,9.438,0,1.441-.721,2.4-1.84,2.4a1.2,1.2,0,0,1-1.2-1.28c-.08-1.04-.521-1.12-1.121-1.12h-6.2a.981.981,0,0,0-1.159.92c-.041.76-.121,2-1.84,2-1.16,0-1.16-.88-1.16-1.28,0-1.079.24-6.4.24-7.6a37.53,37.53,0,0,0-.32-5.438,12.793,12.793,0,0,1-.279-1.32c0-.281.2-.36.478-.36.521,0,2.721,1.48,3.281,1.48.719,0,1.079-2.2,1.079-3.2,0-.16-.08-.839-.08-1,0-.36.2-.44.6-.44s3.8.72,3.8,1.481c0,.239-.121.319-1.04.918-.28.2-2.08,1.561-2.08,1.96,0,.281.24.281.761.281Zm.4,5c1.32,0,1.32-.64,1.32-1.92,0-1.44,0-2.039-1.32-2.039h-6c-1.32,0-1.32.6-1.32,1.839,0,1.6,0,2.12,1.32,2.12Zm.04,5.519c1.28,0,1.28-.48,1.28-2.32,0-1.6,0-2.159-1.28-2.159h-6.039c-1.32,0-1.32.6-1.32,1.92,0,2.159,0,2.559,1.32,2.559Zm12.478,4.4c-.64,0-.76-.159-3.279-2.959-.64-.72-4.24-4.36-4.24-4.44,0-.12.08-.12.121-.12.4,0,8.518,2.319,8.518,6.2C-991.012,2830.071-991.612,2830.391-992.132,2830.391Zm-6.278-9.638c-.121,0-.161-.08-.161-.12s1-1.2,1.2-1.441c1-1.319,2.8-3.878,2.96-5.079.08-.559.08-.679.319-.679.641,0,3.72,2.4,3.72,2.84,0,.32-.2.359-.84.519a3.029,3.029,0,0,0-1.4.641C-993.812,2818.274-997.651,2820.753-998.41,2820.753Z" fill="#4d4d4d"/>
      <path id="パス_1643" data-name="パス 1643" d="M-968.529,2817.553a18.4,18.4,0,0,1-.76,2.24,96.229,96.229,0,0,0-1.68,14.237c0,4.039.761,7.639,6.119,7.639a19.691,19.691,0,0,0,8.4-2.079c.6-.28,3.64-1.96,3.8-1.96a.187.187,0,0,1,.2.2c0,.44-5.919,6.879-13.438,6.879-5.2,0-7.68-3-7.68-11.038,0-2.48.081-3.28.92-11.118.161-1.32.521-4.6.521-5.72a5.032,5.032,0,0,0-.36-1.959c-.04-.12-.44-1.04-.44-1.08,0-.28.32-.4.561-.4C-970.288,2813.394-968.529,2816.633-968.529,2817.553Z" fill="#4d4d4d"/>
      <path id="パス_1644" data-name="パス 1644" d="M-922.3,2817.073c-.52,0-2.2,1.44-2.84,2-.519.48-2.039,1.839-3.079,1.839-1.479,0-2.6-2.839-2.6-2.959,0-.24.081-.4.32-.4s1.16.16,1.36.16c1.28,0,1.76-.08,4.159-1.6a6.876,6.876,0,0,1,3.84-1.319c2.639,0,3.239,1.8,3.239,2.4,0,.84-.36,1.32-2.439,3.24a36.317,36.317,0,0,0-5.88,8.119c0,.2.281.239.4.239.52,0,2.76-.04,3.241,0a32.339,32.339,0,0,1,7.558,1.6,1.6,1.6,0,0,0,.64.16c.52,0,.76-3.279.76-3.68,0-.319-.24-2.079-.24-2.239,0-.24.28-.24.44-.24.119,0,3.6.64,3.6,2.2a8.6,8.6,0,0,1-.881,1.559c0,.081-.56,3.28-.56,3.4,0,.519.24.64.92,1,1.56.84,5.2,2.72,5.2,4.8a1.548,1.548,0,0,1-1.479,1.519c-.8,0-1.24-.319-4.039-2.719-.08-.04-1.241-1.04-1.641-1.04-.319,0-.439.281-.56.48a17.246,17.246,0,0,1-7.838,7.4,14.748,14.748,0,0,1-4.319,1.6c-.041,0-.32,0-.32-.12a6.155,6.155,0,0,1,.76-.56c3.959-2.719,5.919-4.319,8.238-7.919a7.356,7.356,0,0,0,1.2-2.28c0-.359,0-.56-2.2-1.64a17.326,17.326,0,0,0-7.358-1.8c-2.48,0-2.56.159-3.24,1.6-3.439,7.319-4.119,8.8-6.638,8.8-2.04,0-2.641-2.2-2.641-3.2,0-3.4,3.561-6.439,7.76-7.919a1.442,1.442,0,0,0,1-.8c.92-1.479,5.918-9.038,6.118-9.4a5.638,5.638,0,0,0,.52-1.8C-921.862,2817.354-921.981,2817.073-922.3,2817.073Zm-13.4,19.277c0,.68.319,1.16,1.04,1.16,2.2,0,4.8-5.879,4.8-6.039,0-.12-.04-.2-.16-.2C-931.459,2831.271-935.7,2833.99-935.7,2836.35Z" fill="#4d4d4d"/>
      <path id="パス_1645" data-name="パス 1645" d="M-891.219,2832.191c0-1.2,1.119-2.48,3.84-5.639a18.417,18.417,0,0,0,3.4-5.959c0-.24-.279-.28-.439-.28-.4,0-2.039.32-2.4.32a4.243,4.243,0,0,1-3.559-3.52c0-.12,0-.28.24-.28a9.012,9.012,0,0,1,1.52.76,6.351,6.351,0,0,0,2.639.721c3.28,0,3.28-1.081,3.28-1.88a3.21,3.21,0,0,0-.32-1.4c-.121-.2-.961-.92-.961-1.159,0-.32,1.041-.641,1.76-.641.961,0,1.96.361,2.04,1.241.04.519.2.6,1.8.719.279,0,1.8.2,1.8,1.04,0,1.32-2.92,2.44-4.759,3.16-.6.24-.641.32-1.521,2.359a31.009,31.009,0,0,1-2.159,4.319c-.2.361-.28.481-.28.641a.146.146,0,0,0,.16.159,7.911,7.911,0,0,0,1.239-.439,3.747,3.747,0,0,1,1.561-.321,3.6,3.6,0,0,1,3.4,2.441c.281.68.321.76.4.76a18.72,18.72,0,0,0,1.639-2.161c1.32-1.839,3.919-5.478,7.4-5.478a3.772,3.772,0,0,1,3.759,3.559c0,1.879-3.16,3.2-5.64,4.279-1,.44-5.519,2.24-6.238,2.68-.64.4-.68.839-.68,1.679,0,.361.08,2.04.08,2.4,0,.64,0,2.92-1.48,2.92-1.08,0-1.24-1.32-1.24-2.041,0-.4.12-2.319.12-2.359,0-.16,0-.479-.28-.479-.319,0-3.88,2.479-3.88,4.758,0,2.76,4,2.76,5.16,2.76a12.369,12.369,0,0,0,2.559-.24c.561-.08,3.12-.72,3.641-.72.84,0,1.959.4,1.959,1.36,0,2.48-6.2,2.639-7.159,2.639-5.08,0-7.759-2.079-7.759-5.238,0-2.56,1.519-3.84,5.279-6.879a1.7,1.7,0,0,0,.6-1.4c0-1.8-.32-4.039-1.919-4.039-1.521,0-3.88,1.839-4.919,4.239-.441,1-.881,1.96-2.16,1.96C-890.459,2833.511-891.219,2833.271-891.219,2832.191Zm10.2-15.118c.08,0,2-.519,2-.96,0-.519-1-.6-1.359-.6-.56,0-.72,1.119-.72,1.279S-881.1,2817.073-881.021,2817.073Zm3.64,12.958c0,.08.039.2.16.2s8-3.2,8-5.84a1.231,1.231,0,0,0-1.4-1.2C-873.942,2823.192-877.381,2829.392-877.381,2830.031Z" fill="#4d4d4d"/>
      <path id="パス_1646" data-name="パス 1646" d="M-844.844,2839.19c-2.04,1.6-4.08,2.919-6,2.919-1.8,0-1.959-2.04-1.959-2.759,0-4.32,3.84-8.919,8.719-12.279,1.24-.88,1.639-1.239,1.639-4.079,0-.639-.12-.84-.879-.84-.08,0-1.52.081-1.8.081-3.56,0-5.119-2.56-5.119-2.92,0-.24.159-.4.479-.4.24,0,1.44.36,1.68.4a23.3,23.3,0,0,0,2.72.16c.719,0,3.04,0,3.28-.6a15.519,15.519,0,0,0,.359-2.96c0-.4-.4-2.439-.4-2.519,0-.2.2-.24.36-.24.08,0,3.52.72,3.52,1.6,0,.04-.6,1.319-.64,1.4a5.3,5.3,0,0,0-.561,1.96c0,.32.041.4.52.4.84,0,4.52-1.32,5.279-1.32a1.546,1.546,0,0,1,1.68,1.32c0,1.28-1.439,1.639-4.839,2.479-2.359.561-2.96.721-3.2,1.04a5.264,5.264,0,0,0-.441,1.96c0,.92.2,1,.68,1a5,5,0,0,0,1.16-.2,21.727,21.727,0,0,1,5-.76c5.838,0,9.078,4.039,9.078,9.159,0,8.678-7.959,10.917-11.677,11.917a12.946,12.946,0,0,1-2.76.481c-.24,0-.4-.08-.4-.28,0-.16.32-.281.8-.441,8.039-2.719,11-6.919,11-11.4,0-5.039-3.359-7.719-6.6-7.719-1.92,0-2,.24-2.719,2.6a19.971,19.971,0,0,1-2.76,5.438,2.1,2.1,0,0,0-.44,1.441c0,.319.12,1.759.12,2.039,0,1.08-.4,2-1.279,2-.681,0-.961-.48-1.241-.92-.28-.48-.32-.56-.439-.56A17.762,17.762,0,0,0-844.844,2839.19Zm1.8-4.759c.16-.4.24-4.6.24-5.039,0-.241,0-.92-.279-.92-1.481,0-7.119,6.719-7.119,9.718,0,.56.2.959.84.879C-848,2838.909-843.6,2835.87-843.045,2834.431Zm4.519-8c-2.08,0-2.08,1.359-2.08,2.759,0,.36,0,1.92.481,1.92.6,0,2.2-3.16,2.2-4.2a.889.889,0,0,0-.119-.4C-838.125,2826.432-838.405,2826.432-838.526,2826.432Z" fill="#4d4d4d"/>
      <path id="パス_1647" data-name="パス 1647" d="M-801.084,2816.193a3.246,3.246,0,0,0-.561-1.759,8.075,8.075,0,0,1-.759-1.12c0-.48.839-.84,1.64-.84a3.252,3.252,0,0,1,2.879,1.759c.2.281.6.441,1.8.76.761.2,2.28.641,2.28,1.76,0,1.521-2.24,2.24-5.479,3.2-.361.119-.4.239-.76,1.64-.48,2-3.919,15.516-7.6,15.516-1.08,0-1.24-.719-1.24-1.119,0-.56.12-.759,1.32-2.479a35.772,35.772,0,0,0,5.519-13.038c0-.361-.28-.4-.88-.44-4.719-.4-4.719-3.2-4.719-3.24,0-.16.039-.479.28-.479.16,0,.28.04,1.08.519a5.923,5.923,0,0,0,3.08.84,5,5,0,0,0,1.759-.239A1.9,1.9,0,0,0-801.084,2816.193Zm11.517,25.037c-.519,3.479-3.558,4.359-5.638,4.359-3.8,0-6.039-2.64-6.039-4.64,0-2.6,2.84-3.959,6.439-3.959.32,0,1.8.08,2.08.08.36,0,.559-.04.559-.44,0-.6-.159-3.279-.159-3.839,0-4.4.239-6.519,3.6-8.439,2.481-1.44,2.76-1.56,2.76-2.6a3.512,3.512,0,0,0-1.119-2.039c-.36-.32-.52-.48-.52-.64,0-.12.119-.2.28-.2a12.748,12.748,0,0,1,2.359.68,4.292,4.292,0,0,1,2.92,4.079,1.9,1.9,0,0,1-1.88,2.08,2.767,2.767,0,0,1-.92-.16c-1.519-.56-1.68-.64-2.159-.64a4.793,4.793,0,0,0-2.92,1.2,4.51,4.51,0,0,0-.96,3.32c0,1,.4,7.2,1.6,8.039.359.28,2.238.92,2.6,1.12.84.439,3.159,1.72,3.159,3.2,0,.68-.279,1.4-1.079,1.4-.4,0-.639-.121-1.24-.64-1.079-.96-2.919-2.2-3.479-1.96C-789.487,2840.669-789.487,2840.829-789.567,2841.23Zm-5.757-2.281c-.92,0-4.52,0-4.52,2.12,0,.96,1.2,2.16,3.6,2.16,3.879,0,4.438-3.039,4.2-3.679C-792.246,2838.949-794.4,2838.949-795.324,2838.949Zm-1.08-22.876c0-.28-1.4-1-1.641-1-.68,0-.959,1.64-.959,1.76a.421.421,0,0,0,.08.24C-798.8,2817.193-796.4,2816.673-796.4,2816.073Z" fill="#4d4d4d"/>
      <path id="パス_1648" data-name="パス 1648" d="M-765.047,2838.39a53.868,53.868,0,0,0,5.279-14.718c0-.4-.16-.4-1.439-.4a7.693,7.693,0,0,1-3.561-.72,3.854,3.854,0,0,1-2.079-2.16.168.168,0,0,1,.16-.16,8.816,8.816,0,0,1,.92.36,14.7,14.7,0,0,0,3.56.439,8.793,8.793,0,0,0,2.84-.359c.319-.28.439-3,.439-3.279a5.513,5.513,0,0,0-.48-2.48c-.161-.2-1.12-1.2-1.12-1.48,0-.4.76-.92,1.8-.92a3.606,3.606,0,0,1,3.2,2.12c0,.2-.44,1-.44,1.2,0,.761,3.2,1.441,3.6,1.441.16,0,1.04-.081,1.24-.081a1.144,1.144,0,0,1,1.319,1.24c0,2.24-3.4,3.4-6.039,4.12-1.359.359-1.519.4-1.68,1.119-2.04,8.719-2.079,8.759-2.918,11.358-2.76,8.319-4.2,8.319-4.959,8.319-.961,0-1.081-1.32-1.081-1.76C-766.487,2841.109-766.287,2840.709-765.047,2838.39Zm8.438-18.278c.2,0,3.24-1.079,3.24-1.6,0-.4-2.16-1.28-2.6-1.28-.24,0-.359.081-.439.48-.161.8-.161.92-.36,1.88C-756.809,2819.873-756.848,2820.112-756.609,2820.112Zm3.04,16.958c.84,3.479,5.159,4.24,8.2,4.24.679,0,3.719-.281,4.359-.281,1.36,0,3.2.68,3.2,2,0,1.16-1.479,1.36-4.879,1.36-6.479,0-11.878-1.64-11.878-6.679,0-.92.241-1.76.56-1.76C-753.849,2835.95-753.61,2836.95-753.569,2837.07Zm8.838-13.918c3.8,0,6.68,1.121,6.68,2.879,0,.96-.84.96-1.16.96-.36,0-1.92-.12-2.24-.12a6.7,6.7,0,0,0-2.959.641,7.03,7.03,0,0,1-1.68.519c-.08,0-.2,0-.2-.12,0-.279,2.079-1.8,2.079-2.239,0-.6-2.839-.64-3.44-.64a23.8,23.8,0,0,0-2.878.159c-.241.041-1.161.161-1.321.161-.039,0-.319,0-.359-.08C-752.488,2824.752-749.01,2823.152-744.731,2823.152Z" fill="#4d4d4d"/>
      <path id="パス_1649" data-name="パス 1649" d="M-719.447,2835.231c.679,0,1.039-.641,1.919-3.121.241-.679.36-1,.56-1s.2.4.2.48c0,.439-.92,5.119-.92,6.079a7.113,7.113,0,0,0,.64,2.079,4.315,4.315,0,0,1,.479,1.76,1.339,1.339,0,0,1-1.319,1.36c-2.479,0-4.319-6.8-4.319-10.638,0-2.56.32-3.719,1.679-8.719a13.58,13.58,0,0,0,.68-4.159,9.786,9.786,0,0,0-.4-2.839,5.2,5.2,0,0,1-.24-.721c0-.119.161-.2.32-.2,1.84,0,3.519,3.639,3.519,5.079,0,.439,0,.479-.759,1.84-.44.84-3.08,6.719-3.08,10.317C-720.488,2834.03-720.088,2835.231-719.447,2835.231Zm23.236,4c0,1.559-1.2,2.04-6.8,2.04-3.92,0-5.4-1-6.239-1.8-.2-.2-1.239-1.24-1.239-2,0-.08,0-.4.2-.4a5.981,5.981,0,0,1,.96.56,9.84,9.84,0,0,0,4.279.68,33.287,33.287,0,0,0,3.479-.12c.56-.041,3.36-.32,3.52-.32C-696.531,2837.87-696.211,2838.75-696.211,2839.23Zm-1.88-19.477c0,1.96-4.439,1.96-4.919,1.96-4.519,0-7-2.44-7-2.96,0-.08.041-.2.281-.2.119,0,.6.16,1.119.28a13.671,13.671,0,0,0,2.72.24,16.154,16.154,0,0,0,4.4-.6c1.2-.44,1.319-.48,1.718-.44A2,2,0,0,1-698.091,2819.753Z" fill="#4d4d4d"/>
      <path id="パス_1650" data-name="パス 1650" d="M-670.488,2842.229a4.46,4.46,0,0,1-4.479,4.439,4.423,4.423,0,0,1-4.4-4.478,4.413,4.413,0,0,1,4.439-4.4A4.452,4.452,0,0,1-670.488,2842.229Zm-7.758-.039a3.354,3.354,0,0,0,3.359,3.359,3.3,3.3,0,0,0,3.319-3.28,3.355,3.355,0,0,0-3.4-3.36A3.236,3.236,0,0,0-678.246,2842.19Z" fill="#4d4d4d"/>
    </g>
  </g>
</svg>
