<svg id="story_taste" xmlns="http://www.w3.org/2000/svg" width="119.581" height="38.353" viewBox="0 0 119.581 38.353">
  <g id="グループ_48" data-name="グループ 48" transform="translate(-450.776 -1873.914)">
    <path id="パス_222" data-name="パス 222" d="M455.356,1900.211c-.841,0-1.3.294-1.3,1.134,0,1.722,0,3.276-1.764,3.276-1.513,0-1.513-.84-1.513-1.344,0-.168.042-1.512.211-4.033.168-2.646.378-10.081.378-11.089,0-.211-.168-6.386-.168-6.764-.042-.294-.294-1.848-.294-2.184,0-.252.21-.42.5-.42a15.418,15.418,0,0,1,2.016.8,4.128,4.128,0,0,0,2.1.546h2.52a1.418,1.418,0,0,0,1.428-.63c.462-.546.756-.924.924-.924a15.569,15.569,0,0,1,1.807,1.428c.671.588.84.714.84,1.092a.783.783,0,0,1-.294.5c-.63.421-.714.463-.8.63-.294.547-.379,7.646-.379,8.7,0,.714.169,7.1.169,7.687,0,1.891-.042,3.319-2.059,3.319-1.008,0-1.05-.462-1.05-1.05,0-.462-.336-.672-.924-.672Zm.042-18.988c-.378,0-1.177,0-1.261.925-.168,2.058-.168,12.854-.168,15.794,0,.756.294,1.176,1.261,1.176H457.5c.378,0,1.176,0,1.26-.924.21-2.478.294-12.9.294-15.795,0-.546-.126-1.176-1.26-1.176Zm19.7,10.754c-.42,0-.8.21-.8.672,0,.967,4.536,8.57,12.182,12.141.252.126,1.764.5,1.764.8,0,.126-.336.168-.5.21a5.219,5.219,0,0,0-1.89.5c-.336.168-1.975,1.176-2.1,1.176-.252,0-5.671-3.192-9.284-11.594-.294-.714-.336-.8-.5-.8-.295,0-.295.21-.295.84,0,.378.337,12.14.337,13.694,0,.505,0,2.647-1.933,2.647-1.134,0-1.218-.714-1.218-1.344,0-1.219.462-7.142.462-8.486V1896.3a.415.415,0,0,0-.42-.378c-.21,0-.294.126-.42.252a29.733,29.733,0,0,1-4.83,5.251,37.538,37.538,0,0,1-10.083,6.553c-.041,0-.125,0-.125-.084,0-.126,4.2-3.655,5-4.327,5.88-5.167,9.2-10.5,9.2-11.048,0-.5-.252-.546-1.512-.546-.21,0-2.773.042-3.865.126-.126,0-.756.126-.882.126-.168,0-.252-.126-.378-.294l-.84-.966c-.168-.21-.168-.21-.168-.294s.084-.084.168-.084c.252,0,1.554.126,1.89.168,1.639.042,3.529.126,5.167.126h.8a1.079,1.079,0,0,0,1.176-.672c.042-.252.042-4.537.042-4.957,0-.462,0-1.3-1.092-1.3-1.386,0-3.361.042-4.621.126-.126,0-.756.084-.882.084-.168,0-.252-.084-.378-.252l-.84-.966c-.168-.21-.168-.21-.168-.294s.084-.084.168-.084c.21,0,1.26.126,1.512.126.63.042,4.159.168,4.873.168s1.386,0,1.386-1.261c0-1.176-.126-4.074-.168-5.419,0-.252-.294-1.512-.294-1.806,0-.252.126-.378.42-.378.126,0,3.949.588,3.949,1.26,0,.21-.84.8-.966.966-.252.337-.252.547-.252,1.555,0,.546-.084,3.276-.084,3.906,0,.546.084,1.177,1.26,1.177h2.268c1.722,0,2.227,0,2.647-.714.8-1.261.882-1.429,1.26-1.429.294,0,3.15,2.227,3.15,2.689,0,.546-.839.546-2.226.546h-7.1c-.336,0-1.05,0-1.218.714-.084.336-.084,4.327-.084,5.041,0,1.176.84,1.176,1.26,1.176h4.873c2.016,0,2.31,0,2.9-1.05.672-1.176.8-1.47,1.218-1.47.336,0,3.4,2.646,3.4,3.066,0,.546-.84.546-2.226.546Z" fill="#333"/>
    <path id="パス_223" data-name="パス 223" d="M507.731,1893.153a2.773,2.773,0,1,1,2.773,2.773A2.77,2.77,0,0,1,507.731,1893.153Z" fill="#333"/>
    <path id="パス_224" data-name="パス 224" d="M544.732,1883.66c-.419,0-.966,0-1.218.5-.21.378-.21,7.9-.21,8.275a.763.763,0,0,0,.756.8c.379,0,5-1.68,5.251-1.68.084,0,.294,0,.294.168,0,.5-2.478,1.681-5.334,3.025a1.484,1.484,0,0,0-.967,1.176v9.494c0,3.192,0,3.57-.462,4.41a4.6,4.6,0,0,1-3.361,2.143c-.714,0-.882-.21-1.554-1.261-.252-.42-2.016-2.1-2.016-2.31s.378-.21.462-.21c.336,0,1.932.084,2.31.084,1.386,0,1.765-.252,1.807-1.512.042-.8.042-8.108.042-9.158a.742.742,0,0,0-.757-.672,13.693,13.693,0,0,0-2.94,1.47c-.252.168-1.176,1.093-1.47,1.093-.378,0-.589-.463-.841-1.135-.125-.294-.923-2.73-.923-2.9,0-.294.252-.294,1.133-.294a23.3,23.3,0,0,0,4.915-.756,1.446,1.446,0,0,0,.883-1.6c0-1.135.126-6.722.126-7.982,0-1.134-.715-1.176-1.344-1.176-.336,0-2.437.042-3.151.084-.126,0-.966.126-1.092.126s-.211-.084-.379-.294l-.8-.966c-.168-.211-.168-.211-.168-.252a.135.135,0,0,1,.126-.127c.8,0,4.746.294,5.628.294,1.219,0,1.219-.5,1.219-2.52a38.937,38.937,0,0,0-.252-4.915,5.947,5.947,0,0,1-.168-.84.34.34,0,0,1,.378-.336s4.242.924,4.242,1.932c0,.253-1.092,1.093-1.218,1.344a20.049,20.049,0,0,0-.336,3.949c0,.42,0,1.386,1.135,1.386a1.274,1.274,0,0,0,1.344-.756c.462-.8.672-.924.966-.924.588,0,2.857,1.639,2.857,2.227s-.883.588-2.269.588Zm19.828-.924a2.485,2.485,0,0,0,1.3-.337c.168-.084.84-.882,1.05-.882.631,0,3.445,1.891,3.445,2.563,0,.336-.5.63-.63.714-.63.42-.8.5-.84,2.52a151.554,151.554,0,0,1-.8,16.929c-1.008,7.478-5.755,7.688-6.216,7.688a1.338,1.338,0,0,1-1.3-.672,12.458,12.458,0,0,0-1.008-1.555c-.21-.294-1.554-1.68-1.554-1.806s.126-.126.21-.126c.252,0,3.444.756,4.116.756,3.025,0,3.7-5.713,3.7-22.978,0-1.218-.084-1.722-1.428-1.722h-10.88a2.341,2.341,0,0,0-2.1,1.008c-1.345,2.184-4.579,5.587-4.915,5.587a.134.134,0,0,1-.126-.126,12.93,12.93,0,0,1,1.008-1.848c3.192-5.461,4.789-11.385,4.873-12.855.042-1.344.084-1.47.336-1.47a9.818,9.818,0,0,1,2.31.84c1.345.588,1.681.714,1.681,1.218,0,.294-.21.421-.841.841-.336.21-.5.546-.84,1.3-.252.588-1.806,3.36-1.806,3.739a.622.622,0,0,0,.63.672Zm-9.326,19.827c-.924,0-1.176.546-1.218.8-.168,1.26-.672,2.1-1.89,2.1-1.008,0-1.219-.42-1.219-1.176,0-.463.169-2.647.211-3.151.084-2.184.168-4.747.168-6.973,0-1.051,0-2.6-.084-3.193-.042-.21-.126-1.3-.126-1.554,0-.168,0-1.092.546-1.092a14.959,14.959,0,0,1,1.974.8,4.5,4.5,0,0,0,1.638.294h2.143a1.419,1.419,0,0,0,1.218-.42c.462-.462.588-.546.8-.546.5,0,2.856,1.512,2.856,2.058,0,.252-.083.336-.924,1.092a1.212,1.212,0,0,0-.336.924c0,1.471.294,8.738.294,10.376a2.263,2.263,0,0,1-2.184,2.017c-.882,0-.882-.63-.882-1.261,0-1.092-.84-1.092-1.26-1.092Zm.084-12.056c-.42,0-1.176,0-1.3.882-.042.42-.042,4.873-.042,5.083,0,4.957,0,4.957,1.344,4.957H557c.378,0,1.05,0,1.218-.672.126-.378.126-4.117.126-4.789s0-4.369-.084-4.747a1.139,1.139,0,0,0-1.26-.714Z" fill="#333"/>
  </g>
</svg>
