<svg id="story_connect" xmlns="http://www.w3.org/2000/svg" width="122.732" height="38.395" viewBox="0 0 122.732 38.395">
  <g id="グループ_54" data-name="グループ 54" transform="translate(-1009.344 -2487.269)">
    <path id="パス_231" data-name="パス 231" d="M1013.545,2501.593c-1.008,1.219-3.444,3.739-3.991,3.739a.235.235,0,0,1-.21-.252,5.135,5.135,0,0,1,.715-1.05c1.176-1.6,6.553-9.578,7.687-14.787.421-1.932.421-1.974.672-1.974.085,0,2.395,1.218,2.521,1.26,1.176.63,1.722.882,1.722,1.26,0,.294-.126.336-1.26,1.05a32.309,32.309,0,0,0-4.243,6.47,1.056,1.056,0,0,0,.546.756c1.218.924,1.344,1.008,1.344,1.26a9.984,9.984,0,0,1-.714,1.3,9.041,9.041,0,0,0-.294,3.318c0,2.731.127,16.131.127,19.156a1.992,1.992,0,0,1-.379,1.47,2.856,2.856,0,0,1-1.764,1.009c-1.051,0-1.051-1.345-1.051-1.6,0-.5.168-2.856.168-3.4.21-7.1.168-8.276.168-18.9,0-.924-.378-1.176-.588-1.176C1014.469,2500.5,1014.175,2500.837,1013.545,2501.593Zm10.67,13.863c-.168-.21-.168-.21-.168-.294,0-.042.042-.084.126-.084.21,0,2.143.168,2.479.168,1.764.084,2.352.126,3.486.126.756,0,1.3-.126,1.3-1.345,0-1.89.042-10.166.042-11.888-.042-.462-.042-.756-.21-.756-.126,0-.21.084-.714,1.176-4.158,8.528-9.83,12.939-10.67,12.939a.19.19,0,0,1-.168-.21c0-.126.42-.547.63-.757,5.209-5.335,9.242-15.206,9.242-16.424,0-.5-.462-.5-.714-.5h-2.1c-.967,0-3.529.042-4.663.126-.084,0-.5.084-.588.084-.168,0-.21-.084-.378-.294l-.8-.925c-.168-.21-.168-.252-.168-.294,0-.084.042-.084.126-.084.294,0,1.6.126,1.891.126,1.512.084,3.4.168,4.915.168h3.15c.714,0,1.218-.252,1.218-1.344,0-1.3-.084-3.655-.168-4.915-.042-.378-.42-1.89-.42-2.226,0-.378.252-.5.631-.5.168,0,1.89.336,2.183.42,1.093.21,1.681.336,1.681.924,0,.336-.084.462-.63.966-.546.546-.546,4.2-.546,5.419,0,.84.294,1.26,1.218,1.26h4.327c1.932,0,2.142,0,2.689-.714,1.134-1.47,1.26-1.638,1.6-1.638.629,0,3.4,2.394,3.4,2.856,0,.589-.882.589-2.268.589h-9.242c-.42,0-.924,0-.924.588,0,.756,4.368,10.5,12.729,14.45.168.084.924.336,1.05.42a.364.364,0,0,1,.168.294c0,.253-1.3.42-1.555.5a5.791,5.791,0,0,0-1.722,1.009,1.3,1.3,0,0,1-.757.378c-.462,0-5-3.907-8.149-10.166a48.236,48.236,0,0,1-2.184-5.083c-.042-.126-.126-.462-.252-.462-.211,0-.211,1.008-.211,1.3,0,1.806.085,9.788.085,11.426,0,2.815,0,3.109,1.764,3.109a1.662,1.662,0,0,0,1.429-.715c1.008-1.47,1.134-1.638,1.47-1.638.545,0,3.15,2.4,3.15,2.857,0,.588-.8.588-2.1.588h-4.453c-1.092,0-1.218.672-1.218,1.218v1.177c0,.755.168,4.116.168,4.788a2,2,0,0,1-1.974,1.806c-1.009,0-1.261-.546-1.261-1.218,0-1.008.294-5.587.294-6.553,0-1.218-.8-1.218-1.68-1.218-.84,0-2.31,0-3.7.126-.126,0-.672.084-.8.084-.168,0-.21-.084-.336-.252Z" fill="#333"/>
    <path id="パス_232" data-name="パス 232" d="M1068.232,2506.508a2.772,2.772,0,1,1,2.772,2.772A2.77,2.77,0,0,1,1068.232,2506.508Z" fill="#333"/>
    <path id="パス_233" data-name="パス 233" d="M1093.848,2524.655c0-.042,1.3-.546,1.429-.588,5.671-2.058,8.7-4.663,9.031-5.335.336-.63.336-.714.589-.714a9.445,9.445,0,0,1,1.6.925c1.218.755,1.722,1.091,1.722,1.6,0,.462-.084.462-1.722.672-2.311.924-5.377,2.058-6.931,2.6a19.782,19.782,0,0,1-4.789,1.008C1094.6,2524.823,1093.848,2524.823,1093.848,2524.655Zm7.688-19.827c-1.134,0-3.949,0-5.419.084a6.372,6.372,0,0,1-.882.126c-.168,0-.21-.126-.378-.294l-.8-.967c-.169-.168-.169-.209-.169-.252a.111.111,0,0,1,.127-.125c.294,0,1.6.168,1.848.168,2.016.083,3.781.125,5.881.125h.672c.84,0,.84-.168.84-1.6,0-.756-.462-.756-.8-.756h-1.89c-.714,0-.756.084-1.092.546a1.93,1.93,0,0,1-1.345.672c-.756,0-1.092-.5-1.092-1.344,0-.5.168-2.52.168-2.94a17.133,17.133,0,0,0-.252-3.319,8.6,8.6,0,0,1-.209-1.008c0-.294.167-.42.671-.42a18.327,18.327,0,0,1,2.1.84,5.334,5.334,0,0,0,1.344.126h1.386c.462,0,1.008,0,1.008-.8,0-1.3-.126-1.47-.966-1.47h-1.26c-1.26,0-2.815,0-4.033.084a6.371,6.371,0,0,1-.882.126c-.168,0-.252-.126-.378-.294l-.8-.967a.445.445,0,0,1-.168-.252.111.111,0,0,1,.126-.126c.21,0,2.016.168,2.394.21.84.042,3.529.084,4.033.084h.84c.378,0,.84,0,.84-.63a17.544,17.544,0,0,0-.336-1.722,4.657,4.657,0,0,1-.294-.672c0-.294.294-.294.462-.294.126,0,3.529.462,3.529,1.134,0,.126-.5.546-.63.63a.767.767,0,0,0-.252.63c0,.924.42.924,1.008.924h1.554c.756,0,1.3,0,1.764-.672.841-1.134.925-1.26,1.261-1.26.5,0,2.94,1.6,2.94,2.394,0,.673-.8.673-1.722.673h-5.839c-.966,0-.966.21-.966,1.554,0,.714.63.714.966.714h.756a1.88,1.88,0,0,0,1.554-.588c.546-.546.63-.63.966-.63.042,0,2.6.966,2.6,1.638,0,.378-.252.546-.714.84-.168.126-.252.252-.252.63.042,1.093.168,3.7.168,4.2a1.435,1.435,0,0,1-1.6,1.512,1.016,1.016,0,0,1-1.008-.5,1.063,1.063,0,0,0-.882-.252h-1.6c-.378,0-.882,0-.882.84,0,1.261,0,1.512,1.008,1.512h3.234c1.219,0,1.471,0,1.849-.251.252-.21,1.3-1.3,1.554-1.3.588,0,1.89,1.638,1.89,2.059,0,.63-.8.63-2.226.63h-6.259c-.462,0-1.008,0-1.008.8,0,.252.126,1.428.126,1.68a1.873,1.873,0,0,1-1.807,2.016c-.63,0-.84-.546-.84-1.344,0-.336.126-1.764.126-2.058,0-1.008-.126-1.092-.882-1.092Zm23.23,10.25c.756-.042,1.05-.084,1.05-.463a12.687,12.687,0,0,0-1.806-2.9c-.084-.084-.547-.5-.547-.672,0-.042.084-.084.169-.084,1.47,0,6.469,3.57,6.469,6.259a1.556,1.556,0,0,1-1.6,1.639c-1.007,0-1.133-.5-1.511-1.765-.21-.756-.672-1.008-1.513-1.008-1.05,0-8.569.546-10,.63-.966.084-1.638.126-1.638,1.218,0,.588.168,3.865.21,4.411,0,.252.168,1.386.168,1.638,0,1.134-1.092,1.681-2.1,1.681-.756,0-1.218-.379-1.218-1.555,0-.714.084-4.285.084-5.083,0-1.218,0-1.89-1.051-1.89-.168,0-.672.042-.84.042-1.723.084-6.175.336-9.577.63a3.47,3.47,0,0,0-1.639.462c-.42.378-.672.63-1.091.63s-.547-.378-.715-.966a23.641,23.641,0,0,1-.882-3.319.223.223,0,0,1,.252-.252c.21,0,1.134.463,1.387.5a47.229,47.229,0,0,0,7.434.42c1.933,0,2.143,0,2.143-.378,0-.925-5.125-3.949-5.125-4.075,0-.084,0-.21.21-.21.168,0,1.68.21,2.142.294a17.984,17.984,0,0,0,2.269.5c1.05,0,2.1-2.73,2.268-3.781.21-1.134.252-1.26.5-1.26.21,0,3.277,1.554,3.277,2.311,0,.461-.21.545-.84.756-.714.21-3.067,2.268-3.067,2.73a5.785,5.785,0,0,0,.588,1.008,2.035,2.035,0,0,1,.336,1.47c0,.631.5.631,1.6.631a3.085,3.085,0,0,0,2.478-.925c1.764-1.638,4.327-4.536,4.7-5.754.21-.673.21-.8.547-.8.168,0,2.31,1.134,2.647,1.3,1.092.631,1.218.673,1.218,1.051s-.294.5-.5.588c-.168.042-1.009.21-1.219.252-1.386.378-5.965,3.528-5.965,3.907,0,.126.126.21.21.252C1114.81,2515.246,1122.707,2515.162,1124.766,2515.078Zm-22.348-17.769c.756,0,.882-.127.882-.841s-.126-.84-.882-.84h-2.1c-.714,0-.84.084-.84.84,0,.714.126.841.84.841Zm0,2.94c.84,0,.84-.21.84-1.176,0-.673-.42-.673-.84-.673h-2.1c-.84,0-.84.21-.84,1.219,0,.63.462.63.84.63Zm3.781-4.621c-.672,0-.714.21-.714.84,0,.588,0,.841.714.841h2.184c.714,0,.756-.253.756-.841s-.042-.84-.756-.84Zm2.142,4.621c.462,0,.756,0,.756-1.218,0-.588-.294-.631-.714-.631h-2.142c-.756,0-.756.253-.756,1.135,0,.714.378.714.756.714Zm15.249-1.6a2.342,2.342,0,0,0,2.1-.966c.336-.336.589-.505.841-.505.378,0,3.024,1.344,3.024,1.891,0,.294-.126.378-1.177.756a34.23,34.23,0,0,0-3.234,2.983c-1.092.923-1.092.923-1.092,1.175,0,.757,4.915,2.4,6.259,2.731.252.084,1.765.378,1.765.546s-.042.168-.673.252a5.336,5.336,0,0,0-2.563,1.512c-.378.421-.42.5-.63.5-.336,0-1.091-.463-4.158-2.311a11.066,11.066,0,0,0-2.436-1.47c-.21,0-3.782,1.638-4.537,1.932a18.083,18.083,0,0,1-3.823,1.134c-.042,0-.21,0-.21-.168a7.01,7.01,0,0,1,1.554-.882c.967-.462,5.419-2.856,5.419-3.654a14.038,14.038,0,0,0-1.47-1.975c-.421-.5-1.092-1.512-1.3-1.764-.252-.42-.378-.42-1.386-.42a.551.551,0,0,1-.505-.252l-.8-.966c-.126-.127-.21-.211-.21-.294s.084-.084.168-.084c.168,0,1.807.167,2.143.167.672.042,2.982.127,3.654.127Zm-2.773-9.2a1.928,1.928,0,0,0,1.555-.588c.21-.252.545-.714.755-.714s2.773,1.134,2.773,1.848c0,.336-.042.378-.588.84-.336.294-.336.5-.336,2.1,0,.756,0,1.05,1.218,1.05s1.3-.5,1.554-1.89c.168-1.135.21-1.261.336-1.261a3.444,3.444,0,0,1,.252,1.177,2.718,2.718,0,0,0,.631,1.512c.8.672,1.05.882,1.05,1.386,0,1.092-.714,1.47-3.57,1.47-4.159,0-4.159-.588-4.159-4.326,0-1.051-.084-1.47-1.3-1.47h-1.261c-.672,0-1.134.042-1.218.965a8.649,8.649,0,0,1-1.47,4.747,5.409,5.409,0,0,1-3.571,2.017c-.042,0-.126,0-.126-.126a5.122,5.122,0,0,1,.672-.756,6.769,6.769,0,0,0,2.017-5.167c0-.589-.5-3.4-.5-3.613,0-.294.294-.378.5-.378a7.945,7.945,0,0,1,1.763.8,3.783,3.783,0,0,0,1.891.378Zm7.645,35.664c-.546,0-.714-.126-2.015-1.092-1.471-1.092-3.152-2.352-9.116-5.166-.63-.295-.714-.337-.714-.463s.084-.168.21-.168c.462,0,3.57.715,4.243.882,6.259,1.429,8.653,2.479,8.653,4.327C1129.723,2523.731,1129.723,2525.117,1128.462,2525.117Zm-9.241-25.33c-.714,0-.8.042-.8.336,0,.5,2.521,2.773,3.277,2.773.84,0,2.478-2.521,2.478-2.773,0-.336-.294-.336-.631-.336Z" fill="#333"/>
  </g>
</svg>
