<svg id="story_h_sp" xmlns="http://www.w3.org/2000/svg" width="745" height="100" viewBox="0 0 745 100">
  <rect id="長方形_20" data-name="長方形 20" width="745" height="100" fill="#ffc946" opacity="0"/>
  <g id="グループ_307" data-name="グループ 307" transform="translate(-1362.506 -2132.783)">
    <g id="グループ_304" data-name="グループ 304">
      <path id="パス_1395" data-name="パス 1395" d="M1693.821,2224.39c-.161-.414-1.15-3.013-1.15-3.151a.486.486,0,0,1,.506-.483c.253,0,.3.115.851.966a6.79,6.79,0,0,0,5.4,3.15,3.314,3.314,0,0,0,3.4-3.472c0-2.092-1.38-2.828-4.3-3.84-3.2-1.1-5.312-2.323-5.312-5.059a4.332,4.332,0,0,1,4.6-4.461,9.054,9.054,0,0,1,1.632.184c.253.046,1.219.253,1.38.253a.876.876,0,0,0,.506-.138c.322-.253.368-.3.529-.3.276,0,.345.207.575.8.161.368,1.241,3.081,1.241,3.219a.361.361,0,0,1-.39.368c-.184,0-.23-.069-.6-.667a5.33,5.33,0,0,0-4.691-2.966,2.941,2.941,0,0,0-3.128,3.035c0,1.909,1.38,2.6,4.392,3.656,4.645,1.61,5.266,3.449,5.266,5.22a4.875,4.875,0,0,1-4.99,4.967,7.388,7.388,0,0,1-2.483-.46,3,3,0,0,0-.92-.23,1.189,1.189,0,0,0-.874.3c-.391.345-.437.391-.667.391C1694.3,2225.677,1694.258,2225.539,1693.821,2224.39Z" fill="#333"/>
      <path id="パス_1396" data-name="パス 1396" d="M1723.044,2208.477c1.242,0,1.518,0,1.908,1.035.185.506,1.173,3.1,1.173,3.334a.353.353,0,0,1-.367.345c-.184,0-.253-.092-.782-.966-1.219-2-2.576-2.989-4.139-2.989-.9,0-1.449.368-1.587,1.149-.069.414-.069,5.611-.069,6.577,0,.644,0,5.956.069,6.347.207,1.172,1.287,1.195,1.909,1.195.85,0,1.034,0,1.034.368s-.322.368-.69.368h-6.438c-.322,0-.667,0-.667-.368s.368-.368.506-.368c1.357,0,2.207,0,2.437-1.195.07-.368.07-.391.07-6.508,0-5.68,0-6.3-.162-6.738a1.434,1.434,0,0,0-1.471-.827c-1.84,0-3.2,1.449-4.139,2.966-.552.9-.6.989-.805.989a.373.373,0,0,1-.368-.345c0-.184,1.035-2.944,1.218-3.4.369-.966.736-.966,1.886-.966Z" fill="#333"/>
      <path id="パス_1397" data-name="パス 1397" d="M1740.171,2225.677c-4.438,0-7.519-3.633-7.519-8.807s3.058-8.83,7.519-8.83c4.415,0,7.5,3.633,7.5,8.83C1747.667,2222.021,1744.609,2225.677,1740.171,2225.677Zm5.312-9.014c0-2.116-.6-7.864-5.312-7.864-5.151,0-5.335,6.761-5.335,8.278,0,2.208.667,7.841,5.335,7.841C1745.3,2224.918,1745.483,2218.227,1745.483,2216.663Z" fill="#333"/>
      <path id="パス_1398" data-name="パス 1398" d="M1760.183,2208.477c1.1,0,6.347.115,6.347,3.978,0,2.345-1.771,3.4-3.058,4.024-.805.391-.9.437-.9.69a40.734,40.734,0,0,0,2.391,5.5,2.865,2.865,0,0,0,2.714,1.839c.23,0,.689,0,.689.368,0,.322-.459.368-.575.368h-2.874a1.127,1.127,0,0,1-1.081-.667c-.137-.23-1.77-3.794-2.023-4.369-1.265-2.782-1.426-3.15-2.231-3.15h-1.264c-.161,0-.46.092-.529.276-.092.23-.092,3.265-.092,3.794,0,2.783,0,3.38,2.115,3.38.161,0,.483,0,.483.368s-.414.368-.667.368h-5.679c-.23,0-.575-.046-.575-.368,0-.368.322-.368.643-.368,1.587,0,1.817-.735,1.886-1.586.046-.782.046-7.1.046-8.187a36.951,36.951,0,0,0-.184-4.645c-.3-.85-1.288-.85-1.816-.85-.139,0-.622,0-.622-.414,0-.345.414-.345.69-.345Zm-.828.759c-1.655,0-1.655,1.035-1.655,3.4,0,3.61,0,3.679.621,3.679h1.862c2.254,0,4.162-1.241,4.162-3.633,0-1.61-.873-3.449-3.863-3.449Z" fill="#333"/>
      <path id="パス_1399" data-name="パス 1399" d="M1788.552,2208.477a.387.387,0,0,1,.391.391c0,.368-.345.368-.553.368a3.139,3.139,0,0,0-2.6,1.632c-1.034,1.794-3.495,6.025-3.863,6.968-.23.552-.23.736-.23,2.529,0,2.782.023,3.1.253,3.472.391.6.989.667,1.748.667.781,0,.988,0,.988.368s-.344.368-.62.368h-6.554c-.276,0-.621,0-.621-.368s.368-.368.483-.368c2.231,0,2.507-.23,2.507-2.529,0-3.219.023-3.564-.6-4.691-.322-.6-2.047-3.633-2.392-4.231-1.448-2.6-2.092-3.748-3.472-3.817-.276,0-.6-.023-.6-.368,0-.391.345-.391.6-.391h5.427c.276,0,.621,0,.621.391,0,.368-.368.368-.483.368-.713,0-1.472,0-1.472.827,0,.392.069.529.759,1.748.414.759,2.276,4.047,2.644,4.714.092.184.253.483.414.483s.322-.345.414-.506c.506-.9,3.059-5.289,3.243-5.794a2.318,2.318,0,0,0,.114-.622c0-.85-1.127-.85-1.517-.85-.6,0-.851,0-.851-.368,0-.391.345-.391.6-.391Z" fill="#333"/>
    </g>
    <g id="グループ_306" data-name="グループ 306">
      <g id="グループ_305" data-name="グループ 305">
        <path id="パス_1400" data-name="パス 1400" d="M1469.532,2145.773c2.969,0,3.629,0,4.564,2.475.44,1.21,2.805,7.424,2.805,7.974a.845.845,0,0,1-.88.824c-.44,0-.6-.219-1.87-2.309-2.914-4.784-6.159-7.149-9.9-7.149-2.144,0-3.464.88-3.794,2.749-.165.991-.165,13.419-.165,15.728,0,1.54,0,14.244.165,15.179.495,2.8,3.079,2.859,4.564,2.859,2.035,0,2.475,0,2.475.88s-.77.88-1.65.88h-15.4c-.769,0-1.595,0-1.595-.88s.88-.88,1.21-.88c3.245,0,5.28,0,5.829-2.859.165-.88.165-.935.165-15.564,0-13.583,0-15.067-.384-16.112-.55-1.485-2.035-1.98-3.52-1.98-4.4,0-7.644,3.464-9.9,7.094-1.32,2.145-1.429,2.364-1.925,2.364a.892.892,0,0,1-.879-.824c0-.44,2.475-7.039,2.914-8.139.88-2.31,1.76-2.31,4.51-2.31Z" fill="#333"/>
        <path id="パス_1401" data-name="パス 1401" d="M1491.073,2183.828c-.385-.99-2.75-7.2-2.75-7.534a1.164,1.164,0,0,1,1.21-1.155c.6,0,.715.275,2.035,2.31,2.419,3.795,7.369,7.534,12.923,7.534a7.925,7.925,0,0,0,8.139-8.3c0-5-3.3-6.764-10.283-9.184-7.645-2.64-12.7-5.554-12.7-12.1,0-5.719,3.959-10.669,11-10.669a21.725,21.725,0,0,1,3.905.44c.6.11,2.915.6,3.3.6a2.094,2.094,0,0,0,1.21-.33c.769-.605.879-.715,1.264-.715.66,0,.825.495,1.375,1.925.385.88,2.97,7.369,2.97,7.7a.865.865,0,0,1-.935.88c-.44,0-.55-.165-1.43-1.595-1.485-2.365-4.454-7.094-11.219-7.094a7.034,7.034,0,0,0-7.479,7.259c0,4.565,3.3,6.214,10.5,8.744,11.109,3.85,12.594,8.249,12.594,12.483a11.661,11.661,0,0,1-11.934,11.879,17.672,17.672,0,0,1-5.939-1.1,7.174,7.174,0,0,0-2.2-.55,2.842,2.842,0,0,0-2.09.715c-.935.824-1.044.935-1.594.935C1492.227,2186.908,1492.118,2186.578,1491.073,2183.828Z" fill="#333"/>
        <path id="パス_1402" data-name="パス 1402" d="M1563.426,2145.773c.715,0,1.54,0,1.54.935,0,.88-.77.88-1.7.88-3.9,0-4.179,3.134-4.234,4.839-.055,2.75,0,16.388,0,19.468,0,3.9-.165,8.139-3.52,11.548a12.816,12.816,0,0,1-9.293,3.465c-2.365,0-13.638-.77-13.969-12.154-.055-3.079.056-18.037.056-21.392,0-4.235-.276-5.774-5.115-5.774-.33,0-1.21,0-1.21-.88,0-.935.825-.935,1.65-.935H1541.1c.66,0,1.485,0,1.485.935,0,.88-.715.88-1.76.88-1.209,0-3.354.165-4.014,2.475-.275.824-.275,11.273-.275,13.2,0,12.1,0,13.033.935,15.617.879,2.366,3.739,5.94,9.4,5.94a9.77,9.77,0,0,0,8.579-4.289c1.87-2.75,1.87-5.06,1.87-17.818,0-12.153-.11-12.428-.77-13.473a4.215,4.215,0,0,0-3.9-1.65c-.6,0-1.1-.275-1.1-.88,0-.935.825-.935,1.32-.935Z" fill="#333"/>
        <path id="パス_1403" data-name="パス 1403" d="M1578.181,2185.863c-.825,0-1.65,0-1.65-.88s.66-.88,2.035-.88c.715,0,3.519,0,4.4-2.475.44-1.264.495-1.319.495-15.893,0-13.858,0-13.913-.165-14.848-.659-3.3-3.684-3.3-5.554-3.3-.33,0-1.21,0-1.21-.88,0-.935.825-.935,1.65-.935h5.334c3.959,0,4.07.165,6.875,4.455,3.354,5.059,8.743,13.143,12.1,18.2.714,1.1,5.774,8.8,6.1,8.8.22,0,.385-.385.385-1.1,0-1.54.055-10.558.055-12.483,0-1.98,0-11.714-.165-12.7-.66-3.354-3.465-3.354-5.279-3.354-.33,0-1.156,0-1.156-.88,0-.935.77-.935,1.541-.935h11.438c.6,0,1.43,0,1.43.935,0,.88-.77.88-1.65.88-4.564,0-4.564,2.475-4.564,9.074,0,4.124.054,24.471.054,29.036,0,.275,0,1.21-.714,1.21a.96.96,0,0,1-.715-.44c-.33-.385-21.887-32.776-22.162-33.161-.99-1.595-1.1-1.814-1.375-1.814s-.44.439-.44,1.044c0,1.98-.055,11.548-.055,13.749s0,13.143.165,14.188c.66,3.629,3.685,3.629,6.049,3.629.44,0,1.265,0,1.265.88s-.715.88-1.76.88Z" fill="#333"/>
        <path id="パス_1404" data-name="パス 1404" d="M1653.108,2185.863c-.6,0-1.319-.165-1.319-.88,0-.88.88-.88,2.2-.88a2.414,2.414,0,0,0,2.255-2.42c0-1.209-1.43-5-2.035-6.433-1.21-3.081-1.375-3.465-3.189-3.465h-11.934c-2.034,0-2.254.549-3.134,3.024-.495,1.485-1.98,5.884-1.98,7.149,0,2.145,1.76,2.145,3.08,2.145.66,0,1.264.11,1.264.88,0,.88-.824.88-1.264.88h-10.559c-.44,0-1.155-.055-1.155-.825,0-.935.6-.935,1.87-.935a4.623,4.623,0,0,0,4.18-2.2c1.264-1.7,5.334-14.628,6.544-18.532.714-2.2,4.234-12.978,4.949-15.453.55-1.925.88-3.19,4.784-3.19a1.255,1.255,0,0,1,1.21.88,36.276,36.276,0,0,1,1.815,4.95c3.849,11.933,4.179,13.253,7.644,23.426,3.135,9.349,3.519,10.119,6.654,10.119.715,0,1.265.33,1.265.935,0,.825-.88.825-1.265.825Zm-2.584-15.893c.6,0,1.375-.275,1.375-.88,0-1.155-5.225-16.443-6.215-19.412-.33-.935-.44-1.43-.824-1.43-.33,0-.386.165-.99,1.98-1.54,4.454-5.83,18.422-5.83,18.917,0,.825.826.825,1.54.825Z" fill="#333"/>
        <path id="パス_1405" data-name="パス 1405" d="M1708.5,2168.65c.439,0,1.265,0,1.265.88a.853.853,0,0,1-.936.88,3.072,3.072,0,0,0-2.749,1.54c-.66,1.045-.715,1.979-.715,10.448,0,1.815-.22,1.815-2.309,1.815a9.956,9.956,0,0,0-3.3.99,17.743,17.743,0,0,1-7.424,1.705c-10.944,0-17.048-8.964-17.048-20.787,0-12.429,6.819-21.393,16.333-21.393a17.152,17.152,0,0,1,5.279.99,9.832,9.832,0,0,0,2.585.55,1.852,1.852,0,0,0,1.265-.55c.879-.77,1.044-.99,1.54-.99.824,0,.935.385,2.034,3.685.33.935,2.255,6.6,2.255,6.874a.965.965,0,0,1-.99.935c-.44,0-.55-.165-1.43-1.7-2.639-4.62-7.7-7.974-12.318-7.974-7.424,0-11.6,9.789-11.6,19.357,0,10.119,4.62,19.248,12.594,19.248a8.721,8.721,0,0,0,6.269-2.53c1.485-1.485,2.089-2.969,2.089-6.6,0-5.169-1.594-5.554-5.719-5.554-.329,0-1.155,0-1.155-.935,0-.88.826-.88,1.485-.88Z" fill="#333"/>
        <path id="パス_1406" data-name="パス 1406" d="M1755.665,2145.773c.715,0,1.54,0,1.54.935,0,.88-.77.88-1.7.88-3.9,0-4.179,3.134-4.235,4.839-.054,2.75,0,16.388,0,19.468,0,3.9-.165,8.139-3.519,11.548a12.819,12.819,0,0,1-9.294,3.465c-2.364,0-13.638-.77-13.968-12.154-.055-3.079.055-18.037.055-21.392,0-4.235-.275-5.774-5.114-5.774-.33,0-1.21,0-1.21-.88,0-.935.825-.935,1.65-.935h13.473c.66,0,1.485,0,1.485.935,0,.88-.715.88-1.76.88-1.21,0-3.355.165-4.014,2.475-.275.824-.275,11.273-.275,13.2,0,12.1,0,13.033.934,15.617.88,2.366,3.74,5.94,9.4,5.94a9.77,9.77,0,0,0,8.579-4.289c1.87-2.75,1.87-5.06,1.87-17.818,0-12.153-.11-12.428-.77-13.473a4.216,4.216,0,0,0-3.9-1.65c-.6,0-1.1-.275-1.1-.88,0-.935.826-.935,1.32-.935Z" fill="#333"/>
        <path id="パス_1407" data-name="パス 1407" d="M1797.927,2145.773c2.969,0,3.629,0,4.564,2.475.44,1.21,2.805,7.424,2.805,7.974a.845.845,0,0,1-.88.824c-.44,0-.6-.219-1.87-2.309-2.914-4.784-6.159-7.149-9.9-7.149-2.144,0-3.464.88-3.794,2.749-.165.991-.165,13.419-.165,15.728,0,1.54,0,14.244.165,15.179.495,2.8,3.079,2.859,4.564,2.859,2.035,0,2.475,0,2.475.88s-.77.88-1.65.88h-15.4c-.769,0-1.595,0-1.595-.88s.88-.88,1.21-.88c3.245,0,5.28,0,5.829-2.859.165-.88.165-.935.165-15.564,0-13.583,0-15.067-.384-16.112-.551-1.485-2.035-1.98-3.52-1.98-4.4,0-7.644,3.464-9.9,7.094-1.32,2.145-1.429,2.364-1.925,2.364a.892.892,0,0,1-.879-.824c0-.44,2.474-7.039,2.915-8.139.879-2.31,1.759-2.31,4.509-2.31Z" fill="#333"/>
        <path id="パス_1408" data-name="パス 1408" d="M1835.515,2186.908c-10.614,0-17.983-8.689-17.983-21.063s7.314-21.117,17.983-21.117c10.558,0,17.927,8.689,17.927,21.117C1853.442,2178.164,1846.128,2186.908,1835.515,2186.908Zm12.7-21.557c0-5.059-1.43-18.808-12.7-18.808-12.319,0-12.758,16.168-12.758,19.8,0,5.28,1.594,18.753,12.758,18.753C1847.778,2185.093,1848.218,2169.09,1848.218,2165.351Z" fill="#333"/>
        <path id="パス_1409" data-name="パス 1409" d="M1896.563,2149.238c0,.165.11.385.11.6a42.163,42.163,0,0,1,.55,5.94c0,3.684-.825,8.8-5.665,16.113-4.4,6.709-7.2,8.028-9.4,8.028-3.63,0-6.874-5.664-6.874-12.373,0-2.914.6-8.468,6.1-14.023a22.753,22.753,0,0,1,17.543-7.149c5,0,7.314.99,8.854,1.76,5.939,2.914,9.568,8.8,9.568,16a20.509,20.509,0,0,1-13.858,19.357,33.8,33.8,0,0,1-9.129,2.035c-.22,0-.55-.055-.55-.385,0-.165.11-.22,1.485-.77,5.719-2.254,17.653-6.984,17.653-20.677,0-2.145-.22-15.233-15.233-15.233C1896.618,2148.468,1896.563,2148.908,1896.563,2149.238Zm-17.873,16.883c0,3.574,1.43,8.468,4.784,8.468,1.595,0,2.916-.66,6.71-6.379,2.914-4.454,5.389-10.558,5.389-16,0-3.3-.22-3.575-.935-3.575C1889.414,2148.633,1878.69,2155.727,1878.69,2166.121Z" fill="#333"/>
        <path id="パス_1410" data-name="パス 1410" d="M1931.161,2186.193c-.825,0-2.035-.165-2.035-1.375,0-.99.22-1.265,2.475-3.52a14.693,14.693,0,0,0,3.794-7.314c.165-.88.33-1.539.495-1.539.66,0,.77,2.969.77,3.684C1936.66,2177.5,1936.44,2186.193,1931.161,2186.193Zm14.188-36.46c-.99,0-1.1.715-1.1.934a1.589,1.589,0,0,0,.715,1.265c4.619,3.41,6.379,4.73,6.379,7.15a2.627,2.627,0,0,1-2.144,2.584c-.826,0-1.155-.935-1.485-2.53-.44-2.144-2.475-5.829-2.97-5.829-.165,0-.55.165-.55.77,0,.5.055,2.8.055,3.3,0,1.485.385,8.689.385,9.239,0,.5,0,3.245-2.42,3.245-1.485,0-1.485-1.485-1.485-1.925,0-1.045.33-6.049.33-7.2,0-.55.11-3.3.11-3.9a.542.542,0,0,0-.55-.495c-.274,0-.384.165-1.319,1.375-6.93,9.293-9.349,9.459-9.459,9.459-.055,0-.055-.056-.055-.111,0-.11,3.189-4.454,3.739-5.279,3.465-5.114,6.1-10.559,6.1-11.163a.856.856,0,0,0-.825-.88c-3.85,0-5.83.164-6.16.164-.164,0-.989.11-1.209.11-.165,0-.275-.11-.44-.329l-1.1-1.265c-.22-.275-.22-.275-.22-.385s.11-.11.22-.11c.275,0,1.65.165,1.98.165,2.09.11,5.664.22,7.754.22.715,0,1.65,0,1.65-1.65a33.745,33.745,0,0,0-.221-4.289c-.054-.33-.44-1.76-.44-2.09s.44-.385.661-.385c.164,0,5.059,1.375,5.059,2.31,0,.384-1.65,1.7-1.76,2.144a8.941,8.941,0,0,0-.275,2.86,1.139,1.139,0,0,0,1.1,1.1,2.873,2.873,0,0,0,1.54-.44c.275-.22,1.32-1.87,1.7-1.87.276,0,4.015,2.31,4.015,3.025s-1.1.715-2.97.715Zm2.035,22.657a1.171,1.171,0,0,1,.824.935c0,.384-.494.715-1.539,1.374-.55.33-.55,3.795-.55,4.785,0,3.849,0,5.389,5.114,5.389,2.035,0,9.294-.33,10.669-1.705.989-1.044,1.98-3.9,2.529-5.719.22-.77.331-1.265.66-1.265.275,0,.275.22.385,1.98.055.99.22,3.134,1.54,4.069,1.155.77,1.485,1.045,1.485,1.54,0,.6-.935,4.729-13.748,4.729-12.429,0-12.429-2.585-12.429-7.039,0-.714.11-3.959.11-4.619,0-1.045-.055-2.145-.11-3.245,0-.274-.164-1.484-.164-1.76,0-.384,0-.989.879-.989a4.962,4.962,0,0,1,1.54.385C1944.854,2171.345,1947.328,2172.334,1947.384,2172.39Zm9.073,6.269c-1.21,0-1.374-.66-2.144-3.409a17.3,17.3,0,0,0-2.09-4.675c-.275-.44-.33-.55-.33-.825,0-.055.055-.165.11-.165s6.489,2.749,6.489,6.434C1958.492,2177.449,1957.557,2178.659,1956.457,2178.659Zm3.74-12.759c-.385,0-1.32,0-1.54.935-.275.935-.715,2.75-2.8,2.75-1.045,0-1.374-.55-1.374-1.65,0-.66.055-2.255.11-3.08.165-2.584.165-10.668.165-11.108,0-2.419-.111-7.369-.33-9.734-.055-.275-.33-1.7-.33-2.034a.485.485,0,0,1,.549-.55,21.007,21.007,0,0,1,3.135,1.594,4.392,4.392,0,0,0,2.09.44h8.414a2.211,2.211,0,0,0,1.595-.549c.22-.22,1.1-1.815,1.484-1.815.33,0,4.29,2.8,4.29,3.629,0,.275-.99,1.21-1.155,1.485-.44.715-.44,5.939-.44,7.149,0,3.025.055,6.1.11,9.129,0,.5.11,2.8.11,3.354,0,2.915-1.815,3.52-2.474,3.52-1.265,0-1.375-.77-1.54-2.255-.11-1.21-.99-1.21-1.65-1.21Zm-.22-21.007c-1.815,0-1.815.77-1.815,2.8s0,2.8,1.815,2.8h8.579c1.76,0,1.76-.769,1.76-2.8s0-2.8-1.76-2.8Zm-.055,7.039c-1.7,0-1.7.605-1.7,2.805s0,2.8,1.7,2.8h8.744c1.7,0,1.76-.6,1.76-2.8s-.056-2.805-1.76-2.805Zm0,7.039c-.66,0-1.65,0-1.65,1.375,0,3.685,0,4.125,1.65,4.125h8.8c.66,0,1.649,0,1.649-1.43,0-3.629,0-4.07-1.649-4.07Zm17.048,26.507c-1.87,0-2.31-1.375-3.41-5.444a15.443,15.443,0,0,0-4.069-6.38,7.808,7.808,0,0,1-.935-.989c0-.165.055-.165.11-.165a24,24,0,0,1,2.64.825c4.839,1.979,7.369,6.214,7.369,9.513C1978.675,2184.6,1977.74,2185.478,1976.97,2185.478Z" fill="#333"/>
        <path id="パス_1411" data-name="パス 1411" d="M1998.831,2155.617a7.489,7.489,0,0,1-.66,2.2,19.426,19.426,0,0,0-1.32,7.095c0,5.554,2.86,9.568,4.565,9.568.935,0,1.155-.274,2.8-3.024.33-.55,1.264-1.87,1.7-1.87.165,0,.275.22.275.44a6.726,6.726,0,0,1-.164,1.1,15.437,15.437,0,0,0-.716,4.179,7.42,7.42,0,0,0,.33,2.2,13.766,13.766,0,0,1,.44,1.815c0,1.1-1.155,1.7-2.089,1.7-3.52,0-10.449-5.773-10.449-16.277,0-1.54.77-8.3.77-9.734a15.278,15.278,0,0,0-.385-3.19,7.419,7.419,0,0,1-.44-1.869c0-.165.22-.22.33-.22C1996.357,2149.733,1998.831,2154.132,1998.831,2155.617Zm26.837,1.264a13.687,13.687,0,0,1,4.894,10.5c0,1.045-.11,3.63-2.75,3.63-2.694,0-2.694-2.97-2.694-3.684,0-4.565,0-6.875-2.915-9.789-.44-.44-2.64-2.145-2.64-2.475,0-.165.221-.275.495-.275A10.706,10.706,0,0,1,2025.668,2156.881Z" fill="#333"/>
      </g>
    </g>
  </g>
</svg>
