<svg id="story_h" xmlns="http://www.w3.org/2000/svg" width="405.418" height="58.865" viewBox="0 0 405.418 58.865">
  <g id="グループ_24" data-name="グループ 24" transform="translate(-468.107 -1553.815)">
    <path id="パス_95" data-name="パス 95" d="M468.807,1611.9c-.1-.253-.7-1.836-.7-1.92a.3.3,0,0,1,.308-.294c.154,0,.182.07.518.589a4.139,4.139,0,0,0,3.292,1.919,2.019,2.019,0,0,0,2.073-2.116c0-1.274-.841-1.722-2.619-2.339-1.948-.672-3.236-1.414-3.236-3.081a2.639,2.639,0,0,1,2.8-2.718,5.545,5.545,0,0,1,1,.112c.154.029.742.155.84.155a.533.533,0,0,0,.308-.085c.2-.154.225-.182.323-.182.168,0,.21.126.35.491.1.224.756,1.877.756,1.96a.221.221,0,0,1-.238.225c-.112,0-.14-.042-.364-.407a3.248,3.248,0,0,0-2.858-1.807,1.792,1.792,0,0,0-1.9,1.849c0,1.163.841,1.583,2.676,2.227,2.829.981,3.207,2.1,3.207,3.181a2.969,2.969,0,0,1-3.039,3.025,4.5,4.5,0,0,1-1.513-.28,1.828,1.828,0,0,0-.56-.14.728.728,0,0,0-.533.182c-.238.21-.266.238-.406.238C469.1,1612.68,469.073,1612.6,468.807,1611.9Z" fill="#333"/>
    <path id="パス_96" data-name="パス 96" d="M486.644,1602.2c.756,0,.924,0,1.163.63.112.308.714,1.891.714,2.031a.215.215,0,0,1-.224.21c-.112,0-.154-.056-.477-.588a3.065,3.065,0,0,0-2.521-1.821c-.546,0-.882.224-.966.7-.042.252-.042,3.418-.042,4.006,0,.393,0,3.628.042,3.866.126.715.784.729,1.162.729.519,0,.631,0,.631.224s-.2.224-.42.224h-3.923c-.2,0-.406,0-.406-.224s.224-.224.308-.224c.827,0,1.345,0,1.485-.729a37.214,37.214,0,0,0,.042-3.964c0-3.46,0-3.838-.1-4.1a.874.874,0,0,0-.9-.5,3.2,3.2,0,0,0-2.521,1.806c-.336.547-.364.6-.49.6a.227.227,0,0,1-.224-.21c0-.112.63-1.793.742-2.073.224-.588.448-.588,1.149-.588Z" fill="#333"/>
    <path id="パス_97" data-name="パス 97" d="M497.111,1612.68c-2.7,0-4.58-2.213-4.58-5.365s1.863-5.379,4.58-5.379c2.69,0,4.567,2.213,4.567,5.379C501.678,1610.453,499.815,1612.68,497.111,1612.68Zm3.236-5.491c0-1.289-.364-4.791-3.236-4.791-3.137,0-3.249,4.119-3.249,5.043,0,1.345.406,4.777,3.249,4.777C500.235,1612.218,500.347,1608.141,500.347,1607.189Z" fill="#333"/>
    <path id="パス_98" data-name="パス 98" d="M509.342,1602.2c.673,0,3.866.069,3.866,2.423a2.726,2.726,0,0,1-1.863,2.451c-.49.238-.546.266-.546.42a24.836,24.836,0,0,0,1.457,3.348,1.744,1.744,0,0,0,1.653,1.121c.14,0,.42,0,.42.224,0,.2-.28.224-.35.224h-1.751a.688.688,0,0,1-.659-.406c-.084-.14-1.078-2.311-1.232-2.662-.77-1.695-.869-1.919-1.359-1.919h-.77c-.1,0-.28.056-.322.168-.057.14-.057,1.989-.057,2.312,0,1.694,0,2.059,1.289,2.059.1,0,.295,0,.295.224s-.253.224-.407.224h-3.46c-.14,0-.35-.028-.35-.224,0-.224.2-.224.392-.224.967,0,1.107-.449,1.149-.967.028-.476.028-4.328.028-4.987a22.517,22.517,0,0,0-.112-2.829c-.182-.518-.784-.518-1.107-.518-.084,0-.378,0-.378-.253,0-.209.252-.209.42-.209Zm-.5.462c-1.009,0-1.009.63-1.009,2.073,0,2.2,0,2.241.379,2.241h1.134a2.263,2.263,0,0,0,2.536-2.213c0-.981-.533-2.1-2.353-2.1Z" fill="#333"/>
    <path id="パス_99" data-name="パス 99" d="M526.666,1602.2a.235.235,0,0,1,.238.237c0,.225-.21.225-.336.225a1.914,1.914,0,0,0-1.583.994c-.63,1.093-2.129,3.67-2.353,4.245-.14.336-.14.448-.14,1.54,0,1.7.014,1.891.154,2.115.238.365.6.407,1.065.407s.6,0,.6.224-.21.224-.378.224h-3.992c-.168,0-.379,0-.379-.224s.224-.224.295-.224c1.358,0,1.526-.14,1.526-1.541,0-1.961.014-2.171-.364-2.858-.2-.364-1.246-2.213-1.457-2.577-.882-1.583-1.274-2.283-2.115-2.325-.168,0-.364-.014-.364-.225,0-.237.21-.237.364-.237h3.306c.168,0,.378,0,.378.237s-.224.225-.294.225c-.434,0-.9,0-.9.5,0,.238.042.322.462,1.064.252.463,1.387,2.466,1.611,2.872.056.112.154.294.252.294s.2-.21.252-.308c.308-.546,1.863-3.222,1.975-3.53a1.4,1.4,0,0,0,.07-.378c0-.518-.686-.518-.924-.518-.365,0-.518,0-.518-.225s.209-.237.364-.237Z" fill="#333"/>
  </g>
  <g id="グループ_26" data-name="グループ 26" transform="translate(-468.107 -1553.815)">
    <g id="グループ_25" data-name="グループ 25">
      <path id="パス_100" data-name="パス 100" d="M488.324,1557.561c1.891,0,2.31,0,2.906,1.575.279.77,1.785,4.725,1.785,5.076a.539.539,0,0,1-.56.525c-.28,0-.386-.141-1.19-1.471-1.856-3.045-3.921-4.55-6.3-4.55-1.365,0-2.2.56-2.416,1.75-.1.63-.1,8.541-.1,10.011,0,.98,0,9.066.1,9.661.316,1.785,1.961,1.82,2.906,1.82,1.295,0,1.575,0,1.575.56s-.49.56-1.05.56h-9.8c-.49,0-1.015,0-1.015-.56s.56-.56.77-.56c2.065,0,3.36,0,3.71-1.82.1-.56.1-.595.1-9.906,0-8.646,0-9.591-.244-10.256a2.184,2.184,0,0,0-2.241-1.26c-2.8,0-4.865,2.205-6.3,4.515-.841,1.365-.911,1.506-1.225,1.506a.569.569,0,0,1-.561-.525c0-.281,1.576-4.481,1.855-5.181.56-1.47,1.121-1.47,2.871-1.47Z" fill="#333"/>
      <path id="パス_101" data-name="パス 101" d="M504.345,1581.783c-.245-.63-1.751-4.585-1.751-4.795a.741.741,0,0,1,.771-.735c.385,0,.454.175,1.3,1.47a10.341,10.341,0,0,0,8.226,4.795,5.044,5.044,0,0,0,5.18-5.285c0-3.186-2.1-4.306-6.545-5.846-4.866-1.68-8.086-3.535-8.086-7.7a6.6,6.6,0,0,1,7-6.79,13.841,13.841,0,0,1,2.486.28c.385.07,1.855.385,2.1.385a1.331,1.331,0,0,0,.77-.21c.49-.385.56-.455.8-.455.42,0,.525.315.875,1.225.245.56,1.891,4.69,1.891,4.9a.551.551,0,0,1-.6.56c-.279,0-.35-.105-.91-1.015-.945-1.505-2.835-4.515-7.14-4.515a4.477,4.477,0,0,0-4.761,4.62c0,2.906,2.1,3.956,6.686,5.566,7.071,2.45,8.015,5.25,8.015,7.946a7.421,7.421,0,0,1-7.6,7.56,11.251,11.251,0,0,1-3.781-.7,4.569,4.569,0,0,0-1.4-.35,1.8,1.8,0,0,0-1.33.456c-.6.524-.665.594-1.015.594C505.08,1583.743,505.01,1583.533,504.345,1581.783Z" fill="#333"/>
      <path id="パス_102" data-name="パス 102" d="M552.735,1557.561c.455,0,.98,0,.98.595,0,.56-.49.56-1.085.56-2.485,0-2.661,2-2.7,3.08-.034,1.75,0,10.431,0,12.392,0,2.485-.105,5.18-2.24,7.35a8.159,8.159,0,0,1-5.915,2.205c-1.505,0-8.681-.49-8.891-7.735-.035-1.961.034-11.482.034-13.617,0-2.695-.174-3.675-3.255-3.675-.21,0-.77,0-.77-.56,0-.595.525-.595,1.05-.595h8.576c.421,0,.945,0,.945.595,0,.56-.455.56-1.12.56a2.339,2.339,0,0,0-2.555,1.575c-.175.525-.175,7.176-.175,8.4,0,7.7,0,8.3.6,9.941a6.139,6.139,0,0,0,5.985,3.78,6.218,6.218,0,0,0,5.461-2.73c1.19-1.75,1.19-3.22,1.19-11.341,0-7.736-.07-7.911-.49-8.576a2.683,2.683,0,0,0-2.485-1.05c-.385,0-.7-.175-.7-.56,0-.595.525-.595.84-.595Z" fill="#333"/>
      <path id="パス_103" data-name="パス 103" d="M564.415,1583.078c-.526,0-1.051,0-1.051-.56s.42-.56,1.295-.56c.455,0,2.241,0,2.8-1.575.28-.805.315-.84.315-10.116,0-8.821,0-8.856-.105-9.451-.42-2.1-2.346-2.1-3.536-2.1-.209,0-.77,0-.77-.56,0-.595.525-.595,1.051-.595h3.4c2.52,0,2.59.1,4.375,2.835,2.135,3.221,5.566,8.366,7.7,11.586.455.7,3.676,5.6,3.886,5.6.139,0,.245-.245.245-.7,0-.98.034-6.721.034-7.946,0-1.26,0-7.456-.1-8.086-.42-2.135-2.206-2.135-3.361-2.135-.21,0-.735,0-.735-.56,0-.595.49-.595.98-.595h7.281c.385,0,.91,0,.91.595,0,.56-.49.56-1.05.56-2.9,0-2.9,1.575-2.9,5.776,0,2.625.035,15.576.035,18.482,0,.175,0,.769-.455.769a.609.609,0,0,1-.455-.28c-.21-.244-13.932-20.862-14.107-21.107-.63-1.015-.7-1.155-.875-1.155s-.28.28-.28.665c0,1.26-.035,7.351-.035,8.751s0,8.366.1,9.031c.42,2.31,2.345,2.31,3.85,2.31.281,0,.805,0,.805.56s-.455.56-1.12.56Z" fill="#333"/>
      <path id="パス_104" data-name="パス 104" d="M614.463,1583.078c-.385,0-.84-.1-.84-.56,0-.56.56-.56,1.4-.56a1.536,1.536,0,0,0,1.435-1.54,18.955,18.955,0,0,0-1.295-4.095c-.77-1.96-.875-2.2-2.031-2.2h-7.6c-1.3,0-1.435.35-1.995,1.925a27.935,27.935,0,0,0-1.261,4.55c0,1.365,1.121,1.365,1.96,1.365.421,0,.806.07.806.56,0,.56-.525.56-.806.56h-6.72c-.28,0-.735-.035-.735-.525,0-.595.385-.595,1.19-.595a2.942,2.942,0,0,0,2.66-1.4c.806-1.085,3.4-9.311,4.166-11.8.455-1.4,2.7-8.261,3.15-9.836.35-1.225.56-2.03,3.045-2.03a.8.8,0,0,1,.77.56,23.114,23.114,0,0,1,1.155,3.15c2.451,7.6,2.661,8.436,4.866,14.912,1.995,5.95,2.241,6.44,4.236,6.44.455,0,.8.21.8.595,0,.525-.56.525-.8.525Zm-1.645-10.116c.384,0,.875-.175.875-.56,0-.735-3.326-10.466-3.956-12.356-.21-.595-.28-.91-.525-.91-.21,0-.245.1-.63,1.26-.98,2.835-3.71,11.726-3.71,12.041,0,.525.525.525.98.525Z" fill="#333"/>
      <path id="パス_105" data-name="パス 105" d="M652.1,1572.122c.28,0,.8,0,.8.56a.543.543,0,0,1-.595.561,1.952,1.952,0,0,0-1.75.979c-.42.665-.455,1.261-.455,6.651,0,1.155-.141,1.155-1.471,1.155a6.337,6.337,0,0,0-2.1.63,11.278,11.278,0,0,1-4.725,1.085c-6.966,0-10.851-5.705-10.851-13.231,0-7.911,4.34-13.616,10.4-13.616a10.918,10.918,0,0,1,3.36.63,6.254,6.254,0,0,0,1.645.35,1.178,1.178,0,0,0,.8-.35c.56-.49.665-.63.981-.63.525,0,.594.245,1.294,2.345.21.6,1.436,4.2,1.436,4.376a.615.615,0,0,1-.63.6c-.281,0-.35-.106-.91-1.086-1.681-2.94-4.9-5.075-7.841-5.075-4.726,0-7.386,6.231-7.386,12.321,0,6.441,2.94,12.251,8.016,12.251a5.55,5.55,0,0,0,3.99-1.61c.945-.945,1.33-1.89,1.33-4.2,0-3.29-1.015-3.536-3.64-3.536-.21,0-.735,0-.735-.595,0-.56.525-.56.945-.56Z" fill="#333"/>
      <path id="パス_106" data-name="パス 106" d="M684.473,1557.561c.455,0,.98,0,.98.595,0,.56-.49.56-1.085.56-2.485,0-2.66,2-2.7,3.08-.034,1.75,0,10.431,0,12.392,0,2.485-.1,5.18-2.24,7.35a8.159,8.159,0,0,1-5.915,2.205c-1.505,0-8.681-.49-8.891-7.735-.035-1.961.035-11.482.035-13.617,0-2.695-.175-3.675-3.256-3.675-.21,0-.77,0-.77-.56,0-.595.525-.595,1.051-.595h8.575c.421,0,.946,0,.946.595,0,.56-.455.56-1.12.56a2.34,2.34,0,0,0-2.556,1.575c-.175.525-.175,7.176-.175,8.4,0,7.7,0,8.3.595,9.941a6.141,6.141,0,0,0,5.986,3.78,6.22,6.22,0,0,0,5.461-2.73c1.19-1.75,1.19-3.22,1.19-11.341,0-7.736-.07-7.911-.491-8.576a2.682,2.682,0,0,0-2.484-1.05c-.386,0-.7-.175-.7-.56,0-.595.525-.595.84-.595Z" fill="#333"/>
      <path id="パス_107" data-name="パス 107" d="M713.708,1557.561c1.89,0,2.31,0,2.9,1.575.28.77,1.785,4.725,1.785,5.076a.539.539,0,0,1-.56.525c-.28,0-.385-.141-1.19-1.471-1.855-3.045-3.92-4.55-6.3-4.55-1.365,0-2.2.56-2.415,1.75-.1.63-.1,8.541-.1,10.011,0,.98,0,9.066.1,9.661.315,1.785,1.96,1.82,2.9,1.82,1.3,0,1.575,0,1.575.56s-.49.56-1.049.56h-9.8c-.489,0-1.015,0-1.015-.56s.56-.56.771-.56c2.065,0,3.36,0,3.71-1.82.105-.56.105-.595.105-9.906,0-8.646,0-9.591-.245-10.256a2.183,2.183,0,0,0-2.24-1.26c-2.8,0-4.866,2.205-6.3,4.515-.84,1.365-.91,1.506-1.225,1.506a.569.569,0,0,1-.56-.525c0-.281,1.575-4.481,1.855-5.181.56-1.47,1.12-1.47,2.87-1.47Z" fill="#333"/>
      <path id="パス_108" data-name="パス 108" d="M739.963,1583.743c-6.755,0-11.446-5.53-11.446-13.406s4.655-13.441,11.446-13.441c6.721,0,11.411,5.53,11.411,13.441C751.374,1578.178,746.719,1583.743,739.963,1583.743Zm8.086-13.721c0-3.22-.91-11.971-8.086-11.971-7.841,0-8.121,10.291-8.121,12.6,0,3.36,1.016,11.936,8.121,11.936C747.769,1582.588,748.049,1572.4,748.049,1570.022Z" fill="#333"/>
      <path id="パス_109" data-name="パス 109" d="M780.913,1559.766c0,.1.07.245.07.385a26.825,26.825,0,0,1,.35,3.78c0,2.346-.525,5.6-3.6,10.257-2.8,4.27-4.586,5.11-5.986,5.11-2.31,0-4.376-3.6-4.376-7.876a12.334,12.334,0,0,1,3.886-8.926,14.483,14.483,0,0,1,11.166-4.55,11.407,11.407,0,0,1,5.636,1.12,10.972,10.972,0,0,1,6.09,10.186,13.053,13.053,0,0,1-8.821,12.321,21.51,21.51,0,0,1-5.81,1.3c-.14,0-.35-.035-.35-.245,0-.105.07-.139.945-.49,3.64-1.435,11.236-4.445,11.236-13.161,0-1.365-.14-9.7-9.7-9.7C780.948,1559.276,780.913,1559.556,780.913,1559.766Zm-11.376,10.746c0,2.275.91,5.391,3.045,5.391,1.015,0,1.855-.42,4.271-4.061a20.021,20.021,0,0,0,3.43-10.186c0-2.1-.14-2.275-.6-2.275C776.363,1559.381,769.537,1563.9,769.537,1570.512Z" fill="#333"/>
      <path id="パス_110" data-name="パス 110" d="M806.426,1583.288c-.524,0-1.294-.1-1.294-.875,0-.63.14-.8,1.575-2.24a9.354,9.354,0,0,0,2.415-4.655c.1-.56.21-.981.315-.981.42,0,.49,1.891.49,2.346C809.927,1577.758,809.787,1583.288,806.426,1583.288Zm9.032-23.207c-.631,0-.7.455-.7.595a1.011,1.011,0,0,0,.456.8c2.94,2.17,4.06,3.011,4.06,4.551a1.672,1.672,0,0,1-1.365,1.645c-.526,0-.736-.595-.945-1.61-.28-1.365-1.576-3.711-1.891-3.711-.105,0-.35.105-.35.49,0,.315.035,1.785.035,2.1,0,.945.246,5.53.246,5.88,0,.315,0,2.065-1.541,2.065-.945,0-.945-.945-.945-1.225,0-.665.21-3.85.21-4.585,0-.35.07-2.1.07-2.486a.344.344,0,0,0-.35-.314c-.175,0-.245.1-.84.875-4.41,5.915-5.951,6.02-6.02,6.02-.036,0-.036-.035-.036-.07,0-.07,2.031-2.835,2.381-3.36a35.016,35.016,0,0,0,3.885-7.106.545.545,0,0,0-.525-.56c-2.45,0-3.71.1-3.92.1-.1,0-.631.07-.77.07-.1,0-.176-.07-.28-.21l-.7-.805c-.139-.175-.139-.175-.139-.245s.069-.07.139-.07c.176,0,1.051.1,1.261.1,1.33.07,3.6.14,4.935.14.455,0,1.05,0,1.05-1.05a21.527,21.527,0,0,0-.14-2.731c-.035-.21-.28-1.12-.28-1.33s.28-.245.42-.245c.1,0,3.221.875,3.221,1.471,0,.245-1.051,1.085-1.121,1.365a5.723,5.723,0,0,0-.175,1.82.725.725,0,0,0,.7.7,1.832,1.832,0,0,0,.981-.28c.175-.14.84-1.19,1.085-1.19.175,0,2.555,1.47,2.555,1.925s-.7.455-1.89.455Zm1.295,14.421a.752.752,0,0,1,.525.6c0,.246-.315.456-.981.876-.35.21-.35,2.415-.35,3.045,0,2.45,0,3.43,3.256,3.43,1.295,0,5.915-.21,6.79-1.085a11.64,11.64,0,0,0,1.611-3.64c.14-.49.21-.805.42-.805.175,0,.175.14.245,1.26a3.469,3.469,0,0,0,.98,2.59c.735.49.945.665.945.98,0,.385-.595,3.011-8.751,3.011-7.911,0-7.911-1.646-7.911-4.481,0-.455.07-2.52.07-2.94,0-.665-.035-1.365-.07-2.065,0-.176-.1-.945-.1-1.121,0-.244,0-.629.561-.629a3.16,3.16,0,0,1,.979.244C815.142,1573.837,816.717,1574.468,816.753,1574.5Zm5.775,3.991c-.77,0-.875-.42-1.365-2.17a11.03,11.03,0,0,0-1.33-2.976c-.175-.279-.21-.35-.21-.525,0-.035.035-.1.07-.1s4.13,1.751,4.13,4.1A1.549,1.549,0,0,1,822.528,1578.493Zm2.38-8.121c-.245,0-.839,0-.98.6-.175.595-.455,1.75-1.785,1.75-.665,0-.875-.35-.875-1.05,0-.42.035-1.435.07-1.96.1-1.645.1-6.791.1-7.071,0-1.54-.07-4.69-.21-6.195-.035-.175-.21-1.086-.21-1.3a.308.308,0,0,1,.35-.35,13.4,13.4,0,0,1,1.995,1.015,2.8,2.8,0,0,0,1.33.28h5.356a1.4,1.4,0,0,0,1.015-.35c.14-.14.7-1.155.945-1.155.21,0,2.73,1.785,2.73,2.31,0,.175-.63.77-.735.945-.28.455-.28,3.78-.28,4.55,0,1.926.035,3.886.071,5.811,0,.315.069,1.785.069,2.135,0,1.855-1.155,2.241-1.575,2.241-.8,0-.875-.491-.98-1.436-.07-.77-.63-.77-1.05-.77Zm-.14-13.371c-1.155,0-1.155.49-1.155,1.785s0,1.785,1.155,1.785h5.461c1.12,0,1.12-.49,1.12-1.785s0-1.785-1.12-1.785Zm-.034,4.48c-1.086,0-1.086.385-1.086,1.785s0,1.786,1.086,1.786H830.3c1.085,0,1.12-.385,1.12-1.786s-.035-1.785-1.12-1.785Zm0,4.481c-.42,0-1.051,0-1.051.875,0,2.345,0,2.625,1.051,2.625h5.6c.42,0,1.05,0,1.05-.91,0-2.31,0-2.59-1.05-2.59Zm10.851,16.871c-1.19,0-1.471-.875-2.171-3.465a9.823,9.823,0,0,0-2.59-4.06,4.915,4.915,0,0,1-.595-.63c0-.1.035-.1.07-.1a15.17,15.17,0,0,1,1.68.524c3.081,1.261,4.691,3.956,4.691,6.056C836.67,1582.273,836.074,1582.833,835.585,1582.833Z" fill="#333"/>
      <path id="パス_111" data-name="パス 111" d="M853.327,1563.827a4.8,4.8,0,0,1-.42,1.4,12.362,12.362,0,0,0-.84,4.515c0,3.535,1.82,6.091,2.9,6.091.6,0,.736-.175,1.786-1.925.21-.351.8-1.191,1.085-1.191.1,0,.175.14.175.28a4.23,4.23,0,0,1-.1.7,9.82,9.82,0,0,0-.455,2.66,4.723,4.723,0,0,0,.21,1.4,8.78,8.78,0,0,1,.28,1.155c0,.7-.735,1.085-1.33,1.085-2.24,0-6.651-3.675-6.651-10.361,0-.98.49-5.286.49-6.195a9.722,9.722,0,0,0-.245-2.031,4.726,4.726,0,0,1-.28-1.19c0-.1.14-.14.21-.14C851.752,1560.081,853.327,1562.881,853.327,1563.827Zm17.082.8a8.715,8.715,0,0,1,3.116,6.686c0,.665-.071,2.31-1.751,2.31-1.715,0-1.715-1.89-1.715-2.345,0-2.905,0-4.375-1.855-6.23-.28-.28-1.68-1.366-1.68-1.576,0-.1.14-.175.315-.175A6.812,6.812,0,0,1,870.409,1564.631Z" fill="#333"/>
    </g>
  </g>
</svg>
