<svg id="structure_2" xmlns="http://www.w3.org/2000/svg" width="71.077" height="52.923" viewBox="0 0 71.077 52.923">
  <path id="パス_2116" data-name="パス 2116" d="M936.548,2282.81c-10.9,0-15.525-13.731-15.525-26.427,0-12.834,4.692-26.5,15.525-26.5,11.178.069,15.525,14.352,15.525,26.5C952.073,2268.6,947.657,2282.81,936.548,2282.81Zm0-50.646c-9.177,0-9.315,20.7-9.315,24.219,0,2.829,0,24.219,9.315,24.15,9.177,0,9.316-20.562,9.316-24.15C945.864,2253.485,945.864,2232.164,936.548,2232.164Z" transform="translate(-921.023 -2229.887)" fill="gray"/>
  <path id="パス_2117" data-name="パス 2117" d="M963.81,2281.5c-.414,0-2-.069-2-1.035,0-3.657,4.416-8.97,6-10.833,16.284-19.389,17.732-21.183,17.732-27.738,0-6.141-4.484-9.729-9.177-9.729-4.139,0-7.727,2.829-7.727,5.8a3.529,3.529,0,0,0,.689,2.07c.9,1.311,1.45,2.07,1.45,3.312a3.756,3.756,0,0,1-3.726,3.726c-2.347,0-3.934-2.07-3.934-4.692,0-5.865,6.073-12.489,14.835-12.489,7.452,0,13.8,4.83,13.8,12.972,0,7.107-4.348,11.04-10.213,15.939-10.419,8.694-14.144,15.111-14.144,16.422,0,1.035,2.208,1.035,2.483,1.035h7.108c6.968,0,10.97-1.932,12.9-6.486,1.1-2.553,1.1-2.622,1.517-2.622.691,0,.691.828.691.966,0,.552-2.208,9.453-2.554,10.9-.62,2.484-3.035,2.484-4.14,2.484Z" transform="translate(-921.023 -2229.887)" fill="gray"/>
</svg>
