<svg id="structure_1" xmlns="http://www.w3.org/2000/svg" width="64.447" height="52.923" viewBox="0 0 64.447 52.923">
  <path id="パス_2114" data-name="パス 2114" d="M619.959,2282.81c-10.9,0-15.525-13.731-15.525-26.427,0-12.834,4.692-26.5,15.525-26.5,11.178.069,15.526,14.352,15.526,26.5C635.485,2268.6,631.069,2282.81,619.959,2282.81Zm0-50.646c-9.177,0-9.315,20.7-9.315,24.219,0,2.829,0,24.219,9.315,24.15,9.177,0,9.316-20.562,9.316-24.15C629.275,2253.485,629.275,2232.164,619.959,2232.164Z" transform="translate(-604.434 -2229.887)" fill="gray"/>
  <path id="パス_2115" data-name="パス 2115" d="M646.248,2281.5c-1.517,0-1.587-.9-1.587-1.1,0-1.1,1.036-1.1,3.52-1.1,3.725,0,5.519-.207,6.348-2.139.483-1.173.483-13.317.483-15.732,0-3.312-.139-19.389-.139-23.046,0-3.243-.966-3.243-6.761-3.243-1.657,0-2.346,0-2.346-.9s.689-.966,2.829-1.1a32.306,32.306,0,0,0,7.8-1.725c.482-.138,2.829-1.518,3.381-1.518.758,0,.758.207.758,3.312,0,1.863-.137,10.764-.137,12.834,0,3.174.069,29.67.275,30.429.484,2,1.449,2.829,6.556,2.829.621,0,1.656,0,1.656,1.242,0,.966-1.1.966-1.725.966Z" transform="translate(-604.434 -2229.887)" fill="gray"/>
</svg>
