<svg id="structure_3" xmlns="http://www.w3.org/2000/svg" width="70.891" height="52.923" viewBox="0 0 70.891 52.923">
  <path id="パス_2118" data-name="パス 2118" d="M1254.451,2282.81c-10.9,0-15.525-13.731-15.525-26.427,0-12.834,4.692-26.5,15.525-26.5,11.178.069,15.526,14.352,15.526,26.5C1269.977,2268.6,1265.561,2282.81,1254.451,2282.81Zm0-50.646c-9.176,0-9.315,20.7-9.315,24.219,0,2.829,0,24.219,9.315,24.15,9.177,0,9.316-20.562,9.316-24.15C1263.767,2253.485,1263.767,2232.164,1254.451,2232.164Z" transform="translate(-1238.926 -2229.887)" fill="gray"/>
  <path id="パス_2119" data-name="パス 2119" d="M1308.782,2241.548c0,4.071-2.346,7.728-6.141,10.488-.552.345-3.588,2-3.588,2.415,0,.621,3.243,1.725,3.8,2.07,3.243,2,6.969,5.658,6.969,11.73,0,8.832-7.59,14.559-16.284,14.559-6.9,0-13.524-3.864-13.524-9.384a3.818,3.818,0,0,1,3.933-4.14,3.257,3.257,0,0,1,3.381,3.243c0,.552-.621,3.1-.621,3.657,0,2.553,2.967,4.416,6.21,4.416,5.52,0,10.7-5.589,10.7-12.282,0-6.555-4.761-12.627-10.833-12.627-.345,0-2.277.276-2.691.276a1.345,1.345,0,0,1-1.518-1.38,1.493,1.493,0,0,1,1.587-1.449c.414,0,2.484.345,2.967.345,4.692,0,9.453-4.278,9.453-10.9,0-5.313-3.243-10.419-8.694-10.419-3.657,0-5.52,2.415-5.52,4.416,0,.345.345,2.139.345,2.553a3.566,3.566,0,0,1-3.519,3.657,3.5,3.5,0,0,1-3.45-3.657c0-3.312,4.071-9.246,13.455-9.246C1302.02,2229.887,1308.782,2234.51,1308.782,2241.548Z" transform="translate(-1238.926 -2229.887)" fill="gray"/>
</svg>
