<?xml version="1.0" encoding="utf-8"?>
<!-- Generator: Adobe Illustrator 26.0.1, SVG Export Plug-In . SVG Version: 6.00 Build 0)  -->
<svg version="1.1" id="subscription_plan_1" xmlns="http://www.w3.org/2000/svg" xmlns:xlink="http://www.w3.org/1999/xlink"
	 x="0px" y="0px" viewBox="0 0 382.7 192.5" style="enable-background:new 0 0 382.7 192.5;" xml:space="preserve">
<style type="text/css">
	.st0{fill:#333333;}
	.st1{fill:#D9D9D9;}
	.st2{enable-background:new    ;}
</style>
<g id="グループ_80" transform="translate(-521.969 -527.568)">
	<g id="グループ_79">
		<path id="パス_407" class="st0" d="M530.6,617.1c-0.5-0.1-1.1,0-1.5,0.3c-0.3,0.2-2.7,2.8-3.2,3.2c-2.7,2.5-3.7,2.7-3.9,2.7
			c0.4-0.5,1-1.2,1.3-1.5c5.7-6.9,6.3-10.3,6.3-10.4c0-0.5,0-0.6,0.3-0.6c0.6,0,3.2,1.7,3.2,2.4c0,0.3-0.1,0.3-0.9,0.8
			c-0.6,0.6-1.2,1.2-1.6,1.9c0,0.3,0.3,0.3,0.6,0.3h14.7c1.5,0,1.9,0,2.3-0.6c0.9-1.5,1-1.7,1.5-1.7s3,2.3,3,2.7
			c0,0.5-0.7,0.5-1.9,0.5L530.6,617.1z M547.3,638.9c-0.8,0-0.8,0.1-1.4,1.5c-1.3,3.3-3.9,3.4-4.2,3.4c-0.8,0-1-0.5-1.2-1.1
			c-0.2-0.8-0.8-1.4-1.5-1.7c-0.2-0.1-1.5-0.4-1.5-0.6c0-0.1,0.1-0.1,0.3-0.1c0.3,0,2.7,0.3,3.2,0.3c1.7,0,2-0.3,2.2-0.5
			s0.3-0.5,0.4-0.8c0-0.3-0.2-0.4-0.5-0.4h-13.3c-0.6,0-1,0-1.2,0.5c-0.1,0.8-0.9,1.4-1.7,1.3c-0.5,0-1-0.3-1-0.8
			c0-0.2,0.9-3.7,1.2-5c0.1-0.5,0.6-3.8,0.6-4.1c0-0.6-0.5-0.6-0.8-0.6c-0.4,0-2,0-2.7,0.1c-0.1,0-0.6,0.1-0.8,0.1
			c-0.1,0-0.2-0.1-0.3-0.2l-0.7-0.8c-0.1-0.1-0.1-0.2-0.1-0.3s0.1-0.1,0.1-0.1c0.7,0,4.2,0.2,5,0.2c0.6,0,0.6-0.2,0.8-1.4
			c0.5-2.4,0.7-4.8,0.8-7.3c0-0.1,0-0.4,0.2-0.4c0.5,0.2,1,0.4,1.4,0.7c0.5,0.5,1.2,0.8,2,0.8h12.3c0.4,0.1,0.9-0.1,1.1-0.5
			c0.5-0.9,0.6-1,0.9-1c0.6,0,2.8,1.9,2.8,2.6c0,0.2-0.1,0.4-0.3,0.5c-0.7,0.3-0.8,0.4-0.9,0.7c-0.2,1.5-0.4,3.1-0.4,4.6
			c0,0.5,0.3,0.6,0.9,0.6c0.9,0,1.3-0.1,1.5-0.6c0.8-1.2,0.9-1.3,1.3-1.3c0.4,0,3,1.8,3,2.4c0,0.5-0.7,0.5-1.9,0.5h-3.7
			c-0.5,0-1,0-1.2,0.5c0,0.1-0.5,4-0.6,4.7c-0.1,0.6-0.3,1.9-0.3,2.1c0,0.4,0.3,0.4,0.5,0.4c0.3,0,0.7-0.1,0.9-0.3
			c0.3-0.3,1.3-1.9,1.8-1.9c0.4,0,2.7,2.1,2.7,2.7c0,0.5-0.6,0.5-1.9,0.5L547.3,638.9z M534.4,638c0.6,0,0.8-0.1,1-0.8
			c0-0.2,0.8-5.9,0.8-6.2c0-0.8-0.6-0.8-1-0.8h-4c-0.9,0-1.1,0.4-1.2,0.9c-0.1,0.6-1,6-1,6.2c0,0.6,0.5,0.6,1.2,0.6L534.4,638z
			 M532.4,622.7c-0.8,0-1.1,0.1-1.2,1c-0.1,0.8-0.6,4.6-0.6,4.8c0,0.6,0.4,0.8,1.1,0.8h3.9c0.7,0,1-0.2,1.1-0.9
			c0.1-0.6,0.6-4.9,0.6-5c0-0.7-0.5-0.7-1-0.7L532.4,622.7L532.4,622.7z M542.9,638c0.7,0,1,0,1.2-0.9c0.4-2,0.7-4,0.9-6
			c0-0.8-0.4-0.8-1-0.8h-3.8c-0.6,0-1,0-1.2,0.9c-0.1,0.4-0.8,5.9-0.8,6.1c0,0.8,0.5,0.8,1.1,0.8L542.9,638L542.9,638z M541,622.7
			c-0.5,0-0.9,0-1.1,0.8c-0.1,0.5-0.6,4.7-0.6,5c0,0.8,0.5,0.8,1.1,0.8h3.7c0.4,0,1,0,1.1-0.8c0.1-0.9,0.4-4.5,0.4-5
			c0-0.8-0.5-0.8-1.2-0.8H541z"/>
		<path id="パス_408" class="st0" d="M568.9,629.9c-1,0-1,0.1-1.2,1.9c-1,8.7-6.4,11.9-6.7,11.9c-0.1,0-0.2-0.1-0.2-0.3
			c0.2-0.4,0.5-0.8,0.8-1.1c3.9-5.7,3.9-14.3,3.9-19.9c0-3.2-0.1-6.3-0.5-9.5c0-0.1-0.3-1.3-0.3-1.4c0-0.1,0-0.2,0.1-0.2
			c0.9,0.3,1.8,0.7,2.6,1.2c0.6,0.4,1.3,0.5,1.9,0.5h10.3c0.8,0,1.1-0.1,1.5-0.6c0.8-1,0.9-1.1,1.1-1.1c0.4,0,2.8,1.9,2.8,2.3
			c0,0.1-0.1,0.2-0.2,0.3c-0.7,0.5-0.8,0.6-1,1c-0.2,0.6-0.2,1-0.2,5.4c0,4.2,0,8.6,0.1,12.8c0,0.9,0.3,5.7,0.3,6.7
			c0.1,0.8-0.2,1.6-0.7,2.2c-0.7,0.7-1.6,1.1-2.6,1.3c-0.5,0-0.6-0.2-0.8-0.6c-1-1.5-2.5-2.6-4.3-3c-0.6-0.1-0.9-0.2-0.9-0.5
			c0-0.1,0.2-0.2,0.4-0.2c0.4,0,4,0.3,4.4,0.3c1.1,0,1.3-0.2,1.3-1.1c0-1,0-6.2,0-7.4c0-1-0.4-1.2-1.2-1.2L568.9,629.9z
			 M569.1,621.6c-0.3,0-1,0-1.1,0.6c-0.1,0.3-0.1,3.2-0.1,4.6c0,1.6,0,2,1.1,2h10.9c1.1,0,1.1,0,1.1-3.6c0-3.7,0-3.7-1.1-3.7h-10.8
			L569.1,621.6L569.1,621.6z M569.1,613.9c-0.8,0-1.1,0.3-1.1,1.1v4.4c0,0.7,0,1.2,1.1,1.2h10.8c0.4,0.1,0.8-0.1,1-0.5
			c0.1-0.3,0.1-3,0.1-3.5c0-2.5,0-2.8-1.1-2.8L569.1,613.9L569.1,613.9z"/>
		<path id="パス_409" class="st0" d="M600,641.1c-0.5,0-0.8-0.2-0.8-0.5c0-0.6,0.8-0.6,1.4-0.6c1.3,0,2.2-0.2,2.6-1.1
			c0.3-0.6,0.3-6.9,0.3-8.2c0-1.7-0.1-10.1-0.1-12c0-1.7-0.5-1.7-3.5-1.7c-0.8,0-1.2,0-1.2-0.5s0.4-0.5,1.5-0.5
			c1.4-0.1,2.7-0.4,4-0.9c0.6-0.3,1.2-0.6,1.8-0.8c0.4,0,0.4,0.3,0.4,1.8c0,0.9-0.1,5.3-0.1,6.3c0,2.1,0,15.7,0.1,16.2
			c0.2,1.1,0.9,1.5,3.5,1.5c0.3,0,0.9,0,0.9,0.6c0,0.5-0.6,0.5-0.9,0.5L600,641.1z"/>
		<path id="パス_410" class="st0" d="M620.9,623.4c0-0.3,0.1-0.5,0.4-0.6h0.1c0.4,0,1.9,0.4,2.2,0.4c0.9,0,1.4-0.2,5.8-2
			c1.7-0.7,6.7-2.7,10.1-2.7c5-0.1,9.1,3.8,9.2,8.8v0.1c0,6.6-6.7,10.4-14.4,10.4c-0.3,0-0.9,0-0.9-0.5c0-0.3,0.1-0.3,1.5-0.5
			c8.9-1.3,11-7.6,11-10.8c0.1-3.2-2.4-5.9-5.7-6c-0.1,0-0.1,0-0.2,0c-3.4,0-8.6,2.7-11.7,4.9c-1.8,1.3-2.3,1.5-3.3,1.5
			C622.9,626.5,620.9,624.5,620.9,623.4z"/>
		<path id="パス_411" class="st0" d="M672.3,617.2c0,0.1,0.1,0.3,0.1,0.4c0.2,1.3,0.3,2.6,0.4,3.9c0,2.4-0.5,5.8-3.7,10.5
			c-2.9,4.4-4.7,5.3-6.2,5.3c-2.4,0-4.5-3.7-4.5-8.1c0-3.5,1.5-6.8,4-9.2c3-3.2,7.2-4.9,11.5-4.7c2-0.1,4,0.3,5.8,1.2
			c4,2,6.4,6.1,6.3,10.5c0,5.7-3.7,10.8-9.1,12.7c-1.9,0.7-3.9,1.2-6,1.3c-0.1,0-0.4,0-0.4-0.3c0-0.1,0.1-0.1,1-0.5
			c3.7-1.5,11.6-4.6,11.6-13.5c0-1.4-0.1-10-10-10C672.3,616.7,672.3,616.9,672.3,617.2z M660.6,628.2c0,2.3,0.9,5.5,3.1,5.5
			c1,0,1.9-0.4,4.4-4.2c2.1-3.1,3.3-6.7,3.5-10.5c0-2.2-0.1-2.3-0.6-2.3C667.6,616.8,660.6,621.4,660.6,628.2L660.6,628.2z"/>
		<path id="パス_412" class="st0" d="M708.3,621.6c0,1.2-2.7,2.3-3.6,2.6c-0.5,0.2-0.5,0.3-0.6,1.6c-0.1,0.8-0.1,3.7-0.1,3.9
			s0,0.6,0.3,0.6c0.1,0,3.1-1.2,3.6-1.4c3.6-1.3,5.2-1.4,6.1-1.4c3,0,5.5,2.4,5.5,5.4c0,4.8-5,6.9-8,6.9c-2.1,0-3.7-1-3.7-2.9
			c0-1.2,0.7-2.3,1.8-2.8c0.1,0,0.2,0.1,0.2,0.2c0,0.1-0.1,0.2-0.1,0.3c-0.2,0.3-0.3,0.6-0.3,1c0,1.7,2,1.7,2.3,1.7
			c2.4,0,5.4-1.6,5.4-4.5c0.1-2-1.4-3.8-3.5-4c-1,0-3.2,0.5-7.5,2.7c-2,1.1-2.2,1.2-2.2,1.8c0,0.4,0.1,2,0.1,2.4c0,1.7-0.5,4-1.8,4
			c-1,0-1.4-0.8-1.7-1.3c-1.2-2.2-1.3-2.2-1.8-2.2c-0.3,0-0.6,0.1-0.9,0.2c-0.4,0.3-0.9,0.5-1.4,0.7c-0.4,0-2.2-1.1-2.2-2.3
			c0-0.6,0.4-1.4,1-1.4c0.2,0,1.3,0.2,1.5,0.2c1,0,1.6-0.2,3.7-1.2c1.8-0.9,2.1-1,2.1-2c0-0.8,0-3.9-0.1-4.5c0-0.3-0.1-0.8-0.5-0.8
			c-0.6,0.1-1.1,0.2-1.7,0.3c-0.8,0.4-1.7,0.6-2.6,0.7c-1.2,0-2.6-2.5-2.6-2.7c0-0.1,0.1-0.3,0.3-0.3l0,0c0.1,0,0.5,0.1,0.6,0.1
			c0.5,0.1,1.1,0.2,1.7,0.2c1.6-0.1,3.1-0.5,4.6-1.1c0.2-1.3,0.3-2.6,0.4-3.9c0.1-1.1-0.4-2.2-1.2-2.9c-0.2-0.2-0.4-0.4-0.5-0.6
			c0-0.3,0.6-0.4,0.8-0.4c2.4,0,3.7,1.8,3.7,2.4c-0.2,0.6-0.5,1.3-0.8,1.9c-0.2,0.8-0.3,1.6-0.4,2.3c0,0.1,0.1,0.4,0.3,0.4
			c0.3,0,1.3-0.4,1.3-0.9c0-0.1-0.2-0.4-0.2-0.5l0.1-0.1C706.6,619.9,708.3,620.4,708.3,621.6z M700.1,635.3c0,0.5,1,1.7,1.5,1.7
			s1-1,1-2.8c0-0.1,0-0.5-0.1-0.6C702.4,633.7,700.1,634.8,700.1,635.3L700.1,635.3z M723.8,624.1c0,0.8-0.4,1.7-1.2,1.7
			c-0.2,0-1-0.1-1.2-0.1s-0.9,0.3-1.1,0.3c-0.1,0-0.2-0.1-0.2-0.2l0,0c0-0.1,0.1-0.2,0.1-0.3c0.1-0.2,0.1-0.4,0.1-0.6
			c0-1.4-1.8-1.9-3-1.9c-0.5,0-1,0.1-1.4,0.4c-0.1,0.1-0.2,0.1-0.4,0.1c-0.1,0-0.1,0-0.1-0.1c0.8-1.4,2.3-2.2,3.9-2.3
			C722.1,621,723.8,622.5,723.8,624.1L723.8,624.1z"/>
		<path id="パス_413" class="st0" d="M753.5,624.8c2.8,1.4,5.7,2.3,8.7,2.8c0.1,0,0.8,0.1,0.8,0.3c0,0.1-0.5,0.3-0.6,0.3
			c-1.1,0.4-2,1.1-2.7,1.9c-0.1,0.1-0.5,0.9-0.7,0.9s-8-3.8-11.6-9.5c-0.7-1.2-0.8-1.3-1-1.3s-0.3,0.1-1.1,0.9
			c-3.1,3.3-6.7,6.2-10.7,8.4c-1.8,0.9-3.7,1.7-5.7,2.3c-0.1,0-0.2-0.1-0.2-0.1s3.9-2.4,4.2-2.6c4.9-3.1,10-8.6,10.5-11.3
			c0-0.3,0.1-0.4,0.3-0.4s3.1,1.1,3.3,1.2c0.1,0,0.5,0.2,0.5,0.5c0,0.2-0.1,0.3-0.1,0.5C747.4,620.3,750.5,623.3,753.5,624.8z
			 M736.2,615.9c-2.7,0-3.9,0.1-4.6,0.1c-0.1,0-0.6,0.1-0.8,0.1s-0.2-0.1-0.3-0.2l-0.7-0.8c-0.1-0.2-0.1-0.2-0.1-0.3s0-0.1,0.1-0.1
			c0.3,0,1.4,0.1,1.6,0.1c1.8,0.1,3.3,0.1,5,0.1h1c0.8,0,1-0.4,1-1s-0.1-1.3-0.3-1.9c-0.1-0.2-0.2-0.5-0.2-0.7s0.2-0.3,0.4-0.3
			c0.3,0,1.9,0.4,2.3,0.5c1.1,0.3,1.3,0.4,1.3,0.7c0,0.2,0,0.3-0.5,0.9c-0.2,0.2-0.3,0.4-0.3,0.6c0,0.9,0.3,1.1,1.3,1.1h5.9
			c0.3,0,1.1,0,1.1-1c0-0.5,0-1.1-0.1-1.6c0-0.2-0.2-0.9-0.2-1.1c0-0.2,0.2-0.3,0.4-0.3c0.3,0,2.7,0.6,3.1,0.7s0.6,0.3,0.6,0.6
			c0,0.2-0.1,0.4-0.5,0.6c-0.3,0.2-0.5,0.6-0.5,1c0,1,0.6,1,1.2,1h1.8c1.6,0,1.8,0,2.3-0.6c1-1.2,1.1-1.3,1.4-1.3
			c0.2,0,3.3,1.9,3.3,2.4s-0.7,0.5-1.9,0.5h-7c-1.1,0-1.1,0.6-1.1,1.4c0,0.2,0,1.4,0,1.6c0,1.3-1.1,1.5-1.8,1.5c-0.8,0-1-0.1-1-1.4
			v-2.5c-0.1-0.7-0.5-0.8-1.1-0.8h-5.8c-0.8,0-1.3,0-1.3,1c0,0.4,0.1,1.9,0.1,2.3c0,0.7-0.1,1-0.4,1.2c-0.4,0.3-0.9,0.5-1.4,0.5
			c-0.6,0-0.9-0.4-0.9-1.1c0-0.3,0-1.7,0-1.9c0-1.4,0-2-1.1-2L736.2,615.9z M738.7,634.3c1,0.5,1.9,1,2.8,1.7
			c0.2,0.1,0.3,0.3,0.3,0.5c0,0.4-0.3,0.5-1.2,0.7c-0.1,0-3.2,2.4-3.8,2.9c-1.7,1.3-3.5,2.4-5.5,3.1c-0.1,0-0.1-0.1-0.1-0.1
			c0-0.1,1.9-1.7,2.2-2c3-2.8,4.8-5.7,5.1-6.8C738.6,634.3,738.7,634.3,738.7,634.3L738.7,634.3z M740.4,632.4c-2.8,0-3.9,0-4.6,0.1
			c-0.1,0-0.6,0.1-0.8,0.1s-0.2-0.1-0.3-0.2l-0.7-0.8c-0.1-0.2-0.1-0.2-0.1-0.3c0,0,0-0.1,0.1-0.1c0.3,0,1.4,0.1,1.6,0.1
			c1.8,0.1,3.3,0.1,5,0.1h2.7c0.4,0,1.1,0,1.1-1c0-0.4-0.2-3.3-0.3-3.7c0-0.1-0.2-0.4-0.2-0.5s0.1-0.2,0.4-0.2
			c0.3,0,2.8,0.5,3.1,0.6c0.5,0.1,0.7,0.4,0.7,0.6c0,0.2-0.1,0.3-0.6,0.8c-0.5,0.4-0.5,0.6-0.5,1.7c0,1.3,0,1.7,1.1,1.7h1.6
			c1.6,0,1.8,0,2.3-0.6c1-1.2,1.1-1.3,1.4-1.3c0.2,0,3.3,1.9,3.3,2.4s-0.7,0.5-1.9,0.5H748c-1.1,0-1.1,0.6-1.1,1.8
			c0,2.6,0,4,0.1,6.1c0,0.6,0,1.5,0,1.9c0,1.2-0.3,1.8-1.8,1.8c-0.8,0-0.9-0.6-0.9-1.3c0-0.5,0.1-2.6,0.1-3.1c0-1.4,0-2.7,0-4.4
			c0-0.8,0-1.6-0.1-2.4c-0.2-0.5-0.8-0.5-1-0.5L740.4,632.4z M750,635.4c0-0.1,0.2-0.1,0.3-0.1c1.3,0,9.5,2.3,9.5,5.3
			c0,1.2-0.6,2.1-1.5,2.1c-0.7,0-0.8-0.2-1.9-1.8c-1.6-2.2-3.7-4-6.2-5.2C750.1,635.5,750,635.4,750,635.4L750,635.4z"/>
		<path id="パス_414" class="st0" d="M771.7,630.2c0-1.1,1-2.2,3.5-5.1c1.3-1.6,2.4-3.4,3.1-5.4c0-0.2-0.3-0.3-0.4-0.3
			c-0.4,0-1.8,0.3-2.2,0.3c-1.6-0.2-2.9-1.5-3.2-3.2c0-0.1,0-0.3,0.2-0.3c0.5,0.2,0.9,0.4,1.4,0.7c0.7,0.4,1.5,0.6,2.4,0.6
			c3,0,3-1,3-1.7c0-0.4-0.1-0.9-0.3-1.3c-0.1-0.2-0.9-0.8-0.9-1c0-0.3,0.9-0.6,1.6-0.6c0.9,0,1.8,0.3,1.8,1.1c0,0.5,0.2,0.5,1.6,0.6
			c0.3,0,1.6,0.2,1.6,0.9c0,1.2-2.6,2.2-4.3,2.8c-0.5,0.2-0.6,0.3-1.4,2.1c-0.5,1.3-1.2,2.6-1.9,3.9c-0.2,0.3-0.3,0.4-0.3,0.6
			c0,0.1,0,0.1,0.1,0.1l0,0c0.4-0.1,0.8-0.2,1.1-0.4c0.4-0.2,0.9-0.3,1.4-0.3c1.4,0,2.6,0.9,3.1,2.2c0.3,0.6,0.3,0.7,0.4,0.7
			c0.5-0.6,1-1.3,1.5-1.9c1.2-1.7,3.5-4.9,6.7-4.9c1.8,0,3.3,1.4,3.4,3.2c0,1.7-2.8,2.9-5.1,3.9c-0.9,0.4-5,2-5.6,2.4
			s-0.6,0.8-0.6,1.5c0,0.3,0.1,1.8,0.1,2.2c0,0.6,0,2.6-1.3,2.6c-1,0-1.1-1.2-1.1-1.8c0-0.4,0.1-2.1,0.1-2.1c0-0.1,0-0.4-0.3-0.4
			s-3.5,2.2-3.5,4.3c0,2.5,3.6,2.5,4.6,2.5c0.8,0,1.5-0.1,2.3-0.2c0.5-0.1,2.8-0.6,3.3-0.6c0.8,0,1.8,0.4,1.8,1.2
			c0,2.2-5.6,2.4-6.4,2.4c-4.6,0-7-1.9-7-4.7c0-2.3,1.4-3.5,4.8-6.2c0.4-0.3,0.6-0.8,0.5-1.3c0-1.6-0.3-3.6-1.7-3.6
			s-3.5,1.7-4.4,3.8c-0.4,0.9-0.8,1.8-1.9,1.8C772.4,631.4,771.7,631.2,771.7,630.2z M780.9,616.6c0.1,0,1.8-0.5,1.8-0.9
			c0-0.5-0.9-0.5-1.2-0.5c-0.5,0-0.6,1-0.6,1.2S780.8,616.6,780.9,616.6z M784.2,628.2c0,0.1,0,0.2,0.1,0.2s7.2-2.9,7.2-5.3
			c0-0.6-0.5-1.1-1.1-1.1h-0.1C787.3,622.1,784.2,627.7,784.2,628.2L784.2,628.2z"/>
		<path id="パス_415" class="st0" d="M818.1,621.6c0,1.2-2.7,2.3-3.6,2.6c-0.5,0.2-0.5,0.3-0.6,1.6c-0.1,0.8-0.1,3.7-0.1,3.9
			s0,0.6,0.3,0.6c0.1,0,3.1-1.2,3.6-1.4c3.6-1.3,5.2-1.4,6.1-1.4c3,0,5.5,2.4,5.5,5.4c0,4.8-5,6.9-8,6.9c-2.1,0-3.7-1-3.7-2.9
			c0-1.2,0.7-2.3,1.8-2.8c0.1,0,0.2,0.1,0.2,0.2c0,0.1-0.1,0.2-0.1,0.3c-0.2,0.3-0.3,0.6-0.3,1c0,1.7,2,1.7,2.3,1.7
			c2.4,0,5.4-1.6,5.4-4.5c0.1-2-1.4-3.8-3.5-4c-1,0-3.2,0.5-7.5,2.7c-2,1.1-2.2,1.2-2.2,1.8c0,0.4,0.1,2,0.1,2.4c0,1.7-0.5,4-1.8,4
			c-1,0-1.4-0.8-1.7-1.3c-1.2-2.2-1.3-2.2-1.8-2.2c-0.3,0-0.6,0.1-0.9,0.2c-0.4,0.3-0.9,0.5-1.4,0.7c-0.4,0-2.2-1.1-2.2-2.3
			c0-0.6,0.4-1.4,1-1.4c0.2,0,1.3,0.2,1.5,0.2c1,0,1.6-0.2,3.7-1.2c1.8-0.9,2.1-1,2.1-2c0-0.8,0-3.9-0.1-4.5c0-0.3-0.1-0.8-0.5-0.8
			c-0.6,0.1-1.1,0.2-1.7,0.3c-0.8,0.4-1.7,0.6-2.6,0.7c-1.2,0-2.6-2.5-2.6-2.7c0-0.1,0.1-0.3,0.3-0.3l0,0c0.1,0,0.5,0.1,0.6,0.1
			c0.5,0.1,1.1,0.2,1.7,0.2c1.6-0.1,3.1-0.5,4.6-1.1c0.2-1.3,0.3-2.6,0.4-3.9c0.1-1.1-0.4-2.2-1.2-2.9c-0.2-0.2-0.4-0.4-0.5-0.6
			c0-0.3,0.6-0.4,0.8-0.4c2.4,0,3.7,1.8,3.7,2.4c-0.2,0.6-0.5,1.3-0.8,1.9c-0.2,0.8-0.3,1.6-0.4,2.3c0,0.1,0.1,0.4,0.3,0.4
			c0.3,0,1.3-0.4,1.3-0.9c0-0.1-0.2-0.4-0.2-0.5l0.1-0.1C816.4,619.9,818.1,620.4,818.1,621.6z M809.9,635.3c0,0.5,1,1.7,1.5,1.7
			s1-1,1-2.8c0-0.1,0-0.5-0.1-0.6C812.2,633.7,809.9,634.8,809.9,635.3L809.9,635.3z M833.5,624.1c0,0.8-0.4,1.7-1.2,1.7
			c-0.2,0-1-0.1-1.2-0.1s-0.9,0.3-1.1,0.3c-0.1,0-0.2-0.1-0.2-0.2l0,0c0-0.1,0.1-0.2,0.1-0.3c0.1-0.2,0.1-0.4,0.1-0.6
			c0-1.4-1.8-1.9-3-1.9c-0.5,0-1,0.1-1.4,0.4c-0.1,0.1-0.2,0.1-0.4,0.1c-0.1,0-0.1,0-0.1-0.1c0.8-1.4,2.3-2.2,3.9-2.3
			C831.8,621,833.5,622.5,833.5,624.1L833.5,624.1z"/>
		<path id="パス_416" class="st0" d="M865.3,626.9c0.5,0.1,1-0.1,1.4-0.5c0.6-0.7,0.7-0.8,0.9-0.8c0.3,0,3,1.3,3,2
			c0,0.3-0.2,0.4-0.5,0.6c-0.4,0.3-0.6,0.4-0.8,0.6c-0.1,0.2-0.1,5.3-0.1,5.7c0,0.5,0.1,5,0.1,6c0,0.2,0.1,1.1,0.1,1.3
			c0,1-0.8,1.9-1.8,1.9s-1-0.7-1-1.5c0-1.1-0.7-1.1-1.1-1.1h-13.7c-1.1,0-1.1,0.6-1.2,1.3c0,0.8-1.3,1.5-1.9,1.5c-1,0-1-0.7-1-0.9
			c0-0.4,0.1-1.7,0.1-2.2c0.1-1.2,0.1-10.7,0.1-12.9c0-0.3-0.3-2-0.3-2.2s0.2-0.3,0.4-0.3c0.6,0.2,1.2,0.5,1.8,0.8
			c0.7,0.4,1.5,0.6,2.4,0.6h3.6c1,0,1-0.5,1-1.5c0-1.4-0.1-2.9-0.3-4.3c-0.2-0.6-0.5-0.6-0.8-0.6h-9c-0.7,0-1.2,0-1.2,1
			c-0.2,5.4-0.3,8.2-1.4,12.6c-0.8,3.3-2.5,6.3-5,8.6c-0.1,0-0.1-0.1-0.1-0.1s0.6-1.2,0.8-1.4c3.1-6.3,3.1-14.3,3.1-19.5
			c0.1-2.4,0-4.8-0.3-7.2c0-0.4-0.4-1.9-0.4-2.3c0-0.2,0.1-0.4,0.3-0.4h0.1c0,0,2.2,1.2,2.3,1.3c0.6,0.3,1.3,0.5,2.1,0.4h18
			c0.5,0.1,1-0.1,1.4-0.5s0.5-0.5,0.7-0.5c0.4,0,2.8,1.6,2.8,2.1c0,0.2-0.2,0.4-0.4,0.5c-0.2,0.2-0.4,0.4-0.6,0.6c0,0.1,0,4,0,4.3
			c0,0.4,0,2.2-1.9,2.2c-0.8,0-0.9-0.5-1-1c-0.1-0.6-0.7-0.6-1-0.6h-5.4c-0.4,0-0.4,0-0.4,0.1s0.1,0.2,0.5,0.3
			c0.2,0,0.6,0.2,0.6,0.5c0,0.2-0.5,0.9-0.6,1c-0.2,1-0.3,2.1-0.2,3.1c0,1,0.1,1.4,1.1,1.4L865.3,626.9z M846.8,614.5
			c-1.2,0-1.2,0.3-1.2,2.6s0,2.5,1.2,2.5H865c1.2,0,1.2-0.1,1.2-3.6c0-1,0-1.5-1.2-1.5H846.8z M855.8,633.1c1.1,0,1.1-0.3,1.1-2.7
			c0-2,0-2.5-1.1-2.5h-4.3c-1.1,0-1.1,0.5-1.1,1.9c0,3.1,0.1,3.3,1.1,3.3H855.8z M855.8,640.1c1,0,1-0.3,1-2.8c0-2.8,0-3.2-1-3.2
			h-4.2c-1,0-1,0.5-1,1.6c0,4.4,0.1,4.4,1.1,4.4H855.8z M860.4,627.9c-1.1,0-1.1,0.3-1.1,2.4c0,2.5,0,2.8,1.1,2.8h5.2
			c1.1,0,1.1-0.3,1.1-2.4c0-2.6,0-2.8-1.1-2.8H860.4z M860.4,634.1c-0.3,0-0.6,0-0.9,0.2c-0.3,0.3-0.3,0.6-0.3,3.6
			c0,1.8,0,2.2,1.1,2.2h5.1c1,0,1.2,0,1.2-4.1c0-1.5,0-1.9-1.2-1.9H860.4z"/>
		<path id="パス_417" class="st0" d="M884.7,619.6c-0.3,1.3-0.8,2.6-1.3,3.8c-0.7,2.2-1.1,4.5-1.2,6.8c0,1.6,0.4,3.7,0.8,3.7
			c0.8,0,2.6-6.4,3.2-6.4c0.1,0,0.1,0.1,0.1,0.3c0,0.3-0.7,3.4-0.9,4.1c-0.4,1.6-0.6,3.1-0.7,4.7c0,0.6,0.1,1.1,0.4,1.6
			c0.2,0.5,0.4,0.9,0.4,1.4c0,0.6-0.5,1.1-1.2,1.1l0,0c-1.4,0-2.3-2.1-2.9-4c-0.7-1.9-1-4-1-6c0.1-2.7,0.4-5.5,0.9-8.1
			c0.3-1.3,0.4-2.6,0.4-3.9c0-0.8-0.1-1.7-0.4-2.4c-0.1-0.2-0.2-0.5-0.2-0.7c0-0.1,0-0.3,0.3-0.3
			C882.6,615.1,884.7,617.5,884.7,619.6z M900.5,624.3c0,7.5-0.3,10.4-2.2,13.4s-4.9,4.5-5.4,4.5c-0.1,0-0.2,0-0.2-0.1
			s1.8-2,2.1-2.4c3.1-4.1,3.4-7.6,3.4-14.4c0-1.2-0.1-1.4-0.6-1.4c-0.4,0-1.9,0.1-2.2,0.1c-3.5,0-5.1-1.7-5.1-2.5
			c0-0.1,0-0.1,0.1-0.1c0.2,0,0.6,0.2,0.8,0.2c0.7,0.1,1.5,0.2,2.3,0.2c0.5,0,3.2,0,4.2-0.6c0.2-0.1,0.3-0.3,0.3-1.5
			c0-1.4-0.2-2.9-0.6-4.3c-0.2-0.2-0.4-0.5-0.5-0.7c0-0.2,0.4-0.4,0.9-0.4c1,0,3.1,1,3.1,1.7c0,0.3-0.5,1.4-0.6,1.6
			c-0.1,0.6-0.1,1.2-0.1,1.9c0,0.6,0.1,0.9,0.4,0.9c0.4-0.1,0.7-0.3,0.9-0.6c0.4-0.5,0.4-0.5,0.7-0.5s1.9,0.3,1.9,1.2
			c0,1.1-1.2,1.8-2.1,2.2c-1.1,0.5-1.3,0.6-1.4,0.8C900.6,623.6,900.5,624,900.5,624.3z"/>
	</g>
</g>
<path id="長方形_12" class="st1" d="M5,0h372.7c2.8,0,5,2.2,5,5v39.5c0,2.8-2.2,5-5,5H5c-2.8,0-5-2.2-5-5V5C0,2.2,2.3,0,5,0z"/>
<g id="グループ_84" transform="translate(-521.969 -527.568)">
	<g id="グループ_83">
		<path id="パス_426" class="st0" d="M548.8,551.4c-1.8,0-2.3,0-2.5,0.1c-0.1,0-0.4,0-0.4,0c-0.1,0-0.1,0-0.2-0.1l-0.4-0.5
			c-0.1-0.1-0.1-0.1-0.1-0.1s0,0,0.1,0s0.8,0.1,0.9,0.1c1,0,1.8,0.1,2.7,0.1h5.4c0.9,0,1.1,0,1.3-0.3c0.5-0.7,0.5-0.8,0.7-0.8
			c0.3,0,1.7,1,1.7,1.4c0,0.3-0.4,0.3-1.1,0.3H553c-0.6,0-0.6,0.2-0.6,1.9c0,1.6,0,1.7,0.6,1.7h1.4c0.9,0,1,0,1.3-0.3
			c0.4-0.6,0.4-0.7,0.6-0.7c0.2,0,1.4,1,1.4,1.3c0,0.1-0.1,0.2-0.3,0.2s-0.5,0-0.7,0h-3.6c-0.6,0-0.6,0.1-0.6,1.3c0,0.7,0,2.9,0.1,3
			c0.1,0.2,0.2,0.2,0.5,0.2c0.2,0,1.2,0.1,2.2,0.1c1.8,0,3.6-0.2,5.3-0.6c0.2-0.1,0.4-0.2,0.6-0.2c0,0,0.1,0,0.1,0.1s-1.2,1-1.4,1.2
			c-0.1,0.3-0.2,0.5-0.3,0.8s-0.9,0.3-1.2,0.3c-8,0-9-1.1-10.3-2.7c-0.4-0.4-0.7-0.9-0.9-1.4c0-0.1-0.1-0.2-0.1-0.2
			c-0.1,0-0.1,0.1-0.3,0.4c-1.9,3-3.6,3.4-3.7,3.4c-0.1,0-0.1,0-0.1-0.1c0,0,0.3-0.3,0.3-0.4c1.8-1.9,3-4.4,3.4-7
			c0.1-0.9,0.1-1,0.2-1c0.1,0,1.7,0.5,1.7,0.7c0,0.1-0.4,0.4-0.4,0.5c-0.1,0.3-0.5,1.7-0.6,2c0,0-0.3,1-0.3,1.1c0,1,2.6,2.8,3.7,2.8
			c0.3,0,0.3-0.3,0.3-0.4c0-1.1,0-6.1,0-7.2c0-0.5,0-0.8-0.6-0.8L548.8,551.4z M545.8,547.8c-0.3,0-0.4,0-0.5,0.4
			c-0.4,1.2-1,1.7-1.5,1.7c-0.3,0-0.7-0.2-0.7-0.6c0-0.3,0.1-0.4,0.6-0.9c0.4-0.5,0.8-1.1,1-1.8c0.1-0.2,0.1-0.3,0.2-0.3
			c0.1,0,0.3,0.3,0.4,0.7c0.1,0.3,0.2,0.3,0.5,0.3h4.8c0.5,0,0.5-0.3,0.5-0.6s0-1.2-0.1-1.5c0-0.2-0.1-0.9-0.1-1.1
			c0-0.1,0.1-0.1,0.1-0.1s1.4,0.3,2,0.5c0.1,0,0.1,0.1,0.1,0.2c0,0.1-0.5,0.5-0.5,0.6c-0.1,0.4-0.1,0.9-0.1,1.3
			c0,0.7,0.2,0.8,0.6,0.8h3.9c0.5,0,0.6,0,0.9-0.2c0.3-0.2,0.5-0.4,0.7-0.4c0.1,0,1.8,1,1.8,1.6c0,0.4-0.5,0.4-0.6,0.4
			s-0.9-0.1-1-0.1c-0.4,0-0.8,0.1-1.1,0.3c-0.2,0.1-0.4,0.2-0.6,0.3H557l0,0c0-0.2,0.5-0.9,0.5-1.1c0-0.1-0.1-0.1-0.4-0.1
			L545.8,547.8z"/>
		<path id="パス_427" class="st0" d="M567,556c-0.6,0-1.5,0-2.2,0.1c-0.1,0-0.4,0-0.4,0c-0.1,0-0.1,0-0.2-0.1l-0.4-0.5
			c-0.1-0.1-0.1-0.1-0.1-0.1s0,0,0.1,0c0.3,0,1.6,0.1,2,0.1c0.3,0,0.5-0.1,0.5-0.4l0,0c0-0.2,0.1-6.2,0.1-6.8c0-0.3-0.1-0.6-0.6-0.6
			c-0.1,0-0.9,0.1-1,0.1s-0.1,0-0.2-0.1l-0.4-0.5c-0.1-0.1-0.1-0.1-0.1-0.1s0,0,0.1,0c0.2,0,1.3,0.1,1.5,0.1c0.6,0,0.6-0.3,0.6-0.8
			c0-0.4,0-0.8,0-1.2c0-0.1,0-0.7,0-0.7c0-0.1,0.1-0.2,0.2-0.2c0,0,1.6,0.2,1.6,0.6c0,0.1-0.1,0.2-0.4,0.4c-0.1,0.4-0.2,0.9-0.1,1.3
			c0,0.7,0.3,0.7,0.7,0.7h1.5c0.4,0,0.8,0,0.8-0.6c0-0.3-0.1-1.7-0.1-2.1c0-0.1,0-0.2,0.1-0.2l0,0c0,0,1.6,0.3,1.6,0.7
			c0,0.1-0.3,0.3-0.3,0.4c-0.1,0.4-0.2,0.9-0.1,1.4c0,0.2,0,0.3,0.2,0.3s0.3-0.2,0.4-0.3c0.3-0.4,0.4-0.5,0.5-0.5
			c0.5,0.2,0.9,0.6,1.2,1.1c0,0.2-0.4,0.2-0.9,0.2h-0.7c-0.7,0-0.7,0.1-0.7,1v6.5c0,0.1,0,0.3,0.2,0.3s0.3-0.1,0.4-0.3
			c0.3-0.6,0.4-0.7,0.6-0.7c0.3,0,1.2,1.1,1.2,1.3c0,0.3-0.3,0.3-0.7,0.3L567,556z M568.6,558c0,0.2-0.1,0.3-0.6,0.5
			c-0.4,0.2-3.4,3.5-4.3,3.5c-0.1,0-0.1,0-0.1-0.1c0,0,1.2-1.4,1.4-1.7c0.7-0.9,1.2-1.9,1.7-2.9c0.1-0.2,0.1-0.4,0.2-0.4
			c0.3,0.1,0.6,0.2,0.8,0.4C568.6,557.7,568.6,557.8,568.6,558z M569.7,549.8c0.8,0,0.8-0.2,0.8-1.5c0-0.7-0.2-0.8-0.8-0.8h-1.3
			c-0.8,0-0.8,0.2-0.8,1.5c0,0.7,0.2,0.8,0.8,0.8H569.7z M569.7,552.7c0.5,0,0.8,0,0.8-0.6v-1.2c0-0.5-0.4-0.5-0.8-0.5h-1.3
			c-0.5,0-0.8,0-0.8,0.6c0,0.1,0,1.2,0,1.2c0,0.5,0.4,0.5,0.8,0.5H569.7z M568.3,553.2c-0.5,0-0.7,0-0.7,0.7v0.9
			c0,0.7,0.2,0.7,0.7,0.7h1.5c0.5,0,0.7,0,0.7-0.7v-0.9c0-0.7-0.2-0.7-0.7-0.7H568.3z M573.1,559.8c0,0.4-0.2,0.8-0.7,0.8
			s-0.6-0.4-0.9-1.3c-0.2-0.7-0.6-1.3-1.1-1.8c-0.1-0.1-0.3-0.3-0.3-0.4c0,0,0-0.1,0.1-0.1l0,0c0.5,0.2,0.9,0.4,1.4,0.7
			C572,558,573.1,558.6,573.1,559.8L573.1,559.8z M578.9,545.1c0.2,0,0.3,0,0.5-0.1c0.1-0.1,0.5-0.5,0.7-0.5s1.4,0.5,1.4,0.9
			c0,0.1-0.1,0.2-0.2,0.3c-0.3,0.2-0.3,0.3-0.4,0.4c-0.1,1.1-0.1,2.3-0.1,3.4c0,1.2,0.1,7,0.1,9.3c0,0.2,0.1,1,0.1,1.1
			c0.1,1-0.6,1.8-1.6,1.9h-0.1c-0.3,0-0.3,0-0.5-0.3c-0.4-0.6-0.9-1-1.6-1.2c0,0-0.4-0.2-0.3-0.2c0.1,0,1.3,0,1.5,0
			c0.8,0,0.9-0.1,1-0.5c0.1-0.3,0.1-3.6,0.1-4.2c0-0.8-0.1-0.8-0.8-0.8h-2.3c-0.8,0-0.8,0.1-0.8,0.9c-0.1,3.2-2.3,6.5-2.7,6.5
			c0,0-0.1,0-0.1-0.1c0.1-0.2,0.1-0.3,0.2-0.5c1.4-3.2,1.4-6.7,1.4-9.6c0.1-2.1,0-4.2-0.3-6.3c0-0.2-0.2-0.9-0.2-1s0.1-0.1,0.1-0.1
			c0.5,0.2,1.1,0.4,1.6,0.6c0.2,0,0.4,0,0.6,0L578.9,545.1L578.9,545.1z M578.9,549.5c0.5,0,0.7,0,0.7-0.7v-2.6
			c0-0.7-0.3-0.7-0.8-0.7h-2.3c-0.6,0-0.8,0-0.8,0.7c0,0.4,0,2.1,0,2.5c0,0.7,0.3,0.7,0.8,0.7L578.9,549.5L578.9,549.5z M578.9,554
			c0.5,0,0.8,0,0.8-0.6c0-0.7,0-2,0-2.7s-0.3-0.7-0.8-0.7h-2.2c-0.5,0-0.8,0-0.8,0.7c0,0.4,0,2.3,0,2.7c0,0.6,0.3,0.6,0.7,0.6H578.9
			z"/>
		<path id="パス_428" class="st0" d="M588.7,550.2c-0.1,0.4-0.1,4.8-0.1,5.6c0,0.9,0,4.7,0,5.5c0,0.6-0.4,0.8-1,0.8
			c-0.4,0-0.5-0.3-0.5-0.6c0-0.2,0.1-1.2,0.1-1.3c0.1-1.4,0.1-3.4,0.1-4.7c0-1.1,0-3.3,0-4.5c0-0.1,0-0.4-0.1-0.4s-0.2,0.2-0.3,0.3
			c-0.5,0.7-1.1,1.3-1.8,1.8c-0.1,0-0.1,0-0.1-0.1s0.8-1.3,1-1.6c1.3-2.1,2.2-4.4,2.8-6.8c0-0.4,0-0.4,0.2-0.4
			c0.1,0,1.9,0.7,1.9,1.1c0,0.2-0.2,0.3-0.4,0.4c-0.2,0.1-0.4,0.2-0.5,0.4c-0.5,0.9-1,1.9-1.5,2.8c-0.1,0.1-0.1,0.2-0.2,0.4
			c0,0.1,0.1,0.2,0.2,0.2c0.2,0.1,0.5,0.2,0.6,0.4C589,549.7,588.7,550.1,588.7,550.2z M597.8,554.7c-0.5,0-0.6,0.3-0.6,0.6
			c0,0.9-0.1,1.7-0.4,2.6c-0.1,0.3-0.2,0.6-0.3,1c0,0.2,0.1,0.3,0.9,0.6c1.7,0.6,3.5,0.9,5.2,0.9c0.1,0,0.6,0,0.7,0
			c0,0,0.1,0,0.1,0.1s-0.3,0.2-0.4,0.3c-0.4,0.2-0.7,0.5-0.9,0.8c-0.2,0.4-0.3,0.6-0.6,0.6c-1.8-0.3-3.5-0.9-5.1-1.8
			c-0.5-0.3-0.6-0.3-0.7-0.3c-0.3,0.1-0.5,0.3-0.7,0.5c-1.4,1.1-3.1,1.7-4.8,1.8c-0.1,0-0.3,0-0.3-0.1s0.1-0.1,0.5-0.2
			c1.6-0.3,4.4-2.2,4.4-2.8c0-0.1,0-0.2-0.4-0.6c-0.7-0.9-1.2-1.8-1.6-2.9c0-0.1,0.1-0.2,0.2-0.2l0,0c0.1,0,0.2,0.2,0.4,0.5
			c0.5,0.8,1.5,2.3,1.9,2.3s0.6-2.1,0.6-2.8c0-0.4,0-0.7-0.5-0.7h-2.1c-0.3,0-0.4,0.1-0.5,0.2c-0.2,0.4-0.6,0.6-1,0.6
			c-0.5,0-0.5-0.5-0.5-0.7c0-0.4,0.1-2.2,0.1-2.6c0-1,0-2.1-0.1-3.4c0-0.1-0.1-0.8-0.1-1s0.1-0.2,0.1-0.2c0.4,0.1,0.7,0.2,1.1,0.4
			c0.3,0.2,0.7,0.3,1.1,0.3h1.9c0.6,0,0.6-0.2,0.6-1.3c0-0.8,0-1.1-0.6-1.1h-1.1c-0.6,0-1.6,0-2.4,0c-0.1,0-0.5,0.1-0.6,0.1
			s-0.1,0-0.2-0.1l-0.4-0.5c-0.1-0.1-0.1-0.1-0.1-0.1s0,0,0.1,0s0.7,0.1,0.9,0.1c0.6,0,1.6,0.1,2.7,0.1h4.8c1,0,1.1,0,1.4-0.5
			c0.4-0.7,0.5-0.8,0.7-0.8c0.7,0.3,1.3,0.9,1.6,1.6c0,0.3-0.4,0.3-1.1,0.3h-4.1c-0.6,0-0.6,0.2-0.6,1.1c0,1,0,1.3,0.6,1.3h1.8
			c0.2,0,0.4-0.1,0.6-0.2c0.3-0.4,0.4-0.4,0.5-0.4c0.2,0,1.5,0.8,1.5,1c0,0.1-0.1,0.2-0.3,0.3s-0.3,0.3-0.3,0.5c0,0.7,0,1.5,0,2.1
			c0,0.4,0.1,2.6,0.1,3c0,0.8-0.8,0.9-1,0.9s-0.4-0.1-0.4-0.5c-0.1-0.4-0.4-0.4-0.6-0.4L597.8,554.7z M595.4,551.2
			c0.6,0,0.6-0.1,0.6-1.5c0-0.7,0-0.9-0.6-0.9h-2.1c-0.6,0-0.6,0.1-0.6,1.5c0,0.7,0,0.9,0.6,0.9H595.4z M595.5,554.2
			c0.6,0,0.6-0.3,0.6-0.9c0-1.4,0-1.5-0.6-1.5h-2.2c-0.5,0-0.5,0.3-0.5,0.9c0,1.4,0,1.6,0.6,1.6L595.5,554.2z M597.9,548.8
			c-0.6,0-0.6,0.3-0.6,0.9c0,1.1,0,1.3,0.1,1.4c0.1,0.1,0.3,0.2,0.5,0.1h1.9c0.6,0,0.6-0.3,0.6-0.9c0-1,0-1.3-0.1-1.4
			c-0.1-0.1-0.3-0.2-0.5-0.1H597.9z M597.9,551.7c-0.6,0-0.6,0.3-0.6,0.8c0,1.4,0,1.6,0.6,1.6h1.8c0.6,0,0.6-0.3,0.6-0.8
			c0-1.4,0-1.6-0.6-1.6H597.9z"/>
		<path id="パス_429" class="st0" d="M607.9,548.9c0.8,0,1.1-0.1,3.9-0.9c1.8-0.5,6.4-1.8,7.7-1.8c0.7,0,1.6,0.3,1.6,1
			c0,0.4-0.4,0.8-0.8,0.7c-0.3,0-1.4-0.2-1.6-0.2c-2.5,0-5.4,2.3-5.4,7.5c0,3.4,1.3,3.6,2.4,3.6c0.3,0,1.7-0.1,1.9-0.1
			c0.6,0,1,0.3,1,0.7c0,1.1-2.2,1.1-2.3,1.1c-4.1,0-4.1-3.3-4.1-4.3c0-0.9,0-5.1,2.9-7.7c0.2-0.1,0.3-0.3,0.5-0.4h-0.1
			c-1.2,0-5.3,1.8-6,2.1c-0.2,0.1-0.4,0.2-0.7,0.3c-1,0-2-1.3-1.7-1.6C607.2,548.8,607.8,548.9,607.9,548.9z M620.7,553.4
			c0,0.4-0.3,0.8-0.7,0.8s-0.5-0.4-0.9-1.2c-0.2-0.6-0.6-1.1-1-1.6c-0.1-0.1-0.2-0.2-0.2-0.4c0-0.1,0.2-0.1,0.4-0.1
			C619.6,551.2,620.5,552.2,620.7,553.4L620.7,553.4z M623.1,552.4c0,0.5-0.3,0.7-0.6,0.7c-0.5,0-0.7-0.6-0.9-1.1
			c-0.3-0.6-0.8-1.2-1.3-1.6c-0.1-0.1-0.2-0.2-0.2-0.3s0.2-0.1,0.3-0.1c0.2,0,0.3,0,0.5,0.1C622.1,550.6,623.1,551.4,623.1,552.4z"
			/>
		<path id="パス_430" class="st0" d="M635.3,547.4c0,0.1,0,0.1,0,0.2c0.1,0.7,0.2,1.4,0.2,2.2c-0.1,2.1-0.8,4.2-2.1,5.9
			c-1.6,2.4-2.6,2.9-3.4,2.9c-1.3,0-2.5-2.1-2.5-4.5c0-1.9,0.8-3.8,2.2-5.1c1.6-1.8,4-2.7,6.4-2.6c1.1-0.1,2.2,0.2,3.2,0.6
			c2.2,1.1,3.6,3.4,3.5,5.8c0,3.2-2,6-5,7c-1.1,0.4-2.2,0.6-3.3,0.7c-0.1,0-0.2,0-0.2-0.1s0-0.1,0.5-0.3c2.1-0.8,6.4-2.5,6.4-7.5
			c0-0.8-0.1-5.5-5.5-5.5C635.3,547.1,635.3,547.2,635.3,547.4z M628.8,553.5c0,1.3,0.5,3.1,1.7,3.1c0.6,0,1.1-0.2,2.4-2.3
			c1.2-1.7,1.8-3.7,2-5.8c0-1.2-0.1-1.3-0.3-1.3C632.7,547.1,628.8,549.7,628.8,553.5L628.8,553.5z"/>
		<path id="パス_431" class="st0" d="M650.5,558.9c0,0.2-0.2,0.3-0.6,0.5c-0.1,0-1.6,1.4-1.9,1.7c-0.5,0.4-1,0.7-1.6,1
			c0.2-0.3,0.4-0.7,0.7-1c0.6-0.8,1.2-1.7,1.6-2.6c0.1-0.3,0.2-0.5,0.3-0.7C649,557.7,650.5,558.6,650.5,558.9z M649.6,557
			c-0.2,0-0.5,0-0.6,0.3c-0.1,0.4-0.5,0.7-0.9,0.8c-0.5,0-0.5-0.4-0.5-1c0-0.9,0.1-5.4,0.1-6.5c0-1.9,0-3.1-0.1-4.2
			c0-0.2-0.2-1.1-0.2-1.3c0-0.1,0-0.2,0.2-0.2c0.3,0,0.7,0.1,1,0.3c0.3,0.1,0.5,0.2,0.8,0.1h1.6c0.2,0,0.4,0,0.6-0.1
			c0.1,0,0.4-0.3,0.5-0.3s1.4,0.9,1.4,1.2c0,0.1-0.1,0.2-0.2,0.3c-0.1,0-0.4,0.3-0.4,0.3c-0.1,1.2-0.2,2.4-0.2,3.6
			c0,0.9,0.1,5.6,0.1,6.7c0,0.3,0,0.9-1,0.9c-0.3,0-0.3-0.1-0.5-0.6c-0.1-0.3-0.5-0.3-0.6-0.3H649.6z M649.6,549.6
			c-0.6,0-0.6,0.3-0.6,1.2c0,1.9,0,2,0.6,2h1.2c0.6,0,0.6,0,0.6-2c0-0.9,0-1.2-0.6-1.2H649.6z M649.6,545.9c-0.6,0-0.6,0-0.6,2
			c0,0.9,0,1.2,0.6,1.2h1.1c0.6,0,0.6,0,0.6-2c0-0.9,0-1.2-0.6-1.2H649.6z M649.7,553.3c-0.6,0-0.6,0.3-0.6,0.9c0,2.1,0,2.3,0.6,2.3
			h1c0.6,0,0.6-0.2,0.6-2.1c0-0.8,0-1.1-0.6-1.1L649.7,553.3z M653.6,561.1c0,0.4-0.3,0.8-0.7,0.9c-0.4,0-0.5-0.1-1-1.9
			c-0.2-0.7-0.6-1.3-0.9-1.9l-0.1-0.2C651.1,557.7,653.6,559.4,653.6,561.1L653.6,561.1z M659.8,551.2c-0.5,0-0.7,0.1-0.7,0.6
			c0,1.1,0,1.2,0.6,1.2h1c0.2,0,0.4,0,0.6-0.2c0.1-0.1,0.5-0.4,0.6-0.4c0.2,0,1.5,1,1.5,1.2c0,0.1-0.2,0.2-0.4,0.2
			c-0.3,0.1-0.3,0.1-0.3,0.9c0,0.3,0,1.5,0,1.8c0,1.1,0,1.3,0.2,1.3c0.1,0,0.2-0.1,0.3-0.3c0.1-0.1,0.3-0.4,0.5-0.4
			c0.5,0.3,0.9,0.7,1.2,1.2c0,0.3-0.4,0.3-1,0.3h-0.6c-0.3,0-0.5,0.1-0.6,0.4v1.4c0.1,0.6-0.1,1.1-0.6,1.5c-0.4,0.3-0.9,0.4-1.4,0.4
			c-0.1,0-0.2,0-0.3-0.1c-0.1-0.2-0.3-0.4-0.4-0.6c-0.1-0.2-0.9-0.9-0.9-1s0.1-0.1,0.2-0.1c0.1,0,0.9,0.1,1.1,0.1c1,0,1-0.1,1-1.4
			c0-0.4,0-0.7-0.6-0.7h-4.2c-0.6,0-0.6,0.3-0.6,0.8c0,0.3,0.1,1.9,0.1,2c0,0.3,0,0.5-0.2,0.6c-0.2,0.2-0.5,0.3-0.8,0.3
			c-0.4,0-0.5-0.3-0.5-0.5c0-0.4,0.1-2.2,0.1-2.7c0-0.6-0.4-0.6-0.5-0.6s-0.7,0.1-0.7,0.1c-0.1,0-0.1-0.1-0.2-0.1l-0.4-0.5
			c-0.1-0.1-0.1-0.1-0.1-0.1c0-0.1,0-0.1,0.1-0.1c0,0,1.1,0.1,1.3,0.1c0.6,0,0.6-0.4,0.6-0.7c0-1.3,0-2.7-0.2-4
			c0-0.1-0.2-0.6-0.2-0.8c0,0,0-0.1,0.1-0.1c0.5,0.1,0.9,0.3,1.3,0.5c0.3,0.1,0.6,0.2,0.9,0.2h0.7c0.3,0,0.4-0.1,0.4-0.5
			c0-1,0-1.3-0.6-1.3h-0.8c-0.5,0-1.8,0-2.5,0.1c-0.1,0-0.4,0-0.4,0c-0.1,0-0.1,0-0.2-0.1l-0.4-0.5c-0.1-0.1-0.1-0.1-0.1-0.1
			s0,0,0.1,0c0.3,0,2,0.1,2.4,0.1c0.5,0,0.6-0.2,0.6-1.2c0-0.4-0.1-0.6-0.5-0.6c-0.2,0-1.1,0.1-1.2,0.1c-0.1,0-0.1,0-0.2-0.1
			l-0.4-0.5c-0.1-0.1-0.1-0.1-0.1-0.1s0-0.1,0.1-0.1c0.2,0,1.5,0.1,1.8,0.1c0.5,0,0.5-0.4,0.5-0.7c0-0.7,0-1.1-0.5-1.1
			c-0.2,0-1.1,0.1-1.2,0.1c-0.1,0-0.1,0-0.2-0.1l-0.4-0.5c-0.1-0.1-0.1-0.1-0.1-0.1s0-0.1,0.1-0.1c0.3,0,1.5,0.1,1.8,0.1
			c0.4,0,0.4-0.3,0.4-0.5c0,0,0-0.2,0-0.4c0-0.1-0.2-0.7-0.2-0.8c0-0.2,0.1-0.2,0.3-0.2c0,0,1.5,0.2,1.5,0.4c0,0.1,0,0.1-0.2,0.4
			c-0.1,0.2-0.1,0.4-0.1,0.6c0,0.5,0.4,0.5,0.6,0.5h1.3c0.1,0,0.5,0,0.5-0.5c0-0.2,0-0.3-0.1-0.5s-0.1-0.4-0.1-0.7
			c0-0.1,0.1-0.2,0.3-0.2s1.6,0.2,1.6,0.6c0,0.1-0.1,0.1-0.3,0.3c-0.1,0.1-0.2,0.2-0.2,0.5c0,0.5,0.3,0.5,0.6,0.5s0.5-0.1,0.7-0.3
			c0.4-0.5,0.4-0.6,0.6-0.6c0.3,0,1.3,0.8,1.3,1.2c0,0.3-0.4,0.3-1.1,0.3h-1.5c-0.5,0-0.6,0.2-0.6,0.6c0,1,0,1.1,0.3,1.1
			c0.1,0,0.2-0.1,0.3-0.2c0.4-0.6,0.5-0.7,0.7-0.7s1.5,0.9,1.5,1.2s-0.4,0.3-1.1,0.3h-1.1c-0.5,0-0.6,0.2-0.6,0.6
			c0,1.2,0,1.4,0.7,1.4c0.8,0,0.9,0,1.2-0.3c0.2-0.2,0.5-0.5,0.7-0.5s1.4,0.8,1.4,1.1s-0.4,0.3-1.1,0.3L659.8,551.2z M656.5,553.5
			c-0.6,0-0.6,0.3-0.6,1c0,0.5,0,0.9,0.6,0.9h0.9c0.6,0,0.6-0.4,0.6-0.7c0-1,0-1.3-0.6-1.3L656.5,553.5L656.5,553.5z M656.5,556
			c-0.6,0-0.6,0.3-0.6,0.6c0,1.1,0,1.4,0.6,1.4h0.8c0.6,0,0.6-0.3,0.6-1.2c0-0.4,0-0.8-0.6-0.8H656.5z M657.7,546.4
			c-0.6,0-0.6,0.3-0.6,0.9c0,0.6,0,0.9,0.6,0.9h1.3c0.6,0,0.6-0.3,0.6-0.9c0-0.6,0-0.9-0.6-0.9H657.7z M657.7,548.7
			c-0.6,0-0.6,0.3-0.6,0.6c0,1,0,1.3,0.6,1.3h1.2c0.6,0,0.6-0.3,0.6-0.9c0-0.7,0-1-0.6-1L657.7,548.7z M659.7,553.5
			c-0.6,0-0.6,0.4-0.6,0.7c0,0.9,0,1.2,0.6,1.2h1c0.6,0,0.6-0.3,0.6-0.9c0-0.7,0-1-0.6-1H659.7z M659.8,556c-0.5,0-0.6,0.3-0.6,0.6
			c0,1.1,0,1.4,0.6,1.4h1c0.6,0,0.6-0.2,0.6-1.1c0-0.5,0-0.9-0.6-0.9H659.8z"/>
		<path id="パス_432" class="st0" d="M674,545.9c-0.5,0-1.1,0-1.6,0c-0.1,0-0.3,0.1-0.4,0.1s-0.1,0-0.1-0.1l-0.4-0.5l-0.1-0.1
			c0,0,0,0,0.1,0s0.4,0.1,0.5,0.1c0.5,0.1,1.5,0.1,2,0.1h0.9c0.6,0,0.7,0,0.8-0.3c0.4-0.7,0.4-0.7,0.6-0.7c0.7,0.3,1.3,0.7,1.9,1.3
			c0,0.2-0.3,0.2-0.7,0.2H677c-0.2,0-0.6,0-0.6,0.5c0,7.6,5.8,13,9.3,14.1c0.3,0.1,0.3,0.1,0.3,0.2c0,0.1-0.1,0.1-0.2,0.1
			c-0.2,0-0.9-0.1-1.1-0.1c-0.6-0.1-1.2,0.1-1.7,0.5c-0.1,0.1-0.3,0.3-0.4,0.3c-2-1.6-3.6-3.8-4.7-6.2c-0.5-1-0.9-2.1-1.2-3.2
			c-0.2-0.6-0.2-0.6-0.3-0.6s-0.2,0.1-0.6,1.4c-1.4,4-4.5,7.3-8.5,8.8c-0.1,0-0.1-0.1-0.1-0.2c0-0.1,0.1-0.2,0.7-0.7
			c3.7-2.7,6.3-6.7,7.4-11.3c0.3-1.1,0.5-2.3,0.5-3.4c0-0.5-0.4-0.5-0.6-0.5L674,545.9z"/>
		<path id="パス_433" class="st0" d="M687.3,548.9c0.8,0,1.1-0.1,3.9-0.9c1.8-0.5,6.4-1.8,7.7-1.8c0.7,0,1.6,0.3,1.6,1
			c0,0.4-0.4,0.8-0.8,0.7c-0.3,0-1.4-0.2-1.6-0.2c-2.5,0-5.4,2.3-5.4,7.5c0,3.4,1.3,3.6,2.4,3.6c0.3,0,1.7-0.1,1.9-0.1
			c0.6,0,1,0.3,1,0.7c0,1.1-2.2,1.1-2.3,1.1c-4.1,0-4.1-3.3-4.1-4.3c0-0.9,0-5.1,2.9-7.7c0.2-0.1,0.3-0.3,0.5-0.4h-0.1
			c-1.2,0-5.3,1.8-6,2.1c-0.2,0.1-0.4,0.2-0.7,0.3c-1,0-2-1.3-1.7-1.6C686.6,548.8,687.1,548.9,687.3,548.9z M700,553.4
			c0,0.4-0.3,0.8-0.7,0.8s-0.5-0.4-0.9-1.2c-0.2-0.6-0.6-1.1-1-1.6c-0.1-0.1-0.2-0.2-0.2-0.4c0-0.1,0.2-0.1,0.4-0.1
			C698.9,551.2,699.8,552.2,700,553.4z M702.5,552.4c0,0.5-0.3,0.7-0.6,0.7c-0.5,0-0.7-0.6-0.9-1.1c-0.3-0.6-0.8-1.2-1.3-1.6
			c-0.1-0.1-0.2-0.2-0.2-0.3s0.2-0.1,0.3-0.1c0.2,0,0.3,0,0.5,0.1C701.4,550.6,702.5,551.4,702.5,552.4z"/>
		<path id="パス_434" class="st0" d="M706.1,552.4C706,552.3,706,552.3,706.1,552.4c-0.1-0.1-0.1-0.2,0-0.2c0.4,0,2.1,0.1,2.5,0.1
			s0.5-0.1,0.7-0.4c0.4-0.5,0.5-0.6,0.6-0.6s1.3,0.7,1.3,1.1v0.1c-0.2,0.1-0.3,0.3-0.5,0.4c-0.1,0.1-0.1,0.3-0.1,2.4
			c0,2.8,0,3.1,0.5,3.8c0.9,1.2,3.9,1.2,5.3,1.2c2.5,0,5-0.1,7.4-0.6c0.1,0,0.6-0.1,0.7-0.1c0,0,0.1,0,0.1,0.1c0,0,0,0.1-0.2,0.2
			c-0.4,0.2-0.7,0.5-1,0.8c-0.1,0.3-0.2,0.6-0.3,0.9c0,0-2.3,0-2.6,0c-2.4,0.1-4.9-0.1-7.3-0.5c-1-0.2-1.9-0.8-2.5-1.6
			c-0.2-0.2-0.7-1.5-0.9-1.5c-0.3,0-2.1,2.8-2.1,3c0,0.6,0,0.7-0.2,0.7c-0.4,0-1.4-1.4-1.4-1.7c0-0.1,0.2-0.2,0.4-0.3
			c0.7-0.3,1.3-0.6,1.9-1.1c0.8-0.6,0.8-0.6,0.8-1.5c0-0.5,0-2.8,0-3.4c0-0.7-0.1-0.8-0.7-0.8c-0.6,0-1.1,0-1.7,0.1c0,0-0.2,0-0.3,0
			s-0.1,0-0.2-0.1L706.1,552.4z M710,548.5c-0.3,0-0.5-0.1-0.8-0.7c-0.5-0.8-1.2-1.6-1.9-2.3c-0.1-0.1-0.8-0.7-0.8-0.8
			s0.1-0.1,0.2-0.1c0.4,0,3.9,1.2,3.9,3.1C710.7,548.2,710.4,548.5,710,548.5C710.1,548.5,710.1,548.5,710,548.5L710,548.5z
			 M719.4,545c0.7,0,0.9,0,1.1-0.2c0.1-0.1,0.6-0.7,0.7-0.7c0.2,0,1.8,1,1.8,1.4c0,0.1-0.1,0.2-0.3,0.3s-0.9,0.2-1.1,0.2
			c-0.4,0.2-2.2,1.3-2.7,1.6c-0.1,0.1-0.7,0.4-0.7,0.6c0,0.1,0.2,0.3,0.2,0.4c0.1,0.1,0.1,0.2,0.1,0.5c0,0.1,0.1,0.1,0.4,0.1h2
			c0.2,0,0.5,0,0.7-0.2c0.1,0,0.5-0.4,0.6-0.4c0.3,0,1.2,0.7,1.2,0.9s-0.2,0.3-0.3,0.4c-0.2,0.2-0.2,0.3-0.2,0.6
			c0,2.8,0,3.1,0.1,4.5c0.1,1.2,0.1,2,0.1,2.3c0.2,1-0.4,1.9-1.4,2.1h-0.1c-0.1,0-0.3-0.1-0.3-0.2c-0.1-0.2-0.1-0.4-0.2-0.5
			c-0.1-0.1-0.9-0.6-0.9-0.7c0-0.1,1-0.2,1.2-0.3c0.5-0.2,0.5-0.3,0.5-1.8c0-0.4,0-0.7-0.6-0.7h-2.2c-0.6,0-0.6,0.3-0.6,0.7v0.8
			c0,0.2,0.1,1.3,0.1,1.6c0,0.4,0,0.9-0.9,0.9c-0.4,0-0.5-0.5-0.5-0.8c0-0.4,0.1-2.2,0.1-2.6c0-0.5-0.4-0.5-0.6-0.5h-1.9
			c-0.6,0-0.6,0.2-0.6,1.2c0,0.3,0,1.6,0,1.8c0,1.1-0.7,1.1-0.8,1.1c-0.6,0-0.6-0.4-0.6-1c0-0.2,0-1,0.1-1.1
			c0.1-0.8,0.1-1.4,0.1-3.1c0-0.7-0.1-4.4-0.1-5.2c0-0.2,0-0.3,0.1-0.3c0,0,1,0.3,1.1,0.4c0.3,0.1,0.6,0.2,0.9,0.1h1.9
			c0.1,0,0.2,0,0.2-0.2c-0.3-0.5-0.7-0.9-1.2-1.3c-0.4-0.3-0.5-0.4-0.5-0.5s0.2-0.1,0.3-0.1c0.5,0,0.9,0.1,1.4,0.3
			c0.3,0.1,0.6,0.3,0.9,0.4c0.8-0.6,1.5-1.3,2-2.1c0-0.2-0.1-0.2-0.4-0.2h-3.1c-0.5,0-1.8,0-2.5,0.1c-0.1,0-0.4,0-0.4,0
			c-0.1,0-0.1,0-0.2-0.1L713,545c-0.1-0.1-0.1-0.1-0.1-0.1s0,0,0.1,0s0.7,0.1,0.9,0.1c0.6,0,1.6,0.1,2.7,0.1L719.4,545z
			 M714.7,552.5c-0.2,0-0.4,0.1-0.6,0.2c-0.1,0.1-0.1,0.2-0.1,1.3c0,0.3,0,0.7,0.6,0.7h1.9c0.6,0,0.6-0.2,0.6-1.2c0-0.7,0-1-0.6-1
			H714.7z M714.7,549.7c-0.6,0-0.6,0.2-0.6,1.6c0,0.3,0,0.7,0.6,0.7h1.9c0.6,0,0.6-0.1,0.6-1.5c0-0.4,0-0.7-0.6-0.7L714.7,549.7z
			 M721.1,551.9c0.6,0,0.6-0.1,0.6-1.3c0-0.7,0-0.9-0.6-0.9H719c-0.6,0-0.6,0.2-0.6,1.3c0,0.8,0,1,0.6,1L721.1,551.9L721.1,551.9z
			 M721.2,554.6c0.6,0,0.6-0.3,0.6-0.8c0-1.2,0-1.4-0.6-1.4H719c-0.6,0-0.6,0.1-0.6,1.3c0,0.5,0,0.8,0.6,0.8h2.2V554.6z"/>
		<path id="パス_435" class="st0" d="M735.1,547.9c0.6,0,0.6-0.4,0.6-0.9c0-0.2,0-1,0-1.2c0-0.3-0.1-1.6-0.1-1.9
			c0-0.1,0-0.2,0.2-0.2c0.1,0,1.8,0.4,1.8,0.8c0,0.1-0.4,0.5-0.4,0.6s-0.1,2-0.1,2.2c0,0.3,0.2,0.5,0.4,0.6h0.1h0.8
			c0.3,0,0.6,0,1.7-2.6c0.1-0.2,0.3-0.9,0.3-1s0.1-0.2,0.2-0.2c0.1,0,1.9,1.1,1.9,1.4c0,0.2-0.1,0.2-0.8,0.4c-0.8,0.5-1.5,1.1-2,1.9
			c0,0.1,0.2,0.1,0.2,0.1h2.4c0.2,0,0.4,0,0.5-0.1c0.2-0.1,0.4-0.2,0.6-0.3c0.3,0,1.7,1,1.7,1.7c0,0.2-0.1,0.3-0.3,0.3
			c0,0,0,0-0.1,0s-0.7-0.2-0.8-0.2c-0.5,0.1-1,0.4-1.4,0.8c-0.1,0.1-0.3,0.2-0.4,0.3c-0.1,0-0.1-0.1-0.1-0.1c0-0.1,0.5-1.5,0.5-1.7
			s-0.1-0.2-0.3-0.2H730c-0.3,0-0.3,0-0.3,0.4c-0.1,1-0.8,1.9-1.2,1.9c-0.4-0.1-0.7-0.4-0.7-0.9c0-0.3,0.1-0.6,0.3-0.9
			c0.4-0.6,0.5-1.2,0.6-1.9c0-0.4,0-0.4,0.1-0.4s0.1,0.1,0.6,0.9c0.2,0.3,0.2,0.4,0.5,0.4L735.1,547.9z M741.1,555.9
			c0.1,0,0.3,0,0.4-0.1c0.1-0.1,0.6-0.6,0.7-0.6c0.2,0,1.4,0.7,1.4,1.1c0,0.1-0.1,0.2-0.4,0.4c-0.1,0.1-0.1,0.2-0.1,0.3
			c0,2.7,0,3-0.1,3.3c-0.3,0.7-0.9,1.2-1.7,1.3c-0.2,0-0.3-0.1-0.7-0.7c-0.3-0.3-0.6-0.6-1-0.7c-0.1,0-0.2-0.1-0.2-0.2
			c0-0.1,0.1-0.1,0.2-0.1c0.5,0,1,0,1.5-0.1c0.7-0.1,0.7-0.3,0.7-1.9c0-1.4,0-1.6-0.6-1.6h-3.4c-0.6,0-0.6,0.3-0.6,0.7
			c0,0.6,0,3.3,0,3.8c0,0.6-0.2,1.3-1,1.3c-0.6,0-0.6-0.4-0.6-0.6c0,0,0.2-3.8,0.2-4.5c0-0.3,0-0.6-0.6-0.6H732
			c-0.6,0-0.6,0.1-0.6,2.2c0,0.3,0.1,1.4,0.1,1.7c0.1,0.7-0.4,1.3-1.1,1.3c0,0,0,0-0.1,0c-0.3,0-0.4-0.1-0.4-0.7
			c0-0.7,0.1-4,0.1-4.6c0-0.1-0.1-0.7-0.1-0.8s0.1-0.2,0.2-0.2c0.1,0,0.7,0.3,1.1,0.4c0.2,0.1,0.4,0.2,0.7,0.2h3.4
			c0.6,0,0.6-0.4,0.6-0.7c0-1.7-0.3-1.7-0.7-1.7h-1.5c-0.2,0-0.4,0-0.6,0.3c-0.2,0.3-0.3,0.5-1,0.5c-0.6,0-0.6-0.4-0.6-0.5
			c0-0.4,0.1-2.1,0.1-2.4c0-0.4,0-0.8-0.1-1.2c0-0.2,0-0.3,0-0.3c0-0.1,0.1-0.2,0.1-0.2l0,0c0.4,0.1,0.8,0.3,1.1,0.4
			c0.3,0.1,0.6,0.1,0.9,0.1h6.1c0.3,0,0.5-0.1,0.7-0.3c0.2-0.4,0.3-0.4,0.5-0.4s1.2,0.5,1.2,1c0,0.2-0.1,0.3-0.3,0.5
			c-0.1,0.1-0.1,0.3-0.1,0.7c0,0.2,0,1.3,0,1.5c0,0.5-0.5,1-1,0.9c-0.3,0-0.3-0.1-0.4-0.4c-0.1-0.2-0.3-0.2-0.4-0.2h-2.6
			c-0.1,0-0.2,0-0.2,0.1s0,0.1,0.3,0.2c0.4,0.2,0.6,0.3,0.6,0.4c0,0.1-0.4,0.5-0.5,0.6c0,0.1-0.1,0.2-0.1,0.3c0,0.5,0,0.8,0.6,0.8
			H741.1z M732.8,547.6c-0.4,0-0.5-0.2-1.3-1.7c-0.2-0.5-0.4-0.9-0.7-1.3l-0.3-0.3c0-0.1,0.1-0.1,0.1-0.1c0.6,0.2,1.2,0.5,1.7,0.9
			c0.6,0.4,0.9,0.9,1.1,1.6C733.5,547.1,733.3,547.6,732.8,547.6L732.8,547.6z M733.6,550.8c-0.6,0-0.6,0.2-0.6,1.3
			c0,0.7,0.1,0.9,0.7,0.9h5.9c0.2,0,0.5-0.1,0.6-0.3c0.1-0.5,0.1-0.9,0.1-1.4s-0.4-0.5-0.6-0.5H733.6z"/>
		<path id="パス_436" class="st0" d="M756.6,546.5c-0.1,0.4-0.2,0.7-0.3,1.1c-0.1,0.5-0.1,0.9-0.2,1.4c0,0.3,0,0.3,0.2,0.3
			c0.3,0,0.6-0.1,0.8-0.2c0.4-0.2,0.9-0.4,1.3-0.5c0.5,0,1.3,0.6,1.3,0.9c0,0.3-0.5,0.8-2.1,0.8c0,0-1.3,0-1.4,0
			c-0.2,0-0.2,0.2-0.2,0.5s0.2,5.4,0.3,5.6c0.1,0.3,0.2,0.4,1.2,0.8c1.2,0.5,2.5,1.1,2.5,1.7c0,0.4-0.3,0.8-0.7,0.8l0,0
			c-0.7-0.2-1.3-0.5-1.8-1c-0.3-0.2-0.7-0.4-1.1-0.5c-0.2,0-0.2,0.1-0.5,0.6c-0.6,1.1-1.8,1.8-3.1,1.8c-1.8,0-3.4-1.2-3.4-2.3
			c0-1.3,1.9-2.2,4.2-2.2c0.2,0,0.9,0.1,1,0.1c0.3,0,0.4,0,0.4-0.5s-0.2-3.8-0.2-4.3c0-0.2,0-4.2-0.1-4.9c-0.1-0.4-0.2-0.9-0.5-1.2
			c-0.1-0.1-0.1-0.1-0.1-0.2c0-0.1,0.1-0.1,0.2-0.1C755.4,545,756.3,545.6,756.6,546.5z M753,557.3c-0.2,0-2.6,0-2.6,1.1
			c0,0.4,0.7,1,2.1,1c2.2,0,2.5-1.5,2.5-1.7C754.9,557.5,753.9,557.3,753,557.3z"/>
		<path id="パス_437" class="st0" d="M772.8,548.3c-1.7,0-3.3,2.8-3.3,4.9c0,0.5,0.1,1,0.3,1.5c0.1,0.2,0.2,0.5,0.2,0.8
			c0,0.4-0.2,0.7-0.6,0.7h-0.1c-0.9,0-1.4-1.7-1.4-3.2c0-1.1,0.1-2.1,0.4-3.2c0.2-0.8,0.3-1.7,0.3-2.6c0-0.4-0.1-0.9-0.3-1.2
			c0-0.1-0.3-0.5-0.3-0.5c0.2-0.1,0.3-0.2,0.5-0.1c0.8,0,1.4,0.6,1.5,1.3c-0.1,0.5-0.2,1-0.4,1.5c-0.2,0.8-0.3,1.6-0.4,2.5
			c0,0.1,0,0.3,0.2,0.3c0.1,0,0.2-0.2,0.4-0.5c0.2-0.4,1.6-3,3.7-3c1.2,0,2.6,0.7,2.6,4.9c0,2.8-0.6,6-4.4,8.3
			c-0.4,0.3-0.9,0.5-1.4,0.7c0,0-0.1,0-0.1-0.1s0-0.1,0.5-0.4c3.3-2.5,3.9-4.8,3.9-8.9C774.5,549.7,774.1,548.3,772.8,548.3z"/>
		<path id="パス_438" class="st0" d="M782.7,568.3c-0.9,0-0.9-0.5-0.9-0.6c0-0.6,0.6-0.6,2-0.6c2.2,0,3.2-0.1,3.7-1.2
			c0.3-0.7,0.3-7.7,0.3-9.1c0-1.9-0.1-11.2-0.1-13.4c0-1.9-0.6-1.9-3.9-1.9c-1,0-1.4,0-1.4-0.5s0.4-0.6,1.6-0.6
			c1.5-0.1,3.1-0.5,4.5-1c0.6-0.3,1.3-0.6,2-0.9c0.4,0,0.4,0.1,0.4,1.9c0,1.1-0.1,6.2-0.1,7.4c0,1.8,0,17.2,0.2,17.6
			c0.3,1.2,0.8,1.6,3.8,1.6c0.4,0,1,0,1,0.7c0,0.6-0.6,0.6-1,0.6H782.7z"/>
		<path id="パス_439" class="st0" d="M808.4,569.1c-6.3,0-9-8-9-15.3c0-7.4,2.7-15.4,9-15.4c6.5,0,9,8.3,9,15.4
			C817.4,560.8,814.8,569.1,808.4,569.1z M808.4,539.7c-5.3,0-5.4,12-5.4,14c0,1.6,0,14,5.4,14c5.3,0,5.4-11.9,5.4-14
			C813.8,552.1,813.8,539.7,808.4,539.7L808.4,539.7z"/>
		<path id="パス_441" class="st0" d="M848.2,561.1c-3.9,0-6.5-3.2-6.5-7.7s2.7-7.7,6.5-7.7s6.5,3.2,6.5,7.7
			C854.7,557.9,852,561.1,848.2,561.1z M852.8,553.2c0-1.8-0.5-6.8-4.6-6.8c-4.5,0-4.6,5.9-4.6,7.2c0,1.9,0.6,6.8,4.6,6.8
			C852.6,560.4,852.8,554.6,852.8,553.2L852.8,553.2z"/>
		<path id="パス_442" class="st0" d="M864.1,552.8c1.4,0,2-0.5,2-1.9c0-0.3,0-0.6,0.3-0.6s0.3,0.3,0.3,0.4v5.2
			c0,0.1,0,0.4-0.3,0.4s-0.3-0.3-0.3-0.5c0-1,0-2.4-2-2.4h-2.4c-0.2,0-0.4,0.1-0.5,0.3s-0.1,3.3-0.1,3.7c0,1.9,0,2.6,1.6,2.6
			c0.6,0,0.8,0,0.8,0.3s-0.3,0.3-0.5,0.3h-5.1c-0.3,0-0.6,0-0.6-0.3s0.3-0.3,0.5-0.3c0.7,0,1.6,0,1.8-1c0.1-1.9,0.1-3.8,0.1-5.7
			c0-0.9,0-5.2-0.1-5.6c-0.2-0.7-0.8-1.1-1.5-1c-0.6,0-0.8,0-0.8-0.3s0.3-0.3,0.6-0.3h9.6c1.1,0,1.3,0.1,1.7,1.1
			c0.1,0.3,0.8,2.2,0.8,2.3c0,0.2-0.2,0.4-0.3,0.4l0,0c-0.1,0-0.1,0-0.6-0.7c-0.9-1.5-2.4-2.4-4.1-2.4h-2.2c-1.5,0-1.5,0.9-1.5,2.6
			c0,0.3,0,2.9,0,3c0,0.3,0.3,0.5,0.5,0.4H864.1z"/>
		<path id="パス_443" class="st0" d="M879.5,552.8c1.4,0,2-0.5,2-1.9c0-0.3,0-0.6,0.3-0.6s0.3,0.3,0.3,0.4v5.2
			c0,0.1,0,0.4-0.3,0.4s-0.3-0.3-0.3-0.5c0-1,0-2.4-2-2.4h-2.4c-0.2,0-0.4,0.1-0.5,0.3s-0.1,3.3-0.1,3.7c0,1.9,0,2.6,1.6,2.6
			c0.6,0,0.8,0,0.8,0.3s-0.3,0.3-0.5,0.3h-5.1c-0.3,0-0.6,0-0.6-0.3s0.3-0.3,0.5-0.3c0.7,0,1.6,0,1.8-1c0.1-1.9,0.1-3.8,0.1-5.7
			c0-0.9,0-5.2-0.1-5.6c-0.2-0.7-0.8-1.1-1.5-1c-0.6,0-0.8,0-0.8-0.3s0.3-0.3,0.6-0.3h9.6c1.1,0,1.3,0.1,1.7,1.1
			c0.1,0.3,0.8,2.2,0.8,2.3c0,0.2-0.2,0.4-0.3,0.4l0,0c-0.1,0-0.1,0-0.6-0.7c-0.9-1.5-2.4-2.4-4.1-2.4H878c-1.5,0-1.5,0.9-1.5,2.6
			c0,0.3,0,2.9,0,3c0,0.3,0.3,0.5,0.5,0.4H879.5z"/>
		<path class="st0" d="M826,553.9c-2-0.2-3.5-2-3.4-4c-0.3-1.9,0.9-3.7,2.8-4c1.9-0.3,3.7,0.9,4,2.8c0.1,0.4,0.1,0.8,0,1.2
			C829.5,551.9,828,553.7,826,553.9z M826,546.4c-1,0-1.8,1.3-1.8,3.5s0.8,3.5,1.8,3.5s1.8-1.2,1.8-3.5S827,546.4,826,546.4z
			 M835.1,546.1c-0.1,0.2-0.1,0.3-0.3,0.5c-0.1,0.2-9.2,14-9.3,14.1c-0.3,0.4-0.3,0.5-0.5,0.5s-0.3-0.1-0.3-0.3c0-0.1,1.3-2,1.5-2.3
			c0.9-1.3,7.9-12.1,8-12.2c0.3-0.5,0.3-0.5,0.5-0.5C835,545.8,835.1,546,835.1,546.1L835.1,546.1L835.1,546.1z M834,561.2
			c-2-0.2-3.5-2-3.4-4c-0.3-1.9,0.9-3.6,2.8-4c1.9-0.3,3.6,0.9,4,2.8c0.1,0.4,0.1,0.8,0,1.2C837.5,559.2,836,561,834,561.2z
			 M834,553.7c-0.9,0-1.8,1.2-1.8,3.5s0.9,3.5,1.8,3.5s1.8-1.2,1.8-3.5S834.9,553.7,834,553.7z"/>
	</g>
</g>
<g class="st2">
	<path class="st0" d="M105.1,146.3c-1,0-1,0.1-1.2,2c-1,9-6.7,12.4-7,12.4c-0.1,0-0.2-0.1-0.2-0.3c0-0.2,0.7-1,0.8-1.2
		c4.1-5.9,4.1-14.9,4.1-20.8c0-3.8-0.2-8.2-0.5-9.9c0-0.2-0.3-1.4-0.3-1.5c0-0.1,0-0.2,0.1-0.2c0.2,0,0.5,0.1,2.7,1.2
		c1,0.5,1.4,0.5,2,0.5h10.7c0.9,0,1.2-0.1,1.5-0.6c0.9-1,0.9-1.2,1.2-1.2c0.4,0,3,2,3,2.4c0,0.2-0.1,0.3-0.2,0.3
		c-0.7,0.5-0.9,0.6-1.1,1.1c-0.2,0.6-0.2,1-0.2,5.7c0,4.4,0,8.9,0.1,13.4c0,1,0.3,5.9,0.3,7c0,0.9-0.1,1.7-0.7,2.3
		c-0.3,0.3-1.8,1.4-2.7,1.4c-0.5,0-0.6-0.2-0.8-0.6c-0.8-1.5-2.7-2.6-4.5-3.1c-0.7-0.1-0.9-0.2-0.9-0.5c0-0.2,0.2-0.2,0.5-0.2
		c0.4,0,4.1,0.3,4.6,0.3c1.1,0,1.3-0.2,1.3-1.2c0-1.1,0-6.5,0-7.7c0-1.1-0.4-1.2-1.2-1.2H105.1z M105.3,137.7c-0.3,0-1,0-1.1,0.7
		c-0.1,0.3-0.1,3.3-0.1,4.8c0,1.6,0,2.1,1.2,2.1h11.3c1.2,0,1.2,0,1.2-3.7c0-3.9,0-3.9-1.2-3.9H105.3z M105.3,129.7
		c-0.8,0-1.2,0.3-1.2,1.1v4.6c0,0.7,0,1.3,1.2,1.3h11.3c0.3,0,0.8,0,1-0.5c0.1-0.3,0.1-3.1,0.1-3.6c0-2.6,0-2.9-1.2-2.9H105.3z"/>
	<path class="st0" d="M146.5,136.2c-0.9,0.7-2.5,2.9-2.5,3.3c0,0.6,1,0.6,1.2,0.6c1.5,0,4.5-0.4,5.7-0.6c0.3,0,1.5-0.6,1.8-0.6
		c0.9,0,3,2.2,3,2.9c0,0.4-0.4,0.5-0.5,0.6c-1.4,0.3-1.6,0.4-2.1,0.9c-1.3,1.3-3.2,3.3-4.5,4.6c-1.3,1.2-1.4,1.3-1.4,1.7
		c0,0.2,0.1,0.3,0.5,0.6c1,0.9,2.2,2.3,2.2,3.8c0,0.3-0.1,1.5-1.3,1.5c-0.6,0-0.9-0.2-1.5-1.3c-1.7-3-4.2-5.7-6.2-7.2
		c-0.1-0.1-1-0.8-1-0.9c0-0.1,0.1-0.2,0.2-0.2c0.2,0,2.6,0.9,4.6,2.1c0.2,0.1,1.3,0.7,1.5,0.7c0.3,0,0.5,0,2.2-2.5
		c1-1.5,2.7-4.2,2.7-4.7c0-0.2-0.1-0.3-0.7-0.3c-0.8,0-4.8,0.6-5.7,0.6c-0.2,0-0.5,0-0.8-0.1c-0.1,0-0.9-0.3-0.9-0.3
		c-0.3,0-0.5,0.3-0.9,0.9c-1.7,2.1-3.7,3.9-5.3,5.2c-1.4,1.1-4.7,3.3-5.5,3.3c-0.1,0-0.2-0.1-0.2-0.2c0-0.1,1.5-1.3,1.6-1.4
		c4.7-3.9,11-12.9,11-14.8c0-0.3-0.1-0.5-0.5-0.9c-0.2-0.2-1.3-0.8-1.3-1c0-0.3,1.1-0.4,1.4-0.4c2,0,4.3,2.6,4.3,3
		C147.5,135.4,147.4,135.6,146.5,136.2z"/>
	<path class="st0" d="M174,144.7c0.8,0,1,0,1-0.3c0-0.3-0.2-0.6-0.4-0.8c-0.5-0.7-5.3-8.6-5.8-9.3c-1.2-1.9-2.5-2.3-4.4-2.3
		c-0.5,0-0.6-0.4-0.6-0.6c0-0.6,0.6-0.6,0.9-0.6h9.1c0.3,0,0.9,0,0.9,0.6c0,0.6-0.6,0.6-1,0.6c-0.8,0-1.8,0.1-1.8,1.2
		c0,0.2,0,0.3,0.1,0.5c0.1,0.2,4.3,7,4.9,8c0.9,1.4,1,1.6,1.2,1.6s0.5-0.3,0.6-0.4c0.1-0.2,3.5-5.5,3.8-6c0.6-0.8,2-2.9,2-3.5
		c0-1.4-1.1-1.4-3.1-1.4c-0.2,0-0.8,0-0.8-0.6c0-0.6,0.5-0.6,1-0.6h8c0.3,0,0.9,0,0.9,0.6c0,0.6-0.5,0.6-1.1,0.6
		c-2.6,0-3.4,1.3-6,5.5c-0.7,1.1-4.2,6.5-4.2,6.9c0,0.3,0.3,0.3,0.9,0.3h8.6c0.3,0,0.9,0,0.9,0.6c0,0.6-0.6,0.6-0.9,0.6h-9
		c-1,0-1,0.8-1,1.3c0,0.5,0,1.4,1,1.4h9c0.3,0,0.9,0,0.9,0.6c0,0.6-0.6,0.6-0.9,0.6h-9c-1,0-1,0.5-1,2.7c0,4,0.2,4.4,4,4.4
		c0.7,0,0.7,0.5,0.7,0.6c0,0.6-0.6,0.6-0.9,0.6h-10.7c-0.3,0-0.9,0-0.9-0.6c0-0.6,0.4-0.6,1.4-0.6c3.3,0,3.3-1,3.3-4.8
		c0-1.7,0-2.3-1-2.3h-9.3c-0.3,0-0.8,0-0.8-0.6c0-0.6,0.6-0.6,0.8-0.6h9.3c1,0,1-0.8,1-1.3c0-0.5,0-1.3-1-1.3h-9.3
		c-0.3,0-0.9,0-0.9-0.6c0-0.6,0.6-0.6,0.9-0.6H174z"/>
	<path class="st0" d="M198.1,158.1c-0.8,0-0.9-0.5-0.9-0.6c0-0.6,0.6-0.6,1.9-0.6c2,0,3-0.1,3.5-1.2c0.3-0.6,0.3-7.2,0.3-8.6
		c0-1.8-0.1-10.5-0.1-12.5c0-1.8-0.5-1.8-3.7-1.8c-0.9,0-1.3,0-1.3-0.5c0-0.5,0.4-0.5,1.5-0.6c0.9,0,2.8-0.4,4.2-0.9
		c0.3-0.1,1.5-0.8,1.8-0.8c0.4,0,0.4,0.1,0.4,1.8c0,1-0.1,5.9-0.1,7c0,1.7,0,16.1,0.2,16.5c0.3,1.1,0.8,1.5,3.6,1.5
		c0.3,0,0.9,0,0.9,0.7c0,0.5-0.6,0.5-0.9,0.5H198.1z"/>
	<path class="st0" d="M218.2,161.2c0.7-0.5,1.5-1.3,1.5-2c0-0.3-0.4-0.5-1.1-0.9c-0.5-0.2-1.5-0.7-1.5-2.1c0-1.3,1-2.5,2.5-2.5
		c1.1,0,2.5,0.8,2.5,2.6c0,3.3-3.3,6-4.2,6c-0.4,0-0.5-0.3-0.5-0.4C217.4,161.8,217.4,161.8,218.2,161.2z"/>
	<path class="st0" d="M242.3,130.7c0.8,0,1.6,0,1.6,1c0,0.8-0.2,1.1-0.4,1.4c-6.7,10.5-7.7,15.5-8.1,22c-0.1,1.3-0.3,3.6-2.1,3.6
		c-1.3,0-1.9-1.3-1.9-2.3c0-4.1,4.7-12.8,6-15.1c0.6-1.2,4.2-6.9,4.2-7.4s-0.3-0.5-1-0.5h-5.2c-4.3,0-5.9,1.5-6.7,3.6
		c-0.5,1.2-0.6,1.3-0.9,1.3c-0.3,0-0.5-0.2-0.5-0.5c0-0.1,0.9-4.2,1-4.7c0.5-2.1,0.6-2.5,2.6-2.5H242.3z"/>
	<path class="st0" d="M257.2,158.8c-5.9,0-8.4-7.5-8.4-14.4c0-7,2.6-14.4,8.4-14.4c6.1,0,8.4,7.8,8.4,14.4
		C265.6,151,263.2,158.8,257.2,158.8z M257.2,131.2c-5,0-5.1,11.3-5.1,13.2c0,1.5,0,13.2,5.1,13.1c5,0,5.1-11.2,5.1-13.1
		C262.3,142.8,262.3,131.2,257.2,131.2z"/>
	<path class="st0" d="M273.2,158.1c-0.8,0-0.9-0.5-0.9-0.6c0-0.6,0.6-0.6,1.9-0.6c2,0,3-0.1,3.5-1.2c0.3-0.6,0.3-7.2,0.3-8.6
		c0-1.8-0.1-10.5-0.1-12.5c0-1.8-0.5-1.8-3.7-1.8c-0.9,0-1.3,0-1.3-0.5c0-0.5,0.4-0.5,1.5-0.6c0.9,0,2.8-0.4,4.2-0.9
		c0.3-0.1,1.5-0.8,1.8-0.8c0.4,0,0.4,0.1,0.4,1.8c0,1-0.1,5.9-0.1,7c0,1.7,0,16.1,0.2,16.5c0.3,1.1,0.8,1.5,3.6,1.5
		c0.3,0,0.9,0,0.9,0.7c0,0.5-0.6,0.5-0.9,0.5H273.2z"/>
</g>
<g class="st2">
	<path class="st0" d="M121.5,191c0.1,0.2,0.9,0.9,0.9,1c0,0,0,0.1-0.1,0.1c-0.2,0-4.2-2.9-4.2-8.3c0-5.4,4-8.3,4.2-8.3
		c0.1,0,0.1,0.1,0.1,0.1c0,0.1-0.7,0.9-0.9,1c-0.7,0.9-2.5,3.4-2.5,7.2S120.8,190.1,121.5,191z"/>
	<path class="st0" d="M129.8,181.1c-0.5,0-0.6,0.1-0.6,0.7c0,1,0,1.1,0.5,1.3c1.6,0.8,1.9,1.8,1.9,2.3c0,0.5-0.3,0.9-0.6,0.9
		c-0.2,0-0.4-0.2-0.6-1c-0.2-1.1-0.9-1.9-1.1-1.9c-0.1,0-0.1,0.1-0.1,0.2c0,1,0.1,5.9,0.1,6.7c0,0.6,0,1.4-0.9,1.4
		c-0.4,0-0.5-0.2-0.5-0.6c0-0.1,0.2-2.3,0.2-2.7c0-0.6,0.1-4.1,0.1-4.3c0,0,0-0.2-0.1-0.2c0,0-0.1,0.2-0.2,0.3
		c-1.1,2.1-2.3,3.6-2.5,3.6c-0.1,0-0.1,0-0.1,0c0-0.1,0.6-1.4,0.8-1.6c1.5-3.2,1.7-4.8,1.7-4.9c0-0.2-0.1-0.3-0.4-0.3
		c-0.2,0-1.3,0.1-1.5,0.1c-0.1,0-0.1,0-0.1-0.1l-0.4-0.4c-0.1-0.1-0.1-0.1-0.1-0.1s0,0,0.1,0c0.3,0,1.8,0.1,2.2,0.1
		c0.6,0,0.6-0.2,0.6-1.6c0-0.9,0-1.2-0.5-1.2c-0.1,0-0.5,0-0.6,0s-1.8-0.1-1.8-0.2c0,0,0.3-0.1,0.4-0.1c1.3-0.3,2-0.5,3.2-0.9
		c0.3-0.1,0.8-0.3,1.3-0.6c0.3,0,1.3,0.9,1.3,1.2c0,0.4-0.3,0.4-1,0.4c-1,0-1.3,0.2-1.3,0.5c0,0.7,0,2,0,2.1c0,0.1,0.1,0.4,0.4,0.4
		c0.2,0,0.3-0.1,0.5-0.3c0.3-0.5,0.4-0.6,0.6-0.6c0.2,0,1,0.8,1,1.1c0,0.2-0.3,0.2-0.9,0.2H129.8z M135.7,186.1
		c0,0.2-0.1,0.2-0.3,0.3c-0.1,0.1-0.5,1.3-0.6,1.5c-0.9,2.3-2.6,3-4.1,3.4c-0.1,0-0.4,0.1-0.5,0.1c0,0,0,0,0,0c0,0,0.4-0.2,0.4-0.2
		c1.5-0.8,3.3-2,3.6-5.1c0.1-0.6,0.1-0.7,0.2-0.7c0.1,0,0.3,0,0.6,0.2C135.6,185.9,135.7,185.9,135.7,186.1z M135.5,179.1
		c0,0.3-0.2,0.7-0.5,0.7c-0.4,0-0.5-0.2-0.9-1c-0.1-0.2-0.9-1.8-1.5-2.2c-0.1-0.1-0.3-0.3-0.3-0.3s0.1-0.1,0.1-0.1
		c0.3,0,1.1,0.4,1.5,0.6C135.3,177.8,135.5,178.7,135.5,179.1z M134.4,184.8c-0.4,0-0.5,0.1-0.5,0.5c0,0.3-0.2,0.8-0.8,0.8
		c-0.3,0-0.5-0.2-0.5-0.5c0-0.1,0.1-2,0.1-2.4s0-2.7,0-2.9c0-0.1-0.2-0.5-0.2-0.6c0-0.1,0-0.2,0.1-0.2c0.1,0,0.2,0.1,1.1,0.6
		c0.6,0.3,0.8,0.3,1.2,0.3h3.1c0.4,0,0.8,0,1-0.3c0.3-0.3,0.3-0.4,0.5-0.4c0.3,0,1.2,0.7,1.2,0.9c0,0.1,0,0.1-0.1,0.2
		c-0.1,0.1-0.3,0.2-0.4,0.3c-0.1,0.2-0.1,1.8-0.1,2.1c0,0.2,0.1,1.3,0.1,1.5c0,0.8-0.5,1.1-0.9,1.1c-0.2,0-0.4,0-0.4-0.5
		c0-0.3-0.1-0.5-0.5-0.5h-0.6c-0.1,0-0.4,0-0.5,0.2c-0.1,0.1-0.1,1.3-0.1,1.6c0,0.6,0,2.8,0.1,3.2c0.2,0.4,0.8,0.4,1.1,0.4
		c0.9,0,1.1-0.1,1.4-1c0.1-0.3,0.4-1.8,0.4-1.8c0.1,0,0.1,0.1,0.1,0.4c0.2,1.2,0.2,1.3,0.4,1.8c0,0.1,0.3,0.5,0.3,0.6
		c0,1.2-2,1.2-2.5,1.2c-1.9,0-2.4-0.2-2.5-1.4c0-0.7,0-1.7,0-4.6c0-0.2,0-0.5-0.6-0.5H134.4z M134.4,180.8c-0.5,0-0.5,0-0.5,1.5
		c0,0.6,0,1.6,0.1,1.8c0.1,0.2,0.3,0.2,0.5,0.2h4.1c0.5,0,0.5,0,0.5-1.5c0-0.3,0-1.6-0.1-1.8c-0.1-0.2-0.3-0.2-0.5-0.2H134.4z
		 M140.9,176.9c0,0.1,0,0.2-0.3,0.3c-0.3,0.1-1.1,1.2-1.2,1.4c-0.2,0.3-1.7,1.7-1.8,1.7c0,0-0.1,0-0.1-0.1c0,0,0.7-1.3,0.8-1.5
		c0.7-1.3,1-1.9,1-2.4c0-0.1,0-0.4,0-0.4c0-0.1,0-0.1,0.1-0.1c0.2,0,0.6,0.2,0.8,0.4C140.6,176.5,140.9,176.7,140.9,176.9z"/>
	<path class="st0" d="M143.8,183c-0.1-0.1-0.1-0.1-0.1-0.1s0,0,0.1,0c0.1,0,0.5,0.1,0.6,0.1c0.4,0,1.9,0.1,1.9,0.1
		c0.2,0,0.2,0,0.4-0.2c0.1-0.1,0.5-0.4,0.5-0.4c0.2,0,1,0.7,1,0.9c0,0.2-0.1,0.2-0.2,0.3c-0.1,0.1-0.4,0.2-0.5,0.3
		c-0.1,0.1-0.1,2.4-0.1,2.7c0,1,0.1,1.2,0.2,1.5c0.7,1.4,2.2,1.6,5,1.6c4.1,0,5.6-0.3,6.8-0.8c0.3-0.1,0.3-0.1,0.3-0.1
		c0,0-0.5,0.6-0.6,0.6c-0.1,0.1-0.4,0.6-0.6,1c-0.2,0.5-0.2,0.6-0.6,0.6c-1.9,0-6.8-0.2-8.1-0.4c-1-0.2-1.9-0.7-2.5-2
		c-0.2-0.5-0.2-0.5-0.4-0.5c-0.2,0-1.8,2.1-1.9,2.2c-0.2,0.3-0.3,0.5-0.5,0.5c-0.3,0-1-1.5-1-1.5c0-0.1,0.1-0.2,0.2-0.2
		c0.3-0.1,0.5-0.1,1.3-0.5c1-0.5,1-0.6,1.1-0.9v-3.8c0-0.2,0-0.5-0.6-0.5c-0.2,0-0.9,0-1.2,0c-0.1,0-0.3,0.1-0.4,0.1
		c-0.1,0-0.1-0.1-0.2-0.1L143.8,183z M148.2,180.1c0,0.3-0.2,0.7-0.6,0.7c-0.4,0-0.6-0.2-1.3-1.5c-0.2-0.3-1.1-1.6-2-2.3
		c-0.2-0.2-0.3-0.2-0.3-0.2c0,0,0.1-0.1,0.1-0.1c0.1,0,0.8,0.1,1.5,0.5C147.2,178,148.2,179.5,148.2,180.1z M152.3,177.5
		c-0.4,0-1.6,0-2.2,0c-0.1,0-0.3,0.1-0.4,0.1s-0.1-0.1-0.2-0.1l-0.3-0.4c-0.1-0.1-0.1-0.1-0.1-0.1c0,0,0-0.1,0.1-0.1
		c0.1,0,0.9,0.1,1.1,0.1c1.3,0.1,1.3,0,2.4,0c0.6,0,0.7,0,0.9-0.3c0.3-0.5,0.3-0.5,0.5-0.5c0.3,0,1.2,0.8,1.2,1.1
		c0,0.2-0.4,0.2-0.5,0.2h-0.4c-0.4,0-0.5,0.2-0.5,0.5c0,2.2,1.8,6.1,4.6,8.2c0.2,0.2,1.4,0.8,1.4,0.9s-0.9,0.1-1,0.2
		c-0.4,0.1-0.7,0.4-0.9,0.5c-0.1,0.1-0.1,0.1-0.2,0.1c-0.3,0-2.3-2.1-3.2-4.5c-0.1-0.2-0.5-1.6-0.5-1.6s-0.5,0.9-0.6,1.1
		c-2.6,4.3-5,5.2-5.2,5.2c0,0-0.1,0-0.1,0c0,0,1.1-1,1.3-1.2c2.5-2.6,4-6.1,4-8.5c0-0.5,0-0.8-0.5-0.8H152.3z"/>
	<path class="st0" d="M163.8,183.8c0-0.6,0.5-1.2,1.2-1.2c0.6,0,1.2,0.5,1.2,1.2c0,0.7-0.5,1.2-1.2,1.2
		C164.3,185,163.8,184.5,163.8,183.8z"/>
	<path class="st0" d="M170.3,182.9c-0.1-0.1-0.1-0.1-0.1-0.1c0,0,0,0,0.1,0c0.3,0,1.7,0.1,2,0.1c0.3,0,0.5-0.1,0.6-0.3
		c0.1-0.1,0.5-0.5,0.5-0.5c0.1,0,1.1,0.6,1.1,0.9c0,0.1-0.1,0.1-0.1,0.2c-0.2,0.1-0.4,0.3-0.4,0.4c0,0.1,0,2,0,2.3
		c0,2.2,0,2.4,0.4,2.9c0.8,1,2.3,1.3,4.9,1.3c2.8,0,4.3-0.2,5.8-0.6c0.2-0.1,1.2-0.5,1.3-0.5c0,0,0,0,0,0c0,0,0,0.1-0.2,0.3
		c-0.5,0.4-0.8,1.1-0.8,1.3c-0.1,0.3-0.1,0.3-0.2,0.4c-0.4,0.2-3.5,0.2-4.2,0.2c-4.1,0-6.3-0.3-7.1-2.6c-0.2-0.5-0.2-0.6-0.3-0.6
		c0,0,0,0-0.1,0c-0.1,0.1-2.2,2.5-2.3,2.9c-0.1,0.3-0.1,0.6-0.4,0.6c-0.3,0-0.9-1.3-0.9-1.3c0-0.1,0.1-0.2,0.7-0.4
		c0.4-0.2,1.4-0.8,1.9-1.3c0.3-0.3,0.3-0.4,0.3-2.9c0-0.4,0-1.8-0.1-2c-0.1-0.2-0.4-0.2-0.5-0.2c-0.2,0-1.5,0.1-1.5,0.1
		c-0.1,0-0.1,0-0.2-0.1L170.3,182.9z M173.3,180.3c-0.3,0-0.4-0.3-0.7-1.1c-0.4-1.1-1.5-2.1-1.8-2.3c-0.1,0-0.3-0.2-0.3-0.3
		c0-0.1,0.1-0.1,0.1-0.1c0.1,0,1,0.2,2,0.8c1.4,0.9,1.3,2.1,1.2,2.3C173.9,180,173.6,180.3,173.3,180.3z M178,183.8
		c-1.5,0-2,0-2.2,0c-0.1,0-0.3,0.1-0.4,0.1c-0.1,0-0.1-0.1-0.2-0.1l-0.4-0.4c-0.1-0.1-0.1-0.1-0.1-0.1c0,0,0-0.1,0.1-0.1
		c0.1,0,0.6,0.1,0.8,0.1c0.9,0,1.6,0.1,2.4,0.1h0.3c0.5,0,0.5,0,0.5-1.8c0-0.7,0-0.9-0.5-0.9c-0.6,0-1.3,0-1.9,0.1
		c-0.1,0-0.3,0-0.4,0c-0.1,0-0.1,0-0.2-0.1l-0.3-0.4c-0.1-0.1-0.1-0.1-0.1-0.1c0,0,0,0,0.1,0c0.1,0,0.7,0.1,0.8,0.1
		c0.9,0.1,1.6,0.1,2.4,0.1h2.6c0.7,0,0.8,0,1.1-0.3c0.4-0.4,0.6-0.6,0.8-0.6c0.2,0,1.2,1,1.2,1.1c0,0.2-0.4,0.2-0.9,0.2h-2.9
		c-0.2,0-0.4,0-0.5,0.3c0,0.1-0.1,1.9-0.1,1.9c0,0.3,0.1,0.5,0.5,0.5h1.7c0.5,0,0.7,0,0.8-0.1c0.2-0.1,0.8-0.9,0.9-0.9
		c0.2,0,1.3,1,1.3,1.3s-0.4,0.2-0.9,0.2h-3.9c-0.2,0-0.4,0-0.5,0.1s-0.2,0.7-0.2,0.8c0,0.2,0.1,0.2,0.4,0.3c0.8,0.2,4.2,1.2,4.2,3
		c0,0.5-0.3,0.8-0.6,0.8c-0.3,0-0.3,0-1.2-1.3c-0.9-1.3-1.9-1.9-2.5-2.2c-0.2-0.1-0.3-0.1-0.3-0.1c-0.1,0-0.1,0.1-0.4,0.6
		c-1.4,2.7-3.9,3.1-4,3.1c-0.1,0-0.2-0.1-0.2-0.1c0-0.1,0.7-0.5,0.9-0.6c1.2-0.9,2-1.7,2.5-3.3c0.1-0.3,0.2-0.6,0.2-0.8
		c0-0.3-0.2-0.3-0.4-0.3H178z M177.6,179.6c-0.3,0-0.5-0.4-0.8-1.2c-0.1-0.4-0.5-1.4-1.3-2.1c-0.1-0.1-0.2-0.2-0.2-0.3
		c0-0.1,0.1-0.1,0.1-0.1c0.5,0,2.9,1.4,2.9,2.8c0,0.1,0,0.1,0,0.2C178.3,179.3,178,179.6,177.6,179.6z M184,176.8
		c0,0.1-0.1,0.1-0.4,0.2c-0.2,0.1-0.3,0.1-0.5,0.4c-0.7,0.9-2.3,2.6-2.6,2.6c-0.1,0-0.2,0-0.2-0.1c0-0.1,0.7-1,0.8-1.2
		c0.7-1.2,1.1-2.3,1.1-2.6c0-0.3,0.1-0.5,0.2-0.5c0.1,0,0.2,0.1,0.2,0.1C184,176.6,184,176.6,184,176.8z"/>
	<path class="st0" d="M193.7,182c-0.1,0-0.5,0-0.5,0.3c0,0.1,0.1,0.1,0.1,0.2c1,0.5,2.7,1.8,2.7,2.7c0,0.2-0.1,0.7-0.6,0.7
		c-0.3,0-0.4-0.2-0.6-0.9c-0.4-1.3-1.5-2.3-1.6-2.3c-0.1,0-0.1,0.1-0.1,0.4c0,0.4,0,2.5,0,2.9c0,0.7,0.1,3.9,0.1,4.6
		c0,0.8-0.8,0.9-0.8,0.9c-0.2,0-0.5-0.2-0.5-0.5s0.1-2.3,0.2-2.7c0-0.2,0.1-3.4,0.1-3.5c0-0.1,0-0.2-0.2-0.2c-0.1,0-0.1,0.1-0.4,0.6
		c-0.7,1.3-2.3,3.4-2.5,3.4c0,0-0.1,0-0.1-0.1s0.2-0.5,0.3-0.6c1.9-3.7,2.3-5.5,2.3-5.6c0-0.2-0.1-0.4-0.4-0.4
		c-0.3,0-1.3,0.1-1.6,0.1c0,0-0.2,0-0.2,0c-0.1,0-0.1,0-0.2-0.1l-0.3-0.4c-0.1-0.1-0.1-0.1-0.1-0.1s0,0,0.1,0c0.1,0,0.5,0.1,0.6,0.1
		c0.3,0,1.9,0.1,2.2,0.1c0.4,0,0.5-0.2,0.5-0.5c0-1,0-2.8-0.1-3.7c0-0.2-0.1-1.1-0.1-1.3c0-0.1,0-0.2,0.1-0.2c0,0,1.7,0.3,1.7,0.6
		c0,0.1,0,0.1-0.2,0.2c-0.1,0.1-0.3,0.3-0.4,0.7c0,0-0.2,3.4-0.2,3.6c0,0.5,0.3,0.5,0.6,0.5c0.2,0,0.6,0,0.7-0.1
		c0.1-0.1,0.6-0.8,0.8-0.8c0.1,0,1.4,0.9,1.4,1.2c0,0.2-0.2,0.2-0.7,0.2H193.7z M190.6,180.5c-0.4,0-0.4-0.3-0.6-1
		c-0.2-0.8-0.6-1.5-0.8-1.9c0,0-0.1-0.1-0.1-0.1c0-0.1,0.1-0.1,0.1-0.1c0.3,0,2,1.2,2,2.3C191.3,180.3,190.8,180.5,190.6,180.5z
		 M194,180.8C193.9,180.8,193.9,180.8,194,180.8c0-0.1,0.3-0.8,0.4-0.9c0.3-0.8,0.8-2.1,0.8-2.8c0-0.1,0-0.2,0.1-0.2
		c0.1,0,1.4,0.9,1.4,1.1c0,0.1-0.1,0.2-0.2,0.2c-0.1,0.1-0.4,0.2-0.5,0.3C195.9,178.6,194.2,180.8,194,180.8z M197.6,186.7
		c-0.8,0.2-1.7,0.4-2.2,0.5c-0.1,0-0.3,0.1-0.4,0.1c-0.1,0-0.1,0-0.1-0.1l-0.4-0.3c-0.1-0.1-0.1-0.1-0.1-0.1s0,0,0.5-0.1
		c0.1,0,1.5-0.2,2.7-0.5l2.7-0.6c0.5-0.1,0.5-0.6,0.5-0.6c0-3.2-0.1-6.5-0.2-7.6c0-0.2-0.2-1.1-0.2-1.3c0-0.1,0.1-0.2,0.1-0.2
		c0.1,0,1.8,0.3,1.8,0.6c0,0.1-0.3,0.4-0.4,0.5c-0.1,0.2-0.2,0.5-0.2,0.6c0,0.1,0,2.8,0,3.3c0,0.8,0,3.4,0,4c0,0.2,0.2,0.3,0.3,0.3
		c0.1,0,0.3-0.1,0.4-0.2c0.1-0.2,0.4-1,0.6-1c0.1,0,1.5,0.7,1.5,1c0,0.3-0.5,0.4-0.6,0.4l-1.8,0.3c-0.3,0.1-0.5,0.3-0.5,0.6
		c0,0.7,0.2,4.2,0.2,4.5c0,0.6-0.6,0.9-0.9,0.9c-0.3,0-0.5-0.2-0.5-0.6c0-0.2,0.1-0.9,0.1-1.1c0-0.7,0.1-2.7,0.1-3.2
		c0-0.4,0-0.9-0.5-0.8L197.6,186.7z M198.9,184c-0.4,0-0.4-0.2-0.5-0.6c-0.1-0.3-0.7-1.5-1.2-1.9c-0.1-0.1-0.2-0.2-0.2-0.2
		c0-0.1,0.1-0.1,0.1-0.1c0.3,0,2.4,0.9,2.4,2.1C199.4,184,198.9,184,198.9,184z M199,179.7c-0.3,0-0.5-0.4-0.7-0.6
		c-0.3-0.5-0.5-0.7-1-1.2c-0.1-0.1-0.1-0.1-0.1-0.2c0-0.1,0-0.1,0.1-0.1c0.1,0,2.2,0.3,2.2,1.4C199.5,179.1,199.5,179.7,199,179.7z"
		/>
	<path class="st0" d="M207.4,182.7c-0.1-0.1-0.1-0.1-0.1-0.1s0,0,0.1,0c0.1,0,0.5,0.1,0.6,0.1c0.8,0.1,1.5,0.1,2.3,0.1
		c0.2,0,0.5-0.1,0.5-0.5c0-0.7,0-1.8,0-2.5c0-0.4-0.1-0.4-0.1-0.4c-0.1,0-0.1,0.1-0.5,0.5c-1.1,1.4-2.2,2.4-2.3,2.4
		c-0.1,0-0.1-0.1-0.1-0.1c0,0,0.8-1.1,0.9-1.3c0.8-1.3,1.7-3.3,1.8-4.1c0-0.6,0-0.6,0.2-0.6c0.2,0,1.7,0.5,1.7,0.8
		c0,0.1-0.5,0.5-0.6,0.6c-0.1,0.1-0.5,0.7-0.5,0.9c0,0.2,0.2,0.2,0.5,0.2h7.4c0.8,0,0.9,0,1-0.3c0.2-0.4,0.4-0.6,0.6-0.6
		c0.2,0,1.5,0.9,1.5,1.1c0,0.2-0.4,0.2-0.8,0.2h-1.1c-0.1,0-0.4,0-0.5,0.2c-0.1,0.2-0.1,1.6-0.1,1.9c0,0.2,0,1.3,0.1,1.4
		c0.1,0.1,0.2,0.1,0.8,0.1c0.3,0,0.4-0.1,0.6-0.5c0.1-0.2,0.3-0.4,0.5-0.4c0.2,0,1.5,0.9,1.5,1.1c0,0.2-0.4,0.2-0.9,0.2h-2.1
		c-0.2,0-0.5,0-0.5,0.3c0,0.1,0,1.7,0,1.9c0,1.4,0,1.6,0.4,1.6c0.3,0,0.4,0,0.6-0.3c0.5-0.6,0.5-0.7,0.7-0.7c0.3,0,1.3,1.1,1.3,1.2
		c0,0.2-0.4,0.2-0.8,0.2h-11.8c-0.4,0-0.9,0-1.3,0.1c-0.1,0-0.3,0-0.4,0c-0.1,0-0.1,0-0.1-0.1l-0.3-0.4c-0.1-0.1-0.1-0.1-0.1-0.1
		c0,0,0,0,0.1,0c0.1,0,0.5,0,0.6,0.1c0.9,0.1,1.2,0.1,1.5,0.1c0.2,0,0.4,0,0.5-0.1c0.1-0.1,0.1-0.1,0.1-1.8c0-1.6,0-1.8-0.5-1.8
		c-0.6,0-1.5,0-2,0.1c-0.1,0-0.3,0-0.4,0s-0.1,0-0.2-0.1L207.4,182.7z M208.2,191.5c-0.4,0-0.6-0.3-0.6-0.7c0-0.3,0.1-0.6,0.8-1.1
		c0.6-0.5,0.8-0.8,0.9-1.2c0.1-0.5,0.2-0.6,0.3-0.6c0.2,0,0.3,1,0.3,1.2C209.8,190.8,208.8,191.5,208.2,191.5z M212.3,183.1
		c-0.5,0-0.5,0.1-0.5,1.2c0,0.3,0,2.1,0,2.3c0.1,0.3,0.3,0.3,0.5,0.3h0.5c0.2,0,0.4,0,0.5-0.2c0.1-0.2,0.1-2.5,0.1-2.9
		c0-0.5-0.1-0.6-0.5-0.6H212.3z M212.4,179c-0.3,0-0.5,0-0.5,0.3c-0.1,0.2-0.1,1.5-0.1,1.9c0,1.3,0,1.5,0.6,1.5h0.4
		c0.2,0,0.4,0,0.5-0.2c0.1-0.1,0.1-1.1,0.1-1.3c0-0.3,0-1.7-0.1-1.9c-0.1-0.2-0.3-0.2-0.5-0.2H212.4z M213.8,190.4
		c0,0.7-0.4,1.1-0.8,1.1c-0.4,0-0.5-0.3-0.5-0.8c0-1,0-1.4-0.2-2.1c0-0.1-0.2-0.6-0.2-0.6c0,0,0-0.1,0.1-0.1c0.2,0,0.6,0.5,0.8,0.7
		C213.3,188.9,213.8,189.6,213.8,190.4z M215.3,186.9c0.2,0,0.5,0,0.5-0.3c0.1-0.3,0.1-1.6,0.1-1.9c0-0.3,0-1.2-0.1-1.3
		c-0.1-0.2-0.3-0.2-0.5-0.2h-0.5c-0.5,0-0.5,0.1-0.5,0.9c0,0.4,0,2.5,0.1,2.6s0.3,0.2,0.5,0.2H215.3z M215.4,182.7
		c0.5,0,0.5-0.1,0.5-1.3c0-0.2,0-1.9-0.1-2.1c-0.1-0.3-0.3-0.3-0.5-0.3h-0.4c-0.2,0-0.4,0-0.5,0.2c-0.1,0.2-0.1,2.1-0.1,2.5
		c0,0.9,0,1,0.5,1H215.4z M218.1,190.6c0,0.7-0.4,0.9-0.7,0.9c-0.2,0-0.4-0.1-0.5-0.8c-0.1-0.9-0.2-1.6-0.6-2.3c0,0-0.2-0.4-0.2-0.4
		s0-0.1,0.1-0.1c0.2,0,0.7,0.4,0.9,0.5C217.4,188.8,218.1,189.6,218.1,190.6z M217.5,179c-0.2,0-0.5,0-0.5,0.2
		c-0.1,0.2-0.1,2.4-0.1,2.8c0,0.5,0,0.6,0.5,0.6h0.5c0.5,0,0.5-0.2,0.5-0.6c0-0.2,0-2.7-0.1-2.9c-0.1-0.2-0.3-0.2-0.5-0.2H217.5z
		 M217.5,183.1c-0.4,0-0.5,0.1-0.5,0.5v2.8c0,0.4,0.3,0.4,0.5,0.4h0.5c0.2,0,0.4,0,0.5-0.2c0.1-0.1,0.1-1.4,0.1-1.6
		c0-0.3,0-1.5-0.1-1.7c-0.1-0.2-0.3-0.2-0.5-0.2H217.5z M222.4,190.6c0,0.2-0.1,1-0.7,1c-0.4,0-0.5-0.2-0.7-1
		c-0.2-0.5-0.5-1.6-0.8-2.1c-0.1-0.2-0.2-0.4-0.2-0.5c0,0,0-0.1,0.1-0.1c0.2,0,0.7,0.4,0.9,0.5C222.1,189.3,222.4,190,222.4,190.6z"
		/>
	<path class="st0" d="M230.7,182c-0.1,0-0.5,0-0.5,0.3c0,0.1,0.1,0.1,0.1,0.2c1,0.5,2.7,1.8,2.7,2.7c0,0.2-0.1,0.7-0.6,0.7
		c-0.3,0-0.4-0.2-0.6-0.9c-0.4-1.3-1.5-2.3-1.6-2.3c-0.1,0-0.1,0.1-0.1,0.4c0,0.4,0,2.5,0,2.9c0,0.7,0.1,3.9,0.1,4.6
		c0,0.8-0.8,0.9-0.8,0.9c-0.2,0-0.5-0.2-0.5-0.5s0.1-2.3,0.2-2.7c0-0.2,0.1-3.4,0.1-3.5c0-0.1,0-0.2-0.2-0.2c-0.1,0-0.1,0.1-0.4,0.6
		c-0.7,1.3-2.3,3.4-2.5,3.4c0,0-0.1,0-0.1-0.1s0.2-0.5,0.3-0.6c1.9-3.7,2.3-5.5,2.3-5.6c0-0.2-0.1-0.4-0.4-0.4
		c-0.3,0-1.3,0.1-1.6,0.1c0,0-0.2,0-0.2,0c-0.1,0-0.1,0-0.2-0.1l-0.3-0.4c-0.1-0.1-0.1-0.1-0.1-0.1s0,0,0.1,0c0.1,0,0.5,0.1,0.6,0.1
		c0.3,0,1.9,0.1,2.2,0.1c0.4,0,0.5-0.2,0.5-0.5c0-1,0-2.8-0.1-3.7c0-0.2-0.1-1.1-0.1-1.3c0-0.1,0-0.2,0.1-0.2c0,0,1.7,0.3,1.7,0.6
		c0,0.1,0,0.1-0.2,0.2c-0.1,0.1-0.3,0.3-0.4,0.7c0,0-0.2,3.4-0.2,3.6c0,0.5,0.3,0.5,0.6,0.5c0.2,0,0.6,0,0.7-0.1
		c0.1-0.1,0.6-0.8,0.8-0.8c0.1,0,1.4,0.9,1.4,1.2c0,0.2-0.2,0.2-0.7,0.2H230.7z M227.6,180.5c-0.4,0-0.4-0.3-0.6-1
		c-0.2-0.8-0.6-1.5-0.8-1.9c0,0-0.1-0.1-0.1-0.1c0-0.1,0.1-0.1,0.1-0.1c0.3,0,2,1.2,2,2.3C228.3,180.3,227.8,180.5,227.6,180.5z
		 M231,180.8C230.9,180.8,230.9,180.8,231,180.8c0-0.1,0.3-0.8,0.4-0.9c0.3-0.8,0.8-2.1,0.8-2.8c0-0.1,0-0.2,0.1-0.2
		c0.1,0,1.4,0.9,1.4,1.1c0,0.1-0.1,0.2-0.2,0.2c-0.1,0.1-0.4,0.2-0.5,0.3C232.9,178.6,231.2,180.8,231,180.8z M234.6,186.7
		c-0.8,0.2-1.7,0.4-2.2,0.5c-0.1,0-0.3,0.1-0.4,0.1c-0.1,0-0.1,0-0.1-0.1l-0.4-0.3c-0.1-0.1-0.1-0.1-0.1-0.1s0,0,0.5-0.1
		c0.1,0,1.5-0.2,2.7-0.5l2.7-0.6c0.5-0.1,0.5-0.6,0.5-0.6c0-3.2-0.1-6.5-0.2-7.6c0-0.2-0.2-1.1-0.2-1.3c0-0.1,0.1-0.2,0.1-0.2
		c0.1,0,1.8,0.3,1.8,0.6c0,0.1-0.3,0.4-0.4,0.5c-0.1,0.2-0.2,0.5-0.2,0.6c0,0.1,0,2.8,0,3.3c0,0.8,0,3.4,0,4c0,0.2,0.2,0.3,0.3,0.3
		c0.1,0,0.3-0.1,0.4-0.2c0.1-0.2,0.4-1,0.6-1c0.1,0,1.5,0.7,1.5,1c0,0.3-0.5,0.4-0.6,0.4l-1.8,0.3c-0.3,0.1-0.5,0.3-0.5,0.6
		c0,0.7,0.2,4.2,0.2,4.5c0,0.6-0.6,0.9-0.9,0.9c-0.3,0-0.5-0.2-0.5-0.6c0-0.2,0.1-0.9,0.1-1.1c0-0.7,0.1-2.7,0.1-3.2
		c0-0.4,0-0.9-0.5-0.8L234.6,186.7z M235.9,184c-0.4,0-0.4-0.2-0.5-0.6c-0.1-0.3-0.7-1.5-1.2-1.9c-0.1-0.1-0.2-0.2-0.2-0.2
		c0-0.1,0.1-0.1,0.1-0.1c0.3,0,2.4,0.9,2.4,2.1C236.4,184,235.9,184,235.9,184z M236,179.7c-0.3,0-0.5-0.4-0.7-0.6
		c-0.3-0.5-0.5-0.7-1-1.2c-0.1-0.1-0.1-0.1-0.1-0.2c0-0.1,0-0.1,0.1-0.1c0.1,0,2.2,0.3,2.2,1.4C236.5,179.1,236.5,179.7,236,179.7z"
		/>
	<path class="st0" d="M245.3,176.6c-0.1-0.2-0.9-0.9-0.9-1c0,0,0-0.1,0.1-0.1c0.2,0,4.2,2.9,4.2,8.3c0,5.4-4,8.3-4.2,8.3
		c-0.1,0-0.1-0.1-0.1-0.1c0-0.1,0.7-0.9,0.9-1c0.7-0.9,2.5-3.4,2.5-7.2S246,177.5,245.3,176.6z"/>
</g>
</svg>
