<svg id="subscription_nakami_sp" xmlns="http://www.w3.org/2000/svg" width="745" height="90" viewBox="0 0 745 90">
  <rect id="長方形_30" data-name="長方形 30" width="745" height="90" fill="#ffc946" opacity="0"/>
  <g id="グループ_356" data-name="グループ 356" transform="translate(2549.288 -2133.659)">
    <g id="グループ_355" data-name="グループ 355">
      <path id="パス_1563" data-name="パス 1563" d="M-2433.344,2169.668c0,1.814-4.179,3.464-5.5,4.014-.769.275-.824.5-.933,2.42-.112,1.21-.112,5.664-.112,5.939,0,.33,0,.99.5.99.165,0,4.674-1.87,5.555-2.2,5.444-2.034,7.918-2.2,9.348-2.2a8.42,8.42,0,0,1,8.469,8.3c0,7.258-7.645,10.558-12.153,10.558-3.135,0-5.664-1.6-5.664-4.455,0-2.584,2.254-4.344,2.748-4.344a.294.294,0,0,1,.276.275c0,.165-.11.275-.219.44a2.269,2.269,0,0,0-.5,1.485c0,2.639,3.025,2.639,3.574,2.639,3.631,0,8.25-2.419,8.25-6.819,0-3.9-2.916-6.049-5.279-6.049-1.541,0-4.95.715-11.385,4.125-3.078,1.649-3.408,1.814-3.408,2.749,0,.6.164,3.079.164,3.63,0,2.529-.824,6.159-2.8,6.159-1.484,0-2.09-1.155-2.529-2.035-1.76-3.409-2.035-3.409-2.75-3.409a4.562,4.562,0,0,0-1.375.33,10.928,10.928,0,0,1-2.09,1.1c-.6,0-3.408-1.65-3.408-3.464,0-.991.6-2.145,1.593-2.145.331,0,1.926.275,2.256.275,1.485,0,2.475-.275,5.719-1.87,2.8-1.375,3.135-1.54,3.135-3.079,0-1.265-.055-5.939-.111-6.875,0-.385-.165-1.209-.77-1.209a12.944,12.944,0,0,0-2.529.494c-2.8.936-3.08,1.045-3.9,1.045-1.869,0-3.959-3.794-3.959-4.179a.389.389,0,0,1,.44-.385c.164,0,.824.221.99.221a16.1,16.1,0,0,0,2.529.274,24.027,24.027,0,0,0,6.985-1.649c.275-.385.549-5.39.549-6a5.4,5.4,0,0,0-1.815-4.4,5.545,5.545,0,0,1-.769-.88c0-.495.88-.6,1.209-.6,3.685,0,5.666,2.7,5.666,3.74a21.9,21.9,0,0,1-1.157,2.859,29.565,29.565,0,0,0-.548,3.575c0,.219.109.6.439.6.385,0,1.924-.6,1.924-1.375,0-.11-.274-.66-.274-.771,0-.054.11-.165.219-.219C-2435.984,2167.193-2433.344,2167.963-2433.344,2169.668Zm-12.539,21.061c0,.826,1.487,2.585,2.311,2.585.769,0,1.539-1.54,1.539-4.234,0-.221,0-.769-.164-.88C-2442.363,2188.2-2445.883,2189.96-2445.883,2190.729Zm36.131-17.1c0,1.154-.66,2.64-1.814,2.64-.33,0-1.6-.111-1.869-.111-.276.056-1.432.385-1.651.385a.257.257,0,0,1-.275-.274c0-.111.166-.385.166-.441a2.907,2.907,0,0,0,.218-.989c0-2.2-2.75-2.97-4.619-2.97a4.77,4.77,0,0,0-2.144.55,1.232,1.232,0,0,1-.551.165c-.164,0-.219-.055-.219-.22a7.032,7.032,0,0,1,5.94-3.465C-2412.336,2168.9-2409.752,2171.1-2409.752,2173.627Z" fill="#333"/>
      <path id="パス_1564" data-name="パス 1564" d="M-2362,2174.672a48.421,48.421,0,0,0,13.309,4.344c.22,0,1.154.166,1.154.385,0,.165-.77.385-.99.44a9.534,9.534,0,0,0-4.178,2.97c-.166.22-.772,1.375-1.045,1.375-.33,0-12.264-5.775-17.654-14.574-1.045-1.759-1.209-1.924-1.594-1.924s-.5.11-1.7,1.375a65.371,65.371,0,0,1-16.277,12.813c-1.872.989-7.59,3.52-8.635,3.52-.164,0-.276-.111-.276-.166s5.885-3.684,6.381-4.014c7.424-4.675,15.287-13.088,16.057-17.213.055-.44.111-.6.5-.6.273,0,4.729,1.706,5,1.87.164.055.715.275.715.825a3.4,3.4,0,0,1-.221.77C-2371.348,2167.688-2366.619,2172.307-2362,2174.672Zm-26.506-13.693c-4.07,0-5.939.11-6.984.165-.164,0-.99.11-1.154.11s-.276-.11-.5-.33l-1.044-1.266c-.219-.274-.219-.274-.219-.385s.054-.109.164-.109c.385,0,2.09.165,2.42.165,2.7.11,5,.22,7.59.22h1.593c1.155,0,1.485-.55,1.485-1.485a8.936,8.936,0,0,0-.44-2.915,8.5,8.5,0,0,1-.33-1.1c0-.276.276-.386.606-.386.384,0,2.859.606,3.464.771,1.649.44,1.979.549,1.979,1.044,0,.331-.055.441-.824,1.43a1.345,1.345,0,0,0-.385.989c0,1.321.439,1.651,1.924,1.651h9.074c.5,0,1.65,0,1.65-1.485a22.253,22.253,0,0,0-.166-2.474c-.054-.276-.33-1.43-.33-1.651,0-.275.33-.384.606-.384.385,0,4.125.88,4.73,1.045s.934.384.934.879c0,.331-.219.55-.824.99a1.761,1.761,0,0,0-.715,1.54c0,1.54.879,1.54,1.76,1.54h2.8c2.42,0,2.7,0,3.52-.935,1.539-1.815,1.705-2.035,2.2-2.035.33,0,5.115,2.915,5.115,3.63,0,.77-1.1.77-2.916.77h-10.722c-1.705,0-1.705.879-1.705,2.2,0,.33.054,2.2.054,2.475,0,2.035-1.648,2.365-2.8,2.365-1.264,0-1.485-.22-1.485-2.09v-3.794c-.164-1.045-.824-1.155-1.705-1.155h-8.8c-1.263,0-2.035,0-2.035,1.54,0,.549.166,2.969.166,3.463,0,1.045-.166,1.54-.66,1.871a3.909,3.909,0,0,1-2.09.77c-.935,0-1.375-.6-1.375-1.705,0-.439.055-2.529.055-2.915,0-2.145,0-3.024-1.705-3.024Zm3.9,28.1a28.27,28.27,0,0,1,4.235,2.584,1.362,1.362,0,0,1,.439.825c0,.66-.439.771-1.759,1.1-.165.055-4.9,3.739-5.774,4.4-4.949,3.52-8.084,4.785-8.359,4.785a.174.174,0,0,1-.164-.165c0-.11,2.914-2.639,3.3-3.024,4.564-4.345,7.369-8.689,7.863-10.449A.331.331,0,0,1-2384.6,2189.08Zm2.53-2.915c-4.289,0-5.885.056-6.985.165-.164,0-.99.11-1.154.11s-.275-.11-.494-.33l-1.045-1.264c-.221-.276-.221-.276-.221-.385,0-.056.055-.11.164-.11.387,0,2.09.165,2.42.165,2.7.165,5.006.219,7.59.219h4.125c.549,0,1.649,0,1.649-1.484,0-.66-.33-5.114-.44-5.665,0-.109-.33-.659-.33-.77s.109-.33.551-.33c.385,0,4.234.826,4.783.991.77.165,1.045.66,1.045.934,0,.33-.109.441-.934,1.155-.771.661-.771.991-.771,2.64,0,1.98,0,2.529,1.65,2.529h2.42c2.42,0,2.7,0,3.52-.934,1.539-1.815,1.705-2.035,2.2-2.035.33,0,5.115,2.969,5.115,3.63,0,.769-1.1.769-2.916.769h-10.392c-1.651,0-1.651.99-1.651,2.75,0,3.9,0,6.1.112,9.349.054.934.054,2.255.054,2.914,0,1.76-.441,2.8-2.8,2.8-1.211,0-1.321-.989-1.321-1.923,0-.715.164-4.015.164-4.73.057-2.09.057-4.125.057-6.654a33.055,33.055,0,0,0-.111-3.739c-.274-.771-1.155-.771-1.594-.771Zm14.683,4.62c0-.166.276-.221.495-.221,2.035,0,14.574,3.465,14.574,8.03,0,1.76-.99,3.135-2.365,3.135-1.045,0-1.266-.276-2.971-2.8-2.584-3.9-6.379-6.159-9.457-7.919C-2367.17,2191-2367.389,2190.84-2367.389,2190.785Z" fill="#333"/>
      <path id="パス_1565" data-name="パス 1565" d="M-2312.135,2162.959c0,.164.11.385.11.6a42.166,42.166,0,0,1,.55,5.939c0,3.686-.824,8.8-5.664,16.113-4.4,6.709-7.205,8.03-9.4,8.03-3.629,0-6.873-5.665-6.873-12.374,0-2.915.6-8.469,6.1-14.023a22.753,22.753,0,0,1,17.543-7.149c5,0,7.314.99,8.853,1.759,5.939,2.915,9.568,8.8,9.568,16a20.509,20.509,0,0,1-13.857,19.358,33.818,33.818,0,0,1-9.129,2.035c-.221,0-.551-.056-.551-.385,0-.166.112-.221,1.485-.77,5.72-2.255,17.654-6.984,17.654-20.677,0-2.145-.221-15.234-15.234-15.234C-2312.08,2162.188-2312.135,2162.629-2312.135,2162.959Zm-17.873,16.882c0,3.575,1.43,8.47,4.785,8.47,1.594,0,2.914-.661,6.709-6.38,2.914-4.454,5.389-10.559,5.389-16,0-3.3-.219-3.574-.934-3.574C-2319.283,2162.354-2330.008,2169.447-2330.008,2179.841Z" fill="#333"/>
      <path id="パス_1566" data-name="パス 1566" d="M-2261.391,2174.066c-4.839,0-6.378.111-6.929.166-.219,0-.99.11-1.155.11-.22,0-.33-.11-.494-.33l-1.045-1.265c-.22-.274-.275-.274-.275-.385,0-.055.109-.11.219-.11.386,0,2.09.165,2.42.165,2.695.11,4.949.22,7.535.22h14.9c2.365,0,2.914,0,3.52-.935,1.32-1.979,1.429-2.2,1.98-2.2.934,0,4.729,2.75,4.729,3.74,0,.824-.991.824-2.969.824h-10.613c-1.541,0-1.541.551-1.541,5.116,0,4.289,0,4.728,1.541,4.728h3.793c2.365,0,2.859,0,3.464-.934,1.045-1.595,1.155-1.815,1.651-1.815.66,0,3.959,2.805,3.959,3.52,0,.33-.33.6-.824.659a16.02,16.02,0,0,1-2.036.056h-9.843c-1.7,0-1.7.33-1.7,3.629,0,1.87,0,8.084.166,8.359.218.44.658.44,1.318.495.441.055,3.3.22,6.1.22a68.106,68.106,0,0,0,14.682-1.7,10.475,10.475,0,0,1,1.7-.606c.055,0,.166,0,.166.22,0,.33-3.355,2.694-3.9,3.354a18.036,18.036,0,0,0-.881,2.2c-.385.715-2.584.77-3.353.77-22.053,0-24.694-3.135-28.268-7.313a12.849,12.849,0,0,1-2.363-3.96c-.112-.331-.221-.5-.387-.5-.219,0-.328.221-.824.991-5.114,8.193-9.9,9.4-10.283,9.4-.221,0-.331-.109-.331-.22,0-.054.825-.88.936-.99,6.434-6.873,9.184-15.4,9.4-19.357.166-2.475.166-2.7.551-2.7.33,0,4.729,1.265,4.729,2.035,0,.33-1.1,1.21-1.209,1.43-.385.825-1.321,4.619-1.6,5.39,0,.054-.934,2.8-.934,2.914,0,2.75,7.094,7.589,10.063,7.589.715,0,.715-.77.715-1.156,0-3.079.111-16.882.111-19.686,0-1.375,0-2.146-1.65-2.146Zm-8.25-9.953c-.714,0-1.043.055-1.373.991-1.045,3.3-2.75,4.564-4.07,4.564a1.6,1.6,0,0,1-1.814-1.54c0-.771.218-1.045,1.593-2.475a14.753,14.753,0,0,0,2.75-4.894c.221-.66.33-.935.551-.935.385,0,.824.879,1.154,1.924.221.825.551.936,1.266.936h13.088c1.32,0,1.484-.77,1.484-1.705,0-.88-.109-3.3-.164-4.18-.056-.44-.386-2.475-.386-2.914,0-.276.166-.276.22-.276s3.74.826,5.61,1.266a.691.691,0,0,1,.384.549c0,.275-1.263,1.265-1.429,1.6a14.687,14.687,0,0,0-.276,3.519c0,1.98.442,2.145,1.705,2.145h10.78c1.484,0,1.759-.111,2.474-.661.715-.6,1.321-1.154,1.924-1.154.385,0,5.061,2.805,5.061,4.289,0,1.1-1.266,1.1-1.6,1.1-.385,0-2.365-.165-2.859-.165a6.79,6.79,0,0,0-3.135.77,7.44,7.44,0,0,1-1.594.825.146.146,0,0,1-.166-.166c0-.439,1.32-2.474,1.32-3.024,0-.385-.33-.385-1.1-.385Z" fill="#333"/>
      <path id="パス_1567" data-name="パス 1567" d="M-2208.184,2186.66c-1.7,0-4.177,0-6.1.165-.164,0-.99.111-1.154.111-.221,0-.33-.111-.5-.331l-1.1-1.265c-.219-.275-.219-.275-.219-.385s.11-.109.219-.109c.769,0,4.51.33,5.391.33a1.3,1.3,0,0,0,1.484-1.21c.055-.441.164-17.158.164-18.753,0-.935-.273-1.595-1.539-1.595-.385,0-2.365.22-2.695.22-.164,0-.276-.109-.5-.33l-1.044-1.265c-.221-.274-.221-.274-.221-.385s.111-.11.166-.11c.6,0,3.574.221,4.234.221,1.649,0,1.649-.715,1.649-2.145,0-1.045,0-2.2-.055-3.189,0-.33-.109-1.981-.109-2.035,0-.385.33-.44.55-.44.11,0,4.454.659,4.454,1.539,0,.276-.385.5-1.1,1.045-.33.22-.33,2.805-.33,3.574,0,1.816.824,1.816,1.926,1.816h4.123c1.211,0,2.09,0,2.09-1.651,0-.769-.165-4.784-.165-5.664a.438.438,0,0,1,.5-.5c.054,0,4.509.88,4.509,1.815,0,.22-.824.881-.935,1.1-.385.6-.385,2.915-.385,3.794,0,.5,0,.936.441.936.5,0,.934-.551,1.155-.77.879-1.211.99-1.32,1.429-1.32.661,0,3.354,2.42,3.354,3.08,0,.6-1.045.6-2.529.6H-2193c-1.98,0-2.035.385-2.035,2.75v17.927c0,.276,0,.825.439.825a1.49,1.49,0,0,0,1.045-.77c.936-1.649,1.045-1.815,1.7-1.815.825,0,3.19,3.026,3.19,3.465,0,.715-.715.715-2.035.715Zm4.565,5.39c0,.55-.385.715-1.539,1.264-1.209.55-9.4,9.734-11.768,9.734-.22,0-.33-.11-.33-.22,0-.055,3.354-3.849,3.9-4.674,1.209-1.705,3.8-5.389,4.674-7.92.221-.66.385-1.209.66-1.209a7.962,7.962,0,0,1,2.254,1.155C-2203.838,2191.444-2203.619,2191.609-2203.619,2192.05Zm2.971-22.327c2.308,0,2.308-.441,2.308-4.07,0-1.979-.549-2.09-2.308-2.09h-3.575c-2.31,0-2.31.44-2.31,4.07,0,1.979.551,2.09,2.31,2.09Zm0,7.863c1.32,0,2.308,0,2.308-1.649v-3.41c0-1.375-1.154-1.375-2.308-1.375h-3.575c-1.32,0-2.31,0-2.31,1.65,0,.386,0,3.245.055,3.354,0,1.43,1.1,1.43,2.255,1.43Zm-3.8,1.43c-1.321,0-2.035.055-2.035,1.87v2.474c0,1.816.6,1.87,2.035,1.87h4.013c1.321,0,2.036-.054,2.036-1.87v-2.419c0-1.87-.6-1.925-2.036-1.925Zm12.978,18.093c0,1.045-.6,2.254-1.814,2.254-1.266,0-1.7-1.209-2.586-3.629a12.071,12.071,0,0,0-3.024-4.839c-.22-.22-.935-.935-.935-1.1a.2.2,0,0,1,.221-.221,23.593,23.593,0,0,1,3.794,1.87C-2194.434,2192.215-2191.465,2193.864-2191.465,2197.109Zm16.168-40.42a3.1,3.1,0,0,0,1.375-.165c.276-.165,1.43-1.32,1.815-1.32.439,0,3.9,1.485,3.9,2.53a1.124,1.124,0,0,1-.44.825c-.769.66-.826.77-.99,1.045-.33.714-.33,7.864-.33,9.349,0,3.354.166,19.137.276,25.516,0,.44.164,2.64.164,3.135,0,4.07-3.024,5.224-4.62,5.224-.714,0-.878-.11-1.375-.88a9.457,9.457,0,0,0-4.289-3.409c-.054,0-1.045-.5-.714-.6.275-.11,3.519,0,4.179,0,2.145,0,2.584-.276,2.8-1.265.164-.825.164-10.009.164-11.658,0-2.09-.33-2.31-2.145-2.31h-6.269c-2.2,0-2.145.22-2.254,2.529-.33,8.8-6.215,17.983-7.424,17.983a.249.249,0,0,1-.275-.22,13.345,13.345,0,0,1,.551-1.319c3.959-8.909,3.959-18.423,3.959-26.4,0-10.284-.33-14.078-.825-17.268-.056-.44-.441-2.585-.441-2.7,0-.219.166-.33.385-.33a43.39,43.39,0,0,1,4.291,1.6,8.316,8.316,0,0,0,1.648.11Zm-.055,12.208c1.43,0,2.036-.11,2.036-1.814v-7.039c0-1.87-.717-1.87-2.147-1.87h-6.267c-1.541,0-2.145.11-2.145,1.98,0,.99.109,5.828.109,6.929,0,1.814.715,1.814,2.254,1.814Zm-.166,12.374c1.266,0,2.145,0,2.145-1.65.057-1.979.057-5.389.057-7.424,0-1.814-.827-1.87-2.09-1.87h-6.106c-1.429,0-2.254,0-2.254,1.816,0,1.045-.054,6.268-.054,7.423,0,1.65.715,1.705,2.033,1.705Z" fill="#333"/>
      <path id="パス_1568" data-name="パス 1568" d="M-2145.422,2170.768c-.33,1.045-.387,13.142-.387,15.287,0,2.42.112,13.034.112,15.178,0,1.65-1.156,2.31-2.641,2.31-1.209,0-1.43-.715-1.43-1.595,0-.55.276-3.189.276-3.684.221-3.795.33-9.239.33-12.924,0-2.914-.055-9.184-.109-12.319,0-.329,0-1.1-.331-1.1-.166,0-.6.6-.826.88-1.1,1.54-4.453,5.059-4.949,5.059-.219,0-.33-.109-.33-.384,0-.165,2.256-3.63,2.641-4.345,5.388-9.294,7.533-17.157,7.7-18.643.109-1.045.109-1.154.494-1.154.221,0,5.279,1.925,5.279,3.134,0,.6-.6.881-1.154,1.1a1.9,1.9,0,0,0-1.266,1.155,80.689,80.689,0,0,1-4.234,7.589,3.028,3.028,0,0,0-.494,1.044c0,.385.275.5.66.661a3.434,3.434,0,0,1,1.705,1.1C-2144.377,2169.447-2145.312,2170.492-2145.422,2170.768Zm25.24,12.318c-1.484,0-1.593.769-1.648,1.705a26.241,26.241,0,0,1-.99,7.039,21.947,21.947,0,0,0-.936,2.694c0,.6.221.715,2.475,1.54a42.649,42.649,0,0,0,14.408,2.53c.275,0,1.65-.111,1.98-.111.11,0,.331,0,.331.165,0,.276-.715.606-1.1.77a5.847,5.847,0,0,0-2.477,2.2c-.6,1.21-.769,1.54-1.648,1.54-3.795,0-11.6-3.354-14.078-4.84-1.375-.824-1.541-.934-1.871-.934a6.548,6.548,0,0,0-2.033,1.319,23.465,23.465,0,0,1-13.254,4.949c-.221,0-.825,0-.825-.384,0-.275.219-.33,1.375-.55,4.454-.88,12.153-5.939,12.153-7.644,0-.385-.11-.495-1.1-1.65-1.814-2.09-4.4-7.149-4.4-7.863a.461.461,0,0,1,.494-.5c.275,0,.549.441,1.1,1.375,1.375,2.2,4.235,6.325,5.225,6.325,1.045,0,1.705-5.775,1.705-7.81,0-.989-.055-1.869-1.484-1.869h-5.83c-.881,0-1.209.165-1.43.494a3.086,3.086,0,0,1-2.695,1.76c-1.264,0-1.264-1.319-1.264-2.034,0-.99.164-5.94.164-7.039,0-2.805-.055-5.664-.33-9.459,0-.385-.219-2.255-.219-2.7,0-.55.219-.55.385-.55a11.325,11.325,0,0,1,2.969,1.045,5.428,5.428,0,0,0,3.08.826h5.113c1.651,0,1.651-.606,1.651-3.465,0-2.2,0-3.08-1.54-3.08h-2.916c-1.539,0-4.289,0-6.488.11-.166,0-1.484.165-1.6.165-.164,0-.273-.11-.494-.33l-1.045-1.265c-.22-.219-.22-.275-.22-.385s.111-.11.166-.11c.384,0,2.035.165,2.42.165,1.593.111,4.453.22,7.533.22h13.254c2.8,0,2.968,0,3.9-1.484,1.209-2.036,1.375-2.2,1.869-2.2.99,0,4.51,3.41,4.51,4.345,0,.77-1.045.77-2.969.77h-11.219c-1.7,0-1.7.66-1.7,2.969,0,2.805,0,3.576,1.651,3.576h5a2.23,2.23,0,0,0,1.648-.551c.936-1.045.99-1.1,1.266-1.1.439,0,4.125,2.145,4.125,2.86,0,.384-.33.6-.881.879a1.111,1.111,0,0,0-.77,1.265c0,1.816.055,4.015.11,5.83.056,1.209.33,7.039.33,8.359,0,2.089-2.309,2.53-2.86,2.53-.6,0-.99-.276-1.154-1.32-.166-1.1-1.209-1.1-1.65-1.1Zm-6.6-9.568c1.594,0,1.594-.386,1.594-4.071,0-1.814,0-2.584-1.594-2.584h-5.885c-1.65,0-1.65.385-1.65,4.07,0,1.814,0,2.585,1.65,2.585Zm.054,8.138c1.54,0,1.54-.77,1.54-2.53,0-3.739,0-4.179-1.54-4.179h-5.994c-1.486,0-1.486.715-1.486,2.365,0,3.9,0,4.344,1.6,4.344Zm6.709-14.793c-1.7,0-1.7.715-1.7,2.475,0,3.079,0,3.464.385,3.794a1.59,1.59,0,0,0,1.32.386h5.114c1.705,0,1.705-.716,1.705-2.476,0-2.859,0-3.464-.385-3.794a1.593,1.593,0,0,0-1.32-.385Zm.055,8.084c-1.76,0-1.76.879-1.76,2.309,0,3.96,0,4.4,1.76,4.4h5.059c1.759,0,1.759-.881,1.759-2.31,0-3.959,0-4.4-1.759-4.4Z" fill="#333"/>
      <path id="パス_1569" data-name="パス 1569" d="M-2071.455,2162.959c0,.164.109.385.109.6a42,42,0,0,1,.551,5.939c0,3.686-.824,8.8-5.664,16.113-4.4,6.709-7.205,8.03-9.4,8.03-3.629,0-6.873-5.665-6.873-12.374,0-2.915.6-8.469,6.1-14.023a22.755,22.755,0,0,1,17.543-7.149c5,0,7.315.99,8.854,1.759,5.939,2.915,9.568,8.8,9.568,16a20.509,20.509,0,0,1-13.857,19.358,33.819,33.819,0,0,1-9.129,2.035c-.221,0-.551-.056-.551-.385,0-.166.111-.221,1.484-.77,5.721-2.255,17.655-6.984,17.655-20.677,0-2.145-.221-15.234-15.235-15.234C-2071.4,2162.188-2071.455,2162.629-2071.455,2162.959Zm-17.873,16.882c0,3.575,1.43,8.47,4.785,8.47,1.594,0,2.914-.661,6.709-6.38,2.914-4.454,5.389-10.559,5.389-16,0-3.3-.219-3.574-.934-3.574C-2078.6,2162.354-2089.328,2169.447-2089.328,2179.841Z" fill="#333"/>
      <path id="パス_1570" data-name="パス 1570" d="M-2022.7,2162.738a25.14,25.14,0,0,1-1.045,3.08,132.152,132.152,0,0,0-2.309,19.578c0,5.553,1.045,10.5,8.414,10.5a27.066,27.066,0,0,0,11.549-2.859c.824-.385,5-2.694,5.223-2.694a.256.256,0,0,1,.275.274c0,.606-8.138,9.459-18.476,9.459-7.151,0-10.559-4.124-10.559-15.178,0-3.409.109-4.509,1.264-15.288.22-1.814.715-6.324.715-7.864a6.907,6.907,0,0,0-.495-2.694c-.054-.165-.6-1.43-.6-1.485,0-.385.439-.549.769-.549C-2025.117,2157.02-2022.7,2161.474-2022.7,2162.738Z" fill="#333"/>
      <path id="パス_1571" data-name="パス 1571" d="M-1970.447,2155.7c1.32,0,6.763,2.8,6.763,4.84,0,1.484-14.738,15.728-14.738,18.092,0,.935.442,1.76,1.651,3.025,4.894,5.334,12.373,13.418,12.373,17.213a2.339,2.339,0,0,1-2.364,2.584c-1.705,0-2.035-1.045-3.191-4.289-1.7-4.84-7.7-12.153-9.127-13.913-1.705-2.09-2.147-2.915-2.147-4.069,0-1.486.715-3.135,4.456-7.81,5.445-6.819,7.478-9.679,7.478-11.714a5.223,5.223,0,0,0-1.375-3.189c-.164-.275-.273-.494-.164-.659C-1970.777,2155.7-1970.611,2155.7-1970.447,2155.7Z" fill="#333"/>
      <path id="パス_1572" data-name="パス 1572" d="M-1922.6,2162.078c-.714,0-3.023,1.981-3.9,2.75-.715.66-2.805,2.529-4.234,2.529-2.035,0-3.574-3.9-3.574-4.069,0-.329.109-.55.439-.55s1.6.221,1.871.221c1.76,0,2.418-.11,5.719-2.2a9.443,9.443,0,0,1,5.279-1.816c3.629,0,4.453,2.475,4.453,3.3,0,1.155-.494,1.816-3.353,4.454-3.959,3.686-8.084,10.945-8.084,11.164,0,.276.384.33.551.33.714,0,3.792-.054,4.453,0a44.529,44.529,0,0,1,10.394,2.2,2.189,2.189,0,0,0,.879.22c.715,0,1.045-4.509,1.045-5.059,0-.441-.33-2.86-.33-3.079,0-.33.385-.33.6-.33.164,0,4.95.878,4.95,3.024a11.967,11.967,0,0,1-1.209,2.145c0,.11-.772,4.508-.772,4.674,0,.715.33.879,1.266,1.374,2.144,1.156,7.148,3.74,7.148,6.6a2.13,2.13,0,0,1-2.033,2.09c-1.1,0-1.705-.441-5.555-3.739-.111-.056-1.7-1.431-2.256-1.431-.439,0-.6.386-.769.66-1.594,2.859-4.125,6.709-10.777,10.174a20.285,20.285,0,0,1-5.94,2.2c-.057,0-.441,0-.441-.166a8.494,8.494,0,0,1,1.045-.769c5.445-3.74,8.138-5.94,11.33-10.889a10.125,10.125,0,0,0,1.648-3.135c0-.494,0-.769-3.023-2.254a23.821,23.821,0,0,0-10.119-2.474c-3.411,0-3.52.219-4.456,2.2-4.728,10.063-5.664,12.1-9.128,12.1-2.805,0-3.629-3.024-3.629-4.4,0-4.675,4.894-8.854,10.668-10.889a1.984,1.984,0,0,0,1.375-1.1c1.265-2.035,8.138-12.429,8.414-12.924a7.775,7.775,0,0,0,.715-2.475A.707.707,0,0,0-1922.6,2162.078Zm-18.421,26.507c0,.935.439,1.595,1.429,1.595,3.026,0,6.6-8.084,6.6-8.3,0-.165-.055-.275-.221-.275C-1935.191,2181.6-1941.019,2185.34-1941.019,2188.585Z" fill="#333"/>
    </g>
  </g>
</svg>
