<svg id="subscription_structure" xmlns="http://www.w3.org/2000/svg" width="415.22" height="33.152" viewBox="0 0 415.22 33.152">
  <g id="グループ_94" data-name="グループ 94" transform="translate(-776.069 -1938.994)">
    <path id="パス_497" data-name="パス 497" d="M789.963,1949.684c0,1.188-2.735,2.268-3.6,2.628-.5.18-.539.324-.612,1.584-.071.792-.071,3.707-.071,3.887,0,.216,0,.648.323.648.109,0,3.06-1.224,3.636-1.439,3.563-1.332,5.184-1.44,6.119-1.44a5.511,5.511,0,0,1,5.544,5.435c0,4.751-5,6.911-7.955,6.911-2.052,0-3.708-1.044-3.708-2.915a3.207,3.207,0,0,1,1.8-2.844.192.192,0,0,1,.179.18c0,.108-.071.18-.143.288a1.483,1.483,0,0,0-.324.972c0,1.727,1.98,1.727,2.339,1.727,2.376,0,5.4-1.583,5.4-4.463a3.728,3.728,0,0,0-3.455-3.959c-1.008,0-3.24.467-7.451,2.7-2.016,1.08-2.233,1.188-2.233,1.8,0,.4.109,2.016.109,2.376,0,1.655-.54,4.031-1.836,4.031-.972,0-1.368-.756-1.656-1.332-1.152-2.231-1.332-2.231-1.8-2.231a2.971,2.971,0,0,0-.9.216,7.1,7.1,0,0,1-1.367.719c-.4,0-2.232-1.079-2.232-2.267,0-.648.4-1.4,1.043-1.4.216,0,1.26.18,1.476.18.973,0,1.62-.18,3.744-1.224,1.836-.9,2.052-1.008,2.052-2.016,0-.828-.036-3.887-.072-4.5,0-.252-.109-.792-.5-.792a8.418,8.418,0,0,0-1.656.324,7.712,7.712,0,0,1-2.556.684c-1.224,0-2.591-2.484-2.591-2.736a.255.255,0,0,1,.287-.252c.109,0,.54.144.649.144a10.434,10.434,0,0,0,1.655.18,15.736,15.736,0,0,0,4.572-1.08,26.911,26.911,0,0,0,.36-3.923,3.535,3.535,0,0,0-1.188-2.88,3.6,3.6,0,0,1-.5-.576c0-.324.576-.4.792-.4,2.411,0,3.707,1.764,3.707,2.448a14.367,14.367,0,0,1-.756,1.872,19.253,19.253,0,0,0-.359,2.339c0,.144.071.4.287.4.252,0,1.261-.4,1.261-.9,0-.072-.181-.431-.181-.5,0-.037.072-.108.145-.145C788.236,1948.064,789.963,1948.568,789.963,1949.684Zm-8.207,13.787c0,.54.972,1.691,1.512,1.691.5,0,1.008-1.007,1.008-2.771,0-.144,0-.5-.108-.576C784.06,1961.815,781.756,1962.967,781.756,1963.471Zm23.65-11.195c0,.756-.433,1.728-1.189,1.728-.216,0-1.044-.072-1.224-.072-.179.036-.935.252-1.08.252a.168.168,0,0,1-.179-.18,2.482,2.482,0,0,1,.108-.288,1.917,1.917,0,0,0,.144-.648c0-1.44-1.8-1.944-3.024-1.944a3.125,3.125,0,0,0-1.4.36.8.8,0,0,1-.359.108c-.109,0-.145-.036-.145-.144a4.6,4.6,0,0,1,3.888-2.268C803.713,1949.18,805.406,1950.62,805.406,1952.276Z" fill="#333"/>
    <path id="パス_498" data-name="パス 498" d="M842.35,1952.96a31.715,31.715,0,0,0,8.711,2.844c.143,0,.756.108.756.251,0,.109-.5.252-.649.289a6.229,6.229,0,0,0-2.735,1.943c-.108.144-.5.9-.684.9-.216,0-8.027-3.779-11.554-9.538-.685-1.152-.792-1.26-1.044-1.26s-.325.072-1.117.9a42.76,42.76,0,0,1-10.654,8.387,31.152,31.152,0,0,1-5.651,2.3c-.109,0-.18-.072-.18-.108s3.852-2.412,4.175-2.628c4.859-3.059,10.007-8.566,10.511-11.266.036-.288.072-.4.324-.4.179,0,3.1,1.116,3.275,1.224.109.036.468.18.468.54a2.2,2.2,0,0,1-.144.5C836.231,1948.389,839.326,1951.412,842.35,1952.96ZM825,1944c-2.664,0-3.888.072-4.572.108-.108,0-.647.072-.756.072s-.18-.072-.323-.216l-.685-.828c-.143-.18-.143-.18-.143-.252s.036-.072.107-.072c.252,0,1.368.108,1.584.108,1.764.072,3.275.144,4.968.144h1.044c.756,0,.971-.36.971-.972a5.876,5.876,0,0,0-.287-1.908,5.259,5.259,0,0,1-.216-.719c0-.18.179-.252.395-.252.252,0,1.872.4,2.268.5,1.08.288,1.3.36,1.3.684,0,.216-.036.288-.539.935a.876.876,0,0,0-.252.648c0,.864.287,1.08,1.259,1.08h5.939c.324,0,1.08,0,1.08-.972a15.266,15.266,0,0,0-.107-1.619c-.037-.18-.217-.936-.217-1.08,0-.18.217-.252.4-.252.252,0,2.7.576,3.1.684s.611.252.611.576c0,.216-.143.36-.539.648a1.152,1.152,0,0,0-.469,1.007c0,1.008.577,1.008,1.153,1.008H843.9c1.584,0,1.763,0,2.3-.612,1.008-1.188,1.116-1.331,1.44-1.331.216,0,3.347,1.907,3.347,2.375,0,.5-.719.5-1.908.5h-7.018c-1.117,0-1.117.576-1.117,1.44,0,.216.037,1.44.037,1.62,0,1.332-1.08,1.548-1.836,1.548-.828,0-.972-.144-.972-1.368v-2.484c-.108-.684-.54-.756-1.116-.756H831.3c-.828,0-1.332,0-1.332,1.008,0,.36.108,1.944.108,2.268,0,.684-.108,1.008-.432,1.224a2.564,2.564,0,0,1-1.367.5c-.613,0-.9-.4-.9-1.116,0-.288.036-1.656.036-1.908,0-1.4,0-1.98-1.116-1.98Zm2.556,18.394a18.418,18.418,0,0,1,2.771,1.692.893.893,0,0,1,.288.54c0,.432-.288.5-1.152.719-.108.036-3.2,2.448-3.779,2.88a22.08,22.08,0,0,1-5.472,3.132.114.114,0,0,1-.107-.108c0-.072,1.907-1.728,2.159-1.98,2.988-2.844,4.823-5.687,5.147-6.839A.22.22,0,0,1,827.556,1962.391Zm1.655-1.908c-2.807,0-3.851.036-4.571.108-.108,0-.649.072-.756.072s-.18-.072-.324-.216l-.684-.828c-.144-.18-.144-.18-.144-.252,0-.036.036-.072.108-.072.252,0,1.368.108,1.584.108,1.764.108,3.276.144,4.967.144h2.7c.359,0,1.08,0,1.08-.972,0-.432-.217-3.347-.288-3.707,0-.072-.216-.432-.216-.5s.071-.216.36-.216c.252,0,2.771.54,3.131.648.5.108.684.432.684.612,0,.216-.071.288-.611.756-.5.432-.5.648-.5,1.727,0,1.3,0,1.656,1.079,1.656h1.584c1.584,0,1.764,0,2.3-.612,1.007-1.188,1.116-1.332,1.44-1.332.216,0,3.348,1.944,3.348,2.376,0,.5-.721.5-1.908.5h-6.8c-1.08,0-1.08.648-1.08,1.8,0,2.555,0,3.995.071,6.119.036.612.036,1.476.036,1.908,0,1.152-.288,1.836-1.836,1.836-.791,0-.863-.648-.863-1.26,0-.468.107-2.628.107-3.1.036-1.368.036-2.7.036-4.355a22.121,22.121,0,0,0-.071-2.448c-.181-.5-.756-.5-1.044-.5Zm9.612,3.024c0-.108.179-.144.323-.144,1.332,0,9.539,2.267,9.539,5.255,0,1.152-.648,2.052-1.548,2.052-.684,0-.828-.18-1.943-1.836a17.108,17.108,0,0,0-6.192-5.183C838.966,1963.651,838.823,1963.542,838.823,1963.507Z" fill="#333"/>
    <path id="パス_499" data-name="パス 499" d="M880.629,1945.293c0,.108.071.252.071.4a27.439,27.439,0,0,1,.361,3.888c0,2.411-.54,5.759-3.708,10.546-2.879,4.392-4.715,5.255-6.155,5.255-2.375,0-4.5-3.707-4.5-8.1a12.676,12.676,0,0,1,3.995-9.178,14.892,14.892,0,0,1,11.483-4.68,11.725,11.725,0,0,1,5.795,1.152,11.282,11.282,0,0,1,6.263,10.475,13.425,13.425,0,0,1-9.071,12.67,22.118,22.118,0,0,1-5.975,1.332c-.144,0-.36-.036-.36-.252,0-.108.072-.144.972-.5,3.743-1.476,11.555-4.571,11.555-13.534,0-1.4-.145-9.971-9.971-9.971C880.664,1944.789,880.629,1945.077,880.629,1945.293Zm-11.7,11.051c0,2.339.936,5.543,3.132,5.543,1.044,0,1.908-.432,4.391-4.175a20.591,20.591,0,0,0,3.528-10.475c0-2.16-.144-2.34-.613-2.34C875.95,1944.9,868.93,1949.54,868.93,1956.344Z" fill="#333"/>
    <path id="パス_500" data-name="パス 500" d="M919.532,1952.564c-3.169,0-4.176.072-4.537.108-.143,0-.647.072-.756.072-.143,0-.215-.072-.323-.216l-.684-.828c-.144-.18-.18-.18-.18-.252,0-.036.072-.072.145-.072.252,0,1.367.108,1.583.108,1.763.072,3.24.144,4.931.144h9.755c1.548,0,1.908,0,2.3-.612.864-1.3.935-1.439,1.3-1.439.612,0,3.1,1.8,3.1,2.447,0,.54-.648.54-1.944.54h-6.946c-1.009,0-1.009.36-1.009,3.348,0,2.807,0,3.095,1.009,3.095h2.483c1.548,0,1.872,0,2.268-.612.683-1.044.756-1.188,1.08-1.188.431,0,2.592,1.836,2.592,2.3,0,.216-.217.4-.54.432a10.652,10.652,0,0,1-1.332.036h-6.444c-1.116,0-1.116.216-1.116,2.376,0,1.224,0,5.291.108,5.471.145.288.432.288.865.324.288.036,2.159.144,3.995.144a44.509,44.509,0,0,0,9.611-1.116,6.92,6.92,0,0,1,1.115-.4c.036,0,.109,0,.109.144,0,.216-2.2,1.764-2.556,2.2a11.851,11.851,0,0,0-.576,1.44c-.252.468-1.692.5-2.2.5-14.434,0-16.162-2.052-18.5-4.788a8.408,8.408,0,0,1-1.548-2.591c-.073-.216-.145-.324-.252-.324-.145,0-.216.144-.54.648-3.348,5.363-6.48,6.155-6.732,6.155-.143,0-.215-.072-.215-.144,0-.036.539-.576.612-.648,4.211-4.5,6.011-10.079,6.155-12.671.108-1.619.108-1.763.359-1.763.216,0,3.1.828,3.1,1.332,0,.216-.72.792-.792.935-.252.54-.863,3.024-1.044,3.528,0,.036-.611,1.836-.611,1.908,0,1.8,4.643,4.967,6.587,4.967.468,0,.468-.5.468-.756,0-2.016.072-11.05.072-12.886,0-.9,0-1.4-1.08-1.4Zm-5.4-6.515c-.468,0-.683.036-.9.648-.684,2.159-1.8,2.987-2.663,2.987-.577,0-1.189-.288-1.189-1.007,0-.5.145-.684,1.044-1.62a9.658,9.658,0,0,0,1.8-3.2c.144-.432.216-.612.36-.612.252,0,.54.576.756,1.26.144.54.36.612.828.612h8.567c.864,0,.971-.5.971-1.116,0-.576-.071-2.16-.107-2.736-.036-.287-.252-1.619-.252-1.907,0-.18.107-.18.143-.18s2.449.54,3.672.828a.453.453,0,0,1,.252.36c0,.18-.828.827-.935,1.043a9.6,9.6,0,0,0-.181,2.3c0,1.3.288,1.4,1.116,1.4h7.055c.973,0,1.152-.072,1.62-.432.468-.4.864-.756,1.26-.756.252,0,3.311,1.836,3.311,2.808,0,.72-.828.72-1.044.72-.252,0-1.547-.108-1.871-.108a4.446,4.446,0,0,0-2.051.5,4.858,4.858,0,0,1-1.044.54.1.1,0,0,1-.109-.108c0-.288.865-1.62.865-1.98,0-.252-.216-.252-.72-.252Z" fill="#333"/>
    <path id="パス_501" data-name="パス 501" d="M960,1960.807c-1.115,0-2.735,0-3.995.108-.108,0-.647.072-.756.072-.143,0-.215-.072-.324-.216l-.72-.828c-.143-.18-.143-.18-.143-.252s.071-.072.143-.072c.5,0,2.953.216,3.528.216a.853.853,0,0,0,.972-.792c.035-.288.108-11.23.108-12.274,0-.612-.18-1.044-1.008-1.044-.252,0-1.548.144-1.764.144-.108,0-.179-.072-.324-.216l-.683-.828c-.145-.18-.145-.18-.145-.252s.072-.072.108-.072c.4,0,2.34.144,2.772.144,1.08,0,1.08-.468,1.08-1.4,0-.684,0-1.44-.036-2.088,0-.215-.073-1.295-.073-1.331,0-.252.217-.288.361-.288.072,0,2.916.432,2.916,1.008,0,.179-.252.324-.721.683a7.378,7.378,0,0,0-.216,2.34c0,1.188.54,1.188,1.26,1.188h2.7c.792,0,1.368,0,1.368-1.08,0-.5-.108-3.131-.108-3.707a.286.286,0,0,1,.324-.324c.035,0,2.952.576,2.952,1.187,0,.145-.541.576-.613.72a7.764,7.764,0,0,0-.252,2.484c0,.324,0,.612.288.612.325,0,.613-.36.756-.5.576-.792.649-.864.937-.864a4.97,4.97,0,0,1,2.2,2.016c0,.4-.684.4-1.655.4h-1.3c-1.3,0-1.332.252-1.332,1.8v11.734c0,.18,0,.54.288.54a.979.979,0,0,0,.684-.5c.612-1.08.683-1.188,1.116-1.188.54,0,2.088,1.98,2.088,2.268,0,.468-.469.468-1.332.468Zm2.988,3.528c0,.359-.251.468-1.007.827-.792.36-6.155,6.372-7.7,6.372-.145,0-.216-.072-.216-.144,0-.036,2.2-2.52,2.555-3.06a26.258,26.258,0,0,0,3.06-5.183c.144-.432.252-.792.432-.792a5.212,5.212,0,0,1,1.475.756C962.843,1963.939,962.987,1964.047,962.987,1964.335Zm1.944-14.615c1.512,0,1.512-.288,1.512-2.663,0-1.3-.36-1.368-1.512-1.368h-2.34c-1.512,0-1.512.288-1.512,2.664,0,1.3.361,1.367,1.512,1.367Zm0,5.148c.864,0,1.512,0,1.512-1.08v-2.232c0-.9-.756-.9-1.512-.9h-2.34c-.863,0-1.512,0-1.512,1.08,0,.252,0,2.124.036,2.2,0,.936.72.936,1.476.936Zm-2.483.936c-.865,0-1.333.036-1.333,1.223v1.62c0,1.188.4,1.224,1.333,1.224h2.627c.864,0,1.332-.036,1.332-1.224v-1.583c0-1.224-.4-1.26-1.332-1.26Zm8.495,11.842a1.341,1.341,0,0,1-1.189,1.476c-.827,0-1.115-.792-1.691-2.376a7.915,7.915,0,0,0-1.98-3.167c-.144-.144-.612-.612-.612-.72a.132.132,0,0,1,.144-.144,15.372,15.372,0,0,1,2.484,1.224C969,1964.443,970.943,1965.522,970.943,1967.646Zm10.582-26.457a2.03,2.03,0,0,0,.9-.108c.18-.107.936-.863,1.187-.863.289,0,2.556.971,2.556,1.655a.731.731,0,0,1-.288.54c-.5.432-.54.5-.647.684a53.343,53.343,0,0,0-.216,6.119c0,2.2.107,12.527.18,16.7,0,.288.108,1.728.108,2.052a3.119,3.119,0,0,1-3.024,3.42c-.468,0-.576-.072-.9-.576a6.2,6.2,0,0,0-2.807-2.232c-.037,0-.684-.324-.468-.4.179-.072,2.3,0,2.735,0,1.4,0,1.692-.18,1.836-.828.107-.54.107-6.551.107-7.631,0-1.368-.215-1.512-1.4-1.512h-4.1c-1.44,0-1.405.144-1.476,1.656-.216,5.759-4.067,11.771-4.859,11.771a.163.163,0,0,1-.181-.144,8.778,8.778,0,0,1,.36-.864c2.592-5.831,2.592-12.059,2.592-17.278a71.07,71.07,0,0,0-.54-11.3c-.036-.288-.288-1.691-.288-1.763,0-.144.108-.216.252-.216a28.353,28.353,0,0,1,2.807,1.044,5.541,5.541,0,0,0,1.081.071Zm-.036,7.991c.936,0,1.331-.071,1.331-1.187v-4.608c0-1.224-.467-1.224-1.4-1.224h-4.1c-1.008,0-1.405.072-1.405,1.3,0,.648.073,3.816.073,4.536,0,1.187.468,1.187,1.475,1.187Zm-.108,8.1c.828,0,1.4,0,1.4-1.08.036-1.295.036-3.527.036-4.859,0-1.188-.539-1.224-1.367-1.224h-4c-.935,0-1.475,0-1.475,1.188,0,.684-.037,4.1-.037,4.86,0,1.079.468,1.115,1.333,1.115Z" fill="#333"/>
    <path id="パス_502" data-name="パス 502" d="M1006.72,1950.4c-.216.684-.252,8.6-.252,10.007,0,1.584.072,8.531.072,9.935,0,1.08-.756,1.512-1.727,1.512-.792,0-.937-.468-.937-1.044,0-.36.181-2.088.181-2.412.143-2.484.216-6.047.216-8.459,0-1.907-.036-6.011-.073-8.063,0-.216,0-.72-.215-.72-.109,0-.4.4-.54.576a16.605,16.605,0,0,1-3.24,3.312c-.144,0-.216-.072-.216-.252,0-.108,1.476-2.376,1.728-2.844a42.7,42.7,0,0,0,5.039-12.2c.072-.684.072-.756.324-.756.144,0,3.455,1.259,3.455,2.052,0,.4-.395.575-.755.719a1.243,1.243,0,0,0-.828.756,52.985,52.985,0,0,1-2.772,4.968,1.985,1.985,0,0,0-.323.684c0,.252.179.324.431.432a2.241,2.241,0,0,1,1.117.719C1007.405,1949.54,1006.792,1950.224,1006.72,1950.4Zm16.522,8.063c-.972,0-1.043.5-1.08,1.116a17.079,17.079,0,0,1-.648,4.607,14.813,14.813,0,0,0-.611,1.764c0,.4.143.468,1.619,1.008a27.913,27.913,0,0,0,9.431,1.656c.18,0,1.08-.072,1.3-.072.071,0,.216,0,.216.108,0,.18-.468.4-.72.5a3.819,3.819,0,0,0-1.62,1.44c-.4.792-.5,1.007-1.08,1.007-2.483,0-7.6-2.195-9.215-3.167-.9-.54-1.007-.612-1.223-.612a4.3,4.3,0,0,0-1.332.864,15.36,15.36,0,0,1-8.675,3.24c-.144,0-.54,0-.54-.252,0-.18.144-.216.9-.36,2.915-.576,7.954-3.888,7.954-5,0-.252-.071-.324-.719-1.08a18.925,18.925,0,0,1-2.879-5.147.3.3,0,0,1,.323-.324c.181,0,.36.288.72.9.9,1.44,2.772,4.14,3.42,4.14.683,0,1.116-3.78,1.116-5.112,0-.648-.036-1.224-.972-1.224h-3.816c-.575,0-.791.108-.936.324a2.018,2.018,0,0,1-1.763,1.152c-.829,0-.829-.864-.829-1.332,0-.648.109-3.887.109-4.607,0-1.836-.036-3.708-.216-6.191,0-.252-.145-1.476-.145-1.764,0-.36.145-.36.252-.36a7.409,7.409,0,0,1,1.945.684,3.547,3.547,0,0,0,2.015.54h3.348c1.079,0,1.079-.4,1.079-2.268,0-1.44,0-2.016-1.008-2.016h-1.907c-1.008,0-2.808,0-4.248.072-.108,0-.972.108-1.043.108-.108,0-.181-.072-.324-.216l-.685-.828c-.143-.144-.143-.179-.143-.251s.072-.072.108-.072c.252,0,1.331.107,1.583.107,1.044.072,2.916.144,4.932.144h8.675c1.835,0,1.944,0,2.555-.972.792-1.331.9-1.439,1.224-1.439.648,0,2.952,2.232,2.952,2.843,0,.5-.684.5-1.943.5h-7.344c-1.115,0-1.115.432-1.115,1.944,0,1.836,0,2.34,1.079,2.34h3.276a1.459,1.459,0,0,0,1.079-.36c.613-.684.649-.72.828-.72.288,0,2.7,1.4,2.7,1.872,0,.252-.217.4-.577.576a.726.726,0,0,0-.5.828c0,1.187.037,2.627.073,3.815.035.792.216,4.607.216,5.471,0,1.368-1.512,1.656-1.873,1.656-.4,0-.647-.18-.755-.864-.109-.72-.792-.72-1.08-.72Zm-4.319-6.263c1.043,0,1.043-.252,1.043-2.664,0-1.187,0-1.691-1.043-1.691h-3.851c-1.081,0-1.081.252-1.081,2.663,0,1.188,0,1.692,1.081,1.692Zm.035,5.327c1.008,0,1.008-.5,1.008-1.655,0-2.448,0-2.736-1.008-2.736h-3.923c-.971,0-.971.468-.971,1.548,0,2.555,0,2.843,1.043,2.843Zm4.392-9.682c-1.115,0-1.115.468-1.115,1.619,0,2.016,0,2.268.252,2.484a1.039,1.039,0,0,0,.863.252h3.348c1.116,0,1.116-.468,1.116-1.62,0-1.872,0-2.267-.252-2.483a1.043,1.043,0,0,0-.864-.252Zm.036,5.291c-1.151,0-1.151.576-1.151,1.512,0,2.591,0,2.879,1.151,2.879h3.312c1.152,0,1.152-.576,1.152-1.511,0-2.592,0-2.88-1.152-2.88Z" fill="#333"/>
    <path id="パス_503" data-name="パス 503" d="M1060.827,1945.293c0,.108.072.252.072.4a27.608,27.608,0,0,1,.36,3.888c0,2.411-.54,5.759-3.708,10.546-2.879,4.392-4.715,5.255-6.155,5.255-2.375,0-4.5-3.707-4.5-8.1a12.676,12.676,0,0,1,3.995-9.178,14.892,14.892,0,0,1,11.482-4.68,11.724,11.724,0,0,1,5.8,1.152,11.282,11.282,0,0,1,6.263,10.475,13.423,13.423,0,0,1-9.071,12.67,22.119,22.119,0,0,1-5.975,1.332c-.144,0-.359-.036-.359-.252,0-.108.071-.144.971-.5,3.743-1.476,11.555-4.571,11.555-13.534,0-1.4-.145-9.971-9.971-9.971C1060.862,1944.789,1060.827,1945.077,1060.827,1945.293Zm-11.7,11.051c0,2.339.937,5.543,3.132,5.543,1.044,0,1.908-.432,4.392-4.175a20.6,20.6,0,0,0,3.527-10.475c0-2.16-.144-2.34-.612-2.34C1056.148,1944.9,1049.128,1949.54,1049.128,1956.344Z" fill="#333"/>
    <path id="パス_504" data-name="パス 504" d="M1098.541,1945.149a16.748,16.748,0,0,1-.683,2.016,86.492,86.492,0,0,0-1.512,12.814c0,3.636.684,6.875,5.507,6.875a17.736,17.736,0,0,0,7.558-1.871c.54-.253,3.277-1.764,3.42-1.764a.167.167,0,0,1,.18.18c0,.4-5.327,6.191-12.094,6.191-4.68,0-6.911-2.7-6.911-9.935,0-2.232.071-2.952.827-10.006.145-1.188.469-4.14.469-5.148a4.534,4.534,0,0,0-.324-1.764c-.036-.108-.4-.936-.4-.972,0-.251.288-.36.5-.36C1096.957,1941.405,1098.541,1944.321,1098.541,1945.149Z" fill="#333"/>
    <path id="パス_505" data-name="パス 505" d="M1138.663,1940.542c.864,0,4.427,1.835,4.427,3.167,0,.972-9.646,10.3-9.646,11.843a2.88,2.88,0,0,0,1.08,1.979c3.2,3.492,8.1,8.783,8.1,11.267a1.532,1.532,0,0,1-1.547,1.692c-1.116,0-1.332-.684-2.088-2.808-1.116-3.167-5.039-7.955-5.975-9.107-1.116-1.368-1.4-1.908-1.4-2.663,0-.972.467-2.052,2.916-5.112,3.563-4.463,4.895-6.335,4.895-7.667a3.416,3.416,0,0,0-.9-2.087c-.108-.18-.18-.325-.108-.432C1138.448,1940.542,1138.555,1940.542,1138.663,1940.542Z" fill="#333"/>
    <path id="パス_506" data-name="パス 506" d="M1175.847,1944.717c-.468,0-1.98,1.3-2.556,1.8-.467.432-1.836,1.656-2.771,1.656-1.332,0-2.34-2.556-2.34-2.664,0-.216.072-.36.288-.36s1.044.144,1.224.144c1.151,0,1.584-.072,3.743-1.44a6.184,6.184,0,0,1,3.456-1.188c2.376,0,2.915,1.62,2.915,2.16,0,.756-.323,1.188-2.2,2.916a32.67,32.67,0,0,0-5.291,7.307c0,.18.252.216.359.216.468,0,2.484-.036,2.916,0a29.1,29.1,0,0,1,6.8,1.439,1.435,1.435,0,0,0,.576.144c.468,0,.684-2.951.684-3.311,0-.288-.216-1.872-.216-2.016,0-.216.252-.216.4-.216.107,0,3.239.576,3.239,1.98a7.71,7.71,0,0,1-.792,1.4c0,.072-.5,2.952-.5,3.059,0,.468.215.576.828.9,1.4.756,4.679,2.448,4.679,4.32a1.394,1.394,0,0,1-1.332,1.368c-.72,0-1.116-.288-3.635-2.448-.073-.036-1.117-.936-1.476-.936-.288,0-.4.252-.5.432a15.532,15.532,0,0,1-7.056,6.659,13.259,13.259,0,0,1-3.887,1.44c-.036,0-.287,0-.287-.108a5.609,5.609,0,0,1,.683-.5c3.564-2.448,5.327-3.887,7.415-7.127a6.631,6.631,0,0,0,1.08-2.052c0-.324,0-.5-1.98-1.476a15.6,15.6,0,0,0-6.623-1.619c-2.232,0-2.3.144-2.915,1.44-3.1,6.587-3.708,7.918-5.976,7.918-1.836,0-2.376-1.979-2.376-2.879,0-3.06,3.2-5.8,6.984-7.127a1.3,1.3,0,0,0,.9-.72c.827-1.332,5.327-8.135,5.507-8.459a5.078,5.078,0,0,0,.468-1.62C1176.242,1944.969,1176.135,1944.717,1175.847,1944.717Zm-12.059,17.35c0,.612.288,1.044.936,1.044,1.98,0,4.32-5.292,4.32-5.436,0-.107-.036-.18-.144-.18C1167.6,1957.495,1163.788,1959.943,1163.788,1962.067Z" fill="#333"/>
  </g>
</svg>
