<svg id="subscription_h_sp" xmlns="http://www.w3.org/2000/svg" width="745" height="100" viewBox="0 0 745 100">
  <rect id="長方形_21" data-name="長方形 21" width="745" height="100" fill="#ffc946" opacity="0"/>
  <g id="グループ_313" data-name="グループ 313" transform="translate(-1403.521 -2491.576)">
    <g id="グループ_310" data-name="グループ 310">
      <g id="グループ_309" data-name="グループ 309">
        <path id="パス_1412" data-name="パス 1412" d="M1668.639,2584.038c-.161-.414-1.15-3.013-1.15-3.151a.486.486,0,0,1,.506-.482c.253,0,.3.114.851.965a6.793,6.793,0,0,0,5.4,3.15,3.314,3.314,0,0,0,3.4-3.472c0-2.092-1.38-2.828-4.3-3.84-3.2-1.1-5.312-2.322-5.312-5.059a4.333,4.333,0,0,1,4.6-4.461,9.085,9.085,0,0,1,1.633.184c.253.046,1.219.253,1.38.253a.875.875,0,0,0,.506-.138c.322-.253.368-.3.529-.3.276,0,.344.207.574.8.162.368,1.242,3.081,1.242,3.219a.361.361,0,0,1-.391.368c-.184,0-.23-.068-.6-.667a5.329,5.329,0,0,0-4.691-2.966,2.941,2.941,0,0,0-3.127,3.035c0,1.909,1.38,2.6,4.392,3.656,4.645,1.61,5.266,3.45,5.266,5.221a4.875,4.875,0,0,1-4.99,4.966,7.406,7.406,0,0,1-2.483-.459,2.966,2.966,0,0,0-.92-.23,1.188,1.188,0,0,0-.874.3c-.391.346-.437.391-.667.391C1669.122,2585.325,1669.076,2585.187,1668.639,2584.038Z" fill="#333"/>
        <path id="パス_1413" data-name="パス 1413" d="M1700.307,2568.125c.3,0,.644,0,.644.391,0,.368-.322.368-.713.368-1.632,0-1.747,1.311-1.771,2.024-.022,1.149,0,6.852,0,8.14,0,1.632-.068,3.4-1.471,4.829a5.358,5.358,0,0,1-3.886,1.448c-.989,0-5.7-.322-5.841-5.082-.023-1.287.023-7.542.023-8.944,0-1.771-.115-2.415-2.138-2.415-.138,0-.506,0-.506-.368,0-.391.344-.391.69-.391h5.633c.276,0,.621,0,.621.391,0,.368-.3.368-.736.368a1.536,1.536,0,0,0-1.678,1.035c-.115.344-.115,4.714-.115,5.518,0,5.059,0,5.45.391,6.531a4.031,4.031,0,0,0,3.932,2.483,4.084,4.084,0,0,0,3.587-1.793c.782-1.15.782-2.116.782-7.45,0-5.082-.046-5.2-.322-5.634a1.763,1.763,0,0,0-1.633-.69c-.252,0-.459-.115-.459-.368,0-.391.344-.391.551-.391Z" fill="#333"/>
        <path id="パス_1414" data-name="パス 1414" d="M1715,2568.125c2.576,0,5.841.851,5.841,3.7a4.142,4.142,0,0,1-2.783,3.726c-.137.045-.551.207-.551.321s.965.323,1.149.391a4.548,4.548,0,0,1,3.151,4c0,2.185-1.955,4.622-6.255,4.622h-7.7c-.345,0-.69,0-.69-.368s.345-.367.713-.367c.759,0,1.77,0,1.977-1.2.092-.46.138-6.945.138-7.841a39.41,39.41,0,0,0-.207-5.381c-.3-.851-1.379-.851-1.609-.851-.759,0-1.012,0-1.012-.391,0-.368.23-.368.9-.368Zm-2.69,8.255a.614.614,0,0,0-.529.3c-.092.207-.092,3.473-.092,4,0,2.507,0,3.473,1.678,3.473h2c2.484,0,4.254-1.4,4.254-3.818a3.875,3.875,0,0,0-4.185-3.955Zm2.483-.736c2.162,0,3.909-1.149,3.909-3.5,0-2.23-1.54-3.265-3.7-3.265h-1.633c-1.655,0-1.655,1.035-1.655,3.035,0,1.15,0,3.219.069,3.426a.639.639,0,0,0,.529.3Z" fill="#333"/>
        <path id="パス_1415" data-name="パス 1415" d="M1729.334,2584.038c-.161-.414-1.15-3.013-1.15-3.151a.486.486,0,0,1,.506-.482c.253,0,.3.114.851.965a6.791,6.791,0,0,0,5.4,3.15,3.313,3.313,0,0,0,3.4-3.472c0-2.092-1.38-2.828-4.3-3.84-3.2-1.1-5.312-2.322-5.312-5.059a4.333,4.333,0,0,1,4.6-4.461,9.077,9.077,0,0,1,1.632.184c.253.046,1.219.253,1.38.253a.875.875,0,0,0,.506-.138c.322-.253.368-.3.529-.3.276,0,.345.207.575.8.161.368,1.241,3.081,1.241,3.219a.361.361,0,0,1-.39.368c-.184,0-.23-.068-.6-.667a5.331,5.331,0,0,0-4.691-2.966,2.941,2.941,0,0,0-3.128,3.035c0,1.909,1.38,2.6,4.392,3.656,4.645,1.61,5.266,3.45,5.266,5.221a4.875,4.875,0,0,1-4.99,4.966,7.41,7.41,0,0,1-2.483-.459,2.967,2.967,0,0,0-.92-.23,1.188,1.188,0,0,0-.874.3c-.391.346-.437.391-.667.391C1729.817,2585.325,1729.771,2585.187,1729.334,2584.038Z" fill="#333"/>
        <path id="パス_1416" data-name="パス 1416" d="M1758.516,2567.964c0,.023,1.495,3.633,1.495,3.886a.431.431,0,0,1-.437.414c-.207,0-.253-.069-.736-.735-1.955-2.76-4-3.082-4.967-3.082-3.61,0-5.473,4.415-5.473,8.393,0,5.335,3.128,7.427,5.864,7.427,1.61,0,3.449-.689,4.967-3.265.529-.9.529-.92.713-.92a.359.359,0,0,1,.345.368,7.589,7.589,0,0,1-1.311,2.323,6.705,6.705,0,0,1-5.4,2.552c-4.852,0-7.22-3.932-7.22-8.439,0-5.381,3.334-9.2,7.22-9.2a7.974,7.974,0,0,1,1.955.276,11.263,11.263,0,0,0,1.379.368.951.951,0,0,0,.622-.23c.367-.368.413-.414.6-.414A.528.528,0,0,1,1758.516,2567.964Z" fill="#333"/>
        <path id="パス_1417" data-name="パス 1417" d="M1772.9,2568.125c1.1,0,6.346.115,6.346,3.978,0,2.346-1.77,3.4-3.058,4.024-.805.391-.9.437-.9.69a40.749,40.749,0,0,0,2.392,5.5,2.863,2.863,0,0,0,2.713,1.84c.23,0,.69,0,.69.367,0,.323-.46.368-.575.368h-2.874a1.127,1.127,0,0,1-1.081-.667c-.138-.23-1.771-3.793-2.024-4.369-1.264-2.782-1.425-3.15-2.23-3.15h-1.265c-.161,0-.46.092-.529.276-.092.23-.092,3.265-.092,3.794,0,2.783,0,3.381,2.116,3.381.161,0,.483,0,.483.367s-.414.368-.667.368h-5.68c-.23,0-.575-.045-.575-.368,0-.367.322-.367.644-.367,1.587,0,1.817-.736,1.886-1.587.046-.782.046-7.1.046-8.186a36.76,36.76,0,0,0-.185-4.645c-.3-.851-1.287-.851-1.816-.851-.138,0-.621,0-.621-.414,0-.345.414-.345.69-.345Zm-.828.759c-1.656,0-1.656,1.035-1.656,3.4,0,3.61,0,3.68.621,3.68h1.863c2.253,0,4.162-1.242,4.162-3.634,0-1.61-.874-3.449-3.863-3.449Z" fill="#333"/>
        <path id="パス_1418" data-name="パス 1418" d="M1787.682,2584.888c-.3,0-.643,0-.643-.368s.183-.367,1.08-.367c.667,0,1.771,0,2-1.2.069-.391.069-5.68.069-6.347,0-.943,0-6.14-.069-6.553-.23-1.173-1.058-1.173-2.575-1.173-.139,0-.506,0-.506-.368,0-.391.344-.391.666-.391h6.761c.276,0,.621,0,.621.391,0,.345-.207.345-1.058.345-.69,0-1.679.023-1.978,1.058-.091.322-.091,5.5-.091,6.553,0,6.094,0,6.117.069,6.485.207,1.2,1.034,1.2,2.575,1.2.115,0,.483,0,.483.367s-.345.368-.621.368Z" fill="#333"/>
        <path id="パス_1419" data-name="パス 1419" d="M1807.813,2568.125c.874,0,6.554,0,6.554,4.346,0,2.392-1.84,4.484-5.956,4.484H1806.2c-.62,0-.62.184-.62,1.932,0,4.208,0,4.231.253,4.622a1.718,1.718,0,0,0,1.54.644c.506,0,.782,0,.782.367s-.322.368-.644.368h-5.68c-.345,0-.666,0-.666-.368s.344-.367.574-.367c.782,0,1.771,0,2-1.2.069-.368.069-.391.069-6.508,0-1.081,0-6-.069-6.392a1.527,1.527,0,0,0-1.748-1.173c-.574,0-.827,0-.827-.368,0-.391.321-.391.666-.391Zm.138,8.072c3.036,0,4.231-1.679,4.231-3.634,0-2.53-1.862-3.679-3.955-3.679h-.989c-1.655,0-1.655,1.012-1.655,3.012,0,.322,0,3.588.023,3.794a.559.559,0,0,0,.6.507Z" fill="#333"/>
        <path id="パス_1420" data-name="パス 1420" d="M1833.535,2568.125c1.242,0,1.517,0,1.908,1.035.184.506,1.173,3.1,1.173,3.334a.354.354,0,0,1-.368.345c-.184,0-.253-.092-.782-.966-1.218-2-2.575-2.989-4.139-2.989-.9,0-1.448.368-1.587,1.149-.068.415-.068,5.611-.068,6.577,0,.644,0,5.956.068,6.347.207,1.173,1.288,1.2,1.909,1.2.851,0,1.035,0,1.035.367s-.322.368-.69.368h-6.439c-.321,0-.667,0-.667-.368s.369-.367.506-.367c1.357,0,2.208,0,2.438-1.2.069-.368.069-.391.069-6.508,0-5.68,0-6.3-.161-6.737a1.434,1.434,0,0,0-1.472-.828c-1.839,0-3.2,1.449-4.139,2.966-.552.9-.6.989-.805.989a.374.374,0,0,1-.368-.345c0-.184,1.035-2.943,1.219-3.4.368-.966.736-.966,1.886-.966Z" fill="#333"/>
        <path id="パス_1421" data-name="パス 1421" d="M1842.96,2584.888c-.3,0-.643,0-.643-.368s.183-.367,1.08-.367c.667,0,1.771,0,2-1.2.069-.391.069-5.68.069-6.347,0-.943,0-6.14-.069-6.553-.23-1.173-1.058-1.173-2.576-1.173-.138,0-.505,0-.505-.368,0-.391.344-.391.666-.391h6.761c.276,0,.62,0,.62.391,0,.345-.206.345-1.057.345-.69,0-1.679.023-1.978,1.058-.092.322-.092,5.5-.092,6.553,0,6.094,0,6.117.069,6.485.207,1.2,1.035,1.2,2.576,1.2.115,0,.482,0,.482.367s-.344.368-.62.368Z" fill="#333"/>
        <path id="パス_1422" data-name="パス 1422" d="M1863.088,2585.325c-4.438,0-7.519-3.633-7.519-8.807s3.058-8.83,7.519-8.83c4.415,0,7.5,3.634,7.5,8.83C1870.584,2581.669,1867.526,2585.325,1863.088,2585.325Zm5.312-9.014c0-2.115-.6-7.864-5.312-7.864-5.151,0-5.335,6.761-5.335,8.278,0,2.208.667,7.842,5.335,7.842C1868.216,2584.567,1868.4,2577.875,1868.4,2576.311Z" fill="#333"/>
        <path id="パス_1423" data-name="パス 1423" d="M1876.724,2584.888c-.345,0-.69,0-.69-.368s.276-.367.851-.367a1.815,1.815,0,0,0,1.839-1.035c.184-.529.207-.552.207-6.646,0-5.794,0-5.817-.069-6.209-.275-1.379-1.54-1.379-2.322-1.379-.138,0-.506,0-.506-.368,0-.391.345-.391.69-.391h2.23c1.656,0,1.7.069,2.875,1.863,1.4,2.115,3.656,5.5,5.059,7.611.3.46,2.414,3.679,2.552,3.679.092,0,.161-.161.161-.46,0-.643.023-4.415.023-5.22,0-.827,0-4.9-.069-5.312-.276-1.4-1.448-1.4-2.207-1.4-.138,0-.483,0-.483-.368,0-.391.322-.391.643-.391h4.784c.253,0,.6,0,.6.391,0,.368-.321.368-.69.368-1.908,0-1.908,1.035-1.908,3.794,0,1.725.023,10.233.023,12.142,0,.114,0,.5-.3.5a.4.4,0,0,1-.3-.184c-.138-.161-9.152-13.705-9.267-13.866-.414-.666-.46-.759-.575-.759s-.184.184-.184.437c0,.829-.023,4.83-.023,5.749s0,5.5.07,5.933c.275,1.518,1.54,1.518,2.529,1.518.184,0,.529,0,.529.367s-.3.368-.736.368Z" fill="#333"/>
      </g>
    </g>
    <g id="グループ_312" data-name="グループ 312">
      <g id="グループ_311" data-name="グループ 311">
        <path id="パス_1424" data-name="パス 1424" d="M1588.14,2514.6c0,1.814-4.179,3.465-5.5,4.015-.77.274-.825.494-.935,2.419-.11,1.21-.11,5.665-.11,5.939,0,.33,0,.99.495.99.165,0,4.674-1.87,5.554-2.2,5.445-2.034,7.919-2.2,9.349-2.2a8.42,8.42,0,0,1,8.469,8.3c0,7.26-7.644,10.559-12.153,10.559-3.135,0-5.665-1.595-5.665-4.454,0-2.585,2.255-4.345,2.75-4.345a.3.3,0,0,1,.275.276c0,.164-.11.274-.22.439a2.275,2.275,0,0,0-.495,1.485c0,2.64,3.025,2.64,3.574,2.64,3.63,0,8.25-2.42,8.25-6.819,0-3.905-2.915-6.05-5.28-6.05-1.54,0-4.949.715-11.384,4.125-3.079,1.649-3.409,1.814-3.409,2.749,0,.6.165,3.08.165,3.63,0,2.53-.825,6.159-2.8,6.159-1.485,0-2.09-1.155-2.53-2.035-1.76-3.409-2.035-3.409-2.75-3.409a4.582,4.582,0,0,0-1.375.33,10.833,10.833,0,0,1-2.09,1.1c-.6,0-3.409-1.65-3.409-3.464,0-.991.6-2.145,1.6-2.145.33,0,1.925.274,2.254.274,1.485,0,2.475-.274,5.72-1.869,2.8-1.375,3.134-1.54,3.134-3.08,0-1.264-.055-5.939-.109-6.874,0-.385-.166-1.21-.77-1.21a12.839,12.839,0,0,0-2.53.5c-2.805.935-3.08,1.045-3.905,1.045-1.869,0-3.959-3.795-3.959-4.179a.39.39,0,0,1,.44-.385c.165,0,.825.22.99.22a15.949,15.949,0,0,0,2.529.274,24.019,24.019,0,0,0,6.984-1.649c.275-.385.55-5.39.55-5.995a5.4,5.4,0,0,0-1.814-4.4,5.51,5.51,0,0,1-.77-.88c0-.5.88-.6,1.21-.6,3.684,0,5.664,2.694,5.664,3.739a22.146,22.146,0,0,1-1.155,2.859,29.4,29.4,0,0,0-.55,3.575c0,.22.11.605.44.605.385,0,1.925-.605,1.925-1.375,0-.11-.275-.66-.275-.77,0-.055.11-.165.22-.22C1585.5,2512.124,1588.14,2512.894,1588.14,2514.6Zm-12.538,21.062c0,.825,1.485,2.585,2.31,2.585.769,0,1.539-1.54,1.539-4.235,0-.22,0-.77-.165-.88C1579.121,2533.131,1575.6,2534.891,1575.6,2535.661Zm36.13-17.1c0,1.155-.66,2.64-1.815,2.64-.329,0-1.595-.11-1.869-.11-.275.055-1.43.385-1.65.385a.256.256,0,0,1-.275-.275,3.777,3.777,0,0,1,.165-.44,2.9,2.9,0,0,0,.22-.99c0-2.2-2.75-2.969-4.62-2.969a4.785,4.785,0,0,0-2.144.549,1.228,1.228,0,0,1-.55.165c-.165,0-.22-.055-.22-.22a7.032,7.032,0,0,1,5.939-3.464C1609.148,2513.829,1611.732,2516.029,1611.732,2518.558Z" fill="#333"/>
        <path id="パス_1425" data-name="パス 1425" d="M1664.985,2519.6a48.469,48.469,0,0,0,13.308,4.345c.22,0,1.155.165,1.155.384,0,.165-.77.386-.99.441a9.513,9.513,0,0,0-4.179,2.969c-.166.22-.77,1.375-1.045,1.375-.33,0-12.264-5.774-17.653-14.573-1.045-1.76-1.21-1.925-1.594-1.925s-.5.11-1.706,1.375A65.306,65.306,0,0,1,1636,2526.807c-1.87.99-7.589,3.52-8.634,3.52-.165,0-.275-.11-.275-.165s5.884-3.685,6.379-4.015c7.424-4.674,15.288-13.088,16.058-17.212.055-.441.11-.6.495-.6.275,0,4.729,1.7,5,1.869.165.055.715.275.715.826a3.445,3.445,0,0,1-.22.769C1655.636,2512.619,1660.365,2517.239,1664.985,2519.6Zm-26.507-13.693c-4.069,0-5.939.11-6.984.165-.165,0-.989.11-1.154.11s-.275-.11-.5-.33l-1.045-1.265c-.219-.275-.219-.275-.219-.385s.055-.11.165-.11c.385,0,2.089.165,2.419.165,2.7.11,5.005.22,7.589.22h1.595c1.155,0,1.485-.55,1.485-1.485a8.934,8.934,0,0,0-.44-2.914,8.366,8.366,0,0,1-.33-1.1c0-.275.275-.385.6-.385.385,0,2.86.6,3.465.77,1.649.44,1.979.55,1.979,1.045,0,.33-.055.44-.825,1.43a1.342,1.342,0,0,0-.384.989c0,1.32.439,1.65,1.924,1.65h9.074c.495,0,1.65,0,1.65-1.485a22.843,22.843,0,0,0-.165-2.474c-.055-.275-.33-1.43-.33-1.65,0-.275.33-.385.6-.385.385,0,4.124.88,4.729,1.045s.935.385.935.88c0,.33-.22.55-.825.99a1.763,1.763,0,0,0-.715,1.54c0,1.539.88,1.539,1.76,1.539h2.8c2.419,0,2.694,0,3.519-.935,1.54-1.814,1.7-2.034,2.2-2.034.33,0,5.114,2.914,5.114,3.629,0,.77-1.1.77-2.914.77h-10.724c-1.705,0-1.705.88-1.705,2.2,0,.33.055,2.2.055,2.474,0,2.035-1.65,2.365-2.8,2.365-1.265,0-1.485-.22-1.485-2.089v-3.8c-.165-1.045-.825-1.155-1.7-1.155h-8.8c-1.265,0-2.034,0-2.034,1.54,0,.55.165,2.969.165,3.464,0,1.045-.165,1.54-.661,1.87a3.9,3.9,0,0,1-2.089.77c-.935,0-1.375-.6-1.375-1.7,0-.44.055-2.529.055-2.914,0-2.145,0-3.025-1.7-3.025Zm3.905,28.1a28.15,28.15,0,0,1,4.234,2.585,1.363,1.363,0,0,1,.44.825c0,.66-.44.77-1.759,1.1-.165.054-4.9,3.739-5.775,4.4-4.949,3.52-8.084,4.784-8.359,4.784a.175.175,0,0,1-.165-.165c0-.11,2.915-2.639,3.3-3.024,4.564-4.345,7.369-8.689,7.864-10.449A.331.331,0,0,1,1642.383,2534.011Zm2.529-2.914c-4.289,0-5.883.055-6.984.165-.165,0-.989.109-1.154.109s-.275-.109-.495-.329l-1.045-1.265c-.22-.275-.22-.275-.22-.385,0-.055.055-.11.165-.11.385,0,2.09.165,2.419.165,2.695.165,5.005.22,7.59.22h4.124c.55,0,1.65,0,1.65-1.485,0-.66-.33-5.114-.44-5.664,0-.11-.33-.66-.33-.77s.11-.33.55-.33c.385,0,4.234.825,4.784.99.77.165,1.045.66,1.045.935,0,.33-.11.44-.935,1.154-.77.661-.77.991-.77,2.64,0,1.98,0,2.53,1.65,2.53h2.42c2.419,0,2.694,0,3.519-.935,1.54-1.815,1.705-2.034,2.2-2.034.33,0,5.114,2.969,5.114,3.629,0,.77-1.1.77-2.914.77h-10.394c-1.65,0-1.65.99-1.65,2.749,0,3.905,0,6.1.11,9.349.055.935.055,2.254.055,2.915,0,1.759-.44,2.8-2.8,2.8-1.21,0-1.32-.989-1.32-1.924,0-.715.165-4.015.165-4.73.054-2.09.054-4.124.054-6.654a33.636,33.636,0,0,0-.109-3.74c-.275-.769-1.155-.769-1.6-.769Zm14.683,4.619c0-.165.275-.22.5-.22,2.034,0,14.573,3.465,14.573,8.029,0,1.76-.99,3.134-2.365,3.134-1.045,0-1.265-.274-2.97-2.8-2.584-3.905-6.379-6.159-9.459-7.919C1659.816,2535.936,1659.595,2535.771,1659.595,2535.716Z" fill="#333"/>
        <path id="パス_1426" data-name="パス 1426" d="M1704.549,2527.412c1.649-1.54,2.364-2.254,2.364-2.969a13.94,13.94,0,0,0-.494-1.705,17.665,17.665,0,0,1-.935-6.434c0-1.265.274-7.645.274-9.074,0-2.75-.77-3.574-1.649-4.454-1.155-1.21-1.32-1.375-1.32-1.54,0-.22,1.32-.275,1.485-.275,3.134,0,5.939,2.53,5.939,4.124,0,.5-.66,2.97-.77,3.52a51.76,51.76,0,0,0-.495,7.259c0,2.089,0,6.544,1.43,6.544.77,0,1.1-.22,4.069-2.09.6-.385,4.07-2.584,5.665-2.584a2.111,2.111,0,0,1,2.089,2.034c0,1.65-2.255,2.53-4.234,3.3-13.088,5.279-14.958,9.294-14.958,12.868,0,3.74,3.189,5.114,7.644,5.114a24.64,24.64,0,0,0,6.6-.989,14.959,14.959,0,0,1,4.125-.825c1.869,0,3.629,1.264,3.629,2.639,0,2.8-11.219,3.08-14.133,3.08-2.53,0-10.5,0-10.5-8.634A12.468,12.468,0,0,1,1704.549,2527.412Z" fill="#333"/>
        <path id="パス_1427" data-name="パス 1427" d="M1770.042,2507.89c0,.165.11.385.11.6a42.163,42.163,0,0,1,.55,5.94c0,3.684-.825,8.8-5.665,16.113-4.4,6.709-7.2,8.028-9.4,8.028-3.629,0-6.874-5.664-6.874-12.373,0-2.914.6-8.468,6.1-14.023a22.752,22.752,0,0,1,17.542-7.149c5.005,0,7.314.99,8.854,1.76,5.939,2.914,9.569,8.8,9.569,16a20.508,20.508,0,0,1-13.858,19.357,33.79,33.79,0,0,1-9.129,2.035c-.22,0-.55-.055-.55-.385,0-.165.11-.22,1.485-.77,5.719-2.254,17.652-6.984,17.652-20.677,0-2.145-.219-15.233-15.233-15.233C1770.1,2507.12,1770.042,2507.56,1770.042,2507.89Zm-17.873,16.883c0,3.574,1.43,8.468,4.784,8.468,1.595,0,2.915-.66,6.71-6.378,2.914-4.455,5.389-10.559,5.389-16,0-3.3-.22-3.575-.935-3.575C1762.893,2507.285,1752.169,2514.379,1752.169,2524.773Z" fill="#333"/>
        <path id="パス_1428" data-name="パス 1428" d="M1823.437,2519.548c-1.264,0-1.264.11-1.595,1.43-.384,1.485-2.914,1.76-2.969,1.76-1.21,0-1.32-1.43-1.32-2.145,0-.55.11-2.97.11-3.464,0-2.75,0-9.624-.165-12.154-.055-.825-.11-1.375-.11-1.484,0-.221,0-.5.22-.5a29.969,29.969,0,0,1,3.74.991c1.155.384,1.76.549,1.76,1.209,0,.495-.221.6-.77,1.045a.92.92,0,0,0-.44.935c0,.22-.165,6.269-.165,6.324,0,4.124.055,4.619,1.7,4.619h7.039c1.43,0,1.65-.825,1.65-1.7,0-2.8,0-10.888-.11-13.088-.055-.66-.385-4.564-.385-4.674,0-.275.055-.33.385-.33a24.652,24.652,0,0,1,4.675.99c.6.165,1.21.385,1.21,1.045,0,.44-.331.77-1.266,1.594-.44.44-.44,9.955-.44,11.494,0,.715,0,3.575.111,3.9a1.463,1.463,0,0,0,1.539.77h6.874c1.485,0,1.65-.77,1.65-2.144v-6.764c0-.88-.44-4.785-.44-5.61,0-.33.056-.494.33-.494.385,0,2.64.659,3.135.769,2.364.6,2.585.66,2.585,1.32,0,.44-.165.6-.6,1.1-.44.44-.44.66-.495,1.32-.11,1.98-.165,2.969-.165,4.894,0,2.035.22,5.279,0,7.259a2.672,2.672,0,0,1-2.8,2.09c-1.265,0-1.43-.495-1.65-1.43-.22-.88-.825-.88-1.484-.88h-6.93c-1.65,0-1.65.935-1.65,1.87,0,7.919-.054,16.443.056,19.358,0,.6.165,1.374,1.65,1.374h12.208c1.54,0,1.54-.935,1.54-1.869,0-1.43.165-7.81.165-9.074,0-.88-.221-4.674-.221-5.445,0-.439,0-.495.386-.495a26.12,26.12,0,0,1,4.069,1.045c1.32.44,1.65.551,1.65,1.21,0,.5-.22.6-.715.99-.715.5-.77.715-.88,2.8-.055,1.594-.055,5.059-.055,6.764,0,1.1.165,5.719.165,6.654a3.129,3.129,0,0,1-3.189,2.969c-1.485,0-1.485-.5-1.485-2.584,0-1.485-1.045-1.485-1.65-1.485h-30.741c-1.595,0-1.595,1.045-1.595,1.65,0,1.705-.715,3.354-2.859,3.354-1.485,0-1.485-2.2-1.485-3.3,0-.6.055-4.235.055-4.95,0-4.234-.22-8.578-.385-11.6-.055-.385-.22-2.035-.22-2.254,0-.166,0-.386.22-.386a20.286,20.286,0,0,1,2.75.66c2.969,1.1,3.244,1.1,3.244,1.87,0,.385-.385.715-1.1,1.375a1.617,1.617,0,0,0-.385.935c-.055.99-.055,3.739-.055,4.839,0,6.324.165,6.324,1.7,6.324h11.328c1.6,0,1.705-.825,1.705-2.089v-17.708c0-2.145.055-2.8-1.6-2.8Z" fill="#333"/>
        <path id="パス_1429" data-name="パス 1429" d="M1874.98,2522.793c0-.22.164-.33.824-.77.385-.275,4.894-3.465,8.469-6.49,9.4-8.028,12.868-14.572,13.143-15.782.441-1.705.441-1.925,1.1-1.925.055,0,5.17,2.42,5.17,3.355,0,.274-.111.33-.66.715-.331.165-.385.33-.385.55,0,1.7,9.733,13.913,22.767,17.6,1.539.44,1.539.44,1.539.715,0,.33-.165.385-1.539.825-.715.22-2.695.88-3.52,2.255-.22.385-.385.549-.715.549-1.209,0-12.923-8.083-19.137-19.412-.6-1.154-.715-1.319-.935-1.319s-1.1,1.1-1.54,1.649c-9.734,12.208-22.107,17.268-24.087,17.653C1875.309,2523.013,1874.98,2523.068,1874.98,2522.793Zm15.122,7.534c-4.069,0-5.444.055-6.928.164-.166,0-.991.111-1.155.111-.22,0-.276-.111-.495-.33l-1.045-1.265c-.11-.165-.275-.33-.275-.385,0-.11.11-.11.22-.11.385,0,2.089.165,2.419.165,2.695.11,5.61.22,7.534.22h18.148c2.31,0,2.915,0,4.234-1.815.825-1.154,1.045-1.485,1.54-1.485.44,0,.605.11,1.87,1.155,2.805,2.31,2.805,2.365,2.805,2.86,0,.715-.276.715-2.86.715h-16.828c-.549,0-.77,0-.77.164,0,0,2.585,2.2,2.585,2.8,0,.5,0,.5-1.65.935-.44.165-.55.33-1.924,2.145-1.155,1.54-3.41,4.235-3.74,4.565-.22.274-.77.824-.77,1.319s.77.55.99.55c.715,0,5.884-.33,11.988-.935,3.96-.384,4.4-.44,4.4-.989,0-.825-3.245-3.63-3.245-4.29,0-.275.22-.33.385-.33.825,0,6.269,3.024,6.984,3.41,1.485.879,4.894,2.859,4.894,6.324,0,1.76-1.1,2.969-2.144,2.969-1.6,0-2.75-2.034-3.74-3.849-1.044-1.87-1.54-2.035-2.31-2.035-2.529,0-23.646,4.235-25.516,5.059a11.51,11.51,0,0,1-1.595.88.625.625,0,0,1-.55-.385c-1.1-1.924-3.024-5.334-3.024-5.829,0-.385.275-.385.44-.385.385,0,2.089.33,2.419.385a29.183,29.183,0,0,0,3.245.22c3.079,0,3.464,0,5.719-4.509a38.476,38.476,0,0,0,2.86-7.259c0-.935-.715-.935-1.65-.935Zm11.439-10.229c2.695,0,2.8-.11,3.9-1.43.88-1.045,1.54-1.869,1.815-1.869.495,0,4.18,3.519,4.18,4.124s-.275.6-2.915.6h-12.648c-3.355,0-4.95,0-6.984.165-.165,0-.99.11-1.156.11s-.274-.11-.494-.33l-1.045-1.265c-.22-.22-.22-.275-.22-.384,0-.056.055-.111.165-.111.385,0,2.09.165,2.42.165,2.694.165,5.334.22,7.534.22Z" fill="#333"/>
        <path id="パス_1430" data-name="パス 1430" d="M1953.4,2514.269a7.537,7.537,0,0,1-.66,2.2,19.42,19.42,0,0,0-1.32,7.094c0,5.554,2.86,9.568,4.565,9.568.935,0,1.154-.274,2.8-3.024.33-.55,1.265-1.87,1.7-1.87.165,0,.275.22.275.44a6.6,6.6,0,0,1-.165,1.1,15.425,15.425,0,0,0-.715,4.179,7.426,7.426,0,0,0,.33,2.2,13.8,13.8,0,0,1,.44,1.815c0,1.1-1.155,1.705-2.089,1.705-3.52,0-10.449-5.774-10.449-16.278,0-1.54.77-8.3.77-9.734a15.285,15.285,0,0,0-.385-3.19,7.419,7.419,0,0,1-.44-1.869c0-.165.22-.22.33-.22C1950.923,2508.385,1953.4,2512.784,1953.4,2514.269Zm26.837,1.264a13.691,13.691,0,0,1,4.894,10.5c0,1.045-.11,3.63-2.75,3.63-2.694,0-2.694-2.969-2.694-3.684,0-4.565,0-6.875-2.915-9.789-.44-.44-2.64-2.145-2.64-2.475,0-.165.22-.275.495-.275A10.708,10.708,0,0,1,1980.234,2515.533Z" fill="#333"/>
      </g>
    </g>
  </g>
</svg>
