<svg id="subscription_ttl" xmlns="http://www.w3.org/2000/svg" width="285.721" height="96.975" viewBox="0 0 285.721 96.975">
  <g id="グループ_45" data-name="グループ 45" transform="translate(-816.896 -248.974)">
    <g id="グループ_44" data-name="グループ 44">
      <path id="パス_204" data-name="パス 204" d="M890.2,310.345c-.1-.252-.7-1.835-.7-1.919a.3.3,0,0,1,.309-.294c.154,0,.181.07.518.588a4.139,4.139,0,0,0,3.292,1.919,2.019,2.019,0,0,0,2.073-2.115c0-1.275-.84-1.723-2.619-2.34-1.948-.672-3.236-1.414-3.236-3.081a2.639,2.639,0,0,1,2.8-2.717,5.623,5.623,0,0,1,.994.111c.154.029.742.155.84.155a.536.536,0,0,0,.308-.084c.2-.155.225-.182.323-.182.168,0,.21.125.349.49.1.224.757,1.877.757,1.961a.22.22,0,0,1-.238.224c-.112,0-.14-.042-.364-.406a3.248,3.248,0,0,0-2.858-1.808,1.792,1.792,0,0,0-1.9,1.85c0,1.162.84,1.583,2.675,2.227,2.829.981,3.208,2.1,3.208,3.18a2.97,2.97,0,0,1-3.04,3.025,4.509,4.509,0,0,1-1.513-.28,1.829,1.829,0,0,0-.561-.14.725.725,0,0,0-.532.182c-.237.21-.265.238-.406.238C890.5,311.129,890.469,311.045,890.2,310.345Z" fill="#333"/>
      <path id="パス_205" data-name="パス 205" d="M909.532,300.652c.182,0,.392,0,.392.238s-.2.224-.434.224c-.995,0-1.065.8-1.079,1.232-.014.7,0,4.175,0,4.959a3.85,3.85,0,0,1-.9,2.942,3.264,3.264,0,0,1-2.367.882c-.6,0-3.474-.2-3.558-3.1-.015-.784.014-4.594.014-5.448,0-1.079-.071-1.471-1.3-1.471-.084,0-.309,0-.309-.224s.211-.238.421-.238h3.432c.168,0,.378,0,.378.238s-.182.224-.448.224a.937.937,0,0,0-1.023.63c-.07.21-.07,2.871-.07,3.362,0,3.082,0,3.32.238,3.978a2.687,2.687,0,0,0,4.58.42c.477-.7.477-1.288.477-4.538,0-3.1-.027-3.166-.2-3.432a1.077,1.077,0,0,0-1-.42c-.154,0-.28-.07-.28-.224,0-.238.21-.238.336-.238Z" fill="#333"/>
      <path id="パス_206" data-name="パス 206" d="M918.508,300.652c1.569,0,3.559.518,3.559,2.255a2.523,2.523,0,0,1-1.7,2.269c-.084.028-.336.126-.336.2s.588.2.7.238a2.771,2.771,0,0,1,1.919,2.438c0,1.33-1.191,2.815-3.81,2.815h-4.692c-.211,0-.421,0-.421-.224s.21-.224.434-.224c.462,0,1.078,0,1.2-.729.056-.28.084-4.23.084-4.776a23.866,23.866,0,0,0-.127-3.278c-.181-.518-.84-.518-.98-.518-.462,0-.616,0-.616-.238s.14-.224.547-.224Zm-1.639,5.028a.375.375,0,0,0-.322.183c-.056.126-.056,2.114-.056,2.437,0,1.527,0,2.115,1.023,2.115h1.219a2.314,2.314,0,0,0,2.592-2.325,2.361,2.361,0,0,0-2.55-2.41Zm1.514-.448a2.114,2.114,0,0,0,2.381-2.129c0-1.359-.939-1.989-2.256-1.989h-.994c-1.008,0-1.008.63-1.008,1.849,0,.7,0,1.961.041,2.087a.392.392,0,0,0,.322.182Z" fill="#333"/>
      <path id="パス_207" data-name="パス 207" d="M927.27,310.345c-.1-.252-.7-1.835-.7-1.919a.3.3,0,0,1,.308-.294c.155,0,.182.07.518.588a4.141,4.141,0,0,0,3.292,1.919,2.019,2.019,0,0,0,2.073-2.115c0-1.275-.84-1.723-2.619-2.34-1.947-.672-3.236-1.414-3.236-3.081a2.639,2.639,0,0,1,2.8-2.717,5.613,5.613,0,0,1,.995.111c.155.029.743.155.84.155a.543.543,0,0,0,.309-.084c.2-.155.224-.182.322-.182.168,0,.21.125.35.49.1.224.757,1.877.757,1.961a.221.221,0,0,1-.239.224c-.112,0-.139-.042-.364-.406a3.248,3.248,0,0,0-2.857-1.808,1.793,1.793,0,0,0-1.906,1.85c0,1.162.841,1.583,2.676,2.227,2.829.981,3.208,2.1,3.208,3.18a2.97,2.97,0,0,1-3.04,3.025,4.5,4.5,0,0,1-1.513-.28,1.833,1.833,0,0,0-.56-.14.722.722,0,0,0-.532.182c-.239.21-.267.238-.407.238C927.563,311.129,927.535,311.045,927.27,310.345Z" fill="#333"/>
      <path id="パス_208" data-name="パス 208" d="M945.079,300.554c0,.014.911,2.213.911,2.367a.263.263,0,0,1-.266.252c-.126,0-.154-.042-.448-.448a3.723,3.723,0,0,0-3.026-1.878c-2.2,0-3.334,2.69-3.334,5.113,0,3.25,1.906,4.525,3.572,4.525a3.43,3.43,0,0,0,3.026-1.989c.322-.547.322-.561.434-.561a.218.218,0,0,1,.21.224,4.618,4.618,0,0,1-.8,1.415,4.085,4.085,0,0,1-3.292,1.555c-2.956,0-4.4-2.395-4.4-5.14,0-3.278,2.031-5.6,4.4-5.6a4.8,4.8,0,0,1,1.19.168,7.062,7.062,0,0,0,.841.224.573.573,0,0,0,.378-.141c.224-.224.252-.251.364-.251A.32.32,0,0,1,945.079,300.554Z" fill="#333"/>
      <path id="パス_209" data-name="パス 209" d="M953.881,300.652c.672,0,3.865.069,3.865,2.423a2.726,2.726,0,0,1-1.862,2.451c-.49.239-.546.266-.546.421a24.81,24.81,0,0,0,1.456,3.347,1.744,1.744,0,0,0,1.654,1.121c.139,0,.419,0,.419.224,0,.2-.28.224-.349.224h-1.752a.686.686,0,0,1-.658-.406c-.084-.14-1.078-2.311-1.233-2.662-.77-1.7-.868-1.919-1.358-1.919h-.771c-.1,0-.28.056-.322.169-.057.139-.057,1.988-.057,2.311,0,1.7,0,2.059,1.29,2.059.1,0,.294,0,.294.224s-.252.224-.406.224h-3.461c-.139,0-.349-.028-.349-.224,0-.224.2-.224.392-.224.966,0,1.107-.448,1.149-.966.027-.477.027-4.329.027-4.987a22.735,22.735,0,0,0-.111-2.83c-.183-.518-.785-.518-1.108-.518-.084,0-.378,0-.378-.252,0-.21.253-.21.421-.21Zm-.505.462c-1.009,0-1.009.63-1.009,2.073,0,2.2,0,2.241.379,2.241h1.135a2.262,2.262,0,0,0,2.535-2.213c0-.981-.532-2.1-2.353-2.1Z" fill="#333"/>
      <path id="パス_210" data-name="パス 210" d="M962.908,310.863c-.183,0-.393,0-.393-.224s.112-.224.658-.224c.406,0,1.079,0,1.219-.729.042-.237.042-3.46.042-3.866,0-.574,0-3.74-.042-3.992-.14-.714-.644-.714-1.568-.714-.085,0-.309,0-.309-.224s.21-.238.406-.238h4.118c.168,0,.379,0,.379.238,0,.21-.127.21-.644.21-.42,0-1.024.014-1.205.644-.056.2-.056,3.348-.056,3.992a36.961,36.961,0,0,0,.042,3.95c.126.729.63.729,1.568.729.071,0,.3,0,.3.224s-.211.224-.379.224Z" fill="#333"/>
      <path id="パス_211" data-name="パス 211" d="M975.2,300.652c.533,0,3.992,0,3.992,2.647,0,1.457-1.12,2.732-3.628,2.732h-1.345c-.378,0-.378.111-.378,1.176,0,2.563,0,2.577.154,2.816a1.049,1.049,0,0,0,.939.392c.307,0,.476,0,.476.224s-.2.224-.392.224h-3.46c-.21,0-.406,0-.406-.224s.21-.224.35-.224c.476,0,1.078,0,1.219-.729a38.07,38.07,0,0,0,.041-3.964c0-.658,0-3.656-.041-3.894a.931.931,0,0,0-1.065-.714c-.35,0-.5,0-.5-.224s.2-.238.406-.238Zm.083,4.916c1.85,0,2.579-1.022,2.579-2.213a2.182,2.182,0,0,0-2.411-2.241h-.6c-1.009,0-1.009.616-1.009,1.835,0,.2,0,2.185.014,2.311a.34.34,0,0,0,.364.308Z" fill="#333"/>
      <path id="パス_212" data-name="パス 212" d="M990.9,300.652c.757,0,.925,0,1.163.63.111.308.714,1.891.714,2.031a.215.215,0,0,1-.224.21c-.112,0-.154-.056-.477-.588a3.065,3.065,0,0,0-2.521-1.821c-.546,0-.883.224-.967.7-.041.252-.041,3.418-.041,4.006,0,.393,0,3.629.041,3.866.127.715.785.729,1.163.729.519,0,.63,0,.63.224s-.2.224-.42.224h-3.922c-.2,0-.406,0-.406-.224s.225-.224.309-.224c.826,0,1.343,0,1.484-.729a37.188,37.188,0,0,0,.042-3.964c0-3.46,0-3.838-.1-4.1a.872.872,0,0,0-.9-.5,3.2,3.2,0,0,0-2.521,1.807c-.337.546-.364.6-.49.6a.228.228,0,0,1-.225-.21c0-.112.63-1.793.744-2.073.223-.588.447-.588,1.148-.588Z" fill="#333"/>
      <path id="パス_213" data-name="パス 213" d="M996.674,310.863c-.182,0-.391,0-.391-.224s.112-.224.658-.224c.406,0,1.079,0,1.218-.729.042-.237.042-3.46.042-3.866,0-.574,0-3.74-.042-3.992-.139-.714-.644-.714-1.569-.714-.084,0-.307,0-.307-.224s.209-.238.406-.238h4.118c.168,0,.378,0,.378.238,0,.21-.126.21-.644.21-.421,0-1.023.014-1.205.644-.056.2-.056,3.348-.056,3.992a36.123,36.123,0,0,0,.043,3.95c.125.729.629.729,1.568.729.07,0,.294,0,.294.224s-.21.224-.378.224Z" fill="#333"/>
      <path id="パス_214" data-name="パス 214" d="M1008.982,311.129c-2.7,0-4.58-2.213-4.58-5.364s1.862-5.379,4.58-5.379c2.689,0,4.566,2.213,4.566,5.379C1013.548,308.9,1011.686,311.129,1008.982,311.129Zm3.235-5.49c0-1.29-.363-4.792-3.235-4.792-3.138,0-3.249,4.119-3.249,5.043,0,1.345.405,4.777,3.249,4.777C1012.106,310.667,1012.217,306.591,1012.217,305.639Z" fill="#333"/>
      <path id="パス_215" data-name="パス 215" d="M1017.328,310.863c-.21,0-.42,0-.42-.224s.168-.224.519-.224a1.1,1.1,0,0,0,1.12-.631c.112-.322.126-.335.126-4.048a34.888,34.888,0,0,0-.042-3.782c-.168-.84-.938-.84-1.414-.84-.084,0-.309,0-.309-.224s.21-.238.42-.238h1.36c1.007,0,1.036.042,1.75,1.134.855,1.289,2.227,3.348,3.082,4.637.182.28,1.47,2.241,1.555,2.241.056,0,.1-.1.1-.28,0-.392.014-2.69.014-3.18s0-2.984-.042-3.236c-.168-.854-.883-.854-1.345-.854-.084,0-.294,0-.294-.224s.2-.238.393-.238h2.913c.154,0,.364,0,.364.238s-.2.224-.42.224c-1.163,0-1.163.63-1.163,2.311,0,1.05.015,6.233.015,7.4,0,.07,0,.308-.183.308a.248.248,0,0,1-.183-.112c-.084-.1-5.574-8.348-5.644-8.446-.252-.407-.28-.463-.35-.463s-.113.112-.113.266c0,.505-.014,2.942-.014,3.5s0,3.348.042,3.614c.169.925.939.925,1.541.925.113,0,.323,0,.323.224s-.183.224-.449.224Z" fill="#333"/>
    </g>
  </g>
  <g id="グループ_47" data-name="グループ 47" transform="translate(-816.896 -248.974)">
    <g id="グループ_46" data-name="グループ 46">
      <path id="パス_216" data-name="パス 216" d="M832.333,260.851c0,1.32-3.04,2.52-4,2.92-.56.2-.6.36-.679,1.76-.08.879-.08,4.119-.08,4.319,0,.24,0,.72.359.72.12,0,3.4-1.36,4.039-1.6,3.96-1.48,5.76-1.6,6.8-1.6a6.123,6.123,0,0,1,6.159,6.039c0,5.279-5.559,7.679-8.839,7.679-2.279,0-4.119-1.16-4.119-3.239a3.565,3.565,0,0,1,2-3.16.214.214,0,0,1,.2.2c0,.12-.08.2-.16.32a1.654,1.654,0,0,0-.36,1.08c0,1.919,2.2,1.919,2.6,1.919,2.64,0,6-1.759,6-4.959a4.143,4.143,0,0,0-3.839-4.4c-1.12,0-3.6.52-8.279,3-2.239,1.2-2.478,1.32-2.478,2,0,.44.119,2.24.119,2.64,0,1.839-.6,4.479-2.039,4.479-1.08,0-1.52-.84-1.84-1.48-1.28-2.479-1.481-2.479-2-2.479a3.335,3.335,0,0,0-1,.24,7.9,7.9,0,0,1-1.52.8c-.439,0-2.479-1.2-2.479-2.52,0-.72.44-1.56,1.16-1.56.239,0,1.4.2,1.639.2,1.081,0,1.8-.2,4.16-1.36,2.04-1,2.279-1.119,2.279-2.239,0-.92-.04-4.32-.08-5,0-.28-.12-.88-.56-.88a9.271,9.271,0,0,0-1.839.36c-2.04.68-2.24.759-2.84.759-1.36,0-2.879-2.759-2.879-3.039a.283.283,0,0,1,.32-.28c.119,0,.6.16.72.16a11.6,11.6,0,0,0,1.839.2,17.473,17.473,0,0,0,5.08-1.2,30.045,30.045,0,0,0,.4-4.359,3.926,3.926,0,0,0-1.319-3.2,4.022,4.022,0,0,1-.561-.641c0-.359.641-.44.88-.44,2.68,0,4.12,1.96,4.12,2.72a16.267,16.267,0,0,1-.839,2.08,20.962,20.962,0,0,0-.4,2.6c0,.161.08.44.32.44.28,0,1.4-.44,1.4-1,0-.079-.2-.48-.2-.559,0-.04.08-.12.16-.16C830.413,259.052,832.333,259.612,832.333,260.851Zm-9.118,15.318c0,.6,1.08,1.88,1.68,1.88.559,0,1.119-1.12,1.119-3.08,0-.16,0-.56-.119-.64C825.775,274.329,823.215,275.609,823.215,276.169Zm26.275-12.438c0,.84-.48,1.92-1.32,1.92-.239,0-1.159-.08-1.359-.08-.2.04-1.04.279-1.2.279a.187.187,0,0,1-.2-.2,2.767,2.767,0,0,1,.121-.321,2.093,2.093,0,0,0,.159-.719c0-1.6-2-2.16-3.36-2.16a3.472,3.472,0,0,0-1.559.4.894.894,0,0,1-.4.12c-.119,0-.159-.04-.159-.16a5.116,5.116,0,0,1,4.32-2.52C847.611,260.291,849.49,261.891,849.49,263.731Z" fill="#333"/>
      <path id="パス_217" data-name="パス 217" d="M890.48,264.49a35.254,35.254,0,0,0,9.678,3.16c.161,0,.84.12.84.28,0,.12-.56.28-.72.32a6.933,6.933,0,0,0-3.04,2.16c-.12.16-.559,1-.759,1-.241,0-8.918-4.2-12.838-10.6-.76-1.279-.88-1.4-1.16-1.4s-.36.081-1.24,1A47.545,47.545,0,0,1,869.4,269.73c-1.361.719-5.52,2.559-6.28,2.559-.12,0-.2-.08-.2-.12s4.279-2.679,4.64-2.919c5.4-3.4,11.118-9.518,11.677-12.518.041-.32.081-.44.361-.44.2,0,3.439,1.24,3.638,1.36.122.04.521.2.521.6a2.5,2.5,0,0,1-.16.56C883.681,259.411,887.12,262.771,890.48,264.49ZM871.2,254.533c-2.96,0-4.319.08-5.08.12-.119,0-.718.079-.84.079s-.2-.079-.359-.24l-.76-.919c-.16-.2-.16-.2-.16-.28s.04-.08.12-.08c.281,0,1.52.12,1.76.12,1.96.079,3.64.159,5.519.159h1.16c.84,0,1.08-.4,1.08-1.079a6.5,6.5,0,0,0-.32-2.12,6.086,6.086,0,0,1-.241-.8c0-.2.2-.28.441-.28.28,0,2.079.44,2.519.56,1.2.32,1.44.4,1.44.76,0,.24-.04.32-.6,1.04a.978.978,0,0,0-.28.72c0,.96.32,1.2,1.4,1.2h6.6c.36,0,1.2,0,1.2-1.079a16.633,16.633,0,0,0-.12-1.8c-.04-.2-.24-1.04-.24-1.2,0-.2.24-.28.44-.28.279,0,3,.64,3.439.76s.68.28.68.64c0,.24-.16.4-.6.72a1.282,1.282,0,0,0-.52,1.12c0,1.119.64,1.119,1.28,1.119h2.04c1.759,0,1.959,0,2.559-.679,1.12-1.32,1.239-1.48,1.6-1.48.24,0,3.719,2.119,3.719,2.639,0,.561-.8.561-2.12.561h-7.8c-1.24,0-1.24.639-1.24,1.6,0,.24.04,1.6.04,1.8,0,1.479-1.2,1.72-2.04,1.72-.92,0-1.08-.16-1.08-1.52v-2.76c-.119-.759-.6-.839-1.239-.839h-6.4c-.919,0-1.479,0-1.479,1.119,0,.4.12,2.16.12,2.52,0,.76-.12,1.12-.48,1.36a2.846,2.846,0,0,1-1.52.56c-.68,0-1-.44-1-1.24,0-.32.041-1.84.041-2.12,0-1.56,0-2.2-1.24-2.2Zm2.839,20.436a20.424,20.424,0,0,1,3.08,1.88.992.992,0,0,1,.32.6c0,.48-.32.56-1.28.8-.12.04-3.559,2.72-4.2,3.2-3.6,2.56-5.879,3.48-6.079,3.48a.129.129,0,0,1-.12-.121c0-.08,2.119-1.92,2.4-2.2,3.32-3.16,5.36-6.319,5.72-7.6A.236.236,0,0,1,874.042,274.969Zm1.84-2.12c-3.119,0-4.279.041-5.079.121-.12,0-.72.079-.84.079s-.2-.079-.359-.24l-.76-.919c-.16-.2-.16-.2-.16-.28,0-.04.039-.08.119-.08.28,0,1.521.12,1.76.12,1.96.119,3.639.159,5.519.159h3c.4,0,1.2,0,1.2-1.079,0-.48-.241-3.719-.321-4.119,0-.08-.239-.48-.239-.56s.079-.241.4-.241c.281,0,3.08.6,3.48.721.559.119.76.48.76.679,0,.24-.08.32-.68.84-.56.48-.56.72-.56,1.92,0,1.439,0,1.839,1.2,1.839h1.76c1.76,0,1.96,0,2.56-.679,1.12-1.32,1.24-1.48,1.6-1.48.241,0,3.72,2.159,3.72,2.639,0,.56-.8.56-2.119.56h-7.559c-1.2,0-1.2.72-1.2,2,0,2.84,0,4.439.08,6.8.04.68.04,1.639.04,2.119,0,1.28-.32,2.04-2.04,2.04-.879,0-.96-.72-.96-1.4,0-.521.121-2.92.121-3.44.04-1.52.04-3,.04-4.839a24.231,24.231,0,0,0-.08-2.72c-.2-.56-.84-.56-1.161-.56Zm10.679,3.36c0-.12.2-.16.359-.16,1.481,0,10.6,2.519,10.6,5.839,0,1.28-.72,2.279-1.72,2.279-.76,0-.92-.2-2.16-2.039-1.879-2.84-4.639-4.479-6.879-5.759C886.721,276.369,886.561,276.249,886.561,276.209Z" fill="#333"/>
      <path id="パス_218" data-name="パス 218" d="M932.965,255.972c0,.12.08.28.08.44a30.64,30.64,0,0,1,.4,4.319c0,2.68-.6,6.4-4.12,11.718-3.2,4.879-5.239,5.839-6.838,5.839-2.639,0-5-4.119-5-9a14.089,14.089,0,0,1,4.44-10.2,16.545,16.545,0,0,1,12.758-5.2,13.029,13.029,0,0,1,6.438,1.28,12.533,12.533,0,0,1,6.959,11.638A14.914,14.914,0,0,1,938,280.888a24.574,24.574,0,0,1-6.639,1.48c-.16,0-.4-.04-.4-.28,0-.12.08-.16,1.08-.56,4.159-1.64,12.838-5.079,12.838-15.038,0-1.56-.16-11.078-11.078-11.078C933.005,255.412,932.965,255.732,932.965,255.972Zm-13,12.278c0,2.6,1.04,6.159,3.48,6.159,1.16,0,2.12-.48,4.879-4.639,2.119-3.239,3.919-7.679,3.919-11.638,0-2.4-.16-2.6-.679-2.6C927.766,255.532,919.967,260.691,919.967,268.25Z" fill="#333"/>
      <path id="パス_219" data-name="パス 219" d="M976.13,264.051c-3.519,0-4.64.08-5.039.12-.16,0-.72.08-.84.08-.16,0-.24-.08-.36-.24l-.76-.92c-.16-.2-.2-.2-.2-.28,0-.04.08-.08.159-.08.28,0,1.521.12,1.76.12,1.96.08,3.6.16,5.479.16h10.838c1.72,0,2.12,0,2.56-.68.96-1.44,1.04-1.6,1.44-1.6.68,0,3.44,2,3.44,2.72,0,.6-.721.6-2.16.6h-7.719c-1.12,0-1.12.4-1.12,3.719,0,3.12,0,3.44,1.12,3.44h2.759c1.72,0,2.08,0,2.52-.68.76-1.16.84-1.32,1.2-1.32.481,0,2.88,2.04,2.88,2.559,0,.241-.24.44-.6.48a11.806,11.806,0,0,1-1.479.04h-7.159c-1.24,0-1.24.241-1.24,2.64,0,1.36,0,5.879.12,6.079.16.32.48.32.96.36.32.04,2.4.16,4.439.16a49.424,49.424,0,0,0,10.678-1.24,7.665,7.665,0,0,1,1.24-.44c.04,0,.12,0,.12.16,0,.24-2.439,1.96-2.84,2.44a13.27,13.27,0,0,0-.639,1.6c-.28.519-1.88.559-2.44.559-16.038,0-17.957-2.279-20.556-5.319a9.344,9.344,0,0,1-1.72-2.879c-.08-.24-.16-.36-.28-.36-.16,0-.24.16-.6.72-3.72,5.959-7.2,6.839-7.479,6.839-.16,0-.24-.08-.24-.16,0-.04.6-.64.68-.72,4.679-5,6.679-11.2,6.839-14.078.12-1.8.12-1.96.4-1.96.24,0,3.44.92,3.44,1.48,0,.24-.8.88-.881,1.04-.28.6-.959,3.36-1.159,3.919,0,.04-.68,2.04-.68,2.12,0,2,5.159,5.519,7.318,5.519.521,0,.521-.56.521-.84,0-2.239.08-12.278.08-14.317,0-1,0-1.56-1.2-1.56Zm-6-7.239c-.519,0-.76.04-1,.72-.76,2.4-2,3.319-2.959,3.319-.64,0-1.32-.319-1.32-1.119,0-.56.16-.761,1.16-1.8a10.771,10.771,0,0,0,2-3.56c.16-.48.239-.679.4-.679.281,0,.6.639.84,1.4.16.6.4.68.92.68h9.519c.96,0,1.08-.56,1.08-1.239,0-.641-.08-2.4-.12-3.04-.04-.32-.281-1.8-.281-2.12,0-.2.12-.2.161-.2s2.719.6,4.079.92a.506.506,0,0,1,.28.4c0,.2-.92.92-1.04,1.16a10.723,10.723,0,0,0-.2,2.56c0,1.439.32,1.559,1.24,1.559h7.839c1.079,0,1.279-.08,1.8-.48.519-.44.959-.84,1.4-.84.28,0,3.679,2.04,3.679,3.12,0,.8-.919.8-1.159.8-.281,0-1.72-.12-2.08-.12a4.951,4.951,0,0,0-2.28.56,5.358,5.358,0,0,1-1.159.6.106.106,0,0,1-.121-.119c0-.321.961-1.8.961-2.2,0-.28-.24-.28-.8-.28Z" fill="#333"/>
      <path id="パス_220" data-name="パス 220" d="M1021.043,273.209c-1.24,0-3.039,0-4.439.12-.12,0-.72.08-.84.08-.16,0-.24-.08-.359-.24l-.8-.92c-.159-.2-.159-.2-.159-.279s.079-.08.159-.08c.56,0,3.28.24,3.92.24a.949.949,0,0,0,1.08-.88c.039-.32.119-12.478.119-13.638,0-.68-.2-1.16-1.119-1.16-.28,0-1.72.16-1.96.16-.12,0-.2-.08-.361-.24l-.759-.92c-.16-.2-.16-.2-.16-.28s.08-.08.121-.08c.439,0,2.6.16,3.079.16,1.2,0,1.2-.52,1.2-1.559,0-.76,0-1.6-.041-2.32,0-.24-.08-1.44-.08-1.48,0-.28.24-.32.4-.32.08,0,3.24.48,3.24,1.12,0,.2-.28.36-.8.76a8.163,8.163,0,0,0-.241,2.6c0,1.319.6,1.319,1.4,1.319h3c.879,0,1.519,0,1.519-1.2,0-.56-.12-3.48-.12-4.12a.318.318,0,0,1,.36-.36c.04,0,3.28.64,3.28,1.32,0,.16-.6.64-.681.8a8.653,8.653,0,0,0-.279,2.76c0,.359,0,.679.319.679.361,0,.68-.4.84-.56.641-.879.721-.959,1.04-.959a5.517,5.517,0,0,1,2.44,2.239c0,.44-.76.44-1.84.44h-1.44c-1.439,0-1.479.28-1.479,2v13.037c0,.2,0,.6.32.6a1.087,1.087,0,0,0,.76-.56c.68-1.2.76-1.32,1.239-1.32.6,0,2.319,2.2,2.319,2.519,0,.52-.519.52-1.479.52Zm3.319,3.92c0,.4-.28.52-1.12.92-.879.4-6.837,7.078-8.558,7.078-.16,0-.239-.08-.239-.16,0-.039,2.439-2.8,2.838-3.4a29.224,29.224,0,0,0,3.4-5.759c.159-.48.279-.88.479-.88a5.8,5.8,0,0,1,1.64.84C1024.2,276.689,1024.362,276.809,1024.362,277.129Zm2.16-16.238c1.679,0,1.679-.319,1.679-2.959,0-1.44-.4-1.52-1.679-1.52h-2.6c-1.68,0-1.68.32-1.68,2.959,0,1.44.4,1.52,1.68,1.52Zm0,5.72c.961,0,1.679,0,1.679-1.2v-2.479c0-1-.839-1-1.679-1h-2.6c-.959,0-1.68,0-1.68,1.2,0,.28,0,2.359.041,2.44,0,1.04.8,1.04,1.639,1.04Zm-2.759,1.039c-.96,0-1.48.04-1.48,1.36v1.8c0,1.32.44,1.359,1.48,1.359h2.919c.96,0,1.48-.039,1.48-1.359v-1.76c0-1.36-.44-1.4-1.48-1.4Zm9.438,13.158c0,.76-.44,1.64-1.32,1.64-.92,0-1.239-.88-1.879-2.64a8.8,8.8,0,0,0-2.2-3.519c-.16-.16-.68-.68-.68-.8a.147.147,0,0,1,.161-.16,17.069,17.069,0,0,1,2.758,1.36C1031.041,277.249,1033.2,278.449,1033.2,280.808Zm11.758-29.4a2.254,2.254,0,0,0,1-.12c.2-.12,1.039-.96,1.32-.96.32,0,2.839,1.08,2.839,1.84a.816.816,0,0,1-.32.6c-.56.48-.6.56-.72.76a59.251,59.251,0,0,0-.24,6.8c0,2.44.12,13.918.2,18.558,0,.319.12,1.919.12,2.279a3.464,3.464,0,0,1-3.359,3.8c-.519,0-.64-.08-1-.64a6.889,6.889,0,0,0-3.119-2.479c-.04,0-.76-.36-.52-.44.2-.08,2.559,0,3.04,0,1.559,0,1.879-.2,2.038-.92.121-.6.121-7.279.121-8.478,0-1.52-.24-1.68-1.56-1.68h-4.559c-1.6,0-1.56.16-1.64,1.839-.239,6.4-4.519,13.078-5.4,13.078a.181.181,0,0,1-.2-.16,10.142,10.142,0,0,1,.4-.96c2.88-6.478,2.88-13.4,2.88-19.2,0-7.478-.24-10.238-.6-12.557-.04-.32-.32-1.88-.32-1.96,0-.16.12-.24.28-.24a31.522,31.522,0,0,1,3.119,1.16,6.055,6.055,0,0,0,1.2.08Zm-.04,8.878c1.04,0,1.48-.08,1.48-1.32v-5.119c0-1.359-.52-1.359-1.56-1.359h-4.559c-1.12,0-1.56.08-1.56,1.439,0,.721.08,4.24.08,5.039,0,1.32.52,1.32,1.64,1.32Zm-.12,9c.92,0,1.56,0,1.56-1.2.04-1.44.04-3.919.04-5.4,0-1.32-.6-1.36-1.52-1.36h-4.439c-1.039,0-1.64,0-1.64,1.32,0,.76-.04,4.559-.04,5.4,0,1.2.52,1.24,1.48,1.24Z" fill="#333"/>
      <path id="パス_221" data-name="パス 221" d="M1072.9,261.651c-.24.76-.28,9.559-.28,11.118,0,1.76.08,9.479.08,11.038,0,1.2-.84,1.68-1.92,1.68-.879,0-1.04-.52-1.04-1.16,0-.4.2-2.319.2-2.679.16-2.759.24-6.719.24-9.4,0-2.119-.04-6.678-.08-8.958,0-.24,0-.8-.241-.8-.12,0-.439.44-.6.64-.8,1.12-3.24,3.679-3.6,3.679-.16,0-.24-.08-.24-.279,0-.121,1.64-2.64,1.92-3.16,3.919-6.759,5.479-12.478,5.6-13.558.08-.759.08-.839.36-.839.16,0,3.84,1.4,3.84,2.279,0,.44-.441.64-.84.8a1.379,1.379,0,0,0-.92.84,58.941,58.941,0,0,1-3.08,5.519,2.178,2.178,0,0,0-.359.76c0,.28.2.36.479.48a2.469,2.469,0,0,1,1.239.8C1073.662,260.691,1072.983,261.452,1072.9,261.651Zm18.357,8.959c-1.08,0-1.16.56-1.2,1.239a19,19,0,0,1-.72,5.12,16.141,16.141,0,0,0-.68,1.96c0,.439.16.519,1.8,1.119a31.016,31.016,0,0,0,10.478,1.84c.2,0,1.2-.08,1.44-.08.08,0,.239,0,.239.12,0,.2-.519.44-.8.56a4.239,4.239,0,0,0-1.8,1.6c-.44.879-.56,1.119-1.2,1.119-2.76,0-8.439-2.439-10.239-3.519-1-.6-1.12-.68-1.359-.68a4.775,4.775,0,0,0-1.48.96,17.062,17.062,0,0,1-9.638,3.6c-.16,0-.6,0-.6-.28,0-.2.16-.24,1-.4,3.24-.64,8.839-4.319,8.839-5.559,0-.28-.08-.359-.8-1.2a21.012,21.012,0,0,1-3.2-5.719.334.334,0,0,1,.359-.359c.2,0,.4.319.8,1,1,1.6,3.079,4.6,3.8,4.6.76,0,1.239-4.2,1.239-5.679,0-.72-.04-1.36-1.079-1.36h-4.24c-.64,0-.879.12-1.039.36a2.242,2.242,0,0,1-1.96,1.279c-.92,0-.92-.959-.92-1.479,0-.72.12-4.32.12-5.119,0-2.04-.04-4.12-.24-6.879,0-.28-.16-1.64-.16-1.96,0-.4.16-.4.28-.4a8.212,8.212,0,0,1,2.159.76,3.947,3.947,0,0,0,2.24.6h3.719c1.2,0,1.2-.44,1.2-2.52,0-1.6,0-2.24-1.12-2.24h-2.119c-1.12,0-3.119,0-4.719.081-.121,0-1.08.12-1.16.12-.12,0-.2-.08-.36-.241l-.76-.919c-.16-.16-.16-.2-.16-.28s.08-.08.12-.08c.28,0,1.481.12,1.76.12,1.16.08,3.239.16,5.479.16h9.638c2.04,0,2.16,0,2.84-1.08.88-1.48,1-1.6,1.359-1.6.721,0,3.281,2.48,3.281,3.16,0,.559-.761.559-2.161.559h-8.158c-1.24,0-1.24.48-1.24,2.16,0,2.04,0,2.6,1.2,2.6h3.639a1.624,1.624,0,0,0,1.2-.4c.68-.76.72-.8.92-.8.32,0,3,1.56,3,2.08,0,.28-.239.44-.64.64a.806.806,0,0,0-.559.919c0,1.32.04,2.92.08,4.24.04.879.24,5.119.24,6.079,0,1.52-1.68,1.839-2.08,1.839-.439,0-.72-.2-.84-.96-.12-.8-.88-.8-1.2-.8Zm-4.8-6.959c1.159,0,1.159-.28,1.159-2.96,0-1.32,0-1.879-1.159-1.879h-4.279c-1.2,0-1.2.28-1.2,2.959,0,1.32,0,1.88,1.2,1.88Zm.039,5.919c1.12,0,1.12-.56,1.12-1.84,0-2.719,0-3.039-1.12-3.039h-4.359c-1.079,0-1.079.52-1.079,1.719,0,2.84,0,3.16,1.159,3.16Zm4.88-10.758c-1.24,0-1.24.52-1.24,1.8,0,2.239,0,2.519.28,2.759a1.158,1.158,0,0,0,.96.28h3.72c1.239,0,1.239-.52,1.239-1.8,0-2.079,0-2.519-.28-2.759a1.156,1.156,0,0,0-.959-.28Zm.04,5.879c-1.28,0-1.28.639-1.28,1.679,0,2.88,0,3.2,1.28,3.2h3.68c1.279,0,1.279-.64,1.279-1.68,0-2.879,0-3.2-1.279-3.2Z" fill="#333"/>
    </g>
  </g>
  <line id="線_5" data-name="線 5" x2="150" transform="translate(68.747 96.475)" fill="none" stroke="#333" stroke-miterlimit="10" stroke-width="1"/>
</svg>
