<svg id="subscription_nakami_sp" xmlns="http://www.w3.org/2000/svg" width="745" height="70" viewBox="0 0 745 70">
  <rect id="長方形_29" data-name="長方形 29" width="745" height="70" fill="#ffc946" opacity="0"/>
  <g id="グループ_353" data-name="グループ 353" transform="translate(2548.149 -1990.832)">
    <g id="グループ_352" data-name="グループ 352">
      <path id="パス_1556" data-name="パス 1556" d="M-2357.212,2021.807c-4.4,0-5.8.1-6.3.15-.2,0-.9.1-1.05.1-.2,0-.3-.1-.45-.3l-.95-1.15c-.2-.25-.25-.25-.25-.35,0-.05.1-.1.2-.1.351,0,1.9.15,2.2.15,2.45.1,4.5.2,6.85.2h13.551c2.15,0,2.65,0,3.2-.85,1.2-1.8,1.3-2,1.8-2,.85,0,4.3,2.5,4.3,3.4,0,.75-.9.75-2.7.75h-9.65c-1.4,0-1.4.5-1.4,4.65,0,3.9,0,4.3,1.4,4.3h3.449c2.15,0,2.6,0,3.15-.85.951-1.45,1.051-1.65,1.5-1.65.6,0,3.6,2.551,3.6,3.2,0,.3-.3.55-.75.6a14.79,14.79,0,0,1-1.851.05h-8.95c-1.55,0-1.55.3-1.55,3.3,0,1.7,0,7.35.15,7.6.2.4.6.4,1.2.45.4.05,3,.2,5.551.2a61.835,61.835,0,0,0,13.35-1.549,9.5,9.5,0,0,1,1.55-.551c.051,0,.151,0,.151.2,0,.3-3.051,2.45-3.551,3.051a17.03,17.03,0,0,0-.8,2c-.351.65-2.351.7-3.05.7-20.052,0-22.451-2.851-25.7-6.65a11.68,11.68,0,0,1-2.15-3.6c-.1-.3-.2-.45-.351-.45-.2,0-.3.2-.75.9-4.65,7.45-9,8.55-9.35,8.55-.2,0-.3-.1-.3-.2,0-.051.75-.8.85-.9,5.85-6.25,8.35-14,8.55-17.6.15-2.25.15-2.449.5-2.449.3,0,4.3,1.149,4.3,1.849,0,.3-1,1.1-1.1,1.3-.349.75-1.2,4.2-1.45,4.9,0,.051-.85,2.551-.85,2.651,0,2.5,6.451,6.9,9.151,6.9.649,0,.649-.7.649-1.05,0-2.8.1-15.351.1-17.9,0-1.25,0-1.95-1.5-1.95Zm-7.5-9.051c-.65,0-.949.051-1.25.9-.95,3-2.5,4.151-3.7,4.151a1.459,1.459,0,0,1-1.65-1.4c0-.7.2-.949,1.45-2.25a13.452,13.452,0,0,0,2.5-4.45c.2-.6.3-.849.5-.849.35,0,.75.8,1.05,1.75.2.75.5.849,1.151.849h11.9c1.2,0,1.35-.7,1.35-1.55,0-.8-.1-3-.151-3.8-.049-.4-.349-2.25-.349-2.65,0-.25.15-.25.2-.25s3.4.75,5.1,1.15a.63.63,0,0,1,.35.5c0,.25-1.15,1.15-1.3,1.45a13.4,13.4,0,0,0-.25,3.2c0,1.8.4,1.95,1.55,1.95h9.8c1.349,0,1.6-.1,2.25-.6.65-.551,1.2-1.051,1.75-1.051.349,0,4.6,2.551,4.6,3.9,0,1-1.15,1-1.45,1-.349,0-2.15-.15-2.6-.15a6.2,6.2,0,0,0-2.851.7,6.728,6.728,0,0,1-1.45.75.133.133,0,0,1-.151-.15c0-.4,1.2-2.25,1.2-2.75,0-.351-.3-.351-1-.351Z" fill="#333"/>
      <path id="パス_1557" data-name="パス 1557" d="M-2303.757,2033.258c-1.55,0-3.8,0-5.551.15-.149,0-.9.1-1.049.1-.2,0-.3-.1-.451-.3l-1-1.15c-.2-.25-.2-.25-.2-.35s.1-.1.2-.1c.7,0,4.1.3,4.9.3a1.185,1.185,0,0,0,1.35-1.1c.05-.4.15-15.6.15-17.052,0-.85-.25-1.449-1.4-1.449-.35,0-2.15.2-2.45.2-.15,0-.25-.1-.45-.3l-.95-1.15c-.2-.25-.2-.25-.2-.35s.1-.1.15-.1c.55,0,3.25.2,3.85.2,1.5,0,1.5-.65,1.5-1.949,0-.951,0-2-.05-2.9,0-.3-.1-1.8-.1-1.85,0-.35.3-.4.5-.4.1,0,4.051.6,4.051,1.4,0,.25-.351.45-1,.95-.3.2-.3,2.55-.3,3.25,0,1.65.75,1.65,1.75,1.65h3.75c1.1,0,1.9,0,1.9-1.5,0-.7-.149-4.35-.149-5.15a.4.4,0,0,1,.45-.45c.05,0,4.1.8,4.1,1.65,0,.2-.75.8-.85,1a10.807,10.807,0,0,0-.349,3.45c0,.45,0,.85.4.85.45,0,.851-.5,1.05-.7.8-1.1.9-1.2,1.3-1.2.6,0,3.049,2.2,3.049,2.8,0,.55-.95.55-2.3.55h-1.8c-1.8,0-1.85.351-1.85,2.5v16.3c0,.25,0,.75.4.75a1.361,1.361,0,0,0,.949-.7c.849-1.5.95-1.651,1.551-1.651.75,0,2.9,2.751,2.9,3.151,0,.65-.65.65-1.851.65Zm4.15,4.9c0,.5-.349.65-1.4,1.15-1.1.5-8.551,8.85-10.7,8.85-.2,0-.3-.1-.3-.2,0-.051,3.05-3.5,3.55-4.251,1.1-1.55,3.45-4.9,4.251-7.2.2-.6.349-1.1.6-1.1a7.261,7.261,0,0,1,2.05,1.05C-2299.806,2037.608-2299.607,2037.758-2299.607,2038.158Zm2.7-20.3c2.1,0,2.1-.4,2.1-3.7,0-1.8-.5-1.9-2.1-1.9h-3.25c-2.1,0-2.1.4-2.1,3.7,0,1.8.5,1.9,2.1,1.9Zm0,7.15c1.2,0,2.1,0,2.1-1.5v-3.1c0-1.25-1.051-1.25-2.1-1.25h-3.25c-1.2,0-2.1,0-2.1,1.5,0,.35,0,2.95.051,3.05,0,1.3,1,1.3,2.05,1.3Zm-3.451,1.3c-1.2,0-1.849.051-1.849,1.7v2.25c0,1.65.55,1.7,1.849,1.7h3.651c1.2,0,1.849-.051,1.849-1.7v-2.2c0-1.7-.549-1.751-1.849-1.751Zm11.8,16.451c0,.95-.55,2.051-1.65,2.051-1.151,0-1.55-1.1-2.35-3.3a11,11,0,0,0-2.75-4.4c-.2-.2-.85-.85-.85-1a.183.183,0,0,1,.2-.2,21.419,21.419,0,0,1,3.45,1.7C-2291.256,2038.308-2288.556,2039.808-2288.556,2042.758Zm14.7-36.752a2.817,2.817,0,0,0,1.25-.15c.25-.15,1.3-1.2,1.651-1.2.4,0,3.55,1.35,3.55,2.3a1.024,1.024,0,0,1-.4.75c-.7.6-.751.7-.9.95-.3.65-.3,7.151-.3,8.5,0,3.051.15,17.4.25,23.2,0,.4.15,2.4.15,2.85,0,3.7-2.75,4.751-4.2,4.751-.649,0-.8-.1-1.25-.8a8.6,8.6,0,0,0-3.9-3.1c-.05,0-.95-.45-.65-.551.25-.1,3.2,0,3.8,0,1.95,0,2.351-.25,2.55-1.149.15-.75.15-9.1.15-10.6,0-1.9-.3-2.1-1.95-2.1h-5.7c-2,0-1.95.2-2.051,2.3-.3,8-5.65,16.351-6.75,16.351a.227.227,0,0,1-.25-.2,12.228,12.228,0,0,1,.5-1.2c3.6-8.1,3.6-16.751,3.6-24,0-9.35-.3-12.8-.75-15.7-.049-.4-.4-2.35-.4-2.45,0-.2.15-.3.351-.3a39.44,39.44,0,0,1,3.9,1.45,7.58,7.58,0,0,0,1.5.1Zm-.05,11.1c1.3,0,1.85-.1,1.85-1.65v-6.4c0-1.7-.649-1.7-1.95-1.7h-5.7c-1.4,0-1.95.1-1.95,1.8,0,.9.1,5.3.1,6.3,0,1.65.651,1.65,2.051,1.65Zm-.15,11.251c1.15,0,1.95,0,1.95-1.5.05-1.8.05-4.9.05-6.751,0-1.65-.75-1.7-1.9-1.7h-5.551c-1.3,0-2.051,0-2.051,1.65,0,.95-.05,5.7-.05,6.75,0,1.5.651,1.551,1.851,1.551Z" fill="#333"/>
      <path id="パス_1558" data-name="パス 1558" d="M-2241.616,2018.807c-.3.95-.351,11.95-.351,13.9,0,2.2.1,11.851.1,13.8,0,1.5-1.051,2.1-2.4,2.1-1.1,0-1.3-.65-1.3-1.451,0-.5.25-2.9.25-3.35.2-3.45.3-8.4.3-11.75,0-2.651-.051-8.351-.1-11.2,0-.3,0-1-.3-1-.151,0-.551.55-.75.8-1,1.4-4.051,4.6-4.5,4.6-.2,0-.3-.1-.3-.35,0-.15,2.051-3.3,2.4-3.95,4.9-8.451,6.851-15.6,7-16.951.1-.95.1-1.05.452-1.05.2,0,4.8,1.75,4.8,2.85,0,.55-.549.8-1.049,1a1.727,1.727,0,0,0-1.151,1.05,73.343,73.343,0,0,1-3.849,6.9,2.728,2.728,0,0,0-.452.951c0,.35.25.449.6.6a3.1,3.1,0,0,1,1.55,1C-2240.667,2017.607-2241.517,2018.557-2241.616,2018.807Zm22.951,11.2c-1.351,0-1.45.7-1.5,1.551a23.782,23.782,0,0,1-.9,6.4,20.393,20.393,0,0,0-.849,2.45c0,.55.2.65,2.25,1.4a38.758,38.758,0,0,0,13.1,2.3c.25,0,1.5-.1,1.8-.1.1,0,.3,0,.3.15,0,.25-.65.55-1,.7a5.3,5.3,0,0,0-2.251,2c-.55,1.1-.7,1.4-1.5,1.4-3.45,0-10.551-3.051-12.8-4.4-1.25-.75-1.4-.851-1.7-.851a5.965,5.965,0,0,0-1.85,1.2,21.334,21.334,0,0,1-12.05,4.5c-.2,0-.75,0-.75-.35,0-.25.2-.3,1.25-.5,4.049-.8,11.05-5.4,11.05-6.951,0-.35-.1-.45-1-1.5-1.65-1.9-4-6.5-4-7.15a.42.42,0,0,1,.45-.45c.25,0,.5.4,1,1.25,1.25,2,3.85,5.75,4.75,5.75.951,0,1.55-5.25,1.55-7.1,0-.9-.05-1.7-1.349-1.7h-5.3c-.8,0-1.1.15-1.3.451a2.8,2.8,0,0,1-2.449,1.6c-1.15,0-1.15-1.2-1.15-1.85,0-.9.15-5.4.15-6.4,0-2.55-.051-5.15-.3-8.6,0-.35-.2-2.051-.2-2.451,0-.5.2-.5.35-.5a10.309,10.309,0,0,1,2.7.95,4.926,4.926,0,0,0,2.8.75h4.65c1.5,0,1.5-.55,1.5-3.15,0-2,0-2.8-1.4-2.8h-2.651c-1.4,0-3.9,0-5.9.1-.15,0-1.35.15-1.449.15-.151,0-.25-.1-.451-.3l-.95-1.15c-.2-.2-.2-.25-.2-.35s.1-.1.149-.1c.351,0,1.851.15,2.2.15,1.45.1,4.05.2,6.849.2h12.051c2.551,0,2.7,0,3.551-1.35,1.1-1.85,1.25-2,1.7-2,.9,0,4.1,3.1,4.1,3.95,0,.7-.951.7-2.7.7h-10.2c-1.55,0-1.55.6-1.55,2.7,0,2.55,0,3.25,1.5,3.25h4.551a2.028,2.028,0,0,0,1.5-.5c.85-.95.9-1,1.151-1,.4,0,3.75,1.95,3.75,2.6,0,.349-.3.55-.8.8a1.009,1.009,0,0,0-.7,1.15c0,1.65.048,3.65.1,5.3.05,1.1.3,6.4.3,7.6,0,1.9-2.1,2.3-2.6,2.3-.548,0-.9-.25-1.049-1.2-.15-1-1.1-1-1.5-1Zm-6-8.7c1.449,0,1.449-.35,1.449-3.7,0-1.65,0-2.35-1.449-2.35h-5.352c-1.5,0-1.5.35-1.5,3.7,0,1.65,0,2.35,1.5,2.35Zm.049,7.4c1.4,0,1.4-.7,1.4-2.3,0-3.4,0-3.8-1.4-3.8h-5.45c-1.35,0-1.35.65-1.35,2.15,0,3.551,0,3.95,1.45,3.95Zm6.1-13.45c-1.55,0-1.55.649-1.55,2.25,0,2.8,0,3.15.35,3.45a1.449,1.449,0,0,0,1.2.35h4.651c1.549,0,1.549-.65,1.549-2.25,0-2.6,0-3.151-.349-3.45a1.447,1.447,0,0,0-1.2-.35Zm.05,7.35c-1.6,0-1.6.8-1.6,2.1,0,3.6,0,4,1.6,4h4.6c1.6,0,1.6-.8,1.6-2.1,0-3.6,0-4-1.6-4Z" fill="#333"/>
      <path id="パス_1559" data-name="パス 1559" d="M-2169.266,2011.706c0,.151.1.351.1.55a38.366,38.366,0,0,1,.5,5.4c0,3.35-.75,8-5.15,14.651-4,6.1-6.55,7.3-8.55,7.3-3.3,0-6.251-5.15-6.251-11.25a17.611,17.611,0,0,1,5.549-12.751,20.692,20.692,0,0,1,15.952-6.5c4.55,0,6.65.9,8.05,1.6a15.675,15.675,0,0,1,8.7,14.551,18.648,18.648,0,0,1-12.6,17.6,30.715,30.715,0,0,1-8.3,1.849c-.2,0-.5-.05-.5-.349,0-.151.1-.2,1.351-.7,5.2-2.049,16.052-6.35,16.052-18.8,0-1.951-.2-13.852-13.852-13.852C-2169.216,2011.006-2169.266,2011.406-2169.266,2011.706Zm-16.251,15.351c0,3.251,1.3,7.7,4.35,7.7,1.451,0,2.65-.6,6.1-5.8,2.651-4.05,4.9-9.6,4.9-14.551,0-3-.2-3.25-.851-3.25C-2175.767,2011.156-2185.517,2017.607-2185.517,2027.057Z" fill="#333"/>
      <path id="パス_1560" data-name="パス 1560" d="M-2120.166,2009.806a4.083,4.083,0,0,0-.7-2.2,9.841,9.841,0,0,1-.951-1.4c0-.6,1.05-1.05,2.05-1.05,2,0,2.8,1.1,3.6,2.2.25.35.75.55,2.25.95.95.25,2.85.8,2.85,2.2,0,1.9-2.8,2.8-6.85,4-.45.15-.5.3-.95,2.051-.6,2.5-4.9,19.4-9.5,19.4-1.351,0-1.551-.9-1.551-1.4,0-.7.15-.95,1.65-3.1a44.755,44.755,0,0,0,6.9-16.3c0-.449-.35-.5-1.1-.549-5.9-.5-5.9-4-5.9-4.051,0-.2.048-.6.349-.6.2,0,.35.05,1.35.651a7.427,7.427,0,0,0,3.85,1.049,6.252,6.252,0,0,0,2.2-.3A2.378,2.378,0,0,0-2120.166,2009.806Zm14.4,31.3c-.65,4.349-4.451,5.45-7.051,5.45-4.75,0-7.55-3.3-7.55-5.8,0-3.25,3.55-4.95,8.05-4.95.4,0,2.25.1,2.6.1.45,0,.7-.05.7-.55,0-.75-.2-4.1-.2-4.8,0-5.5.3-8.151,4.5-10.551,3.1-1.8,3.451-1.95,3.451-3.25a4.383,4.383,0,0,0-1.4-2.55c-.45-.4-.651-.6-.651-.8,0-.15.151-.25.35-.25a16.012,16.012,0,0,1,2.951.85,5.371,5.371,0,0,1,3.651,5.1,2.375,2.375,0,0,1-2.351,2.6,3.452,3.452,0,0,1-1.149-.2c-1.9-.7-2.1-.8-2.7-.8a5.991,5.991,0,0,0-3.65,1.5c-1.149,1.1-1.2,2.9-1.2,4.151s.5,9,2,10.05c.449.35,2.8,1.15,3.25,1.4,1.05.55,3.95,2.15,3.95,4,0,.85-.351,1.75-1.351,1.75-.5,0-.8-.15-1.549-.8-1.351-1.2-3.65-2.75-4.351-2.45C-2105.665,2040.408-2105.665,2040.608-2105.765,2041.109Zm-7.2-2.851c-1.15,0-5.65,0-5.65,2.65,0,1.2,1.5,2.7,4.5,2.7,4.85,0,5.55-3.8,5.25-4.6C-2109.116,2038.258-2111.816,2038.258-2112.966,2038.258Zm-1.35-28.6c0-.35-1.75-1.25-2.05-1.25-.85,0-1.2,2.05-1.2,2.2a.525.525,0,0,0,.1.3C-2117.316,2011.056-2114.316,2010.406-2114.316,2009.656Z" fill="#333"/>
      <path id="パス_1561" data-name="パス 1561" d="M-2074.677,2019.857a.44.44,0,0,1,.449-.4c.151,0,2.75.7,3.3.7a83.542,83.542,0,0,0,8.4-1.5c.85-.6.9-5.651.9-5.9a6.334,6.334,0,0,0-1.25-4.25c-.75-.9-.851-1-.851-1.15,0-.35.6-.4.8-.4,3.351,0,5.3,1.9,5.3,3.2,0,.1-1.9,6.451-1.9,7.4,0,.3.2.45.551.45.25,0,2.55-.25,2.949-.25,3.75,0,6.651,1.8,6.651,6.4,0,3.951-1.4,12.551-4.3,16.051-1.4,1.651-3.4,3.05-5.1,3.05-1.9,0-2.4-1.85-2.95-3.45-.1-.25-.649-1.55-.649-1.65a.236.236,0,0,1,.25-.25,9.2,9.2,0,0,1,1.25.35,15.85,15.85,0,0,0,2.55.35c1.45,0,3.3-.7,4.751-6.1a39.905,39.905,0,0,0,1.548-8.7c0-3.5-2-3.75-3.449-3.75-1.6,0-4.451.75-4.8,1.2-.2.25-.25.45-.75,2.15-2,6.8-6.85,19.1-10.9,19.1a1.47,1.47,0,0,1-1.6-1.6c0-1.05.35-1.45,3.35-4.75,1.35-1.5,3.45-3.8,6.15-11.3a13.457,13.457,0,0,0,.7-2.351c0-.15-.049-.4-.35-.4-1.1,0-5.75,2-6.75,2C-2072.377,2024.107-2074.677,2020.957-2074.677,2019.857Zm34.9,10.4c-.5,0-2.8-1.35-3.4-1.5-.25-.1-1.6-.2-1.6-.35,0-.3,1.651-1.15,1.951-1.4,1.849-1.4,2.05-1.55,2.05-2.9a6.429,6.429,0,0,0-4.05-5.75c-.4-.2-1.2-.55-1.2-.75,0-.3.2-.3.351-.3,6.4,0,8.75,6.3,8.75,8.85C-2036.925,2026.757-2037.675,2030.257-2039.775,2030.257Z" fill="#333"/>
      <path id="パス_1562" data-name="パス 1562" d="M-2000.836,2010.906c-.651,0-2.751,1.8-3.55,2.5-.65.6-2.551,2.3-3.851,2.3-1.85,0-3.25-3.551-3.25-3.7,0-.3.1-.5.4-.5s1.45.2,1.7.2c1.6,0,2.2-.1,5.2-2a8.589,8.589,0,0,1,4.8-1.65c3.3,0,4.05,2.25,4.05,3,0,1.051-.45,1.65-3.05,4.051a45.4,45.4,0,0,0-7.351,10.15c0,.25.351.3.5.3.65,0,3.451-.05,4.05,0a40.445,40.445,0,0,1,9.451,2,2,2,0,0,0,.8.2c.651,0,.95-4.1.95-4.6,0-.4-.3-2.6-.3-2.8,0-.3.349-.3.549-.3.151,0,4.5.8,4.5,2.75a10.791,10.791,0,0,1-1.1,1.95c0,.1-.7,4.1-.7,4.25,0,.65.3.8,1.149,1.25,1.951,1.051,6.5,3.4,6.5,6a1.936,1.936,0,0,1-1.851,1.9c-1,0-1.549-.4-5.049-3.4-.1-.05-1.55-1.3-2.05-1.3-.4,0-.551.35-.7.6-1.451,2.6-3.751,6.1-9.8,9.25a18.446,18.446,0,0,1-5.4,2c-.049,0-.4,0-.4-.151a8,8,0,0,1,.949-.7c4.951-3.4,7.4-5.4,10.3-9.9a9.209,9.209,0,0,0,1.5-2.85c0-.45,0-.7-2.75-2.051a21.675,21.675,0,0,0-9.2-2.25c-3.1,0-3.2.2-4.05,2-4.3,9.151-5.149,11-8.3,11-2.55,0-3.3-2.75-3.3-4,0-4.251,4.45-8.05,9.7-9.9a1.806,1.806,0,0,0,1.25-1c1.15-1.85,7.4-11.3,7.65-11.751a7.073,7.073,0,0,0,.65-2.25A.644.644,0,0,0-2000.836,2010.906Zm-16.751,24.1c0,.85.4,1.45,1.3,1.45,2.751,0,6-7.35,6-7.551,0-.15-.051-.25-.2-.25C-2012.286,2028.657-2017.587,2032.058-2017.587,2035.008Z" fill="#333"/>
    </g>
  </g>
</svg>
