<svg id="subscription_nakami" xmlns="http://www.w3.org/2000/svg" width="251.535" height="32.936" viewBox="0 0 251.535 32.936">
  <g id="グループ_93" data-name="グループ 93" transform="translate(-472.843 -926.789)">
    <path id="パス_490" data-name="パス 490" d="M483.426,940.359c-3.168,0-4.176.072-4.535.108-.145,0-.649.072-.756.072-.145,0-.217-.072-.324-.216l-.684-.828c-.144-.18-.18-.18-.18-.252,0-.035.072-.072.143-.072.252,0,1.368.108,1.584.108,1.764.072,3.24.144,4.932.144h9.755c1.547,0,1.907,0,2.3-.611.864-1.3.936-1.44,1.3-1.44.613,0,3.1,1.8,3.1,2.447,0,.54-.648.54-1.944.54h-6.948c-1.007,0-1.007.36-1.007,3.348,0,2.807,0,3.1,1.007,3.1h2.485c1.548,0,1.871,0,2.267-.612.684-1.043.756-1.188,1.08-1.188.432,0,2.592,1.836,2.592,2.3,0,.217-.217.4-.54.432a10.644,10.644,0,0,1-1.332.036h-6.443c-1.116,0-1.116.216-1.116,2.376,0,1.224,0,5.291.108,5.471.143.288.433.288.864.324.287.036,2.159.144,3.995.144a44.436,44.436,0,0,0,9.611-1.116,6.9,6.9,0,0,1,1.116-.4c.036,0,.108,0,.108.144,0,.217-2.2,1.764-2.555,2.2a12.014,12.014,0,0,0-.577,1.44c-.252.468-1.692.5-2.2.5-14.433,0-16.161-2.052-18.5-4.788a8.416,8.416,0,0,1-1.548-2.591c-.072-.216-.144-.324-.252-.324-.144,0-.216.144-.54.648-3.347,5.363-6.479,6.155-6.731,6.155-.144,0-.216-.072-.216-.144,0-.036.54-.576.612-.648,4.211-4.5,6.011-10.079,6.156-12.67.107-1.62.107-1.764.359-1.764.216,0,3.1.828,3.1,1.332,0,.216-.72.792-.792.935-.252.54-.864,3.024-1.044,3.528,0,.036-.612,1.836-.612,1.908,0,1.8,4.644,4.967,6.587,4.967.468,0,.468-.5.468-.756,0-2.015.072-11.05.072-12.886,0-.9,0-1.4-1.08-1.4Zm-5.4-6.515c-.468,0-.685.036-.9.648-.684,2.159-1.8,2.988-2.664,2.988a1.05,1.05,0,0,1-1.187-1.008c0-.5.143-.684,1.043-1.62a9.678,9.678,0,0,0,1.8-3.2c.145-.433.216-.613.361-.613.252,0,.54.576.756,1.26.144.54.359.612.828.612h8.566c.864,0,.973-.5.973-1.116,0-.576-.072-2.16-.109-2.735-.036-.288-.252-1.62-.252-1.908,0-.18.109-.18.144-.18s2.448.54,3.672.828a.458.458,0,0,1,.252.36c0,.179-.828.827-.936,1.044a9.648,9.648,0,0,0-.18,2.3c0,1.295.288,1.4,1.116,1.4h7.054c.973,0,1.153-.072,1.621-.432.467-.4.864-.756,1.259-.756.252,0,3.312,1.836,3.312,2.808,0,.72-.828.72-1.044.72-.252,0-1.548-.108-1.872-.108a4.455,4.455,0,0,0-2.051.5,4.813,4.813,0,0,1-1.044.54.1.1,0,0,1-.108-.108c0-.288.864-1.62.864-1.98,0-.252-.216-.252-.72-.252Z" fill="#333"/>
    <path id="パス_491" data-name="パス 491" d="M516.694,948.6c-1.116,0-2.736,0-3.995.108-.109,0-.648.072-.756.072-.144,0-.216-.072-.325-.216l-.719-.828c-.144-.18-.144-.18-.144-.252s.071-.072.144-.072c.5,0,2.951.216,3.527.216a.854.854,0,0,0,.973-.792c.035-.288.107-11.23.107-12.274,0-.612-.18-1.044-1.008-1.044-.252,0-1.548.144-1.763.144-.109,0-.18-.072-.325-.216l-.683-.828c-.145-.18-.145-.18-.145-.252s.073-.072.109-.072c.395,0,2.34.144,2.771.144,1.08,0,1.08-.468,1.08-1.4,0-.683,0-1.439-.036-2.087,0-.216-.072-1.3-.072-1.332,0-.252.217-.288.36-.288.072,0,2.915.432,2.915,1.007,0,.181-.252.325-.719.685a7.371,7.371,0,0,0-.216,2.339c0,1.188.54,1.188,1.259,1.188h2.7c.792,0,1.368,0,1.368-1.08,0-.5-.109-3.132-.109-3.707a.287.287,0,0,1,.324-.324c.037,0,2.952.576,2.952,1.188,0,.144-.54.576-.612.72a7.754,7.754,0,0,0-.252,2.483c0,.324,0,.612.288.612.324,0,.612-.36.756-.5.576-.792.648-.864.936-.864a4.965,4.965,0,0,1,2.2,2.016c0,.4-.683.4-1.656.4h-1.295c-1.3,0-1.332.252-1.332,1.8v11.734c0,.18,0,.54.288.54a.978.978,0,0,0,.684-.5c.612-1.079.684-1.188,1.116-1.188.539,0,2.088,1.98,2.088,2.268,0,.468-.469.468-1.332.468Zm2.988,3.528c0,.36-.252.468-1.008.828-.792.36-6.155,6.371-7.7,6.371-.145,0-.216-.072-.216-.144,0-.036,2.2-2.52,2.556-3.06a26.3,26.3,0,0,0,3.059-5.183c.144-.432.252-.792.432-.792a5.228,5.228,0,0,1,1.476.756C519.537,951.734,519.682,951.842,519.682,952.13Zm1.943-14.614c1.512,0,1.512-.288,1.512-2.664,0-1.3-.359-1.368-1.512-1.368h-2.34c-1.511,0-1.511.288-1.511,2.664,0,1.295.36,1.368,1.511,1.368Zm0,5.147c.864,0,1.512,0,1.512-1.08v-2.232c0-.9-.756-.9-1.512-.9h-2.34c-.863,0-1.511,0-1.511,1.08,0,.252,0,2.124.036,2.2,0,.936.72.936,1.475.936Zm-2.483.936c-.864,0-1.332.036-1.332,1.224v1.62c0,1.187.4,1.223,1.332,1.223h2.628c.863,0,1.332-.036,1.332-1.223v-1.584c0-1.224-.4-1.26-1.332-1.26Zm8.495,11.842c0,.684-.4,1.476-1.188,1.476-.828,0-1.116-.792-1.692-2.375a7.918,7.918,0,0,0-1.979-3.168c-.145-.144-.613-.612-.613-.72a.132.132,0,0,1,.144-.144,15.374,15.374,0,0,1,2.484,1.224C525.693,952.238,527.637,953.318,527.637,955.441Zm10.582-26.457a2.044,2.044,0,0,0,.9-.107c.18-.108.936-.864,1.188-.864.288,0,2.555.971,2.555,1.655a.736.736,0,0,1-.287.541c-.505.431-.54.5-.648.683a53.347,53.347,0,0,0-.216,6.12c0,2.2.108,12.526.18,16.7,0,.289.107,1.728.107,2.052a3.118,3.118,0,0,1-3.023,3.42c-.468,0-.575-.072-.9-.576a6.2,6.2,0,0,0-2.807-2.232c-.036,0-.684-.324-.468-.4.18-.072,2.3,0,2.735,0,1.405,0,1.692-.18,1.836-.828.108-.54.108-6.551.108-7.63,0-1.369-.216-1.513-1.4-1.513h-4.1c-1.44,0-1.4.144-1.476,1.656-.216,5.759-4.068,11.771-4.859,11.771a.162.162,0,0,1-.18-.144,8.785,8.785,0,0,1,.36-.864c2.591-5.831,2.591-12.058,2.591-17.278a70.906,70.906,0,0,0-.54-11.3c-.036-.288-.288-1.692-.288-1.765,0-.143.109-.215.252-.215a28.124,28.124,0,0,1,2.808,1.044,5.526,5.526,0,0,0,1.08.071Zm-.035,7.992c.935,0,1.331-.072,1.331-1.188V931.18c0-1.223-.468-1.223-1.4-1.223h-4.1c-1.008,0-1.4.071-1.4,1.3,0,.648.072,3.816.072,4.536,0,1.188.468,1.188,1.476,1.188Zm-.109,8.1c.829,0,1.4,0,1.4-1.08.036-1.3.036-3.528.036-4.86,0-1.188-.54-1.223-1.367-1.223h-4c-.936,0-1.476,0-1.476,1.187,0,.684-.036,4.1-.036,4.86,0,1.08.468,1.116,1.332,1.116Z" fill="#333"/>
    <path id="パス_492" data-name="パス 492" d="M556.215,938.2c-.217.684-.252,8.6-.252,10.007,0,1.584.072,8.531.072,9.935,0,1.08-.755,1.512-1.728,1.512-.792,0-.936-.468-.936-1.044,0-.36.18-2.088.18-2.412.144-2.484.216-6.047.216-8.459,0-1.907-.036-6.011-.072-8.063,0-.216,0-.72-.216-.72-.108,0-.4.4-.539.576a16.633,16.633,0,0,1-3.24,3.312c-.144,0-.216-.072-.216-.252,0-.108,1.475-2.376,1.727-2.844a42.658,42.658,0,0,0,5.039-12.2c.073-.684.073-.756.325-.756.144,0,3.456,1.26,3.456,2.051,0,.4-.4.577-.756.721a1.238,1.238,0,0,0-.828.755,53.206,53.206,0,0,1-2.772,4.968,1.971,1.971,0,0,0-.324.684c0,.252.181.324.432.431a2.246,2.246,0,0,1,1.116.721C556.9,937.336,556.287,938.02,556.215,938.2Zm16.522,8.063c-.972,0-1.044.5-1.08,1.116a17.093,17.093,0,0,1-.648,4.608,14.517,14.517,0,0,0-.612,1.764c0,.4.144.467,1.62,1.007a27.916,27.916,0,0,0,9.431,1.656c.179,0,1.08-.072,1.295-.072.073,0,.216,0,.216.108,0,.18-.468.4-.72.5a3.83,3.83,0,0,0-1.62,1.44c-.4.792-.5,1.008-1.08,1.008-2.483,0-7.594-2.2-9.214-3.168-.9-.54-1.008-.612-1.223-.612a4.273,4.273,0,0,0-1.332.864,15.363,15.363,0,0,1-8.676,3.24c-.144,0-.539,0-.539-.252,0-.18.144-.216.9-.36,2.916-.576,7.955-3.888,7.955-5,0-.251-.072-.323-.719-1.079a18.952,18.952,0,0,1-2.88-5.148.3.3,0,0,1,.324-.324c.18,0,.36.288.72.9.9,1.44,2.771,4.14,3.42,4.14.683,0,1.115-3.78,1.115-5.112,0-.648-.035-1.224-.972-1.224H564.6c-.576,0-.792.109-.936.324a2.016,2.016,0,0,1-1.763,1.152c-.828,0-.828-.863-.828-1.332,0-.648.107-3.887.107-4.607,0-1.836-.035-3.708-.216-6.191,0-.252-.143-1.476-.143-1.764,0-.36.143-.36.252-.36a7.413,7.413,0,0,1,1.943.684,3.552,3.552,0,0,0,2.015.54h3.348c1.08,0,1.08-.4,1.08-2.268,0-1.439,0-2.016-1.008-2.016h-1.908c-1.008,0-2.808,0-4.247.073-.108,0-.972.108-1.044.108-.107,0-.179-.073-.324-.217l-.684-.827c-.144-.144-.144-.181-.144-.252s.072-.073.108-.073c.252,0,1.332.109,1.584.109,1.044.072,2.915.143,4.932.143H575.4c1.836,0,1.943,0,2.555-.971.792-1.332.9-1.44,1.224-1.44.648,0,2.951,2.232,2.951,2.844,0,.5-.683.5-1.943.5h-7.343c-1.116,0-1.116.432-1.116,1.944,0,1.836,0,2.34,1.08,2.34h3.275a1.462,1.462,0,0,0,1.08-.36c.612-.684.648-.72.828-.72.288,0,2.7,1.4,2.7,1.872,0,.252-.216.4-.577.576a.727.727,0,0,0-.5.828c0,1.187.036,2.627.072,3.815.036.792.216,4.608.216,5.471,0,1.368-1.512,1.656-1.872,1.656-.4,0-.648-.18-.756-.863-.108-.721-.791-.721-1.079-.721ZM568.417,940c1.044,0,1.044-.252,1.044-2.663,0-1.188,0-1.692-1.044-1.692h-3.851c-1.08,0-1.08.252-1.08,2.664,0,1.187,0,1.691,1.08,1.691Zm.036,5.328c1.008,0,1.008-.5,1.008-1.656,0-2.448,0-2.736-1.008-2.736H564.53c-.972,0-.972.468-.972,1.548,0,2.556,0,2.844,1.044,2.844Zm4.392-9.683c-1.116,0-1.116.468-1.116,1.62,0,2.015,0,2.267.252,2.483a1.042,1.042,0,0,0,.864.252h3.348c1.115,0,1.115-.468,1.115-1.619,0-1.872,0-2.268-.252-2.484a1.041,1.041,0,0,0-.863-.252Zm.036,5.291c-1.152,0-1.152.576-1.152,1.512,0,2.592,0,2.88,1.152,2.88h3.312c1.151,0,1.151-.576,1.151-1.512,0-2.592,0-2.88-1.151-2.88Z" fill="#333"/>
    <path id="パス_493" data-name="パス 493" d="M603.121,933.088c0,.108.073.252.073.4a27.6,27.6,0,0,1,.359,3.888c0,2.411-.539,5.759-3.707,10.546-2.88,4.392-4.715,5.255-6.155,5.255-2.376,0-4.5-3.707-4.5-8.1a12.676,12.676,0,0,1,3.995-9.179,14.891,14.891,0,0,1,11.482-4.68,11.728,11.728,0,0,1,5.8,1.152,11.283,11.283,0,0,1,6.263,10.475,13.421,13.421,0,0,1-9.071,12.67,22.114,22.114,0,0,1-5.975,1.332c-.145,0-.36-.036-.36-.252,0-.108.072-.144.971-.5,3.744-1.476,11.555-4.571,11.555-13.534,0-1.4-.144-9.971-9.971-9.971C603.158,932.584,603.121,932.872,603.121,933.088Zm-11.7,11.051c0,2.34.936,5.543,3.132,5.543,1.044,0,1.907-.432,4.39-4.176a20.576,20.576,0,0,0,3.529-10.474c0-2.16-.144-2.34-.612-2.34C598.442,932.692,591.423,937.336,591.423,944.139Z" fill="#333"/>
    <path id="パス_494" data-name="パス 494" d="M633.33,931.72a2.939,2.939,0,0,0-.5-1.584,7.032,7.032,0,0,1-.684-1.008c0-.431.756-.755,1.475-.755a2.926,2.926,0,0,1,2.592,1.584c.18.252.54.4,1.62.683.684.18,2.052.576,2.052,1.584,0,1.368-2.016,2.016-4.931,2.88-.325.108-.36.216-.684,1.476-.432,1.8-3.528,13.966-6.84,13.966-.972,0-1.115-.648-1.115-1.008,0-.5.107-.684,1.187-2.232a32.2,32.2,0,0,0,4.968-11.734c0-.324-.252-.36-.792-.4-4.248-.36-4.248-2.88-4.248-2.916,0-.144.037-.432.252-.432.145,0,.252.036.973.468a5.327,5.327,0,0,0,2.771.756,4.484,4.484,0,0,0,1.584-.216A1.7,1.7,0,0,0,633.33,931.72ZM643.7,954.253c-.468,3.132-3.205,3.924-5.076,3.924-3.42,0-5.435-2.376-5.435-4.175,0-2.34,2.555-3.564,5.8-3.564.288,0,1.62.072,1.872.072.324,0,.5-.036.5-.4,0-.54-.144-2.952-.144-3.456,0-3.959.216-5.867,3.239-7.594,2.232-1.3,2.484-1.4,2.484-2.34a3.155,3.155,0,0,0-1.008-1.836c-.324-.288-.468-.432-.468-.576,0-.108.109-.18.252-.18a11.461,11.461,0,0,1,2.124.612,3.862,3.862,0,0,1,2.627,3.672,1.709,1.709,0,0,1-1.691,1.871,2.49,2.49,0,0,1-.828-.144c-1.368-.5-1.512-.575-1.944-.575a4.311,4.311,0,0,0-2.628,1.079,4.063,4.063,0,0,0-.864,2.988c0,.9.36,6.479,1.441,7.235.324.252,2.015.828,2.339,1.007.756.4,2.844,1.548,2.844,2.88,0,.612-.252,1.26-.972,1.26-.36,0-.576-.108-1.116-.576-.971-.864-2.628-1.98-3.132-1.764C643.769,953.75,643.769,953.894,643.7,954.253Zm-5.184-2.051c-.827,0-4.068,0-4.068,1.907,0,.864,1.081,1.944,3.241,1.944,3.491,0,4-2.735,3.779-3.311C641.285,952.2,639.341,952.2,638.513,952.2Zm-.972-20.59c0-.252-1.259-.9-1.475-.9-.613,0-.865,1.476-.865,1.584a.379.379,0,0,0,.073.216C635.381,932.62,637.541,932.152,637.541,931.612Z" fill="#333"/>
    <path id="パス_495" data-name="パス 495" d="M660.928,938.955a.319.319,0,0,1,.324-.288c.109,0,1.981.5,2.376.5a60.118,60.118,0,0,0,6.047-1.08c.612-.431.649-4.067.649-4.247a4.558,4.558,0,0,0-.9-3.06c-.54-.648-.612-.72-.612-.827,0-.252.432-.289.576-.289,2.412,0,3.816,1.368,3.816,2.3,0,.072-1.368,4.644-1.368,5.327,0,.217.144.325.4.325.179,0,1.836-.181,2.124-.181,2.7,0,4.787,1.3,4.787,4.608,0,2.844-1.008,9.035-3.1,11.554a5.58,5.58,0,0,1-3.671,2.2c-1.368,0-1.728-1.332-2.124-2.483-.072-.18-.468-1.116-.468-1.188a.171.171,0,0,1,.18-.18,6.526,6.526,0,0,1,.9.252,11.405,11.405,0,0,0,1.837.252c1.042,0,2.375-.5,3.418-4.392a28.6,28.6,0,0,0,1.117-6.263c0-2.52-1.441-2.7-2.485-2.7a7.824,7.824,0,0,0-3.455.864c-.144.18-.18.324-.54,1.548-1.44,4.9-4.931,13.75-7.847,13.75a1.059,1.059,0,0,1-1.152-1.152c0-.755.252-1.044,2.412-3.419.972-1.08,2.484-2.736,4.428-8.135a9.763,9.763,0,0,0,.5-1.692c0-.108-.037-.288-.252-.288-.793,0-4.141,1.44-4.86,1.44C662.584,942.015,660.928,939.747,660.928,938.955Zm25.125,7.488c-.359,0-2.016-.972-2.447-1.081-.18-.071-1.153-.143-1.153-.252,0-.215,1.189-.827,1.4-1.007,1.332-1.008,1.475-1.116,1.475-2.088a4.628,4.628,0,0,0-2.915-4.139c-.289-.145-.864-.4-.864-.54,0-.216.144-.216.252-.216,4.607,0,6.3,4.535,6.3,6.371C688.1,943.923,687.565,946.443,686.053,946.443Z" fill="#333"/>
    <path id="パス_496" data-name="パス 496" d="M708.937,932.512c-.468,0-1.98,1.3-2.556,1.8-.469.432-1.836,1.656-2.771,1.656-1.332,0-2.34-2.556-2.34-2.664,0-.216.071-.36.287-.36s1.045.144,1.225.144c1.151,0,1.583-.072,3.743-1.439a6.173,6.173,0,0,1,3.456-1.188c2.375,0,2.915,1.619,2.915,2.159,0,.756-.323,1.188-2.2,2.916a32.716,32.716,0,0,0-5.292,7.307c0,.18.252.216.361.216.468,0,2.483-.036,2.916,0a29.116,29.116,0,0,1,6.8,1.44,1.435,1.435,0,0,0,.577.144c.468,0,.683-2.952.683-3.312,0-.288-.215-1.872-.215-2.016,0-.216.251-.216.4-.216.107,0,3.239.576,3.239,1.98a7.77,7.77,0,0,1-.792,1.4c0,.072-.5,2.952-.5,3.059,0,.468.216.577.829.9,1.4.755,4.678,2.447,4.678,4.319a1.393,1.393,0,0,1-1.331,1.368c-.721,0-1.116-.288-3.636-2.448-.072-.036-1.116-.936-1.475-.936-.288,0-.4.252-.5.432a15.537,15.537,0,0,1-7.056,6.659,13.25,13.25,0,0,1-3.888,1.44c-.035,0-.288,0-.288-.108a5.641,5.641,0,0,1,.685-.5c3.564-2.448,5.327-3.888,7.415-7.127a6.621,6.621,0,0,0,1.079-2.052c0-.324,0-.5-1.979-1.476a15.6,15.6,0,0,0-6.623-1.619c-2.232,0-2.3.144-2.915,1.44-3.1,6.586-3.708,7.919-5.976,7.919-1.836,0-2.376-1.98-2.376-2.88,0-3.06,3.2-5.795,6.983-7.127a1.3,1.3,0,0,0,.9-.72c.828-1.332,5.328-8.135,5.508-8.459a5.068,5.068,0,0,0,.467-1.62C709.332,932.764,709.225,932.512,708.937,932.512Zm-12.059,17.35c0,.612.288,1.044.936,1.044,1.979,0,4.319-5.292,4.319-5.435,0-.109-.035-.18-.144-.18C700.694,945.291,696.878,947.738,696.878,949.862Z" fill="#333"/>
  </g>
</svg>
