<svg id="subscription_ttl_sp" xmlns="http://www.w3.org/2000/svg" width="745" height="130" viewBox="0 0 745 130">
  <rect id="長方形_27" data-name="長方形 27" width="745" height="130" fill="#ffc946" opacity="0"/>
  <g id="グループ_344" data-name="グループ 344" transform="translate(2547.707 -1644.155)">
    <g id="グループ_341" data-name="グループ 341">
      <g id="グループ_340" data-name="グループ 340">
        <path id="パス_1523" data-name="パス 1523" d="M-2282.531,1737.03c-.161-.414-1.149-3.013-1.149-3.15a.486.486,0,0,1,.506-.483c.253,0,.3.115.85.966a6.8,6.8,0,0,0,5.405,3.15,3.314,3.314,0,0,0,3.4-3.473c0-2.092-1.38-2.828-4.3-3.839-3.2-1.1-5.311-2.323-5.311-5.06a4.332,4.332,0,0,1,4.6-4.46,8.979,8.979,0,0,1,1.633.184c.253.046,1.219.253,1.38.253a.875.875,0,0,0,.506-.139c.322-.253.368-.3.529-.3.276,0,.345.207.575.8.161.368,1.242,3.082,1.242,3.219a.362.362,0,0,1-.391.369c-.184,0-.23-.069-.6-.667a5.327,5.327,0,0,0-4.69-2.967,2.942,2.942,0,0,0-3.128,3.035c0,1.909,1.38,2.6,4.393,3.657,4.644,1.61,5.265,3.449,5.265,5.22a4.875,4.875,0,0,1-4.99,4.967,7.382,7.382,0,0,1-2.482-.46,3.005,3.005,0,0,0-.92-.23,1.189,1.189,0,0,0-.874.3c-.392.345-.437.391-.667.391C-2282.047,1738.318-2282.093,1738.18-2282.531,1737.03Z" fill="#333"/>
        <path id="パス_1524" data-name="パス 1524" d="M-2250.863,1721.118c.3,0,.645,0,.645.39,0,.368-.322.368-.713.368-1.633,0-1.748,1.311-1.77,2.024-.024,1.15,0,6.852,0,8.14,0,1.633-.07,3.4-1.473,4.829a5.359,5.359,0,0,1-3.886,1.449c-.988,0-5.7-.323-5.841-5.082-.022-1.288.024-7.543.024-8.945,0-1.771-.115-2.415-2.139-2.415-.138,0-.506,0-.506-.368,0-.39.345-.39.69-.39h5.633c.277,0,.622,0,.622.39,0,.368-.3.368-.736.368a1.535,1.535,0,0,0-1.678,1.035c-.116.345-.116,4.714-.116,5.519,0,5.059,0,5.45.391,6.53a4.034,4.034,0,0,0,3.933,2.484,4.082,4.082,0,0,0,3.586-1.794c.783-1.15.783-2.115.783-7.45,0-5.082-.047-5.2-.323-5.634a1.762,1.762,0,0,0-1.632-.69c-.253,0-.46-.115-.46-.368,0-.39.344-.39.551-.39Z" fill="#333"/>
        <path id="パス_1525" data-name="パス 1525" d="M-2236.168,1721.118c2.575,0,5.841.85,5.841,3.7a4.142,4.142,0,0,1-2.783,3.725c-.138.046-.552.207-.552.322s.966.322,1.15.391a4.544,4.544,0,0,1,3.15,4c0,2.184-1.955,4.622-6.254,4.622h-7.7c-.344,0-.69,0-.69-.368s.346-.368.713-.368c.76,0,1.771,0,1.978-1.2.092-.46.138-6.944.138-7.841a39.412,39.412,0,0,0-.207-5.381c-.3-.851-1.38-.851-1.61-.851-.758,0-1.012,0-1.012-.391,0-.367.23-.367.9-.367Zm-2.691,8.254a.616.616,0,0,0-.529.3c-.092.206-.092,3.472-.092,4,0,2.506,0,3.472,1.679,3.472h2c2.483,0,4.254-1.4,4.254-3.817a3.875,3.875,0,0,0-4.186-3.956Zm2.484-.735c2.162,0,3.909-1.15,3.909-3.5,0-2.23-1.541-3.265-3.7-3.265h-1.633c-1.655,0-1.655,1.035-1.655,3.036,0,1.149,0,3.219.068,3.426a.644.644,0,0,0,.529.3Z" fill="#333"/>
        <path id="パス_1526" data-name="パス 1526" d="M-2221.836,1737.03c-.16-.414-1.15-3.013-1.15-3.15a.487.487,0,0,1,.506-.483c.253,0,.3.115.851.966a6.8,6.8,0,0,0,5.4,3.15,3.314,3.314,0,0,0,3.4-3.473c0-2.092-1.379-2.828-4.3-3.839-3.2-1.1-5.313-2.323-5.313-5.06a4.333,4.333,0,0,1,4.6-4.46,9,9,0,0,1,1.632.184c.253.046,1.218.253,1.379.253a.871.871,0,0,0,.506-.139c.323-.253.368-.3.53-.3.275,0,.344.207.574.8.161.368,1.242,3.082,1.242,3.219a.362.362,0,0,1-.391.369c-.184,0-.23-.069-.6-.667a5.332,5.332,0,0,0-4.692-2.967,2.941,2.941,0,0,0-3.127,3.035c0,1.909,1.379,2.6,4.392,3.657,4.646,1.61,5.266,3.449,5.266,5.22a4.876,4.876,0,0,1-4.99,4.967,7.4,7.4,0,0,1-2.484-.46,2.988,2.988,0,0,0-.92-.23,1.187,1.187,0,0,0-.873.3c-.391.345-.437.391-.667.391C-2221.353,1738.318-2221.4,1738.18-2221.836,1737.03Z" fill="#333"/>
        <path id="パス_1527" data-name="パス 1527" d="M-2192.654,1720.956c0,.023,1.5,3.634,1.5,3.887a.432.432,0,0,1-.438.414c-.207,0-.253-.07-.735-.736-1.954-2.76-4-3.082-4.967-3.082-3.61,0-5.474,4.415-5.474,8.393,0,5.335,3.128,7.428,5.865,7.428,1.609,0,3.449-.69,4.966-3.265.53-.9.53-.92.713-.92a.358.358,0,0,1,.345.368,7.568,7.568,0,0,1-1.311,2.322,6.7,6.7,0,0,1-5.4,2.553c-4.852,0-7.221-3.932-7.221-8.44,0-5.381,3.334-9.2,7.221-9.2a7.965,7.965,0,0,1,1.954.275,11.216,11.216,0,0,0,1.38.368.952.952,0,0,0,.621-.229c.368-.369.413-.414.6-.414A.527.527,0,0,1-2192.654,1720.956Z" fill="#333"/>
        <path id="パス_1528" data-name="パス 1528" d="M-2178.266,1721.118c1.1,0,6.347.114,6.347,3.978,0,2.345-1.771,3.4-3.059,4.024-.8.391-.9.437-.9.689a40.713,40.713,0,0,0,2.391,5.5,2.866,2.866,0,0,0,2.713,1.839c.231,0,.691,0,.691.368,0,.322-.46.368-.576.368h-2.874a1.127,1.127,0,0,1-1.081-.667c-.137-.23-1.77-3.794-2.023-4.369-1.265-2.783-1.426-3.15-2.231-3.15h-1.264c-.161,0-.46.092-.529.276-.092.23-.092,3.265-.092,3.794,0,2.782,0,3.38,2.115,3.38.161,0,.483,0,.483.368s-.414.368-.667.368h-5.679c-.23,0-.576-.046-.576-.368,0-.368.323-.368.645-.368,1.586,0,1.816-.736,1.885-1.587.047-.782.047-7.1.047-8.186a36.786,36.786,0,0,0-.185-4.645c-.3-.851-1.288-.851-1.816-.851-.138,0-.621,0-.621-.414,0-.344.414-.344.69-.344Zm-.828.758c-1.655,0-1.655,1.035-1.655,3.4,0,3.61,0,3.679.621,3.679h1.862c2.254,0,4.162-1.242,4.162-3.633,0-1.61-.874-3.45-3.863-3.45Z" fill="#333"/>
        <path id="パス_1529" data-name="パス 1529" d="M-2163.487,1737.881c-.3,0-.644,0-.644-.368s.183-.368,1.081-.368c.667,0,1.77,0,2-1.2.068-.391.068-5.68.068-6.347,0-.942,0-6.139-.068-6.553-.231-1.173-1.059-1.173-2.576-1.173-.138,0-.506,0-.506-.368,0-.39.346-.39.667-.39h6.761c.275,0,.621,0,.621.39,0,.345-.207.345-1.059.345-.689,0-1.678.023-1.976,1.058-.093.322-.093,5.5-.093,6.554,0,6.093,0,6.116.069,6.484.207,1.2,1.035,1.2,2.575,1.2.116,0,.484,0,.484.368s-.346.368-.621.368Z" fill="#333"/>
        <path id="パス_1530" data-name="パス 1530" d="M-2143.357,1721.118c.874,0,6.554,0,6.554,4.345,0,2.392-1.84,4.485-5.955,4.485h-2.208c-.621,0-.621.183-.621,1.931,0,4.208,0,4.231.253,4.622a1.72,1.72,0,0,0,1.541.644c.506,0,.781,0,.781.368s-.321.368-.644.368h-5.679c-.345,0-.667,0-.667-.368s.345-.368.575-.368c.782,0,1.77,0,2-1.2.068-.368.068-.391.068-6.507,0-1.081,0-6-.068-6.393a1.527,1.527,0,0,0-1.748-1.173c-.575,0-.828,0-.828-.368,0-.39.322-.39.667-.39Zm.138,8.071c3.036,0,4.231-1.679,4.231-3.633,0-2.53-1.862-3.68-3.955-3.68h-.989c-1.655,0-1.655,1.012-1.655,3.013,0,.321,0,3.587.023,3.794a.559.559,0,0,0,.6.506Z" fill="#333"/>
        <path id="パス_1531" data-name="パス 1531" d="M-2117.635,1721.118c1.242,0,1.518,0,1.908,1.034.185.506,1.174,3.1,1.174,3.334a.354.354,0,0,1-.368.345c-.185,0-.253-.092-.782-.965-1.219-2-2.576-2.99-4.139-2.99-.9,0-1.449.368-1.587,1.15-.069.414-.069,5.611-.069,6.576,0,.644,0,5.956.069,6.347.207,1.173,1.288,1.2,1.909,1.2.85,0,1.034,0,1.034.368s-.322.368-.69.368h-6.438c-.322,0-.668,0-.668-.368s.369-.368.506-.368c1.358,0,2.208,0,2.438-1.2.069-.368.069-.391.069-6.507,0-5.68,0-6.3-.161-6.738a1.433,1.433,0,0,0-1.471-.828c-1.839,0-3.2,1.449-4.139,2.967-.552.9-.6.988-.8.988a.373.373,0,0,1-.368-.345c0-.183,1.035-2.943,1.219-3.4.368-.965.736-.965,1.885-.965Z" fill="#333"/>
        <path id="パス_1532" data-name="パス 1532" d="M-2108.209,1737.881c-.3,0-.644,0-.644-.368s.184-.368,1.081-.368c.666,0,1.77,0,2-1.2.07-.391.07-5.68.07-6.347,0-.942,0-6.139-.07-6.553-.23-1.173-1.057-1.173-2.575-1.173-.138,0-.506,0-.506-.368,0-.39.345-.39.667-.39h6.76c.276,0,.621,0,.621.39,0,.345-.207.345-1.058.345-.69,0-1.678.023-1.977,1.058-.092.322-.092,5.5-.092,6.554,0,6.093,0,6.116.068,6.484.207,1.2,1.036,1.2,2.577,1.2.115,0,.482,0,.482.368s-.345.368-.621.368Z" fill="#333"/>
        <path id="パス_1533" data-name="パス 1533" d="M-2088.081,1738.318c-4.439,0-7.52-3.634-7.52-8.807s3.059-8.83,7.52-8.83c4.415,0,7.5,3.633,7.5,8.83C-2080.585,1734.662-2083.644,1738.318-2088.081,1738.318Zm5.311-9.014c0-2.116-.6-7.865-5.311-7.865-5.152,0-5.335,6.761-5.335,8.279,0,2.207.667,7.841,5.335,7.841C-2082.953,1737.559-2082.77,1730.867-2082.77,1729.3Z" fill="#333"/>
        <path id="パス_1534" data-name="パス 1534" d="M-2074.446,1737.881c-.344,0-.689,0-.689-.368s.275-.368.851-.368a1.814,1.814,0,0,0,1.838-1.035c.185-.529.207-.552.207-6.645,0-5.795,0-5.818-.068-6.209-.276-1.38-1.541-1.38-2.322-1.38-.139,0-.506,0-.506-.368,0-.39.345-.39.689-.39h2.231c1.656,0,1.7.068,2.875,1.862,1.4,2.116,3.656,5.5,5.058,7.611.3.46,2.415,3.679,2.553,3.679.092,0,.16-.16.16-.46,0-.643.024-4.415.024-5.219,0-.828,0-4.9-.07-5.312-.276-1.4-1.448-1.4-2.207-1.4-.137,0-.483,0-.483-.368,0-.39.322-.39.645-.39h4.782c.253,0,.6,0,.6.39,0,.368-.322.368-.69.368-1.908,0-1.908,1.035-1.908,3.794,0,1.725.022,10.233.022,12.142,0,.115,0,.506-.3.506a.4.4,0,0,1-.3-.184c-.138-.161-9.153-13.705-9.268-13.867-.413-.666-.459-.758-.574-.758s-.184.184-.184.437c0,.828-.023,4.829-.023,5.749s0,5.495.069,5.932c.276,1.518,1.54,1.518,2.529,1.518.184,0,.529,0,.529.368s-.3.368-.736.368Z" fill="#333"/>
      </g>
    </g>
    <g id="グループ_343" data-name="グループ 343">
      <g id="グループ_342" data-name="グループ 342">
        <path id="パス_1535" data-name="パス 1535" d="M-2334.451,1665.887c0,1.881-4.332,3.591-5.7,4.161-.8.285-.855.513-.969,2.509-.114,1.253-.114,5.871-.114,6.156,0,.342,0,1.026.513,1.026.171,0,4.846-1.938,5.758-2.28,5.643-2.11,8.209-2.28,9.691-2.28a8.728,8.728,0,0,1,8.779,8.608c0,7.524-7.924,10.945-12.6,10.945-3.25,0-5.872-1.653-5.872-4.617,0-2.68,2.337-4.5,2.85-4.5a.307.307,0,0,1,.286.285c0,.171-.115.285-.229.456a2.356,2.356,0,0,0-.513,1.539c0,2.737,3.136,2.737,3.705,2.737,3.763,0,8.552-2.509,8.552-7.07,0-4.047-3.021-6.27-5.472-6.27-1.6,0-5.131.741-11.8,4.275-3.193,1.711-3.535,1.882-3.535,2.851,0,.627.172,3.192.172,3.762,0,2.623-.856,6.385-2.909,6.385-1.539,0-2.166-1.2-2.622-2.109-1.824-3.535-2.108-3.535-2.85-3.535a4.727,4.727,0,0,0-1.425.343,11.258,11.258,0,0,1-2.166,1.139c-.627,0-3.534-1.71-3.534-3.591,0-1.026.627-2.223,1.652-2.223.343,0,2,.285,2.338.285,1.539,0,2.565-.285,5.929-1.938,2.907-1.425,3.249-1.6,3.249-3.193,0-1.311-.057-6.157-.114-7.126,0-.4-.172-1.254-.8-1.254a13.351,13.351,0,0,0-2.623.513c-2.907.97-3.192,1.083-4.047,1.083-1.938,0-4.1-3.933-4.1-4.332a.4.4,0,0,1,.455-.4c.172,0,.856.228,1.027.228a16.556,16.556,0,0,0,2.622.285,24.9,24.9,0,0,0,7.24-1.71c.285-.4.57-5.587.57-6.214a5.6,5.6,0,0,0-1.881-4.561,5.624,5.624,0,0,1-.8-.912c0-.513.913-.627,1.254-.627,3.821,0,5.872,2.794,5.872,3.877a22.965,22.965,0,0,1-1.2,2.964,30.694,30.694,0,0,0-.569,3.706c0,.228.113.627.455.627.4,0,2-.627,2-1.426,0-.113-.285-.684-.285-.8,0-.057.113-.171.227-.228C-2337.188,1663.321-2334.451,1664.12-2334.451,1665.887Zm-13,21.833c0,.855,1.54,2.679,2.394,2.679.8,0,1.6-1.6,1.6-4.389,0-.228,0-.8-.171-.912C-2343.8,1685.1-2347.449,1686.922-2347.449,1687.72Zm37.454-17.729c0,1.2-.684,2.736-1.881,2.736-.343,0-1.654-.114-1.939-.114-.285.057-1.482.4-1.71.4a.267.267,0,0,1-.285-.286,4,4,0,0,1,.171-.456,2.994,2.994,0,0,0,.229-1.026c0-2.28-2.851-3.078-4.789-3.078a4.946,4.946,0,0,0-2.223.57,1.281,1.281,0,0,1-.57.171c-.172,0-.229-.057-.229-.228,0-.4,2.4-3.591,6.157-3.591C-2312.674,1665.089-2310,1667.369-2310,1669.991Z" fill="#333"/>
        <path id="パス_1536" data-name="パス 1536" d="M-2260.561,1671.074a50.253,50.253,0,0,0,13.8,4.5c.228,0,1.2.171,1.2.4,0,.171-.8.4-1.026.456a9.872,9.872,0,0,0-4.332,3.078c-.172.228-.8,1.425-1.084,1.425-.342,0-12.712-5.985-18.3-15.107-1.083-1.824-1.254-1.995-1.652-1.995s-.514.114-1.768,1.426a67.774,67.774,0,0,1-16.874,13.282c-1.938,1.026-7.867,3.648-8.95,3.648-.171,0-.285-.113-.285-.171s6.1-3.819,6.613-4.161c7.7-4.845,15.848-13.568,16.646-17.843.057-.456.114-.627.512-.627.285,0,4.9,1.767,5.188,1.938.172.057.742.285.742.855a3.617,3.617,0,0,1-.228.8C-2270.252,1663.834-2265.349,1668.623-2260.561,1671.074Zm-27.476-14.194c-4.219,0-6.158.114-7.241.171-.171,0-1.026.113-1.2.113s-.285-.113-.513-.341l-1.083-1.311c-.228-.286-.228-.286-.228-.4s.057-.114.171-.114c.4,0,2.167.171,2.509.171,2.793.114,5.187.228,7.867.228h1.652c1.2,0,1.539-.57,1.539-1.539a9.261,9.261,0,0,0-.455-3.021,8.578,8.578,0,0,1-.343-1.14c0-.285.285-.4.628-.4.4,0,2.964.627,3.591.8,1.71.456,2.052.57,2.052,1.083,0,.342-.057.456-.855,1.482a1.393,1.393,0,0,0-.4,1.026c0,1.369.456,1.71,2,1.71h9.405c.513,0,1.71,0,1.71-1.539a23.78,23.78,0,0,0-.17-2.565c-.057-.285-.342-1.483-.342-1.71,0-.285.342-.4.627-.4.4,0,4.276.913,4.9,1.083s.969.4.969.913c0,.342-.229.57-.856,1.026a1.828,1.828,0,0,0-.74,1.6c0,1.6.912,1.6,1.824,1.6h2.906c2.509,0,2.794,0,3.649-.969,1.6-1.881,1.767-2.109,2.281-2.109.342,0,5.3,3.021,5.3,3.762,0,.8-1.14.8-3.022.8h-11.115c-1.767,0-1.767.912-1.767,2.28,0,.342.056,2.28.056,2.565,0,2.109-1.71,2.452-2.907,2.452-1.312,0-1.539-.229-1.539-2.167v-3.933c-.171-1.083-.856-1.2-1.768-1.2h-9.121c-1.311,0-2.108,0-2.108,1.595,0,.571.17,3.079.17,3.592,0,1.083-.17,1.6-.684,1.938a4.048,4.048,0,0,1-2.166.8c-.969,0-1.426-.627-1.426-1.768,0-.456.058-2.622.058-3.021,0-2.223,0-3.135-1.768-3.135Zm4.047,29.13a29.181,29.181,0,0,1,4.389,2.679,1.416,1.416,0,0,1,.456.855c0,.684-.456.8-1.824,1.14-.171.058-5.073,3.877-5.985,4.561-5.131,3.648-8.38,4.96-8.665,4.96a.182.182,0,0,1-.172-.171c0-.114,3.021-2.737,3.421-3.136,4.731-4.5,7.639-9.007,8.152-10.831A.343.343,0,0,1-2283.99,1686.01Zm2.623-3.021c-4.448,0-6.1.057-7.241.171-.171,0-1.026.114-1.2.114s-.285-.114-.514-.342l-1.082-1.312c-.228-.285-.228-.285-.228-.4,0-.058.056-.115.171-.115.4,0,2.167.171,2.509.171,2.792.172,5.187.229,7.867.229h4.275c.569,0,1.71,0,1.71-1.54,0-.684-.343-5.3-.456-5.871,0-.115-.342-.684-.342-.8s.113-.343.57-.343c.4,0,4.389.855,4.96,1.026.8.172,1.083.685,1.083.97,0,.342-.115.456-.97,1.2-.8.684-.8,1.026-.8,2.736,0,2.052,0,2.623,1.709,2.623h2.509c2.508,0,2.794,0,3.648-.97,1.6-1.881,1.768-2.109,2.28-2.109.342,0,5.3,3.079,5.3,3.762,0,.8-1.139.8-3.021.8H-2269.4c-1.71,0-1.71,1.026-1.71,2.85,0,4.048,0,6.328.115,9.691.056.969.056,2.338.056,3.022,0,1.824-.456,2.907-2.907,2.907-1.254,0-1.368-1.026-1.368-1.995,0-.741.171-4.162.171-4.9.057-2.166.057-4.275.057-6.9a34.533,34.533,0,0,0-.114-3.876c-.285-.8-1.2-.8-1.653-.8Zm15.22,4.788c0-.171.285-.228.513-.228,2.109,0,15.106,3.592,15.106,8.323,0,1.824-1.025,3.249-2.451,3.249-1.083,0-1.31-.284-3.078-2.907-2.68-4.047-6.613-6.385-9.805-8.209C-2265.919,1688.005-2266.147,1687.834-2266.147,1687.777Z" fill="#333"/>
        <path id="パス_1537" data-name="パス 1537" d="M-2208.932,1658.932c0,.171.115.4.115.627a43.73,43.73,0,0,1,.57,6.157c0,3.819-.855,9.121-5.872,16.7-4.561,6.954-7.467,8.323-9.748,8.323-3.762,0-7.125-5.872-7.125-12.827,0-3.022.627-8.779,6.327-14.537a23.588,23.588,0,0,1,18.185-7.41c5.188,0,7.581,1.026,9.178,1.824,6.157,3.021,9.919,9.121,9.919,16.589a21.26,21.26,0,0,1-14.365,20.066,35.073,35.073,0,0,1-9.463,2.11c-.229,0-.571-.058-.571-.4,0-.171.114-.228,1.54-.8,5.928-2.337,18.3-7.24,18.3-21.434,0-2.224-.227-15.791-15.791-15.791C-2208.874,1658.134-2208.932,1658.59-2208.932,1658.932Zm-18.526,17.5c0,3.706,1.481,8.779,4.96,8.779,1.652,0,3.02-.684,6.954-6.613,3.021-4.618,5.587-10.945,5.587-16.589,0-3.42-.229-3.7-.969-3.7C-2216.342,1658.305-2227.458,1665.659-2227.458,1676.433Z" fill="#333"/>
        <path id="パス_1538" data-name="パス 1538" d="M-2156.4,1670.447c-5.016,0-6.612.114-7.182.171-.229,0-1.027.114-1.2.114-.228,0-.341-.114-.512-.342l-1.083-1.311c-.229-.285-.286-.285-.286-.4,0-.057.114-.114.228-.114.4,0,2.167.171,2.509.171,2.793.114,5.131.228,7.809.228h15.45c2.451,0,3.02,0,3.648-.969,1.368-2.052,1.481-2.28,2.052-2.28.969,0,4.9,2.85,4.9,3.876,0,.855-1.025.855-3.078.855h-11c-1.6,0-1.6.57-1.6,5.3,0,4.446,0,4.9,1.6,4.9h3.934c2.451,0,2.964,0,3.591-.968,1.082-1.654,1.2-1.882,1.709-1.882.685,0,4.106,2.907,4.106,3.649,0,.341-.342.627-.856.684a17.157,17.157,0,0,1-2.109.056h-10.2c-1.767,0-1.767.343-1.767,3.763,0,1.938,0,8.38.17,8.665.229.456.685.456,1.369.513.456.057,3.42.228,6.328.228a70.481,70.481,0,0,0,15.22-1.767,10.926,10.926,0,0,1,1.768-.627c.056,0,.171,0,.171.228,0,.342-3.478,2.793-4.047,3.477a18.627,18.627,0,0,0-.912,2.281c-.4.741-2.68.8-3.479.8-22.859,0-25.595-3.25-29.3-7.582a13.346,13.346,0,0,1-2.451-4.1c-.114-.342-.228-.513-.4-.513-.228,0-.342.228-.855,1.026-5.3,8.494-10.261,9.749-10.661,9.749-.227,0-.342-.115-.342-.228,0-.058.855-.913.97-1.027,6.669-7.126,9.52-15.962,9.748-20.066.17-2.566.17-2.793.57-2.793.342,0,4.9,1.311,4.9,2.109,0,.342-1.141,1.254-1.255,1.482-.4.855-1.368,4.789-1.653,5.587,0,.057-.969,2.907-.969,3.021,0,2.851,7.353,7.867,10.432,7.867.742,0,.742-.8.742-1.2,0-3.192.113-17.5.113-20.409,0-1.425,0-2.223-1.71-2.223Zm-8.551-10.318c-.741,0-1.083.057-1.424,1.026-1.084,3.421-2.851,4.732-4.219,4.732a1.664,1.664,0,0,1-1.881-1.6c0-.8.228-1.083,1.652-2.565a15.324,15.324,0,0,0,2.851-5.074c.228-.683.343-.968.57-.968.4,0,.855.912,1.2,1.995.227.855.569.969,1.311.969h13.566c1.37,0,1.541-.8,1.541-1.767,0-.912-.115-3.421-.171-4.333-.058-.456-.4-2.565-.4-3.021,0-.285.171-.285.228-.285s3.877.855,5.815,1.311a.722.722,0,0,1,.4.57c0,.285-1.312,1.311-1.483,1.653a15.289,15.289,0,0,0-.285,3.649c0,2.051.456,2.223,1.768,2.223h11.172c1.539,0,1.825-.114,2.566-.684.74-.627,1.368-1.2,2-1.2.4,0,5.245,2.907,5.245,4.446,0,1.14-1.311,1.14-1.654,1.14-.4,0-2.451-.171-2.964-.171a7.055,7.055,0,0,0-3.249.8,7.642,7.642,0,0,1-1.653.855.151.151,0,0,1-.171-.171c0-.456,1.367-2.565,1.367-3.135,0-.4-.342-.4-1.14-.4Z" fill="#333"/>
        <path id="パス_1539" data-name="パス 1539" d="M-2101.306,1683.5c-1.768,0-4.333,0-6.328.171-.171,0-1.026.114-1.2.114-.229,0-.343-.114-.514-.342l-1.141-1.311c-.227-.285-.227-.285-.227-.4s.114-.114.227-.114c.8,0,4.675.343,5.587.343a1.352,1.352,0,0,0,1.54-1.255c.057-.456.17-17.786.17-19.439,0-.969-.285-1.653-1.595-1.653-.4,0-2.452.228-2.793.228-.172,0-.286-.114-.514-.342l-1.083-1.311c-.228-.285-.228-.285-.228-.4s.114-.114.171-.114c.627,0,3.705.228,4.39.228,1.71,0,1.71-.742,1.71-2.223,0-1.084,0-2.281-.058-3.307,0-.342-.113-2.052-.113-2.11,0-.4.342-.456.57-.456.114,0,4.617.685,4.617,1.6,0,.285-.4.513-1.14,1.083-.342.228-.342,2.907-.342,3.7,0,1.882.856,1.882,1.995,1.882h4.277c1.253,0,2.166,0,2.166-1.71,0-.8-.172-4.96-.172-5.872a.454.454,0,0,1,.513-.513c.057,0,4.674.912,4.674,1.881,0,.228-.854.912-.969,1.14-.4.627-.4,3.021-.4,3.933,0,.514,0,.97.455.97.514,0,.97-.57,1.2-.8.912-1.254,1.027-1.368,1.483-1.368.684,0,3.477,2.509,3.477,3.193,0,.627-1.083.627-2.622.627h-2.053c-2.051,0-2.109.4-2.109,2.85v18.585c0,.284,0,.855.457.855a1.545,1.545,0,0,0,1.082-.8c.97-1.711,1.084-1.882,1.768-1.882.855,0,3.306,3.136,3.306,3.592,0,.741-.741.741-2.109.741Zm4.732,5.586c0,.571-.4.741-1.6,1.311-1.255.571-9.748,10.091-12.2,10.091-.228,0-.342-.114-.342-.228,0-.057,3.477-3.991,4.048-4.846,1.254-1.767,3.933-5.587,4.845-8.209.228-.684.4-1.254.684-1.254a8.267,8.267,0,0,1,2.338,1.2C-2096.8,1688.461-2096.574,1688.632-2096.574,1689.088Zm3.078-23.144c2.394,0,2.394-.456,2.394-4.219,0-2.052-.57-2.166-2.394-2.166h-3.7c-2.4,0-2.4.456-2.4,4.218,0,2.052.57,2.167,2.4,2.167Zm0,8.152c1.368,0,2.394,0,2.394-1.71v-3.535c0-1.425-1.2-1.425-2.394-1.425h-3.7c-1.369,0-2.4,0-2.4,1.71,0,.4,0,3.363.057,3.477,0,1.483,1.14,1.483,2.338,1.483Zm-3.934,1.482c-1.367,0-2.109.057-2.109,1.938v2.565c0,1.882.627,1.938,2.109,1.938h4.162c1.368,0,2.11-.056,2.11-1.938v-2.508c0-1.938-.627-1.995-2.11-1.995Zm13.454,18.755a2.122,2.122,0,0,1-1.882,2.337c-1.31,0-1.766-1.254-2.678-3.762a12.569,12.569,0,0,0-3.136-5.017c-.228-.228-.969-.969-.969-1.14a.209.209,0,0,1,.229-.228,24.363,24.363,0,0,1,3.932,1.938C-2087.055,1689.26-2083.976,1690.97-2083.976,1694.333Zm16.76-41.9a3.212,3.212,0,0,0,1.425-.171c.285-.171,1.482-1.368,1.882-1.368.456,0,4.047,1.539,4.047,2.622a1.161,1.161,0,0,1-.457.855c-.8.685-.854.8-1.025,1.083-.342.741-.342,8.152-.342,9.691,0,3.478.17,19.839.285,26.452,0,.456.17,2.736.17,3.249,0,4.218-3.134,5.416-4.788,5.416-.741,0-.912-.114-1.425-.913a9.829,9.829,0,0,0-4.447-3.534c-.057,0-1.083-.513-.74-.627.285-.114,3.648,0,4.332,0,2.223,0,2.68-.285,2.907-1.311.171-.855.171-10.375.171-12.086,0-2.166-.342-2.394-2.223-2.394h-6.5c-2.28,0-2.223.228-2.337,2.622-.342,9.122-6.442,18.642-7.7,18.642a.259.259,0,0,1-.285-.228,14.007,14.007,0,0,1,.57-1.369c4.1-9.235,4.1-19.1,4.1-27.363,0-10.66-.342-14.594-.856-17.9-.056-.456-.456-2.679-.456-2.793,0-.228.171-.342.4-.342a45.057,45.057,0,0,1,4.446,1.653,8.627,8.627,0,0,0,1.71.114Zm-.057,12.656c1.482,0,2.109-.115,2.109-1.882v-7.3c0-1.939-.741-1.939-2.223-1.939h-6.5c-1.6,0-2.224.114-2.224,2.052,0,1.027.116,6.043.116,7.183,0,1.882.74,1.882,2.337,1.882Zm-.171,12.826c1.311,0,2.223,0,2.223-1.71.057-2.052.057-5.587.057-7.7,0-1.881-.855-1.938-2.166-1.938h-6.327c-1.483,0-2.337,0-2.337,1.881,0,1.083-.058,6.5-.058,7.7,0,1.71.741,1.767,2.109,1.767Z" fill="#333"/>
        <path id="パス_1540" data-name="パス 1540" d="M-2036.315,1667.027c-.342,1.083-.4,13.624-.4,15.848,0,2.508.113,13.51.113,15.733,0,1.711-1.2,2.4-2.736,2.4-1.254,0-1.483-.741-1.483-1.654,0-.569.286-3.306.286-3.819.228-3.933.342-9.577.342-13.4,0-3.022-.057-9.521-.114-12.77,0-.342,0-1.14-.342-1.14-.172,0-.627.627-.855.912-1.141,1.6-4.617,5.245-5.131,5.245-.228,0-.342-.115-.342-.4,0-.171,2.338-3.762,2.736-4.5,5.587-9.634,7.811-17.786,7.981-19.325.115-1.083.115-1.2.514-1.2.228,0,5.472,2,5.472,3.25,0,.627-.627.912-1.2,1.14a1.97,1.97,0,0,0-1.311,1.2,83.484,83.484,0,0,1-4.39,7.867,3.139,3.139,0,0,0-.513,1.083c0,.4.285.513.685.685a3.545,3.545,0,0,1,1.767,1.139C-2035.231,1665.659-2036.2,1666.742-2036.315,1667.027Zm26.166,12.769c-1.539,0-1.652.8-1.71,1.767a27.074,27.074,0,0,1-1.026,7.3,23.316,23.316,0,0,0-.969,2.794c0,.627.229.741,2.566,1.6a44.2,44.2,0,0,0,14.935,2.622c.285,0,1.71-.114,2.052-.114.115,0,.343,0,.343.171,0,.285-.741.628-1.14.8a6.042,6.042,0,0,0-2.566,2.281c-.627,1.254-.8,1.6-1.71,1.6-3.933,0-12.029-3.478-14.594-5.017-1.425-.855-1.6-.969-1.939-.969a6.824,6.824,0,0,0-2.109,1.368,24.315,24.315,0,0,1-13.738,5.131c-.228,0-.856,0-.856-.4,0-.285.229-.342,1.426-.57,4.617-.912,12.6-6.157,12.6-7.924,0-.4-.114-.513-1.14-1.71-1.882-2.166-4.56-7.412-4.56-8.152a.478.478,0,0,1,.512-.513c.284,0,.57.456,1.14,1.425,1.426,2.28,4.39,6.555,5.416,6.555,1.083,0,1.768-5.985,1.768-8.095,0-1.026-.058-1.938-1.54-1.938h-6.043c-.912,0-1.253.171-1.482.513a3.2,3.2,0,0,1-2.793,1.825c-1.311,0-1.311-1.368-1.311-2.11,0-1.026.17-6.156.17-7.3,0-2.907-.056-5.871-.341-9.805,0-.4-.229-2.337-.229-2.793,0-.57.229-.57.4-.57a11.74,11.74,0,0,1,3.078,1.083,5.624,5.624,0,0,0,3.192.855h5.3c1.71,0,1.71-.627,1.71-3.591,0-2.281,0-3.193-1.6-3.193h-3.021c-1.6,0-4.448,0-6.727.114-.172,0-1.539.171-1.653.171-.171,0-.285-.114-.513-.342l-1.084-1.311c-.227-.228-.227-.285-.227-.4s.114-.114.17-.114c.4,0,2.11.171,2.508.171,1.654.114,4.618.228,7.811.228h13.738c2.907,0,3.078,0,4.048-1.539,1.254-2.109,1.425-2.28,1.938-2.28,1.026,0,4.674,3.534,4.674,4.5,0,.8-1.083.8-3.078.8h-11.629c-1.767,0-1.767.684-1.767,3.079,0,2.907,0,3.7,1.71,3.7h5.187a2.314,2.314,0,0,0,1.71-.57c.97-1.083,1.026-1.14,1.312-1.14.456,0,4.275,2.223,4.275,2.964,0,.4-.342.627-.912.912a1.15,1.15,0,0,0-.8,1.311c0,1.882.057,4.162.114,6.043.057,1.254.342,7.3.342,8.666,0,2.166-2.4,2.622-2.964,2.622-.627,0-1.026-.286-1.2-1.369-.172-1.14-1.254-1.14-1.711-1.14Zm-6.84-9.919c1.653,0,1.653-.4,1.653-4.218,0-1.882,0-2.68-1.653-2.68h-6.1c-1.71,0-1.71.4-1.71,4.219,0,1.881,0,2.679,1.71,2.679Zm.057,8.437c1.6,0,1.6-.8,1.6-2.622,0-3.877,0-4.333-1.6-4.333h-6.214c-1.539,0-1.539.741-1.539,2.451,0,4.048,0,4.5,1.653,4.5Zm6.955-15.335c-1.767,0-1.767.742-1.767,2.566,0,3.192,0,3.591.4,3.933a1.653,1.653,0,0,0,1.369.4h5.3c1.768,0,1.768-.741,1.768-2.565,0-2.964,0-3.591-.4-3.934a1.653,1.653,0,0,0-1.369-.4Zm.057,8.38c-1.824,0-1.824.912-1.824,2.4,0,4.1,0,4.56,1.824,4.56h5.244c1.824,0,1.824-.912,1.824-2.394,0-4.105,0-4.561-1.824-4.561Z" fill="#333"/>
      </g>
    </g>
    <line id="線_81" data-name="線 81" x2="231.185" transform="translate(-2284.663 1769.355)" fill="none" stroke="#333" stroke-miterlimit="10" stroke-width="1"/>
  </g>
</svg>
