<svg id="subscription_h" xmlns="http://www.w3.org/2000/svg" width="271.529" height="62.851" viewBox="0 0 271.529 62.851">
  <g id="グループ_27" data-name="グループ 27" transform="translate(-1036.429 -2124.851)">
    <path id="パス_112" data-name="パス 112" d="M1037.13,2186.918c-.1-.252-.7-1.835-.7-1.919a.3.3,0,0,1,.308-.294c.154,0,.182.07.519.588a4.137,4.137,0,0,0,3.291,1.919,2.019,2.019,0,0,0,2.074-2.115c0-1.275-.841-1.723-2.62-2.34-1.947-.672-3.236-1.414-3.236-3.081a2.639,2.639,0,0,1,2.8-2.717,5.6,5.6,0,0,1,.994.111c.155.029.743.155.841.155a.541.541,0,0,0,.308-.084c.2-.155.224-.182.322-.182.168,0,.21.126.35.49.1.224.757,1.877.757,1.961a.22.22,0,0,1-.238.224c-.113,0-.141-.042-.365-.406a3.247,3.247,0,0,0-2.857-1.808,1.792,1.792,0,0,0-1.9,1.85c0,1.162.84,1.583,2.675,2.227,2.83.981,3.208,2.1,3.208,3.18a2.969,2.969,0,0,1-3.04,3.025,4.512,4.512,0,0,1-1.513-.28,1.822,1.822,0,0,0-.56-.14.722.722,0,0,0-.532.182c-.238.21-.266.238-.406.238C1037.424,2187.7,1037.4,2187.618,1037.13,2186.918Z" fill="#333"/>
    <path id="パス_113" data-name="パス 113" d="M1056.458,2177.225c.183,0,.393,0,.393.238s-.2.224-.435.224c-.994,0-1.064.8-1.078,1.233-.014.7,0,4.174,0,4.958a3.847,3.847,0,0,1-.9,2.942,3.265,3.265,0,0,1-2.367.882c-.6,0-3.474-.2-3.558-3.095-.014-.785.014-4.595.014-5.449,0-1.079-.07-1.471-1.3-1.471-.085,0-.309,0-.309-.224s.21-.238.421-.238h3.431c.168,0,.379,0,.379.238s-.183.224-.449.224a.936.936,0,0,0-1.022.63c-.07.21-.07,2.871-.07,3.362,0,3.082,0,3.32.238,3.978a2.456,2.456,0,0,0,2.395,1.513,2.486,2.486,0,0,0,2.185-1.093c.477-.7.477-1.288.477-4.538,0-3.1-.029-3.166-.2-3.432a1.073,1.073,0,0,0-.994-.42c-.154,0-.28-.07-.28-.224,0-.238.21-.238.336-.238Z" fill="#333"/>
    <path id="パス_114" data-name="パス 114" d="M1065.435,2177.225c1.569,0,3.558.518,3.558,2.255a2.522,2.522,0,0,1-1.7,2.269c-.084.028-.336.126-.336.2s.588.2.7.238a2.77,2.77,0,0,1,1.919,2.438c0,1.33-1.19,2.815-3.81,2.815h-4.693c-.209,0-.42,0-.42-.224s.211-.224.435-.224c.462,0,1.078,0,1.2-.729.056-.28.084-4.23.084-4.776a24.03,24.03,0,0,0-.126-3.278c-.182-.518-.84-.518-.98-.518-.463,0-.617,0-.617-.238s.14-.224.547-.224Zm-1.639,5.029a.372.372,0,0,0-.322.182c-.056.126-.056,2.114-.056,2.437,0,1.527,0,2.115,1.022,2.115h1.219a2.313,2.313,0,0,0,2.591-2.325,2.359,2.359,0,0,0-2.549-2.409Zm1.513-.449a2.114,2.114,0,0,0,2.381-2.129c0-1.359-.938-1.989-2.255-1.989h-1c-1.008,0-1.008.63-1.008,1.849,0,.7,0,1.961.042,2.087a.391.391,0,0,0,.322.182Z" fill="#333"/>
    <path id="パス_115" data-name="パス 115" d="M1074.2,2186.918c-.1-.252-.7-1.835-.7-1.919a.3.3,0,0,1,.308-.294c.154,0,.182.07.519.588a4.139,4.139,0,0,0,3.291,1.919,2.019,2.019,0,0,0,2.074-2.115c0-1.275-.841-1.723-2.62-2.34-1.947-.672-3.235-1.414-3.235-3.081a2.639,2.639,0,0,1,2.8-2.717,5.6,5.6,0,0,1,.994.111c.155.029.743.155.841.155a.541.541,0,0,0,.308-.084c.2-.155.224-.182.322-.182.168,0,.211.126.35.49.1.224.757,1.877.757,1.961a.22.22,0,0,1-.238.224c-.112,0-.14-.042-.364-.406a3.25,3.25,0,0,0-2.858-1.808,1.792,1.792,0,0,0-1.905,1.85c0,1.162.84,1.583,2.676,2.227,2.829.981,3.207,2.1,3.207,3.18a2.969,2.969,0,0,1-3.039,3.025,4.5,4.5,0,0,1-1.513-.28,1.831,1.831,0,0,0-.561-.14.722.722,0,0,0-.532.182c-.238.21-.266.238-.406.238C1074.49,2187.7,1074.462,2187.618,1074.2,2186.918Z" fill="#333"/>
    <path id="パス_116" data-name="パス 116" d="M1092.006,2177.127c0,.014.91,2.213.91,2.367a.263.263,0,0,1-.266.252c-.126,0-.154-.042-.448-.448a3.722,3.722,0,0,0-3.026-1.878c-2.2,0-3.333,2.69-3.333,5.113,0,3.25,1.905,4.525,3.571,4.525a3.429,3.429,0,0,0,3.026-1.989c.322-.546.322-.561.434-.561a.219.219,0,0,1,.211.225,4.652,4.652,0,0,1-.8,1.415,4.085,4.085,0,0,1-3.292,1.554c-2.955,0-4.4-2.4-4.4-5.14,0-3.278,2.031-5.6,4.4-5.6a4.808,4.808,0,0,1,1.191.168,6.815,6.815,0,0,0,.84.224.577.577,0,0,0,.379-.14c.224-.225.252-.252.364-.252A.322.322,0,0,1,1092.006,2177.127Z" fill="#333"/>
    <path id="パス_117" data-name="パス 117" d="M1100.807,2177.225c.673,0,3.866.07,3.866,2.423a2.726,2.726,0,0,1-1.863,2.451c-.49.239-.546.266-.546.421a24.841,24.841,0,0,0,1.457,3.347,1.744,1.744,0,0,0,1.653,1.121c.14,0,.42,0,.42.224,0,.2-.28.224-.35.224h-1.751a.687.687,0,0,1-.659-.406c-.084-.14-1.078-2.311-1.232-2.662-.771-1.695-.869-1.919-1.359-1.919h-.771c-.1,0-.279.056-.321.169-.057.139-.057,1.989-.057,2.311,0,1.7,0,2.059,1.289,2.059.1,0,.294,0,.294.224s-.252.224-.406.224h-3.46c-.14,0-.35-.028-.35-.224,0-.224.2-.224.392-.224.967,0,1.107-.448,1.149-.966.028-.477.028-4.329.028-4.987a22.535,22.535,0,0,0-.112-2.83c-.182-.518-.785-.518-1.107-.518-.084,0-.378,0-.378-.252,0-.21.252-.21.42-.21Zm-.5.462c-1.009,0-1.009.63-1.009,2.073,0,2.2,0,2.241.378,2.241h1.135a2.262,2.262,0,0,0,2.536-2.213c0-.981-.533-2.1-2.354-2.1Z" fill="#333"/>
    <path id="パス_118" data-name="パス 118" d="M1109.834,2187.436c-.182,0-.392,0-.392-.224s.112-.224.658-.224c.406,0,1.078,0,1.219-.729.041-.237.041-3.46.041-3.866,0-.574,0-3.74-.041-3.992-.141-.714-.645-.714-1.569-.714-.084,0-.308,0-.308-.224s.21-.238.406-.238h4.118c.168,0,.378,0,.378.238,0,.21-.126.21-.644.21-.42,0-1.023.014-1.2.644-.056.2-.056,3.348-.056,3.992a36.964,36.964,0,0,0,.042,3.95c.126.729.631.729,1.569.729.07,0,.294,0,.294.224s-.21.224-.378.224Z" fill="#333"/>
    <path id="パス_119" data-name="パス 119" d="M1122.126,2177.225c.533,0,3.992,0,3.992,2.647,0,1.457-1.12,2.732-3.628,2.732h-1.344c-.378,0-.378.111-.378,1.176,0,2.563,0,2.578.154,2.816a1.047,1.047,0,0,0,.938.392c.308,0,.476,0,.476.224s-.2.224-.392.224h-3.46c-.21,0-.406,0-.406-.224s.21-.224.35-.224c.476,0,1.079,0,1.219-.729a37.193,37.193,0,0,0,.042-3.964c0-.658,0-3.656-.042-3.894a.93.93,0,0,0-1.065-.714c-.35,0-.5,0-.5-.224s.2-.238.406-.238Zm.084,4.916c1.849,0,2.578-1.022,2.578-2.213a2.181,2.181,0,0,0-2.41-2.241h-.6c-1.008,0-1.008.616-1.008,1.835,0,.2,0,2.185.013,2.311a.341.341,0,0,0,.365.308Z" fill="#333"/>
    <path id="パス_120" data-name="パス 120" d="M1137.826,2177.225c.757,0,.925,0,1.163.63.112.308.714,1.891.714,2.031a.215.215,0,0,1-.224.21c-.112,0-.154-.056-.476-.588a3.068,3.068,0,0,0-2.521-1.821c-.547,0-.883.224-.967.7-.042.252-.042,3.418-.042,4.006,0,.393,0,3.629.042,3.866.126.715.785.729,1.163.729.518,0,.63,0,.63.224s-.2.224-.42.224h-3.922c-.2,0-.406,0-.406-.224s.224-.224.308-.224c.826,0,1.344,0,1.485-.729a37.193,37.193,0,0,0,.042-3.964c0-3.459,0-3.838-.1-4.1a.873.873,0,0,0-.9-.5,3.2,3.2,0,0,0-2.521,1.807c-.337.546-.365.6-.491.6a.227.227,0,0,1-.224-.21c0-.112.63-1.793.743-2.073.224-.588.448-.588,1.148-.588Z" fill="#333"/>
    <path id="パス_121" data-name="パス 121" d="M1143.6,2187.436c-.182,0-.392,0-.392-.224s.112-.224.658-.224c.406,0,1.079,0,1.219-.729.042-.237.042-3.46.042-3.866,0-.574,0-3.74-.042-3.992-.14-.714-.644-.714-1.569-.714-.084,0-.308,0-.308-.224s.21-.238.406-.238h4.118c.168,0,.379,0,.379.238,0,.21-.127.21-.645.21-.42,0-1.023.014-1.2.644-.056.2-.056,3.348-.056,3.992a37.841,37.841,0,0,0,.041,3.95c.126.729.631.729,1.569.729.07,0,.3,0,.3.224s-.211.224-.379.224Z" fill="#333"/>
    <path id="パス_122" data-name="パス 122" d="M1155.908,2187.7c-2.7,0-4.58-2.213-4.58-5.364s1.863-5.379,4.58-5.379c2.69,0,4.567,2.213,4.567,5.379C1160.475,2185.475,1158.612,2187.7,1155.908,2187.7Zm3.236-5.49c0-1.29-.364-4.792-3.236-4.792-3.138,0-3.249,4.119-3.249,5.043,0,1.345.406,4.777,3.249,4.777C1159.032,2187.24,1159.144,2183.164,1159.144,2182.212Z" fill="#333"/>
    <path id="パス_123" data-name="パス 123" d="M1164.255,2187.436c-.21,0-.42,0-.42-.224s.168-.224.518-.224a1.107,1.107,0,0,0,1.121-.63c.112-.323.126-.336.126-4.049a34.883,34.883,0,0,0-.042-3.782c-.168-.84-.939-.84-1.415-.84-.084,0-.308,0-.308-.224s.21-.238.42-.238h1.359c1.009,0,1.036.042,1.751,1.134.854,1.289,2.227,3.348,3.082,4.637.182.28,1.47,2.241,1.554,2.241.056,0,.1-.1.1-.28,0-.392.014-2.69.014-3.18s0-2.983-.042-3.236c-.168-.854-.882-.854-1.345-.854-.083,0-.293,0-.293-.224s.2-.238.392-.238h2.913c.154,0,.365,0,.365.238s-.2.224-.421.224c-1.162,0-1.162.63-1.162,2.311,0,1.05.014,6.234.014,7.4,0,.07,0,.308-.183.308a.246.246,0,0,1-.182-.112c-.084-.1-5.575-8.348-5.645-8.446-.252-.407-.28-.463-.35-.463s-.112.113-.112.266c0,.5-.014,2.942-.014,3.5s0,3.348.042,3.614c.168.925.939.925,1.541.925.112,0,.322,0,.322.224s-.182.224-.448.224Z" fill="#333"/>
  </g>
  <g id="グループ_29" data-name="グループ 29" transform="translate(-1036.429 -2124.851)">
    <g id="グループ_28" data-name="グループ 28">
      <path id="パス_124" data-name="パス 124" d="M1053.322,2135.527c0,1.155-2.661,2.2-3.5,2.555-.49.175-.525.315-.6,1.54-.07.771-.07,3.606-.07,3.781,0,.21,0,.63.315.63.105,0,2.976-1.19,3.536-1.4,3.465-1.3,5.04-1.4,5.95-1.4a5.36,5.36,0,0,1,5.391,5.285c0,4.621-4.866,6.721-7.736,6.721-2,0-3.605-1.015-3.605-2.836a3.12,3.12,0,0,1,1.75-2.765.187.187,0,0,1,.175.175c0,.1-.07.175-.14.28a1.45,1.45,0,0,0-.315.945c0,1.68,1.925,1.68,2.275,1.68,2.31,0,5.25-1.54,5.25-4.34a3.626,3.626,0,0,0-3.36-3.85c-.98,0-3.15.455-7.246,2.625-1.96,1.05-2.17,1.155-2.17,1.75,0,.385.105,1.96.105,2.31,0,1.61-.525,3.921-1.785,3.921-.945,0-1.33-.735-1.61-1.3-1.12-2.169-1.3-2.169-1.75-2.169a2.894,2.894,0,0,0-.875.21,6.927,6.927,0,0,1-1.331.7c-.385,0-2.17-1.051-2.17-2.206,0-.63.385-1.365,1.015-1.365.21,0,1.225.175,1.436.175.945,0,1.575-.175,3.64-1.19,1.785-.875,1.995-.98,1.995-1.96,0-.8-.035-3.781-.07-4.376,0-.245-.105-.77-.49-.77a8.2,8.2,0,0,0-1.61.315,7.5,7.5,0,0,1-2.486.665c-1.19,0-2.52-2.415-2.52-2.66a.248.248,0,0,1,.28-.245c.1,0,.525.14.63.14a10.184,10.184,0,0,0,1.61.175,15.29,15.29,0,0,0,4.446-1.05,26.2,26.2,0,0,0,.35-3.815,3.439,3.439,0,0,0-1.155-2.8,3.509,3.509,0,0,1-.49-.56c0-.315.56-.385.77-.385,2.345,0,3.6,1.715,3.6,2.38a14.112,14.112,0,0,1-.735,1.821,18.694,18.694,0,0,0-.35,2.275c0,.14.07.385.28.385.245,0,1.225-.385,1.225-.875,0-.07-.175-.42-.175-.49,0-.035.07-.105.14-.14C1051.641,2133.952,1053.322,2134.442,1053.322,2135.527Zm-7.981,13.406c0,.526.945,1.646,1.47,1.646.49,0,.98-.981.98-2.7,0-.14,0-.49-.1-.56C1047.581,2147.323,1045.341,2148.443,1045.341,2148.933Zm23-10.886c0,.735-.42,1.68-1.155,1.68-.21,0-1.015-.07-1.19-.07-.175.036-.91.245-1.05.245a.163.163,0,0,1-.175-.175,2.469,2.469,0,0,1,.105-.28,1.843,1.843,0,0,0,.14-.629c0-1.4-1.75-1.891-2.94-1.891a3.037,3.037,0,0,0-1.366.35.785.785,0,0,1-.349.1c-.106,0-.141-.035-.141-.14a4.479,4.479,0,0,1,3.781-2.2C1066.693,2135.037,1068.338,2136.437,1068.338,2138.047Z" fill="#333"/>
      <path id="パス_125" data-name="パス 125" d="M1102.525,2138.712a30.842,30.842,0,0,0,8.471,2.766c.14,0,.735.1.735.245,0,.1-.489.244-.63.279a6.073,6.073,0,0,0-2.66,1.891c-.1.14-.49.875-.665.875-.21,0-7.806-3.676-11.236-9.276-.665-1.12-.77-1.225-1.015-1.225s-.315.07-1.085.875a41.6,41.6,0,0,1-10.361,8.156,30.3,30.3,0,0,1-5.5,2.24c-.1,0-.175-.07-.175-.1s3.745-2.346,4.06-2.556c4.726-2.975,9.731-8.33,10.222-10.956.034-.279.07-.384.314-.384.176,0,3.011,1.085,3.186,1.19.105.035.455.174.455.525a2.191,2.191,0,0,1-.14.49C1096.575,2134.267,1099.585,2137.207,1102.525,2138.712ZM1085.654,2130c-2.59,0-3.781.071-4.446.1-.1,0-.63.07-.735.07s-.175-.07-.315-.209l-.665-.806c-.14-.175-.14-.175-.14-.245s.035-.07.1-.07c.245,0,1.33.1,1.54.1,1.715.07,3.186.141,4.831.141h1.015c.735,0,.945-.351.945-.946a5.69,5.69,0,0,0-.28-1.855,5.3,5.3,0,0,1-.21-.7c0-.175.175-.245.385-.245.245,0,1.82.385,2.205.49,1.05.28,1.261.35,1.261.665,0,.21-.036.28-.526.91a.855.855,0,0,0-.245.63c0,.84.28,1.051,1.225,1.051h5.776c.315,0,1.05,0,1.05-.946a14.54,14.54,0,0,0-.105-1.575c-.035-.175-.21-.91-.21-1.05,0-.175.21-.245.385-.245.245,0,2.625.56,3.01.665s.595.245.595.56c0,.21-.14.35-.525.63a1.123,1.123,0,0,0-.455.98c0,.981.56.981,1.12.981h1.786c1.54,0,1.715,0,2.24-.6.98-1.155,1.085-1.295,1.4-1.295.21,0,3.255,1.855,3.255,2.31,0,.49-.7.49-1.855.49h-6.826c-1.085,0-1.085.56-1.085,1.4,0,.21.035,1.4.035,1.575,0,1.3-1.05,1.505-1.785,1.505-.805,0-.945-.14-.945-1.33v-2.415c-.1-.665-.525-.736-1.085-.736h-5.6c-.805,0-1.3,0-1.3.981,0,.35.1,1.89.1,2.2,0,.665-.1.98-.42,1.19a2.485,2.485,0,0,1-1.33.49c-.595,0-.875-.385-.875-1.085,0-.28.035-1.61.035-1.856,0-1.365,0-1.925-1.085-1.925Zm2.485,17.887a17.987,17.987,0,0,1,2.695,1.645.872.872,0,0,1,.28.525c0,.421-.28.491-1.12.7-.1.035-3.115,2.38-3.675,2.8A21.527,21.527,0,0,1,1081,2156.6a.112.112,0,0,1-.105-.105c0-.07,1.856-1.68,2.1-1.925,2.906-2.765,4.691-5.531,5.006-6.651A.211.211,0,0,1,1088.139,2147.883Zm1.61-1.855c-2.73,0-3.745.035-4.445.1-.1,0-.63.07-.735.07s-.175-.07-.315-.21l-.666-.8c-.139-.175-.139-.175-.139-.245,0-.035.034-.07.1-.07.245,0,1.33.1,1.54.1,1.715.1,3.185.14,4.83.14h2.625c.351,0,1.051,0,1.051-.945,0-.42-.21-3.256-.28-3.6,0-.07-.211-.42-.211-.491s.071-.21.351-.21c.245,0,2.7.526,3.045.631.49.1.665.419.665.594,0,.21-.07.281-.6.736-.49.42-.49.63-.49,1.68,0,1.26,0,1.61,1.05,1.61h1.54c1.54,0,1.715,0,2.24-.595.981-1.155,1.086-1.295,1.4-1.295.21,0,3.256,1.89,3.256,2.31,0,.49-.7.49-1.855.49H1097.1c-1.05,0-1.05.63-1.05,1.75,0,2.485,0,3.886.07,5.951.035.595.035,1.435.035,1.855,0,1.12-.28,1.785-1.785,1.785-.77,0-.84-.63-.84-1.225,0-.455.1-2.555.1-3.01.035-1.33.035-2.626.035-4.235a21.2,21.2,0,0,0-.07-2.381c-.175-.49-.736-.49-1.015-.49Zm9.346,2.94c0-.1.175-.14.315-.14,1.295,0,9.276,2.206,9.276,5.111,0,1.12-.63,2-1.505,2-.665,0-.805-.175-1.89-1.785a16.634,16.634,0,0,0-6.021-5.04C1099.235,2149.109,1099.095,2149,1099.095,2148.968Z" fill="#333"/>
      <path id="パス_126" data-name="パス 126" d="M1128.12,2143.683c1.05-.98,1.505-1.435,1.505-1.891a8.9,8.9,0,0,0-.315-1.084,11.263,11.263,0,0,1-.6-4.1c0-.805.175-4.865.175-5.775a3.273,3.273,0,0,0-1.05-2.836c-.735-.77-.84-.875-.84-.98,0-.14.84-.175.945-.175,1.995,0,3.78,1.61,3.78,2.625,0,.315-.42,1.89-.49,2.241a32.946,32.946,0,0,0-.315,4.62c0,1.33,0,4.166.91,4.166.49,0,.7-.14,2.59-1.331.385-.245,2.591-1.645,3.606-1.645a1.344,1.344,0,0,1,1.33,1.3c0,1.049-1.435,1.609-2.7,2.1-8.33,3.361-9.521,5.916-9.521,8.192,0,2.38,2.031,3.255,4.866,3.255a15.653,15.653,0,0,0,4.2-.63,9.536,9.536,0,0,1,2.626-.525c1.19,0,2.31.8,2.31,1.68,0,1.785-7.141,1.96-9,1.96-1.61,0-6.686,0-6.686-5.5A7.933,7.933,0,0,1,1128.12,2143.683Z" fill="#333"/>
      <path id="パス_127" data-name="パス 127" d="M1170.225,2131.256c0,.1.07.246.07.386a26.825,26.825,0,0,1,.35,3.78c0,2.345-.525,5.6-3.6,10.256-2.8,4.27-4.586,5.111-5.986,5.111-2.31,0-4.375-3.606-4.375-7.876a12.331,12.331,0,0,1,3.885-8.926,14.482,14.482,0,0,1,11.166-4.551,11.415,11.415,0,0,1,5.636,1.12,10.974,10.974,0,0,1,6.091,10.186,13.055,13.055,0,0,1-8.821,12.322,21.519,21.519,0,0,1-5.811,1.295c-.14,0-.35-.035-.35-.245,0-.1.07-.14.945-.49,3.64-1.435,11.236-4.446,11.236-13.162,0-1.365-.14-9.7-9.7-9.7C1170.26,2130.766,1170.225,2131.046,1170.225,2131.256ZM1158.849,2142c0,2.276.91,5.391,3.045,5.391,1.015,0,1.856-.42,4.271-4.06a20.023,20.023,0,0,0,3.43-10.186c0-2.1-.14-2.275-.595-2.275C1165.675,2130.872,1158.849,2135.387,1158.849,2142Z" fill="#333"/>
      <path id="パス_128" data-name="パス 128" d="M1204.507,2138.677c-.8,0-.8.07-1.015.91-.245.945-1.855,1.121-1.89,1.121-.77,0-.84-.911-.84-1.366,0-.35.07-1.89.07-2.205,0-1.75,0-6.126-.1-7.736-.035-.525-.07-.875-.07-.945,0-.14,0-.315.14-.315a19.154,19.154,0,0,1,2.38.63c.735.245,1.12.35,1.12.77,0,.316-.14.385-.49.666a.583.583,0,0,0-.28.594c0,.141-.1,3.991-.1,4.026,0,2.625.035,2.94,1.085,2.94h4.481c.91,0,1.05-.525,1.05-1.085,0-1.785,0-6.93-.07-8.331-.035-.42-.245-2.905-.245-2.975,0-.175.035-.21.245-.21a15.7,15.7,0,0,1,2.975.63c.385.1.77.245.77.665,0,.28-.21.49-.805,1.015-.28.28-.28,6.336-.28,7.316,0,.455,0,2.275.07,2.485a.932.932,0,0,0,.98.49h4.376c.945,0,1.05-.49,1.05-1.365V2132.1c0-.56-.28-3.046-.28-3.571,0-.21.034-.315.21-.315.245,0,1.68.42,1.995.49,1.505.386,1.645.42,1.645.84,0,.28-.1.385-.385.7-.28.281-.28.42-.315.841-.07,1.259-.1,1.89-.1,3.115,0,1.295.14,3.36,0,4.621a1.7,1.7,0,0,1-1.786,1.33c-.8,0-.909-.315-1.049-.911-.14-.56-.525-.56-.946-.56h-4.41c-1.05,0-1.05.6-1.05,1.19,0,5.041-.035,10.467.035,12.322,0,.385.1.875,1.05.875h7.771c.98,0,.98-.595.98-1.19,0-.911.1-4.971.1-5.776,0-.56-.14-2.975-.14-3.465,0-.28,0-.315.245-.315a16.642,16.642,0,0,1,2.59.665c.84.28,1.05.35,1.05.77,0,.315-.14.385-.455.63-.455.315-.49.455-.56,1.785-.035,1.015-.035,3.22-.035,4.306,0,.7.1,3.64.1,4.235a1.993,1.993,0,0,1-2.03,1.89c-.945,0-.945-.315-.945-1.645,0-.945-.665-.945-1.05-.945h-19.567c-1.015,0-1.015.665-1.015,1.05,0,1.085-.455,2.135-1.82,2.135-.946,0-.946-1.4-.946-2.1,0-.385.035-2.7.035-3.151,0-2.694-.14-5.46-.245-7.385-.035-.245-.14-1.3-.14-1.435,0-.1,0-.246.14-.246a12.719,12.719,0,0,1,1.75.421c1.891.7,2.066.7,2.066,1.19,0,.245-.245.455-.7.875a1.028,1.028,0,0,0-.245.595c-.035.63-.035,2.38-.035,3.08,0,4.026.105,4.026,1.085,4.026h7.211c1.015,0,1.084-.525,1.084-1.33v-11.272c0-1.365.036-1.785-1.014-1.785Z" fill="#333"/>
      <path id="パス_129" data-name="パス 129" d="M1237.57,2140.742c0-.139.106-.21.526-.49.245-.175,3.115-2.2,5.39-4.13,5.986-5.111,8.191-9.276,8.366-10.046.28-1.085.28-1.225.7-1.225.035,0,3.29,1.54,3.29,2.135,0,.175-.069.21-.42.455-.21.1-.245.21-.245.35,0,1.085,6.2,8.856,14.492,11.2.98.281.98.281.98.455,0,.21-.105.246-.98.525a4.1,4.1,0,0,0-2.24,1.436c-.14.244-.245.349-.455.349-.771,0-8.226-5.145-12.182-12.356-.385-.735-.455-.84-.595-.84s-.7.7-.98,1.05c-6.2,7.771-14.071,10.992-15.331,11.236C1237.781,2140.882,1237.57,2140.917,1237.57,2140.742Zm9.627,4.8c-2.591,0-3.466.035-4.411.1-.1,0-.63.07-.735.07-.14,0-.175-.07-.315-.21l-.665-.8c-.07-.1-.175-.21-.175-.245,0-.07.07-.07.14-.07.245,0,1.33.1,1.54.1,1.715.07,3.57.14,4.8.14h11.551c1.47,0,1.855,0,2.7-1.155.525-.735.665-.945.98-.945.28,0,.385.07,1.19.735,1.785,1.47,1.785,1.505,1.785,1.82,0,.455-.174.455-1.82.455h-10.711c-.35,0-.49,0-.49.1,0,0,1.645,1.4,1.645,1.785,0,.315,0,.315-1.05.595-.28.106-.35.211-1.225,1.365-.735.981-2.17,2.7-2.38,2.906-.14.175-.49.525-.49.84s.49.35.63.35c.455,0,3.745-.21,7.631-.595,2.52-.245,2.8-.28,2.8-.63,0-.525-2.065-2.311-2.065-2.731,0-.174.14-.21.245-.21a32.551,32.551,0,0,1,4.445,2.171c.945.559,3.116,1.82,3.116,4.025,0,1.12-.7,1.89-1.366,1.89-1.015,0-1.75-1.3-2.38-2.45-.665-1.19-.98-1.3-1.47-1.3a153.281,153.281,0,0,0-16.242,3.22,7.31,7.31,0,0,1-1.015.56.4.4,0,0,1-.35-.245,27.654,27.654,0,0,1-1.925-3.71c0-.245.175-.245.28-.245.245,0,1.33.21,1.54.245a18.53,18.53,0,0,0,2.065.14c1.961,0,2.206,0,3.641-2.87a24.51,24.51,0,0,0,1.82-4.621c0-.595-.455-.595-1.05-.595Zm7.28-6.511c1.715,0,1.785-.07,2.485-.91.561-.665.981-1.19,1.156-1.19a9.492,9.492,0,0,1,2.66,2.625c0,.386-.175.386-1.855.386h-8.051c-2.135,0-3.151,0-4.446.1-.1,0-.63.07-.734.07s-.176-.07-.316-.21l-.665-.805c-.14-.14-.14-.175-.14-.245,0-.034.035-.07.1-.07.245,0,1.33.1,1.54.1,1.716.1,3.4.14,4.8.14Z" fill="#333"/>
      <path id="パス_130" data-name="パス 130" d="M1287.761,2135.317a4.758,4.758,0,0,1-.42,1.4,12.363,12.363,0,0,0-.84,4.516c0,3.535,1.82,6.09,2.906,6.09.595,0,.735-.175,1.785-1.925.21-.35.8-1.19,1.085-1.19.1,0,.175.14.175.28a4.209,4.209,0,0,1-.1.7,9.822,9.822,0,0,0-.455,2.66,4.728,4.728,0,0,0,.21,1.4,8.771,8.771,0,0,1,.28,1.154c0,.7-.735,1.086-1.33,1.086-2.24,0-6.651-3.676-6.651-10.362,0-.979.49-5.285.49-6.2a9.747,9.747,0,0,0-.245-2.031,4.736,4.736,0,0,1-.28-1.189c0-.1.14-.141.21-.141C1286.186,2131.571,1287.761,2134.372,1287.761,2135.317Zm17.082.805a8.711,8.711,0,0,1,3.115,6.686c0,.665-.069,2.31-1.75,2.31-1.715,0-1.715-1.89-1.715-2.345,0-2.906,0-4.376-1.855-6.231-.28-.28-1.68-1.365-1.68-1.575,0-.1.14-.175.315-.175A6.812,6.812,0,0,1,1304.843,2136.122Z" fill="#333"/>
    </g>
  </g>
</svg>
