<?xml version="1.0" encoding="utf-8"?>
<!-- Generator: Adobe Illustrator 26.0.1, SVG Export Plug-In . SVG Version: 6.00 Build 0)  -->
<svg version="1.1" id="レイヤー_1" xmlns="http://www.w3.org/2000/svg" xmlns:xlink="http://www.w3.org/1999/xlink" x="0px"
	 y="0px" viewBox="0 0 382.7 192.5" style="enable-background:new 0 0 382.7 192.5;" xml:space="preserve">
<style type="text/css">
	.st0{fill:#333333;}
	.st1{fill:#D9D9D9;}
	.st2{enable-background:new    ;}
</style>
<g id="レイヤー_2_00000029042223778904804960000008232309501603105188_">
	<g id="レイヤー_1-2">
		<path class="st0" d="M10.8,89.5c-0.5-0.1-1.1,0-1.6,0.3C9,90.1,6.6,92.6,6,93.1c-2.7,2.5-3.7,2.7-3.9,2.7c0.4-0.5,1-1.2,1.3-1.6
			C9,87.3,9.7,83.9,9.7,83.8c0-0.5,0-0.6,0.3-0.6c0.6,0,3.2,1.7,3.2,2.4c0,0.3-0.1,0.3-0.9,0.8c-0.6,0.6-1.2,1.2-1.6,1.9
			c0,0.3,0.3,0.3,0.6,0.3H26c1.5,0,1.9,0,2.3-0.6c0.9-1.5,1-1.7,1.5-1.7s3,2.3,3,2.7s-0.7,0.5-1.9,0.5L10.8,89.5z M27.4,111.3
			c-0.8,0-0.8,0.1-1.4,1.5c-1.3,3.3-3.9,3.4-4.2,3.4c-0.8,0-1-0.5-1.2-1.1c-0.2-0.8-0.8-1.4-1.5-1.7c-0.2-0.1-1.5-0.4-1.5-0.7
			s0.1-0.1,0.3-0.1c0.3,0,2.7,0.2,3.2,0.2c1.7,0,2-0.3,2.2-0.5s0.3-0.5,0.4-0.8c0-0.3-0.2-0.4-0.5-0.4H9.9c-0.6,0-1,0-1.2,0.5
			c-0.1,0.8-0.9,1.4-1.8,1.3c-0.5,0-1-0.2-1-0.8c0-0.2,0.9-3.7,1.2-5c0.1-0.5,0.6-3.8,0.6-4.1c0-0.7-0.5-0.7-0.8-0.7s-2,0-2.7,0.1
			c-0.1,0-0.7,0.1-0.8,0.1s-0.2-0.1-0.3-0.2l-0.7-0.8c-0.1-0.2-0.2-0.2-0.2-0.2s0.1-0.1,0.2-0.1c0.7,0,4.2,0.2,5,0.2
			c0.6,0,0.6-0.2,0.8-1.4C8.7,97.9,9,95.5,9,93.1c0-0.1,0-0.4,0.2-0.4c0.5,0.2,1,0.4,1.4,0.7c0.5,0.5,1.3,0.8,2,0.8H25
			c0.4,0,0.8-0.2,1-0.5c0.5-0.9,0.6-1,0.9-1c0.6,0,2.8,1.9,2.8,2.6c0,0.2-0.1,0.4-0.3,0.5c-0.7,0.3-0.8,0.4-0.9,0.7
			c-0.2,1.5-0.4,3.1-0.4,4.7c0,0.5,0.3,0.6,0.9,0.6c0.9,0,1.3-0.1,1.5-0.6c0.8-1.2,0.9-1.3,1.2-1.3c0.3,0,3,1.8,3,2.4
			s-0.7,0.5-1.9,0.5H29c-0.5,0-1,0-1.1,0.5c0,0.1-0.5,4-0.6,4.7s-0.3,2-0.3,2.1c0,0.4,0.3,0.4,0.5,0.4c0.3,0,0.7-0.1,0.9-0.3
			c0.3-0.3,1.3-2,1.8-2s2.7,2.1,2.7,2.7s-0.7,0.5-1.9,0.5L27.4,111.3z M14.5,110.4c0.6,0,0.8-0.1,1-0.8c0-0.2,0.8-5.9,0.8-6.2
			c0-0.8-0.6-0.8-1-0.8h-4c-0.9,0-1.1,0.4-1.1,0.9s-1,6-1,6.2c0,0.7,0.5,0.7,1.1,0.7C10.3,110.4,14.5,110.4,14.5,110.4z M12.5,95.1
			c-0.8,0-1.1,0.2-1.2,1s-0.6,4.6-0.6,4.8c0,0.7,0.4,0.8,1.1,0.8h3.9c0.7,0,1-0.2,1.1-0.9s0.6-4.9,0.6-5c0-0.7-0.5-0.7-1-0.7
			C16.4,95.1,12.5,95.1,12.5,95.1z M23.1,110.4c0.7,0,1,0,1.2-0.9c0.4-2,0.7-4,0.9-6c0-0.8-0.4-0.8-1-0.8h-3.8c-0.6,0-1,0-1.1,0.9
			c-0.1,0.4-0.8,5.9-0.8,6.1c0,0.8,0.5,0.8,1.1,0.8L23.1,110.4z M21.2,95.1c-0.5,0-0.9,0-1.1,0.8c-0.1,0.5-0.6,4.7-0.6,5
			c0,0.8,0.5,0.8,1.1,0.8h3.7c0.4,0,1,0,1.1-0.8s0.4-4.5,0.4-5c0-0.8-0.5-0.8-1.2-0.8H21.2z"/>
		<path class="st0" d="M49,102.3c-1,0-1,0.1-1.2,1.9c-1,8.7-6.5,11.9-6.7,11.9s-0.2-0.1-0.2-0.2c0.2-0.4,0.5-0.8,0.8-1.1
			c3.9-5.7,3.9-14.3,3.9-20c0-3.2-0.1-6.3-0.5-9.5c0-0.1-0.2-1.3-0.2-1.4s0-0.2,0.1-0.2c0.9,0.3,1.8,0.7,2.6,1.2
			c0.6,0.4,1.3,0.5,1.9,0.5h10.3c0.8,0,1.1-0.1,1.5-0.6c0.8-1,0.9-1.1,1.1-1.1s2.8,1.9,2.8,2.3c0,0.1-0.1,0.2-0.2,0.3
			c-0.7,0.5-0.8,0.6-1,1s-0.2,1-0.2,5.4c0,4.2,0,8.6,0.2,12.8c0,0.9,0.2,5.7,0.2,6.7c0.1,0.8-0.2,1.6-0.7,2.2
			c-0.7,0.7-1.6,1.2-2.6,1.4c-0.5,0-0.6-0.2-0.8-0.6c-0.7-1.5-2.6-2.5-4.3-3c-0.7-0.1-0.9-0.2-0.9-0.5s0.2-0.2,0.4-0.2
			s4,0.3,4.4,0.3c1.1,0,1.3-0.2,1.3-1.1c0-1.1,0-6.2,0-7.4c0-1-0.4-1.2-1.2-1.2L49,102.3z M49.3,94.1c-0.3,0-1,0-1.1,0.7
			c-0.1,0.3-0.1,3.2-0.1,4.6s0,2,1.1,2h10.9c1.1,0,1.1,0,1.1-3.6c0-3.7,0-3.7-1.1-3.7H49.3z M49.3,86.4c-0.8,0-1.1,0.2-1.1,1.1v4.4
			c0,0.7,0,1.2,1.1,1.2h10.8c0.4,0.1,0.8-0.1,1-0.5c0.1-1.2,0.1-2.3,0.1-3.5c0-2.5,0-2.8-1.1-2.8H49.3V86.4z"/>
		<path class="st0" d="M74.8,113.6c-0.2,0-1,0-1-0.5c0-1.9,2.3-4.7,3.1-5.7c8.5-10.1,9.2-11,9.2-14.5c0.1-2.7-1.9-4.9-4.5-5.1
			c-0.1,0-0.2,0-0.3,0c-2.2,0-4,1.5-4,3c0,0.4,0.1,0.8,0.4,1.1c0.4,0.5,0.7,1.1,0.8,1.7c0,1.1-0.9,2-1.9,2c-1.2-0.1-2.1-1.1-2.1-2.4
			v-0.1c0-3.1,3.2-6.5,7.7-6.5c3.9,0,7.2,2.5,7.2,6.8c0,3.7-2.3,5.8-5.3,8.3c-5.4,4.5-7.4,7.9-7.4,8.6s1.2,0.5,1.3,0.5h3.7
			c3.6,0,5.7-1,6.7-3.4c0.6-1.3,0.6-1.4,0.8-1.4c0.4,0,0.4,0.4,0.4,0.5c0,0.3-1.2,4.9-1.3,5.7c-0.3,0.9-1.2,1.5-2.2,1.3L74.8,113.6z
			"/>
		<path class="st0" d="M96.8,95.9c0-0.3,0.2-0.5,0.4-0.6h0.1c0.4,0,1.9,0.4,2.2,0.4c0.9,0,1.4-0.2,5.8-2C107,93,112,91,115.4,91
			c5-0.1,9.1,3.8,9.2,8.8c0,0,0,0,0,0.1c0,6.6-6.7,10.4-14.4,10.4c-0.3,0-0.9,0-0.9-0.5c0-0.3,0.1-0.3,1.5-0.5
			c8.9-1.3,11.1-7.6,11.1-10.8c0.1-3.2-2.5-5.9-5.7-6h-0.1c-3.4,0-8.6,2.7-11.7,4.9c-1.8,1.2-2.3,1.5-3.3,1.5
			C98.8,99,96.8,96.9,96.8,95.9z"/>
		<path class="st0" d="M148.1,89.6c0,0.1,0.1,0.3,0.1,0.4c0.2,1.3,0.3,2.6,0.4,3.9c0,2.4-0.5,5.8-3.7,10.5c-2.9,4.4-4.7,5.3-6.1,5.3
			c-2.4,0-4.5-3.7-4.5-8.1c0-3.5,1.5-6.8,4-9.2c3-3.2,7.2-4.9,11.5-4.7c2-0.1,4,0.3,5.8,1.2c4,2,6.4,6.1,6.3,10.5
			c0,5.7-3.7,10.8-9.1,12.6c-1.9,0.7-3.9,1.2-6,1.3c-0.1,0-0.4,0-0.4-0.2s0.1-0.1,1-0.5c3.7-1.5,11.6-4.6,11.6-13.5
			c0-1.4-0.1-10-10-10C148.1,89.1,148.1,89.4,148.1,89.6z M136.4,100.6c0,2.3,0.9,5.5,3.1,5.5c1,0,1.9-0.4,4.4-4.2
			c2.1-3.1,3.3-6.7,3.5-10.5c0-2.2-0.1-2.3-0.6-2.3C143.4,89.2,136.4,93.8,136.4,100.6z"/>
		<path class="st0" d="M184.2,94c0,1.2-2.7,2.3-3.6,2.6c-0.5,0.2-0.5,0.3-0.6,1.6c-0.1,0.8-0.1,3.7-0.1,3.9s0,0.7,0.3,0.7
			c0.1,0,3.1-1.2,3.6-1.4c3.6-1.3,5.2-1.4,6.1-1.4c3,0,5.5,2.4,5.5,5.4c0,4.8-5,6.9-7.9,6.9c-2.1,0-3.7-1-3.7-2.9
			c0-1.2,0.7-2.3,1.8-2.8c0.1,0,0.2,0.1,0.2,0.2s-0.1,0.2-0.1,0.3c-0.2,0.3-0.3,0.6-0.3,1c0,1.7,2,1.7,2.3,1.7
			c2.4,0,5.4-1.6,5.4-4.5c0.2-2.1-1.4-3.8-3.4-4l0,0c-1,0-3.2,0.5-7.4,2.7c-2,1.1-2.2,1.2-2.2,1.8c0,0.4,0.1,2,0.1,2.4
			c0,1.7-0.5,4-1.8,4c-1,0-1.4-0.8-1.6-1.3c-1.1-2.2-1.3-2.2-1.8-2.2c-0.3,0-0.6,0.1-0.9,0.2c-0.4,0.3-0.9,0.5-1.4,0.7
			c-0.4,0-2.2-1.1-2.2-2.3c0-0.7,0.4-1.4,1-1.4c0.2,0,1.3,0.2,1.5,0.2c1,0,1.6-0.2,3.7-1.2c1.8-0.9,2.1-1,2.1-2c0-0.8,0-3.9-0.1-4.5
			c0-0.2-0.1-0.8-0.5-0.8c-0.6,0.1-1.1,0.2-1.7,0.3c-0.8,0.4-1.7,0.6-2.6,0.7c-1.2,0-2.6-2.5-2.6-2.7c0-0.1,0.1-0.3,0.3-0.3l0,0
			c0.1,0,0.5,0.2,0.6,0.2c0.5,0.1,1.1,0.2,1.7,0.2c1.6-0.1,3.1-0.5,4.6-1.1c0.2-1.3,0.3-2.6,0.4-3.9c0.1-1.1-0.4-2.2-1.2-2.9
			c-0.2-0.2-0.4-0.4-0.5-0.6c0-0.3,0.6-0.4,0.8-0.4c2.4,0,3.7,1.8,3.7,2.4c-0.2,0.6-0.5,1.3-0.8,1.9c-0.2,0.8-0.3,1.6-0.4,2.3
			c0,0.1,0.1,0.4,0.3,0.4s1.3-0.4,1.3-0.9c0-0.1-0.2-0.4-0.2-0.5s0.1-0.1,0.1-0.1C182.4,92.4,184.2,92.9,184.2,94z M176,107.8
			c0,0.5,1,1.7,1.5,1.7s1-1,1-2.8c0-0.1,0-0.5-0.1-0.6S176,107.3,176,107.8z M199.6,96.6c0,0.8-0.4,1.7-1.2,1.7
			c-0.2,0-1.1-0.1-1.2-0.1s-0.9,0.3-1.1,0.3c-0.1,0-0.2-0.1-0.2-0.2l0,0c0-0.1,0.1-0.2,0.1-0.3c0.1-0.2,0.1-0.4,0.1-0.7
			c0-1.4-1.8-1.9-3-1.9c-0.5,0-1,0.1-1.4,0.4c-0.1,0.1-0.2,0.1-0.4,0.1c-0.1,0-0.1,0-0.1-0.1c0.8-1.4,2.3-2.2,3.9-2.3
			C197.9,93.5,199.6,94.9,199.6,96.6L199.6,96.6z"/>
		<path class="st0" d="M229.4,97.3c2.7,1.4,5.7,2.3,8.7,2.8c0.1,0,0.8,0.1,0.8,0.2s-0.5,0.2-0.6,0.3c-1.1,0.4-2,1.1-2.7,1.9
			c-0.1,0.1-0.5,0.9-0.7,0.9s-8-3.8-11.6-9.5c-0.7-1.2-0.8-1.3-1-1.3s-0.3,0.1-1.1,0.9c-3.1,3.4-6.7,6.2-10.7,8.4
			c-1.8,0.9-3.7,1.7-5.6,2.3c-0.1,0-0.2-0.1-0.2-0.1s3.9-2.4,4.2-2.6c4.9-3.1,10-8.6,10.5-11.3c0-0.3,0.1-0.4,0.3-0.4
			s3.1,1.1,3.3,1.2c0.3,0.1,0.4,0.3,0.5,0.5c0,0.2-0.1,0.3-0.1,0.5C223.2,92.7,226.3,95.7,229.4,97.3z M212,88.3
			c-2.7,0-3.9,0.1-4.6,0.1c-0.1,0-0.6,0.1-0.8,0.1s-0.2-0.1-0.3-0.2l-0.7-0.8c-0.1-0.2-0.1-0.2-0.1-0.2s0-0.1,0.1-0.1
			c0.2,0,1.4,0.1,1.6,0.1c1.8,0.1,3.3,0.1,5,0.1h1c0.8,0,1-0.4,1-1s-0.1-1.3-0.3-1.9c-0.1-0.2-0.2-0.5-0.2-0.7s0.2-0.2,0.4-0.2
			s1.9,0.4,2.3,0.5c1.1,0.3,1.3,0.4,1.3,0.7s0,0.3-0.5,0.9c-0.2,0.2-0.3,0.4-0.2,0.6c0,0.9,0.3,1.1,1.3,1.1h5.9c0.3,0,1.1,0,1.1-1
			c0-0.5,0-1.1-0.1-1.6c0-0.2-0.2-0.9-0.2-1.1s0.2-0.2,0.4-0.2s2.7,0.6,3.1,0.7s0.6,0.3,0.6,0.6s-0.1,0.4-0.5,0.7
			c-0.3,0.2-0.5,0.6-0.5,1c0,1,0.6,1,1.1,1h1.8c1.6,0,1.8,0,2.3-0.6c1-1.2,1.1-1.3,1.4-1.3s3.4,2,3.4,2.4s-0.7,0.5-1.9,0.5h-7
			c-1.1,0-1.1,0.6-1.1,1.4c0,0.2,0,1.4,0,1.6c0,1.3-1.1,1.6-1.8,1.6s-1-0.2-1-1.4v-2.5c-0.1-0.7-0.5-0.8-1.1-0.8h-5.8
			c-0.8,0-1.3,0-1.3,1c0,0.4,0.1,1.9,0.1,2.3c0,0.7-0.1,1-0.4,1.2c-0.4,0.3-0.9,0.5-1.4,0.5c-0.6,0-0.9-0.4-0.9-1.1
			c0-0.3,0-1.7,0-1.9c0-1.4,0-2-1.1-2L212,88.3z M214.6,106.7c1,0.5,1.9,1,2.8,1.7c0.2,0.1,0.3,0.3,0.3,0.5c0,0.4-0.3,0.5-1.1,0.7
			c-0.1,0-3.2,2.4-3.8,2.9c-1.7,1.3-3.5,2.4-5.5,3.1c-0.1,0-0.1-0.1-0.1-0.1c0-0.1,1.9-1.7,2.2-2c3-2.8,4.8-5.7,5.1-6.8
			C214.5,106.7,214.5,106.7,214.6,106.7L214.6,106.7z M216.2,104.8c-2.8,0-3.9,0-4.6,0.1c-0.1,0-0.6,0.1-0.8,0.1s-0.2-0.1-0.3-0.2
			l-0.7-0.8c-0.1-0.2-0.1-0.2-0.1-0.2s0-0.1,0.1-0.1c0.2,0,1.4,0.1,1.6,0.1c1.8,0.1,3.3,0.2,5,0.2h2.7c0.4,0,1.1,0,1.1-1
			c0-0.4-0.2-3.3-0.3-3.7c0-0.1-0.2-0.4-0.2-0.5s0.1-0.2,0.4-0.2s2.8,0.5,3.1,0.7s0.7,0.4,0.7,0.6s-0.1,0.3-0.6,0.8
			s-0.5,0.6-0.5,1.7c0,1.3,0,1.7,1.1,1.7h1.6c1.6,0,1.8,0,2.3-0.6c1-1.2,1.1-1.3,1.4-1.3s3.4,1.9,3.4,2.4s-0.7,0.5-1.9,0.5h-6.8
			c-1.1,0-1.1,0.7-1.1,1.8c0,2.6,0,4,0.1,6.1c0,0.6,0,1.5,0,1.9c0,1.2-0.3,1.8-1.8,1.8c-0.8,0-0.9-0.7-0.9-1.3s0.1-2.6,0.1-3.1
			c0-1.4,0-2.7,0-4.3c0-0.8,0-1.6-0.1-2.4c-0.2-0.5-0.8-0.5-1-0.5L216.2,104.8z M225.8,107.8c0-0.1,0.2-0.2,0.3-0.2
			c1.3,0,9.5,2.3,9.5,5.3c0,1.2-0.6,2-1.5,2c-0.7,0-0.8-0.2-2-1.8c-1.6-2.1-3.7-3.9-6.1-5.1C226,108,225.8,107.8,225.8,107.8
			L225.8,107.8z"/>
		<path class="st0" d="M247.6,102.6c0-1.1,1-2.2,3.4-5.1c1.3-1.6,2.4-3.4,3.1-5.4c0-0.2-0.2-0.3-0.4-0.3c-0.4,0-1.8,0.3-2.2,0.3
			c-1.6-0.2-2.9-1.5-3.2-3.2c0-0.1,0-0.2,0.2-0.2c0.5,0.2,0.9,0.4,1.4,0.7c0.7,0.4,1.5,0.6,2.4,0.6c2.9,0,2.9-1,2.9-1.7
			c0-0.4-0.1-0.9-0.3-1.3c-0.1-0.2-0.9-0.8-0.9-1s0.9-0.6,1.6-0.6c0.9,0,1.8,0.3,1.8,1.1c0,0.5,0.2,0.5,1.6,0.7
			c0.2,0,1.6,0.2,1.6,0.9c0,1.2-2.6,2.2-4.3,2.8c-0.5,0.2-0.6,0.3-1.4,2.1c-0.6,1.3-1.2,2.6-2,3.9c-0.2,0.3-0.2,0.4-0.2,0.6
			c0,0.1,0.1,0.1,0.1,0.2l0,0c0.4-0.1,0.8-0.2,1.1-0.4c0.4-0.2,0.9-0.3,1.4-0.3c1.4,0,2.6,0.9,3.1,2.2c0.2,0.6,0.3,0.7,0.4,0.7
			c0.5-0.6,1-1.3,1.5-1.9c1.2-1.7,3.5-4.9,6.7-4.9c1.8,0,3.3,1.4,3.4,3.2c0,1.7-2.8,2.9-5.1,3.8c-0.9,0.4-5,2-5.6,2.4
			s-0.6,0.8-0.6,1.5c0,0.3,0.1,1.8,0.1,2.2c0,0.6,0,2.6-1.3,2.6c-1,0-1.1-1.2-1.1-1.8c0-0.4,0.1-2.1,0.1-2.1s0-0.4-0.2-0.4
			s-3.5,2.2-3.5,4.3c0,2.5,3.6,2.5,4.6,2.5c0.8,0,1.6-0.1,2.3-0.2c0.5-0.1,2.8-0.6,3.3-0.6c0.8,0,1.8,0.4,1.8,1.2
			c0,2.2-5.6,2.4-6.5,2.4c-4.6,0-7-1.9-7-4.7c0-2.3,1.4-3.5,4.8-6.2c0.4-0.3,0.6-0.8,0.5-1.3c0-1.6-0.3-3.6-1.7-3.6
			s-3.5,1.7-4.4,3.8c-0.4,0.9-0.8,1.8-2,1.8C248.2,103.8,247.6,103.6,247.6,102.6z M256.7,89c0.1,0,1.8-0.5,1.8-0.9
			s-0.9-0.5-1.2-0.5c-0.5,0-0.6,1-0.6,1.2S256.7,89,256.7,89z M260,100.7c0,0.1,0,0.2,0.1,0.2s7.2-2.9,7.2-5.2
			c0-0.6-0.5-1.1-1.1-1.1h-0.1C263.1,94.5,260,100.1,260,100.7z"/>
		<path class="st0" d="M294.3,94c0,1.2-2.6,2.3-3.5,2.6c-0.5,0.2-0.5,0.3-0.6,1.6c-0.1,0.8-0.1,3.7-0.1,3.9s0,0.7,0.3,0.7
			c0.1,0,3-1.2,3.5-1.4c3.5-1.3,5.1-1.4,6-1.4c2.9,0,5.4,2.4,5.4,5.4c0,4.8-4.9,6.9-7.8,6.9c-2,0-3.6-1-3.6-2.9
			c0-1.2,0.7-2.3,1.8-2.8c0.1,0,0.2,0.1,0.2,0.2s-0.1,0.2-0.1,0.3c-0.2,0.3-0.3,0.6-0.3,1c0,1.7,2,1.7,2.2,1.7
			c2.3,0,5.3-1.6,5.3-4.5c0.2-2.1-1.4-3.8-3.3-4l0,0c-1,0-3.1,0.5-7.3,2.7c-2,1.1-2.1,1.2-2.1,1.8c0,0.4,0.1,2,0.1,2.4
			c0,1.7-0.5,4-1.8,4c-1,0-1.4-0.8-1.6-1.3c-1.2-2.2-1.3-2.2-1.8-2.2c-0.3,0-0.6,0.1-0.9,0.2c-0.4,0.3-0.9,0.5-1.4,0.7
			c-0.4,0-2.1-1.1-2.1-2.3c0-0.7,0.4-1.4,1-1.4c0.2,0,1.3,0.2,1.5,0.2c1,0,1.6-0.2,3.6-1.2c1.8-0.9,2-1,2-2c0-0.8,0-3.9-0.1-4.5
			c0-0.2-0.1-0.8-0.5-0.8c-0.6,0-1.1,0.2-1.7,0.3c-0.8,0.4-1.7,0.6-2.5,0.7c-1.2,0-2.5-2.5-2.5-2.7c0-0.1,0.1-0.3,0.3-0.3l0,0
			c0.1,0,0.5,0.2,0.6,0.2c0.5,0.1,1.1,0.2,1.6,0.2c1.6-0.1,3-0.5,4.5-1.1c0.2-1.3,0.3-2.6,0.4-3.9c0.1-1.1-0.4-2.2-1.2-2.9
			c-0.2-0.2-0.4-0.4-0.5-0.6c0-0.3,0.6-0.4,0.8-0.4c2.3,0,3.6,1.8,3.6,2.4c-0.2,0.6-0.5,1.3-0.8,1.9c-0.2,0.8-0.3,1.6-0.4,2.3
			c0,0.1,0.1,0.4,0.3,0.4s1.3-0.4,1.3-0.9c0-0.1-0.2-0.4-0.2-0.5s0.1-0.1,0.1-0.1C292.6,92.4,294.3,92.9,294.3,94z M286.3,107.8
			c0,0.5,1,1.7,1.5,1.7s1-1,1-2.8c0-0.1,0-0.5-0.1-0.6S286.3,107.3,286.3,107.8L286.3,107.8z M309.4,96.6c0,0.8-0.4,1.7-1.2,1.7
			c-0.2,0-1-0.1-1.2-0.1s-0.9,0.3-1.1,0.3c-0.1,0-0.2-0.1-0.2-0.2l0,0c0-0.1,0.1-0.2,0.1-0.3c0.1-0.2,0.1-0.4,0.1-0.7
			c0-1.4-1.8-1.9-2.9-1.9c-0.5,0-1,0.1-1.4,0.4c-0.1,0.1-0.2,0.1-0.4,0.1c-0.1,0-0.1,0-0.1-0.1c0.8-1.4,2.2-2.2,3.8-2.3
			C307.7,93.5,309.4,94.9,309.4,96.6L309.4,96.6z"/>
		<path class="st0" d="M341.1,99.3c0.5,0.1,1-0.1,1.4-0.5c0.6-0.7,0.7-0.8,0.9-0.8s3,1.3,3,2c0,0.3-0.2,0.4-0.5,0.6
			c-0.4,0.2-0.6,0.4-0.8,0.6s-0.1,5.3-0.1,5.7c0,0.5,0.1,5,0.1,6c0,0.2,0.1,1.1,0.1,1.3c0,1-0.8,1.9-1.8,1.9s-1-0.7-1-1.5
			c0-1.1-0.7-1.1-1.1-1.1h-13.8c-1.1,0-1.1,0.6-1.2,1.3s-1.3,1.5-1.9,1.5c-1,0-1-0.7-1-0.9c0-0.4,0.1-1.7,0.1-2.2
			c0.1-1.2,0.1-10.7,0.1-12.8c0-0.3-0.3-2-0.3-2.2s0.2-0.3,0.4-0.3c0.6,0.2,1.2,0.5,1.8,0.8c0.7,0.4,1.5,0.6,2.4,0.6h3.6
			c1,0,1-0.5,1-1.6c0-1.4-0.1-2.9-0.3-4.3c-0.2-0.6-0.5-0.6-0.8-0.6h-9c-0.7,0-1.2,0-1.2,1c-0.2,5.4-0.3,8.2-1.4,12.6
			c-0.8,3.3-2.5,6.3-5,8.6c-0.1,0-0.1-0.1-0.1-0.1s0.6-1.2,0.8-1.4c3.1-6.3,3.1-14.2,3.1-19.5c0.1-2.4,0-4.8-0.3-7.2
			c0-0.4-0.4-1.9-0.4-2.3c0-0.2,0.1-0.4,0.3-0.4h0.1c0,0,2.2,1.2,2.3,1.3c0.6,0.3,1.3,0.5,2,0.4h18c0.5,0.1,1-0.1,1.4-0.5
			s0.5-0.5,0.7-0.5c0.4,0,2.8,1.6,2.8,2.1c0,0.2-0.2,0.4-0.4,0.5c-0.2,0.2-0.4,0.4-0.6,0.6c0,0.1,0,4,0,4.3s0,2.2-1.9,2.2
			c-0.8,0-0.9-0.5-1-1c-0.1-0.7-0.7-0.7-1-0.7h-5.4c-0.4,0-0.4,0-0.4,0.1s0.1,0.2,0.5,0.3c0.2,0,0.6,0.2,0.6,0.5
			c-0.2,0.3-0.4,0.7-0.6,1c-0.2,1-0.3,2.1-0.2,3.1c0,1,0.1,1.4,1.1,1.4L341.1,99.3z M322.6,86.9c-1.2,0-1.2,0.2-1.2,2.6
			s0,2.5,1.2,2.5h18.2c1.2,0,1.2-0.1,1.2-3.6c0-1,0-1.5-1.2-1.5H322.6z M331.6,105.5c1.1,0,1.1-0.2,1.1-2.7c0-2,0-2.5-1.1-2.5h-4.3
			c-1.1,0-1.1,0.5-1.1,1.9c0,3.1,0.1,3.3,1.1,3.3C327.3,105.5,331.6,105.5,331.6,105.5z M331.6,112.5c1,0,1-0.3,1-2.8
			c0-2.8,0-3.2-1-3.2h-4.2c-1,0-1,0.5-1,1.6c0,4.4,0.1,4.4,1.1,4.4H331.6z M336.3,100.3c-1.1,0-1.1,0.3-1.1,2.4c0,2.5,0,2.8,1.1,2.8
			h5.2c1.1,0,1.1-0.3,1.1-2.4c0-2.6,0-2.8-1.1-2.8H336.3z M336.3,106.5c-0.3,0-0.6,0-0.9,0.2c-0.2,0.2-0.2,0.6-0.2,3.6
			c0,1.8,0,2.2,1.1,2.2h5.1c1,0,1.2,0,1.2-4.1c0-1.5,0-1.9-1.1-1.9C341.5,106.5,336.3,106.5,336.3,106.5z"/>
		<path class="st0" d="M360.5,92.1c-0.3,1.3-0.8,2.6-1.3,3.8c-0.7,2.2-1.1,4.5-1.2,6.8c0,1.6,0.4,3.7,0.8,3.7c0.8,0,2.6-6.4,3.2-6.4
			c0.1,0,0.1,0.2,0.1,0.3c0,0.3-0.7,3.4-0.9,4.1c-0.4,1.6-0.6,3.1-0.7,4.7c0,0.6,0.1,1.1,0.4,1.6c0.2,0.4,0.4,0.9,0.4,1.4
			c0,0.6-0.6,1.1-1.2,1.1l0,0c-1.4,0-2.3-2-2.9-4c-0.7-1.9-1-4-1-6c0.1-2.7,0.4-5.4,0.9-8.1c0.3-1.3,0.4-2.6,0.4-3.9
			c0-0.8-0.1-1.7-0.4-2.4c-0.1-0.2-0.2-0.5-0.2-0.7c0-0.1,0-0.3,0.3-0.3C358.4,87.5,360.5,89.9,360.5,92.1z M376.4,96.7
			c0,7.4-0.3,10.4-2.2,13.4s-4.9,4.5-5.4,4.5c-0.1,0-0.2,0-0.2-0.1s1.8-2,2-2.4c3.1-4.1,3.4-7.6,3.4-14.4c0-1.2-0.1-1.4-0.6-1.4
			c-0.4,0-1.9,0.1-2.2,0.1c-3.5,0-5.1-1.7-5.1-2.5c0-0.1,0-0.2,0.1-0.2c0.3,0.1,0.6,0.1,0.8,0.2c0.8,0.1,1.5,0.2,2.3,0.2
			c0.5,0,3.2,0,4.2-0.7c0.2-0.2,0.3-0.3,0.3-1.5c0-1.5-0.2-2.9-0.6-4.3c-0.2-0.2-0.4-0.5-0.5-0.7c0-0.2,0.4-0.4,0.9-0.4
			c1,0,3.1,1,3.1,1.7c0,0.3-0.5,1.4-0.6,1.6c-0.1,0.6-0.1,1.2-0.1,1.9c0,0.6,0.1,0.9,0.4,0.9c0.4-0.1,0.7-0.3,0.9-0.6
			c0.4-0.5,0.4-0.5,0.7-0.5s1.9,0.3,1.9,1.2c0,1.1-1.2,1.8-2,2.2c-1.1,0.5-1.3,0.7-1.4,0.8C376.4,96.1,376.4,96.4,376.4,96.7z"/>
		<path class="st1" d="M5,0h372.7c2.8,0,5,2.2,5,5v39.5c0,2.8-2.2,5-5,5H5c-2.8,0-5-2.2-5-5V5C0,2.2,2.2,0,5,0z"/>
		<path class="st0" d="M25.2,23.8c-1.8,0-2.3,0-2.5,0.1h-0.4c-0.1,0-0.1,0-0.2-0.1l-0.4-0.5c-0.1-0.1-0.1-0.1-0.1-0.1s0,0,0.1,0
			l0.9,0.1c1,0,1.8,0.1,2.7,0.1h5.4c0.9,0,1.1,0,1.3-0.3c0.5-0.7,0.5-0.8,0.7-0.8s1.7,1,1.7,1.4S34,24,33.3,24h-3.9
			C29,23.8,29,24,29,25.7s0,1.7,0.6,1.7H31c0.9,0,1,0,1.3-0.3c0.4-0.6,0.4-0.7,0.6-0.7s1.4,1,1.4,1.3s-0.1,0.2-0.3,0.2s-0.5,0-0.7,0
			h-3.6c-0.6,0-0.6,0.1-0.6,1.3c0,0.7,0,2.9,0.1,3s0.2,0.2,0.5,0.2s1.2,0.1,2.2,0.1c1.8,0,3.6-0.2,5.3-0.5c0.2-0.1,0.4-0.2,0.6-0.2
			c0,0,0.1,0,0.1,0.1s-1.2,1-1.4,1.2c-0.1,0.3-0.2,0.5-0.3,0.8s-0.9,0.3-1.2,0.3c-8,0-9-1.1-10.3-2.7c-0.4-0.4-0.7-1-0.9-1.5
			c0-0.1-0.1-0.2-0.1-0.2s-0.1,0.1-0.3,0.4c-1.9,3-3.6,3.4-3.7,3.4s-0.1,0-0.1-0.1s0.3-0.3,0.3-0.4c1.8-1.9,3-4.4,3.4-7
			c0.1-0.9,0.1-1,0.2-1s1.7,0.5,1.7,0.7c0,0.1-0.4,0.4-0.4,0.5c-0.1,0.3-0.5,1.7-0.6,2c0,0-0.3,1-0.3,1.1c0,1,2.6,2.8,3.7,2.8
			c0.3,0,0.3-0.3,0.3-0.4c0-1.1,0-6.1,0-7.2c0-0.5,0-0.8-0.6-0.8H25.2z M22.2,20.2c-0.3,0-0.4,0-0.5,0.4c-0.4,1.2-1,1.7-1.5,1.7
			c-0.3,0-0.6-0.2-0.7-0.5c0,0,0,0,0-0.1c0-0.3,0.1-0.4,0.6-0.9c0.4-0.5,0.8-1.1,1-1.8c0.1-0.2,0.1-0.3,0.2-0.3s0.3,0.3,0.4,0.7
			s0.2,0.3,0.5,0.3H27c0.5,0,0.5-0.3,0.5-0.6s0-1.2-0.1-1.5c0-0.2-0.1-0.9-0.1-1.1s0.1-0.1,0.1-0.1l2,0.5c0.1,0,0.1,0.1,0.1,0.2
			S29,17.6,29,17.7c-0.1,0.4-0.1,0.9-0.1,1.3c0,0.7,0.2,0.8,0.6,0.8h3.9c0.5,0,0.6,0,0.9-0.2s0.5-0.4,0.7-0.4s1.9,1,1.9,1.6
			S36.5,21,36.4,21s-0.9-0.1-1-0.1c-0.4,0-0.8,0.1-1.1,0.3c-0.2,0.1-0.4,0.2-0.6,0.3h-0.1l0,0c0-0.2,0.5-0.9,0.5-1.1
			s-0.1-0.1-0.4-0.1L22.2,20.2L22.2,20.2z"/>
		<path class="st0" d="M43.4,28.4c-0.6,0-1.5,0-2.2,0.1h-0.4c-0.1,0-0.1,0-0.2-0.1l-0.4-0.5c-0.1-0.1-0.1-0.1-0.1-0.1s0,0,0.1,0
			c0.3,0,1.6,0.1,2,0.1c0.3,0,0.5-0.1,0.5-0.4l0,0c0-0.2,0.1-6.2,0.1-6.8c0-0.3-0.1-0.6-0.6-0.6c-0.1,0-0.9,0.1-1,0.1
			s-0.1,0-0.2-0.1l-0.4-0.5c-0.1-0.1-0.1-0.1-0.1-0.1s0,0,0.1,0c0.2,0,1.3,0.1,1.5,0.1c0.6,0,0.6-0.3,0.6-0.8s0-0.8,0-1.2
			c0-0.1,0-0.7,0-0.7s0.1-0.2,0.2-0.2s1.6,0.2,1.6,0.6c0,0.1-0.1,0.2-0.4,0.4C44,18.1,44,18.6,44,19c0,0.7,0.3,0.7,0.7,0.7h1.5
			c0.4,0,0.8,0,0.8-0.6c0-0.3-0.1-1.7-0.1-2.1c0-0.1,0-0.2,0.1-0.2l0,0c0,0,1.6,0.3,1.6,0.7c0,0.1-0.3,0.3-0.3,0.4
			c-0.1,0.4-0.2,0.9-0.1,1.4c0,0.2,0,0.3,0.2,0.3s0.3-0.2,0.4-0.3c0.3-0.4,0.4-0.5,0.5-0.5c0.5,0.2,0.9,0.6,1.2,1.1
			c0,0.2-0.4,0.2-0.9,0.2H49c-0.7,0-0.7,0.1-0.7,1v6.5c0,0.1,0,0.3,0.2,0.3s0.3-0.1,0.4-0.3c0.3-0.6,0.4-0.7,0.6-0.7
			s1.2,1.1,1.2,1.3s-0.3,0.3-0.7,0.3L43.4,28.4z M45.1,30.4c0,0.2-0.1,0.3-0.6,0.5s-3.4,3.5-4.3,3.5c-0.1,0-0.1,0-0.1-0.1
			s1.2-1.4,1.4-1.7c0.7-0.9,1.2-1.9,1.7-2.9c0.1-0.2,0.1-0.4,0.2-0.4c0.3,0.1,0.6,0.2,0.8,0.4C45,30.2,45.1,30.2,45.1,30.4
			L45.1,30.4z M46.2,22.3c0.8,0,0.8-0.2,0.8-1.5c0-0.7-0.2-0.8-0.8-0.8h-1.3C44,20,44,20.2,44,21.5c0,0.7,0.2,0.8,0.8,0.8H46.2z
			 M46.2,25.2c0.5,0,0.8,0,0.8-0.6v-1.3c0-0.5-0.4-0.5-0.8-0.5h-1.3c-0.5,0-0.8,0-0.8,0.6c0,0.1,0,1.2,0,1.2c0,0.5,0.4,0.5,0.8,0.5
			L46.2,25.2z M44.8,25.7c-0.5,0-0.7,0-0.7,0.7v0.9c0,0.7,0.2,0.7,0.7,0.7h1.5c0.5,0,0.7,0,0.7-0.7v-0.9c0-0.7-0.2-0.7-0.7-0.7H44.8
			z M49.5,32.3c0,0.4-0.2,0.8-0.7,0.8s-0.6-0.4-0.9-1.3c-0.2-0.7-0.6-1.3-1.1-1.8c-0.1-0.1-0.3-0.3-0.3-0.4c0,0,0-0.1,0.1-0.1l0,0
			c0.5,0.2,0.9,0.4,1.4,0.7C48.4,30.4,49.5,31,49.5,32.3L49.5,32.3z M55.4,17.6c0.2,0,0.3,0,0.5-0.1c0.1-0.1,0.5-0.5,0.7-0.5
			s1.4,0.5,1.4,0.9c0,0.1-0.1,0.2-0.2,0.3c-0.3,0.2-0.3,0.3-0.4,0.4c-0.1,1.1-0.1,2.3-0.1,3.4c0,1.2,0.1,7,0.1,9.3
			c0,0.2,0.1,1,0.1,1.1c0.1,1-0.6,1.8-1.6,1.9h-0.1c-0.3,0-0.3,0-0.5-0.3c-0.4-0.6-0.9-1-1.6-1.2c0,0-0.4-0.2-0.3-0.2s1.3,0,1.5,0
			c0.8,0,0.9-0.1,1-0.5s0.1-3.6,0.1-4.2c0-0.8-0.1-0.8-0.8-0.8H53c-0.8,0-0.8,0.1-0.8,0.9c-0.1,3.2-2.3,6.5-2.7,6.5
			c0,0-0.1,0-0.1-0.1l0,0c0.1-0.2,0.1-0.3,0.2-0.5c1.4-3.3,1.4-6.7,1.4-9.6c0.1-2.1,0-4.2-0.2-6.3c0-0.2-0.2-0.9-0.2-1
			s0.1-0.1,0.1-0.1c0.5,0.2,1.1,0.4,1.6,0.6c0.2,0,0.4,0,0.6,0L55.4,17.6z M55.4,22c0.5,0,0.7,0,0.7-0.7v-2.6c0-0.7-0.3-0.7-0.8-0.7
			H53c-0.5,0-0.8,0-0.8,0.7c0,0.4,0,2.1,0,2.5c0,0.7,0.3,0.7,0.8,0.7L55.4,22z M55.3,26.5c0.5,0,0.8,0,0.8-0.6s0-2,0-2.7
			s-0.3-0.7-0.8-0.7h-2.2c-0.5,0-0.8,0-0.8,0.7c0,0.4,0,2.3,0,2.7c0,0.6,0.2,0.6,0.7,0.6H55.3z"/>
		<path class="st0" d="M65.1,22.6C65,23,65,27.4,65,28.2s0,4.7,0,5.5c0,0.6-0.4,0.8-1,0.8s-0.5-0.3-0.5-0.6s0.1-1.2,0.1-1.3
			c0.1-1.4,0.1-3.4,0.1-4.7c0-1.1,0-3.3,0-4.5c0-0.1,0-0.4-0.1-0.4s-0.2,0.2-0.3,0.3c-0.5,0.7-1.1,1.3-1.8,1.8c-0.1,0-0.1,0-0.1-0.1
			s0.8-1.3,1-1.6c1.3-2.1,2.2-4.4,2.8-6.8c0-0.4,0-0.4,0.2-0.4s1.9,0.7,1.9,1.1c0,0.2-0.2,0.3-0.4,0.4c-0.2,0.1-0.4,0.2-0.5,0.4
			c-0.5,0.9-1,1.9-1.6,2.7c-0.1,0.1-0.1,0.2-0.2,0.4c0,0.1,0.1,0.2,0.2,0.2c0.2,0.1,0.5,0.2,0.6,0.4C65.5,22.2,65.1,22.5,65.1,22.6z
			 M74.3,27.1c-0.5,0-0.6,0.3-0.6,0.6c0,0.9-0.1,1.7-0.4,2.6c-0.1,0.3-0.2,0.7-0.3,1c0,0.2,0.1,0.3,0.9,0.6c1.7,0.6,3.5,0.9,5.2,0.9
			h0.7c0,0,0.1,0,0.1,0.1s-0.3,0.2-0.4,0.3c-0.4,0.2-0.7,0.5-0.9,0.8c-0.2,0.4-0.3,0.6-0.6,0.6c-1.8-0.3-3.5-0.9-5.1-1.8
			c-0.5-0.3-0.6-0.3-0.7-0.3c-0.3,0.1-0.5,0.3-0.7,0.5c-1.4,1.1-3.1,1.7-4.8,1.8c-0.1,0-0.3,0-0.3-0.1s0.1-0.1,0.5-0.2
			c1.6-0.3,4.4-2.2,4.4-2.8c0-0.1,0-0.2-0.4-0.6c-0.7-0.9-1.2-1.9-1.6-2.9c0-0.1,0.1-0.2,0.2-0.2l0,0c0.1,0,0.2,0.2,0.4,0.5
			c0.5,0.8,1.5,2.3,1.9,2.3s0.6-2.1,0.6-2.8c0-0.4,0-0.7-0.5-0.7h-2.1c-0.3,0-0.4,0.1-0.5,0.2c-0.2,0.4-0.6,0.6-1,0.6
			c-0.5,0-0.5-0.5-0.5-0.7s0.1-2.2,0.1-2.6c0-1,0-2.1-0.1-3.4c0-0.1-0.1-0.8-0.1-1s0.1-0.2,0.1-0.2c0.4,0.1,0.7,0.2,1.1,0.4
			c0.3,0.2,0.7,0.3,1.1,0.3h1.9c0.6,0,0.6-0.2,0.6-1.3c0-0.8,0-1.1-0.6-1.1h-1c-0.6,0-1.6,0-2.4,0l-0.6,0.1c-0.1,0-0.1,0-0.2-0.1
			L67.3,18c-0.1-0.1-0.1-0.1-0.1-0.1s0,0,0.1,0l0.9,0.1c0.6,0,1.6,0.1,2.7,0.1h4.8c1,0,1.1,0,1.4-0.5c0.4-0.7,0.5-0.8,0.7-0.8
			c0.7,0.3,1.3,0.9,1.6,1.6c0,0.3-0.4,0.3-1.1,0.3h-4.1c-0.6,0-0.6,0.2-0.6,1.1c0,1,0,1.3,0.6,1.3H76c0.2,0,0.4-0.1,0.6-0.2
			c0.3-0.4,0.4-0.4,0.5-0.4s1.5,0.8,1.5,1s-0.1,0.2-0.3,0.3c-0.2,0.1-0.3,0.3-0.3,0.5c0,0.7,0,1.5,0,2.1c0,0.4,0.1,2.6,0.1,3
			c0,0.8-0.8,0.9-1,0.9s-0.4-0.1-0.4-0.5S76.4,27,76.2,27L74.3,27.1z M71.9,23.6c0.6,0,0.6-0.1,0.6-1.5c0-0.7,0-0.9-0.6-0.9h-2.1
			c-0.6,0-0.6,0.1-0.6,1.5c0,0.7,0,0.9,0.6,0.9H71.9z M71.9,26.6c0.6,0,0.6-0.3,0.6-0.9c0-1.4,0-1.5-0.6-1.5h-2.2
			c-0.5,0-0.5,0.3-0.5,0.9c0,1.4,0,1.6,0.6,1.6h2.1V26.6z M74.3,21.3c-0.6,0-0.6,0.3-0.6,0.9c0,1.1,0,1.3,0.1,1.4s0.3,0.2,0.5,0.1
			h1.9c0.6,0,0.6-0.3,0.6-0.9c0-1,0-1.3-0.1-1.4s-0.3-0.2-0.5-0.1H74.3z M74.3,24.2c-0.6,0-0.6,0.3-0.6,0.8c0,1.4,0,1.6,0.6,1.6h1.9
			c0.6,0,0.6-0.3,0.6-0.8c0-1.4,0-1.6-0.6-1.6H74.3z"/>
		<path class="st0" d="M84.4,21.4c0.8,0,1.1-0.1,3.9-0.9c1.8-0.5,6.4-1.8,7.7-1.8c0.7,0,1.6,0.3,1.6,1c0,0.4-0.4,0.8-0.8,0.7
			c-0.3,0-1.4-0.2-1.6-0.2c-2.5,0-5.4,2.3-5.4,7.5c0,3.4,1.3,3.6,2.4,3.6c0.3,0,1.7-0.1,1.9-0.1c0.6,0,1,0.3,1,0.7
			c0,1.1-2.2,1.1-2.3,1.1c-4.1,0-4.1-3.3-4.1-4.3s0-5.1,2.9-7.7c0.2-0.1,0.3-0.3,0.5-0.4H92c-1.2,0-5.3,1.8-6,2.1
			c-0.2,0.1-0.4,0.2-0.7,0.3c-1,0-2-1.3-1.7-1.6C83.7,21.2,84.3,21.4,84.4,21.4z M97.2,25.8c0,0.4-0.3,0.8-0.7,0.8
			c-0.4,0-0.5-0.4-0.9-1.2c-0.2-0.6-0.6-1.1-1-1.6c-0.1-0.1-0.2-0.2-0.2-0.4c0-0.1,0.2-0.1,0.4-0.1C96,23.6,96.9,24.6,97.2,25.8z
			 M99.6,24.8c0,0.5-0.3,0.7-0.6,0.7c-0.5,0-0.7-0.6-0.9-1.1c-0.3-0.6-0.8-1.2-1.3-1.6c-0.1-0.1-0.2-0.2-0.2-0.3s0.2-0.1,0.3-0.1
			c0.2,0,0.3,0,0.5,0.1C98.6,23,99.6,23.9,99.6,24.8L99.6,24.8z"/>
		<path class="st0" d="M111.7,19.8c0,0.1,0,0.1,0,0.2c0.1,0.7,0.2,1.4,0.2,2.2c-0.1,2.1-0.8,4.1-2,5.8c-1.6,2.4-2.6,2.9-3.4,2.9
			c-1.3,0-2.5-2.1-2.5-4.5c0-1.9,0.8-3.8,2.2-5.1c1.6-1.8,4-2.7,6.4-2.6c1.1-0.1,2.2,0.2,3.2,0.6c2.2,1.1,3.6,3.4,3.5,5.8
			c0,3.2-2,6-5,7c-1.1,0.4-2.2,0.6-3.3,0.7c-0.1,0-0.2,0-0.2-0.1s0-0.1,0.5-0.3c2.1-0.8,6.4-2.5,6.4-7.5c0-0.8-0.1-5.5-5.5-5.5
			C111.7,19.5,111.7,19.7,111.7,19.8z M105.2,25.9c0,1.3,0.5,3.1,1.7,3.1c0.6,0,1.1-0.2,2.4-2.3c1.2-1.7,1.9-3.7,2-5.8
			c0-1.2-0.1-1.3-0.3-1.3C109.1,19.6,105.2,22.2,105.2,25.9z"/>
		<path class="st0" d="M126.9,31.4c0,0.2-0.2,0.3-0.7,0.5c-0.1,0-1.6,1.4-1.9,1.7c-0.5,0.4-1,0.7-1.6,1c0.2-0.4,0.4-0.7,0.7-1
			c0.6-0.8,1.1-1.6,1.6-2.5c0.1-0.3,0.2-0.5,0.3-0.7C125.4,30.1,126.9,31,126.9,31.4z M126.1,29.4c-0.2,0-0.5,0-0.6,0.3
			c-0.1,0.4-0.5,0.7-0.9,0.8c-0.5,0-0.5-0.4-0.5-1c0-0.9,0.1-5.4,0.1-6.5c0-1.9,0-3.1-0.1-4.2c0-0.2-0.2-1.1-0.2-1.3s0-0.2,0.2-0.2
			c0.4,0,0.7,0.1,1,0.3c0.2,0.1,0.5,0.2,0.8,0.1h1.6c0.2,0,0.4,0,0.6-0.1c0.1,0,0.4-0.3,0.5-0.3s1.4,0.9,1.4,1.2
			c0,0.1-0.1,0.2-0.2,0.3l-0.4,0.3c-0.1,1.2-0.2,2.4-0.2,3.6c0,0.9,0.1,5.6,0.1,6.7c0,0.3,0,0.9-1,0.9c-0.3,0-0.3-0.1-0.5-0.6
			c-0.1-0.3-0.5-0.3-0.6-0.3L126.1,29.4z M126.1,22c-0.6,0-0.6,0.3-0.6,1.2c0,1.9,0,2,0.6,2h1.2c0.6,0,0.6,0,0.6-2
			c0-0.9,0-1.2-0.6-1.2H126.1z M126.1,18.3c-0.6,0-0.6,0-0.6,2c0,0.9,0,1.2,0.6,1.2h1.2c0.6,0,0.6,0,0.6-2c0-0.9,0-1.2-0.6-1.2
			H126.1z M126.1,25.7c-0.6,0-0.6,0.3-0.6,0.9c0,2.1,0,2.3,0.6,2.3h1c0.6,0,0.6-0.2,0.6-2.1c0-0.8,0-1.1-0.6-1.1
			C127.1,25.7,126.1,25.7,126.1,25.7z M130.1,33.5c0,0.4-0.3,0.8-0.7,0.9c-0.4,0-0.5-0.1-1-1.9c-0.2-0.7-0.6-1.3-0.9-1.9l-0.1-0.2
			C127.4,30.4,130.1,31.8,130.1,33.5L130.1,33.5z M136.2,23.6c-0.5,0-0.7,0.1-0.7,0.6c0,1.1,0,1.2,0.6,1.2h1c0.2,0,0.4,0,0.6-0.2
			c0.1-0.1,0.5-0.4,0.6-0.4s1.5,1,1.5,1.2s-0.2,0.2-0.4,0.2s-0.3,0.1-0.3,0.9c0,0.3,0,1.5,0,1.8c0,1.1,0,1.3,0.2,1.3
			s0.2-0.1,0.3-0.3s0.3-0.4,0.5-0.4c0.5,0.3,0.9,0.7,1.2,1.2c0,0.3-0.4,0.3-1,0.3h-0.6c-0.3,0-0.5,0.1-0.6,0.4v1.4
			c0.1,0.6-0.1,1.1-0.6,1.5c-0.4,0.3-0.9,0.4-1.4,0.4c-0.1,0-0.2,0-0.3-0.1c-0.1-0.2-0.3-0.4-0.4-0.6c-0.1-0.2-0.9-0.9-0.9-1
			s0.1-0.1,0.2-0.1l1.1,0.1c1,0,1-0.1,1-1.4c0-0.4,0-0.7-0.6-0.7H133c-0.6,0-0.6,0.3-0.6,0.8c0,0.5,0.1,1.9,0.1,2s0,0.5-0.2,0.6
			c-0.2,0.2-0.5,0.3-0.8,0.3c-0.4,0-0.5-0.3-0.5-0.5s0.1-2.2,0.1-2.7s-0.4-0.6-0.5-0.6l-0.7,0.1c-0.1,0-0.1-0.1-0.2-0.1l-0.4-0.5
			c-0.1-0.1-0.1-0.1-0.1-0.1s0-0.1,0.1-0.1s1.1,0.1,1.3,0.1c0.6,0,0.6-0.4,0.6-0.7c0-1.3,0-2.7-0.2-4c0-0.1-0.2-0.6-0.2-0.8
			s0-0.1,0.1-0.1c0.5,0.1,0.9,0.3,1.3,0.5c0.3,0.1,0.6,0.2,0.9,0.2h0.7c0.3,0,0.4-0.1,0.4-0.5c0-1,0-1.3-0.6-1.3h-0.8
			c-0.5,0-1.8,0-2.5,0.1H130c-0.1,0-0.1,0-0.2-0.1l-0.4-0.5c-0.1-0.1-0.1-0.1-0.1-0.1s0,0,0.1,0c0.3,0,2,0.1,2.4,0.1
			c0.5,0,0.6-0.2,0.6-1.2c0-0.4-0.1-0.6-0.5-0.6c-0.2,0-1.1,0.1-1.2,0.1s-0.1,0-0.2-0.1l-0.4-0.5c-0.1-0.1-0.1-0.1-0.1-0.1
			s0-0.1,0.1-0.1c0.2,0,1.5,0.1,1.8,0.1c0.5,0,0.5-0.4,0.5-0.7c0-0.7,0-1.1-0.5-1.1c-0.2,0-1.1,0.1-1.2,0.1s-0.1,0-0.2-0.1l-0.4-0.5
			c-0.1-0.1-0.1-0.1-0.1-0.1s0-0.1,0.1-0.1c0.3,0,1.5,0.1,1.8,0.1c0.4,0,0.4-0.3,0.4-0.5c0,0,0-0.2,0-0.4s-0.2-0.7-0.2-0.8
			s0.1-0.2,0.3-0.2s1.5,0.2,1.5,0.4c0,0.1,0,0.1-0.2,0.4c-0.1,0.2-0.1,0.4-0.1,0.6c0,0.5,0.4,0.5,0.6,0.5h1.3c0.1,0,0.5,0,0.5-0.5
			c0-0.2,0-0.3-0.1-0.5s-0.1-0.4-0.1-0.7c0-0.1,0.1-0.2,0.3-0.2s1.6,0.2,1.6,0.6c0,0.1-0.1,0.1-0.3,0.3s-0.2,0.2-0.2,0.5
			c0,0.5,0.3,0.5,0.6,0.5s0.5-0.1,0.7-0.3c0.4-0.5,0.4-0.6,0.6-0.6s1.3,0.8,1.3,1.2s-0.4,0.3-1.1,0.3h-1.5c-0.5,0-0.6,0.2-0.6,0.6
			c0,1,0,1.1,0.3,1.1c0.1,0,0.2-0.1,0.3-0.2c0.4-0.6,0.5-0.7,0.7-0.7s1.5,0.9,1.5,1.2s-0.4,0.3-1.1,0.3h-1.1c-0.5,0-0.6,0.2-0.6,0.6
			c0,1.2,0,1.4,0.7,1.4c0.8,0,0.9,0,1.2-0.3s0.5-0.5,0.7-0.5s1.4,0.8,1.4,1.1s-0.4,0.3-1.1,0.3L136.2,23.6z M133,25.9
			c-0.6,0-0.6,0.3-0.6,1c0,0.5,0,0.9,0.6,0.9h0.9c0.6,0,0.6-0.4,0.6-0.7c0-1,0-1.3-0.6-1.3L133,25.9z M133,28.4
			c-0.6,0-0.6,0.3-0.6,0.6c0,1.1,0,1.4,0.6,1.4h0.8c0.6,0,0.6-0.3,0.6-1.2c0-0.4,0-0.8-0.6-0.8H133z M134.2,18.9
			c-0.6,0-0.6,0.3-0.6,0.9s0,0.9,0.6,0.9h1.3c0.6,0,0.6-0.3,0.6-0.9s0-0.9-0.6-0.9H134.2z M134.2,21.2c-0.6,0-0.6,0.3-0.6,0.6
			c0,1,0,1.3,0.6,1.3h1.2c0.6,0,0.6-0.3,0.6-0.9s0-1-0.6-1H134.2z M136.2,25.9c-0.6,0-0.6,0.4-0.6,0.7c0,0.9,0,1.2,0.6,1.2h1
			c0.6,0,0.6-0.3,0.6-0.9s0-1-0.6-1C137.2,25.9,136.2,25.9,136.2,25.9z M136.2,28.4c-0.5,0-0.6,0.3-0.6,0.6c0,1.1,0,1.4,0.6,1.4h1
			c0.6,0,0.6-0.2,0.6-1.1c0-0.5,0-0.9-0.6-0.9H136.2z"/>
		<path class="st0" d="M150.4,18.3c-0.5,0-1.1,0-1.6,0l-0.4,0.1c0,0-0.1,0-0.1-0.1l-0.4-0.5l-0.1-0.1c0,0,0,0,0.1,0l0.5,0.1
			c0.5,0.1,1.5,0.1,2,0.1h0.9c0.6,0,0.7,0,0.8-0.3c0.4-0.7,0.4-0.7,0.6-0.7c0.7,0.3,1.3,0.7,1.9,1.3c0,0.2-0.3,0.2-0.7,0.2h-0.5
			c-0.2,0-0.6,0-0.6,0.5c0,7.6,5.8,13,9.3,14.1c0.3,0.1,0.3,0.1,0.3,0.2s-0.1,0.1-0.2,0.1l-1.1-0.1c-0.6-0.1-1.2,0.1-1.7,0.5
			c-0.1,0.1-0.3,0.3-0.4,0.3c-2-1.6-3.6-3.8-4.7-6.2c-0.5-1-0.9-2.1-1.2-3.2c-0.2-0.6-0.2-0.6-0.3-0.6s-0.2,0.1-0.6,1.4
			c-1,2.9-2.8,5.4-5.3,7.1c-1,0.7-2.1,1.3-3.2,1.7c-0.1,0-0.1-0.1-0.1-0.2s0.1-0.2,0.7-0.7c3.7-2.7,6.3-6.7,7.4-11.3
			c0.3-1.1,0.5-2.3,0.5-3.4c0-0.5-0.4-0.5-0.6-0.5h-1.2V18.3z"/>
		<path class="st0" d="M163.7,21.4c0.8,0,1.1-0.1,3.9-0.9c1.8-0.5,6.4-1.8,7.7-1.8c0.7,0,1.6,0.3,1.6,1c0,0.4-0.4,0.8-0.8,0.7
			c-0.3,0-1.4-0.2-1.6-0.2c-2.5,0-5.4,2.3-5.4,7.5c0,3.4,1.3,3.6,2.4,3.6c0.3,0,1.7-0.1,1.9-0.1c0.6,0,1,0.3,1,0.7
			c0,1.1-2.2,1.1-2.3,1.1c-4.1,0-4.1-3.3-4.1-4.3s0-5.1,2.9-7.7c0.2-0.1,0.3-0.3,0.5-0.4h-0.1c-1.2,0-5.3,1.8-6,2.1
			c-0.2,0.1-0.4,0.2-0.7,0.3c-1,0-2-1.3-1.7-1.6C163,21.2,163.6,21.4,163.7,21.4z M176.5,25.8c0,0.4-0.3,0.8-0.7,0.8
			s-0.5-0.4-0.9-1.2c-0.2-0.6-0.6-1.1-1-1.6c-0.1-0.1-0.2-0.2-0.2-0.4c0-0.1,0.2-0.1,0.4-0.1C175.3,23.6,176.3,24.6,176.5,25.8z
			 M178.9,24.8c0,0.5-0.3,0.7-0.6,0.7c-0.5,0-0.7-0.6-0.9-1.1c-0.3-0.6-0.8-1.2-1.3-1.6c-0.1-0.1-0.2-0.2-0.2-0.3s0.2-0.1,0.3-0.1
			c0.2,0,0.3,0,0.5,0.1C177.9,23,178.9,23.9,178.9,24.8L178.9,24.8z"/>
		<path class="st0" d="M182.6,24.8c-0.1-0.1-0.1-0.1-0.1-0.1s0-0.1,0.1-0.1c0.4,0,2.1,0.1,2.5,0.1s0.5-0.1,0.7-0.4
			c0.4-0.5,0.5-0.6,0.6-0.6s1.3,0.7,1.3,1.1v0.1c-0.2,0.1-0.3,0.3-0.5,0.4c-0.1,0.1-0.1,0.3-0.1,2.4c0,2.8,0,3.1,0.5,3.8
			c0.9,1.2,3.9,1.2,5.3,1.2c2.5,0,5-0.1,7.4-0.6c0.2-0.1,0.5-0.1,0.7-0.1c0,0,0.1,0,0.1,0.1c0,0.1,0,0.1-0.2,0.2
			c-0.4,0.2-0.8,0.4-1,0.8c-0.1,0.3-0.2,0.6-0.3,0.9c0,0-2.3,0-2.6,0c-2.4,0.1-4.9-0.1-7.3-0.5c-1-0.2-1.9-0.8-2.5-1.6
			c-0.2-0.2-0.7-1.5-0.9-1.5c-0.3,0-2.1,2.8-2.1,3c0,0.6,0,0.7-0.2,0.7c-0.4,0-1.4-1.4-1.4-1.7c0-0.1,0.2-0.2,0.4-0.3
			c0.7-0.3,1.3-0.6,1.9-1.1c0.8-0.6,0.8-0.6,0.8-1.5c0-0.5,0-2.8,0-3.4c0-0.7-0.1-0.8-0.7-0.8c-0.6,0-1.1,0-1.7,0.1H183
			c-0.1,0-0.1,0-0.2-0.1L182.6,24.8z M186.5,20.9c-0.3,0-0.5-0.1-0.8-0.7c-0.5-0.8-1.2-1.6-1.9-2.3c-0.1-0.1-0.8-0.7-0.8-0.8
			s0.1-0.1,0.2-0.1c0.4,0,3.9,1.2,3.9,3.1C187.1,20.6,186.9,20.9,186.5,20.9L186.5,20.9z M195.9,17.4c0.7,0,0.9,0,1.1-0.2
			s0.6-0.7,0.7-0.7s1.8,1,1.8,1.4c0,0.1-0.1,0.2-0.3,0.3s-0.9,0.2-1.1,0.2c-0.4,0.2-2.2,1.3-2.7,1.6c-0.1,0.1-0.7,0.4-0.7,0.6
			s0.2,0.3,0.2,0.4s0.1,0.2,0.1,0.5c0,0.1,0.1,0.1,0.4,0.1h2c0.2,0,0.5,0,0.7-0.2c0.1,0,0.5-0.4,0.6-0.4s1.2,0.7,1.2,0.9
			s-0.2,0.3-0.3,0.4s-0.2,0.3-0.2,0.6c0,2.8,0,3.1,0.1,4.5c0.1,1.2,0.1,2,0.1,2.3c0.2,1-0.4,1.9-1.4,2.1h-0.1
			c-0.1,0-0.3-0.1-0.3-0.2c-0.1-0.2-0.1-0.4-0.2-0.5c-0.1-0.1-0.9-0.6-0.9-0.7s1-0.2,1.2-0.3c0.5-0.2,0.5-0.3,0.5-1.8
			c0-0.4,0-0.7-0.6-0.7h-2.2c-0.6,0-0.6,0.3-0.6,0.7v0.8c0,0.2,0.1,1.3,0.1,1.6s0,0.9-0.9,0.9c-0.4,0-0.5-0.5-0.5-0.8
			s0.1-2.2,0.1-2.6s-0.4-0.5-0.6-0.5h-1.9c-0.6,0-0.6,0.2-0.6,1.2c0,0.3,0,1.6,0,1.8c0,1.1-0.7,1.1-0.8,1.1c-0.6,0-0.6-0.4-0.6-1
			c0-0.2,0-1,0.1-1.1c0.1-0.8,0.1-1.4,0.1-3.1c0-0.7-0.1-4.4-0.1-5.2c0-0.2,0-0.3,0.1-0.3s1,0.3,1.1,0.4c0.3,0.1,0.6,0.2,0.9,0.1
			h1.9c0.1,0,0.2,0,0.2-0.2c-0.3-0.5-0.7-0.9-1.2-1.3c-0.4-0.3-0.5-0.4-0.5-0.5s0.2-0.1,0.3-0.1c0.5,0,0.9,0.1,1.4,0.3
			c0.3,0.1,0.6,0.3,0.9,0.4c0.8-0.6,1.5-1.3,2-2.1c0-0.2-0.1-0.2-0.4-0.2H193c-0.5,0-1.8,0-2.5,0.1h-0.4c-0.1,0-0.1,0-0.2-0.1
			l-0.4-0.5c-0.1-0.1-0.1-0.1-0.1-0.1s0,0,0.1,0l0.9,0.1c0.6,0,1.6,0.1,2.7,0.1L195.9,17.4z M191.2,24.9c-0.2,0-0.4,0.1-0.6,0.2
			c-0.1,0.1-0.1,0.2-0.1,1.3c0,0.3,0,0.7,0.6,0.7h1.9c0.6,0,0.6-0.2,0.6-1.2c0-0.7,0-1-0.6-1H191.2z M191.2,22.1
			c-0.6,0-0.6,0.2-0.6,1.6c0,0.3,0,0.7,0.6,0.7h1.9c0.6,0,0.6-0.1,0.6-1.5c0-0.4,0-0.7-0.6-0.7h-1.9V22.1z M197.6,24.4
			c0.6,0,0.6-0.1,0.6-1.3c0-0.7,0-0.9-0.6-0.9h-2.1c-0.6,0-0.6,0.2-0.6,1.3c0,0.8,0,1,0.6,1h2.1V24.4z M197.7,27.1
			c0.6,0,0.6-0.3,0.6-0.8c0-1.2,0-1.4-0.6-1.4h-2.2c-0.6,0-0.6,0.1-0.6,1.3c0,0.5,0,0.8,0.6,0.8h2.2V27.1z"/>
		<path class="st0" d="M211.6,20.3c0.6,0,0.6-0.4,0.6-0.9c0-0.2,0-1,0-1.2s-0.1-1.6-0.1-1.9s0-0.2,0.2-0.2s1.8,0.4,1.8,0.8
			c0,0.1-0.4,0.5-0.4,0.6s-0.1,2-0.1,2.2c0,0.3,0.2,0.5,0.4,0.6c0.1,0,0.1,0,0.2,0h0.9c0.3,0,0.6,0,1.7-2.6c0.1-0.2,0.3-0.9,0.3-1
			s0.1-0.2,0.2-0.2s1.9,1.1,1.9,1.4s-0.1,0.2-0.8,0.4c-0.8,0.5-1.5,1.1-2,1.9c0,0.1,0.2,0.1,0.2,0.1h2.4c0.2,0,0.4,0,0.5-0.1
			c0.2-0.1,0.4-0.2,0.6-0.3c0.3,0,1.7,1,1.7,1.7c0,0.2-0.1,0.3-0.3,0.3c0,0,0,0-0.1,0s-0.7-0.2-0.8-0.2c-0.5,0.1-1,0.4-1.4,0.8
			c-0.1,0.1-0.3,0.2-0.4,0.3c-0.1,0-0.1-0.1-0.1-0.1s0.5-1.5,0.5-1.7s-0.1-0.2-0.3-0.2h-12.6c-0.3,0-0.3,0-0.3,0.4
			c-0.1,1-0.8,1.9-1.2,1.9c-0.4-0.1-0.7-0.4-0.7-0.9c0-0.3,0.1-0.6,0.3-0.9c0.4-0.6,0.5-1.2,0.6-1.9c0-0.4,0-0.4,0.1-0.4
			s0.1,0.1,0.6,0.9c0.2,0.3,0.2,0.4,0.5,0.4L211.6,20.3z M217.6,28.3c0.1,0,0.3,0,0.4-0.1c0.1-0.1,0.6-0.6,0.7-0.6s1.4,0.7,1.4,1.1
			c0,0.1-0.1,0.2-0.4,0.4c-0.1,0.1-0.1,0.2-0.1,0.3c0,2.7,0,3-0.1,3.3c-0.3,0.7-0.9,1.2-1.7,1.3c-0.2,0-0.3-0.1-0.7-0.7
			c-0.3-0.3-0.6-0.6-1-0.7c-0.1,0-0.2-0.1-0.2-0.2s0.1-0.1,0.2-0.1c0.5,0,1,0,1.5-0.1c0.7-0.1,0.7-0.3,0.7-1.9c0-1.4,0-1.6-0.6-1.6
			h-3.4c-0.6,0-0.6,0.3-0.6,0.7c0,0.6,0,3.3,0,3.8s-0.2,1.3-1,1.3c-0.6,0-0.6-0.4-0.6-0.6c0,0,0.2-3.8,0.2-4.5c0-0.3,0-0.6-0.6-0.6
			h-3.2c-0.6,0-0.6,0.1-0.6,2.2c0,0.3,0.1,1.4,0.1,1.7c0.1,0.7-0.4,1.3-1.1,1.3c0,0,0,0-0.1,0c-0.3,0-0.4-0.1-0.4-0.7
			c0-0.7,0.1-4,0.1-4.6c0-0.1-0.1-0.7-0.1-0.8s0.1-0.2,0.2-0.2s0.7,0.3,1.1,0.4c0.2,0.1,0.4,0.2,0.7,0.2h3.4c0.6,0,0.6-0.4,0.6-0.7
			c0-1.7-0.3-1.7-0.7-1.7h-1.5c-0.2,0-0.4,0-0.6,0.3s-0.3,0.5-1,0.5s-0.6-0.4-0.6-0.5c0-0.4,0.1-2.1,0.1-2.4c0-0.4,0-0.8-0.1-1.2
			c0-0.2,0-0.3,0-0.3c0-0.1,0.1-0.2,0.1-0.2l0,0c0.4,0.1,0.8,0.3,1.1,0.4s0.6,0.1,0.9,0.1h6.1c0.3,0,0.5-0.1,0.7-0.3
			c0.2-0.4,0.3-0.4,0.5-0.4s1.2,0.5,1.2,1c0,0.2-0.1,0.3-0.3,0.5c-0.1,0.1-0.1,0.3-0.1,0.7s0,1.3,0,1.5c0,0.5-0.5,0.9-1,0.9
			c-0.3,0-0.3-0.1-0.4-0.4s-0.3-0.2-0.4-0.2h-2.7c-0.1,0-0.2,0-0.2,0.1s0,0.1,0.3,0.2c0.4,0.2,0.6,0.3,0.6,0.4s-0.4,0.5-0.5,0.6
			c0,0.1-0.1,0.2-0.1,0.3c0,0.5,0,0.8,0.6,0.8L217.6,28.3z M209.2,20c-0.4,0-0.5-0.2-1.3-1.7c-0.2-0.5-0.4-0.9-0.7-1.3l-0.3-0.3
			l0.1-0.1c0.6,0.2,1.2,0.5,1.7,0.9c0.6,0.4,0.9,0.9,1.1,1.6C209.9,19.5,209.7,20,209.2,20z M210.1,23.2c-0.6,0-0.6,0.2-0.6,1.3
			c0,0.7,0.1,0.9,0.7,0.9h5.8c0.2,0,0.5-0.1,0.6-0.3c0.1-0.5,0.1-0.9,0.1-1.4s-0.4-0.5-0.6-0.5H210.1z"/>
		<path class="st0" d="M233.1,19c-0.1,0.4-0.2,0.7-0.3,1.1c-0.1,0.5-0.1,0.9-0.2,1.4c0,0.3,0,0.3,0.2,0.3c0.3,0,0.6-0.1,0.8-0.2
			c0.4-0.2,0.9-0.4,1.3-0.5c0.5,0,1.3,0.6,1.3,0.9s-0.5,0.8-2.1,0.8c0,0-1.3,0-1.4,0s-0.2,0.2-0.2,0.5s0.2,5.4,0.3,5.6
			s0.2,0.4,1.2,0.8c1.2,0.5,2.5,1.1,2.5,1.7c0,0.4-0.3,0.8-0.7,0.8l0,0c-0.7-0.2-1.3-0.6-1.8-1c-0.3-0.2-0.7-0.4-1.1-0.5
			c-0.2,0-0.2,0.1-0.5,0.6c-0.6,1.1-1.8,1.8-3.1,1.8c-1.8,0-3.4-1.2-3.4-2.3c0-1.3,1.9-2.2,4.2-2.2c0.2,0,0.9,0.1,1,0.1
			c0.3,0,0.4,0,0.4-0.5s-0.2-3.8-0.2-4.3c0-0.2,0-4.2-0.1-4.9c-0.1-0.4-0.2-0.9-0.5-1.2c-0.1-0.1-0.1-0.1-0.1-0.2s0.1-0.1,0.2-0.1
			C231.8,17.4,232.7,18,233.1,19z M229.4,29.8c-0.2,0-2.6,0-2.6,1.1c0,0.4,0.7,1,2.1,1c2.2,0,2.5-1.5,2.5-1.7S230.3,29.7,229.4,29.8
			L229.4,29.8z"/>
		<path class="st0" d="M249.3,20.8c-1.7,0-3.3,2.8-3.3,4.9c0,0.5,0.1,1,0.3,1.5c0.1,0.2,0.2,0.5,0.2,0.8c0,0.4-0.2,0.7-0.6,0.7h-0.1
			c-0.9,0-1.4-1.7-1.4-3.2c0-1.1,0.1-2.1,0.4-3.2c0.2-0.8,0.3-1.7,0.3-2.6c0-0.4-0.1-0.9-0.3-1.2c0-0.1-0.3-0.5-0.3-0.5
			c0.2-0.1,0.3-0.2,0.5-0.1c0.8,0,1.4,0.6,1.5,1.3c-0.1,0.5-0.2,1-0.4,1.5c-0.2,0.8-0.3,1.6-0.4,2.5c0,0.1,0,0.3,0.2,0.3
			s0.2-0.2,0.4-0.5c0.2-0.4,1.6-3,3.7-3c1.2,0,2.6,0.7,2.6,4.9c0,2.8-0.6,6-4.4,8.3c-0.4,0.3-0.9,0.5-1.4,0.7c0,0-0.1,0-0.1-0.1
			s0-0.1,0.5-0.4c3.3-2.5,3.9-4.8,3.9-8.9C250.9,22.1,250.5,20.8,249.3,20.8z"/>
		<path class="st0" d="M258.9,40.7c-0.2,0-1.2,0-1.2-0.6c0-2.1,2.6-5.2,3.5-6.3c9.4-11.2,10.3-12.3,10.3-16.1c0.2-3-2.1-5.5-5.1-5.6
			c-0.1,0-0.2,0-0.3,0c-2.4,0-4.5,1.6-4.5,3.4c0,0.4,0.1,0.9,0.4,1.2c0.5,0.5,0.8,1.2,0.8,1.9c0,1.2-1,2.1-2.2,2.2
			c-1.4-0.1-2.4-1.2-2.3-2.6v-0.1c0-3.4,3.5-7.2,8.6-7.2c4.3,0,8,2.8,8,7.5c0,4.1-2.5,6.4-5.9,9.2c-6,5-8.2,8.8-8.2,9.5
			s1.3,0.6,1.4,0.6h4.1c4,0,6.4-1.1,7.5-3.8c0.6-1.5,0.6-1.5,0.9-1.5c0.4,0,0.4,0.5,0.4,0.6c0,0.3-1.3,5.5-1.5,6.3
			c-0.3,1-1.4,1.6-2.4,1.4H258.9z"/>
		<path class="st0" d="M288,41.5c-6.3,0-9-8-9-15.3s2.7-15.4,9-15.4c6.5,0,9,8.3,9,15.4S294.4,41.5,288,41.5z M288,12.1
			c-5.3,0-5.4,12-5.4,14c0,1.6,0,14,5.4,14s5.4-11.9,5.4-14C293.4,24.5,293.4,12.1,288,12.1z"/>
		<path class="st0" d="M305.6,26.2c-2-0.2-3.5-2-3.4-4c-0.3-1.9,0.9-3.7,2.8-4s3.7,0.9,4,2.8c0.1,0.4,0.1,0.8,0,1.2
			C309.1,24.2,307.6,26,305.6,26.2z M305.6,18.7c-1,0-1.8,1.3-1.8,3.5s0.8,3.5,1.8,3.5s1.8-1.2,1.8-3.5S306.5,18.7,305.6,18.7z
			 M314.7,18.4c-0.1,0.2-0.1,0.3-0.3,0.5c-0.1,0.2-9.2,14-9.3,14.1c-0.3,0.4-0.3,0.5-0.5,0.5s-0.3-0.1-0.3-0.3c0-0.1,1.3-2,1.5-2.3
			c0.9-1.3,7.9-12.1,8-12.2c0.3-0.5,0.3-0.5,0.5-0.5C314.6,18.2,314.7,18.3,314.7,18.4L314.7,18.4L314.7,18.4z M313.5,33.5
			c-2-0.2-3.5-2-3.4-4c-0.3-1.9,0.9-3.6,2.8-4s3.6,0.9,4,2.8c0.1,0.4,0.1,0.8,0,1.2C317,31.5,315.5,33.3,313.5,33.5z M313.5,26
			c-0.9,0-1.8,1.2-1.8,3.5s0.9,3.5,1.8,3.5s1.8-1.2,1.8-3.5S314.5,26,313.5,26z"/>
		<path class="st0" d="M327.7,33.5c-3.9,0-6.5-3.2-6.5-7.7s2.7-7.7,6.5-7.7s6.5,3.2,6.5,7.7S331.6,33.5,327.7,33.5z M332.4,25.7
			c0-1.8-0.5-6.8-4.6-6.8c-4.5,0-4.6,5.9-4.6,7.2c0,1.9,0.6,6.8,4.6,6.8C332.2,32.8,332.4,27,332.4,25.7z"/>
		<path class="st0" d="M343.7,25.2c1.4,0,2-0.5,2-1.9c0-0.3,0-0.6,0.3-0.6s0.3,0.3,0.3,0.4v5.2c0,0.1,0,0.4-0.3,0.4
			s-0.3-0.3-0.3-0.5c0-1,0-2.4-2-2.4h-2.4c-0.2,0-0.4,0.1-0.5,0.3c-0.1,0.2-0.1,3.3-0.1,3.7c0,1.9,0,2.6,1.6,2.6
			c0.6,0,0.8,0,0.8,0.3s-0.3,0.3-0.5,0.3h-5.1c-0.3,0-0.6,0-0.6-0.3s0.3-0.3,0.5-0.3c0.7,0,1.6,0,1.8-1c0.1-1.9,0.1-3.8,0.1-5.7
			c0-0.9,0-5.2-0.1-5.6c-0.2-0.7-0.8-1.1-1.5-1c-0.6,0-0.8,0-0.8-0.3s0.3-0.3,0.6-0.3h9.6c1.1,0,1.3,0.1,1.7,1.1
			c0.1,0.3,0.8,2.2,0.8,2.3c0,0.2-0.2,0.4-0.4,0.4c-0.1,0-0.1,0-0.6-0.7c-0.9-1.5-2.4-2.4-4.1-2.4h-2.2c-1.5,0-1.5,0.9-1.5,2.6
			c0,0.3,0,2.9,0,3c0,0.3,0.3,0.5,0.5,0.4L343.7,25.2z"/>
		<path class="st0" d="M359,25.2c1.4,0,2-0.5,2-1.9c0-0.3,0-0.6,0.3-0.6s0.3,0.3,0.3,0.4v5.2c0,0.1,0,0.4-0.3,0.4s-0.3-0.3-0.3-0.5
			c0-1,0-2.4-2-2.4h-2.4c-0.2,0-0.4,0.1-0.5,0.3c-0.1,0.2-0.1,3.3-0.1,3.7c0,1.9,0,2.6,1.6,2.6c0.6,0,0.8,0,0.8,0.3
			s-0.3,0.3-0.5,0.3h-5.1c-0.3,0-0.6,0-0.6-0.3s0.3-0.3,0.5-0.3c0.7,0,1.6,0,1.8-1c0.1-1.9,0.1-3.8,0.1-5.7c0-0.9,0-5.2-0.1-5.6
			c-0.2-0.7-0.8-1.1-1.5-1c-0.6,0-0.8,0-0.8-0.3s0.3-0.3,0.6-0.3h9.6c1.1,0,1.3,0.1,1.7,1.1c0.1,0.3,0.8,2.2,0.8,2.3
			c0,0.2-0.2,0.4-0.4,0.4c-0.1,0-0.1,0-0.6-0.7c-0.9-1.5-2.4-2.4-4.1-2.4h-2.2c-1.5,0-1.5,0.9-1.5,2.6c0,0.3,0,2.9,0,3
			c0,0.3,0.3,0.5,0.5,0.4L359,25.2z"/>
	</g>
</g>
<g class="st2">
	<path class="st0" d="M104,146.3c-1,0-1,0.1-1.2,2c-1,9-6.7,12.4-7,12.4c-0.1,0-0.2-0.1-0.2-0.3c0-0.2,0.7-1,0.8-1.2
		c4.1-5.9,4.1-14.9,4.1-20.8c0-3.8-0.2-8.2-0.5-9.9c0-0.2-0.3-1.4-0.3-1.5c0-0.1,0-0.2,0.1-0.2c0.2,0,0.5,0.1,2.7,1.2
		c1,0.5,1.4,0.5,2,0.5h10.7c0.9,0,1.2-0.1,1.5-0.6c0.9-1,0.9-1.2,1.2-1.2c0.4,0,3,2,3,2.4c0,0.2-0.1,0.3-0.2,0.3
		c-0.7,0.5-0.9,0.6-1,1.1c-0.2,0.6-0.2,1-0.2,5.7c0,4.4,0,8.9,0.1,13.4c0,1,0.3,5.9,0.3,7c0,0.9-0.1,1.7-0.7,2.3
		c-0.3,0.3-1.8,1.4-2.7,1.4c-0.5,0-0.6-0.2-0.8-0.6c-0.8-1.5-2.7-2.6-4.5-3.1c-0.7-0.1-0.9-0.2-0.9-0.5c0-0.2,0.2-0.2,0.5-0.2
		c0.4,0,4.1,0.3,4.6,0.3c1.1,0,1.3-0.2,1.3-1.2c0-1.1,0-6.5,0-7.7c0-1.1-0.4-1.2-1.2-1.2H104z M104.3,137.7c-0.3,0-1,0-1.1,0.7
		c-0.1,0.3-0.1,3.3-0.1,4.8c0,1.6,0,2.1,1.2,2.1h11.3c1.2,0,1.2,0,1.2-3.7c0-3.9,0-3.9-1.2-3.9H104.3z M104.3,129.7
		c-0.8,0-1.2,0.3-1.2,1.1v4.6c0,0.7,0,1.3,1.2,1.3h11.3c0.3,0,0.8,0,1-0.5c0.1-0.3,0.1-3.1,0.1-3.6c0-2.6,0-2.9-1.2-2.9H104.3z"/>
	<path class="st0" d="M145.4,136.2c-0.9,0.7-2.5,2.9-2.5,3.3c0,0.6,1,0.6,1.2,0.6c1.5,0,4.5-0.4,5.7-0.6c0.3,0,1.5-0.6,1.8-0.6
		c0.9,0,3,2.2,3,2.9c0,0.4-0.4,0.5-0.5,0.6c-1.4,0.3-1.6,0.4-2.1,0.9c-1.3,1.3-3.2,3.3-4.5,4.6c-1.3,1.2-1.4,1.3-1.4,1.7
		c0,0.2,0.1,0.3,0.5,0.6c1,0.9,2.2,2.3,2.2,3.8c0,0.3-0.1,1.5-1.3,1.5c-0.6,0-0.9-0.2-1.5-1.3c-1.7-3-4.2-5.7-6.2-7.2
		c-0.1-0.1-1-0.8-1-0.9c0-0.1,0.1-0.2,0.2-0.2c0.2,0,2.6,0.9,4.6,2.1c0.2,0.1,1.3,0.7,1.5,0.7c0.3,0,0.5,0,2.2-2.5
		c1-1.5,2.7-4.2,2.7-4.7c0-0.2-0.1-0.3-0.7-0.3c-0.8,0-4.8,0.6-5.7,0.6c-0.2,0-0.5,0-0.8-0.1c-0.1,0-0.9-0.3-0.9-0.3
		c-0.3,0-0.5,0.3-0.9,0.9c-1.7,2.1-3.7,3.9-5.3,5.2c-1.4,1.1-4.7,3.3-5.5,3.3c-0.1,0-0.2-0.1-0.2-0.2c0-0.1,1.5-1.3,1.6-1.4
		c4.7-3.9,11-12.9,11-14.8c0-0.3-0.1-0.5-0.5-0.9c-0.2-0.2-1.3-0.8-1.3-1c0-0.3,1.1-0.4,1.4-0.4c2,0,4.3,2.6,4.3,3
		C146.5,135.4,146.3,135.6,145.4,136.2z"/>
	<path class="st0" d="M172.9,144.7c0.8,0,1,0,1-0.3c0-0.3-0.2-0.6-0.4-0.8c-0.5-0.7-5.3-8.6-5.8-9.3c-1.2-1.9-2.5-2.3-4.4-2.3
		c-0.5,0-0.6-0.4-0.6-0.6c0-0.6,0.6-0.6,0.9-0.6h9.1c0.3,0,0.9,0,0.9,0.6c0,0.6-0.6,0.6-1,0.6c-0.8,0-1.8,0.1-1.8,1.2
		c0,0.2,0,0.3,0.1,0.5s4.3,7,4.9,8c0.9,1.4,1,1.6,1.2,1.6s0.5-0.3,0.6-0.4c0.1-0.2,3.5-5.5,3.8-6c0.6-0.8,2-2.9,2-3.5
		c0-1.4-1.1-1.4-3.1-1.4c-0.2,0-0.8,0-0.8-0.6c0-0.6,0.5-0.6,1-0.6h8c0.3,0,0.9,0,0.9,0.6c0,0.6-0.5,0.6-1,0.6c-2.6,0-3.4,1.3-6,5.5
		c-0.7,1.1-4.2,6.5-4.2,6.9c0,0.3,0.3,0.3,0.9,0.3h8.6c0.3,0,0.9,0,0.9,0.6c0,0.6-0.6,0.6-0.9,0.6h-9c-1,0-1,0.8-1,1.3
		c0,0.5,0,1.4,1,1.4h9c0.3,0,0.9,0,0.9,0.6c0,0.6-0.6,0.6-0.9,0.6h-9c-1,0-1,0.5-1,2.7c0,4,0.2,4.4,4,4.4c0.7,0,0.7,0.5,0.7,0.6
		c0,0.6-0.6,0.6-0.9,0.6h-10.7c-0.3,0-0.9,0-0.9-0.6c0-0.6,0.4-0.6,1.4-0.6c3.3,0,3.3-1,3.3-4.8c0-1.7,0-2.3-1-2.3h-9.3
		c-0.3,0-0.8,0-0.8-0.6c0-0.6,0.6-0.6,0.8-0.6h9.3c1,0,1-0.8,1-1.3c0-0.5,0-1.3-1-1.3h-9.3c-0.3,0-0.9,0-0.9-0.6
		c0-0.6,0.6-0.6,0.9-0.6H172.9z"/>
	<path class="st0" d="M210.2,136.3c0,2.2-1.3,4.2-3.3,5.7c-0.3,0.2-2,1.1-2,1.3c0,0.3,1.8,0.9,2.1,1.1c1.8,1.1,3.8,3.1,3.8,6.4
		c0,4.8-4.1,7.9-8.9,7.9c-3.8,0-7.4-2.1-7.4-5.1c0-1.5,1-2.2,2.1-2.2c1.3,0,1.8,1,1.8,1.8c0,0.3-0.3,1.7-0.3,2
		c0,1.4,1.6,2.4,3.4,2.4c3,0,5.8-3,5.8-6.7c0-3.6-2.6-6.9-5.9-6.9c-0.2,0-1.2,0.2-1.5,0.2c-0.6,0-0.8-0.3-0.8-0.8
		c0-0.5,0.4-0.8,0.9-0.8c0.2,0,1.4,0.2,1.6,0.2c2.6,0,5.1-2.3,5.1-5.9c0-2.9-1.8-5.7-4.7-5.7c-2,0-3,1.3-3,2.4
		c0,0.2,0.2,1.2,0.2,1.4c0,1.1-0.9,2-1.9,2c-1.2,0-1.9-1-1.9-2c0-1.8,2.2-5,7.3-5C206.5,130,210.2,132.5,210.2,136.3z"/>
	<path class="st0" d="M217.2,161.2c0.7-0.5,1.5-1.3,1.5-2c0-0.3-0.4-0.5-1.1-0.9c-0.5-0.2-1.5-0.7-1.5-2.1c0-1.3,1.1-2.5,2.5-2.5
		c1.1,0,2.5,0.8,2.5,2.6c0,3.3-3.3,6-4.2,6c-0.4,0-0.4-0.3-0.4-0.4C216.4,161.9,216.4,161.8,217.2,161.2z"/>
	<path class="st0" d="M234.4,158.8c-5.9,0-8.4-7.5-8.4-14.4c0-7,2.6-14.4,8.4-14.4c6.1,0,8.4,7.8,8.4,14.4
		C242.8,151,240.4,158.8,234.4,158.8z M234.4,131.2c-5,0-5.1,11.3-5.1,13.2c0,1.5,0,13.2,5.1,13.1c5,0,5.1-11.2,5.1-13.1
		C239.5,142.8,239.5,131.2,234.4,131.2z"/>
	<path class="st0" d="M249,158.1c-0.2,0-1.1,0-1.1-0.6c0-2,2.4-4.9,3.3-5.9c8.9-10.5,9.6-11.5,9.6-15.1c0-3.3-2.4-5.3-5-5.3
		c-2.3,0-4.2,1.5-4.2,3.2c0,0.1,0,0.6,0.4,1.1c0.5,0.7,0.8,1.1,0.8,1.8c0,1.1-0.9,2-2,2c-1.3,0-2.1-1.1-2.1-2.5
		c0-3.2,3.3-6.8,8.1-6.8c4.1,0,7.5,2.6,7.5,7.1c0,3.9-2.4,6-5.6,8.7c-5.7,4.7-7.7,8.2-7.7,8.9c0,0.6,1.2,0.6,1.3,0.6h3.9
		c3.8,0,6-1,7-3.5c0.6-1.4,0.6-1.4,0.8-1.4c0.4,0,0.4,0.4,0.4,0.5c0,0.3-1.2,5.1-1.4,5.9c-0.3,1.4-1.7,1.4-2.2,1.4H249z"/>
	<path class="st0" d="M286.2,149.7c0.2,0,0.9,0,0.9,0.6c0,0.6-0.6,0.6-0.9,0.6h-2.6c-1.1,0-1.1,0.6-1.1,2.2c0,2.3,0,3.6,2,3.7
		c1.2,0.1,1.5,0.1,1.5,0.7s-0.7,0.6-1,0.6h-8.4c-0.3,0-0.9,0-0.9-0.6c0-0.6,0.5-0.6,1.3-0.6c2.5,0,2.5-1.4,2.5-3.7
		c0-1.5,0-2.3-1-2.3h-8.4c-0.5,0-0.9,0-0.9-0.7c0-0.4,0.1-0.5,0.8-1.6c0.8-1.4,9.7-16.2,9.9-16.6c1.1-1.8,1.2-2.1,1.8-2.1
		c0.2,0,0.5,0.1,0.7,0.4c0.2,0.4,0.2,4.7,0.2,5.5c0,1.4-0.1,8.4-0.1,10c0,3.4,0,3.8,1.1,3.8H286.2z M278.5,149.7
		c0.6,0,0.9-0.4,1-0.8c0-0.3,0-4.5,0-6.7c0-0.5-0.1-5.5-0.1-5.6c0-0.1-0.1-0.5-0.3-0.5c-0.2,0-0.8,0.9-1,1.3c-0.8,1.4-7,11.6-7,11.9
		c0,0.2,0.2,0.4,0.8,0.4H278.5z"/>
</g>
<g class="st2">
	<path class="st0" d="M120.5,191c0.1,0.2,0.9,0.9,0.9,1c0,0,0,0.1-0.1,0.1c-0.2,0-4.2-2.9-4.2-8.3c0-5.4,4-8.3,4.2-8.3
		c0.1,0,0.1,0.1,0.1,0.1c0,0.1-0.7,0.9-0.9,1c-0.7,0.9-2.5,3.4-2.5,7.2S119.8,190.1,120.5,191z"/>
	<path class="st0" d="M128.7,181.1c-0.5,0-0.6,0.1-0.6,0.7c0,1,0,1.1,0.5,1.3c1.6,0.8,1.9,1.8,1.9,2.3c0,0.5-0.3,0.9-0.6,0.9
		c-0.2,0-0.4-0.2-0.6-1c-0.2-1.1-0.9-1.9-1.1-1.9c-0.1,0-0.1,0.1-0.1,0.2c0,1,0.1,5.9,0.1,6.7c0,0.6,0,1.4-0.9,1.4
		c-0.4,0-0.5-0.2-0.5-0.6c0-0.1,0.2-2.3,0.2-2.7c0-0.6,0.1-4.1,0.1-4.3c0,0,0-0.2-0.1-0.2c0,0-0.1,0.2-0.2,0.3
		c-1.1,2.1-2.3,3.6-2.5,3.6c-0.1,0-0.1,0-0.1,0c0-0.1,0.6-1.4,0.8-1.6c1.5-3.2,1.7-4.8,1.7-4.9c0-0.2-0.1-0.3-0.4-0.3
		c-0.2,0-1.3,0.1-1.5,0.1c-0.1,0-0.1,0-0.1-0.1l-0.4-0.4c-0.1-0.1-0.1-0.1-0.1-0.1s0,0,0.1,0c0.3,0,1.8,0.1,2.2,0.1
		c0.6,0,0.6-0.2,0.6-1.6c0-0.9,0-1.2-0.5-1.2c-0.1,0-0.5,0-0.6,0c-0.1,0-1.8-0.1-1.8-0.2c0,0,0.3-0.1,0.4-0.1c1.3-0.3,2-0.5,3.2-0.9
		c0.3-0.1,0.8-0.3,1.3-0.6c0.3,0,1.3,0.9,1.3,1.2c0,0.4-0.3,0.4-1,0.4c-1,0-1.3,0.2-1.3,0.5c0,0.7,0,2,0,2.1c0,0.1,0.1,0.4,0.4,0.4
		c0.2,0,0.3-0.1,0.5-0.3c0.3-0.5,0.4-0.6,0.6-0.6c0.2,0,1,0.8,1,1.1c0,0.2-0.3,0.2-0.9,0.2H128.7z M134.7,186.2
		c0,0.2-0.1,0.2-0.3,0.3c-0.1,0.1-0.5,1.3-0.6,1.5c-0.9,2.3-2.6,3-4.1,3.4c-0.1,0-0.4,0.1-0.5,0.1c0,0,0,0,0,0c0,0,0.4-0.2,0.4-0.2
		c1.5-0.8,3.3-2,3.6-5.1c0.1-0.6,0.1-0.7,0.2-0.7c0.1,0,0.3,0,0.6,0.2C134.6,185.9,134.7,185.9,134.7,186.2z M134.4,179.1
		c0,0.3-0.2,0.7-0.5,0.7c-0.4,0-0.5-0.2-0.9-1c-0.1-0.2-0.9-1.8-1.5-2.2c-0.1-0.1-0.3-0.3-0.3-0.3s0.1-0.1,0.1-0.1
		c0.3,0,1.1,0.4,1.5,0.6C134.2,177.8,134.4,178.7,134.4,179.1z M133.4,184.8c-0.4,0-0.5,0.1-0.5,0.5c0,0.3-0.2,0.8-0.8,0.8
		c-0.3,0-0.5-0.2-0.5-0.5c0-0.1,0.1-2,0.1-2.4s0-2.7,0-2.9c0-0.1-0.2-0.5-0.2-0.6c0-0.1,0-0.2,0.1-0.2c0.1,0,0.2,0.1,1.1,0.6
		c0.6,0.3,0.8,0.3,1.2,0.3h3.1c0.4,0,0.8,0,1-0.3c0.3-0.3,0.3-0.4,0.5-0.4c0.3,0,1.2,0.7,1.2,0.9c0,0.1,0,0.1-0.1,0.2
		c-0.1,0.1-0.3,0.2-0.4,0.3c-0.1,0.2-0.1,1.8-0.1,2.1c0,0.2,0.1,1.3,0.1,1.5c0,0.8-0.5,1.1-0.9,1.1c-0.2,0-0.3,0-0.4-0.5
		c0-0.3-0.1-0.5-0.5-0.5h-0.6c-0.1,0-0.4,0-0.5,0.2c-0.1,0.1-0.1,1.3-0.1,1.6c0,0.6,0,2.8,0.1,3.2c0.2,0.4,0.8,0.4,1.1,0.4
		c0.9,0,1.1-0.1,1.4-1c0.1-0.3,0.4-1.8,0.4-1.8c0.1,0,0.1,0.1,0.1,0.4c0.2,1.2,0.2,1.3,0.4,1.8c0,0.1,0.3,0.5,0.3,0.6
		c0,1.2-2,1.2-2.5,1.2c-1.9,0-2.4-0.2-2.5-1.4c0-0.7,0-1.7,0-4.6c0-0.2,0-0.5-0.6-0.5H133.4z M133.3,180.9c-0.5,0-0.5,0-0.5,1.5
		c0,0.6,0,1.6,0.1,1.8c0.1,0.2,0.3,0.2,0.5,0.2h4.1c0.5,0,0.5,0,0.5-1.5c0-0.3,0-1.6-0.1-1.8c-0.1-0.2-0.3-0.2-0.5-0.2H133.3z
		 M139.9,176.9c0,0.1,0,0.2-0.3,0.3c-0.3,0.1-1,1.2-1.2,1.4c-0.2,0.3-1.7,1.7-1.8,1.7c0,0-0.1,0-0.1-0.1c0,0,0.7-1.3,0.8-1.5
		c0.7-1.3,1-1.9,1-2.4c0-0.1,0-0.4,0-0.4c0-0.1,0-0.1,0.1-0.1c0.2,0,0.6,0.2,0.8,0.4C139.5,176.5,139.9,176.7,139.9,176.9z"/>
	<path class="st0" d="M142.8,183c-0.1-0.1-0.1-0.1-0.1-0.1s0,0,0.1,0c0.1,0,0.5,0.1,0.6,0.1c0.3,0,1.9,0.1,1.9,0.1
		c0.2,0,0.2,0,0.4-0.2c0.1-0.1,0.5-0.4,0.5-0.4c0.2,0,1,0.7,1,0.9c0,0.2-0.1,0.2-0.2,0.3c-0.1,0.1-0.4,0.2-0.5,0.3
		c-0.1,0.1-0.1,2.4-0.1,2.7c0,1,0.1,1.2,0.2,1.5c0.7,1.4,2.2,1.6,5,1.6c4.1,0,5.6-0.3,6.8-0.8c0.3-0.1,0.3-0.1,0.3-0.1
		c0,0-0.5,0.6-0.6,0.6c-0.1,0.1-0.4,0.6-0.6,1c-0.2,0.5-0.2,0.6-0.6,0.6c-1.9,0-6.8-0.2-8.1-0.4c-1-0.2-1.9-0.7-2.5-2
		c-0.2-0.5-0.2-0.5-0.4-0.5c-0.2,0-1.8,2.1-1.9,2.2c-0.2,0.3-0.3,0.5-0.5,0.5c-0.3,0-1-1.5-1-1.5c0-0.1,0.1-0.2,0.2-0.2
		c0.3-0.1,0.5-0.1,1.3-0.5c1-0.5,1-0.6,1.1-0.9v-3.8c0-0.2,0-0.5-0.6-0.5c-0.2,0-0.9,0-1.2,0c-0.1,0-0.3,0.1-0.4,0.1
		c-0.1,0-0.1-0.1-0.2-0.1L142.8,183z M147.1,180.1c0,0.3-0.2,0.7-0.6,0.7c-0.4,0-0.6-0.2-1.3-1.5c-0.2-0.3-1.1-1.6-2-2.3
		c-0.2-0.2-0.3-0.2-0.3-0.2c0,0,0.1-0.1,0.1-0.1c0.1,0,0.8,0.1,1.5,0.5C146.1,178,147.1,179.5,147.1,180.1z M151.2,177.5
		c-0.4,0-1.6,0-2.2,0c-0.1,0-0.3,0.1-0.4,0.1s-0.1-0.1-0.2-0.1l-0.3-0.4c-0.1-0.1-0.1-0.1-0.1-0.1c0,0,0-0.1,0.1-0.1
		c0.1,0,0.9,0.1,1.1,0.1c1.3,0.1,1.3,0,2.4,0c0.6,0,0.7,0,0.9-0.3c0.3-0.5,0.3-0.5,0.5-0.5c0.3,0,1.2,0.8,1.2,1.1
		c0,0.2-0.4,0.2-0.5,0.2h-0.4c-0.4,0-0.5,0.2-0.5,0.5c0,2.2,1.8,6.1,4.5,8.2c0.2,0.2,1.4,0.8,1.4,0.9s-0.9,0.1-1,0.2
		c-0.4,0.1-0.7,0.4-0.9,0.5c-0.1,0.1-0.1,0.1-0.2,0.1c-0.3,0-2.3-2.1-3.2-4.5c-0.1-0.2-0.5-1.6-0.5-1.6s-0.5,0.9-0.6,1.1
		c-2.6,4.3-5,5.2-5.2,5.2c0,0-0.1,0-0.1,0c0,0,1.1-1,1.3-1.2c2.5-2.6,4-6.1,4-8.5c0-0.5,0-0.8-0.5-0.8H151.2z"/>
	<path class="st0" d="M162.7,183.8c0-0.6,0.5-1.2,1.2-1.2c0.6,0,1.2,0.5,1.2,1.2c0,0.7-0.5,1.2-1.2,1.2
		C163.3,185,162.7,184.5,162.7,183.8z"/>
	<path class="st0" d="M169.3,182.9c-0.1-0.1-0.1-0.1-0.1-0.1c0,0,0,0,0.1,0c0.3,0,1.7,0.1,2,0.1c0.3,0,0.5-0.1,0.6-0.3
		c0.1-0.1,0.5-0.5,0.5-0.5c0.1,0,1.1,0.6,1.1,0.9c0,0.1-0.1,0.1-0.1,0.2c-0.2,0.1-0.4,0.3-0.4,0.4c0,0.1,0,2,0,2.3
		c0,2.2,0,2.4,0.4,2.9c0.8,1,2.3,1.3,4.9,1.3c2.8,0,4.3-0.2,5.8-0.6c0.2-0.1,1.2-0.5,1.3-0.5c0,0,0,0,0,0c0,0,0,0.1-0.2,0.3
		c-0.5,0.4-0.8,1.1-0.8,1.3c-0.1,0.3-0.1,0.3-0.2,0.4c-0.4,0.2-3.5,0.2-4.2,0.2c-4.1,0-6.3-0.3-7.1-2.6c-0.2-0.5-0.2-0.6-0.3-0.6
		c0,0,0,0-0.1,0c-0.1,0.1-2.2,2.5-2.3,2.9c-0.1,0.3-0.1,0.6-0.4,0.6c-0.3,0-0.9-1.3-0.9-1.3c0-0.1,0.1-0.2,0.7-0.4
		c0.4-0.2,1.4-0.8,1.9-1.3c0.3-0.3,0.3-0.4,0.3-2.9c0-0.4,0-1.8-0.1-2c-0.1-0.2-0.4-0.2-0.5-0.2c-0.2,0-1.5,0.1-1.5,0.1
		c-0.1,0-0.1,0-0.2-0.1L169.3,182.9z M172.3,180.3c-0.3,0-0.4-0.3-0.7-1.1c-0.4-1.1-1.5-2.1-1.8-2.3c-0.1,0-0.3-0.2-0.3-0.3
		c0-0.1,0.1-0.1,0.1-0.1c0.1,0,1,0.2,2,0.8c1.4,0.9,1.3,2.1,1.2,2.3C172.9,180,172.6,180.3,172.3,180.3z M176.9,183.8
		c-1.5,0-2,0-2.2,0c-0.1,0-0.3,0.1-0.4,0.1c-0.1,0-0.1-0.1-0.2-0.1l-0.4-0.4c-0.1-0.1-0.1-0.1-0.1-0.1c0,0,0-0.1,0.1-0.1
		c0.1,0,0.6,0.1,0.8,0.1c0.9,0,1.6,0.1,2.4,0.1h0.3c0.5,0,0.5,0,0.5-1.8c0-0.7,0-0.9-0.5-0.9c-0.6,0-1.3,0-1.9,0.1
		c-0.1,0-0.3,0-0.4,0c-0.1,0-0.1,0-0.2-0.1l-0.3-0.4c-0.1-0.1-0.1-0.1-0.1-0.1c0,0,0,0,0.1,0c0.1,0,0.7,0.1,0.8,0.1
		c0.9,0.1,1.6,0.1,2.4,0.1h2.6c0.7,0,0.8,0,1.1-0.3c0.4-0.4,0.6-0.6,0.8-0.6c0.2,0,1.2,1,1.2,1.1c0,0.2-0.4,0.2-0.9,0.2h-2.9
		c-0.2,0-0.4,0-0.5,0.3c0,0.1-0.1,1.9-0.1,1.9c0,0.3,0.1,0.5,0.5,0.5h1.7c0.5,0,0.7,0,0.8-0.1c0.2-0.1,0.8-0.9,0.9-0.9
		c0.2,0,1.3,1,1.3,1.3s-0.4,0.2-0.9,0.2h-3.9c-0.2,0-0.4,0-0.5,0.1c-0.1,0.1-0.2,0.7-0.2,0.8c0,0.2,0.1,0.2,0.4,0.3
		c0.8,0.2,4.2,1.2,4.2,3c0,0.5-0.3,0.8-0.6,0.8c-0.3,0-0.3,0-1.2-1.3c-0.9-1.3-1.9-1.9-2.5-2.2c-0.2-0.1-0.3-0.1-0.3-0.1
		c-0.1,0-0.1,0.1-0.4,0.6c-1.4,2.7-3.9,3.1-4,3.1c-0.1,0-0.2-0.1-0.2-0.1c0-0.1,0.7-0.5,0.9-0.6c1.2-0.9,2-1.7,2.5-3.3
		c0.1-0.3,0.2-0.6,0.2-0.8c0-0.3-0.2-0.3-0.4-0.3H176.9z M176.6,179.6c-0.3,0-0.5-0.4-0.8-1.2c-0.1-0.4-0.5-1.4-1.3-2.1
		c-0.1-0.1-0.2-0.2-0.2-0.3c0-0.1,0.1-0.1,0.1-0.1c0.5,0,2.9,1.4,2.9,2.8c0,0.1,0,0.1,0,0.2C177.3,179.3,177,179.6,176.6,179.6z
		 M183,176.8c0,0.1-0.1,0.1-0.4,0.2c-0.2,0.1-0.3,0.1-0.5,0.4c-0.7,0.9-2.3,2.6-2.6,2.6c-0.1,0-0.2,0-0.2-0.1c0-0.1,0.7-1,0.8-1.2
		c0.7-1.2,1.1-2.3,1.1-2.6c0-0.3,0.1-0.5,0.2-0.5c0.1,0,0.2,0.1,0.2,0.1C183,176.6,183,176.7,183,176.8z"/>
	<path class="st0" d="M192.7,182c-0.1,0-0.5,0-0.5,0.3c0,0.1,0.1,0.1,0.1,0.2c1,0.5,2.7,1.8,2.7,2.7c0,0.2-0.1,0.7-0.6,0.7
		c-0.3,0-0.4-0.2-0.6-0.9c-0.4-1.3-1.5-2.3-1.6-2.3c-0.1,0-0.1,0.1-0.1,0.4c0,0.4,0,2.5,0,2.9c0,0.7,0.1,3.9,0.1,4.6
		c0,0.8-0.8,0.9-0.8,0.9c-0.2,0-0.5-0.2-0.5-0.5s0.1-2.3,0.2-2.7c0-0.2,0.1-3.4,0.1-3.5c0-0.1,0-0.2-0.2-0.2c-0.1,0-0.1,0.1-0.4,0.6
		c-0.7,1.3-2.3,3.4-2.5,3.4c0,0-0.1,0-0.1-0.1s0.2-0.5,0.3-0.6c1.9-3.7,2.3-5.5,2.3-5.6c0-0.2-0.1-0.4-0.4-0.4
		c-0.3,0-1.3,0.1-1.6,0.1c0,0-0.2,0-0.2,0c-0.1,0-0.1,0-0.2-0.1l-0.3-0.4c-0.1-0.1-0.1-0.1-0.1-0.1s0,0,0.1,0c0.1,0,0.5,0.1,0.6,0.1
		c0.3,0,1.9,0.1,2.2,0.1c0.4,0,0.5-0.2,0.5-0.5c0-1,0-2.8-0.1-3.7c0-0.2-0.1-1.1-0.1-1.3c0-0.1,0-0.2,0.1-0.2c0,0,1.7,0.3,1.7,0.6
		c0,0.1,0,0.1-0.2,0.2c-0.1,0.1-0.3,0.3-0.4,0.7c0,0-0.2,3.4-0.2,3.6c0,0.5,0.3,0.5,0.6,0.5c0.2,0,0.6,0,0.7-0.1
		c0.1-0.1,0.6-0.8,0.8-0.8c0.1,0,1.4,0.9,1.4,1.2c0,0.2-0.2,0.2-0.7,0.2H192.7z M189.6,180.5c-0.3,0-0.4-0.3-0.6-1
		c-0.2-0.8-0.6-1.5-0.8-1.9c0,0-0.1-0.1-0.1-0.1c0-0.1,0.1-0.1,0.1-0.1c0.3,0,2,1.2,2,2.3C190.3,180.3,189.7,180.5,189.6,180.5z
		 M192.9,180.8C192.9,180.8,192.9,180.8,192.9,180.8c0-0.1,0.3-0.8,0.4-0.9c0.3-0.8,0.8-2.1,0.8-2.8c0-0.1,0-0.2,0.1-0.2
		c0.1,0,1.4,0.9,1.4,1.1c0,0.1-0.1,0.2-0.2,0.2c-0.1,0.1-0.4,0.2-0.5,0.3C194.8,178.6,193.1,180.8,192.9,180.8z M196.6,186.7
		c-0.8,0.2-1.7,0.4-2.2,0.5c-0.1,0-0.3,0.1-0.4,0.1c-0.1,0-0.1,0-0.1-0.1l-0.4-0.3c-0.1-0.1-0.1-0.1-0.1-0.1s0,0,0.5-0.1
		c0.1,0,1.5-0.2,2.7-0.5l2.7-0.6c0.5-0.1,0.5-0.6,0.5-0.6c0-3.2-0.1-6.5-0.2-7.6c0-0.2-0.2-1.1-0.2-1.3c0-0.1,0.1-0.2,0.1-0.2
		c0.1,0,1.8,0.3,1.8,0.6c0,0.1-0.3,0.4-0.4,0.5c-0.1,0.2-0.2,0.5-0.2,0.6c0,0.1,0,2.8,0,3.3c0,0.8,0,3.4,0,4c0,0.2,0.2,0.3,0.3,0.3
		c0.1,0,0.3-0.1,0.4-0.2c0.1-0.2,0.4-1,0.6-1c0.1,0,1.5,0.7,1.5,1c0,0.3-0.5,0.4-0.6,0.4l-1.8,0.3c-0.3,0.1-0.5,0.3-0.5,0.6
		c0,0.7,0.2,4.2,0.2,4.5c0,0.6-0.6,0.9-0.9,0.9c-0.3,0-0.5-0.2-0.5-0.6c0-0.2,0.1-0.9,0.1-1.1c0-0.7,0.1-2.7,0.1-3.2
		c0-0.4,0-0.9-0.5-0.8L196.6,186.7z M197.8,184.1c-0.4,0-0.4-0.2-0.5-0.6c-0.1-0.3-0.7-1.5-1.2-1.9c-0.1-0.1-0.2-0.2-0.2-0.2
		c0-0.1,0.1-0.1,0.1-0.1c0.3,0,2.4,0.9,2.4,2.1C198.4,184,197.9,184.1,197.8,184.1z M198,179.7c-0.3,0-0.5-0.4-0.7-0.6
		c-0.3-0.5-0.5-0.7-1-1.2c-0.1-0.1-0.1-0.1-0.1-0.2c0-0.1,0-0.1,0.1-0.1c0.1,0,2.2,0.3,2.2,1.4C198.5,179.1,198.5,179.7,198,179.7z"
		/>
	<path class="st0" d="M206.3,182.7c-0.1-0.1-0.1-0.1-0.1-0.1s0,0,0.1,0c0.1,0,0.5,0.1,0.6,0.1c0.8,0.1,1.5,0.1,2.3,0.1
		c0.2,0,0.5-0.1,0.5-0.5c0-0.7,0-1.8,0-2.5c0-0.4-0.1-0.4-0.1-0.4c-0.1,0-0.1,0.1-0.5,0.5c-1.1,1.4-2.2,2.4-2.3,2.4
		c-0.1,0-0.1-0.1-0.1-0.1c0,0,0.8-1.1,0.9-1.3c0.8-1.3,1.7-3.3,1.8-4.1c0-0.6,0-0.6,0.2-0.6c0.2,0,1.7,0.5,1.7,0.8
		c0,0.1-0.5,0.5-0.6,0.6c-0.1,0.1-0.5,0.7-0.5,0.9c0,0.2,0.2,0.2,0.5,0.2h7.4c0.8,0,0.9,0,1.1-0.3c0.2-0.4,0.4-0.6,0.6-0.6
		c0.2,0,1.5,0.9,1.5,1.1c0,0.2-0.4,0.2-0.8,0.2h-1.1c-0.1,0-0.4,0-0.5,0.2c-0.1,0.2-0.1,1.6-0.1,1.9c0,0.2,0,1.3,0.1,1.4
		c0.1,0.1,0.2,0.1,0.8,0.1c0.3,0,0.4-0.1,0.6-0.5c0.1-0.2,0.3-0.4,0.5-0.4c0.2,0,1.5,0.9,1.5,1.1c0,0.2-0.4,0.2-0.9,0.2h-2.1
		c-0.2,0-0.5,0-0.5,0.3c0,0.1,0,1.7,0,1.9c0,1.4,0,1.6,0.4,1.6c0.3,0,0.4,0,0.6-0.3c0.5-0.6,0.5-0.7,0.7-0.7c0.3,0,1.3,1.1,1.3,1.2
		c0,0.2-0.4,0.2-0.8,0.2H209c-0.4,0-0.9,0-1.3,0.1c-0.1,0-0.3,0-0.3,0s-0.1,0-0.1-0.1l-0.3-0.4c-0.1-0.1-0.1-0.1-0.1-0.1
		c0,0,0,0,0.1,0c0.1,0,0.5,0,0.6,0.1c0.9,0.1,1.2,0.1,1.5,0.1c0.2,0,0.4,0,0.5-0.1c0.1-0.1,0.1-0.1,0.1-1.8c0-1.6,0-1.8-0.5-1.8
		c-0.6,0-1.5,0-2,0.1c-0.1,0-0.3,0-0.4,0s-0.1,0-0.2-0.1L206.3,182.7z M207.2,191.5c-0.4,0-0.6-0.3-0.6-0.7c0-0.3,0.1-0.6,0.8-1.1
		c0.6-0.5,0.8-0.8,0.9-1.2c0.1-0.5,0.2-0.6,0.3-0.6c0.2,0,0.3,1,0.3,1.2C208.8,190.8,207.7,191.5,207.2,191.5z M211.2,183.1
		c-0.5,0-0.5,0.1-0.5,1.2c0,0.3,0,2.1,0,2.3c0.1,0.3,0.3,0.3,0.5,0.3h0.5c0.2,0,0.4,0,0.5-0.2c0.1-0.2,0.1-2.5,0.1-2.9
		c0-0.5-0.1-0.6-0.5-0.6H211.2z M211.3,179c-0.3,0-0.5,0-0.5,0.3c-0.1,0.2-0.1,1.5-0.1,1.9c0,1.3,0,1.5,0.6,1.5h0.4
		c0.2,0,0.4,0,0.5-0.2c0.1-0.1,0.1-1.1,0.1-1.3c0-0.3,0-1.7-0.1-1.9c-0.1-0.2-0.3-0.2-0.5-0.2H211.3z M212.7,190.4
		c0,0.7-0.4,1.1-0.8,1.1c-0.4,0-0.5-0.3-0.5-0.8c0-1,0-1.4-0.2-2.1c0-0.1-0.2-0.6-0.2-0.6c0,0,0-0.1,0.1-0.1c0.2,0,0.6,0.5,0.8,0.7
		C212.3,188.9,212.7,189.6,212.7,190.4z M214.3,186.9c0.2,0,0.5,0,0.5-0.3c0.1-0.3,0.1-1.6,0.1-1.9c0-0.3,0-1.2-0.1-1.3
		c-0.1-0.2-0.3-0.2-0.5-0.2h-0.5c-0.5,0-0.5,0.1-0.5,0.9c0,0.4,0,2.5,0.1,2.6s0.3,0.2,0.5,0.2H214.3z M214.3,182.7
		c0.5,0,0.5-0.1,0.5-1.3c0-0.2,0-1.9-0.1-2.1c-0.1-0.3-0.3-0.3-0.5-0.3h-0.4c-0.2,0-0.4,0-0.5,0.2c-0.1,0.2-0.1,2.1-0.1,2.5
		c0,0.9,0,1,0.5,1H214.3z M217,190.6c0,0.7-0.4,0.9-0.7,0.9c-0.2,0-0.4-0.1-0.5-0.8c-0.1-0.9-0.2-1.6-0.6-2.3c0,0-0.2-0.4-0.2-0.4
		s0-0.1,0.1-0.1c0.2,0,0.7,0.4,0.9,0.5C216.3,188.9,217,189.6,217,190.6z M216.5,179c-0.2,0-0.5,0-0.5,0.2c-0.1,0.2-0.1,2.4-0.1,2.8
		c0,0.5,0,0.6,0.5,0.6h0.5c0.5,0,0.5-0.2,0.5-0.6c0-0.2,0-2.7-0.1-2.9c-0.1-0.2-0.3-0.2-0.5-0.2H216.5z M216.5,183.1
		c-0.4,0-0.5,0.1-0.5,0.5v2.8c0,0.4,0.3,0.4,0.5,0.4h0.5c0.2,0,0.4,0,0.5-0.2c0.1-0.1,0.1-1.4,0.1-1.6c0-0.3,0-1.5-0.1-1.7
		c-0.1-0.2-0.3-0.2-0.5-0.2H216.5z M221.4,190.6c0,0.2-0.1,1-0.7,1c-0.4,0-0.5-0.2-0.7-1c-0.2-0.5-0.5-1.6-0.8-2.1
		c-0.1-0.2-0.2-0.4-0.2-0.5c0,0,0-0.1,0.1-0.1c0.2,0,0.7,0.4,0.9,0.5C221,189.3,221.4,190,221.4,190.6z"/>
	<path class="st0" d="M229.6,182c-0.1,0-0.5,0-0.5,0.3c0,0.1,0.1,0.1,0.1,0.2c1,0.5,2.7,1.8,2.7,2.7c0,0.2-0.1,0.7-0.6,0.7
		c-0.3,0-0.4-0.2-0.6-0.9c-0.4-1.3-1.5-2.3-1.6-2.3c-0.1,0-0.1,0.1-0.1,0.4c0,0.4,0,2.5,0,2.9c0,0.7,0.1,3.9,0.1,4.6
		c0,0.8-0.8,0.9-0.8,0.9c-0.2,0-0.5-0.2-0.5-0.5s0.1-2.3,0.2-2.7c0-0.2,0.1-3.4,0.1-3.5c0-0.1,0-0.2-0.2-0.2c-0.1,0-0.1,0.1-0.4,0.6
		c-0.7,1.3-2.3,3.4-2.5,3.4c0,0-0.1,0-0.1-0.1s0.2-0.5,0.3-0.6c1.9-3.7,2.3-5.5,2.3-5.6c0-0.2-0.1-0.4-0.4-0.4
		c-0.3,0-1.3,0.1-1.6,0.1c0,0-0.2,0-0.2,0c-0.1,0-0.1,0-0.2-0.1l-0.3-0.4c-0.1-0.1-0.1-0.1-0.1-0.1s0,0,0.1,0c0.1,0,0.5,0.1,0.6,0.1
		c0.3,0,1.9,0.1,2.2,0.1c0.4,0,0.5-0.2,0.5-0.5c0-1,0-2.8-0.1-3.7c0-0.2-0.1-1.1-0.1-1.3c0-0.1,0-0.2,0.1-0.2c0,0,1.7,0.3,1.7,0.6
		c0,0.1,0,0.1-0.2,0.2c-0.1,0.1-0.3,0.3-0.4,0.7c0,0-0.2,3.4-0.2,3.6c0,0.5,0.3,0.5,0.6,0.5c0.2,0,0.6,0,0.7-0.1
		c0.1-0.1,0.6-0.8,0.8-0.8c0.1,0,1.4,0.9,1.4,1.2c0,0.2-0.2,0.2-0.7,0.2H229.6z M226.5,180.5c-0.3,0-0.4-0.3-0.6-1
		c-0.2-0.8-0.6-1.5-0.8-1.9c0,0-0.1-0.1-0.1-0.1c0-0.1,0.1-0.1,0.1-0.1c0.3,0,2,1.2,2,2.3C227.2,180.3,226.7,180.5,226.5,180.5z
		 M229.9,180.8C229.9,180.8,229.9,180.8,229.9,180.8c0-0.1,0.3-0.8,0.4-0.9c0.3-0.8,0.8-2.1,0.8-2.8c0-0.1,0-0.2,0.1-0.2
		c0.1,0,1.4,0.9,1.4,1.1c0,0.1-0.1,0.2-0.2,0.2c-0.1,0.1-0.4,0.2-0.5,0.3C231.8,178.6,230.1,180.8,229.9,180.8z M233.5,186.7
		c-0.8,0.2-1.7,0.4-2.2,0.5c-0.1,0-0.3,0.1-0.4,0.1c-0.1,0-0.1,0-0.1-0.1l-0.4-0.3c-0.1-0.1-0.1-0.1-0.1-0.1s0,0,0.5-0.1
		c0.1,0,1.5-0.2,2.7-0.5l2.7-0.6c0.5-0.1,0.5-0.6,0.5-0.6c0-3.2-0.1-6.5-0.2-7.6c0-0.2-0.2-1.1-0.2-1.3c0-0.1,0.1-0.2,0.1-0.2
		c0.1,0,1.8,0.3,1.8,0.6c0,0.1-0.3,0.4-0.4,0.5c-0.1,0.2-0.2,0.5-0.2,0.6c0,0.1,0,2.8,0,3.3c0,0.8,0,3.4,0,4c0,0.2,0.2,0.3,0.3,0.3
		c0.1,0,0.3-0.1,0.4-0.2c0.1-0.2,0.4-1,0.6-1c0.1,0,1.5,0.7,1.5,1c0,0.3-0.5,0.4-0.6,0.4l-1.8,0.3c-0.3,0.1-0.5,0.3-0.5,0.6
		c0,0.7,0.2,4.2,0.2,4.5c0,0.6-0.6,0.9-0.9,0.9c-0.3,0-0.5-0.2-0.5-0.6c0-0.2,0.1-0.9,0.1-1.1c0-0.7,0.1-2.7,0.1-3.2
		c0-0.4,0-0.9-0.5-0.8L233.5,186.7z M234.8,184.1c-0.4,0-0.4-0.2-0.5-0.6c-0.1-0.3-0.7-1.5-1.2-1.9c-0.1-0.1-0.2-0.2-0.2-0.2
		c0-0.1,0.1-0.1,0.1-0.1c0.3,0,2.4,0.9,2.4,2.1C235.4,184,234.9,184.1,234.8,184.1z M235,179.7c-0.3,0-0.5-0.4-0.7-0.6
		c-0.3-0.5-0.5-0.7-1-1.2c-0.1-0.1-0.1-0.1-0.1-0.2c0-0.1,0-0.1,0.1-0.1c0.1,0,2.2,0.3,2.2,1.4C235.5,179.1,235.5,179.7,235,179.7z"
		/>
	<path class="st0" d="M244.3,176.6c-0.1-0.2-0.9-0.9-0.9-1c0,0,0-0.1,0.1-0.1c0.2,0,4.2,2.9,4.2,8.3c0,5.4-4,8.3-4.2,8.3
		c-0.1,0-0.1-0.1-0.1-0.1c0-0.1,0.7-0.9,0.9-1c0.7-0.9,2.5-3.4,2.5-7.2S245,177.5,244.3,176.6z"/>
</g>
</svg>
