<svg id="talk_h" xmlns="http://www.w3.org/2000/svg" width="421.053" height="64.346" viewBox="0 0 421.053 64.346">
  <g id="グループ_31" data-name="グループ 31" transform="translate(-749.831 -2645.656)">
    <g id="グループ_30" data-name="グループ 30">
      <path id="パス_131" data-name="パス 131" d="M876.9,2710c-2.7,0-4.581-2.214-4.581-5.365s1.863-5.379,4.581-5.379c2.689,0,4.566,2.213,4.566,5.379C881.465,2707.774,879.6,2710,876.9,2710Zm3.235-5.491c0-1.289-.364-4.791-3.235-4.791-3.138,0-3.25,4.118-3.25,5.043,0,1.345.406,4.776,3.25,4.776C880.022,2709.539,880.134,2705.463,880.134,2704.511Z" fill="#333"/>
      <path id="パス_132" data-name="パス 132" d="M893.06,2699.426c0,.014.911,2.213.911,2.367a.264.264,0,0,1-.267.253c-.126,0-.153-.043-.448-.449a3.718,3.718,0,0,0-3.025-1.877c-2.2,0-3.334,2.689-3.334,5.113,0,3.25,1.905,4.524,3.572,4.524a3.428,3.428,0,0,0,3.025-1.989c.323-.546.323-.56.435-.56a.218.218,0,0,1,.21.224,4.652,4.652,0,0,1-.8,1.415,4.086,4.086,0,0,1-3.292,1.555c-2.955,0-4.4-2.4-4.4-5.141,0-3.278,2.031-5.6,4.4-5.6a4.854,4.854,0,0,1,1.191.168,6.828,6.828,0,0,0,.841.224.578.578,0,0,0,.378-.14c.224-.224.252-.252.364-.252A.322.322,0,0,1,893.06,2699.426Z" fill="#333"/>
      <path id="パス_133" data-name="パス 133" d="M904.522,2704.287c.378,0,.378-.085.378-1.933,0-2.032,0-2.382-1.3-2.382-.112,0-.364,0-.364-.238,0-.21.252-.21.378-.21h3.572c.1,0,.364,0,.364.224s-.182.238-.616.238a.89.89,0,0,0-.855.519c-.112.293-.126.335-.126,5.406a22.423,22.423,0,0,0,.112,2.844c.2.532.771.532,1.037.532.21,0,.448,0,.448.224s-.266.224-.364.224h-3.572c-.14,0-.378,0-.378-.21s.252-.224.406-.224a1.368,1.368,0,0,0,.981-.28c.28-.28.28-.294.28-2.857,0-1.3,0-1.415-.378-1.415h-3.768a.377.377,0,0,0-.323.168c-.056.154-.056,1.541-.056,1.807,0,2.3,0,2.577,1.317,2.577.1,0,.35,0,.35.238,0,.2-.252.2-.378.2h-3.572c-.084,0-.364,0-.364-.224s.182-.224.616-.224a.891.891,0,0,0,.911-.714c.056-.337.056-3.74.056-5.533a20.063,20.063,0,0,0-.1-2.521c-.182-.533-.771-.533-1.037-.533-.21,0-.448,0-.448-.238s.266-.224.364-.224h3.572c.14,0,.378,0,.378.21,0,.238-.238.238-.406.238-1.261,0-1.261.42-1.261,2.213,0,.253,0,1.793.056,1.92a.34.34,0,0,0,.323.182Z" fill="#333"/>
      <path id="パス_134" data-name="パス 134" d="M918.6,2709.735c-.154,0-.336-.042-.336-.224,0-.224.224-.224.56-.224a.616.616,0,0,0,.575-.616,7.593,7.593,0,0,0-.519-1.639c-.308-.784-.35-.883-.812-.883h-3.04c-.518,0-.574.141-.8.771a11.189,11.189,0,0,0-.505,1.821c0,.546.449.546.785.546.168,0,.322.028.322.224,0,.224-.21.224-.322.224h-2.69c-.112,0-.294-.014-.294-.21,0-.238.154-.238.477-.238a1.177,1.177,0,0,0,1.064-.56,41.635,41.635,0,0,0,1.667-4.721c.182-.56,1.079-3.305,1.261-3.936.14-.49.224-.812,1.218-.812a.321.321,0,0,1,.309.224,9.255,9.255,0,0,1,.462,1.261c.98,3.039,1.064,3.375,1.947,5.967.8,2.381.9,2.577,1.7,2.577.182,0,.322.084.322.238,0,.21-.224.21-.322.21Zm-.658-4.048c.154,0,.35-.07.35-.224,0-.294-1.331-4.188-1.583-4.944-.084-.239-.112-.365-.21-.365s-.1.042-.252.5c-.392,1.135-1.485,4.693-1.485,4.819,0,.21.21.21.392.21Z" fill="#333"/>
      <path id="パス_135" data-name="パス 135" d="M933.707,2709.217c-.1-.252-.7-1.835-.7-1.919a.3.3,0,0,1,.308-.294c.154,0,.182.07.518.588a4.138,4.138,0,0,0,3.292,1.919,2.018,2.018,0,0,0,2.073-2.115c0-1.274-.84-1.723-2.619-2.339-1.947-.673-3.236-1.415-3.236-3.082a2.64,2.64,0,0,1,2.8-2.717,5.524,5.524,0,0,1,.994.112c.154.028.743.154.841.154a.531.531,0,0,0,.308-.084c.2-.154.224-.182.322-.182.168,0,.21.126.35.49.1.224.757,1.877.757,1.961a.221.221,0,0,1-.238.224c-.113,0-.141-.042-.365-.406a3.246,3.246,0,0,0-2.857-1.807,1.791,1.791,0,0,0-1.9,1.849c0,1.163.84,1.583,2.675,2.227,2.83.981,3.208,2.1,3.208,3.18a2.97,2.97,0,0,1-3.04,3.026,4.507,4.507,0,0,1-1.513-.281,1.826,1.826,0,0,0-.56-.14.723.723,0,0,0-.532.182c-.238.211-.266.239-.407.239C934,2710,933.973,2709.917,933.707,2709.217Z" fill="#333"/>
      <path id="パス_136" data-name="パス 136" d="M950.43,2704.287c.378,0,.378-.085.378-1.933,0-2.032,0-2.382-1.3-2.382-.112,0-.364,0-.364-.238,0-.21.252-.21.378-.21h3.572c.1,0,.365,0,.365.224s-.183.238-.617.238a.887.887,0,0,0-.854.519c-.112.293-.126.335-.126,5.406a22.423,22.423,0,0,0,.112,2.844c.2.532.77.532,1.036.532.21,0,.449,0,.449.224s-.267.224-.365.224h-3.572c-.14,0-.378,0-.378-.21s.252-.224.406-.224a1.367,1.367,0,0,0,.981-.28c.28-.28.28-.294.28-2.857,0-1.3,0-1.415-.378-1.415h-3.768a.375.375,0,0,0-.322.168c-.056.154-.056,1.541-.056,1.807,0,2.3,0,2.577,1.316,2.577.1,0,.35,0,.35.238,0,.2-.252.2-.378.2H944c-.084,0-.364,0-.364-.224s.182-.224.616-.224a.89.89,0,0,0,.911-.714c.056-.337.056-3.74.056-5.533a20.051,20.051,0,0,0-.1-2.521c-.182-.533-.77-.533-1.037-.533-.21,0-.448,0-.448-.238s.266-.224.364-.224h3.572c.14,0,.378,0,.378.21,0,.238-.238.238-.406.238-1.26,0-1.26.42-1.26,2.213,0,.253,0,1.793.056,1.92a.338.338,0,0,0,.322.182Z" fill="#333"/>
      <path id="パス_137" data-name="パス 137" d="M961.569,2710c-2.7,0-4.581-2.214-4.581-5.365s1.863-5.379,4.581-5.379c2.689,0,4.566,2.213,4.566,5.379C966.135,2707.774,964.272,2710,961.569,2710Zm3.235-5.491c0-1.289-.364-4.791-3.235-4.791-3.138,0-3.25,4.118-3.25,5.043,0,1.345.406,4.776,3.25,4.776C964.692,2709.539,964.8,2705.463,964.8,2704.511Z" fill="#333"/>
      <path id="パス_138" data-name="パス 138" d="M973.8,2699.524c.672,0,3.865.07,3.865,2.423a2.725,2.725,0,0,1-1.863,2.451c-.49.239-.546.267-.546.421a24.889,24.889,0,0,0,1.457,3.348,1.744,1.744,0,0,0,1.653,1.12c.14,0,.42,0,.42.224,0,.2-.28.224-.35.224h-1.751a.686.686,0,0,1-.658-.406c-.084-.14-1.079-2.311-1.233-2.662-.77-1.694-.868-1.918-1.359-1.918h-.77c-.1,0-.28.056-.322.168-.056.14-.056,1.989-.056,2.311,0,1.7,0,2.059,1.288,2.059.1,0,.295,0,.295.224s-.253.224-.407.224H970c-.14,0-.35-.027-.35-.224,0-.224.2-.224.392-.224.967,0,1.107-.448,1.149-.966.028-.477.028-4.329.028-4.987a22.519,22.519,0,0,0-.112-2.829c-.182-.519-.784-.519-1.107-.519-.084,0-.378,0-.378-.252,0-.21.252-.21.42-.21Zm-.505.462c-1.008,0-1.008.63-1.008,2.073,0,2.2,0,2.241.378,2.241H973.8a2.262,2.262,0,0,0,2.535-2.213c0-.98-.533-2.1-2.353-2.1Z" fill="#333"/>
      <path id="パス_139" data-name="パス 139" d="M989.738,2699.524c.756,0,.924,0,1.162.63.112.308.714,1.892.714,2.031a.216.216,0,0,1-.224.211c-.112,0-.154-.057-.476-.589a3.066,3.066,0,0,0-2.521-1.821c-.547,0-.883.224-.967.7-.042.252-.042,3.418-.042,4.006,0,.392,0,3.628.042,3.866.126.714.785.728,1.163.728.518,0,.63,0,.63.224s-.2.224-.42.224h-3.922c-.2,0-.406,0-.406-.224s.224-.224.308-.224c.826,0,1.344,0,1.485-.728a37.16,37.16,0,0,0,.042-3.964c0-3.46,0-3.839-.1-4.1a.872.872,0,0,0-.9-.5,3.2,3.2,0,0,0-2.521,1.807c-.337.546-.364.6-.49.6a.228.228,0,0,1-.225-.211c0-.112.631-1.793.743-2.073.224-.588.448-.588,1.148-.588Z" fill="#333"/>
      <path id="パス_140" data-name="パス 140" d="M1010.625,2699.524c.757,0,.925,0,1.163.63.112.308.714,1.892.714,2.031a.216.216,0,0,1-.224.211c-.112,0-.154-.057-.476-.589a3.068,3.068,0,0,0-2.522-1.821c-.546,0-.882.224-.966.7-.042.252-.042,3.418-.042,4.006,0,.392,0,3.628.042,3.866.126.714.784.728,1.162.728.519,0,.631,0,.631.224s-.2.224-.42.224h-3.922c-.2,0-.407,0-.407-.224s.224-.224.308-.224c.827,0,1.345,0,1.485-.728a37.214,37.214,0,0,0,.042-3.964c0-3.46,0-3.839-.1-4.1a.873.873,0,0,0-.9-.5,3.2,3.2,0,0,0-2.522,1.807c-.336.546-.364.6-.49.6a.227.227,0,0,1-.224-.211c0-.112.63-1.793.742-2.073.224-.588.449-.588,1.149-.588Z" fill="#333"/>
      <path id="パス_141" data-name="パス 141" d="M1022.412,2709.735c-.154,0-.336-.042-.336-.224,0-.224.225-.224.56-.224a.615.615,0,0,0,.575-.616,7.591,7.591,0,0,0-.518-1.639c-.309-.784-.351-.883-.813-.883h-3.039c-.519,0-.575.141-.8.771a11.187,11.187,0,0,0-.5,1.821c0,.546.448.546.784.546.168,0,.323.028.323.224,0,.224-.211.224-.323.224h-2.689c-.112,0-.295-.014-.295-.21,0-.238.155-.238.477-.238a1.177,1.177,0,0,0,1.064-.56,41.456,41.456,0,0,0,1.667-4.721c.182-.56,1.079-3.305,1.261-3.936.14-.49.224-.812,1.219-.812a.319.319,0,0,1,.308.224,9.255,9.255,0,0,1,.462,1.261c.981,3.039,1.064,3.375,1.947,5.967.8,2.381.9,2.577,1.7,2.577.182,0,.322.084.322.238,0,.21-.224.21-.322.21Zm-.658-4.048c.154,0,.35-.07.35-.224,0-.294-1.33-4.188-1.583-4.944-.084-.239-.112-.365-.21-.365s-.1.042-.252.5c-.392,1.135-1.485,4.693-1.485,4.819,0,.21.21.21.393.21Z" fill="#333"/>
      <path id="パス_142" data-name="パス 142" d="M1033.763,2709.287a4.136,4.136,0,0,0,3.53-1.905c.266-.392.294-.434.392-.434a.2.2,0,0,1,.21.21c0,.084-.532,1.457-.616,1.681-.35.882-.406.9-1.316.9h-5.87c-.21,0-.406,0-.406-.224s.154-.224.5-.224a.929.929,0,0,0,1.065-.728c.042-.238.042-3.46.042-3.866,0-.561,0-3.74-.042-3.992-.126-.715-.742-.715-1.261-.715-.1,0-.308,0-.308-.224s.2-.238.406-.238h3.474c.224,0,.421,0,.421.238s-.155.224-.505.224a.937.937,0,0,0-1.064.715c-.042.252-.042,3.235-.042,3.894a37.214,37.214,0,0,0,.042,3.964.9.9,0,0,0,.966.728Z" fill="#333"/>
      <path id="パス_143" data-name="パス 143" d="M1047.327,2709.735c-.14,0-.35,0-.35-.224s.2-.224.406-.224c.449,0,.6-.238.6-.448a.808.808,0,0,0-.055-.308c-.042-.126-1.471-2.4-1.639-2.676-.757-1.205-.841-1.344-.995-1.344s-.392.21-.7.546c-.56.616-.617.757-.617,1.289v1.975c0,.966.757.966,1.177.966.126,0,.28.042.28.224,0,.224-.21.224-.336.224h-3.32c-.14,0-.35,0-.35-.224s.2-.224.392-.224c.491,0,1.051-.182,1.051-.966v-7.368c0-.967-.757-.967-1.177-.967-.112,0-.266-.042-.266-.224,0-.238.21-.238.336-.238h3.306c.154,0,.364,0,.364.238s-.21.224-.392.224c-.448,0-1.065.154-1.065.967v3.586c0,.126.015.28.169.28.07,0,.126-.07.154-.084.126-.14,2.255-2.465,2.675-2.928.9-.98,1.008-1.093,1.008-1.359,0-.462-.546-.462-.952-.462-.042,0-.28,0-.28-.224s.21-.238.364-.238h3.46c.168,0,.378,0,.378.238s-.2.224-.462.224a2.682,2.682,0,0,0-1.639.519c-.294.224-1.821,1.9-2.409,2.549a.656.656,0,0,0-.224.434,1.08,1.08,0,0,0,.21.5c.532.841.77,1.219,2.927,4.637a2.018,2.018,0,0,0,1.541.658c.266,0,.266.2.266.224,0,.224-.21.224-.336.224Z" fill="#333"/>
    </g>
  </g>
  <g id="グループ_33" data-name="グループ 33" transform="translate(-749.831 -2645.656)">
    <g id="グループ_32" data-name="グループ 32">
      <path id="パス_144" data-name="パス 144" d="M763.343,2655.947c0,1.155-2.661,2.205-3.5,2.555-.49.175-.525.315-.595,1.54-.07.77-.07,3.6-.07,3.781,0,.21,0,.63.315.63.1,0,2.976-1.191,3.536-1.4,3.465-1.295,5.04-1.4,5.95-1.4a5.359,5.359,0,0,1,5.391,5.286c0,4.62-4.866,6.721-7.736,6.721-1.995,0-3.6-1.016-3.6-2.836a3.119,3.119,0,0,1,1.75-2.765.187.187,0,0,1,.175.175c0,.1-.07.175-.14.28a1.449,1.449,0,0,0-.315.945c0,1.68,1.925,1.68,2.275,1.68,2.31,0,5.251-1.54,5.251-4.341a3.626,3.626,0,0,0-3.361-3.849c-.98,0-3.15.454-7.246,2.625-1.96,1.05-2.17,1.155-2.17,1.75,0,.385.1,1.96.1,2.31,0,1.61-.525,3.92-1.785,3.92-.945,0-1.33-.735-1.61-1.295-1.12-2.17-1.295-2.17-1.75-2.17a2.917,2.917,0,0,0-.875.21,6.918,6.918,0,0,1-1.33.7c-.385,0-2.171-1.051-2.171-2.207,0-.629.385-1.364,1.015-1.364.211,0,1.226.175,1.436.175.945,0,1.575-.175,3.64-1.19,1.785-.875,1.995-.981,1.995-1.96,0-.806-.035-3.781-.07-4.376,0-.245-.1-.77-.49-.77a8.179,8.179,0,0,0-1.61.315,7.508,7.508,0,0,1-2.485.665c-1.19,0-2.521-2.415-2.521-2.66a.249.249,0,0,1,.28-.246c.1,0,.526.141.631.141a10.172,10.172,0,0,0,1.61.175,15.289,15.289,0,0,0,4.445-1.05,26.177,26.177,0,0,0,.35-3.815,3.44,3.44,0,0,0-1.155-2.8,3.506,3.506,0,0,1-.49-.56c0-.315.56-.385.77-.385,2.345,0,3.606,1.715,3.606,2.38a14,14,0,0,1-.736,1.821,18.672,18.672,0,0,0-.35,2.274c0,.141.07.386.28.386.246,0,1.225-.386,1.225-.875,0-.07-.175-.42-.175-.49,0-.035.071-.106.14-.141C761.663,2654.372,763.343,2654.862,763.343,2655.947Zm-7.981,13.406c0,.526.945,1.646,1.47,1.646.49,0,.98-.981.98-2.7,0-.14,0-.49-.105-.56C757.6,2667.743,755.362,2668.863,755.362,2669.353Zm23-10.886c0,.735-.42,1.68-1.155,1.68-.21,0-1.015-.07-1.19-.07-.175.035-.91.245-1.05.245a.163.163,0,0,1-.175-.175,2.419,2.419,0,0,1,.1-.28,1.842,1.842,0,0,0,.14-.63c0-1.4-1.75-1.89-2.94-1.89a3.047,3.047,0,0,0-1.366.35.775.775,0,0,1-.35.1c-.1,0-.14-.034-.14-.139a4.478,4.478,0,0,1,3.781-2.205C776.714,2655.457,778.359,2656.857,778.359,2658.467Z" fill="#333"/>
      <path id="パス_145" data-name="パス 145" d="M812.547,2659.132a30.854,30.854,0,0,0,8.47,2.765c.141,0,.736.106.736.245,0,.106-.49.245-.63.28a6.063,6.063,0,0,0-2.661,1.89c-.1.141-.49.876-.665.876-.21,0-7.806-3.676-11.236-9.276-.665-1.12-.77-1.226-1.015-1.226s-.315.07-1.085.875a41.577,41.577,0,0,1-10.361,8.156,30.316,30.316,0,0,1-5.5,2.241c-.1,0-.175-.071-.175-.1s3.746-2.346,4.061-2.556c4.725-2.975,9.731-8.331,10.221-10.956.035-.28.07-.384.315-.384.175,0,3.01,1.085,3.185,1.189.1.035.455.175.455.526a2.209,2.209,0,0,1-.14.49C806.6,2654.686,809.606,2657.627,812.547,2659.132Zm-16.872-8.716c-2.59,0-3.78.07-4.446.1-.1,0-.63.07-.735.07s-.175-.07-.315-.21l-.665-.805c-.14-.175-.14-.175-.14-.245s.035-.07.1-.07c.245,0,1.331.1,1.541.1,1.715.07,3.185.14,4.83.14h1.015c.735,0,.945-.35.945-.945a5.681,5.681,0,0,0-.28-1.855,5.327,5.327,0,0,1-.21-.7c0-.174.175-.245.385-.245.245,0,1.82.386,2.2.491,1.05.28,1.26.349,1.26.665,0,.21-.035.28-.525.91a.855.855,0,0,0-.245.63c0,.84.28,1.05,1.225,1.05H807.4c.315,0,1.05,0,1.05-.945a14.552,14.552,0,0,0-.1-1.575c-.035-.175-.21-.91-.21-1.051,0-.175.21-.244.385-.244.245,0,2.625.56,3.011.665s.6.244.6.56c0,.21-.14.35-.526.63a1.122,1.122,0,0,0-.455.98c0,.98.561.98,1.12.98h1.786c1.54,0,1.715,0,2.24-.6.98-1.156,1.085-1.295,1.4-1.295.21,0,3.255,1.855,3.255,2.31,0,.49-.7.49-1.855.49h-6.826c-1.084,0-1.084.56-1.084,1.4,0,.21.035,1.4.035,1.575,0,1.295-1.051,1.5-1.786,1.5-.805,0-.945-.14-.945-1.33v-2.415c-.105-.665-.525-.735-1.085-.735h-5.6c-.805,0-1.3,0-1.3.98,0,.351.1,1.891.1,2.205,0,.665-.1.981-.42,1.191a2.485,2.485,0,0,1-1.33.49c-.595,0-.875-.386-.875-1.085,0-.28.035-1.611.035-1.856,0-1.365,0-1.925-1.085-1.925Zm2.485,17.887a17.907,17.907,0,0,1,2.7,1.645.863.863,0,0,1,.28.525c0,.42-.28.49-1.12.7-.105.036-3.115,2.38-3.675,2.8a21.56,21.56,0,0,1-5.32,3.046.112.112,0,0,1-.106-.1c0-.071,1.856-1.68,2.1-1.925,2.9-2.766,4.69-5.531,5.005-6.652A.215.215,0,0,1,798.16,2668.3Zm1.61-1.855c-2.73,0-3.745.035-4.445.1-.105,0-.63.071-.735.071s-.175-.071-.315-.21l-.665-.805c-.14-.176-.14-.176-.14-.245,0-.035.035-.071.105-.071.245,0,1.33.106,1.54.106,1.715.1,3.185.14,4.83.14h2.626c.35,0,1.05,0,1.05-.946,0-.42-.21-3.255-.28-3.6,0-.07-.21-.42-.21-.49s.07-.21.35-.21c.245,0,2.7.525,3.045.63.49.1.665.42.665.595,0,.21-.07.28-.595.736-.49.419-.49.63-.49,1.679,0,1.261,0,1.611,1.05,1.611h1.54c1.541,0,1.716,0,2.24-.595.981-1.155,1.086-1.3,1.4-1.3.21,0,3.255,1.891,3.255,2.311,0,.49-.7.49-1.855.49h-6.616c-1.05,0-1.05.63-1.05,1.75,0,2.485,0,3.886.07,5.951.035.595.035,1.435.035,1.855,0,1.12-.28,1.785-1.785,1.785-.77,0-.84-.63-.84-1.225,0-.455.1-2.556.1-3.011.035-1.33.035-2.625.035-4.235a21.206,21.206,0,0,0-.07-2.38c-.175-.49-.735-.49-1.015-.49Zm9.346,2.94c0-.1.175-.14.315-.14,1.295,0,9.276,2.206,9.276,5.111,0,1.12-.63,2-1.5,2-.665,0-.805-.176-1.89-1.785a16.633,16.633,0,0,0-6.021-5.041C809.256,2669.528,809.116,2669.423,809.116,2669.388Z" fill="#333"/>
      <path id="パス_146" data-name="パス 146" d="M835.505,2664.347c0-1.05.98-2.17,3.36-4.935a16.126,16.126,0,0,0,2.975-5.215c0-.21-.245-.245-.385-.245-.35,0-1.785.279-2.1.279a3.714,3.714,0,0,1-3.115-3.08c0-.1,0-.245.21-.245a7.865,7.865,0,0,1,1.33.665,5.564,5.564,0,0,0,2.31.63c2.87,0,2.87-.945,2.87-1.645a2.79,2.79,0,0,0-.28-1.225c-.1-.175-.84-.805-.84-1.015,0-.28.91-.561,1.541-.561.84,0,1.715.316,1.785,1.085.035.456.175.526,1.575.631.245,0,1.575.175,1.575.91,0,1.155-2.555,2.135-4.165,2.765-.526.21-.56.28-1.331,2.065a27.151,27.151,0,0,1-1.89,3.781c-.175.315-.245.42-.245.56a.128.128,0,0,0,.14.14,6.976,6.976,0,0,0,1.085-.385,3.276,3.276,0,0,1,1.366-.28,3.157,3.157,0,0,1,2.975,2.135c.245.595.28.666.35.666a16.45,16.45,0,0,0,1.435-1.891c1.155-1.61,3.43-4.8,6.476-4.8a3.3,3.3,0,0,1,3.29,3.115c0,1.646-2.765,2.8-4.936,3.747-.875.384-4.83,1.959-5.46,2.344-.56.351-.6.736-.6,1.471,0,.314.07,1.785.07,2.1,0,.561,0,2.556-1.295,2.556-.945,0-1.085-1.155-1.085-1.785,0-.351.105-2.03.105-2.065,0-.14,0-.42-.246-.42-.279,0-3.395,2.17-3.395,4.165,0,2.416,3.5,2.416,4.516,2.416a10.908,10.908,0,0,0,2.24-.21c.49-.07,2.73-.631,3.185-.631.735,0,1.716.351,1.716,1.19,0,2.17-5.426,2.311-6.266,2.311-4.446,0-6.791-1.82-6.791-4.586,0-2.24,1.33-3.36,4.62-6.021a1.488,1.488,0,0,0,.526-1.224c0-1.575-.28-3.536-1.681-3.536-1.33,0-3.4,1.61-4.305,3.711-.385.875-.77,1.715-1.89,1.715C836.17,2665.5,835.505,2665.292,835.505,2664.347Zm8.926-13.231c.07,0,1.75-.455,1.75-.84,0-.455-.875-.525-1.19-.525-.49,0-.631.98-.631,1.12S844.36,2651.116,844.431,2651.116Zm3.185,11.342c0,.069.035.174.14.174s7-2.8,7-5.11a1.078,1.078,0,0,0-1.225-1.051C850.626,2656.471,847.616,2661.9,847.616,2662.458Z" fill="#333"/>
      <path id="パス_147" data-name="パス 147" d="M884.628,2649.646c0,.315-1.645,3.255-1.645,3.851,0,.245.175.49.63.8.84.595,1.26.981,1.26,1.5,0,.561-.385.841-2.59,1.611-.945.315-1.015.56-1.68,2.765a18.231,18.231,0,0,0-.735,3.045c0,.561.14.561,2.59.771.84.07,2.486.594,2.486,1.469,0,.63-.946,1.016-1.821,1.016-.525,0-3.045-.455-3.22-.455-.875,0-.875,1.644-.875,2.415.035,1.575.455,5.216,4.83,5.216,1.47,0,5.041-.63,5.041-4.761,0-1.5-.315-3.5-3.465-7.911a.562.562,0,0,1-.141-.35c0-.315.771.35.876.42,4.025,3.255,5.6,6.021,5.6,8.471,0,3.325-3.36,6.3-7.456,6.3-.665,0-6.685,0-6.685-6.336,0-.56.28-2.941.28-3.43,0-.421-.07-.665-.665-1.12a3.807,3.807,0,0,1-1.89-2.976c0-1.05.385-2.205,2.59-3.99,1.82-1.471,2.03-1.61,2.03-2.1,0-.455-.175-.595-.945-1.191-1.015-.8-2.346-1.854-2.346-3.325,0-.245.071-.63.316-.63.175,0,.77.735.91.84a5.189,5.189,0,0,0,2.38,1.226c.98,0,1.26-3.116,1.26-3.606a9.205,9.205,0,0,0-.35-2.346.688.688,0,0,1-.07-.349C882.178,2646.39,884.628,2648.7,884.628,2649.646Zm-5.81,8.821c-.8,0-2.555,1.19-2.555,2.52a2.3,2.3,0,0,0,1.785,2.1.446.446,0,0,0,.385-.28,22.63,22.63,0,0,0,.84-3.745C879.273,2658.782,879.273,2658.467,878.818,2658.467Z" fill="#333"/>
      <path id="パス_148" data-name="パス 148" d="M908.175,2662.948c0-.421.21-.561.49-.561s1.47.35,1.715.35c.665,0,1.05-.175,4.446-1.575,1.365-.56,5.075-2.065,7.771-2.065a7,7,0,0,1,7.14,6.931c0,5.391-5.705,8.121-11.1,8.121-.35,0-.875,0-.875-.421,0-.314.14-.349,1.225-.489,6.406-.876,8.436-5.322,8.436-8.262a4.544,4.544,0,0,0-4.375-4.76c-2.206,0-5.111,1.4-8.541,3.675-2.031,1.365-2.276,1.506-3.046,1.506C909.785,2665.4,908.175,2663.788,908.175,2662.948Z" fill="#333"/>
      <path id="パス_149" data-name="パス 149" d="M950.767,2664.1c1.05-.979,1.5-1.435,1.5-1.89a8.839,8.839,0,0,0-.315-1.084,11.263,11.263,0,0,1-.595-4.1c0-.8.175-4.865.175-5.776a3.272,3.272,0,0,0-1.05-2.835c-.735-.77-.84-.875-.84-.98,0-.141.84-.175.945-.175,1.995,0,3.781,1.61,3.781,2.625,0,.315-.42,1.89-.491,2.24a33.13,33.13,0,0,0-.314,4.621c0,1.33,0,4.165.91,4.165.49,0,.7-.14,2.59-1.33.385-.245,2.59-1.645,3.6-1.645a1.345,1.345,0,0,1,1.33,1.3c0,1.05-1.435,1.61-2.7,2.1-8.331,3.361-9.521,5.916-9.521,8.191,0,2.381,2.03,3.256,4.866,3.256a15.651,15.651,0,0,0,4.2-.631,9.5,9.5,0,0,1,2.625-.524c1.19,0,2.31.8,2.31,1.679,0,1.785-7.14,1.961-8.995,1.961-1.611,0-6.686,0-6.686-5.5A7.936,7.936,0,0,1,950.767,2664.1Z" fill="#333"/>
      <path id="パス_150" data-name="パス 150" d="M985.175,2666.552c-3.08,0-4.095.071-4.445.071a5.323,5.323,0,0,1-.735.1c-.14,0-.175-.1-.315-.245l-.665-.806a.514.514,0,0,1-.141-.21.093.093,0,0,1,.106-.1c.245,0,1.33.14,1.54.14,1.715.07,3.15.1,4.795.1h7.491c.665,0,.91-.176.91-.945a12.7,12.7,0,0,0-.175-1.75c-.035-.21-.315-1.156-.315-1.366,0-.174.035-.419.49-.419.28,0,2.1.489,2.345.559.281.1.6.245.6.561a6.239,6.239,0,0,1-.42.839,1.846,1.846,0,0,0-.315,1.3c0,.84.036,1.226,1.05,1.226h7.211c1.505,0,1.681,0,1.995-.316.245-.209,1.155-1.469,1.471-1.469a8.063,8.063,0,0,1,2.625,2.24c0,.489-.735.489-1.89.489H997.811c-.314,0-.594,0-.594.386,0,1.155,6.335,6.091,13.441,6.686.07,0,.63.035.63.139s-.035.106-.42.21a4.155,4.155,0,0,0-2.9,2.136c-.175.42-.175.49-.315.49-.351,0-8.331-3.711-11.062-8.611-.21-.42-.28-.56-.42-.56-.245,0-.245.42-.245.489,0,1.331.21,7.072.21,8.261a1.354,1.354,0,0,1-1.365,1.506c-.385,0-1.33-.21-1.33-1.575,0-1.226.245-6.581.245-7.666,0-.106,0-.35-.245-.35a12.944,12.944,0,0,0-1.68,1.54,25.467,25.467,0,0,1-12.006,6.056c-.945.175-1.505.279-1.575.279-.106,0-.176-.034-.176-.139s.07-.14.6-.35c5.985-2.275,12.391-7.421,12.391-8.541,0-.386-.56-.386-.8-.386Zm-2.205-3.115c-.035.21-.035.561-.49.561-.28,0-2.94-1.926-2.94-2.451,0-.21.105-.245,1.12-.77,1.3-.665,7.525-5.181,7.561-5.181a.112.112,0,0,1,.1.106c0,.314-4.271,5.705-5.041,6.685A1.642,1.642,0,0,0,982.97,2663.437Zm1.96-9.556c-.665,0-.91-.42-1.19-.945a12.665,12.665,0,0,0-3.36-4.06,1.944,1.944,0,0,1-.28-.246c0-.069.07-.1.175-.1a9.733,9.733,0,0,1,2.94.7c2.52,1.015,3.15,1.61,3.15,3.01A1.559,1.559,0,0,1,984.93,2653.881Zm12.287-4.165a1.8,1.8,0,0,0,1.225-.35c.14-.14.77-1.05.98-1.05.28,0,2.38,1.4,2.38,2a.789.789,0,0,1-.28.49c-.455.42-.49.455-.49.8,0,1.191.315,6.931.315,8.261,0,1.261-.63,2.1-1.61,2.1a1.052,1.052,0,0,1-1.05-1.12c-.07-.91-.455-.98-.98-.98h-5.426a.859.859,0,0,0-1.015.805c-.035.665-.1,1.75-1.61,1.75-1.015,0-1.015-.77-1.015-1.12,0-.945.21-5.6.21-6.65a32.745,32.745,0,0,0-.281-4.761,11.48,11.48,0,0,1-.244-1.155c0-.245.175-.315.42-.315.455,0,2.38,1.3,2.87,1.3.63,0,.945-1.925.945-2.8,0-.14-.07-.736-.07-.875,0-.316.175-.385.525-.385s3.326.63,3.326,1.295c0,.21-.106.28-.911.8-.245.176-1.82,1.366-1.82,1.716,0,.245.21.245.665.245Zm.35,4.375c1.155,0,1.155-.559,1.155-1.679,0-1.261,0-1.785-1.155-1.785h-5.251c-1.155,0-1.155.524-1.155,1.609,0,1.4,0,1.855,1.155,1.855Zm.034,4.831c1.121,0,1.121-.42,1.121-2.03,0-1.4,0-1.89-1.121-1.89h-5.285c-1.155,0-1.155.525-1.155,1.679,0,1.891,0,2.241,1.155,2.241Zm10.922,3.85c-.56,0-.665-.14-2.871-2.59-.56-.63-3.71-3.815-3.71-3.885,0-.105.07-.105.1-.105.35,0,7.456,2.03,7.456,5.425C1009.5,2662.493,1008.978,2662.772,1008.523,2662.772Zm-5.5-8.436c-.1,0-.14-.07-.14-.1s.875-1.05,1.05-1.26c.875-1.155,2.45-3.4,2.591-4.445.07-.49.07-.595.279-.595a8.76,8.76,0,0,1,3.256,2.485c0,.28-.175.315-.735.455a2.658,2.658,0,0,0-1.225.56C1007.052,2652.167,1003.692,2654.336,1003.027,2654.336Z" fill="#333"/>
      <path id="パス_151" data-name="パス 151" d="M1031.012,2651.536a16.178,16.178,0,0,1-.665,1.961,84.122,84.122,0,0,0-1.47,12.461c0,3.535.665,6.685,5.355,6.685a17.229,17.229,0,0,0,7.351-1.82c.525-.245,3.186-1.715,3.325-1.715a.163.163,0,0,1,.175.175c0,.386-5.18,6.02-11.761,6.02-4.55,0-6.721-2.625-6.721-9.661,0-2.17.071-2.87.806-9.73.14-1.156.455-4.026.455-5.006a4.408,4.408,0,0,0-.315-1.715c-.035-.1-.385-.91-.385-.945,0-.245.28-.35.49-.35C1029.472,2647.9,1031.012,2650.731,1031.012,2651.536Z" fill="#333"/>
      <path id="パス_152" data-name="パス 152" d="M1067.608,2648.981c.28,1.191.35,1.505,1.12,1.575,1.645.175,2.275.245,2.275,1.3,0,.875-.77,1.436-1.96,1.96-.35.141-1.995.63-2.345.841-.525.314-.665,2.484-.665,2.87a1.055,1.055,0,0,0,.385.84,3.673,3.673,0,0,1,1.155,2.835,5.8,5.8,0,0,1-1.855,4.376c-.385.28-.49.385-.49.769,0,.316.385,1.751.385,2.1a1.255,1.255,0,0,1-.77,1.155c-.63.315-.771.385-.771.77,0,1.751,2,2.555,5.881,2.555,6.441,0,7.141-1.714,7.246-7.84.07-3.08.21-9.242,3.955-9.242,2.171,0,4.376,4.131,4.376,6.126a1.513,1.513,0,0,1-1.155,1.646,12.94,12.94,0,0,1-1.681-.876c-.35-.1-2.2-.525-2.2-.734s1.225-.526,1.435-.666a1.2,1.2,0,0,0,.666-1.225c0-1.505-.911-3.115-2.066-3.115-2.03,0-2.45,3.08-2.45,6.86,0,1.155.14,3.081.245,4.1.07.525.595,3.01.595,3.605,0,3.676-7.071,3.816-8.856,3.816-6.9,0-7.351-3.08-7.351-3.991,0-.315.281-1.714.281-2.03,0-.455-.071-.525-.771-1.33a9.784,9.784,0,0,1-1.995-5.636,4.6,4.6,0,0,1,2.9-4.41c.175-.07,1.086-.28,1.3-.35.246-.07.316-1.89.316-2.031,0-.455-.176-.489-.385-.489-.351,0-2.136.454-2.556.454a3.285,3.285,0,0,1-2.66-2.939c0-.106.035-.491.28-.491.28,0,1.61.385,1.925.455a8.508,8.508,0,0,0,2.065.211c1.646,0,1.926,0,1.926-1.3a5.6,5.6,0,0,0-.56-2.416c-.1-.21-.806-1.085-.806-1.331,0-.455.876-.384,1.156-.349C1065.928,2647.546,1067.4,2648.071,1067.608,2648.981Zm-3.851,10.606c-.875,0-1.925.98-1.925,2.8,0,1.226.63,2.556,1.61,2.556.421,0,.6-.455.7-.771a29.254,29.254,0,0,0,.419-3.464C1064.562,2659.937,1064.283,2659.587,1063.757,2659.587Zm3.361-7.946c0,.245.07.35.245.35.035,0,1.19-.315,1.19-.7a.707.707,0,0,0-.735-.561.84.84,0,0,0-.35.07C1067.118,2651.011,1067.118,2651.571,1067.118,2651.641Z" fill="#333"/>
      <path id="パス_153" data-name="パス 153" d="M1107.35,2657.557c-.49.07-.84.35-1.75,1.54a40.136,40.136,0,0,1-7.421,8.226,6.275,6.275,0,0,1-1.96,1.19c-.07,0-.14,0-.14-.07s1.785-2.276,2.1-2.731c.665-.91,4.166-5.775,5.6-9.555.455-1.191.49-1.33.665-1.33a22.794,22.794,0,0,1,3.325,1.54c.42.245.595.594.455.875C1108.12,2657.487,1107.98,2657.487,1107.35,2657.557Zm7.806-10.011c0,.28-.14.385-.665.84-.28.21-.455.56-.49,1.4-.1,2.065-.14,4.2-.14,6.3,0,3.081,0,15.157-.035,16.382a4.313,4.313,0,0,1-1.61,3.851,4.811,4.811,0,0,1-2.486.945c-.175,0-.175,0-.56-1.051-.42-1.084-.77-1.33-2.31-2.169-.42-.246-.735-.42-.735-.561s.21-.14.385-.14c.42,0,2.24.175,2.625.175.8,0,1.716-.139,2-1.085.245-.875.245-9.766.245-11.305,0-6.266-.141-10.887-.21-13.408,0-.21-.14-1.085-.14-1.295s.245-.245.385-.245c.28,0,1.4.245,1.75.316C1114.071,2646.671,1115.156,2646.916,1115.156,2647.546Zm11.236,20.547c-.77,0-.8-.035-2.415-2.94a40.792,40.792,0,0,0-5.846-8.192c-.315-.314-.63-.7-.63-.875,0-.139.14-.139.21-.139.8,0,9.941,5.32,9.941,10.011C1127.652,2666.342,1127.652,2668.093,1126.392,2668.093Z" fill="#333"/>
      <path id="パス_154" data-name="パス 154" d="M1147.747,2652.412c.42,0,.56,0,.91-.526.875-1.225.945-1.365,1.26-1.365.525,0,2.871,1.82,2.871,2.38,0,.42-.456.42-1.295.42h-7.981c-.735,0-1.89,0-2.836.07a6.215,6.215,0,0,1-.735.106c-.1,0-.14-.071-.21-.21l-.49-.806c-.07-.175-.1-.175-.1-.245,0-.035.035-.069.1-.069,0,0,.735.1.875.1.91.07,2.661.141,3.536.141Zm-1.015,4.2c.525,0,.56-.035.98-.526.77-.839.84-.945,1.015-.945.595,0,2.38,1.471,2.38,1.961,0,.42-.525.42-1.505.42h-4.34c-.63,0-1.96,0-2.871.069-.1,0-.594.106-.7.106s-.175-.106-.244-.21l-.456-.84c-.1-.141-.1-.176-.1-.21s.035-.07.1-.07c0,0,.7.07.841.1.91.071,2.66.141,3.535.141Zm-2.135,17.957c-1.085,0-1.085.455-1.085,1.33a1.472,1.472,0,0,1-1.505,1.505c-.981,0-.981-.875-.981-1.155,0-.946.1-5.705.1-6.791a18.215,18.215,0,0,0-.1-2.73c0-.141-.14-.875-.14-1.016,0-.209.071-.455.315-.455a5.006,5.006,0,0,1,1.366.42,2.768,2.768,0,0,0,1.645.455h2.52a1.285,1.285,0,0,0,1.155-.384c.49-.595.56-.665.84-.665.175,0,2.38.839,2.38,1.61,0,.21-.21.385-.35.49-.384.245-.455.315-.49.489-.035.141-.035,3.816-.035,3.992,0,.769,0,1.154.035,1.54.035.21.175,1.295.175,1.434a1.548,1.548,0,0,1-1.61,1.471c-.665,0-.7-.28-.805-.945-.1-.595-.8-.595-.98-.595Zm.77-25.518c-.875,0-2.065,0-2.87.07-.106,0-.631.1-.736.1-.07,0-.139-.1-.21-.21l-.455-.805c-.1-.175-.1-.175-.1-.246,0-.034,0-.069.07-.069.035,0,.736.069.875.1.911.07,2.661.14,3.536.14.98,0,1.015,0,1.435-.525.805-1.085.91-1.226,1.155-1.226.49,0,2.45,1.646,2.45,2.206,0,.455-.455.455-1.225.455Zm1.785,12.286a.911.911,0,0,0,.98-.49c.455-.594.665-.91.945-.91a5,5,0,0,1,2.066,1.925c0,.42-.526.42-1.436.42h-4.34a21.021,21.021,0,0,0-3.08.1c-.07,0-.421.071-.49.071-.106,0-.141-.071-.246-.246l-.455-.8c-.1-.14-.1-.175-.1-.21,0-.069.035-.069.1-.069,0,0,.736.1.876.1.98.1,2.555.1,3.5.1Zm-2.695,5.741c-.385,0-1.05.035-1.05,1.015,0,1.12,0,4.165.14,4.936.1.63.665.63,1.015.63h2.485a.844.844,0,0,0,.98-.946v-4.655c0-.735-.35-.98-.98-.98Zm19.987-10.992c1.47,0,1.855,0,2.24-.629.56-.946.805-1.33,1.225-1.33.455,0,2.975,1.75,2.975,2.31s-.805.56-1.995.56h-5.88c-.525,0-.98.139-1.015.77-.035.385-.035,5.215-.035,5.846,0,.979.595.979,1.155.979h1.19a1.385,1.385,0,0,0,1.19-.384c.385-.526.42-.595.735-.595a4.943,4.943,0,0,1,2.415,1.715c0,.21-.7.769-.805.91a1.173,1.173,0,0,0-.175.735c0,.525.035,4.13.105,5.425,0,.386.21,2.065.21,2.416a1.6,1.6,0,0,1-1.75,1.575c-.7,0-.77-.211-.875-.98-.1-.595-.735-.63-1.085-.63h-6.9c-.455,0-1.12.035-1.12.91,0,.595,0,1.645-1.47,1.645-1.12,0-1.12-.77-1.12-1.121,0-.245.07-1.155.07-1.224.035-.771.035-4.306.035-5.286a35.85,35.85,0,0,0-.1-4.515c0-.141-.14-.876-.14-1.016,0-.28.14-.49.42-.49a6.127,6.127,0,0,1,1.96.665,2.27,2.27,0,0,0,1.19.245h1.435c1.085,0,1.19-.28,1.19-1.33v-5.32c0-.735-.42-.945-1.015-.945h-.91c-3.045,0-4.06.07-4.41.1-.105,0-.63.07-.735.07-.141,0-.21-.07-.316-.211l-.665-.8c-.139-.175-.174-.175-.174-.245s.069-.071.139-.071c.246,0,1.331.106,1.541.106,1.715.069,3.15.139,4.8.139h.735c1.015,0,1.015-.594,1.015-.979v-4.446c0-.56-.07-.875-.7-.875-.84,0-4.62.49-5.39.49-.175,0-.385-.07-.385-.175,0-.28,5.95-1.54,6.755-1.82.8-.245,4.1-1.365,4.551-1.61.735-.385.84-.456.98-.456a17.031,17.031,0,0,1,1.785.875c1.225.63,1.33.7,1.33,1.085,0,.316-.35.526-.77.526-.1,0-1.05-.035-1.12-.035-.21,0-3.99.8-4.27.875-.35.07-.49.175-.49,1.05,0,1.645,0,4.795.035,4.9.1.594.77.594.98.594Zm-7.176,9.452c-1.12,0-1.225.315-1.225,1.4,0,.944,0,5.846.175,6.441.14.49.735.49,1.155.49h6.861c.455,0,1.155,0,1.155-.875v-6.476c0-.98-.665-.98-1.12-.98Z" fill="#333"/>
    </g>
  </g>
</svg>
