<svg id="talk_h_sp" xmlns="http://www.w3.org/2000/svg" width="745" height="100" viewBox="0 0 745 100">
  <rect id="長方形_22" data-name="長方形 22" width="745" height="100" fill="#ffc946" opacity="0"/>
  <g id="グループ_318" data-name="グループ 318" transform="translate(-1362.271 -2411.072)">
    <g id="グループ_315" data-name="グループ 315">
      <g id="グループ_314" data-name="グループ 314">
        <path id="パス_1431" data-name="パス 1431" d="M1587.616,2503.227c-4.438,0-7.519-3.633-7.519-8.807s3.058-8.83,7.519-8.83c4.415,0,7.5,3.633,7.5,8.83C1595.113,2499.571,1592.054,2503.227,1587.616,2503.227Zm5.312-9.014c0-2.116-.6-7.865-5.312-7.865-5.151,0-5.334,6.762-5.334,8.279,0,2.207.666,7.841,5.334,7.841C1592.744,2502.468,1592.928,2495.776,1592.928,2494.213Z" fill="#333"/>
        <path id="パス_1432" data-name="パス 1432" d="M1614.093,2485.866c0,.023,1.494,3.633,1.494,3.886a.432.432,0,0,1-.437.414c-.206,0-.252-.07-.735-.736-1.955-2.76-4-3.082-4.967-3.082-3.61,0-5.473,4.416-5.473,8.394,0,5.335,3.128,7.426,5.864,7.426,1.609,0,3.449-.689,4.967-3.264.529-.9.529-.92.713-.92a.358.358,0,0,1,.344.368,7.6,7.6,0,0,1-1.31,2.322,6.706,6.706,0,0,1-5.4,2.553c-4.852,0-7.22-3.932-7.22-8.439,0-5.381,3.334-9.2,7.22-9.2a7.973,7.973,0,0,1,1.955.276,11.334,11.334,0,0,0,1.379.367.946.946,0,0,0,.621-.229c.368-.369.414-.414.6-.414A.526.526,0,0,1,1614.093,2485.866Z" fill="#333"/>
        <path id="パス_1433" data-name="パス 1433" d="M1632.85,2493.845c.62,0,.62-.138.62-3.173,0-3.335,0-3.91-2.138-3.91-.184,0-.6,0-.6-.39,0-.345.414-.345.621-.345h5.864c.16,0,.6,0,.6.368,0,.391-.3.391-1.011.391a1.458,1.458,0,0,0-1.4.85c-.184.484-.207.552-.207,8.876a36.757,36.757,0,0,0,.184,4.668c.322.874,1.265.874,1.7.874.345,0,.735,0,.735.368s-.437.368-.6.368h-5.864c-.23,0-.621,0-.621-.344,0-.369.414-.369.667-.369a2.248,2.248,0,0,0,1.61-.459c.459-.461.459-.484.459-4.692,0-2.138,0-2.322-.62-2.322h-6.186a.615.615,0,0,0-.529.275c-.092.254-.092,2.53-.092,2.967,0,3.772,0,4.231,2.162,4.231.161,0,.574,0,.574.391,0,.322-.413.322-.62.322H1622.3c-.138,0-.6,0-.6-.368s.3-.368,1.012-.368a1.462,1.462,0,0,0,1.495-1.173c.091-.551.091-6.139.091-9.083a32.916,32.916,0,0,0-.161-4.139c-.3-.873-1.264-.873-1.7-.873-.345,0-.736,0-.736-.391,0-.368.437-.368.6-.368h5.864c.23,0,.62,0,.62.345,0,.39-.39.39-.666.39-2.07,0-2.07.69-2.07,3.633,0,.414,0,2.943.092,3.15a.556.556,0,0,0,.529.3Z" fill="#333"/>
        <path id="パス_1434" data-name="パス 1434" d="M1655.918,2502.79c-.253,0-.552-.069-.552-.368,0-.368.368-.368.92-.368a1.01,1.01,0,0,0,.943-1.012,12.467,12.467,0,0,0-.851-2.69c-.506-1.287-.575-1.449-1.334-1.449h-4.99c-.85,0-.942.23-1.31,1.265a18.367,18.367,0,0,0-.828,2.989c0,.9.736.9,1.288.9.276,0,.528.046.528.368,0,.368-.344.368-.528.368h-4.415c-.184,0-.483-.023-.483-.344,0-.392.253-.392.781-.392a1.932,1.932,0,0,0,1.748-.92c.529-.713,2.23-6.116,2.736-7.749.3-.92,1.771-5.427,2.07-6.462.23-.8.368-1.333,2-1.333a.524.524,0,0,1,.506.367,15.12,15.12,0,0,1,.758,2.071c1.61,4.989,1.748,5.541,3.2,9.795,1.311,3.91,1.471,4.231,2.782,4.231.3,0,.529.138.529.392,0,.344-.368.344-.529.344Zm-1.081-6.645c.253,0,.575-.115.575-.369,0-.483-2.184-6.875-2.6-8.117-.138-.391-.184-.6-.345-.6-.138,0-.161.069-.414.828-.644,1.863-2.437,7.7-2.437,7.91,0,.346.344.346.643.346Z" fill="#333"/>
        <path id="パス_1435" data-name="パス 1435" d="M1680.737,2501.94c-.161-.414-1.15-3.014-1.15-3.15a.487.487,0,0,1,.506-.484c.253,0,.3.114.851.966a6.8,6.8,0,0,0,5.4,3.15,3.314,3.314,0,0,0,3.4-3.472c0-2.092-1.379-2.828-4.3-3.84-3.2-1.1-5.312-2.322-5.312-5.059a4.333,4.333,0,0,1,4.6-4.461,9.084,9.084,0,0,1,1.633.184c.253.046,1.218.253,1.38.253a.871.871,0,0,0,.505-.138c.322-.254.369-.3.529-.3.276,0,.345.207.575.8.161.367,1.242,3.081,1.242,3.219a.362.362,0,0,1-.391.368c-.184,0-.23-.069-.6-.667a5.331,5.331,0,0,0-4.691-2.967,2.941,2.941,0,0,0-3.127,3.035c0,1.909,1.379,2.6,4.392,3.657,4.645,1.61,5.266,3.449,5.266,5.22a4.876,4.876,0,0,1-4.99,4.967,7.385,7.385,0,0,1-2.483-.46,2.992,2.992,0,0,0-.92-.229,1.186,1.186,0,0,0-.874.3c-.391.345-.437.391-.667.391C1681.22,2503.227,1681.174,2503.088,1680.737,2501.94Z" fill="#333"/>
        <path id="パス_1436" data-name="パス 1436" d="M1708.13,2493.845c.621,0,.621-.138.621-3.173,0-3.335,0-3.91-2.138-3.91-.184,0-.6,0-.6-.39,0-.345.414-.345.621-.345h5.864c.16,0,.6,0,.6.368,0,.391-.3.391-1.012.391a1.458,1.458,0,0,0-1.4.85c-.184.484-.207.552-.207,8.876a36.757,36.757,0,0,0,.184,4.668c.322.874,1.264.874,1.7.874.346,0,.736,0,.736.368s-.437.368-.6.368h-5.864c-.23,0-.621,0-.621-.344,0-.369.414-.369.667-.369a2.25,2.25,0,0,0,1.61-.459c.459-.461.459-.484.459-4.692,0-2.138,0-2.322-.621-2.322h-6.185a.615.615,0,0,0-.529.275c-.092.254-.092,2.53-.092,2.967,0,3.772,0,4.231,2.161,4.231.162,0,.575,0,.575.391,0,.322-.413.322-.621.322h-5.863c-.138,0-.6,0-.6-.368s.3-.368,1.012-.368a1.461,1.461,0,0,0,1.494-1.173c.092-.551.092-6.139.092-9.083a32.916,32.916,0,0,0-.161-4.139c-.3-.873-1.265-.873-1.7-.873-.344,0-.735,0-.735-.391,0-.368.437-.368.6-.368h5.863c.23,0,.621,0,.621.345,0,.39-.391.39-.666.39-2.07,0-2.07.69-2.07,3.633,0,.414,0,2.943.092,3.15a.556.556,0,0,0,.529.3Z" fill="#333"/>
        <path id="パス_1437" data-name="パス 1437" d="M1726.349,2503.227c-4.438,0-7.519-3.633-7.519-8.807s3.058-8.83,7.519-8.83c4.415,0,7.5,3.633,7.5,8.83C1733.845,2499.571,1730.787,2503.227,1726.349,2503.227Zm5.312-9.014c0-2.116-.6-7.865-5.312-7.865-5.151,0-5.335,6.762-5.335,8.279,0,2.207.667,7.841,5.335,7.841C1731.477,2502.468,1731.661,2495.776,1731.661,2494.213Z" fill="#333"/>
        <path id="パス_1438" data-name="パス 1438" d="M1746.361,2486.027c1.1,0,6.347.114,6.347,3.977,0,2.346-1.77,3.405-3.059,4.025-.8.391-.9.436-.9.69a40.966,40.966,0,0,0,2.391,5.5,2.865,2.865,0,0,0,2.713,1.839c.23,0,.69,0,.69.368,0,.323-.46.368-.574.368H1751.1a1.125,1.125,0,0,1-1.08-.666c-.139-.231-1.771-3.795-2.024-4.37-1.265-2.783-1.426-3.15-2.231-3.15H1744.5c-.161,0-.46.092-.529.275-.092.231-.092,3.266-.092,3.8,0,2.783,0,3.38,2.115,3.38.161,0,.483,0,.483.368s-.413.368-.666.368h-5.68c-.23,0-.575-.045-.575-.368,0-.368.322-.368.644-.368,1.586,0,1.816-.735,1.885-1.587.046-.781.046-7.1.046-8.185a36.964,36.964,0,0,0-.184-4.646c-.3-.85-1.287-.85-1.816-.85-.138,0-.621,0-.621-.414,0-.345.414-.345.69-.345Zm-.827.759c-1.656,0-1.656,1.035-1.656,3.4,0,3.61,0,3.679.621,3.679h1.862c2.254,0,4.162-1.242,4.162-3.633,0-1.61-.874-3.449-3.863-3.449Z" fill="#333"/>
        <path id="パス_1439" data-name="パス 1439" d="M1772.465,2486.027c1.242,0,1.517,0,1.909,1.034.184.506,1.172,3.1,1.172,3.334a.354.354,0,0,1-.368.346c-.184,0-.253-.092-.781-.966-1.219-2-2.576-2.989-4.14-2.989-.9,0-1.448.367-1.586,1.149-.069.414-.069,5.61-.069,6.577,0,.644,0,5.955.069,6.346.207,1.174,1.288,1.2,1.908,1.2.851,0,1.035,0,1.035.368s-.322.368-.69.368h-6.438c-.322,0-.667,0-.667-.368s.368-.368.506-.368c1.357,0,2.207,0,2.437-1.2.069-.367.069-.391.069-6.507,0-5.681,0-6.3-.161-6.737a1.434,1.434,0,0,0-1.471-.828c-1.84,0-3.2,1.449-4.139,2.966-.553.9-.6.989-.806.989a.374.374,0,0,1-.367-.346c0-.184,1.034-2.943,1.219-3.4.367-.966.735-.966,1.885-.966Z" fill="#333"/>
        <path id="パス_1440" data-name="パス 1440" d="M1806.781,2486.027c1.242,0,1.517,0,1.908,1.034.184.506,1.173,3.1,1.173,3.334a.354.354,0,0,1-.368.346c-.184,0-.253-.092-.782-.966-1.218-2-2.575-2.989-4.139-2.989-.9,0-1.448.367-1.587,1.149-.068.414-.068,5.61-.068,6.577,0,.644,0,5.955.068,6.346.207,1.174,1.288,1.2,1.909,1.2.851,0,1.035,0,1.035.368s-.322.368-.69.368H1798.8c-.321,0-.667,0-.667-.368s.368-.368.506-.368c1.357,0,2.208,0,2.438-1.2.069-.367.069-.391.069-6.507,0-5.681,0-6.3-.161-6.737a1.434,1.434,0,0,0-1.472-.828c-1.839,0-3.2,1.449-4.139,2.966-.552.9-.6.989-.805.989a.374.374,0,0,1-.368-.346c0-.184,1.035-2.943,1.219-3.4.368-.966.736-.966,1.886-.966Z" fill="#333"/>
        <path id="パス_1441" data-name="パス 1441" d="M1826.05,2502.79c-.253,0-.552-.069-.552-.368,0-.368.368-.368.92-.368a1.01,1.01,0,0,0,.943-1.012,12.467,12.467,0,0,0-.851-2.69c-.506-1.287-.575-1.449-1.334-1.449h-4.99c-.851,0-.942.23-1.31,1.265a18.269,18.269,0,0,0-.828,2.989c0,.9.736.9,1.287.9.276,0,.529.046.529.368,0,.368-.344.368-.529.368h-4.415c-.184,0-.482-.023-.482-.344,0-.392.252-.392.781-.392a1.933,1.933,0,0,0,1.748-.92c.529-.713,2.23-6.116,2.736-7.749.3-.92,1.771-5.427,2.07-6.462.23-.8.368-1.333,2-1.333a.523.523,0,0,1,.506.367,15.262,15.262,0,0,1,.759,2.071c1.61,4.989,1.748,5.541,3.2,9.795,1.311,3.91,1.472,4.231,2.783,4.231.3,0,.529.138.529.392,0,.344-.368.344-.529.344Zm-1.081-6.645c.253,0,.575-.115.575-.369,0-.483-2.185-6.875-2.6-8.117-.138-.391-.184-.6-.345-.6-.138,0-.161.069-.414.828-.644,1.863-2.437,7.7-2.437,7.91,0,.346.344.346.643.346Z" fill="#333"/>
        <path id="パス_1442" data-name="パス 1442" d="M1844.637,2502.054a6.792,6.792,0,0,0,5.8-3.128c.437-.642.483-.713.644-.713a.323.323,0,0,1,.345.346c0,.138-.874,2.391-1.012,2.76-.575,1.448-.667,1.471-2.161,1.471h-9.636c-.344,0-.666,0-.666-.368s.253-.368.827-.368a1.525,1.525,0,0,0,1.748-1.2c.069-.391.069-5.68.069-6.346,0-.92,0-6.14-.069-6.554-.207-1.172-1.219-1.172-2.069-1.172-.161,0-.506,0-.506-.369,0-.39.322-.39.666-.39h5.7c.368,0,.69,0,.69.39,0,.369-.253.369-.828.369a1.539,1.539,0,0,0-1.747,1.172c-.069.414-.069,5.312-.069,6.393,0,6.116,0,6.14.069,6.507a1.47,1.47,0,0,0,1.586,1.2Z" fill="#333"/>
        <path id="パス_1443" data-name="パス 1443" d="M1866.845,2502.79c-.23,0-.575,0-.575-.368s.322-.368.667-.368c.736,0,.989-.391.989-.735a1.312,1.312,0,0,0-.092-.506c-.069-.207-2.415-3.933-2.69-4.393-1.242-1.977-1.38-2.207-1.633-2.207-.276,0-.644.344-1.15.9-.92,1.012-1.012,1.242-1.012,2.115v3.242c0,1.587,1.242,1.587,1.932,1.587.207,0,.46.07.46.368,0,.368-.345.368-.552.368h-5.45c-.23,0-.575,0-.575-.368s.322-.368.644-.368c.805,0,1.725-.3,1.725-1.587v-12.095c0-1.586-1.242-1.586-1.932-1.586-.184,0-.437-.07-.437-.369,0-.39.345-.39.552-.39h5.427c.253,0,.6,0,.6.39,0,.369-.345.369-.644.369-.736,0-1.748.253-1.748,1.586v5.886c0,.207.023.461.276.461.115,0,.207-.115.253-.138.207-.23,3.7-4.047,4.392-4.806,1.472-1.61,1.656-1.794,1.656-2.231,0-.758-.9-.758-1.564-.758-.069,0-.46,0-.46-.369,0-.39.345-.39.6-.39h5.68c.276,0,.621,0,.621.39,0,.369-.322.369-.759.369a4.4,4.4,0,0,0-2.69.85c-.483.368-2.99,3.128-3.955,4.185a1.075,1.075,0,0,0-.369.713,1.764,1.764,0,0,0,.346.828c.873,1.38,1.264,2,4.8,7.611a3.307,3.307,0,0,0,2.53,1.081c.437,0,.437.321.437.368,0,.368-.345.368-.552.368Z" fill="#333"/>
      </g>
    </g>
    <g id="グループ_317" data-name="グループ 317">
      <g id="グループ_316" data-name="グループ 316">
        <path id="パス_1444" data-name="パス 1444" d="M1483.1,2435.084c0,1.815-4.18,3.465-5.5,4.015-.77.275-.826.495-.936,2.419-.109,1.211-.109,5.665-.109,5.939,0,.331,0,.991.494.991.165,0,4.675-1.869,5.554-2.2,5.445-2.036,7.919-2.2,9.35-2.2a8.42,8.42,0,0,1,8.468,8.3c0,7.26-7.644,10.559-12.153,10.559-3.135,0-5.665-1.595-5.665-4.454,0-2.585,2.255-4.345,2.75-4.345a.294.294,0,0,1,.275.275c0,.164-.109.275-.22.44a2.276,2.276,0,0,0-.494,1.484c0,2.641,3.024,2.641,3.574,2.641,3.63,0,8.249-2.42,8.249-6.82,0-3.905-2.915-6.05-5.28-6.05-1.539,0-4.949.715-11.383,4.125-3.079,1.651-3.41,1.815-3.41,2.75,0,.6.166,3.08.166,3.629,0,2.53-.826,6.16-2.8,6.16-1.485,0-2.09-1.156-2.53-2.035-1.76-3.41-2.035-3.41-2.749-3.41a4.6,4.6,0,0,0-1.375.33,10.874,10.874,0,0,1-2.09,1.1c-.6,0-3.409-1.649-3.409-3.465,0-.989.6-2.144,1.594-2.144.33,0,1.925.275,2.255.275,1.485,0,2.475-.275,5.719-1.869,2.805-1.375,3.135-1.541,3.135-3.08,0-1.265-.055-5.94-.11-6.874,0-.386-.165-1.21-.77-1.21a12.875,12.875,0,0,0-2.53.495c-2.8.934-3.08,1.045-3.9,1.045-1.87,0-3.96-3.8-3.96-4.18a.39.39,0,0,1,.44-.385c.165,0,.825.22.99.22a15.974,15.974,0,0,0,2.53.275,24.023,24.023,0,0,0,6.984-1.65c.275-.385.55-5.389.55-5.994a5.4,5.4,0,0,0-1.815-4.4,5.506,5.506,0,0,1-.77-.879c0-.495.88-.6,1.21-.6,3.684,0,5.664,2.694,5.664,3.739a22.167,22.167,0,0,1-1.155,2.86,29.406,29.406,0,0,0-.55,3.574c0,.221.11.6.44.6.385,0,1.925-.6,1.925-1.375,0-.109-.275-.66-.275-.769,0-.055.11-.165.22-.221C1480.463,2432.61,1483.1,2433.379,1483.1,2435.084Zm-12.539,21.063c0,.824,1.485,2.584,2.31,2.584.77,0,1.54-1.539,1.54-4.234,0-.22,0-.77-.165-.879C1474.084,2453.618,1470.564,2455.377,1470.564,2456.147Zm36.13-17.1c0,1.156-.659,2.641-1.814,2.641-.33,0-1.595-.11-1.87-.11-.275.054-1.43.384-1.65.384a.256.256,0,0,1-.275-.274,3.8,3.8,0,0,1,.165-.44,2.894,2.894,0,0,0,.22-.99c0-2.2-2.749-2.97-4.619-2.97a4.774,4.774,0,0,0-2.145.55,1.229,1.229,0,0,1-.55.165c-.165,0-.22-.055-.22-.219a7.032,7.032,0,0,1,5.94-3.465C1504.11,2434.315,1506.694,2436.514,1506.694,2439.043Z" fill="#333"/>
        <path id="パス_1445" data-name="パス 1445" d="M1548.947,2440.088a48.428,48.428,0,0,0,13.308,4.345c.22,0,1.155.165,1.155.386,0,.164-.77.385-.99.439a9.527,9.527,0,0,0-4.179,2.969c-.165.221-.77,1.375-1.045,1.375-.33,0-12.263-5.773-17.653-14.572-1.044-1.76-1.209-1.925-1.595-1.925s-.494.11-1.7,1.374a65.336,65.336,0,0,1-16.278,12.814c-1.87.99-7.589,3.52-8.634,3.52-.165,0-.275-.11-.275-.166s5.884-3.684,6.379-4.014c7.424-4.675,15.288-13.089,16.058-17.213.055-.439.11-.6.495-.6.275,0,4.729,1.705,5,1.87.165.056.715.274.715.825a3.453,3.453,0,0,1-.22.77C1539.6,2433.1,1544.328,2437.724,1548.947,2440.088ZM1522.44,2426.4c-4.069,0-5.938.11-6.983.166-.165,0-.991.109-1.155.109s-.276-.109-.495-.33l-1.045-1.264c-.22-.275-.22-.275-.22-.385s.055-.11.165-.11c.385,0,2.089.165,2.42.165,2.694.11,5,.219,7.588.219h1.6c1.155,0,1.485-.549,1.485-1.484a8.926,8.926,0,0,0-.44-2.914,8.331,8.331,0,0,1-.33-1.1c0-.274.275-.384.6-.384.385,0,2.86.6,3.465.77,1.649.439,1.979.549,1.979,1.045,0,.329-.054.439-.824,1.43a1.338,1.338,0,0,0-.386.989c0,1.319.44,1.649,1.925,1.649h9.074c.495,0,1.65,0,1.65-1.484a22.883,22.883,0,0,0-.165-2.475c-.055-.275-.33-1.429-.33-1.65,0-.274.33-.385.605-.385.385,0,4.124.881,4.729,1.045s.935.385.935.881c0,.329-.22.549-.825.989a1.763,1.763,0,0,0-.715,1.54c0,1.539.88,1.539,1.76,1.539h2.805c2.419,0,2.694,0,3.519-.934,1.54-1.815,1.7-2.034,2.2-2.034.33,0,5.114,2.914,5.114,3.628,0,.77-1.1.77-2.914.77h-10.724c-1.7,0-1.7.881-1.7,2.2,0,.33.055,2.2.055,2.475,0,2.035-1.649,2.364-2.8,2.364-1.265,0-1.485-.219-1.485-2.089v-3.795c-.165-1.045-.825-1.155-1.7-1.155h-8.8c-1.265,0-2.035,0-2.035,1.541,0,.549.165,2.969.165,3.464,0,1.045-.165,1.54-.659,1.87a3.914,3.914,0,0,1-2.09.77c-.935,0-1.375-.606-1.375-1.706,0-.439.055-2.529.055-2.914,0-2.144,0-3.025-1.7-3.025Zm3.905,28.1a28.189,28.189,0,0,1,4.235,2.585,1.364,1.364,0,0,1,.44.825c0,.66-.44.769-1.76,1.1-.165.055-4.9,3.74-5.775,4.4-4.949,3.519-8.084,4.784-8.358,4.784a.176.176,0,0,1-.166-.165c0-.11,2.915-2.64,3.3-3.025,4.564-4.343,7.369-8.689,7.864-10.449A.336.336,0,0,1,1526.345,2454.5Zm2.53-2.915c-4.29,0-5.885.055-6.984.165-.165,0-.99.111-1.155.111s-.275-.111-.495-.33l-1.045-1.266c-.22-.275-.22-.275-.22-.385,0-.054.055-.109.165-.109.385,0,2.09.164,2.42.164,2.694.166,5,.221,7.588.221h4.125c.55,0,1.65,0,1.65-1.486,0-.659-.33-5.114-.44-5.664,0-.11-.33-.66-.33-.77s.11-.329.55-.329c.385,0,4.235.825,4.784.989.77.166,1.045.66,1.045.936,0,.33-.11.439-.935,1.154-.77.66-.77.99-.77,2.64,0,1.979,0,2.53,1.65,2.53h2.42c2.419,0,2.694,0,3.52-.936,1.539-1.814,1.7-2.034,2.2-2.034.33,0,5.114,2.97,5.114,3.63,0,.769-1.1.769-2.914.769h-10.394c-1.65,0-1.65.991-1.65,2.75,0,3.905,0,6.1.11,9.348.056.936.056,2.256.056,2.915,0,1.76-.44,2.8-2.8,2.8-1.21,0-1.32-.989-1.32-1.925,0-.715.165-4.015.165-4.729.055-2.089.055-4.124.055-6.654a33.281,33.281,0,0,0-.11-3.74c-.275-.77-1.155-.77-1.595-.77Zm14.683,4.62c0-.165.275-.22.495-.22,2.034,0,14.573,3.464,14.573,8.028,0,1.76-.99,3.135-2.365,3.135-1.045,0-1.265-.275-2.969-2.8-2.585-3.9-6.38-6.159-9.459-7.919C1543.778,2456.421,1543.558,2456.256,1543.558,2456.2Z" fill="#333"/>
        <path id="パス_1446" data-name="パス 1446" d="M1573.547,2448.283c0-1.65,1.539-3.409,5.279-7.754,2.475-2.861,4.675-7.424,4.675-8.2,0-.33-.385-.384-.6-.384-.55,0-2.805.439-3.3.439-2.09,0-4.894-2.693-4.894-4.839,0-.165,0-.385.33-.385a12.342,12.342,0,0,1,2.089,1.045,8.741,8.741,0,0,0,3.63.99c4.509,0,4.509-1.485,4.509-2.584a4.409,4.409,0,0,0-.44-1.925c-.165-.275-1.319-1.265-1.319-1.595,0-.439,1.429-.88,2.419-.88,1.32,0,2.695.495,2.8,1.7.055.715.275.826,2.474.991.386,0,2.475.275,2.475,1.429,0,1.815-4.014,3.356-6.544,4.345-.825.33-.88.44-2.09,3.245a42.69,42.69,0,0,1-2.969,5.939c-.275.5-.385.66-.385.88a.2.2,0,0,0,.22.22,11.05,11.05,0,0,0,1.7-.6,5.123,5.123,0,0,1,2.145-.44,4.96,4.96,0,0,1,4.675,3.354c.384.935.44,1.045.55,1.045a25.9,25.9,0,0,0,2.254-2.969c1.815-2.53,5.39-7.534,10.174-7.534a5.187,5.187,0,0,1,5.169,4.893c0,2.586-4.344,4.4-7.754,5.885-1.375.606-7.589,3.08-8.579,3.685-.88.549-.934,1.155-.934,2.309,0,.495.109,2.8.109,3.3,0,.88,0,4.015-2.034,4.015-1.485,0-1.7-1.815-1.7-2.8,0-.551.165-3.189.165-3.244,0-.221,0-.66-.385-.66-.44,0-5.334,3.409-5.334,6.544,0,3.794,5.5,3.794,7.094,3.794a17.016,17.016,0,0,0,3.519-.33c.77-.11,4.29-.99,5.005-.99,1.154,0,2.694.55,2.694,1.87,0,3.41-8.523,3.629-9.843,3.629-6.985,0-10.669-2.859-10.669-7.2,0-3.519,2.09-5.279,7.259-9.458a2.344,2.344,0,0,0,.825-1.926c0-2.474-.44-5.553-2.64-5.553-2.09,0-5.334,2.529-6.764,5.829-.6,1.375-1.209,2.695-2.969,2.695C1574.592,2450.1,1573.547,2449.768,1573.547,2448.283Zm14.023-20.787c.11,0,2.749-.715,2.749-1.32,0-.715-1.374-.826-1.869-.826-.77,0-.99,1.541-.99,1.76S1587.46,2427.5,1587.57,2427.5Zm5,17.817c0,.11.055.275.22.275s11-4.4,11-8.029a1.693,1.693,0,0,0-1.925-1.65C1597.3,2435.909,1592.574,2444.433,1592.574,2445.313Z" fill="#333"/>
        <path id="パス_1447" data-name="パス 1447" d="M1639.027,2425.186c0,.494-2.585,5.114-2.585,6.049,0,.385.275.769.99,1.265,1.32.934,1.98,1.54,1.98,2.365,0,.88-.6,1.319-4.07,2.529-1.484.495-1.594.88-2.639,4.345a28.644,28.644,0,0,0-1.155,4.784c0,.88.22.88,4.07,1.21,1.32.109,3.9.934,3.9,2.309,0,.99-1.485,1.595-2.86,1.595-.825,0-4.784-.715-5.059-.715-1.375,0-1.375,2.584-1.375,3.795.055,2.475.715,8.194,7.589,8.194,2.31,0,7.919-.991,7.919-7.479,0-2.365-.495-5.5-5.444-12.429a.884.884,0,0,1-.22-.549c0-.5,1.21.549,1.375.66,6.324,5.113,8.8,9.459,8.8,13.307,0,5.225-5.28,9.9-11.714,9.9-1.045,0-10.5,0-10.5-9.954,0-.88.44-4.62.44-5.39,0-.66-.11-1.045-1.045-1.76-1.979-1.484-2.969-2.968-2.969-4.674,0-1.65.6-3.464,4.069-6.269,2.86-2.31,3.19-2.529,3.19-3.3,0-.715-.275-.935-1.485-1.87-1.595-1.265-3.685-2.915-3.685-5.225,0-.384.111-.989.5-.989.275,0,1.21,1.154,1.429,1.319a8.147,8.147,0,0,0,3.74,1.925c1.54,0,1.98-4.894,1.98-5.664a14.43,14.43,0,0,0-.55-3.684,1.091,1.091,0,0,1-.11-.55C1635.178,2420.071,1639.027,2423.7,1639.027,2425.186Zm-9.129,13.857c-1.265,0-4.014,1.871-4.014,3.96,0,1.65,1.7,3.3,2.8,3.3a.7.7,0,0,0,.6-.44,35.563,35.563,0,0,0,1.32-5.884C1630.613,2439.54,1630.613,2439.043,1629.9,2439.043Z" fill="#333"/>
        <path id="パス_1448" data-name="パス 1448" d="M1664.3,2446.082c0-.659.33-.878.77-.878s2.31.548,2.695.548c1.045,0,1.65-.274,6.984-2.474,2.145-.879,7.974-3.244,12.208-3.244a10.989,10.989,0,0,1,11.219,10.888c0,8.469-8.964,12.758-17.433,12.758-.55,0-1.375,0-1.375-.659,0-.5.22-.55,1.925-.771,10.063-1.375,13.253-8.358,13.253-12.978a7.139,7.139,0,0,0-6.874-7.479c-3.464,0-8.029,2.2-13.418,5.775-3.19,2.144-3.575,2.364-4.784,2.364C1666.832,2449.932,1664.3,2447.4,1664.3,2446.082Z" fill="#333"/>
        <path id="パス_1449" data-name="パス 1449" d="M1719.51,2447.9c1.65-1.54,2.365-2.255,2.365-2.97a14.042,14.042,0,0,0-.495-1.705,17.676,17.676,0,0,1-.935-6.433c0-1.266.275-7.645.275-9.075,0-2.75-.77-3.574-1.65-4.454-1.155-1.21-1.319-1.375-1.319-1.54,0-.22,1.319-.275,1.484-.275,3.135,0,5.939,2.53,5.939,4.125,0,.495-.66,2.969-.77,3.519a51.939,51.939,0,0,0-.494,7.259c0,2.09,0,6.544,1.429,6.544.77,0,1.1-.22,4.07-2.09.6-.385,4.069-2.584,5.664-2.584a2.113,2.113,0,0,1,2.09,2.035c0,1.65-2.255,2.53-4.235,3.3-13.088,5.279-14.958,9.294-14.958,12.868,0,3.74,3.19,5.115,7.644,5.115a24.536,24.536,0,0,0,6.6-.991,14.991,14.991,0,0,1,4.125-.824c1.87,0,3.629,1.265,3.629,2.64,0,2.8-11.218,3.079-14.133,3.079-2.529,0-10.5,0-10.5-8.633A12.465,12.465,0,0,1,1719.51,2447.9Z" fill="#333"/>
        <path id="パス_1450" data-name="パス 1450" d="M1762.01,2451.747c-4.84,0-6.434.111-6.985.111a8.3,8.3,0,0,1-1.154.164c-.22,0-.275-.164-.495-.385l-1.045-1.264a.839.839,0,0,1-.22-.331.146.146,0,0,1,.165-.165c.385,0,2.09.221,2.42.221,2.694.109,4.949.164,7.534.164H1774c1.045,0,1.43-.275,1.43-1.484a20,20,0,0,0-.275-2.75c-.055-.33-.495-1.815-.495-2.145,0-.275.055-.66.77-.66.44,0,3.3.77,3.684.88.44.165.935.386.935.88a9.885,9.885,0,0,1-.66,1.32,2.893,2.893,0,0,0-.494,2.035c0,1.32.054,1.924,1.649,1.924h11.329c2.364,0,2.639,0,3.134-.494.385-.33,1.815-2.311,2.31-2.311s4.124,2.916,4.124,3.52c0,.77-1.154.77-2.969.77h-16.608c-.5,0-.935,0-.935.6,0,1.814,9.954,9.568,21.117,10.5.11,0,.99.055.99.22s-.055.165-.66.33c-1.1.274-3.629,1.1-4.564,3.354-.275.66-.275.77-.5.77-.55,0-13.088-5.829-17.378-13.528-.33-.66-.44-.88-.66-.88-.384,0-.384.66-.384.77,0,2.09.329,11.108.329,12.978a2.126,2.126,0,0,1-2.144,2.365c-.6,0-2.09-.33-2.09-2.475,0-1.925.385-10.339.385-12.043,0-.166,0-.551-.385-.551-.33,0-2.2,2.036-2.64,2.42a39.978,39.978,0,0,1-18.862,9.514c-1.485.275-2.365.44-2.475.44-.165,0-.275-.055-.275-.219s.11-.221.935-.551c9.4-3.574,19.467-11.658,19.467-13.418,0-.6-.88-.6-1.264-.6Zm-3.465-4.894c-.055.33-.055.88-.77.88-.44,0-4.619-3.026-4.619-3.85,0-.33.165-.384,1.76-1.21,2.034-1.045,11.823-8.138,11.878-8.138a.175.175,0,0,1,.165.165c0,.494-6.709,8.964-7.919,10.5A2.577,2.577,0,0,0,1758.545,2446.853Zm3.08-15.013c-1.045,0-1.43-.66-1.87-1.485a19.905,19.905,0,0,0-5.279-6.379,3.043,3.043,0,0,1-.44-.386c0-.109.11-.164.275-.164a15.306,15.306,0,0,1,4.619,1.1c3.96,1.6,4.949,2.529,4.949,4.729A2.449,2.449,0,0,1,1761.625,2431.84Zm19.3-6.545a2.824,2.824,0,0,0,1.925-.549c.22-.22,1.21-1.65,1.54-1.65.44,0,3.739,2.2,3.739,3.135a1.237,1.237,0,0,1-.44.769c-.715.661-.77.715-.77,1.265,0,1.87.495,10.889.495,12.979,0,1.979-.99,3.3-2.529,3.3a1.653,1.653,0,0,1-1.65-1.759c-.11-1.43-.715-1.54-1.54-1.54h-8.524a1.35,1.35,0,0,0-1.595,1.264c-.055,1.045-.164,2.75-2.529,2.75-1.595,0-1.595-1.21-1.595-1.759,0-1.485.33-8.8.33-10.45a51.6,51.6,0,0,0-.44-7.478,17.66,17.66,0,0,1-.385-1.815c0-.384.275-.5.66-.5.715,0,3.739,2.034,4.509,2.034.99,0,1.485-3.024,1.485-4.4,0-.221-.11-1.155-.11-1.375,0-.495.275-.606.825-.606s5.224.991,5.224,2.036c0,.33-.165.439-1.429,1.264-.386.275-2.86,2.145-2.86,2.695,0,.384.33.384,1.045.384Zm.55,6.875c1.815,0,1.815-.88,1.815-2.64,0-1.98,0-2.8-1.815-2.8h-8.249c-1.814,0-1.814.825-1.814,2.53,0,2.2,0,2.915,1.814,2.915Zm.055,7.588c1.76,0,1.76-.659,1.76-3.189,0-2.2,0-2.969-1.76-2.969h-8.3c-1.814,0-1.814.824-1.814,2.639,0,2.97,0,3.519,1.814,3.519Zm17.158,6.05c-.88,0-1.045-.22-4.51-4.069-.88-.99-5.829-5.994-5.829-6.1,0-.165.11-.165.165-.165.55,0,11.714,3.19,11.714,8.524C1800.23,2445.368,1799.405,2445.808,1798.69,2445.808Zm-8.634-13.253c-.165,0-.22-.11-.22-.166s1.375-1.648,1.65-1.978c1.374-1.816,3.849-5.335,4.069-6.985.11-.769.11-.935.44-.935.88,0,5.114,3.3,5.114,3.9,0,.44-.274.5-1.154.715a4.181,4.181,0,0,0-1.925.881C1796.38,2429.145,1791.1,2432.555,1790.056,2432.555Z" fill="#333"/>
        <path id="パス_1451" data-name="パス 1451" d="M1822.448,2428.155a25.25,25.25,0,0,1-1.045,3.08,132.18,132.18,0,0,0-2.31,19.578c0,5.554,1.045,10.5,8.414,10.5a27.089,27.089,0,0,0,11.548-2.859c.825-.386,5.005-2.7,5.225-2.7a.256.256,0,0,1,.275.275c0,.6-8.139,9.459-18.478,9.459-7.149,0-10.558-4.124-10.558-15.179,0-3.409.109-4.509,1.264-15.287.22-1.815.715-6.324.715-7.865a6.907,6.907,0,0,0-.495-2.694c-.055-.165-.605-1.43-.605-1.485,0-.385.44-.55.77-.55C1820.028,2422.436,1822.448,2426.891,1822.448,2428.155Z" fill="#333"/>
        <path id="パス_1452" data-name="パス 1452" d="M1868.285,2424.141c.44,1.869.55,2.364,1.759,2.475,2.585.275,3.575.384,3.575,2.035,0,1.374-1.21,2.254-3.079,3.079-.551.22-3.135.989-3.685,1.319-.825.495-1.045,3.905-1.045,4.51a1.655,1.655,0,0,0,.6,1.32c1.265,1.594,1.815,2.254,1.815,4.454a9.1,9.1,0,0,1-2.915,6.874c-.6.44-.77.606-.77,1.21,0,.5.6,2.749.6,3.3a1.973,1.973,0,0,1-1.21,1.815c-.99.494-1.209.6-1.209,1.21,0,2.749,3.134,4.014,9.238,4.014,10.119,0,11.219-2.7,11.384-12.318.11-4.84.33-14.519,6.214-14.519,3.41,0,6.874,6.49,6.874,9.624a2.375,2.375,0,0,1-1.815,2.584,20.086,20.086,0,0,1-2.64-1.375c-.549-.164-3.464-.824-3.464-1.154s1.925-.824,2.255-1.045a1.885,1.885,0,0,0,1.045-1.925c0-2.364-1.43-4.893-3.245-4.893-3.19,0-3.849,4.839-3.849,10.777,0,1.816.219,4.84.384,6.435.111.825.935,4.729.935,5.665,0,5.773-11.108,5.994-13.913,5.994-10.833,0-11.548-4.84-11.548-6.27,0-.495.44-2.695.44-3.189,0-.715-.11-.825-1.21-2.09a15.364,15.364,0,0,1-3.135-8.853,7.226,7.226,0,0,1,4.565-6.93c.275-.109,1.7-.44,2.034-.55.386-.11.495-2.97.495-3.189,0-.715-.274-.771-.6-.771-.549,0-3.354.715-4.014.715-1.76,0-4.179-2.419-4.179-4.619,0-.164.054-.77.44-.77.439,0,2.529.606,3.024.715a13.392,13.392,0,0,0,3.245.33c2.584,0,3.024,0,3.024-2.035a8.79,8.79,0,0,0-.88-3.794c-.164-.33-1.265-1.7-1.265-2.09,0-.715,1.375-.6,1.815-.55C1865.645,2421.886,1867.955,2422.711,1868.285,2424.141Zm-6.05,16.662c-1.374,0-3.024,1.54-3.024,4.4,0,1.923.99,4.013,2.53,4.013.659,0,.934-.715,1.1-1.209a45.737,45.737,0,0,0,.661-5.445C1863.5,2441.354,1863.061,2440.8,1862.235,2440.8Zm5.28-12.482c0,.385.11.549.385.549.055,0,1.87-.5,1.87-1.1a1.11,1.11,0,0,0-1.155-.879,1.334,1.334,0,0,0-.55.109C1867.515,2427.331,1867.515,2428.21,1867.515,2428.321Z" fill="#333"/>
        <path id="パス_1453" data-name="パス 1453" d="M1919.253,2437.614c-.769.11-1.319.551-2.749,2.42-3.08,4.179-6.764,9.129-11.658,12.923-.715.549-2.42,1.87-3.08,1.87-.11,0-.22,0-.22-.11s2.8-3.575,3.3-4.29c1.045-1.429,6.544-9.073,8.8-15.012.714-1.871.769-2.09,1.044-2.09a35.864,35.864,0,0,1,5.225,2.42c.659.384.935.934.714,1.375C1920.463,2437.5,1920.244,2437.5,1919.253,2437.614Zm12.264-15.728c0,.441-.22.6-1.045,1.32-.44.33-.715.88-.77,2.2-.165,3.245-.22,6.6-.22,9.9,0,4.84,0,23.812-.055,25.737,0,1.76-.11,4.29-2.529,6.049a7.559,7.559,0,0,1-3.9,1.485c-.275,0-.275,0-.88-1.65-.66-1.705-1.21-2.09-3.629-3.409-.66-.385-1.155-.66-1.155-.881s.33-.219.6-.219c.66,0,3.519.275,4.124.275,1.265,0,2.7-.22,3.135-1.7.385-1.374.385-15.343.385-17.763,0-9.844-.22-17.1-.33-21.062,0-.33-.22-1.7-.22-2.035s.385-.384.605-.384c.44,0,2.2.384,2.749.5C1929.812,2420.511,1931.517,2420.9,1931.517,2421.886Zm17.652,32.28c-1.209,0-1.264-.054-3.794-4.619-2.805-5-6.6-10.393-9.184-12.868-.495-.495-.989-1.1-.989-1.375,0-.22.219-.22.329-.22,1.265,0,15.618,8.36,15.618,15.729C1951.149,2451.417,1951.149,2454.166,1949.169,2454.166Z" fill="#333"/>
        <path id="パス_1454" data-name="パス 1454" d="M1971.317,2429.53c.66,0,.88,0,1.43-.824,1.375-1.925,1.484-2.145,1.98-2.145.824,0,4.509,2.859,4.509,3.739,0,.659-.715.659-2.035.659h-12.538c-1.155,0-2.97,0-4.454.111a9.729,9.729,0,0,1-1.155.165c-.165,0-.22-.11-.33-.33l-.77-1.265c-.11-.274-.165-.274-.165-.385,0-.055.055-.11.165-.11,0,0,1.155.165,1.375.165,1.429.11,4.179.22,5.554.22Zm-1.595,6.6c.825,0,.88-.054,1.54-.825,1.21-1.319,1.32-1.484,1.6-1.484.935,0,3.739,2.309,3.739,3.079,0,.66-.824.66-2.365.66h-6.818c-.99,0-3.08,0-4.51.109-.165,0-.935.166-1.1.166s-.275-.166-.385-.33l-.714-1.32c-.165-.22-.165-.275-.165-.33s.054-.109.165-.109c0,0,1.1.109,1.319.164,1.43.111,4.18.22,5.555.22Zm-3.354,28.211c-1.705,0-1.705.715-1.705,2.09a2.311,2.311,0,0,1-2.365,2.365c-1.54,0-1.54-1.375-1.54-1.815,0-1.484.165-8.964.165-10.669a28.625,28.625,0,0,0-.165-4.289c0-.22-.219-1.375-.219-1.595,0-.329.109-.715.494-.715a7.825,7.825,0,0,1,2.145.661,4.356,4.356,0,0,0,2.585.714h3.959a2.018,2.018,0,0,0,1.815-.6c.77-.936.88-1.045,1.32-1.045.275,0,3.739,1.319,3.739,2.529,0,.33-.329.606-.55.77-.6.385-.714.495-.77.769-.054.221-.054,5.995-.054,6.27,0,1.21,0,1.814.054,2.42.056.33.275,2.035.275,2.255a2.431,2.431,0,0,1-2.529,2.309c-1.045,0-1.1-.439-1.265-1.484-.165-.936-1.265-.936-1.54-.936Zm1.21-40.09c-1.375,0-3.245,0-4.51.111-.165,0-.99.165-1.155.165-.11,0-.22-.165-.329-.33l-.715-1.265c-.165-.274-.165-.274-.165-.385,0-.055,0-.11.11-.11.055,0,1.154.11,1.375.165,1.429.11,4.179.22,5.554.22,1.539,0,1.594,0,2.254-.824,1.265-1.706,1.43-1.926,1.815-1.926.77,0,3.85,2.586,3.85,3.465,0,.714-.715.714-1.925.714Zm2.8,19.3a1.432,1.432,0,0,0,1.54-.769c.715-.936,1.045-1.43,1.485-1.43.66,0,3.244,2.475,3.244,3.024,0,.66-.824.66-2.254.66h-6.819a32.669,32.669,0,0,0-4.84.166c-.11,0-.66.109-.77.109-.165,0-.219-.109-.384-.385l-.715-1.264c-.165-.22-.165-.276-.165-.331,0-.11.054-.11.165-.11,0,0,1.154.165,1.374.165,1.54.165,4.015.165,5.5.165Zm-4.234,9.02c-.6,0-1.65.054-1.65,1.593,0,1.76,0,6.545.22,7.754.165.991,1.045.991,1.595.991h3.9a1.325,1.325,0,0,0,1.54-1.485v-7.314c0-1.155-.55-1.539-1.54-1.539Zm31.4-17.269c2.31,0,2.915,0,3.52-.989.88-1.485,1.265-2.09,1.925-2.09.715,0,4.674,2.75,4.674,3.629s-1.265.881-3.134.881h-9.239c-.825,0-1.54.219-1.595,1.209-.055.6-.055,8.194-.055,9.183,0,1.54.935,1.54,1.815,1.54h1.87a2.173,2.173,0,0,0,1.869-.6c.6-.825.66-.936,1.155-.936.935,0,3.795,2.2,3.795,2.7,0,.33-1.1,1.209-1.265,1.429a1.848,1.848,0,0,0-.275,1.155c0,.825.055,6.49.165,8.524,0,.6.33,3.245.33,3.794a2.513,2.513,0,0,1-2.75,2.475c-1.1,0-1.209-.33-1.374-1.539-.165-.936-1.155-.991-1.706-.991H1986.44c-.715,0-1.76.055-1.76,1.43,0,.936,0,2.585-2.309,2.585-1.76,0-1.76-1.21-1.76-1.76,0-.385.11-1.815.11-1.925.055-1.21.055-6.763.055-8.3a56.313,56.313,0,0,0-.165-7.095c0-.22-.22-1.375-.22-1.594,0-.44.22-.77.66-.77a9.581,9.581,0,0,1,3.079,1.045,3.576,3.576,0,0,0,1.87.384h2.255c1.7,0,1.87-.44,1.87-2.088v-8.36c0-1.155-.66-1.484-1.595-1.484h-1.43c-4.785,0-6.379.109-6.929.164-.165,0-.99.11-1.155.11-.22,0-.33-.11-.495-.33l-1.045-1.264c-.22-.276-.275-.276-.275-.385s.11-.111.22-.111c.385,0,2.09.165,2.42.165,2.7.11,4.949.22,7.534.22h1.155c1.595,0,1.595-.934,1.595-1.54v-6.983c0-.88-.11-1.375-1.1-1.375-1.32,0-7.259.77-8.469.77-.275,0-.6-.11-.6-.275,0-.44,9.349-2.42,10.613-2.86,1.265-.384,6.435-2.144,7.149-2.53,1.155-.6,1.32-.715,1.54-.715a26.505,26.505,0,0,1,2.8,1.375c1.925.99,2.09,1.1,2.09,1.7,0,.5-.55.827-1.21.827-.165,0-1.65-.056-1.76-.056-.33,0-6.269,1.265-6.709,1.375-.55.11-.77.274-.77,1.649,0,2.585,0,7.535.055,7.7.165.934,1.21.934,1.54.934Zm-11.273,14.849c-1.76,0-1.925.494-1.925,2.2,0,1.484,0,9.184.276,10.119.219.77,1.154.77,1.814.77h10.779c.715,0,1.814,0,1.814-1.375v-10.174c0-1.539-1.045-1.539-1.76-1.539Z" fill="#333"/>
      </g>
    </g>
  </g>
</svg>
