<?xml version="1.0" encoding="utf-8"?>
<!-- Generator: Adobe Illustrator 25.4.0, SVG Export Plug-In . SVG Version: 6.00 Build 0)  -->
<svg version="1.1" id="レイヤー_1" xmlns="http://www.w3.org/2000/svg" xmlns:xlink="http://www.w3.org/1999/xlink" x="0px"
	 y="0px" viewBox="0 0 40 40" style="enable-background:new 0 0 40 40;" xml:space="preserve">
<style type="text/css">
	.st0{fill:#FFFFFF;}
</style>
<g>
	<path class="st0" d="M37.88,5.2c-1.58,0.84-3.14,1.48-4.79,1.77c-0.5-0.43-0.95-0.89-1.48-1.24c-0.47-0.32-1.02-0.53-1.55-0.75
		c-0.46-0.19-0.98-0.31-1.46-0.38c-0.77-0.11-1.57-0.02-2.35-0.04c-0.23-0.01-0.39,0.12-0.58,0.17c-1.22,0.26-1.65,0.48-2.64,1.08
		c-0.38,0.23-0.6,0.61-0.96,0.81c-0.51,0.28-0.8,0.76-1.08,1.18c-0.68,1.03-1.32,2.12-1.33,3.43c0,0.05-0.03,0.1-0.05,0.14
		c-0.24,0.57-0.05,1.16-0.11,1.74c0.34,0.32,0.08,0.69,0.17,1.08c-2.68-0.26-5.21-0.76-7.62-1.82c-3.32-1.46-6.16-3.56-8.52-6.42
		C3.03,6.81,2.7,7.69,2.62,8.59c-0.08,1.02-0.16,2.07,0.12,3.1c0.33,1.19,0.75,2.32,1.66,3.22c0.48,0.48,0.96,0.96,1.55,1.55
		c-1.33-0.16-2.44-0.44-3.54-1.02c0.08,1.88,0.62,3.52,1.79,4.97c1.15,1.43,2.63,2.29,4.44,2.75c-1.18,0.46-2.34,0.11-3.45,0.29
		c0.11,0.18,0.26,0.32,0.28,0.49c0.08,0.71,0.56,1.22,0.95,1.71c0.88,1.11,1.95,2.05,3.32,2.54c0.55,0.2,1.1,0.43,1.7,0.41
		c0.33-0.01,0.6,0.1,1.01,0.29c-0.17,0.11-0.29,0.2-0.42,0.29c-1.17,0.74-2.35,1.45-3.68,1.9c-2.28,0.77-2.35,0.8-4.16,0.95
		c-0.05,0-0.11-0.01-0.16,0c-1.17,0.22-1.68,0.22-2.63,0c-0.08-0.02-0.17,0.03-0.29,0.05c0.08,0.08,0.11,0.13,0.16,0.16
		c1.21,0.67,2.4,1.38,3.73,1.78c0.84,0.26,1.64,0.64,2.52,0.79c0.52,0.09,1.08,0.17,1.56,0.34c0.5,0.18,1-0.01,1.46,0.19
		c0.49,0.21,1,0.05,1.5,0.09c0.3,0.02,0.6,0,0.89,0c0.6,0,1.19-0.02,1.79,0.01c0.58,0.02,1.13-0.28,1.72-0.17
		c0.05,0.01,0.12,0.02,0.16,0c0.63-0.31,1.33-0.3,2-0.47c1.18-0.29,2.32-0.66,3.43-1.15c1.37-0.61,2.65-1.35,3.88-2.23
		c0.83-0.6,1.59-1.27,2.35-1.93c0.73-0.64,1.3-1.44,1.92-2.2c0.88-1.07,1.65-2.21,2.28-3.45c0.48-0.94,0.92-1.89,1.33-2.86
		c0.19-0.46,0.35-0.95,0.47-1.43c0.12-0.49,0.21-1,0.37-1.48c0.16-0.49,0.15-1,0.29-1.5c0.17-0.6,0.16-1.25,0.18-1.88
		c0.03-0.81,0.01-1.62,0.01-2.44c0.7-0.59,1.5-1.11,2.08-1.8c0.57-0.67,1.29-1.27,1.72-2.2c-1.39,0.56-2.71,0.92-4.13,1.14
		c0.02-0.1,0.01-0.23,0.07-0.27c0.27-0.19,0.59-0.31,0.83-0.53c0.91-0.82,1.61-1.82,2.13-2.93C37.85,5.55,37.85,5.4,37.88,5.2z"/>
</g>
</svg>
